<?xml version="1.0" encoding="UTF-8" standalone="no"?>
<!-- Created with Inkscape (http://www.inkscape.org/) -->

<svg
   xmlns:dc="http://purl.org/dc/elements/1.1/"
   xmlns:cc="http://creativecommons.org/ns#"
   xmlns:rdf="http://www.w3.org/1999/02/22-rdf-syntax-ns#"
   xmlns:svg="http://www.w3.org/2000/svg"
   xmlns="http://www.w3.org/2000/svg"
   xmlns:sodipodi="http://sodipodi.sourceforge.net/DTD/sodipodi-0.dtd"
   xmlns:inkscape="http://www.inkscape.org/namespaces/inkscape"
   id="svg2985"
   version="1.1"
   inkscape:version="0.48.3.1 r9886"
   width="60"
   height="60"
   sodipodi:docname="Female Islander Torso.svg">
  <metadata
     id="metadata2991">
    <rdf:RDF>
      <cc:Work
         rdf:about="">
        <dc:format>image/svg+xml</dc:format>
        <dc:type
           rdf:resource="http://purl.org/dc/dcmitype/StillImage" />
        <dc:title />
      </cc:Work>
    </rdf:RDF>
  </metadata>
  <defs
     id="defs2989" />
  <sodipodi:namedview
     pagecolor="#ffffff"
     bordercolor="#666666"
     borderopacity="1"
     objecttolerance="10"
     gridtolerance="10"
     guidetolerance="10"
     inkscape:pageopacity="0"
     inkscape:pageshadow="2"
     inkscape:window-width="1280"
     inkscape:window-height="1002"
     id="namedview2987"
     showgrid="false"
     inkscape:zoom="3.9333333"
     inkscape:cx="-76.222524"
     inkscape:cy="49.053241"
     inkscape:window-x="1912"
     inkscape:window-y="-8"
     inkscape:window-maximized="1"
     inkscape:current-layer="svg2985" />
  <g
     id="g3114"
     transform="matrix(1.3921023,0,0,1.3921023,100.75647,-9.8146384)">
    <g
       transform="translate(-80.847458,-4.5762712)"
       id="g2995">
      <path
         sodipodi:nodetypes="sssssssssssccsssssssssssssssssssssssssssssssssssssssssssssssssss"
         inkscape:connector-curvature="0"
         id="path3001"
         d="m 30,50.606989 c 0,-1.801581 -3.023116,-4.004854 -5.053087,-1.882856 -2.85567,2.98513 -2.709295,0.04033 -3.36949,-0.818396 -0.615787,-0.800963 -2.304774,-3.150109 -3.483063,-2.382682 -1.394727,0.908394 -1.973948,-1.986572 -2.527529,-3.04105 -0.625555,-1.191576 -2.796476,-3.705337 -3.156717,-2.832772 -1.734412,4.201027 -1.876958,-3.591479 -1.757982,-7.592484 0.08367,-2.813787 0.605905,-5.66515 1.160514,-6.336363 1.867944,-2.260665 3.762037,-8.66311 2.245035,-9.6239 -0.955571,-0.605209 -1.078437,0.39128 1.169014,0.380691 3.023097,-0.01424 0.739407,-0.861882 0.739407,2.254956 0,4.290845 3.365392,11.551134 5.387228,13.115301 2.156128,2.701199 15.203023,1.833793 19.218704,-0.390145 2.050417,-0.554364 5.068376,-3.144063 5.772573,-8.847119 0.455882,-3.692035 -0.632955,-4.972458 0.767447,-4.972458 0.990931,0 1.179773,-1.879133 1.447244,-1.446357 0.26747,0.432776 1.616163,5.868175 2.008343,12.573039 0.666482,11.394418 -0.732889,11.071914 -1.177293,12.909117 -2.432931,10.057944 -3.004771,1.978752 -4.363032,3.522472 -1.358423,1.543904 -0.45372,5.702179 -3.889758,2.804017 -0.595766,-0.502505 -2.01487,0.7875 -2.745512,1.75 -1.26518,1.666667 -1.329954,1.666667 -1.360243,0 C 36.987924,47.335528 33.933155,47.539612 33.289749,50 32.699944,52.255418 30,52.753582 30,50.606989 z M 33,36.666667 C 33,34.78579 32.037669,34.048315 30.402234,34.67589 28.275175,35.492119 28.72616,38 31,38 c 1.1,0 2,-0.6 2,-1.333333 z m -7.250136,-3.250136 c -0.952958,-0.952958 -2.863492,0.590599 -2.153308,1.7397 0.422119,0.683003 0.981465,0.665748 1.699645,-0.05243 0.588756,-0.588756 0.792905,-1.348027 0.453663,-1.68727 z M 39,34.5 C 39,33.675 38.576558,33 38.059017,33 36.798039,33 35.894922,34.561589 36.693853,35.36052 37.820037,36.486704 39,36.04641 39,34.5 z m -19,-2 C 20,31.675 19.576558,31 19.059017,31 17.798039,31 16.894922,32.561589 17.693853,33.36052 18.820037,34.486704 20,34.04641 20,32.5 z m 24.75,0.25 c -0.471891,-1.415672 -2.079983,-1.260051 -2.583333,0.25 -0.183334,0.55 0.416666,1 1.333333,1 0.916667,0 1.479167,-0.5625 1.25,-1.25 z M 17,29 c 0,-0.55 -0.45,-1 -1,-1 -0.55,0 -1,0.45 -1,1 0,0.55 0.45,1 1,1 0.55,0 1,-0.45 1,-1 z m 30,0 c 0,-0.55 -0.45,-1 -1,-1 -0.55,0 -1,0.45 -1,1 0,0.55 0.45,1 1,1 0.55,0 1,-0.45 1,-1 z m 1,-4 c 0,-0.55 -0.45,-1 -1,-1 -0.55,0 -1,0.45 -1,1 0,0.55 0.45,1 1,1 0.55,0 1,-0.45 1,-1 z M 16,23.940983 C 16,23.358524 15.55,23.160081 15,23.5 14.45,23.839919 14,24.316476 14,24.559017 14,24.801558 14.45,25 15,25 c 0.55,0 1,-0.476558 1,-1.059017 z"
         style="fill:#379f15" />
      <path
         sodipodi:nodetypes="ssssssssssssscssscssssssssssssssssssssssssssssssssssssssssssssssssssss"
         inkscape:connector-curvature="0"
         id="path2999"
         d="m 28.387105,45.468044 c -1.551977,-2.368615 -1.775945,-2.426124 -3.471739,-0.891451 -1.701458,1.539798 -1.927879,1.451171 -3.68837,-1.443726 -1.346297,-2.213806 -2.181286,-2.778577 -2.958674,-2.001189 -0.777388,0.777388 -1.424434,0.417753 -2.292721,-1.274319 -0.665325,-1.296547 -2.137764,-3.095205 -3.272088,-3.997018 -2.055581,-1.634231 -2.056358,-1.668485 -0.234634,-10.349312 1.551709,-7.394156 1.616572,-8.843379 0.429448,-9.595028 -0.979336,-0.620084 -0.424505,-0.889964 1.851673,-0.900688 3.023097,-0.01424 2.193231,0.293501 2.709746,3.367244 0.158898,0.945592 1.514296,1.619943 0.869271,3.334619 -0.409742,1.089222 -0.06086,2.666182 0.303442,3.721171 0.364306,1.05499 1.935862,1.389177 2.398639,2.192971 0.462776,0.803793 0.579485,2.839905 1.084944,3.230947 2.010599,0.5374 3.546439,-0.203985 5.107365,0.07504 1.560926,0.279027 2.829141,1.29245 4.177374,1.33523 1.348233,0.04278 2.776483,-1.647793 4.149003,-1.819137 1.37252,-0.171342 3.038887,0.985871 4.672674,0.622533 0.5141,-0.138995 0.384837,-1.948586 0.866239,-2.529486 0.481401,-0.580901 1.954823,-0.441586 2.369207,-1.386162 0.414383,-0.944576 -0.293831,-2.432788 0.01922,-3.66281 0.313046,-1.230021 1.583793,-2.360751 1.761183,-3.797989 0.513502,-4.160461 0.332868,-4.760446 2.156972,-4.5 1.926554,0.275074 2.159523,1.141302 2.752041,10.232634 0.631696,9.692464 0.583437,10.012177 -2,13.24997 -1.456023,1.824818 -3.326569,3.317864 -4.156768,3.317881 C 43.160348,41.999987 41.919034,42.9 41.232073,44 c -1.509602,2.417257 -3.108457,2.551315 -4.686685,0.392959 -1.043067,-1.426479 -1.367023,-1.314123 -2.883295,1 -2.136086,3.26008 -3.178379,3.274916 -5.274988,0.07509 z M 33,36.666667 C 33,34.78579 32.037669,34.048315 30.402234,34.67589 28.275175,35.492119 28.72616,38 31,38 c 1.1,0 2,-0.6 2,-1.333333 z m -7.250136,-3.250136 c -0.952958,-0.952958 -2.863492,0.590599 -2.153308,1.7397 0.422119,0.683003 0.981465,0.665748 1.699645,-0.05243 0.588756,-0.588756 0.792905,-1.348027 0.453663,-1.68727 z M 39,34.5 C 39,33.675 38.576558,33 38.059017,33 36.798039,33 35.894922,34.561589 36.693853,35.36052 37.820037,36.486704 39,36.04641 39,34.5 z m -19,-2 C 20,31.675 19.576558,31 19.059017,31 17.798039,31 16.894922,32.561589 17.693853,33.36052 18.820037,34.486704 20,34.04641 20,32.5 z m 24.75,0.25 c -0.471891,-1.415672 -2.079983,-1.260051 -2.583333,0.25 -0.183334,0.55 0.416666,1 1.333333,1 0.916667,0 1.479167,-0.5625 1.25,-1.25 z M 17,29 c 0,-0.55 -0.45,-1 -1,-1 -0.55,0 -1,0.45 -1,1 0,0.55 0.45,1 1,1 0.55,0 1,-0.45 1,-1 z m 30,0 c 0,-0.55 -0.45,-1 -1,-1 -0.55,0 -1,0.45 -1,1 0,0.55 0.45,1 1,1 0.55,0 1,-0.45 1,-1 z m 1,-4 c 0,-0.55 -0.45,-1 -1,-1 -0.55,0 -1,0.45 -1,1 0,0.55 0.45,1 1,1 0.55,0 1,-0.45 1,-1 z M 16,23.940983 C 16,23.358524 15.55,23.160081 15,23.5 14.45,23.839919 14,24.316476 14,24.559017 14,24.801558 14.45,25 15,25 c 0.55,0 1,-0.476558 1,-1.059017 z"
         style="fill:#b51f0d" />
      <path
         sodipodi:nodetypes="ssssssssssssssssssssssssssssscssssssss"
         inkscape:connector-curvature="0"
         id="path2997"
         d="m 28.920673,46.25 c -1.126549,-1.488774 -1.114972,-1.56341 0.07756,-0.5 2.08036,1.855116 2.786233,1.567487 4.557058,-1.856911 1.593562,-3.081609 1.618664,-3.089753 3.082384,-1 2.024402,2.890239 2.977492,2.649615 4.27763,-1.079964 0.793174,-2.275299 1.418832,-2.878993 2.187307,-2.110518 0.768474,0.768474 0.427096,1.82307 -1.193461,3.686874 -2.629826,3.024566 -3.734749,3.23128 -5.363758,1.003478 -1.043067,-1.426479 -1.367023,-1.314123 -2.883295,1 -2.007477,3.063798 -2.943545,3.232998 -4.741425,0.857041 z m -7.027291,-1.974772 c -1.254616,-1.598434 -1.226046,-1.644311 0.286879,-0.460661 1.436826,1.124113 1.842513,1.011396 2.800174,-0.778009 C 26.088458,40.966197 28,41.085923 28,43.225684 c 0,0.609207 -0.300982,0.806668 -0.668848,0.438801 -0.367867,-0.367867 -1.428345,0.01849 -2.356618,0.858562 -1.519413,1.37505 -1.82676,1.35033 -3.081152,-0.247819 z m -5.46468,-3.47667 c -0.412144,-0.714207 -0.38111,-0.964962 0.06896,-0.557234 0.450074,0.407728 1.382158,0.273377 2.071298,-0.298558 1.313981,-1.090508 3.226378,0.595226 2.031173,1.790432 C 20.270061,42.063272 20,41.753233 20,41.044222 c 0,-0.996344 -0.320443,-1.023167 -1.410972,-0.118108 -1.087087,0.902201 -1.582985,0.872921 -2.160326,-0.127556 z m 29.778369,-1.536195 c 0.650321,-1.722897 1.65727,-3.049249 2.237665,-2.947451 0.630353,0.110561 0.990649,-1.626877 0.894794,-4.314912 -0.115643,-3.242935 0.07423,-3.941305 0.679715,-2.5 1.484337,3.533358 0.966813,5.921226 -2.047551,9.447451 l -2.947024,3.44745 z M 12.600313,35.697009 c -1.490309,-1.08974 -1.660622,-2.112035 -1.040639,-6.246376 0.557333,-3.716563 0.920955,-4.447935 1.465185,-2.947009 0.398133,1.098007 0.330413,2.754292 -0.15049,3.680635 C 11.538894,32.756726 11.830326,35 13.5,35 c 0.825,0 1.5,0.45 1.5,1 0,1.295454 -0.258281,1.262843 -2.399687,-0.302991 z"
         style="fill:#585113" />
    </g>
    <path
       inkscape:connector-curvature="0"
       id="path3095"
       d="m -49.08931,28.079495 c -0.538549,-0.328357 -0.440936,-2.000638 0.230032,-3.940849 0.313834,-0.907502 0.534616,-1.422639 0.83955,-1.958874 0.630535,-1.108809 1.355863,-1.795833 2.074934,-1.965356 0.29249,-0.06896 0.475876,-0.06242 0.581579,0.02072 0.0818,0.06434 0.08656,0.08107 0.07124,0.250069 -0.01637,0.180577 -0.138316,0.469482 -0.315515,0.74752 -0.04523,0.07097 -0.264969,0.349839 -0.488302,0.619703 -0.499273,0.603293 -0.778003,1.021273 -1.044274,1.565974 -0.481507,0.985003 -0.655857,1.635566 -0.716813,2.674688 -0.03302,0.562823 -0.07406,0.8123 -0.190828,1.159957 -0.232069,0.690934 -0.680409,1.046664 -1.041599,0.826443 l 0,0 z"
       style="fill:#000000;fill-opacity:1;stroke:#000000;stroke-width:0.03177966;stroke-opacity:1" />
    <path
       inkscape:connector-curvature="0"
       id="path3097"
       d="m -52.179592,27.707447 c -0.07577,-0.02747 -0.255118,-0.207368 -0.308581,-0.309527 -0.210971,-0.403129 -0.357904,-1.268819 -0.359011,-2.115207 -2.4e-4,-0.183527 -0.01623,-0.505296 -0.03554,-0.715042 -0.01931,-0.209746 -0.0352,-0.402807 -0.03531,-0.429025 -4.65e-4,-0.109741 -0.126686,-0.670067 -0.204026,-0.905721 -0.236805,-0.72155 -0.565131,-1.093771 -0.966488,-1.0957 -0.330307,-0.0016 -0.601637,-0.15321 -0.601637,-0.3362 0,-0.09288 0.178277,-0.327676 0.304986,-0.401677 0.261828,-0.152916 0.645556,-0.123548 1.061203,0.08122 1.140523,0.561872 2.309088,2.213372 2.449581,3.461925 0.1164,1.034433 -0.395136,2.405344 -1.015637,2.7219 -0.127746,0.06517 -0.199223,0.0758 -0.28954,0.04306 l 0,0 z"
       style="fill:#000000;fill-opacity:1;stroke:#000000;stroke-width:0.03177966;stroke-opacity:1" />
    <path
       inkscape:connector-curvature="0"
       id="path3096"
       d="m -49.521676,29.810011 c -0.743301,0.07557 -1.524244,0.369468 -2.002783,0.967684 -0.471774,0.588103 -0.503659,1.512008 0.04073,2.064579 0.646312,0.728212 1.765502,0.776658 2.633465,0.476125 0.585551,-0.212915 1.159631,-0.747952 1.082778,-1.422742 -0.04711,-0.717472 -0.227835,-1.574789 -0.929763,-1.931154 -0.25484,-0.1243 -0.541884,-0.171692 -0.824427,-0.154492 z"
       style="fill:#ffffff;fill-opacity:1;stroke:none" />
    <path
       inkscape:connector-curvature="0"
       id="path3098"
       d="m -42.865865,28.356378 c -0.959771,0.04239 -1.844893,1.038903 -1.616552,2.005592 0.215758,0.562823 0.773407,0.952996 1.341275,1.102513 0.622101,0.145888 1.214314,-0.364162 1.303561,-0.966548 0.139158,-0.688888 0.04468,-1.544552 -0.535313,-2.008132 -0.142914,-0.09974 -0.320287,-0.141185 -0.492971,-0.133425 z"
       style="fill:#ffffff;fill-opacity:1;stroke:none" />
    <path
       inkscape:connector-curvature="0"
       id="path3100"
       d="m -37.329421,27.131675 c -0.774821,0.05647 -1.352894,0.779517 -1.456442,1.509812 0.06681,0.558327 0.706976,0.830154 1.210659,0.839876 0.570936,0.05542 1.274818,-0.09321 1.530878,-0.66853 0.211286,-0.667527 -0.259709,-1.455231 -0.917122,-1.651664 -0.119711,-0.03128 -0.244824,-0.03806 -0.367973,-0.02949 z"
       style="fill:#ffffff;fill-opacity:1;stroke:none" />
    <path
       inkscape:connector-curvature="0"
       id="path3102"
       d="m -34.93479,23.363466 c -0.75181,0.02577 -1.21999,0.957485 -0.842685,1.592676 0.324927,0.614084 1.247927,0.719449 1.706438,0.203649 0.511662,-0.496528 0.317276,-1.461521 -0.349715,-1.716269 -0.161601,-0.06879 -0.339251,-0.09294 -0.514038,-0.08006 z"
       style="fill:#ffffff;fill-opacity:1;stroke:none" />
    <path
       inkscape:connector-curvature="0"
       id="path3104"
       d="m -33.926376,19.362115 c -0.693264,0.0044 -1.191335,0.801649 -0.924145,1.432565 0.19906,0.629277 1.032345,0.905587 1.568799,0.530892 0.643988,-0.370954 0.658538,-1.423147 0.007,-1.796325 -0.193699,-0.119525 -0.424135,-0.180059 -0.651677,-0.167132 z"
       style="fill:#ffffff;fill-opacity:1;stroke:none" />
    <path
       inkscape:connector-curvature="0"
       id="path3106"
       d="m -55.913446,28.506657 c -0.838726,0.01766 -1.608054,0.821956 -1.550541,1.667113 0.05128,0.502579 0.517986,1.035817 1.051952,0.969088 0.628169,-0.180655 1.13562,-0.697389 1.410094,-1.279477 0.210379,-0.403303 0.201824,-1.000003 -0.249997,-1.235939 -0.190445,-0.141325 -0.437216,-0.121863 -0.661508,-0.120785 z"
       style="fill:#ffffff;fill-opacity:1;stroke:none" />
    <path
       inkscape:connector-curvature="0"
       id="path3108"
       d="m -61.920389,26.363427 c -0.958979,0.06899 -1.826025,1.094483 -1.547733,2.054748 0.219607,0.516605 0.737142,0.864919 1.255602,1.037908 0.724243,0.219921 1.432206,-0.486293 1.397453,-1.196614 0.02449,-0.604683 0.01923,-1.327715 -0.514038,-1.728909 -0.163283,-0.142558 -0.378183,-0.191358 -0.591284,-0.167133 z"
       style="fill:#ffffff;fill-opacity:1;stroke:none" />
    <path
       inkscape:connector-curvature="0"
       id="path3110"
       d="m -64.862766,23.360657 c -0.78545,-0.04034 -1.353958,0.969955 -0.898865,1.613743 0.298645,0.550208 1.092834,0.687927 1.565991,0.286513 0.49435,-0.361584 0.564463,-1.147317 0.113762,-1.575822 -0.198791,-0.218639 -0.484052,-0.34549 -0.780888,-0.324434 z"
       style="fill:#ffffff;fill-opacity:1;stroke:none" />
    <path
       inkscape:connector-curvature="0"
       id="path3112"
       d="m -65.404894,18.687966 c -0.565822,0.116098 -1.028799,0.538064 -1.382004,0.977515 -0.177263,0.182903 -0.177967,0.513996 0.08005,0.624992 0.58305,0.36393 1.528172,0.258542 1.811774,-0.436792 0.171609,-0.372307 0.191408,-0.996016 -0.289322,-1.140434 -0.07167,-0.01972 -0.145858,-0.03257 -0.220503,-0.02528 z"
       style="fill:#ffffff;fill-opacity:1;stroke:none" />
  </g>
</svg>
