<?xml version="1.0" encoding="UTF-8" standalone="no"?>
<!-- Created with Inkscape (http://www.inkscape.org/) -->

<svg
   xmlns:dc="http://purl.org/dc/elements/1.1/"
   xmlns:cc="http://creativecommons.org/ns#"
   xmlns:rdf="http://www.w3.org/1999/02/22-rdf-syntax-ns#"
   xmlns:svg="http://www.w3.org/2000/svg"
   xmlns="http://www.w3.org/2000/svg"
   xmlns:sodipodi="http://sodipodi.sourceforge.net/DTD/sodipodi-0.dtd"
   xmlns:inkscape="http://www.inkscape.org/namespaces/inkscape"
   id="svg3131"
   version="1.1"
   inkscape:version="0.48.3.1 r9886"
   width="109"
   height="109"
   sodipodi:docname="Male Islander Torso.png">
  <metadata
     id="metadata3137">
    <rdf:RDF>
      <cc:Work
         rdf:about="">
        <dc:format>image/svg+xml</dc:format>
        <dc:type
           rdf:resource="http://purl.org/dc/dcmitype/StillImage" />
        <dc:title></dc:title>
      </cc:Work>
    </rdf:RDF>
  </metadata>
  <defs
     id="defs3135" />
  <sodipodi:namedview
     pagecolor="#ffffff"
     bordercolor="#666666"
     borderopacity="1"
     objecttolerance="10"
     gridtolerance="10"
     guidetolerance="10"
     inkscape:pageopacity="0"
     inkscape:pageshadow="2"
     inkscape:window-width="1920"
     inkscape:window-height="1018"
     id="namedview3133"
     showgrid="false"
     inkscape:zoom="3.061967"
     inkscape:cx="214.63336"
     inkscape:cy="71.316614"
     inkscape:window-x="-8"
     inkscape:window-y="-8"
     inkscape:window-maximized="1"
     inkscape:current-layer="svg3131" />
  <g
     id="g3221"
     transform="matrix(1.021994,0,0,1.021994,-15.392316,-6.705541)">
    <g
       transform="translate(13.063494,-1.9595247)"
       id="g3203">
      <path
         inkscape:connector-curvature="0"
         id="path3213"
         d="M 19.24025,100.71349 C 17.733112,100.28091 15.0375,100.14012 13.25,100.40062 11.4625,100.66112 10,100.45255 10,99.937129 10,99.421708 8.65,99 7,99 L 4,99 4.1183148,92.75 C 4.305603,82.856467 5.0523291,80.749569 9.1511924,78.549663 c 3.5490716,-1.904825 3.7289086,-1.907478 7.7068026,-0.113698 2.982648,1.344986 5.219866,1.659025 8.35747,1.17314 2.356494,-0.364924 5.312815,-0.816111 6.569602,-1.002638 1.256787,-0.186526 3.352766,0.500712 4.65773,1.527197 C 37.747761,81.160149 39.30698,82 39.907729,82 c 0.600749,0 1.118463,0.5625 1.150474,1.25 0.03201,0.6875 1.269512,-1.204781 2.75,-4.205068 3.270141,-6.627114 6.977509,-9.074175 12.691797,-8.377267 5.957718,0.726597 8.117393,2.135005 10.679411,6.964456 1.95834,3.691507 2.781974,4.362954 5.318872,4.336076 1.650944,-0.01749 3.900494,-0.710969 4.999,-1.541061 1.490783,-1.126518 3.317852,-1.344262 7.204691,-0.858634 4.337252,0.541904 5.799407,0.284747 8.750205,-1.538947 5.294068,-3.271914 10.851831,-1.460679 12.852151,4.18842 0.33458,0.944886 0.22629,1.954085 -0.24064,2.242663 -0.46693,0.288578 -0.1614,2.870197 0.67896,5.736929 1.09895,3.748879 1.20919,5.318488 0.39264,5.590671 C 106.51088,95.996374 106,96.734422 106,97.428346 c 0,2.795664 -3.38478,4.499784 -7.21969,3.634874 -2.0241,-0.45651 -3.965767,-0.54499 -4.314815,-0.19662 -0.924238,0.92244 -71.981855,0.77781 -75.225245,-0.15311 z M 56.177129,97.25 C 58.606294,94.391399 63,85.197445 63,82.972951 c 0,-1.135123 -1.104545,-3.168406 -2.454545,-4.518406 -3.440577,-3.440576 -7.89275,-3.261096 -11.622378,0.468532 -4.027076,4.027076 -3.946154,8.190997 0.231733,11.923938 1.735145,1.550352 3.272645,3.906509 3.416666,5.235903 C 52.90168,99.130877 52.844542,99 53.845012,99 c 0.464757,0 1.51421,-0.7875 2.332117,-1.75 z M 46.266535,60.650785 c -1.661451,-1.892288 -3.82341,-5.542076 -4.804354,-8.110641 l -1.783534,-4.670118 -1.805392,3.814987 c -0.992966,2.098243 -1.820661,4.639987 -1.839324,5.64832 -0.01866,1.008334 -0.570051,1.654627 -1.225309,1.436208 -2.189951,-0.729984 -6.791045,-7.286473 -7.015357,-9.996776 -0.302341,-3.653113 -1.204307,-2.461589 -1.351802,1.785772 -0.161075,4.638417 -1.001963,5.20298 -3.81433,2.560899 C 18.244202,49.001885 14.714286,41.164204 14.714286,35.550072 14.714286,28.624148 18.876514,16 21.160016,16 21.547881,16 22.150874,15.1 22.5,14 22.905599,12.72207 24.013034,12 25.567388,12 26.905324,12 28,11.55 28,11 c 0,-0.55 0.9,-1 2,-1 2.554347,0 2.5185,0.343066 -0.5,4.785188 -2.330541,3.429699 -3.44305,9.263247 -1.75,9.176292 0.4125,-0.02119 1.652858,-1.473854 2.75635,-3.228152 1.919173,-3.051039 6.788581,-5.77173 8.058035,-4.502276 0.331876,0.331876 -0.38273,3.307995 -1.588014,6.613599 -2.816072,7.723345 -2.127361,9.938891 1.36823,4.401517 C 41.933351,21.561221 44,21.630189 44,27.4349 c 0,7.907039 3.066821,12.629163 4.42612,6.8151 1.095857,-4.687253 3.946085,-9.25 5.778231,-9.25 2.129018,0 4.542209,3.482799 5.406104,7.802274 0.759925,3.799627 2.090285,4.11504 3.352613,0.794865 0.502461,-1.321573 1.391323,-2.698131 1.975249,-3.059017 C 65.522243,30.177236 66,28.858524 66,27.60765 c 0,-1.250874 0.2625,-2.536817 0.583333,-2.85765 0.783146,-0.783145 3.932089,2.453322 5.772467,5.932912 1.305607,2.468499 1.577267,2.593667 2.195398,1.011529 0.387981,-0.993057 0.431289,-3.805557 0.09624,-6.25 C 74.312391,22.999998 74.395461,21 74.832039,21 76.053823,21 81,26.456803 81,27.804719 81,28.462123 81.619723,29 82.377163,29 c 1.048002,0 1.254996,-1.135316 0.866033,-4.75 -0.668583,-6.213232 -2.605288,-9.873508 -6.541745,-12.363567 L 73.5,9.8613118 80,10.502615 c 3.575,0.352717 7.185656,0.831922 8.023679,1.0649 2.287661,0.635991 6.740696,8.078357 7.491083,12.519861 C 95.878331,26.239319 96.586242,28 97.087898,28 98.678777,28 98.107446,39.971316 96.338676,43.698722 93.862356,48.91718 88.668448,54 85.812258,54 c -1.3687,0 -3.411738,1.104271 -4.625309,2.5 -3.425757,3.939967 -4.770734,3.173511 -6.193161,-3.529272 -0.703724,-3.3161 -1.609008,-6.232921 -2.011742,-6.481824 -0.402733,-0.248903 -1.024892,1.377575 -1.382574,3.614396 -0.465384,2.910353 -1.901531,5.391206 -5.04994,8.723452 -2.419784,2.561078 -4.657292,4.398822 -4.972239,4.083875 C 61.262347,62.59568 60.710778,59.526254 60.351585,56.08968 59.992392,52.653106 59.091342,49.2342 58.349253,48.49211 57.607164,47.750021 57,46.660714 57,46.071429 57,45.482143 56.621872,45 56.159715,45 c -0.995851,0 -3.079056,8.828116 -3.419658,14.491683 -0.315196,5.241095 -2.53976,5.639409 -6.473522,1.159102 z M 48.5,18.225127 c -2.2,-0.94882 -5.2375,-2.564381 -6.75,-3.590137 -2.830528,-1.919623 -3.715931,-4.6466247 -1.5,-4.619934 1.660636,0.02 8.530314,2.431924 9.397995,3.299606 C 50.024931,13.691598 51.158333,14 52.166667,14 53.175,14 54,14.45 54,15 c 0,0.55 1.575,1 3.5,1 1.925,0 3.5,-0.45 3.5,-1 0,-0.55 0.693816,-1 1.541813,-1 0.847998,0 2.50785,-0.9 3.688562,-2 3.340499,-3.1121486 6.941768,-2.2565768 4.430949,1.052683 C 66.531163,18.49624 55.239438,21.131723 48.5,18.225127 z"
         style="fill:#939669" />
      <path
         inkscape:connector-curvature="0"
         id="path3211"
         d="m 19.950567,100.7756 c -1.347812,-0.39842 -5.549463,-1.00331 -9.337003,-1.344204 L 3.727128,98.81159 4.2738797,91.155795 c 0.661969,-9.269104 1.1275115,-10.562021 4.3281851,-12.020345 3.4301802,-1.562895 6.5152992,-1.422477 10.3070992,0.469122 2.054452,1.024895 4.187232,1.354184 5.903638,0.911487 7.607644,-1.962171 10.614371,-1.755047 13.111512,0.90321 3.384558,3.60293 4.546686,3.254419 6.538397,-1.960801 2.166958,-5.674099 4.829528,-7.455992 11.360888,-7.603141 6.539457,-0.147331 9.483562,1.763633 11.71369,7.603141 0.953935,2.497843 2.235791,4.52746 2.848569,4.51026 0.612778,-0.0172 3.252825,-1.079365 5.86677,-2.360368 4.080282,-1.999602 5.300332,-2.182905 8.624184,-1.295718 3.325567,0.887644 4.390949,0.726927 7.554532,-1.139633 C 97.027564,76.461173 101.39585,76.395845 104,79 c 3.61758,3.61758 2.23691,6.267525 -2.06574,3.964816 -3.086307,-1.65174 -2.221933,0.364371 0.92315,2.15321 2.13477,1.214199 3.0065,2.62945 3.49279,5.670532 1.11756,6.988865 -2.16882,11.991302 -6.736804,10.254552 -2.759218,-1.04905 -8.110339,-0.8795 -9.284005,0.29417 -0.975493,0.97549 -17.691033,0.74875 -26.195632,-0.35533 -4.051432,-0.52597 -7.876432,-0.62457 -8.5,-0.21913 -1.465382,0.9528 -32.465643,0.9639 -35.683192,0.0128 z M 56.685549,97.825686 C 57.958497,96.629813 59,95.070472 59,94.360482 c 0,-0.709989 1.35,-2.828455 3,-4.707701 3.632346,-4.137014 3.811267,-7.5981 0.586584,-11.347017 C 60.583206,75.976698 59.379971,75.5 55.504555,75.5 c -4.009446,0 -5.080605,0.461099 -7.586584,3.265777 -3.842731,4.300762 -4.075122,9.749867 -0.48556,11.385381 2.191615,0.998567 3.182722,2.622618 4.942469,8.098842 0.733835,2.28365 1.509441,2.2073 4.310669,-0.424314 z m 9.356104,-0.375874 c 1.059849,-1.27704 1.010231,-1.826499 -0.281594,-3.118325 C 63.943574,92.515003 62,93.321813 62,95.89235 c 0,3.276245 1.981483,4.039814 4.041653,1.557462 z m 10.626476,-0.02735 c 0.332948,-0.867648 -0.06689,-2.249791 -0.888528,-3.071429 -1.325182,-1.325183 -1.683312,-1.304462 -3.171261,0.183487 -1.29783,1.29783 -1.415586,1.992812 -0.520413,3.071429 1.543299,1.859561 3.831385,1.767898 4.580202,-0.183487 z M 23.963645,96.543805 C 25.437811,94.767544 24.512096,93 22.10765,93 c -2.541489,0 -3.18436,0.988149 -2.037282,3.131483 1.202442,2.246785 2.276412,2.360525 3.893277,0.412322 z M 36.812423,95.735492 C 37.21041,93.668912 34.323609,92.276391 32.8,93.8 c -1.523609,1.523609 -0.131088,4.41041 1.935492,4.012423 0.957848,-0.184464 1.892467,-1.119083 2.076931,-2.076931 z m 11.007128,0.02472 C 47.436845,93.07777 44.510328,92.227724 43.622583,94.54115 42.77835,96.741186 43.690378,98 46.128568,98 c 1.510728,0 1.931096,-0.556796 1.690983,-2.239784 z m 39.902304,1.117929 C 89.258117,95.341883 88.189377,93 85.952028,93 c -2.204664,0 -3.335102,1.559342 -2.572026,3.547887 0.66409,1.73059 2.780536,1.891575 4.341853,0.330258 z M 99.812423,93.735492 C 100.21041,91.668912 97.323609,90.276391 95.8,91.8 c -1.523609,1.523609 -0.131088,4.41041 1.935492,4.012423 0.957848,-0.184464 1.892467,-1.119083 2.076931,-2.076931 z M 12.5,92.5 c 0,-2.978138 -3.9035957,-2.680602 -4.3300396,0.33004 -0.2746244,1.938814 0.061185,2.274624 1.9999996,2 C 11.72332,94.610013 12.5,93.833333 12.5,92.5 z M 48.21406,61.526666 C 44.389173,58.308235 42.448378,54.906983 41.47444,49.715445 41.091078,47.67195 40.432093,46 40.010029,46 c -0.851125,0 -2.593284,4.012207 -3.586374,8.259448 -0.354868,1.517697 -1.10711,3.044916 -1.671649,3.393821 C 33.031818,58.716403 30.099271,53.82453 28.81526,47.75 28.146783,44.5875 27.239882,42 26.799924,42 c -0.777745,0 -1.307802,6.209806 -0.917599,10.75 0.291148,3.38765 -1.208818,2.725664 -4.531713,-2 C 15.880295,42.970376 14.70014,39.367058 15.450441,32.735269 16.728326,21.440257 21.464145,12.959721 27.25,11.605536 c 2.944533,-0.689171 3.61884,0.428501 1.379682,2.286838 -1.531352,1.270909 -2.715593,8.063097 -1.929763,11.068115 0.432355,1.653328 1.111353,1.19277 4.428618,-3.003885 C 33.28342,19.230472 35.506434,17 36.068567,17 c 1.077368,0 0.381629,5.536508 -1.245687,9.912839 -1.367637,3.67798 0.897272,5.282685 3.022474,2.141445 0.910055,-1.345144 2.427175,-3.370144 3.371377,-4.5 1.670675,-1.999173 1.717623,-1.928116 1.75,2.648663 C 43.003588,32.41306 44.67058,37 46.52719,37 c 0.663388,0 2.143469,-2.255417 3.289069,-5.012038 3.243979,-7.805883 6.723307,-7.805821 9.062037,1.63e-4 C 60.163661,36.27829 62.459676,37.27777 63.5,34 c 0.781313,-2.461698 2.692538,-2.656904 2.447704,-0.25 -0.360253,3.541563 0.09092,5.050846 1.69374,5.665903 1.203912,0.461985 1.392639,0.290588 0.708028,-0.643011 -0.513378,-0.700091 -1.068731,-3.862272 -1.234117,-7.02707 -0.245509,-4.697995 -0.03417,-5.6519 1.151376,-5.196962 1.419142,0.544576 2.923856,3.019782 4.175374,6.868357 1.225157,3.767511 3.067708,-0.225289 2.870538,-6.220441 -0.180201,-5.479182 -0.122907,-5.618311 1.5,-3.642492 0.928046,1.129856 2.394889,3.121188 3.259651,4.425181 1.869464,2.819006 5.598367,2.202389 4.462314,-0.737894 -0.370094,-0.957864 -1.097029,-3.968152 -1.615411,-6.689528 -0.518381,-2.721377 -1.915707,-5.983877 -3.105168,-7.25 L 77.651372,11 l 2.767934,0 c 1.926929,0 2.926844,0.607676 3.290945,2 C 84.244422,15.042674 86,15.809386 86,14 c 0,-0.55 0.869358,-1 1.931906,-1 2.387285,0 6.087814,4.998728 6.040499,8.159594 -0.124933,8.346014 -1.061787,17.138902 -2.016082,18.922016 -1.483836,2.772574 -0.329435,3.792882 1.522206,1.345389 0.916819,-1.211848 1.469667,-4.317441 1.489668,-8.368129 0.02904,-5.881412 0.159386,-6.27245 1.5,-4.5 1.874524,2.478344 1.940112,9.528146 0.128973,13.862812 C 95.113513,45.972572 88.37897,54 86.883638,54 86.397637,54 86,53.1 86,52 c 0,-2.946629 -1.308797,-2.438959 -3.314676,1.285733 -0.973216,1.807152 -2.66076,3.842343 -3.750098,4.522646 -2.302023,1.437637 -2.455162,1.17097 -3.401601,-5.923354 -0.338621,-2.538236 -1.243711,-5.463236 -2.011312,-6.5 -1.2868,-1.738023 -1.450821,-1.545561 -2.103253,2.467972 C 70.60785,52.843265 65.344099,61.320003 62.75,61.813638 61.306871,62.088253 60.992325,61.388533 60.95623,57.823324 60.905338,52.796656 58.040126,43.804199 56.314113,43.254059 55.000653,42.835413 53.047375,48.780802 52.947947,53.5 c -0.03476,1.65 -0.374783,4.753102 -0.7556,6.895782 L 51.499954,64.291563 48.21406,61.526666 z M 51,47.583333 c 0,-1.879166 0.422354,-3.566666 0.938564,-3.75 0.51621,-0.183333 1.099194,-1.553817 1.295521,-3.045521 0.196326,-1.491703 0.673973,-3.029203 1.061436,-3.416666 C 54.682984,36.983682 55,36.195238 55,35.619048 55,32.909525 51.748877,38.26043 50.465707,43.081877 48.751671,49.522278 48.664758,51 50,51 c 0.55,0 1,-1.5375 1,-3.416667 z m 31.004016,-4.404646 c -0.540679,-0.186424 -0.46797,-1.06417 0.173195,-2.090839 1.021657,-1.635932 0.320285,-9.918677 -0.749327,-8.849066 -0.673627,0.673627 -1.20443,11.075739 -0.642706,12.595064 0.411052,1.111794 0.631121,1.111794 1.32194,0 0.461388,-0.742553 0.415683,-1.476284 -0.103102,-1.655159 z M 51.5,18.00851 c -5.008603,-1.261747 -7.909939,-2.678983 -9.815143,-4.79447 -2.488453,-2.763111 -0.644958,-3.5472212 3.44368,-1.46473 9.5492,4.863751 13.735975,5.247768 19.371463,1.776776 4.403238,-2.712028 5.5,-3.019176 5.5,-1.540274 0,1.744953 -7.375814,5.775886 -11.5,6.284829 -2.2,0.27149 -5.35,0.153531 -7,-0.262131 z"
         style="fill:#5d9664" />
      <path
         inkscape:connector-curvature="0"
         id="path3209"
         d="M 41.25,101.253 C 31.020242,100.99032 29,100.68436 29,99.397793 c 0,-1.338229 -0.218587,-1.322063 -1.66369,0.12304 -1.149578,1.149577 -2.578794,1.480667 -4.625,1.071427 C 21.082589,100.26652 19.104692,100 18.315983,100 17.527274,100 17.140864,99.581094 17.457295,99.069098 18.456783,97.451892 16.251082,96.928477 13.574936,98.147811 11.592219,99.051197 10.388364,99.04235 8.3406416,98.109345 6.2157001,97.141157 5.5120701,97.15914 4.8392467,98.19883 3.8712604,99.694626 4.4489336,84.356977 5.4536696,81.88545 6.9751262,78.142854 13.695517,77.003662 18.909164,79.604572 c 2.054452,1.024895 4.187232,1.354184 5.903638,0.911487 7.607644,-1.962171 10.614371,-1.755047 13.111512,0.90321 3.384558,3.60293 4.546686,3.254419 6.538397,-1.960801 2.166958,-5.674099 4.829528,-7.455992 11.360888,-7.603141 6.539457,-0.147331 9.483562,1.763633 11.71369,7.603141 0.953935,2.497843 2.235791,4.52746 2.848569,4.51026 0.612778,-0.0172 3.252825,-1.079365 5.86677,-2.360368 4.080282,-1.999602 5.300332,-2.182905 8.624184,-1.295718 3.325567,0.887644 4.390949,0.726927 7.554532,-1.139633 C 97.027564,76.461173 101.39585,76.395845 104,79 c 2.30317,2.303174 2.6389,5 0.62244,5 -0.75765,0 -1.93775,-0.675 -2.62244,-1.5 -1.40759,-1.696036 -5.563244,-2.015702 -6.5,-0.5 -0.343678,0.556083 0.406979,1.001659 1.690983,1.003738 3.384387,0.0055 8.809017,3.638583 8.809017,5.899776 0,1.063101 0.27314,2.644715 0.60699,3.514699 C 107.0053,93.456196 106.66151,94 105.60699,94 104.72314,94 104,94.659167 104,95.464816 c 0,2.377138 -3.91228,3.819055 -8.613649,3.174661 -3.267837,-0.447907 -4.519941,-0.223182 -5.163464,0.926729 -0.698741,1.248584 -3.389467,1.514514 -15.159616,1.498264 -12.340777,-0.017 -14.48242,-0.25543 -15.562331,-1.732297 -1.654542,-2.262721 -0.325695,-6.861877 2.979364,-10.311615 2.933936,-3.062369 3.188167,-6.080343 0.84618,-10.04501 -2.342488,-3.965517 -10.035559,-5.51995 -13.48905,-2.725548 -5.229783,4.231693 -6.574049,12.001623 -2.405023,13.901158 2.66256,1.213144 5.171178,6.063197 4.063293,7.855793 -0.409065,0.661881 0.170728,1.354564 1.40368,1.676988 C 54.054723,99.986067 55,100.63078 55,101.11663 c 0,0.48585 -0.3375,0.78607 -0.75,0.66715 -0.4125,-0.11892 -6.2625,-0.35777 -13,-0.53078 z m 6.25,-5.322638 c 0,-1.495069 -0.662337,-2.530526 -1.753024,-2.740574 C 43.498215,92.756717 42.395828,95.567091 44.03821,97.54604 45.77168,99.634744 47.5,98.828107 47.5,95.930362 z m 18.541653,1.51945 c 1.059849,-1.27704 1.010231,-1.826499 -0.281594,-3.118325 C 63.943574,92.515003 62,93.321813 62,95.89235 c 0,3.276245 1.981483,4.039814 4.041653,1.557462 z m 10.626476,-0.02735 c 0.332948,-0.867648 -0.131175,-2.314077 -1.031385,-3.214286 -1.515659,-1.515659 -1.759853,-1.513636 -3.300841,0.02735 -1.37467,1.374669 -1.440336,1.933714 -0.377556,3.214286 1.65829,1.998116 3.937616,1.984878 4.709782,-0.02735 z m -52.626476,-0.97265 c 1.06129,-1.278778 1.003974,-1.832756 -0.327367,-3.164098 -2.264052,-2.264051 -5.177083,-0.01898 -3.658089,2.819291 1.231195,2.300509 2.286587,2.391818 3.985456,0.344807 z m 12.77077,-0.71432 C 37.21041,93.668912 34.323609,92.276391 32.8,93.8 c -1.523609,1.523609 -0.131088,4.41041 1.935492,4.012423 0.957848,-0.184464 1.892467,-1.119083 2.076931,-2.076931 z m 51.538099,0.793447 c 0.310474,-0.809084 -0.155667,-2.191227 -1.035869,-3.071429 -1.419638,-1.419638 -1.769072,-1.431663 -3.094254,-0.10648 -0.821638,0.821638 -1.221476,2.203781 -0.888528,3.071429 0.763444,1.989503 4.267538,2.063849 5.018651,0.10648 z M 99.5,93.5 c 0,-1.312726 -0.773184,-2.10981 -2.25,-2.319551 C 95.40432,90.918321 95,91.335138 95,93.5 c 0,2.164862 0.40432,2.581679 2.25,2.319551 C 98.726816,95.60981 99.5,94.812726 99.5,93.5 z m -87,-1 c 0,-2.978138 -3.9035957,-2.680602 -4.3300396,0.33004 -0.2746244,1.938814 0.061185,2.274624 1.9999996,2 C 11.72332,94.610013 12.5,93.833333 12.5,92.5 z M 48.21406,61.526666 C 44.389173,58.308235 42.448378,54.906983 41.47444,49.715445 41.091078,47.67195 40.377499,46 39.888709,46 c -0.48879,0 -0.90138,0.1125 -0.916867,0.25 -0.321467,2.854161 -4.019689,11.25 -4.955431,11.25 -1.901285,0 -4.757832,-5.984473 -5.527403,-11.579924 C 28.116832,43.214034 27.404551,41 26.906162,41 26.05157,41 25.457969,47.812416 25.882325,52.75 25.98868,53.9875 25.68495,55 25.207369,55 24.078813,55 18.834919,47.526723 16.681092,42.848871 14.900066,38.980697 14.408243,33 15.871169,33 c 0.479143,0 1.167189,-2.231505 1.528991,-4.9589 0.361802,-2.727395 1.10671,-5.236329 1.655351,-5.575408 0.548641,-0.339079 0.873095,-1.248514 0.721009,-2.020967 -0.442837,-2.249192 3.269674,-7.023686 6.371935,-8.194659 3.014893,-1.137995 4.002622,0.198857 1.785235,2.416244 -0.58647,0.58647 -1.181639,3.71397 -1.322598,6.95 -0.254218,5.836177 -0.530235,6.954157 -3.218155,13.034819 C 22.626822,36.38425 22,38.29675 22,38.901129 22,39.505508 21.325,40 20.5,40 c -1.955231,0 -1.894011,1.373076 0.236291,5.29966 l 1.736291,3.20034 0.292939,-3 C 23.21341,40.913141 25.958241,34.148102 28.471882,31.435839 30.742783,28.985497 34,28.139487 34,30 c 0,2.380639 2.959576,0.667499 5.614615,-3.25 l 2.880387,-4.25 0.584703,5.5 c 1.107929,10.421709 3.479385,11.825583 6.736554,3.987962 3.243979,-7.805883 6.723307,-7.805821 9.062037,1.63e-4 C 60.163661,36.27829 62.459676,37.27777 63.5,34 c 0.349126,-1.1 1.043433,-2 1.542903,-2 1.344076,0 0.549277,17.80782 -0.85759,19.214687 C 62.758124,52.641876 62.60116,57 63.976947,57 c 2.979577,0 7.138116,-14.229018 5.334297,-18.252039 -1.4234,-3.174582 -0.622292,-4.984796 1.664421,-3.760985 2.894051,1.548849 4.55628,-1.416188 4.32873,-7.721468 -0.163665,-4.535054 0.0321,-5.231134 1.198847,-4.262817 0.76695,0.636511 1.912551,2.727143 2.545781,4.645849 0.803182,2.433667 1.599345,3.316635 2.632939,2.920008 C 82.496849,30.255847 84.058913,30 85.153216,30 86.961981,30 87,29.857143 85.571429,28.428571 84.707143,27.564286 84,26.725706 84,26.565061 84,23.135708 81.443955,15.037019 79.814029,13.302043 L 77.651372,11 l 2.767934,0 c 1.926929,0 2.926844,0.607676 3.290945,2 0.287656,1.1 1.145528,2 1.90638,2 C 86.377484,15 87,15.45 87,16 c 0,0.55 0.622516,1 1.383369,1 1.162155,0 1.835832,1.123761 2.997422,5 0.08241,0.275 0.51418,1.074115 0.959491,1.775811 0.445311,0.701696 0.826341,4.16782 0.846732,7.702496 0.02951,5.114302 -0.496325,7.381044 -2.574969,11.100142 C 87.796359,47.616259 87.445359,49 88.983154,49 c 1.5803,0 5.76619,-9.145702 6.536282,-14.281044 C 96.420375,28.711067 98,28.592089 98,34.532119 98,40.338336 96.130067,44.743389 91.480808,49.889564 87.19115,54.637702 86,54.9877 86,51.5 c 0,-3.541162 -1.218654,-3.0581 -3.218544,1.275798 -0.945199,2.048311 -2.642911,4.296893 -3.772694,4.996849 -2.386952,1.478833 -2.523185,1.248025 -3.475137,-5.887622 -0.338621,-2.538236 -1.243711,-5.463236 -2.011312,-6.5 -1.2868,-1.738023 -1.450821,-1.545561 -2.103253,2.467972 C 70.60785,52.843265 65.344099,61.320003 62.75,61.813638 61.306871,62.088253 60.992325,61.388533 60.95623,57.823324 60.906,52.862392 58.048108,43.806395 56.363667,43.270577 c -1.437686,-0.457325 -3.34582,4.912789 -3.421297,9.628646 -0.0317,1.980427 -0.369206,5.353879 -0.750023,7.496559 L 51.499954,64.291563 48.21406,61.526666 z M 50.10073,57.75 c 0.732334,-9.087874 1.255854,-11.612147 3.082247,-14.861774 1.176778,-2.093794 2.517017,-3.57364 2.97831,-3.288545 1.141172,0.705283 1.05359,-0.329663 -0.231026,-2.729989 -1.486476,-2.777506 -3.603655,-0.861726 -4.969528,4.496796 -0.579492,2.273432 -1.763261,6.476742 -2.630598,9.34069 C 46.761274,55.887558 47.000907,59 48.968615,59 c 0.567262,0 1.076713,-0.5625 1.132115,-1.25 z M 83.473434,39.5 c -0.335792,-3.3 -1.029683,-6.4275 -1.541982,-6.95 -0.961888,-0.981042 -0.995916,-0.74992 -1.393302,9.463385 -0.117985,3.032362 -0.771987,6.555026 -1.453337,7.828141 -0.681351,1.273116 -0.926075,3.067092 -0.543832,3.986615 0.529825,1.274543 1.271049,0.483613 3.118985,-3.328141 2.055263,-4.239409 2.331125,-5.912709 1.813468,-11 z m -47.778478,8.581908 c 0.642542,-2.70495 2.389888,-6.764098 3.88299,-9.020328 1.493102,-2.25623 2.453818,-4.363149 2.134924,-4.682043 -0.827182,-0.827183 -2.847176,0.594135 -2.240192,1.576254 0.277915,0.449678 -0.164744,1.373684 -0.983688,2.053347 C 37.670045,38.688801 37,39.864789 37,40.622445 37,41.3801 36.55,42 36,42 c -0.55,0 -1,0.642857 -1,1.428571 0,0.785715 -0.707143,2.135715 -1.571429,3 -0.864285,0.864286 -1.201785,1.57832 -0.75,1.586742 0.451786,0.0084 0.243688,0.381899 -0.462441,0.829949 -0.707759,0.449085 -0.996297,1.564039 -0.643011,2.484688 1.186072,3.090855 2.945398,1.704492 4.121837,-3.248042 z M 49.842638,17.025306 C 45.736662,15.784891 41,12.709704 41,11.284392 c 0,-1.6274378 0.02431,-1.6247742 4.096362,0.448867 9.639265,4.90867 13.545098,5.252942 19.56578,1.724587 C 67.73513,11.656956 69,11.311674 69,12.273705 c 0,0.746907 -1.74877,2.340876 -3.886155,3.542154 -4.016741,2.257535 -10.184846,2.746036 -15.271207,1.209447 z"
         style="fill:#9b5257" />
      <path
         inkscape:connector-curvature="0"
         id="path3207"
         d="M 41.25,101.253 C 31.020242,100.99032 29,100.68436 29,99.397793 c 0,-1.338229 -0.218587,-1.322063 -1.66369,0.12304 -1.149578,1.149577 -2.578794,1.480667 -4.625,1.071427 C 21.082589,100.26652 19.104692,100 18.315983,100 17.527274,100 17.140864,99.581094 17.457295,99.069098 18.456783,97.451892 16.251082,96.928477 13.574936,98.147811 11.592219,99.051197 10.388364,99.04235 8.3406416,98.109345 6.2156126,97.141117 5.5136327,97.159097 4.8468858,98.19883 4.3868966,98.916143 4.2568649,95.685906 4.5571001,91 5.0335646,83.563604 5.4151507,82.218458 7.6066196,80.25 10.556593,77.600225 14.446126,77.378115 18.909164,79.604572 c 2.054452,1.024895 4.187232,1.354184 5.903638,0.911487 7.607644,-1.962171 10.614371,-1.755047 13.111512,0.90321 3.384558,3.60293 4.546686,3.254419 6.538397,-1.960801 2.166958,-5.674099 4.829528,-7.455992 11.360888,-7.603141 6.539457,-0.147331 9.483562,1.763633 11.71369,7.603141 0.953935,2.497843 2.235791,4.52746 2.848569,4.51026 0.612778,-0.0172 3.252825,-1.079365 5.86677,-2.360368 4.080282,-1.999602 5.300332,-2.182905 8.624184,-1.295718 3.325567,0.887644 4.390949,0.726927 7.554532,-1.139633 C 97.027564,76.461173 101.39585,76.395845 104,79 c 2.30317,2.303174 2.6389,5 0.62244,5 -0.75765,0 -1.93775,-0.675 -2.62244,-1.5 -1.40759,-1.696036 -5.563244,-2.015702 -6.5,-0.5 -0.347102,0.561622 0.444663,1 1.806124,1 3.007886,0 7.992176,3.780266 7.314106,5.547283 -0.27574,0.71857 0.1469,1.844492 0.93921,2.502049 C 107.42793,92.600042 107.39973,94 105.5,94 c -0.825,0 -1.5,0.659167 -1.5,1.464816 0,2.377138 -3.91228,3.819055 -8.613649,3.174661 -3.267837,-0.447907 -4.519941,-0.223182 -5.163464,0.926729 -0.698741,1.248584 -3.389467,1.514514 -15.159616,1.498264 -12.340777,-0.017 -14.48242,-0.25543 -15.562331,-1.732297 -1.644844,-2.249458 -0.433731,-6.413488 2.916117,-10.026149 2.993212,-3.228044 3.267102,-6.339251 0.909427,-10.330476 -2.342488,-3.965517 -10.035559,-5.51995 -13.48905,-2.725548 -5.229783,4.231693 -6.574049,12.001623 -2.405023,13.901158 2.66256,1.213144 5.171178,6.063197 4.063293,7.855793 -0.409065,0.661881 0.170728,1.354564 1.40368,1.676988 C 54.054723,99.986067 55,100.63078 55,101.11663 c 0,0.48585 -0.3375,0.78607 -0.75,0.66715 -0.4125,-0.11892 -6.2625,-0.35777 -13,-0.53078 z m 6.25,-5.322638 c 0,-1.495069 -0.662337,-2.530526 -1.753024,-2.740574 C 43.498215,92.756717 42.395828,95.567091 44.03821,97.54604 45.77168,99.634744 47.5,98.828107 47.5,95.930362 z m 18.541653,1.51945 c 1.059849,-1.27704 1.010231,-1.826499 -0.281594,-3.118325 C 63.943574,92.515003 62,93.321813 62,95.89235 c 0,3.276245 1.981483,4.039814 4.041653,1.557462 z m 10.626476,-0.02735 c 0.332948,-0.867648 -0.131175,-2.314077 -1.031385,-3.214286 -1.515659,-1.515659 -1.759853,-1.513636 -3.300841,0.02735 -1.37467,1.374669 -1.440336,1.933714 -0.377556,3.214286 1.65829,1.998116 3.937616,1.984878 4.709782,-0.02735 z m -52.626476,-0.97265 c 1.06129,-1.278778 1.003974,-1.832756 -0.327367,-3.164098 -2.264052,-2.264051 -5.177083,-0.01898 -3.658089,2.819291 1.231195,2.300509 2.286587,2.391818 3.985456,0.344807 z m 12.77077,-0.71432 C 37.21041,93.668912 34.323609,92.276391 32.8,93.8 c -1.523609,1.523609 -0.131088,4.41041 1.935492,4.012423 0.957848,-0.184464 1.892467,-1.119083 2.076931,-2.076931 z m 51.538099,0.793447 c 0.310474,-0.809084 -0.155667,-2.191227 -1.035869,-3.071429 -1.419638,-1.419638 -1.769072,-1.431663 -3.094254,-0.10648 -0.821638,0.821638 -1.221476,2.203781 -0.888528,3.071429 0.763444,1.989503 4.267538,2.063849 5.018651,0.10648 z M 99.5,93.5 c 0,-1.312726 -0.773184,-2.10981 -2.25,-2.319551 C 95.40432,90.918321 95,91.335138 95,93.5 c 0,2.164862 0.40432,2.581679 2.25,2.319551 C 98.726816,95.60981 99.5,94.812726 99.5,93.5 z m -87,-1 c 0,-2.978138 -3.9035957,-2.680602 -4.3300396,0.33004 -0.2746244,1.938814 0.061185,2.274624 1.9999996,2 C 11.72332,94.610013 12.5,93.833333 12.5,92.5 z m 68.745793,-2.681168 c -0.19038,-1.103668 0.500092,-1.362974 2.75,-1.032757 C 85.648107,89.028583 87,88.824073 87,88.331607 87,87.839142 85.895117,87.344773 84.544704,87.233009 83.194291,87.121246 81.731791,86.969808 81.294704,86.89648 79.127838,86.532959 77.998553,87.165328 77.984687,88.75 77.971601,90.245547 77.828426,90.281897 77,89 c -0.59295,-0.917525 -0.975321,-1.033899 -0.984687,-0.29969 -0.01788,1.40151 3.029664,3.381504 4.484687,2.913708 0.55,-0.176828 0.885607,-0.984662 0.745793,-1.795186 z m 11.267931,-0.862073 c 0.528481,-1.665097 1.331817,-1.979556 4.340683,-1.699129 2.030701,0.189263 4.244203,0.685279 4.918893,1.102259 1.68215,1.039629 1.5456,-0.183843 -0.21727,-1.946718 C 99.792147,84.64929 90.358408,85.021349 90.75,86.839352 c 0.1375,0.638356 -0.0875,1.107359 -0.5,1.042227 -1.879479,-0.29676 -2.227858,0.23293 -1.039427,1.580384 1.769979,2.006817 2.543412,1.888523 3.303151,-0.505204 z M 46.158144,59.527334 C 43.432627,56.423142 41.020864,50.676489 41.005577,47.25 c -0.0044,-0.995166 -1.927763,-1.940876 -2.033735,-1 -0.321467,2.854161 -4.019689,11.25 -4.955431,11.25 -1.901285,0 -4.757832,-5.984473 -5.527403,-11.579924 C 28.116832,43.214034 27.404551,41 26.906162,41 26.05157,41 25.457969,47.812416 25.882325,52.75 26.132433,55.660137 25.623961,55.585626 22.540546,52.260301 17.379629,46.694485 12.637561,33 15.871169,33 c 0.479143,0 1.167189,-2.231505 1.528991,-4.9589 0.361802,-2.727395 1.10671,-5.236329 1.655351,-5.575408 0.548641,-0.339079 0.873095,-1.248514 0.721009,-2.020967 -0.442837,-2.249192 3.269674,-7.023686 6.371935,-8.194659 C 27.716805,11.65808 29,11.548172 29,12.005825 c 0,1.697653 -3.540912,6.981748 -4.682612,6.987852 -1.347976,0.0072 -2.073653,1.925549 -2.700638,7.139185 -0.388676,3.232002 -0.216913,3.575339 1.556625,3.111549 1.096428,-0.286723 2.377434,-1.471511 2.846679,-2.632863 0.469246,-1.161351 0.881697,-1.542942 0.91656,-0.847979 0.03486,0.694963 -0.348784,2.044963 -0.852547,3 C 24.254364,32.232333 22,37.828164 22,38.901129 22,39.505508 21.325,40 20.5,40 c -1.955231,0 -1.894011,1.373076 0.236291,5.29966 l 1.736291,3.20034 0.292939,-3 C 23.4892,38.088754 28.717801,29 32.257682,29 c 1.861928,0 3.221387,3.085885 1.757917,3.990359 C 32.968072,33.637767 31,39.350267 31,41.743398 31,42.434529 31.9,43 33,43 c 2.403076,0 2.564639,1.292504 0.428571,3.428571 -0.864285,0.864286 -1.201785,1.57832 -0.75,1.586742 0.451786,0.0084 0.243688,0.381899 -0.462441,0.829949 C 30.74183,49.780731 31.636159,53 33.370338,53 c 1.421136,0 3.65727,-8.948023 3.038932,-12.160463 -0.377914,-1.963364 -0.31528,-2.032372 0.38954,-0.429182 0.756467,1.720666 1.053968,1.563923 2.996125,-1.578553 1.185946,-1.918901 1.968083,-4.46606 1.738083,-5.660356 C 41.303017,31.977151 41.484403,31 41.936097,31 c 1.170676,0 3.236887,5.363115 3.553589,9.223793 0.359657,4.384309 1.491052,6.906146 2.749446,6.128415 0.662487,-0.409439 0.816477,0.394816 0.431908,2.255744 -0.328711,1.590626 -0.882421,4.301258 -1.230467,6.023626 -0.392585,1.942782 -0.19145,3.404354 0.529839,3.850136 1.754209,1.084161 2.121713,0.240872 2.667193,-6.12024 0.498831,-5.817128 3.930792,-13.746254 5.523682,-12.761793 1.131627,0.699384 1.056124,-0.324928 -0.196471,-2.665422 C 55.234524,35.569696 55.251907,35 56.023833,35 56.625644,35 56.839919,34.55 56.5,34 c -0.339919,-0.55 -0.247713,-1 0.204902,-1 0.452616,0 1.906486,2.282266 3.230823,5.071703 1.920382,4.044882 2.801865,4.968675 4.353842,4.562824 1.771246,-0.463191 1.885898,-0.132946 1.277009,3.678297 -0.367921,2.302947 -1.095914,4.614676 -1.617762,5.137176 -1.247166,1.248725 -1.225363,5.55 0.02813,5.55 3.04289,0 7.141408,-14.250063 5.276027,-18.344127 -1.272901,-2.793714 -0.303335,-4.923066 1.682735,-3.695607 0.760608,0.470082 1.986231,0.623183 2.723607,0.340225 1.138095,-0.436728 1.703712,0.560955 1.537994,2.712842 -0.02174,0.282334 1.05052,1.027756 2.382806,1.656495 1.332286,0.628738 2.170229,0.735238 1.862094,0.236666 C 79.134076,39.407922 79.298921,39 79.808532,39 c 1.285229,0 0.754443,7.226644 -0.807804,10.998242 -0.858005,2.071408 -0.955493,3.446993 -0.291355,4.111131 0.664138,0.664138 1.744092,-0.735994 3.227597,-4.184493 1.845958,-4.291046 2.112234,-6.192903 1.547866,-11.055533 C 83.109942,35.639232 82.397487,32.745661 81.901605,32.439188 81.405722,32.132716 81,32.458651 81,33.163489 81,33.868327 80.238584,33.332385 79.307964,31.972506 78.377345,30.612628 77.323107,29.275 76.965213,29 76.607319,28.725 76.01901,26.982629 75.657861,25.128064 c -0.55885,-2.869789 -0.440965,-3.192946 0.791599,-2.170008 0.79653,0.66106 1.966333,2.771778 2.599563,4.690484 0.803182,2.433667 1.599345,3.316635 2.632939,2.920008 0.814887,-0.312701 2.457309,-0.604074 3.649825,-0.647495 C 86.524304,29.877632 86.9375,29.615132 86.25,29.337719 84.566567,28.658439 84.657856,27 86.37868,27 c 0.758273,0 1.937868,1.35 2.62132,3 1.192783,2.879633 3,4.084444 3,2 0,-0.55 0.421708,-1 0.937129,-1 1.541235,0 -0.0059,7.185151 -2.557117,11.875953 C 87.785314,47.646633 87.476619,49 88.983154,49 c 1.5803,0 5.76619,-9.145702 6.536282,-14.281044 C 96.430861,28.641141 98,28.619204 98,34.684276 98,40.581428 94.991615,46.919261 90.182068,51.154491 L 86.5,54.396877 86.183578,51.698439 c -0.428152,-3.651265 -1.355614,-3.357564 -3.402122,1.077359 -0.945199,2.048311 -2.642911,4.296893 -3.772694,4.996849 -2.386952,1.478833 -2.523185,1.248025 -3.475137,-5.887622 -0.338621,-2.538236 -1.243711,-5.463236 -2.011312,-6.5 -1.2868,-1.738023 -1.450821,-1.545561 -2.103253,2.467972 C 70.60785,52.843265 65.344099,61.320003 62.75,61.813638 61.326063,62.084601 61,61.421518 61,58.254825 61,53.656809 58.411191,44.372164 56.862213,43.414843 54.751526,42.110367 53.749775,45.265871 52.470084,57.25 c -0.725854,6.797525 -1.954078,7.240666 -6.31194,2.277334 z M 49.842638,17.025306 C 45.736662,15.784891 41,12.709704 41,11.284392 c 0,-1.6274378 0.02431,-1.6247742 4.096362,0.448867 9.639265,4.90867 13.545098,5.252942 19.56578,1.724587 C 67.73513,11.656956 69,11.311674 69,12.273705 c 0,0.746907 -1.74877,2.340876 -3.886155,3.542154 -4.016741,2.257535 -10.184846,2.746036 -15.271207,1.209447 z"
         style="fill:#615f50" />
      <path
         inkscape:connector-curvature="0"
         id="path3205"
         d="M 20.351937,100.26652 C 19.170502,100.05812 17.980649,99.034005 17.70782,97.990705 17.268881,96.3122 16.8583,96.227214 14.141811,97.252574 7.7772893,99.654913 4.0873209,96.15954 5.6937151,89.25 c 0.6917744,-2.975511 5.9943959,-3.069773 9.6782589,-0.172045 2.000366,1.573488 3.397137,1.91203 5.753462,1.394495 1.928999,-0.42368 4.055138,-0.178585 5.593686,0.644821 2.169607,1.161138 2.645936,1.103967 3.785396,-0.454336 0.716914,-0.980439 1.560941,-1.366038 1.875614,-0.856885 0.314674,0.509152 1.655126,0.718704 2.978784,0.465671 1.323657,-0.253033 2.710955,0.03232 3.082884,0.634109 C 39.288556,92.27591 43,92.352587 43,91 c 0,-1.736207 3.916552,-1.083448 6,1 1.254806,1.254806 2,3.333333 2,5.578484 l 0,3.578486 -10.154125,-0.59813 c -7.82175,-0.46075 -10.433032,-0.979566 -11.368365,-2.25871 -1.115647,-1.525738 -1.299467,-1.501324 -2.263863,0.300667 -1.047323,1.956943 -2.799426,2.382273 -6.86171,1.665723 z M 48.5,96 c 0,-1.983898 -0.567713,-2.565323 -2.75,-2.816422 -2.323937,-0.267399 -2.75,0.05538 -2.75,2.083333 0,3.013158 0.86655,3.896349 3.458849,3.525272 C 47.891495,98.587105 48.5,97.754703 48.5,96 z m -24,-1 c 0,-1.832728 -0.601738,-2.585447 -2.254471,-2.820137 -2.457106,-0.348911 -3.852657,1.795603 -2.856989,4.390274 0.361403,0.941801 1.50471,1.442025 2.856989,1.25 C 23.898262,97.585447 24.5,96.832728 24.5,95 z M 37,95.468615 C 37,92.371347 34.402723,91.168705 32.285714,93.285714 30.168705,95.402723 31.371347,98 34.468615,98 36.510462,98 37,97.510462 37,95.468615 z M 12.386082,94.471061 C 14.104987,92.752156 13.609164,90.447736 11.332439,89.574074 9.186631,88.750651 8,89.754196 8,92.39235 c 0,3.794331 1.811793,4.653 4.386082,2.078711 z m 46.979208,3.848233 c -1.050654,-4.186138 1.523982,-7.900828 5.185674,-7.4819 1.62197,0.185566 5.089257,0.28369 7.705083,0.218052 2.615826,-0.06564 5.606074,0.335579 6.644995,0.891593 1.374501,0.735611 2.194985,0.642182 3.012657,-0.343052 1.329644,-1.602124 6.052613,-1.816076 7.855059,-0.355838 0.901858,0.730634 1.817354,0.531402 3.165832,-0.688954 4.657112,-4.214628 11.16748,-1.607429 10.32406,4.134462 -0.37907,2.58066 -1.0475,3.320694 -3.482484,3.855505 -1.836315,0.403323 -3.995975,0.135975 -5.528922,-0.684433 -2.278923,-1.219642 -2.655501,-1.135502 -4.003369,0.894495 C 89.191354,100.34441 87.767731,101 85.378028,101 83.41734,101 82,100.49651 82,99.8 c 0,-0.933333 -0.266667,-0.933333 -1.2,0 -0.76975,0.76975 -4.706877,1.2 -10.980948,1.2 -9.774844,0 -9.781368,-0.002 -10.453762,-2.680706 z M 67,97.5 C 68.543661,95.640003 66.746448,93 63.936572,93 61.607861,93 60.952779,94.103421 61.664869,96.826459 62.319944,99.331468 65.18032,99.692581 67,97.5 z M 77.410264,97.373252 C 78.204024,95.304748 76.32571,93 73.84617,93 c -2.134704,0 -3.359852,2.218984 -2.484544,4.5 0.771733,2.011104 5.264393,1.916961 6.048638,-0.126748 z M 87.8,97.8 c 1.69411,-1.69411 1.489671,-4.474865 -0.381787,-5.193011 -2.557238,-0.981304 -3.282033,-0.729962 -4.509641,1.563846 -0.962764,1.798941 -0.850392,2.398539 0.655946,3.5 C 85.798031,99.30402 86.281244,99.318756 87.8,97.8 z m 12.57587,-3.031236 c 0.83869,-1.331803 0.70827,-2.113198 -0.565279,-3.386745 -2.995707,-2.995706 -7.465121,0.919469 -4.764428,4.173605 1.554892,1.873529 3.869544,1.531801 5.329707,-0.78686 z M 38.462265,85.42888 c -4.136431,-2.199362 -5.685684,-2.506471 -9.953999,-1.97318 -3.528005,0.440795 -6.171156,0.165274 -8.749563,-0.912054 -5.167001,-2.15891 -7.80479,-1.93157 -11.170227,0.962718 -3.379425,2.906318 -4.0126456,2.739486 -2.7005794,-0.71151 0.5191192,-1.365387 2.3034711,-3.045694 3.9652262,-3.734015 2.6000092,-1.076959 3.8047092,-0.95841 8.6382512,0.85005 4.018846,1.503642 6.131306,1.82623 7.425023,1.133854 4.532887,-2.425928 7.898108,-2.146507 11.423108,0.948484 C 39.222994,83.646952 41.194892,85 41.7215,85 42.770418,85 45,80.666145 45,78.627261 c 0,-2.754752 4.554245,-5.5574 10.087408,-6.207715 4.900665,-0.575977 5.844842,-0.380017 8.263665,1.71509 1.501961,1.30095 3.348923,4.165364 4.10436,6.365364 1.578343,4.596488 3.353184,4.815893 9.812699,1.213044 3.39455,-1.893339 4.129832,-1.970915 7.416415,-0.782471 3.39744,1.22853 4.008121,1.124585 8.881793,-1.511781 4.561126,-2.467297 5.571165,-2.677171 7.86165,-1.633556 2.60019,1.184726 4.34077,3.779342 3.26022,4.859891 -0.30738,0.307379 -1.5881,-0.162029 -2.84605,-1.043128 -3.189325,-2.233891 -6.537595,-1.997602 -9.182334,0.648001 -1.411229,1.411691 -3.164057,2.128263 -4.704545,1.923261 -5.550151,-0.738593 -12.163103,-0.45559 -12.787982,0.547264 -0.367014,0.589013 -2.456047,1.230355 -4.642294,1.425204 C 67.180106,86.443843 66.497527,86.18297 66.218915,84.5 65.080947,77.626054 61.18924,74 54.94966,74 c -3.853634,0 -9.941777,5.590232 -9.964973,9.15 -0.03034,4.655678 -1.250494,5.081991 -6.522422,2.27888 z m 8.63727,-25.483191 C 44.401436,57.24759 41,49.090664 41,45.318499 c 0,-3.33487 -1.899033,-0.696899 -4.053078,5.630182 -1.906596,5.600247 -2.628384,6.730645 -3.719483,5.825113 -1.127491,-0.935734 -1.092489,-1.269812 0.209373,-1.99837 0.859753,-0.481142 1.568266,-1.864944 1.574472,-3.075114 0.01437,-2.802722 8.606556,-17.346791 9.198621,-15.570595 0.243309,0.729927 -0.334227,2.16073 -1.283413,3.179561 -1.898813,2.038137 -1.921173,3.117017 -0.131986,6.368282 0.659077,1.197657 0.938335,2.855072 0.620574,3.683144 C 42.675924,51.286911 47.737009,60 49.595022,60 c 0.954907,0 1.408504,-1.201276 1.415984,-3.75 0.01812,-6.175021 1.075154,-10.717835 3.096067,-13.305994 L 56.015427,40.5 58.87605,43.61842 c 2.126549,2.318191 3.041182,4.56356 3.564243,8.75 C 62.827284,55.465789 63.552387,58 64.051632,58 c 1.830072,0 6.771589,-12.586804 6.281522,-16 -0.03948,-0.275 -0.358893,-2.035227 -0.709795,-3.911615 -0.635222,-3.396733 -0.628981,-3.403448 1.430856,-1.539321 1.137873,1.029761 1.864492,2.653798 1.614709,3.608971 -0.263755,1.0086 0.170045,1.863557 1.034739,2.039322 1.693243,0.344181 4.258725,6.948475 4.281281,11.021258 0.0191,3.448788 2.476581,2.781065 3.881446,-1.054628 0.536644,-1.465193 1.011242,-1.937173 1.054663,-1.048846 C 83.006672,52.866782 79.366492,58 78.038711,58 77.58984,58 76.920026,56.3125 76.550236,54.25 75.152876,46.456247 73.896713,43 72.461456,43 c -0.97765,0 -1.468726,1.075892 -1.483418,3.25 -0.02793,4.133621 -2.98439,10.578445 -6.21739,13.553379 l -2.50319,2.30338 -1.032723,-6.80338 C 59.927729,46.758951 58.484219,43 56.5,43 54.363666,43 53.064671,46.933183 52.329788,55.626847 51.986995,59.682081 51.357175,63 50.930187,63 50.5032,63 48.779406,61.62556 47.099535,59.945689 z M 21.772996,50.75 C 17.298801,44.849478 13.507992,34 15.920545,34 c 0.5937,0 1.112895,0.3375 1.153765,0.75 C 17.586526,39.919709 21.326624,49 22.94377,49 23.524696,49 24,47.251664 24,45.11481 c 0,-6.641343 4.769993,-15.194138 8.36501,-14.998809 1.69012,0.09183 1.770341,0.211294 0.38499,0.573325 -0.9625,0.251527 -1.75,1.11345 -1.75,1.915383 0,0.801933 -0.646586,1.706179 -1.436858,2.009435 -0.827056,0.317371 -1.179333,1.22247 -0.830061,2.13266 0.446331,1.163119 0.231298,1.360224 -0.813142,0.745347 -0.998738,-0.587972 -0.937229,-0.265842 0.207354,1.085955 0.895012,1.057042 1.853025,4.171894 2.128918,6.921894 0.275893,2.75 0.787897,5.9 1.137787,7 0.34989,1.1 -0.01084,0.65 -0.801616,-1 -0.790779,-1.65 -1.745568,-5.179497 -2.121754,-7.843326 -0.376186,-2.66383 -1.051385,-4.46383 -1.500442,-4 -1.399613,1.445655 -2.727175,11.026178 -1.765905,12.743873 1.629952,2.912562 -0.890572,1.700117 -3.431285,-1.650547 z m 64.297289,-0.5 c 0.03866,-1.5125 0.487513,-3.65 0.997458,-4.75 0.704285,-1.519209 0.788486,-1.218715 0.35026,1.25 -0.343325,1.934098 -0.160455,3.25 0.45165,3.25 2.703173,0 8.013874,-10.259507 8.230027,-15.899223 L 96.19936,31.5 96.922139,34 c 1.346527,4.657468 -2.127478,12.739764 -7.40025,17.216731 C 86.696481,53.615707 85.989326,53.417646 86.070285,50.25 z M 51.265514,16.88524 c -4.348048,-1.256071 -10.882075,-5.17972 -9.431157,-5.663359 0.639053,-0.213018 2.729618,0.58159 4.645701,1.765794 1.916083,1.184205 5.992642,2.412036 9.05902,2.728514 4.558109,0.470438 6.066505,0.21785 8.268077,-1.384529 4.49501,-3.271619 5.224692,-3.578228 4.592034,-1.929547 -0.756741,1.972037 -8.35637,5.622868 -11.464913,5.507699 -1.338852,-0.0496 -3.889795,-0.510661 -5.668762,-1.024572 z"
         style="fill:#000000" />
    </g>
  </g>
</svg>
