<?xml version="1.0" encoding="UTF-8" standalone="no"?>
<!-- Created with Inkscape (http://www.inkscape.org/) -->

<svg
   xmlns:dc="http://purl.org/dc/elements/1.1/"
   xmlns:cc="http://creativecommons.org/ns#"
   xmlns:rdf="http://www.w3.org/1999/02/22-rdf-syntax-ns#"
   xmlns:svg="http://www.w3.org/2000/svg"
   xmlns="http://www.w3.org/2000/svg"
   xmlns:sodipodi="http://sodipodi.sourceforge.net/DTD/sodipodi-0.dtd"
   xmlns:inkscape="http://www.inkscape.org/namespaces/inkscape"
   id="svg3015"
   version="1.1"
   inkscape:version="0.48.3.1 r9886"
   width="77"
   height="77"
   sodipodi:docname="Male Islander Face.png">
  <metadata
     id="metadata3021">
    <rdf:RDF>
      <cc:Work
         rdf:about="">
        <dc:format>image/svg+xml</dc:format>
        <dc:type
           rdf:resource="http://purl.org/dc/dcmitype/StillImage" />
        <dc:title></dc:title>
      </cc:Work>
    </rdf:RDF>
  </metadata>
  <defs
     id="defs3019" />
  <sodipodi:namedview
     pagecolor="#ffffff"
     bordercolor="#666666"
     borderopacity="1"
     objecttolerance="10"
     gridtolerance="10"
     guidetolerance="10"
     inkscape:pageopacity="0"
     inkscape:pageshadow="2"
     inkscape:window-width="1920"
     inkscape:window-height="1018"
     id="namedview3017"
     showgrid="false"
     inkscape:zoom="4.3344727"
     inkscape:cx="24.941999"
     inkscape:cy="79.848707"
     inkscape:window-x="-8"
     inkscape:window-y="-8"
     inkscape:window-maximized="1"
     inkscape:current-layer="svg3015" />
  <g
     id="g3075"
     transform="matrix(1.2726477,0,0,1.2726477,-10.921696,-3.422897)">
    <path
       inkscape:connector-curvature="0"
       id="path3051"
       d="M 55.831473,44.239384 50.179113,33.396081 37.374788,30.512224 36.451953,16.554356 66.098005,16.785064 c 0,0 1.614959,17.072434 -10.266532,27.45432 z"
       style="fill:#ff0000;stroke:#ff0000;stroke-width:1px;stroke-linecap:butt;stroke-linejoin:miter;stroke-opacity:1" />
    <path
       inkscape:connector-curvature="0"
       id="path3049"
       d="m 13.035035,17.015773 23.762981,-0.576772 0.576772,14.073223 12.91968,2.883857 5.767714,11.30472 c 0,0 -8.766926,7.728737 -17.072434,7.959446 -8.305509,0.230708 -15.688183,-3.345275 -18.918103,-6.575195 -3.22992,-3.22992 -6.921256,-9.112988 -7.613382,-11.766137 -0.692126,-2.653148 0.576772,-17.303142 0.576772,-17.303142 z"
       style="fill:#ffffff;stroke:#800000;stroke-width:1px;stroke-linecap:butt;stroke-linejoin:miter;stroke-opacity:1" />
    <path
       transform="translate(4.6141714,-14.303931)"
       d="m 48.564155,38.644699 c 0,1.943107 -1.5752,3.518306 -3.518306,3.518306 -1.943107,0 -3.518306,-1.575199 -3.518306,-3.518306 0,-1.943107 1.575199,-3.518306 3.518306,-3.518306 1.943106,0 3.518306,1.575199 3.518306,3.518306 z"
       sodipodi:ry="3.5183058"
       sodipodi:rx="3.5183058"
       sodipodi:cy="38.644699"
       sodipodi:cx="45.045849"
       id="path3053"
       style="fill:#000000;fill-opacity:1;stroke:#000000;stroke-opacity:1"
       sodipodi:type="arc" />
    <path
       transform="translate(-16.322632,-14.303936)"
       d="m 48.564155,38.644699 c 0,1.943107 -1.5752,3.518306 -3.518306,3.518306 -1.943107,0 -3.518306,-1.575199 -3.518306,-3.518306 0,-1.943107 1.575199,-3.518306 3.518306,-3.518306 1.943106,0 3.518306,1.575199 3.518306,3.518306 z"
       sodipodi:ry="3.5183058"
       sodipodi:rx="3.5183058"
       sodipodi:cy="38.644699"
       sodipodi:cx="45.045849"
       id="path3053-1"
       style="fill:#000000;fill-opacity:1;stroke:#000000;stroke-opacity:1"
       sodipodi:type="arc" />
    <path
       inkscape:connector-curvature="0"
       id="path3073"
       d="m 30.165145,35.760844 c 0,0 3.691337,2.883857 7.67106,3.056888 3.979723,0.173032 6.113777,-1.326574 7.959446,-2.364763 1.845668,-1.038188 3.63366,0.115355 3.114565,1.268897 -0.519094,1.153543 -4.671848,3.22992 -9.459051,3.691338 -4.787203,0.461417 -10.035823,-3.22992 -10.843303,-4.095078 -0.80748,-0.865157 -0.634448,-1.961022 1.557283,-1.557282 z"
       style="fill:#000000;stroke:none" />
  </g>
</svg>
