<?xml version="1.0" encoding="UTF-8" standalone="no"?>
<!-- Created with Inkscape (http://www.inkscape.org/) -->

<svg
   xmlns:dc="http://purl.org/dc/elements/1.1/"
   xmlns:cc="http://creativecommons.org/ns#"
   xmlns:rdf="http://www.w3.org/1999/02/22-rdf-syntax-ns#"
   xmlns:svg="http://www.w3.org/2000/svg"
   xmlns="http://www.w3.org/2000/svg"
   xmlns:sodipodi="http://sodipodi.sourceforge.net/DTD/sodipodi-0.dtd"
   xmlns:inkscape="http://www.inkscape.org/namespaces/inkscape"
   id="svg3152"
   version="1.1"
   inkscape:version="0.48.2 r9819"
   width="1920"
   height="1920"
   sodipodi:docname="Mummy Torso Back.svg">
  <metadata
     id="metadata3158">
    <rdf:RDF>
      <cc:Work
         rdf:about="">
        <dc:format>image/svg+xml</dc:format>
        <dc:type
           rdf:resource="http://purl.org/dc/dcmitype/StillImage" />
        <dc:title></dc:title>
      </cc:Work>
    </rdf:RDF>
  </metadata>
  <defs
     id="defs3156" />
  <sodipodi:namedview
     pagecolor="#ffffff"
     bordercolor="#666666"
     borderopacity="1"
     objecttolerance="10"
     gridtolerance="10"
     guidetolerance="10"
     inkscape:pageopacity="0"
     inkscape:pageshadow="2"
     inkscape:window-width="1600"
     inkscape:window-height="850"
     id="namedview3154"
     showgrid="false"
     inkscape:zoom="0.19261214"
     inkscape:cx="-875.98839"
     inkscape:cy="1542.2583"
     inkscape:window-x="-8"
     inkscape:window-y="-8"
     inkscape:window-maximized="1"
     inkscape:current-layer="g3162" />
  <g
     id="g3162"
     transform="translate(-423.13014,1603.1267)">
    <g
       id="g3168"
       transform="matrix(5.6218883,0,0,5.6218883,303.50891,-1316.6935)">
      <path
         inkscape:connector-curvature="0"
         id="path3166"
         d="m 23.184191,282.50671 c 0.104076,-6.1076 0.344829,-6.74615 4.05306,-10.75 6.11553,-6.60307 6.433074,-7.62707 2.762017,-8.90681 -2.825938,-0.98513 -3.046164,-1.36651 -2.434802,-4.2165 1.169422,-5.4515 2.24489,-6.62326 6.220718,-6.7777 5.686114,-0.22088 23.462503,0.31876 25.714816,0.78063 1.1,0.22557 8.3,0.65495 16,0.95418 16.032088,0.62302 25.75947,-0.21047 54.5,-4.66981 24.84823,-3.85542 34.45105,-4.66382 52.85652,-4.44962 13.35159,0.15538 14.03764,0.0694 12.55192,-1.57226 -1.9248,-2.12687 -19.23207,-8.57445 -25.40844,-9.46555 -2.475,-0.35708 -6.75,-1.24028 -9.5,-1.96268 -2.75,-0.72239 -7.25,-1.59622 -10,-1.94183 -6.37509,-0.8012 -22.43413,-4.17847 -29.2524,-6.15188 -6.35887,-1.84044 -14.03341,-1.13187 -22.7476,2.10023 -3.3,1.22398 -11.175,3.71721 -17.5,5.54053 -6.325,1.82332 -14.2,4.53102 -17.5,6.0171 C 56.077936,240.37711 41.08695,245 37.670485,245 c -7.614846,0 -9.271211,-3.26094 -5.333374,-10.5 2.15506,-3.96172 4.861334,-5.30362 14.162889,-7.02263 3.268225,-0.604 5.583831,-1.17865 14,-3.4743 4.4,-1.20017 9.35,-2.53877 11,-2.97466 5.035359,-1.3302 8.5,-2.92967 8.5,-3.92407 0,-0.89124 -2.500912,-1.22597 -19.5,-2.60989 C 56.65,214.18102 50.125,212.8958 46,211.6384 38.585313,209.37824 38.496498,209.3109 38.192159,205.71845 37.800138,201.09101 39.447322,198 42.305283,198 c 1.229204,0 5.574796,0.92553 9.656871,2.05673 4.766051,1.32074 12.810356,2.36837 22.479901,2.92761 15.604824,0.9025 36.101835,4.00838 43.057945,6.52449 4.01132,1.45094 19.20468,5.55194 29.5,7.96266 3.025,0.70832 7.525,1.78055 10,2.38272 2.475,0.60217 8.55,1.81513 13.5,2.69547 4.95,0.88033 12.825,2.7309 17.5,4.11238 17.40087,5.14201 20.92404,5.9274 44,9.80845 10.32366,1.7363 17.73956,3.06891 24.88649,4.472 2.96257,0.58162 10.66318,1.05749 17.11246,1.05749 10.80895,0 12.30371,0.2396 19.11351,3.06379 4.06315,1.68508 11.88754,4.16293 17.38754,5.50632 11.55104,2.82138 46.91248,14.6974 49.05384,16.47457 1.97217,1.63676 1.91847,8.83685 -0.0716,9.60051 -0.83477,0.32033 -5.89727,-0.78418 -11.25,-2.45447 -12.81706,-3.99948 -21.40548,-6.38261 -21.62269,-5.9999 -0.0965,0.17005 -0.7864,1.1065 -1.53307,2.081 -0.74668,0.97451 -2.82724,5.47451 -4.62348,10 l -3.26589,8.22818 -8.62786,0.28943 -8.62785,0.28944 3.16724,-6.28944 c 1.74199,-3.45919 4.49069,-8.21885 6.10822,-10.57703 l 2.94096,-4.28761 -2.82391,0.67932 c -5.26756,1.26716 -17.77398,6.54809 -31.93368,13.48422 L 263.28046,289 246.39023,288.9331 c -15.13712,-0.06 -16.47118,-0.19817 -12.85289,-1.3317 2.22053,-0.69565 7.84553,-3.33965 12.5,-5.87556 10.62279,-5.78766 19.10356,-9.24212 34.96266,-14.2413 6.875,-2.16718 13.03523,-4.45336 13.68941,-5.08041 0.90092,-0.86356 -0.31182,-1.53375 -5,-2.76311 -15.37945,-4.03286 -29.85704,-5.30167 -42.68941,-3.74128 -4.675,0.56847 -15.475,1.30698 -24,1.64113 -27.26752,1.0688 -34.024,3.92741 -53.5,22.63545 -2.2,2.11325 -5.72929,4.97789 -7.84287,6.36587 -3.59109,2.35824 -4.54114,2.50505 -14.5,2.2407 L 136.5,288.5 144,282.53102 c 4.125,-3.28294 9.3,-7.81385 11.5,-10.06869 2.2,-2.25484 7.15,-6.49534 11,-9.42333 3.85,-2.92799 7.45,-5.7338 8,-6.23512 1.20179,-1.09543 -15.5539,-0.9066 -21.76403,0.24527 -2.32978,0.43213 -10.51598,1.72718 -18.19154,2.87788 -13.81015,2.07038 -13.99129,2.13115 -17.3842,5.83257 -1.88575,2.05722 -7.71848,8.1279 -12.96163,13.4904 l -9.532986,9.75 -8.519898,0 -8.519898,0 2.937091,-3.24041 c 1.6154,-1.78222 3.274591,-3.39472 3.687091,-3.58333 0.4125,-0.18861 0.75,-0.87566 0.75,-1.52677 0,-0.65111 2.078609,-3.56 4.619131,-6.4642 2.540522,-2.9042 4.337792,-5.5617 3.993934,-5.90556 -0.343857,-0.34386 -8.526029,-0.51743 -18.182604,-0.38571 -19.884913,0.27123 -22.915475,0.96686 -31.085396,7.13521 -4.823779,3.64198 -5.335071,4.41471 -5.940395,8.97787 L 37.742339,289 l -7.334399,0 -7.334398,0 0.110649,-6.49329 z M 322,223.07292 c -12.83201,-1.94777 -24.9724,-5.86942 -32.5,-10.49831 -5.47502,-3.36671 -4.83707,-3.31204 -29,-2.48523 -12.6732,0.43366 -11.50819,0.66416 -27.65419,-5.47143 -7.73352,-2.93879 -26.2142,-6.14661 -43.34581,-7.52384 -6.6,-0.53058 -13.71307,-1.68553 -15.80681,-2.56656 -2.09375,-0.88102 -5.46875,-1.5472 -7.5,-1.48039 -5.47402,0.18004 -14.4392,-1.00644 -15.73582,-2.08254 -0.62353,-0.51748 -4.69402,-1.48489 -9.04553,-2.14979 -5.19702,-0.7941 -8.33204,-1.78735 -9.13643,-2.89465 -0.67353,-0.92715 -2.47353,-1.92515 -4,-2.21779 -1.52648,-0.29264 -7.50041,-2.15928 -13.27541,-4.14809 -5.775,-1.98881 -14.55,-4.73456 -19.5,-6.10166 -8.710298,-2.40562 -13.718931,-3.41962 -36.914016,-7.47329 -6.002709,-1.04906 -11.299869,-2.29323 -11.771467,-2.76483 -0.471598,-0.4716 -0.492086,-2.62529 -0.04553,-4.78599 0.684449,-3.31175 1.355067,-4.10509 4.271467,-5.0531 2.623761,-0.85289 3.53599,-1.75884 3.775968,-3.75 C 55.062535,147.58337 54.700891,147 53.188867,147 c -3.310698,0 -4.351753,-2.30484 -3.45559,-7.65049 L 50.546266,134.5 72.523133,134.32054 C 95.668982,134.13153 96.47796,134.04581 121,129.18398 c 13.1329,-2.60378 18.40161,-3.13512 34.5,-3.4793 13.53854,-0.28944 20.43723,-0.85905 24,-1.98163 18.771,-5.91449 18.46564,-5.86222 36.08148,-6.17653 9.39481,-0.16762 17.94481,-0.57362 19,-0.9022 1.05519,-0.32859 5.51852,-1.05078 9.91852,-1.60488 4.4,-0.5541 11.15,-1.69768 15,-2.5413 18.41208,-4.03447 38.09332,-6.29516 58.5958,-6.73062 14.47607,-0.30745 15.82205,0.21617 15.47011,6.01828 -0.12392,2.04281 0.0831,4.1642 0.45996,4.7142 1.34105,1.95699 1.69818,5.24171 0.75344,6.92986 -0.68832,1.22996 -0.49256,2.22951 0.69326,3.53983 1.13627,1.25556 1.5548,3.18535 1.33992,6.1781 -0.29431,4.09897 -0.47401,4.33522 -3.0884,4.0603 -3.73462,-0.39273 -9.65645,-3.62782 -31.02522,-16.94905 -4.84859,-3.0226 -5.63682,-3.20376 -11.69887,-2.68878 -17.28086,1.46802 -41.17594,6.28736 -42.60024,8.59194 -0.27759,0.44913 1.88141,1.88939 4.79777,3.20057 2.91636,1.31117 15.42747,7.31689 27.80247,13.34604 12.375,6.02915 24.525,11.69993 27,12.60173 5.28585,1.92598 22.69415,6.69733 31,8.49662 3.2795,0.71044 3.58719,1.12347 4.8839,6.55591 1.94571,8.15138 1.09977,8.80784 -9.05499,7.02685 -8.78403,-1.54058 -11.42144,-2.44112 -25.65156,-8.75868 -5.67746,-2.52054 -10.62746,-4.52104 -11,-4.44554 -0.37254,0.0755 -1.80235,-0.35053 -3.17735,-0.94671 -1.375,-0.59619 -6.95716,-2.91692 -12.4048,-5.15718 -5.44763,-2.24026 -11.97263,-5.29264 -14.5,-6.78308 -2.52736,-1.49043 -6.8452,-3.87466 -9.5952,-5.29828 -2.75,-1.42362 -6.98002,-4.03112 -9.40004,-5.79443 C 246.67994,138.44271 244.17047,137 243.52335,137 c -0.64711,0 -4.91388,-2.0149 -9.4817,-4.47755 -4.56783,-2.46265 -9.70835,-4.51605 -11.42339,-4.56312 -9.17356,-0.25176 -30.80531,3.13616 -39.86826,6.24408 -3.71455,1.27381 -4.91796,2.46326 -2.49219,2.46326 0.6918,0 4.1793,1.37976 7.75,3.06613 3.83926,1.8132 9.11001,3.35906 12.89847,3.78299 3.52346,0.39427 8.02346,1.38262 10,2.19633 4.36878,1.79854 13.24006,7.55436 15.10297,9.79903 1.60125,1.92939 7.07573,4.79252 11.99075,6.27111 11.39153,3.42692 43.49662,13.75153 49,15.75781 3.575,1.30327 10.55,3.32712 15.5,4.49742 10.14608,2.39879 9.67625,2.26468 29.64657,8.46264 8.05561,2.50012 15.15741,5.16121 15.78177,5.91353 0.62437,0.75231 1.35455,3.1045 1.62263,5.22709 0.26808,2.12259 0.71395,4.58322 0.99081,5.46807 0.27685,0.88485 -0.14031,2.14302 -0.92703,2.79595 -1.67712,1.39188 -9.52463,1.22263 -11.43195,-0.24657 -1.60973,-1.23997 -15.9126,-1.68532 -18.6828,-0.58173 -2.3973,0.95503 -2.33851,0.97726 4,1.51204 13.17473,1.11154 25.09915,2.66178 26.58305,3.45594 1.73544,0.92877 3.19281,7.07309 2.25645,9.51321 -0.77155,2.01063 -15.4444,1.77619 -30.3395,-0.48474 z M 268.61196,195.75 c 2.77448,-1.7875 5.23431,-3.59724 5.46628,-4.02163 0.64,-1.17092 -9.8695,-5.72837 -13.20966,-5.72837 -1.61305,0 -4.38086,0.59745 -6.1507,1.32767 -1.76983,0.73021 -6.48038,2.16696 -10.46788,3.19276 -3.9875,1.02581 -7.25,2.1877 -7.25,2.58198 0,0.39429 3.08097,1.23656 6.8466,1.87172 3.76563,0.63515 9.05313,1.76057 11.75,2.50093 7.01462,1.92569 7.43538,1.86992 13.01536,-1.72506 z m -50.5173,-12.14983 C 225.4676,181.73233 233.525,179.44378 236,178.5145 c 2.475,-0.92928 5.3164,-1.67599 6.31423,-1.65936 2.96817,0.0495 1.28226,-2.32834 -1.89135,-2.66757 -6.22963,-0.6659 -16.3306,-4.33268 -20.52804,-7.45194 C 213.00802,161.6178 208.61754,160 201.6153,160 c -3.47427,0 -7.6215,0.40145 -9.21608,0.89211 -3.03836,0.93493 -11.78553,2.78054 -16.89922,3.56566 -1.65,0.25333 -6.34457,1.37896 -10.43237,2.50141 C 160.97982,168.08163 157.00064,169 156.225,169 c -0.77564,0 -4.77617,1.19492 -8.89007,2.65539 l -7.4798,2.65538 4.38049,2.09462 c 6.65373,3.1816 10.64145,4.41405 17.76438,5.49031 3.575,0.54017 8.3,1.27654 10.5,1.63638 5.48527,0.89719 23.09644,2.91317 28.09466,3.21604 2.25206,0.13646 10.12706,-1.28012 17.5,-3.14795 z m -83.59785,-21.16813 c 6.05175,-1.77764 12.56342,-3.55928 14.47037,-3.95921 1.90694,-0.39993 4.15694,-1.08117 5,-1.51387 0.84305,-0.43269 5.02246,-1.99691 9.28758,-3.47603 4.26511,-1.47912 7.97078,-3.03884 8.2348,-3.46604 0.26402,-0.4272 -4.50182,-3.5904 -10.59076,-7.02934 -12.64499,-7.14169 -16.90318,-8.08075 -25.65318,-5.65731 -3.16009,0.87523 -10.24562,2.26254 -15.74562,3.08291 -20.2389,3.0188 -32.801548,7.15501 -39.25,12.92293 -4.177223,3.73638 -3.474277,4.13608 16.25,9.2397 16.60005,4.29523 22.96688,4.27114 37.99681,-0.14374 z M 56.092755,111.61176 c -1.33788,-1.61204 -0.48443,-8.69385 1.350069,-11.20268 C 58.740794,98.634 78.086659,96.008163 89.5,96.057922 c 9.487993,0.04136 33.08724,-1.592246 38.2909,-2.650613 3.15122,-0.640922 1.907,-2.142295 -2.83312,-3.418678 C 122.781,89.402485 121,88.490257 121,87.961456 121,87.432655 120.21195,87 119.24878,87 c -0.96317,0 -7.15067,-2.530079 -13.75,-5.622397 C 91.11966,74.639824 86.409591,73.247699 74.181508,72.121355 69.056338,71.649269 64.362386,70.762386 63.750503,70.150503 62.985309,69.385309 62.928643,67.861331 63.568994,65.268994 L 64.5,61.5 71.556477,61.210097 c 3.881062,-0.159447 10.406062,0.120379 14.5,0.621836 7.476005,0.915719 9.859597,0.759014 6.336651,-0.416592 -4.95662,-1.654022 -10.447636,-4.573883 -14.686933,-7.809811 -2.561683,-1.955377 -5.79779,-3.841399 -7.191349,-4.19116 -3.348604,-0.840446 -3.676227,-1.552957 -2.911902,-6.332782 1.038007,-6.491336 2.104468,-7.321941 8.339146,-6.494882 4.755029,0.630777 6.148968,1.418235 12.060644,6.813251 6.593112,6.016896 12.395596,8.925974 23.497266,11.780369 12.90133,3.317113 35.50676,14.299721 47.78328,23.215 15.9595,11.589892 15.2101,11.295786 23.61394,9.267411 3.92678,-0.947779 9.71881,-1.963167 12.87119,-2.256418 7.95087,-0.739634 20.53851,-3.328235 21.67607,-4.457603 C 219.4286,78.978889 205.48284,69.470578 194.79456,65.505848 182.54637,60.96248 181.43312,60.334349 174.85991,54.258155 166.13367,46.191721 163.71488,44.678389 154.5,41.519858 143.77166,37.842566 140.23054,35.937658 133.11486,30.015923 129.79987,27.257165 126.72615,25 126.28435,25 c -0.44179,0 -1.34761,-0.871652 -2.01294,-1.937004 -0.66532,-1.065353 -4.48607,-3.846768 -8.49054,-6.180923 C 107.8162,12.23958 105,10.140119 105,8.8450124 105,8.3802556 108.89796,8 113.66214,8 c 9.78176,0 11.69489,0.813872 25.07819,10.668611 8.10961,5.971479 9.43934,6.217955 19.94762,3.697469 8.16497,-1.958427 7.56954,-1.870509 18.81205,-2.777684 12.67526,-1.022786 12.76902,-1.091204 7.62165,-5.561548 -2.48111,-2.154767 -4.0805,-4.2844126 -3.69099,-4.9146611 0.84536,-1.3678084 101.31273,-1.5606531 103.46377,-0.1985962 1.15673,0.7324568 1.04013,1.4542923 -0.68403,4.2346873 -1.14316,1.843447 -3.57065,4.757187 -5.39443,6.474977 -5.22049,4.917089 -23.90286,19.696817 -28.30682,22.39368 -2.19496,1.344137 -6.70069,4.477701 -10.01272,6.963475 -3.31204,2.485775 -7.59116,5.388764 -9.50916,6.451088 C 226.00443,58.191348 220,63.13641 220,64.480273 c 0,1.873678 5.07358,6.133822 11.84607,9.946814 7.89297,4.443842 13.41899,4.796404 17.68762,1.128477 1.56462,-1.344439 4.44121,-3.256939 6.39241,-4.25 C 260.14065,69.16058 277.72084,57.422022 279.73458,55.40828 280.50913,54.633726 281.46748,54 281.86425,54 282.80573,54 296.2615,41.107612 298.09006,38.45355 299.74082,36.057556 314.9425,23 316.08117,23 317.53564,23 320,26.137742 320,27.989641 c 0,1.015731 0.23827,2.467706 0.52949,3.226611 0.90893,2.368647 -14.38281,20.172117 -21.52949,25.065785 -2.79842,1.916211 -15.24865,10.955118 -21.75,15.790565 -2.3375,1.738542 -4.25,3.505968 -4.25,3.927614 0,1.460298 4.53189,1.613344 11.5,0.388364 3.85,-0.676822 9.71181,-1.266134 13.02623,-1.309583 8.54946,-0.112074 22.30868,-1.958949 24.42074,-3.277951 0.98345,-0.614178 2.45809,-0.859587 3.27697,-0.545352 1.7406,0.667931 3.84793,8.009978 2.79025,9.721352 -0.72628,1.17514 -16.16099,3.242017 -34.01419,4.554872 -5.225,0.384226 -10.85,0.868198 -12.5,1.075491 -14.07903,1.768787 -19.17677,2.210515 -27,2.339598 -4.95,0.08168 -13.95,0.830669 -20,1.664432 -6.05,0.833763 -13.925,1.884004 -17.5,2.33387 -3.575,0.449866 -9.2,1.509195 -12.5,2.354066 -3.3,0.844871 -8.7,1.780421 -12,2.079 -7.65212,0.692353 -17.21621,2.328197 -18.59535,3.180555 -5.31036,3.28198 -33.27235,5.50989 -72.40465,5.76895 l -26,0.17212 -7.666586,3.25 c -8.554632,3.62646 -10.075888,3.86769 -11.740659,1.86176 z M 208,56.152906 c 0,-0.465902 3.59835,-2.783821 7.99633,-5.15093 4.39798,-2.367109 9.68548,-5.747763 11.75,-7.512563 2.06452,-1.764801 6.29529,-4.987484 9.40171,-7.161517 10.40331,-7.280765 21.41829,-16.639119 20.10131,-17.078113 -0.53172,-0.177239 -6.54284,1.015245 -13.35805,2.649964 -18.63159,4.469033 -35.65562,6.929029 -52.8913,7.642869 -8.525,0.353075 -17.28864,1.095006 -19.47476,1.648735 -3.73399,0.945794 -3.85784,1.092275 -2.04464,2.418118 1.06156,0.776236 4.97859,4.280586 8.70451,7.787445 3.72592,3.50686 7.97002,6.676188 9.43132,7.042952 1.4613,0.366764 4.06086,1.737683 5.77679,3.046487 1.71593,1.308804 4.46693,3.082022 6.11333,3.940484 C 202.71193,57.098181 208,57.550235 208,56.152906 z"
         style="fill:#a09e9f" />
      <path
         inkscape:connector-curvature="0"
         id="path3164"
         d="m 24.67589,287.59777 c -0.295948,-0.77123 -0.259926,-1.6804 0.08005,-2.02038 1.03246,-1.03246 1.055039,-5.001 0.03573,-6.28033 -1.060824,-1.33144 -0.878908,-1.59893 6.458331,-9.4965 2.6125,-2.81201 4.75,-5.67795 4.75,-6.36876 0,-0.6908 -1.737032,-1.54947 -3.860071,-1.90816 l -3.860072,-0.65215 1.268868,-3.68575 1.268868,-3.68574 12.341204,0.0863 c 6.78766,0.0475 21.116202,0.4364 31.841202,0.86422 20.113615,0.80232 22.925875,0.59165 54.5,-4.08258 5.5,-0.81422 14.5,-2.10861 20,-2.87642 10.45133,-1.45903 37.23434,-1.77923 53.45413,-0.63906 7.38811,0.51934 22.33667,-0.0466 18.79631,-0.71166 -0.41225,-0.0774 -4.91225,-0.83507 -10,-1.68363 C 206.6627,243.60861 196.425,240.71049 189,238.01689 c -7.425,-2.69359 -16.11354,-5.36385 -19.30787,-5.93391 -3.19432,-0.57006 -6.15795,-1.25284 -6.58583,-1.51728 -0.42789,-0.26445 -5.68935,-1.20351 -11.69214,-2.08681 C 145.41137,227.5956 135.1,225.51115 128.5,223.84679 113.97351,220.18355 110.02735,220.41497 92.521887,225.95674 85.909849,228.04993 78.25,230.46297 75.5,231.31904 c -2.75,0.85607 -7.475,2.53802 -10.5,3.73765 -21.243558,8.42463 -28.950435,10.20313 -32.05173,7.39649 -1.706345,-1.54422 -1.743142,-1.94917 -0.411167,-4.52493 C 33.341696,236.37234 34,234.4323 34,233.61705 c 0,-1.73241 -1.176587,-1.34969 20.5,-6.66811 16.917694,-4.15081 32.5,-9.37245 32.5,-10.89078 0,-1.1007 -6.239609,-2.02767 -14,-2.07987 -9.489836,-0.0638 -18.751149,-1.44415 -26.859344,-4.00314 C 39.632411,207.92111 39,207.48509 39,205.05189 c 0,-1.4683 0.5625,-3.42487 1.25,-4.34795 1.165902,-1.5654 1.788224,-1.54407 9.25,0.31701 4.444681,1.10857 14.831089,2.44322 23.370974,3.00316 13.923381,0.91293 23.247731,2.158 36.129026,4.82429 2.475,0.5123 13.725,3.46406 25,6.55947 11.275,3.09541 23.2,6.09162 26.5,6.65825 3.3,0.56663 8.475,1.4385 11.5,1.9375 3.025,0.49899 10,2.28358 15.5,3.96575 10.71917,3.27844 26.86079,6.85525 43,9.52832 5.5,0.91094 13.15,2.34144 17,3.1789 3.85,0.83746 14.2,1.84 23,2.22787 15.31976,0.67525 16.36138,0.85675 24.5,4.26925 4.675,1.96021 10.75,3.88664 13.5,4.28096 6.25735,0.89722 49.72827,15.3844 50.76052,16.91652 0.41828,0.62085 0.64328,2.47881 0.5,4.12881 -0.33142,3.81642 -0.76819,3.74493 -27.01574,-4.4221 -4.30046,-1.3381 -6.12547,-1.51108 -7.22,-0.68433 C 323.90581,268.61647 317,283.06912 317,285.23446 317,288.00362 314.54287,289 307.71393,289 l -6.88606,0 3.70361,-6.75 c 2.03698,-3.7125 4.84256,-8.44565 6.23462,-10.51811 1.39205,-2.07247 2.27253,-4.0266 1.95661,-4.34252 -1.57331,-1.5733 -12.56769,2.79414 -38.47212,15.28279 l -13.24941,6.3876 -12.75059,-0.27988 C 236.95781,288.532 235.843,288.35687 238.5,287.24813 c 1.65,-0.68853 4.125,-1.92954 5.5,-2.7578 10.38116,-6.2533 24.55595,-11.7846 47.41167,-18.50101 11.23758,-3.3023 13.28918,-4.5639 8.98297,-5.52398 -1.59205,-0.35495 -6.05155,-1.47451 -9.90999,-2.48791 -10.06379,-2.64322 -27.24633,-4.27353 -37.85029,-3.59131 -5.0239,0.32321 -15.65936,0.82974 -23.63436,1.12561 -31.42105,1.16571 -39.28006,3.81529 -55,18.54267 -3.025,2.83401 -8.60807,7.35613 -12.40683,10.04917 L 154.68634,289 l -8.09317,-0.0293 -8.09317,-0.0293 3.13494,-2.72068 c 1.72421,-1.49638 5.48966,-4.74569 8.36765,-7.22069 2.87799,-2.475 7.33248,-6.525 9.89885,-9 2.56638,-2.475 8.1906,-6.75 12.49827,-9.5 7.35771,-4.69713 7.66335,-5.03029 5.04573,-5.5 -4.2349,-0.75992 -25.86832,0.67272 -35.44544,2.34732 -4.675,0.81745 -11.27921,1.78903 -14.67602,2.15907 -5.37253,0.58528 -6.63745,1.14902 -9.72287,4.33321 -1.95077,2.01322 -8.26646,8.4979 -14.03486,14.4104 L 93.078249,289 l -6.492749,0 -6.492748,0 5.842266,-7.75327 c 3.471462,-4.60698 7.468012,-8.667 9.84852,-10.00492 2.203441,-1.2384 4.278792,-2.96186 4.611892,-3.82991 0.54486,-1.41986 -1.577554,-1.51361 -21.144892,-0.93396 -11.962796,0.35437 -23.359453,1.06299 -25.325904,1.57471 -1.966452,0.51171 -6.093956,2.73391 -9.172233,4.93822 -5.612154,4.01877 -7.457566,7.09149 -7.963177,13.25913 -0.217279,2.65046 -0.430858,2.75 -5.900343,2.75 -3.946018,0 -5.838834,-0.4272 -6.212991,-1.40223 z M 341.5,223.33563 C 319.99116,222.02845 298.88668,217.07502 289.55422,211.14346 285.22568,208.39231 283.73828,208 277.63613,208 c -3.83477,0 -9.89499,0.50896 -13.46717,1.13103 -8.00545,1.39409 -17.63302,-0.0843 -26.60044,-4.08473 -9.22663,-4.11606 -38.16336,-9.36031 -50.84326,-9.21441 -2.0761,0.0239 -6.3511,-0.77777 -9.5,-1.78146 -3.14889,-1.00369 -9.84449,-2.11354 -14.87909,-2.46633 -5.29222,-0.37085 -10.55581,-1.34084 -12.47717,-2.29934 -1.82783,-0.91184 -5.8086,-1.86014 -8.84616,-2.10732 -3.87639,-0.31545 -6.36553,-1.15418 -8.34957,-2.81344 -1.55469,-1.3002 -3.61338,-2.364 -4.57484,-2.364 -0.96147,0 -5.08944,-1.15954 -9.17328,-2.57675 -19.811108,-6.87503 -40.588445,-11.80295 -67.140071,-15.92411 -4.423596,-0.6866 -4.693442,-1.03613 -4.052509,-5.24914 0.4718,-3.10126 0.696489,-3.25 4.909446,-3.25 4.956336,0 14.448304,-4.28633 18.047435,-8.14977 L 72.878902,144.5 70.689451,144.34686 C 65.848237,144.00825 55.350573,143.92249 53,144.20235 c -2.342992,0.27896 -2.48014,0.0464 -2.183769,-3.70235 0.173926,-2.2 0.692846,-4.38392 1.153154,-4.85315 0.461914,-0.47088 5.921228,-0.47088 12.183769,0 16.867175,1.26822 31.788891,0.0642 51.346846,-4.1431 15.53191,-3.34122 18.77034,-3.7016 37.5,-4.17308 21.07967,-0.53064 21.12725,-0.53801 40.47836,-6.2653 5.45688,-1.61506 9.81744,-2.07108 20,-2.09158 12.89129,-0.0259 32.69339,-2.31492 47.52164,-5.49315 15.32502,-3.2847 31.58738,-5.09421 54.23529,-6.03475 l 15.73529,-0.65347 1.0362,2.72543 c 0.73338,1.92891 0.71231,3.1157 -0.0721,4.06083 -0.8267,0.99611 -0.70512,1.911 0.47851,3.60087 2.07162,2.95766 2.01201,5.45191 -0.16321,6.8288 -1.27313,0.80588 -1.40451,1.25249 -0.48214,1.63898 2.95306,1.23736 4.32957,3.70276 4.03509,7.22705 -0.22581,2.70248 -0.71891,3.55761 -1.93664,3.35849 -1.96834,-0.32184 -18.65296,-9.65064 -28.36631,-15.86032 l -7,-4.47505 -8.5,0.53811 c -4.675,0.29597 -12.325,1.2663 -17,2.1563 -4.675,0.89 -10.525,1.99738 -13,2.46086 -9.44392,1.76848 -18.13063,3.74452 -18.62226,4.23616 -0.28146,0.28146 1.20591,1.07585 3.30526,1.76532 2.09935,0.68947 10.792,4.69869 19.317,8.90938 36.01619,17.7892 40.92781,20.02658 49.5,22.54871 12.10511,3.5616 23.62,6.46143 25.71482,6.47585 2.20312,0.0152 3.4999,2.4897 3.93711,7.51282 0.33411,3.83857 0.22202,4.01124 -2.79411,4.30431 -4.8465,0.47092 -14.67385,-2.45943 -27.97695,-8.34226 -6.66552,-2.9476 -13.41552,-5.67199 -15,-6.05422 -1.58448,-0.38222 -5.00341,-1.75558 -7.59763,-3.0519 -2.59421,-1.29632 -5.29421,-2.35889 -6,-2.36127 -0.70578,-0.002 -4.88324,-1.87457 -9.28324,-4.16041 -4.4,-2.28584 -10.25,-5.2632 -13,-6.61635 -2.75,-1.35315 -6.37701,-3.48866 -8.06002,-4.74558 -1.68301,-1.25691 -5.28301,-3.38953 -8,-4.73914 -2.71699,-1.34961 -8.72976,-4.35739 -13.36172,-6.68394 l -8.42174,-4.23011 -8.07826,1.19227 c -4.44304,0.65575 -10.77826,1.34593 -14.07826,1.53373 -3.3,0.18781 -8.7,1.08848 -12,2.0015 -3.3,0.91303 -8.025,2.14279 -10.5,2.73281 -2.475,0.59002 -4.69785,1.22864 -4.93967,1.41916 -0.67008,0.52792 4.14013,3.67979 5.89523,3.8628 0.84944,0.0886 4.01944,1.18387 7.04444,2.43397 3.025,1.2501 7.075,2.64218 9,3.09351 1.925,0.45133 4.85,1.1328 6.5,1.51438 1.65,0.38158 3.3375,1.18923 3.75,1.79476 0.53759,0.78916 0.96888,0.76353 1.52283,-0.0905 0.95326,-1.46961 6.78948,1.11367 12.72717,5.63341 8.18267,6.22862 12.37967,8.68849 17.61998,10.32712 2.95901,0.92527 8.30502,2.60183 11.88002,3.72569 3.575,1.12386 12.35,3.83421 19.5,6.02301 7.15,2.18881 15.025,4.84026 17.5,5.89213 2.475,1.05187 8.55,2.86583 13.5,4.03104 9.12801,2.14869 32.27864,8.8933 40.5,11.79911 4.54084,1.60494 6.43764,2.77623 6.57478,4.05994 0.0411,0.385 0.43284,2.85829 0.87047,5.4962 0.43763,2.6379 0.58688,5.00501 0.33166,5.26023 -0.25522,0.25522 -4.00977,-0.26924 -8.34344,-1.16546 -5.55476,-1.14875 -11.0563,-1.49861 -18.6475,-1.18584 -10.0766,0.41518 -12.91805,0.99612 -11.55226,2.36191 1.35273,1.35273 12.87837,3.36966 19.76629,3.459 4.125,0.0535 10.39741,0.64993 13.93869,1.32539 5.86886,1.11942 6.51006,1.49009 7.24519,4.18834 1.07257,3.93682 0.36202,5.4984 -2.4025,5.27998 -1.25476,-0.0991 -4.53138,-0.31699 -7.28138,-0.48412 z M 270.44225,195.8883 C 274.04901,193.62687 277,191.61439 277,191.41613 c 0,-0.19826 -2.74618,-1.723 -6.10262,-3.3883 -7.07675,-3.51114 -10.41638,-3.72449 -18.51711,-1.18292 -3.23415,1.0147 -9.14277,2.67644 -13.13027,3.69276 -10.61299,2.70501 -10.29057,3.03768 5.75,5.93268 4.675,0.84374 9.85,1.9444 11.5,2.44591 5.26833,1.60128 7.24308,1.17241 13.94225,-3.02796 z m 33.95722,2.61118 c 9.33369,-0.63379 12.79088,-1.38246 12.0346,-2.60615 C 316.13041,195.402 310.22414,195 303.30902,195 c -10.99181,0 -12.99651,0.26177 -15.94099,2.08156 -1.85241,1.14486 -3.36803,2.27378 -3.36803,2.50873 0,0.23494 2.8125,0.20631 6.25,-0.0636 3.4375,-0.26994 9.80476,-0.73217 14.14947,-1.02719 z M 207.6849,187.91359 c 1.54831,-0.59752 7.8273,-2.36771 13.95332,-3.93376 C 238.02446,179.79088 250,175.99954 250,175.00076 c 0,-0.48302 -2.1375,-1.15512 -4.75,-1.49356 -11.93245,-1.5458 -18.73391,-3.75225 -24.25,-7.86691 -12.63326,-9.42361 -17.10295,-9.3514 -59.56528,0.96232 -15.45393,3.75362 -24.93472,6.81042 -24.93472,8.03946 0,0.43742 2.24415,1.62855 4.98699,2.64695 6.18927,2.29802 6.13236,2.23449 3.95347,4.41336 -1.73019,1.73017 -1.72893,1.81086 0.0337,2.15036 1.00724,0.19401 2.23496,-0.36849 2.72828,-1.25 1.23467,-2.20622 4.4689,-2.00945 6.52959,0.39726 1.62636,1.89945 4.94889,2.91077 3.8798,1.18094 -0.55586,-0.8994 0.83018,-0.80645 13.38817,0.89778 4.675,0.63444 10.525,1.32376 13,1.53182 2.475,0.20807 7.425,0.77375 11,1.25708 3.575,0.48332 7.03321,0.93583 7.6849,1.00558 0.6517,0.0697 2.4517,-0.36208 4,-0.95961 z M 137.5,163.11524 c 5.5,-1.70084 10.96997,-3.09757 12.1555,-3.10384 1.18552,-0.006 3.88552,-0.91023 6,-2.0088 2.11447,-1.09857 7.6695,-2.81532 12.3445,-3.81499 5.58368,-1.19398 8.5,-2.28188 8.5,-3.17081 0,-0.74427 -2.25,-2.52273 -5,-3.95213 -2.75,-1.4294 -8.89427,-4.72871 -13.65393,-7.33179 -9.31794,-5.09603 -13.33382,-5.73999 -22.84607,-3.6634 -2.475,0.54031 -9.675,1.83839 -16,2.88462 -11.79084,1.95036 -29.980933,6.46079 -33.438048,8.29135 -3.04313,1.61134 -11.581492,9.91392 -11.06121,10.75575 0.257595,0.4168 3.962808,1.54275 8.233806,2.50212 4.270999,0.95936 11.590452,2.80876 16.265452,4.10977 11.89252,3.30957 24.54617,2.81728 38.5,-1.49785 z M 323,116 c 1.95945,-0.62752 1.35208,-0.82219 -2.80902,-0.90032 -3.30739,-0.0621 -5.076,0.27734 -4.69098,0.90032 0.71319,1.15397 3.89673,1.15397 7.5,0 z M 56.495202,107.75 c 1.14167,-5.67247 1.541559,-6.55003 3.292865,-7.22629 C 62.825616,99.35079 77.104791,98.043264 93,97.48254 c 24.59814,-0.867732 47.01863,-2.948406 46.98532,-4.360348 -0.018,-0.76203 -9.47701,-4.400954 -17.11973,-6.586017 -3.09892,-0.885987 -10.74892,-3.87949 -17,-6.652231 C 89.344054,72.555617 87.571702,72.020903 76.004781,70.875017 70.227151,70.302652 65.174215,69.523338 64.776033,69.143209 64.377851,68.76308 64.418254,67.112851 64.865817,65.476033 L 65.679568,62.5 76.089784,62.758107 c 11.582102,0.287163 18.749888,1.976195 26.837796,6.324118 4.0304,2.16667 6.78251,2.917775 10.69098,2.917775 2.89488,0 5.54152,-0.45 5.88144,-1 0.33992,-0.55 0.47383,-1 0.29758,-1 -0.17625,0 -4.87806,-1.97832 -10.44847,-4.396266 C 103.77869,63.185788 97.708839,60.881805 95.860541,60.483771 90.578863,59.346355 80.838718,54.502072 77,51.103439 75.075,49.399128 72.436405,48.003637 71.136456,48.002346 68.885997,48.000112 68.806204,47.772734 69.468723,43.25 c 0.382696,-2.6125 0.99629,-5.055717 1.363544,-5.429371 0.367253,-0.373654 3.128683,-0.03605 6.136511,0.75022 4.151676,1.085289 6.680498,2.606144 10.5,6.314789 C 90.23595,47.572497 93.4,50.214925 94.5,50.757701 c 2.357831,1.16343 14.53038,5.262801 22.91405,7.716807 3.25273,0.952114 9.77773,3.644905 14.5,5.98398 4.72227,2.339075 11.06095,5.441929 14.08595,6.895231 3.025,1.453301 10.62345,6.468247 16.88545,11.144324 11.27414,8.418835 13.53641,9.416919 17.06464,7.528669 1.00023,-0.535308 6.48315,-1.685444 12.18426,-2.555857 24.83048,-3.790979 32.38153,-5.447165 30.83669,-6.763464 -5.44066,-4.635771 -22.17657,-14.40671 -29.6085,-17.286347 -9.70355,-3.759819 -11.96138,-5.216939 -20.93591,-13.51131 C 166.6199,44.543089 162.3867,42.22154 152.5,38.98167 c -7.88768,-2.584792 -11.95988,-4.925565 -19.07882,-10.966859 -2.70665,-2.296924 -6.18659,-5.248791 -7.73319,-6.559705 -1.54661,-1.310914 -6.1057,-4.201634 -10.13132,-6.423823 C 104.71562,9.0468911 104.23892,8 112.35502,8 c 7.64928,0 13.7552,2.787409 24.40881,11.142863 8.99042,7.051034 9.59278,7.233733 17.75403,5.384915 8.62355,-1.953546 27.34846,-4.448064 33.73214,-4.493769 2.6125,-0.01871 4.75,-0.475283 4.75,-1.014617 0,-0.539335 -2.25,-2.66039 -5,-4.713455 -2.75,-2.053066 -5,-4.086792 -5,-4.519392 0,-1.3546936 11.96434,-0.8566559 14.79966,0.616063 1.48519,0.771435 4.47542,2.816862 6.64497,4.545395 3.51785,2.802767 4.5774,3.119952 9.79337,2.931727 3.2168,-0.116083 6.08078,-0.586511 6.36439,-1.045395 C 220.88599,16.375451 222.2081,16 223.5404,16 c 1.33229,0 9.12686,-1.575 17.32126,-3.5 13.32937,-3.1312902 16.38636,-3.5 29.01862,-3.5 15.7747,0 16.07867,0.1677689 11.1461,6.151825 -3.60232,4.370241 -24.21973,21.049041 -32.52638,26.312756 -3.3,2.091129 -8.025,5.45051 -10.5,7.465292 -2.475,2.014783 -7.10396,5.209843 -10.28657,7.100134 -3.18261,1.890291 -6.96639,4.668361 -8.40839,6.173489 l -2.62183,2.736597 3.61418,3.310458 c 1.9878,1.820752 7.00919,5.209231 11.15865,7.529954 9.5777,5.356645 12.8836,5.473669 19.16569,0.678436 2.55148,-1.947582 6.04287,-4.127876 7.75866,-4.845096 1.71578,-0.71722 3.73721,-2.048744 4.49205,-2.958941 C 263.62729,67.744707 264.90919,67 265.7211,67 c 2.758,0 22.73409,-16.237096 33.7789,-27.456385 6.05,-6.145573 12.4621,-12.18734 14.2491,-13.426149 l 3.24911,-2.252378 1.00089,2.632555 c 0.5505,1.447906 0.99742,3.615761 0.99317,4.817457 -0.01,2.733956 -14.96085,19.687477 -21.19975,24.038934 -4.51135,3.146543 -11.8108,8.361124 -25.66783,18.336593 -4.05642,2.920155 -6.98142,5.361133 -6.5,5.424396 2.66746,0.350528 14.44319,-0.393725 17.87531,-1.12976 2.2,-0.4718 11.19606,-1.35587 19.99124,-1.964599 11.2163,-0.776299 16.69763,-1.569619 18.3569,-2.65682 2.82215,-1.849142 3.77304,-1.079162 4.66494,3.77742 l 0.6687,3.641264 -6.34089,0.687646 C 317.3534,81.84838 313.375,82.315512 312,82.508245 c -1.375,0.192733 -6.55,0.638592 -11.5,0.990797 -4.95,0.352205 -14.175,1.272772 -20.5,2.045705 -6.325,0.772932 -17.575,1.668423 -25,1.989978 -7.425,0.321556 -18,1.208903 -23.5,1.971881 -5.5,0.762979 -12.475,1.666244 -15.5,2.007257 -3.025,0.341012 -7.75,1.2358 -10.5,1.988417 -2.75,0.752618 -9.14273,1.822551 -14.20607,2.377629 -5.06334,0.555079 -12.26334,1.898887 -16,2.98624 -15.89988,4.626801 -17.3115,4.746911 -66.29393,5.640831 l -32.5,0.59311 -7.71774,2.94996 C 64.537503,109.67252 59.889248,111 58.452804,111 c -2.41406,0 -2.562211,-0.24596 -1.957602,-3.25 z M 139.5,80 c -0.33992,-0.55 -1.51803,-1 -2.61803,-1 -1.1,0 -1.72189,0.45 -1.38197,1 0.33992,0.55 1.51803,1 2.61803,1 1.1,0 1.72189,-0.45 1.38197,-1 z m 69.57179,-23.586496 c 0.72417,-0.872574 4.77971,-3.327681 9.01232,-5.455796 4.23261,-2.128114 9.20771,-5.281108 11.05577,-7.006654 1.84807,-1.725545 5.06406,-4.236459 7.14665,-5.579808 2.08259,-1.34335 5.45759,-3.919737 7.5,-5.725306 2.04241,-1.805568 5.79079,-4.747612 8.32974,-6.537876 C 256.54915,22.982349 261.9066,17 260.27293,17 c -0.43282,0 -7.08379,1.616668 -14.77994,3.592595 C 237.79685,22.568522 228.575,24.612262 225,25.13424 c -20.46504,2.988057 -28.61177,3.808398 -38.5,3.876785 -11.51156,0.07962 -18.98021,1.069182 -20.64662,2.735598 -0.64768,0.647673 0.57171,1.898491 3.55539,3.647045 2.49763,1.46371 5.95417,4.4196 7.68118,6.568644 1.9059,2.371627 5.94434,5.346882 10.27504,7.569955 3.92426,2.014431 7.87416,4.319743 8.77756,5.122915 3.57091,3.174721 10.92383,4.174688 12.92924,1.758322 z"
         style="fill:#201c1c" />
    </g>
  </g>
</svg>
