<?xml version="1.0" encoding="UTF-8" standalone="no"?>
<!-- Created with Inkscape (http://www.inkscape.org/) -->

<svg
   xmlns:dc="http://purl.org/dc/elements/1.1/"
   xmlns:cc="http://creativecommons.org/ns#"
   xmlns:rdf="http://www.w3.org/1999/02/22-rdf-syntax-ns#"
   xmlns:svg="http://www.w3.org/2000/svg"
   xmlns="http://www.w3.org/2000/svg"
   xmlns:sodipodi="http://sodipodi.sourceforge.net/DTD/sodipodi-0.dtd"
   xmlns:inkscape="http://www.inkscape.org/namespaces/inkscape"
   id="svg2985"
   version="1.1"
   inkscape:version="0.48.2 r9819"
   width="1920"
   height="1920"
   sodipodi:docname="Jay Torso (Front).svg">
  <metadata
     id="metadata2991">
    <rdf:RDF>
      <cc:Work
         rdf:about="">
        <dc:format>image/svg+xml</dc:format>
        <dc:type
           rdf:resource="http://purl.org/dc/dcmitype/StillImage" />
        <dc:title />
      </cc:Work>
    </rdf:RDF>
  </metadata>
  <defs
     id="defs2989" />
  <sodipodi:namedview
     pagecolor="#ffffff"
     bordercolor="#666666"
     borderopacity="1"
     objecttolerance="10"
     gridtolerance="10"
     guidetolerance="10"
     inkscape:pageopacity="0"
     inkscape:pageshadow="2"
     inkscape:window-width="1600"
     inkscape:window-height="850"
     id="namedview2987"
     showgrid="false"
     inkscape:zoom="0.23673349"
     inkscape:cx="1217.8711"
     inkscape:cy="1202.3322"
     inkscape:window-x="-8"
     inkscape:window-y="-8"
     inkscape:window-maximized="1"
     inkscape:current-layer="svg2985" />
  <g
     id="g3063"
     transform="matrix(3.1164256,0,0,3.1164256,-240.48886,-491.60747)">
    <path
       style="fill:#6d8aae"
       d="m 117,749 c 0,-0.55 0.45,-1 1,-1 0.55,0 1,-1.71 1,-3.8 0,-2.09 0.50099,-4.30099 1.1133,-4.9133 0.61232,-0.61232 0.93793,-2.95232 0.72358,-5.2 -0.21435,-2.24769 -0.0516,-4.0867 0.3617,-4.0867 1.29236,0 4.80142,-8.73987 4.80142,-11.9587 0,-1.68764 0.37386,-3.84983 0.8308,-4.80487 0.45694,-0.95504 1.58194,-3.2354 2.5,-5.06747 0.91806,-1.83207 1.67088,-4.08207 1.67294,-5 0.002,-0.91793 0.90205,-3.14234 2,-4.94313 1.09794,-1.80079 1.99626,-3.74162 1.99626,-4.31295 0,-0.57133 1.18529,-3.59795 2.63397,-6.72583 1.44869,-3.12788 3.19541,-7.03705 3.88161,-8.68705 0.6862,-1.65 2.22151,-5.19194 3.41181,-7.87098 1.93127,-4.34678 2.044,-5.44987 1.04749,-10.25 C 145.08051,656.07084 144.46584,655 142.88729,655 c -1.084,0 -2.91796,-0.8823 -4.07545,-1.96067 -1.1575,-1.07837 -4.17618,-2.22513 -6.70819,-2.54834 -7.08558,-0.9045 -25.26343,-5.57183 -29.13647,-7.48107 -0.84306,-0.41558 -2.93085,-1.06267 -4.639553,-1.43796 -1.708699,-0.37529 -4.572856,-2.29352 -6.364792,-4.26273 -3.095736,-3.40198 -3.247723,-3.93461 -3.050461,-10.69031 0.114183,-3.91047 0.80538,-9.13696 1.535993,-11.61443 1.209736,-4.10215 2.461587,-10.77843 4.594767,-24.50449 0.42738,-2.75 1.209052,-6.8 1.737048,-9 0.527997,-2.2 1.515992,-7.375 2.195545,-11.5 0.679554,-4.125 1.828053,-9.10923 2.552223,-11.07607 0.72417,-1.96684 1.64339,-6.89176 2.04271,-10.94428 0.39933,-4.05252 1.53435,-8.74329 2.52228,-10.42393 1.34521,-2.28845 1.93463,-6.06186 2.34745,-15.02799 0.30317,-6.58476 1.02694,-13.41371 1.60837,-15.17547 0.58143,-1.76175 1.46357,-6.27423 1.9603,-10.02772 1.47573,-11.15105 2.9015,-19.18538 4.37712,-24.66544 0.76406,-2.83751 1.4178,-6.0591 1.45276,-7.1591 0.035,-1.1 0.53552,-4.25 1.11237,-7 1.30857,-6.23831 2.6467,-13.23271 4.0176,-21 0.58244,-3.3 1.47717,-6.9 1.98828,-8 0.92881,-1.99896 1.6495,-6.36835 2.68027,-16.25 0.3012,-2.8875 0.99555,-5.25 1.54299,-5.25 0.5951,0 0.74294,-1.50792 0.36763,-3.75 -0.40582,-2.42444 0.30296,-8.16853 2.00515,-16.25 1.44807,-6.875 3.21881,-16.775 3.93498,-22 0.71617,-5.225 1.81536,-10.80902 2.44264,-12.40894 0.62727,-1.59991 1.5565,-5.42491 2.06494,-8.5 0.50843,-3.07508 1.39803,-7.84106 1.97688,-10.59106 0.96491,-4.58413 2.94319,-15.20948 4.93389,-26.5 0.43638,-2.475 1.5253,-7.65 2.41983,-11.5 1.3912,-5.98766 7.48404,-48.11546 7.59295,-52.5 0.0935,-3.76263 3.4176,-18 4.20265,-18 0.4829,0 0.87801,-1.01267 0.87801,-2.25037 0,-6.10214 3.1331,-16.35734 6.97109,-22.81763 2.26502,-3.8126 4.54813,-6.932 5.07357,-6.932 0.52544,0 0.95534,-0.64234 0.95534,-1.42742 0,-1.7667 4.69422,-5.57038 6.88486,-5.57874 0.88833,-0.003 2.96514,-0.78193 4.61514,-1.73009 2.80739,-1.61324 15.94769,-1.74509 204.67139,-2.05355 141.14801,-0.2307 202.86457,-0.008 205.64718,0.74095 2.18668,0.58881 4.17961,1.62818 4.42873,2.30971 1.04793,2.86692 -3.30905,27.73914 -4.8592,27.73914 -0.63856,0 -1.46593,2.1375 -1.83861,4.75 -0.67489,4.73096 -2.57792,11.29872 -3.54949,12.25 -0.80447,0.78767 -3,7.48161 -3,9.14668 0,0.82758 -1.125,2.56157 -2.5,3.85332 -1.375,1.29175 -2.5,3.17019 -2.5,4.17431 0,1.00413 -0.45,1.82569 -1,1.82569 -0.55,0 -1,1.125 -1,2.5 0,1.375 -0.3375,2.50285 -0.75,2.50632 -0.96925,0.008 -4.25,5.76089 -4.25,7.45227 0,0.71309 -0.675,1.85672 -1.5,2.54141 -0.825,0.68469 -1.5,2.53979 -1.5,4.12244 0,1.58266 -0.45,2.87756 -1,2.87756 -0.55,0 -1,1.35 -1,3 0,2.09619 -0.48704,3 -1.61663,3 -1.15739,0 -1.45834,0.60531 -1.05941,2.13083 0.32334,1.23644 -0.08,2.76811 -0.96101,3.64908 -0.83504,0.83503 -1.29323,2.37868 -1.01822,3.43034 0.29017,1.10962 -0.0969,2.14116 -0.92235,2.45791 -0.78231,0.3002 -1.42238,1.29087 -1.42238,2.20148 0,0.91061 -1.09876,2.4808 -2.44169,3.4893 -1.34293,1.0085 -2.72869,3.1403 -3.07946,4.73735 C 558.12808,301.69333 557.42684,303 556.92054,303 556.41425,303 556,303.68912 556,304.53138 c 0,0.84227 -0.675,1.79041 -1.5,2.10699 -0.825,0.31659 -1.5,1.44159 -1.5,2.5 0,1.05842 -0.675,2.18342 -1.5,2.5 -0.825,0.31659 -1.5,1.42746 -1.5,2.46862 0,1.22634 -0.70435,1.89301 -2,1.89301 -1.46667,0 -2,0.66667 -2,2.5 0,1.375 -0.9,3.4 -2,4.5 -1.1,1.1 -2,2.21986 -2,2.48857 0,0.26871 -0.7875,1.40176 -1.75,2.51788 -0.9625,1.11612 -1.975,3.21064 -2.25,4.65449 -0.275,1.44385 -1.381,3.1233 -2.45777,3.73212 -3.39911,1.92189 -4.75537,3.60913 -4.15622,5.17049 0.32035,0.8348 -0.0626,1.75885 -0.85488,2.06288 -1.85372,0.71134 -3.17924,9.12546 -1.67461,10.63009 1.45912,1.45912 19.10498,1.36963 21.87142,-0.11092 1.57146,-0.84102 2.20748,-0.83934 2.48946,0.007 0.28003,0.8401 1.27833,0.84925 3.83067,0.0351 1.89856,-0.6056 6.2745,-1.40476 9.72431,-1.7759 3.4498,-0.37114 6.51386,-1.06553 6.80901,-1.5431 0.29516,-0.47756 2.11301,-0.8683 4.03968,-0.8683 3.05265,0 12.34873,-1.72749 27.14328,-5.04404 2.34539,-0.52578 5.53289,-0.95596 7.08333,-0.95596 1.55044,0 3.14202,-0.32303 3.53683,-0.71784 0.68505,-0.68505 11.86389,-3.38324 21.75317,-5.25047 2.55072,-0.48161 6.37572,-1.35825 8.5,-1.9481 2.12428,-0.58984 5.43732,-1.0737 7.36232,-1.07524 1.925,-0.002 5.42543,-1.01654 7.77874,-2.25557 5.03527,-2.6511 5.35083,-2.38226 7.13418,6.07802 1.52093,7.21528 9.31828,40.47802 13.71374,58.50143 3.74675,15.36337 4.00601,17.66777 1.98777,17.66777 -0.76207,0 -19.77395,2.2409 -42.24863,4.97977 -44.7261,5.45054 -41.49854,4.56375 -45.56845,12.52023 -1.12534,2.2 -3.95572,6.25225 -6.28972,9.00499 -10.60093,12.50284 -24.42772,10.53813 -41.23531,-5.8593 l -7.22769,-7.0513 -9.59965,-0.41986 c -6.51006,-0.28473 -9.97707,-0.0433 -10.77232,0.75021 -0.69514,0.6936 -1.39546,6.01577 -1.7198,13.06977 -0.44519,9.68235 -0.89333,12.28223 -2.40499,13.9526 C 515.52605,457.0762 514.13291,458 513.452,458 c -0.68091,0 -1.47864,0.62704 -1.77273,1.39342 -0.3291,0.85762 -2.86964,1.66443 -6.60699,2.09819 -3.33975,0.38762 -6.07228,1.08229 -6.07228,1.54371 0,0.46141 -1.575,0.58335 -3.5,0.27097 -2.25429,-0.36582 -3.5,-0.16945 -3.5,0.55173 0,0.81199 -6.25219,0.94599 -22.75,0.4876 -26.13957,-0.72628 -25.93906,-0.72409 -33.25,-0.36286 -7.13459,0.35251 -17.09078,2.94892 -19,4.95489 -0.825,0.8668 -2.7375,2.21147 -4.25,2.98816 -1.82545,0.93738 -2.75,2.20639 -2.75,3.77455 0,1.33781 -0.759,2.64184 -1.75,3.00669 -0.9625,0.35436 -3.1,2.04149 -4.75,3.74918 -1.65,1.70769 -4.65546,4.12054 -6.67879,5.36188 -2.25647,1.38437 -3.91815,3.3057 -4.29787,4.96944 -0.64501,2.82604 -4.78091,8.21245 -6.30585,8.21245 -0.99248,0 -6.54974,7.5747 -7.52003,10.25 -0.34908,0.9625 -1.09881,1.75 -1.66608,1.75 -0.56726,0 -1.03138,0.675 -1.03138,1.5 0,0.825 -0.675,1.5 -1.5,1.5 -0.99742,0 -1.5,0.99744 -1.5,2.97695 0,2.14112 -0.76549,3.47476 -2.72642,4.75 C 366.67067,526.07 361,532.10807 361,533.60135 c 0,0.65157 -0.675,1.44369 -1.5,1.76028 -0.825,0.31658 -1.5,1.27586 -1.5,2.13174 0,0.85587 -1.125,1.98386 -2.5,2.50663 -1.375,0.52277 -2.5,1.41164 -2.5,1.97525 0,0.56361 -0.92089,2.03725 -2.04642,3.27475 -4.25665,4.68012 -4.68346,5.31938 -5.32198,7.97114 -0.36037,1.49662 -1.5499,3.19995 -2.64341,3.78518 -1.0935,0.58523 -1.98819,1.69289 -1.98819,2.46148 0,0.76858 -0.9,1.68307 -2,2.0322 -1.1,0.34913 -2.01422,1.16695 -2.0316,1.81739 -0.0431,1.6119 -3.76418,5.69864 -7.80171,8.5683 -2.31729,1.64701 -3.18405,2.93992 -2.84362,4.24173 0.29689,1.13532 -0.0327,1.87258 -0.83723,1.87258 -0.72981,0 -1.60614,1.27125 -1.9474,2.82499 -0.4546,2.06977 -1.1963,2.80495 -2.7744,2.75 -1.68483,-0.0587 -2.35089,0.74171 -3.05832,3.67501 -0.49742,2.0625 -1.3097,3.75 -1.80506,3.75 -0.49536,0 -0.90066,0.9 -0.90066,2 0,1.11111 -0.66667,2 -1.5,2 -0.825,0 -1.5,0.62325 -1.5,1.38499 0,0.76174 -1.0125,2.06163 -2.25,2.88864 -1.2375,0.82701 -3.11938,3.69126 -4.18196,6.36501 -2.58202,6.49709 -5.52128,10.36136 -7.8811,10.36136 -1.5918,0 -1.83634,0.50299 -1.37238,2.8228 0.41654,2.08269 0.056,3.18934 -1.375,4.22076 -1.06676,0.76888 -1.93956,2.1089 -1.93956,2.97783 0,2.52722 -2.38589,6.96229 -3.75,6.97081 -0.6875,0.004 -1.25,1.1328 -1.25,2.5078 0,2.02972 -0.49222,2.5 -2.61663,2.5 -2.13004,0 -2.51873,0.37439 -2.09016,2.01324 0.35678,1.36431 -0.43625,2.97595 -2.46029,5 -1.64272,1.64272 -3.35745,2.98676 -3.8105,2.98676 -0.45306,0 -1.21772,1.6875 -1.69924,3.75 -0.55546,2.37916 -1.68844,4.11085 -3.09934,4.73713 -1.22311,0.54292 -2.22384,1.75386 -2.22384,2.69098 0,0.93712 -0.45,1.98197 -1,2.32189 -0.55,0.33992 -1,1.90398 -1,3.47568 0,1.57171 -0.3375,3.00765 -0.75,3.19099 -0.4125,0.18333 -1.425,1.306 -2.25,2.49481 -0.825,1.18881 -3.44457,4.94321 -5.82127,8.34309 -2.37669,3.39989 -4.10909,6.73452 -3.84977,7.41029 0.25931,0.67577 -0.35648,1.74575 -1.36844,2.37772 -1.01196,0.63198 -2.64609,3.70652 -3.63141,6.83231 -1.1319,3.59079 -2.44274,5.85357 -3.5603,6.14582 -0.97285,0.2544 -1.7835,1.19757 -1.80146,2.09592 -0.058,2.89965 -3.43959,11.58345 -5.80373,14.90359 -1.28085,1.79878 -2.05759,4.00366 -1.75405,4.97909 0.64998,2.08878 -0.27045,3.66077 -2.65957,4.54225 -1.06627,0.3934 -1.77508,1.73237 -1.8142,3.42706 -0.11398,4.93771 -2.53451,14.64762 -3.75265,15.05366 C 228.53242,746.98919 228,747.80417 228,748.58333 228,749.78854 219.71569,750 172.5,750 136.16667,750 117,749.65465 117,749 z m 138.56998,-0.67823 c -0.83656,-2.18005 2.36562,-12.35983 4.09693,-13.02419 0.73334,-0.28141 1.33309,-1.97737 1.33309,-3.76971 0,-1.79198 0.9,-4.40232 2,-5.80074 1.1,-1.39842 2,-3.23255 2,-4.07584 0,-0.84329 0.45,-1.81137 1,-2.15129 0.55,-0.33992 1,-1.5056 1,-2.5904 0,-1.0848 0.675,-2.23139 1.5,-2.54797 0.825,-0.31659 1.5,-1.70369 1.5,-3.08246 0,-2.46187 3.77779,-10.45819 5.25,-11.1125 0.4125,-0.18334 0.75,-0.865 0.75,-1.51481 0,-1.51899 3.76754,-8.56226 5.51459,-10.3093 1.10564,-1.10564 3.13959,-5.89218 5.98839,-14.09256 0.23884,-0.6875 0.89837,-1.25 1.46564,-1.25 0.56726,0 1.03138,-0.60526 1.03138,-1.34501 0,-0.73976 0.9,-2.1595 2,-3.15499 1.1,-0.99549 2,-2.60809 2,-3.58356 0,-0.97547 0.675,-2.44858 1.5,-3.27358 0.825,-0.825 1.5,-1.9124 1.5,-2.41644 0,-0.50405 0.9,-1.73093 2,-2.72642 1.1,-0.99549 2,-2.7651 2,-3.93248 0,-2.04419 2.0116,-5.62773 4.70908,-8.38895 0.71,-0.72678 1.29092,-1.96428 1.29092,-2.75 0,-0.78571 0.34377,-1.42857 0.76393,-1.42857 0.42016,0 1.8764,-1.8 3.23607,-4 1.35967,-2.2 2.76342,-4 3.11944,-4 0.35601,0 0.93197,-0.7875 1.27991,-1.75 0.9503,-2.62882 3.09259,-6.08049 5.47317,-8.8184 1.17011,-1.34575 2.12748,-3.36384 2.12748,-4.48466 0,-1.12082 1.05237,-3.09022 2.3386,-4.37645 1.28623,-1.28623 3.28293,-4.15035 4.43713,-6.36472 C 332.6165,600.75563 338.97598,592 340.09381,592 340.59221,592 341,591.56552 341,591.03448 c 0,-0.53104 1.2375,-2.27754 2.75,-3.88113 4.3249,-4.58534 10.71069,-12.35414 11.14463,-13.55828 0.21704,-0.60229 1.67954,-2.26021 3.25,-3.68427 C 359.71508,568.48674 361,566.79924 361,566.1608 361,565.52236 361.36513,565 361.81141,565 363.26429,565 382,545.40529 382,543.8858 c 0,-0.45894 1.4625,-1.57948 3.25,-2.49008 1.7875,-0.91061 3.925,-2.26979 4.75,-3.02042 0.825,-0.75063 2.9219,-2.49798 4.65977,-3.88301 2.86059,-2.27979 3.11074,-2.33074 2.64194,-0.53802 -0.28481,1.08912 -1.14421,2.50005 -1.90977,3.13542 -0.76557,0.63536 -1.39194,1.66406 -1.39194,2.286 0,0.62194 -1.28992,2.34828 -2.86648,3.8363 -1.57657,1.48803 -3.5725,4.19332 -4.43541,6.01176 -0.8629,1.81844 -2.73013,4.39715 -4.14938,5.73047 -1.41926,1.33333 -3.75232,4.47658 -5.18457,6.985 -1.43225,2.50843 -3.68604,5.68578 -5.00842,7.06078 -3.15913,3.28485 -6.98887,8.75595 -8.767,12.52441 -0.78489,1.66342 -3.03844,4.73296 -5.0079,6.8212 -1.96946,2.08824 -3.58084,4.35801 -3.58084,5.04394 0,0.68593 -1.57465,3.01639 -3.49922,5.1788 -1.92457,2.16241 -3.49957,4.67101 -3.5,5.57466 -4.3e-4,0.90366 -0.67578,1.90203 -1.50078,2.21862 -0.825,0.31658 -1.5,1.45758 -1.5,2.53556 0,1.07797 -0.675,2.63495 -1.5,3.45995 -0.825,0.825 -1.5,1.79812 -1.5,2.16248 0,0.36437 -1.8,3.22856 -4,6.36488 -2.2,3.13631 -4,6.17559 -4,6.75396 0,0.57836 -0.94939,1.90881 -2.10976,2.95655 -1.16038,1.04775 -3.00993,3.81749 -4.11013,6.15499 -1.1002,2.3375 -2.40081,4.25 -2.89024,4.25 -0.48943,0 -0.88987,0.8449 -0.88987,1.87756 0,1.03265 -0.60101,2.37634 -1.33557,2.98598 -0.73457,0.60963 -2.38032,3.13973 -3.65722,5.62244 C 317.7303,653.96869 316.30631,656 315.84278,656 315.37925,656 315,656.87448 315,657.9433 c 0,1.06881 -0.83544,2.53131 -1.85654,3.25 -1.0211,0.71868 -2.17642,2.3192 -2.56739,3.5567 -0.39096,1.2375 -1.13052,2.25 -1.64346,2.25 C 308.41968,667 308,667.59048 308,668.31217 308,670.39235 304.05528,678 302.97666,678 302.4395,678 302,678.66371 302,679.47492 c 0,0.8112 -1.575,4.39193 -3.5,7.95717 -1.925,3.56525 -3.5,7.40154 -3.5,8.52509 0,1.12355 -0.45,2.04282 -1,2.04282 -0.55,0 -1,1.16713 -1,2.59362 0,1.7272 -0.64904,2.76335 -1.94288,3.10169 -1.12975,0.29544 -2.2093,1.72107 -2.57946,3.40638 C 288.12755,708.69576 287.49908,710 287.08106,710 285.79045,710 284,714.91839 284,718.46372 c 0,1.85329 -0.44523,3.51961 -0.98939,3.70295 C 282.46644,722.35 280.85254,727 279.42416,732.5 c -1.42838,5.5 -2.9461,10.45 -3.37272,11 -0.42661,0.55 -1.07129,2.2375 -1.4326,3.75 -0.65552,2.74405 -0.67615,2.75 -9.5309,2.75 -7.38434,0 -8.98207,-0.28172 -9.51796,-1.67823 z m 36.89841,-3.02553 c 0.39014,-2.63793 1.23185,-5.47124 1.87048,-6.29624 0.63862,-0.825 1.76595,-2.57415 2.50517,-3.88701 0.73921,-1.31285 2.20171,-3.91404 3.25,-5.78041 C 301.14232,727.4662 302,725.05285 302,723.96958 302,722.88631 302.37308,722 302.82906,722 c 0.45599,0 1.88291,-2.25 3.17094,-5 1.28803,-2.75 2.68463,-5 3.10355,-5 0.41892,0 1.05717,-1.0125 1.41834,-2.25 1.20292,-4.12174 2.95712,-7.75 3.74697,-7.75 0.42935,0 1.20837,-1.125 1.73114,-2.5 0.52277,-1.375 1.36285,-2.5 1.86684,-2.5 0.50399,0 1.20864,-1.16461 1.56589,-2.58801 0.35726,-1.42341 1.76101,-3.78591 3.11945,-5.25 1.35844,-1.4641 2.72025,-3.44949 3.02624,-4.41199 0.306,-0.9625 0.97603,-1.75 1.48897,-1.75 0.51293,0 0.93261,-0.675 0.93261,-1.5 0,-0.825 0.45,-1.5 1,-1.5 0.55,0 1,-0.68912 1,-1.53138 0,-0.84227 0.675,-1.79041 1.5,-2.10699 0.825,-0.31659 1.5,-1.20345 1.5,-1.97081 0,-0.76736 1.50982,-2.85671 3.35515,-4.64301 1.84533,-1.78629 3.98018,-4.71031 4.74411,-6.49781 0.76393,-1.7875 1.7507,-3.25 2.19282,-3.25 1.10593,0 5.09417,-4.6425 8.37595,-9.75 1.50194,-2.3375 3.28574,-4.25 3.964,-4.25 0.67826,0 1.48516,-0.79388 1.79312,-1.76418 0.68156,-2.14741 9.59304,-11.06541 19.96458,-19.97921 1.43565,-1.23386 2.61027,-2.92136 2.61027,-3.75 0,-0.82863 0.40241,-1.50661 0.89424,-1.50661 0.49184,0 2.2799,-1.29439 3.97348,-2.87643 1.69358,-1.58204 3.97692,-3.11119 5.07409,-3.3981 1.96895,-0.51489 1.96761,-0.46778 -0.10358,3.62643 -1.15415,2.28145 -2.7149,4.50796 -3.46834,4.94779 -0.75344,0.43983 -1.36989,1.37438 -1.36989,2.07678 0,0.70239 -2.025,3.48272 -4.5,6.17851 -2.475,2.69579 -4.5,5.44341 -4.5,6.10584 0,0.66242 -0.9,1.49005 -2,1.83918 -1.1,0.34913 -2,1.25393 -2,2.01068 0,0.75675 -0.79532,1.96393 -1.76738,2.68262 -0.97206,0.71868 -2.49934,2.4317 -3.39396,3.8067 -0.89462,1.375 -3.05604,4.075 -4.80317,6 -1.74713,1.925 -4.12496,5.1826 -5.28407,7.23911 -1.1591,2.05652 -2.85808,3.97736 -3.7755,4.26853 -0.91742,0.29118 -2.27072,2.35558 -3.00734,4.58757 -0.73662,2.23198 -2.8309,5.68658 -4.65395,7.67689 -1.82304,1.9903 -3.3224,4.0933 -3.33191,4.67332 -0.009,0.58002 -1.16827,2.14682 -2.57505,3.48178 -1.40678,1.33495 -3.87751,4.93495 -5.49051,8 -3.96408,7.53256 -5.13718,9.32956 -7.02934,10.76776 -0.8867,0.67396 -2.17871,2.70581 -2.87113,4.51521 -2.10642,5.50443 -6.47067,13.78493 -7.26669,13.78745 -0.4125,10e-4 -0.75,0.48452 -0.75,1.07381 0,0.58928 -0.675,1.74643 -1.5,2.57143 -0.825,0.825 -1.5,2.51269 -1.5,3.75043 0,2.95152 -2.92741,11.69729 -4.55448,13.60671 -0.70301,0.825 -1.42834,2.85 -1.61186,4.5 l -0.33366,3 -7.37048,0.29624 -7.37048,0.29624 0.70935,-4.79624 z"
       id="path3073"
       inkscape:connector-curvature="0" />
    <path
       style="fill:#6d7c8f"
       d="m 117,749 c 6.25824,-24.98403 14.70544,-50.06026 26.03245,-74.0496 15.60465,-35.97057 -42.27078,-19.26209 -53.822229,-41.72682 -1.214967,-13.444 3.251786,-32.33607 6.898187,-28.22358 -1.397169,-11.49087 -0.960585,-23.26761 6.606002,-27.4439 -9.214974,-2.20232 1.42511,-20.16818 2.57603,-20.51079 -4.13816,-12.2648 5.8867,-31.17437 4.75832,-49.69305 6.16053,-26.46975 8.22158,-50.62158 15.42244,-76.72494 3.3189,-18.14201 6.1676,-46.26479 11.01419,-67.90881 6.41185,-27.61354 10.07382,-56.50876 17.4871,-83.52133 2.0496,-14.60699 2.49985,-29.02376 6.49404,-49.68728 7.29909,-17.6773 9.25659,-23.1915 16.86527,-39.87741 13.37028,5.06299 22.46214,-9.01893 34.1682,-0.63249 22.06375,-5.85892 38.46006,-0.0786 60.85415,-0.50336 9.47514,-1.54709 -21.64205,-3.01645 3.66589,-2.20106 19.40796,-5.20629 43.72361,-3.0511 64.49181,3.99538 16.95582,5.31083 23.24946,2.82941 32.30056,-4.75954 -7.4425,16.57351 29.83331,7.45145 44.38911,9.41674 32.32251,0.17588 62.82112,-17.25729 95.29848,-10.16007 -26.01828,17.5724 -56.4443,29.34258 -85.72593,40.88736 -33.21337,11.84364 -68.04712,18.83521 -103.03973,25.53637 -9.12684,20.7278 20.06535,31.21307 37.44577,19.74811 28.5414,-6.33701 47.69111,-18.84069 75.64089,-22.95993 9.97458,-5.2908 54.37272,-20.45228 24.38972,-3.03356 -20.63427,7.21051 -35.52583,22.96073 -52.63141,25.76581 -17.11208,13.88839 -60.79299,9.14494 -65.47962,24.85797 15.25735,16.42862 21.22296,39.7303 30.58937,56.52738 16.08267,8.96968 35.87452,7.42982 35.56636,-14.42022 10.41661,-17.84895 37.75477,-1.52232 44.4374,-23.23176 16.05037,-15.20633 29.59747,-33.32468 39.44947,-52.813 -10.14399,4.35726 -33.91444,31.2603 -53.29431,39.12457 -16.94021,8.66183 -55.32658,30.6499 -63.63714,20.88657 32.66083,-18.43516 69.1922,-34.32284 93.61129,-63.19787 25.89424,-19.87929 49.02314,-43.86947 64.23289,-72.93701 19.12779,-0.15567 58.96077,-11.84502 66.93984,7.47112 -3.62503,25.68043 -13.86449,49.69574 -26.49486,72 -5.29216,14.21252 -9.11603,26.58188 -18.5,39.53138 -8.96692,12.84372 -17.07516,26.19629 -25.46887,39.09505 -6.6842,22.84849 34.28928,6.73098 47.08994,6.37397 28.0365,-4.09671 55.51964,-11.30347 83.13232,-17.14232 14.81412,14.3556 15.1126,56.0178 23.58101,81.11408 -27.55435,4.57596 -55.48589,6.53524 -83.04837,11.06971 -10.39747,30.10558 -43.18429,28.08541 -59.34409,4.68744 C 519.46889,418.36099 518.93396,443.83767 513.452,458 483.70417,473.01135 447.54562,455.7692 417,468.93765 401.7701,482.90803 386.69776,498.76637 374.5,516 c -9.79164,15.59884 -24.96367,29.45962 -35.5,45.5 -10.94972,11.05633 -17.872,22.41763 -26.55938,33.90684 -11.47587,14.12863 -17.29928,29.4277 -27.05725,42.59316 -11.65064,13.36679 -20.68418,32.77943 -30.2619,49.62015 -10.44598,16.70107 -19.03851,34.74032 -23.64794,53.32468 -13.7754,19.71893 -49.39349,4.12647 -71.78994,9.03905 C 145.46849,749.69967 131.16411,750.33929 117,749 z M 360,232.12466 c 15.52895,-4.12267 44.62923,-12.41764 50.6254,-17.21133 26.77838,-6.29684 -21.3218,-0.81737 -30.21181,-3.39478 -23.365,3.58354 -59.60148,-18.34286 -73.93608,-9.55362 C 303.0045,230.1829 340.3598,233.84188 360,232.12466 z M 255.56998,748.32177 c 4.09677,-19.38241 14.74258,-36.51874 22.53217,-54.73904 12.23124,-21.19624 22.06703,-43.86353 37.2972,-63.33273 16.10062,-31.01095 39.15136,-57.69987 63.65049,-82.42407 8.94574,-12.03304 27.44287,-20.47446 9.59835,-1.73196 -19.89583,27.62103 -39.88586,55.04515 -56.75795,84.50104 -14.21527,23.44189 -30.8195,45.74182 -39.37649,72.07028 -16.98421,10.8405 -4.98605,52.35486 -31.9529,47.26887 l -2.80006,-0.24958 -2.19081,-1.36281 0,0 z m 36.89841,-3.02553 c 17.26052,-41.21212 43.47604,-78.85744 74.22632,-111.3671 7.46473,-8.76258 35.1036,-33.90913 16.98341,-8.21094 -19.79209,23.33922 -38.68962,47.29166 -54.0526,73.87826 -16.58551,11.52996 -12.72474,45.27879 -29.69937,50.16776 -4.71635,-0.74064 -10.30829,3.45921 -7.45776,-4.46798 z"
       id="path3071"
       inkscape:connector-curvature="0" />
    <path
       style="fill:#575b67"
       d="m 117,749 c 6.25824,-24.98403 14.70544,-50.06026 26.03245,-74.0496 15.64107,-36.14957 -42.73577,-19.08171 -54.008268,-42.04744 -0.243326,-26.2286 42.358628,-0.21295 60.521908,-3.83696 24.18746,2.84324 62.80995,17.37656 64.2442,-20.91414 5.26091,-16.57768 31.83253,-48.36728 19.16404,-57.6512 -42.30692,-3.17077 -85.62725,-9.19595 -123.89758,-28.00033 1.5832,-14.09338 -3.10009,-42.22896 18.94329,-26.58505 40.99825,11.89314 81.24909,25.97745 122.96024,35.08472 14.70677,-16.40365 15.18296,-43.96691 27.03976,-63.63605 18.35749,-28.3189 -36.61481,-19.43811 -52,-29.89089 -32.36151,-8.12886 -64.44585,-17.5678 -94.96883,-30.9915 -4.55812,-15.91467 2.31765,-41.91905 22.11645,-23.45352 34.68867,14.04446 70.07494,25.27492 105.37937,37.01563 16.48507,4.07732 26.08752,7.02136 41.95921,10.43085 14.59271,-6.65056 27.29284,-33.75006 37.679,-50.44553 12.01619,-21.45307 21.75129,-47.13648 -6.50195,-60.03389 -17.5453,-19.40623 -30.26898,-44.80676 -37.63176,-69.9951 -4.77872,-21.86645 -7.53698,-44.47036 -7.76416,-67.11041 31.15411,-1.08048 60.026,12.95226 91.14883,13.18489 34.38068,2.78935 68.7897,-1.68687 101.86658,-11.05443 16.61004,-2.85294 45.9133,-2.06071 16.74894,9.43791 -54.68099,29.2484 -114.83238,46.28042 -175.66087,56.86146 -2.45422,34.49121 36.96257,24.89876 59.16821,16.05861 30.69298,-9.68437 61.55398,-21.64829 92.22894,-29.94437 -23.40111,14.63031 -49.03365,26.15979 -74.42412,37.16186 -14.25852,11.02113 -54.44876,5.84382 -55.66884,20.96071 16.89228,16.88309 20.83698,42.90252 33.82496,58.5497 16.49741,9.10557 34.1015,3.74605 35.37858,-16.18476 22.84993,-12.44684 48.8916,-14.6405 61.56979,-42.0993 10.86528,-11.62771 24.82064,-34.45431 27.37836,-44.17896 -23.73194,21.23988 -46.64843,44.11086 -76.40727,57.11318 -12.6505,5.93988 -40.29067,19.8138 -47.03344,14.36696 33.13418,-19.54519 70.31871,-34.22534 95.4994,-64.58932 26.92147,-19.91557 49.56443,-45.29508 64.92388,-75.03373 20.9498,0.85653 42.7182,-2.08415 63.03808,2 2.56786,23.97591 -10.1295,47.79838 -19.59738,69.50632 -10.42402,13.79097 -9.6133,29.76362 -20.60348,42.50059 -9.01167,14.88137 -16.44289,28.51602 -27.68175,41.60659 -13.81929,23.92793 21.33927,14.87359 34.80761,13.2983 31.45519,-5.68716 62.86161,-12.42784 93.98101,-19.55372 21.77004,8.89066 -16.6976,20.19946 -29.57481,21.53195 -10.37282,4.35796 -57.38937,9.44168 -22.01016,8.68065 21.7542,5.25179 59.37178,-17.60862 63.67236,-0.91599 5.28419,23.75681 -39.01052,8.89601 -53.86384,15.01137 -17.01849,1.81861 -54.40859,-5.22409 -27.25582,17.56514 7.3011,31.28775 44.59883,8.68678 66.77888,10.60972 15.20522,-10.96656 40.19186,9.65466 12.99118,10.49061 -24.4836,6.63856 -57.07556,-0.67467 -76.01849,16.22276 -11.1573,28.45604 -41.53082,13.5393 -54.73927,-4.11885 -8.09416,2.07336 -24.82804,-4.93295 -21.85901,8.76556 5.73797,27.53914 -24.79406,28.42914 -43.9102,27.78858 -26.96114,-1.85611 -58.73549,-4.42239 -74.66361,20.82247 -13.91237,11.21333 -22.03803,27.85197 -32.99599,40.73626 -14.76896,15.272 -24.28201,34.11983 -40.55638,48.0877 -5.48179,12.56596 -16.84843,22.04232 -23.16905,35.86255 -11.02377,11.54327 -14.01797,27.95114 -26.55676,38.00144 -9.57966,17.94527 -20.33638,35.68768 -30.25361,53.77071 -12.88329,13.52551 -7.50396,46.46912 -28.81293,47.97291 C 184.32177,749.84564 150.58122,750.78755 117,749 z M 581.1548,431.67308 c 13.56936,-26.47455 -21.6178,-49.24673 -44.80099,-52.90818 -24.54792,-10.44924 -12.31809,41.028 3.95932,36.6056 17.00466,-0.94696 24.65394,32.30438 40.84167,16.30258 z m -98.28191,-7.05805 c -2.06563,-16.65977 3.82367,-48.90607 -5.30593,-57.25026 -14.97197,1.11458 -46.8947,-9.40349 -34.74502,17.61527 29.26351,8.86054 -16.14406,23.60443 -2.1776,40.99757 14.05543,0.30253 28.33516,1.04746 42.22855,-1.36258 z M 399.75,414.4507 c 5.03037,-14.75181 -36.89143,-2.797 -48.96651,-4.68227 -14.46492,7.47698 35.25843,3.68946 43.74631,4.97048 l 5.2202,-0.28821 z m 2.338,-19.16887 c -4.62695,-6.05402 -54.1437,-5.9117 -44.92338,1.64082 14.2961,-2.54578 32.29582,4.36599 44.92338,-1.64082 z m 0.57729,-13.97628 c -4.04694,-9.19696 -48.52827,-9.40507 -39.8691,0.84686 11.30258,-1.68305 34.26182,8.65871 39.8691,-0.84686 z M 359.5,233.56611 c 18.28192,-5.10129 59.3968,-13.58824 63.90681,-22.66119 -38.06135,1.86989 -76.64387,-1.31814 -112.83579,-13.83265 -16.64402,8.5566 6.84235,38.12778 26.6645,35.57329 7.55248,0.67623 14.71147,3.81069 22.26448,0.92055 z M 255.56998,748.32177 c 4.09677,-19.38241 14.74258,-36.51874 22.53217,-54.73904 12.23124,-21.19624 22.06703,-43.86353 37.2972,-63.33273 16.10062,-31.01095 39.15136,-57.69987 63.65049,-82.42407 8.94574,-12.03304 27.44287,-20.47446 9.59835,-1.73196 -19.89583,27.62103 -39.88586,55.04515 -56.75795,84.50104 -14.21527,23.44189 -30.8195,45.74182 -39.37649,72.07028 -16.98421,10.8405 -4.98605,52.35486 -31.9529,47.26887 l -2.80006,-0.24958 -2.19081,-1.36281 0,0 z m 36.89841,-3.02553 c 17.26052,-41.21212 43.47604,-78.85744 74.22632,-111.3671 7.46473,-8.76258 35.1036,-33.90913 16.98341,-8.21094 -19.79209,23.33922 -38.68962,47.29166 -54.0526,73.87826 -16.58593,11.52983 -12.72432,45.27993 -29.70007,50.16779 -4.71653,-0.74066 -10.30747,3.45925 -7.45706,-4.46801 z M 196.5,485.21333 c -9.26055,-4.95986 -48.56026,-40.50644 -21.08858,-20.70928 1.61883,0.42777 37.15715,30.99619 21.08858,20.70928 z m 2,-13.2661 c -15.60842,-6.42951 -15.10873,-19.51591 -0.13765,-4.15089 2.44476,1.3294 5.57166,7.56049 0.13765,4.15089 z M 154,464.95469 C 144.2856,461.10578 108.93418,445.08576 133.8626,446 c 5.1726,1.82433 45.99203,30.17199 20.1374,18.95469 z m 19.73788,-13.95633 c -12.09616,-11.70517 -28.68444,-18.5219 -37.71214,-30.95732 -1.74426,-20.44586 25.19487,16.18189 33.79253,22.11934 2.37216,2.53706 17.53526,20.03215 3.91961,8.83798 z M 228.99712,314.25 c -12.61295,-16.83939 -28.47608,-33.37822 -39.10284,-49.87743 11.82453,0.62743 23.77808,21.99154 31.2653,32.5101 0.9709,1.99996 17.11941,20.78955 7.83754,17.36733 z m 22.18171,-9.13948 c -7.8983,-17.02052 -10.68511,-29.53301 -13.65565,-45.31169 4.82562,-15.69386 10.08282,15.75483 11.10575,26.51152 -1.71415,4.67024 9.53949,19.051 2.5499,18.80017 z m -67.86703,-42.9303 c -7.90206,-10.29026 -23.36596,-17.98063 -21.97328,-31.30797 6.41011,3.11121 35.95698,27.46579 21.97328,31.30797 z m 16.33337,-14.40855 c -9.77686,-5.88523 -31.8384,-40.1726 -8.92779,-19.84529 2.64125,5.73813 31.41684,39.57947 8.92779,19.84529 z m 33.78517,3.97774 c -8.62718,-8.94135 -21.54801,-44.25888 -3.88137,-21.90371 5.29468,0.38157 18.22546,28.84816 3.88137,21.90371 z M 218.36163,218.5 c -6.26833,-10.11272 -20.03565,-17.23048 -20.26894,-30.05729 4.84829,-4.50238 23.9991,21.79368 22.37593,31.55729 l -2.10699,-1.5 0,0 z m -26.01286,-4.78804 c -15.20186,-6.12518 -19.4869,-35.18949 -3.58203,-11.18826 0.26697,2.88831 13.01775,16.11214 3.58203,11.18826 z"
       id="path3069"
       inkscape:connector-curvature="0" />
    <path
       style="fill:#06315c"
       d="m 117,749 c 0,-0.55 0.45,-1 1,-1 0.55,0 1,-1.77344 1,-3.94098 0,-2.16754 0.45,-4.2191 1,-4.55902 0.55,-0.33992 1,-2.31521 1,-4.38954 0,-2.07433 1.12312,-5.98527 2.49581,-8.69098 1.3727,-2.70571 2.4977,-6.38809 2.5,-8.18305 0.002,-1.79496 0.37805,-4.04496 0.83499,-5 0.45694,-0.95504 1.58194,-3.2354 2.5,-5.06747 0.91806,-1.83207 1.67088,-4.08207 1.67294,-5 0.002,-0.91793 0.90205,-3.14234 2,-4.94313 1.09794,-1.80079 1.99626,-3.74162 1.99626,-4.31295 0,-0.57133 1.18529,-3.59795 2.63397,-6.72583 1.44869,-3.12788 3.19541,-7.03705 3.88161,-8.68705 0.6862,-1.65 2.22151,-5.19194 3.41181,-7.87098 1.93127,-4.34678 2.044,-5.44987 1.04749,-10.25 C 145.08051,656.07084 144.46584,655 142.88729,655 c -1.084,0 -2.91796,-0.8823 -4.07545,-1.96067 -1.1575,-1.07837 -4.17618,-2.22513 -6.70819,-2.54834 -7.08558,-0.9045 -25.26343,-5.57183 -29.13647,-7.48107 -0.84306,-0.41558 -2.95227,-1.06737 -4.687145,-1.44841 -1.820537,-0.39986 -4.562708,-2.29953 -6.485082,-4.49262 -2.921023,-3.33238 -3.286226,-4.35982 -2.968713,-8.35203 0.310507,-3.90411 0.767167,-4.72002 3.207549,-5.73086 1.565023,-0.64825 3.284056,-0.9076 3.820072,-0.57632 0.536016,0.33128 7.425679,1.52194 15.310359,2.64591 7.88468,1.12397 18.61078,2.67068 23.83578,3.43713 5.225,0.76644 14.225,1.90376 20,2.52737 5.775,0.62361 11.4,1.52008 12.5,1.99215 1.76464,0.75732 11.37715,2.05672 18.5,2.50081 16.68398,1.0402 16.24015,1.16782 20.86038,-5.99837 3.68862,-5.72123 4.52832,-7.44511 6.09591,-12.51468 0.76531,-2.475 1.76322,-4.9275 2.21759,-5.45 0.45437,-0.5225 0.82612,-1.7049 0.82612,-2.62756 0,-0.92265 0.64822,-2.21553 1.44049,-2.87305 0.79227,-0.65753 2.61984,-4.42513 4.06126,-8.37245 1.44142,-3.94732 3.03525,-7.85194 3.54185,-8.67694 0.50659,-0.825 1.87576,-3.525 3.04259,-6 1.16683,-2.475 3.42478,-7.26434 5.01766,-10.64297 1.59288,-3.37863 2.89615,-6.75721 2.89615,-7.50795 0,-0.75075 1.125,-3.4783 2.5,-6.06123 4.1708,-7.83482 3.66274,-8.45744 -7.6168,-9.3343 -28.97475,-2.25246 -60.90277,-6.77297 -73.3832,-10.38991 -14.48471,-4.1978 -28.3345,-8.75701 -35,-11.52163 -4.4,-1.82496 -9.125,-3.65415 -10.5,-4.06485 -1.375,-0.4107 -2.83087,-1.24857 -3.23527,-1.86194 -0.89203,-1.35299 -0.0186,-9.15262 1.85619,-16.57532 0.7585,-3.00305 1.37908,-6.94055 1.37908,-8.75 0,-3.62812 1.06568,-4.02873 5.6849,-2.13705 1.54831,0.63407 3.68297,1.31851 4.7437,1.52098 1.06073,0.20247 3.88896,1.03369 6.28495,1.84715 2.39599,0.81346 4.90312,1.48179 5.5714,1.48518 0.66828,0.003 2.38192,0.61506 3.80808,1.35926 1.42617,0.74421 4.33562,1.68002 6.46545,2.07957 2.12983,0.39956 5.10311,1.36289 6.60731,2.14074 1.50419,0.77785 3.66214,1.41427 4.79545,1.41427 1.13331,0 3.96815,0.85847 6.29966,1.90771 2.3315,1.04924 5.3641,2.12859 6.7391,2.39855 2.22022,0.43592 15.32045,4.11223 23.5,6.59481 3.20841,0.97378 14.80233,4.29106 23,6.5808 2.75,0.76812 6.8,1.83818 9,2.3779 2.2,0.53973 6.7,1.67709 10,2.52748 16.83065,4.33716 19.74922,4.82337 20.67697,3.44463 C 258.2377,527.28327 265,509.13647 265,505.47155 c 0,-1.43672 1.88771,-5.42664 3.06182,-6.47155 0.30901,-0.275 1.13892,-3.2 1.84426,-6.5 0.70535,-3.3 1.91503,-6.99667 2.68818,-8.21482 0.77316,-1.21815 1.40574,-2.82938 1.40574,-3.58052 0,-0.75114 1.12312,-3.57947 2.49581,-6.28518 1.3727,-2.70571 2.4977,-5.44003 2.5,-6.07626 0.002,-0.63623 1.35419,-4.16568 3.00419,-7.84322 1.65,-3.67754 3,-7.26489 3,-7.9719 0,-1.27381 -4.93286,-3.79954 -7.93857,-4.06472 -1.77196,-0.15633 -19.75245,-4.06002 -25.06143,-5.44102 -1.925,-0.50074 -9.35,-2.32482 -16.5,-4.05351 -7.15,-1.72869 -14.35,-3.51734 -16,-3.97477 -17.32208,-4.80228 -29.86755,-8.42186 -43.5,-12.55047 -7.93881,-2.49676 -15.02249,-5.46498 -23,-8.17647 -2.475,-0.83672 -6.75,-2.54288 -9.5,-3.79146 -2.75,-1.24858 -6.90397,-2.83507 -9.23105,-3.52553 -2.54063,-0.75381 -4.4713,-2.01233 -4.83238,-3.15 -0.74335,-2.34207 1.40475,-15.58405 2.65318,-16.35562 0.50064,-0.30941 0.91025,-1.81101 0.91025,-3.33688 0,-1.52587 0.3375,-3.11182 0.75,-3.52432 0.4125,-0.4125 0.80625,-1.1625 0.875,-1.66666 0.0687,-0.50417 0.18125,-1.18014 0.25,-1.50216 0.0687,-0.32203 2.13798,0.53958 4.5983,1.91468 2.46031,1.37509 5.84855,2.80223 7.5294,3.1714 1.68086,0.36918 5.63037,1.97688 8.7767,3.57266 3.14633,1.59578 6.46342,2.90712 7.3713,2.91408 0.90789,0.007 4.05789,1.13327 7,2.5029 2.94212,1.36963 6.21972,2.49463 7.28358,2.5 1.06385,0.005 3.76385,0.89372 6,1.9741 2.23614,1.08037 8.47482,3.31999 13.86372,4.97691 5.3889,1.65693 10.77653,3.69798 11.97251,4.53568 1.19598,0.83769 2.98048,1.52308 3.96557,1.52308 0.98508,0 2.68495,0.45 3.77749,1 1.09254,0.55 2.88032,1.45 3.97286,2 1.09254,0.55 2.91428,1 4.04831,1 1.13403,0 3.92466,0.9 6.2014,2 2.27673,1.1 4.97292,2 5.99153,2 1.0186,0 3.61615,0.9 5.77233,2 2.15618,1.1 4.8606,2 6.00982,2 1.14923,0 3.31058,0.63145 4.80301,1.40321 1.49244,0.77177 4.84509,1.72286 7.45034,2.11355 2.60526,0.39068 4.73683,1.05828 4.73683,1.48355 0,0.42528 2.925,1.32514 6.5,1.99969 3.575,0.67455 6.5,1.62551 6.5,2.11323 0,0.48772 1.71,0.88677 3.8,0.88677 2.09,0 4.2275,0.38621 4.75,0.85825 1.56511,1.41394 13.13966,3.43646 15.81855,2.7641 2.69232,-0.67573 7.55935,-6.67552 17.13448,-21.12235 3.28078,-4.95 6.23112,-9.225 6.55632,-9.5 0.3252,-0.275 1.44191,-1.9625 2.48157,-3.75 1.03966,-1.7875 2.16969,-3.25 2.51117,-3.25 0.34148,0 1.87311,-2.475 3.40362,-5.5 1.53051,-3.025 3.21659,-5.5 3.74685,-5.5 0.53026,0 0.7751,-0.5625 0.5441,-1.25 -0.40758,-1.213 4.41432,-13.95703 6.1134,-16.15741 0.46402,-0.60093 1.67742,-3.56759 2.69644,-6.59259 1.01903,-3.025 2.49375,-6.27459 3.27717,-7.22132 1.76544,-2.13346 3.17568,-9.40238 2.49412,-12.85571 -0.30135,-1.52692 -2.35469,-3.97187 -5.03895,-6 -2.49169,-1.88264 -7.77571,-6.68547 -11.74226,-10.67297 -3.96656,-3.9875 -7.62472,-7.25961 -8.12925,-7.27135 -1.20258,-0.028 -6.40928,-7.41045 -6.44515,-9.13843 -0.0153,-0.73712 -1.3653,-3.10788 -3,-5.26836 C 318.33748,299.41138 317,297.10398 317,296.44431 c 0,-0.65968 -0.62514,-1.71824 -1.38921,-2.35236 -1.1919,-0.98919 -3.69553,-5.81714 -12.3706,-23.8552 -2.4786,-5.15374 -2.56533,-8.91846 -0.21959,-9.53189 3.36508,-0.87998 2.24821,-2.78561 -1.48526,-2.53418 -1.90556,0.12833 -3.62687,0.0299 -3.82512,-0.21867 -1.03959,-1.30362 -5.56135,-27.33788 -5.89695,-33.95201 -0.0419,-0.825 -0.92936,-6 -1.97223,-11.5 -1.237,-6.52389 -1.81046,-13.38921 -1.64972,-19.75 l 0.2464,-9.75 7.06321,0 c 3.88477,0 9.52378,0.70216 12.53114,1.56036 6.26124,1.78675 11.2025,2.92958 18.81049,4.35054 2.9384,0.54881 5.94763,1.50001 6.68717,2.11378 0.73955,0.61376 3.2854,1.32899 5.65745,1.5894 4.85529,0.53302 5.28442,0.59546 19.81282,2.8831 10.25508,1.61476 24.96239,2.7695 36,2.82654 10.38801,0.0537 34.50317,-1.32252 38.93159,-2.22173 2.43738,-0.49492 5.03061,-0.66999 5.76274,-0.38905 0.73213,0.28095 1.93482,0.01 2.67266,-0.60255 0.73784,-0.61235 3.31961,-1.17602 5.73726,-1.25259 2.41766,-0.0766 4.93272,-0.55981 5.58901,-1.07386 0.65629,-0.51406 4.93129,-1.76196 9.5,-2.77313 4.56871,-1.01117 10.78174,-2.54692 13.80674,-3.41278 6.53712,-1.87115 32.56237,-2.31698 31.46351,-0.53898 -0.36,0.58248 -1.62405,0.98267 -2.80902,0.88931 -4.31011,-0.33957 -4.99548,-0.0642 -3.70617,1.48937 0.975,1.1748 0.58593,1.75386 -2.12756,3.16647 -19.08745,9.9367 -41.18853,20.34819 -50.32076,23.70538 -2.2,0.80876 -6.925,2.64626 -10.5,4.08332 -3.575,1.43707 -7.02603,2.61155 -7.66896,2.60997 -0.64293,-0.002 -2.44293,0.64881 -4,1.44531 C 423.65609,225.32806 405.89189,231 403.67917,231 c -0.93847,0 -2.4877,0.42321 -3.44274,0.94047 -2.0735,1.12303 -25.84301,7.70901 -32.23643,8.93197 -2.475,0.47342 -7.425,1.6111 -11,2.52817 -3.575,0.91707 -13.69458,2.89348 -22.48797,4.39202 -13.05438,2.22469 -16.04922,3.04268 -16.32179,4.45807 -0.70981,3.68575 8.85287,24.16682 12.09328,25.90104 1.78461,0.95509 33.79005,-4.11006 38.21648,-6.0481 1.1,-0.48162 3.8,-1.33182 6,-1.88932 14.2966,-3.62293 27.7956,-8.03855 36,-11.77587 2.75,-1.2527 7.025,-2.79341 9.5,-3.42379 2.475,-0.63039 7.13798,-2.0638 10.36217,-3.18536 3.22419,-1.12156 6.37419,-2.14782 7,-2.28059 0.62581,-0.13277 2.41293,-0.7637 3.97139,-1.40207 1.55845,-0.63837 5.15845,-1.88006 8,-2.75931 2.84154,-0.87925 6.58445,-2.22609 8.31757,-2.99298 3.90391,-1.72745 5.64275,-1.77667 5.09961,-0.14435 -0.22877,0.6875 -2.22635,1.925 -4.43907,2.75 -2.21272,0.825 -4.65056,2.02134 -5.4174,2.65854 -0.76685,0.6372 -4.49495,2.39785 -8.28467,3.91255 -3.78972,1.5147 -11.66472,5.32976 -17.5,8.4779 -5.83528,3.14814 -13.0846,6.72181 -16.1096,7.94149 -3.025,1.21967 -7.975,3.26537 -11,4.546 C 391.77709,276.01764 376.28587,281 373.68512,281 c -1.25682,0 -2.71262,0.38366 -3.23512,0.85257 -1.07823,0.96766 -7.14259,2.55887 -15.95,4.18508 -5.13906,0.94888 -10.08719,2.10038 -15.25,3.54888 -2.23332,0.62658 -1.34488,2.79162 4.21925,10.28184 6.01105,8.09185 7.5003,11.30845 5.53845,11.9624 -1.93495,0.64498 -5.25176,4.2585 -4.55156,4.95871 0.34255,0.34254 2.23312,-0.2444 4.20127,-1.30432 l 3.57845,-1.92712 2.43473,2.97098 c 1.3391,1.63404 3.13867,4.32098 3.99904,5.97098 0.86037,1.65 2.36855,3.9 3.35149,5 2.40412,2.6904 3.96653,8.8086 3.9733,15.55887 0.003,3.05738 0.56808,6.28547 1.25558,7.17354 0.6875,0.88807 4.33063,3.05202 8.09583,4.80878 7.15177,3.33683 15.90525,4.36052 25.89074,3.02782 4.0659,-0.54265 4.29421,-0.75434 4.92777,-4.56901 1.86197,-11.21091 4.74489,-15.75976 12.33566,-19.46396 1.65,-0.80518 4.26698,-2.31932 5.81552,-3.36475 2.02535,-1.36733 5.25281,-2.04154 11.5,-2.40232 5.52513,-0.31908 9.64297,-1.09587 11.31919,-2.13525 2.75272,-1.70689 15.25563,-15.09558 19.73554,-21.13372 2.58197,-3.48005 13.84354,-17.05862 16.65684,-20.08389 0.8101,-0.87114 1.47291,-1.87926 1.47291,-2.24028 0,-0.36102 1.96473,-3.52618 4.36607,-7.0337 2.40134,-3.50752 5.49816,-8.79939 6.88182,-11.75972 1.38367,-2.96032 4.35599,-7.80883 6.60516,-10.77445 3.92733,-5.17834 4.41994,-7.10796 1.81457,-7.10796 -0.66788,0 -3.67883,2.27842 -6.69098,5.06315 -3.01215,2.78473 -7.10033,6.2896 -9.08485,7.7886 -1.98451,1.49899 -5.59432,5.18308 -8.02179,8.18685 -2.42748,3.00377 -5.85654,6.1364 -7.62015,6.9614 -1.76361,0.825 -3.2163,1.83236 -3.22821,2.23857 -0.0859,2.93188 -15.17421,14.54123 -26.02164,20.02177 -1.375,0.6947 -4.40356,2.49532 -6.73013,4.00138 -2.32657,1.50605 -4.60164,2.73828 -5.05572,2.73828 -0.45407,0 -2.35044,1.125 -4.21415,2.5 -1.86371,1.375 -4.16363,2.5 -5.11095,2.5 -0.94731,0 -1.87238,0.39529 -2.05572,0.87843 -0.50868,1.34055 -12.02727,6.42002 -24.83333,10.95104 -12.34205,4.36683 -17.65604,5.53608 -18.55437,4.08256 -0.31001,-0.50162 0.21496,-0.91203 1.16661,-0.91203 0.95165,0 2.44071,-0.62201 3.30902,-1.38225 0.86831,-0.76024 6.97874,-4.17703 13.57874,-7.59288 6.6,-3.41584 12.675,-6.77986 13.5,-7.47558 0.825,-0.69572 4.2,-2.62889 7.5,-4.29592 6.62636,-3.34738 16.36117,-9.02465 21,-12.24704 1.65,-1.14618 5.17825,-3.4859 7.84057,-5.19938 2.66231,-1.71347 5.07295,-3.721 5.35699,-4.46118 0.28403,-0.74017 1.11776,-1.34577 1.85272,-1.34577 0.73497,0 1.92666,-0.7875 2.6482,-1.75 0.72154,-0.9625 3.78456,-3.99244 6.80671,-6.73319 3.02214,-2.74076 6.69908,-6.47333 8.17097,-8.29459 1.47189,-1.82127 4.39689,-4.47074 6.5,-5.88771 2.10311,-1.41697 5.87359,-4.43441 8.37883,-6.70541 2.50524,-2.27101 8.04533,-7.22915 12.31131,-11.0181 13.09531,-11.63097 31.44627,-35.92448 36.56006,-48.39922 1.40054,-3.41653 4.40668,-5.74202 6.08323,-4.70585 0.53254,0.32913 2.50109,-0.12896 4.37455,-1.01798 2.91599,-1.38372 7.01616,-1.57116 28.48511,-1.30217 23.55491,0.29513 25.19452,0.43575 26.98272,2.31422 1.62384,1.70582 1.79195,2.80901 1.14289,7.5 -1.85697,13.42106 -3.51956,21 -4.60676,21 -0.63856,0 -1.46593,2.1375 -1.83861,4.75 -0.67489,4.73096 -2.57792,11.29872 -3.54949,12.25 -0.80447,0.78767 -3,7.48161 -3,9.14668 0,0.82758 -1.125,2.56157 -2.5,3.85332 -1.375,1.29175 -2.5,3.17019 -2.5,4.17431 0,1.00413 -0.45,1.82569 -1,1.82569 -0.55,0 -1,1.125 -1,2.5 0,1.375 -0.3375,2.50285 -0.75,2.50632 -0.96925,0.008 -4.25,5.76089 -4.25,7.45227 0,0.71309 -0.675,1.85672 -1.5,2.54141 -0.825,0.68469 -1.5,2.53979 -1.5,4.12244 0,1.58266 -0.45,2.87756 -1,2.87756 -0.55,0 -1,1.35 -1,3 0,2.09619 -0.48704,3 -1.61663,3 -1.15739,0 -1.45834,0.60531 -1.05941,2.13083 0.32334,1.23644 -0.08,2.76811 -0.96101,3.64908 -0.83504,0.83503 -1.29323,2.37868 -1.01822,3.43034 0.29017,1.10962 -0.0969,2.14116 -0.92235,2.45791 -0.78231,0.3002 -1.42238,1.29087 -1.42238,2.20148 0,0.91061 -1.09876,2.4808 -2.44169,3.4893 -1.34293,1.0085 -2.72869,3.1403 -3.07946,4.73735 C 558.12808,301.69333 557.42684,303 556.92054,303 556.41425,303 556,303.68912 556,304.53138 c 0,0.84227 -0.675,1.79041 -1.5,2.10699 -0.825,0.31659 -1.5,1.44159 -1.5,2.5 0,1.05842 -0.675,2.18342 -1.5,2.5 -0.825,0.31659 -1.5,1.42746 -1.5,2.46862 0,1.22634 -0.70435,1.89301 -2,1.89301 -1.46667,0 -2,0.66667 -2,2.5 0,1.375 -0.9,3.4 -2,4.5 -1.1,1.1 -2,2.21986 -2,2.48857 0,0.26871 -0.7875,1.40176 -1.75,2.51788 -0.9625,1.11612 -1.975,3.21064 -2.25,4.65449 -0.275,1.44385 -1.381,3.1233 -2.45777,3.73212 -3.39911,1.92189 -4.75537,3.60913 -4.15622,5.17049 0.32035,0.8348 -0.0626,1.75885 -0.85488,2.06288 -1.85372,0.71134 -3.17924,9.12546 -1.67461,10.63009 1.45912,1.45912 19.10498,1.36963 21.87142,-0.11092 1.57146,-0.84102 2.20748,-0.83934 2.48946,0.007 0.28003,0.8401 1.27833,0.84925 3.83067,0.0351 1.89856,-0.6056 6.2745,-1.40476 9.72431,-1.7759 3.4498,-0.37114 6.51386,-1.06553 6.80901,-1.5431 0.29516,-0.47756 2.11301,-0.8683 4.03968,-0.8683 3.05265,0 12.34873,-1.72749 27.14328,-5.04404 2.34539,-0.52578 5.51789,-0.95596 7.05,-0.95596 1.53211,0 3.21315,-0.37327 3.73565,-0.82949 0.5225,-0.45621 4.1,-1.38852 7.95,-2.07178 3.85,-0.68327 7.9,-1.60279 9,-2.04338 2.91484,-1.1675 13.15657,-3.16264 19.47297,-3.79343 3.01014,-0.30061 7.01019,-1.40996 8.88901,-2.46523 1.87882,-1.05527 3.7423,-1.55373 4.14107,-1.10768 0.79269,0.88667 3.26947,10.42904 2.79198,10.75675 -1.99806,1.37129 -8.6934,3.73617 -14.29503,5.0492 -3.85,0.90245 -7.70183,2.01057 -8.55962,2.46251 -0.85779,0.45193 -4.23279,1.36325 -7.5,2.02515 -3.26721,0.6619 -7.96538,1.7876 -10.44038,2.50154 -6.55413,1.89062 -26.35223,6.18176 -34.75,7.53188 -3.9875,0.64108 -7.25,1.57473 -7.25,2.07478 0,0.50005 0.5625,0.94332 1.25,0.98506 5.57955,0.33868 39.27544,-0.87915 45.3423,-1.63875 5.24299,-0.65645 7.75641,-1.09916 19.76576,-3.48153 C 663.1571,357.61496 662,357.65066 662,359.62723 c 0,1.34979 0.85141,1.54542 4.99369,1.1474 l 4.9937,-0.47983 1.00073,3.6026 c 1.35574,4.88065 1.26716,8.07783 -0.23812,8.594 -0.6875,0.23575 -4.625,0.64415 -8.75,0.90756 -43.12275,2.75369 -59.57136,3.63043 -65.5,3.49126 -9.31286,-0.21862 -18.58815,0.1135 -20.76553,0.74354 -1.46986,0.42532 -0.92558,1.45328 3.25,6.13817 2.75854,3.09502 5.01553,6.04057 5.01553,6.54567 0,0.5051 1.35,2.45594 3,4.33518 1.65,1.87925 3.01001,3.96365 3.02224,4.63202 0.0122,0.66836 0.90222,2.3402 1.97776,3.7152 1.07554,1.375 1.96553,3.48698 1.97776,4.6933 0.0122,1.20631 1.00713,2.88314 2.21089,3.72629 2.3334,1.63437 6.21856,1.56828 27.81135,-0.47309 18.50716,-1.74966 20.38502,-1.96277 27,-3.06419 11.37719,-1.89433 27.30347,-3.70309 28.51443,-3.2384 1.01793,0.39062 3.76737,9.35609 2.86923,9.35609 -2.40064,0 -82.66232,10.1697 -83.84575,10.62383 -0.89688,0.34416 -2.69956,2.73507 -4.00596,5.31312 -1.3064,2.57806 -4.39912,7.17186 -6.87272,10.20846 -10.53401,12.93161 -23.78393,11.42965 -40.6158,-4.60404 l -7.61042,-7.24953 -8.98606,-0.70296 c -4.94233,-0.38664 -9.79923,-0.39093 -10.79311,-0.01 -2.83927,1.08953 -3.65384,4.73024 -3.65384,16.33077 0,9.17341 -0.27253,11.02655 -1.82874,12.4349 -1.00581,0.91025 -2.30766,1.65499 -2.89301,1.65499 -0.58535,0 -1.30489,0.62704 -1.59898,1.39342 -0.3291,0.85762 -2.86964,1.66443 -6.60699,2.09819 -3.33975,0.38762 -6.07228,1.08229 -6.07228,1.54371 0,0.46141 -1.575,0.58335 -3.5,0.27097 -2.25429,-0.36582 -3.5,-0.16945 -3.5,0.55173 0,0.81199 -6.25219,0.94599 -22.75,0.4876 -26.13957,-0.72628 -25.93906,-0.72409 -33.25,-0.36286 -7.13459,0.35251 -17.09078,2.94892 -19,4.95489 -0.825,0.8668 -2.7375,2.21147 -4.25,2.98816 -1.82545,0.93738 -2.75,2.20639 -2.75,3.77455 0,1.33781 -0.759,2.64184 -1.75,3.00669 -0.9625,0.35436 -3.1,2.04149 -4.75,3.74918 -1.65,1.70769 -4.65546,4.12054 -6.67879,5.36188 -2.25647,1.38437 -3.91815,3.3057 -4.29787,4.96944 C 391.75754,496.14286 387.63205,501 385.54797,501 384.69658,501 384,501.6199 384,502.37756 c 0,0.75765 -0.63355,1.90335 -1.40789,2.54599 -0.77433,0.64264 -2.14544,2.72274 -3.04691,4.62245 -0.90147,1.8997 -2.06792,3.454 -2.59212,3.454 -0.52419,0 -0.95308,0.675 -0.95308,1.5 0,0.825 -0.675,1.5 -1.5,1.5 -0.99742,0 -1.5,0.99744 -1.5,2.97695 0,2.14112 -0.76549,3.47476 -2.72642,4.75 C 366.67067,526.07 361,532.10807 361,533.60135 c 0,0.65157 -0.675,1.44369 -1.5,1.76028 -0.825,0.31658 -1.5,1.27586 -1.5,2.13174 0,0.85587 -1.125,1.98386 -2.5,2.50663 -1.375,0.52277 -2.5,1.41164 -2.5,1.97525 0,0.56361 -0.92089,2.03725 -2.04642,3.27475 -4.25665,4.68012 -4.68346,5.31938 -5.32198,7.97114 -0.36037,1.49662 -1.5499,3.19995 -2.64341,3.78518 -1.0935,0.58523 -1.98819,1.69289 -1.98819,2.46148 0,0.76858 -0.9,1.68307 -2,2.0322 -1.1,0.34913 -2.01422,1.16695 -2.0316,1.81739 -0.0431,1.6119 -3.76418,5.69864 -7.80171,8.5683 -2.31729,1.64701 -3.18405,2.93992 -2.84362,4.24173 0.29689,1.13532 -0.0327,1.87258 -0.83723,1.87258 -0.72981,0 -1.60614,1.27125 -1.9474,2.82499 -0.4546,2.06977 -1.1963,2.80495 -2.7744,2.75 -1.68483,-0.0587 -2.35089,0.74171 -3.05832,3.67501 -0.49742,2.0625 -1.3097,3.75 -1.80506,3.75 -0.49536,0 -0.90066,0.9 -0.90066,2 0,1.11111 -0.66667,2 -1.5,2 -0.825,0 -1.5,0.62325 -1.5,1.38499 0,0.76174 -1.0125,2.06163 -2.25,2.88864 -1.2375,0.82701 -3.11938,3.69126 -4.18196,6.36501 -2.58202,6.49709 -5.52128,10.36136 -7.8811,10.36136 -1.5918,0 -1.83634,0.50299 -1.37238,2.8228 0.41654,2.08269 0.056,3.18934 -1.375,4.22076 -1.06676,0.76888 -1.93956,2.1089 -1.93956,2.97783 0,2.52722 -2.38589,6.96229 -3.75,6.97081 -0.6875,0.004 -1.25,1.1328 -1.25,2.5078 0,2.02972 -0.49222,2.5 -2.61663,2.5 -2.13004,0 -2.51873,0.37439 -2.09016,2.01324 0.35678,1.36431 -0.43625,2.97595 -2.46029,5 -1.64272,1.64272 -3.35745,2.98676 -3.8105,2.98676 -0.45306,0 -1.21772,1.6875 -1.69924,3.75 -0.55546,2.37916 -1.68844,4.11085 -3.09934,4.73713 -1.22311,0.54292 -2.22384,1.75386 -2.22384,2.69098 0,0.93712 -0.45,1.98197 -1,2.32189 -0.55,0.33992 -1,1.90398 -1,3.47568 0,1.57171 -0.3375,3.00765 -0.75,3.19099 -0.4125,0.18333 -1.425,1.306 -2.25,2.49481 -0.825,1.18881 -3.44457,4.94321 -5.82127,8.34309 -2.37669,3.39989 -4.10909,6.73452 -3.84977,7.41029 0.25931,0.67577 -0.35648,1.74575 -1.36844,2.37772 -1.01196,0.63198 -2.64609,3.70652 -3.63141,6.83231 -1.1319,3.59079 -2.44274,5.85357 -3.5603,6.14582 -0.97285,0.2544 -1.7835,1.19757 -1.80146,2.09592 -0.058,2.89965 -3.43959,11.58345 -5.80373,14.90359 -1.28085,1.79878 -2.05759,4.00366 -1.75405,4.97909 0.64998,2.08878 -0.27045,3.66077 -2.65957,4.54225 -1.06627,0.3934 -1.77508,1.73237 -1.8142,3.42706 -0.11398,4.93771 -2.53451,14.64762 -3.75265,15.05366 C 228.53242,746.98919 228,747.80417 228,748.58333 228,749.78854 219.71569,750 172.5,750 136.16667,750 117,749.65465 117,749 z M 442.5,447.74807 c 1.1,0.0668 14.74841,0.18811 30.3298,0.26949 26.18231,0.13676 28.48406,0.009 30.36477,-1.68479 1.11922,-1.00802 2.47865,-2.95777 3.02094,-4.33277 0.56026,-1.42055 1.15496,-18.90759 1.37732,-40.5 0.21524,-20.9 0.76529,-39.35 1.22234,-41 0.92869,-3.35264 -0.20563,-11.06063 -1.93421,-13.14343 -1.40742,-1.69584 -3.58093,-1.75665 -4.12798,-0.1155 -0.29478,0.88434 -0.93165,0.72312 -2.21566,-0.5609 -1.56094,-1.56093 -3.33157,-1.76639 -13.23738,-1.53598 -6.28947,0.14629 -11.66102,0.63103 -11.93677,1.07721 -0.27575,0.44617 -1.00519,0.49985 -1.62097,0.11927 -1.61931,-1.00079 -50.11727,-1.34493 -51.69983,-0.36686 -2.17135,1.34197 -4.31975,8.10534 -4.61427,14.52619 -0.63158,13.76889 -0.60251,40.40879 0.0452,41.45686 0.38436,0.62191 0.155,1.78604 -0.50969,2.58694 -0.787,0.94828 -0.87668,1.8922 -0.25712,2.7062 0.52328,0.6875 0.79639,3.95 0.60692,7.25 -0.74545,12.98344 -0.77633,25.71433 -0.0634,26.15472 0.4125,0.25482 0.75,1.28166 0.75,2.28185 0,1.0002 0.69311,2.39377 1.54025,3.09684 1.88473,1.56418 12.6774,2.88694 17.45975,2.13988 1.925,-0.3007 4.4,-0.49205 5.5,-0.42522 z m 135.89383,-11.90875 c 4.34022,-2.10864 6.22718,-4.81064 8.13405,-11.64737 1.34902,-4.83669 -2.77056,-16.33229 -7.77356,-21.69195 -1.0268,-1.1 -3.6004,-4.29716 -5.7191,-7.1048 -2.62035,-3.47241 -5.22205,-5.65292 -8.13604,-6.81886 -2.35611,-0.94273 -5.45288,-2.54648 -6.8817,-3.56389 -5.87885,-4.18611 -24.8107,-8.59606 -34.87252,-8.12314 -2.18917,0.10289 -2.31187,0.41 -1.74219,4.36069 0.33707,2.3375 0.76403,5.375 0.94882,6.75 0.18478,1.375 0.46429,2.725 0.62113,3 0.32178,0.56418 0.80906,3.82872 1.34338,9 0.82241,7.95957 2.02784,13.54387 3.0727,14.23469 0.61116,0.40408 2.9686,0.74158 5.23876,0.75 2.48711,0.009 4.63733,0.62955 5.41021,1.56082 0.70546,0.85003 1.90993,1.3048 2.67661,1.0106 3.56476,-1.36793 16.42741,8.0371 21.63409,15.81861 3.35196,5.00959 9.0162,5.87963 16.04536,2.4646 z M 402.75,415.65626 c 0.6875,-0.42586 1.25,-2.4985 1.25,-4.60587 0,-3.67994 -0.14772,-3.84882 -3.73265,-4.26734 -5.19139,-0.60607 -55.96134,1.90979 -57.47998,2.84836 -1.19398,0.73792 -0.94131,4.15542 0.36701,4.964 0.63491,0.3924 11.32241,0.91778 23.75,1.16752 12.42759,0.24974 22.68959,0.53672 22.80444,0.63772 0.63254,0.55631 11.98773,-0.0918 13.04118,-0.74439 z m 0.89045,-18.55084 c 0.68057,-1.37162 0.86197,-3.27628 0.42464,-4.45851 -0.74447,-2.0125 -1.38252,-2.06187 -25.60339,-1.98101 -24.4604,0.0817 -24.86756,0.1171 -26.6508,2.3193 -3.82155,4.71942 -2.92505,4.95188 21.1646,5.48802 10.59284,0.23576 19.52753,0.69647 19.85487,1.02381 0.32734,0.32735 2.62619,0.46193 5.10856,0.29907 3.60279,-0.23636 4.7531,-0.77922 5.70152,-2.69068 z m -1.1402,-10.10552 c 2.39557,-0.91079 2.59668,-1.40306 2.25222,-5.51288 -0.20803,-2.48203 -0.82764,-4.96219 -1.37691,-5.51146 -0.54927,-0.54927 -8.39598,-1.25803 -17.43712,-1.57502 C 376.8973,374.08355 368.6,373.78353 367.5,373.73382 c -6.136,-0.27729 -7.27654,0.24267 -8.80951,4.01618 -1.1603,2.85617 -1.24538,4.0269 -0.35695,4.9117 1.02726,1.02307 23.82612,3.58744 33.85882,3.80838 2.0308,0.0447 4.0183,0.40725 4.41667,0.80561 0.99193,0.99194 2.7766,0.90839 5.89122,-0.27579 z M 358.8847,234.89431 c 3.63842,-0.60813 7.5153,-1.48396 8.6153,-1.94628 1.1,-0.46233 5.375,-1.58229 9.5,-2.4888 7.35045,-1.61535 11.50182,-2.82107 15.5,-4.50183 1.1,-0.46242 4.025,-1.27503 6.5,-1.80581 2.475,-0.53077 6.975,-1.94737 10,-3.148 3.025,-1.20063 7.75,-2.86845 10.5,-3.70626 2.75,-0.83781 5.675,-1.93366 6.5,-2.43521 0.825,-0.50156 3.4499,-1.83832 5.83311,-2.97058 2.38321,-1.13226 4.09174,-2.30003 3.79673,-2.59504 -0.29501,-0.29501 -8.91459,0.0223 -19.15462,0.70515 -16.05985,1.07093 -44.39932,0.78133 -46.43127,-0.47449 -0.33023,-0.20409 -4.41272,-0.86619 -9.07219,-1.47133 C 356.31229,207.4507 350.475,206.55606 348,206.06775 c -14.18186,-2.79802 -16.68269,-3.3524 -18.5,-4.10104 -1.1,-0.45314 -4.25,-1.47132 -7,-2.26261 -2.75,-0.7913 -7.61554,-2.20526 -10.8123,-3.14215 -6.42622,-1.88335 -9.27131,-0.97609 -8.13787,2.59506 0.32725,1.03105 0.77011,3.78002 0.98415,6.10882 0.73134,7.95733 3.21177,16.82711 5.10416,18.252 4.38867,3.30448 16.99429,8.27175 23.36186,9.20578 1.925,0.28237 4.04091,0.94725 4.70201,1.47751 0.66111,0.53027 2.05839,0.69231 3.10507,0.36011 1.04668,-0.3322 2.98078,-0.17291 4.29799,0.35399 3.22645,1.29063 5.95757,1.28648 13.77963,-0.0209 z M 255.56998,748.32177 c -0.83656,-2.18005 2.36562,-12.35983 4.09693,-13.02419 0.73334,-0.28141 1.33309,-1.97737 1.33309,-3.76971 0,-1.79198 0.9,-4.40232 2,-5.80074 1.1,-1.39842 2,-3.23255 2,-4.07584 0,-0.84329 0.45,-1.81137 1,-2.15129 0.55,-0.33992 1,-1.5056 1,-2.5904 0,-1.0848 0.675,-2.23139 1.5,-2.54797 0.825,-0.31659 1.5,-1.70369 1.5,-3.08246 0,-2.46187 3.77779,-10.45819 5.25,-11.1125 0.4125,-0.18334 0.75,-0.865 0.75,-1.51481 0,-1.51899 3.76754,-8.56226 5.51459,-10.3093 1.10564,-1.10564 3.13959,-5.89218 5.98839,-14.09256 0.23884,-0.6875 0.89837,-1.25 1.46564,-1.25 0.56726,0 1.03138,-0.60526 1.03138,-1.34501 0,-0.73976 0.9,-2.1595 2,-3.15499 1.1,-0.99549 2,-2.60809 2,-3.58356 0,-0.97547 0.675,-2.44858 1.5,-3.27358 0.825,-0.825 1.5,-1.9124 1.5,-2.41644 0,-0.50405 0.9,-1.73093 2,-2.72642 1.1,-0.99549 2,-2.7651 2,-3.93248 0,-2.04419 2.0116,-5.62773 4.70908,-8.38895 0.71,-0.72678 1.29092,-1.96428 1.29092,-2.75 0,-0.78571 0.34377,-1.42857 0.76393,-1.42857 0.42016,0 1.8764,-1.8 3.23607,-4 1.35967,-2.2 2.76342,-4 3.11944,-4 0.35601,0 0.93197,-0.7875 1.27991,-1.75 0.9503,-2.62882 3.09259,-6.08049 5.47317,-8.8184 1.17011,-1.34575 2.12748,-3.36384 2.12748,-4.48466 0,-1.12082 1.05237,-3.09022 2.3386,-4.37645 1.28623,-1.28623 3.28293,-4.15035 4.43713,-6.36472 C 332.6165,600.75563 338.97598,592 340.09381,592 340.59221,592 341,591.56552 341,591.03448 c 0,-0.53104 1.2375,-2.27754 2.75,-3.88113 4.3249,-4.58534 10.71069,-12.35414 11.14463,-13.55828 0.21704,-0.60229 1.67954,-2.26021 3.25,-3.68427 C 359.71508,568.48674 361,566.79924 361,566.1608 361,565.52236 361.36513,565 361.81141,565 363.26429,565 382,545.40529 382,543.8858 c 0,-0.45894 1.4625,-1.57948 3.25,-2.49008 1.7875,-0.91061 3.925,-2.26979 4.75,-3.02042 0.825,-0.75063 2.9219,-2.49798 4.65977,-3.88301 2.86059,-2.27979 3.11074,-2.33074 2.64194,-0.53802 -0.28481,1.08912 -1.14421,2.50005 -1.90977,3.13542 -0.76557,0.63536 -1.39194,1.66406 -1.39194,2.286 0,0.62194 -1.28992,2.34828 -2.86648,3.8363 -1.57657,1.48803 -3.5725,4.19332 -4.43541,6.01176 -0.8629,1.81844 -2.73013,4.39715 -4.14938,5.73047 -1.41926,1.33333 -3.75232,4.47658 -5.18457,6.985 -1.43225,2.50843 -3.68604,5.68578 -5.00842,7.06078 -3.15913,3.28485 -6.98887,8.75595 -8.767,12.52441 -0.78489,1.66342 -3.03844,4.73296 -5.0079,6.8212 -1.96946,2.08824 -3.58084,4.35801 -3.58084,5.04394 0,0.68593 -1.57465,3.01639 -3.49922,5.1788 -1.92457,2.16241 -3.49957,4.67101 -3.5,5.57466 -4.3e-4,0.90366 -0.67578,1.90203 -1.50078,2.21862 -0.825,0.31658 -1.5,1.45758 -1.5,2.53556 0,1.07797 -0.675,2.63495 -1.5,3.45995 -0.825,0.825 -1.5,1.79812 -1.5,2.16248 0,0.36437 -1.8,3.22856 -4,6.36488 -2.2,3.13631 -4,6.17559 -4,6.75396 0,0.57836 -0.94939,1.90881 -2.10976,2.95655 -1.16038,1.04775 -3.00993,3.81749 -4.11013,6.15499 -1.1002,2.3375 -2.40081,4.25 -2.89024,4.25 -0.48943,0 -0.88987,0.8449 -0.88987,1.87756 0,1.03265 -0.60101,2.37634 -1.33557,2.98598 -0.73457,0.60963 -2.38032,3.13973 -3.65722,5.62244 C 317.7303,653.96869 316.30631,656 315.84278,656 315.37925,656 315,656.87448 315,657.9433 c 0,1.06881 -0.83544,2.53131 -1.85654,3.25 -1.0211,0.71868 -2.17642,2.3192 -2.56739,3.5567 -0.39096,1.2375 -1.13052,2.25 -1.64346,2.25 C 308.41968,667 308,667.59048 308,668.31217 308,670.39235 304.05528,678 302.97666,678 302.4395,678 302,678.66371 302,679.47492 c 0,0.8112 -1.575,4.39193 -3.5,7.95717 -1.925,3.56525 -3.5,7.40154 -3.5,8.52509 0,1.12355 -0.45,2.04282 -1,2.04282 -0.55,0 -1,1.16713 -1,2.59362 0,1.7272 -0.64904,2.76335 -1.94288,3.10169 -1.12975,0.29544 -2.2093,1.72107 -2.57946,3.40638 C 288.12755,708.69576 287.49908,710 287.08106,710 285.79045,710 284,714.91839 284,718.46372 c 0,1.85329 -0.44523,3.51961 -0.98939,3.70295 C 282.46644,722.35 280.85254,727 279.42416,732.5 c -1.42838,5.5 -2.9461,10.45 -3.37272,11 -0.42661,0.55 -1.07129,2.2375 -1.4326,3.75 -0.65552,2.74405 -0.67615,2.75 -9.5309,2.75 -7.38434,0 -8.98207,-0.28172 -9.51796,-1.67823 z m 36.89841,-3.02553 c 0.39014,-2.63793 1.23185,-5.47124 1.87048,-6.29624 0.63862,-0.825 1.76595,-2.57415 2.50517,-3.88701 0.73921,-1.31285 2.20171,-3.91404 3.25,-5.78041 C 301.14232,727.4662 302,725.05285 302,723.96958 302,722.88631 302.37308,722 302.82906,722 c 0.45599,0 1.88291,-2.25 3.17094,-5 1.28803,-2.75 2.68463,-5 3.10355,-5 0.41892,0 1.05717,-1.0125 1.41834,-2.25 1.20292,-4.12174 2.95712,-7.75 3.74697,-7.75 0.42935,0 1.20837,-1.125 1.73114,-2.5 0.52277,-1.375 1.36285,-2.5 1.86684,-2.5 0.50399,0 1.20864,-1.16461 1.56589,-2.58801 0.35726,-1.42341 1.76101,-3.78591 3.11945,-5.25 1.35844,-1.4641 2.72025,-3.44949 3.02624,-4.41199 0.306,-0.9625 0.97603,-1.75 1.48897,-1.75 0.51293,0 0.93261,-0.675 0.93261,-1.5 0,-0.825 0.45,-1.5 1,-1.5 0.55,0 1,-0.68912 1,-1.53138 0,-0.84227 0.675,-1.79041 1.5,-2.10699 0.825,-0.31659 1.5,-1.20345 1.5,-1.97081 0,-0.76736 1.50982,-2.85671 3.35515,-4.64301 1.84533,-1.78629 3.98018,-4.71031 4.74411,-6.49781 0.76393,-1.7875 1.7507,-3.25 2.19282,-3.25 1.10593,0 5.09417,-4.6425 8.37595,-9.75 1.50194,-2.3375 3.28574,-4.25 3.964,-4.25 0.67826,0 1.48516,-0.79388 1.79312,-1.76418 0.68156,-2.14741 9.59304,-11.06541 19.96458,-19.97921 1.43565,-1.23386 2.61027,-2.92136 2.61027,-3.75 0,-0.82863 0.40241,-1.50661 0.89424,-1.50661 0.49184,0 2.2799,-1.29439 3.97348,-2.87643 1.69358,-1.58204 3.97692,-3.11119 5.07409,-3.3981 1.96895,-0.51489 1.96761,-0.46778 -0.10358,3.62643 -1.15415,2.28145 -2.7149,4.50796 -3.46834,4.94779 -0.75344,0.43983 -1.36989,1.37438 -1.36989,2.07678 0,0.70239 -2.025,3.48272 -4.5,6.17851 -2.475,2.69579 -4.5,5.44341 -4.5,6.10584 0,0.66242 -0.9,1.49005 -2,1.83918 -1.1,0.34913 -2,1.25393 -2,2.01068 0,0.75675 -0.79532,1.96393 -1.76738,2.68262 -0.97206,0.71868 -2.49934,2.4317 -3.39396,3.8067 -0.89462,1.375 -3.05604,4.075 -4.80317,6 -1.74713,1.925 -4.12496,5.1826 -5.28407,7.23911 -1.1591,2.05652 -2.85808,3.97736 -3.7755,4.26853 -0.91742,0.29118 -2.27072,2.35558 -3.00734,4.58757 -0.73662,2.23198 -2.8309,5.68658 -4.65395,7.67689 -1.82304,1.9903 -3.3224,4.0933 -3.33191,4.67332 -0.009,0.58002 -1.16827,2.14682 -2.57505,3.48178 -1.40678,1.33495 -3.87751,4.93495 -5.49051,8 -3.96408,7.53256 -5.13718,9.32956 -7.02934,10.76776 -0.8867,0.67396 -2.17871,2.70581 -2.87113,4.51521 -2.10642,5.50443 -6.47067,13.78493 -7.26669,13.78745 -0.4125,10e-4 -0.75,0.48452 -0.75,1.07381 0,0.58928 -0.675,1.74643 -1.5,2.57143 -0.825,0.825 -1.5,2.51269 -1.5,3.75043 0,2.95152 -2.92741,11.69729 -4.55448,13.60671 -0.70301,0.825 -1.42834,2.85 -1.61186,4.5 l -0.33366,3 -7.37048,0.29624 -7.37048,0.29624 z"
       id="path3067"
       inkscape:connector-curvature="0"
       sodipodi:nodetypes="sssssscsscssssssssscssssssssssssssssssssssssssssssscssssssssssssssssscssssssccssssssccssscscsssssssssssssssssssssssssssssssscsssssssccsscssscsssscccssssscssscssssssssssssssssscsssssssssssscscssscssssssssssssssssssscssssscscssssssssssssssssssssssssssssscssssssscsssssssssssssssssssssscsscsssssssssssssssscscsscsssssssscscssssssssscscsssssssssssssssscssssssssssssssssssscsssscssssssssssscsssssssssscsscssscsssssssscscssssssssssscssscsssccssssssssscsscsssscsssssccssssscsssssssssccscsssssssssssssssssssssssccssssssssscsssssssssssssssssssssssscsssssssscssssssssssssssssssssscssssssssssssssssscssssssssssssssssssssssssssssssssssssssssssssssssssscsssscssssscccs" />
    <path
       style="fill:#080a14"
       d="m 121.53034,746.25 c 5.36391,-27.59185 16.48235,-52.95755 27.82175,-78.31528 21.55987,-33.24907 -38.65512,-20.54292 -56.325152,-32.52322 -6.697967,-24.21591 41.804022,-3.01025 58.016642,-4.63952 24.31981,3.21775 62.07086,16.20318 64.92249,-20.8277 4.75054,-18.4034 32.36342,-49.15718 18.64867,-60.90831 -41.67712,-3.0096 -84.98967,-8.4508 -122.60103,-27.58706 -3.58359,-17.6786 5.12517,-36.41592 26.07932,-21.08349 38.28774,12.31523 76.88798,23.91527 116.1291,32.99155 12.94933,-21.16915 15.47552,-47.15019 26.6704,-69.30353 13.73034,-26.90528 -39.59325,-17.78252 -55.18706,-28.16055 -31.53436,-9.1954 -65.13129,-16.33381 -93.71575,-32.13111 -1.01998,-19.94398 4.37875,-32.64834 23.69681,-17.66366 48.24782,16.79192 95.76675,36.9181 146.06012,46.90188 20.54295,-16.84403 34.75125,-42.94959 45.12324,-67.675 18.16782,-22.00685 1.49295,-37.95083 -17.28487,-50.39915 -16.58289,-15.54803 -22.7187,-48.98256 -30.72038,-58.44123 -3.09658,-21.8835 -17.43827,-55.7062 -4.15903,-71.86732 26.43745,1.10761 50.11077,12.25371 76.29439,12.96948 35.37644,3.68335 71.42638,0.85193 105.13795,-9.85945 18.37602,-5.03155 34.81247,1.06616 8.82429,10.02501 -31.68317,16.48205 -65.75427,28.69453 -100.07603,37.17962 -19.95774,11.4122 -57.3025,3.94522 -68.59663,21.68345 2.16286,32.11774 36.23493,20.82682 57.36589,14.27291 23.74515,-3.07408 52.9427,-22.04033 72.17774,-20.90569 -21.22344,8.35178 -42.55269,20.69234 -64.89302,28.05529 -15.36135,8.22058 -63.42885,3.61426 -37.0786,30.80409 5.56121,13.3337 25.96252,25.2993 24.29092,45.90812 11.95176,9.25621 41.60938,16.56713 40.11039,-7.72816 10.13073,-22.75736 46.09556,-8.39477 54.86991,-36.99846 17.88316,-18.34809 30.52515,-40.26269 43.8382,-61.78519 -16.72048,-1.41385 -33.27891,30.40402 -51.20604,39.55238 -21.46788,12.4931 -44.24265,29.0183 -68.6839,31.76226 21.99857,-12.39595 45.38439,-25.43798 66.16893,-38.21524 13.27482,-18.09573 38.84646,-34.76113 55.7154,-53.7241 15.02876,-8.4655 21.13619,-45.34598 37.55365,-39.11362 -4.92799,23.01295 -16.62567,42.1894 -27.94709,62.50748 -14.75329,24.53959 -27.15064,50.83354 -47.46698,71.80605 -13.17158,15.7342 37.54151,6.35503 46.52378,11.90088 15.43715,-19.22389 30.11184,-40.30645 40.37124,-63.17413 9.21511,-23.06761 25.40383,-43.23172 31.0318,-67.97811 1.13344,-16.8863 14.33149,-18.72796 6.87538,-0.20435 -6.57166,31.38655 -25.20273,57.96473 -36.2712,87.62805 -7.80519,23.54429 -44.02901,47.49044 -34.02992,69.91139 41.2087,-5.65196 82.18477,-12.77493 122.59338,-22.61502 9.01633,13.1887 22.5776,-13.56279 15.99655,5.07695 -25.63106,9.32534 -55.93851,12.86583 -79.90487,21.26526 25.83932,1.34954 51.95916,-1.05437 77.27569,-6.41245 12.09867,-1.66458 18.4336,19.17598 -1.82681,14.5482 -27.69794,3.0497 -55.7365,2.11127 -83.39182,4.55124 12.95052,20.96014 22.77326,45.28073 52.70731,33.64541 14.08983,1.75634 56.92804,-15.87169 51.93174,3.01611 -27.17223,4.25446 -55.0108,5.37917 -81.81524,11.31253 -7.97416,28.22695 -41.26555,27.45832 -55.60488,4.76948 -15.34529,-9.84617 -31.32368,1.13199 -28.00443,20.43739 -21.49186,19.67606 -56.13031,4.87449 -83.20936,9.74198 -13.04905,-2.98934 -19.98468,7.3709 -27.82278,15.5285 -20.9525,22.21849 -37.88395,47.82049 -58.58664,70.3452 -24.76812,30.62508 -49.23606,61.6453 -68.1189,96.39925 -22.82493,32.78941 -41.39452,69.0426 -54.89353,106.31376 -34.626,6.84215 0.50131,-42.87925 5.81853,-57.4418 3.81162,-13.00868 17.15891,-27.36319 23.03286,-42.17992 18.89285,-24.776 31.50968,-53.68668 52.67865,-76.96496 28.78568,-33.43111 56.63743,-67.59186 85.64057,-100.83548 27.7338,-12.28578 15.26286,-52.95764 -15.13062,-41.56857 -28.28466,-0.7638 -43.28155,31.48864 -64.8511,46.05656 -25.16566,17.59666 -29.30067,47.93862 -43.64212,72.26669 -21.26026,12.52897 -18.72316,45.33685 -31.46424,65.89759 -6.76359,25.74768 -27.17636,50.61224 -56.70855,39.20102 -17.93466,14.69507 -24.20607,42.68685 -34.30545,64.08433 -2.46232,9.21712 -10.96657,48.67684 -22.46966,28.91349 z M 307.20846,460 c 16.49721,-21.66284 -23.24762,6.41991 -7.09757,6.30654 l 3.36815,-2.59774 3.72942,-3.7088 0,0 z M 446,447.98603 c 20.68202,-4.04529 67.00523,14.41857 61.90269,-21.27335 -3.24787,-26.55719 6.60276,-57.16617 -2.87981,-81.18961 -27.79094,-0.74739 -59.01367,-4.09736 -85.19974,2.18197 -7.01149,30.43485 -2.79025,61.95163 -2.9469,92.93682 2.58766,12.79136 20.23103,5.69141 29.12376,7.34417 z m -9.76454,-8.94269 c -19.67219,-17.05419 -11.79419,-48.53298 -8.98546,-71.62667 8.99754,-23.22253 54.94377,-16.96516 71.56652,-5.4977 -1.61576,23.96872 4.77559,51.70442 -5.0368,73.28767 -15.85011,8.71229 -39.68372,2.28828 -57.54426,3.8367 z m 49.52024,-12.46571 c -3.41825,-18.98595 4.28038,-51.2363 -8.19788,-61.08065 -19.24927,-4.31917 -55.35018,-1.34057 -32.99112,23.71379 21.56884,7.47698 -17.80422,15.84109 -8.095,33.96781 8.84122,8.71153 35.86087,2.36521 49.284,3.39905 z M 326,442 c 15.65132,-6.3879 12.87373,-20.31759 0.21322,-5.12428 C 325.28806,438.94263 318.48287,450.27797 326,442 z m 252.33595,-6.13256 c 23.32519,-18.75196 -7.87448,-50.33357 -28.76882,-55.6217 -17.74851,-7.71243 -37.73176,-6.78576 -26.0278,16.96706 -3.30559,27.19908 34.19966,16.87172 42.77576,40.09 l 6.27293,0.39916 5.74793,-1.83452 0,0 z M 404.05557,414.98689 c 4.22238,-17.53236 -25.26216,-4.11338 -34.84605,-8.02 -12.94511,-3.33877 -42.78658,7.52714 -14.32346,8.67026 16.27536,-0.81838 33.45391,2.96323 49.16951,-0.65026 z m -0.0908,-16.92115 c 3.54391,-17.14564 -67.35634,-8.38768 -46.74352,-0.13338 15.2717,-0.82574 32.56657,4.11611 46.74352,0.13338 z m -0.89908,-11.10092 c 8.56466,-19.08243 -36.74398,-17.74787 -44.68563,-9.29007 -1.59525,12.23636 35.60719,7.29751 44.68563,9.29007 z M 362,234.55081 c 20.04048,-2.37371 46.30539,-15.70855 61.36163,-16.05081 35.1178,-19.17829 -22.58852,-5.60138 -35.8471,-9.47649 -28.05924,-0.64291 -55.59132,-6.87966 -82.23765,-15.33894 -15.80505,28.59654 28.62056,46.97964 52.89826,41.70344 l 3.82486,-0.8372 0,0 z M 155.81972,434.25 c -12.85045,-6.55084 -22.88534,-25.38202 -6.99706,-8.45769 -0.0413,0.24631 16.96398,14.44502 6.99706,8.45769 z"
       id="path3065"
       inkscape:connector-curvature="0" />
  </g>
</svg>
