<?xml version="1.0" encoding="UTF-8" standalone="no"?>
<!-- Created with Inkscape (http://www.inkscape.org/) -->

<svg
   xmlns:dc="http://purl.org/dc/elements/1.1/"
   xmlns:cc="http://creativecommons.org/ns#"
   xmlns:rdf="http://www.w3.org/1999/02/22-rdf-syntax-ns#"
   xmlns:svg="http://www.w3.org/2000/svg"
   xmlns="http://www.w3.org/2000/svg"
   xmlns:sodipodi="http://sodipodi.sourceforge.net/DTD/sodipodi-0.dtd"
   xmlns:inkscape="http://www.inkscape.org/namespaces/inkscape"
   width="1024"
   height="1024"
   id="svg3048"
   version="1.1"
   inkscape:version="0.48.4 r9939"
   sodipodi:docname="Prince Leia Slave Torso.svg">
  <defs
     id="defs3050" />
  <sodipodi:namedview
     id="base"
     pagecolor="#ffffff"
     bordercolor="#666666"
     borderopacity="1.0"
     inkscape:pageopacity="0.0"
     inkscape:pageshadow="2"
     inkscape:zoom="0.35"
     inkscape:cx="172.23842"
     inkscape:cy="552.40916"
     inkscape:document-units="px"
     inkscape:current-layer="layer1"
     showgrid="false"
     inkscape:window-width="1024"
     inkscape:window-height="705"
     inkscape:window-x="-8"
     inkscape:window-y="-8"
     inkscape:window-maximized="1" />
  <metadata
     id="metadata3053">
    <rdf:RDF>
      <cc:Work
         rdf:about="">
        <dc:format>image/svg+xml</dc:format>
        <dc:type
           rdf:resource="http://purl.org/dc/dcmitype/StillImage" />
        <dc:title></dc:title>
      </cc:Work>
    </rdf:RDF>
  </metadata>
  <g
     inkscape:label="Layer 1"
     inkscape:groupmode="layer"
     id="layer1"
     transform="translate(0,-28.362183)">
    <g
       id="g3263"
       transform="matrix(2.9486492,0,0,2.9486492,-645.88569,-296.92212)">
      <path
         inkscape:connector-curvature="0"
         id="path3067"
         d="m 540.43161,337.17418 c 0,0 0.50508,33.84011 -8.08122,45.96194 -8.58629,12.12183 2.52538,46.46702 7.07107,51.0127 4.54569,4.54569 15.65736,11.11168 16.66752,16.16245 0,0 2.0203,-3.03046 1.51523,-16.16245 -0.50508,-13.13198 -12.12184,-84.85281 -17.1726,-96.97464 z"
         style="fill:#d97a35;fill-opacity:1;stroke:#d97a35;stroke-width:1px;stroke-linecap:butt;stroke-linejoin:miter;stroke-opacity:1" />
      <path
         transform="matrix(0.69779018,0,0,1.4977902,120.1629,-209.32664)"
         d="m 395.97981,420.51178 c 0,2.78946 -2.2613,5.05076 -5.05076,5.05076 -2.78946,0 -5.05077,-2.2613 -5.05077,-5.05076 0,-2.78946 2.26131,-5.05076 5.05077,-5.05076 2.78946,0 5.05076,2.2613 5.05076,5.05076 z"
         sodipodi:ry="5.0507627"
         sodipodi:rx="5.0507627"
         sodipodi:cy="420.51178"
         sodipodi:cx="390.92905"
         id="path3069"
         style="fill:#d97a35;fill-opacity:1;stroke:#d97a35;stroke-opacity:1"
         sodipodi:type="arc" />
      <path
         inkscape:connector-curvature="0"
         id="path3205"
         d="m 352.85714,218.07647 2.85715,31.07143 2.14285,22.85714 17.5,23.21428 24.28572,10.35715 18.21428,-8.92857 18.92857,-18.21429 7.14286,-32.5 -0.71428,-33.92857 -3.92858,-17.14286 3.21429,-8.21428 11.42857,6.42857 -6.07143,10 4.64286,19.64285 10.71429,11.42858 20.35714,7.85714 11.78571,0 4.28572,13.92857 5.71428,5.71429 19.28572,-1.07143 9.64286,10 1.78571,17.5 -5,25 -6.42857,23.92857 -11.78572,7.14286 -33.57142,8.92857 -21.07143,1.78571 -21.07143,-6.78571 L 421.78571,335.21932 407.5,316.6479 l -17.14286,0.71428 -16.78571,23.21429 -36.07143,15 -36.42857,-8.21429 -23.21429,-7.85714 -10,-20.35714 -5,-37.5 5.35715,-19.28572 16.42857,-0.35714 13.21428,-2.85714 3.57143,-18.57143 23.92857,-2.5 16.07143,-8.92857 10.35714,-14.28572 -5.71428,-22.85714 7.14286,-5 7.14285,9.64286 z"
         style="fill:#b58d68;fill-opacity:1;stroke:#b58d68;stroke-width:1px;stroke-linecap:butt;stroke-linejoin:miter;stroke-opacity:1" />
      <path
         sodipodi:nodetypes="csccsscccc"
         inkscape:connector-curvature="0"
         id="path3073"
         d="m 381,251.625 c -1.45111,0.21253 1.21651,4.70759 6.40625,18.9375 5.53571,15.17857 -1.78125,30.1875 -1.78125,30.1875 9.35888,5.32013 20.5744,5.76218 25.3437,0 0,0 -7.31696,-15.00893 -1.78125,-30.1875 5.53572,-15.17857 8.20536,-19.2634 6.0625,-18.90625 -2.1334,0.35556 -16.4585,29.75472 -16.9375,33.51339 -0.46637,-3.73928 -14.83436,-33.15766 -16.96875,-33.51339 -0.13393,-0.0223 -0.24701,-0.0454 -0.34375,-0.0312 z"
         style="fill:#d97a35;fill-opacity:1;stroke:#d97a35;stroke-width:1px;stroke-linecap:butt;stroke-linejoin:miter;stroke-opacity:1" />
      <path
         inkscape:connector-curvature="0"
         id="path3067-0"
         d="m 244.93525,337.17409 c 0,0 -0.50508,33.84011 8.08122,45.96194 8.58629,12.12183 -2.52538,46.46702 -7.07107,51.0127 -4.54569,4.54569 -15.65736,11.11168 -16.66752,16.16245 0,0 -2.0203,-3.03046 -1.51523,-16.16245 0.50508,-13.13198 12.12184,-84.85281 17.1726,-96.97464 z"
         style="fill:#d97a35;fill-opacity:1;stroke:#d97a35;stroke-width:1px;stroke-linecap:butt;stroke-linejoin:miter;stroke-opacity:1" />
      <path
         inkscape:connector-curvature="0"
         id="path3115"
         d="m 414.10714,310.75504 c 0,0 21.42858,0 27.32143,5.71428 5.89286,5.71429 -0.17857,-6.07142 -7.5,-7.85714 0,0 -3.21428,-0.17857 -1.07143,-2.32143 C 435,304.1479 450,293.25504 452.67857,266.6479 c 0,0 -1.07143,-6.07143 -3.03571,0.35714 -1.96429,6.42857 -10.35714,34.10714 -24.64286,39.10714 0,0 -4.46429,3.21429 -10.89286,4.64286 z"
         style="fill:#000000;stroke:#000000;stroke-width:1px;stroke-linecap:butt;stroke-linejoin:miter;stroke-opacity:1" />
      <path
         inkscape:connector-curvature="0"
         id="path3119"
         d="m 448.92857,316.46932 c 0,0 23.57143,18.39286 36.42857,16.07143 12.85715,-2.32143 18.39286,-20.53571 10.53572,-25.89285 -7.85714,-5.35715 -9.10714,-4.82143 -12.32143,-4.10715 -3.21429,0.71429 1.42857,-4.46428 7.14286,-3.75 5.71428,0.71429 15.71428,5 14.10714,15.89286 -1.60714,10.89286 -0.17857,17.32143 -13.03571,23.57143 -12.85715,6.25 -37.67858,-12.32143 -39.10715,-13.75 -1.42857,-1.42857 -7.67857,-8.57143 -3.75,-8.03572 z"
         style="fill:#000000;stroke:#000000;stroke-width:1px;stroke-linecap:butt;stroke-linejoin:miter;stroke-opacity:1" />
      <path
         sodipodi:nodetypes="cssssssssssc"
         inkscape:connector-curvature="0"
         id="path3121"
         d="m 475.35714,282.8979 c 0,0 -8.03571,2.67857 -6.78571,4.28571 1.25,1.60714 21.25,4.28571 28.39286,4.28571 7.14285,0 21.60714,6.42858 15.53571,23.21429 -6.07143,16.78571 -6.07143,15.35714 -6.96428,18.03571 -0.89286,2.67858 0,5.53572 1.78571,4.82143 1.78571,-0.71428 16.07143,-24.46428 18.57143,-35.89285 2.5,-11.42858 3.75,-22.5 2.14286,-21.25 -1.60715,1.25 -5,23.03571 -6.96429,25.89285 -1.96429,2.85715 -1.25,-0.17857 -3.03571,-7.14285 -1.78572,-6.96429 -12.85715,-11.25001 -24.10714,-11.42858 -15.17666,-0.2409 -17.85715,0.17858 -18.57144,-4.82142 z"
         style="fill:#000000;stroke:#000000;stroke-width:1px;stroke-linecap:butt;stroke-linejoin:miter;stroke-opacity:1" />
      <path
         id="path3113"
         d="M 464.5,175.40625 C 461.92214,175.09236 457.72767,182 455.71875,182 c -2.14286,0 -15.73214,-1.79018 -17.875,9.28125 -2.14285,11.07143 8.94196,47.51785 2.15625,65.375 0,0 -0.91933,36.64733 -40.5622,46.46875 l 0.20431,4.40625 c 0,0 36.24628,-7.85268 44.63914,-40.53125 0,0 3.21428,-34.63393 2.5,-39.8125 -0.71429,-5.17857 3.58928,-3.21875 5.375,-0.71875 1.78571,2.5 19.09375,20.17858 37.84375,18.75 0,0 4.47322,-1.62054 5.1875,5.34375 0.71429,6.96428 5,13.5759 12.5,14.46875 7.5,0.89286 16.24107,-2.3259 18.5625,0.53125 2.32143,2.85714 8.58482,6.08036 5.90625,20.1875 -2.67857,14.10714 -5.54911,42.69196 -10.90625,48.40625 -5.35714,5.71428 -18.58482,11.60714 -30.90625,11.25 -12.32142,-0.35715 -26.0625,-5.18304 -36.0625,-11.96875 -10,-6.78571 -20.17411,-16.4375 -31.78125,-17.6875 -11.60714,-1.25 -23.22954,-1.59375 -23.22954,-1.59375 l 0.4843,6.0625 c 0,0 5.94614,-1.0625 8.08899,1.4375 2.14286,2.5 7.875,14.28125 7.875,14.28125 11.78571,12.5 39.64732,19.81697 45.71875,20.53125 6.07143,0.71429 25.94643,-1.65625 29.875,-4.15625 3.92857,-2.5 16.93874,-2.62126 28.78125,-10.03125 10.77557,-6.74238 12.39286,-23.14285 17.75,-48.5 5.35715,-25.35714 -4.625,-32.85714 -9.625,-35 -5,-2.14285 -17.875,1.42857 -22.875,0 -5,-1.42857 -3.92411,-15.35268 -6.78125,-19.28125 -2.85714,-3.92857 -17.48214,-0.70536 -32.125,-6.0625 C 451.79465,228.08036 450,202.71875 450,202.71875 c 0,0 8.9241,-6.44197 6.78125,-12.15625 -2.14286,-5.71429 10.71875,-13.57143 8.21875,-15 -0.15625,-0.0893 -0.32814,-0.13532 -0.5,-0.15625 z m -17.625,16.4375 c 0,0 5.04569,6.93623 0.5,7.0625 -4.54569,0.12627 -7.95526,0.62293 -6.1875,-2.28125 1.76777,-2.90419 2.15197,-4.27617 5.6875,-4.78125 z M 413.71875,320.1875 c 0.60496,-0.14174 2.3957,0.8125 5,0.8125 3.78807,0 13.62484,2.79886 22.96875,10.375 9.34391,7.57615 26.78125,14.375 26.78125,14.375 13.38452,5.3033 0.5,5.3125 0.5,5.3125 -34.85026,3.53553 -55.3125,-29.8125 -55.3125,-29.8125 -0.23675,-0.71026 -0.21248,-0.99807 0.0625,-1.0625 z"
         style="fill:#000000;stroke:#000000;stroke-width:1px;stroke-linecap:butt;stroke-linejoin:miter;stroke-opacity:1"
         inkscape:connector-curvature="0"
         sodipodi:nodetypes="cssccccsscssssssssccscsssssssscscccssccsscccc" />
      <path
         inkscape:connector-curvature="0"
         id="path3123"
         d="m 483.03572,281.6479 c 0,0 13.39285,0 12.5,-12.67858 0,0 -1.96429,-6.96428 2.67857,-1.96428 4.64285,5 13.57143,5.89286 20.89285,5.71428 0,0 3.03572,2.32143 -0.71428,2.5 -3.75,0.17858 -15.89286,0.53572 -18.03572,-0.71428 0,0 -1.96428,-0.35714 -2.32142,1.78571 -0.35715,2.14286 -6.96429,7.5 -11.42858,7.14286 -4.46428,-0.35714 -5.71427,-0.35713 -3.57142,-1.78571 z"
         style="fill:#000000;stroke:#000000;stroke-width:1px;stroke-linecap:butt;stroke-linejoin:miter;stroke-opacity:1" />
      <path
         inkscape:connector-curvature="0"
         id="path3125"
         d="m 456.42857,289.50504 c 0,0 -6.42857,-15 28.57143,-19.46429 0,0 2.67857,-2.5 -10,-7.5 0,0 -3.39286,1.96429 0.53572,3.57143 3.92857,1.60714 4.46428,3.39286 1.07142,3.21429 -3.39285,-0.17857 -13.57142,-1.96429 -20.89285,9.46428 -7.32143,11.42857 -0.89287,11.78572 0.71428,10.71429 z"
         style="fill:#000000;stroke:#000000;stroke-width:1px;stroke-linecap:butt;stroke-linejoin:miter;stroke-opacity:1" />
      <path
         inkscape:connector-curvature="0"
         id="path3127"
         d="m 456.42857,239.32647 c 0,0 10.35715,21.07143 31.42857,19.46428 0,0 4.10715,-5.17857 1.07143,-6.78571 -3.03571,-1.60714 -1.25,0.71428 -3.92857,1.60714 -2.67857,0.89286 -11.60714,1.60714 -25.89286,-13.57143 -1.96429,-2.67857 -2.67857,-0.71428 -2.67857,-0.71428 z"
         style="fill:#000000;stroke:#000000;stroke-width:1px;stroke-linecap:butt;stroke-linejoin:miter;stroke-opacity:1" />
      <path
         inkscape:connector-curvature="0"
         id="path3115-8"
         d="m 383.98125,310.75541 c 0,0 -21.42858,0 -27.32143,5.71428 -5.89286,5.71429 0.17857,-6.07142 7.5,-7.85714 0,0 3.21428,-0.17857 1.07143,-2.32143 -2.14286,-2.14285 -17.14286,-13.03571 -19.82143,-39.64285 0,0 1.07143,-6.07143 3.03571,0.35714 1.96429,6.42857 10.35714,34.10714 24.64286,39.10714 0,0 4.46429,3.21429 10.89286,4.64286 z"
         style="fill:#000000;stroke:#000000;stroke-width:1px;stroke-linecap:butt;stroke-linejoin:miter;stroke-opacity:1" />
      <path
         inkscape:connector-curvature="0"
         id="path3119-6"
         d="m 349.15982,316.46969 c 0,0 -23.57143,18.39286 -36.42857,16.07143 -12.85715,-2.32143 -18.39286,-20.53571 -10.53572,-25.89285 7.85714,-5.35715 9.10714,-4.82143 12.32143,-4.10715 3.21429,0.71429 -1.42857,-4.46428 -7.14286,-3.75 -5.71428,0.71429 -15.71428,5 -14.10714,15.89286 1.60714,10.89286 0.17857,17.32143 13.03571,23.57143 12.85715,6.25 37.67858,-12.32143 39.10715,-13.75 1.42857,-1.42857 7.67857,-8.57143 3.75,-8.03572 z"
         style="fill:#000000;stroke:#000000;stroke-width:1px;stroke-linecap:butt;stroke-linejoin:miter;stroke-opacity:1" />
      <path
         sodipodi:nodetypes="cssssssssssc"
         inkscape:connector-curvature="0"
         id="path3121-5"
         d="m 322.73125,282.89827 c 0,0 8.03571,2.67857 6.78571,4.28571 -1.25,1.60714 -21.25,4.28571 -28.39286,4.28571 -7.14285,0 -21.60714,6.42858 -15.53571,23.21429 6.07143,16.78571 6.07143,15.35714 6.96428,18.03571 0.89286,2.67858 0,5.53572 -1.78571,4.82143 -1.78571,-0.71428 -16.07143,-24.46428 -18.57143,-35.89285 -2.5,-11.42858 -3.75,-22.5 -2.14286,-21.25 1.60715,1.25 5,23.03571 6.96429,25.89285 1.96429,2.85715 1.25,-0.17857 3.03571,-7.14285 1.78572,-6.96429 12.85715,-11.25001 24.10714,-11.42858 15.17666,-0.2409 17.85715,0.17858 18.57144,-4.82142 z"
         style="fill:#000000;stroke:#000000;stroke-width:1px;stroke-linecap:butt;stroke-linejoin:miter;stroke-opacity:1" />
      <path
         inkscape:connector-curvature="0"
         id="path3113-0"
         d="m 333.58839,175.40662 c 2.57786,-0.31389 6.77233,6.59375 8.78125,6.59375 2.14286,0 15.73214,-1.79018 17.875,9.28125 2.14285,11.07143 -8.94196,47.51785 -2.15625,65.375 0,0 1.07493,36.64733 40.7178,46.46875 l 0.14292,4.40625 c 0,0 -36.74911,-7.85268 -45.14197,-40.53125 0,0 -3.21428,-34.63393 -2.5,-39.8125 0.71429,-5.17857 -3.58928,-3.21875 -5.375,-0.71875 -1.78571,2.5 -19.09375,20.17858 -37.84375,18.75 0,0 -4.47322,-1.62054 -5.1875,5.34375 -0.71429,6.96428 -5,13.5759 -12.5,14.46875 -7.5,0.89286 -16.24107,-2.3259 -18.5625,0.53125 -2.32143,2.85714 -8.58482,6.08036 -5.90625,20.1875 2.67857,14.10714 5.54911,42.69196 10.90625,48.40625 5.35714,5.71428 18.58482,11.60714 30.90625,11.25 12.32142,-0.35715 26.0625,-5.18304 36.0625,-11.96875 10,-6.78571 20.17411,-16.4375 31.78125,-17.6875 11.60714,-1.25 22.7876,-1.59375 22.7876,-1.59375 l 0.43115,6.0625 c 0,0 -6.41965,-1.0625 -8.5625,1.4375 -2.14286,2.5 -7.875,14.28125 -7.875,14.28125 -11.78571,12.5 -39.64732,19.81697 -45.71875,20.53125 -6.07143,0.71429 -25.94643,-1.65625 -29.875,-4.15625 -3.92857,-2.5 -16.93874,-2.62126 -28.78125,-10.03125 -10.77557,-6.74238 -12.39286,-23.14285 -17.75,-48.5 -5.35715,-25.35714 4.625,-32.85714 9.625,-35 5,-2.14285 17.875,1.42857 22.875,0 5,-1.42857 3.92411,-15.35268 6.78125,-19.28125 2.85714,-3.92857 17.48214,-0.70536 32.125,-6.0625 14.64285,-5.35714 16.4375,-30.71875 16.4375,-30.71875 0,0 -8.9241,-6.44197 -6.78125,-12.15625 2.14286,-5.71429 -10.71875,-13.57143 -8.21875,-15 0.15625,-0.0893 0.32814,-0.13532 0.5,-0.15625 z m 17.625,16.4375 c 0,0 -5.04569,6.93623 -0.5,7.0625 4.54569,0.12627 7.95526,0.62293 6.1875,-2.28125 -1.76777,-2.90419 -2.15197,-4.27617 -5.6875,-4.78125 z m 33.15625,128.34375 c -0.60496,-0.14174 -2.3957,0.8125 -5,0.8125 -3.78807,0 -13.62484,2.79886 -22.96875,10.375 -9.34391,7.57615 -26.78125,14.375 -26.78125,14.375 -13.38452,5.3033 -0.5,5.3125 -0.5,5.3125 34.85026,3.53553 55.3125,-29.8125 55.3125,-29.8125 0.23675,-0.71026 0.21248,-0.99807 -0.0625,-1.0625 z"
         style="fill:#000000;stroke:#000000;stroke-width:1px;stroke-linecap:butt;stroke-linejoin:miter;stroke-opacity:1"
         sodipodi:nodetypes="cssccccsscssssssssccscsssssssscscccssccsscccc" />
      <path
         inkscape:connector-curvature="0"
         id="path3123-9"
         d="m 315.05267,281.64827 c 0,0 -13.39285,0 -12.5,-12.67858 0,0 1.96429,-6.96428 -2.67857,-1.96428 -4.64285,5 -13.57143,5.89286 -20.89285,5.71428 0,0 -3.03572,2.32143 0.71428,2.5 3.75,0.17858 15.89286,0.53572 18.03572,-0.71428 0,0 1.96428,-0.35714 2.32142,1.78571 0.35715,2.14286 6.96429,7.5 11.42858,7.14286 4.46428,-0.35714 5.71427,-0.35713 3.57142,-1.78571 z"
         style="fill:#000000;stroke:#000000;stroke-width:1px;stroke-linecap:butt;stroke-linejoin:miter;stroke-opacity:1" />
      <path
         inkscape:connector-curvature="0"
         id="path3125-0"
         d="m 341.65982,289.50541 c 0,0 6.42857,-15 -28.57143,-19.46429 0,0 -2.67857,-2.5 10,-7.5 0,0 3.39286,1.96429 -0.53572,3.57143 -3.92857,1.60714 -4.46428,3.39286 -1.07142,3.21429 3.39285,-0.17857 13.57142,-1.96429 20.89285,9.46428 7.32143,11.42857 0.89287,11.78572 -0.71428,10.71429 z"
         style="fill:#000000;stroke:#000000;stroke-width:1px;stroke-linecap:butt;stroke-linejoin:miter;stroke-opacity:1" />
      <path
         inkscape:connector-curvature="0"
         id="path3127-0"
         d="m 341.65982,239.32684 c 0,0 -10.35715,21.07143 -31.42857,19.46428 0,0 -4.10715,-5.17857 -1.07143,-6.78571 3.03571,-1.60714 1.25,0.71428 3.92857,1.60714 2.67857,0.89286 11.60714,1.60714 25.89286,-13.57143 1.96429,-2.67857 2.67857,-0.71428 2.67857,-0.71428 z"
         style="fill:#000000;stroke:#000000;stroke-width:1px;stroke-linecap:butt;stroke-linejoin:miter;stroke-opacity:1" />
    </g>
  </g>
</svg>
