<?xml version="1.0" encoding="UTF-8" standalone="no"?>
<!-- Created with Inkscape (http://www.inkscape.org/) -->

<svg
   xmlns:dc="http://purl.org/dc/elements/1.1/"
   xmlns:cc="http://creativecommons.org/ns#"
   xmlns:rdf="http://www.w3.org/1999/02/22-rdf-syntax-ns#"
   xmlns:svg="http://www.w3.org/2000/svg"
   xmlns="http://www.w3.org/2000/svg"
   xmlns:xlink="http://www.w3.org/1999/xlink"
   xmlns:sodipodi="http://sodipodi.sourceforge.net/DTD/sodipodi-0.dtd"
   xmlns:inkscape="http://www.inkscape.org/namespaces/inkscape"
   width="1024"
   height="1024"
   id="svg2"
   version="1.1"
   inkscape:version="0.48.4 r9939"
   sodipodi:docname="New document 1">
  <defs
     id="defs4">
    <linearGradient
       id="linearGradient3028">
      <stop
         style="stop-color:#8dbbb0;stop-opacity:1"
         offset="0"
         id="stop3030" />
      <stop
         style="stop-color:#bab661;stop-opacity:1"
         offset="1"
         id="stop3032" />
    </linearGradient>
    <linearGradient
       id="linearGradient3020">
      <stop
         style="stop-color:#000000;stop-opacity:1;"
         offset="0"
         id="stop3022" />
      <stop
         style="stop-color:#000000;stop-opacity:0;"
         offset="1"
         id="stop3024" />
    </linearGradient>
    <linearGradient
       inkscape:collect="always"
       xlink:href="#linearGradient3028"
       id="linearGradient3034"
       x1="376.47931"
       y1="568.55646"
       x2="377.14285"
       y2="260.93359"
       gradientUnits="userSpaceOnUse"
       gradientTransform="translate(403.0704,12.857143)" />
    <linearGradient
       inkscape:collect="always"
       xlink:href="#linearGradient3028"
       id="linearGradient3862"
       gradientUnits="userSpaceOnUse"
       gradientTransform="translate(403.0704,12.857143)"
       x1="376.47931"
       y1="568.55646"
       x2="377.14285"
       y2="260.93359" />
  </defs>
  <sodipodi:namedview
     id="base"
     pagecolor="#ffffff"
     bordercolor="#666666"
     borderopacity="1.0"
     inkscape:pageopacity="0.0"
     inkscape:pageshadow="2"
     inkscape:zoom="0.49497475"
     inkscape:cx="852.39199"
     inkscape:cy="450.13664"
     inkscape:document-units="px"
     inkscape:current-layer="layer1"
     showgrid="false"
     inkscape:window-width="1920"
     inkscape:window-height="1018"
     inkscape:window-x="-8"
     inkscape:window-y="-8"
     inkscape:window-maximized="1" />
  <metadata
     id="metadata7">
    <rdf:RDF>
      <cc:Work
         rdf:about="">
        <dc:format>image/svg+xml</dc:format>
        <dc:type
           rdf:resource="http://purl.org/dc/dcmitype/StillImage" />
        <dc:title></dc:title>
      </cc:Work>
    </rdf:RDF>
  </metadata>
  <g
     inkscape:label="Layer 1"
     inkscape:groupmode="layer"
     id="layer1"
     transform="translate(0,-28.362183)">
    <g
       id="g3856"
       transform="matrix(2.0497569,0,0,2.0497569,-1094.5681,-546.45856)">
      <path
         inkscape:connector-curvature="0"
         id="path3018"
         d="M 534.49897,289.50504 1033.0704,376.64789 765.92754,779.50504 z"
         style="fill:url(#linearGradient3862);fill-opacity:1;stroke:#a6ae6c;stroke-width:1px;stroke-linecap:butt;stroke-linejoin:miter;stroke-opacity:1" />
      <g
         transform="translate(-216.17261,-195.96959)"
         id="g3852">
        <path
           style="fill:#aa0000;fill-opacity:1;stroke:#943731;stroke-width:0.35714287;stroke-opacity:1"
           d="m 842.58471,530.99895 c -2.16369,-0.0675 -3.17047,2.2914 -2.72321,4.18527 1.7374,22.88774 3.39601,45.81788 3.42634,68.78348 2.29129,1.2304 5.31013,1.10008 7.91921,1.60131 19.95477,2.15073 40.05974,1.37778 60.08302,1.95896 1.73678,0.0169 4.08007,0.42716 4.28572,2.53348 0.75736,3.54011 -0.9668,6.90124 -0.62169,10.46832 -0.55444,39.07847 -0.46926,78.16441 -1.01894,117.24373 -0.38911,25.76144 -0.59283,51.58248 -2.31027,77.27679 -0.45443,1.13308 -0.49604,2.37638 0.625,3.20312 2.56414,1.40201 5.80327,0.69114 8.6374,1.0528 23.25246,0.67188 46.50577,1.49836 69.76662,1.7597 16.54229,-0.12371 33.10529,0.0807 49.62959,-0.76885 4.8452,-0.4798 9.8491,-0.54484 14.5892,-1.45213 -0.083,-4.88531 -1.0404,-9.87081 -1.463,-14.79044 -5.571,-51.59401 -8.265,-103.52499 -15.633,-154.90419 -1.5572,-11.37624 -3.9455,-22.65512 -5.6719,-33.97724 -0.1258,-3.56389 -0.6849,-8.33317 2.8571,-10.36831 3.4675,-1.79519 7.6504,-1.16174 11.4249,-1.7554 15.8687,-1.34055 31.8441,-1.57495 47.6488,-3.5571 2.355,-0.49521 1.2946,-3.61242 1.2165,-5.26785 -3.2616,-13.29838 -1.7993,-27.28924 -5.0893,-40.58036 -0.5203,-2.48412 -1.8646,-5.15717 -4.6763,-5.52456 -8.0188,-1.32153 -16.2456,-1.32013 -24.351,-2.05753 -69.38115,-4.70909 -138.73951,-9.75209 -208.1341,-14.26229 -3.49134,-0.18277 -6.96108,-0.62178 -10.41669,-0.80071 z"
           id="path3850"
           inkscape:connector-curvature="0" />
        <path
           style="fill:#000000"
           d="m 923.37908,865.45539 c -0.69992,-0.55432 -1.00024,-1.86592 -0.66738,-2.91466 -0.99807,-9.10437 2.20022,-12.71216 0.0911,-23.49306 -9.31078,-2.32235 -17.75082,1.27235 -25.8161,-2.0058 -3.48613,-1.46394 -3.69093,-1.81413 -4.19657,-7.17551 -0.29237,-3.10005 -0.44313,-9.60562 -0.33501,-14.45681 -0.11422,-41.35804 5.79087,-123.47805 5.32968,-159.79389 -1.57106,-2.24325 -2.31185,-2.395 -12.4018,-2.54043 -11.14105,-0.16059 -28.32,-1.09944 -28.79016,-1.57342 -0.1205,-7.93486 -2.33535,-20.2329 -2.44081,-26.77191 0,-1.03508 -0.43486,-2.15072 -0.96636,-2.47921 -0.53149,-0.32848 -6.41592,-0.76645 -13.0765,-0.97326 -9.74184,-0.30249 -12.12996,-1.26172 -14.03365,-2.11677 -1.88577,-0.847 -2.91628,-1.43264 -2.7043,-5.93379 -0.62264,-17.96148 -0.41006,-74.22166 -1.14994,-85.95415 -0.95888,-0.59262 0.73878,-15.75088 1.89333,-16.90543 0.5706,-0.5706 2.58569,-0.4844 5.23267,0.22385 2.3676,0.63349 5.20472,1.13743 6.30472,1.11986 1.1,-0.0176 9.875,0.89032 19.5,2.01754 80.54444,6.19456 154.7897,10.43141 238,13.93971 8.0441,0.12042 10.7692,0.50983 11.6508,1.66491 1.7724,0.99197 3.2182,27.78873 3.4463,27.95673 0.6034,0.37293 5.8909,0.84482 11.75,1.04864 15.6508,0.54444 16.7926,0.84006 17.5324,4.53905 2.1181,23.77882 4.3978,48.98552 6.6521,72.52001 -2.1006,14.85101 -36.4515,11.65794 -54.4808,12.89191 -4.372,0.28933 -8.569,1.04048 -9.3266,1.66922 -1.0042,0.83339 -1.2261,2.6509 -0.8188,6.70716 8.0767,77.15205 11.2428,120.42088 25.7767,199.79828 1.2813,4.30491 0.4924,6.30961 -3.5682,9.06759 -41.5415,3.48965 -124.88083,3.68901 -178.38682,-0.0764 z m 131.46382,-46.67663 c -7.9432,-64.10345 -9.8131,-136.55407 -22.6109,-200.85485 -0.5351,-1.8183 -0.6063,-5.50963 -0.3902,-8.22592 0.4379,-5.50192 4.9689,-6.05261 6.3815,-6.18895 18.3568,-2.01316 37.826,-1.96869 54.9284,-4.00559 2.2631,-0.24762 2.4716,-0.65256 2.2004,-4.27354 -4.255,-14.67128 -1.6652,-31.09136 -5.9783,-43.66443 -1.3989,-3.36516 -2.8193,-3.79085 -14.3716,-4.30691 -75.44506,-4.98153 -153.27669,-10.99064 -224.35054,-15.33363 -1.65,0.0465 -4.42477,-0.23081 -6.16615,-0.6163 -3.93759,-0.87165 -5.48343,1.24059 -4.26397,5.82632 1.97236,22.27825 3.09406,44.73121 3.43012,67.07016 l 5,0.76717 c 20.27825,2.98174 38.2492,1.34006 59.11809,2.29211 5.67524,-0.85105 8.38191,0.62351 8.38191,4.56637 0,1.6668 -0.48123,3.92973 -1.06939,5.02873 -0.68037,54.14479 -0.015,142.19249 -3.00389,198.45853 -1.04088,1.25419 -0.89496,1.88809 0.8322,3.61526 17.3511,-0.0721 104.62522,4.76034 141.93232,-0.15453 z"
           id="path3808"
           inkscape:connector-curvature="0"
           sodipodi:nodetypes="ccccsccsccsssccsscccccscccscccccccccccccsccsccccccc" />
      </g>
    </g>
  </g>
</svg>
