<?xml version="1.0" encoding="UTF-8" standalone="no"?>
<!-- Created with Inkscape (http://www.inkscape.org/) -->

<svg
   xmlns:dc="http://purl.org/dc/elements/1.1/"
   xmlns:cc="http://creativecommons.org/ns#"
   xmlns:rdf="http://www.w3.org/1999/02/22-rdf-syntax-ns#"
   xmlns:svg="http://www.w3.org/2000/svg"
   xmlns="http://www.w3.org/2000/svg"
   xmlns:sodipodi="http://sodipodi.sourceforge.net/DTD/sodipodi-0.dtd"
   xmlns:inkscape="http://www.inkscape.org/namespaces/inkscape"
   width="1024"
   height="1024"
   id="svg3632"
   version="1.1"
   inkscape:version="0.48.4 r9939"
   sodipodi:docname="Superman Face 1.svg">
  <defs
     id="defs3634" />
  <sodipodi:namedview
     id="base"
     pagecolor="#ffffff"
     bordercolor="#666666"
     borderopacity="1.0"
     inkscape:pageopacity="0.0"
     inkscape:pageshadow="2"
     inkscape:zoom="0.35"
     inkscape:cx="250.66041"
     inkscape:cy="383.85179"
     inkscape:document-units="px"
     inkscape:current-layer="layer1"
     showgrid="false"
     showguides="true"
     inkscape:guide-bbox="true"
     inkscape:window-width="1366"
     inkscape:window-height="705"
     inkscape:window-x="-8"
     inkscape:window-y="-8"
     inkscape:window-maximized="1" />
  <metadata
     id="metadata3637">
    <rdf:RDF>
      <cc:Work
         rdf:about="">
        <dc:format>image/svg+xml</dc:format>
        <dc:type
           rdf:resource="http://purl.org/dc/dcmitype/StillImage" />
        <dc:title />
      </cc:Work>
    </rdf:RDF>
  </metadata>
  <g
     inkscape:label="Layer 1"
     inkscape:groupmode="layer"
     id="layer1"
     transform="translate(0,-28.362183)">
    <g
       id="g3095"
       transform="matrix(9.7233357,0,0,9.7233357,-3304.1147,-2801.6546)">
      <g
         id="g3043" />
      <g
         id="g3078">
        <path
           style="fill:#000000;stroke:#000000;stroke-width:0.72128588px;stroke-linecap:butt;stroke-linejoin:miter;stroke-opacity:1"
           d="m 378.59974,365.80513 c -6.78037,-0.008 -8.22721,6.10839 -8.22721,6.10839 0,0 3.24543,-2.84748 8.65543,-2.1864 3.25242,0.39745 8.43379,0.84273 12.39711,0.78891 0.13364,-0.003 0.27502,0.003 0.40573,0 3.96331,0.0537 9.14467,-0.39146 12.39708,-0.78891 5.41002,-0.66108 8.65545,2.1864 8.65545,2.1864 0,0 -1.44683,-6.11707 -8.22714,-6.10839 -5.36211,0.007 -8.1804,0.52526 -13.02831,0.60218 -4.84653,-0.0773 -7.6669,-0.59504 -13.02814,-0.60218 z"
           id="path3664"
           inkscape:connector-curvature="0"
           sodipodi:nodetypes="ccsccscccc" />
        <path
           sodipodi:type="arc"
           style="fill:#000000;fill-opacity:1;stroke:#000000;stroke-opacity:1"
           id="path3694"
           sodipodi:cx="1672.8572"
           sodipodi:cy="306.29074"
           sodipodi:rx="8.2142859"
           sodipodi:ry="8.2142859"
           d="m 1681.0715,306.29074 c 0,4.53663 -3.6777,8.21429 -8.2143,8.21429 -4.5366,0 -8.2143,-3.67766 -8.2143,-8.21429 0,-4.53662 3.6777,-8.21428 8.2143,-8.21428 4.5366,0 8.2143,3.67766 8.2143,8.21428 z"
           transform="matrix(0.88387085,0,0,0.88387085,-1067.9504,69.49957)" />
        <path
           sodipodi:type="arc"
           style="fill:#ffffff;fill-opacity:1;stroke:#ffffff;stroke-opacity:1"
           id="path3692"
           sodipodi:cx="1673.2142"
           sodipodi:cy="305.04074"
           sodipodi:rx="3.3928571"
           sodipodi:ry="3.3928571"
           d="m 1676.6071,305.04074 c 0,1.87382 -1.519,3.39286 -3.3929,3.39286 -1.8738,0 -3.3928,-1.51904 -3.3928,-3.39286 0,-1.87382 1.519,-3.39286 3.3928,-3.39286 1.8739,0 3.3929,1.51904 3.3929,3.39286 z"
           transform="matrix(0.90610008,0,0,0.90610008,-1104.6875,60.861155)" />
        <path
           style="fill:#000000;stroke:#000000;stroke-width:1px;stroke-linecap:butt;stroke-linejoin:miter;stroke-opacity:1"
           d="m 432.14285,332.71933 c 0,0 -12.14285,-5.17857 -17.85714,-2.14286 -5.71428,3.03571 -11.78571,3.75 -13.03571,3.39286 -1.41588,-0.40453 -3.29638,-4.13902 4.28571,-5.53572 6.78571,-1.25 16.60714,-7.32143 21.96429,-3.21428 5.35714,4.10714 9.46428,6.96428 4.64285,7.5 z"
           id="path2998"
           inkscape:connector-curvature="0"
           sodipodi:nodetypes="cssssc" />
        <g
           id="g3036"
           transform="translate(0,-1.0040431)">
          <g
             id="g3051"
             style="fill:#c28263;fill-opacity:1;stroke:#c28263;stroke-opacity:1">
            <path
               transform="translate(0,1.0040431)"
               sodipodi:nodetypes="csssssc"
               inkscape:connector-curvature="0"
               id="path3651"
               d="m 438.87828,340.09312 c 0.97079,0 2.61259,11.39901 1.18747,14.24876 -1.42512,2.84963 -5.22465,1.89983 -5.46208,7.12436 -0.23753,5.22455 -2.03692,16.38977 -2.61222,16.38607 -0.59953,-0.004 -1.50828,-15.76525 -0.8312,-20.06699 0.49032,-3.11521 5.10576,-3.44344 5.81824,-6.53068 0.71242,-3.08721 0,-10.21161 1.89979,-11.16152 z"
               style="fill:#c28263;fill-opacity:1;stroke:#c28263;stroke-width:0.94036961px;stroke-linecap:butt;stroke-linejoin:miter;stroke-opacity:1" />
            <path
               transform="translate(0,1.0040431)"
               inkscape:connector-curvature="0"
               id="path3690"
               d="m 421.25504,343.11481 c 0,0 -1.71928,3.65857 -4.35022,4.55798 -2.63094,0.89941 3.68835,0.68124 5.85376,-2.37318 2.16534,-3.05442 -0.38656,-2.68015 -1.50354,-2.1848 z"
               style="fill:#c28263;fill-opacity:1;stroke:#c28263;stroke-width:0.72128588px;stroke-linecap:butt;stroke-linejoin:miter;stroke-opacity:1" />
            <path
               transform="translate(0,1.0040431)"
               style="fill:#c28263;fill-opacity:1;stroke:#c28263;stroke-width:1px;stroke-linecap:butt;stroke-linejoin:miter;stroke-opacity:1"
               d="m 384.40944,376.60829 c -0.30824,-1.47296 14.72231,-1.29922 14.87373,-0.16062 -4.17855,3.05872 -9.8072,3.74257 -14.87373,0.16062 z"
               id="path3002"
               inkscape:connector-curvature="0"
               sodipodi:nodetypes="ccc" />
            <path
               transform="translate(0,1.0040431)"
               style="fill:#c28263;fill-opacity:1;stroke:#c28263;stroke-width:1px;stroke-linecap:butt;stroke-linejoin:miter;stroke-opacity:1"
               d="m 384.35714,392.54076 c -0.57338,0.53389 16.43152,0.63958 15.17857,-0.17857 -7.5553,-0.95429 -6.41507,-6.4408 -7.67857,-6.42857 -1.75696,0.017 -0.51111,5.50177 -7.5,6.60714 z"
               id="path3004"
               inkscape:connector-curvature="0"
               sodipodi:nodetypes="ccsc" />
            <path
               style="fill:#c28263;fill-opacity:1;stroke:#c28263;stroke-width:0.94036961px;stroke-linecap:butt;stroke-linejoin:miter;stroke-opacity:1"
               d="m 346.06115,341.09685 c -0.97079,0 -2.61259,11.39901 -1.18747,14.24876 1.42512,2.84963 5.22465,1.89983 5.46208,7.12436 0.23753,5.22455 2.03692,16.38977 2.61222,16.38607 0.59953,-0.004 1.50828,-15.76525 0.8312,-20.06699 -0.49032,-3.11521 -5.10576,-3.44344 -5.81824,-6.53068 -0.71242,-3.08721 0,-10.21161 -1.89979,-11.16152 z"
               id="path3651-1"
               inkscape:connector-curvature="0"
               sodipodi:nodetypes="csssssc" />
            <path
               style="fill:#c28263;fill-opacity:1;stroke:#c28263;stroke-width:0.72128588px;stroke-linecap:butt;stroke-linejoin:miter;stroke-opacity:1"
               d="m 363.68439,344.11854 c 0,0 1.71928,3.65857 4.35022,4.55798 2.63094,0.89941 -3.68835,0.68124 -5.85376,-2.37318 -2.16534,-3.05442 0.38656,-2.68015 1.50354,-2.1848 z"
               id="path3690-7"
               inkscape:connector-curvature="0" />
          </g>
          <path
             transform="matrix(-0.88387085,0,0,0.88387085,1852.8898,70.503301)"
             d="m 1681.0715,306.29074 c 0,4.53663 -3.6777,8.21429 -8.2143,8.21429 -4.5366,0 -8.2143,-3.67766 -8.2143,-8.21429 0,-4.53662 3.6777,-8.21428 8.2143,-8.21428 4.5366,0 8.2143,3.67766 8.2143,8.21428 z"
             sodipodi:ry="8.2142859"
             sodipodi:rx="8.2142859"
             sodipodi:cy="306.29074"
             sodipodi:cx="1672.8572"
             id="path3694-4"
             style="fill:#000000;fill-opacity:1;stroke:#000000;stroke-opacity:1"
             sodipodi:type="arc" />
          <path
             transform="matrix(-0.90610008,0,0,0.90610008,1891.6269,61.864881)"
             d="m 1676.6071,305.04074 c 0,1.87382 -1.519,3.39286 -3.3929,3.39286 -1.8738,0 -3.3928,-1.51904 -3.3928,-3.39286 0,-1.87382 1.519,-3.39286 3.3928,-3.39286 1.8739,0 3.3929,1.51904 3.3929,3.39286 z"
             sodipodi:ry="3.3928571"
             sodipodi:rx="3.3928571"
             sodipodi:cy="305.04074"
             sodipodi:cx="1673.2142"
             id="path3692-0"
             style="fill:#ffffff;fill-opacity:1;stroke:#ffffff;stroke-opacity:1"
             sodipodi:type="arc" />
          <path
             sodipodi:nodetypes="cssssc"
             inkscape:connector-curvature="0"
             id="path2998-9"
             d="m 352.79658,333.72306 c 0,0 12.14285,-5.17857 17.85714,-2.14286 5.71428,3.03571 11.78571,3.75 13.03571,3.39286 1.41588,-0.40453 3.29638,-4.13902 -4.28571,-5.53572 -6.78571,-1.25 -16.60714,-7.32143 -21.96429,-3.21428 -5.35714,4.10714 -9.46428,6.96428 -4.64285,7.5 z"
             style="fill:#000000;stroke:#000000;stroke-width:1px;stroke-linecap:butt;stroke-linejoin:miter;stroke-opacity:1" />
        </g>
      </g>
    </g>
  </g>
</svg>
