<?xml version="1.0" encoding="UTF-8" standalone="no"?>
<!-- Created with Inkscape (http://www.inkscape.org/) -->

<svg
   xmlns:dc="http://purl.org/dc/elements/1.1/"
   xmlns:cc="http://creativecommons.org/ns#"
   xmlns:rdf="http://www.w3.org/1999/02/22-rdf-syntax-ns#"
   xmlns:svg="http://www.w3.org/2000/svg"
   xmlns="http://www.w3.org/2000/svg"
   xmlns:sodipodi="http://sodipodi.sourceforge.net/DTD/sodipodi-0.dtd"
   xmlns:inkscape="http://www.inkscape.org/namespaces/inkscape"
   id="svg2985"
   version="1.1"
   inkscape:version="0.48.3.1 r9886"
   width="1920"
   height="1920"
   sodipodi:docname="LIJ Motorcycles Guy Torso - (YELLOW).svg"
   inkscape:export-filename="G:\LEGO Textures Scans\Complete\Indiana Jones\LIJ Motorcycles Guy Torso.png"
   inkscape:export-xdpi="96"
   inkscape:export-ydpi="96">
  <metadata
     id="metadata2991">
    <rdf:RDF>
      <cc:Work
         rdf:about="">
        <dc:format>image/svg+xml</dc:format>
        <dc:type
           rdf:resource="http://purl.org/dc/dcmitype/StillImage" />
        <dc:title />
      </cc:Work>
    </rdf:RDF>
  </metadata>
  <defs
     id="defs2989" />
  <sodipodi:namedview
     pagecolor="#ffffff"
     bordercolor="#666666"
     borderopacity="1"
     objecttolerance="10"
     gridtolerance="10"
     guidetolerance="10"
     inkscape:pageopacity="0"
     inkscape:pageshadow="2"
     inkscape:window-width="1920"
     inkscape:window-height="1018"
     id="namedview2987"
     showgrid="false"
     inkscape:zoom="0.35355339"
     inkscape:cx="1386.6852"
     inkscape:cy="655.97011"
     inkscape:window-x="-8"
     inkscape:window-y="-8"
     inkscape:window-maximized="1"
     inkscape:current-layer="svg2985" />
  <g
     id="g3179">
    <path
       sodipodi:nodetypes="cccccccccc"
       inkscape:connector-curvature="0"
       id="path3173"
       d="m 59.727912,1657.892 c -7.17289,44.3174 -14.683727,95.0388 -20.84375,139.5313 0.62928,2.9337 9.820859,0.431 11.65625,1.3437 14.711429,-2.5698 27.090126,-7.575 40.78125,-14.25 10.976818,-8.4072 9.580408,-24.0439 10.672638,-36.4047 0.20657,-22.9501 1.59762,-46.1333 -1.32889,-68.939 -1.000579,-8.8554 -12.175864,-9.4948 -18.882823,-11.6527 -7.205011,-2.258 -12.695918,-6.8645 -15.585925,-15.8473 l -0.71875,0.094 z"
       style="fill:#9c745e;fill-opacity:1;stroke:#9c745e;stroke-opacity:1" />
    <path
       inkscape:connector-curvature="0"
       id="path3165"
       d="m 724.28657,1615.7872 c -25.99957,0.1355 -52.00235,1.4656 -77.93169,3.1073 -3.11856,0.4732 -0.72793,5.295 -1.47456,7.5646 0.15067,36.9527 -0.42136,73.9691 2.18707,110.8542 0.78678,3.5143 -0.0109,8.0009 2.56293,10.8489 4.1116,1.9454 9.04671,1.3207 13.47995,2.0213 18.03462,1.0638 36.12396,0.063 54.17618,-0.079 13.97348,-0.4306 28.01512,-0.3232 41.93762,-1.458 1.10419,-3.5769 0.46882,-7.774 0.87432,-11.5615 0.86562,-35.2629 1.92686,-70.5642 0.68818,-105.8291 -0.61094,-4.4838 -0.0139,-9.7494 -2.625,-13.625 -4.03026,-2.2188 -9.03836,-1.2933 -13.48399,-1.7423 -6.79591,-0.1254 -13.59419,-0.1312 -20.39101,-0.1015 z"
       style="fill:#9c745e;fill-opacity:1;stroke:#9c745e;stroke-width:0.5;stroke-opacity:1" />
    <path
       inkscape:connector-curvature="0"
       id="path3167"
       d="m 1180.3803,1617.9122 c 0,46.3334 0,92.6667 0,139 3.2892,0.9713 7.3339,0.1186 10.9063,0.4063 28,0 56,0 84,0 0.9712,-3.2892 0.1186,-7.3339 0.4062,-10.9063 0,-42.8333 0,-85.6666 0,-128.5 -3.2892,-0.9712 -7.3339,-0.1185 -10.9062,-0.4062 -28,0 -56,0 -84,0 l -0.3536,0.3536 -0.053,0.053 z"
       style="fill:#9c745e;fill-opacity:1;stroke:#9c745e;stroke-width:0.5;stroke-opacity:1" />
    <path
       sodipodi:nodetypes="ccccccccccccc"
       inkscape:connector-curvature="0"
       id="path3177"
       d="m 1852.5228,1611.7941 c -2.2375,1.8208 -5.0932,15.4606 -8.0625,14.0937 -7.159,-1.6532 -14.2704,2.1575 -19.875,6.2188 -6.6168,5.7077 -6.6178,15.4161 -7.5782,23.4375 -0.9117,29.7423 -0.3406,59.5121 -0.5247,89.2656 0,7.5833 0,15.1667 -0.01,22.75 3.6047,1.1045 7.9817,0.514 11.8761,0.9827 14.2096,0.9552 28.5503,0.9448 42.6083,3.2048 2.7964,0.6009 7.8542,10.29 10.0561,12.0215 1.2523,-1.4168 -2.6708,-12.7654 -2.5334,-14.6024 -8.3684,-48.5164 -16.8283,-108.8628 -25.5071,-157.2941 -1.1606,1.2092 -0.1838,-0.2863 -0.4531,-0.078 z"
       style="fill:#9c745e;fill-opacity:1;stroke:#9c745e;stroke-width:0.5;stroke-opacity:1" />
    <g
       transform="matrix(5.5766982,0,0,5.5766982,36.703572,-306.18235)"
       id="g3117">
      <path
         style="fill:#ffff00;fill-opacity:1;stroke:#ffff00;stroke-width:1px;stroke-linecap:butt;stroke-linejoin:miter;stroke-opacity:1"
         d="m 89.791667,110.25 145.416663,0.625 -20.625,15.83333 -15.41666,12.5 -13.125,9.58334 -4.375,11.66666 -6.25,12.08334 -3.75,18.54166 -2.91667,10.20834 -8.33333,-5.20834 -2.70834,-9.16666 -7.5,-10.83334 -10.41666,-10.83333 -9.375,-7.91667 -10,-10.20833 -6.25,-6.66667 -8.75,-8.75 -6.875003,-9.375 z"
         id="path3115"
         inkscape:connector-curvature="0" />
      <path
         style="fill:#9c745e;fill-opacity:1;stroke:#9c745e;stroke-width:0.20833333;stroke-opacity:1"
         d="m 263.83027,124.99585 c -3.38222,0.55405 -5.72919,3.56856 -7.1224,6.49089 -1.63513,3.95413 -1.5091,8.37427 -1.55223,12.5846 0.13666,9.53383 2.03302,18.90859 3.66082,28.26672 1.6863,14.40475 2.61687,28.9304 4.54506,43.31534 -0.0418,1.17585 0.80461,2.08774 1.95963,2.20052 3.28148,0.58494 6.6093,-0.3501 9.8774,-0.70496 1.00812,-0.22446 2.85875,-0.0126 2.18002,-1.61527 -1.7822,-19.61751 -3.60218,-39.25104 -5.88812,-58.80735 -1.38199,-9.67008 -2.74688,-19.35256 -4.52867,-28.95705 -0.22262,-1.52962 -1.41029,-3.10807 -3.13151,-2.77344 z"
         id="path3102"
         inkscape:connector-curvature="0" />
      <path
         style="fill:#9c745e;fill-opacity:1;stroke:#9c745e;stroke-width:0.20833333;stroke-opacity:1"
         d="m 277.29381,251.28491 c -3.75448,0.12363 -7.5003,0.43174 -11.25,0.65105 -0.40112,1.24766 0.0243,2.80994 -0.0737,4.17931 0.43607,17.12556 0.60405,34.26619 1.57024,51.37231 0.0195,3.45885 3.01658,6.11103 6.24433,6.73353 3.07078,0.66205 6.28427,0.13438 9.25782,-0.73568 0.51256,-2.55185 0.31252,-5.3262 0.33854,-7.96875 -0.22878,-16.04112 -1.79248,-32.02162 -3.09716,-48.00031 -0.29249,-1.91285 -0.13644,-3.97608 -0.78305,-5.79526 -0.54604,-0.5769 -1.49061,-0.39237 -2.20703,-0.4362 z"
         id="path3104"
         inkscape:connector-curvature="0" />
      <path
         style="fill:#9c745e;fill-opacity:1;stroke:#9c745e;stroke-width:0.29462782;stroke-opacity:1"
         d="m 55.304264,249.89649 c -1.737415,-0.13805 -3.54771,0.92478 -3.590777,2.82658 -0.812571,7.34814 -0.11141,14.78102 -0.1909,22.16146 0.18627,13.04925 0.324928,26.09907 0.476321,39.14875 3.218023,0.43375 7.249047,-0.3828 9.271569,-3.29615 1.041019,-1.13174 1.683185,-2.4616 1.286744,-4.04084 -0.721577,-17.60446 -0.636278,-35.23762 -1.581372,-52.83153 -0.166026,-1.32867 0.05754,-3.49904 -1.831219,-3.54796 -1.255938,-0.28948 -2.547297,-0.45785 -3.840366,-0.42031 z"
         id="path3106"
         inkscape:connector-curvature="0" />
      <path
         inkscape:connector-curvature="0"
         style="fill:#9c745e;fill-opacity:1;stroke:#9c745e;stroke-width:0.29462782;stroke-opacity:1"
         d="m 65,110.5 c -1.788209,0.14767 -1.717952,2.58546 -2.0625,3.9375 -2.728929,12.95684 -5.768354,25.90888 -6.625,39.15625 -1.492545,18.58657 -3.166871,37.13662 -4.28125,55.75 -0.13788,1.69923 -0.20569,4.14293 1.96875,4.5 2.55001,0.46733 5.382895,0.75997 7.875,0.0312 0.03523,-0.20893 0.06055,-0.41547 0.09375,-0.625 0.193076,-0.37617 0.249365,-0.87813 0.21875,-1.46875 0.0028,-0.0204 -0.0028,-0.0421 0,-0.0625 0.671016,-4.92318 0.898144,-9.98127 1.40625,-14.9375 1.836639,-22.94618 3.656698,-45.9044 6.78125,-68.71875 0.576674,-5.684 1.284267,-11.51145 1.96875,-17.09375 -0.09247,-0.0348 -0.186591,-0.0325 -0.28125,-0.0625 -0.0091,-0.008 -0.02135,-0.0235 -0.03125,-0.0312 -0.161779,-0.1263 -0.436207,-0.17722 -0.75,-0.1875 -1.878096,-0.35126 -4.040668,-0.0492 -5.90625,-0.1875 -0.136491,-0.0116 -0.255786,-0.01 -0.375,0 z"
         id="path3110" />
      <path
         style="fill:#666666;fill-opacity:1;stroke:#666666;stroke-width:0.14731391"
         d="m 232.27592,316.98011 c -2.14589,0.0742 -4.34776,-0.10836 -6.4588,0.27161 -0.94143,0.69731 -0.70384,2.10304 -0.87928,3.13042 -0.2,5.53805 0.0155,11.08644 0.27622,16.61885 0.008,0.48425 0.14479,1.1874 0.82322,0.97512 8.30634,0.61341 16.63849,0.15644 24.95667,0.1964 5.79129,-0.0381 11.58259,-0.0751 17.37388,-0.1127 0.15116,-1.29379 -0.13805,-2.75727 -0.12626,-4.11972 -0.25769,-4.89584 -0.29451,-9.84395 -1.14432,-14.67662 -0.0328,-0.6304 -0.39824,-1.25061 -1.10486,-1.21994 -7.95987,-0.73435 -15.96538,-0.79343 -23.95232,-0.98516 -3.25444,-0.0485 -6.50929,-0.0911 -9.76415,-0.0783 z m 13.97641,9.17949 c 2.35104,-0.0816 4.14762,2.00622 4.55292,4.19385 0.42363,1.04303 0.0684,2.21697 -0.7947,2.90313 -1.15632,1.00924 -2.33955,2.31562 -3.92856,2.54288 -1.51462,-0.15829 -2.49903,-1.63199 -3.29614,-2.79436 -1.392,-2.61422 0.36871,-6.65684 3.46648,-6.8455 z"
         id="path3055"
         inkscape:connector-curvature="0" />
      <path
         style="fill:#666666;fill-opacity:1;stroke:#666666;stroke-width:0.14731391"
         d="m 295.6163,333.76929 c -0.7282,0.0779 -1.57568,0.90982 -1.30741,1.67109 0.60654,0.9867 2.70951,0.69156 2.61022,-0.59846 -0.13099,-0.59798 -0.66531,-1.12059 -1.30281,-1.07263 z"
         id="path3053"
         inkscape:connector-curvature="0" />
      <path
         style="fill:#666666;fill-opacity:1;stroke:#666666;stroke-width:0.14731391"
         d="m 274.13609,321.04045 c 0.0245,6.60457 0.0491,13.20914 0.0736,19.81372 1.82322,0.35445 3.83211,0.2772 5.72974,0.43068 10.47212,0.57839 20.97717,0.59906 31.45231,0.0891 1.60039,-0.17711 3.30684,-0.067 4.81163,-0.66706 0.32688,-1.87514 0.1256,-3.84512 0.16112,-5.75445 -0.0879,-4.01293 -0.30815,-8.06215 -1.12787,-11.99227 -0.21895,-1.34986 -1.90077,-1.30961 -2.93707,-1.50536 -7.10043,-0.61114 -14.24075,-0.44134 -21.36052,-0.51203 -5.56723,-0.007 -11.13448,-0.002 -16.70171,-0.004 l -0.10128,0.10128 z m 20.97842,8.24037 c 1.09252,0.16307 1.74758,1.32805 2.57917,1.95768 0.90804,1.03237 2.53749,2.14723 2.02439,3.72771 -0.64281,2.25967 -2.7913,4.11693 -5.22504,3.91303 -1.20335,0.11528 -2.43177,-0.51701 -2.76214,-1.74015 -0.7998,-2.05698 -0.64451,-4.75513 1.18925,-6.22824 0.67602,-0.58582 1.2653,-1.49777 2.19437,-1.63003 z"
         id="path3051"
         inkscape:connector-curvature="0" />
      <path
         style="fill:#666666;fill-opacity:1;stroke:#666666;stroke-width:0.14731391"
         d="m 304.46434,351.8935 c -0.41454,0.0373 -1.29262,-0.16294 -1.06342,0.58005 -0.18293,12.50228 -0.18844,25.00659 -0.28082,37.50981 1.54597,0.2358 3.27314,0.0341 4.88898,0.10127 1.61554,-0.0632 3.32842,0.1253 4.88438,-0.0921 0.31433,-4.14391 0.11784,-8.31276 0.18414,-12.46644 -0.0688,-7.53233 0.11635,-15.07563 -0.32225,-22.59887 0.0649,-1.20857 -0.64986,-2.45385 -1.91508,-2.65626 -2.08144,-0.42826 -4.25584,-0.33573 -6.37593,-0.37749 z"
         id="path3049"
         inkscape:connector-curvature="0" />
      <path
         style="fill:#666666;fill-opacity:1;stroke:#666666;stroke-width:0.14731391"
         d="m 258.93974,349.10375 c -0.96186,0.10498 -2.23345,-0.0714 -2.94628,0.68132 -0.55893,2.96617 -0.49592,6.03706 -0.69176,9.05049 -0.27722,8.24758 -0.5712,16.50692 -0.31182,24.75806 -0.0727,0.90895 0.2545,2.0303 1.29821,2.16367 2.38141,0.37492 4.9196,0.41566 7.23679,-0.31765 1.11513,-0.2869 0.78227,-1.63783 0.9023,-2.48592 0.30137,-11.14504 0.1392,-22.29688 0.18875,-33.44486 -1.63658,-0.33052 -3.45338,-0.3473 -5.1698,-0.40972 -0.16883,-10e-4 -0.33761,5.5e-4 -0.50639,0.005 z"
         id="path3059"
         inkscape:connector-curvature="0" />
      <path
         style="fill:#666666;fill-opacity:1;stroke:#666666;stroke-width:0.14731391"
         d="m 241.13777,345.05261 c 0.0537,11.81538 -0.12965,23.63418 0.15129,35.44712 0.17865,1.5698 -0.079,3.37453 0.87531,4.72815 1.34865,1.13508 3.30446,0.94842 4.96263,1.07723 1.52964,-0.13975 3.09473,-0.18639 4.59436,-0.49258 0.23915,-1.82678 0.11878,-3.75309 0.20411,-5.61617 0.18329,-11.71363 0.31365,-23.42857 0.31609,-35.14375 -1.52143,-0.23579 -3.22404,-0.0342 -4.81533,-0.10128 -2.06239,0 -4.12479,0 -6.18718,0 l -0.10128,0.10128 z"
         id="path3061"
         inkscape:connector-curvature="0" />
      <path
         style="fill:#666666;fill-opacity:1;stroke:#666666;stroke-width:0.14731391"
         d="m 232.80072,348.90119 c -1.38832,0.11325 -3.17726,0.20904 -4.0143,1.48235 -0.64494,3.10053 -0.43227,6.31657 -0.59036,9.46921 -0.18689,8.71795 -0.16532,17.43832 -0.16923,26.15773 1.52138,0.22508 3.22393,0.008 4.81516,0.062 1.74327,-0.0135 3.48654,-0.0259 5.22981,-0.039 0.26413,-1.5955 0.10994,-3.37058 0.20848,-5.03614 0.13881,-8.8664 0.33032,-17.73787 0.13218,-26.60412 -0.21351,-1.52563 0.0379,-3.44574 -1.23375,-4.56213 -1.28306,-0.79448 -2.89774,-0.95375 -4.37799,-0.92992 z"
         id="path3063"
         inkscape:connector-curvature="0" />
      <path
         style="fill:#666666;fill-opacity:1;stroke:#666666;stroke-width:0.14731391"
         d="m 246.39964,329.96675 c -1.27809,-0.12876 -1.75097,1.72503 -0.42353,1.99334 0.78405,0.1606 2.19739,-0.0397 2.13145,-1.10025 -0.17618,-0.7323 -1.06595,-0.93528 -1.70792,-0.89309 z"
         id="path3057"
         inkscape:connector-curvature="0" />
      <path
         style="fill:#666666;fill-opacity:1;stroke:#666666;stroke-width:0.20833333"
         d="m 181.31975,338.51638 c -1.14594,0.15498 -2.6638,-0.2331 -3.58724,0.58594 -0.0503,1.13228 1.61372,1.34061 2.24609,2.03776 3.61471,3.14084 5.56608,7.84161 6.64582,12.43665 1.25334,5.65785 -0.78812,11.5938 -4.19139,16.08549 -1.36138,1.89967 -3.50494,3.28206 -4.51823,5.41015 -0.0221,0.85832 1.29766,0.46569 1.82943,0.67058 5.84334,0.26895 11.72804,0.10978 17.54274,-0.52905 1.61865,-0.17964 1.48834,-2.29058 1.64346,-3.48788 0.39413,-10.37166 -0.036,-20.75591 -0.0485,-31.13209 0.49006,-1.73043 -0.68086,-1.94476 -2.11951,-1.71296 -5.14901,-0.0402 -10.29319,-0.37139 -15.44271,-0.36459 z"
         id="path3037"
         inkscape:connector-curvature="0" />
      <path
         style="fill:#666666;fill-opacity:1;stroke:#666666;stroke-width:0.14731391"
         d="m 165.04446,339.68092 c -3.44098,0.12618 -6.29604,2.38001 -8.91444,4.38564 -3.80923,3.10196 -6.86421,7.73012 -6.60877,12.81786 0.44772,7.22577 5.60352,13.86374 12.46783,16.15523 4.63227,1.63411 9.93917,0.9498 14.11491,-1.59448 5.13412,-2.84761 8.78096,-8.40712 8.78641,-14.34899 0.10446,-5.37738 -2.76852,-10.55153 -7.1255,-13.61067 -3.65331,-2.64723 -8.26719,-3.72515 -12.72044,-3.80459 z m 2.29717,9.82399 c 1.55002,-0.0136 3.10334,0.49814 4.15702,1.6803 2.13286,1.94089 3.99205,4.77534 3.43886,7.78923 -0.69159,2.89209 -3.6109,4.49434 -6.18258,5.52427 -2.1318,0.59698 -4.34411,-0.40728 -6.02606,-1.65728 -2.76551,-2.21736 -2.95897,-6.24047 -2.01636,-9.42349 0.5268,-2.17852 2.57945,-3.56801 4.73706,-3.78413 0.62541,-0.0988 1.25874,-0.14774 1.89206,-0.1289 z"
         id="path3039"
         inkscape:connector-curvature="0" />
      <path
         style="fill:#666666;fill-opacity:1;stroke:#666666;stroke-width:0.14731391"
         d="m 167.14368,351.01488 c -1.94587,0.2227 -3.41378,1.78913 -4.62151,3.20896 -0.90919,1.14849 -1.69491,2.58502 -1.30327,4.10149 0.41879,3.40504 4.42148,5.32803 7.51761,4.31814 2.65949,-0.76184 4.40943,-3.25015 5.28949,-5.74984 0.45448,-1.30479 -0.92193,-2.2457 -1.67817,-3.07831 -1.46792,-1.26743 -3.16321,-2.73893 -5.20415,-2.80044 z"
         id="path3041"
         inkscape:connector-curvature="0" />
      <path
         style="fill:#666666;fill-opacity:1;stroke:#666666;stroke-width:0.14731391"
         d="m 97.235096,348.68022 c -1.017081,0.0729 -2.63044,-0.008 -2.851292,1.29635 -0.834295,3.79815 -0.726774,7.73432 -0.932228,11.60277 -0.227551,7.79655 -0.296699,15.59653 -0.405719,23.39534 1.521425,0.23579 3.224036,0.0342 4.815324,0.10128 1.732473,0 3.464949,0 5.197419,0 0.23579,-1.52142 0.0341,-3.22403 0.10128,-4.81532 0,-10.34574 0,-20.69147 0,-31.0372 -1.86885,-0.39272 -3.968932,-0.53088 -5.924784,-0.54322 z"
         id="path3065"
         inkscape:connector-curvature="0" />
      <path
         style="fill:#666666;fill-opacity:1;stroke:#666666;stroke-width:0.14731391"
         d="m 84.340525,344.84545 c -1.396538,0.10226 -2.942275,-0.0469 -4.207653,0.62609 -0.776656,1.26498 -0.631155,2.88056 -0.809114,4.31302 -0.419881,9.21885 -0.06721,18.45127 0.131842,27.67173 0.130225,2.24006 0.01322,4.52804 0.396455,6.73579 0.569009,0.68162 1.672688,0.50356 2.462904,0.71815 2.203746,0.15738 4.471604,0.19296 6.642937,-0.21176 1.527183,-0.65287 1.522739,-2.59652 1.519175,-4.00049 0.21596,-11.22024 0.214811,-22.45279 -0.276214,-33.66584 -0.08501,-0.6762 0.04191,-1.80212 -0.916108,-1.83682 -1.615843,-0.35027 -3.296077,-0.35878 -4.944224,-0.34987 z"
         id="path3067"
         inkscape:connector-curvature="0" />
      <path
         style="fill:#666666;fill-opacity:1;stroke:#666666;stroke-width:0.14731391"
         d="m 67.339579,348.98866 c -0.721144,3.99614 -0.425272,8.10252 -0.536887,12.14877 0.0047,7.61793 -0.06714,15.24372 0.11336,22.8567 -0.218011,1.3243 1.153363,0.86422 1.988696,0.92238 2.526854,-0.006 5.047936,-0.19592 7.568294,-0.35615 0.29254,-1.86944 0.179086,-3.90929 0.249651,-5.84642 0.03605,-8.0539 0.143877,-16.11412 -0.152072,-24.16395 -0.183556,-1.59037 -0.02781,-3.35984 -0.852563,-4.77873 -0.837103,-1.03596 -2.413487,-0.64985 -3.581553,-0.79865 -1.586822,0.033 -3.262726,-0.15967 -4.796926,0.0161 z"
         id="path3069"
         inkscape:connector-curvature="0" />
      <path
         style="fill:#666666;fill-opacity:1;stroke:#666666;stroke-width:0.14731391"
         d="m 48.662937,352.10527 c -1.138967,0.0662 -2.898453,0.11122 -3.107403,1.5606 -0.809336,4.94855 -0.758834,9.99948 -0.887778,15.00296 -0.01902,5.94725 -0.135345,11.93032 0.455044,17.84805 2.32e-4,1.18847 0.961777,2.15387 2.145259,2.19129 1.737811,-0.0205 3.436656,-0.57949 5.174401,-0.69053 1.372614,-0.14923 1.336944,-1.83489 1.452508,-2.86756 0.267821,-5.76251 0.04579,-11.53807 0.03721,-17.30523 -0.103814,-5.02124 -0.05193,-10.05777 -0.371055,-15.06746 -0.154736,-0.72682 -1.230303,-0.32061 -1.733058,-0.52821 -1.051661,-0.0968 -2.108207,-0.18178 -3.16513,-0.14391 z"
         id="path3071"
         inkscape:connector-curvature="0" />
      <path
         style="fill:#666666;fill-opacity:1;stroke:#666666;stroke-width:0.14731391"
         d="m 33.862493,348.09096 c -1.25271,-0.0323 -2.449676,0.83257 -2.577994,2.13145 -0.581027,3.79164 -0.462188,7.66217 -0.600567,11.49047 -0.06225,7.76805 -0.193166,15.55159 0.319276,23.30723 0.216371,0.96923 0.131917,2.31176 1.063896,2.91466 2.079968,0.69122 4.332164,0.15345 6.46691,0.0189 1.051756,-0.19117 2.222426,-0.1754 3.195962,-0.51611 -0.03811,-12.60743 0.08367,-25.21645 -0.07826,-37.82285 -0.02791,-0.50336 0.07431,-1.41532 -0.727363,-1.24296 -2.348511,-0.17695 -4.706575,-0.28331 -7.06186,-0.28082 z"
         id="path3073"
         inkscape:connector-curvature="0" />
      <path
         style="fill:#666666;fill-opacity:1;stroke:#666666;stroke-width:0.14731391"
         d="m 19.600664,351.93033 c -0.403397,0.30828 -0.117517,1.09761 -0.262224,1.56033 -0.438467,10.09244 -0.803448,20.19779 -0.658488,30.30091 0.06159,1.57164 0.217187,3.55375 1.638868,4.50228 1.816081,0.82914 3.856484,0.0378 5.75229,-0.031 0.62942,-0.0661 1.636828,-0.0908 1.512127,-1.0048 0.434035,-6.27288 0.220102,-12.57211 0.247326,-18.85617 -0.05118,-5.27664 -0.0477,-10.55872 -0.178273,-15.83165 -0.874674,-0.34978 -1.978602,-0.20299 -2.931728,-0.35232 -1.704844,-0.11 -3.411498,-0.26856 -5.119898,-0.28758 z"
         id="path3075"
         inkscape:connector-curvature="0" />
      <path
         style="fill:#666666;fill-opacity:1;stroke:#666666;stroke-width:0.14731391"
         d="m 84.98042,328.01484 c -0.991486,0.13414 -0.929498,1.48942 -0.759587,2.22812 0.109029,0.79052 0.999475,1.86262 1.832217,1.30741 1.127502,-0.89336 0.50806,-2.96201 -0.690534,-3.4941 -0.123909,-0.0396 -0.251942,-0.0574 -0.382096,-0.0414 z"
         id="path3081"
         inkscape:connector-curvature="0" />
      <path
         style="fill:#666666;fill-opacity:1;stroke:#666666;stroke-width:0.14731391"
         d="m 33.544847,320.37293 c -5.389892,0.0574 -10.79105,-0.0317 -16.172306,0.26701 -0.78655,0.21185 -2.090076,0.33084 -2.066998,1.40868 -0.256759,4.70571 -0.142614,9.43115 -0.03453,14.14198 0.182238,1.26912 -0.04226,2.6868 0.563943,3.84413 1.511495,1.14684 3.570516,1.21513 5.40457,1.23083 11.092162,0.0377 22.188612,-0.0545 33.27454,-0.43901 0.908754,-0.0765 2.437171,0.0697 2.545768,-1.18312 0.423937,-3.72576 0.09636,-7.51419 0.01841,-11.26031 -0.110193,-2.58485 -0.253179,-5.16819 -0.377491,-7.75239 -1.724078,-0.24413 -3.615571,-0.078 -5.404152,-0.16401 -5.916836,-0.0868 -11.834343,-0.1112 -17.751754,-0.0938 z m 1.818406,8.17592 c 1.309566,-0.0788 2.801025,0.13652 3.471084,1.41329 1.41914,2.31544 1.543539,5.70262 -0.368285,7.79383 -0.950497,1.00644 -2.54956,1.33164 -3.705865,0.48337 -2.558095,-1.66263 -3.277342,-5.29834 -2.338609,-8.08385 0.449489,-1.20838 1.768859,-1.61725 2.941675,-1.60664 z"
         id="path3077"
         inkscape:connector-curvature="0" />
      <path
         style="fill:#666666;fill-opacity:1;stroke:#666666;stroke-width:0.14731391"
         d="m 35.943302,332.98668 c -0.905266,0.0841 -1.150455,1.48604 -0.262403,1.82301 0.61604,0.19512 1.797324,0.35635 2.04398,-0.42813 -0.02744,-0.83846 -1.031896,-1.38672 -1.781577,-1.39488 z"
         id="path3083"
         inkscape:connector-curvature="0" />
      <path
         style="fill:#666666;fill-opacity:1;stroke:#666666;stroke-width:0.14731391"
         d="m 100.95938,316.87422 c -11.520369,0.26567 -23.060065,0.20264 -34.558196,1.04586 -0.780233,0.14018 -2.152651,-0.0363 -2.247268,1.06718 -0.768308,4.45286 -0.696235,9.04124 -0.854574,13.56196 0.03146,1.43119 -0.163686,2.93062 0.02133,4.32747 3.60099,0.50887 7.290824,0.50098 10.93271,0.65434 10.938309,0.30134 21.879982,0.45753 32.819518,0.69911 0.21366,-0.86988 -0.10152,-1.93855 -0.0785,-2.88153 -0.36736,-6.14856 -0.77063,-12.30271 -0.74093,-18.46518 -1.47214,-0.21383 -3.12533,0.0206 -4.66729,-0.0203 -0.20894,0.004 -0.41787,0.007 -0.6268,0.0111 z m -16.195327,7.54984 c 2.898291,-0.0833 4.917802,2.96585 4.686424,5.67159 -0.05499,2.18883 -1.484018,4.66339 -3.890008,4.74627 -2.571074,0.0631 -4.336334,-2.38818 -5.054206,-4.60556 -0.721886,-2.09408 0.725417,-4.20186 2.448591,-5.24146 0.544963,-0.3384 1.171985,-0.54547 1.809199,-0.57084 z"
         id="path3079"
         inkscape:connector-curvature="0" />
      <path
         style="fill:#666666;fill-opacity:1;stroke:#666666;stroke-width:0.14731391"
         d="m 147.49108,338.51622 c -3.61064,0.0331 -7.22151,0.10718 -10.82757,0.29923 -0.25237,1.72884 -0.0978,3.62506 -0.19335,5.41839 -0.10351,6.16361 -0.26944,12.3297 -0.78173,18.4738 -0.0817,3.66659 -0.17338,7.42066 0.62521,11.00739 0.35852,1.28349 1.68754,1.83759 2.92269,1.83596 5.5254,0.35728 11.078,0.25579 16.60561,-0.0129 0.36486,-0.0572 1.51403,0.0151 1.1647,-0.6491 -2.1324,-2.61192 -4.78171,-4.82092 -6.49776,-7.75902 -2.56955,-4.35138 -4.03697,-9.60853 -2.73238,-14.60968 1.03333,-4.17568 3.10903,-8.33845 6.79653,-10.76087 0.6324,-0.60669 1.80436,-1.17637 1.68783,-2.19815 -0.60626,-0.90404 -1.93472,-0.80552 -2.89563,-0.98055 -1.9558,-0.10121 -3.91652,-0.0634 -5.87415,-0.0645 z"
         id="path3043"
         inkscape:connector-curvature="0" />
      <path
         style="fill:#666666;fill-opacity:1;stroke:#666666;stroke-width:0.14731391"
         d="m 284.21328,352.06383 c -2.52417,0.11411 -5.07498,0.12345 -7.57746,0.43274 -0.23858,2.07606 -0.10904,4.2979 -0.20593,6.43006 -0.14839,9.49724 -0.36358,19.00056 -0.11171,28.49715 0.008,0.94434 0.43419,2.2276 1.58822,2.16827 2.68454,0.014 5.3917,-0.37731 7.95956,-1.14628 0.65161,-0.38222 0.32052,-1.37803 0.49267,-2.00657 0.56906,-9.87832 0.57371,-19.78369 1.24437,-29.65592 0.26618,-0.77435 -0.0342,-1.70884 -0.79331,-2.06779 -0.45979,-0.73455 0.63892,-1.76513 -0.17033,-2.35703 -0.72652,-0.41847 -1.62618,-0.26567 -2.42608,-0.29463 z"
         id="path3045"
         inkscape:connector-curvature="0" />
      <path
         style="fill:#666666;fill-opacity:1;stroke:#666666;stroke-width:0.14731391"
         d="m 290.92987,348.9196 c -0.47558,0.10587 -1.57067,-0.3165 -1.33963,0.57545 -0.15651,13.5097 -0.33519,27.01948 -0.42813,40.52974 1.46025,0.20991 3.10096,-0.0261 4.63107,0.009 1.95587,-0.14615 4.04368,0.11406 5.88806,-0.6346 1.0156,-0.69158 0.56631,-2.16456 0.76419,-3.19487 0.38431,-11.64031 0.31806,-23.29478 0.32225,-34.93641 -0.3912,-1.02247 -1.08382,-2.08328 -2.28797,-2.14526 -2.50197,-0.24256 -5.03596,-0.16965 -7.54984,-0.20256 z"
         id="path3047"
         inkscape:connector-curvature="0" />
      <path
         style="fill:#666666;fill-opacity:1;stroke:#666666;stroke-width:0.20833333"
         d="m 285.49567,222.84033 c -8.90165,0.43774 -17.82449,0.72101 -26.69271,1.63412 -1.15347,-0.0222 -2.30616,0.67593 -2.29818,1.92708 -0.41123,5.04161 -0.41577,10.13126 -0.14323,15.18229 0.15845,1.8048 0.43963,4.49021 2.63021,4.86979 3.40639,0.32946 6.81409,-0.47635 10.22638,-0.51851 5.72331,-0.41796 11.47211,-0.47723 17.18898,-0.93982 1.7619,-0.16527 1.54928,-2.42155 1.6862,-3.70443 0.0872,-6.14173 -0.62964,-12.259 -1.1914,-18.36588 -0.36515,-0.21025 -0.9732,-0.0382 -1.40625,-0.0846 z m -2.60417,7.33724 c 0.14972,3.93907 0.13856,7.8817 0.13672,11.82292 -7.15983,-0.13134 -14.32987,0.38218 -21.43229,1.14583 -0.50623,-0.42364 -0.14739,-1.43652 -0.35608,-2.03013 -0.21076,-4.10474 -0.59289,-8.23379 -0.39913,-12.33836 0.41193,-1.17622 2.0608,-0.86213 3.02734,-1.16536 6.28166,-0.51791 12.59218,-0.62496 18.89323,-0.625 0.0434,1.06337 0.0868,2.12673 0.13021,3.1901 z"
         id="path3085"
         inkscape:connector-curvature="0" />
      <path
         style="fill:#666666;fill-opacity:1;stroke:#666666;stroke-width:0.20833333"
         d="m 274.27171,232.61898 c -2.50465,0.1764 -5.35915,0.4009 -7.30469,2.11588 -0.91742,1.00226 0.491,2.4215 1.62109,2.23959 2.80908,0.40719 5.74213,-0.0369 8.44401,-0.80729 1.48275,-0.73921 0.74709,-3.58054 -0.9375,-3.52214 -0.60668,-0.0423 -1.21526,-0.0371 -1.82291,-0.026 z"
         id="path3087"
         inkscape:connector-curvature="0" />
      <path
         style="fill:#666666;fill-opacity:1;stroke:#666666;stroke-width:0.20833333"
         d="m 45.059467,221.27783 c -1.254297,0.5496 -2.73203,1.0933 -3.109886,2.57767 -0.965376,1.63089 -0.26205,3.63011 -0.457784,5.43007 0.03496,4.38142 0.03035,8.76464 0.13017,13.14461 5.012137,0.49667 10.173382,0.57255 15.244034,0.88359 4.523707,0.12102 9.054643,0.65176 13.577581,0.43151 0.890543,-0.0256 1.997775,-0.47571 1.705704,-1.58813 0.240269,-6.86668 0.462404,-13.74311 0.410181,-20.61239 -2.625558,-0.29625 -5.406327,-0.10058 -8.085871,-0.19805 -6.471152,-0.0358 -12.94368,-0.0599 -19.414129,-0.0689 z m 9.082031,3.02735 c 4.644727,0.0318 9.288217,0.15577 13.932292,0.23437 -0.185692,4.48894 0.118431,9.02325 -0.449219,13.48308 -0.163423,0.89327 -0.718906,1.71631 -1.751302,1.54947 -5.634803,0.48013 -11.304568,0.76339 -16.959635,0.66407 -1.261878,0.0858 -2.205702,-0.81796 -2.324219,-2.04427 -0.79652,-3.72879 -1.107003,-7.61236 -0.794271,-11.41276 0.462611,-2.22324 3.27863,-2.38518 5.136719,-2.44141 1.069325,-0.0372 2.1398,-0.0312 3.209635,-0.0325 z"
         id="path3089"
         inkscape:connector-curvature="0" />
      <path
         style="fill:#666666;fill-opacity:1;stroke:#666666;stroke-width:0.20833333"
         d="m 57.468321,231.19971 c -1.55572,0.0927 -3.466218,0.0821 -4.622396,1.25 0.01922,0.88553 1.388594,0.95034 2.022785,1.26321 2.33252,0.64903 4.857754,0.71038 7.228517,0.31882 1.35639,-0.51242 0.792825,-2.65608 -0.611979,-2.63021 -1.327649,-0.20083 -2.676893,-0.21253 -4.016927,-0.20182 z"
         id="path3091"
         inkscape:connector-curvature="0" />
      <g
         id="g3025"
         transform="translate(-31.873283,11.986217)">
        <path
           style="fill:#150d0d"
           d="m 44.236286,380.56965 c -0.317487,-0.5117 -0.478287,-3.0992 -0.357333,-5.75 L 44.09887,370 38.049435,370 32,370 l 0,-3 c 0,-2.6975 0.327707,-3.01005 3.25,-3.09968 7.998441,-0.24532 8.226984,-0.52736 8.463998,-10.4454 0.117699,-4.92521 -0.110711,-9.47997 -0.507577,-10.12169 -0.396866,-0.64172 -2.068165,-1.32054 -3.713998,-1.50848 C 36.298704,341.46005 36,341.1308 36,337.97525 c 0,-1.21932 0.958479,-2.38916 2.409494,-2.94084 2.380914,-0.90522 2.408256,-1.06802 2.305157,-13.72525 -0.112035,-13.75434 0.397378,-16.71358 3.073416,-17.85387 0.941563,-0.4012 7.037267,-0.85561 13.546007,-1.00979 6.508741,-0.15417 12.085519,-0.53176 12.392838,-0.83908 0.30732,-0.30732 0.04449,-3.11954 -0.584074,-6.24937 -0.628561,-3.12984 -1.151587,-8.20306 -1.16228,-11.27383 -0.0232,-6.66349 -3.310042,-29.07878 -6.437017,-43.8986 C 59.913231,232.45802 59.39567,209.32901 60.91285,212 c 0.829481,1.4603 3.897746,22.08817 6.062507,40.75808 0.997919,8.60652 4.254483,19.80438 7.746734,26.63754 2.578565,5.04539 3.256335,1.11047 3.168557,-18.39562 -0.09348,-20.77409 -0.36892,-23 -2.846046,-23 -0.956221,0 -2.819937,-0.93672 -4.141592,-2.08159 -2.28717,-1.98124 -2.418643,-2.74896 -2.727298,-15.92571 -0.302413,-12.91026 -0.184365,-13.98405 1.75,-15.91841 C 71.06657,202.93343 73.098442,202 74.440983,202 c 1.342541,0 2.646642,-0.3375 2.898004,-0.75 0.871176,-1.42965 4.091075,-35.57472 5.587308,-59.25 0.504005,-7.975 1.661649,-17.34708 2.572543,-20.82684 -0.412591,-5.86465 2.458624,-9.93897 3.533568,-14.42316 C 90.66899,99.775281 91.684,98 94.035184,98 95.115833,98 96,98.337486 96,98.749969 c 0,0.412483 -1.535622,7.499981 -3.412493,15.750001 -2.779304,12.21677 -3.712656,19.36046 -5.030189,38.50003 -0.889733,12.925 -2.129618,28.4912 -2.7553,34.59155 -0.625682,6.10035 -0.85122,11.83785 -0.501196,12.75 C 84.759738,201.53746 86.160921,202 89.324839,202 l 4.387609,0 0.695088,-8.25 c 0.382298,-4.5375 1.547855,-19.30263 2.590127,-32.8114 1.042272,-13.50877 2.611026,-28.80877 3.486117,-34 0.8751,-5.19123 1.91174,-13.7136 2.30365,-18.9386 0.64475,-8.595811 0.90293,-9.5 2.71257,-9.5 1.77874,0 2.18262,1.216921 3.65076,11 0.90792,6.05 2.41218,14.15 3.3428,18 0.93062,3.85 1.86168,7.85107 2.06902,8.89127 0.20735,1.0402 1.24411,5.3152 2.30392,9.5 2.34837,9.27292 3.45905,17.86755 3.21395,24.87022 -0.13737,3.92476 0.20504,5.41083 1.34777,5.84934 1.95438,0.74996 11.43631,-2.2277 14.11017,-4.43109 2.90253,-2.39182 8.98302,-11.96483 10.59449,-16.67974 1.80457,-5.27992 3.42578,-6.43009 9.11712,-6.4682 3.22445,-0.0216 4.75,-0.45103 4.75,-1.33712 0,-0.71792 -5.23354,-6.45542 -11.63008,-12.75 -14.92955,-14.69155 -20.14146,-21.447 -25.5724,-33.14589 -1.67608,-3.610471 -1.66962,-3.664858 0.41669,-3.507701 1.22004,0.0919 2.92125,1.51905 4.00959,3.363651 1.98452,3.36351 4.82,4.37511 16.2762,5.80678 10.99129,1.37356 18.09847,2.89681 20,4.28651 1.8875,1.37945 1.83126,1.42807 -1,0.8643 -1.65,-0.32856 -8.44563,-0.89097 -15.1014,-1.24981 -9.21832,-0.49699 -12.28658,-0.35279 -12.8787,0.60529 -0.7746,1.25332 18.60602,20.91221 39.5827,40.15105 7.3965,6.78373 10.88785,10.98485 16.3974,19.73089 3.85,6.11162 7.51848,11.12063 8.15217,11.13114 1.52881,0.0254 2.8265,-3.91405 4.28321,-13.00252 1.95287,-12.18411 4.15584,-21.08494 5.91502,-23.89888 7.15706,-11.44827 11.47956,-16.04266 22.12693,-23.51878 14.59076,-10.24499 15.19487,-11.26408 5.62898,-9.49573 -3.15278,0.58282 -6.24956,0.88727 -6.88172,0.67655 -2.30423,-0.76808 5.40104,-3.57948 14.4735,-5.28091 8.06437,-1.51237 9.93483,-2.26649 14.05925,-5.66825 3.44988,-2.84542 5.50265,-3.83703 7.46924,-3.608084 2.62173,0.305216 2.48736,0.531277 -4.04111,6.798604 -3.71416,3.56559 -7.55386,6.94059 -8.53266,7.5 -3.35946,1.92001 -28.65277,21.23269 -30.28611,23.12492 -0.89831,1.0407 -3.12533,4.56218 -4.94892,7.82551 -2.79782,5.00673 -3.01126,5.80371 -1.3667,5.10339 1.07191,-0.45647 4.89821,-1.91744 8.50289,-3.24661 6.1665,-2.27381 6.74498,-2.76413 9.78502,-8.29397 4.8907,-8.89617 13.30948,-14.92863 18.88217,-13.52998 7.38566,1.85368 16.37641,17.45984 17.87869,31.03385 0.42609,3.85 0.84689,7.45 0.93512,8 0.0882,0.55 0.22894,1.7875 0.31272,2.75 0.13087,1.50365 3.15231,2.67636 3.15231,1.2235 0,-0.28957 0.8868,-4.00207 1.97066,-8.25 1.08386,-4.24792 2.43407,-11.7735 3.00048,-16.7235 1.6097,-14.06785 4.46328,-31.5 5.15642,-31.5 0.34573,0 1.63832,-2.7 2.87244,-6 l 2.24385,-6 4.81906,0 c 2.65048,0 5.05106,0.375385 5.33461,0.83419 0.28356,0.4588 0.7365,3.0463 1.00654,5.75 0.27003,2.7037 1.21798,9.19081 2.10655,14.41581 2.34572,13.79341 2.28145,13.34684 3.9573,27.5 0.84661,7.15 1.73373,14.57518 1.97137,16.5004 0.23765,1.92522 0.72153,7.10022 1.0753,11.5 0.35377,4.39978 1.28271,12.55735 2.06432,18.12794 0.7816,5.57058 1.4211,10.40808 1.4211,10.75 0,0.34191 1.03899,0.62166 2.30887,0.62166 1.26988,0 3.0827,0.56584 4.02849,1.25741 2.24601,1.64233 3.8432,11.93377 3.45845,22.28449 L 324.5,236.5 l -3.37859,1.48572 -3.37859,1.48572 0.67996,16.01428 C 320.20563,297.47448 320.64903,302 322.98017,302 c 1.01674,0 2.22789,-1.17671 2.83049,-2.75 2.91828,-7.6192 6.14742,-21.68938 6.73912,-29.36403 0.36527,-4.73772 1.02134,-9.19203 1.45794,-9.89846 1.6296,-2.63676 2.28256,14.58449 1.05793,27.9023 -0.98912,10.75669 -0.983,13.54324 0.0311,14.17 0.69431,0.42911 3.90349,0.79283 7.13152,0.80827 7.75505,0.0371 9.43403,0.67647 10.28779,3.91775 0.591,2.24372 1.36978,13.14543 1.46189,20.46417 0.0121,0.9625 0.6667,1.75 1.45463,1.75 1.61438,0 3.03153,3.44 2.06284,5.00736 -0.34851,0.5639 -1.03425,0.77768 -1.52387,0.47507 -0.48962,-0.3026 -1.80853,0.0233 -2.9309,0.72424 C 351.17518,336.37169 351,337.4863 351,348.19064 l 0,11.70955 5.75,0.29991 c 5.44331,0.2839 5.76688,0.44658 6.06642,3.0499 0.31337,2.72345 0.25978,2.75 -5.55,2.75 -6.75968,0 -8.3844,1.07577 -7.32667,4.85118 0.8433,3.01002 0.58797,8.95434 -0.42828,9.97086 -0.95559,0.95584 -74.35123,1.11334 -83.85996,0.17997 -4.5023,-0.44195 -8.4543,-1.37623 -9.26943,-2.19136 -0.78152,-0.78151 -1.70227,-4.43362 -2.04611,-8.11579 -0.48193,-5.16086 -0.99303,-6.71624 -2.23057,-6.78817 -1.68559,-0.098 -13.2217,-0.0711 -14.13616,0.0329 -0.29192,0.0332 -1.03352,1.39232 -1.64799,3.02024 l -1.11722,2.95987 -36.35202,-0.20987 L 162.5,369.5 162,366 l -0.5,-3.5 -9.5,0.35413 c -5.225,0.19477 -9.8375,0.55883 -10.25,0.80902 -0.4125,0.25018 -0.75251,2.11583 -0.75558,4.14587 -0.003,2.03004 -0.46943,5.36116 -1.03637,7.40249 -0.8955,3.22435 -1.51825,3.79931 -4.74443,4.38039 -2.04249,0.36788 -4.20977,1.06024 -4.81617,1.53857 -1.49584,1.1799 -85.420042,0.63364 -86.161164,-0.56082 z M 317.9341,376.34341 c 0.23875,-0.20805 0.58947,-7.00793 0.77938,-15.11084 0.18991,-8.10291 0.51493,-15.52007 0.72228,-16.48257 0.20735,-0.9625 -0.0168,-1.75 -0.49799,-1.75 -0.48125,0 -0.60618,-0.70053 -0.27763,-1.55672 0.50321,-1.31136 -0.25043,-1.50838 -4.78138,-1.25 L 308.5,340.5 l -0.34454,17.28245 c -0.18949,9.50535 -0.0884,17.94999 0.22471,18.76587 0.43838,1.14239 1.55207,1.33283 4.84453,0.82838 2.35142,-0.36026 4.47064,-0.82524 4.7094,-1.03329 z m 14.18389,0.40659 c 0.47636,-5.04659 0.76967,-35.70434 0.35877,-37.5 -0.45337,-1.98126 -1.13965,-2.24979 -5.74581,-2.24825 l -5.23095,0.002 -0.212,20.49825 -0.212,20.49825 5.462,0 c 3.64001,0 5.50136,-0.41697 5.57999,-1.25 z m 12.80504,-16.13243 c 0.0574,-9.56034 -0.17489,-18.11034 -0.51629,-19 C 343.96989,340.47915 342.52914,340 339.54291,340 l -4.24312,0 -0.13661,19 -0.13662,19 4.89602,0 4.89603,0 z M 59.199921,376.0689 c 0.384956,-0.0379 0.609956,-8.0564 0.5,-17.8189 L 59.5,340.5 l -4.092124,-0.29978 -4.092124,-0.29979 -0.635664,17.29979 c -0.698417,19.00762 -0.424618,20.03219 5.155296,19.29136 1.465539,-0.19458 2.97958,-0.38479 3.364537,-0.42268 z M 73.5,356 l 0,-19.5 -4.761778,-0.30527 c -4.003836,-0.25668 -4.879282,0.0126 -5.5,1.6918 C 62.8322,338.98492 62.5,347.80117 62.5,357.47819 c 0,13.07832 0.323664,17.79465 1.260935,18.37398 0.693515,0.42866 3.168515,0.52478 5.5,0.21361 L 73.5,375.5 z m 10.773074,20.01365 c 1.640668,-0.0126 1.752683,-1.33916 1.5,-17.76365 L 85.5,340.5 82.122842,340.17716 c -1.857436,-0.17757 -3.836501,0.1365 -4.397921,0.69792 -1.361209,1.36121 -1.694556,33.19358 -0.365936,34.94444 0.556476,0.73333 1.920831,1.07258 3.071158,0.76366 1.138422,-0.30573 2.86774,-0.56202 3.842931,-0.56953 z M 283.92333,353.4041 284.07802,333 l -5.53901,0 -5.53901,0 0,20.03222 c 0,19.3 0.0751,20.06003 2.05574,20.7927 1.13066,0.41825 3.5536,0.5856 5.38432,0.37187 l 3.32858,-0.38859 z M 270.16812,365.25 c 0.3524,-18.34127 0.25091,-24.80717 -0.41596,-26.5 -0.9228,-2.3425 -8.25904,-2.47744 -9.14517,-0.16821 -0.33385,0.86998 -0.60699,9.19498 -0.60699,18.5 L 260,374 l 5,0 5,0 z m 25.97489,7.5 c 0.19635,-0.6875 0.35699,-8.9 0.35699,-18.25 l 0,-17 -3.88178,-0.31822 c -2.13498,-0.17502 -4.23309,0.05 -4.66246,0.5 -0.65778,0.6894 -1.4961,26.98674 -1.08605,34.06822 0.1142,1.97211 0.67286,2.25 4.5233,2.25 2.65735,0 4.53406,-0.49387 4.75,-1.25 z M 108.61318,358 c 0.0622,-7.975 -0.10034,-15.9625 -0.3613,-17.75 -0.45067,-3.08703 -0.68927,-3.25 -4.75814,-3.25 l -4.283669,0 -0.417754,4.25 c -0.326688,3.32354 -0.216061,30.19943 0.129887,31.55479 0.04279,0.16764 2.215296,0.16764 4.827796,0 L 108.5,372.5 z m 13.63722,12.25 c 0.5356,-2.94349 0.16719,-36.17076 -0.40728,-36.73277 -0.77462,-0.75781 -8.49296,-0.85167 -9.68052,-0.11772 -0.9815,0.6066 -1.22924,5.16088 -1.0578,19.4463 0.12312,10.2598 0.40147,18.99169 0.61855,19.40419 0.21708,0.4125 2.56188,0.75 5.21067,0.75 4.46582,0 4.85236,-0.19995 5.31638,-2.75 z M 135,355.10941 l 0,-17.8906 -3.51336,-0.41016 c -1.93235,-0.22559 -4.06985,-0.0668 -4.75,0.35277 -0.88883,0.54836 -1.312,5.69556 -1.50458,18.30076 L 124.96412,373 l 5.01794,0 5.01794,0 z m 54,8.12486 c 0,-0.28476 -1.39152,-1.84755 -3.09226,-3.47287 -3.99059,-3.81362 -6.86382,-10.20212 -6.86382,-15.2614 0,-5.12694 3.05946,-11.86641 6.37229,-14.03705 5.04396,-3.30494 3.32456,-4.24302 -7.16621,-3.90979 l -9.75,0.3097 -0.26808,13.31857 c -0.18199,9.04167 -0.51636,5.69116 -0.83709,14.11757 0.78978,4.04594 -0.0359,3.08204 0.60517,6.18669 0,1.40716 0.70993,2.56051 1.75,2.84302 2.35999,0.64106 19.25,0.5582 19.25,-0.0944 z m 40.31067,-0.0499 c 1.67406,-0.41548 1.79353,-1.79751 1.58338,-18.31689 L 230.66675,327 l -4.58337,-0.0874 c -2.52086,-0.0481 -7.18335,-0.20992 -10.36109,-0.35968 -6.31158,-0.29746 -7.97279,0.55626 -4.32048,2.22037 3.31509,1.51045 7.59819,10.59015 7.59819,16.10731 0,5.38521 -3.07319,12.16174 -7.02246,15.48482 -1.57665,1.32667 -2.5641,2.71467 -2.19432,3.08445 0.7117,0.71169 16.45241,0.49768 19.52745,-0.2655 z m -22.52083,-3.08707 c 15.84553,-8.12606 11.94287,-29.20507 -5.93025,-32.03043 -4.34275,-0.6865 -5.74324,-0.49025 -8.76414,1.22812 -7.55644,4.29829 -11.59081,10.8135 -10.54158,17.02384 2.05883,12.18612 14.78842,19.13629 25.23597,13.77847 z M 197,352.29056 c -3.3029,-1.21445 -5,-3.67674 -5,-7.25442 0,-5.08461 1.99456,-7.43059 6.44299,-7.57819 2.89924,-0.0962 4.17223,0.48449 6.10966,2.78699 3.77579,4.48727 3.1523,8.82203 -1.62417,11.29205 -3.00451,1.55369 -3.56031,1.62434 -5.92848,0.75357 z m 6.92742,-3.92542 C 205.06734,346.91597 206,345.14863 206,344.43772 206,342.80035 201.23331,339 199.17959,339 196.91883,339 193,343.02409 193,345.34557 c 0,5.55651 7.33707,7.58396 10.92742,3.01957 z M 254,345.5 l 0,-12.5 -8.5,0 -8.5,0 0,12.5 0,12.5 8.5,0 8.5,0 z m -92.2157,-0.4157 c 0.15637,-6.27863 -0.0686,-11.72581 -0.5,-12.10483 -0.43136,-0.37902 -5.1718,-0.47578 -10.5343,-0.21502 l -9.75,0.47411 0,11.21405 c 0,6.16773 0.31521,11.52926 0.70046,11.91452 0.38525,0.38525 4.99775,0.57275 10.25,0.41666 L 161.5,356.5 z M 88.5,328.59807 c 0.622138,-0.21063 0.811069,-4.06089 0.5,-10.18959 l -0.5,-9.85102 -20.583333,-0.14688 c -18.315814,-0.1307 -20.595864,0.0314 -20.697074,1.47127 -0.459864,6.54235 -0.164727,17.56682 0.486967,18.19003 0.436392,0.41732 1.91844,0.90937 3.29344,1.09344 3.043959,0.4075 36.097757,-0.0925 37.5,-0.56725 z m -22.100296,-2.36338 c -1.962557,-1.31044 -3.100901,-4.67516 -2.44762,-7.23469 0.498436,-1.95286 1.27952,-2.5 3.568919,-2.5 2.285588,0 3.140634,0.59656 3.883788,2.70971 1.66593,4.73705 -1.589193,9.30583 -5.005087,7.02498 z M 69.5,322 c -0.339919,-0.55 -1.041476,-1 -1.559017,-1 C 67.423442,321 67,321.45 67,322 c 0,0.55 0.701558,1 1.559017,1 0.857459,0 1.280902,-0.45 0.940983,-1 z m 278.6245,6.63439 c 0.48646,-4.43247 -0.42225,-17.28823 -1.29648,-18.34161 C 346.01661,309.31508 340.91044,309 325.87756,309 L 306,309 l 0,9.94521 0,9.94521 4.75,0.31976 c 12.99905,0.87507 37.25628,0.50136 37.3745,-0.57579 z m -24.51751,-3.21618 c -1.09622,-2.85669 -0.63872,-5.07952 1.43096,-6.95255 1.99178,-1.80254 2.09799,-1.78426 4.6893,0.80704 2.42597,2.42597 2.53589,2.8671 1.29307,5.18933 -1.57181,2.93696 -6.41359,3.56146 -7.41333,0.95618 z M 328.75,322.75 c -0.47189,-1.41567 -2.07998,-1.26005 -2.58333,0.25 -0.18334,0.55 0.41666,1 1.33333,1 0.91667,0 1.47917,-0.5625 1.25,-1.25 z m -168.94901,3.60638 c 1.50671,-0.40357 2.49914,-1.60703 2.875,-3.48635 L 163.25,320 l 9.875,0 c 7.20781,0 9.88793,-0.33762 9.92286,-1.25 0.0583,-1.5232 0.76886,-9.47341 1.4523,-16.25 0.6723,-6.66605 0.63961,-26.75065 -0.0537,-33 -1.15001,-10.36576 -1.31107,-12.28567 -1.97133,-23.5 -0.64146,-10.89492 -0.50932,-12.12454 2.51155,-23.36996 1.75375,-6.52847 4.04751,-13.27847 5.09725,-15 2.88027,-4.72352 2.4061,-6.70845 -3.55128,-14.86599 -4.49839,-6.1597 -7.24548,-8.66656 -15.5,-14.14454 C 163.94002,173.91263 161,171.38107 161,169.98076 c 0,-3.4615 -3.95186,-2.29206 -8.86822,2.6243 -9.84106,9.84107 -23.55634,13.78829 -32.63644,9.39269 -4.24911,-2.05697 -4.61166,-2.50402 -3.95833,-4.88105 1.83603,-6.68008 1.61611,-18.88694 -0.46624,-25.87908 C 113.93185,147.41334 113,143.41615 113,142.35499 c 0,-1.14838 -0.73619,-1.98484 -1.81868,-2.06638 -2.02229,-0.15233 -4.47336,6.00664 -6.20745,15.59788 -1.96908,10.89101 -0.62572,24.9553 3.07685,32.21293 2.20864,4.32929 2.58626,4.42824 22.44928,5.88245 24.7113,1.80916 38.53747,3.26974 39.0673,4.12702 0.28401,0.45955 1.17309,4.56055 1.97572,9.11333 1.76981,10.03895 1.03599,22.17909 -1.54032,25.48261 -1.21056,1.55226 -1.77323,4.33461 -1.90108,9.40073 -0.302,11.96692 -1.82649,25.0322 -3.70218,31.72877 l -1.77423,6.33433 -7.06261,3.35702 c -3.88443,1.84636 -10.2126,4.03676 -14.0626,4.86756 -3.85,0.8308 -8.8,1.9641 -11,2.51843 -2.2,0.55434 -7.74487,1.3155 -12.32193,1.69146 -8.17222,0.67128 -11.73157,2.22779 -10.89169,4.76294 0.25017,0.75514 5.80742,1.30096 16.63582,1.63393 20.56325,0.63232 20.0778,0.24682 20.0778,15.94412 0,5.8974 0.3,11.02255 0.66667,11.38921 0.83493,0.83494 12.03944,0.852 15.13432,0.0231 z M 251,314.29563 c 0.33115,-8.08297 0.93848,-12.64191 1.79845,-13.5 0.92086,-0.91886 5.86445,-1.39404 17,-1.63406 8.63585,-0.18613 16.2011,-0.75149 16.81166,-1.25635 0.61057,-0.50485 0.89561,-2.04006 0.63343,-3.41157 C 286.9656,293.0397 287.23239,292 287.88342,292 288.49754,292 289,291.56412 289,291.03138 c 0,-0.53273 -0.62948,-0.72706 -1.39885,-0.43182 -0.76937,0.29523 -1.69592,0.0561 -2.05902,-0.53139 C 285.17904,289.48068 282.49051,289 279.56761,289 c -2.92289,0 -8.85883,-0.89309 -13.19098,-1.98465 -4.33215,-1.09155 -9.57092,-1.99155 -11.64173,-2 -2.0708,-0.008 -6.3458,-0.67269 -9.5,-1.47611 -3.15419,-0.80341 -6.86543,-1.68514 -8.2472,-1.95939 -2.31248,-0.45898 -2.72759,-1.43637 -5.21935,-12.28924 -1.75197,-7.63073 -2.86053,-15.78289 -3.14205,-23.10617 -0.32002,-8.3247 -0.84322,-11.76665 -1.97946,-13.02218 -2.27544,-2.51434 -3.09494,-13.56196 -1.64944,-22.23617 1.92527,-11.55325 0.9918,-10.92761 16.28778,-10.91644 14.51151,0.0106 30.98505,-1.45734 37.21482,-3.31615 l 4,-1.1935 0.29184,-7.73756 c 0.16051,-4.25566 -0.19282,-8.64316 -0.78518,-9.75 -1.80511,-3.37288 -7.53565,-2.38148 -9.0354,1.56314 -0.48154,1.26655 -1.85888,2.82909 -3.06075,3.47231 -2.05805,1.10144 -2.147,1.00314 -1.52844,-1.6892 0.36123,-1.57228 0.93035,-6.47306 1.26471,-10.89062 0.55228,-7.29669 0.37529,-8.4867 -1.9334,-13 C 264.43954,151.068 257.24938,143 254.81951,143 c -6.8939,0 -15.21141,16.07983 -19.91466,38.5 l -1.88799,9 0.41642,-7.5 c 0.51635,-9.29952 3.15721,-21.88993 5.02426,-23.95332 C 240.34317,156.96274 244,148.30006 244,145.91709 c 0,-1.94912 -1.6457,-2.48264 -3.55279,-1.15178 -0.57903,0.40408 -2.06054,2.39357 -3.29224,4.42108 -1.4213,2.33961 -3.47041,4.09264 -5.60879,4.79837 -4.06276,1.34083 -4.5322,2.39801 -4.5946,10.34703 -0.0593,7.56104 -2.32407,23.41152 -4.31045,30.16821 -1.53168,5.21005 -5.21783,14.20931 -10.56884,25.80248 -4.58491,9.93339 -6.58052,26.94161 -5.00865,42.68795 0.63191,6.33026 1.26836,21.63457 1.41432,34.00957 l 0.2654,22.5 13.33814,0.28049 c 13.98539,0.29409 14.87369,0.59302 14.90319,5.0152 0.0146,2.19546 0.31001,2.28278 6.76531,2 L 250.5,326.5 z M 286.70107,326 l 13.53749,0 -0.4138,-9.46119 c -0.22759,-5.20365 -0.76784,-9.81615 -1.20055,-10.25 -0.83198,-0.83416 -38.94641,-1.76116 -40.95123,-0.99599 -0.81991,0.31293 -1.07803,3.48344 -0.85752,10.53323 l 0.31547,10.08555 6.68453,0.34006 c 3.6765,0.18702 7.28384,0.20691 8.01633,0.0442 C 272.56427,326.13313 279.25545,326 286.70107,326 z m -11.12964,-3.57143 c -1.91327,-1.91327 -2.01159,-4.44436 -0.2654,-6.83241 1.96572,-2.68829 5.93806,-1.71182 7.1537,1.75851 0.8599,2.4548 0.67211,3.12016 -1.34066,4.75 -2.84307,2.30217 -3.5293,2.34224 -5.54764,0.3239 z M 280,319 c 0,-0.55 -0.675,-1 -1.5,-1 -0.825,0 -1.5,0.45 -1.5,1 0,0.55 0.675,1 1.5,1 0.825,0 1.5,-0.45 1.5,-1 z m -141.385,1.32 c -0.20901,-3.201 -0.43288,-7.98323 -0.4975,-10.62719 L 138,304.88562 l -20.41891,0.30719 c -11.2304,0.16896 -20.792902,0.68156 -21.250001,1.13912 -0.457099,0.45757 -0.911225,4.81897 -1.009168,9.69201 l -0.17808,8.86007 3.17808,0.30823 c 1.747939,0.16953 11.614459,0.45212 21.925579,0.62799 l 18.74751,0.31976 z m -25.0583,0.45749 c -2.07301,-2.95964 -1.96273,-5.10007 0.37164,-7.21264 4.05921,-3.67353 9.31215,1.61846 6.8879,6.93911 -1.44081,3.16224 -5.13862,3.30157 -7.25954,0.27353 z m 4.79264,-3.30952 C 118.03951,316.66059 117.38417,316 116.89301,316 c -1.0261,0 -1.20654,2.35313 -0.25353,3.30615 1.06676,1.06675 2.31121,-0.27108 1.70986,-1.83818 z m 86.96225,0.83235 c 0.26307,-0.99018 0.3299,-4.95032 0.14851,-8.80032 -0.18138,-3.85 -0.35911,-8.51498 -0.39495,-10.36663 -0.0585,-3.02078 -0.29629,-3.29499 -2.31515,-2.66927 -5.52548,1.71257 -6.88416,1.72446 -8.70546,0.0762 -1.78144,-1.61218 -1.94072,-1.60282 -2.88943,0.16987 -1.1744,2.19438 -2.69222,20.61174 -1.81557,22.0302 0.32836,0.53128 3.94877,1.05468 8.04538,1.16311 6.42684,0.1701 7.51396,-0.0498 7.92667,-1.60316 z m 109.57055,-16.88003 c 0.48224,-0.44324 0.23431,-16.81625 -0.38492,-25.42029 -1.55024,-21.54003 -2.77471,-35.59425 -3.15687,-36.23388 -0.24115,-0.40364 -1.87889,-0.56644 -3.63941,-0.36179 -1.76052,0.20466 -4.69907,0.42241 -6.53012,0.48389 L 297.84164,240 l 0.6245,26.75 c 0.34348,14.7125 0.83903,28.1 1.10124,29.75 0.64457,4.05613 5.44282,6.61905 10.93262,5.83951 2.2,-0.31239 4.17196,-0.72605 4.38214,-0.91922 z M 92.529013,299.37419 C 93.867447,297.93 94.752545,296.40863 94.4959,295.99337 94.239254,295.5781 93.849203,282.8501 93.629121,267.70892 93.409039,252.56774 92.925896,239.68911 92.555469,239.08975 92.185042,238.49039 90.117097,238 87.960035,238 c -5.098714,0 -5.166531,0.31854 -4.577343,21.5 0.260082,9.35 0.505373,22.7375 0.545092,29.75 L 84,302 l 3.047749,0 c 2.005359,0 3.880059,-0.89808 5.481264,-2.62581 z M 195.50332,286.99462 c 0.9547,-1.54472 5.49177,-1.17098 6.13505,0.50538 0.31659,0.825 1.47165,1.5 2.56681,1.5 1.82422,0 1.94286,-0.48216 1.41481,-5.75 -0.31702,-3.1625 -0.86024,-10.07779 -1.20716,-15.3673 -0.34692,-5.28952 -0.95215,-10.13731 -1.34495,-10.77287 -0.52778,-0.85397 -1.66133,-0.75982 -4.3432,0.36074 -2.56289,1.07084 -4.34731,1.24321 -6.07403,0.58671 -1.34475,-0.51128 -2.68632,-0.68827 -2.98127,-0.39333 -0.60646,0.60646 0.1829,29.13334 0.86136,31.12917 0.46883,1.37915 3.73987,0.19607 4.97258,-1.7985 z M 131.5,262.5 l 0,-20 -5.5,0.34562 c -3.025,0.19009 -5.83061,0.86509 -6.23469,1.5 -0.40408,0.63491 -0.74158,9.61335 -0.75,19.9521 L 119,283.09543 125.25,282.79772 131.5,282.5 z m -16.53518,17.56574 C 115.57666,278.9225 116,270.1738 116,258.67273 c 0,-16.82135 -0.21439,-19.54102 -1.58179,-20.06574 -4.44039,-1.70394 -9.90003,0.4678 -11.30452,4.49673 -2.73703,7.85144 -1.93904,36.12272 1.07352,38.03314 0.72203,0.45788 3.20946,0.83941 5.52761,0.84783 3.15368,0.0115 4.47543,-0.47166 5.25,-1.91895 z M 274,279.44902 c 1.925,-0.38515 3.7606,-1.10837 4.0791,-1.60715 0.76597,-1.19949 -0.0336,-24.50358 -0.97245,-28.34187 -0.70332,-2.87546 -0.95947,-3 -6.17022,-3 l -5.43643,0 0.37156,16.5 c 0.20436,9.075 0.57973,16.8558 0.83416,17.29068 0.25443,0.43487 1.21222,0.58097 2.12844,0.32465 0.91621,-0.25631 3.24084,-0.78115 5.16584,-1.16631 z M 154.28277,277.9513 c 2.77678,-0.69973 5.21125,-2.00587 5.80438,-3.11414 1.88852,-3.52873 3.78401,-19.249 3.59765,-29.83716 l -0.1848,-10.5 -6.74098,0.31141 c -3.70754,0.17127 -9.78254,0.87273 -13.5,1.5588 -6.27908,1.15882 -6.80387,1.45625 -7.39071,4.18859 -0.90879,4.23145 -1.01141,37.95959 -0.11831,38.88497 0.95759,0.99219 12.29644,0.0791 18.53277,-1.49247 z m 107.55091,-0.51308 c 1.06965,-0.35263 1.20962,-3.35946 0.70705,-15.18894 -0.94921,-22.34258 -0.12603,-20.37633 -9.85735,-23.54547 -9.98575,-3.25199 -19.26071,-3.69304 -20.0579,-0.95381 -1.49672,5.14288 0.52753,25.26379 3.56978,35.48345 1.17095,3.93351 2.09065,4.35967 10.80474,5.00668 4.10866,0.30506 12.92091,-0.17133 14.83368,-0.80191 z m 26.64324,-3.60966 c 3.25722,-1.48409 3.88532,-4.07034 3.31347,-13.64356 -0.52578,-8.80208 -3.58374,-16.185 -6.70373,-16.185 -1.02997,0 -2.14583,0.7118 -2.47967,1.58179 -0.82709,2.15535 -0.77361,27.91825 0.0597,28.75154 0.98294,0.98294 2.91311,0.81526 5.81025,-0.50477 z M 204.45284,240.25 c 0.79883,-11.27668 1.96451,-16.52449 4.15769,-18.71768 0.85673,-0.85672 2.01549,-3.23947 2.57502,-5.295 0.55953,-2.05553 2.1522,-6.21232 3.53926,-9.23732 3.90381,-8.5137 8.42492,-23.79596 8.08313,-27.3226 -0.29167,-3.00953 -0.50541,-3.16199 -4.04567,-2.88565 -4.49471,0.35084 -8.80342,-1.51847 -6.64737,-2.88392 0.76181,-0.48246 3.46372,-0.8841 6.00426,-0.89252 4.55723,-0.0151 4.62746,-0.0656 5.23899,-3.76531 0.34091,-2.0625 0.62479,-6.1125 0.63084,-9 0.01,-4.70161 -0.21258,-5.25 -2.12946,-5.25 -2.90185,0 -10.62681,3.95115 -11.33545,5.79784 -0.31478,0.82032 -1.02231,4.68889 -1.57227,8.59682 -1.28029,9.09749 -8.26683,30.76505 -11.80312,36.60534 -3.51189,5.8 -4.60258,8.65474 -7.25923,19 -1.99442,7.76649 -2.77598,21.44681 -1.30907,22.91373 0.28081,0.28081 1.384,-0.0349 2.45152,-0.70158 3.1775,-1.98439 8.06952,-1.54027 8.67834,0.78785 0.28766,1.1 1.31701,2 2.28746,2 1.51806,0 1.8609,-1.3615 2.45513,-9.75 z m -4.2143,-20.9161 c -2.56633,-1.0339 -3.40444,-4.2331 -2.07334,-7.91421 1.16267,-3.21529 1.57086,-3.48912 4.79571,-3.21706 4.50461,0.38002 6.88421,4.32937 4.82364,8.00561 -2.04898,3.65558 -4.11079,4.50961 -7.54601,3.12566 z M 135.86357,231.5 c 7.64725,-3.3623 8.4318,-3.5 19.94144,-3.5 13.91884,0 13.2225,0.57408 13.13855,-10.83179 -0.0739,-10.03648 -1.55877,-14.30364 -5.32477,-15.30178 -1.58467,-0.42001 -13.28467,-1.47503 -26,-2.3445 -12.71533,-0.86947 -24.53391,-1.83378 -26.26349,-2.14293 -3.29144,-0.5883 -7.3553,0.93384 -7.3553,2.75497 0,0.58499 1.35,2.3247 3,3.86603 2.96567,2.77035 3,2.92282 3,13.32366 l 0,10.52124 3.58225,1.18224 c 1.97023,0.65024 5.45773,2.25472 7.75,3.56551 2.29226,1.31079 4.70845,2.38868 5.36931,2.3953 0.66086,0.007 4.78377,-1.56295 9.16201,-3.48795 z m -12.29214,-5.07143 C 120.02296,222.88011 122.61479,216 127.5,216 c 4.94677,0 6.93511,4.88011 3.88499,9.53518 -1.85382,2.82929 -5.46479,3.24216 -7.81356,0.89339 z M 307,233.55857 c 5.775,-0.27022 11.0625,-0.50644 11.75,-0.52494 1.41479,-0.0381 1.63851,-6.02316 0.59745,-15.98349 l -0.65255,-6.24325 -13.59745,0.6574 c -7.4786,0.36156 -14.38495,0.88534 -15.34745,1.16394 -1.51445,0.43836 -1.75,1.8368 -1.75,10.38947 0,10.794 0.77345,12.26937 5.99387,11.43346 1.37837,-0.22071 7.23113,-0.62238 13.00613,-0.89259 z m -14.21628,-9.17915 c -0.25617,-3.78368 -0.29185,-7.36975 -0.0793,-7.96905 0.24008,-0.6769 4.48859,-1.16982 11.21617,-1.30133 l 10.8297,-0.21169 0.1462,7.55132 0.1462,7.55133 -4.87466,0 c -2.68106,0 -7.58454,0.28324 -10.89661,0.62942 l -6.02196,0.62942 z m 16.7494,-0.57921 c 0.28268,-0.28268 0.2482,-1.2065 -0.0766,-2.05294 -0.45024,-1.17331 -1.58444,-1.41283 -4.77353,-1.00807 -5.04171,0.6399 -7.13503,2.01118 -5.70342,3.73617 0.95611,1.15205 9.25744,0.62097 10.55356,-0.67516 z M 275,232 c 1.375,-1.07554 2.91457,-1.96553 3.42126,-1.97776 0.50669,-0.0122 1.67713,-0.70629 2.60097,-1.54236 1.37575,-1.24504 1.6063,-2.93846 1.27402,-9.35824 -0.37545,-7.25376 -0.21477,-8.06503 2.15531,-10.88171 1.63675,-1.94516 2.32342,-3.66274 1.90268,-4.75918 -0.57668,-1.5028 -1.72477,-1.64277 -9.25629,-1.12851 -4.72887,0.32289 -16.45815,1.05141 -26.06505,1.61894 -9.60691,0.56752 -18.22784,1.2733 -19.15762,1.5684 -2.30226,0.73071 -2.87021,2.58279 -3.56837,11.63645 -0.8311,10.77738 -0.78829,10.8117 13.56553,10.87629 10.48098,0.0472 12.31782,0.33783 18.62756,2.94768 8.29365,3.43043 11.14176,3.62685 14.5,1 z m -8.92742,-4.63486 c -2.48242,-3.15588 -2.55962,-4.22478 -0.51588,-7.14263 2.99672,-4.27841 10.31956,-2.11708 10.4115,3.07294 0.0381,2.15064 -4.27512,6.70455 -6.35017,6.70455 -0.81008,0 -2.40553,-1.18569 -3.54545,-2.63486 z M 104.08632,230.25 c 0.0475,-0.9625 0.1553,-6.025 0.23962,-11.25 l 0.15331,-9.5 -14.690287,-0.27645 C 72.35494,208.89547 73.145619,208.30477 73.356301,221.5 l 0.143699,9 11,0.55233 c 6.05,0.30378 12.9125,0.64128 15.25,0.75 3.42851,0.15946 4.26668,-0.14059 4.33632,-1.55233 z m -24.288622,-2.05028 c -1.117507,-0.21533 -1.688717,-1.87201 -2.019101,-5.85601 -0.873034,-10.52764 -1.193795,-10.24349 11.3223,-10.02974 l 10.892201,0.18603 0.0035,7.28138 c 0.0023,4.94173 -0.3982,7.41351 -1.246549,7.69258 -1.617497,0.53208 -16.916906,1.11796 -18.952302,0.72576 z m 14.728224,-8.15778 c -0.974282,-1.57642 -10.427842,-0.94992 -9.813752,0.65037 0.500805,1.30508 8.246641,2.22415 9.650698,1.14509 0.474577,-0.36472 0.547951,-1.17268 0.163054,-1.79546 z m 210.854488,-14.70495 3.88041,-0.641 -0.63145,-6.598 C 308.28207,194.4691 307.07846,181.6 305.95468,169.5 c -1.12378,-12.1 -2.72476,-26.05 -3.55773,-31 -0.83298,-4.95 -1.91284,-11.935 -2.39971,-15.52223 -0.48686,-3.58722 -1.18355,-7.29972 -1.54821,-8.25 -1.68849,-4.40013 -8.98674,0.31715 -10.47753,6.77223 -1.35074,5.84872 -1.17251,14.17485 0.54875,25.63484 0.83614,5.56693 1.7001,10.41268 1.91992,10.76835 0.21981,0.35566 0.8951,6.26044 1.50065,13.12173 1.51562,17.17318 3.12199,32.22787 3.59854,33.72508 0.43662,1.37173 3.85585,1.57568 9.84105,0.58699 z M 187.54914,178.33978 c -0.36722,-1.46313 -1.991,-4.26566 -3.60841,-6.22785 C 182.32333,170.14974 181,168.0382 181,167.41962 181,165.80258 164.95298,151 163.2,151 c -1.19549,0 -1.37813,1.26627 -0.98174,6.80636 0.61926,8.65502 2.31683,12.07865 6.78174,13.67732 3.06558,1.09763 8.99378,3.84863 15.09192,7.00345 1.04944,0.54292 1.90808,1.33042 1.90808,1.75 0,0.41958 0.49878,0.76287 1.10841,0.76287 0.70076,0 0.86285,-0.97837 0.44073,-2.66022 z"
           id="path3027"
           inkscape:connector-curvature="0"
           sodipodi:nodetypes="sscccsssssssssssssssssssssssssccssssssscsssssssssssssssssssssssssscssssssssssssssssscsssssscscsssssssssscccssssssssscsscsscsssssssscsscccccsccsssscssssscscsccsccccsccssscccccscscccsscccssssscccscsssscccccsssccsssscccscscsssscssscssscssssssssccscsccccssssscsccsssssccsssssssssssssssssssssscccccccccscscssscssscsssssssssssssssssscccsssssssscsscscssssssssssssssssssscsssscssssssscccssscsssccsscsssssssscssssssssscssssssssssscscscsscsssscscssssssssssssscssscsscssssscsscsscssscsscscsscssscssssssscsssssssssscssccsssccccssssscsscsscssssssscsssssssssssscssssccssssssssscsssssssssssssssssssssssscsscsssssscscsssssscscccsscscsssccscsssssssssssssssscscsscssccssccsccssssscsssssssssssssssssssss" />
      </g>
    </g>
  </g>
</svg>
