<?xml version="1.0" encoding="UTF-8" standalone="no"?>
<!-- Created with Inkscape (http://www.inkscape.org/) -->

<svg
   xmlns:dc="http://purl.org/dc/elements/1.1/"
   xmlns:cc="http://creativecommons.org/ns#"
   xmlns:rdf="http://www.w3.org/1999/02/22-rdf-syntax-ns#"
   xmlns:svg="http://www.w3.org/2000/svg"
   xmlns="http://www.w3.org/2000/svg"
   xmlns:sodipodi="http://sodipodi.sourceforge.net/DTD/sodipodi-0.dtd"
   xmlns:inkscape="http://www.inkscape.org/namespaces/inkscape"
   id="svg2985"
   version="1.1"
   inkscape:version="0.48.3.1 r9886"
   width="1920"
   height="1920"
   sodipodi:docname="Scottish Bagpiper Legs.svg"
   inkscape:export-filename="G:\LEGO Textures Scans\Complete\Scottish Bagpiper (Minifigures Series 7)\Scottish Bagpiper Legs.png"
   inkscape:export-xdpi="96"
   inkscape:export-ydpi="96">
  <metadata
     id="metadata2991">
    <rdf:RDF>
      <cc:Work
         rdf:about="">
        <dc:format>image/svg+xml</dc:format>
        <dc:type
           rdf:resource="http://purl.org/dc/dcmitype/StillImage" />
        <dc:title></dc:title>
      </cc:Work>
    </rdf:RDF>
  </metadata>
  <defs
     id="defs2989" />
  <sodipodi:namedview
     pagecolor="#ffffff"
     bordercolor="#666666"
     borderopacity="1"
     objecttolerance="10"
     gridtolerance="10"
     guidetolerance="10"
     inkscape:pageopacity="0"
     inkscape:pageshadow="2"
     inkscape:window-width="1920"
     inkscape:window-height="1005"
     id="namedview2987"
     showgrid="false"
     inkscape:zoom="0.14914163"
     inkscape:cx="1111.4916"
     inkscape:cy="1081.2748"
     inkscape:window-x="-9"
     inkscape:window-y="-9"
     inkscape:window-maximized="1"
     inkscape:current-layer="svg2985" />
  <g
     id="g3079"
     transform="matrix(2.7911349,0,0,2.7911349,-1872.806,845.47608)">
    <g
       transform="translate(629.43526,30.172662)"
       id="g3041">
      <path
         inkscape:connector-curvature="0"
         id="path3045"
         d="m 196.63956,347.93112 c -16.74487,-3.23111 -7.49193,-34.94542 10.25306,-22.13169 6.64246,9.14799 1.79641,26.2745 -10.25306,22.13169 z m 77.44917,-1.06625 c -3.58079,-7.91662 -7.40193,-26.88833 6.86985,-22.69894 15.02331,-2.734 13.81278,24.12342 -2.27814,24.25113 -1.64209,1.25701 -3.62951,-0.29637 -4.59171,-1.55219 z M 647,347.04969 c -14.55006,-12.64873 7.17152,-35.37755 15.66048,-14.53207 8.48501,7.66459 -12.39969,18.44689 -15.66048,14.53207 z m -530,0.16659 c -16.27807,-12.50708 4.09527,-36.63123 14.98469,-18.08872 8.43686,10.4339 -5.77451,19.29069 -14.98469,18.08872 z m 445.60866,-3.30163 c 4.67421,-7.20166 -5.80072,-3.67017 -1.60866,-14.64603 5.02302,-11.7831 21.15373,-6.15488 22,6.23264 -0.0339,9.37393 -14.4874,15.29058 -20.39134,8.41339 z M 489.5,345.23469 c -9.19963,-11.70114 0.72999,-31.3774 13.5,-18.46795 9.27,12.05365 -2.17427,19.48682 -13.5,18.46795 z M 232.04598,324.0797 c -11.47036,-10.92163 -9.69408,-23.3297 2.0911,-31.12449 14.36055,-6.19481 24.58277,13.5313 38.10207,8.81798 -15.62818,0.29575 -0.51537,18.00115 -18.69947,16.95454 -4.76516,7.42061 -13.74258,8.00056 -21.4937,5.35197 z M 157,324.01984 c -6.80075,-4.60341 -22.03961,-18.45832 -6.68716,-23.67067 6.27976,-20.21507 29.18278,3.39455 36.68716,3.15083 3.11393,15.13485 -13.85434,11.11286 -18.8613,20.7845 -3.67651,0.28164 -7.53207,0.865 -11.1387,-0.26466 z m 371.25,-1.74082 c -8.66843,-2.3691 -10.73935,-12.66406 -8.6857,-20.94064 1.84734,-6.82209 19.9442,-19.46373 20.13501,0.0339 -1.19699,-18.64341 11.93401,5.31655 23.36428,-2.29154 -3.52704,4.2631 -11.12042,11.21688 -14.57833,16.15844 -7.21104,-5.75706 -6.26011,15.34268 -20.23526,7.03987 z M 524,315 c -2.55494,-3.58745 -2.55494,3.58745 0,0 z m 80.88661,7.34232 c -4.98516,-7.29519 -15.0086,-14.18175 -5.39414,-19.1979 4.03969,-29.10143 29.86739,5.08595 45.81396,-3.38797 -3.83404,4.74902 -16.48033,6.91579 -8.52649,16.40008 -12.78324,-1.76692 -19.3084,12.73323 -31.89333,6.18579 z M 307,321 c -2.86406,-3.61661 5.55843,3.27538 0,0 z m 5.36408,0.22293 c -10.46083,-6.0828 -13.41066,-18.32455 0.3539,-28.67986 10.18546,3.41997 15.43539,25.81198 -0.3539,28.67986 z m 365.30259,0.1104 c -7.35388,-9.84184 -0.1643,-33.34668 14.20042,-21.15543 10.96362,11.08689 -3.57002,23.18031 -14.20042,21.15543 z M 84.348827,317.30539 c -11.926537,-11.7438 -12.466647,-11.15775 0.219931,-24.50928 7.404299,0.042 15.049679,7.54458 21.658782,10.42972 1.62706,9.13758 -17.005364,19.11316 -21.878713,14.07956 z M 147,320.05902 c 2.05282,-5.24233 2.76698,3.47318 0,0 z m 311.12081,-2.43437 c -11.02268,-10.45189 0.47019,-34.9079 12.37666,-20.62675 8.14454,1.8029 28.53844,0.54594 8.63384,5.6769 1.09606,11.00899 -11.87384,14.04286 -18.79129,16.79819 l -2.21921,-1.84834 z m 114.31113,-24.09957 c -17.81681,0.18852 -9.83766,-14.92037 -8.12555,-18.64534 -25.25913,-8.68148 14.80824,-22.77169 22.00978,-6.28348 7.34718,8.52222 -9.53563,21.70889 -13.88423,24.92882 z M 192.7551,292.14991 c -20.39483,-12.04936 1.681,-47.1125 19.82383,-25.14457 9.06613,12.34722 -5.71492,31.93294 -19.82383,25.14457 z m 452.56214,-0.18321 c -7.58938,-7.59423 2.66452,-18.84168 -10.28579,-23.03008 6.35443,-16.25508 45.11436,-2.06796 30.4215,11.45208 -5.35826,8.00761 -7.81304,17.6348 -20.13571,11.578 z M 658,275.19113 c -3.22917,-9.91606 -7.21196,3.09829 0,0 z m -536,17.1568 C 99.868083,287.92944 103.70664,249.77441 129.27287,261 c 11.8376,2.64701 14.26754,17.7519 3.53349,25.00219 -0.33837,5.86988 -5.56043,8.19695 -10.80636,6.34574 z m 151.25,-0.78485 c -17.64611,-13.59003 3.86829,-46.07597 19.13484,-25.54033 8.62168,10.93127 4.11226,12.76544 -2.38484,21.07875 1.4821,8.51521 -12.3325,4.93417 -16.75,4.46158 z m 214.60436,-2.79838 c -1.65003,-10.56652 -21.61497,-18.63182 -4.60436,-25.87871 14.72465,-12.78527 43.78458,10.01653 21.20274,22.57911 -1.19401,8.16892 -11.50705,5.16935 -16.59838,3.2996 z"
         style="fill:#195f33" />
    </g>
    <g
       id="g3065">
      <path
         style="fill:#ffff00;stroke:#ffff00;stroke-width:1px;stroke-linecap:butt;stroke-linejoin:miter;stroke-opacity:1"
         d="m 685.69265,273.46912 0.69433,-216.759916 284.3689,188.905506 0,36.15147 z"
         id="path3059"
         inkscape:connector-curvature="0"
         sodipodi:nodetypes="ccccc" />
      <path
         style="fill:#000000;stroke:#000000;stroke-width:1px;stroke-linecap:butt;stroke-linejoin:miter;stroke-opacity:1"
         d="M 685.171,58.08093 970.5541,250.01259 970.9732,237.02158 691.87604,52.214023 z"
         id="path3061"
         inkscape:connector-curvature="0" />
      <path
         style="fill:#000000;stroke:#000000;stroke-width:1px;stroke-linecap:butt;stroke-linejoin:miter;stroke-opacity:1"
         d="M 971.8116,270.96583 970.9734,284.3759 683.91407,284.26188 683.495,269.70863 z"
         id="path3063"
         inkscape:connector-curvature="0"
         sodipodi:nodetypes="ccccc" />
    </g>
    <g
       transform="matrix(-1,0,0,1,2029.8596,1e-4)"
       id="g3070">
      <path
         sodipodi:nodetypes="ccccc"
         inkscape:connector-curvature="0"
         id="path3072"
         d="m 685.69265,273.46912 0.69433,-216.759916 284.3689,188.905506 0,36.15147 z"
         style="fill:#ffff00;stroke:#ffff00;stroke-width:1px;stroke-linecap:butt;stroke-linejoin:miter;stroke-opacity:1" />
      <path
         inkscape:connector-curvature="0"
         id="path3074"
         d="M 685.171,58.08093 970.5541,250.01259 970.9732,237.02158 691.87604,52.214023 z"
         style="fill:#000000;stroke:#000000;stroke-width:1px;stroke-linecap:butt;stroke-linejoin:miter;stroke-opacity:1" />
      <path
         sodipodi:nodetypes="ccccc"
         inkscape:connector-curvature="0"
         id="path3076"
         d="M 971.8116,270.96583 970.9734,284.3759 683.91407,284.26188 683.495,269.70863 z"
         style="fill:#000000;stroke:#000000;stroke-width:1px;stroke-linecap:butt;stroke-linejoin:miter;stroke-opacity:1" />
    </g>
  </g>
</svg>
