<?xml version="1.0" encoding="UTF-8" standalone="no"?>
<!-- Created with Inkscape (http://www.inkscape.org/) -->

<svg
   xmlns:dc="http://purl.org/dc/elements/1.1/"
   xmlns:cc="http://creativecommons.org/ns#"
   xmlns:rdf="http://www.w3.org/1999/02/22-rdf-syntax-ns#"
   xmlns:svg="http://www.w3.org/2000/svg"
   xmlns="http://www.w3.org/2000/svg"
   xmlns:sodipodi="http://sodipodi.sourceforge.net/DTD/sodipodi-0.dtd"
   xmlns:inkscape="http://www.inkscape.org/namespaces/inkscape"
   id="svg3172"
   version="1.1"
   inkscape:version="0.48.2 r9819"
   width="1920"
   height="1920"
   sodipodi:docname="Mummy Legs.png">
  <metadata
     id="metadata3178">
    <rdf:RDF>
      <cc:Work
         rdf:about="">
        <dc:format>image/svg+xml</dc:format>
        <dc:type
           rdf:resource="http://purl.org/dc/dcmitype/StillImage" />
        <dc:title></dc:title>
      </cc:Work>
    </rdf:RDF>
  </metadata>
  <defs
     id="defs3176" />
  <sodipodi:namedview
     pagecolor="#ffffff"
     bordercolor="#666666"
     borderopacity="1"
     objecttolerance="10"
     gridtolerance="10"
     guidetolerance="10"
     inkscape:pageopacity="0"
     inkscape:pageshadow="2"
     inkscape:window-width="1600"
     inkscape:window-height="850"
     id="namedview3174"
     showgrid="false"
     inkscape:zoom="0.11090226"
     inkscape:cx="283.03726"
     inkscape:cy="-853.22527"
     inkscape:window-x="-8"
     inkscape:window-y="-8"
     inkscape:window-maximized="1"
     inkscape:current-layer="svg3172" />
  <g
     id="g3192"
     transform="matrix(1.9523978,0,0,1.9523978,-112.08328,579.37337)">
    <path
       style="fill:#625b5d"
       d="m 824.24944,668.75906 c -1.16392,-1.24248 -2.64983,-3.60906 -3.30202,-5.25906 -0.6522,-1.65 -1.39468,-2.4375 -1.64995,-1.75 -0.25528,0.6875 -1.07406,1.25 -1.81953,1.25 -1.4142,0 -3.25944,-8.55183 -2.09623,-9.71504 0.34246,-0.34246 -0.1079,-1.42991 -1.00081,-2.41656 -3.12646,-3.45471 -1.15004,-4.76733 6.81448,-4.52577 l 7.30462,0.22155 0.5,3.46791 c 0.59196,4.10573 -0.72303,3.87328 23.21815,4.10432 12.73628,0.12291 17.10466,-0.15943 18.34093,-1.18544 1.18932,-0.98705 5.50763,-1.3607 16.16704,-1.39888 18.05638,-0.0647 17.88292,0.082 13.89168,-11.74687 C 896.02903,626.20544 895.3853,625 892.71154,625 c -3.85713,0 -6.34102,-7.40276 -3.32403,-9.90664 0.90617,-0.75206 3.58594,-0.94616 7.72474,-0.55952 9.19099,0.85861 15.23756,-0.23569 19.34687,-3.50135 1.92836,-1.53247 5.54791,-3.30044 8.04345,-3.92882 2.98863,-0.75255 5.81052,-2.44659 8.26739,-4.96311 2.61605,-2.67956 4.91765,-4.0099 7.70659,-4.45447 2.1871,-0.34863 5.1121,-1.54921 6.5,-2.66796 1.3879,-1.11875 4.81438,-3.09908 7.61441,-4.40074 3.35018,-1.55742 5.8571,-3.6063 7.33156,-5.99203 1.23233,-1.99395 2.89682,-3.62536 3.69888,-3.62536 2.37999,0 8.69224,-3.60466 11.3786,-6.49784 1.375,-1.48085 5.29483,-3.96342 8.71074,-5.5168 4.86634,-2.21296 6.3601,-3.41944 6.90075,-5.57356 0.90847,-3.61964 -2.04508,-6.06838 -8.40459,-6.96809 -2.58879,-0.36626 -7.4069,-1.32801 -10.7069,-2.13723 -5.77273,-1.41558 -8.83735,-2.05997 -27.5,-5.78232 -4.675,-0.93246 -8.95,-2.06527 -9.5,-2.51736 -1.67519,-1.37699 -17.70959,-1.9406 -22.5,-0.79088 -2.475,0.59401 -5.30503,1.91344 -6.28896,2.93205 -0.98392,1.01862 -2.55892,1.85195 -3.5,1.85186 -0.94107,-10e-5 -5.76104,1.96274 -10.71104,4.36186 C 879.05818,561.36122 875.36042,563 874.0085,563 c -1.58818,0 -7.73685,3.63449 -10.84712,6.41177 l -2.33861,2.08823 -2.41327,-3 c -1.3273,-1.65 -2.67637,-3.8147 -2.99795,-4.81044 -0.45666,-1.414 -1.21972,-1.67097 -3.4847,-1.17349 -3.08883,0.67842 -2.91687,0.88773 -5.94438,-7.23565 -0.76605,-2.05546 -2.49318,-3.86335 -4.77666,-5 -3.83842,-1.91068 -6.90264,-5.54706 -7.39887,-8.78042 -0.43906,-2.86087 3.6895,-3.30943 5.16058,-0.56068 0.6398,1.19547 2.10292,2.06068 3.48473,2.06068 1.56158,0 3.53533,1.3886 5.73109,4.03201 3.01617,3.63107 4.02172,4.14345 10.11196,5.15264 8.34421,1.38268 16.32414,-0.0862 19.63933,-3.61507 1.213,-1.29118 3.41144,-2.58927 4.88541,-2.88464 1.47398,-0.29537 4.62277,-1.9451 6.99732,-3.66606 3.8183,-2.76732 4.24436,-3.46139 3.68582,-6.00441 -0.47956,-2.18343 -0.19306,-3.11008 1.19055,-3.85056 2.54689,-1.36305 37.44035,-1.36046 51.30627,0.004 6.62039,0.65139 12.9851,1.85684 15,2.84095 1.925,0.94021 7.07931,1.9999 11.45402,2.35488 9.15775,0.7431 29.17108,4.20025 35.04598,6.05392 l 4,1.26211 0.2886,7.46589 c 0.279,7.21833 0.1697,7.62156 -3.2958,12.16021 -2.618,3.42868 -4.2721,4.69431 -6.1352,4.69431 -1.5492,0 -4.32417,1.56107 -7.06765,3.97598 -2.48433,2.18679 -5.98414,4.25123 -7.77736,4.58764 -2.07574,0.38941 -5.00865,2.38658 -8.07185,5.49655 -3.5056,3.55911 -5.3718,4.75273 -6.87609,4.39794 -1.50192,-0.35424 -3.63872,1.00484 -7.83985,4.98641 -3.50144,3.31844 -6.34519,5.25464 -7.22295,4.91782 -0.88073,-0.33797 -3.7458,1.6364 -7.31522,5.04105 -3.2271,3.07814 -6.58241,5.59661 -7.45623,5.59661 -0.87383,0 -4.16414,2.7 -7.31181,6 -3.73808,3.91898 -6.51693,6 -8.012,6 -1.38478,0 -4.34897,1.97511 -7.50387,5 -3.51352,3.36872 -6.06118,5.00122 -7.80881,5.00374 -3.62363,0.005 -9.09391,3.55457 -9.09391,5.90052 0,1.06351 0.63702,3.20763 1.4156,4.7647 0.77859,1.55707 1.88015,4.03828 2.44793,5.5138 0.78119,2.03013 1.82746,2.75993 4.30089,3 2.97503,0.28875 3.64191,1.03428 7.42548,8.30129 3.03172,5.82293 4.8002,8.1359 6.5335,8.54508 1.50034,0.35418 2.3766,1.28183 2.3766,2.51595 0,1.9107 -1.14375,1.96078 -50.56717,2.21398 l -50.56717,0.25907 -2.11622,-2.25907 z m 174.16775,-0.11426 c -0.59656,-1.55462 3.89061,-12.22244 6.22701,-14.80413 0.8597,-0.95002 2.9643,-2.03503 4.6767,-2.41114 1.7124,-0.37611 3.9295,-1.18912 4.9268,-1.80669 2.6189,-1.62164 3.9625,0.87093 3.3121,6.14439 -0.8765,7.10725 -2.8033,9.6657 -9.0913,12.072 -6.5175,2.49409 -9.31726,2.71848 -10.05131,0.80557 z M 114.5,663.92142 C 86.761698,662.79293 84,662.24171 84,657.83372 c 0,-1.27517 -0.588579,-1.82257 -1.75,-1.62756 -1.388213,0.23309 -1.75,-0.4269 -1.75,-3.19246 0,-2.69733 0.452615,-3.56935 2,-3.85324 1.1,-0.20182 2.708807,-0.99401 3.575126,-1.76043 1.680658,-1.48685 3.264792,-1.61374 11.924874,-0.95517 11.75478,0.89391 17.04776,1.46662 17.78917,1.92484 1.7977,1.11104 29.55851,2.11601 53.36527,1.93187 20.95349,-0.16207 26.63396,-0.50923 31,-1.89454 2.94006,-0.93287 5.77306,-2.08108 6.29556,-2.55158 0.5225,-0.4705 2.28611,-0.85545 3.91914,-0.85545 1.63303,0 5.38885,-1.3656 8.34627,-3.03466 2.95741,-1.66906 7.64266,-3.46431 10.41165,-3.98944 2.76899,-0.52513 6.3451,-1.88798 7.94691,-3.02857 5.33934,-3.80195 5.35395,-0.93839 0.0212,4.14801 -2.80232,2.67285 -5.09513,5.30828 -5.09513,5.85651 0,2.05847 6.18765,4.05125 19.13861,6.16375 10.7794,1.75828 18.09583,2.21515 37.86139,2.36422 13.475,0.10164 28.55,0.75953 33.5,1.46199 4.95,0.70246 15.525,1.56543 23.5,1.9177 l 14.5,0.64049 0,3 c 0,2.49988 -0.36032,2.95035 -2.16141,2.70215 -1.18878,-0.16382 -2.45283,0.17368 -2.80902,0.75 -0.7632,1.23489 -210.57803,1.20815 -241.02957,-0.0307 z m 688.15165,-21.67604 c -0.25651,-0.41504 -1.70547,-4.50371 -3.2199,-9.08592 -2.11012,-6.38455 -3.29144,-8.53582 -5.05557,-9.20654 -2.98275,-1.13404 -7.06033,-7.6495 -9.21353,-14.72204 -1.41471,-4.64685 -2.17894,-5.72506 -4.49742,-6.34512 -4.33872,-1.16035 -5.32482,-2.47811 -6.56265,-8.7699 -0.66512,-3.38073 -1.98475,-6.60424 -3.12671,-7.63769 -1.97819,-1.79025 -2.78586,-7.85954 -1.17812,-8.85317 1.62532,-1.00451 3.17729,1.12373 6.49028,8.90019 2.50146,5.8716 3.93887,8.05548 5.4503,8.28068 3.22861,0.48105 5.40522,3.63273 8.20141,11.87539 2.29109,6.75372 3.0268,7.86478 6.34973,9.58922 2.06712,1.07274 4.26869,2.90394 4.8924,4.06934 0.6237,1.1654 1.73793,2.72284 2.47607,3.46097 0.92233,0.92234 1.34206,4.13445 1.34206,10.27064 0,7.83331 -0.81203,10.65976 -2.34835,8.17395 z M 859.14984,640 c -0.80197,-2.30054 -1.6991,-3.03642 -3.84782,-3.15622 -5.45788,-0.3043 -7.8367,-0.65273 -10.80202,-1.58218 -2.68182,-0.84058 -2.99224,-1.35508 -2.92681,-4.85096 0.16725,-8.93683 2.27594,-11.48171 6.02182,-7.26746 1.04775,1.17875 3.15461,2.91371 4.68191,3.85548 3.464,2.13596 10.72308,11.73656 10.72308,14.18195 0,2.92371 -2.70895,2.09304 -3.85016,-1.18061 z M 243,634.15654 C 243,632.80613 252.70629,625 254.3854,625 c 0.83962,0 3.69755,-1.28004 6.35094,-2.84454 4.87866,-2.87656 19.66364,-9.39248 24.26366,-10.69328 5.39069,-1.52439 6.41155,-4.33075 2.9253,-8.04169 -1.80147,-1.91758 -1.90148,-2.48577 -0.75945,-4.31445 1.36406,-2.18422 3.31864,-2.74917 4.25722,-1.23052 0.2976,0.48154 5.38666,0.77787 11.30902,0.65852 8.45972,-0.17048 12.3756,-0.75853 18.26791,-2.7433 4.125,-1.38946 8.64976,-2.79735 10.05502,-3.12863 1.40527,-0.33129 4.55527,-1.9576 7,-3.61403 2.44474,-1.65643 5.43092,-3.01987 6.63596,-3.02988 1.20504,-0.01 2.45149,-0.4397 2.76988,-0.95488 0.73653,-1.19172 6.45085,-4.06332 8.08579,-4.06332 1.84701,0 2.52958,2.67111 1.81866,7.11696 -0.46304,2.89566 -1.59758,4.75317 -4.22696,6.92053 -1.97672,1.62938 -4.36495,2.96251 -5.30718,2.96251 -0.94222,0 -1.99125,0.45 -2.33117,1 -0.33992,0.55 -1.68992,1 -3,1 -1.31008,0 -2.65264,0.43796 -2.98346,0.97324 -0.33082,0.53528 -2.26988,1.728 -4.30902,2.65049 -2.03914,0.92249 -6.40752,2.904 -9.70752,4.40337 -7.58811,3.44767 -9.46328,3.87145 -22.00781,4.97359 -12.23514,1.07495 -20.76448,3.75447 -28.38213,8.91632 -7.4157,5.02501 -13.53507,8.08299 -16.175,8.08299 -1.17953,0 -4.38443,1.125 -7.12199,2.5 C 246.81397,635.0109 243,635.72779 243,634.15654 z M 874.97525,600.4349 c -2.22685,-5.85706 -0.2106,-7.55798 2.41081,-2.03377 1.99123,4.19621 1.99904,4.59887 0.0892,4.59887 -0.83861,0 -1.96361,-1.15429 -2.5,-2.5651 z m -593.62941,-5.45571 c -0.33229,-1.66144 -0.98354,-3.25528 -1.44722,-3.54185 -2.11134,-1.30488 -18.197,-3.4136 -30.79681,-4.03725 -12.1586,-0.60181 -14.81904,-0.43502 -21.72841,1.36226 -10.87587,2.82904 -39.41486,3.87651 -47.3734,1.73875 -3.44107,-0.92431 -10.17939,-1.48426 -18,-1.49578 -11.68816,-0.0172 -37.64918,-3.05244 -40.34174,-4.71653 -0.63101,-0.38998 -2.72477,-0.78387 -4.65278,-0.8753 C 110.41723,583.10107 94.507259,579.83198 89,577.65907 l -5.5,-2.17004 0,-10.90346 0,-10.90346 6.5,-1.95316 c 3.575,-1.07424 8.75,-2.29012 11.5,-2.70196 2.75,-0.41184 6.96908,-1.48639 9.37573,-2.3879 2.78909,-1.04476 7.50287,-1.64674 13,-1.66018 6.71227,-0.0164 10.17617,-0.58675 15.62427,-2.57254 16.62157,-6.05843 30.3515,-10.60274 35,-11.58425 2.75,-0.58065 5.5274,-1.47913 6.172,-1.99663 C 182.56436,527.30626 192.26603,524 194.83159,524 c 1.2979,0 3.55426,-0.62888 5.01412,-1.39752 1.45986,-0.76864 4.55187,-1.96074 6.87115,-2.64912 4.98278,-1.47894 4.7636,-2.52744 -0.7221,-3.45425 C 203.79764,516.12791 202,515.45864 202,515.01184 c 0,-1.63492 10.04512,-3.23665 15.79244,-2.51817 9.86773,1.23359 55.15583,0.79415 56.77653,-0.55091 2.95762,-2.45461 1.64855,-6.5258 -4.31897,-13.43196 -6.83472,-7.90975 -9.65756,-9.75468 -18.15322,-11.86441 -4.92913,-1.22406 -7.14719,-2.40234 -9.63487,-5.11825 C 240.6845,479.58766 238.69819,478 238.04787,478 c -1.58262,0 -9.00704,-6.21829 -9.02984,-7.56291 -0.0276,-1.62608 -5.17408,-6.1799 -8.33313,-7.37347 -9.57101,-3.61618 -33.33057,3.20083 -43.65015,12.52395 -2.34317,2.11692 -6.67345,4.42906 -11.1403,5.94833 -4.01894,1.36693 -8.45181,3.51556 -9.85081,4.77473 -5.30187,4.77193 -6.85941,5.47474 -16.04364,7.23938 -6.98329,1.34176 -55.628803,2.15452 -56.83375,0.94957 -0.601765,-0.60176 -0.216815,-13.78235 0.421158,-14.42032 0.256883,-0.25688 2.218039,-0.36375 4.358125,-0.23747 3.061415,0.18064 4.228313,-0.2519 5.472765,-2.02861 C 94.288234,476.57118 95,475.15632 95,474.66907 c 0,-0.48726 -2.107955,-2.82136 -4.684344,-5.18689 l -4.684345,-4.30097 -0.0028,-16.34061 c -0.0032,-18.30487 1.520089,-34.26289 3.955153,-41.4352 1.776218,-5.23173 1.606168,-17.5088 -0.25109,-18.12788 -0.57691,-0.19231 -1.848349,-0.9342 -2.82542,-1.64865 -1.612437,-1.17904 -1.657963,-1.79906 -0.492984,-6.71394 3.227319,-13.61558 3.572789,-14.43558 5.935152,-14.08754 1.222212,0.18006 2.971117,-0.32818 3.886455,-1.12942 3.609662,-3.1597 8.231643,-4.88693 9.736083,-3.63835 1.72276,1.42975 1.84189,4.30505 0.28188,6.80302 -2.1353,3.41915 -0.28672,6.70479 5.06838,9.0085 2.72177,1.17087 5.76525,2.13054 6.76329,2.1326 0.99804,0.002 3.288,0.90205 5.08879,2 1.80079,1.09794 4.09995,1.99626 5.10923,1.99626 1.00929,0 4.36491,1.35 7.45694,3 3.09203,1.65 6.307,3 7.14439,3 0.83738,0 3.20172,0.9 5.25409,2 2.05236,1.1 4.8662,2 6.25297,2 1.38678,0 4.09344,0.45472 6.01481,1.0105 1.92137,0.55577 7.5434,1.45835 12.4934,2.00572 4.95,0.54737 11.025,1.41386 13.5,1.92554 13.18092,2.72499 16.0277,3.1895 21.87039,3.56854 3.50372,0.2273 8.00372,1.2385 10,2.24712 1.99629,1.00862 7.22961,2.87109 11.62961,4.13883 4.4,1.26773 10.925,3.57706 14.5,5.13184 13.2198,5.74934 14.26735,5.98678 20.93877,4.7461 5.67766,-1.05587 6.21856,-0.99458 7.51132,0.85109 1.0366,1.47995 3.52427,2.32491 9.72149,3.302 4.58063,0.7222 11.47842,2.59219 15.32842,4.15553 3.85,1.56334 8.8,3.29063 11,3.83843 2.2,0.5478 6.42817,1.68121 9.39592,2.5187 2.96776,0.83749 10.24415,2.19892 16.16976,3.0254 8.7563,1.22129 20.92569,4.49798 22.82706,6.14633 0.21601,0.18727 0.93843,3.61375 1.60537,7.61441 0.66694,4.00066 1.53761,8.02691 1.93481,8.94723 0.97894,2.26817 -1.44297,3.43391 -11.23217,5.40639 -7.7013,1.55178 -8.1474,1.53749 -12.53069,-0.40145 -2.4998,-1.10578 -7.16071,-2.5376 -10.35758,-3.18181 -3.19686,-0.64422 -7.5774,-2.36946 -9.73453,-3.83387 -3.65271,-2.47972 -4.5798,-2.64656 -13.5,-2.4294 -5.26787,0.12825 -13.96249,-0.23151 -19.32138,-0.79946 C 272.73989,452.76613 265.01084,449.63035 256.5,442.87536 250.93023,438.45467 245.91789,436 242.46078,436 239.80587,436 231,439.57768 231,440.65633 c 0,1.22612 8.06399,8.32668 11.37642,10.01723 1.71797,0.8768 5.02603,3.33393 7.35124,5.46031 2.32521,2.12637 4.70553,3.86613 5.2896,3.86613 0.58407,0 2.74836,1.6875 4.80953,3.75 2.06118,2.0625 5.85543,5.65986 8.43168,7.99412 2.57625,2.33427 5.32959,5.49239 6.11854,7.01804 1.64052,3.17242 9.71259,10.38137 20.64055,18.43353 4.13466,3.04659 8.10623,6.24854 8.8257,7.11545 0.71948,0.86692 4.597,3.62607 8.61672,6.13145 4.01972,2.50538 8.01778,5.63762 8.88459,6.96053 0.8668,1.32292 5.08138,4.56559 9.36572,7.20594 4.28434,2.64035 9.24913,6.46389 11.03286,8.49676 1.78374,2.03286 5.22802,4.85932 7.65396,6.28101 5.44794,3.19271 8.87478,9.50318 8.28617,15.25888 -0.26256,2.56738 -0.94327,3.96224 -2.03872,4.17761 -0.94752,0.18629 -1.64456,-0.32195 -1.64456,-1.1991 0,-1.85949 -5.16831,-5.87807 -10.26406,-7.98074 -2.07023,-0.85425 -4.03545,-2.26042 -4.36716,-3.12483 -0.3317,-0.86442 -2.68788,-2.76539 -5.23594,-4.22438 C 331.58478,540.83528 327.475,537.52227 325,534.93203 319.50816,529.18449 313.55154,527 303.37108,527 c -7.48833,0 -17.03592,1.56478 -18.96278,3.10787 -2.02943,1.62522 -15.88995,6.09604 -18.4083,5.93773 -15.31112,-0.96247 -34.35384,-1.01361 -38.51672,-0.10344 -2.7592,0.60328 -11.0842,1.53283 -18.5,2.06568 -32.23449,2.31616 -43.29784,4.02758 -55.64891,8.6085 -10.60239,3.93235 -26.45512,8.34583 -30.06132,8.36922 -5.40168,0.035 -7.52085,11.54174 -2.48498,13.49301 3.15355,1.22192 16.57811,2.54276 31.71193,3.12013 8.25,0.31474 16.575,1.06282 18.5,1.6624 3.87063,1.20558 53.72475,1.63899 86,0.74764 10.725,-0.29619 19.87861,-0.24322 20.34135,0.11771 1.48032,1.15464 6.65865,17.15587 6.65865,20.5755 0,4.13177 -1.84472,4.32446 -2.65416,0.27724 z M 133.15204,469 c 2.42121,-9.52636 2.35838,-15.65646 -0.17436,-17.01195 -2.12138,-1.13532 -10.92546,-0.62639 -18.97768,1.09704 -3.29074,0.70432 -5.9106,0.59299 -9.74928,-0.4143 -6.842989,-1.79564 -8.151367,-0.62843 -6.289575,5.61094 1.606809,5.38486 7.536445,11.08548 15.461365,14.86421 4.97438,2.37186 7.16653,2.84849 12.07749,2.62595 l 6,-0.27189 1.65204,-6.5 z m 24.72045,-1.43406 c 1.52525,-0.78874 3.3853,-2.17163 4.13345,-3.07309 0.74814,-0.90146 3.16166,-2.55803 5.36338,-3.68126 2.20171,-1.12323 5.99257,-3.90284 8.42414,-6.17691 4.11967,-3.85284 13.62916,-12.8362 22.50235,-21.25737 4.16009,-3.94817 4.33619,-5.69713 0.62586,-6.21591 -1.33192,-0.18623 -4.99497,-1.19873 -8.14012,-2.25 -3.14515,-1.05127 -7.21765,-1.9114 -9.05,-1.9114 -1.83235,0 -3.89323,-0.5625 -4.57972,-1.25 -1.26798,-1.26984 -10.86455,-4.11205 -19.2884,-5.71264 -2.55011,-0.48453 -6.37511,-1.72641 -8.5,-2.75973 -3.09046,-1.50287 -6.06423,-1.86864 -14.86343,-1.82819 -10.87201,0.05 -11.10472,0.10087 -20,4.37411 -4.95,2.37796 -10.35,4.57878 -12,4.89072 -1.65,0.31193 -3.5625,1.00894 -4.25,1.54889 -2.159583,1.6961 -1.466703,7.76395 1.300891,11.39245 2.352449,3.08422 2.982549,3.34439 8.099649,3.34439 6.28804,0 22.53407,-4.03321 28.49449,-7.07399 7.20018,-3.67326 8.79569,-1.59078 11.54909,15.07399 0.86329,5.225 1.50425,12.14662 1.42434,15.38138 -0.20775,8.41068 2.33979,10.50149 8.75403,7.18456 z M 872.66667,592.33333 C 872.3,591.96667 872,590.57917 872,589.25 c 0,-3.2881 2.40871,-2.36691 2.81642,1.07712 0.30013,2.53523 -0.69347,3.46249 -2.14975,2.00621 z M 763.69208,580.78187 c -4.33988,-7.09496 -6.47364,-11.7102 -7.00695,-15.15577 -0.73414,-4.74315 -1.20151,-5.27236 -3.19505,-3.61786 -2.05427,1.70489 -6.09728,-0.34797 -8.02428,-4.07438 -0.74997,-1.45027 -2.39908,-3.32403 -3.66469,-4.1639 -5.00791,-3.32331 -7.8013,-6.70842 -7.81642,-9.47221 -0.0214,-3.91819 -1.10566,-5.23188 -5.58466,-6.76665 -3.6513,-1.25114 -3.9357,-1.6372 -4.45924,-6.0531 -0.39292,-3.31408 -0.14591,-5.13002 0.83062,-6.10655 1.94818,-1.94818 3.22859,-0.80301 3.22859,2.88757 0,3.32913 1.52561,2.79468 2.16663,-0.75902 0.4965,-2.7525 2.2257,-2.41275 2.83337,0.5567 0.275,1.34381 1.23516,3.5683 2.13369,4.9433 0.89854,1.375 2.25723,3.85 3.01932,5.5 0.98675,2.13641 2.0888,3 3.82834,3 1.8075,0 3.02681,1.03844 4.68886,3.99332 1.23538,2.19633 4.17311,6.23039 6.52829,8.96459 8.11421,9.42002 13.8015,19.49525 13.8015,24.44983 0,3.87357 -1.54831,4.75078 -3.30792,1.87413 z m 98.91491,0.63634 c -0.33385,-0.86998 -0.59104,-2.55748 -0.57155,-3.75 0.0339,-2.07627 0.096,-2.0622 1.46456,0.33179 0.78602,1.375 1.44508,3.0625 1.46456,3.75 0.0506,1.78455 -1.63657,1.54711 -2.35757,-0.33179 z M 179.5,562.97463 c -14.4176,-2.31645 -19.4458,-2.9368 -23.95,-2.95482 -2.85894,-0.0114 -4.54869,-0.38608 -4,-0.88686 2.10523,-1.92141 16.78723,-6.13184 23.15861,-6.64131 3.73527,-0.29868 8.14139,-0.73393 9.79139,-0.96722 1.65,-0.23329 11.325,-1.13679 21.5,-2.00777 10.175,-0.87099 21.42907,-2.26544 25.00906,-3.0988 3.7086,-0.8633 9.72596,-1.3867 13.98609,-1.21652 l 7.47704,0.29867 0.63191,3.5 c 0.34756,1.925 1.24113,5.66175 1.98573,8.30389 1.04536,3.7094 1.08033,4.97291 0.15346,5.54575 -1.64092,1.01414 -69.51206,1.12615 -75.74329,0.12499 z m 170.39166,-29.86355 c -1.31541,-1.0664 -2.04166,-2.29016 -1.61388,-2.71944 0.42778,-0.42929 1.75278,0.19447 2.94444,1.38614 2.81322,2.81322 1.77644,3.85215 -1.33056,1.3333 z m 528.85124,-8.70152 c -0.32474,-0.32474 -13.8499,-0.57442 -30.05591,-0.55485 l -29.46547,0.0356 -3.18227,-3.49709 c -3.5389,-3.88898 -5.02257,-4.59774 -16.53925,-7.90086 -4.4,-1.26198 -10.02024,-3.04892 -12.48941,-3.97098 -2.46918,-0.92207 -10.11918,-2.10908 -17,-2.6378 -6.88083,-0.52873 -16.83236,-1.4364 -22.11453,-2.01704 -9.14872,-1.00569 -9.80632,-1.24072 -13.87364,-4.95862 -4.13056,-3.7757 -4.21632,-3.97629 -2.63193,-6.15539 0.90077,-1.23888 1.88926,-2.92751 2.19664,-3.75251 0.30737,-0.825 0.97602,-2.28139 1.48587,-3.23643 0.50985,-0.95504 0.927,-2.55254 0.927,-3.55 0,-4.5987 3.79898,-5.11137 20.25658,-2.73364 11.14448,1.61012 18.93648,3.55239 28.24342,7.04008 3.3,1.23665 7.65511,2.53986 9.67801,2.89603 2.02291,0.35617 7.15669,2.25482 11.4084,4.21923 7.91702,3.65789 10.23527,4.52647 28.41359,10.64576 11.35154,3.82123 30.98655,9.45131 43,12.3297 4.125,0.98834 7.89536,2.12311 8.37858,2.52171 0.48322,0.3986 -0.36999,1.88186 -1.89602,3.29614 -2.85225,2.64338 -3.71618,3.00446 -4.73966,1.98098 z M 531.34024,502.14348 c -2.28786,-1.55108 -4.92516,-3.58554 -5.86065,-4.52104 -0.9355,-0.93549 -3.78861,-2.83162 -6.34025,-4.21362 -11.16483,-6.047 -24.4219,-17.3939 -29.57009,-25.30943 -2.90633,-4.46859 -2.9853,-4.91147 -2.77666,-15.57325 0.1181,-6.03562 0.46841,-11.77312 0.77846,-12.75 0.73391,-2.31236 3.08447,-2.24599 7.92895,0.22386 2.15759,1.1 4.95273,2 6.21144,2 1.34318,0 2.28856,0.6051 2.28856,1.46482 0,1.66226 2.99159,3.53518 5.64669,3.53518 0.978,0 2.75773,1.22847 3.95495,2.72993 l 2.17678,2.72994 5.38012,-2.22994 c 6.84165,-2.83571 13.87165,-2.95904 16.2909,-0.2858 0.96768,1.06928 2.72493,2.08178 3.90499,2.25 1.44309,0.20573 2.23723,1.12439 2.42552,2.80587 0.6854,6.12061 1.17829,6.90154 4.7828,7.57775 3.10644,0.58277 3.50882,0.99159 3.24194,3.2938 -0.22975,1.98197 -1.47227,3.24334 -5.0518,5.12845 -5.16797,2.72164 -5.87319,4.67617 -2.71762,7.53192 1.11939,1.01304 1.77915,2.5093 1.46613,3.32503 -0.68192,1.77706 1.14357,3.10672 4.29405,3.12774 2.87491,0.0192 7.38469,4.3823 6.6117,6.39668 -0.33887,0.88308 -2.68246,1.82826 -5.73993,2.31493 -6.0755,0.96707 -6.57989,2.52934 -1.66722,5.16404 6.60069,3.53999 3.59959,5.792 -8,6.00315 -4.48333,0.0816 -6.26893,-0.42118 -9.65976,-2.72001 z M 999.9416,475.05177 c -1.40712,-0.42697 -3.53955,-1.30141 -4.73873,-1.9432 -5.62851,-3.01229 -20.38858,-6.31349 -32.20287,-7.20241 -34.32705,-2.58283 -57.08401,-5.42707 -67.9275,-8.48982 -9.40072,-2.65523 -15.41322,-4.21942 -19.0725,-4.96181 -1.925,-0.39054 -4.38763,-1.32758 -5.47251,-2.0823 C 869.44262,449.6175 867.49127,449 866.19118,449 c -2.80618,0 -14.899,-3.23031 -24.69118,-6.59566 -3.85,-1.32316 -9.25,-3.03295 -12,-3.79953 -2.75,-0.76659 -7.7,-2.55559 -11,-3.97557 -3.74521,-1.61154 -7.88456,-2.59069 -11.01481,-2.6055 -3.06439,-0.0145 -6.46613,-0.8016 -8.74637,-2.02374 -2.13123,-1.14227 -5.64209,-2 -8.18641,-2 -4.37259,0 -11.63186,-1.57302 -20.55241,-4.45353 -2.475,-0.79919 -8.50646,-2.66108 -13.40324,-4.13753 -5.89253,-1.77667 -9.9053,-3.64205 -11.86649,-5.51627 -1.62978,-1.55751 -3.8366,-3.10903 -4.90404,-3.44782 -4.00254,-1.27036 -5.18985,-12.30739 -2.1736,-20.20535 3.00659,-7.87262 6.91407,-3.41204 4.39026,5.01169 -1.00249,3.346 -0.8906,4.25915 0.87116,7.10974 1.11176,1.79886 2.84846,4.01916 3.85935,4.934 1.73902,1.57379 2.03964,1.42207 5.58425,-2.81843 l 3.74629,-4.48176 5.69803,0.65878 c 3.13392,0.36232 6.70854,1.31396 7.94362,2.11474 1.50588,0.97638 3.40266,1.23891 5.75824,0.797 2.30035,-0.43155 6.20811,0.0683 11.32278,1.44842 4.29558,1.15907 8.22937,1.98876 8.74176,1.84374 2.31443,-0.65502 16.85512,1.396 21.69007,3.05947 2.94492,1.0132 7.69741,2.16443 10.56108,2.55829 6.16098,0.84735 11.32065,2.4343 32.68048,10.0515 19.21688,6.853 28.00269,9.47332 31.76354,9.47332 1.54376,0 3.8245,0.6668 5.06831,1.48178 1.24382,0.81498 5.78112,1.97132 10.08289,2.56964 4.30177,0.59832 9.00576,1.53833 10.45333,2.08891 2.7826,1.05835 13.83211,2.30653 33.63193,3.79916 15.49916,1.16841 27.22698,2.88044 31,4.52538 5.53,2.41094 13.94544,4.43496 20.3957,4.90541 5.1443,0.37521 6.892,0.96287 8.9328,3.00363 2.2093,2.20936 2.5592,3.47958 2.7079,9.83162 0.2524,10.77791 -0.3454,11.81307 -6.7616,11.70852 -2.9012,-0.0473 -6.4261,-0.4353 -7.8332,-0.86228 z m 6.2638,-79.79536 c -3.7543,-0.32849 -4.5011,-0.80862 -5.9352,-3.81609 -1.89123,-3.96585 -1.33946,-3.77943 -11.7702,-3.97649 -4.4,-0.0831 -11.15,-0.67039 -15,-1.30504 -3.85,-0.63465 -10.375,-1.42459 -14.5,-1.75542 -4.125,-0.33083 -9.41805,-1.22847 -11.76232,-1.99476 -2.34428,-0.76629 -5.96549,-1.32651 -8.04713,-1.24495 -2.08163,0.0816 -4.88859,-0.55364 -6.23767,-1.41158 -1.34908,-0.85794 -4.47788,-1.87469 -6.95288,-2.25946 -2.475,-0.38476 -5.85,-1.27524 -7.5,-1.97885 -5.68907,-2.42597 -9.01577,-3.37095 -14,-3.97682 -4.95478,-0.60228 -9.17353,-1.99444 -17.10953,-5.64603 C 885.13023,364.85091 882.81241,364 882.23977,364 c -0.57265,0 -3.44836,-1.1206 -6.39047,-2.49023 -2.94212,-1.36963 -6.34653,-2.49463 -7.56537,-2.5 -1.21884,-0.005 -3.69384,-0.64191 -5.5,-1.41453 -8.27104,-3.53808 -26.90939,-8.78745 -37.40608,-10.53518 -2.81719,-0.46907 -6.11452,-1.38395 -7.3274,-2.03306 -1.21289,-0.64912 -4.30792,-1.78373 -6.87785,-2.52135 -5.1968,-1.4916 -11.72814,-3.83736 -23.6726,-8.50211 -4.4,-1.71837 -12.03363,-4.55963 -16.96363,-6.31392 -4.93,-1.75429 -9.6964,-3.90602 -10.592,-4.78162 -0.8956,-0.87559 -3.98049,-1.87057 -6.85531,-2.21105 -2.87482,-0.34048 -6.71154,-1.53658 -8.52604,-2.658 C 742.74852,316.91753 740.29597,316 739.11291,316 c -2.26486,0 -2.26334,0.0906 -0.13435,-7.97881 0.65723,-2.49106 3.63834,-4.04973 16.28846,-8.5164 2.62186,-0.92576 7.12186,-3.83014 10,-6.45416 2.87814,-2.62403 7.03298,-5.69009 9.23298,-6.81348 4.63135,-2.3649 7.0528,-4.79902 11.67195,-11.73304 l 3.32805,-4.99588 55.5,-0.20767 55.5,-0.20766 10.5,5.0101 c 5.775,2.75556 13.03209,6.33465 16.12687,7.95355 3.09477,1.6189 6.1417,2.94345 6.77095,2.94345 1.09271,0 24.32194,8.73661 30.60218,11.50961 1.65,0.72854 5.475,1.5717 8.5,1.87368 6.72972,0.67182 32.6734,5.29682 33.8738,6.03872 1.5572,0.96243 2.1535,6.76289 1.0981,10.68236 -1.1349,4.21453 -1.0483,4.20159 -11.4719,1.71445 -2.2,-0.52493 -8.34882,-1.56895 -13.66404,-2.32005 -5.31523,-0.75109 -12.29023,-1.86749 -15.5,-2.48087 C 964.12618,311.40452 955.875,310.65392 949,310.34991 937.07667,309.82266 936.23341,309.91718 930.72149,312.39858 925.95124,314.54609 923.45335,315 916.40575,315 905.27669,315 904,315.7114 904,321.91274 c 0,9.0048 -3.80909,9.11527 -12.76629,0.37024 -3.13185,-3.05767 -7.50315,-6.72007 -9.71399,-8.13868 -2.21085,-1.4186 -5.32428,-3.63378 -6.91873,-4.92262 -1.59446,-1.28883 -5.50387,-3.65826 -8.68758,-5.26539 -6.56024,-3.3116 -7.40054,-3.36102 -50.41341,-2.96509 -28.41726,0.26158 -39.5,2.22808 -39.5,7.0088 0,2.2693 2.80543,4 6.48392,4 3.13511,0 7.88422,2.33317 11.41715,5.60909 1.41817,1.315 3.51715,2.39091 4.6644,2.39091 1.14725,0 3.14278,1.125 4.43453,2.5 2.11526,2.2516 3.12242,2.5 10.13626,2.5 7.71,0 26.65263,3.22246 30.20568,5.13849 1.01306,0.54631 5.06306,1.26236 9,1.59123 4.63695,0.38734 8.70739,1.42074 11.557,2.93411 2.41942,1.28489 5.13179,2.33617 6.02749,2.33617 0.89571,0 2.70302,0.75259 4.01626,1.67241 1.31324,0.91983 5.57587,2.22723 9.47251,2.90534 3.89664,0.67811 9.88288,1.94193 13.30275,2.8085 5.85885,1.48459 9.28205,1.35415 9.28205,-0.35369 0,-0.41441 -1.17558,-2.48578 -2.6124,-4.60305 -1.90398,-2.80568 -2.34947,-4.26718 -1.64281,-5.38955 1.37313,-2.18091 4.39751,-2.53707 5.45765,-0.6427 0.49332,0.88151 1.89945,1.60274 3.12474,1.60274 2.78854,0 6.67282,2.64467 6.67282,4.54328 0,0.78644 1.5541,2.07922 3.45355,2.87287 1.89946,0.79364 7.34238,5.34058 12.09539,10.1043 4.75301,4.76372 10.28641,9.34901 12.29645,10.18953 3.14104,1.31345 23.42782,2.75861 35.15461,2.50428 3.46943,-0.0752 13.2976,1.92898 14.45,2.94674 0.5225,0.46145 1.70825,0.839 2.63499,0.839 0.92674,0 2.42212,1.125 3.32301,2.5 1.2149,1.85412 2.5152,2.5 5.0333,2.5 5.1457,0 6.5587,0.88174 6.5587,4.09264 0,1.58326 0.5185,4.81718 1.1522,7.1865 0.7784,2.9105 0.8392,5.24657 0.1875,7.20185 -1.0846,3.25371 -1.1917,3.29538 -7.1343,2.77542 z m -500.50625,-8.15006 c -4.4762,-0.95162 -6.01511,-2.24067 -5.54293,-4.64295 0.42564,-2.16549 1.86704,-2.966 8.84378,-4.91158 3.025,-0.84357 6.175,-1.99637 7,-2.56179 2.493,-1.7086 -1.61056,-3.99003 -7.17677,-3.99003 -3.54683,0 -6.55479,-0.92021 -11.55887,-3.53616 -10.4127,-5.44337 -13.48178,-10.14989 -9.79616,-15.02271 0.8075,-1.06762 1.4825,-4.05207 1.5,-6.63211 0.0372,-5.4924 1.70702,-7.12926 3.96003,-3.88196 0.86448,1.24598 2.9995,3.9094 4.74451,5.91872 l 3.17274,3.6533 7.60129,-0.29188 c 5.79278,-0.22244 8.29499,0.11789 10.51693,1.43043 2.50569,1.48014 3.45139,1.54921 6.72597,0.4912 3.41513,-1.10342 4.47823,-0.96651 10.24994,1.32003 3.54179,1.40313 6.96596,2.55114 7.60927,2.55114 0.64331,0 3.14549,1.57063 5.56039,3.49029 2.4149,1.91967 4.95323,3.49467 5.64073,3.5 0.6875,0.005 1.2875,0.34721 1.33333,0.75971 0.0458,0.4125 0.2792,1.65 0.5186,2.75 1.81317,8.33137 1.58657,11.12253 -1.16881,14.39711 -1.94078,2.30648 -3.32539,3.10282 -4.74809,2.73077 -1.10461,-0.28886 -2.94812,-0.019 -4.0967,0.59971 -2.3264,1.25315 -4.25178,1.43029 -23.58833,2.17022 -7.425,0.28413 -15.21038,0.15297 -17.30085,-0.29146 z M 353,377.10263 c -0.825,-0.48258 -3.525,-1.21021 -6,-1.61694 -2.475,-0.40674 -6.75,-1.73236 -9.5,-2.94583 -2.75,-1.21348 -7.025,-2.52879 -9.5,-2.92292 -2.475,-0.39413 -6.525,-1.34375 -9,-2.11028 -2.475,-0.76653 -8.1,-1.86075 -12.5,-2.43161 -15.82885,-2.05364 -24.55393,-4.07348 -30.44746,-7.04853 C 272.75501,356.36194 269.00658,355 267.72269,355 c -3.80886,0 -15.00345,-4.12732 -18.04942,-6.65461 C 248.11858,347.05542 245.74252,346 244.39314,346 c -1.34937,0 -5.15029,-1.1351 -8.44649,-2.52245 -3.2962,-1.38735 -10.11572,-3.85873 -15.1545,-5.49196 -5.03878,-1.63322 -10.76584,-4.03508 -12.72679,-5.33747 C 206.10441,331.34573 202.7,329.25408 200.5,328 c -2.2,-1.25408 -5.575,-3.31202 -7.5,-4.57321 -1.925,-1.26119 -8.675,-4.36813 -15,-6.90431 -6.325,-2.53618 -13.975,-5.88871 -17,-7.45007 -5.58907,-2.8848 -20.21446,-8.31976 -32,-11.89154 -5.78093,-1.75199 -15.02675,-3.73747 -26.24194,-5.63527 -2.787604,-0.47171 -3.857218,-1.19587 -4.193936,-2.8394 -0.893541,-4.36142 -1.269844,-16.56432 -0.54687,-17.73412 0.529778,-0.8572 3.406036,0.0774 10.184136,3.30916 5.19521,2.47705 12.11272,5.02923 15.37223,5.6715 8.81282,1.73654 17.72295,4.68172 29.12027,9.62549 5.60664,2.43198 10.93121,4.42177 11.83238,4.42177 0.90118,0 4.63893,1.30933 8.30612,2.90963 3.66718,1.60029 9.54131,3.84598 13.05362,4.99043 3.5123,1.14444 6.8873,2.48315 7.5,2.9749 0.61269,0.49175 2.68899,1.22525 4.61399,1.63001 1.925,0.40475 4.82219,1.41206 6.43821,2.23848 2.26802,1.15983 3.35417,1.2428 4.76181,0.36371 3.74592,-2.33936 17.47701,-6.08207 22.35885,-6.09439 5.75069,-0.0145 8.15744,-1.41029 8.62039,-4.99931 0.25479,-1.97528 1.04038,-2.60544 3.82074,-3.06484 1.925,-0.31808 4.47692,-1.10843 5.67094,-1.75634 1.19401,-0.64791 5.1286,-1.59688 8.74353,-2.10882 4.72086,-0.66855 8.30905,-1.98564 12.73606,-4.6749 3.38992,-2.05927 8.45533,-4.32482 11.25648,-5.03456 9.29471,-2.35504 17.02924,-5.5242 21.58806,-8.84551 2.47771,-1.80513 6.94666,-4.51023 9.931,-6.01134 l 5.42608,-2.72929 21.92386,0.10882 c 12.05812,0.0598 22.32889,0.35913 22.82392,0.66508 1.55272,0.95963 0.98054,7.1173 -0.87418,9.40778 -1.33442,1.64794 -4.22451,2.68093 -11.6583,4.16696 -5.43622,1.08672 -11.05031,2.57576 -12.47575,3.30898 -1.42543,0.73322 -5.79552,2.28452 -9.71131,3.44733 -3.91578,1.16282 -8.28191,3.02848 -9.7025,4.14592 -3.63353,2.85814 -10.38754,5.6402 -15.67789,6.45791 -5.35399,0.82755 -8.61175,2.70474 -9.48863,5.46753 -0.44099,1.38945 -2.36379,2.51847 -6.17701,3.62701 -3.04519,0.88526 -7.62868,2.7269 -10.18553,4.09253 -7.58892,4.05329 -19.62474,12.85897 -19.96372,14.60593 -0.40399,2.08194 12.33379,8.60356 22.81489,11.681 4.125,1.21117 9.075,3.12285 11,4.24817 1.925,1.12532 6.08334,2.65526 9.24076,3.39985 3.15742,0.7446 8.10742,2.65968 11,4.25573 4.34057,2.39502 6.91701,3.01824 14.74976,3.56785 6.70404,0.47041 9.72841,1.09103 10.30077,2.11378 0.65312,1.16707 2.4249,1.32373 9.13636,0.80785 l 8.32612,-0.64 1.00824,3.38807 c 3.85928,12.96849 4.14082,21.2197 0.73799,21.62809 -1.1,0.13201 -2.675,-0.15481 -3.5,-0.6374 z M 486.72457,328.39124 C 486.32606,327.99272 486,326.12773 486,324.24681 c 0,-4.51369 5.03318,-11.49017 10.67488,-14.79643 C 499.0537,308.0563 501,306.44091 501,305.86062 c 0,-0.5803 2.98228,-4.14419 6.62729,-7.91976 4.90492,-5.08062 7.82869,-7.24612 11.25,-8.33236 9.01716,-2.86288 10.77031,-2.87346 20.8832,-0.12599 12.01159,3.2633 12.66533,3.60262 13.0466,6.77166 C 553.15078,299.11076 549.97931,302 546.5,302 c -1.13024,0 -2.98228,0.6495 -4.11564,1.44333 -1.13335,0.79384 -4.04598,2.22158 -6.4725,3.17276 -2.42652,0.95118 -6.81671,3.24818 -9.75598,5.10445 -2.93927,1.85627 -7.33035,3.7461 -9.75796,4.19963 -4.1151,0.76878 -8.13146,3.02945 -14.53976,8.18389 -1.45301,1.16871 -4.37801,2.48849 -6.5,2.93283 -2.12199,0.44435 -4.7696,1.09388 -5.88359,1.44341 -1.11398,0.34953 -2.35148,0.30945 -2.75,-0.0891 z M 696.75,128.45915 c -0.4125,-0.43587 -0.75,-3.64957 -0.75,-7.14156 l 0,-6.34908 10.13516,-6.73426 c 5.57434,-3.70384 11.91734,-7.94178 14.09556,-9.417649 3.66302,-2.481905 10.81768,-5.287658 23.26928,-9.125227 8.15137,-2.512243 23.52644,-8.284764 30.5,-11.451128 3.575,-1.623239 8.33842,-3.726285 10.58538,-4.673437 C 789.71958,71.402613 801,60.560895 801,57.790567 c 0,-2.21629 6.77765,-3.62293 15.77227,-3.273393 5.06937,0.197 9.69186,0.65164 10.2722,1.010312 0.58035,0.358672 3.16502,1.174217 5.74371,1.812322 5.77582,1.429241 6.37501,3.374214 2.68145,8.704022 -1.53488,2.214821 -2.44389,4.580869 -2.10211,5.471527 0.3312,0.863085 0.0828,3.51121 -0.55204,5.884721 -1.04783,3.917737 -0.94377,4.611009 1.12905,7.522016 l 2.28325,3.206539 -2.11389,2.250135 C 832.77856,91.800166 832,93.941213 832,96.192007 c 0,4.307613 -2.23089,6.691183 -4.5,4.807993 -0.825,-0.68469 -1.5,-1.826976 -1.5,-2.538415 0,-1.623747 -6.46038,-6.689211 -10.68395,-8.377095 -1.97292,-0.788445 -4.44523,-0.991545 -6.5,-0.533976 -1.82383,0.406141 -5.0168,0.676144 -7.0955,0.600007 -2.40262,-0.088 -5.13481,0.70267 -7.5,2.170433 C 788.66441,95.76893 764.98914,107 763.27689,107 c -0.8185,0 -2.82516,1.125 -4.45926,2.5 -1.91748,1.61346 -4.19916,2.5 -6.43419,2.5 -1.90472,0 -5.22726,0.9 -7.38344,2 -2.15618,1.1 -4.63621,2 -5.51119,2 -0.87497,0 -2.22152,1.4625 -2.99232,3.25 -0.7708,1.7875 -2.43534,4.50316 -3.69897,6.03481 l -2.29752,2.7848 -16.5,0.59101 c -9.075,0.32506 -16.8375,0.2344 -17.25,-0.20147 z m -372.3519,-2.35057 c -4.45604,-0.33472 -8.82102,-1.20749 -9.69996,-1.9395 -0.87894,-0.73201 -2.54269,-3.28223 -3.69721,-5.66717 -2.85381,-5.89518 -6.06741,-7.87943 -11.36015,-7.01437 -9.75698,1.59471 -16.46708,0.65225 -25.27026,-3.54934 -4.60056,-2.19575 -10.63278,-6.0067 -13.40492,-8.468754 l -5.04027,-4.47647 -7.21266,0.648674 c -9.44987,0.849877 -18.31848,3.713165 -22.90403,7.39471 -4.44079,3.56533 -7.54006,3.81972 -8.69414,0.71364 -0.7365,-1.98224 -2.37008,-24.944897 -2.152,-30.25 0.46743,-11.370845 0.72941,-14.41669 1.46224,-17 0.46807,-1.65 1.26482,-3.527238 1.77056,-4.171639 0.57554,-0.733344 0.45813,-1.910448 -0.31386,-3.146601 -1.06923,-1.712109 -0.85932,-2.296722 1.57722,-4.392541 2.5034,-2.153331 2.6753,-2.670397 1.57273,-4.730573 -1.75502,-3.279281 0.23337,-4.333412 6.46861,-3.42928 2.75,0.398759 8.375,0.840746 12.5,0.982191 4.125,0.141446 10.77823,0.525268 14.78495,0.852939 4.00673,0.32767 8.04283,0.171638 8.96911,-0.346739 1.15276,-0.645115 2.62827,-0.454287 4.67628,0.604782 2.49817,1.291854 3.75184,1.352578 7.59409,0.367838 4.07652,-1.044782 5.16563,-0.936204 9.53877,0.950966 3.25157,1.403175 6.18024,1.967819 8.5794,1.654097 2.52161,-0.329733 4.52196,0.103429 6.5,1.407532 3.4681,2.286475 10.33272,2.478268 14.34986,0.400926 1.59123,-0.822857 4.38138,-1.49447 6.20034,-1.492474 10.44593,0.01146 14.51898,0.619994 17.8072,2.660471 4.25244,2.638817 13.04447,3.886846 37.69768,5.351188 10.00872,0.594494 20.55467,1.453489 23.43544,1.908878 2.88077,0.455388 6.93431,0.600425 9.00786,0.322304 3.60201,-0.483132 3.76093,-0.662937 3.56456,-4.033148 -0.18252,-3.13241 0.13045,-3.624456 2.79446,-4.393424 4.13565,-1.193757 20.28905,0.07197 24.25,1.900148 1.96689,0.90782 3.25,2.235563 3.25,3.363047 0,1.024654 1.12399,2.599474 2.49776,3.499602 2.09429,1.372234 4.71919,1.569824 16.25,1.223225 14.44764,-0.434274 15.27854,-0.662189 23.13461,-6.345779 4.86577,-3.520213 8.88004,-4.37497 14.82615,-3.156924 6.40719,1.312499 20.21457,-1.138699 24.57544,-4.362832 2.17781,-1.610123 3.70824,-1.984624 6.20003,-1.517161 1.88877,0.354336 4.48751,0.08346 6.05614,-0.631258 2.47585,-1.128073 2.89733,-1.026558 4.26025,1.026113 0.83191,1.252923 3.01715,2.906698 4.85609,3.675057 2.11216,0.882515 3.34353,2.090146 3.34353,3.279063 0,2.205416 -4.42943,4.867908 -7.29227,4.383317 C 539.14974,49.73032 527.8056,51.773723 522,53.713233 c -2.475,0.826838 -9.7945,1.885534 -16.26555,2.352658 -17.69528,1.277365 -17.87328,1.337141 -24.96188,8.382777 C 472.78252,72.390299 466.35961,77 463.28422,77 c -1.32864,0 -3.24395,0.443265 -4.25626,0.985034 -1.0123,0.541768 -6.94522,1.928775 -13.18425,3.082238 -6.23904,1.153462 -12.69371,2.693941 -14.34371,3.423286 -13.09444,5.788104 -24.44222,11.896869 -32.5,17.495492 -5.225,3.63038 -10.05107,6.93817 -10.72461,7.35064 -0.67353,0.41248 -4.70627,1.41611 -8.96164,2.2303 C 369.80362,113.38657 367,115.05896 367,118.91227 c 0,1.57639 -0.82967,3.89076 -1.8437,5.14304 -1.76025,2.17381 -2.54109,2.28559 -17.25,2.46936 -8.47347,0.10587 -19.05215,-0.0814 -23.5082,-0.41609 z m 21.77086,-20.77778 c 6.17459,-3.09411 6.79866,-3.3308 8.78229,-3.3308 1.08811,0 2.43472,-0.85267 2.99246,-1.89482 0.55774,-1.042145 2.26107,-2.41016 3.78518,-3.04003 4.94774,-2.044753 8.68966,-4.271903 12.93941,-7.701392 C 376.96086,87.513691 379.31299,86 379.89524,86 c 0.58226,0 1.79578,-1.125 2.69672,-2.5 0.90093,-1.375 2.22678,-2.5 2.94632,-2.5 0.71955,0 2.64526,-1.125 4.27935,-2.5 1.6341,-1.375 3.41352,-2.5 3.95428,-2.5 0.54076,0 1.58381,-0.723696 2.3179,-1.608213 1.13401,-1.366401 1.0485,-1.817481 -0.56869,-3 -1.04686,-0.765483 -3.05487,-1.411539 -4.46225,-1.43568 -1.40738,-0.02414 -4.35887,-0.731041 -6.55887,-1.570889 -3.68399,-1.406362 -7.32657,-2.281807 -22.5,-5.407582 -3.025,-0.623159 -7.525,-1.763097 -10,-2.533195 -2.475,-0.770098 -6.525,-1.688246 -9,-2.04033 -2.475,-0.352084 -7.64096,-1.487043 -11.4799,-2.522132 -3.83895,-1.035088 -9.01395,-1.884585 -11.5,-1.887771 -2.48606,-0.0032 -7.2201,-0.4844 -10.5201,-1.069365 -3.3,-0.584966 -18.27458,-1.26267 -33.27684,-1.50601 -29.95937,-0.485946 -28.81636,-0.665682 -37.39128,5.8797 -2.43896,1.861699 -5.64889,3.689707 -7.13318,4.062239 C 230.21442,61.733305 229,62.442829 229,62.937493 229,64.4532 235.57615,68 238.38644,68 c 2.86975,0 11.18747,3.910899 16.29684,7.662591 1.7508,1.285575 3.78817,2.337409 4.52749,2.337409 0.73932,0 2.40887,0.74571 3.71011,1.657134 2.66054,1.863517 16.65939,4.253603 25.22863,4.307399 4.72564,0.02967 6.46924,0.587106 10.6622,3.408757 2.76745,1.862353 6.96679,3.666325 9.37539,4.027517 4.38449,0.657494 5.68179,1.326382 14.3503,7.398971 2.59071,1.814882 5.98163,3.554032 7.53537,3.864772 1.55375,0.31075 3.59274,1.41335 4.5311,2.45023 2.13042,2.35409 7.11267,2.44715 11.56509,0.21602 z m 170.68223,20.93366 c -0.97499,-0.22005 -1.92071,-1.8215 -2.31414,-3.91868 -0.82303,-4.38712 1.10986,-6.86936 6.07434,-7.8007 2.34783,-0.44045 3.84337,-1.44907 4.59514,-3.09903 0.61298,-1.34533 1.76908,-2.44605 2.56911,-2.44605 0.80004,0 2.86531,-1.53409 4.58949,-3.40909 C 536.88676,100.67375 547.05936,93 549.0561,93 c 0.93859,0 2.91057,-1.578586 4.38218,-3.507969 1.47161,-1.929382 5.91252,-5.758717 9.86869,-8.509632 10.92736,-7.598326 19.34865,-14.757658 26.00455,-22.107687 l 4.18848,-4.625289 11,-0.682787 c 14.13889,-0.877623 21.23955,-2.120784 27.20316,-4.76264 3.80226,-1.68439 7.38859,-2.214889 17.29684,-2.558593 9.28264,-0.322003 13.52956,-0.90543 16.5,-2.266715 2.2,-1.008208 6.98923,-2.138117 10.64274,-2.510908 6.0659,-0.618942 7.04283,-0.443335 11.25,2.022231 2.53399,1.485018 4.60726,3.101234 4.60726,3.591591 0,1.390335 -6.58054,3.798896 -12.30815,4.504943 -2.85552,0.352001 -6.72729,1.516888 -8.60394,2.588637 -2.46857,1.409795 -6.75465,2.223658 -15.5,2.943219 -6.64835,0.547021 -14.56923,1.377058 -17.60195,1.844526 -3.03272,0.467468 -6.73856,0.61586 -8.2352,0.329761 -1.93113,-0.369161 -4.10448,0.352729 -7.48595,2.486503 -2.62065,1.653677 -5.88981,3.332093 -7.26481,3.729813 -4.1509,1.200652 -8.75215,5.147228 -25.87257,22.191374 C 580.12252,96.66517 572.22872,104 571.58564,104 c -0.64307,0 -3.17542,2.058 -5.62743,4.57332 -2.45202,2.51533 -5.80821,5.21888 -7.45821,6.0079 -5.6693,2.71102 -9.99489,6.5082 -10.51093,9.22694 l -0.51093,2.69184 -14.48907,0.0683 c -7.96899,0.0376 -15.23103,-0.0992 -16.13788,-0.30383 z"
       id="path3196"
       inkscape:connector-curvature="0" />
    <path
       style="fill:#20191a"
       d="m 825.70247,667.22373 c -0.88413,-0.97695 -2.19174,-3.56445 -2.90581,-5.75 -0.92552,-2.83275 -1.93323,-4.06406 -3.50956,-4.28831 -1.89059,-0.26896 -2.12319,-0.75496 -1.60394,-3.35122 0.38533,-1.92667 0.15398,-3.31682 -0.63294,-3.80316 -0.82906,-0.51239 -0.34819,-0.99042 1.45041,-1.44184 1.56573,-0.39297 3.2725,-0.19245 4.08229,0.47962 0.76538,0.63521 2.07234,0.89371 2.90435,0.57444 1.17113,-0.44941 1.51273,0.20278 1.51273,2.88812 l 0,3.46862 7.25,0.1758 c 18.6436,0.45207 34.8129,-0.14154 36.983,-1.35772 1.62144,-0.9087 6.28055,-1.17595 16.36122,-0.93851 l 14.09422,0.33197 2.06568,-2.62608 c 1.13612,-1.44434 2.23465,-2.11914 2.44118,-1.49955 0.20654,0.6196 1.84416,1.2004 3.63918,1.29068 3.01852,0.15181 3.59797,0.78982 7.71459,8.49435 C 919.99708,664.45256 922,668.3809 922,668.60058 922,668.82026 900.69474,669 874.65499,669 c -44.08726,0 -47.45563,-0.12222 -48.95252,-1.77627 z M 1002,665.66903 c 0,-2.55713 2.2558,-6.75042 3.4223,-6.36159 1.9206,0.64019 1.1447,4.90413 -1.1723,6.44256 -2.0133,1.33678 -2.25,1.32826 -2.25,-0.081 z m -781.5,-3.37965 c -2.2,-0.24039 -4.70364,-1.07269 -5.56365,-1.84957 -1.19366,-1.07827 -1.84043,-1.13573 -2.73334,-0.24282 -0.64332,0.64332 -1.36105,0.97468 -1.59496,0.73634 -0.94727,-0.96521 -1.03802,-8.46834 -0.10805,-8.93333 0.55,-0.275 1.14305,0.98982 1.31789,2.8107 0.19174,1.99701 0.78695,3.15634 1.5,2.92168 1.50626,-0.49571 2.17919,-4.73238 0.75166,-4.73238 -2.51678,0 -0.83246,-4.089 2.66258,-6.46395 4.47055,-3.03781 5.41966,-3.1239 6.97543,-0.63272 0.70974,1.13649 2.92188,2.19052 5.49055,2.61613 2.36604,0.39204 5.15009,1.15886 6.18678,1.70404 6.87482,3.6154 42.05012,7.0404 63.61511,6.19417 5.775,-0.22661 12.21883,-0.14345 14.31963,0.18481 3.78347,0.59119 5.76564,2.73364 4.06315,4.39171 -0.91053,0.88677 -89.7511,2.07446 -96.88278,1.29519 z m 119,-0.99533 c -3.3,-0.18028 -6.94484,-0.81003 -8.09965,-1.39943 -1.48668,-0.75879 -3.22192,-0.76178 -5.94377,-0.0102 -4.01692,1.10912 -5.50492,0.76396 -3.8483,-0.89266 0.60659,-0.60659 6.90721,-0.73017 16.67609,-0.32707 12.9826,0.5357 15.50806,0.88053 14.58594,1.99161 -0.61336,0.73906 -2.5226,1.25865 -4.24275,1.15466 -1.72016,-0.104 -5.82756,-0.33659 -9.12756,-0.51687 z m -215.92663,-0.99481 c -1.05964,-0.28266 -2.66479,-1.42552 -3.567,-2.5397 -1.45626,-1.7984 -1.91346,-1.8756 -4.07337,-0.68777 -1.33815,0.73591 -3.30808,1.20269 -4.37762,1.0373 -1.06954,-0.1654 -3.65677,0.26433 -5.74939,0.95496 -3.08515,1.01819 -4.85397,1.00399 -9.351987,-0.0751 -6.184066,-1.48354 -6.511608,-1.78521 -7.159689,-6.59429 L 88.836839,649 l 6.323254,0 c 10.391517,0 21.749367,2.13939 22.410117,4.22121 0.7029,2.21466 5.96232,2.43939 6.78711,0.29001 0.48206,-1.25622 2.80276,-1.40862 14.85699,-0.97561 7.85713,0.28224 15.86069,0.69879 17.78569,0.92567 1.925,0.22687 8,0.0473 13.5,-0.39903 6.74199,-0.54712 10.6516,-0.46017 12,0.26688 1.1,0.59313 2.675,1.09921 3.5,1.12464 0.91474,0.0282 1.5,1.00706 1.5,2.5088 0,3.08369 -5.15171,4.97278 -8.9017,3.26417 -1.67215,-0.76188 -3.57593,-0.76593 -6.53864,-0.0139 -3.15184,0.80002 -4.75623,0.75233 -6.52431,-0.19391 -1.28955,-0.69015 -2.80231,-0.97196 -3.36168,-0.62626 -1.32064,0.81621 -20.99862,1.61175 -22.79701,0.92164 C 138.6195,660.02375 138,658.70917 138,657.39301 138,655.63911 137.44674,655 135.92843,655 c -1.67117,0 -2.00941,0.53151 -1.75,2.75 0.30652,2.62129 0.11095,2.75733 -4.17843,2.90658 -2.475,0.0861 -5.36698,-0.0747 -6.42663,-0.35734 z m 75.50558,-2.71591 c -0.0434,-1.05416 0.19292,-1.64479 0.52522,-1.3125 0.33229,0.33229 0.36781,1.1948 0.0789,1.91667 -0.31922,0.79773 -0.55618,0.56078 -0.60416,-0.60417 z m 699.77997,-28.68206 c -1.28484,-2.4207 -2.66422,-5.18877 -3.06527,-6.15127 -0.42251,-1.01396 -1.79424,-1.75 -3.26143,-1.75 -1.95977,0 -2.53189,-0.50865 -2.53076,-2.25 0.001,-2.2016 0.2476,-2.25021 11.44435,-2.25959 10.95544,-0.009 11.56241,-0.12111 14.24854,-2.62729 1.54311,-1.43973 5.2294,-3.40443 8.19177,-4.36599 2.96236,-0.96156 7.07368,-3.2729 9.13625,-5.13631 2.06257,-1.86341 5.80289,-4.0058 8.31181,-4.76088 2.50892,-0.75507 5.7708,-2.32395 7.24861,-3.4864 1.47781,-1.16245 3.13945,-2.11354 3.69254,-2.11354 0.55308,0 3.00188,-0.99699 5.44177,-2.21553 3.01426,-1.50539 4.87604,-3.26829 5.80851,-5.5 0.75478,-1.80646 2.08823,-3.28447 2.9632,-3.28447 2.51369,0 8.77421,-3.54773 11.51119,-6.52321 1.375,-1.49481 4.525,-3.59577 7,-4.66879 2.475,-1.07303 5.33357,-2.70523 6.35238,-3.62712 2.60037,-2.35299 4.73603,-6.7869 4.08553,-8.48208 -1.12092,-2.92107 -3.44644,-3.56532 -42.38059,-11.74096 -7.94347,-1.66803 -15.01872,-3.51084 -15.72278,-4.09516 -0.70405,-0.58431 -6.24185,-1.29396 -12.30621,-1.577 -11.43574,-0.53374 -15.90665,0.45292 -19.01301,4.19587 -0.69312,0.83515 -1.84,1.51845 -2.54864,1.51845 -1.20911,0 -16.54322,6.92537 -24.60283,11.11143 -1.99989,1.03871 -4.25655,1.88857 -5.01481,1.88857 -1.9902,0 -9.20743,3.99713 -10.14873,5.62069 -1.4087,2.42974 -3.145,1.49499 -5.99865,-3.22942 -2.29954,-3.80705 -3.19818,-4.52951 -5.16617,-4.1533 -1.71269,0.3274 -2.51809,-0.0634 -2.86507,-1.39028 -0.26546,-1.01513 -0.14803,-2.05251 0.26096,-2.30528 0.40898,-0.25277 6.28929,-0.46353 13.06734,-0.46836 11.81939,-0.008 12.4319,-0.11243 14.96722,-2.54142 1.45392,-1.39295 3.37948,-2.53263 4.27901,-2.53263 0.89953,0 4.4749,-2.17553 7.94528,-4.8345 3.47037,-2.65898 6.92431,-4.62913 7.67542,-4.37812 1.64578,0.55 3.09807,-1.50319 3.11904,-4.40959 0.0148,-2.05088 0.5782,-2.14479 16.76531,-2.79433 17.50766,-0.70254 39.94239,1.08643 42.73986,3.40813 0.7371,0.61173 5.33616,1.52566 10.22015,2.03095 4.88399,0.50529 12.23473,1.62897 16.33498,2.49705 4.10026,0.86808 10.51092,1.96648 14.24591,2.44088 3.735,0.4744 7.4475,1.40747 8.25,2.07348 1.7238,1.43063 1.9463,8.54649 0.3955,12.65095 -1.3103,3.46789 -5.9222,8.44189 -7.1334,7.69335 -1.046,-0.64648 -3.96147,1.19488 -8.73311,5.51571 -2.17882,1.97298 -4.48858,3.10604 -6.33169,3.10604 -2.19234,0 -4.09069,1.25333 -7.76639,5.12752 -3.48944,3.67787 -5.34796,4.94211 -6.57377,4.47173 -2.07108,-0.79475 -8.63565,3.52132 -11.52289,7.57608 -1.3345,1.87414 -2.89668,2.82467 -4.64228,2.82467 -1.86457,0 -3.99835,1.45647 -7.3252,5 -2.58183,2.75 -5.56235,5 -6.62338,5 -1.11871,0 -4.34139,2.73062 -7.67129,6.5 -4.41951,5.0028 -6.36937,6.5 -8.46517,6.5 -1.94431,0 -4.13137,1.42986 -7.64783,5 -3.61282,3.66797 -5.68067,5 -7.76207,5 -2.93918,0 -8.74858,2.52031 -9.89044,4.2908 -0.35887,0.55645 -1.70373,-0.96884 -2.98857,-3.38953 z M 845.25,631.33772 C 843.47067,630.61974 843.65659,626 845.46482,626 c 1.45709,0 3.53518,2.90052 3.53518,4.93426 0,1.10544 -1.58712,1.2762 -3.75,0.40346 z m -582.05623,-6.41904 c 0.65776,-1.97327 4.51689,-4.19586 5.24363,-3.01997 0.3454,0.55886 -0.78669,1.74767 -2.51574,2.6418 -2.18606,1.13046 -3.01705,1.24566 -2.72789,0.37817 z m 28.81073,-14.4241 c 0.79087,-0.95294 1.02648,-2.8994 0.64199,-5.30383 l -0.60739,-3.79841 11.23045,0.025 c 9.95516,0.0222 11.98793,-0.28401 17.90101,-2.69617 3.6688,-1.49664 7.7188,-2.7231 9,-2.72545 1.28119,-0.002 4.35444,-1.35043 6.82944,-2.99572 2.475,-1.64529 5.4,-2.99567 6.5,-3.00084 1.1,-0.005 3.8,-1.11806 6,-2.47307 4.81219,-2.96391 5.5,-3.05753 5.5,-0.7486 0,3.18345 -2.9232,6.22251 -5.98528,6.22251 -1.57952,0 -3.6124,0.74053 -4.51749,1.64563 -2.33602,2.33602 -7.87978,5.01595 -11.95921,5.78126 -1.91601,0.35944 -3.83338,1.23447 -4.26083,1.94449 -1.05371,1.75028 -7.0909,4.62862 -9.70832,4.62862 -1.16812,0 -3.0534,0.65108 -4.18951,1.44684 C 312.84311,609.52287 296.73328,612 291.2716,612 c -0.28407,0 0.0457,-0.67744 0.7329,-1.50542 z M 180.69917,588.4101 c -0.44046,-0.46481 -8.76546,-1.1384 -18.5,-1.49687 -16.45517,-0.60596 -36.38308,-3.11904 -38.69917,-4.88029 -0.55,-0.41825 -4.15,-1.04654 -8,-1.39621 -9.83025,-0.89283 -22.667663,-4.14554 -24.101814,-6.10686 -1.448722,-1.98124 -2.849232,-14.53339 -1.940889,-17.39533 C 90.226982,554.70948 99.375832,551 104.58717,551 c 1.93168,0 4.75226,-0.64128 6.26794,-1.42508 1.51569,-0.78379 7.45584,-1.937 13.20034,-2.5627 5.7445,-0.62569 12.46955,-1.83047 14.94455,-2.67729 2.475,-0.84681 8.775,-2.86302 14,-4.48045 5.225,-1.61743 10.85,-3.41448 12.5,-3.99345 1.65,-0.57896 4.94172,-1.45141 7.31493,-1.93877 2.37321,-0.48736 6.36791,-1.79425 8.87712,-2.90419 2.5092,-1.10994 5.54397,-2.01807 6.74394,-2.01807 1.19996,0 3.05526,-0.66069 4.12288,-1.4682 1.06762,-0.8075 2.54812,-1.4825 3.29,-1.5 0.74188,-0.0175 2.76688,-0.67322 4.5,-1.45717 3.66106,-1.65604 11.22235,-3.40164 17.65113,-4.07494 8.02456,-0.84044 11.06737,-1.58167 10.46877,-2.55022 C 228.14603,517.42726 227.00852,517 225.94098,517 224.87344,517 224,516.55 224,516 c 0,-0.63959 8.87266,-1 24.61798,-1 l 24.61799,0 3.41681,-3 c 1.87925,-1.65 4.07615,-3 4.88202,-3 2.26444,0 1.73098,-2.79072 -0.7848,-4.10557 -1.2375,-0.64677 -6.075,-4.82876 -10.75,-9.29332 -7.1399,-6.8185 -9.46007,-8.41203 -14.5,-9.95884 -3.3,-1.01281 -7.35,-3.05963 -9,-4.54849 -1.65,-1.48886 -5.55914,-4.62689 -8.68699,-6.9734 -3.12784,-2.3465 -6.85745,-5.80093 -8.28801,-7.67649 -4.88866,-6.40936 -16.03708,-7.79084 -31.16438,-3.86179 -7.38281,1.91755 -20.1557,8.07703 -25.13576,12.12124 -2.35132,1.90947 -5.95132,3.92367 -8,4.47601 -2.04867,0.55235 -8.89986,3.50264 -15.22486,6.55621 l -11.5,5.55194 -20.5,0.94844 c -26.671736,1.23398 -24.928413,1.17709 -29.299904,0.95613 L 84.900192,493 85.200096,487.25 85.5,481.5 l 3.98732,-0.32451 c 2.193026,-0.17849 4.555526,-0.79609 5.25,-1.37245 2.275266,-1.8883 1.480822,-7.48008 -1.565401,-11.01824 -3.839145,-4.45915 -6.280641,-10.99119 -5.52339,-14.77744 0.763818,-3.81909 1.754497,-4.46148 3.770851,-2.44512 0.993006,0.993 1.58062,3.33017 1.58062,6.28673 0,4.47906 0.279139,4.95182 5.785763,9.79895 8.146897,7.1712 12.672957,9.18493 24.316657,10.81894 13.17154,1.84842 14.52736,1.34444 15.41108,-5.7286 2.76051,-22.09438 0.99983,-24.09422 -19.82159,-22.514 -11.99665,0.91047 -13.11708,0.83913 -17.68538,-1.1261 C 98.32402,447.94417 94.300159,447 92.064619,447 c -4.372953,0 -5.381995,-1.66179 -2.474319,-4.07494 1.447792,-1.20156 1.435095,-1.43332 -0.14169,-2.5863 -0.952595,-0.69655 -1.738798,-2.52023 -1.747118,-4.05261 -0.0294,-5.41451 1.556283,-17.86197 3.030115,-23.78615 0.820982,-3.3 1.816492,-8.925 2.212246,-12.5 0.612981,-5.53731 0.38848,-7.26372 -1.515821,-11.65661 C 89.352103,383.55458 88.522891,376 90.073188,376 90.445435,376 91.02,374.65 91.35,373 c 0.527271,-2.63636 1.017395,-3 4.043441,-3 2.877959,0 3.810583,0.59405 5.679119,3.61741 2.27733,3.6848 10.32538,8.35283 14.4354,8.37282 1.10437,0.005 4.12126,1.13477 6.70419,2.50977 2.58293,1.375 5.73739,2.5 7.00991,2.5 1.27252,0 3.96926,1.125 5.99275,2.5 2.0235,1.375 4.4003,2.5 5.2818,2.5 0.88149,0 2.91814,0.68024 4.52589,1.51163 4.33841,2.24349 18.4237,4.88133 45.16742,8.4588 3.67946,0.49219 7.58738,1.3752 8.68426,1.96223 1.09689,0.58704 4.38642,1.08709 7.31008,1.11123 2.92366,0.0241 7.11574,0.71186 9.31574,1.52827 2.2,0.8164 8.05,2.82432 13,4.46204 4.95,1.63772 9.88132,3.48741 10.95849,4.11041 5.82619,3.36973 16.32536,6.2053 22.3723,6.04223 3.48194,-0.0939 7.17591,0.28156 8.20882,0.83436 1.03291,0.5528 5.51038,1.69413 9.94993,2.5363 4.43955,0.84217 11.54558,2.84214 15.79118,4.44439 8.95533,3.37965 26.22748,7.45518 37.71928,8.90023 8.79759,1.10627 19.03214,4.15387 20.99875,6.25292 0.69306,0.73973 1.50467,4.83259 1.80358,9.09526 0.5163,7.36263 0.4348,7.77242 -1.62942,8.19271 -1.1951,0.24332 -4.56937,0.97122 -7.49837,1.61754 -4.48418,0.9895 -5.90595,0.92437 -9,-0.41226 -2.021,-0.87307 -6.59954,-2.30004 -10.17454,-3.17106 -3.575,-0.87101 -7.66275,-2.41792 -9.0839,-3.43758 -4.13796,-2.96894 -9.03237,-3.83894 -18.54547,-3.29653 -18.55583,1.05801 -32.70869,-2.69697 -42.96686,-11.39979 C 252.55082,437.22618 245.78283,434 241.9987,434 c -2.35779,0 -12.63332,4.59978 -13.53511,6.05892 -0.85107,1.37706 6.28935,8.03193 11.76175,10.96195 6.75359,3.616 28.9715,24.24462 30.28346,28.11724 0.77082,2.2753 20.72886,19.4063 24.9331,21.40135 1.89254,0.89806 4.13807,2.69674 4.99006,3.99705 0.852,1.30031 4.68099,4.19333 8.50887,6.42893 6.77948,3.95943 8.51244,5.48687 8.54386,7.5306 0.008,0.54783 2.0674,2.12283 4.57552,3.5 2.50811,1.37718 6.60432,4.65278 9.10268,7.27911 2.96586,3.11778 5.07821,4.56956 6.08603,4.18282 1.84063,-0.70631 4.85329,3.1121 4.06865,5.15683 -0.33839,0.88184 0.16143,1.3852 1.37544,1.3852 2.40063,0 4.30699,1.859 4.30699,4.2 0,3.35824 -3.31019,1.83169 -9.19817,-4.24189 -3.22149,-3.32304 -6.24352,-5.80317 -6.71562,-5.51139 -0.4721,0.29178 -2.80977,-1.25326 -5.19482,-3.43341 -5.32707,-4.86942 -10.66639,-6.16111 -25.37301,-6.13827 -8.37798,0.013 -11.41728,0.429 -15.12844,2.07062 -2.5543,1.12989 -5.20598,2.05434 -5.89263,2.05434 -0.68665,0 -3.79692,1.12706 -6.91173,2.50457 -5.35807,2.36959 -6.45609,2.486 -20.37443,2.16001 -8.46713,-0.19831 -19.80444,0.24039 -26.71115,1.0336 -6.6,0.75799 -16.95,1.77385 -23,2.25748 -16.73267,1.33757 -33.65387,2.99788 -37,3.63044 -1.65,0.31192 -8.175,2.51805 -14.5,4.90251 -14.5497,5.48509 -17.24247,6.28258 -24,7.10776 -7.18479,0.87737 -8.70117,1.75266 -10.50165,6.06182 -2.06573,4.94399 -1.89075,6.62454 0.96953,9.31163 2.69633,2.53307 6.8016,3.23491 29.53212,5.04883 6.875,0.54864 18.575,1.51197 26,2.14074 7.425,0.62877 32.70978,1.15297 56.1884,1.16488 l 42.68841,0.0217 1.50852,4.57703 c 0.82969,2.51737 1.15448,4.93245 0.72177,5.36686 -0.43272,0.4344 -6.54918,0.3219 -13.59215,-0.25 C 243.1342,584.6285 234.5266,584.74909 228,586.49537 c -6.25378,1.67329 -46.0048,3.28243 -47.30083,1.91476 z M 315.5,519 c 0.35428,-0.57323 -0.58077,-1.01695 -2.19098,-1.03971 -1.54496,-0.0218 -5.24774,-0.22629 -8.2284,-0.45433 -5.67393,-0.43411 -7.50214,0.003 -6.53791,1.56314 0.77622,1.25595 16.17715,1.19319 16.95729,-0.0691 z M 160.43731,467.75 c 2.65588,-1.7875 6.76094,-4.3848 9.12235,-5.77179 2.36141,-1.38698 5.30725,-3.81059 6.5463,-5.38579 1.23906,-1.5752 4.2602,-4.13704 6.71365,-5.69298 2.45346,-1.55593 4.96366,-3.83755 5.57823,-5.07026 0.61458,-1.23271 3.70954,-4.21151 6.8777,-6.61955 5.78486,-4.39692 9.29334,-9.28477 8.37758,-11.67121 -0.27038,-0.70458 -1.76544,-1.57076 -3.32236,-1.92484 -9.44676,-2.14839 -19.15801,-5.26942 -21.21562,-6.81833 C 177.77084,417.7833 175.02984,417 172.83302,417 c -2.14349,0 -5.51276,-0.675 -7.48726,-1.5 -1.97451,-0.825 -4.89333,-1.5 -6.48629,-1.5 -1.59295,0 -5.0255,-1.06873 -7.62788,-2.37496 -4.25056,-2.1335 -5.95156,-2.36225 -16.73159,-2.25 -11.91469,0.12407 -12.06465,0.15518 -21.09407,4.37603 -5.00174,2.33809 -11.27733,4.65895 -13.945757,5.15747 -4.817437,0.89999 -7.465292,3.04276 -7.454596,6.03259 0.01588,4.43978 2.327885,9.2112 5.712791,11.78982 3.164972,2.41107 4.420042,2.73942 9.708252,2.53984 7.08184,-0.26727 19.55258,-2.80477 24.57338,-5.0001 1.925,-0.8417 4.9799,-2.16025 6.78867,-2.9301 l 3.28867,-1.39974 1.58304,3.77957 c 2.05901,4.916 3.57924,15.63039 3.72409,26.247 0.10879,7.97341 0.26139,8.54139 2.61553,9.73526 3.71474,1.88387 5.13048,1.61901 10.43731,-1.95268 z M 104,404.5 c 0,-4.36036 0.0957,-4.5 3.08333,-4.5 3.5398,0 3.61189,-2.30108 0.0883,-2.81955 C 105.97725,397.0047 105,396.23303 105,395.46563 c 0,-1.71441 -3.67388,-3.80475 -5.473391,-3.11421 -0.936537,0.35938 -1.244025,2.33201 -1.064171,6.827 C 98.766299,406.77269 99.592801,409 102.10699,409 103.68389,409 104,408.24856 104,404.5 z m 1,-22 c 0,-0.825 -0.45,-1.5 -1,-1.5 -0.55,0 -1,0.675 -1,1.5 0,0.825 0.45,1.5 1,1.5 0.55,0 1,-0.675 1,-1.5 z m 172,203.55902 c 0,-0.51754 0.45,-1.2191 1,-1.55902 0.55,-0.33992 1,0.0835 1,0.94098 0,0.85746 -0.45,1.55902 -1,1.55902 -0.55,0 -1,-0.42344 -1,-0.94098 z m 75.34508,-36.60215 c -0.80982,-2.11034 0.54185,-3.2497 1.69398,-1.42791 1.22421,1.93575 1.19966,2.97104 -0.0704,2.97104 -0.56727,0 -1.29786,-0.69441 -1.62354,-1.54313 z m 526.3666,-27.07852 c -0.3032,-0.3032 -13.4427,-0.54095 -29.19889,-0.52832 l -28.64761,0.023 -3.68259,-3.32191 c -4.1809,-3.77141 -8.96688,-6.00094 -15.1096,-7.03875 -2.32282,-0.39244 -6.91194,-1.80601 -10.19805,-3.14128 -5.49879,-2.23436 -12.73028,-3.36311 -31.87494,-4.97532 -10.8883,-0.91693 -20.46054,-2.45627 -21.45441,-3.45014 -1.41241,-1.41241 -0.70049,-12.74536 1.0082,-16.04962 0.83652,-1.61765 2.56017,-2.98173 4.23156,-3.34883 4.34425,-0.95415 20.11873,1.97592 34.09155,6.33243 6.94271,2.16463 14.13498,4.24885 15.98283,4.63161 1.84785,0.38276 5.89785,1.8311 9,3.21853 12.67452,5.66865 51.8803,18.28072 71.14027,22.88504 8.71556,2.08356 9.94723,2.80794 7.23884,4.25743 -1.08673,0.5816 -2.22395,0.80938 -2.52716,0.50617 z M 536.46024,501.97186 c -1.67186,-0.50605 -4.82186,-2.4345 -7,-4.28545 C 527.28211,495.83545 523.25,493.19516 520.5,491.81908 510.38513,486.7577 493,472.0386 493,468.53625 c 0,-0.87946 -0.67011,-1.85617 -1.48914,-2.17046 -0.81903,-0.31429 -1.9447,-2.26322 -2.50148,-4.33096 -1.06991,-3.97334 -0.37483,-18.96638 0.9434,-20.34943 1.04231,-1.09356 10.77106,2.15256 11.40537,3.80555 0.27601,0.71925 2.22083,1.87197 4.32184,2.5616 2.10101,0.68962 4.37201,2.0335 5.04668,2.98639 1.98235,2.79985 5.63175,3.08279 12.29725,0.95342 7.04708,-2.25127 11.62174,-2.55539 12.20312,-0.81125 0.21653,0.6496 1.94153,1.69939 3.83333,2.33285 2.90314,0.9721 3.49137,1.68409 3.77133,4.56487 0.39784,4.09358 1.57542,5.696 4.49092,6.11114 3.62282,0.51584 2.45626,3.16288 -2.56052,5.81003 -5.63852,2.97522 -6.38241,4.41513 -4.07665,7.8909 0.95196,1.43501 1.61042,3.57997 1.46325,4.76659 -0.21291,1.71665 0.40863,2.30316 3.04186,2.87044 4.18461,0.90148 8.80944,3.23895 8.80944,4.45244 0,0.51095 -1.6875,1.20304 -3.75,1.53798 -8.58797,1.39463 -10.19797,3.62459 -5.79545,8.0271 1.35,1.35 2.08125,2.45455 1.625,2.45455 -0.45625,0 -2.1233,0.20069 -3.70455,0.44597 -1.58125,0.24528 -4.24289,0.0319 -5.91476,-0.47411 z M 996.5,471.49512 c -13.82854,-5.53363 -30.92177,-8.50502 -48.8847,-8.49786 -3.78659,0.002 -9.63659,-0.44822 -13,-0.99939 -3.36342,-0.55118 -12.54528,-1.8947 -20.40414,-2.98561 -7.85886,-1.0909 -15.19219,-2.46693 -16.2963,-3.05782 -1.1041,-0.5909 -4.34912,-1.48925 -7.21116,-1.99634 -4.92288,-0.87223 -14.58956,-3.50786 -21.2037,-5.78122 -1.65,-0.56712 -6.375,-1.81266 -10.5,-2.76787 -6.94504,-1.60823 -33.26445,-10.12359 -42.5,-13.75041 -2.2,-0.86395 -6.04235,-1.59057 -8.53856,-1.61471 C 805.46523,430.01975 801.65759,429.1 799.5,428 c -2.15759,-1.1 -5.34763,-2 -7.089,-2 -1.74136,0 -3.6747,-0.61282 -4.29632,-1.36182 -0.62161,-0.74899 -3.89308,-1.61234 -7.26993,-1.91854 -4.90587,-0.44485 -6.56225,-1.05583 -8.24224,-3.04028 -1.44261,-1.70405 -3.51489,-2.66555 -6.60251,-3.06344 -11.05918,-1.42513 -12.48006,-1.96692 -12.81735,-4.88734 -0.22898,-1.98264 0.51532,-3.5804 2.67308,-5.73816 3.41612,-3.41612 7.40485,-3.89706 11.06407,-1.33404 1.62127,1.13558 4.75682,1.715 9.97251,1.84282 4.18423,0.10254 9.18269,0.68913 11.10769,1.30353 1.925,0.6144 8.45,1.61336 14.5,2.21991 6.05,0.60656 13.025,1.7222 15.5,2.47922 2.475,0.75702 8.775,2.35291 14,3.54642 5.225,1.19351 11.075,2.95017 13,3.90368 1.925,0.95351 5.75,2.30925 8.5,3.01277 2.75,0.70351 9.5,2.9551 15,5.00354 15.76211,5.87049 16.73979,6.19103 21.5,7.04898 2.475,0.44607 5.625,1.23678 7,1.75712 1.375,0.52034 5.2,1.24585 8.5,1.61223 3.3,0.36638 7.8,1.30952 10,2.09588 2.2,0.78635 7.00821,1.44949 10.6849,1.47363 3.6767,0.0241 7.9517,0.55573 9.5,1.18132 1.54831,0.62559 7.0901,1.28802 12.3151,1.47207 11.79473,0.41546 31.06866,3.4111 41,6.37239 4.125,1.22998 10.58006,2.58979 14.3446,3.0218 3.7645,0.43202 7.3235,1.26443 7.9089,1.84982 1.0561,1.0561 1.1595,13.03391 0.1415,16.39649 -0.7684,2.53835 -7.5203,2.19616 -14.895,-0.75488 z m 6.0468,-82.40457 c -2.2981,-4.44401 -4.32835,-5.10483 -16.46742,-5.35987 -7.13299,-0.14986 -11.41507,-0.66593 -12.22195,-1.47299 -1.5995,-1.59983 -1.61603,-10.89909 -0.0222,-12.49291 1.82008,-1.82008 4.41554,0.2415 5.43565,4.31757 1.53914,6.15004 5.38149,7.53815 8.98574,3.24625 5.7585,-6.85716 6.88254,-7.18945 10.86122,-3.21077 0.97386,0.97384 3.32636,2.06248 5.22786,2.41919 3.0226,0.56705 3.5391,1.10832 4.109,4.30578 0.3586,2.01146 0.7404,5.2322 0.8486,7.1572 0.1751,3.11529 -0.099,3.53417 -2.4961,3.81091 -2.1417,0.24726 -3.0137,-0.30953 -4.2604,-2.72036 z m -481.93347,-4.90717 c -0.80935,-1.30956 -0.16369,-1.69899 5.2037,-3.13864 4.01792,-1.0777 4.27495,-1.34946 3.70982,-3.92251 -0.50527,-2.30046 -0.17129,-2.96321 1.98936,-3.94766 1.42811,-0.65069 2.31963,-1.63116 1.98116,-2.17882 -0.92995,-1.50469 -3.48435,-1.19325 -4.13574,0.50425 -0.91566,2.38617 -4.03669,1.75023 -7.36163,-1.5 -3.31197,-3.23755 -3.41096,-3.26818 -9.75,-3.01721 -2.3375,0.0925 -4.25,-0.0749 -4.25,-0.37208 0,-1.25079 4.56252,-2.82617 8.86892,-3.06232 2.54709,-0.13968 5.64358,-0.59769 6.88108,-1.01781 1.67025,-0.56703 2.25,-0.37884 2.25,0.73034 0,4.50407 10.48997,4.47703 12.48713,-0.0322 1.2428,-2.80601 2.93153,-2.80704 8.22186,-0.005 3.43995,1.82198 4.49055,3.09014 5.75,6.94067 1.69457,5.18086 1.9321,8.6715 0.71995,10.58029 -0.48685,0.76664 -5.18591,1.62858 -12.23469,2.24418 -6.29434,0.54971 -13.29841,1.27851 -15.5646,1.61957 -2.46428,0.37086 -4.37999,0.20001 -4.76632,-0.42508 z M 962.25,381.26276 c -3.2776,-0.2293 -5.25,-0.8277 -5.25,-1.5928 0,-0.85987 -2.26783,-1.22552 -7.60092,-1.22552 -6.23786,0 -7.8432,-0.33133 -8.95196,-1.84764 -0.83663,-1.14416 -1.98598,-1.604 -3.01866,-1.20772 C 934.97255,376.3315 924,373.83606 924,372.33511 c 0,-0.69561 -0.86491,-1.72763 -1.92202,-2.29338 -1.05712,-0.56575 -2.71536,-1.81908 -3.68498,-2.78518 -1.68292,-1.67681 -1.60702,-1.78189 1.67202,-2.31469 4.45985,-0.72467 6.93498,0.53375 6.93498,3.52594 0,1.43158 0.72615,2.6279 1.80246,2.9695 2.16439,0.68696 10.06905,-2.93888 10.85132,-4.97745 0.57226,-1.49129 2.3357,-1.34967 9.18828,0.7379 2.41588,0.73597 3.03942,1.32077 2.25,2.11019 -0.60063,0.60063 -1.09206,1.46756 -1.09206,1.9265 0,1.07912 10.11448,-0.19557 11.73701,-1.47917 1.66913,-1.32045 6.26299,-0.07 6.26299,1.70477 0,0.78206 -0.45,1.70004 -1,2.03996 -1.72029,1.0632 -1.09951,2.51167 1.5,3.5 2.9385,1.11722 3.56076,5.11213 0.75,4.81502 -0.9625,-0.10174 -4.1125,-0.35026 -7,-0.55226 z m 1.69212,-3.69302 c 0.94697,-1.14103 0.79074,-1.64234 -0.77255,-2.47899 -1.47503,-0.78941 -2.25408,-0.69385 -3.15065,0.38646 -1.34174,1.61669 -0.57468,3.52279 1.41765,3.52279 0.7252,0 1.8527,-0.64362 2.50555,-1.43026 z m -16,-4 c 0.94775,-1.14196 0.78546,-1.64517 -0.80511,-2.49642 -2.27319,-1.21657 -5.13701,-0.45448 -5.13701,1.367 0,2.80948 3.92815,3.5561 5.94212,1.12942 z M 346.5,372.08978 c -5.05383,-0.83374 -6.56109,-1.76701 -5.84934,-3.62181 0.36877,-0.96098 -0.078,-1.47895 -1.29367,-1.49977 -2.53458,-0.0434 -5.70973,-2.58844 -4.88803,-3.91798 0.36808,-0.59556 1.12145,-0.80336 1.67417,-0.46176 0.55271,0.34159 1.98411,-0.28122 3.1809,-1.38402 1.26727,-1.16776 4.0552,-2.1845 6.67597,-2.43468 2.475,-0.23626 5.22943,-0.75697 6.12096,-1.15713 2.05376,-0.92184 2.63654,0.56407 3.49057,8.89994 l 0.66466,6.48743 -2.8881,-0.12517 C 351.79964,372.80599 348.7,372.45272 346.5,372.08978 z m 0.95729,-5.02068 c 0.73955,-1.1966 -1.14162,-2.38223 -2.4736,-1.55902 C 343.86533,366.20126 344.59952,368 346,368 c 0.48508,0 1.14086,-0.41891 1.45729,-0.9309 z m -26.45076,-3.02929 c -2.62659,-2.01799 -2.46985,-2.20265 2.88006,-3.393 1.67459,-0.37259 2.93259,0.12297 4.21673,1.66109 1.00658,1.20566 1.84511,2.5296 1.86341,2.9421 0.068,1.53279 -6.55411,0.63839 -8.9602,-1.21019 z M 301,360.48919 l -4.5,-1.2496 2.93446,-1.16517 c 4.16728,-1.65469 7.00351,-1.01119 7.38509,1.67558 0.35488,2.49874 0.46604,2.48462 -5.81955,0.73919 z m 593,-50.11468 c -1.925,-0.20534 -5.89848,-0.63549 -8.82995,-0.95588 -3.5728,-0.39048 -5.88053,-1.23793 -7,-2.57057 -0.91853,-1.09343 -4.57037,-3.6194 -8.11521,-5.61327 -6.05509,-3.4058 -7.29579,-3.70044 -20.5,-4.86825 -20.18907,-1.78557 -43.40969,-1.70453 -52.55484,0.18342 -11.9015,2.45698 -21.25331,5.46373 -24.5,7.87713 -2.54527,1.892 -4.36777,2.24826 -12.02363,2.35038 -10.12626,0.13508 -13.20667,-0.87681 -10.03524,-3.29647 1.06762,-0.81455 2.55247,-1.481 3.29966,-1.481 2.45069,0 7.24934,-3.01023 12.77348,-8.01293 2.98729,-2.70529 7.16184,-5.80151 9.27679,-6.88048 3.63881,-1.85638 8.51024,-6.72865 12.50562,-12.50777 L 790.09337,272 l 55.72222,0 55.72223,0 13.98109,6.56681 c 12.89637,6.05732 20.31588,9.05357 40.48109,16.34761 4.125,1.49207 8.48292,3.24672 9.68426,3.89922 1.20134,0.6525 3.67634,1.19465 5.5,1.20479 3.27956,0.0182 17.91749,2.37907 20.81574,3.35722 0.825,0.27843 4.0875,1.01472 7.25,1.63619 3.7905,0.7449 5.75,1.61696 5.75,2.55906 0,1.7201 -0.2215,1.74092 -3.3511,0.31501 -1.80091,-0.82057 -6.41806,-0.8102 -17.52475,0.0393 -11.49056,0.87892 -18.15517,0.8725 -28.0017,-0.027 -11.21061,-1.02408 -14.35914,-0.95534 -23.77226,0.51901 -10.55317,1.65292 -31.28432,2.71093 -38.35019,1.95721 z m -634,-5.91615 c -3.025,-0.69603 -7.4125,-1.3089 -9.75,-1.36193 -3.78913,-0.086 -4.25,-0.35593 -4.25,-2.48944 0,-2.35967 1.64363,-3.60699 4.75305,-3.60699 0.87421,0 2.409,-0.74167 3.41065,-1.64815 1.00166,-0.90648 4.05753,-2.00167 6.79083,-2.43374 2.81208,-0.44453 7.91659,-2.50357 11.75755,-4.7427 3.73336,-2.17641 8.81292,-4.53501 11.28792,-5.24134 2.475,-0.70633 4.95,-1.61145 5.5,-2.01138 0.55,-0.39993 2.80235,-1.20883 5.00523,-1.79755 2.20287,-0.58872 7.15287,-3.15971 11,-5.71329 10.93718,-7.25972 11.86257,-7.50335 29.86704,-7.86326 8.87025,-0.17732 18.71523,-0.10664 21.87773,0.15706 5.44215,0.45378 5.74918,0.62173 5.73469,3.1369 -0.008,1.4616 -0.34592,3.15258 -0.75,3.75775 -1.12625,1.68671 -4.8415,3.39777 -7.41895,3.4168 -3.28455,0.0242 -14.63202,3.21184 -26.31574,7.39229 -5.5,1.96791 -14.95,5.20305 -21,7.1892 -6.05,1.98616 -11.9,4.38985 -13,5.34154 -3.15619,2.73067 -8.4614,4.80173 -15.5,6.05092 -3.575,0.63449 -7.49667,1.79606 -8.71482,2.58128 -2.51286,1.61979 -2.76214,1.61703 -10.28518,-0.11397 z M 153.84888,299.8126 C 148.26134,299.10426 137.5335,296.24799 130.5,293.596 128.3,292.76648 125.375,292.07711 124,292.06406 120.62149,292.032 100.68649,285.8422 99.765313,284.5392 98.767119,283.12727 98.797901,272 99.8,272 c 0.44,0 1.2275,0.39885 1.75,0.88633 2.04362,1.90666 18.00632,8.12654 23.33646,9.09308 7.34836,1.33251 21.44637,6.15342 28.78976,9.84485 3.20308,1.61015 7.23962,3.2339 8.97009,3.60832 1.73047,0.37443 3.89666,1.50991 4.81375,2.52329 1.59597,1.76352 1.45619,1.85754 -3.26066,2.19332 -2.71045,0.19294 -7.36819,0.0415 -10.35052,-0.33659 z m 380.78021,-1.44521 c -2.7305,-1.48177 -6.42876,-1.45644 -11.12909,0.0762 -1.14395,0.37301 -2.83989,0.0359 -3.96225,-0.78752 -1.7459,-1.28094 -1.80103,-1.63408 -0.5,-3.20279 1.91728,-2.31178 7.14297,-4.45331 10.86678,-4.45331 4.0195,0 19.17284,3.67737 20.46085,4.96538 1.60463,1.60463 -0.3438,2.79124 -5.36538,3.26757 -2.475,0.23477 -5.175,0.71161 -6,1.05963 -0.825,0.34803 -2.79191,-0.0683 -4.37091,-0.92519 z M 704.16667,125 c 0.18333,-0.55 0.67083,-1 1.08333,-1 0.4125,0 1.65,0 2.75,0 1.1,0 2,0.45 2,1 0,0.55 -1.3875,1 -3.08333,1 -1.69584,0 -2.93334,-0.45 -2.75,-1 z m -173.92375,-1.66464 c -0.92716,-0.37375 -0.73033,-1.24648 0.75,-3.32542 2.40148,-3.37256 2.48547,-4.36802 0.50708,-6.00994 -2.13524,-1.77209 -1.8657,-2.6914 1,-3.41064 1.375,-0.34511 2.5,-1.20862 2.5,-1.91893 0,-2.44409 9.82513,-10.398044 14.57751,-11.801256 2.53905,-0.749691 5.03864,-2.151946 5.55465,-3.116124 C 555.64818,92.788873 556.98486,92 558.10257,92 c 1.56269,0 1.88861,-0.452432 1.41068,-1.958241 -0.51062,-1.608837 0.87988,-2.947048 7.79308,-7.5 4.62803,-3.047968 8.81489,-5.544604 9.30414,-5.548082 0.48924,-0.0035 1.6561,-1.353477 2.59302,-3 C 580.14041,72.347155 581.5487,71 582.33303,71 c 0.78432,0 3.16379,-2.1375 5.28769,-4.75 6.50745,-8.004456 8.05915,-9.25 11.52363,-9.25 1.77939,0 5.75969,-0.521412 8.8451,-1.158694 C 613.54171,54.694506 619,55.224611 619,56.910644 c 0,0.479897 -1.2375,1.179682 -2.75,1.555078 -1.5125,0.375395 -3.71727,1.585128 -4.89949,2.688294 -1.18221,1.103166 -2.98221,1.917989 -4,1.810716 -3.54905,-0.374064 -4.07678,0.01637 -3.57439,2.644466 0.43865,2.294654 -1.50963,4.585136 -16.16139,19 -9.1631,9.014941 -16.98745,16.398682 -17.38745,16.408312 -0.40001,0.01 -3.0667,2.1943 -5.926,4.85483 -5.12324,4.76708 -13.41362,9.51126 -18.30128,10.47293 -5.48996,1.08017 -10.40687,3.5223 -11.15308,5.53952 -0.7641,2.06555 -2.06312,2.47483 -4.604,1.45057 z M 573.81955,85.75 C 573.6438,84.5125 573.05,83.5 572.5,83.5 c -0.55,0 -1.1438,1.0125 -1.31955,2.25 -0.21988,1.548168 0.19173,2.25 1.31955,2.25 1.12782,0 1.53943,-0.701832 1.31955,-2.25 z M 521.38,120.54789 C 520.67282,118.70501 521.70308,117 523.52383,117 c 1.58594,0 3.74427,3.39857 2.77432,4.36852 -1.17301,1.17301 -4.35698,0.64174 -4.91815,-0.82063 z m 190.6521,-5.00922 c -0.61278,-0.73834 -2.22068,-1.62017 -3.57312,-1.95961 -1.35244,-0.33944 -2.45551,-0.94609 -2.45128,-1.34811 0.0101,-0.95998 7.51387,-5.23094 9.19042,-5.23098 0.71603,-2e-5 2.52247,-1.52978 4.0143,-3.39947 1.84703,-2.31487 4.55892,-4.041452 8.5,-5.411722 C 730.89559,97.082024 738.225,94.563767 744,92.59265 768.99267,84.06218 797.49274,71.1736 798.51996,67.937101 798.85811,66.871696 799.97413,66 801,66 c 1.02587,0 2.15102,-0.900446 2.50031,-2.000992 0.54263,-1.709652 1.20763,-1.90944 4.56739,-1.372191 2.81489,0.450118 3.9323,0.273525 3.9323,-0.621453 0,-0.987453 0.32421,-0.981187 1.54238,0.02981 1.09596,0.909565 1.85222,0.970225 2.61287,0.209577 1.71498,-1.714979 -0.0969,-3.476205 -2.86222,-2.782162 -1.68959,0.424062 -2.36185,0.243879 -2.09352,-0.561122 0.44965,-1.348935 12.62888,-1.988155 13.42225,-0.704458 C 824.89471,58.638654 826.40467,59 827.97723,59 c 5.61074,0 7.87935,2.743422 4.80821,5.814565 -1.13128,1.131273 -2.75729,10.119294 -2.97574,16.448858 -0.0525,1.519882 0.7564,3.710915 1.79746,4.868962 1.8638,2.073235 1.85832,2.128599 -0.35716,3.608549 -1.2375,0.826656 -2.25,2.348123 -2.25,3.381038 0,2.460041 -1.24039,2.377654 -3.59501,-0.238781 -1.04775,-1.164244 -4.26357,-3.162746 -7.14627,-4.441116 -4.4864,-1.989545 -5.99868,-2.200908 -10.5,-1.467529 -4.02388,0.655592 -5.78706,0.518943 -7.50872,-0.581937 -1.73506,-1.10945 -2.25018,-1.147364 -2.25078,-0.165662 -4.4e-4,0.700179 -1.91294,2.21273 -4.25,3.361223 -2.33707,1.148494 -9.61556,4.860994 -16.17441,8.25 C 771.01596,101.22718 764.63798,104 763.40154,104 c -1.23645,0 -3.58508,1.125 -5.21917,2.5 -1.6341,1.375 -4.15808,2.5 -5.60884,2.5 -1.45077,0 -4.31081,0.73345 -6.35565,1.62989 -4.5507,1.99498 -9.9737,3.0964 -21.71788,4.41093 -4.95,0.55405 -9.5296,1.19478 -10.17689,1.42383 -0.64728,0.22906 -1.67824,-0.18763 -2.29101,-0.92598 z m 18.73873,-5.72617 C 730.15276,107.95828 728,107.65074 728,109.41667 728,110.2875 728.7125,111 729.58333,111 c 0.87084,0 1.40521,-0.53437 1.1875,-1.1875 z m 14,-4.625 c 0.22111,-0.66333 -0.52375,-1.1875 -1.6875,-1.1875 -2.07732,0 -2.69993,1.05007 -1.39583,2.35417 0.92647,0.92647 2.59622,0.29467 3.08333,-1.16667 z m 61.1799,-30.628139 c 0.6576,-0.792352 2.4002,-1.579852 3.87245,-1.75 1.84966,-0.213766 2.67682,-0.893697 2.67682,-2.200375 0,-2.804905 -2.8561,-4.263621 -5.6849,-2.903484 -1.2733,0.612229 -3.1026,1.364825 -4.0651,1.672436 -1.71496,0.548092 -2.44998,4.588746 -1.08333,5.955395 1.10177,1.101771 3.01406,0.75629 4.28406,-0.773972 z M 314.6154,113.47254 C 313.72693,112.58407 313,111.49388 313,111.04989 c 0,-1.86257 -6.27616,-3.16382 -14.60573,-3.02823 -13.88932,0.22609 -19.11809,-0.44135 -22.3862,-2.85757 C 274.39817,103.97384 272.61276,103 272.04049,103 271.46822,103 271,102.325 271,101.5 c 0,-0.93333 -0.94444,-1.5 -2.5,-1.5 -1.375,0 -2.5,-0.45 -2.5,-1 0,-0.55 -0.43002,-1 -0.95559,-1 -0.52558,0 -2.66308,-1.167642 -4.75,-2.59476 -3.64614,-2.493366 -4.16563,-2.568214 -13.29441,-1.915442 -5.225,0.373625 -11.95452,0.753766 -14.9545,0.84476 -4.92991,0.149531 -5.51118,0.405373 -6.04384,2.660191 -0.66481,2.814187 -3.37183,3.772851 -5.5497,1.965382 C 218.41221,97.267288 218.64684,96 221,96 c 2.73658,0 2.65195,-3.658304 -0.10487,-4.533283 -1.71091,-0.543023 -1.99533,-1.2157 -1.51966,-3.594082 0.32187,-1.609313 -0.0715,-5.447273 -0.87413,-8.528801 -0.80264,-3.081527 -1.13306,-6.107015 -0.73427,-6.723305 0.39878,-0.616291 0.95183,-3.820529 1.229,-7.120529 0.50409,-6.001892 2.02639,-7.656223 3.04492,-3.309017 0.33436,1.427082 1.41223,2.434673 2.82198,2.638 1.25455,0.180941 3.86886,1.406541 5.80959,2.723556 1.94073,1.317015 5.17084,2.68847 7.17802,3.047678 2.00718,0.359209 4.32442,1.207387 5.14942,1.884841 0.825,0.677454 2.9824,1.728985 4.79423,2.336736 1.81182,0.607751 4.51182,1.962435 6,3.010408 1.48817,1.047974 3.68116,2.207991 4.87331,2.577817 1.19214,0.369827 3.37413,1.62152 4.84886,2.78154 2.01018,1.581211 4.45223,2.198726 9.75642,2.467084 3.89131,0.196876 8.83448,0.831705 10.98482,1.410733 2.15034,0.579027 5.13544,0.783563 6.63355,0.454523 2.12485,-0.466695 3.74253,0.179586 7.35633,2.938924 C 301.27591,92.775177 303.96563,94 306.01518,94 c 3.07704,0 15.61459,6.64405 18.03034,9.55485 0.6355,0.76573 2.57273,1.66226 4.30496,1.9923 5.23911,0.99819 8.38696,4.5368 7.76467,8.72853 -0.0633,0.42662 -1.43986,0.0907 -3.05895,-0.74662 -2.00519,-1.03692 -3.67911,-1.24799 -5.25,-0.66197 -1.26841,0.47317 -4.39177,1.16644 -6.9408,1.54058 -3.59374,0.52749 -4.9974,0.31747 -6.25,-0.93513 z m 3.92504,-4.01782 c -2.14134,-1.61912 -3.69529,-1.49016 -4.31127,0.35778 -0.25403,0.76208 0.79832,1.17611 2.9375,1.1557 3.16154,-0.0302 3.23234,-0.10817 1.37377,-1.51348 z M 269.1038,91.703799 c -1.28349,-1.283486 -2.58505,-0.291503 -1.63484,1.245982 0.36808,0.595563 1.12735,0.799712 1.68727,0.453663 0.683,-0.422119 0.66575,-0.981465 -0.0524,-1.699645 z M 227.77083,86.1875 C 227.98854,85.534375 227.45417,85 226.58333,85 225.7125,85 225,85.7125 225,86.583333 c 0,1.765927 2.15276,1.45839 2.77083,-0.395833 z M 344.25,114.35851 c -3.83398,-1.61082 1.18082,-6.0176 9.25,-8.12848 2.75,-0.71939 6.03071,-2.41545 7.29047,-3.76901 1.25976,-1.35356 2.97761,-2.46102 3.81745,-2.46102 0.83983,0 3.96327,-1.98459 6.94096,-4.4102 2.97769,-2.42561 7.44734,-5.186746 9.93255,-6.135858 C 383.96664,88.50483 386,87.394014 386,86.985462 c 0,-0.408552 1.33504,-1.295811 2.96675,-1.971688 1.63171,-0.675876 3.22509,-2.042859 3.54086,-3.037739 0.31576,-0.99488 1.90572,-2.273075 3.53325,-2.840434 1.62753,-0.567359 2.95508,-1.617471 2.95013,-2.333581 -0.005,-0.716111 1.45754,-2.516454 3.25,-4.000762 2.72319,-2.25504 3.0749,-2.994889 2.1392,-4.5 -0.91259,-1.467953 -2.16683,-1.736529 -6.77819,-1.45145 -3.83685,0.237199 -7.66131,-0.312956 -11.8802,-1.708987 C 382.29981,64.008484 378.15,62.75115 376.5,62.346745 l -3,-0.735282 2.80906,-0.377853 c 3.38779,-0.455699 4.53902,-2.814106 2.41196,-4.941157 -1.40328,-1.403286 -1.97526,-1.347789 -5.95246,0.577541 -6.09018,2.948202 -15.01512,2.911653 -19.76856,-0.08095 -2.14517,-1.350527 -6.01612,-2.468513 -10,-2.888141 -3.575,-0.37656 -9.65,-1.155561 -13.5,-1.731112 -14.08252,-2.10525 -32.42298,-3.524731 -50,-3.869808 -25.98658,-0.510176 -31.45607,-0.393856 -33.52418,0.712961 -3.01253,1.61226 -6.40533,1.130213 -7.80357,-1.108731 -1.11613,-1.7872 -1.0504,-2.381367 0.44636,-4.035267 0.96536,-1.066711 2.40313,-1.690841 3.19504,-1.386955 0.79192,0.303886 2.05208,0.04441 2.80036,-0.576609 0.80553,-0.66853 2.07958,-0.798058 3.12326,-0.317531 0.9695,0.446379 6.71273,1.180679 12.76273,1.631779 6.05,0.451099 13.475,1.048314 16.5,1.327145 3.025,0.27883 9.55,0.883166 14.5,1.342969 4.95,0.459802 9.9,1.138635 11,1.508516 1.1,0.369881 4.925,0.152031 8.5,-0.484112 10.95455,-1.949273 21.97787,-1.768484 25.80407,0.423201 3.55115,2.034136 19.36514,4.15137 38.19593,5.113808 5.775,0.295159 14.55,0.981402 19.5,1.524984 4.95,0.543582 12.375,0.982106 16.5,0.974497 6.499,-0.01199 7.86703,-0.336883 10.25,-2.434268 C 424.64029,49.532378 424.67814,49 421.5,49 c -2.53335,0 -3.34058,-1.36246 -1.48624,-2.508506 0.55757,-0.344597 4.64042,-0.310183 9.07299,0.07647 7.96187,0.694523 8.0881,0.748749 10.44917,4.48893 2.08408,3.301399 3.13056,3.940121 8.17701,4.990858 8.59874,1.79037 25.34242,0.712923 32.55724,-2.095041 3.17359,-1.235144 6.02891,-1.986971 6.34515,-1.670728 0.62611,0.62611 -17.05602,18.31067 -19.79958,19.802305 C 465.8894,72.587932 464.22762,73 463.1229,73 c -1.10472,0 -3.4968,0.837848 -5.31574,1.861884 -1.92938,1.086212 -7.47322,2.371619 -13.30716,3.085429 -10.41705,1.274573 -23.67382,6.009353 -27.94366,9.98034 -1.13099,1.051827 -4.0614,2.709292 -6.51202,3.683256 -2.45062,0.973963 -8.50788,4.843119 -13.46057,8.598121 -9.27791,7.03428 -14.83802,9.39012 -19.81346,8.39503 -2.0963,-0.41926 -3.95421,0.15104 -6.94947,2.13321 -3.49337,2.3118 -5.19645,2.71989 -11.70453,2.80459 -4.18896,0.0545 -8.74129,0.37873 -10.11629,0.72048 -1.375,0.34174 -3.0625,0.38502 -3.75,0.0962 z M 391,92 c 0,-0.55 -0.45,-1 -1,-1 -0.55,0 -1,0.45 -1,1 0,0.55 0.45,1 1,1 0.55,0 1,-0.45 1,-1 z m 7.77083,-2.8125 C 398.98854,88.534375 398.45417,88 397.58333,88 396.7125,88 396,88.7125 396,89.583333 c 0,1.765927 2.15276,1.45839 2.77083,-0.395833 z M 404,87 c 0,-0.55 -0.45,-1 -1,-1 -0.55,0 -1,0.45 -1,1 0,0.55 0.45,1 1,1 0.55,0 1,-0.45 1,-1 z M 423.82332,63.667134 C 424.0147,62.68037 423.50456,62 422.57332,62 421.64569,62 421,62.854996 421,64.083333 c 0,2.437045 2.33677,2.09257 2.82332,-0.416199 z m 5.92654,-2.250603 c -0.95295,-0.952958 -2.86349,0.590599 -2.1533,1.7397 0.42212,0.683003 0.98146,0.665748 1.69964,-0.05243 0.58876,-0.588756 0.79291,-1.348027 0.45366,-1.687268 z M 446,63 c 0,-0.55 -0.42344,-1 -0.94098,-1 -0.51754,0 -1.2191,0.45 -1.55902,1 -0.33992,0.55 0.0835,1 0.94098,1 C 445.29844,64 446,63.55 446,63 z m -52,-1 c 0,-0.55 -0.45,-1 -1,-1 -0.55,0 -1,0.45 -1,1 0,0.55 0.45,1 1,1 0.55,0 1,-0.45 1,-1 z m 65,0 c 0,-0.55 -0.675,-1 -1.5,-1 -0.825,0 -1.5,0.45 -1.5,1 0,0.55 0.675,1 1.5,1 0.825,0 1.5,-0.45 1.5,-1 z m -59,-1 c 0,-0.55 -0.45,-1 -1,-1 -0.55,0 -1,0.45 -1,1 0,0.55 0.45,1 1,1 0.55,0 1,-0.45 1,-1 z m -13,-2.569551 c 0,-1.042339 -0.72946,-1.462214 -2.17167,-1.25 C 381.62683,57.651534 381.28395,60 384.41667,60 386.09717,60 387,59.451472 387,58.430449 z M 223.55,58.126343 c 1.26189,-1.160479 9.45,-2.155025 9.45,-1.147818 0,1.006599 -3.64976,1.99023 -7.45,2.00782 -1.73989,0.0081 -2.5603,-0.344724 -2,-0.860002 z m 433.20454,-6.080839 c -6.16387,-0.826661 -8.62078,-2.967777 -3.70454,-3.228392 1.8975,-0.100589 4.73393,-0.09258 6.30317,0.0178 1.56924,0.110377 4.27657,-0.679028 6.01629,-1.754233 4.39805,-2.718139 17.67428,-3.937822 19.45875,-1.787668 1.64571,1.982962 0.95414,2.304638 -6.76469,3.1465 -3.54007,0.386101 -7.59007,1.282009 -9,1.990907 -3.78759,1.904353 -7.00466,2.326472 -12.30898,1.615089 z M 504.92193,51.588597 c -0.30039,-0.300393 -3.78071,-0.612656 -7.73405,-0.693918 C 491.10313,50.769605 490,50.481949 490,49.020343 c 0,-1.530928 1.63938,-1.787952 14.46662,-2.268102 12.1599,-0.45517 15.19352,-0.893395 19.0253,-2.74833 3.76385,-1.822046 4.82727,-1.983896 6.09921,-0.92828 1.24073,1.029713 2.2135,1.03519 4.99844,0.02814 2.79986,-1.012442 4.02429,-0.999687 6.43417,0.06703 4.20101,1.85955 3.95434,4.103315 -0.36208,3.293549 -2.10867,-0.395588 -4.74645,-0.03794 -7.16107,0.970956 -2.10249,0.878478 -4.63324,1.339982 -5.62388,1.025565 -0.99064,-0.314418 -2.83066,-0.01832 -4.08894,0.657993 -1.25827,0.676313 -4.31277,1.318487 -6.78777,1.427053 -2.475,0.108566 -6.08218,0.51047 -8.01595,0.893121 -1.93377,0.382651 -3.76173,0.449953 -4.06212,0.14956 z"
       id="path3194"
       inkscape:connector-curvature="0" />
  </g>
</svg>
