<?xml version="1.0" encoding="UTF-8" standalone="no"?>
<!-- Created with Inkscape (http://www.inkscape.org/) -->

<svg
   xmlns:dc="http://purl.org/dc/elements/1.1/"
   xmlns:cc="http://creativecommons.org/ns#"
   xmlns:rdf="http://www.w3.org/1999/02/22-rdf-syntax-ns#"
   xmlns:svg="http://www.w3.org/2000/svg"
   xmlns="http://www.w3.org/2000/svg"
   xmlns:sodipodi="http://sodipodi.sourceforge.net/DTD/sodipodi-0.dtd"
   xmlns:inkscape="http://www.inkscape.org/namespaces/inkscape"
   id="svg2985"
   version="1.1"
   inkscape:version="0.48.3.1 r9886"
   width="1920"
   height="1920"
   sodipodi:docname="Mummy Torso Front.png">
  <metadata
     id="metadata2991">
    <rdf:RDF>
      <cc:Work
         rdf:about="">
        <dc:format>image/svg+xml</dc:format>
        <dc:type
           rdf:resource="http://purl.org/dc/dcmitype/StillImage" />
        <dc:title></dc:title>
      </cc:Work>
    </rdf:RDF>
  </metadata>
  <defs
     id="defs2989" />
  <sodipodi:namedview
     pagecolor="#ffffff"
     bordercolor="#666666"
     borderopacity="1"
     objecttolerance="10"
     gridtolerance="10"
     guidetolerance="10"
     inkscape:pageopacity="0"
     inkscape:pageshadow="2"
     inkscape:window-width="1920"
     inkscape:window-height="1005"
     id="namedview2987"
     showgrid="false"
     inkscape:zoom="0.27863046"
     inkscape:cx="233.50142"
     inkscape:cy="718.1555"
     inkscape:window-x="-9"
     inkscape:window-y="-9"
     inkscape:window-maximized="1"
     inkscape:current-layer="svg2985" />
  <g
     id="g2995"
     transform="matrix(2.7609363,0,0,2.7609363,-172.71273,-231.87194)">
    <path
       style="fill:#9f9da1"
       d="m 289.69882,767.65752 c -0.28334,-0.73837 -2.01898,-2.06261 -3.85699,-2.94276 -1.83801,-0.88015 -3.90814,-2.52604 -4.6003,-3.65752 C 280.54937,759.92576 279.14197,759 278.11397,759 277.08598,759 275.68469,758.325 275,757.5 274.31531,756.675 272.68521,756 271.37756,756 270.0699,756 269,755.55 269,755 c 0,-0.55 -1.10383,-1 -2.45295,-1 C 263.77011,754 259,752.06122 259,750.93256 c 0,-0.41053 -2.5875,-1.5477 -5.75,-2.52705 -3.1625,-0.97935 -5.975,-2.08268 -6.25,-2.45185 -0.59987,-0.80529 -12.48803,-6.34024 -16.00875,-7.45344 -1.37019,-0.43323 -5.37602,-2.31653 -8.90186,-4.1851 -3.52583,-1.86858 -8.34082,-3.66197 -10.69998,-3.98533 -2.35915,-0.32336 -5.20691,-1.44275 -6.32835,-2.48753 -1.94285,-1.81004 -15.06919,-6.82058 -17.90669,-6.83529 -0.7401,-0.004 -2.55529,-0.86832 -4.03376,-1.92109 -1.47848,-1.05277 -4.42075,-2.23916 -6.53838,-2.63643 l -3.85024,-0.72231 0.71932,4.88643 c 0.39562,2.68754 1.58092,5.81543 2.634,6.95088 1.05308,1.13545 1.91469,2.75992 1.91469,3.60993 0,0.85001 1.14971,2.39601 2.5549,3.43555 1.4052,1.03954 3.25647,3.35257 4.11394,5.14007 0.85748,1.7875 2.18277,3.25 2.9451,3.25 0.76233,0 1.38606,0.38752 1.38606,0.86116 0,0.47364 2.01991,3.03021 4.48869,5.68127 5.68112,6.10057 6.66367,10.24979 3.36921,14.22779 l -2.35166,2.83958 -11.50312,-0.40462 c -7.07804,-0.24897 -12.27249,-0.90382 -13.50312,-1.70229 -1.80387,-1.17041 -6.24902,-9.18596 -11.09292,-20.00289 -0.98518,-2.2 -2.77552,-5.35 -3.97853,-7 C 152.06521,734.25855 148,725.46555 148,723.59512 c 0,-1.77713 -4.01977,-4.80151 -5.58398,-4.20127 -0.88991,0.34149 -1.62191,-0.36601 -2.02009,-1.95248 -0.34345,-1.36841 -1.37984,-3.04003 -2.30308,-3.7147 C 137.16961,713.052 135.87872,710.7 135.2242,708.5 c -1.82459,-6.13292 -6.10098,-9.96118 -13.84117,-12.39073 -3.69592,-1.1601 -7.5217,-2.10927 -8.50175,-2.10927 -0.98004,0 -2.14176,-0.60214 -2.58159,-1.33809 -0.43983,-0.73594 -4.28719,-1.9246 -8.54969,-2.64145 -4.2625,-0.71686 -7.75,-1.80231 -7.75,-2.41212 0,-0.6098 -2.8125,-1.99854 -6.25,-3.08608 -6.554403,-2.07364 -7.390382,-2.55136 -11.185721,-6.39209 -1.910919,-1.93377 -2.255219,-3.12979 -1.871161,-6.5 0.596145,-5.23132 3.395603,-13.70125 5.132683,-15.52925 0.731221,-0.76949 1.111681,-2.23199 0.845466,-3.25 -0.635461,-2.43 0.234603,-2.48661 23.328733,-1.51774 8.525,0.35765 28.1,0.90189 43.5,1.20943 15.4,0.30754 33.175,1.21433 39.5,2.01508 13.06503,1.65405 28.05972,4.90082 32.5,7.03717 5.01037,2.41063 15.78768,5.38983 19.5,5.39043 1.925,3.1e-4 7.775,-0.69489 13,-1.5449 5.225,-0.85 12.425,-1.95598 16,-2.45773 3.575,-0.50175 9.875,-1.38437 14,-1.96137 8.98049,-1.25619 19.62204,-0.51095 30.5,2.13595 25.31345,6.15945 23.05287,5.99765 88.5,6.33434 37.39397,0.19237 63.29375,0.73295 67.81505,1.41544 4.02328,0.60732 9.19828,1.04616 11.5,0.97522 2.30172,-0.071 6.88495,0.56487 10.18495,1.41293 3.3,0.84807 11.60847,2.06412 18.46326,2.70233 6.85479,0.63822 13.17683,1.54229 14.04898,2.00905 0.87214,0.46676 4.48868,1.15007 8.03674,1.51847 3.54806,0.3684 8.92602,1.34628 11.95102,2.17307 3.025,0.82678 8.2,1.87554 11.5,2.33055 3.3,0.45502 10.45114,1.53327 15.89141,2.39611 11.5559,1.8328 60.88361,2.99583 67.10859,1.58227 6.4676,-1.46866 7.84139,-4.03893 7.20067,-13.47193 C 644.17017,666.72488 644.97089,663 647.18033,663 c 2.01392,0 9.82279,5.46493 10.40413,7.2812 0.78986,2.46773 5.38894,6.70615 8.5277,7.85896 1.43669,0.52766 3.1272,2.08977 3.75669,3.47134 0.68989,1.51415 1.837,2.40604 2.88784,2.24533 0.95882,-0.14664 2.76689,0.29735 4.01794,0.98664 3.85448,2.12372 18.63117,1.93692 33.72537,-0.42633 11.17067,-1.74895 24.65684,-1.8603 26.3,-0.21714 0.66,0.66 1.2,2.82 1.2,4.8 0,1.98 0.44565,4.04565 0.99033,4.59033 2.27912,2.27912 -2.84805,11.40967 -6.407,11.40967 -0.77916,0 -1.64364,0.5625 -1.92105,1.25 -0.27741,0.6875 -0.53991,0.2375 -0.58333,-1 -0.072,-2.05104 -0.5653,-2.25 -5.57895,-2.25 -4.22222,0 -5.5,0.34848 -5.5,1.5 0,1.75671 3.49185,5.5 5.13057,5.5 0.62181,0 3.20931,1.48187 5.75,3.29304 2.54069,1.81118 6.77156,4.29536 9.40194,5.52041 3.02694,1.40974 5.13765,3.16147 5.75,4.77205 1.34898,3.54809 1.21316,26.38921 -0.18145,30.51528 -2.12099,6.27511 -4.55767,7.4159 -17.88517,8.37336 -3.55624,0.25548 -10.14725,0.75394 -14.6467,1.1077 -4.49945,0.35375 -10.57445,0.75402 -13.5,0.88949 C 664.96836,766.03877 642,767.54534 642,768.19828 642,768.63922 635.28256,769 627.07235,769 l -14.92765,0 -1.7648,-4 c -0.97064,-2.2 -2.24069,-4.00208 -2.82235,-4.00463 -1.20229,-0.005 -4.16206,-2.76331 -13.83838,-12.89525 C 589.98972,744.19505 586.59236,741 586.16948,741 585.42304,741 577.39767,733.54807 562,718.55752 553.72045,710.49689 548.66451,707.00941 545.25,707.00374 544.0125,707.00168 543,706.55 543,706 c 0,-0.55 -2.1375,-1.00136 -4.75,-1.00303 -2.6125,-0.002 -9.36187,-0.89845 -14.99861,-1.99285 -5.63673,-1.09441 -11.93673,-1.93877 -14,-1.87635 -2.06326,0.0624 -7.5136,-0.61581 -12.11186,-1.50715 C 492.54127,698.72928 486.66877,698 484.08953,698 c -2.57924,0 -5.11703,-0.40245 -5.63953,-0.89433 -0.5225,-0.49188 -8.31165,-1.40619 -17.30922,-2.0318 -16.51171,-1.14807 -19.17142,-0.82838 -19.1235,2.29857 0.0269,1.75757 4.3534,5.43151 7.25331,6.15934 1.44055,0.36155 2.75649,1.33655 2.9243,2.16666 0.16781,0.8301 1.92518,2.47505 3.90526,3.65542 1.98008,1.18038 6.17506,4.2201 9.32219,6.75494 3.14712,2.53484 7.63523,5.56429 9.97357,6.73211 2.33834,1.16783 7.36836,5.05314 11.17781,8.63404 3.80945,3.5809 7.37628,6.52288 7.92628,6.53775 0.79924,0.0216 9.33805,6.17108 15.06214,10.84745 0.58417,0.47724 2.65653,1.62431 4.60523,2.54903 1.94871,0.92472 4.07446,2.67345 4.72389,3.88607 0.64944,1.21261 2.93292,3.21247 5.07442,4.44412 3.44434,1.98097 3.87289,2.64395 3.71397,5.74552 l -0.17965,3.50614 -13.78055,0.004 -13.78055,0.004 -3.07304,-3.5 c -1.69018,-1.925 -3.51353,-3.5 -4.05191,-3.5 -0.53838,0 -4.42926,-2.63397 -8.64641,-5.85326 -4.21715,-3.2193 -8.42079,-6.11703 -9.34143,-6.43941 -0.92064,-0.32238 -3.62064,-1.83044 -6,-3.35124 C 461.7812,741.85324 457.73911,740 454.96287,740 453.46731,740 451.34361,738.9302 450,737.5 448.70825,736.125 447.05481,735 446.32569,735 445.59656,735 445,734.53886 445,733.97525 445,733.41164 443.875,732.52277 442.5,732 441.125,731.47723 440,730.58836 440,730.02475 440,729.46114 439.28287,729 438.40638,729 c -0.87649,0 -1.82897,-0.9 -2.11663,-2 -0.298,-1.13955 -1.36402,-2 -2.47781,-2 -1.07514,0 -2.6519,-0.6971 -3.5039,-1.54911 -0.85201,-0.85201 -2.74301,-1.78788 -4.20221,-2.07972 -1.73865,-0.34773 -3.43076,-1.88183 -4.90933,-4.4509 C 419.77476,714.44994 418.21161,713 416.97014,713 c -1.08358,0 -1.97299,-0.5625 -1.97646,-1.25 -0.007,-1.39144 -5.36286,-4.75 -7.57472,-4.75 C 406.63853,707 406,706.60242 406,706.1165 c 0,-0.48593 -2.92027,-1.19624 -6.48948,-1.57847 -3.56921,-0.38223 -6.74577,-1.10965 -7.05902,-1.6165 C 392.13826,702.41469 389.68782,702 387.00608,702 c -2.68173,0 -6.03265,-0.4398 -7.44649,-0.97734 -1.41383,-0.53754 -5.83063,-1.24569 -9.8151,-1.57367 -3.98447,-0.32797 -9.04449,-1.00217 -11.24449,-1.49821 -2.2,-0.49604 -6.34054,-0.91289 -9.20121,-0.92633 -2.86067,-0.0135 -7.81067,-0.73862 -11,-1.6115 -3.18933,-0.87288 -7.59879,-2.05126 -9.79879,-2.61863 -2.2,-0.56736 -9.175,-1.13677 -15.5,-1.26536 -6.325,-0.1286 -17.8,-0.77815 -25.5,-1.44345 -11.95956,-1.03334 -15.51956,-0.98198 -24.42614,0.35242 -5.73437,0.85914 -13.15937,1.5608 -16.5,1.55925 -7.68905,-0.004 -23.91331,-1.96141 -24.57386,-2.96542 -0.275,-0.41799 -4.55,-1.65915 -9.5,-2.75813 -4.95,-1.09898 -11.25,-2.80233 -14,-3.78523 -2.75,-0.9829 -5.675,-2.02722 -6.5,-2.32071 -8.23555,-2.92982 -37.60837,-3.95932 -40.1601,-1.40759 -0.70146,0.70146 -0.51528,1.8057 0.58846,3.49022 1.23953,1.89177 2.2283,2.34681 4.25684,1.95903 2.09162,-0.39984 2.51782,-0.1808 2.04511,1.05107 -0.41234,1.07453 0.156,1.74521 1.83626,2.16693 1.33839,0.33592 2.43343,1.32966 2.43343,2.20833 0,1.10207 0.61664,1.43633 1.98811,1.07768 1.12846,-0.2951 3.03435,0.30307 4.40773,1.38337 1.33079,1.0468 3.27279,1.90327 4.31554,1.90327 1.87096,0 12.3183,4.74213 13.28862,6.0318 0.275,0.36551 2.50267,0.97762 4.95039,1.36024 2.44771,0.38263 4.92271,1.04489 5.5,1.47169 0.57728,0.42681 2.96211,1.3791 5.29961,2.1162 2.3375,0.73711 4.25,1.76695 4.25,2.28854 0,0.527 1.17966,0.65227 2.65514,0.28195 1.46033,-0.36652 2.92283,-0.2582 3.25,0.24071 0.92596,1.41201 13.63987,6.20887 16.4564,6.20887 1.38623,0 2.76039,0.38827 3.05368,0.86283 0.29329,0.47455 2.68235,1.43655 5.30902,2.13778 2.62667,0.70123 7.34906,2.11296 10.49421,3.13718 3.14515,1.02421 7.30765,1.86221 9.25,1.86221 2.47249,0 3.53155,0.44983 3.53155,1.5 0,0.825 0.68111,1.5 1.51357,1.5 0.83246,0 2.29496,0.41776 3.25,0.92836 3.8668,2.06732 10.93367,5.07164 11.92971,5.07164 0.58401,0 1.63148,0.68638 2.32772,1.5253 1.72703,2.08095 16.55797,9.4747 19.00506,9.4747 1.08567,0 1.97394,0.45 1.97394,1 0,0.55 0.7875,1.01431 1.75,1.0318 0.9625,0.0175 2.62351,0.6925 3.69113,1.5 1.06762,0.80751 3.09897,1.4682 4.51412,1.4682 1.41514,0 4.88069,0.8435 7.70122,1.87443 2.82053,1.03094 7.53917,2.44623 10.48588,3.14509 2.94671,0.69886 6.53844,2.21787 7.98163,3.37557 1.44318,1.1577 4.02129,2.86609 5.72913,3.79642 2.75788,1.50234 7.13315,7.05077 7.14315,9.05849 0.002,0.4125 -13.44812,0.75 -29.88927,0.75 -24.09021,0 -29.99301,-0.2606 -30.40817,-1.34248 z M 693.5,747.76965 c 8.69687,-3.13736 19.47293,-8.96989 20.73316,-11.22179 1.14627,-2.04828 0.17642,-6.54786 -1.41134,-6.54786 -0.62705,0 -3.43097,-1.71806 -6.23095,-3.8179 -2.79998,-2.09985 -6.55337,-4.67187 -8.34087,-5.71561 -1.7875,-1.04374 -3.25,-2.25068 -3.25,-2.6821 C 695,717.35298 694.325,717 693.5,717 c -0.825,0 -2.4,-0.9 -3.5,-2 -1.1,-1.1 -2.3949,-2 -2.87756,-2 -0.48265,0 -1.46008,-0.70191 -2.17207,-1.5598 -2.00724,-2.41858 -8.71726,-5.31392 -10.95745,-4.7281 -2.37958,0.62228 -3.47153,4.14484 -2.61399,8.43257 0.83207,4.16035 -1.68328,12.51396 -6.98783,23.20698 -2.41511,4.86841 -4.3911,9.44961 -4.3911,10.18045 0,1.93125 3.15567,2.3461 15.5,2.03764 8.76671,-0.21906 12.42118,-0.78755 18,-2.80009 z m -62.19723,-10.79317 c 5.74931,-4.52241 11.99397,-20.93899 8.73182,-22.9551 -1.36382,-0.84289 -24.96019,-0.5103 -36.78459,0.51848 -6.09133,0.52997 -7.25,0.91945 -7.25,2.43705 0,1.05846 0.96633,2.04881 2.33406,2.39209 4.37329,1.09762 15.69988,10.86216 18.19362,15.68453 2.13092,4.12074 10.58266,5.22072 14.77509,1.92295 z m 76.5973,-67.85841 c -3.62995,-0.33994 -7.22995,-1.09951 -8,-1.68794 C 699.13003,666.8417 696.475,665.7907 694,665.09459 683.66136,662.18675 667.71485,655.85778 666.70031,654.25968 666.26048,653.56685 665.03667,653 663.98073,653 c -1.05595,0 -3.4522,-0.86064 -5.325,-1.91253 -1.87281,-1.0519 -7.399,-2.92297 -12.28042,-4.15794 -4.88142,-1.23497 -9.12532,-2.62183 -9.4309,-3.08192 -0.30557,-0.46008 -3.23057,-1.3212 -6.5,-1.9136 -3.26942,-0.5924 -6.7258,-1.49489 -7.68084,-2.00555 C 621.80853,639.41781 620.15317,639 619.085,639 c -1.06818,0 -2.53679,-0.57972 -3.26357,-1.28827 -1.59136,-1.55142 -14.3108,-5.28133 -25.32143,-7.42536 -4.4,-0.85679 -8.31443,-2.09054 -8.69873,-2.74168 -0.41197,-0.69801 -3.49001,-1.25282 -7.5,-1.35185 -3.7407,-0.0924 -10.07816,-0.68762 -14.08324,-1.32276 -4.00509,-0.63514 -10.41209,-0.89238 -14.23778,-0.57164 -5.44106,0.45616 -7.28372,0.25523 -8.4616,-0.92265 -1.16673,-1.16673 -4.94112,-1.60316 -16.76222,-1.93818 -8.39104,-0.23782 -17.73143,-0.65546 -20.75643,-0.92809 -3.025,-0.27263 -22.94593,-1.37745 -44.26874,-2.45517 -21.3228,-1.07771 -39.23255,-2.24613 -39.79944,-2.59649 -0.56689,-0.35035 -4.94596,-1.24123 -9.73126,-1.97973 -4.78531,-0.7385 -13.42556,-2.29127 -19.20056,-3.45061 -8.98716,-1.80419 -15.47077,-2.19195 -45,-2.69128 -39.82935,-0.67349 -40.1734,-0.68583 -41.5,-1.48831 -0.55,-0.33271 -13.825,-0.385 -29.5,-0.1162 -39.84314,0.68322 -53.02963,0.48857 -54.58928,-0.80583 -0.72771,-0.60394 -1.72138,-0.85194 -2.20815,-0.55109 -0.97836,0.60466 -17.53382,-2.06752 -20.70257,-3.34155 -1.1,-0.44227 -2.9,-0.82451 -4,-0.84943 -2.36612,-0.0536 -20.85711,-3.42415 -31.5,-5.74185 -10.95649,-2.38598 -40.97965,-2.51708 -50.82241,-0.22192 -10.180419,2.37391 -14.861505,2.5246 -16.843871,0.54223 -1.313859,-1.31386 -1.42358,-2.17807 -0.564537,-4.44655 0.586455,-1.54866 1.357147,-5.51574 1.71265,-8.81574 1.54577,-14.3488 2.190293,-17.48022 4.012228,-19.49344 2.583511,-2.85474 6.69938,-4.5101 15.00594,-6.03521 3.85,-0.70688 8.44805,-1.88961 10.21788,-2.62829 1.76984,-0.73868 4.35734,-1.34306 5.75,-1.34306 1.39267,0 2.53212,-0.45 2.53212,-1 0,-0.55 1.6875,-1.00277 3.75,-1.00616 2.0625,-0.003 5.00651,-0.66156 6.54224,-1.46261 1.53573,-0.80105 4.46073,-1.73178 6.5,-2.0683 2.03927,-0.33651 6.18276,-1.29858 9.20776,-2.13793 17.83368,-4.94832 35.99876,-9.37473 41.25,-10.05166 2.0625,-0.26588 3.75,-0.88614 3.75,-1.37838 0,-0.49223 1.10927,-0.89496 2.46505,-0.89496 2.25121,0 9.05915,-1.89662 14.03495,-3.91 1.1,-0.44509 5.375,-1.58689 9.5,-2.53731 9.16885,-2.11256 13.30288,-3.32817 18.47965,-5.4339 2.1888,-0.89034 4.39934,-1.48195 4.91229,-1.31469 0.96746,0.31545 4.11789,-0.74479 13.90511,-4.67959 1.53838,-0.61848 3.56338,-1.12728 4.5,-1.13067 0.93662,-0.003 2.90177,-0.63164 4.367,-1.3961 2.66291,-1.38936 11.54028,-3.65173 29.83595,-7.6036 15.64148,-3.37856 36,-11.6672 36,-14.6568 0,-0.73554 0.86547,-1.33734 1.92327,-1.33734 1.05781,0 3.19531,-1.0401 4.75,-2.31133 1.5547,-1.27123 4.85228,-3.47459 7.32795,-4.89636 2.47567,-1.42176 5.35791,-3.53166 6.40498,-4.68867 1.04708,-1.157 2.32852,-2.10364 2.84766,-2.10364 0.92743,0 6.64122,-2.32847 9.90889,-4.03805 0.91451,-0.47845 3.95201,-1.1736 6.75,-1.54476 2.79799,-0.37117 5.08725,-1.05998 5.08725,-1.53069 0,-0.47071 2.66612,-0.57717 5.9247,-0.23658 5.94701,0.62158 20.51778,-1.93882 21.67329,-3.80846 0.28602,-0.4628 1.5985,-0.84146 2.91662,-0.84146 1.31811,0 4.05435,-1.125 6.08053,-2.5 2.02617,-1.375 4.47301,-2.5 5.43742,-2.5 0.9644,0 2.01248,-0.675 2.32907,-1.5 0.31658,-0.825 1.26472,-1.5 2.10699,-1.5 0.84226,0 1.53138,-0.34015 1.53138,-0.75589 0,-0.67441 1.90386,-1.61383 8.5,-4.19415 4.59035,-1.79567 8.09128,-3.57418 9.5,-4.82608 C 452.06773,441.49765 461.48943,436 463.09383,436 c 0.91371,0 2.16596,-0.6081 2.78278,-1.35132 0.61682,-0.74323 4.15942,-2.14858 7.87244,-3.123 3.71302,-0.97443 7.66606,-2.33789 8.78454,-3.02993 1.11847,-0.69204 5.39347,-2.02921 9.5,-2.97149 4.10652,-0.94228 8.59141,-2.10151 9.96641,-2.57607 1.375,-0.47455 6.775,-1.60915 12,-2.52132 5.225,-0.91218 9.9275,-2.05638 10.45,-2.54268 0.5225,-0.48631 2.9975,-0.89519 5.5,-0.90864 2.5025,-0.0134 6.575,-0.49828 9.05,-1.07741 2.475,-0.57913 7.875,-1.43769 12,-1.90792 7.31231,-0.83356 25.43775,-3.20743 37.5,-4.91132 3.3,-0.46616 12.975,-2.49404 21.5,-4.50642 8.525,-2.01237 19.74903,-4.56634 24.94228,-5.67549 5.19326,-1.10915 9.74844,-2.20585 10.12263,-2.43711 1.22057,-0.75435 25.33892,-4.45948 29.0301,-4.45968 4.3708,-2.4e-4 6.59117,2.19227 8.25889,8.15524 1.46231,5.22854 1.12788,8.58799 -1.152,11.57228 -1.34286,1.75775 -4.02252,2.676 -12.7019,4.35259 -6.05,1.16868 -11.675,2.69498 -12.5,3.39179 -0.825,0.69681 -2.85,1.69839 -4.5,2.22574 -3.54688,1.1336 -4.69122,4.90975 -1.82014,6.0062 2.43456,0.92975 3.79533,2.01241 8.97841,7.14339 2.68115,2.65419 4.96609,4.12696 5.86665,3.78138 0.81129,-0.31132 1.47508,-0.18265 1.47508,0.28594 0,0.46859 0.7875,1.12516 1.75,1.45903 0.9625,0.33388 3.73328,1.73636 6.15728,3.11664 2.42401,1.38027 5.23651,2.50958 6.25,2.50958 1.0135,0 1.84272,0.44143 1.84272,0.98095 0,0.53952 1.11428,1.26061 2.47618,1.60243 3.49195,0.87642 9.21934,7.57215 10.47921,12.25096 1.12019,4.16005 4.49288,7.16566 8.04081,7.16566 3.14195,0 3.39923,2.30174 1.04726,9.3694 -1.97699,5.94085 -2.05305,7.1183 -0.98045,15.1784 0.90525,6.80253 0.89062,9.64764 -0.0661,12.84507 -3.98011,13.30218 -4.19068,13.50739 -12.6916,12.36843 -3.68173,-0.49329 -8.23655,-1.54137 -10.12182,-2.32909 C 678.29825,514.64449 675.68571,514 674.37788,514 673.07004,514 672,513.56734 672,513.03854 c 0,-0.75807 -6.16358,-3.11508 -9.07143,-3.46899 -0.31428,-0.0383 -1.35893,-0.85705 -2.32143,-1.81955 -0.9625,-0.9625 -2.39285,-1.75 -3.17857,-1.75 C 656.64286,506 656,505.6404 656,505.20089 c 0,-0.43951 -1.6875,-1.40293 -3.75,-2.14093 -2.0625,-0.738 -3.975,-1.62753 -4.25,-1.97673 -0.8836,-1.12201 -8.44897,-6.7285 -10,-7.41072 -2.09033,-0.91944 -4.83237,-2.79853 -7.74692,-5.30887 -1.36419,-1.175 -3.32922,-2.8625 -4.36672,-3.75 -1.0375,-0.8875 -2.67386,-1.62891 -3.63636,-1.64757 -0.9625,-0.0187 -3.55,-0.90339 -5.75,-1.96607 -2.2,-1.06268 -4.98594,-1.94741 -6.19098,-1.96607 C 609.10398,479.01527 607.83992,478.55 607.5,478 c -0.33992,-0.55 -1.37898,-1.00277 -2.30902,-1.00616 -0.93004,-0.003 -2.83763,-0.60457 -4.23908,-1.33595 -1.40146,-0.73139 -6.57646,-2.34645 -11.5,-3.58904 -4.92355,-1.24259 -9.3794,-2.66641 -9.9019,-3.16405 -0.5225,-0.49764 -2.89111,-0.9048 -5.26357,-0.9048 -2.37246,0 -5.09496,-0.4133 -6.05,-0.91844 -0.95504,-0.50514 -7.36143,-1.60134 -14.23643,-2.436 -11.27665,-1.36904 -21.13122,-3.1717 -31,-5.67071 -7.14579,-1.80948 -25,-4.62647 -25,-3.94443 0,0.38843 -1.6875,0.94831 -3.75,1.24416 -3.3498,0.48052 -7.92604,2.19331 -12.25,4.58491 -4.31052,2.38417 -6.1135,3.14051 -7.48643,3.14051 -0.83246,0 -2.34673,0.83316 -3.36504,1.85147 -1.04076,1.04076 -4.08784,2.14813 -6.9589,2.52899 -2.80908,0.37264 -5.37748,1.11448 -5.70755,1.64853 -0.33006,0.53406 -1.37454,0.97101 -2.32105,0.97101 -0.94652,0 -3.16996,1.53624 -4.94098,3.41387 -3.39333,3.59757 -4.04705,5.03377 -1.97005,4.3281 0.6875,-0.23358 2.27872,1.07892 3.53605,2.91667 2.07488,3.03271 2.74459,3.34136 7.25,3.34136 2.73017,0 4.96395,0.45 4.96395,1 0,0.55 0.61845,1 1.37432,1 0.75588,0 5.15781,1.52529 9.78207,3.38954 8.90257,3.58902 17.43041,6.19182 24.84361,7.58256 2.475,0.46432 6.975,1.52427 10,2.35545 3.025,0.83118 8.2,2.23055 11.5,3.10971 3.3,0.87916 6.78139,2.04043 7.73643,2.5806 0.95504,0.54018 3.57212,0.98214 5.81574,0.98214 2.24362,0 4.84615,0.4104 5.78339,0.91199 0.93724,0.5016 9.12016,1.23162 18.18426,1.62226 10.84218,0.46728 16.99334,1.14114 17.98018,1.96973 0.825,0.6927 2.625,1.56597 4,1.94059 3.34802,0.91218 5.64523,1.81097 11,4.30381 8.19642,3.81572 14.2377,6.25162 15.50467,6.25162 0.68774,0 1.81064,0.675 2.49533,1.5 0.68469,0.825 2.10801,1.5 3.16294,1.5 1.05492,0 3.13732,0.89783 4.62755,1.99517 1.49023,1.09734 5.40951,2.69555 8.70951,3.55157 3.3,0.85602 6.4275,1.98319 6.95,2.50483 0.5225,0.52164 1.95844,0.94843 3.19098,0.94843 1.23254,0 2.49964,0.41851 2.81577,0.93001 0.31612,0.51151 3.04268,1.23836 6.05901,1.61523 3.01633,0.37686 5.48424,1.02068 5.48424,1.43069 0,0.41002 2.1375,1.04897 4.75,1.41989 2.6125,0.37092 7.225,1.13476 10.25,1.69743 7.9188,1.47294 21.28636,2.71896 30.25,2.81968 6.05827,0.0681 8.08291,0.46907 9.27509,1.83707 6.21742,7.1343 6.46942,7.55169 5.3637,8.884 -0.6119,0.73729 -0.82543,2.08874 -0.47451,3.00321 0.37298,0.97198 -0.29997,3.03161 -1.61993,4.95797 -2.02524,2.95564 -2.87825,3.35394 -8.27616,3.86443 -13.5014,1.27686 -27.23792,0.82217 -40.98036,-1.35646 -7.67919,-1.21741 -15.10419,-1.92684 -16.5,-1.57651 -3.17309,0.7964 -3.60954,0.59008 -3.24934,-1.53607 0.23037,-1.35985 -0.74777,-1.8256 -4.85588,-2.31215 -2.8294,-0.3351 -5.65922,-1.01339 -6.28849,-1.50732 -0.62926,-0.49394 -3.12175,-1.20023 -5.53885,-1.56954 -2.4171,-0.36931 -5.63656,-1.55575 -7.15437,-2.63652 C 615.4331,554.88427 613.74416,554 613.1977,554 c -0.54645,0 -2.95199,-1.11958 -5.34563,-2.48795 -2.39364,-1.36838 -5.49957,-2.49338 -6.90207,-2.5 -1.4025,-0.007 -3.0491,-0.51115 -3.65912,-1.12117 -0.61001,-0.61001 -2.38751,-1.23131 -3.95,-1.38066 -1.56248,-0.14934 -3.51588,-0.50627 -4.34088,-0.79316 -0.825,-0.2869 -3.75,-1.09479 -6.5,-1.79531 -2.75,-0.70053 -5.225,-1.58426 -5.5,-1.96385 -0.52801,-0.72882 -10.14312,-2.91346 -26.12861,-5.93664 -5.29574,-1.00153 -10.6184,-2.35068 -11.82814,-2.99812 -1.20974,-0.64743 -2.82496,-0.93715 -3.58937,-0.64382 -0.7644,0.29333 -1.6631,0.0912 -1.9971,-0.44925 -0.334,-0.54042 -2.03591,-0.92266 -3.78203,-0.84941 -1.74611,0.0732 -7.89975,-1.48359 -13.67475,-3.45963 -5.775,-1.97604 -11.9625,-3.59915 -13.75,-3.60691 -1.9014,-0.008 -4.07991,-0.84403 -5.25,-2.01412 -1.1,-1.1 -3.05844,-2 -4.35209,-2 -2.96537,0 -22.14372,-4.70614 -26.14791,-6.41639 -1.65,-0.70473 -5.475,-1.77236 -8.5,-2.3725 -3.025,-0.60014 -8.2,-1.62219 -11.5,-2.27122 -3.3,-0.64903 -7.51531,-1.84719 -9.36735,-2.66258 -1.85204,-0.81538 -7.02704,-1.70442 -11.5,-1.97563 -4.47296,-0.27121 -10.76712,-1.39602 -13.98703,-2.49958 -4.53459,-1.55413 -7.10258,-1.85051 -11.39118,-1.31469 -5.22148,0.65238 -5.67383,0.5323 -7.94315,-2.10867 -2.06737,-2.40595 -2.6795,-2.62988 -4.34526,-1.5896 C 386.89964,497.45511 384.27599,498 382.13569,498 378.00878,498 371,500.44495 371,501.88459 c 0,0.47176 -2.337,1.16776 -5.19334,1.54667 -3.76256,0.49912 -7.64175,2.18763 -14.08041,6.12883 -4.88788,2.99195 -9.26338,5.43991 -9.72332,5.43991 -0.45995,0 -0.98626,0.3375 -1.1696,0.75 -0.5665,1.27463 -11.41218,6.25 -13.62423,6.25 -1.15008,0 -2.36918,0.45 -2.7091,1 -0.33992,0.55 -2.16648,1 -4.05902,1 -1.89254,0 -3.44098,0.49814 -3.44098,1.10699 0,0.60884 -0.63066,0.86498 -1.40146,0.5692 -0.8333,-0.31977 -1.60616,0.24497 -1.90638,1.39301 -0.27771,1.06194 -0.12919,1.9308 0.33003,1.9308 0.45922,0 1.51851,0.68356 2.35397,1.51902 0.83546,0.83546 3.33499,1.62296 5.55451,1.75 2.21951,0.12704 4.25397,0.79348 4.52102,1.48098 0.26705,0.6875 1.42201,1.25 2.56659,1.25 1.14457,0 3.52119,0.75716 5.28138,1.68259 1.76019,0.92542 4.91466,1.77995 7.00994,1.89895 2.09528,0.119 4.57755,0.91135 5.51615,1.76077 0.93861,0.84942 3.94929,2.01685 6.6904,2.59428 5.71169,1.20319 12.0731,2.93386 14.98385,4.07647 1.1,0.43181 3.4625,1.33511 5.25,2.00734 1.7875,0.67223 3.25,1.61765 3.25,2.10092 0,0.48327 1.79527,0.87868 3.98948,0.87868 2.19421,0 6.80671,1.08554 10.25,2.41231 3.44329,1.32676 8.49795,2.68185 11.23258,3.0113 2.73463,0.32945 7.13322,1.72904 9.77464,3.1102 2.64142,1.38116 6.85012,2.79185 9.35268,3.13487 2.50255,0.34301 5.17078,1.24433 5.92938,2.00294 0.75861,0.75861 3.964,1.85709 7.12309,2.44108 3.15909,0.58399 7.34228,1.66656 9.29598,2.4057 3.61021,1.36585 14.12677,3.7341 33.05217,7.4431 16.05848,3.14715 37.23337,9.01417 45.5,12.6069 1.65,0.7171 4.575,1.60953 6.5,1.98318 1.925,0.37365 3.95,1.02308 4.5,1.44317 1.68053,1.2836 11.65713,3.75142 18,4.4525 3.3,0.36475 9.6,1.10457 14,1.64404 4.4,0.53947 11.76203,1.39206 16.36007,1.89463 9.00478,0.98423 27.66414,5.31159 32.79106,7.60469 1.73312,0.77516 3.65173,1.40939 4.26357,1.40939 0.61184,0 1.89383,0.427 2.84887,0.94888 0.95504,0.52188 4.66143,2.15445 8.23643,3.62792 3.575,1.47347 7.85,3.2371 9.5,3.91917 1.65,0.68208 7.275,2.24981 12.5,3.48384 5.225,1.23404 11.075,2.64031 13,3.12504 12.864,3.23928 30.2319,6.89515 32.75669,6.89515 1.64949,0 4.61456,0.675 6.58907,1.5 1.9745,0.825 4.94788,1.5 6.6075,1.5 1.65963,0 5.71846,1.4158 9.01962,3.14623 8.26033,4.32994 10.02712,7.5403 10.02712,18.2198 0,5.08672 -0.47945,8.86155 -1.25,9.84168 -1.51011,1.92083 -11.22912,2.81133 -20.84993,1.91036 z M 351,580.65322 c 8.525,-0.44745 16.0625,-0.98835 16.75,-1.202 2.4167,-0.75102 1.21091,-3.09944 -2.5,-4.86905 -2.0625,-0.98353 -3.75,-1.72215 -3.75,-1.64136 0,0.0808 -1.96908,-0.54785 -4.37573,-1.39696 C 354.71762,570.69473 351.0595,570 348.99512,570 c -2.06439,0 -6.39531,-1.15535 -9.62428,-2.56745 -3.22896,-1.41209 -7.89584,-3.44737 -10.37084,-4.52285 -2.475,-1.07548 -6.525,-2.01184 -9,-2.08081 -2.57568,-0.0718 -5.63508,-0.91725 -7.15437,-1.97714 C 311.38573,557.83329 309.0798,557 307.72136,557 c -1.35845,0 -4.38306,-0.675 -6.72136,-1.5 -2.3383,-0.825 -5.88238,-1.49889 -7.87573,-1.49753 -3.32768,0.002 -17.88961,-5.49264 -19.17853,-7.23697 -0.30484,-0.41256 -2.58957,-1.02907 -5.07717,-1.37004 -3.93342,-0.53913 -5.62069,-0.0918 -12.94574,3.432 -4.63256,2.22856 -9.6442,4.3488 -11.137,4.71165 -1.49279,0.36284 -2.9644,1.44814 -3.27024,2.41177 -0.72474,2.28345 5.35419,8.9561 11.98441,13.15491 2.75,1.74153 5.9,4.15706 7,5.36785 1.1,1.21079 3.44758,2.77295 5.21684,3.47148 1.76927,0.69853 3.64383,1.78414 4.16571,2.41247 1.13549,1.36712 56.83538,1.57011 81.11745,0.29563 z M 109,528.23006 c -6.92076,-0.53378 -8,-1.08122 -8,-4.05798 0,-1.5344 0.66069,-3.66333 1.4682,-4.73095 0.8075,-1.06762 1.4825,-3.62863 1.5,-5.69113 0.0175,-2.0625 0.4818,-3.75 1.0318,-3.75 0.55,0 1,-1.33247 1,-2.96104 0,-4.82542 2.88341,-6.54639 13.25352,-7.9104 5.08557,-0.66892 13.07148,-2.35665 17.74648,-3.75051 4.675,-1.39387 11.2,-2.94501 14.5,-3.44698 11.82606,-1.79889 25.34566,-5.46869 33.2391,-9.02252 2.33151,-1.0497 5.11745,-1.90855 6.19098,-1.90855 1.07354,0 2.18962,-0.38466 2.48019,-0.85481 0.29056,-0.47015 3.35462,-1.85795 6.80901,-3.08401 6.9718,-2.47448 19.91659,-8.27702 23.78072,-10.65977 1.375,-0.84787 3.7375,-2.0587 5.25,-2.69073 1.5125,-0.63204 2.75,-1.46474 2.75,-1.85046 0,-0.38572 1.35,-0.99782 3,-1.36022 1.65,-0.3624 3.01223,-0.96066 3.02718,-1.32946 0.0149,-0.36879 2.48994,-1.79182 5.5,-3.16226 3.01005,-1.37045 5.47282,-2.83295 5.47282,-3.25 0,-0.41706 0.6199,-0.75828 1.37756,-0.75828 0.75765,0 1.93775,-0.675 2.62244,-1.5 0.68469,-0.825 1.88914,-1.5 2.67655,-1.5 0.78742,0 6.0913,-2.925 11.78641,-6.5 5.6951,-3.575 11.07075,-6.5 11.94589,-6.5 0.87513,0 1.59115,-0.45 1.59115,-1 0,-0.55 0.59048,-1 1.31217,-1 0.72169,0 3.11453,-0.8708 5.31741,-1.93512 2.20288,-1.06432 5.19395,-2.23347 6.64681,-2.59811 1.45287,-0.36465 3.16513,-1.29385 3.80504,-2.06488 0.66933,-0.8065 2.99758,-1.40189 5.482,-1.40189 2.37519,0 4.59665,-0.45 4.93657,-1 0.33992,-0.55 1.84135,-1 3.33651,-1 1.49516,0 3.60611,-0.61874 4.69098,-1.37498 1.08488,-0.75623 4.67251,-2.19624 7.97251,-3.20001 3.3,-1.00377 6.75687,-2.58333 7.68193,-3.51014 0.92506,-0.92681 3.50095,-2.52431 5.7242,-3.54999 2.22325,-1.02568 4.05388,-2.39706 4.06807,-3.04749 0.0142,-0.65044 0.8133,-1.4365 1.7758,-1.74681 0.9625,-0.3103 4.225,-2.81382 7.25,-5.56338 3.025,-2.74956 5.8375,-5.001 6.25,-5.0032 0.4125,-0.002 0.75,-1.14312 0.75,-2.53538 0,-1.54619 0.68109,-2.73367 1.75,-3.05112 0.9625,-0.28585 3.02397,-1.17173 4.58104,-1.96861 1.55707,-0.79689 3.46957,-1.44889 4.25,-1.44889 0.78043,0 1.41896,-0.36568 1.41896,-0.81261 0,-0.44694 2.34523,-1.83664 5.21162,-3.08824 2.86638,-1.25159 6.55181,-3.58592 8.18983,-5.18739 1.63803,-1.60147 3.39905,-2.91176 3.91339,-2.91176 0.51434,0 0.6733,-1.3093 0.35325,-2.90955 -0.41721,-2.08605 -0.14641,-3.07666 0.95679,-3.5 2.26743,-0.87009 6.37512,-0.7178 6.37512,0.23636 0,0.45474 -1.35,0.62867 -3,0.3865 -2.42118,-0.35536 -2.99705,-0.0808 -2.98469,1.42319 0.0313,3.80344 1.4445,4.57373 7.60271,4.14388 6.2319,-0.435 13.91616,-2.20845 18.88198,-4.35777 1.65,-0.71416 5.25,-2.26972 8,-3.45681 7.22513,-3.11885 11.92657,-5.38403 12.5,-6.02257 0.275,-0.30623 2.075,-1.1632 4,-1.90438 1.925,-0.74118 3.95,-1.85948 4.5,-2.48512 0.55,-0.62564 2.6875,-1.92729 4.75,-2.89255 2.0625,-0.96526 3.75,-2.12931 3.75,-2.58678 0,-0.45747 1.35,-1.39095 3,-2.0744 1.65,-0.68345 3,-1.60315 3,-2.04377 0,-0.44062 1.47725,-1.28866 3.28278,-1.88454 1.80553,-0.59588 4.02349,-1.86828 4.9288,-2.82755 0.90531,-0.95928 3.92318,-3.31914 6.70639,-5.24414 2.7832,-1.925 5.06524,-4.0625 5.0712,-4.75 0.006,-0.6875 0.6513,-1.25 1.4341,-1.25 0.78281,0 2.76027,-1.125 4.39436,-2.5 1.6341,-1.375 3.31365,-2.5 3.73234,-2.5 0.41868,0 2.2362,-1.125 4.03892,-2.5 1.80272,-1.375 3.57993,-2.5 3.94936,-2.5 0.36944,0 2.67202,-1.35 5.11686,-3 2.44483,-1.65 4.87259,-3 5.39502,-3 0.52243,0 0.94987,-0.45 0.94987,-1 0,-0.55 0.65298,-1 1.45108,-1 0.79809,0 4.51059,-1.52841 8.25,-3.39647 3.7394,-1.86805 9.72392,-4.76697 13.29892,-6.44204 3.575,-1.67507 10.325,-4.84926 15,-7.05376 4.675,-2.20449 10.3,-4.31942 12.5,-4.69983 2.2,-0.38042 4.88763,-1.30282 5.97251,-2.04978 1.08487,-0.74697 3.55987,-1.36761 5.5,-1.37921 1.94012,-0.0116 6.67749,-1.17356 10.52749,-2.58213 3.85,-1.40857 9.25,-3.2574 12,-4.10852 6.16578,-1.9083 7.09292,-2.27815 16.83913,-6.71754 4.31153,-1.9639 8.47403,-3.57072 9.25,-3.57072 0.77598,0 1.41087,-0.43839 1.41087,-0.97421 0,-0.53581 3.94599,-3.62748 8.76886,-6.87037 6.90549,-4.64324 10.54043,-6.34416 17.10574,-8.00439 5.72284,-1.44718 8.89102,-1.81165 10.10417,-1.16239 2.05009,1.09717 3.57532,6.61447 4.5645,16.51136 0.38481,3.85 1.09319,7.49394 1.57419,8.09765 0.60747,0.76243 -1.48401,1.4286 -6.84858,2.18138 -4.24773,0.59605 -7.88343,1.56461 -8.07934,2.15235 -0.19591,0.58774 -1.1108,1.06862 -2.03309,1.06862 -0.92229,0 -2.89015,1.125 -4.37302,2.5 -1.48288,1.375 -3.30616,2.5 -4.05173,2.5 -2.30903,0 -5.84507,5.70012 -5.17996,8.35014 0.63565,2.53261 2.76088,2.94608 21.94826,4.27009 3.85,0.26567 7.5848,0.67923 8.29956,0.91903 2.25081,0.75515 6.20044,11.15994 6.20044,16.33427 0,7.6065 -1.36442,8.309 -17.23045,8.87148 -7.29825,0.25873 -14.61955,0.45466 -16.26955,0.43541 -1.65,-0.0193 -6.15,0.86677 -10,1.96896 -14.72292,4.21491 -24.01919,7.22886 -24.51002,7.94643 -0.28051,0.41009 -1.85551,1.07559 -3.5,1.47888 -1.64449,0.40329 -3.21498,1.00147 -3.48998,1.32928 -0.73455,0.87563 -10.77136,5.02364 -16.20704,6.69804 -2.58887,0.79748 -4.97793,1.88826 -5.30902,2.42397 -0.33109,0.53571 -1.87727,0.97402 -3.43597,0.97402 -1.5587,0 -3.07364,0.6245 -3.36653,1.38778 -0.2929,0.76328 -2.92855,1.84971 -5.85699,2.41429 C 555.896,356.36665 551.475,357.53565 549,358.39985 541.23653,361.11063 523.78368,366 521.87087,366 c -1.00672,0 -3.527,0.63719 -5.60063,1.41598 -2.07363,0.77879 -6.47024,2.15445 -9.77024,3.05703 -3.3,0.90257 -8.75907,2.51538 -12.13127,3.58402 -3.3722,1.06863 -7.33205,1.94297 -8.79966,1.94297 -1.46761,0 -3.92709,0.6509 -5.46551,1.44645 -1.53842,0.79554 -3.74995,1.19728 -4.91451,0.89274 -1.2521,-0.32744 -2.7742,0.1031 -3.72465,1.05355 -0.88399,0.88399 -2.40837,1.60726 -3.38751,1.60726 -0.97915,0 -3.19291,1.35 -4.91947,3 -1.72657,1.65 -3.82221,3 -4.65698,3 -1.92372,0 -7.50044,4.9119 -7.50044,6.60628 0,2.11756 -1.85255,2.59749 -5.44718,1.41115 -2.58232,-0.85224 -3.97078,-0.83164 -5.73045,0.085 -4.94488,2.57595 -5.87769,2.89754 -8.40451,2.89754 -1.4351,0 -3.80371,0.61763 -5.26357,1.37252 C 422.47426,401.27543 416.78101,403 414.179,403 c -2.54243,0 -2.79371,1.24243 -0.679,3.35714 1.58817,1.58817 2.04872,4.64286 0.7,4.64286 -1.44961,0 -3.2,-2.36576 -3.2,-4.325 0,-1.62266 -0.49081,-1.82684 -3.12492,-1.30002 -2.86635,0.57327 -12.9041,4.51968 -17.14694,6.74144 -0.97453,0.51031 -3.89953,1.20888 -6.5,1.55239 -2.60048,0.34351 -6.97814,1.73767 -9.72814,3.09814 -2.75,1.36047 -6.2375,2.41232 -7.75,2.33743 -1.61996,-0.0802 -2.75321,0.38403 -2.7578,1.12974 -0.008,1.32845 -4.39895,3.76588 -6.78384,3.76588 -0.76609,0 -2.53707,0.9 -3.93549,2 -1.39842,1.1 -3.10876,2 -3.80074,2 -0.69198,0 -1.51717,0.675 -1.83376,1.5 -0.31658,0.825 -1.62987,1.5 -2.91842,1.5 -1.28856,0 -3.30886,0.9 -4.48958,2 -1.18071,1.1 -2.4227,2 -2.75999,2 -0.33728,0 -1.28824,0.675 -2.11324,1.5 -0.825,0.825 -2.49273,1.5 -3.70606,1.5 -2.11697,0 -5.6784,1.97947 -8.47251,4.70908 C 322.45179,443.41908 321.33419,444 320.69503,444 318.82779,444 307,450.14589 307,451.11613 307,451.60226 306.1,452 305,452 c -1.1,0 -2,0.45 -2,1 0,0.55 -0.9,1 -2,1 -1.1,0 -2,0.38166 -2,0.84813 0,0.46646 -1.8,1.65981 -4,2.65187 -2.2,0.99206 -4,2.20837 -4,2.7029 0,0.49453 -1.4625,1.51993 -3.25,2.27866 -1.7875,0.75873 -4.79993,2.53577 -6.69428,3.94897 -1.89435,1.41321 -4.21871,2.56947 -5.16523,2.56947 -0.94653,0 -2.99514,1.35 -4.55248,3 -1.55733,1.65 -3.28964,3 -3.84957,3 -0.55993,0 -2.69726,0.9 -4.74962,2 -2.05237,1.1 -4.36006,2 -5.12821,2 -0.76815,0 -1.65565,0.675 -1.97224,1.5 -0.31658,0.825 -1.48972,1.5 -2.60699,1.5 -1.11726,0 -2.03138,0.34384 -2.03138,0.7641 0,0.82802 -7.32322,4.2359 -9.10257,4.2359 -0.59886,0 -2.28328,0.61784 -3.74314,1.37297 C 233.48674,490.78732 227.97256,493 226.62336,493 c -0.71984,0 -3.29207,1.11918 -5.71608,2.48707 -2.424,1.36788 -4.85728,2.65751 -5.40728,2.86584 -2.05549,0.77857 -18.11326,4.84982 -21,5.32429 -1.65,0.27119 -4.9076,1.35476 -7.2391,2.40794 -2.33151,1.05317 -4.96208,1.91486 -5.84571,1.91486 -0.88363,0 -3.02604,0.73926 -4.7609,1.64279 -5.72584,2.98208 -6.61448,3.35721 -7.95289,3.35721 -0.72916,0 -3.18853,0.9 -5.46526,2 -2.27674,1.1 -4.94877,2.01431 -5.93783,2.0318 -0.98907,0.0175 -2.66499,0.6875 -3.72426,1.4889 -1.05927,0.8014 -4.09677,1.74506 -6.75,2.09703 -2.65323,0.35196 -4.82405,0.92668 -4.82405,1.27715 0,0.35047 -3.4875,1.40522 -7.75,2.34389 -15.86435,3.49357 -21.05829,4.31458 -25.25,3.99129 z m -15.403444,-3.07383 c -0.346049,-0.55992 -0.1419,-1.31919 0.453663,-1.68727 1.537485,-0.95021 2.529468,0.35135 1.245982,1.63484 -0.71818,0.71818 -1.277526,0.73543 -1.699645,0.0524 z M 115.5062,448.01003 C 114.60772,446.55625 115.83845,438 116.94605,438 c 0.45293,0 1.13888,-2.5875 1.52434,-5.75 0.4897,-4.01768 1.41822,-6.50922 3.08201,-8.27005 1.98656,-2.10242 2.36842,-3.51104 2.30427,-8.5 -0.10287,-8.00122 1.01212,-13.33936 3.00953,-14.40834 1.01171,-0.54145 6.91665,-0.11642 15.38993,1.10775 15.12103,2.18459 13.79016,2.37227 26.09191,-3.67936 3.35412,-1.65 6.56045,-3.9 7.12518,-5 0.62686,-1.22102 2.19151,-2.08615 4.01717,-2.22118 1.64472,-0.12165 3.14472,-0.68415 3.33334,-1.25 C 183.01234,389.46297 183.80417,389 184.58333,389 185.3625,389 186,388.60459 186,388.12132 c 0,-0.48327 1.4625,-1.46145 3.25,-2.17373 1.7875,-0.71228 4.05503,-2.11687 5.03896,-3.12132 0.98392,-1.00445 2.91054,-1.82627 4.28138,-1.82627 1.50075,0 2.70793,-0.69629 3.03404,-1.75 0.29789,-0.9625 0.96258,-2.5375 1.47709,-3.5 0.6698,-1.253 0.56267,-1.75 -0.37722,-1.75 -0.72198,0 -3.32435,-1.27576 -5.78304,-2.83501 -2.45869,-1.55926 -5.69679,-3.14283 -7.19578,-3.51905 C 188.22644,367.26971 187,366.52047 187,365.98095 c 0,-0.53952 -0.7875,-0.9875 -1.75,-0.9955 -1.99678,-0.0166 -9.23703,-2.37608 -13.90113,-4.53014 C 169.61575,359.65489 167.57838,359 166.82138,359 c -0.757,0 -2.264,-0.61097 -3.34887,-1.35771 -1.08488,-0.74674 -3.77251,-1.91308 -5.97251,-2.59187 -6.7194,-2.0732 -16.90985,-7.14883 -18.57687,-9.25271 -1.21865,-1.53802 -1.40257,-3.04729 -0.80961,-6.64391 0.42199,-2.55959 0.79408,-8.26617 0.82687,-12.68129 0.0422,-5.68417 0.52976,-8.69873 1.67019,-10.32693 l 1.61059,-2.29943 4.13941,4.03179 c 8.94589,8.71331 12.40993,11.34446 19.31129,14.66812 3.94453,1.89967 7.88203,3.45394 8.75,3.45394 0.86797,0 1.57813,0.45 1.57813,1 0,0.55 1.09844,1 2.44098,1 1.34254,0 2.7191,0.45 3.05902,1 0.33992,0.55 1.94148,1 3.55902,1 1.68538,0 2.94157,0.53367 2.94237,1.25 0.001,1.24842 10.19863,4.75 13.83287,4.75 1.05647,0 2.48105,0.675 3.16574,1.5 0.68469,0.825 2.31479,1.5 3.62244,1.5 1.30766,0 2.37756,0.51117 2.37756,1.13592 0,0.77099 1.4457,0.93777 4.5,0.51913 3.48485,-0.47765 4.5,-0.30085 4.5,0.78371 0,2.15159 13.9654,6.14432 25,7.14754 5.66772,0.51529 17.86738,-1.39939 20.47251,-3.21306 C 266.55738,354.61796 268.05203,354 268.79393,354 270.34889,354 273,351.59629 273,350.18644 c 0,-0.52603 -1.125,-1.69355 -2.5,-2.59448 -1.55291,-1.01751 -2.5,-2.57642 -2.5,-4.11501 C 268,342.11463 267.54902,341 266.99781,341 c -0.5512,0 -2.4637,-1.50842 -4.25,-3.35204 -1.78629,-1.84362 -5.16031,-4.40149 -7.49781,-5.68414 -2.3375,-1.28266 -4.25,-2.92424 -4.25,-3.64796 0,-0.72372 -0.5625,-1.31976 -1.25,-1.32453 -0.6875,-0.005 -2.91337,-1.58535 -4.94638,-3.51239 -2.033,-1.92704 -4.56374,-3.83564 -5.62385,-4.24133 -2.01378,-0.77064 -8.58582,-6.09459 -15.41506,-12.48761 -2.20323,-2.0625 -4.86275,-3.75 -5.91004,-3.75 -1.11098,0 -2.30011,-1.04138 -2.85467,-2.5 -0.56705,-1.49145 -1.74014,-2.5 -2.90786,-2.5 -1.07911,0 -2.24218,-0.89739 -2.59214,-2 -0.4056,-1.27793 -1.51303,-2 -3.06739,-2 C 205.02983,294 204,293.41522 204,292.61866 c 0,-2.27727 -6.16256,-7.58708 -10.21452,-8.80108 C 191.18566,283.03866 190,282.10658 190,280.84171 190,279.82877 189.34083,279 188.53518,279 c -0.80565,0 -1.96471,-0.93406 -2.57569,-2.07569 C 184.49042,274.17932 181.2643,271 179.94798,271 c -0.57861,0 -1.52263,-1.35 -2.09782,-3 -0.5752,-1.65 -1.67679,-3 -2.44799,-3 C 174.63098,265 174,264.325 174,263.5 c 0,-0.83333 -0.88889,-1.5 -2,-1.5 -1.1,0 -2,-0.65739 -2,-1.46087 0,-0.80348 -2.70715,-4.29098 -6.01589,-7.75 -6.6474,-6.94932 -7.61108,-9.13859 -6.42374,-14.59342 0.44244,-2.03264 0.86548,-6.62071 0.9401,-10.19571 0.12294,-5.89095 0.34259,-6.53027 2.34415,-6.82303 1.67312,-0.24472 2.4514,0.37375 3.21048,2.55125 0.55109,1.58086 2.38749,3.69272 4.08089,4.69304 1.6934,1.00031 5.23149,3.90225 7.86243,6.44875 2.63093,2.54649 8.2425,7.77999 12.47014,11.62999 4.22765,3.85 9.28327,8.4625 11.23473,10.25 1.95145,1.7875 3.90926,3.25 4.35067,3.25 0.44142,0 3.64736,2.8264 7.12431,6.28089 3.47695,3.45449 7.78423,6.88409 9.57173,7.62132 1.7875,0.73724 3.25,1.69517 3.25,2.12874 0,0.43357 3.15361,2.86592 7.00801,5.40521 3.85441,2.5393 9.87966,7.41746 13.38944,10.84037 8.90986,8.68932 12.46226,11.72347 13.72591,11.72347 0.59884,0 1.97372,1.125 3.0553,2.5 1.08158,1.375 2.57851,2.5 3.32653,2.5 0.74802,0 1.64568,0.9 1.99481,2 0.34913,1.1 1.50445,2 2.56739,2 1.06293,0 1.93261,0.45 1.93261,1 0,0.55 0.91496,1 2.03324,1 3.16238,0 11.10345,4.41029 16.27453,9.03851 2.58073,2.3098 4.69223,4.56144 4.69223,5.00364 0,1.11394 5.94392,6.95785 7.07692,6.95785 0.5077,0 0.92308,0.39752 0.92308,0.88337 0,1.58297 4.42356,2.09025 7.75,0.88875 1.7875,-0.64564 3.25,-1.51311 3.25,-1.9277 0,-0.41458 1.61093,-1.05601 3.57984,-1.42538 1.96891,-0.36937 3.81705,-1.28976 4.10699,-2.04531 0.28993,-0.75555 1.16813,-1.37373 1.95154,-1.37373 0.78342,0 1.68342,-0.675 2,-1.5 0.31659,-0.825 1.10245,-1.5 1.74638,-1.5 1.31846,0 4.61525,-3.53166 4.61525,-4.94404 0,-0.50665 1.0125,-1.24088 2.25,-1.63162 1.2375,-0.39074 2.97778,-1.54606 3.8673,-2.56739 0.88951,-1.02132 2.05097,-1.85695 2.58102,-1.85695 0.53004,0 1.5658,-1.125 2.30168,-2.5 0.73588,-1.375 1.93692,-2.5 2.66898,-2.5 0.73206,0 1.33618,-0.3375 1.34249,-0.75 0.006,-0.4125 1.80631,-1.6099 4,-2.66088 4.57009,-2.1895 5.10446,-4.21435 1.47624,-5.59379 -1.38176,-0.52535 -3.00638,-2.03959 -3.61027,-3.36498 -0.60389,-1.32539 -2.18599,-2.90554 -3.51578,-3.51143 -1.32978,-0.60589 -2.67831,-1.78051 -2.99671,-2.61027 C 341.04654,292.67889 339.93417,292 338.89301,292 337.85186,292 337,291.55 337,291 c 0,-0.55 -0.675,-1 -1.5,-1 -0.825,0 -1.5,-0.38274 -1.5,-0.85052 C 334,288.19352 324.39467,282 322.91212,282 c -0.52525,0 -1.4326,-1.0125 -2.01633,-2.25 -1.11513,-2.36404 -7.14828,-6.75 -9.28502,-6.75 -0.68781,0 -2.76265,-1.35 -4.61077,-3 -1.84812,-1.65 -3.75312,-3 -4.23333,-3 -0.48022,0 -4.26417,-2.5078 -8.40878,-5.57288 -4.14461,-3.06509 -8.14703,-5.33828 -8.89427,-5.05153 -0.74723,0.28674 -3.06974,-1.06382 -5.16111,-3.00125 -2.09138,-1.93743 -5.68077,-4.39515 -7.97643,-5.46161 -2.97861,-1.38373 -4.69687,-3.05575 -6,-5.83856 -1.00434,-2.14475 -3.17608,-4.69908 -4.82608,-5.67628 -2.77126,-1.64126 -12.85189,-11.55186 -25,-24.57831 -2.75,-2.94883 -6.76802,-8.80894 -8.92894,-13.02247 -3.38745,-6.6051 -3.74223,-7.88593 -2.57421,-9.29332 0.95118,-1.14609 2.12158,-1.42583 3.92895,-0.93904 4.21672,1.13572 46.41914,0.49515 47.16763,-0.71592 0.45588,-0.73763 21.50611,-0.95281 68.98578,-0.70519 l 68.32971,0.35636 2.23874,2.23865 c 1.87113,1.87106 2.94786,2.14146 6.55723,1.64674 3.44716,-0.47248 4.82056,-0.18018 6.8068,1.4487 2.12528,1.7429 2.30501,2.30506 1.23195,3.85326 -0.69101,0.99696 -1.56233,2.46814 -1.93629,3.26929 -0.37395,0.80115 -1.60859,2.52395 -2.74363,3.82844 C 422.77866,206.9859 422.39526,214 425.00536,214 c 1.00538,0 1.97797,0.40378 2.16131,0.89728 0.18333,0.4935 3.48333,1.17137 7.33333,1.50637 16.3987,1.4269 28.13452,3.58401 31.0101,5.69982 1.80425,1.32754 22.75106,4.07335 31.9899,4.19338 10.86307,0.14113 13.62405,-0.95733 21.95775,-8.73594 3.27676,-3.0585 6.31426,-5.56091 6.75,-5.56091 0.43574,0 0.79225,-0.45 0.79225,-1 0,-1.64184 3.14828,-4.30765 12.06025,-10.212 10.32725,-6.84202 14.66198,-8.69396 20.74562,-8.86326 10.08199,-0.28056 41.72132,0.71056 42.19413,1.32175 0.61879,0.7999 -7.03334,6.68741 -8.74153,6.72569 -0.68284,0.0153 -1.80281,0.92658 -2.48882,2.02506 -0.83841,1.34251 -2.80236,2.20352 -5.99103,2.62651 -2.60905,0.34611 -5.25668,1.24735 -5.88362,2.00277 -0.62694,0.75541 -1.66747,1.37348 -2.3123,1.37348 -0.64482,0 -3.60704,2.25 -6.5827,5 -2.97566,2.75 -5.88048,5.00988 -6.45515,5.02196 -1.39287,0.0293 -8.08758,3.3589 -13.04485,6.48787 -2.2,1.38862 -4.9,2.93027 -6,3.42589 -1.1,0.49563 -4.21545,2.96285 -6.92323,5.48271 C 534.869,235.93829 532.07233,238 531.36196,238 c -0.71038,0 -1.77326,0.9 -2.36196,2 -0.5887,1.1 -1.62953,2 -2.31294,2 -1.59252,0 -4.39883,3.26484 -4.85866,5.65252 -0.25101,1.30338 -2.05368,2.29401 -6.14876,3.37894 -3.18649,0.84422 -6.10548,1.97 -6.48664,2.50174 -1.15032,1.60479 -5.18034,3.57146 -10.58169,5.16392 -2.81122,0.82882 -5.57779,1.88644 -6.14794,2.35027 -0.57014,0.46383 -5.07014,1.33436 -10,1.9345 -9.27512,1.12912 -12.60536,1.84716 -13.46337,2.90289 -0.80332,0.98844 -4.35112,3.1233 -6.25,3.76088 -0.9625,0.32318 -1.75,0.98512 -1.75,1.47097 0,0.48585 -0.45871,0.88337 -1.01936,0.88337 -0.56064,0 -3.25016,1.6875 -5.97669,3.75 -3.49284,2.64217 -4.83563,4.29964 -4.54536,5.61054 0.25294,1.14228 -0.23862,2.03406 -1.2733,2.31 -0.92691,0.2472 -2.92667,2.18725 -4.4439,4.31122 -1.51724,2.12396 -4.52701,4.68446 -6.68838,5.69 -2.81378,1.30905 -4.01827,2.5382 -4.24139,4.32824 -0.27195,2.18176 -0.73479,2.45877 -3.63591,2.17608 -2.65047,-0.25826 -3.43179,0.0872 -3.85462,1.70408 -0.42806,1.6369 -1.08822,1.91641 -3.42323,1.44941 -1.64661,-0.32932 -3.52187,-0.0566 -4.35286,0.63309 -0.80298,0.66641 -3.1666,1.31059 -5.25248,1.4315 -2.08589,0.12092 -4.91752,0.73677 -6.29252,1.36856 -1.375,0.63179 -5.05292,1.64336 -8.17316,2.24794 -3.12023,0.60458 -6.17619,1.70535 -6.79101,2.44617 -0.61483,0.74082 -2.2313,1.6264 -3.59216,1.96795 -2.81921,0.70758 -4.95696,2.30596 -11.13453,8.32522 -2.39897,2.3375 -5.29206,4.25 -6.42908,4.25 -1.13701,0 -2.27424,0.79134 -2.52717,1.75853 -0.25292,0.9672 -2.23579,2.78064 -4.40638,4.02986 C 360.77593,333.03762 359,334.49628 359,335.02986 359,335.56344 358.53178,336 357.95951,336 c -1.51797,0 -6.99272,4.0704 -9.75137,7.25 -1.31226,1.5125 -3.16107,2.75 -4.10847,2.75 -0.9474,0 -2.5949,0.80994 -3.66111,1.79986 -1.06621,0.98993 -3.96356,2.90243 -6.43856,4.25 -2.475,1.34758 -5.09464,3.01264 -5.82143,3.70014 -0.72678,0.6875 -1.85178,1.26001 -2.5,1.27224 -0.64821,0.0122 -2.27581,0.86558 -3.61689,1.89635 -1.34107,1.03076 -3.00656,1.65606 -3.70107,1.38955 -1.16994,-0.44895 -8.44152,4.24946 -9.19337,5.94014 -0.18302,0.41155 -1.34141,0.49513 -2.5742,0.18571 -1.38679,-0.34806 -2.73646,0.0339 -3.53969,1.00172 C 302.33932,368.29607 300.91021,369 299.87756,369 298.67345,369 298,369.70968 298,370.97856 c 0,1.74755 -0.29189,1.84557 -2.5,0.83949 -3.26952,-1.4897 -7.5,0.29304 -7.5,3.16051 0,2.60722 -1.60961,2.62229 -2.28975,0.0214 C 285.18451,372.98958 282,372.13128 282,374 c 0,0.55 -1.125,1 -2.5,1 -1.375,0 -2.5,0.45 -2.5,1 0,0.55 -0.88417,1 -1.96482,1 -1.08065,0 -2.42476,0.85941 -2.98691,1.9098 -0.62773,1.17292 -1.7247,1.72607 -2.84307,1.43361 -2.8396,-0.74257 -15.13233,2.45411 -17.94496,4.66653 -1.41985,1.11685 -4.04992,1.99006 -5.99397,1.99006 -1.90521,0 -5.10702,0.72838 -7.11514,1.61863 -8.52821,3.78076 -9.98941,4.38137 -10.65929,4.38137 -0.65549,0 -4.63966,1.79024 -19.99184,8.98308 -3.3,1.54613 -7.125,3.31222 -8.5,3.92465 -1.375,0.61243 -3.85,2.00378 -5.5,3.09188 -1.65,1.0881 -3.675,2.29293 -4.5,2.67741 -0.825,0.38447 -1.95,1.23977 -2.5,1.90067 -0.55,0.66089 -2.8,1.77022 -5,2.46517 -2.2,0.69495 -4.58802,2.09461 -5.3067,3.11034 -0.71869,1.01574 -2.10275,1.8468 -3.07569,1.8468 -0.97294,0 -2.82586,1.125 -4.11761,2.5 -1.29175,1.375 -3.06735,2.5 -3.94578,2.5 -0.87843,0 -4.28749,1.78728 -7.57569,3.97173 -3.28819,2.18445 -6.71789,3.98445 -7.62154,4 -0.90366,0.0156 -1.90203,0.70327 -2.21862,1.52827 -0.31658,0.825 -1.27083,1.5 -2.12055,1.5 -0.84973,0 -2.32635,0.3922 -3.28139,0.87155 -19.29999,9.687 -25.54528,12.05577 -26.73023,10.13848 z M 384.55,288.13969 c 0.5225,-0.47318 3.425,-1.69026 6.45,-2.70464 3.025,-1.01438 6.21043,-2.42724 7.07874,-3.13969 0.86831,-0.71245 1.99331,-1.29679 2.5,-1.29854 0.50669,-0.002 3.62126,-1.80032 6.92126,-3.99682 3.3,-2.1965 6.34652,-3.99507 6.77004,-3.99682 0.42352,-0.002 4.62997,-1.85419 9.34767,-4.11653 6.48116,-3.108 10.08135,-5.6624 14.72997,-10.45117 C 450.96904,245.43359 451.86466,244 447.36602,244 444.35001,244 436.74624,241.93459 436,240.91264 c -0.463,-0.63406 -6.25728,-1.07208 -32.45192,-2.45324 -5.47356,-0.2886 -12.89856,-0.95111 -16.5,-1.47225 C 383.44664,236.466 377.4625,236.0307 373.75,236.01981 369.92987,236.0086 367,235.56594 367,235 c 0,-0.55 -1.6875,-1.00807 -3.75,-1.01794 -5.62369,-0.0269 -26.38993,-3.56999 -34.25,-5.84366 -1.925,-0.55684 -6.425,-1.77225 -10,-2.70092 -3.575,-0.92867 -8.63652,-2.31583 -11.24782,-3.08258 -2.6113,-0.76675 -5.8738,-1.1115 -7.25,-0.76609 -1.89275,0.47505 -2.50218,0.23626 -2.50218,-0.9804 0,-2.08856 -2.84023,-2.06298 -5.17126,0.0466 -2.72084,2.46233 -2.2121,5.53076 1.38359,8.34501 1.7568,1.375 3.89021,3.32354 4.74092,4.33009 3.91983,4.63789 6.02672,6.66991 6.91567,6.66991 0.53043,0 1.11441,0.40316 1.29775,0.89592 0.38911,1.04585 12.35551,9.1009 13.53473,9.11076 0.43923,0.004 3.7236,2.2746 7.2986,5.0465 3.575,2.77191 8.83271,6.58867 11.6838,8.48171 2.8511,1.89303 5.43434,3.84725 5.74055,4.34271 0.30622,0.49546 1.78309,1.20863 3.28194,1.58482 1.49886,0.37619 4.76561,2.15596 7.25945,3.95505 2.49384,1.79909 7.1074,4.55288 10.25235,6.11955 3.14496,1.56667 6.74496,3.78066 8,4.91999 4.03828,3.66593 8.56766,5.28037 10.33191,3.68268 z M 448.55887,406.4682 C 447.49125,405.66069 444.70531,405 442.36789,405 c -2.33742,0 -4.52994,-0.45318 -4.87226,-1.00706 -1.03792,-1.6794 2.30838,-2.28597 6.60068,-1.19646 3.59406,0.91227 3.98525,0.84082 3.47252,-0.6342 -0.3178,-0.91425 0.5492,-0.39969 1.92668,1.14348 3.76727,4.22044 3.16238,6.26278 -0.93664,3.16244 z"
       id="path2999"
       inkscape:connector-curvature="0" />
    <path
       style="fill:#1d1718"
       d="m 502.6189,768.2711 c -1.5846,-0.23609 -3.9871,-1.74366 -5.33889,-3.35017 C 495.92822,763.31442 494.21058,762 493.46302,762 c -0.74755,0 -4.07049,-2.25637 -7.38431,-5.01416 -3.31382,-2.75779 -9.11877,-6.56675 -12.8999,-8.46437 -3.78113,-1.89762 -7.44829,-4.14124 -8.14924,-4.98584 C 464.32862,742.69103 463.20496,742 462.53254,742 c -0.67241,0 -2.07981,-0.95311 -3.12755,-2.11803 -1.04775,-1.16492 -2.67735,-2.40675 -3.62135,-2.75963 -1.55716,-0.58209 -8.26151,-6.19206 -15.98098,-13.37234 -1.62608,-1.5125 -3.50741,-2.75 -4.18075,-2.75 -1.79307,0 -12.71401,-7.33144 -15.62191,-10.48729 -3.31865,-3.60163 -12.12637,-7.96614 -19.29564,-9.56162 -3.18761,-0.70938 -6.02667,-1.66357 -6.30902,-2.12043 C 394.11298,698.3738 390.95394,698 387.37524,698 c -3.5787,0 -7.48964,-0.52745 -8.69098,-1.17212 -1.20134,-0.64467 -4.88426,-1.28517 -8.18426,-1.42334 -7.43667,-0.31136 -13.64204,-1.35509 -15.12836,-2.54454 -0.67765,-0.5423 -2.20157,-0.49496 -3.8151,0.1185 -3.54915,1.34939 -3.55654,1.34718 -3.55654,-1.06183 0,-1.24445 -0.50333,-1.89878 -1.25,-1.625 -0.6875,0.25208 -1.1375,0.96458 -1,1.58333 0.37804,1.70117 -3.32054,1.34739 -4.82154,-0.4612 -0.82294,-0.99158 -2.27461,-1.4062 -3.87245,-1.10603 -1.4058,0.2641 -4.8721,-0.25989 -7.70287,-1.16442 -3.79212,-1.21171 -8.53,-1.61033 -18,-1.51442 -7.06923,0.0716 -13.37626,-0.28805 -14.01563,-0.79921 -1.84673,-1.47638 -31.98776,-1.44041 -38.6631,0.0461 -10.575,2.35498 -27.97234,1.41347 -34.67441,-1.87652 -1.925,-0.94497 -5.46144,-2.01954 -7.85876,-2.38794 -2.39732,-0.3684 -6.19435,-1.55667 -8.43783,-2.64061 -2.24349,-1.08393 -4.909,-1.97079 -5.92336,-1.97079 -1.01436,0 -3.51733,-0.7287 -5.56217,-1.61933 C 194.17305,675.49 191.375,674.62654 190,674.46185 c -1.375,-0.1647 -5.2,-0.76619 -8.5,-1.33665 -10.48947,-1.81328 -51.4023,-1.55628 -53.29335,0.33478 -0.75358,0.75358 2.07915,2.76065 9.29335,6.58457 3.3,1.74919 8.025,4.43508 10.5,5.96866 2.475,1.53357 6.975,3.79294 10,5.02081 3.025,1.22788 7.3584,3.08648 9.62977,4.13023 4.41768,2.03002 11.33677,4.51237 28.87023,10.35771 6.05,2.01696 13.7,4.72943 17,6.02772 3.3,1.29828 9.6,3.27005 14,4.38169 14.67861,3.70849 44.1103,14.62329 51.5,19.09886 6.7525,4.08966 27.81985,12.86397 37.35302,15.55712 C 329.51268,754.30502 347,763.21027 347,766.19406 c 0,0.48625 -5.0625,0.87108 -11.25,0.85517 -6.1875,-0.0159 -16.875,0.0431 -23.75,0.13112 -13.47266,0.17249 -13.30414,0.21705 -26.5,-7.00728 C 273.00312,753.33142 266.17223,750 264.64069,750 c -0.64367,0 -2.84951,-0.9 -4.90187,-2 -2.05237,-1.1 -4.63492,-2 -5.73902,-2 -1.1041,0 -6.39323,-2.06202 -11.75363,-4.58227 -5.36039,-2.52025 -13.12117,-6.1735 -17.24617,-8.11833 -4.125,-1.94483 -7.725,-3.86449 -8,-4.26591 -0.275,-0.40142 -2.525,-1.04287 -5,-1.42546 -2.475,-0.38258 -6.15109,-1.78318 -8.16908,-3.11245 -2.01799,-1.32927 -4.94299,-2.69715 -6.5,-3.03974 C 194.59067,720.85292 188.01808,718.01808 187,717 c -0.275,-0.275 -0.95,-0.5 -1.5,-0.5 -0.55,0 -3.475,-1.16016 -6.5,-2.57814 C 173.27097,711.23636 164.04356,708 162.11579,708 c -2.32472,0 -0.93143,3.63591 4.475,11.67793 3.07493,4.57394 5.96344,8.54657 6.41891,8.82806 0.45547,0.2815 2.52181,3.54531 4.59188,7.25291 2.07006,3.70761 5.481,8.44544 7.57985,10.52852 5.80941,5.76575 9.73106,14.6181 7.83501,17.68598 -0.71499,1.15688 -3.12539,1.4055 -11.70839,1.20767 -10.40315,-0.23979 -10.89207,-0.35087 -13.05085,-2.9651 C 166.23771,759.77043 158,743.89667 158,742.45074 c 0,-0.32472 -1.39603,-2.61945 -3.10229,-5.09941 -1.70626,-2.47996 -3.85905,-6.61104 -4.78398,-9.18018 -1.74816,-4.85576 -6.28581,-12.54143 -8.04723,-13.63005 -0.55799,-0.34486 -1.65898,-2.74519 -2.44663,-5.33406 -2.95332,-9.70702 -4.01134,-11.1997 -10.47938,-14.7846 -3.39621,-1.88234 -7.62968,-3.43232 -9.40771,-3.4444 -1.77803,-0.0121 -5.20001,-0.91458 -7.6044,-2.00556 -2.40439,-1.09098 -6.78781,-2.26757 -9.74094,-2.61465 -2.95312,-0.34709 -5.882263,-1.24913 -6.509201,-2.00454 -0.626938,-0.75542 -3.668517,-2.07366 -6.759063,-2.92944 -8.010101,-2.21799 -10.909825,-3.43591 -11.434227,-4.80248 -0.252319,-0.65753 0.08549,-4.66482 0.750677,-8.90508 0.839146,-5.34915 1.87611,-8.41922 3.386906,-10.02738 C 83.020139,656.41411 84,654.86416 84,654.24457 c 0,-2.12919 1.798111,-2.21636 13.634732,-0.66099 8.695008,1.14256 17.743408,1.45566 33.865268,1.17185 44.20312,-0.77815 73.04056,2.38787 90.22898,9.9061 13.34943,5.83905 17.42676,5.78847 52.77102,-0.65467 16.06073,-2.92782 26.89042,-2.14616 48,3.46448 14.47851,3.8482 35.85961,4.67161 96.5,3.71633 7.425,-0.11696 21.825,0.30918 32,0.947 10.175,0.63781 21.34237,1.27991 24.81638,1.42688 3.47401,0.14697 9.54901,0.95455 13.5,1.79462 3.95099,0.84007 11.00862,1.79163 15.68362,2.11457 4.675,0.32294 12.55,1.44214 17.5,2.4871 13.40233,2.82928 24.87153,4.97335 35.5,6.63644 5.225,0.81758 11.975,2.03084 15,2.69612 3.69875,0.81345 16.54115,1.2096 39.21342,1.2096 38.8849,0 37.13989,0.41443 36.92815,-8.77023 -0.0689,-2.9876 -0.80391,-7.35558 -1.6334,-9.70661 -3.5118,-9.95349 -0.33028,-9.41838 10.48952,1.76429 13.32568,13.77258 22.33498,17.65275 35.7554,15.39931 9.13219,-1.5334 23.75812,-2.99415 34.74557,-3.47019 4.52929,-0.19623 5.00928,-0.009 5.11176,1.99798 0.0622,1.21801 0.85031,3.33967 1.75134,4.71482 3.92533,5.9908 0.11085,8.60834 -14.36176,9.85524 -1.375,0.11846 -2.69659,0.44039 -2.93686,0.71539 -0.84224,0.96398 3.13752,5.92865 5.27632,6.58211 1.1883,0.36305 4.18554,2.09185 6.66054,3.84176 2.475,1.74992 6.66986,4.22622 9.3219,5.50291 2.65205,1.27668 5.18239,3.27794 5.62298,4.44723 1.1834,3.14065 0.96108,27.32245 -0.28864,31.3944 -1.40079,4.5642 -4.7276,5.93426 -16.21567,6.67798 -44.7441,2.89668 -75.10059,4.43433 -94.1485,4.76891 l -16.20793,0.2847 -6.30788,-6.75 c -3.46934,-3.7125 -6.78213,-6.75 -7.36177,-6.75 -0.57964,0 -4.51763,-3.375 -8.75108,-7.5 -4.23345,-4.125 -8.13829,-7.5 -8.67742,-7.5 C 585.39258,738 578,730.89114 578,729.35889 c 0,-0.77462 -1.13561,-1.84015 -2.52358,-2.36786 -1.38798,-0.5277 -7.12548,-5.61984 -12.75,-11.31586 -9.80328,-9.92789 -10.49537,-10.42234 -16.72642,-11.95001 -3.575,-0.87649 -9.35078,-1.84531 -12.83507,-2.15294 -3.48429,-0.30764 -6.80505,-0.8498 -7.37947,-1.20481 -0.57442,-0.35502 -3.79864,-0.78272 -7.16493,-0.95046 -3.36629,-0.16774 -10.02895,-1.00241 -14.80591,-1.85482 -4.77696,-0.85241 -11.75196,-1.8331 -15.5,-2.17932 -3.74804,-0.34621 -9.06462,-1.2722 -11.81462,-2.05776 -2.75,-0.78555 -6.575,-1.56647 -8.5,-1.73538 -1.925,-0.16891 -8.225,-0.87581 -14,-1.57087 -5.775,-0.69507 -13.74063,-0.99124 -17.7014,-0.65814 -4.32486,0.36371 -7.44412,0.21291 -7.80902,-0.37752 C 427.54292,687.4514 425,687.82805 425,689.5 c 0,2.39896 8.74093,8.91242 17.89654,13.33592 4.23016,2.04379 8.2765,4.83133 18.38296,12.66408 2.83862,2.2 7.03282,5.35 9.32043,7 2.28762,1.65 8.44018,6.2625 13.67236,10.25 5.23218,3.9875 9.89885,7.25251 10.37038,7.25557 0.47153,0.003 4.00733,2.52263 7.85733,5.59903 3.85,3.0764 8.125,6.19781 9.5,6.93647 3.85183,2.06923 12,11.08017 12,13.27063 0,1.18212 -0.88953,2.19342 -2.25,2.55801 -2.44406,0.65499 -14.48965,0.59289 -19.1311,-0.0986 z M 681,752.46696 c 9.48519,-0.62139 15.16979,-2.35183 25.09027,-7.63768 8.5879,-4.57583 13.48324,-8.89236 12.62403,-11.13143 -0.56213,-1.46489 -14.21568,-12.10881 -19.65189,-15.32006 C 697.37808,717.38284 696,716.2704 696,715.90571 c 0,-0.36469 -1.35,-1.22226 -3,-1.90571 -1.65,-0.68345 -3,-1.63805 -3,-2.12132 C 690,711.39541 689.3801,711 688.62244,711 c -0.75765,0 -1.92095,-0.65476 -2.5851,-1.45501 -1.60923,-1.939 -14.13037,-8.78529 -14.81509,-8.10057 -0.29603,0.29602 -1.0851,0.0844 -1.75349,-0.47035 -0.6684,-0.55472 -1.9473,-0.72767 -2.84201,-0.38433 -2.07303,0.79549 -2.28571,8.22016 -0.25777,8.99836 2.3341,0.89568 2.8087,10.18944 0.8381,16.4119 -2.61343,8.25227 -8.03411,17.63069 -11.89064,20.57221 -1.92319,1.46689 -3.29089,3.32193 -3.11658,4.22708 0.59129,3.07031 4.20002,3.27927 28.80014,1.66767 z M 632.5746,738.5109 c 1.79485,-1.369 4.6053,-4.9667 6.24543,-7.99488 2.93396,-5.41698 7.69524,-19.33408 6.89,-20.13932 -0.22647,-0.22648 -3.56775,0.0358 -7.42505,0.58288 -3.85731,0.54707 -15.06192,1.00749 -24.89913,1.02316 -18.7703,0.0299 -25.45599,0.72769 -26.12223,2.7264 -0.42066,1.26198 8.26979,7.23912 10.5729,7.27186 1.57863,0.0224 9.8877,5.67411 12.45873,8.47419 0.98739,1.07535 2.68552,3.39566 3.77362,5.15624 3.35918,5.43527 13.16652,6.97188 18.50573,2.89947 z m 81.00636,-73.25284 c -2.70547,-0.2098 -5.8431,-1.02869 -6.9725,-1.81975 C 705.47905,662.64724 702.36205,662 699.68179,662 c -2.68027,0 -6.06764,-0.6079 -7.5275,-1.35088 -1.45986,-0.74299 -5.80429,-2.38174 -9.65429,-3.64168 -3.85,-1.25994 -9.475,-3.57607 -12.5,-5.14697 -3.025,-1.5709 -6.00181,-2.85715 -6.61514,-2.85833 -0.61333,-0.001 -2.18833,-0.83327 -3.5,-1.8491 -1.31167,-1.01582 -4.0946,-2.11614 -6.18428,-2.44515 -2.08968,-0.329 -8.16468,-1.9358 -13.5,-3.57066 -5.33532,-1.63486 -12.62558,-3.73739 -16.20058,-4.67228 -3.575,-0.9349 -8.3,-2.48953 -10.5,-3.45473 -4.7471,-2.08269 -22.72424,-7.3875 -30.5,-9.00013 -12.79006,-2.65257 -33.3257,-5.13661 -44.5,-5.38283 -6.6,-0.14543 -16.95,-0.58424 -23,-0.97514 -6.05,-0.3909 -14.15,-0.87057 -18,-1.06593 -3.85,-0.19535 -14.2,-0.88196 -23,-1.52578 -8.8,-0.64383 -20.725,-1.32149 -26.5,-1.50592 -5.775,-0.18443 -11.625,-0.40042 -13,-0.47999 -1.375,-0.0796 -5.6099,-0.15476 -9.41089,-0.1671 -4.06845,-0.0132 -8.07506,-0.62445 -9.74137,-1.48614 -1.55676,-0.80503 -3.85209,-1.20729 -5.10073,-0.8939 -1.24863,0.31339 -4.06501,-0.18509 -6.25862,-1.10772 -4.17595,-1.7564 -9.38477,-2.64717 -25.98839,-4.44429 -5.5,-0.5953 -11.45544,-1.54086 -13.2343,-2.10123 -1.77887,-0.56037 -4.20106,-0.71202 -5.38265,-0.337 -2.84693,0.90358 -49.79589,0.88393 -61.90948,-0.0259 -12.25193,-0.92024 -38.37348,-0.90746 -52.54035,0.0257 -12.67249,0.83473 -30.43495,-0.66158 -43.36577,-3.65311 -4.63791,-1.07297 -10.58169,-2.16479 -13.2084,-2.42626 -2.62672,-0.26147 -6.03207,-0.97043 -7.56745,-1.57548 -1.53538,-0.60504 -5.7166,-1.4771 -9.2916,-1.93791 -3.575,-0.46081 -10.775,-1.6163 -16,-2.56775 -6.06996,-1.10532 -14.91585,-1.75636 -24.5,-1.80315 -14.97472,-0.0731 -21.50619,0.88616 -34.284947,5.03543 C 92.102585,595.2687 92,595.27639 92,594 c 0,-0.55 0.675,-1 1.5,-1 0.825,0 1.5,-0.675 1.5,-1.5 0,-0.825 -0.489554,-1.5 -1.087898,-1.5 -0.699863,0 -0.868397,-1.33756 -0.472505,-3.75 0.338467,-2.0625 0.994362,-7.94384 1.457547,-13.06965 0.463184,-5.1258 1.291914,-9.76941 1.841623,-10.31912 0.549709,-0.54971 4.095863,-1.6614 7.880353,-2.47043 3.78448,-0.80903 10.48088,-2.56359 14.88088,-3.89903 20.78239,-6.30763 28.74106,-8.6053 32.70357,-9.44153 2.36303,-0.49868 7.67143,-1.82802 11.79643,-2.95409 4.125,-1.12607 11.1,-2.74275 15.5,-3.59262 4.4,-0.84988 14.3,-3.35048 22,-5.5569 7.7,-2.20642 17.375,-4.90051 21.5,-5.98687 4.125,-1.08636 8.625,-2.36953 10,-2.8515 1.375,-0.48197 4.525,-1.43069 7,-2.10826 2.475,-0.67757 5.625,-1.57757 7,-2 1.375,-0.42243 4.525,-1.33373 7,-2.02512 5.96929,-1.66753 16.0033,-4.96038 18.5,-6.07113 6.37665,-2.8369 24.32762,-7.38719 36.71,-9.30541 3.88577,-0.60197 15.3993,-4.74566 19.94429,-7.1779 1.45986,-0.78124 3.31726,-1.42044 4.12756,-1.42044 0.81029,0 2.06538,-0.71346 2.78909,-1.58547 0.7237,-0.87201 3.0288,-2.27087 5.12244,-3.10858 C 343.28702,490.46824 345,489.39742 345,488.92636 345,487.91513 361.16541,477 362.66305,477 c 0.56484,0 1.84146,-0.9 2.83695,-2 0.99549,-1.1 2.83867,-2 4.09597,-2 1.2573,0 2.53033,-0.39534 2.82896,-0.87853 0.29863,-0.48319 6.73769,-1.20319 14.30902,-1.59999 9.30871,-0.48786 14.26357,-1.16241 15.30259,-2.08328 0.8451,-0.749 4.35806,-2.02004 7.80658,-2.82452 3.44852,-0.80449 6.80708,-1.88713 7.46346,-2.40587 0.65638,-0.51875 3.55568,-1.7138 6.44288,-2.65568 2.88721,-0.94188 5.81221,-2.4664 6.5,-3.38782 1.24582,-1.66899 9.09586,-5.76269 15.75054,-8.21371 1.925,-0.70901 4.4,-2.29511 5.5,-3.52467 1.1,-1.22957 3.64771,-2.75017 5.66157,-3.37912 2.01387,-0.62895 3.91224,-1.79678 4.21862,-2.59518 0.30637,-0.7984 1.37104,-1.45163 2.36592,-1.45163 0.99488,0 2.69651,-0.62092 3.78138,-1.37982 6.88993,-4.8197 44.11982,-14.58817 68.97251,-18.09718 14.71166,-2.07717 35.77618,-4.72709 37.5,-4.71751 0.825,0.005 6.45,-0.84989 12.5,-1.89885 10.6198,-1.84128 14.13919,-2.61261 38,-8.32826 30.2555,-7.24744 49.17546,-10.40762 53.15883,-8.87906 2.60776,1.00069 3.88144,13.16041 1.61581,15.42604 -0.56724,0.56724 -4.34859,1.44078 -8.40299,1.9412 -7.56452,0.93365 -15.44975,2.53164 -19.87165,4.0271 -1.375,0.46502 -5.65,1.32647 -9.5,1.91434 -6.02253,0.9196 -10.2601,1.85756 -16.36262,3.62174 -2.47933,0.71676 0.6329,3.07835 5.64286,4.28186 5.91909,1.42191 12.21976,4.12386 12.21976,5.24027 0,0.46647 0.61901,0.84813 1.37557,0.84813 2.125,0 11.07027,4.2017 22.6603,10.64382 5.79472,3.2209 13.29844,7.16027 16.67491,8.75416 l 6.13905,2.89798 1.56039,6.90963 c 1.42344,6.30314 1.41993,7.124 -0.0399,9.35202 -1.86164,2.84121 -2.82842,2.97342 -6.75782,0.92419 -1.58814,-0.82824 -5.41314,-2.22491 -8.5,-3.10371 -3.08686,-0.8788 -6.96248,-2.15678 -8.61248,-2.83995 -1.65,-0.68316 -4.8,-1.72717 -7,-2.32 -4.89302,-1.31852 -14.93496,-4.82609 -19,-6.63654 -1.65,-0.73487 -4.35,-1.7956 -6,-2.35719 -1.65,-0.5616 -5.25,-1.91574 -8,-3.00921 -7.10821,-2.82642 -10.79299,-4.03369 -21,-6.88039 -9.0245,-2.5169 -14.22939,-4.43213 -24.53231,-9.02711 -5.51925,-2.46152 -5.55198,-2.46362 -13.86047,-0.88752 C 563.52673,435.28908 557.99127,436 555.8062,436 c -9.50211,0 1.19146,4.63403 11.31558,4.90357 8.01653,0.21344 24.84006,5.31421 38.59797,11.70263 2.87086,1.33307 7.28505,2.70685 9.80932,3.05284 7.49707,1.02759 24.59669,10.61466 29.48195,16.52935 0.83106,1.00618 2.92854,2.61291 4.66107,3.57051 1.73253,0.95761 5.32758,2.98692 7.98899,4.50959 2.6614,1.52268 7.31392,4.16765 10.33892,5.87772 5.68517,3.2139 15.00486,6.17618 23.21778,7.37981 2.59478,0.38027 5.20521,1.27872 5.80096,1.99656 1.62069,1.95281 2.36725,14.49516 1.06192,17.84051 -0.96438,2.47156 -1.49072,2.77152 -3.84891,2.1935 -1.50246,-0.36827 -4.98175,-1.04461 -7.73175,-1.50298 -2.75,-0.45836 -6.35,-1.54828 -8,-2.42203 -3.56801,-1.88944 -22.06232,-10.46793 -25.19368,-11.68596 -3.46495,-1.34779 -13.51236,-8.4859 -16.80632,-11.93993 -4.38687,-4.60005 -8.23739,-6.70323 -19.19528,-10.48461 -5.3926,-1.86089 -12.95472,-4.51273 -16.80472,-5.89297 -9.20014,-3.2983 -30.47202,-8.52005 -37.46187,-9.19602 C 549.9326,461.1647 534.2409,458.1988 533.39438,456.82911 533.11255,456.3731 531.62838,456 530.09621,456 c -1.53217,0 -5.44311,-0.88894 -8.69098,-1.97541 -3.24788,-1.08648 -7.7082,-1.98648 -9.91183,-2 -2.20363,-0.0135 -5.52364,-0.45967 -7.37779,-0.99143 -4.79944,-1.37646 -18.09094,0.66061 -20.2759,3.10751 -0.91316,1.02263 -2.03816,1.87085 -2.5,1.88493 -0.46184,0.0141 -3.25246,1.56297 -6.20138,3.44199 -3.57592,2.27854 -7.16588,3.64182 -10.7788,4.09323 -3.8202,0.4773 -7.18735,1.82097 -11.42208,4.558 -3.30271,2.13465 -6.33974,3.88118 -6.74895,3.88118 -0.40921,0 -1.51462,0.9 -2.45647,2 -0.94185,1.1 -2.95436,2.01431 -4.47224,2.0318 -3.53074,0.0407 -6.53373,2.30722 -6.0925,4.59837 0.36512,1.89587 1.79682,2.3063 22.33271,6.40212 10.8195,2.15792 23.09659,6.10139 26.97251,8.66371 1.08487,0.7172 3.05767,1.304 4.38398,1.304 1.32631,0 4.03868,0.44811 6.02749,0.99581 1.98881,0.54769 8.56602,2.16479 14.61602,3.59356 6.05,1.42877 12.35,3.16797 14,3.8649 7.80594,3.29709 22.14382,5.8027 35.40701,6.18754 8.12812,0.23584 15.80419,1.02302 19.09299,1.95797 5.88327,1.67252 24.28173,9.19679 37.45449,15.31745 4.42503,2.05607 10.29551,4.52182 13.04551,5.47943 12.65178,4.40564 26.16853,8.57178 27.85935,8.58681 1.02264,0.009 6.64764,1.20902 12.5,2.66651 8.76225,2.18218 13.08299,2.66764 24.47586,2.75 l 13.83521,0.10002 1.25177,3 c 1.70118,4.07705 2.4711,9.60433 1.65169,11.85757 -0.5865,1.61277 -2.11844,1.92095 -11.6247,2.33853 -14.8746,0.6534 -19.68049,0.46585 -29.52437,-1.15219 -14.38061,-2.36373 -35.9642,-7.47003 -39.54777,-9.35629 C 623.07124,552.92118 601.23397,544.77725 595,543.113 c -2.475,-0.66073 -7.65,-2.09201 -11.5,-3.18062 -10.84223,-3.06569 -18.41103,-4.83433 -25.5,-5.95871 -3.575,-0.56704 -7.85,-1.44102 -9.5,-1.9422 -1.65,-0.50117 -5.7,-1.43119 -9,-2.06671 -3.3,-0.63551 -7.03367,-1.56257 -8.29705,-2.06012 C 529.93957,527.40709 527.94541,527 526.77148,527 c -2.30232,0 -23.10372,-5.94077 -31.27148,-8.93096 -2.75,-1.00677 -7.7,-2.3739 -11,-3.03806 -3.3,-0.66415 -6.68977,-1.56061 -7.53282,-1.99211 -0.84306,-0.43151 -3.08646,-1.12579 -4.98534,-1.54286 -1.89888,-0.41706 -4.42396,-1.39481 -5.61128,-2.17278 -1.31869,-0.86404 -3.17297,-1.15994 -4.76493,-0.76038 -1.55886,0.39124 -4.27104,-0.0121 -6.74915,-1.0036 -6.04043,-2.4169 -27.73122,-6.83904 -40.98613,-8.35591 -3.6463,-0.41728 -7.2463,-1.26247 -8,-1.87821 -0.75369,-0.61573 -3.62035,-1.34237 -6.37035,-1.61475 -2.75,-0.27237 -6.90381,-1.08428 -9.23069,-1.80424 -5.03539,-1.558 -8.62665,-0.88441 -24.26931,4.55207 -6.85335,2.38183 -11.20765,4.49879 -12.53756,6.09549 -1.12067,1.34546 -2.69567,2.44685 -3.5,2.44752 -0.80434,6.7e-4 -2.71241,1.07624 -4.24015,2.39016 -1.52773,1.31391 -4.22773,2.92917 -6,3.58947 -1.77226,0.6603 -5.24564,2.14666 -7.71863,3.30303 -2.79419,1.30656 -7.71552,2.36281 -13,2.79014 -7.77374,0.62863 -25.01776,3.31007 -29.25366,4.54894 -0.9625,0.2815 -1.73252,0.81899 -1.71115,1.19443 0.0586,1.02937 9.04177,4.98982 12.46115,5.49379 5.12628,0.75555 30.83168,7.70853 34.15113,9.23744 1.73312,0.79826 4.34297,1.45138 5.79966,1.45138 1.45669,0 3.86368,0.62027 5.34887,1.37839 1.48519,0.75811 5.17534,1.88101 8.20034,2.49532 3.025,0.61432 10.225,2.88203 16,5.03936 9.34298,3.4902 22.91476,7.65548 33,10.12794 1.925,0.47192 10.025,3.06792 18,5.76888 17.68931,5.99099 31.88257,9.90453 42.5,11.71863 25.79565,4.40746 34.95026,6.59996 50,11.97484 20.16188,7.20064 39.52147,12.46873 45.8847,12.48606 2.13659,0.006 6.63659,0.44891 10,0.98465 3.36342,0.53574 11.2903,1.6924 17.6153,2.57035 13.46987,1.86971 22.92014,4.04511 28.5,6.56054 2.2,0.99177 5.8,2.45138 8,3.24358 2.2,0.79219 9.175,3.33314 15.5,5.64654 6.325,2.3134 12.625,4.41296 14,4.66569 4.80119,0.88248 16.56234,3.48606 24.5,5.42361 4.4,1.07401 12.5,2.83907 18,3.92234 17.37179,3.42153 21.90206,4.6367 25.63778,6.87692 3.49816,2.09776 3.70169,2.53642 5.30289,11.42931 0.91581,5.08631 1.36816,10.02165 1.00523,10.96744 -0.68112,1.77496 -2.20109,1.88214 -13.86494,0.97767 z M 411.5,587.10899 c 0,-0.76506 -0.675,-1.70495 -1.5,-2.08864 -0.825,-0.38369 -4.0879,-1.95061 -7.25088,-3.48204 -3.97148,-1.92288 -7.59922,-2.85664 -11.72457,-3.01782 -3.28553,-0.12836 -6.68408,-0.82296 -7.55234,-1.54355 -0.86825,-0.72059 -3.6922,-1.70533 -6.27543,-2.18832 -2.58323,-0.48298 -6.04678,-1.13782 -7.69678,-1.45519 -1.65,-0.31737 -3.675,-1.12615 -4.5,-1.79729 -1.91596,-1.55864 -16.52519,-4.93232 -18.34112,-4.23548 -0.75514,0.28977 -2.67481,-0.33137 -4.26593,-1.38031 -1.59112,-1.04894 -3.65664,-1.91014 -4.59004,-1.91376 -0.93339,-0.004 -3.81292,-1.13159 -6.39893,-2.50659 -3.18864,-1.69541 -6.2928,-2.5 -9.64519,-2.5 -3.42914,0 -5.72215,-0.61262 -7.48592,-2 -1.39842,-1.1 -3.57898,-2 -4.84568,-2 -1.26669,0 -5.27569,-0.68939 -8.90888,-1.53199 -3.63318,-0.84259 -7.04843,-1.25841 -7.58944,-0.92405 -0.92877,0.57401 -2.76513,-0.15652 -15.80977,-6.28936 -8.94529,-4.20555 -12.54395,-4.11565 -21.70834,0.54233 -4.35092,2.21144 -9.48576,4.34006 -11.41076,4.73025 -4.86897,0.98693 -7,2.26286 -7,4.19115 0,2.78357 16.11053,16.91505 28.30097,24.82443 l 3.80097,2.46614 30.69903,0.24555 c 16.88447,0.13505 39.24903,-0.0954 49.69903,-0.51202 11.21317,-0.44709 20.84425,-0.37288 23.5,0.18108 28.96619,6.04202 38.5,7.07847 38.5,4.18548 z M 223,575.59724 c 0,-0.77152 -2.5875,-3.09936 -5.75,-5.17298 -3.1625,-2.07361 -7.23343,-5.047 -9.04652,-6.60752 -2.79833,-2.40853 -3.61848,-2.66501 -5.427,-1.69712 -2.70714,1.44882 -18.22512,0.58285 -20.29183,-1.13236 -1.06154,-0.881 -1.85064,-0.9284 -2.76886,-0.16635 -0.8432,0.69979 -2.62597,0.76319 -5.19131,0.18461 -7.17798,-1.6189 -27.73993,3.60531 -21.27448,5.40524 6.81385,1.89693 18.37902,3.78128 28.25,4.60286 21.34412,1.77653 36.08807,3.72223 38.5,5.08071 2.17788,1.22666 3,1.09043 3,-0.49709 z M 379,573 c 0,-0.55 -0.45,-1 -1,-1 -0.55,0 -1,0.45 -1,1 0,0.55 0.45,1 1,1 0.55,0 1,-0.45 1,-1 z m -95,-26 c 0,-0.55 -0.45,-1 -1,-1 -0.55,0 -1,0.45 -1,1 0,0.55 0.45,1 1,1 0.55,0 1,-0.45 1,-1 z M 103.81234,524.40335 c 1.78716,-3.33218 3.6572,-8.82051 3.88547,-11.40335 0.12152,-1.375 0.50597,-4.1233 0.85432,-6.10733 l 0.63337,-3.60733 7.65725,-1.17078 c 4.21149,-0.64393 10.58225,-1.8523 14.15725,-2.68527 3.575,-0.83298 9.65,-2.14816 13.5,-2.92264 3.85,-0.77448 9.475,-2.07498 12.5,-2.88999 3.025,-0.81501 8.875,-2.38111 13,-3.48022 4.125,-1.09911 11.55,-3.55402 16.5,-5.45536 4.95,-1.90133 12.15,-4.66578 16,-6.14323 8.32858,-3.1961 24.92466,-11.15041 35.8717,-17.19288 4.32943,-2.38973 8.43683,-4.34497 9.12755,-4.34497 0.69072,0 1.78776,-0.6409 2.43786,-1.42422 0.65009,-0.78332 4.08077,-2.82227 7.62373,-4.53101 6.55571,-3.16176 10.12585,-5.38423 16.53737,-10.29477 1.97481,-1.5125 4.09856,-2.75 4.71943,-2.75 0.62087,0 3.0534,-0.88636 5.40561,-1.96968 5.84545,-2.69215 15.78234,-6.274 24.77675,-8.93102 7.26588,-2.14639 10.61299,-3.37271 14.23643,-5.21597 C 325.55621,420.70325 328,420.7631 328,422 c 0,0.55 0.7301,1 1.62244,1 1.32074,0 1.39351,-0.27586 0.39131,-1.48343 -1.02398,-1.23383 -0.75014,-1.66517 1.62756,-2.56362 1.57228,-0.5941 4.09697,-2.2615 5.61043,-3.70532 2.54914,-2.43187 2.8445,-2.49827 4.01177,-0.90194 1.13226,1.54846 1.46163,1.57083 3.24826,0.22056 1.09941,-0.83091 1.42943,-1.51686 0.73823,-1.53445 -0.6875,-0.0175 -1.24792,-0.3693 -1.24537,-0.7818 0.006,-1.01807 5.01869,-6.18836 8.96755,-9.25 1.77345,-1.375 5.54271,-4.62571 8.37614,-7.22379 C 366.40982,391.1351 378.80944,384 381.81341,384 c 0.84101,0 2.30858,-0.70541 3.26127,-1.56759 1.67646,-1.51717 9.24632,-3.48329 21.20327,-5.50711 3.17786,-0.53789 8.12786,-2.02563 11,-3.3061 2.87213,-1.28048 5.89705,-2.61576 6.72205,-2.9673 0.825,-0.35154 2.175,-1.06455 3,-1.58445 1.98272,-1.24949 11.93375,-5.65628 14.61812,-6.4736 1.16496,-0.3547 2.9222,-1.53342 3.90498,-2.61938 0.98278,-1.08596 2.37647,-1.97447 3.09709,-1.97447 0.72062,0 2.78838,-1.29731 4.59501,-2.88291 1.80664,-1.5856 4.8598,-3.61415 6.7848,-4.5079 4.91732,-2.28303 12.35778,-7.62351 19.3089,-13.85919 2.29913,-2.0625 4.45686,-3.75 4.79494,-3.75 0.33808,0 2.59053,-1.57063 5.00543,-3.49029 2.4149,-1.91967 4.90801,-3.49467 5.54024,-3.5 0.63223,-0.005 3.55723,-1.64083 6.5,-3.63443 2.94277,-1.9936 10.07549,-5.86232 15.85049,-8.59717 5.775,-2.73484 15.675,-7.57236 22,-10.75005 11.43734,-5.74613 24.4079,-10.25684 33,-11.47625 2.475,-0.35126 7.875,-1.92882 12,-3.50569 4.125,-1.57687 9.525,-3.52991 12,-4.34009 15.14963,-4.95917 20.56744,-7.75045 33.65957,-17.34157 5.25938,-3.85295 9.43908,-5.9403 15.74838,-7.86475 4.72384,-1.44086 8.98982,-2.37191 9.47994,-2.069 0.49012,0.30292 1.12889,2.01742 1.41947,3.81002 1.79395,11.06672 2.48051,17.29349 1.99363,18.08128 -0.30649,0.49591 -2.78098,0.60667 -5.49887,0.24613 -4.5621,-0.60519 -5.32044,-0.38337 -9.87418,2.88816 -2.71292,1.94904 -5.32084,3.5437 -5.7954,3.5437 -0.47455,0 -1.93601,0.8365 -3.24768,1.85888 -5.48368,4.27426 -16.02108,9.09431 -25.38486,11.61162 -5.5,1.47859 -11.575,3.3771 -13.5,4.21892 -1.925,0.84181 -7.325,2.87597 -12,4.52036 -4.675,1.64439 -11.2,4.62891 -14.5,6.63227 -3.3,2.00336 -7.8,4.61284 -10,5.79885 -4.21066,2.26995 -5.46851,5.11056 -2,4.51663 2.60294,-0.4457 4.46932,-0.45924 13.5,-0.0979 8.06569,0.32271 7.17252,0.65552 24.5,-9.12911 9.44693,-5.33457 14.39226,-6.9249 27.5,-8.84351 11.15066,-1.63214 37.4697,-1.74667 39.76866,-0.17305 1.59085,1.08892 4.36476,11.88364 4.04692,15.74865 L 665.5,325.5 l -6,-0.1337 c -3.3,-0.0735 -9.825,-0.23261 -14.5,-0.35349 -5.91714,-0.153 -12.29832,0.55453 -21,2.32844 -14.52545,2.96113 -17.09677,3.80961 -30.39607,10.03008 C 588.16109,339.9171 583.30482,342 582.81223,342 c -0.4926,0 -3.77778,1.34751 -7.30041,2.99447 -6.03368,2.82098 -36.46038,12.55677 -48.51182,15.52259 -3.025,0.74444 -9.325,2.46244 -14,3.81778 -17.63494,5.11258 -27.70719,7.81153 -34.11078,9.14029 -3.63592,0.75446 -8.35426,2.3062 -10.48519,3.44831 -2.13093,1.14211 -4.24741,2.07656 -4.7033,2.07656 -1.50653,0 -11.50038,4.86681 -12.14902,5.91634 -0.34992,0.56617 -3.4297,1.90981 -6.84396,2.98586 -3.41426,1.07605 -9.13275,3.55304 -12.70775,5.50442 -3.575,1.95137 -7.76964,3.55818 -9.32143,3.57067 -1.55178,0.0125 -3.4795,0.68079 -4.28382,1.4851 -1.113,1.113 -2.09037,1.22363 -4.09083,0.46306 -2.81348,-1.06968 -7.87174,0.64396 -10.20718,3.45798 -0.64833,0.78119 -2.38221,1.72239 -3.85307,2.09155 -1.47086,0.36916 -4.64456,1.56876 -7.05267,2.66579 -2.40811,1.09702 -6.80216,2.38906 -9.76455,2.8712 -2.96239,0.48214 -7.47743,1.80169 -10.03343,2.93233 -2.55599,1.13063 -5.17763,2.0557 -5.82586,2.0557 -0.64823,0 -2.6962,1.11965 -4.55105,2.48811 -1.85484,1.36846 -4.86727,2.76854 -6.69427,3.11129 -1.82701,0.34275 -3.32184,1.05132 -3.32184,1.57461 0,0.52328 -2.84262,2.24032 -6.31693,3.81565 -3.47431,1.57533 -6.84286,3.49795 -7.48568,4.2725 -0.64282,0.77455 -3.0877,1.97661 -5.43308,2.67125 -2.34537,0.69464 -5.38931,1.91015 -6.76431,2.70113 -1.375,0.79098 -4.75,2.55372 -7.5,3.9172 -2.75,1.36348 -7.475,4.03121 -10.5,5.92829 -3.025,1.89708 -7.975,4.66509 -11,6.15113 -3.025,1.48604 -6.4,3.44683 -7.5,4.35732 C 287.69695,458.30861 274.36202,466 273.14256,466 c -0.55428,0 -1.28613,0.87698 -1.62632,1.94885 -0.3402,1.07186 -1.60803,2.24212 -2.81739,2.60057 -1.9786,0.58645 -26.58882,12.13264 -30.98953,14.53912 C 235.62906,486.22611 234,485.50254 234,483.44098 234,482.64844 233.325,482 232.5,482 c -1.73743,0 -1.94681,1.15319 -0.47637,2.62363 0.69817,0.69817 0.45971,1.49971 -0.75,2.52101 -1.78134,1.5039 -20.97447,8.85536 -23.11949,8.85536 -0.6304,0 -3.73547,0.86153 -6.90016,1.91452 -3.16469,1.05298 -9.12898,2.92268 -13.25398,4.15489 -4.125,1.23221 -8.175,2.5966 -9,3.03197 -11.71289,6.18113 -55.4225,18.96323 -70.35424,20.57385 -5.53592,0.59714 -5.79874,0.52798 -4.83342,-1.27188 z M 403,391 c 0,-0.55 -0.64844,-1 -1.44098,-1 -0.79254,0 -1.7191,0.45 -2.05902,1 -0.33992,0.55 0.30852,1 1.44098,1 1.13246,0 2.05902,-0.45 2.05902,-1 z m 108.5,-45.52884 c 2.2,-0.79257 4.675,-1.45033 5.5,-1.46168 2.89456,-0.0398 9,-2.11328 9,-3.05648 0,-2.18249 -9.19139,-0.9137 -15.28582,2.11006 -3.3955,1.68469 -6.37026,3.25969 -6.61058,3.5 -0.94478,0.94479 3.60914,0.27251 7.3964,-1.0919 z m -392.64299,98.71919 c 0.81343,-0.56385 1.10075,-1.74806 0.71729,-2.95626 -0.35185,-1.10858 0.0434,-3.97726 0.87843,-6.37485 0.83499,-2.39758 1.52471,-5.18468 1.53272,-6.19354 0.0101,-1.27489 1.8444,-2.64305 6.01455,-4.48614 3.3,-1.45851 6,-2.95087 6,-3.31636 0,-0.36549 -1.6875,-1.06645 -3.75,-1.55769 -3.73923,-0.89061 -3.74955,-0.9074 -3.59385,-5.84934 0.0859,-2.72589 0.47405,-6.41589 0.86259,-8.19998 0.68904,-3.16391 0.80836,-3.22808 4.84385,-2.6049 2.27558,0.35141 5.1792,1.02363 6.45251,1.49382 1.2733,0.47019 3.82647,0.85489 5.67371,0.85489 1.84724,0 5.59908,0.51716 8.33743,1.14925 4.54938,1.05012 5.21449,0.96387 7.71115,-1 1.50278,-1.18209 3.45914,-2.15467 4.34747,-2.1613 0.88833,-0.007 3.64014,-1.19804 6.11514,-2.64759 2.475,-1.44956 6.99054,-3.8687 10.03453,-5.37587 3.04398,-1.50716 6.09226,-3.41234 6.77395,-4.23372 C 189.09321,389.18276 207.03045,380 208.76953,380 c 0.54207,0 1.54578,-0.675 2.23047,-1.5 0.68469,-0.825 2.03469,-1.5 3,-1.5 0.96531,0 2.32698,-0.68907 3.02594,-1.53126 1.05079,-1.26612 0.94214,-1.78005 -0.62756,-2.96819 -1.04411,-0.79032 -2.72627,-1.45125 -3.73813,-1.46875 -2.30421,-0.0398 -19.46347,-5.84046 -22.16025,-7.4912 -1.1,-0.67332 -3.35,-1.53017 -5,-1.90411 -2.88019,-0.65273 -18.76144,-6.40155 -25,-9.0497 -1.65,-0.70039 -6.28154,-2.32076 -10.29232,-3.60082 -8.35936,-2.66793 -10.83475,-4.16233 -9.76413,-5.89464 0.74853,-1.21114 1.25039,-5.85014 1.95717,-18.09133 0.20642,-3.575 0.4257,-6.59205 0.48729,-6.70455 0.1194,-0.21807 2.59489,2.03966 10.61199,9.67848 2.87623,2.74052 6.91139,5.40665 9.5,6.27688 2.475,0.83205 9.45,3.61072 15.5,6.17484 11.30229,4.79014 22.39924,8.67766 42.5,14.88874 24.97733,7.71793 27.82679,8.17137 34.12189,5.42987 3.28627,-1.43116 11.81828,-3.50211 16.88601,-4.09869 4.35768,-0.51299 11.9921,-3.86232 11.9921,-5.2611 0,-0.7391 -1.87203,-2.29886 -4.16007,-3.46613 -2.28804,-1.16727 -7.57554,-5.5706 -11.75,-9.78518 -4.17446,-4.21457 -9.42762,-8.90304 -11.67369,-10.41881 -2.24607,-1.51577 -4.94644,-3.53409 -6.00082,-4.48515 -2.24427,-2.02435 -8.60857,-6.84254 -12.96906,-9.8184 -3.27832,-2.23732 -6.68051,-5.00995 -12.37994,-10.08906 -3.377,-3.00945 -9.98755,-8.26742 -21.81642,-17.35257 -2.8875,-2.21774 -5.25,-4.44695 -5.25,-4.9538 0,-0.50684 -1.50707,-1.63669 -3.34904,-2.51076 -1.84197,-0.87407 -8.02947,-6.57047 -13.75,-12.65866 -11.3686,-12.09926 -11.56018,-12.28899 -17.46054,-17.29225 -3.80682,-3.22803 -4.04462,-3.74157 -3.81929,-8.24803 0.13216,-2.64312 0.77645,-7.03009 1.43176,-9.74882 0.95495,-3.96188 1.41536,-4.65667 2.31929,-3.5 0.6203,0.79373 3.37782,3.2313 6.12782,5.41682 2.75,2.18552 6.14826,5.11052 7.55169,6.5 3.3569,3.32355 17.41343,15.88762 27.44831,24.534 4.4,3.79118 8.36163,7.48105 8.80363,8.19972 0.44199,0.71868 2.53798,2.19148 4.65775,3.27291 2.11977,1.08142 4.00814,2.35597 4.19637,2.83232 0.18824,0.47635 3.11124,2.62588 6.49557,4.77673 3.38433,2.15086 9.93165,7.51065 14.5496,11.91065 9.04595,8.61901 18.8456,16.5 20.51701,16.5 0.56935,0 1.65278,0.75091 2.40763,1.66869 0.75484,0.91779 4.07244,2.96843 7.37244,4.55699 9.3448,4.4984 14.27018,7.66059 16.48709,10.58502 12.34787,16.28861 13.30911,16.87603 21.04653,12.86171 2.83302,-1.46983 5.57765,-2.67241 6.09916,-2.67241 1.17052,0 6.18393,-3.47744 10.94476,-7.59159 1.96764,-1.70037 4.89264,-3.87363 6.5,-4.82946 1.60735,-0.95583 4.04746,-3.26473 5.42246,-5.13088 1.375,-1.86616 3.08906,-3.4054 3.80902,-3.42054 0.71996,-0.0151 1.0309,0.42247 0.69098,0.97247 -0.33992,0.55 -0.0933,1 0.54797,1 0.6413,0 0.92916,-0.61721 0.63968,-1.37158 -0.76396,-1.99084 5.26126,-6.11241 8.44706,-5.77824 1.96253,0.20586 3.18023,-0.48373 4.75199,-2.69107 1.16232,-1.63232 2.10197,-3.57338 2.08813,-4.31348 -0.0224,-1.19917 -16.75469,-14.37468 -21.87666,-17.22638 C 334.75366,285.20041 323,276.71816 323,276.0017 c 0,-0.41748 -1.35,-1.31825 -3,-2.0017 -1.65,-0.68345 -3,-1.60134 -3,-2.03976 0,-0.43842 -1.6875,-1.83204 -3.75,-3.09693 -2.0625,-1.2649 -4.2,-2.66668 -4.75,-3.11507 -1.35403,-1.10389 -11.57173,-7.12354 -19.37948,-11.41722 C 278.1098,248.27595 264,237.1799 264,234.57605 c 0,-0.74031 -1.0125,-2.01111 -2.25,-2.82398 -1.2375,-0.81287 -8.05405,-7.27712 -15.14788,-14.36501 C 234.99449,205.78917 227,195.87056 227,193.06709 c 0,-1.71735 3.5678,-2.03422 27.5,-2.44237 12.65,-0.21574 25.02287,-0.85432 27.49527,-1.41906 3.4349,-0.7846 5.43992,-0.69751 8.5,0.36921 2.2026,0.76781 5.12973,1.4086 6.50473,1.42397 3.27683,0.0366 16.74954,4.3507 18.23918,5.84034 0.63845,0.63845 2.30832,1.16118 3.71082,1.16161 1.4025,4.3e-4 5.4029,1.35043 8.88979,3 3.48688,1.64957 7.86528,2.99921 9.72976,2.99921 1.86449,0 5.08658,0.63624 7.16021,1.41386 2.07363,0.77763 6.11257,1.65404 8.97541,1.94758 2.86285,0.29354 6.26299,1.22682 7.55588,2.07395 5.33957,3.49862 17.46761,-0.33062 25.36896,-8.00985 C 393.16302,195.07618 401.94861,191 409.10071,191 c 3.17969,0 6.05937,0.45 6.39929,1 0.33992,0.55 2.80467,1 5.47723,1 8.59226,0 10.51557,2.17198 4.77277,5.38987 -3.73708,2.09402 -15.75,14.44787 -15.75,16.19699 0,1.74983 5.33041,3.6193 8.23855,2.8894 1.52697,-0.38324 3.74843,-0.0172 5.55005,0.91442 2.25895,1.16815 4.63593,1.40104 9.5837,0.93901 4.20547,-0.39271 7.05848,-0.21706 7.90654,0.48677 0.72977,0.60565 4.67807,1.18155 8.774,1.27979 4.09594,0.0982 8.79716,0.74439 10.44716,1.4359 7.02193,2.94287 8.14695,3.34943 11,3.97514 1.65,0.36187 4.125,0.66274 5.5,0.6686 1.375,0.006 8.22853,0.72181 15.23007,1.59099 l 12.73006,1.58033 5.76144,-2.91502 c 3.16879,-1.60326 7.84812,-4.94389 10.3985,-7.42361 11.3776,-11.06235 18.6382,-17.31827 21.87993,-18.85232 1.925,-0.91094 4.175,-2.43677 5,-3.39072 1.99839,-2.31076 13.361,-5.1661 15.7214,-3.95068 0.97823,0.50372 6.5036,0.75832 12.2786,0.56578 11.39204,-0.37981 21.99922,0.77588 18.5,2.01563 -1.1,0.38973 -3.8,1.54771 -6,2.5733 -2.2,1.02558 -5.71257,2.39516 -7.80572,3.0435 -2.09314,0.64835 -6.69751,2.93564 -10.23193,5.08287 -3.53441,2.14723 -6.67865,3.90406 -6.98719,3.90406 -0.30853,0 -2.94506,1.8 -5.85894,4 -2.91387,2.2 -5.58942,4 -5.94566,4 -0.35623,0 -1.44034,0.65175 -2.40913,1.44834 -1.77119,1.45636 -15.0928,11.05028 -20.85228,15.01733 -1.69997,1.17091 -4.69371,3.68265 -6.65276,5.58163 -1.95904,1.89899 -6.19315,4.75578 -9.40914,6.34843 -3.21599,1.59266 -6.77326,3.72735 -7.90506,4.74376 -4.01962,3.60984 -16.27946,7.10522 -25.69563,7.32604 -8.09768,0.18989 -9.03563,0.43204 -12.52017,3.2323 -2.0717,1.66486 -5.55765,3.94467 -7.74656,5.06624 -4.70089,2.40868 -12.86916,10.16615 -17.51222,16.6315 C 439.14895,286.928 437.14069,289 436.50479,289 c -0.63589,0 -2.2471,1.18094 -3.58048,2.62432 -3.71961,4.02648 -15.25194,8.76381 -27.42431,11.26553 -6.05,1.24343 -11.675,2.65994 -12.5,3.1478 -0.825,0.48786 -3.525,1.90768 -6,3.15516 -5.37617,2.70977 -10.41045,6.22351 -14.5,10.12046 -1.65,1.57229 -4.2375,3.50657 -5.75,4.2984 -1.5125,0.79183 -2.75,1.80235 -2.75,2.2456 0,0.44324 -2.23183,2.25207 -4.95961,4.01962 -4.28904,2.7792 -9.73844,6.91203 -15.00553,11.38021 -11.3094,9.59399 -42.64471,23.84244 -72.03486,32.75491 -25.6103,7.76625 -42.42283,13.79142 -54.5,19.53136 C 194.82362,404.32083 193.3283,405 192.27595,405 c -0.56708,0 -1.62174,0.71172 -2.34367,1.5816 -0.72194,0.86988 -3.81454,2.89839 -6.87245,4.50779 -3.05791,1.6094 -6.44278,3.48518 -7.52195,4.1684 -5.82637,3.68867 -10.61349,6.4892 -15.53788,9.08989 -3.025,1.59757 -6.175,3.48784 -7,4.20059 -0.825,0.71275 -2.7375,1.60475 -4.25,1.98223 -1.5125,0.37747 -2.75,1.11049 -2.75,1.62893 0,0.51844 -1.6875,1.64132 -3.75,2.49529 -2.0625,0.85397 -7.35,3.24023 -11.75,5.30282 -8.13037,3.81127 -14.23819,6.03177 -11.64299,4.23281 z M 385.60856,291.5777 c 0.58195,-1.51654 7.32823,-4.5777 10.08849,-4.5777 1.44709,0 4.32135,-1.69212 15.30295,-9.00908 1.375,-0.91615 6.55,-3.39319 11.5,-5.50454 4.95,-2.11134 9.15,-4.20951 9.33333,-4.66259 0.18334,-0.45309 0.96783,-0.82379 1.74332,-0.82379 0.77549,0 4.63336,-3.2625 8.57303,-7.25 8.296,-8.39671 11.47272,-10.73425 14.60032,-10.74341 1.2375,-0.004 2.25,-0.38456 2.25,-0.84653 0,-0.46197 1.8,-1.43399 4,-2.16006 2.2,-0.72607 3.99831,-1.58559 3.99625,-1.91006 -0.002,-0.32447 -1.91456,-1.33835 -4.25,-2.25307 -4.23666,-1.65938 -6.50691,-2.03107 -22.96027,-3.75914 -4.79271,-0.50337 -9.14722,-1.18295 -9.67669,-1.51018 -0.52946,-0.32723 -6.95816,-0.82673 -14.28598,-1.11 -26.95953,-1.04216 -42.39211,-2.09003 -50.32331,-3.41697 -22.06303,-3.69128 -32.48851,-6.07883 -49,-11.22158 -10.45,-3.2548 -21.25,-6.78896 -24,-7.85369 -11.52575,-4.46247 -22.94796,-7.91735 -23.69752,-7.16779 -0.99322,0.99322 6.25173,9.37191 16.15845,18.68707 4.10352,3.85848 10.40352,9.92941 14,13.49096 5.88591,5.82874 13.09729,10.84532 21.54938,14.99079 1.64433,0.80649 5.68969,3.7744 8.98969,6.59535 3.3,2.82096 7.125,5.72002 8.5,6.44236 1.375,0.72234 3.07543,2.12397 3.77874,3.11473 0.70331,0.99076 2.84714,2.09561 4.76407,2.45523 1.91693,0.35962 3.8165,1.16508 4.22126,1.78992 0.40476,0.62484 2.31093,1.93804 4.23593,2.91822 9.25091,4.71043 16.54512,9.32228 21.25288,13.4374 3.92537,3.43122 8.41022,4.32197 9.35568,1.85815 z"
       id="path2997"
       inkscape:connector-curvature="0" />
  </g>
</svg>
