<?xml version="1.0" encoding="UTF-8" standalone="no"?>
<!-- Created with Inkscape (http://www.inkscape.org/) -->

<svg
   xmlns:dc="http://purl.org/dc/elements/1.1/"
   xmlns:cc="http://creativecommons.org/ns#"
   xmlns:rdf="http://www.w3.org/1999/02/22-rdf-syntax-ns#"
   xmlns:svg="http://www.w3.org/2000/svg"
   xmlns="http://www.w3.org/2000/svg"
   xmlns:sodipodi="http://sodipodi.sourceforge.net/DTD/sodipodi-0.dtd"
   xmlns:inkscape="http://www.inkscape.org/namespaces/inkscape"
   width="1024"
   height="1024"
   id="svg2"
   version="1.1"
   inkscape:version="0.48.4 r9939"
   sodipodi:docname="Princess Storm Torso.svg"
   inkscape:export-filename="Storm Torso.png"
   inkscape:export-xdpi="90"
   inkscape:export-ydpi="90">
  <defs
     id="defs4" />
  <sodipodi:namedview
     id="base"
     pagecolor="#ffffff"
     bordercolor="#666666"
     borderopacity="1.0"
     inkscape:pageopacity="0.0"
     inkscape:pageshadow="2"
     inkscape:zoom="0.175"
     inkscape:cx="-578.43923"
     inkscape:cy="828.14204"
     inkscape:document-units="px"
     inkscape:current-layer="layer1"
     showgrid="false"
     inkscape:window-width="1366"
     inkscape:window-height="705"
     inkscape:window-x="-8"
     inkscape:window-y="-8"
     inkscape:window-maximized="1" />
  <metadata
     id="metadata7">
    <rdf:RDF>
      <cc:Work
         rdf:about="">
        <dc:format>image/svg+xml</dc:format>
        <dc:type
           rdf:resource="http://purl.org/dc/dcmitype/StillImage" />
        <dc:title></dc:title>
      </cc:Work>
    </rdf:RDF>
  </metadata>
  <g
     inkscape:label="Layer 1"
     inkscape:groupmode="layer"
     id="layer1"
     transform="translate(0,-28.362183)">
    <path
       style="fill:#cacef2;fill-opacity:1;stroke:#000000;stroke-width:10.49086094;stroke-linecap:butt;stroke-linejoin:miter;stroke-miterlimit:4;stroke-opacity:1;stroke-dasharray:none"
       d="M 885.48714,329.26532 C 733.81227,341.84967 657.48308,255.27767 637.61297,145.33 l 196.71366,0 14.57139,16.55835 15.23371,35.10379 13.24671,46.36352 6.89769,55.32858 z"
       id="path3797"
       inkscape:connector-curvature="0"
       sodipodi:nodetypes="cccccccc" />
    <path
       style="fill:#000000;stroke:#000000;stroke-width:5.24543047px;stroke-linecap:butt;stroke-linejoin:miter;stroke-opacity:1"
       d="m 608.76437,952.09326 -191.08353,0 -164.85637,-811.11186 558.26365,0 z"
       id="path3871"
       inkscape:connector-curvature="0"
       sodipodi:nodetypes="ccccc" />
    <path
       style="fill:#cdd2f5;fill-opacity:1;stroke:#cdd2f5;stroke-width:5.24543047px;stroke-linecap:butt;stroke-linejoin:miter;stroke-opacity:1"
       d="M 662.38264,360.84239 C 542.4871,332.74188 514.5502,198.29442 514.5502,198.29442 c 0,0 -27.93695,134.44746 -147.83249,162.54797 0,0 134.05505,107.70736 147.83249,227.59008 13.77738,-119.88272 147.83244,-227.59008 147.83244,-227.59008 z"
       id="path3857"
       inkscape:connector-curvature="0"
       sodipodi:nodetypes="ccccc" />
    <path
       style="fill:#cab955;fill-opacity:1;stroke:#cab955;stroke-width:5.24543047px;stroke-linecap:butt;stroke-linejoin:miter;stroke-opacity:1"
       d="m 631.65195,950.72996 346.40149,0 0,-69.54514 -54.31148,-46.36346 -96.70103,88.75296 -231.81744,24.50634 z"
       id="path3855"
       inkscape:connector-curvature="0" />
    <path
       style="fill:#746f73;fill-opacity:1;stroke:#746f73;stroke-width:5.24543047px;stroke-linecap:butt;stroke-linejoin:miter;stroke-opacity:1"
       d="m 576.67808,950.72996 152.99953,-66.89577 61.5972,-37.0908 13.90905,-15.23374 121.20741,1.98703 -76.16857,67.55825 -25.16874,23.18176 z"
       id="path3853"
       inkscape:connector-curvature="0" />
    <path
       style="fill:#c4bedf;fill-opacity:1;stroke:#c4bedf;stroke-width:5.24543047px;stroke-linecap:butt;stroke-linejoin:miter;stroke-opacity:1"
       d="m 579.98977,950.06776 -23.18176,-73.51927 -7.94804,-72.85693 -4.63633,-58.28554 260.29788,-62.25954 15.23371,50.33751 15.23374,43.71416 42.38947,21.19475 47.68815,35.76612 -122.53204,0.66234 -50.33751,37.75309 -92.06465,43.71411 z"
       id="path3851"
       inkscape:connector-curvature="0" />
    <path
       style="fill:#cdd2f5;fill-opacity:1;stroke:#cdd2f5;stroke-width:5.24543047px;stroke-linecap:butt;stroke-linejoin:miter;stroke-opacity:1"
       d="m 882.67711,389.06946 -64.24655,-4.63633 -82.12959,-21.85708 -60.27251,-40.40245 -64.9089,-84.77896 -34.44148,-95.37634 260.29791,1.98702 27.15574,50.33751 14.57139,48.35049 7.94804,64.90889 0,55.63618 z"
       id="path3849"
       inkscape:connector-curvature="0" />
    <path
       style="fill:#cab955;fill-opacity:1;stroke:#cab955;stroke-width:5.24543047px;stroke-linecap:butt;stroke-linejoin:miter;stroke-opacity:1"
       d="m 805.468,683.49673 48.7076,-146.12269 18.73368,-84.30156 9.36683,-66.50457 -21.54373,0.93668 -54.32765,-5.62012 -47.77091,-14.98692 -22.4804,-5.62012 -33.72062,16.86035 -49.64427,32.78393 -39.34073,43.08744 -31.84726,59.01109 -21.54371,69.31463 -13.11358,75.87137 -1.87336,89.92169 250.09462,-63.69453 z"
       id="path3847"
       inkscape:connector-curvature="0" />
    <path
       style="fill:#e0df91;fill-opacity:1;stroke:#000000;stroke-width:0;stroke-linecap:butt;stroke-linejoin:miter;stroke-miterlimit:4;stroke-opacity:1;stroke-dasharray:none"
       d="m 578.66509,147.31698 c 0,0 19.87005,119.22044 147.03853,211.94742 l -41.72719,-16.5584 -57.62314,-43.71417 -34.4415,-44.3765 -21.19473,-55.63617 -7.28569,-45.03878 0,-11.25974 z"
       id="path3831"
       inkscape:connector-curvature="0" />
    <path
       style="fill:none;stroke:#000000;stroke-width:10.49086094;stroke-linecap:butt;stroke-linejoin:miter;stroke-miterlimit:4;stroke-opacity:1;stroke-dasharray:none"
       d="m 836.3786,143.96676 c 120.83225,166.72973 -13.11358,488.01233 -31.84727,541.40331 l 30.91058,95.54179 c 63.69452,18.73368 143.31262,101.16186 143.31262,101.16186 l 0,67.44124 -399.96402,0 C 537.57643,874.5803 483.94432,445.14396 736.84902,364.58914 718.30364,362.60207 567.55029,314.44325 562.86686,143.96676 z"
       id="path3027"
       inkscape:connector-curvature="0"
       sodipodi:nodetypes="ccccccccc" />
    <path
       style="fill:none;stroke:#000000;stroke-width:10.49086094;stroke-linecap:butt;stroke-linejoin:miter;stroke-miterlimit:4;stroke-opacity:1;stroke-dasharray:none"
       d="m 578.32215,145.3718 c 0,0 28.56886,149.40108 156.42623,216.374"
       id="path3833"
       inkscape:connector-curvature="0" />
    <path
       style="fill:none;stroke:#000000;stroke-width:10.49086094;stroke-linecap:butt;stroke-linejoin:miter;stroke-miterlimit:4;stroke-opacity:1;stroke-dasharray:none"
       d="m 883.33946,387.0825 c -33.25231,4.21506 -103.8122,-5.57307 -151.02633,-27.24996"
       id="path3835"
       inkscape:connector-curvature="0"
       sodipodi:nodetypes="cc" />
    <path
       style="fill:none;stroke:#000000;stroke-width:10.49086094;stroke-linecap:butt;stroke-linejoin:miter;stroke-miterlimit:4;stroke-opacity:1;stroke-dasharray:none"
       d="M 803.85923,683.14648 543.5613,745.40602"
       id="path3837"
       inkscape:connector-curvature="0" />
    <path
       style="fill:none;stroke:#000000;stroke-width:10.49086094;stroke-linecap:butt;stroke-linejoin:miter;stroke-miterlimit:4;stroke-opacity:1;stroke-dasharray:none"
       d="M 833.66429,779.84746 C 800.54753,848.068 789.28779,864.62642 581.3144,948.74306"
       id="path3839"
       inkscape:connector-curvature="0"
       sodipodi:nodetypes="cc" />
    <path
       style="fill:none;stroke:#000000;stroke-width:10.49086094;stroke-linecap:butt;stroke-linejoin:miter;stroke-miterlimit:4;stroke-opacity:1;stroke-dasharray:none"
       d="m 925.06659,834.15902 -97.36332,89.4153 -227.1811,22.51934"
       id="path3841"
       inkscape:connector-curvature="0" />
    <path
       style="fill:none;stroke:#000000;stroke-width:10.49086094;stroke-linecap:butt;stroke-linejoin:miter;stroke-miterlimit:4;stroke-opacity:1;stroke-dasharray:none"
       d="M 885.32648,330.78397 C 762.79439,329.45929 677.35308,308.92689 635.62594,143.34298"
       id="path3843"
       inkscape:connector-curvature="0"
       sodipodi:nodetypes="cc" />
    <g
       id="g3803"
       transform="matrix(5.2454303,0,0,5.2454303,1923.8687,-1866.3707)">
      <path
         transform="matrix(0.91913747,0,0,0.91913747,-19.948498,31.734621)"
         d="m -241.07143,392.45148 c 0,3.1066 -2.51839,5.625 -5.625,5.625 -3.1066,0 -5.625,-2.5184 -5.625,-5.625 0,-3.1066 2.5184,-5.625 5.625,-5.625 3.10661,0 5.625,2.5184 5.625,5.625 z"
         sodipodi:ry="5.625"
         sodipodi:rx="5.625"
         sodipodi:cy="392.45148"
         sodipodi:cx="-246.69643"
         id="path3799"
         style="fill:#c0c377;fill-opacity:1;stroke:#000000;stroke-width:2;stroke-linecap:round;stroke-linejoin:miter;stroke-miterlimit:4;stroke-opacity:1;stroke-dasharray:none"
         sodipodi:type="arc" />
      <path
         sodipodi:nodetypes="ccccccc"
         inkscape:connector-curvature="0"
         id="path3801"
         d="m -250.96351,392.41943 c 0,0 2.09714,5.23993 7.32036,1.48993 0.8681,-0.37881 1.10298,-0.38244 1.10298,-0.38244 -0.61556,1.79933 -1.80789,2.48482 -2.29718,2.73735 -1.51523,0.71027 -2.8888,0.41521 -3.70955,-0.011 -0.37881,-0.15784 -1.71871,-0.91962 -2.19222,-2.43485 -0.15784,-0.59978 -0.22439,-1.39899 -0.22439,-1.39899 z"
         style="fill:#d5d8e8;fill-opacity:1;stroke:none" />
    </g>
    <g
       id="g3819"
       transform="matrix(4.6113457,-2.500006,2.500006,4.6113457,859.83053,-2130.2791)">
      <path
         sodipodi:type="arc"
         style="fill:#c0c377;fill-opacity:1;stroke:#000000;stroke-width:2;stroke-linecap:round;stroke-linejoin:miter;stroke-miterlimit:4;stroke-opacity:1;stroke-dasharray:none"
         id="path3821"
         sodipodi:cx="-246.69643"
         sodipodi:cy="392.45148"
         sodipodi:rx="5.625"
         sodipodi:ry="5.625"
         d="m -241.07143,392.45148 c 0,3.1066 -2.51839,5.625 -5.625,5.625 -3.1066,0 -5.625,-2.5184 -5.625,-5.625 0,-3.1066 2.5184,-5.625 5.625,-5.625 3.10661,0 5.625,2.5184 5.625,5.625 z"
         transform="matrix(0.91913747,0,0,0.91913747,-19.948498,31.734621)" />
      <path
         style="fill:#d5d8e8;fill-opacity:1;stroke:none"
         d="m -250.96351,392.41943 c 0,0 2.09714,5.23993 7.32036,1.48993 0.8681,-0.37881 1.10298,-0.38244 1.10298,-0.38244 -0.61556,1.79933 -1.80789,2.48482 -2.29718,2.73735 -1.51523,0.71027 -2.8888,0.41521 -3.70955,-0.011 -0.37881,-0.15784 -1.71871,-0.91962 -2.19222,-2.43485 -0.15784,-0.59978 -0.22439,-1.39899 -0.22439,-1.39899 z"
         id="path3823"
         inkscape:connector-curvature="0"
         sodipodi:nodetypes="ccccccc" />
    </g>
    <g
       transform="matrix(4.3958469,2.8620045,-2.8620045,4.3958469,3034.1911,-664.63204)"
       id="g3825">
      <path
         transform="matrix(0.91913747,0,0,0.91913747,-19.948498,31.734621)"
         d="m -241.07143,392.45148 c 0,3.1066 -2.51839,5.625 -5.625,5.625 -3.1066,0 -5.625,-2.5184 -5.625,-5.625 0,-3.1066 2.5184,-5.625 5.625,-5.625 3.10661,0 5.625,2.5184 5.625,5.625 z"
         sodipodi:ry="5.625"
         sodipodi:rx="5.625"
         sodipodi:cy="392.45148"
         sodipodi:cx="-246.69643"
         id="path3827"
         style="fill:#c0c377;fill-opacity:1;stroke:#000000;stroke-width:2;stroke-linecap:round;stroke-linejoin:miter;stroke-miterlimit:4;stroke-opacity:1;stroke-dasharray:none"
         sodipodi:type="arc" />
      <path
         sodipodi:nodetypes="ccccccc"
         inkscape:connector-curvature="0"
         id="path3829"
         d="m -250.96351,392.41943 c 0,0 2.09714,5.23993 7.32036,1.48993 0.8681,-0.37881 1.10298,-0.38244 1.10298,-0.38244 -0.61556,1.79933 -1.80789,2.48482 -2.29718,2.73735 -1.51523,0.71027 -2.8888,0.41521 -3.70955,-0.011 -0.37881,-0.15784 -1.71871,-0.91962 -2.19222,-2.43485 -0.15784,-0.59978 -0.22439,-1.39899 -0.22439,-1.39899 z"
         style="fill:#d5d8e8;fill-opacity:1;stroke:none" />
    </g>
    <path
       style="fill:#d9ddef;fill-opacity:1;stroke:#d9ddef;stroke-width:5.24543047px;stroke-linecap:butt;stroke-linejoin:miter;stroke-opacity:1"
       d="m 807.3414,436.21213 c -12.64521,-4.21506 -28.10054,-27.16383 -108.65536,-19.67035 -5.15174,-0.93669 -10.94947,-8.92579 2.51115,-16.87493 50.37501,-29.74882 94.6359,-10.2289 114.58405,15.23374 13.89526,30.86919 7.48378,30.67837 -8.43984,21.31154 z"
       id="path3845"
       inkscape:connector-curvature="0"
       sodipodi:nodetypes="ccscc" />
    <path
       style="fill:#cab955;fill-opacity:1;stroke:#cab955;stroke-width:5.24543047px;stroke-linecap:butt;stroke-linejoin:miter;stroke-opacity:1"
       d="m 442.03465,367.36585 143.31265,3.74677 -70.25131,109.59204 z"
       id="path3869"
       inkscape:connector-curvature="0" />
    <path
       style="fill:#000000;stroke:#000000;stroke-width:5.24543047px;stroke-linecap:butt;stroke-linejoin:miter;stroke-opacity:1"
       d="m 426.13443,357.03593 90.15583,138.18431 90.15583,-138.18431 -90.15583,0 -90.15583,0 z m 23.11267,16.22805 66.05964,0 66.05964,0 -66.05964,101.13845 -66.05964,-101.13845 z"
       id="path3861"
       inkscape:connector-curvature="0" />
    <path
       sodipodi:nodetypes="cccccccc"
       inkscape:connector-curvature="0"
       id="path3873"
       d="M 138.51285,329.26532 C 290.18772,341.84967 366.51691,255.27767 386.38703,145.33 l -196.71366,0 -14.57139,16.55835 -15.23372,35.10379 -13.24671,46.36352 -6.89769,55.32858 z"
       style="fill:#cacef2;fill-opacity:1;stroke:#000000;stroke-width:10.49086094;stroke-linecap:butt;stroke-linejoin:miter;stroke-miterlimit:4;stroke-opacity:1;stroke-dasharray:none" />
    <path
       inkscape:connector-curvature="0"
       id="path3875"
       d="m 392.34804,950.72996 -346.401508,0 0,-69.54514 54.311498,-46.36346 96.70103,88.75296 231.81744,24.50634 z"
       style="fill:#cab955;fill-opacity:1;stroke:#cab955;stroke-width:5.24543047px;stroke-linecap:butt;stroke-linejoin:miter;stroke-opacity:1" />
    <path
       inkscape:connector-curvature="0"
       id="path3877"
       d="m 447.32192,950.72996 -152.99954,-66.89577 -61.59719,-37.0908 -13.90905,-15.23374 -121.207416,1.98703 76.168576,67.55825 25.16874,23.18176 z"
       style="fill:#746f73;fill-opacity:1;stroke:#746f73;stroke-width:5.24543047px;stroke-linecap:butt;stroke-linejoin:miter;stroke-opacity:1" />
    <path
       inkscape:connector-curvature="0"
       id="path3879"
       d="m 444.01022,950.06776 23.18177,-73.51927 7.94804,-72.85693 4.63633,-58.28554 -260.29788,-62.25954 -15.23372,50.33751 -15.23373,43.71416 -42.38948,21.19475 -47.688145,35.76612 122.532035,0.66234 50.33752,37.75309 92.06464,43.71411 z"
       style="fill:#c4bedf;fill-opacity:1;stroke:#c4bedf;stroke-width:5.24543047px;stroke-linecap:butt;stroke-linejoin:miter;stroke-opacity:1" />
    <path
       inkscape:connector-curvature="0"
       id="path3881"
       d="m 141.32288,389.06946 64.24656,-4.63633 82.12959,-21.85708 60.2725,-40.40245 64.9089,-84.77896 34.44149,-95.37634 -260.29791,1.98702 -27.15575,50.33751 -14.57138,48.35049 -7.94804,64.90889 0,55.63618 z"
       style="fill:#cdd2f5;fill-opacity:1;stroke:#cdd2f5;stroke-width:5.24543047px;stroke-linecap:butt;stroke-linejoin:miter;stroke-opacity:1" />
    <path
       inkscape:connector-curvature="0"
       id="path3883"
       d="m 218.532,683.49673 -48.7076,-146.12269 -18.73369,-84.30156 -9.36682,-66.50457 21.54372,0.93668 54.32765,-5.62012 47.77092,-14.98692 22.48039,-5.62012 33.72062,16.86035 49.64428,32.78393 39.34072,43.08744 31.84727,59.01109 21.54371,69.31463 13.11358,75.87137 1.87335,89.92169 -250.09462,-63.69453 z"
       style="fill:#cab955;fill-opacity:1;stroke:#cab955;stroke-width:5.24543047px;stroke-linecap:butt;stroke-linejoin:miter;stroke-opacity:1" />
    <path
       inkscape:connector-curvature="0"
       id="path3885"
       d="m 445.3349,147.31698 c 0,0 -19.87005,119.22044 -147.03852,211.94742 l 41.72718,-16.5584 57.62314,-43.71417 34.4415,-44.3765 21.19474,-55.63617 7.28569,-45.03878 0,-11.25974 z"
       style="fill:#e0df91;fill-opacity:1;stroke:#000000;stroke-width:0;stroke-linecap:butt;stroke-linejoin:miter;stroke-miterlimit:4;stroke-opacity:1;stroke-dasharray:none" />
    <path
       sodipodi:nodetypes="ccccccccc"
       inkscape:connector-curvature="0"
       id="path3887"
       d="m 187.6214,143.96676 c -120.832258,166.72973 13.11358,488.01233 31.84727,541.40331 l -30.91058,95.54179 C 124.86356,799.64554 45.24543,882.07372 45.24543,882.07372 l 0,67.44124 399.96405,0 c 41.21408,-74.93466 94.8462,-504.371 -158.0585,-584.92582 18.54538,-1.98707 169.29873,-50.14589 173.98216,-220.62238 z"
       style="fill:none;stroke:#000000;stroke-width:10.49086094;stroke-linecap:butt;stroke-linejoin:miter;stroke-miterlimit:4;stroke-opacity:1;stroke-dasharray:none" />
    <path
       inkscape:connector-curvature="0"
       id="path3889"
       d="m 445.67785,145.3718 c 0,0 -28.56887,149.40108 -156.42624,216.374"
       style="fill:none;stroke:#000000;stroke-width:10.49086094;stroke-linecap:butt;stroke-linejoin:miter;stroke-miterlimit:4;stroke-opacity:1;stroke-dasharray:none" />
    <path
       sodipodi:nodetypes="cc"
       inkscape:connector-curvature="0"
       id="path3891"
       d="m 140.66054,387.0825 c 33.2523,4.21506 103.8122,-5.57307 151.02632,-27.24996"
       style="fill:none;stroke:#000000;stroke-width:10.49086094;stroke-linecap:butt;stroke-linejoin:miter;stroke-miterlimit:4;stroke-opacity:1;stroke-dasharray:none" />
    <path
       inkscape:connector-curvature="0"
       id="path3893"
       d="M 220.14076,683.14648 480.4387,745.40602"
       style="fill:none;stroke:#000000;stroke-width:10.49086094;stroke-linecap:butt;stroke-linejoin:miter;stroke-miterlimit:4;stroke-opacity:1;stroke-dasharray:none" />
    <path
       sodipodi:nodetypes="cc"
       inkscape:connector-curvature="0"
       id="path3895"
       d="m 190.33571,779.84746 c 33.11676,68.22054 44.37649,84.77896 252.34989,168.8956"
       style="fill:none;stroke:#000000;stroke-width:10.49086094;stroke-linecap:butt;stroke-linejoin:miter;stroke-miterlimit:4;stroke-opacity:1;stroke-dasharray:none" />
    <path
       inkscape:connector-curvature="0"
       id="path3897"
       d="m 98.933405,834.15902 97.363315,89.4153 227.18111,22.51934"
       style="fill:none;stroke:#000000;stroke-width:10.49086094;stroke-linecap:butt;stroke-linejoin:miter;stroke-miterlimit:4;stroke-opacity:1;stroke-dasharray:none" />
    <path
       sodipodi:nodetypes="cc"
       inkscape:connector-curvature="0"
       id="path3899"
       d="M 138.67352,330.78397 C 261.20561,329.45929 346.64691,308.92689 388.37404,143.34298"
       style="fill:none;stroke:#000000;stroke-width:10.49086094;stroke-linecap:butt;stroke-linejoin:miter;stroke-miterlimit:4;stroke-opacity:1;stroke-dasharray:none" />
    <g
       id="g3901"
       transform="matrix(-5.2454303,0,0,5.2454303,-899.86871,-1866.3707)">
      <path
         sodipodi:type="arc"
         style="fill:#c0c377;fill-opacity:1;stroke:#000000;stroke-width:2;stroke-linecap:round;stroke-linejoin:miter;stroke-miterlimit:4;stroke-opacity:1;stroke-dasharray:none"
         id="path3903"
         sodipodi:cx="-246.69643"
         sodipodi:cy="392.45148"
         sodipodi:rx="5.625"
         sodipodi:ry="5.625"
         d="m -241.07143,392.45148 c 0,3.1066 -2.51839,5.625 -5.625,5.625 -3.1066,0 -5.625,-2.5184 -5.625,-5.625 0,-3.1066 2.5184,-5.625 5.625,-5.625 3.10661,0 5.625,2.5184 5.625,5.625 z"
         transform="matrix(0.91913747,0,0,0.91913747,-19.948498,31.734621)" />
      <path
         style="fill:#d5d8e8;fill-opacity:1;stroke:none"
         d="m -250.96351,392.41943 c 0,0 2.09714,5.23993 7.32036,1.48993 0.8681,-0.37881 1.10298,-0.38244 1.10298,-0.38244 -0.61556,1.79933 -1.80789,2.48482 -2.29718,2.73735 -1.51523,0.71027 -2.8888,0.41521 -3.70955,-0.011 -0.37881,-0.15784 -1.71871,-0.91962 -2.19222,-2.43485 -0.15784,-0.59978 -0.22439,-1.39899 -0.22439,-1.39899 z"
         id="path3905"
         inkscape:connector-curvature="0"
         sodipodi:nodetypes="ccccccc" />
    </g>
    <g
       transform="matrix(-4.6113457,-2.500006,-2.500006,4.6113457,164.16946,-2130.2791)"
       id="g3907">
      <path
         transform="matrix(0.91913747,0,0,0.91913747,-19.948498,31.734621)"
         d="m -241.07143,392.45148 c 0,3.1066 -2.51839,5.625 -5.625,5.625 -3.1066,0 -5.625,-2.5184 -5.625,-5.625 0,-3.1066 2.5184,-5.625 5.625,-5.625 3.10661,0 5.625,2.5184 5.625,5.625 z"
         sodipodi:ry="5.625"
         sodipodi:rx="5.625"
         sodipodi:cy="392.45148"
         sodipodi:cx="-246.69643"
         id="path3909"
         style="fill:#c0c377;fill-opacity:1;stroke:#000000;stroke-width:2;stroke-linecap:round;stroke-linejoin:miter;stroke-miterlimit:4;stroke-opacity:1;stroke-dasharray:none"
         sodipodi:type="arc" />
      <path
         sodipodi:nodetypes="ccccccc"
         inkscape:connector-curvature="0"
         id="path3911"
         d="m -250.96351,392.41943 c 0,0 2.09714,5.23993 7.32036,1.48993 0.8681,-0.37881 1.10298,-0.38244 1.10298,-0.38244 -0.61556,1.79933 -1.80789,2.48482 -2.29718,2.73735 -1.51523,0.71027 -2.8888,0.41521 -3.70955,-0.011 -0.37881,-0.15784 -1.71871,-0.91962 -2.19222,-2.43485 -0.15784,-0.59978 -0.22439,-1.39899 -0.22439,-1.39899 z"
         style="fill:#d5d8e8;fill-opacity:1;stroke:none" />
    </g>
    <g
       id="g3913"
       transform="matrix(-4.3958469,2.8620045,2.8620045,4.3958469,-2010.191,-664.63204)">
      <path
         sodipodi:type="arc"
         style="fill:#c0c377;fill-opacity:1;stroke:#000000;stroke-width:2;stroke-linecap:round;stroke-linejoin:miter;stroke-miterlimit:4;stroke-opacity:1;stroke-dasharray:none"
         id="path3915"
         sodipodi:cx="-246.69643"
         sodipodi:cy="392.45148"
         sodipodi:rx="5.625"
         sodipodi:ry="5.625"
         d="m -241.07143,392.45148 c 0,3.1066 -2.51839,5.625 -5.625,5.625 -3.1066,0 -5.625,-2.5184 -5.625,-5.625 0,-3.1066 2.5184,-5.625 5.625,-5.625 3.10661,0 5.625,2.5184 5.625,5.625 z"
         transform="matrix(0.91913747,0,0,0.91913747,-19.948498,31.734621)" />
      <path
         style="fill:#d5d8e8;fill-opacity:1;stroke:none"
         d="m -250.96351,392.41943 c 0,0 2.09714,5.23993 7.32036,1.48993 0.8681,-0.37881 1.10298,-0.38244 1.10298,-0.38244 -0.61556,1.79933 -1.80789,2.48482 -2.29718,2.73735 -1.51523,0.71027 -2.8888,0.41521 -3.70955,-0.011 -0.37881,-0.15784 -1.71871,-0.91962 -2.19222,-2.43485 -0.15784,-0.59978 -0.22439,-1.39899 -0.22439,-1.39899 z"
         id="path3917"
         inkscape:connector-curvature="0"
         sodipodi:nodetypes="ccccccc" />
    </g>
    <path
       sodipodi:nodetypes="ccscc"
       inkscape:connector-curvature="0"
       id="path3919"
       d="m 216.65859,436.21213 c 12.64521,-4.21506 28.10055,-27.16383 108.65537,-19.67035 5.15173,-0.93669 10.94947,-8.92579 -2.51115,-16.87493 -50.37501,-29.74882 -94.6359,-10.2289 -114.58406,15.23374 -13.89525,30.86919 -7.48377,30.67837 8.43984,21.31154 z"
       style="fill:#d9ddef;fill-opacity:1;stroke:#d9ddef;stroke-width:5.24543047px;stroke-linecap:butt;stroke-linejoin:miter;stroke-opacity:1" />
  </g>
</svg>
