<?xml version="1.0" encoding="UTF-8" standalone="no"?>
<!-- Created with Inkscape (http://www.inkscape.org/) -->

<svg
   xmlns:dc="http://purl.org/dc/elements/1.1/"
   xmlns:cc="http://creativecommons.org/ns#"
   xmlns:rdf="http://www.w3.org/1999/02/22-rdf-syntax-ns#"
   xmlns:svg="http://www.w3.org/2000/svg"
   xmlns="http://www.w3.org/2000/svg"
   xmlns:sodipodi="http://sodipodi.sourceforge.net/DTD/sodipodi-0.dtd"
   xmlns:inkscape="http://www.inkscape.org/namespaces/inkscape"
   width="1024"
   height="1024"
   id="svg3086"
   version="1.1"
   inkscape:version="0.48.4 r9939"
   sodipodi:docname="Lex Luther Face.svg">
  <defs
     id="defs3088" />
  <sodipodi:namedview
     id="base"
     pagecolor="#ffffff"
     bordercolor="#666666"
     borderopacity="1.0"
     inkscape:pageopacity="0.0"
     inkscape:pageshadow="2"
     inkscape:zoom="0.35"
     inkscape:cx="118.27263"
     inkscape:cy="495.16374"
     inkscape:document-units="px"
     inkscape:current-layer="layer1"
     showgrid="false"
     inkscape:window-width="1366"
     inkscape:window-height="705"
     inkscape:window-x="-8"
     inkscape:window-y="-8"
     inkscape:window-maximized="1" />
  <metadata
     id="metadata3091">
    <rdf:RDF>
      <cc:Work
         rdf:about="">
        <dc:format>image/svg+xml</dc:format>
        <dc:type
           rdf:resource="http://purl.org/dc/dcmitype/StillImage" />
        <dc:title></dc:title>
      </cc:Work>
    </rdf:RDF>
  </metadata>
  <g
     inkscape:label="Layer 1"
     inkscape:groupmode="layer"
     id="layer1"
     transform="translate(0,-28.362183)">
    <g
       id="g3167"
       transform="matrix(6.9993143,0,0,6.9993143,-2142.0718,-1364.2417)">
      <path
         sodipodi:nodetypes="csc"
         inkscape:connector-curvature="0"
         id="path3107"
         d="m 369.71583,338.18433 c 0,0 12.37437,2.02031 15.9099,2.77792 3.53554,0.75762 8.46003,-2.02031 -2.39911,-4.54569 0,0 -9.97525,-1.76776 -14.01586,-0.12626 -4.04061,1.64149 -2.02031,2.27284 0.50507,1.89403 z"
         style="fill:#cf823d;fill-opacity:1;stroke:#cf823d;stroke-width:1px;stroke-linecap:butt;stroke-linejoin:miter;stroke-opacity:1" />
      <path
         sodipodi:nodetypes="csssc"
         inkscape:connector-curvature="0"
         id="path3109"
         d="m 355.35714,321.46932 c 0,0 -9.64285,6.42858 -8.03571,16.78572 1.60714,10.35714 -5.71429,-6.78572 -3.75,-11.07143 1.96429,-4.28571 7.14895,-7.5986 9.75644,-8.39286 1.94262,-0.59174 3.81499,0.71429 2.02927,2.67857 z"
         style="fill:#cf823d;fill-opacity:1;stroke:none" />
      <path
         inkscape:connector-curvature="0"
         id="path3111"
         d="m 376.42857,269.68361 c 0,0 -1.07143,11.78571 1.42857,13.75 2.5,1.96429 3.21429,-6.78571 2.14286,-11.60714 -1.07143,-4.82143 -2.5,-3.92857 -3.57143,-2.14286 z"
         style="fill:#cf823d;fill-opacity:1;stroke:none" />
      <path
         d="m 411.60715,290.75504 c 0,5.52284 -4.47716,10 -10,10 -5.52285,0 -10,-4.47716 -10,-10 0,-5.52285 4.47715,-10 10,-10 5.52284,0 10,4.47715 10,10 z"
         sodipodi:ry="10"
         sodipodi:rx="10"
         sodipodi:cy="290.75504"
         sodipodi:cx="401.60715"
         id="path3119"
         style="fill:#000000;fill-opacity:1;stroke:#000000;stroke-opacity:1"
         sodipodi:type="arc" />
      <path
         sodipodi:nodetypes="cssscc"
         inkscape:connector-curvature="0"
         id="path3113"
         d="m 386.78572,284.32647 c 0,0 13.03571,-0.17857 17.67857,-5.89286 4.64285,-5.71429 16.96428,-4.10714 18.92857,-4.10714 1.96428,0 4.46428,-4.10715 -6.96429,-3.92857 -11.42857,0.17857 -18.39285,4.10714 -22.32143,9.10714 -3.20434,1.55021 -13.06913,3.29051 -7.32142,4.82143 z"
         style="fill:#000000;stroke:#000000;stroke-width:1px;stroke-linecap:butt;stroke-linejoin:miter;stroke-opacity:1" />
      <path
         transform="matrix(0.96428571,0,0,0.96428571,14.528061,11.085639)"
         d="m 406.78571,285.39789 c 0,2.76142 -2.23858,5 -5,5 -2.76143,0 -5,-2.23858 -5,-5 0,-2.76143 2.23857,-5 5,-5 2.76142,0 5,2.23857 5,5 z"
         sodipodi:ry="5"
         sodipodi:rx="5"
         sodipodi:cy="285.39789"
         sodipodi:cx="401.78571"
         id="path3117"
         style="fill:#ffffff;fill-opacity:1;stroke:none"
         sodipodi:type="arc" />
      <path
         d="m 411.60715,290.75504 c 0,5.52284 -4.47716,10 -10,10 -5.52285,0 -10,-4.47716 -10,-10 0,-5.52285 4.47715,-10 10,-10 5.52284,0 10,4.47715 10,10 z"
         sodipodi:ry="10"
         sodipodi:rx="10"
         sodipodi:cy="290.75504"
         sodipodi:cx="401.60715"
         id="path3119-8"
         style="fill:#000000;fill-opacity:1;stroke:#000000;stroke-opacity:1"
         sodipodi:type="arc"
         transform="matrix(-1,0,0,1,756.65923,1.472168e-4)" />
      <path
         sodipodi:nodetypes="cssscc"
         inkscape:connector-curvature="0"
         id="path3113-2"
         d="m 369.87351,284.32662 c 0,0 -13.03571,-0.17857 -17.67857,-5.89286 -4.64285,-5.71429 -16.96428,-4.10714 -18.92857,-4.10714 -1.96428,0 -4.46428,-4.10715 6.96429,-3.92857 11.42857,0.17857 18.39285,4.10714 22.32143,9.10714 3.20434,1.55021 13.06913,3.29051 7.32142,4.82143 z"
         style="fill:#000000;stroke:#000000;stroke-width:1px;stroke-linecap:butt;stroke-linejoin:miter;stroke-opacity:1" />
      <path
         transform="matrix(-0.96428571,0,0,0.96428571,742.13117,11.085787)"
         d="m 406.78571,285.39789 c 0,2.76142 -2.23858,5 -5,5 -2.76143,0 -5,-2.23858 -5,-5 0,-2.76143 2.23857,-5 5,-5 2.76142,0 5,2.23857 5,5 z"
         sodipodi:ry="5"
         sodipodi:rx="5"
         sodipodi:cy="285.39789"
         sodipodi:cx="401.78571"
         id="path3117-4"
         style="fill:#ffffff;fill-opacity:1;stroke:none"
         sodipodi:type="arc" />
      <path
         inkscape:connector-curvature="0"
         id="path3145"
         d="m 430.51106,332.00504 c 0,0 2.32142,-13.03571 6.60714,-17.14286 4.28571,-4.10714 5.35714,-5.53571 5.17857,-12.5 -0.17857,-6.96428 2.14286,-10.17857 2.5,-6.78571 0.35714,3.39286 0.71429,17.14286 -0.17857,18.57143 -0.89286,1.42857 -8.21429,5.35714 -14.10714,17.85714 z"
         style="fill:#cf823d;fill-opacity:1;stroke:#cf823d;stroke-width:1px;stroke-linecap:butt;stroke-linejoin:miter;stroke-opacity:1" />
      <path
         inkscape:connector-curvature="0"
         id="path3145-5"
         d="m 327.86947,332.00518 c 0,0 -2.32142,-13.03571 -6.60714,-17.14286 -4.28571,-4.10714 -5.35714,-5.53571 -5.17857,-12.5 0.17857,-6.96428 -2.14286,-10.17857 -2.5,-6.78571 -0.35714,3.39286 -0.71429,17.14286 0.17857,18.57143 0.89286,1.42857 8.21429,5.35714 14.10714,17.85714 z"
         style="fill:#cf823d;fill-opacity:1;stroke:#cf823d;stroke-width:1px;stroke-linecap:butt;stroke-linejoin:miter;stroke-opacity:1" />
      <path
         sodipodi:nodetypes="cssssssc"
         inkscape:connector-curvature="0"
         id="path3165"
         d="m 352.41707,328.36862 c 2.0203,1.26269 26.71321,3.33996 33.31888,1.3546 5.79723,-1.74239 11.36358,-2.54859 15.33548,0.13896 3.97948,2.69267 6.07143,4.46429 4.46429,1.25 -1.60715,-3.21428 -5,-8.39286 -8.92858,-7.67857 -3.92857,0.71429 -15.17857,3.03571 -20,2.67857 -4.82142,-0.35714 -13.85291,-1.10262 -17.85714,-0.93247 -4.28053,0.18189 -8.11865,-0.0254 -6.33293,3.18891 z"
         style="fill:#000000;stroke:#000000;stroke-width:1px;stroke-linecap:butt;stroke-linejoin:miter;stroke-opacity:1" />
    </g>
  </g>
</svg>
