<?xml version="1.0" encoding="UTF-8" standalone="no"?>
<!-- Created with Inkscape (http://www.inkscape.org/) -->

<svg
   xmlns:dc="http://purl.org/dc/elements/1.1/"
   xmlns:cc="http://creativecommons.org/ns#"
   xmlns:rdf="http://www.w3.org/1999/02/22-rdf-syntax-ns#"
   xmlns:svg="http://www.w3.org/2000/svg"
   xmlns="http://www.w3.org/2000/svg"
   xmlns:sodipodi="http://sodipodi.sourceforge.net/DTD/sodipodi-0.dtd"
   xmlns:inkscape="http://www.inkscape.org/namespaces/inkscape"
   id="svg3306"
   version="1.1"
   inkscape:version="0.48.2 r9819"
   width="1024"
   height="1024"
   sodipodi:docname="Islander Legs.svg">
  <metadata
     id="metadata3312">
    <rdf:RDF>
      <cc:Work
         rdf:about="">
        <dc:format>image/svg+xml</dc:format>
        <dc:type
           rdf:resource="http://purl.org/dc/dcmitype/StillImage" />
        <dc:title />
      </cc:Work>
    </rdf:RDF>
  </metadata>
  <defs
     id="defs3310" />
  <sodipodi:namedview
     pagecolor="#ffffff"
     bordercolor="#666666"
     borderopacity="1"
     objecttolerance="10"
     gridtolerance="10"
     guidetolerance="10"
     inkscape:pageopacity="0"
     inkscape:pageshadow="2"
     inkscape:window-width="1600"
     inkscape:window-height="850"
     id="namedview3308"
     showgrid="false"
     inkscape:zoom="0.095686469"
     inkscape:cx="-639.70982"
     inkscape:cy="-1071.4381"
     inkscape:window-x="-8"
     inkscape:window-y="-8"
     inkscape:window-maximized="1"
     inkscape:current-layer="svg3306" />
  <g
     id="g3316"
     transform="matrix(9.4705985,0,0,9.4705985,-4.5300823,352.81708)">
    <path
       style="fill:#12aa2d"
       d="m 33.468661,65.939396 c -2.712566,-3.543818 0.176254,-9.59317 -3.569782,-11.982583 -4.134796,0.251574 -5.235306,5.728565 -9.270988,6.651443 -2.81167,1.588317 -6.741118,4.223726 -9.51639,1.118881 -2.3206537,-2.758958 -0.283333,-6.60378 -0.373248,-9.862075 0.470849,-3.324882 1.279311,-6.639583 2.789448,-9.655627 3.737451,-2.49849 -1.26984,-6.337279 -3.072905,-2.087427 -1.4502457,2.451043 -6.2946809,4.78392 -5.4157785,-0.01649 0.2943869,-5.21641 -0.7745378,-10.750812 0.4783459,-15.76754 3.1867407,-2.667069 7.8384066,-1.251733 11.6832056,-1.741499 26.425349,-0.417711 52.857788,-0.495975 79.28491,-0.389036 3.079643,0.261266 8.387951,-0.572364 7.629721,4.163727 -0.57033,4.491217 0.1457,8.987771 -0.1737,13.473932 -0.3035,3.88811 -7.422989,0.517978 -5.639875,5.501305 1.062696,4.289286 1.943235,8.857533 1.109586,13.259407 -1.253579,3.306871 -5.332044,8.331038 -8.817084,4.298099 -3.822615,-2.197753 -6.974981,-5.086634 -9.92116,-8.310521 -5.167969,-3.152883 -4.738058,3.647239 -4.612717,6.916798 -0.429584,3.236245 -2.694466,9.361596 -6.918407,6.583066 -3.852365,-2.378009 -7.935745,-4.854471 -10.946947,-7.858767 -4.236536,-0.945035 -9.256911,-0.31409 -12.392547,2.914661 -3.099084,2.176661 -6.40581,5.655146 -10.513621,4.99866 -0.970812,-0.341101 -1.538933,-1.276121 -1.820067,-2.208409 z"
       id="path3318"
       inkscape:connector-curvature="0" />
  </g>
</svg>
