<?xml version="1.0" encoding="UTF-8" standalone="no"?>
<!-- Created with Inkscape (http://www.inkscape.org/) -->

<svg
   xmlns:dc="http://purl.org/dc/elements/1.1/"
   xmlns:cc="http://creativecommons.org/ns#"
   xmlns:rdf="http://www.w3.org/1999/02/22-rdf-syntax-ns#"
   xmlns:svg="http://www.w3.org/2000/svg"
   xmlns="http://www.w3.org/2000/svg"
   xmlns:sodipodi="http://sodipodi.sourceforge.net/DTD/sodipodi-0.dtd"
   xmlns:inkscape="http://www.inkscape.org/namespaces/inkscape"
   id="svg2985"
   version="1.1"
   inkscape:version="0.48.2 r9819"
   width="1024"
   height="1024"
   sodipodi:docname="King_Kahuka torso.svg">
  <metadata
     id="metadata2991">
    <rdf:RDF>
      <cc:Work
         rdf:about="">
        <dc:format>image/svg+xml</dc:format>
        <dc:type
           rdf:resource="http://purl.org/dc/dcmitype/StillImage" />
        <dc:title />
      </cc:Work>
    </rdf:RDF>
  </metadata>
  <defs
     id="defs2989" />
  <sodipodi:namedview
     pagecolor="#ffffff"
     bordercolor="#666666"
     borderopacity="1"
     objecttolerance="10"
     gridtolerance="10"
     guidetolerance="10"
     inkscape:pageopacity="0"
     inkscape:pageshadow="2"
     inkscape:window-width="1600"
     inkscape:window-height="850"
     id="namedview2987"
     showgrid="false"
     inkscape:zoom="0.52678571"
     inkscape:cx="221.86824"
     inkscape:cy="40.42057"
     inkscape:window-x="-8"
     inkscape:window-y="-8"
     inkscape:window-maximized="1"
     inkscape:current-layer="svg2985" />
  <path
     style="fill:#000000"
     d=""
     id="path3033"
     inkscape:connector-curvature="0" />
  <g
     id="g3066"
     transform="matrix(9.5076986,0,0,9.5077031,1064.475,42.228649)">
    <path
       inkscape:connector-curvature="0"
       id="path3037"
       d="m -94.398305,101.73567 c -2.2,-0.45309 -6.812495,-0.84973 -10.249995,-0.88143 l -6.25,-0.0576 0.0435,-3.250003 c 0.0736,-5.49426 1.57705,-11.51346 3.30811,-13.24451 1.96744,-1.967446 2.0979,-3.188956 0.401,-3.754596 -0.74255,-0.24751 -0.23668,-0.9644 1.25,-1.77142 3.01097,-1.63447 20.933615,-2.12247 25.429421,-0.69241 11.026602,3.50744 25.130067,11.598136 31.567913,18.109476 3.436389,3.47562 7.252974,4.621203 8.527179,2.55949 1.043694,-1.68873 -2.134221,-5.60264 -8.16877,-10.06062 l -5.632348,-4.16086 3.38697,-1.522486 c 1.862833,-0.83736 3.951438,-1.43246 4.641344,-1.32243 0.689906,0.11003 2.714906,-0.46769 4.5,-1.28382 5.127432,-2.34423 21.445826,-3.59595 27.245625,-2.0899 7.1266744,1.8506 11.1227644,10.664526 8.1072444,17.881666 -0.83911,2.00829 -1.31436,4.202913 -1.05611,4.876933 0.36552,0.95398 -8.7826444,1.25461 -41.2907924,1.35692 -22.968188,0.0723 -43.560342,-0.23929 -45.760341,-0.69237 z m 34.310472,-9.007643 c -0.329431,-0.98829 -4.030429,-3.08661 -12.810473,-7.26303 -7.287442,-3.466426 -21.999999,-4.916536 -21.999999,-2.168386 0,0.824996 0.815247,1.499996 1.811662,1.499996 3.696894,0 24.593328,5.95896 28.110177,8.01607 2.173328,1.27125 5.322423,1.21672 4.888633,-0.0847 z m 47.009081,-4.1141 c -0.36146,-2.46893 -4.780724,-4.11615 -8.523123,-3.17687 -3.1631,0.79389 -2.88626,3.19136 0.453569,3.92797 1.5125,0.33359 3.2,0.75664 3.75,0.94011 3.056774,1.01968 4.626464,0.40511 4.319554,-1.69121 z m -7.569554,-4.803656 c 4.205501,-0.01 5.75,-0.38299 5.75,-1.38866 0,-0.75625 -1.318748,-1.63875 -2.930551,-1.96111 -3.576619,-0.71532 -12.927354,0.29718 -13.657673,1.47886 -0.972185,1.57303 0.787385,3.038616 2.951083,2.458026 1.175428,-0.31541 4.724641,-0.579606 7.887141,-0.587116 z m -39.25,-10.6211 c -4.267848,-1.53301 -6.495488,-3.2172 -8.540857,-6.45728 -1.838457,-2.9123 -2.119994,-4.32136 -1.519527,-7.60506 0.405362,-2.21676 1.484779,-5.09804 2.398703,-6.40285 2.340729,-3.34186 2.069296,-4.74201 -0.404523,-2.08668 -1.136412,1.2198 -3.948912,3.39808 -6.25,4.84062 -5.590055,3.50439 -8.651879,6.90911 -9.349331,10.39637 -0.632073,3.16037 -2.720472,5.41983 -4.177297,4.51946 -0.873375,-0.53978 -2.670562,-7.27604 -2.344851,-8.78903 0.08192,-0.38055 0.351471,-3.14276 0.598998,-6.13826 0.403099,-4.87817 0.261176,-5.39696 -1.360405,-4.97291 -0.99575,0.2604 -2.218899,1.89761 -2.718109,3.63826 -2.150041,7.49675 -6.176456,1.00432 -6.276358,-10.12038 -0.06569,-7.31506 1.166713,-9.80629 7.856029,-15.88051 l 4.587528,-4.16569 -2.762291,-1.06423 c -3.994467,-1.53895 -5.483025,-5.31794 -3.36691,-8.54754 0.909976,-1.3888 2.886308,-2.78442 4.391851,-3.10137 1.505542,-0.31696 3.518744,-0.9991 4.473781,-1.5158802 0.955037,-0.51678 3.656499,-0.9396 6.003248,-0.9396 4.56232,0 7.701785,2.4292402 10.706192,8.2841902 2.088794,4.07061 7.447365,7.08717 11.241554,6.32833 3.407574,-0.68152 6.560153,-3.75861 7.43922,-7.26109 0.314701,-1.25386 1.424783,-2.55036 2.466849,-2.8811 1.042067,-0.33074 2.565661,-1.27234 3.385766,-2.09244 1.636078,-1.6360802 11.52074,-2.8749802 11.52074,-1.4439602 0,0.4896502 1.847595,1.2024302 4.105767,1.5839402 7.419483,1.25352 9.994337,6.16056 5.465242,10.41542 l -2.428991,2.28192 4.091758,3.8924 c 2.250466,2.14082 4.393512,3.89239 4.762324,3.89239 0.368812,0 0.740899,0.5625 0.82686,1.25 1.607954,12.86 1.143014,16.55464 -2.642642,21 -2.559041,3.005 -3.953183,2.03691 -4.680318,-3.25 -0.378222,-2.75 -1.122006,-5 -1.652855,-5 -0.530848,0 -0.718576,-0.39901 -0.417172,-0.88669 0.624698,-1.01078 -1.001361,-2.46865 -3.928286,-3.52197 -1.701398,-0.61229 -1.610363,-0.30104 0.612685,2.09476 3.144373,3.38873 6.160273,14.61162 5.235811,19.48373 -1.591163,8.38576 -4.068075,8.71718 -6.344755,0.84893 -1.783347,-6.16327 -4.791735,-8.91215 -10.607176,-9.69216 l -3.928598,-0.52694 0.355027,4.46388 c 0.397538,4.99839 -2.506686,11.96073 -5.702703,13.67118 -2.38108,1.27432 -9.159388,2.1628 -11.121978,1.45784 z m 10.082539,-5.175 c 2.363256,-2.11157 3.237325,-3.87576 3.625204,-7.31701 0.72504,-6.43254 -2.366685,-9.96918 -9.297197,-10.63512 -4.474116,-0.4299 -5.294018,-0.1767 -8.191158,2.52964 -5.276689,4.92916 -4.321453,12.34266 2.094434,16.25471 4.449765,2.71321 8.088688,2.45589 11.768717,-0.83222 z m -34.788597,-5.33045 c 1.281823,-2.53241 4.091348,-5.68711 6.706058,-7.52997 8.515746,-6.00194 11.095877,-8.92373 10.146507,-11.49013 -0.468998,-1.26782 -2.064448,-3.20981 -3.545444,-4.31553 -2.473532,-1.84676 -2.911211,-1.88777 -5.376855,-0.50384 -5.7313,3.21689 -11.224208,14.78549 -11.224208,23.63927 0,6.32774 0.186629,6.33909 3.293942,0.2002 z m 59.769677,-6.02606 c -2.752388,-12.83395 -8.354807,-18.39728 -18.098011,-17.97174 -1.686896,0.0737 -3.126631,1.11327 -4.305449,3.10885 -1.529875,2.58988 -1.592015,3.37172 -0.45631,5.74129 1.087494,2.26898 2.390532,2.97505 7.538614,4.0849 7.569375,1.63186 11.590782,5.03049 13.306225,11.24556 1.215011,4.402 1.228773,4.41266 2.170087,1.68095 0.620017,-1.7993 0.56641,-4.52527 -0.155156,-7.88981 z M -88.28488,42.311991 c 2.262384,-1.65846 5.524884,-3.78195 7.25,-4.71887 3.585292,-1.94719 4.221492,-5.80256 1.57987,-9.574 -2.125088,-3.03399 -5.243923,-2.78982 -10.723205,0.83951 -5.874171,3.89089 -9.275418,11.7436 -8.199759,18.93141 0.975999,6.52185 1.522507,6.79125 3.873759,1.9096 1.165975,-2.42079 3.94186,-5.71813 6.219335,-7.38765 z m 71.917986,3.2987 c 1.921267,-11.37188 -7.457573,-22.37808 -16.561792,-19.4355 -3.031705,0.97989 -3.508339,1.58712 -3.776393,4.81117 -0.345329,4.15348 1.822588,6.26342 7.628629,7.42463 4.157506,0.8315 8.006141,5.45778 8.830843,10.61519 0.576807,3.60715 0.797972,3.87459 1.927128,2.33038 0.701548,-0.95943 1.579762,-3.54507 1.951585,-5.74587 z m -72.331903,2.71877 c 0.283519,0.28352 1.084715,-0.17039 1.780435,-1.00868 0.69572,-0.83829 0.934993,-1.52417 0.531717,-1.52417 -0.403276,0 0.329124,-0.9254 1.627555,-2.05646 1.897925,-1.65327 1.968661,-1.8662 0.360784,-1.08605 -1.1,0.53372 -3.35,2.45444 -5,4.26827 -1.65,1.81382 -2.283596,2.75645 -1.407991,2.09473 0.875605,-0.66172 1.82398,-0.97116 2.1075,-0.68764 z m 27.301811,-16.932 c 0.522951,-1.91824 0.441781,-2.68371 -0.239904,-2.26241 -1.591328,0.9835 -3.596998,13.24975 -2.681682,16.4006 0.65986,2.27147 0.919881,1.51993 1.466638,-4.23904 0.36552,-3.85 1.020246,-8.30461 1.454948,-9.89915 z m 13.123628,3.92913 c 0.219798,-3.73121 -0.208288,-4.94293 -2.681699,-7.59073 -3.236918,-3.46513 -3.708979,-2.74806 -1.498869,2.27683 0.794409,1.80616 1.723426,5.01741 2.064483,7.13611 0.779052,4.8396 1.774126,3.98272 2.116085,-1.82221 z m -18.703895,0.16101 c -0.04342,-1.20504 -0.297495,-1.65377 -0.564608,-0.99716 -0.267113,0.6566 -1.131587,0.94596 -1.921053,0.64301 -1.768044,-0.67846 -1.853932,0.29461 -0.185392,2.10041 1.624661,1.75832 2.770343,1.0093 2.671053,-1.74626 z m -5.383903,-3.44099 c 0.897042,-2.0625 2.076376,-4.58458 2.620742,-5.60464 0.735415,-1.37805 0.680474,-1.66349 -0.213799,-1.1108 -0.772886,0.47767 -1.022948,0.24674 -0.698825,-0.64536 0.277603,-0.76406 0.968297,-1.29092 1.534876,-1.17081 0.56658,0.12011 1.283707,-0.44239 1.593616,-1.25 0.309909,-0.80761 0.275527,-1.46839 -0.0764,-1.46839 -1.388398,0 -4.297356,3.40662 -4.297356,5.03255 0,0.94741 -0.675,2.28277 -1.5,2.96745 -1.327616,1.10183 -2.209745,7 -1.046917,7 0.249195,0 1.187026,-1.6875 2.084067,-3.75 z m 28.950866,0.5 c -0.765372,-3.70767 -5.024965,-10.75 -6.502204,-10.75 -1.504237,0 -1.181103,1.41261 0.814677,3.56144 2.189234,2.35712 3.593305,5.46748 3.290349,7.28892 -0.123531,0.74269 0.255495,1.05363 0.84228,0.69098 0.586785,-0.36265 1.066882,-0.22031 1.066882,0.31631 0,0.53663 -0.5625,1.20266 -1.25,1.48007 -0.718011,0.28973 -0.4714,0.53799 0.579455,0.58334 1.543165,0.0666 1.724468,-0.42965 1.158561,-3.17106 z m 3.152782,-2.79601 c -0.689957,-3.44978 -5.29638,-9.97034 -7.009487,-9.92218 -0.622221,0.0175 -0.400773,0.58795 0.492108,1.26768 2.254688,1.71646 5.868333,7.83915 5.872843,9.95051 0.0021,0.9625 0.284988,1.75 0.628738,1.75 0.34375,0 0.350859,-1.3707 0.0158,-3.04601 z m -23.287551,-5.19144 c -0.865673,-1.40069 -2.021717,-0.78559 -3.141157,1.67131 -0.835291,1.83327 -0.813209,2.53738 0.08948,2.85335 1.300894,0.45536 3.820582,-3.28053 3.051672,-4.52466 z m -12.523756,-0.468 c -1.602195,-1.93052 -2.958248,-0.47358 -1.593377,1.71193 0.836157,1.3389 1.413582,1.56033 1.922319,0.73717 0.399939,-0.64711 0.251915,-1.74921 -0.328942,-2.4491 z m 38.953244,-6.14144 c -1.255504,-2.83276 -2.861458,-5.15107 -3.568786,-5.15179 -0.824398,-8.4e-4 -0.375686,1.33841 1.25,3.73082 1.394828,2.05267 2.536051,4.45267 2.536051,5.33333 0,1.8714 1.318403,3.47933 1.761902,2.14883 0.166963,-0.50089 -0.723662,-3.22842 -1.979167,-6.06119 z m -42.502811,0.13398 c -0.37619,-0.98033 -0.212489,-1.36344 0.41649,-0.97471 0.569961,0.35225 1.843675,-0.25169 2.830475,-1.34209 1.937379,-2.14078 1.619629,-3.34748 -0.651932,-2.4758 -1.814478,0.69628 -6.927667,9.11947 -6.061595,9.98554 1.093381,1.09338 4.132083,-3.45862 3.466562,-5.19294 z m 39.539364,2.56029 c -3.072186,-5.46627 -5.819288,-7.46802 -5.819288,-4.24039 0,1.00201 0.552644,1.39492 1.467975,1.04368 0.807386,-0.30983 1.776915,-0.0634 2.154508,0.54752 0.415723,0.67265 0.231126,0.82937 -0.467975,0.39731 -1.908441,-1.17949 -1.304213,0.46707 1.080715,2.945 2.697297,2.80248 3.380638,2.50348 1.584065,-0.69312 z m -32.363089,-0.59135 c 2.445693,-2.84329 2.449166,-4.25603 0.01046,-4.25603 -1.571953,0 -4.748772,5.38456 -3.760114,6.37322 0.96587,0.96587 1.222215,0.82113 3.74965,-2.11719 z m -2.409083,0.24397 c -0.0245,-1.48594 1.760487,-4.02573 2.388179,-3.39803 0.299222,0.29922 -0.111999,1.41119 -0.913824,2.47104 -0.801825,1.05984 -1.465285,1.47699 -1.474355,0.92699 z m -9.657691,-1.07244 c 0.755403,-1.96855 -0.800257,-4.98749 -3.006263,-5.83402 -1.777784,-0.6822 -5.383162,1.90401 -5.383162,3.86145 0,3.34326 7.212671,5.03914 8.389425,1.97257 z m 60.680142,-0.0114 c 1.779056,-2.14363 0.04751,-4.81812 -3.385551,-5.22923 -2.081755,-0.24929 -2.742386,0.19744 -3.243281,2.19316 -0.345962,1.37843 -0.335099,2.9818 0.02414,3.56306 0.986531,1.59624 5.116023,1.26675 6.604693,-0.52699 z"
       style="fill:#000000" />
    <path
       inkscape:connector-curvature="0"
       id="path3041"
       d="m -58.495553,49.863785 c -2.665506,0.01902 -4.698957,2.06867 -6.336335,3.944916 -2.610708,2.989517 -3.0244,7.669769 -0.884403,11.03182 1.68213,2.744634 4.528722,4.659735 7.565202,5.58314 2.575712,0.767652 5.418247,0.02119 7.461948,-1.667037 2.107276,-1.565093 3.867088,-3.764362 4.28273,-6.414111 0.602163,-3.095496 0.66398,-6.759329 -1.598505,-9.225945 -2.422791,-2.552955 -6.145226,-3.070206 -9.489578,-3.25649 -0.333467,-0.0093 -0.667858,-0.01597 -1.001059,0.0037 z"
       style="fill:#edeea7;fill-opacity:1;stroke:#000000;stroke-width:0.11864407;stroke-opacity:1" />
    <path
       inkscape:connector-curvature="0"
       id="path3043"
       d="m -42.51568,38.666751 c -1.938382,-0.168231 -3.554837,1.206155 -4.519598,2.754767 -0.855266,1.274178 -1.708367,2.739611 -1.353283,4.341632 0.483441,1.806786 1.497967,3.690642 3.29608,4.460275 3.093499,1.297918 6.548802,1.578482 9.637999,2.911916 3.934284,1.533484 7.111939,4.837264 8.269898,8.920577 0.500026,1.395542 0.769827,2.88986 1.379179,4.236363 0.465357,0.387883 0.724731,-0.47614 0.834216,-0.793432 0.844868,-2.054328 0.897237,-4.315855 0.558888,-6.487292 -0.658191,-4.401379 -1.870563,-8.795304 -4.058888,-12.692263 -1.954275,-3.489023 -5.23523,-6.353432 -9.206038,-7.207627 -1.577873,-0.384709 -3.214629,-0.481037 -4.838453,-0.444916 z"
       style="fill:#edeea7;fill-opacity:1;stroke:#000000;stroke-width:0.11864407;stroke-opacity:1" />
    <path
       inkscape:connector-curvature="0"
       id="path3045"
       d="m -30.150744,25.667811 c -1.86216,0.11835 -3.800276,0.568404 -5.331567,1.664724 -1.280012,1.154625 -1.221477,3.063532 -1.279075,4.653012 -0.04515,1.989508 1.071682,3.902382 2.843693,4.81256 2.662636,1.596228 6.151888,1.398065 8.534958,3.48517 2.915906,2.256689 4.651301,5.760065 5.194339,9.374494 0.247163,0.834424 0.195081,1.848951 0.745279,2.549235 0.541551,0.243988 0.901828,-0.534755 1.175318,-0.882416 1.946241,-3.467308 2.476003,-7.609553 1.965043,-11.527012 -0.846111,-5.577664 -4.273147,-11.035745 -9.580509,-13.310382 -1.345964,-0.5647 -2.803308,-0.874693 -4.267479,-0.819385 z"
       style="fill:#edeea7;fill-opacity:1;stroke:#000000;stroke-width:0.11864407;stroke-opacity:1" />
    <path
       inkscape:connector-curvature="0"
       id="path3047"
       d="m -74.308583,37.88815 c -1.851006,0.292148 -3.394592,1.546387 -4.771716,2.743644 -3.540608,3.546657 -5.807369,8.171231 -7.341101,12.891419 -1.098886,3.414993 -1.609018,6.993572 -1.512712,10.581568 0.06825,0.998808 -0.08049,2.082106 0.304025,3.021716 0.385231,0.396688 0.783628,-0.322922 0.971398,-0.589513 1.687975,-2.761857 2.906641,-5.85837 5.287077,-8.127118 2.855881,-3.16634 6.642221,-5.236096 9.802966,-8.075212 1.559533,-1.444464 3.388203,-2.910646 3.981991,-5.034958 0.337337,-1.675914 -0.930074,-3.124894 -1.924258,-4.319385 -1.207111,-1.217232 -2.497001,-2.539326 -4.171081,-3.04767 -0.205428,-0.04265 -0.417214,-0.05388 -0.626589,-0.04449 z"
       style="fill:#edeea7;fill-opacity:1;stroke:#000000;stroke-width:0.11864407;stroke-opacity:1" />
    <path
       inkscape:connector-curvature="0"
       id="path3049"
       d="m -83.462714,25.919929 c -2.78176,0.270665 -5.204809,1.886659 -7.446598,3.431014 -4.961308,3.714409 -7.764699,9.959422 -7.695351,16.115597 0.173638,2.421379 0.390687,4.906549 1.282839,7.177966 0.165119,0.407744 0.719682,0.685434 0.997351,0.211334 1.436107,-1.826202 2.158302,-4.115175 3.633475,-5.913665 1.692494,-2.289457 3.773105,-4.272775 6.180614,-5.787606 2.061273,-1.463012 4.267466,-2.726368 6.373411,-4.115466 2.011276,-1.310702 2.803854,-3.997127 2.061441,-6.239936 -0.646994,-2.092828 -1.984346,-4.459551 -4.349046,-4.834746 -0.343094,-0.05097 -0.691916,-0.06261 -1.038136,-0.04449 z"
       style="fill:#edeea7;fill-opacity:1;stroke:#000000;stroke-width:0.11864407;stroke-opacity:1" />
    <path
       inkscape:connector-curvature="0"
       id="path3051"
       d="m -88.404981,13.273213 c -1.772388,0.252473 -3.321086,1.503639 -4.271186,2.977225 -0.789302,1.293808 0.275908,2.764432 1.356991,3.481462 1.698933,1.161319 4.146021,1.579508 5.980403,0.51536 1.23848,-0.753135 1.121201,-2.424856 0.782309,-3.637182 -0.626165,-1.596145 -1.972792,-3.33909 -3.848517,-3.336865 z"
       style="fill:#edeea7;fill-opacity:1;stroke:#000000;stroke-width:0.11864407;stroke-opacity:1" />
    <path
       inkscape:connector-curvature="0"
       id="path3053"
       d="m -28.144917,13.896095 c -1.135296,-0.07381 -2.047263,0.835635 -2.25053,1.909428 -0.298949,1.310149 -0.651819,2.85557 0.05561,4.09322 1.244468,1.292285 3.304888,0.988033 4.838454,0.463453 1.536128,-0.511912 2.901201,-2.211314 2.239407,-3.867055 -0.769037,-1.831473 -3.028871,-2.626181 -4.882945,-2.599046 z"
       style="fill:#ff0000;fill-opacity:1;stroke:#000000;stroke-width:0.11864407;stroke-opacity:1" />
    <path
       inkscape:connector-curvature="0"
       id="path3060"
       d="m -91.288819,77.249515 c -4.472785,0.109299 -9.015811,0.138022 -13.396831,1.11684 -0.98133,0.369806 -2.36683,0.642756 -2.76326,1.70934 0.30461,0.751086 1.70908,0.94811 1.36853,1.992483 -0.60008,1.556133 -2.1053,2.604425 -2.66364,4.241892 -1.92625,4.537124 -2.14819,9.58027 -2.22843,14.45075 2.31578,0.26872 4.80919,0.10487 7.19371,0.22075 3.55586,-0.0118 7.080312,0.46284 10.602306,0.86462 13.719545,0.74544 27.464778,0.4181 41.197208,0.5319 13.420772,-0.0491 26.851662,0.10569 40.262618,-0.4893 1.45053,-0.13264 3.0145055,-0.0855 4.3480312,-0.66131 0.037098,-3.775582 2.5356466,-7.160889 2.0658904,-11.005851 -0.3473162,-4.828007 -3.2091948,-9.807428 -7.9174986,-11.488238 -4.052068,-1.469523 -8.46938,-0.892926 -12.694099,-0.911381 -5.093659,0.189344 -10.261224,0.710928 -15.111527,2.327093 -2.166677,0.942819 -4.454306,1.430315 -6.769199,1.814208 -2.205666,0.515821 -4.205837,1.610333 -6.281565,2.480117 0.437761,0.766813 1.574065,1.223912 2.267622,1.877313 3.648712,2.843329 7.701965,5.4505 10.473783,9.186212 0.633945,0.994171 1.675862,2.552417 0.561041,3.591713 -0.76109,0.86334 -2.154303,0.483771 -3.166999,0.377523 -3.643311,-1.332358 -5.928271,-4.693208 -9.048056,-6.853856 -8.137087,-6.164989 -17.27969,-11.05593 -26.947724,-14.355603 -3.633289,-1.157246 -7.580495,-0.944707 -11.351911,-1.017215 z m 70.518172,3.098836 c 1.964857,0.03306 4.327104,-0.0087 5.68382,1.651664 0.415893,0.947284 -0.762008,1.448624 -1.515336,1.468145 -4.064917,0.412037 -8.170229,0.323704 -12.227554,0.85467 -1.046581,0.08618 -2.711973,0.129794 -2.831423,-1.22695 -0.350731,-1.364774 1.459737,-1.760275 2.411953,-1.997726 2.776209,-0.653424 5.637099,-0.769797 8.47854,-0.749803 z M -90.2349,81.952824 c 5.438957,0.124787 10.92324,1.004954 15.981812,3.035915 4.324827,1.934628 8.683568,3.972009 12.709945,6.47557 0.478404,0.422453 1.671231,0.954593 1.28987,1.756531 -0.86495,0.746171 -2.267773,0.375269 -3.287597,0.146815 -4.194866,-1.870592 -8.545246,-3.375118 -12.959539,-4.649724 -5.713858,-1.68914 -11.51813,-3.172187 -17.378638,-4.164392 -0.784976,-0.264599 -1.460573,-1.657539 -0.361793,-1.997726 1.210256,-0.643055 2.673661,-0.56044 4.00594,-0.602989 z m 70.790827,3.371491 c 2.199617,-0.02343 4.874706,0.511713 6.035126,2.569255 0.396138,0.919938 0.451746,2.504797 -0.802236,2.737042 -1.617688,0.416684 -3.248068,-0.5159 -4.833729,-0.766141 -1.484837,-0.495599 -3.311921,-0.590231 -4.436561,-1.78214 -0.694909,-1.083746 0.329475,-2.235702 1.399982,-2.432926 0.843581,-0.24507 1.749787,-0.339833 2.637418,-0.32509 z"
       style="fill:#ff0000;fill-opacity:1;stroke:#ff0000;stroke-width:0.16778804;stroke-opacity:1" />
    <path
       inkscape:connector-curvature="0"
       id="path3062"
       d="m -28.468649,13.944335 c -1.797587,0.207939 -2.14936,2.384655 -2.168252,3.858935 -0.163114,1.058379 0.08832,2.364206 1.255904,2.700529 1.976211,0.684509 4.531841,0.07 5.783444,-1.651663 1.157081,-1.587151 -0.0869,-3.720507 -1.746044,-4.325786 -0.965766,-0.45604 -2.061931,-0.619373 -3.125052,-0.582015 z"
       style="fill:#edeea7;fill-opacity:1;stroke:#000000;stroke-width:0.16778804;stroke-opacity:1" />
    <path
       transform="matrix(1.2356902,0,0,1.2356902,14.455401,-11.554814)"
       d="m -55.288135,46.508476 c 0,1.113931 -0.903019,2.016949 -2.016949,2.016949 -1.113931,0 -2.016949,-0.903018 -2.016949,-2.016949 0,-1.11393 0.903018,-2.016949 2.016949,-2.016949 1.11393,0 2.016949,0.903019 2.016949,2.016949 z"
       sodipodi:ry="2.0169492"
       sodipodi:rx="2.0169492"
       sodipodi:cy="46.508476"
       sodipodi:cx="-57.305084"
       id="path3064"
       style="fill:#ff0000;fill-opacity:1;stroke:#ff0000;stroke-opacity:1"
       sodipodi:type="arc" />
  </g>
</svg>
