<?xml version="1.0" encoding="UTF-8" standalone="no"?>
<!-- Created with Inkscape (http://www.inkscape.org/) -->

<svg
   xmlns:dc="http://purl.org/dc/elements/1.1/"
   xmlns:cc="http://creativecommons.org/ns#"
   xmlns:rdf="http://www.w3.org/1999/02/22-rdf-syntax-ns#"
   xmlns:svg="http://www.w3.org/2000/svg"
   xmlns="http://www.w3.org/2000/svg"
   xmlns:sodipodi="http://sodipodi.sourceforge.net/DTD/sodipodi-0.dtd"
   xmlns:inkscape="http://www.inkscape.org/namespaces/inkscape"
   id="svg2985"
   version="1.1"
   inkscape:version="0.48.2 r9819"
   width="1024"
   height="1024"
   sodipodi:docname="KK-Face.svg"
   inkscape:export-filename="G:\LEGO Textures Scans\Complete\Islanders\KK-Face.png"
   inkscape:export-xdpi="90"
   inkscape:export-ydpi="90">
  <metadata
     id="metadata2991">
    <rdf:RDF>
      <cc:Work
         rdf:about="">
        <dc:format>image/svg+xml</dc:format>
        <dc:type
           rdf:resource="http://purl.org/dc/dcmitype/StillImage" />
        <dc:title></dc:title>
      </cc:Work>
    </rdf:RDF>
  </metadata>
  <defs
     id="defs2989" />
  <sodipodi:namedview
     pagecolor="#ffffff"
     bordercolor="#666666"
     borderopacity="1"
     objecttolerance="10"
     gridtolerance="10"
     guidetolerance="10"
     inkscape:pageopacity="0"
     inkscape:pageshadow="2"
     inkscape:window-width="1600"
     inkscape:window-height="850"
     id="namedview2987"
     showgrid="false"
     inkscape:zoom="0.24753362"
     inkscape:cx="865.97552"
     inkscape:cy="-382.11707"
     inkscape:window-x="-8"
     inkscape:window-y="-8"
     inkscape:window-maximized="1"
     inkscape:current-layer="svg2985" />
  <g
     id="g3109"
     transform="matrix(16.791099,0,0,16.791099,-30.678639,-61.896458)">
    <rect
       y="14.850559"
       x="6.5693827"
       height="43.59594"
       width="51.650352"
       id="rect3294"
       style="fill:#eef0a7;fill-opacity:1;stroke:#efefa3;stroke-width:0.96009731;stroke-opacity:1" />
    <path
       sodipodi:nodetypes="csssccc"
       inkscape:connector-curvature="0"
       id="path3246"
       d="m 56.840753,40.117473 c 0,0 -3.42542,-0.100792 -5.296435,-0.07283 -1.856256,0.02774 -2.072492,0.990579 -2.071909,3.002274 5.48e-4,1.889475 0.245108,2.825257 2.130323,2.801863 1.985862,-0.02464 5.353152,0.02522 5.353152,0.02522 l -0.05757,-2.87826 z"
       style="fill:#ff0000;stroke:#ff0000;stroke-width:1px;stroke-linecap:butt;stroke-linejoin:miter;stroke-opacity:1" />
    <path
       sodipodi:nodetypes="cssccsscc"
       inkscape:connector-curvature="0"
       id="path3284"
       d="m 32.683342,58.461453 c 10.060715,0.09444 20.244817,0.207101 20.892993,0.06948 1.379189,-0.292829 2.722443,-0.74137 3.528337,-3.619624 0.805897,-2.878263 0.358161,-40.024669 0.358161,-40.024669 l 3.639978,-0.02602 c 0,0 0.233446,39.899392 -0.189368,42.102866 -0.864538,4.505495 -2.780764,5.638396 -6.249151,6.059783 -3.431866,0.41695 -22.092959,0 -22.092959,0 z"
       style="fill:#0000ff;stroke:#0000ff;stroke-width:1px;stroke-linecap:butt;stroke-linejoin:miter;stroke-opacity:1" />
    <g
       transform="translate(-119.97888,-6.4237836)"
       id="g3025">
      <path
         sodipodi:nodetypes="sssssss"
         inkscape:connector-curvature="0"
         id="path3027"
         d="m 145.76377,53.235998 c -1.93361,-0.647415 -3.21997,-2.070536 -2.68931,-2.463563 0.84288,-0.624272 1.47556,0.06415 2.90081,0.386546 7.13677,1.614385 7.86545,1.455515 13.41142,-0.146883 2.24798,-0.649508 3.1597,-0.552747 3.11885,0.02611 -0.0724,1.026081 -1.17048,1.992624 -3.51343,2.69352 -5.67224,1.696855 -6.68988,1.693483 -13.22834,-0.49573 z"
         style="fill:#000000;stroke:#000000" />
    </g>
    <path
       transform="matrix(0.78000693,0,0,0.78000693,8.2746255,6.6536708)"
       d="m 48.35723,32.523087 c 0,2.180618 -1.76774,3.948359 -3.948359,3.948359 -2.180619,0 -3.94836,-1.767741 -3.94836,-3.948359 0,-2.180619 1.767741,-3.94836 3.94836,-3.94836 2.180619,0 3.948359,1.767741 3.948359,3.94836 z"
       sodipodi:ry="3.9483597"
       sodipodi:rx="3.9483597"
       sodipodi:cy="32.523087"
       sodipodi:cx="44.408871"
       id="path2995"
       style="fill:#000000;fill-opacity:1;stroke:#000000;stroke-opacity:1"
       sodipodi:type="arc" />
    <path
       sodipodi:type="arc"
       style="fill:#000000;fill-opacity:1;stroke:#000000;stroke-opacity:1"
       id="path3082"
       sodipodi:cx="44.408871"
       sodipodi:cy="32.523087"
       sodipodi:rx="3.9483597"
       sodipodi:ry="3.9483597"
       d="m 48.35723,32.523087 c 0,2.180618 -1.76774,3.948359 -3.948359,3.948359 -2.180619,0 -3.94836,-1.767741 -3.94836,-3.948359 0,-2.180619 1.767741,-3.94836 3.94836,-3.94836 2.180619,0 3.948359,1.767741 3.948359,3.94836 z"
       transform="matrix(-0.78000693,0,0,0.78000693,57.002305,6.6532793)" />
    <path
       sodipodi:nodetypes="csssccc"
       inkscape:connector-curvature="0"
       id="path3246-0"
       d="m 8.0166564,40.117473 c 0,0 3.4254196,-0.100792 5.2964346,-0.07283 1.856256,0.02774 2.072492,0.990579 2.071909,3.002274 -5.48e-4,1.889475 -0.245108,2.825257 -2.130323,2.801863 C 11.268815,45.82414 7.9015254,45.874 7.9015254,45.874 l 0.05757,-2.87826 z"
       style="fill:#ff0000;stroke:#ff0000;stroke-width:1px;stroke-linecap:butt;stroke-linejoin:miter;stroke-opacity:1" />
    <path
       style="fill:#0000ff;stroke:#0000ff;stroke-width:1px;stroke-linecap:butt;stroke-linejoin:miter;stroke-opacity:1"
       d="M 31.955506,58.461453 C 21.894791,58.555893 11.710689,58.668554 11.062513,58.530933 9.6833243,58.238104 8.3400703,57.789563 7.5341763,54.911309 6.7282793,52.033046 7.1760153,14.88664 7.1760153,14.88664 l -3.639978,-0.02602 c 0,0 -0.233446,39.899392 0.189368,42.102866 0.864538,4.505495 2.780764,5.638396 6.249151,6.059783 3.4318657,0.41695 22.0929587,0 22.0929587,0 z"
       id="path3288"
       inkscape:connector-curvature="0"
       sodipodi:nodetypes="cssccsscc" />
  </g>
</svg>
