<?xml version="1.0" encoding="UTF-8" standalone="no"?>
<!-- Created with Inkscape (http://www.inkscape.org/) -->

<svg
   xmlns:dc="http://purl.org/dc/elements/1.1/"
   xmlns:cc="http://creativecommons.org/ns#"
   xmlns:rdf="http://www.w3.org/1999/02/22-rdf-syntax-ns#"
   xmlns:svg="http://www.w3.org/2000/svg"
   xmlns="http://www.w3.org/2000/svg"
   xmlns:sodipodi="http://sodipodi.sourceforge.net/DTD/sodipodi-0.dtd"
   xmlns:inkscape="http://www.inkscape.org/namespaces/inkscape"
   id="svg3015"
   version="1.1"
   inkscape:version="0.48.2 r9819"
   width="1024"
   height="1024"
   sodipodi:docname="Male Islander Face.svg"
   inkscape:export-filename="G:\LEGO Textures Scans\Complete\Islanders\Male Islander Face.png"
   inkscape:export-xdpi="90"
   inkscape:export-ydpi="90">
  <metadata
     id="metadata3021">
    <rdf:RDF>
      <cc:Work
         rdf:about="">
        <dc:format>image/svg+xml</dc:format>
        <dc:type
           rdf:resource="http://purl.org/dc/dcmitype/StillImage" />
        <dc:title></dc:title>
      </cc:Work>
    </rdf:RDF>
  </metadata>
  <defs
     id="defs3019" />
  <sodipodi:namedview
     pagecolor="#ffffff"
     bordercolor="#666666"
     borderopacity="1"
     objecttolerance="10"
     gridtolerance="10"
     guidetolerance="10"
     inkscape:pageopacity="0"
     inkscape:pageshadow="2"
     inkscape:window-width="1600"
     inkscape:window-height="850"
     id="namedview3017"
     showgrid="false"
     inkscape:zoom="0.54180909"
     inkscape:cx="67.658036"
     inkscape:cy="13.588999"
     inkscape:window-x="-8"
     inkscape:window-y="-8"
     inkscape:window-maximized="1"
     inkscape:current-layer="svg3015" />
  <g
     id="g3140"
     transform="matrix(14.516307,0,0,14.516307,-53.137301,87.710488)">
    <g
       transform="matrix(1.2726477,0,0,1.2726477,-10.921696,-3.422897)"
       id="g3075">
      <path
         sodipodi:nodetypes="cccccc"
         style="fill:#ff0000;stroke:#ff0000;stroke-width:1px;stroke-linecap:butt;stroke-linejoin:miter;stroke-opacity:1"
         d="M 55.639194,45.136686 50.179113,33.396081 37.374788,30.512224 36.259674,16.490263 66.033912,16.336413 c 0,0 1.486773,18.418387 -10.394718,28.800273 z"
         id="path3051"
         inkscape:connector-curvature="0" />
      <path
         style="fill:#ffffff;stroke:#800000;stroke-width:1px;stroke-linecap:butt;stroke-linejoin:miter;stroke-opacity:1"
         d="m 13.035035,17.015773 23.762981,-0.576772 0.576772,14.073223 12.91968,2.883857 5.767714,11.30472 c 0,0 -8.766926,7.728737 -17.072434,7.959446 -8.305509,0.230708 -15.688183,-3.345275 -18.918103,-6.575195 -3.22992,-3.22992 -6.921256,-9.112988 -7.613382,-11.766137 -0.692126,-2.653148 0.576772,-17.303142 0.576772,-17.303142 z"
         id="path3049"
         inkscape:connector-curvature="0" />
      <path
         sodipodi:type="arc"
         style="fill:#000000;fill-opacity:1;stroke:#000000;stroke-opacity:1"
         id="path3053"
         sodipodi:cx="45.045849"
         sodipodi:cy="38.644699"
         sodipodi:rx="3.5183058"
         sodipodi:ry="3.5183058"
         d="m 48.564155,38.644699 c 0,1.943107 -1.5752,3.518306 -3.518306,3.518306 -1.943107,0 -3.518306,-1.575199 -3.518306,-3.518306 0,-1.943107 1.575199,-3.518306 3.518306,-3.518306 1.943106,0 3.518306,1.575199 3.518306,3.518306 z"
         transform="translate(4.6141714,-14.303931)" />
      <path
         sodipodi:type="arc"
         style="fill:#000000;fill-opacity:1;stroke:#000000;stroke-opacity:1"
         id="path3053-1"
         sodipodi:cx="45.045849"
         sodipodi:cy="38.644699"
         sodipodi:rx="3.5183058"
         sodipodi:ry="3.5183058"
         d="m 48.564155,38.644699 c 0,1.943107 -1.5752,3.518306 -3.518306,3.518306 -1.943107,0 -3.518306,-1.575199 -3.518306,-3.518306 0,-1.943107 1.575199,-3.518306 3.518306,-3.518306 1.943106,0 3.518306,1.575199 3.518306,3.518306 z"
         transform="translate(-16.322632,-14.303936)" />
      <path
         style="fill:#000000;stroke:none"
         d="m 30.165145,35.760844 c 0,0 3.691337,2.883857 7.67106,3.056888 3.979723,0.173032 6.113777,-1.326574 7.959446,-2.364763 1.845668,-1.038188 3.63366,0.115355 3.114565,1.268897 -0.519094,1.153543 -4.671848,3.22992 -9.459051,3.691338 -4.787203,0.461417 -10.035823,-3.22992 -10.843303,-4.095078 -0.80748,-0.865157 -0.634448,-1.961022 1.557283,-1.557282 z"
         id="path3073"
         inkscape:connector-curvature="0" />
    </g>
  </g>
</svg>
