<?xml version="1.0" encoding="UTF-8" standalone="no"?>
<!-- Created with Inkscape (http://www.inkscape.org/) -->

<svg
   xmlns:dc="http://purl.org/dc/elements/1.1/"
   xmlns:cc="http://creativecommons.org/ns#"
   xmlns:rdf="http://www.w3.org/1999/02/22-rdf-syntax-ns#"
   xmlns:svg="http://www.w3.org/2000/svg"
   xmlns="http://www.w3.org/2000/svg"
   xmlns:sodipodi="http://sodipodi.sourceforge.net/DTD/sodipodi-0.dtd"
   xmlns:inkscape="http://www.inkscape.org/namespaces/inkscape"
   width="1024"
   height="1024"
   id="svg2"
   version="1.1"
   inkscape:version="0.48.4 r9939"
   sodipodi:docname="Fish Skeleton Shirt.svg"
   inkscape:export-filename="Fish Skeleton Shirt.png"
   inkscape:export-xdpi="90"
   inkscape:export-ydpi="90">
  <defs
     id="defs4" />
  <sodipodi:namedview
     id="base"
     pagecolor="#ffffff"
     bordercolor="#666666"
     borderopacity="1.0"
     inkscape:pageopacity="0.0"
     inkscape:pageshadow="2"
     inkscape:zoom="0.25"
     inkscape:cx="791.90411"
     inkscape:cy="761.89038"
     inkscape:document-units="px"
     inkscape:current-layer="layer1"
     showgrid="false"
     inkscape:window-width="1366"
     inkscape:window-height="705"
     inkscape:window-x="-8"
     inkscape:window-y="-8"
     inkscape:window-maximized="1" />
  <metadata
     id="metadata7">
    <rdf:RDF>
      <cc:Work
         rdf:about="">
        <dc:format>image/svg+xml</dc:format>
        <dc:type
           rdf:resource="http://purl.org/dc/dcmitype/StillImage" />
        <dc:title></dc:title>
      </cc:Work>
    </rdf:RDF>
  </metadata>
  <g
     inkscape:label="Layer 1"
     inkscape:groupmode="layer"
     id="layer1"
     transform="translate(0,-28.362183)">
    <rect
       style="fill:#0057a6;fill-opacity:1;stroke:#0057a6;stroke-width:9.43950844;stroke-opacity:1"
       id="rect3072"
       width="1014.5605"
       height="1014.5605"
       x="4.7197542"
       y="33.081947" />
    <path
       style="fill:#000000;fill-opacity:1;stroke:#000000;stroke-width:8.36334229;stroke-opacity:1"
       d="m 146.32766,196.4466 c 80.70358,63.57687 205.92916,104.54178 346.81736,104.54178 140.88819,0 266.37513,-40.96491 347.07871,-104.54178 l -693.89607,0 z"
       id="path3006"
       inkscape:connector-curvature="0" />
    <path
       style="fill:#000000;stroke:#000000;stroke-width:8.36334229px;stroke-linecap:butt;stroke-linejoin:miter;stroke-opacity:1"
       d="m 61.99607,836.95796 c 55.12622,-21.66358 139.3894,-61.02899 179.07731,-84.0332 45.4372,-26.33701 46.59811,-16.83457 60.48486,7.46678 8.96074,15.68127 27.60371,-12.36519 35.09618,0.74434 5.97377,10.45418 15.95425,36.87816 35.84295,38.08332 24.64191,1.49369 36.41013,-40.39829 42.56338,-11.20103 4.97544,23.60889 16.85925,53.03613 42.5634,51.52406 25.38876,-1.49287 27.58339,-45.16373 41.06994,-14.93443 14.69515,32.93821 49.28409,23.89571 59.73827,17.92179 10.45418,-5.97396 19.11734,-47.24033 35.0961,-0.74436 9.24174,26.89068 40.50149,24.78898 59.06652,5.98818 11.23841,-11.38085 26.12098,12.3794 44.82618,11.9931 23.04703,-0.4767 25.29108,-20.22182 72.33488,9.6471 43.47449,27.6032 190.4154,-121.71595 190.4154,-121.71595 0,0 30.61573,-32.10938 16.42791,-49.28433 -14.18771,-17.17496 -4.48029,-28.37599 8.96076,-33.60308 13.44119,-5.22709 7.46732,-35.09593 -39.57649,-81.39288 -48.56083,-47.78981 -100.74411,-94.28166 -176.97426,-96.32815 -10.34639,-0.27776 -10.71043,17.12228 -25.55436,14.4067 -17.75094,-3.24665 -32.306,-22.05497 -49.51826,-5.97394 -18.1625,16.96923 -29.13789,22.34936 -39.92334,11.72959 -19.79469,-19.49077 -46.59201,-26.25253 -64.96526,-10.45418 -14.0434,12.075 -25.9354,34.31061 -38.04552,25.3886 -23.69185,-17.45597 -47.99372,-17.21259 -61.26917,-3.73423 -13.14166,13.34288 -14.44886,21.28973 -30.79701,9.23313 -15.11566,-11.14834 -35.91788,-3.91488 -48.3561,22.87625 -12.43913,26.79448 -22.28922,22.20551 -38.71726,14.93442 -23.25669,-10.29277 -24.73893,14.18841 -37.17706,29.96 -10.15176,12.87286 -17.62774,-2.18701 -31.06881,12.74741 -13.44106,14.93441 -14.00659,37.19262 -34.91494,18.52481 C 247.79391,608.05912 84.260709,488.58292 48.417766,513.22468 c -35.84286,24.64258 22.401798,108.276 28.37565,154.57295 5.973768,46.29696 -2.240205,60.48453 -31.362534,103.79494 -29.122329,43.3104 -4.175733,73.51624 16.565188,65.36539 z"
       id="path3004"
       inkscape:connector-curvature="0"
       sodipodi:nodetypes="ssssssssssssscssssssssssssssssssss" />
    <path
       style="fill:#ffffff;stroke:#ffffff;stroke-width:8.36334229px;stroke-linecap:butt;stroke-linejoin:miter;stroke-opacity:1"
       d="M 103.14898,657.74824 C 85.86714,620.2144 76.789904,595.9674 64.603844,562.17783 61.245126,552.86441 39.25907,517.82451 81.500388,541.05704 123.74162,564.28957 197.89997,614.81252 255.28612,644.5258 c 8.15142,4.22098 31.94805,15.83014 41.64468,10.58298 5.14421,-2.78417 7.40123,-16.18224 7.75566,-23.53863 0.68328,-14.18256 19.61563,-14.81148 19.70111,-0.11708 0.0502,8.02713 0.60969,16.51425 2.44787,25.63196 1.10947,5.50309 18.11826,11.96293 20.23025,-3.87724 2.11208,-15.84101 -1.02945,-47.20104 9.53087,-64.62605 4.24849,-7.01016 23.76067,-10.5604 25.87275,7.92008 2.11208,18.48131 1.4998,27.34311 1.01848,45.93732 -0.3663,14.14576 41.71193,10.2911 43.03651,-11.98968 2.18016,-36.67075 1.88886,-57.47707 2.41308,-70.43774 0.68078,-16.82621 27.16656,-18.75898 28.28691,-3.77103 1.09794,14.68603 2.27374,27.96785 8.81522,60.56063 3.88828,19.37285 37.34541,17.71774 38.40146,-21.88352 0,0 2.58285,-28.73812 2.64005,-50.04374 0.0502,-18.51727 30.13446,-18.43196 31.28108,0 1.68998,27.12819 -1.43624,48.4154 5.17858,60.71035 6.7907,12.62195 34.6954,14.35317 42.11311,-0.98102 11.38116,-23.52693 4.85358,-53.43256 4.85366,-77.7724 1.6e-4,-19.53677 44.61551,-25.5015 44.3534,4.22349 -0.29522,33.46758 -5.35764,62.43653 7.46077,77.58087 11.69212,13.81458 46.89159,16.19979 49.03695,-23.19489 1.00778,-18.50556 -3.94967,-40.92518 -0.52772,-62.30607 2.97308,-18.57749 32.16056,-20.39902 33.793,5.28062 1.3812,21.72629 -4.12446,78.1454 3.16812,87.12261 9.47525,11.66352 30.62489,10.56039 30.09691,-13.20069 0,0 0.64146,-47.88265 1.05603,-71.81018 0.24171,-13.93249 -3.68756,-22.31674 22.17625,-20.59222 39.60117,2.63947 106.51869,52.11951 147.31641,96.62671 14.37951,15.68629 60.72182,36.43323 7.92026,64.94554 -52.80154,28.51315 -75.23228,38.84521 -92.93078,51.21794 -4.692,3.2801 -43.29727,34.84922 9.50427,14.25615 52.80154,-20.59222 124.61167,-51.2171 89.2346,-14.25615 -35.37703,36.96096 -91.42404,107.43967 -154.70853,117.2189 -26.42398,4.08386 -40.12915,3.16811 -39.60118,-16.89642 0.86117,-32.72576 -0.26511,-70.2136 -1.58402,-108.77112 -1.13406,-33.15313 -26.42079,-52.83876 -26.40081,-19.53677 0.025,41.93296 1.12161,73.66014 0.60299,110.48644 -0.40896,29.05842 -41.73842,29.68064 -41.06994,-5.15265 0.80288,-41.8117 1.9168,-94.9967 1.49085,-118.05778 -0.60384,-32.70317 -39.58169,-39.61631 -38.48292,-10.47593 1.11919,29.68234 1.70721,122.45189 1.36523,147.8363 -0.24086,17.88336 -46.42575,22.6956 -45.45978,-6.68314 1.05495,-32.08597 1.0721,-112.48613 1.45597,-145.08393 0.17898,-15.18448 -48.10812,-22.79596 -50.30241,0.21745 -2.53685,26.60798 1.87749,107.26238 -0.0502,139.14762 -0.86068,14.21601 -40.80542,15.93635 -41.50744,-5.84598 -0.46417,-14.39916 -2.0149,-93.176 -1.7497,-116.12667 0.19654,-16.97425 -38.00018,-16.69073 -38.26421,0 -0.34624,21.89773 1.13298,71.87121 0.92791,98.64311 -0.24421,31.89695 -41.81671,30.85822 -41.81671,2.73063 0,-24.95956 0.87899,-64.11506 0,-94.65297 -0.36548,-12.69221 -37.48659,-24.37161 -38.08306,0.74434 -0.6582,27.71026 2.48491,45.62956 1.53099,60.431 -0.84913,13.17477 -32.48615,21.17181 -33.24044,2.73064 -0.80957,-19.78767 -0.34122,-31.10076 -0.34708,-48.44634 -0.005,-14.59654 -32.13397,-16.15379 -31.59687,3.07771 0.80706,28.89869 -22.71108,29.50672 -25.95421,13.56869 -4.28722,-21.0681 -12.80051,-33.71515 -41.8853,-14.91853 -27.62345,17.85156 -128.21238,70.22699 -167.929383,93.49046 -18.255503,10.69336 -67.997067,36.8857 -29.137969,-25.55419 16.306344,-26.20152 25.642929,-33.83307 38.995506,-56.73525 8.113776,-13.91744 20.750536,-25.48979 3.785746,-62.33617 z"
       id="path2996"
       inkscape:connector-curvature="0"
       sodipodi:nodetypes="cssssssssssssssscssssssssssscsssssssssssssssssssssssssssssssssssssc" />
    <path
       style="fill:#000000;stroke:#000000;stroke-width:8.36334229"
       d="m 867.56105,610.35485 c -9.09403,11.10903 -14.97053,7.69512 -20.93936,2.79503 -24.21949,-19.88133 -39.16964,-9.83445 -24.21364,1.95786 14.84853,11.70701 23.91765,18.31656 16.30442,31.89946 -13.32114,23.76611 -2.70646,33.84645 6.54389,16.17638 11.28834,-21.5632 18.40078,-26.76521 28.9237,-19.66473 16.07016,10.84308 25.03742,7.03106 10.39471,-4.27701 -9.53462,-7.36392 -14.52729,-13.67573 -1.12002,-27.22267 11.80169,-11.92529 1.75798,-23.22668 -15.8937,-1.66432 z"
       id="path3000"
       inkscape:connector-curvature="0"
       sodipodi:nodetypes="sssssssss" />
    <path
       style="fill:#f7d117;fill-opacity:1;stroke:#f7d117;stroke-width:7.19501925;stroke-opacity:1"
       d="m 228.75233,195.78657 c 68.33285,41.13928 161.56012,66.38403 264.49071,66.38403 102.93058,0 196.41919,-25.24475 264.75205,-66.38403 l -529.24276,0 z"
       id="path3008"
       inkscape:connector-curvature="0" />
  </g>
</svg>
