<?xml version="1.0" encoding="UTF-8" standalone="no"?>
<!-- Created with Inkscape (http://www.inkscape.org/) -->

<svg
   xmlns:dc="http://purl.org/dc/elements/1.1/"
   xmlns:cc="http://creativecommons.org/ns#"
   xmlns:rdf="http://www.w3.org/1999/02/22-rdf-syntax-ns#"
   xmlns:svg="http://www.w3.org/2000/svg"
   xmlns="http://www.w3.org/2000/svg"
   xmlns:sodipodi="http://sodipodi.sourceforge.net/DTD/sodipodi-0.dtd"
   xmlns:inkscape="http://www.inkscape.org/namespaces/inkscape"
   width="1024"
   height="1024"
   id="svg2"
   version="1.1"
   inkscape:version="0.48.4 r9939"
   sodipodi:docname="Dr Cyber Face.svg">
  <defs
     id="defs4" />
  <sodipodi:namedview
     id="base"
     pagecolor="#ffffff"
     bordercolor="#666666"
     borderopacity="1.0"
     inkscape:pageopacity="0.0"
     inkscape:pageshadow="2"
     inkscape:zoom="0.24748737"
     inkscape:cx="1133.9352"
     inkscape:cy="128.23614"
     inkscape:document-units="px"
     inkscape:current-layer="layer1"
     showgrid="false"
     inkscape:window-width="1366"
     inkscape:window-height="705"
     inkscape:window-x="-8"
     inkscape:window-y="-8"
     inkscape:window-maximized="1"
     showguides="true"
     inkscape:guide-bbox="true" />
  <metadata
     id="metadata7">
    <rdf:RDF>
      <cc:Work
         rdf:about="">
        <dc:format>image/svg+xml</dc:format>
        <dc:type
           rdf:resource="http://purl.org/dc/dcmitype/StillImage" />
        <dc:title />
      </cc:Work>
    </rdf:RDF>
  </metadata>
  <g
     inkscape:label="Layer 1"
     inkscape:groupmode="layer"
     id="layer1"
     transform="translate(0,-28.362183)">
    <path
       style="fill:#ffffff;stroke:#ffffff;stroke-width:2.14465499px;stroke-linecap:butt;stroke-linejoin:miter;stroke-opacity:1"
       d="M 793.49974,485.55742 916.05145,410.4945 962.00833,263.43245 885.41354,127.09367 753.67045,73.477302 620.39547,116.3704 l -55.14828,73.53103 -22.97844,105.70084 29.10604,105.70086 82.72239,78.12671 98.04137,12.25517 z"
       id="path3101-9"
       inkscape:connector-curvature="0" />
    <path
       style="fill:#ffffff;stroke:#ffffff;stroke-width:2.14465499px;stroke-linecap:butt;stroke-linejoin:miter;stroke-opacity:1"
       d="M 231.2938,484.79146 108.74209,409.72854 62.785199,262.66648 139.38,126.32771 271.12309,72.711338 l 133.27498,42.893102 55.14828,73.53103 22.97844,105.70084 -29.10604,105.70086 -82.72239,78.12671 -98.04137,12.25516 z"
       id="path3101"
       inkscape:connector-curvature="0" />
    <g
       id="g3037"
       transform="matrix(2.1446548,0,0,2.1446548,-263.50873,-610.9848)">
      <path
         id="path2996"
         d="M 252.53125,316.09375 C 195.69323,316.09375 149.625,362.16198 149.625,419 c 0,56.83802 46.06823,102.90625 102.90625,102.90625 56.83802,0 102.90625,-46.06823 102.90625,-102.90625 0,-56.83802 -46.06823,-102.90625 -102.90625,-102.90625 z m -1,13.03125 c 49.0744,0 88.84375,39.8006 88.84375,88.875 0,49.0744 -39.76935,88.84375 -88.84375,88.84375 -49.0744,0 -88.875,-39.76935 -88.875,-88.84375 0,-49.0744 39.8006,-88.875 88.875,-88.875 z"
         style="fill:#000000;stroke:#000000;stroke-width:1.24243903"
         inkscape:connector-curvature="0" />
      <path
         id="path2996-7"
         d="m 470.67017,316.09346 c -56.83802,0 -102.90625,46.06823 -102.90625,102.90625 0,56.83802 46.06823,102.90625 102.90625,102.90625 56.83802,0 102.90625,-46.06823 102.90625,-102.90625 0,-56.83802 -46.06823,-102.90625 -102.90625,-102.90625 z m -1,13.03125 c 49.0744,0 88.84375,39.8006 88.84375,88.875 0,49.0744 -39.76935,88.84375 -88.84375,88.84375 -49.0744,0 -88.875,-39.76935 -88.875,-88.84375 0,-49.0744 39.8006,-88.875 88.875,-88.875 z"
         style="fill:#000000;stroke:#000000;stroke-width:1.24243903"
         inkscape:connector-curvature="0" />
      <path
         sodipodi:nodetypes="cscccc"
         inkscape:connector-curvature="0"
         id="path3035"
         d="m 339.31713,381.60008 c 0,0 -0.42265,-10.8584 20.68788,-11.16092 17.80663,-0.25517 20.68788,10.30239 20.68788,10.30239 L 401.38075,353.26853 326.47639,352.41 z"
         style="fill:#000000;stroke:#000000;stroke-width:1.09563303px;stroke-linecap:butt;stroke-linejoin:miter;stroke-opacity:1" />
    </g>
    <path
       sodipodi:type="arc"
       style="fill:#000000;stroke:#000000"
       id="path3042"
       sodipodi:cx="290.92392"
       sodipodi:cy="442.23004"
       sodipodi:rx="40.406101"
       sodipodi:ry="40.406101"
       d="m 331.33002,442.23004 c 0,22.31568 -18.09043,40.4061 -40.4061,40.4061 -22.31567,0 -40.4061,-18.09042 -40.4061,-40.4061 0,-22.31567 18.09043,-40.4061 40.4061,-40.4061 22.31567,0 40.4061,18.09043 40.4061,40.4061 z"
       transform="matrix(2.1446548,0,0,2.1446548,-248.34373,-604.48551)" />
    <path
       sodipodi:type="arc"
       style="fill:#000000;stroke:#000000"
       id="path3042-4"
       sodipodi:cx="290.92392"
       sodipodi:cy="442.23004"
       sodipodi:rx="40.406101"
       sodipodi:ry="40.406101"
       d="m 331.33002,442.23004 c 0,22.31568 -18.09043,40.4061 -40.4061,40.4061 -22.31567,0 -40.4061,-18.09042 -40.4061,-40.4061 0,-22.31567 18.09043,-40.4061 40.4061,-40.4061 22.31567,0 40.4061,18.09043 40.4061,40.4061 z"
       transform="matrix(2.1446548,0,0,2.1446548,15.917049,-604.4864)" />
    <path
       style="fill:#000000;stroke:#000000;stroke-width:1.76946163px;stroke-linecap:butt;stroke-linejoin:miter;stroke-opacity:1"
       d="m 366.83764,692.63078 c 49.4424,23.45811 108.07909,32.30251 140.92499,31.59752 38.56083,-0.82767 91.63285,-6.31952 147.87647,-31.59754 21.87323,-9.83065 67.01276,20.68232 8.8473,62.56309 -29.48552,21.23039 -130.81381,31.59753 -157.35571,32.22949 -28.25369,0.67272 -126.15471,-18.59357 -153.56398,-37.28507 -45.47751,-31.01296 -33.37937,-79.64091 13.27093,-57.50749 z"
       id="path3004"
       inkscape:connector-curvature="0"
       sodipodi:nodetypes="sssssss" />
    <g
       id="g3027">
      <g
         style="fill:#e78b3e;fill-opacity:1;stroke:#e78b3e;stroke-opacity:1"
         transform="matrix(2.1446548,0,0,2.1446548,-263.50873,-610.9848)"
         id="g3020">
        <path
           style="fill:#e78b3e;fill-opacity:1;stroke:#e78b3e;stroke-width:1px;stroke-linecap:butt;stroke-linejoin:miter;stroke-opacity:1"
           d="m 203.04066,631.63365 c 22.9872,-17.74237 44.29565,-45.57867 72.73098,-55.55839 20.65414,-7.24881 44.83505,6.58986 67.68023,-1.51523 10.91722,-4.71771 12.3748,-39.28018 1.01015,-43.43656 -33.97811,-6.28991 -48.99833,-2.02377 -85.3579,8.08122 -39.86224,20.15483 -78.85515,34.38735 -97.47971,86.87312 26.78985,-18.18881 26.80279,-17.93235 41.41625,-22.22336 2.22303,13.49289 1.31986,13.80454 0,27.7792 z"
           id="path3062"
           inkscape:connector-curvature="0"
           sodipodi:nodetypes="cccccccc" />
        <path
           style="fill:#e78b3e;fill-opacity:1;stroke:#e78b3e;stroke-width:1px;stroke-linecap:butt;stroke-linejoin:miter;stroke-opacity:1"
           d="m 517.60066,631.63318 c -22.9872,-17.74237 -44.29565,-45.57867 -72.73098,-55.55839 -20.65414,-7.24881 -44.83505,6.58986 -67.68023,-1.51523 -10.91722,-4.71771 -12.3748,-39.28018 -1.01015,-43.43656 33.97811,-6.28991 48.99833,-2.02377 85.3579,8.08122 39.86224,20.15483 78.85515,34.38735 97.47971,86.87312 -26.78985,-18.18881 -26.80279,-17.93235 -41.41625,-22.22336 -2.22303,13.49289 -1.31986,13.80454 0,27.7792 z"
           id="path3062-0"
           inkscape:connector-curvature="0"
           sodipodi:nodetypes="cccccccc" />
      </g>
      <path
         sodipodi:nodetypes="cscccccccccc"
         inkscape:connector-curvature="0"
         id="path3014"
         d="m 370.42931,823.20746 c 0,0 59.69415,23.64286 137.96567,23.80674 72.77914,0.15232 132.33529,-25.49088 132.33529,-25.49088 0,0 -0.67749,193.26548 -12.0953,200.26558 -8.15001,-2.9015 -26.38852,-9.2432 -36.68431,-12.632 -6.63218,-2.1397 -8.21568,-3.6898 -11.2172,12.9869 -2.38206,4.1966 -6.84553,6.2249 -17.22548,6.9388 -8.95082,-2.0698 -13.27815,-3.8311 -15.82528,-7.1493 -26.60556,-38.66948 -46.23578,-56.29826 -46.23578,-56.29826 0,0 -12.215,23.77881 -78.98424,59.66646 -40.81419,-4.3623 -52.03337,-202.09409 -52.03337,-202.09409 z"
         style="fill:#e78b3e;fill-opacity:1;stroke:#e78b3e;stroke-width:2.35776423999999980px;stroke-linecap:butt;stroke-linejoin:miter;stroke-opacity:1" />
    </g>
  </g>
</svg>
