<?xml version="1.0" encoding="UTF-8" standalone="no"?>
<!-- Created with Inkscape (http://www.inkscape.org/) -->

<svg
   xmlns:dc="http://purl.org/dc/elements/1.1/"
   xmlns:cc="http://creativecommons.org/ns#"
   xmlns:rdf="http://www.w3.org/1999/02/22-rdf-syntax-ns#"
   xmlns:svg="http://www.w3.org/2000/svg"
   xmlns="http://www.w3.org/2000/svg"
   xmlns:sodipodi="http://sodipodi.sourceforge.net/DTD/sodipodi-0.dtd"
   xmlns:inkscape="http://www.inkscape.org/namespaces/inkscape"
   id="svg2985"
   version="1.1"
   inkscape:version="0.48.2 r9819"
   width="1920"
   height="1920"
   sodipodi:docname="Space Tech Torso.svg">
  <metadata
     id="metadata2991">
    <rdf:RDF>
      <cc:Work
         rdf:about="">
        <dc:format>image/svg+xml</dc:format>
        <dc:type
           rdf:resource="http://purl.org/dc/dcmitype/StillImage" />
        <dc:title />
      </cc:Work>
    </rdf:RDF>
  </metadata>
  <defs
     id="defs2989" />
  <sodipodi:namedview
     pagecolor="#ffffff"
     bordercolor="#666666"
     borderopacity="1"
     objecttolerance="10"
     gridtolerance="10"
     guidetolerance="10"
     inkscape:pageopacity="0"
     inkscape:pageshadow="2"
     inkscape:window-width="1600"
     inkscape:window-height="850"
     id="namedview2987"
     showgrid="false"
     inkscape:zoom="0.3535534"
     inkscape:cx="455.64226"
     inkscape:cy="1059.6463"
     inkscape:window-x="-8"
     inkscape:window-y="-8"
     inkscape:window-maximized="1"
     inkscape:current-layer="svg2985" />
  <g
     id="g3063"
     transform="matrix(2.8077265,0,0,2.8077265,5457.5493,13.659293)">
    <g
       transform="translate(-2017.0551,-52.436441)"
       id="g3011">
      <path
         inkscape:connector-curvature="0"
         id="path3023"
         d="M 438.22251,661.4433 C 437.00013,660.58711 436,659.01211 436,657.9433 436,656.10015 435.17824,656 420.05457,656 l -15.94544,0 -1.31203,2.75 c -1.06732,2.23707 -2.07285,2.80586 -5.39104,3.04951 -2.50015,0.18357 -4.50553,-0.21444 -5.18097,-1.02829 -0.69503,-0.83747 -1.21702,-8.59822 -1.41353,-21.01614 -0.27393,-17.31012 -0.52725,-19.90377 -2.09714,-21.47171 -2.14683,-2.14417 -19.9922,-2.3183 -227.37773,-2.21873 -61.908135,0.0297 -72.673016,-0.17833 -75.749999,-1.46397 L 82,613.10205 l 0,-7.24912 c 0,-9.24799 1.787711,-23.13099 3.680371,-28.58102 0.807571,-2.32545 1.186671,-5.11546 0.842445,-6.20002 -0.344226,-1.08456 0.01033,-3.23192 0.787897,-4.77191 0.77757,-1.53999 1.675118,-4.59998 1.994553,-6.79998 1.68289,-11.59035 2.925478,-16.77676 4.767417,-19.89862 1.899091,-3.21872 2.459977,-3.49069 8.232627,-3.99207 14.2005,-1.23336 28.60199,-1.64796 73.19469,-2.10715 25.85,-0.2662 56.225,-0.72147 67.5,-1.01172 11.275,-0.29024 48.16924,-0.77782 81.98721,-1.0835 35.49183,-0.32081 61.96054,-0.94861 62.60679,-1.48495 1.76728,-1.46672 2.25373,-16.13148 1.55376,-46.84045 -0.426,-18.6893 -1.01288,-28.53956 -1.71427,-28.77217 -4.98869,0.21581 -2.57879,-10.93898 0.3603,-14.97572 0.85271,-1.3797 0.58702,-66.90848 -0.27695,-68.3064 14.49883,-16.84385 13.42754,196.7317 -0.91155,-132.30373 -0.94676,-6.14607 -4.94317,-10.1824 -18.04326,-18.22352 -5.37616,-3.3 -11.41355,-7.07467 -13.41643,-8.38816 -5.93297,-3.89083 -16.1485,-7.2561 -23.79882,-7.83996 -6.28168,-0.4794 -7.52967,-0.27784 -10.24317,1.65434 C 317.8902,208.21437 316,207.9926 316,205.32744 c 0,-3.11704 -16.04375,1.02953 -18.8067,4.86067 -0.71869,0.99654 -1.94446,1.81189 -2.72395,1.81189 -0.77948,0 -4.98699,1.8 -9.35002,4 -4.36304,2.2 -8.40893,4 -8.99088,4 -0.58194,0 -1.53975,0.9 -2.12845,2 -0.5887,1.1 -1.61703,2.00647 -2.28518,2.01438 -0.66815,0.008 -5.92021,2.27703 -11.67125,5.0425 -15.12923,7.27511 -14.60461,7.6693 -14.25684,-10.71253 0.22528,-11.90747 -0.25407,-19.08725 -2.23659,-33.5 -1.38782,-10.08939 -3.16782,-20.59435 -3.95553,-23.34435 -5.82501,-20.33569 -16.35922,-38.43915 -28.50447,-48.98608 -5.63259,-4.89135 -6.05562,-5.46147 -6.07483,-8.18719 -0.0191,-2.71011 4.59042,-8.329533 6.82358,-8.318591 2.72473,0.01335 18.27724,12.170591 23.73787,18.555651 9.36088,10.94559 17.61278,25.41333 19.04754,33.39529 0.35006,1.94751 0.99319,3.99532 1.42917,4.55071 1.12918,1.43842 3.70973,23.75419 4.45092,38.49021 0.3458,6.875 0.99523,12.87396 1.44319,13.33102 0.95556,0.97499 8.0724,-2.44525 10.05242,-4.83102 0.75141,-0.9054 2.97131,-2.46949 4.9331,-3.47577 1.9618,-1.00628 4.67,-3.01133 6.01824,-4.45568 3.33769,-3.57562 17.88339,-11.37696 24.30693,-13.03661 13.37269,-3.45511 17.29646,-3.81148 27.79948,-2.52487 8.53659,1.04573 10.3062,1.02475 11.02896,-0.13074 0.56608,-0.90501 0.24865,-1.89 -0.92696,-2.87633 -0.98332,-0.825 -2.62973,-3.525 -3.65871,-6 -1.02897,-2.475 -3.7611,-7.425 -6.07139,-11 -2.31029,-3.575 -8.04557,-13.025 -12.74505,-21 -4.69949,-7.975 -9.23511,-15.46353 -10.07917,-16.64119 -0.84406,-1.17765 -4.78068,-8.51005 -8.74805,-16.29421 l -7.2134,-14.153024 2.19153,-2.191528 2.19153,-2.191528 118.23648,-0.136854 c 95.99189,-0.111106 118.63566,0.109911 120.35825,1.174772 3.29206,2.035071 3.62966,6.22817 0.70613,8.770152 -1.34005,1.165159 -4.61596,6.628582 -7.27981,12.14094 -2.66384,5.51236 -6.85155,12.94827 -9.30603,16.52426 -2.45447,3.57598 -5.88776,9.20098 -7.62953,12.5 -1.74177,3.29901 -6.28973,10.72321 -10.10658,16.49821 -3.81685,5.775 -7.25887,11.14356 -7.64894,11.93012 -0.39008,0.78657 -2.20498,3.70131 -4.03312,6.4772 -5.61113,8.52007 -4.54686,9.72107 6.72074,7.58422 13.99165,-2.65347 32.80575,3.54385 54.45949,17.93882 7.8007,5.18574 14.68214,9.06964 16.06948,9.06964 2.28126,0 2.42947,-0.34395 2.47775,-5.75 0.10848,-12.14712 3.98684,-35.41952 7.81872,-46.91692 7.8443,-23.53646 17.26769,-36.85593 33.91295,-47.93415 9.14875,-6.08893 10.51756,-6.207289 14.67306,-1.26876 4.21989,5.01505 3.37796,6.99658 -6.54804,15.41121 -1.32442,1.12276 -3.75804,3.6187 -5.40804,5.54652 -1.65,1.92783 -3.80533,4.43934 -4.78962,5.58114 C 611.73523,130.96026 608,140.47353 608,143.21283 c 0,0.95759 -1.09651,2.45953 -2.43669,3.33765 -1.34019,0.87812 -2.74564,3.02599 -3.12323,4.77305 -0.37759,1.74706 -1.70994,5.87647 -2.96078,9.17647 -4.16791,10.99592 -6.49965,18.96725 -6.48942,22.1849 0.006,1.7517 -0.44417,4.37977 -0.99941,5.84016 -0.67435,1.77369 -0.69059,9.64971 -0.0489,23.72222 C 592.91741,233.64789 592.57813,237 589.4363,237 c -2.80966,0 -31.02742,-15.49449 -42.13355,-23.13571 -2.37665,-1.63518 -8.25453,-4.56354 -13.06196,-6.50747 -8.57151,-3.46598 -8.96351,-3.5266 -20.24079,-3.13055 -12.43448,0.43669 -22.12877,2.81201 -29.5,7.22816 -2.2,1.31804 -7.29555,4.27975 -11.32345,6.58159 -4.0279,2.30184 -10.11535,6.5537 -13.52766,9.44857 -7.73857,6.5651 -9.37132,11.09979 -9.5471,26.51541 -0.0659,5.775 -0.37811,14.325 -0.6939,19 -16.35549,76.85141 -4.13704,100.89846 -1.96692,172 -0.23715,28.875 -0.62929,59.80393 -0.87141,68.73095 -0.24212,8.92702 -0.11271,16.43337 0.28759,16.68076 0.4003,0.2474 20.0587,0.69991 43.68533,1.00558 70.42143,0.91108 137.35225,2.42953 204.83348,4.64701 22.43553,0.73725 31.59327,1.38723 33.5,2.37769 4.06636,2.1123 7.12404,6.95243 7.12404,11.27697 0,2.78889 0.56419,4.15229 2.12044,5.12419 1.7823,1.11306 2.03198,1.98379 1.5657,5.46019 -0.32425,2.41743 0.28423,8.30366 1.4644,14.16631 1.11054,5.51669 2.41888,12.46347 2.90742,15.43728 0.52891,3.21947 1.77453,6.35032 3.07892,7.73877 2.00163,2.13064 2.08234,2.65638 0.93544,6.09307 -2.15309,6.45169 -4.4769,10.51617 -7.07232,12.36989 -3.12825,2.23428 -7.37657,2.29398 -98,1.37699 -139.8914,-1.4155 -153.0136,-1.5333 -173.40249,-1.5567 -11.49636,-0.0132 -21.24892,0.3349 -21.67234,0.77354 -0.42342,0.43863 -1.09423,10.62064 -1.49069,22.6267 l -0.72083,21.82918 -2.42193,0.92082 c -2.98595,1.13525 -2.44338,1.20331 -5.06921,-0.63589 z m 25.9498,-199.58703 c -11.32763,-5.60704 -13.28181,-20.3578 -4.02711,-30.39797 4.62137,-5.01359 9.68648,-6.38853 16.63847,-4.51655 6.02683,1.62285 13.27774,9.13022 15.29841,15.83948 1.48779,4.93993 1.46961,5.50422 -0.30498,9.46791 -1.03789,2.31819 -2.64983,5.05837 -3.58209,6.08929 -5.21275,5.7644 -16.22592,7.37715 -24.0227,3.51784 z"
         style="fill:#90a7c4"
         sodipodi:nodetypes="ssscssssssscssssssssssssccccsssssssssscsssssssssssssssssssssssscccssssssssssssssssssssssscssssssssssccscssssssssssssssscsssssssss" />
      <path
         inkscape:connector-curvature="0"
         id="path3021"
         d="m 394.38896,661.02024 c -2.02629,-0.81874 -2.13051,-1.66203 -2.596,-21.00483 -0.45822,-19.0408 -0.60523,-20.27214 -2.66649,-22.33363 -2.17417,-2.17442 -2.34087,-2.1825 -49.404,-2.39597 -25.97236,-0.1178 -60.49747,-0.19899 -76.72247,-0.1804 -151.11298,0.17307 -173.997014,0.005 -176.722515,-1.29601 -2.459404,-1.17422 -2.816941,-1.955 -3.122019,-6.81774 -0.445917,-7.10763 1.586815,-24.28374 3.523572,-29.77337 0.83083,-2.35495 1.251925,-4.95581 0.935766,-5.77971 -0.31616,-0.8239 0.04363,-3.17213 0.799541,-5.21829 C 89.170252,564.17413 90.340142,559.125 91.0141,555 c 1.650908,-10.10448 2.747652,-14.14661 4.436648,-16.35159 1.830785,-2.39008 16.581992,-3.31453 65.049252,-4.0766 19.25,-0.30267 53.9,-0.84954 77,-1.21526 41.91275,-0.66357 55.16096,-0.79812 116.5,-1.18316 18.35036,-0.11519 33.15306,-0.6165 34,-1.15144 2.14317,-1.35367 2.58957,-11.72442 2,-46.46433 -0.36332,-21.40819 -0.83624,-29.79772 -1.73,-30.68985 -5.30552,-0.32963 -0.59397,-10.77099 0.67548,-15.93293 0.30499,-1.33916 0.41339,-16.95572 0.2409,-34.70347 l -0.31361,-32.26863 c -0.30953,-36.45783 0.67325,-65.67241 -4.22091,-87.02929 1.54206,-0.5799 2.35558,-2.01647 2.87162,-5.0709 1.14242,-6.76193 0.82593,-36.91598 -0.43631,-41.5701 -1.46723,-5.40992 -5.5862,-9.46925 -16.53182,-16.29245 -4.85263,-3.025 -10.4502,-6.51768 -12.43903,-7.76151 C 348.44446,207.18978 336.45752,203 328.82383,203 c -2.06579,0 -5.34769,0.75903 -7.29311,1.68674 -3.35109,1.59803 -3.6062,1.59229 -4.85024,-0.10903 -1.19255,-1.63091 -1.85785,-1.68348 -7.24679,-0.57261 -6.55895,1.35205 -11.50871,3.54071 -12.73338,5.63038 -0.43983,0.75049 -1.45717,1.36452 -2.26077,1.36452 -1.81953,0 -18.36939,8.47073 -20.52343,10.50453 -0.87114,0.82251 -1.89324,1.49547 -2.27133,1.49547 -0.3781,0 -5.25623,2.25 -10.8403,5 -10.24723,5.04648 -14.225,6.03892 -15.03026,3.75 -0.24187,-0.6875 -0.1357,-6.875 0.23593,-13.75 0.67849,-12.55197 0.35318,-17.73526 -2.4477,-39 -1.70765,-12.96482 -2.4384,-15.98438 -6.77617,-28 -5.58084,-15.45893 -15.11332,-30.09061 -25.95735,-39.84267 C 207.29426,107.97859 206,106.08215 206,104.08164 206,101.28547 209.56736,97 211.89498,97 c 1.82594,0 11.28655,6.45861 17.04682,11.63758 9.44433,8.49127 22.51661,28.64149 24.5629,37.86242 0.36616,1.65 1.24885,4.575 1.96152,6.5 1.55768,4.20746 3.29117,19.85198 4.12105,37.192 0.35846,7.48992 1.10957,13.37873 1.83256,14.36748 1.14386,1.56432 1.45253,1.55913 4.65266,-0.0783 1.88513,-0.96456 5.11631,-3.26743 7.18039,-5.11747 2.06409,-1.85005 4.21164,-3.36373 4.77234,-3.36373 0.56071,0 2.92191,-1.72129 5.24712,-3.8251 5.93231,-5.36743 16.02683,-10.69659 25.31661,-13.36528 7.68986,-2.20908 15.87367,-2.58087 33.88782,-1.53951 4.77862,0.27624 5.67584,-1.6847 2.73318,-5.97355 -1.05532,-1.53811 -3.71729,-5.94656 -5.91547,-9.79656 -2.19819,-3.85 -8.33871,-14.15575 -13.64559,-22.90166 C 320.342,129.85243 316,122.34945 316,121.92506 c 0,-0.42438 -1.03291,-2.04364 -2.29535,-3.59833 -1.26245,-1.5547 -5.41379,-9.00932 -9.2252,-16.56582 -6.60395,-13.092979 -6.84741,-13.821518 -5.17712,-15.491814 1.64964,-1.649635 8.72686,-1.757633 120.32846,-1.836215 C 547.62017,84.34276 541,84.06831 541,89.46444 c 0,1.27687 -0.57754,2.543207 -1.28343,2.814081 -0.70589,0.270874 -2.16839,2.419496 -3.25,4.774717 -4.58024,9.973492 -11.04671,21.853372 -14.93987,27.446762 -2.29689,3.3 -5.45068,8.58169 -7.00841,11.73708 -1.55774,3.15539 -3.66161,6.48764 -4.67527,7.40499 -1.01366,0.91735 -1.84302,2.09348 -1.84302,2.61363 0,0.52015 -3.85218,6.74601 -8.5604,13.83524 -4.83976,7.28731 -8.6428,14.08901 -8.75,15.64929 -0.17625,2.56549 0.0568,2.74223 3.3104,2.51058 1.925,-0.13706 8.225,-0.31592 14,-0.39748 9.08376,-0.12828 11.57904,0.22241 18.5,2.60002 9.90514,3.40278 20.04831,8.74233 29.0889,15.31294 8.42352,6.12213 15.65022,9.73966 17.80498,8.9128 1.25148,-0.48023 1.61334,-2.1137 1.63884,-7.39771 0.0894,-18.52133 6.39252,-47.26308 13.4392,-61.28138 6.81901,-13.56538 18.91811,-27.81036 27.18242,-32.00347 1.56511,-0.7941 3.91885,-2.24318 5.23052,-3.22017 3.18327,-2.371057 4.40125,-2.247942 8.03841,0.81253 4.75838,4.00391 4.2256,7.32331 -2.02078,12.59035 -9.24131,7.79238 -16.30384,17.06023 -18.31467,24.03351 -0.99715,3.45799 -2.67561,7.04513 -3.7299,7.97143 -1.78445,1.56779 -3.01634,4.49842 -7.27874,17.31582 -6.49117,19.51949 -6.90914,22.32119 -6.48954,43.5 0.58833,29.69568 0.65898,28.46444 -1.6524,28.79501 -3.01113,0.43065 -23.89511,-10.69943 -39.93724,-21.28449 -4.4,-2.90325 -9.125,-5.61005 -10.5,-6.01512 -1.375,-0.40507 -5.19839,-1.85963 -8.49643,-3.23235 -5.50829,-2.29268 -6.89217,-2.45437 -17,-1.98624 -12.15609,0.563 -23.32549,3.64311 -30.8675,8.51214 -6.76972,4.37043 -7.15375,4.60071 -12.3262,7.39126 -2.73236,1.47411 -7.70428,4.96665 -11.04871,7.76119 -8.33072,6.96098 -9.12558,9.58737 -10.25509,33.88508 -7.6886,23.08468 -9.14737,118.00605 -2.52505,197.17352 -0.27096,29.975 -0.62751,58.45503 -0.79235,63.28897 -0.20101,5.89496 0.0911,9.1133 0.88715,9.77396 0.67088,0.55677 8.08568,0.97908 17.05552,0.97139 18.54876,-0.0159 122.89354,1.7069 148.36866,2.44967 9.625,0.28064 26.275,0.74508 37,1.03211 40.38088,1.08068 77.99498,2.54474 79.41917,3.09126 3.06502,1.17616 6.58083,7.16162 6.58083,11.20347 0,2.28608 0.63061,4.46764 1.5,5.18917 0.831,0.68967 1.49791,2.86278 1.49531,4.87244 -0.004,3.1757 0.95865,8.96341 5.11228,30.73273 0.63409,3.32331 1.82656,5.84639 3.41653,7.22885 1.95284,1.69798 2.26461,2.57896 1.55529,4.39484 -3.13236,8.0188 -5.23927,11.82661 -7.26625,13.13227 -2.9574,1.90498 -11.14589,1.99965 -97.81316,1.13094 -37.125,-0.37213 -86.625,-0.86635 -110,-1.09828 -71.85431,-0.71294 -84.23417,-0.59257 -85.61791,0.83245 -0.86646,0.89231 -1.40208,7.69082 -1.78854,22.70181 -0.40486,15.72508 -0.88993,21.64832 -1.82262,22.25572 -2.52371,1.64355 -5.27138,0.3153 -7.10329,-3.43377 l -1.83236,-3.75 -14.41764,0 c -15.68103,0 -14.04572,-0.50606 -19.79264,6.125 -1.76264,2.03382 -2.98419,2.20918 -6.23604,0.89524 z m 40.37943,-33.39561 c 0.18352,-16.32479 -0.0809,-24.29625 -0.83609,-25.2062 -0.60746,-0.73195 -0.76828,-1.87481 -0.35736,-2.53968 0.55033,-0.89045 0.62929,-146.94944 0.097,-179.37875 -0.0361,-2.2 0.01,-14.35 0.10254,-27 0.0925,-12.65 -0.0915,-49.8993 -0.40899,-82.77623 -0.57387,-59.43291 -0.56442,-59.82633 1.64577,-68.5 1.22263,-4.79807 3.97566,-12.21202 6.11786,-16.47543 4.2195,-8.39769 7.02668,-18.43667 6.12237,-21.89474 -0.38851,-1.48569 -0.20282,-1.94157 0.59102,-1.45095 0.6737,0.41637 1.15752,0.10847 1.15752,-0.73664 0,-0.79862 0.63257,-1.69477 1.4057,-1.99145 0.77314,-0.29668 1.73099,-2.0204 2.12855,-3.83049 0.77386,-3.52336 3.95361,-9.04685 8.67664,-15.07205 1.75238,-2.23552 2.79554,-4.63756 2.6057,-6 -0.23609,-1.6943 0.23593,-2.35071 1.85631,-2.58147 1.29319,-0.18416 2.56506,-1.39872 3.14157,-3 0.53276,-1.4798 1.96687,-3.73727 3.18689,-5.01659 1.66029,-1.74097 2.07114,-3.06148 1.63343,-5.25 C 473.30829,157.29145 473.48063,156 474.025,156 c 0.53625,0 0.975,-0.73125 0.975,-1.625 0,-1.29952 -0.65097,-1.49528 -3.25,-0.97736 -1.7875,0.35621 -3.4,1.08746 -3.58333,1.625 C 467.72806,156.30867 465,156.28917 465,155 c 0,-0.57557 -3.10617,-1 -7.3185,-1 -4.02517,0 -9.58604,-0.67339 -12.35749,-1.49642 -5.45359,-1.61954 -9.87201,-1.13172 -18.32401,2.02308 -5.1848,1.93528 -18.298,1.39486 -22.86316,-0.94225 -1.45026,-0.74245 -4.99934,-1.6699 -7.88684,-2.061 -4.43481,-0.60067 -5.25,-0.4636 -5.25,0.88275 0,0.87661 -0.675,1.59384 -1.5,1.59384 -0.825,0 -1.5,-0.62786 -1.5,-1.39524 0,-1.03634 -1.47909,-1.38536 -5.75,-1.35683 -3.1625,0.0211 -8.66405,-0.30699 -12.22567,-0.72914 -5.91019,-0.70052 -6.35795,-0.6257 -5.12756,0.85683 0.74147,0.89341 2.16646,1.62438 3.16666,1.62438 1.00019,0 2.0404,0.35899 2.31157,0.79775 0.9535,1.5428 -1.12703,3.37353 -3.45453,3.03974 -1.79114,-0.25686 -2.56464,-1.23487 -3.23773,-4.09374 -1.07236,-4.55469 -4.86839,-6.19653 -7.20204,-3.11499 -1.95842,2.58604 -1.82919,3.18264 0.7693,3.55169 1.74816,0.24828 2.63889,1.53368 3.99361,5.76316 2.06432,6.44488 3.25939,7.95339 4.95639,6.25639 0.66,-0.66 1.84617,-1.2 2.63592,-1.2 1.13198,0 1.30195,0.97748 0.80298,4.61786 -0.59587,4.34736 -0.42811,4.80548 2.86408,7.821 1.92336,1.76173 3.49702,4.07545 3.49702,5.1416 0,1.06614 0.94426,2.52815 2.09835,3.24889 1.36195,0.85055 1.92131,1.98745 1.59388,3.23955 -0.27746,1.06101 -0.0967,2.18111 0.40165,2.48912 0.49837,0.30801 0.90612,1.21307 0.90612,2.01125 0,0.79818 1.575,3.69201 3.5,6.43073 1.925,2.73872 3.5,5.41293 3.5,5.94269 0,0.52976 0.51832,2.1008 1.15183,3.4912 0.90445,1.98504 1.65617,2.40142 3.5,1.93865 2.62244,-0.65819 3.15609,1.24932 1.31299,4.6932 -1.14716,2.14349 -0.14464,4.75444 3.05356,7.95264 1.02685,1.02685 2.37515,3.80529 2.99623,6.17431 0.62109,2.36902 1.77188,5.58128 2.55732,7.13835 0.78544,1.55707 1.42807,3.63737 1.42807,4.62288 0,0.98551 0.90201,3.83099 2.00447,6.32329 1.78755,4.04104 1.87399,5.09675 0.79875,9.75494 -1.14363,4.9545 -1.08877,5.31821 1.06537,7.06252 l 2.27109,1.83902 -2.06984,2.22172 c -2.32472,2.4953 -2.57889,3.93554 -0.9772,5.53723 0.79019,0.79019 0.77868,1.67929 -0.0416,3.21197 -1.99934,3.73581 -2.3768,29.00284 -0.57677,38.609 1.19443,6.37426 1.31688,9.00809 0.49059,10.55204 -0.69234,1.29365 -1.06097,8.43877 -0.99292,19.24593 0.0595,9.45363 -0.0489,42.16342 -0.24088,72.68842 -0.19201,30.525 -0.002,56.49657 0.4217,57.7146 0.42394,1.21803 0.37317,2.46035 -0.11283,2.76071 -1.35232,0.83578 -1.62923,46.50812 -0.49429,81.52469 0.32979,10.175 0.57073,20.27504 0.53543,22.44454 -0.0757,4.65189 2.51138,7.93582 7.56597,9.60399 1.84412,0.60862 3.34134,1.40918 3.32715,1.77902 -0.0241,0.62801 -5.16667,3.14292 -9.29315,4.5447 -1.1901,0.40427 -1.62376,1.23289 -1.25437,2.39675 1.20456,3.79523 0.88574,18.14963 -0.43856,19.74531 -0.9154,1.10299 -1.36945,5.56305 -1.49556,14.69051 -0.24004,17.37455 -0.89131,16.73155 16.69544,16.48318 L 434.5,651.5 z m -6.09218,-489.77087 c 0.75394,-0.62571 1.1039,-1.97122 0.77898,-2.99494 C 429.13071,133.83647 429.31341,133 429.86118,133 c 0.54778,0 1.70311,-0.70714 2.56739,-1.57143 1.20262,-1.20261 1.56823,-3.72563 1.55778,-10.75 -0.0199,-13.37676 -0.29248,-14.01688 -5.70869,-13.4064 -3.00398,0.33859 -5.3509,1.38187 -7.29193,3.2415 l -2.86224,2.7422 -0.87085,-3.37793 c -1.08755,-4.21849 -4.32379,-5.04214 -6.66695,-1.69681 -1.35679,1.93708 -1.87862,2.10089 -3.34656,1.05053 -5.5491,-3.97052 -6.36242,-2.7687 -7.51746,11.10843 -1.04399,12.54291 -0.26136,16.08473 4.02645,18.22192 2.8726,1.43181 23.03989,0.85881 24.92809,-0.70825 z m 40.2546,-0.23655 c 2.43694,-0.32136 4.77413,-1.13979 5.19375,-1.81875 1.05519,-1.70734 2.2324,-13.42586 1.53206,-15.25091 -0.31472,-0.82016 -0.12358,-2.77819 0.42477,-4.35118 1.29736,-3.7216 -0.39608,-8.67333 -2.66802,-7.8015 -0.85736,0.329 -3.76459,-0.12329 -6.46053,-1.00509 -3.8713,-1.26623 -5.56907,-1.37061 -8.07649,-0.49652 -1.74614,0.60871 -4.4842,1.10674 -6.08459,1.10674 -1.72413,0 -2.65281,0.41581 -2.27911,1.02047 0.34688,0.56126 -0.52816,2.39768 -1.94452,4.08093 -1.90104,2.25926 -2.55973,4.15189 -2.51609,7.22953 0.0325,2.29299 -0.21449,6.72983 -0.54891,9.85965 -0.58391,5.46474 -0.49682,5.75302 2.19442,7.26402 2.80344,1.57399 10.10621,1.62992 21.23326,0.16261 z m -84.11152,-3.16051 c 0.17561,-0.14407 -0.27439,-1.22569 -1,-2.40361 -1.158,-1.87984 -1.05814,-2.3502 0.81688,-3.84738 1.84719,-1.47496 2.2269,-3.13973 2.80685,-12.30592 l 0.67068,-10.60022 -8.80685,-1.19289 c -4.84377,-0.65609 -11.4106,-1.33263 -14.59297,-1.50343 -5.272,-0.28294 -5.94773,-0.0792 -7.60497,2.29311 -1.00745,1.44214 -2.09501,5.34636 -2.4379,8.7518 -0.53651,5.32836 -0.33367,6.51097 1.52118,8.86904 1.73833,2.20993 1.92312,3.06852 0.98404,4.57221 -1.65376,2.6481 1.51906,5.30065 8.09684,6.76915 7.82587,1.74715 17.77459,2.05159 19.54622,0.59814 z m 107.68549,-3.48151 c 0.56699,-2.94415 1.42854,-3.99934 4.09236,-5.01212 1.32157,-0.50246 2.40286,-1.59971 2.40286,-2.43832 0,-0.83861 0.5625,-1.53473 1.25,-1.54693 1.60583,-0.0285 7.75,-9.61591 7.75,-12.09317 C 508,108.84809 507.325,108 506.5,108 c -1.50203,0 -2.09061,-3.07605 -0.82983,-4.33684 0.3686,-0.3686 1.69613,0.002 2.95007,0.82367 2.09603,1.37337 2.40152,1.32019 3.78812,-0.65946 1.94371,-2.77503 1.15494,-3.992033 -1.8475,-2.85051 -1.30258,0.49524 -4.16994,0.87557 -6.3719,0.84518 -4.30336,-0.0594 -8.71636,2.45531 -9.52542,5.42796 -0.26197,0.9625 -0.96843,1.75 -1.56992,1.75 -0.60149,0 -1.15262,-0.7875 -1.22474,-1.75 -0.0721,-0.9625 -0.48905,0.95 -0.92653,4.25 -0.66932,5.04889 -0.52965,6.2073 0.88112,7.30776 1.55376,1.21199 1.55581,1.37623 0.028,2.24292 -2.44399,1.38638 -4.33905,10.16969 -2.81044,13.02593 1.07657,2.01159 1.29765,2.06964 2.14123,0.56224 0.51739,-0.92453 1.11254,-2.57317 1.32255,-3.66366 z M 343.04002,118.5 c 0.0801,-3.3 -0.18176,-9.22033 -0.58204,-13.1563 -0.67908,-6.677636 -0.90268,-7.190543 -3.34287,-7.668303 C 337.6768,97.393794 334.7,96.724978 332.5,96.189141 c -2.2,-0.535838 -6.35389,-1.261957 -9.23086,-1.613599 -4.54676,-0.555734 -5.15013,-0.428986 -4.61361,0.969159 0.33948,0.884679 1.67227,2.00963 2.96175,2.49989 1.37883,0.52423 2.13024,1.449785 1.82429,2.247079 -0.55016,1.43371 4.80548,12.50915 6.87058,14.20833 0.66845,0.55 2.05492,2.35 3.08105,4 1.02614,1.65 3.02263,4.24375 4.43665,5.76389 3.48337,3.74479 5.02052,2.04428 5.21017,-5.76389 z M 469,463.29954 c -9.10755,-3.29427 -14,-9.41942 -14,-17.52744 0,-6.45601 1.84783,-10.50832 6.85001,-15.0221 4.32045,-3.89862 7.6485,-4.6003 14.92073,-3.14585 4.95524,0.99105 12.00314,8.09415 14.28396,14.39585 1.86982,5.16616 1.89429,5.75514 0.40306,9.7034 -3.2284,8.54774 -14.62147,14.43059 -22.45776,11.59614 z M 477,451 c 3.00442,-3.00442 2.60089,-7.43594 -0.90437,-9.93191 -3.30737,-2.35505 -5.61935,-2.6345 -6.76819,-0.81809 -1.33499,2.11073 -1.16724,6.63807 0.2908,7.84813 0.75997,0.63072 1.38176,1.99166 1.38176,3.02431 0,2.52453 3.42288,2.45468 6,-0.12244 z"
         style="fill:#8f9eb2"
         sodipodi:nodetypes="ssssscsssssssssssccsccsssssssssssssssssssssssssssssssssssssssssssssssssssssssssssssssssssssssccsssssssscsssssssssscssssssssssssssssssssscsssssssssssssssssssssssssssssscssssssssssssscssssssscsssssssssscsssssssscsssssssssssssssssssssssscsssssssscsssssscssssscssssscccsssssssssscsssssssssssss" />
      <path
         inkscape:connector-curvature="0"
         id="path3019"
         d="m 438.81107,660.75 c -0.86415,-0.6875 -1.82521,-2.375 -2.13567,-3.75 -0.5662,-2.50763 -1.28775,-101.36717 -2.18919,-299.9421 -0.54064,-119.09538 -0.95046,-111.24689 6.69993,-128.31313 2.15862,-4.81538 4.62445,-11.11538 5.47963,-14 0.85517,-2.88463 2.46071,-7.02312 3.56786,-9.19667 1.10716,-2.17354 2.82187,-6.30286 3.81047,-9.17627 1.56514,-4.54916 8.23525,-15.16004 17.12549,-27.2434 C 474.90922,164.04562 481,154.0329 481,152.96806 c 0,-0.50483 -6.37033,-0.63199 -14.75,-0.29443 -11.70363,0.47145 -16.01759,0.26694 -20.88744,-0.99021 -6.38272,-1.64768 -7.9269,-1.4862 -18.14751,1.89784 -6.24451,2.06755 -13.57181,1.74674 -24.26785,-1.06251 -7.21304,-1.89447 -11.99998,-2.48569 -20.24168,-2.5 -9.77937,-0.017 -15.84055,-0.91153 -28.05288,-4.14021 -2.11604,-0.55944 -4.07329,-0.79122 -4.34944,-0.51508 -0.91753,0.91754 4.1523,9.16619 20.67389,33.63654 2.04238,3.025 5.06961,8.2 6.72718,11.5 1.65758,3.3 4.20221,7.7503 5.65475,9.88955 1.45254,2.13925 2.64098,4.33592 2.64098,4.88149 0,1.45131 8.94713,18.82117 11.13317,21.61382 1.02676,1.31167 1.86683,3.26866 1.86683,4.34887 0,1.08021 0.62376,3.38202 1.38614,5.11514 4.28213,9.73459 5.80207,15.65867 5.22023,20.34622 -0.97418,7.84834 -2.07627,45.2039 -1.57264,53.30491 0.25645,4.125 0.45212,18.3 0.43483,31.5 -0.0851,64.96444 -0.33834,116.94381 -0.6114,125.5 -0.16675,5.225 -0.31533,34.85519 -0.33017,65.84487 l -0.027,56.34488 2.75692,2.1982 c 2.15305,1.71672 2.49256,2.46257 1.55,3.40513 C 407.14311,595.45689 406.015,596 405.3,596 c -0.715,0 -1.29347,0.5625 -1.2855,1.25 0.008,0.6875 -0.23098,12.43904 -0.53103,26.11454 -0.30005,13.67549 -0.27625,25.71299 0.0529,26.75 0.32913,1.037 1.2431,1.88546 2.03104,1.88546 0.78793,0 1.43261,0.45 1.43261,1 0,0.55 -0.69796,1 -1.55103,1 -0.85306,0 -2.21957,1.60007 -3.03669,3.5557 -1.40666,3.36662 -1.70973,3.53945 -5.69897,3.25 L 392.5,660.5 392,640.27521 c -0.47932,-19.3881 -0.59433,-20.31891 -2.78016,-22.5 -2.25111,-2.24622 -2.62063,-2.27686 -29,-2.405 -60.64941,-0.29459 -131.7871,-0.42847 -198.30612,-0.37321 -54.71106,0.0455 -71.466503,-0.22874 -74.500004,-1.21918 -3.780667,-1.23438 -3.925499,-1.4478 -4.26031,-6.27782 -0.455513,-6.57128 1.620221,-23.87976 3.505225,-29.22828 0.819606,-2.32555 1.356058,-5.25186 1.192116,-6.50292 -0.163943,-1.25105 0.206742,-3.62332 0.823743,-5.27172 0.617002,-1.64839 1.667029,-6.37208 2.333394,-10.49708 1.435273,-8.88477 2.795778,-13.73145 4.659231,-16.59811 2.059939,-3.16893 13.671865,-3.84927 81.832885,-4.79461 23.65,-0.328 54.025,-0.82884 67.5,-1.11297 13.475,-0.28413 51.05,-0.76641 83.5,-1.07172 50.02555,-0.47068 59.22816,-0.77864 60.5,-2.02459 1.29036,-1.2641 1.45854,-6.59411 1.20332,-38.13752 -0.34438,-42.56482 -0.41259,-42.84912 -8.70043,-36.26278 -7.46241,5.93038 -15.52805,5.979 -21.84217,0.13167 -7.3811,-6.83543 -7.63295,-14.81244 -0.68916,-21.82842 4.73403,-4.78325 10.34055,-5.34444 17.02838,-1.70446 2.83099,1.54081 6.04477,4.06194 7.14175,5.60249 2.27778,3.19885 4.40464,3.59575 5.63199,1.05102 1.32686,-2.75106 0.58944,-67.10754 -0.78797,-68.76721 -2.60175,-3.13492 -7.68999,-3.65597 -29.2482,-2.9951 -28.98546,-4.75845 34.13296,-49.79163 27.06479,-83.86116 0.74281,-0.74281 1.79339,-4.67516 2.33462,-8.73855 1.2192,-9.15347 0.13564,-36.2792 -1.61333,-40.38798 -1.76582,-4.14834 -5.27553,-7.06285 -18.02333,-14.96679 -6.05,-3.75115 -12.58157,-7.86847 -14.51461,-9.14961 -5.31188,-3.52051 -14.65619,-6.44893 -22.60362,-7.08375 -5.86682,-0.46863 -7.68064,-0.23731 -10.31727,1.31578 -3.10691,1.8301 -3.2289,1.83116 -4.23623,0.0365 -0.87346,-1.55615 -1.76468,-1.73878 -5.6453,-1.15685 -5.83243,0.87463 -12.08344,3.27242 -14.74742,5.65689 -1.13545,1.01631 -2.50597,1.84784 -3.0456,1.84784 -1.14806,0 -18.29326,8.70673 -20.16212,10.23878 C 270.6604,223.34352 249.75994,233 247.77189,233 c -2.0074,0 -2.03636,-0.31611 -1.35151,-14.75 0.60895,-12.83415 0.36907,-17.15293 -1.84685,-33.25 -1.40069,-10.175 -3.18468,-20.75 -3.96443,-23.5 -5.88517,-20.75578 -16.94516,-39.58574 -29.54749,-50.30548 C 207.68321,108.3208 206,106.12098 206,104.57938 206,101.93247 209.52444,97 211.41575,97 c 0.69883,0 4.37866,2.183609 8.17742,4.85246 15.10825,10.61446 29.93242,30.55007 33.82232,45.48441 0.81473,3.12793 1.72622,6.08341 2.02555,6.56773 0.97752,1.58166 3.36479,23.2998 4.02259,36.5954 0.79026,15.97274 1.35607,16.91104 8.0895,13.41507 2.55836,-1.32829 4.88601,-2.99674 5.17255,-3.70767 0.28654,-0.71093 2.28513,-2.19259 4.4413,-3.29259 2.15617,-1.09999 4.90342,-3.13067 6.105,-4.51261 4.12553,-4.74477 19.37094,-11.91636 30.58336,-14.38671 9.70435,-2.13808 11.01529,-2.2033 20.85317,-1.03738 9.3373,1.10659 10.67366,1.06829 12.08833,-0.34638 1.45401,-1.45401 1.41615,-1.78537 -0.44126,-3.86112 -1.11747,-1.24884 -3.0516,-4.52061 -4.29806,-7.27061 -1.24647,-2.75 -4.39323,-8.15 -6.99281,-12 -2.59958,-3.85 -6.40158,-9.925 -8.44888,-13.5 -2.0473,-3.575 -4.83901,-8.3 -6.20381,-10.5 -1.36479,-2.2 -3.134,-5.43173 -3.93158,-7.18162 -0.79757,-1.74989 -1.92187,-3.47317 -2.49844,-3.8295 C 312.73012,117.71517 299,90.545624 299,88.842069 c 0,-0.651523 0.65104,-1.903978 1.44676,-2.783234 1.22706,-1.355894 2.98117,-1.495555 11.55168,-0.919742 5.55772,0.373398 15.59418,0.492302 22.30325,0.264232 17.55752,-0.596856 42.61818,-0.9454 46.69831,-0.649482 1.925,0.139614 37.7,0.10467 79.5,-0.07765 41.8,-0.182323 76.59697,-0.12268 77.3266,0.132541 0.72964,0.255221 1.75681,1.595546 2.28261,2.9785 0.7514,1.976332 0.55186,2.96371 -0.93236,4.613616 -1.03859,1.154534 -4.2345,6.929954 -7.10201,12.83426 -2.86752,5.90431 -7.14457,13.55512 -9.50456,17.00179 -2.36,3.44667 -5.72521,8.96587 -7.47825,12.26489 -1.75305,3.29901 -4.17841,7.47011 -5.38969,9.26909 -1.21129,1.79899 -4.9947,7.42399 -8.40758,12.5 -8.26678,12.29526 -11.75761,19.08057 -10.92826,21.24181 0.58773,1.53161 1.42015,1.63801 6.90092,0.88206 18.15062,-2.50348 34.94238,2.06524 53.47935,14.55069 14.89001,10.02908 18.67035,12.13509 21.25323,11.84009 2.42785,-0.27729 2.51991,-0.57415 3.18978,-10.28553 0.37938,-5.5 1.15243,-12.475 1.71789,-15.5 0.56545,-3.025 1.5253,-8.64989 2.13298,-12.49976 3.84707,-24.37237 18.25902,-49.67841 34.45935,-60.50741 2.75,-1.83822 6.21928,-4.1636 7.70951,-5.16752 C 622.69974,99.821389 624.28695,99 624.73665,99 626.35798,99 632,104.92698 632,106.6302 c 0,0.95863 -3.50161,5.14649 -7.78135,9.30638 -4.27974,4.15988 -9.03009,9.21414 -10.55634,11.23168 C 610.84944,130.88659 607,140.1039 607,143.12087 c 0,0.90701 -1.0859,2.36062 -2.4131,3.23024 -1.32806,0.87017 -2.73241,3.05771 -3.12322,4.86501 -0.39057,1.80613 -1.73354,5.98388 -2.98438,9.28388 -4.16791,10.99592 -6.49965,18.96725 -6.48942,22.1849 0.006,1.7517 -0.44417,4.37977 -0.99941,5.84016 -0.67511,1.77569 -0.68892,9.66459 -0.0417,23.8151 1.2121,26.49973 1.52642,25.88759 -10.20452,19.87279 -9.67181,-4.95903 -23.71241,-13.12351 -32.4033,-18.84223 -3.38747,-2.22899 -7.66247,-4.62167 -9.5,-5.31705 -1.83753,-0.69538 -5.55436,-2.16208 -8.25962,-3.25935 -4.20079,-1.70385 -6.60889,-1.93439 -16.5,-1.5796 -12.36014,0.44336 -22.19992,2.81677 -29.28729,7.06428 -2.03827,1.22155 -7.58313,4.45718 -12.32191,7.19029 -4.73878,2.7331 -11.20121,7.3088 -14.36097,10.16821 -7.8311,7.08675 -8.87314,10.99276 -9.49468,35.59018 -0.43237,17.11075 -0.31438,18.92388 1.36656,21 -3.56702,30.95341 -2.45127,30.97722 26.51694,83.35333 -26.27104,-0.65049 -26.18043,-0.6737 -27.62868,7.0784 -1.50706,8.0669 -2.68277,44.89163 -2.78853,87.34059 -0.0555,22.275 -0.29266,46.59563 -0.52704,54.04584 -0.23437,7.45022 -0.10235,14.06974 0.29338,14.71005 0.51955,0.84064 11.96569,1.30566 41.18519,1.67322 73.88362,0.92938 138.58589,2.37582 207.34164,4.63519 32.90594,1.08132 34.72279,1.38509 37.97554,6.3494 0.90668,1.38377 1.6485,4.04608 1.6485,5.91626 0,1.90194 0.89379,4.53659 2.0283,5.97889 1.31336,1.66967 1.98284,3.92021 1.89932,6.38486 -0.12243,3.61302 0.47393,7.75048 2.92691,20.30629 0.59098,3.025 1.33603,7.18834 1.65566,9.25187 0.34019,2.19633 1.65211,4.74493 3.16423,6.14706 l 2.5831,2.39518 -2.84167,7.24293 c -2.43903,6.21668 -3.33489,7.44901 -6.32271,8.6974 -3.57944,1.49559 -25.43582,1.46327 -185.09314,-0.2737 -65.36709,-0.71114 -105.75378,-0.73095 -106.85171,-0.0524 -0.51602,0.31892 -1.26827,10.4976 -1.67167,22.61929 -0.65841,19.78432 -0.91824,22.13834 -2.5393,23.00591 -2.27009,1.21491 -2.24017,1.21697 -4.12625,-0.28355 z m 37.46432,-77.59228 C 478.28322,582.36415 481,577.67121 481,574.99648 c 0,-2.95502 -3.28773,-6.02334 -7.10937,-6.63492 -3.07565,-0.49219 -3.99984,-0.1565 -6.25,2.2702 -2.95808,3.19016 -3.07976,3.8101 -1.58787,8.08974 1.4857,4.2619 5.86042,6.16035 10.22263,4.43622 z m 0.71027,-250.15004 c 1.01979,-0.54578 2.39134,-2.61998 3.04789,-4.60932 1.04256,-3.15901 0.95003,-3.94338 -0.73076,-6.19463 -3.97244,-5.32065 -11.25353,-5.0937 -13.34833,0.41606 -1.24335,3.27025 -0.69598,5.10479 2.57497,8.63021 2.66888,2.8765 5.33155,3.42995 8.45623,1.75768 z M 429.75241,139.62803 c 2.49764,-1.29158 3.27726,-2.53916 4.16058,-6.65794 1.53402,-7.15285 1.42447,-24.4514 -0.16299,-25.73939 -0.71218,-0.57783 -8.00937,-1.06286 -16.96014,-1.12731 l -15.71015,-0.11313 -1.13286,4.20711 c -1.54082,5.7222 -1.77957,26.34241 -0.32206,27.81545 3.97404,4.01636 23.46373,5.06125 30.12762,1.61521 z m 41.46146,-0.65583 c 2.04262,-0.57544 3.93986,-1.41192 4.21607,-1.85884 0.27622,-0.44693 1.01565,-6.07078 1.64318,-12.49745 1.51856,-15.55187 0.88944,-17.22679 -6.83292,-18.19164 -7.28487,-0.91018 -21.30036,0.1988 -22.8715,1.80972 -1.22702,1.25808 -3.3687,16.98759 -3.3687,24.74129 0,3.48512 0.45614,4.34292 3.25,6.11181 2.84806,1.8032 4.30123,1.98804 11.75,1.49452 4.675,-0.30974 10.17124,-1.03398 12.21387,-1.60941 z m 19.98908,-1.02832 c 3.63275,-1.67024 26.06647,-37.0078 24.49297,-38.581291 -0.29741,-0.297411 -2.93816,-0.06134 -5.86833,0.52461 -2.93018,0.585951 -7.80647,1.319841 -10.8362,1.630881 -6.18889,0.63535 -7.23664,1.11578 -8.76226,4.01778 -1.3058,2.48384 -3.78608,29.57037 -2.91548,31.83913 0.73634,1.91886 0.9008,1.94292 3.8893,0.56889 z m -105.51616,-2.12934 c 1.22376,-0.98424 2.25378,-7.20724 2.78313,-16.81454 0.16667,-3.025 0.60706,-6.85 0.97865,-8.5 1.10879,-4.92348 -0.79604,-6.21498 -10.94857,-7.42326 -4.95,-0.58911 -12.02167,-1.07237 -15.71482,-1.07392 -8.51231,-0.004 -8.9106,0.65126 -9.01555,14.82281 -0.0887,11.97515 0.47642,14.7005 3.36922,16.24868 2.85046,1.52552 11.66236,3.58746 16.32344,3.8196 2.17926,0.10853 4.18257,0.41761 4.4518,0.68685 0.6792,0.6792 6.3282,-0.60443 7.7727,-1.76622 z m -41.54274,-20.33546 c -0.22802,-10.23598 -0.76714,-16.377064 -1.5,-17.086394 C 342.01482,97.783663 337.675,96.531193 333,95.609419 c -4.675,-0.921773 -10.18974,-2.183746 -12.25497,-2.804384 -2.06523,-0.620638 -3.99448,-0.888914 -4.28723,-0.596169 -0.55201,0.552009 4.87978,11.153774 7.06585,13.791134 0.68383,0.825 2.19769,3.3 3.36412,5.5 1.16644,2.2 2.97197,5.125 4.01228,6.5 1.04031,1.375 3.77215,5.11399 6.07075,8.30887 2.72965,3.79402 4.76025,5.69448 5.85424,5.47908 1.50104,-0.29555 1.638,-1.98902 1.31901,-16.30887 z m 121.85646,346.39747 c -5.46512,-2.17924 -11.00603,-10.03419 -10.99493,-15.58671 0.0169,-8.47597 6.11525,-17.52712 12.6329,-18.74984 6.50034,-1.21947 10.9709,0.2503 16.70691,5.49269 4.5022,4.11475 5.51541,5.71859 6.6803,10.57441 1.3273,5.53281 1.28811,5.8771 -1.17357,10.30844 -3.40316,6.12615 -8.57981,9.06668 -15.85212,9.00462 -3.025,-0.0258 -6.62477,-0.49544 -7.99949,-1.04361 z M 478,452 c 6.14435,-6.14435 -2.2785,-17.32367 -9.49141,-12.59759 -3.55009,2.32612 -4.04391,5.62796 -1.56763,10.48186 1.85197,3.63017 2.51021,4.11573 5.57936,4.11573 2.14635,0 4.24603,-0.76635 5.47968,-2 z"
         style="fill:#76899f"
         sodipodi:nodetypes="csssssssssssssscsssssssssssscssscscssssscsssssssssssssssssssssssccsssssssssscsssssssssssssssssssssssscssssssssssssssssssssssssssssssscsssssssssssccssssssssssssscssssssccsssssssssssssssscssssssssssssssssssssssscssscsssssssssssssssssssssssss" />
      <path
         inkscape:connector-curvature="0"
         id="path3017"
         d="m 393.24508,659.84508 c -0.90281,-0.90281 -1.24913,-6.34437 -1.25982,-19.79508 -0.0165,-20.7911 -0.52699,-22.8953 -5.9855,-24.67289 -3.12314,-1.01706 -95.95687,-1.94446 -135.99976,-1.35862 -47.37599,0.69313 -162.077107,0.0106 -163.919456,-0.97538 -1.820157,-0.97412 -2.074484,-2.01644 -2.032127,-8.32829 0.05715,-8.51649 2.223667,-25.06082 3.791865,-28.95614 0.606987,-1.50772 0.848568,-3.40595 0.536846,-4.21828 -0.311721,-0.81234 0.111286,-3.40374 0.940018,-5.75869 0.828731,-2.35494 2.263299,-8.57818 3.187929,-13.82942 2.480403,-14.08693 2.304818,-13.94881 19.064595,-14.99607 7.66168,-0.47875 32.83033,-1.13712 55.93033,-1.46305 23.1,-0.32594 52.8,-0.77541 66,-0.99884 13.2,-0.22343 53.025,-0.69483 88.5,-1.04757 53.98134,-0.53675 64.76344,-0.8755 66.11543,-2.07725 2.32866,-2.06989 2.85097,-14.48763 2.05551,-48.86951 l -0.67094,-29 -2.34786,-0.33238 c -4.52252,-0.19294 0.3223,-9.25179 2.09334,-13.41758 0.2527,-0.6875 0.36665,-16.50792 0.25322,-35.15649 4.09553,-76.72107 -6.5583,-116.56168 -2.53693,-121.52211 1.53039,-2.85956 2.27697,-24.45525 1.28728,-37.23621 -0.83591,-10.79509 -1.12118,-11.92266 -3.82616,-15.12325 -1.6076,-1.90214 -5.62291,-5.10886 -8.92291,-7.12603 -3.3,-2.01717 -10.09214,-6.29055 -15.09364,-9.4964 -11.72533,-7.51566 -18.82651,-10.16289 -29.04591,-10.82794 -6.46289,-0.42059 -8.60884,-0.201 -10.41778,1.06603 -2.08605,1.46113 -2.37677,1.46099 -3.44629,-0.002 -1.59588,-2.18251 -10.77689,-1.02417 -16.65813,2.10169 -2.38604,1.26817 -9.3501,4.84611 -15.47569,7.95098 -6.12559,3.10487 -11.69319,6.31485 -12.37244,7.1333 -0.67926,0.81845 -1.70922,1.48809 -2.28881,1.48809 -0.57958,0 -5.75888,2.27535 -11.50955,5.05634 -5.75066,2.78098 -11.11025,4.80518 -11.91018,4.49822 -1.22663,-0.47071 -1.34761,-2.94634 -0.77241,-15.80634 0.6008,-13.43228 0.37327,-17.39188 -1.9105,-33.24822 -1.42589,-9.9 -3.21394,-20.25 -3.97346,-23 -5.27054,-19.08327 -17.33335,-39.59655 -28.97753,-49.27741 -6.59344,-5.48173 -6.99066,-7.67284 -2.20588,-12.167915 l 2.40743,-2.26166 5.82538,3.800005 c 7.25678,4.73373 19.70762,17.12075 24.53274,24.40698 4.74499,7.16523 10.611,19.47537 11.41695,23.95908 0.35006,1.94751 1.00369,4.00797 1.4525,4.57882 1.07806,1.37116 3.75138,24.9044 4.51928,39.78304 0.45647,8.84449 0.96634,11.95765 2.02496,12.36388 1.91604,0.73526 7.1038,-1.51906 10.82467,-4.7038 1.67986,-1.43782 4.74748,-3.63697 6.81694,-4.887 2.06946,-1.25002 4.17592,-3.04498 4.68103,-3.98878 0.50511,-0.94381 2.63692,-2.59109 4.73735,-3.66063 2.10043,-1.06953 5.52025,-2.97145 7.59958,-4.22648 2.07934,-1.25503 8.15434,-3.48044 13.5,-4.94535 7.72292,-2.11638 11.46539,-2.60346 18.21939,-2.37127 20.11688,0.6916 19.43353,0.73437 19.82058,-1.24072 0.19824,-1.01157 -0.55832,-2.81717 -1.68123,-4.01246 -1.12291,-1.19528 -2.99751,-4.19264 -4.16577,-6.66079 -2.5847,-5.46062 -3.83465,-7.63736 -6.6084,-11.50828 -1.17415,-1.6386 -5.89915,-9.36646 -10.5,-17.17305 C 320.26433,128.49963 315.6,120.63224 314.5,118.82312 c -4.95937,-8.15645 -14.49853,-27.442814 -14.48469,-29.285261 0.0328,-4.367239 1.1493,-4.787466 10.60582,-3.991863 4.88338,0.410852 13.60387,0.63384 19.37887,0.495529 9.02505,-0.216149 190.63689,-1.149435 202.87557,-1.042558 5.26588,0.04599 6.12443,0.492798 6.12443,3.187335 0,3.64239 -11.39181,26.575958 -17.54141,35.313698 -2.32253,3.3 -5.64728,8.7 -7.38835,12 -1.74106,3.3 -4.15662,7.47459 -5.3679,9.27686 C 495.81552,163.95116 490,173.71887 490,176.18919 c 0,2.58912 0.29576,2.80738 3.75,2.76726 2.0625,-0.0239 5.775,-0.44401 8.25,-0.93345 13.80881,-2.73078 35.10343,5.03949 57.5,20.98137 6.95181,4.94831 11.8536,7.09157 14.25,6.2307 0.79359,-0.28509 1.26195,-2.50947 1.28272,-6.09206 0.057,-9.83569 4.73435,-38.72872 7.48986,-46.26677 0.87984,-2.40693 2.07313,-5.95124 2.65174,-7.87624 4.26066,-14.1748 20.18993,-34.8365 31.60837,-40.99889 2.04452,-1.10341 4.6853,-2.70538 5.8684,-3.55995 2.01662,-1.456629 2.37604,-1.356233 5.75,1.60614 1.9794,1.73793 3.59891,3.82032 3.59891,4.62751 0,0.80719 -3.72252,5.14808 -8.27227,9.64641 -4.54975,4.49833 -9.46492,9.75378 -10.92261,11.67878 -2.55738,3.37725 -5.76057,11.04865 -5.79057,13.86798 -0.008,0.7524 -1.36455,2.90556 -3.01455,4.7848 -1.65,1.87925 -3,4.06724 -3,4.86222 0,0.79497 -1.07886,4.26681 -2.39747,7.7152 -3.63478,9.50555 -6.37184,18.71248 -7.21499,24.2698 -0.82278,5.42301 -0.71548,33.29771 0.16552,43 0.3869,4.26091 0.14354,6.54644 -0.83961,7.88526 -1.3417,1.82707 -1.55152,1.80133 -6.79894,-0.83411 -11.22006,-5.63511 -21.19603,-11.37353 -33.48329,-19.2604 -4.46363,-2.86508 -11.22419,-6.45808 -15.02346,-7.98443 -6.36696,-2.55792 -7.96466,-2.77443 -20.40776,-2.76554 -16.10149,0.0115 -23.71559,1.99053 -34.6167,8.9974 -3.78581,2.4334 -8.93627,5.52253 -11.44546,6.86475 -2.50919,1.34222 -7.08849,4.49832 -10.17622,7.01357 -8.42668,6.86433 -9.34409,10.12226 -10.0758,35.78174 -0.52974,18.57689 -0.41518,20.91441 1.11778,22.80755 -1.46004,37.83671 -2.54797,30.02719 1.5408,83.37438 -1.41625,1.2182 -2.72761,3.54352 -2.91414,5.16737 -1.14224,9.94405 -2.31572,52.57571 -2.37968,86.45246 -0.041,21.725 -0.31697,46.51349 -0.61323,55.08553 -0.44562,12.89381 -0.28732,15.79411 0.9166,16.79328 1.00031,0.83018 6.25255,1.20115 16.80064,1.18666 18.27324,-0.0251 123.94989,1.69437 148.84539,2.42187 9.625,0.28127 26.5,0.74992 37.5,1.04145 47.35017,1.25491 76.79369,2.55802 78.5062,3.47453 3.48018,1.86253 5.9938,6.13223 5.9938,10.1812 0,2.15314 0.70756,5.28307 1.57235,6.9554 0.8648,1.67233 1.32742,3.67889 1.02806,4.45902 -0.29937,0.78014 -0.082,2.63442 0.48307,4.12064 0.56506,1.48622 1.20704,4.29481 1.42661,6.24132 0.21957,1.9465 1.09401,7.3641 1.9432,12.0391 0.84919,4.675 1.54459,8.82184 1.54534,9.2152 7.5e-4,0.39337 1.30921,2.20475 2.90768,4.02531 l 2.9063,3.3101 -2.71242,6.38998 c -1.49183,3.51449 -3.62381,6.99513 -4.73774,7.73474 -2.30099,1.52781 -17.3105,1.62896 -109.36245,0.73704 -160.21018,-1.55232 -181.44987,-1.5786 -183.25005,-0.22666 -1.53588,1.15345 -1.82456,3.94547 -2.35887,22.81429 -0.33485,11.825 -0.81138,21.8375 -1.05897,22.25 -0.78227,1.30336 -5.036,0.81171 -6.31546,-0.72994 -1.25931,-1.51738 -1.29526,-5.31525 -2.49449,-263.52006 -0.66602,-143.39926 -0.6499,-145.70418 1.06524,-152.33065 0.83003,-3.20685 2.66887,-8.38185 4.08631,-11.5 1.41743,-3.11814 4.05537,-9.71935 5.86208,-14.66935 7.14919,-19.58724 10.83148,-27.18666 18.41288,-38 4.24175,-6.05 9.3108,-13.28283 11.26457,-16.07295 4.28082,-6.11335 6.88406,-10.99641 6.21765,-11.66283 -0.26914,-0.26913 -6.81871,-0.26172 -14.55461,0.0165 -9.48359,0.34105 -16.39614,0.0733 -21.22078,-0.82208 -8.35823,-1.55109 -9.15178,-1.49735 -17.40729,1.17892 -8.29288,2.68838 -14.78855,2.59454 -26.24821,-0.37922 -6.98015,-1.81134 -12.36526,-2.49704 -20.30224,-2.58516 -8.04839,-0.0893 -13.59187,-0.80784 -21.74486,-2.81835 -6.01844,-1.48414 -11.25059,-2.39047 -11.62699,-2.01407 -1.14761,1.14761 2.34484,7.39219 14.07097,25.15925 6.17094,9.35 12.48146,19.475 14.0234,22.5 1.54193,3.025 3.42854,6.21085 4.19246,7.07968 0.76393,0.86882 2.47985,4.24382 3.81316,7.5 1.33332,3.25617 4.70794,10.10627 7.49916,15.22243 2.79122,5.11616 5.07494,9.77315 5.07494,10.34887 0,0.57572 0.62376,2.46477 1.38614,4.19789 4.38364,9.96535 5.83458,15.69356 5.14312,20.3046 -0.38645,2.57701 -0.91542,39.59671 -1.1755,82.266 -0.26007,42.66929 -0.48656,78.25553 -0.50331,79.08053 -0.0902,4.44304 -0.2523,82.83841 -0.25559,123.61346 -0.003,41.91086 0.17658,47.38876 1.62976,49.60661 1.43305,2.1871 1.45415,2.67259 0.17189,3.95485 -1.18843,1.18843 -1.53033,6.38872 -1.8288,27.81649 -0.22148,15.90083 0.0212,27.20706 0.61188,28.50341 1.50677,3.307 -1.97001,8.9178 -5.76299,9.30026 -1.60954,0.16229 -3.48673,-0.26521 -4.17152,-0.95 z M 476.387,584.04296 c 2.69502,-1.02464 5.613,-5.67092 5.613,-8.93754 0,-3.42446 -4.11511,-7.17808 -8.50156,-7.75475 -3.49396,-0.45934 -4.36101,-0.14447 -6.87214,2.49567 -2.48597,2.61367 -2.78069,3.51716 -2.18431,6.69613 0.74917,3.99343 4.78119,8.45753 7.63893,8.45753 0.98389,0 2.92162,-0.43067 4.30608,-0.95704 z m 4.37022,-247.8106 c 3.61255,-1.69097 7.39455,-7.63927 5.77908,-11.53936 -1.32263,-3.19305 -11.62296,-11.2546 -15.34657,-11.2546 -3.03537,0 -9.45004,4.31204 -10.26774,8.40052 -0.54576,2.72879 -0.40273,7.2433 2.6175,10.26353 3.74534,3.74534 9.01219,7.97077 13.03282,6.08879 z M 429.93313,140.53458 c 1.65417,-0.8554 3.53109,-2.53346 4.17092,-3.72901 0.63984,-1.19555 1.38847,-8.07346 1.66363,-15.28424 C 436.434,104.05925 437.50473,105 416.96376,105 c -19.06653,0 -17.79511,-1.0876 -19.27232,16.48601 -1.24043,14.75696 -0.49673,17.07654 6.30856,19.67619 5.63691,2.15333 21.28784,1.77455 25.93313,-0.62762 z m 36.47531,-0.0136 c 4.34965,-0.7751 8.49559,-1.9969 9.21321,-2.71511 0.77172,-0.77236 1.74808,-6.07199 2.38989,-12.97228 0.90786,-9.76051 0.84616,-12.23837 -0.37765,-15.16735 -1.36483,-3.26652 -1.84593,-3.54879 -7.18538,-4.21591 -8.48955,-1.0607 -21.5612,0.24228 -23.69413,2.36183 -2.53931,2.52337 -4.75929,27.2721 -2.67194,29.7872 3.64828,4.39591 9.64727,5.18095 22.326,2.92162 z m -81.75082,-2.97967 c 2.94498,-0.84272 3.33889,-2.24342 4.51117,-16.04128 1.25909,-14.81965 1.24328,-15.51651 -0.38913,-17.14891 -1.42166,-1.42166 -16.38117,-3.30552 -26.47296,-3.33376 -8.703,-0.0243 -9.3067,1.03109 -9.3067,16.27092 0,6.51378 0.46031,12.70334 1.02292,13.75457 1.6134,3.01468 4.75345,4.23745 15.47708,6.02694 9.88191,1.64904 10.92885,1.6816 15.15762,0.47152 z M 500.80072,127.5 c 8.28798,-12.48751 17.29365,-28.538288 16.62191,-29.62518 -0.24728,-0.400111 -1.88886,-0.314701 -3.64795,0.1898 -1.75909,0.5045 -7.04052,1.422897 -11.73651,2.04088 -9.78908,1.28822 -11.78843,2.10743 -13.01462,5.33257 -1.23271,3.24225 -3.47363,29.94665 -2.68539,32.00079 0.46417,1.2096 1.57234,1.59981 3.90496,1.37501 2.92638,-0.28202 3.99773,-1.43011 10.5576,-11.31387 z m -155.52301,4.21869 c 0.6914,-1.80177 -0.41639,-32.325043 -1.2204,-33.625958 -0.53148,-0.859953 -26.53024,-8.026608 -29.30731,-8.078671 -0.4125,-0.0077 -0.75,0.507023 -0.75,1.143904 0,2.306274 20.25225,33.975355 25.31895,39.592035 2.23796,2.48089 5.19406,2.96145 5.95876,0.96869 z m 119.46984,329.21197 c -5.35088,-2.82478 -9.25478,-9.11627 -9.21924,-14.85763 0.0429,-6.93152 1.06003,-9.44331 5.61371,-13.86312 6.99553,-6.78988 14.8148,-6.52101 23.12649,0.79524 5.7211,5.03591 8.61837,12.77754 6.82059,18.22488 -1.3137,3.98055 -6.37442,9.18935 -10.4042,10.70864 -4.38944,1.65488 -11.77838,1.18754 -15.93735,-1.00801 z m 13.7979,-8.38521 c 4.25792,-4.25791 3.01409,-11.1705 -2.52543,-14.0351 -4.18607,-2.1647 -5.78497,-1.89925 -9.21393,1.52971 -2.49933,2.49934 -2.93178,3.58151 -2.43125,6.08416 0.33485,1.67425 1.54314,4.35622 2.68509,5.95994 2.73228,3.83714 7.90205,4.04477 11.48552,0.46129 z"
         style="fill:#62738a"
         sodipodi:nodetypes="cssssssssssssssscccccsssssscssssssssssscssscssssssssssssscsssssssssscsssssssssssssssssssssssssssccsssssssssssssssscssssscssssssscssssssssssssssssssssscsccsssssssssssssssssssssssssssssssssssssssssssssscsssssssssssssssss" />
      <path
         inkscape:connector-curvature="0"
         id="path3015"
         d="m 439.6404,659.68132 c -1.3834,-1.05164 -1.62439,-14.1348 -2.19529,-119.18132 -0.35271,-64.9 -0.62981,-118.45 -0.61577,-119 0.014,-0.55 -0.0487,-22.6 -0.13938,-49 -0.0907,-26.4 -0.17045,-65.55 -0.17726,-87 l -0.0124,-39 2.86584,-7.5 c 1.5762,-4.125 3.28986,-8.02772 3.80812,-8.6727 0.51827,-0.64499 2.42963,-5.59499 4.24747,-11 5.72258,-17.01502 12.10816,-29.94515 20.85684,-42.2329 12.56666,-17.65021 15.89137,-22.97943 15.51399,-24.8676 -0.31243,-1.56326 -1.78308,-1.69413 -15.52807,-1.3819 -11.83916,0.26894 -16.79846,-0.036 -22.51842,-1.38444 l -7.33548,-1.72934 -8.95531,2.63467 c -10.97914,3.23008 -12.43729,3.23723 -24.95298,0.12238 C 397.08678,148.64263 391.83522,148 384.16894,148 374.35151,148 362.6096,145.94337 354.76941,142.8506 351.51237,141.56577 347,142.47899 347,144.42299 c 0,1.61417 5.66278,11.84558 10.22697,18.47791 11.0233,16.0182 21.94982,33.83025 25.17845,41.04508 0.60202,1.34529 3.76188,7.64529 7.02191,14 5.79784,11.3016 7.559,15.4446 11.6848,27.48755 1.92857,5.62937 1.99062,7.21843 1.21032,31 -0.45235,13.78656 -0.61342,29.11647 -0.35793,34.06647 0.67413,13.06133 0.61548,43.97122 -0.25236,133 -0.87536,89.80009 -0.9232,122.23924 -0.20351,138 0.27626,6.05 0.46433,11.675 0.41793,12.5 -0.5074,9.02196 -0.66841,15.5305 -0.82869,33.5 -0.10302,11.55 0.0906,22.35 0.43016,24 0.33961,1.65 0.13502,4.26603 -0.45464,5.81341 -0.91517,2.40153 -1.54801,2.76752 -4.32277,2.5 L 393.5,659.5 393,639.45256 c -0.56424,-22.62325 -1.19181,-24.83511 -7.37558,-25.9952 -1.86489,-0.34985 -68.8058,-0.71505 -148.75757,-0.81156 C 83.838347,612.4611 87,612.55613 87,608.14103 87,605.3716 92.452912,572.31904 95.578472,556.14304 96.360312,552.09671 97,547.32895 97,545.54802 c 0,-5.54346 2.507853,-6.79982 15.27472,-7.65221 6.17391,-0.41221 29.00028,-1.02014 50.72528,-1.35097 21.725,-0.33083 50.975,-0.80514 65,-1.05401 21.96199,-0.38971 89.59602,-1.24594 143.69939,-1.81919 11.63186,-0.12324 16.5604,-0.53248 17.47978,-1.45143 2.08074,-2.07974 2.54631,-12.8373 2.01458,-46.54978 -0.43243,-27.417 -0.72772,-32.10829 -2.13002,-33.84006 -1.60554,-1.98276 -1.69475,-1.95532 -6.46778,1.98888 -8.12301,6.71246 -15.79906,7.2465 -22.54683,1.56862 -8.60462,-7.2403 -4.70974,-21.8601 6.37793,-23.94016 4.74968,-0.89105 11.50371,2.33903 15.63171,7.47579 3.79551,4.723 6.98673,5.16565 7.93948,1.10127 1.0942,-4.66779 0.26534,-68.66374 -0.91795,-70.87474 -1.97724,-3.69451 -7.89374,-4.46192 -29.08029,-3.77191 -20.48778,0.66724 -26.38439,1.60089 -27.88781,4.41563 -1.26533,2.36901 -0.56566,49.07458 1.04424,69.70625 1.42525,18.26549 1.57616,26.14851 0.55167,28.81829 -0.51298,1.33681 -1.97767,1.68171 -7.14177,1.68171 -3.57304,0 -8.43237,0.65727 -10.79851,1.46059 -17.98206,6.10507 -99.23237,6.19498 -131.76782,0.14581 -8.12924,-1.51144 -18.4405,-4.14257 -19.99181,-5.10134 -1.00784,-0.62288 -0.84433,-3.53287 1.48932,-26.50506 0.75427,-7.425 1.87818,-20.475 2.49758,-29 0.61939,-8.525 1.54889,-17.93755 2.06554,-20.91678 1.07913,-6.22267 1.23394,-15.15201 0.30469,-17.57361 -0.34908,-0.90968 -3.16158,-2.80554 -6.25,-4.21303 -4.73592,-2.15831 -7.69551,-2.66672 -18.89817,-3.2464 -17.36074,-0.89832 -16.94684,-0.4999 -14.73373,-14.18263 3.17452,-19.62681 4.37487,-27.39848 6.00317,-38.86755 2.09827,-14.77934 3.16898,-18.7453 5.38024,-19.92873 1.71199,-0.91623 18.18775,-1.41061 85.63317,-2.56958 16.5,-0.28353 32.75577,-0.78375 36.12393,-1.1116 6.01109,-0.5851 6.1438,-0.66328 7.2021,-4.24309 0.593,-2.00585 1.57234,-7.922 2.17633,-13.147 2.06479,-17.86211 2.49473,-18.67634 15.91233,-30.13483 2.56012,-2.18632 3.08531,-3.36668 3.08531,-6.93427 0,-12.92543 10.69851,-19.43239 18.73566,-11.39524 3.45134,3.45134 3.52243,3.68142 2.98133,9.64882 -0.68265,7.52833 0.19264,9.94241 5.7647,15.8994 5.88198,6.28832 7.04461,10.65561 6.8992,25.91612 -0.0785,8.23666 0.26258,12.75252 1,13.24037 1.1742,0.77682 42.56334,0.11859 53.42646,-0.84966 5.36472,-0.47816 6.43605,-0.90071 7.16858,-2.8274 1.5224,-4.00422 2.19866,-24.69807 1.21643,-37.22339 -0.90213,-11.5039 -1.1249,-12.37325 -4.12837,-16.11066 -1.74612,-2.17283 -4.38336,-4.57579 -5.86051,-5.33993 -1.47715,-0.76413 -6.62268,-3.97683 -11.43449,-7.13933 -4.81182,-3.1625 -9.00834,-5.75 -9.3256,-5.75 -0.31726,0 -2.00931,-1.05245 -3.76011,-2.33877 -1.7508,-1.28632 -6.10828,-3.41899 -9.68328,-4.73926 -5.78347,-2.13588 -8.15354,-2.40168 -21.5,-2.41123 -15.4228,-0.011 -23.72962,1.53136 -27.5,5.10618 -1.39523,1.32286 -7.18422,4.39613 -35.42681,18.80746 -6.00975,3.06659 -11.5732,5.57562 -12.36323,5.57562 -1.21494,0 -1.32958,-2.27419 -0.74353,-14.75 0.60635,-12.90829 0.36837,-17.05995 -1.906,-33.25 -2.32796,-16.57158 -3.9147,-24.42452 -5.85966,-29 -0.35069,-0.825 -1.37311,-3.75 -2.27205,-6.5 -3.871,-11.84213 -15.16433,-28.74975 -25.76055,-38.567 -5.12272,-4.74612 -5.15468,-4.81299 -3.6338,-7.60354 0.84391,-1.54842 2.35384,-2.973124 3.35541,-3.166008 2.04714,-0.394244 10.92376,5.343218 17.38337,11.235858 9.51731,8.68198 22.14698,29.08533 23.84362,38.51963 0.35421,1.96958 1.05199,4.09724 1.55064,4.72813 1.22763,1.5532 2.63102,13.5896 3.83049,32.85293 1.20369,19.33093 1.43527,20.5 4.06099,20.5 2.8359,0 8.98763,-3.31952 11.86542,-6.40268 1.33338,-1.42853 2.97221,-2.59732 3.64185,-2.59732 0.66964,0 3.4037,-1.94015 6.07569,-4.31146 14.42566,-12.80231 37.59689,-18.84115 56.65783,-14.76605 4.52393,0.96719 6.11871,0.97517 7.25,0.0363 1.94833,-1.61697 1.83703,-5.394 -0.20882,-7.08633 -0.91252,-0.75484 -2.61589,-3.39744 -3.78525,-5.87244 -1.16937,-2.475 -3.43714,-6.525 -5.03948,-9 C 333.00578,148.48867 317,121.69589 317,120.9832 c 0,-0.39242 -0.8679,-1.81684 -1.92866,-3.16538 -2.50976,-3.19064 -9.93551,-17.25987 -11.64741,-22.06782 l -1.33521,-3.75 4.26855,0 c 4.52066,0 7.95116,2.579957 10.63738,8 2.16281,4.36395 19.86487,30.56289 21.88746,32.39331 1.15708,1.04715 3.08741,1.62536 4.77946,1.43165 L 346.5,133.5 l -0.20062,-18 -0.20063,-18 -2.57484,-2.057869 c -1.41616,-1.131828 -2.26338,-2.369328 -1.88271,-2.75 1.16681,-1.166809 49.15931,-0.82393 49.88881,0.356427 0.44085,0.713312 1.11213,0.663406 2.09956,-0.156089 2.30844,-1.91584 57.71232,-1.298596 61.90222,0.689641 2.3791,1.128955 3.80531,1.240221 5.86407,0.457484 4.1026,-1.559805 73.6087,-1.312834 73.58959,0.261481 -0.0252,2.075437 -3.08281,10.132565 -4.43965,11.698925 -0.71464,0.825 -2.22531,3.62804 -3.35704,6.22897 -1.13173,2.60093 -4.0418,7.55093 -6.46681,11 -2.42502,3.44907 -5.43467,8.43957 -6.68813,11.09 -1.25345,2.65043 -3.28734,6.02543 -4.51976,7.5 -1.23241,1.47457 -3.15484,4.48103 -4.27206,6.68103 -1.11722,2.2 -4.11799,6.83316 -6.66838,10.2959 -6.03878,8.19906 -10.98264,17.69584 -10.23135,19.65367 0.69484,1.81072 4.4803,1.97731 13.04807,0.57422 15.55453,-2.54726 34.49274,4.29494 58.10966,20.99448 8.12788,5.74723 12.92364,7.70496 14.88565,6.07663 0.85031,-0.70569 1.52605,-4.89242 1.93047,-11.9607 0.34222,-5.98122 1.07029,-12.84578 1.61792,-15.25458 0.54764,-2.40879 1.6738,-8.22073 2.50258,-12.91543 3.92438,-22.22996 13.59605,-41.40271 27.15124,-53.82358 3.57294,-3.27395 7.93983,-6.67897 9.7042,-7.5667 1.76437,-0.88774 4.16468,-2.29789 5.33403,-3.13369 1.96276,-1.40288 2.36609,-1.31768 5.25,1.10897 1.71815,1.44573 3.12391,3.46181 3.12391,4.48018 0,1.01837 -2.29388,3.78581 -5.09751,6.14987 C 614.77359,122.56326 606,135.43633 606,142.38119 c 0,0.82797 -0.92511,2.15338 -2.05581,2.94534 -3.39717,2.37948 -11.23341,25.88142 -13.89516,41.67347 -0.77463,4.5958 -0.80653,12.35516 -0.10891,26.4866 0.59471,12.04665 0.62418,20.3491 0.0742,20.8991 -1.45745,1.45745 -24.91183,-10.96955 -40.61618,-21.51996 -3.79396,-2.54885 -8.92312,-5.32731 -11.39812,-6.17436 -2.475,-0.84705 -6.29453,-2.29989 -8.48785,-3.22853 -3.25069,-1.37634 -6.20833,-1.60171 -16,-1.2192 -13.47359,0.52634 -23.60674,3.19758 -31.51215,8.30703 -7.07755,4.57439 -7.44352,4.79605 -12.6111,7.63825 -8.78402,4.83128 -16.41698,11.62961 -18.69533,16.65107 -1.81674,4.0041 -2.22192,7.47504 -2.87863,24.66 -0.42036,11 -0.51685,21.65366 -0.21442,23.67481 0.49891,3.33424 0.89043,3.72485 4.22467,4.21489 2.02115,0.29705 20.09981,0.78744 40.17481,1.08975 20.075,0.30231 44.375,0.77589 54,1.0524 23.41538,0.67268 111.7364,2.52151 112.72042,2.35959 0.42877,-0.0706 6.06708,-0.075 12.52958,-0.01 14.46873,0.14582 15.25263,0.66619 16.23828,10.77928 0.566,5.80725 4.89486,29.58858 8.49441,46.66543 0.55952,2.65446 1.01731,7.02613 1.01731,9.71482 0,5.94987 -0.77494,6.46856 -10.86789,7.27418 -4.71913,0.37669 -8.01596,1.17461 -9.17059,2.21953 -0.99148,0.89728 -3.30093,2.42947 -5.13211,3.40487 -5.38957,2.87082 -5.93656,4.89851 -5.41147,20.06031 0.25715,7.425 0.7267,15.75 1.04346,18.5 0.31676,2.75 1.256,13.325 2.08721,23.5 0.83121,10.175 2.03193,21.32033 2.66826,24.76741 1.77194,9.59879 0.76037,11.41905 -7.23965,13.02727 -24.64893,4.95508 -39.53099,6.20563 -73.8226,6.20334 -34.68109,-0.002 -54.07407,-1.61579 -71.65462,-5.96154 -2.2,-0.54382 -6.27649,-0.9995 -9.05887,-1.01262 -8.31549,-0.0392 -8.66809,-0.65958 -8.57636,-15.08879 0.10967,-17.252 0.81776,-34.84772 2.09467,-52.05157 2.33112,-31.4072 2.35429,-30.50082 -0.87201,-34.11167 -2.86559,-3.20716 -2.86608,-3.20728 -15.72655,-3.90278 -7.07349,-0.38253 -18.13801,-0.73456 -24.58783,-0.78228 -11.68108,-0.0864 -11.73388,-0.0762 -13.5,2.61693 -2.56797,3.91587 -3.14835,15.29963 -3.73688,73.2963 -0.28185,27.775 -0.7213,59.28323 -0.97654,70.01828 -0.2611,10.98115 -0.0637,20.16637 0.45134,21 0.77812,1.25948 8.15796,1.58873 49.20222,2.19516 47.0307,0.69489 134.66792,2.49544 157.78681,3.24181 6.325,0.2042 22.75,0.64858 36.5,0.98751 31.79088,0.78364 38.27667,1.33391 40.36766,3.4249 0.95775,0.95775 2.401,5.80725 3.46332,11.63718 1.00172,5.49734 2.20559,11.57016 2.67528,13.49516 0.46968,1.925 1.39431,6.875 2.05473,11 0.66041,4.125 2.08678,11.325 3.1697,16 2.92375,12.62191 2.47433,17.40126 -1.78874,19.02207 -1.56729,0.59588 -51.7166,0.71712 -134.22207,0.32449 -148.90301,-0.70862 -156.2247,-0.66298 -157.92969,0.98446 -1.16669,1.12731 -2.03845,15.60049 -2.21731,36.81199 -0.0763,9.05373 -1.11712,11.05858 -4.43248,8.53831 z m 38.59925,-74.8493 c 2.35318,-1.20565 4.76035,-6.08411 4.76035,-9.6475 0,-6.2123 -8.08804,-11.63654 -13.80881,-9.26087 -1.48015,0.61467 -3.6945,2.58523 -4.92076,4.37903 -1.887,2.76033 -2.08048,3.80138 -1.25927,6.77557 2.28161,8.26332 8.27645,11.31566 15.22849,7.75377 z M 598.52834,464.90023 c 1.41381,-1.41381 1.47565,-3.76399 0.56549,-21.4938 -0.56204,-10.94854 -1.0707,-28.23143 -1.13036,-38.40643 -0.13953,-23.79761 -0.90656,-35.53991 -2.46032,-37.66481 -1.00221,-1.3706 -2.86136,-1.68963 -9.64698,-1.6554 -10.58365,0.0534 -12.42944,0.65732 -13.77103,4.50582 -0.61391,1.76107 -1.32144,15.0466 -1.63544,30.70914 -0.30438,15.18289 -0.75241,28.57296 -0.99563,29.75571 -0.24321,1.18275 0.0203,9.03908 0.58558,17.45852 1.33434,19.8737 0.77724,19.20792 15.67644,18.73495 8.56612,-0.27192 11.60086,-0.73231 12.81225,-1.9437 z m -335.68716,-0.74141 c 1.70221,-1.70221 1.90237,-5.00441 2.65179,-43.75 0.83413,-43.12504 0.82161,-49.64139 -0.10118,-52.67581 -1.20537,-3.96367 -12.58831,-5.46933 -24.0312,-3.17869 -2.84921,0.57036 -3.1679,2.22514 -4.34892,22.58179 -0.55406,9.55014 -1.44672,22.53889 -1.98368,28.86389 -0.53696,6.325 -1.21912,18.94302 -1.5159,28.04005 -0.67822,20.78876 -0.9665,20.24504 11.15423,21.03749 15.91294,1.04039 16.23187,1.02427 18.17486,-0.91872 z m 385.96612,0.17699 c 9.49937,-0.87515 9.63744,-1.24871 8.33906,-22.56189 C 656.5676,432.27327 655.59571,414.825 654.98662,403 c -0.65199,-12.65786 -1.61116,-22.52588 -2.33226,-23.99446 -0.92482,-1.88347 -2.72535,-2.89942 -7.35084,-4.14772 -8.15373,-2.20049 -26.3527,-3.43705 -29.08257,-1.97607 -2.84949,1.525 -3.50005,5.37721 -3.73533,22.11825 -0.18296,13.01796 -3.02011,49.43778 -3.97115,50.97658 -0.70981,1.1485 1.46052,15.28835 2.54767,16.5983 0.59571,0.71778 2.06292,1.49466 3.26048,1.7264 3.39468,0.65691 27.46744,0.68101 34.48468,0.0345 z M 558,462.69218 c 2.98839,-1.52806 3.02833,-2.96781 0.47696,-17.19218 -1.44186,-8.03864 -1.83155,-16.24678 -1.98683,-41.84922 -0.21124,-34.82665 0.12318,-33.02219 -6.35088,-34.26813 -4.27726,-0.82317 -28.9776,2.35678 -31.66864,4.07705 -1.49742,0.95724 -2.35286,3.22964 -3.26335,8.66881 -2.32048,13.86227 -4.17502,69.25881 -2.58408,77.18856 0.32104,1.60011 1.49648,3.1927 2.72101,3.68661 3.57324,1.44127 39.74455,1.17713 42.65581,-0.3115 z m -348.82143,-0.67853 c 9.72374,-0.0105 13.01625,-0.35133 14.12747,-1.46254 2.18861,-2.18862 3.01186,-16.37884 1.65639,-28.55111 -0.64308,-5.775 -1.28087,-21.79733 -1.41731,-35.60517 -0.13644,-13.80784 -0.56646,-25.62034 -0.95561,-26.25 -1.78075,-2.88132 -34.63344,-0.0993 -40.21755,3.40574 -1.17043,0.73464 -2.40092,2.8238 -2.73443,4.64257 -1.46162,7.97085 -3.55287,33.75883 -4.07959,50.30686 -0.31512,9.9 -0.8433,20.94196 -1.17373,24.53768 -0.45647,4.96726 -0.26313,6.81792 0.80488,7.70429 1.33423,1.10731 15.04564,2.23525 19.31091,1.58857 1.1,-0.16678 7.70536,-0.30938 14.67857,-0.31689 z m 112.54872,-0.53519 c 2.07838,-1.45576 2.15624,-2.09342 1.8008,-14.75 -0.20432,-7.27565 -0.68065,-26.05346 -1.05852,-41.72846 -0.43213,-17.92612 -1.114,-29.42753 -1.83786,-31 -0.91123,-1.97951 -2.39801,-2.77156 -7.14127,-3.80436 -8.1532,-1.77529 -31.96006,-2.1039 -33.61262,-0.46397 -0.90514,0.89822 -1.27976,7.26028 -1.38374,23.5 -0.15352,23.97426 -1.62821,44.5214 -4.00699,55.82968 -2.59878,12.35419 -2.66224,12.2838 11.72337,13.00329 23.69553,1.18512 33.21218,1.02806 35.51683,-0.58618 z m 157.7775,-127.89234 c 8.25943,-8.25943 -0.95585,-22.56776 -11.03788,-17.13823 -3.71328,1.99973 -5.46691,5.20603 -5.46691,9.99557 0,2.58211 0.80973,4.06031 3.5348,6.45295 4.49286,3.94478 9.45124,4.20846 12.96999,0.68971 z M 429.85674,142.07309 c 2.07738,-1.0598 4.29786,-2.55445 4.9344,-3.32143 1.49071,-1.79619 3.66344,-24.51503 2.78985,-29.17165 -1.01432,-5.40676 -2.96052,-5.96628 -20.83099,-5.98877 -12.60014,-0.0159 -16.04635,0.27653 -17.23179,1.46198 C 397.38032,107.19111 396,115.81171 396,127.02571 c 0,8.04216 0.3285,10.1584 1.87291,12.06567 2.82769,3.49204 7.6165,4.74861 18.41693,4.83254 7.79897,0.0606 10.55794,-0.31578 13.5669,-1.85083 z m 44.10428,-2.0532 c 3.49007,-1.7805 3.9904,-2.51076 4.63021,-6.75805 0.39453,-2.61901 0.76041,-9.32248 0.81305,-14.8966 0.13817,-14.62891 0.17022,-14.603 -17.54671,-14.18699 -18.30919,0.42992 -18.13328,0.27537 -19.70041,17.30914 -1.30215,14.15361 -0.8166,16.49156 4.06791,19.58728 2.94845,1.86867 4.29917,2.01905 13.549,1.5085 7.42607,-0.40988 11.35873,-1.12043 14.18695,-2.56328 z M 494.40864,138.75 c 2.55491,-2.28102 18.60288,-26.93193 22.47833,-34.52843 2.27483,-4.459056 2.70185,-7.739622 1.1336,-8.708857 -0.53869,-0.332927 -2.67619,-0.166176 -4.75,0.370558 -3.85278,0.997157 -12.00555,2.61144 -18.27057,3.61765 -5.67447,0.911359 -7.26091,2.776379 -8.2877,9.742999 -0.50714,3.44085 -1.04178,8.05608 -1.18809,10.25608 -0.14632,2.2 -0.59917,7.18031 -1.00633,11.06736 -0.62296,5.94713 -0.4736,7.33407 0.94234,8.75 2.33201,2.33201 5.95844,2.10209 8.94842,-0.56736 z M 385.4323,138.59274 c 3.87293,-1.61822 4.35982,-3.07672 5.03841,-15.09274 0.24848,-4.4 0.74914,-9.66307 1.11257,-11.69571 1.57203,-8.79223 -0.35501,-10.05568 -18.08328,-11.856202 -15.86285,-1.611065 -18.35114,-1.244989 -20.63845,3.036312 -1.96354,3.6753 -2.40506,14.20192 -1.02394,24.41285 0.97469,7.20615 4.57969,9.37497 19.16239,11.52835 8.43834,1.24606 10.78281,1.19199 14.4323,-0.33286 z m 79.78588,321.74418 c -6.19625,-3.05401 -9.85896,-10.57822 -8.74982,-17.97452 0.86468,-5.76611 7.09041,-13.0014 11.9759,-13.91792 8.37053,-1.57032 18.33563,5.00909 21.1607,13.97126 0.94165,2.98726 1.39643,6.44258 1.03664,7.87612 -0.91798,3.65752 -5.50586,8.75348 -9.31279,10.34411 -4.38018,1.83016 -12.08071,1.68722 -16.11063,-0.29905 z m 14.20741,-6.85113 c 3.07304,-3.31587 3.93031,-7.89687 2.12948,-11.37929 -2.03146,-3.92842 -3.91432,-5.21087 -8.5666,-5.83487 -3.52514,-0.47282 -4.49724,-0.15838 -7.03921,2.27699 -4.28137,4.10181 -3.95691,10.20872 0.83423,15.70138 2.44727,2.80561 9.74239,2.36462 12.6421,-0.76421 z"
         style="fill:#a14e10" />
      <path
         inkscape:connector-curvature="0"
         id="path3013"
         d="m 439.6404,659.68132 c -1.3834,-1.05164 -1.62439,-14.1348 -2.19529,-119.18132 -0.35271,-64.9 -0.62981,-118.45 -0.61577,-119 0.014,-0.55 -0.0487,-22.6 -0.13938,-49 -0.0907,-26.4 -0.17045,-65.55 -0.17726,-87 l -0.0124,-39 2.86584,-7.5 c 1.5762,-4.125 3.28986,-8.02772 3.80812,-8.6727 0.51827,-0.64499 2.42963,-5.59499 4.24747,-11 5.72258,-17.01502 12.10816,-29.94515 20.85684,-42.2329 12.56666,-17.65021 15.89137,-22.97943 15.51399,-24.8676 -0.31243,-1.56326 -1.78308,-1.69413 -15.52807,-1.3819 -11.83916,0.26894 -16.79846,-0.036 -22.51842,-1.38444 l -7.33548,-1.72934 -8.95531,2.63467 c -10.97914,3.23008 -12.43729,3.23723 -24.95298,0.12238 C 397.08678,148.64263 391.83522,148 384.16894,148 374.35151,148 362.6096,145.94337 354.76941,142.8506 351.51237,141.56577 347,142.47899 347,144.42299 c 0,1.61417 5.66278,11.84558 10.22697,18.47791 11.0233,16.0182 21.94982,33.83025 25.17845,41.04508 0.60202,1.34529 3.76188,7.64529 7.02191,14 5.79784,11.3016 7.559,15.4446 11.6848,27.48755 1.92857,5.62937 1.99062,7.21843 1.21032,31 -0.45235,13.78656 -0.61342,29.11647 -0.35793,34.06647 0.67413,13.06133 0.61548,43.97122 -0.25236,133 -0.87536,89.80009 -0.9232,122.23924 -0.20351,138 0.27626,6.05 0.46433,11.675 0.41793,12.5 -0.5074,9.02196 -0.66841,15.5305 -0.82869,33.5 -0.10302,11.55 0.0906,22.35 0.43016,24 0.33961,1.65 0.13502,4.26603 -0.45464,5.81341 -0.91517,2.40153 -1.54801,2.76752 -4.32277,2.5 L 393.5,659.5 393,639.45256 c -0.55853,-22.39402 -1.1711,-24.60767 -7.21612,-26.07691 L 382.5,612.5775 l 3.9329,-0.53875 c 3.30756,-0.45309 4.07414,-1.01575 4.82118,-3.53875 0.88457,-2.98743 0.18259,-59.89959 -0.84491,-68.5 -0.68023,-5.69372 -0.6463,-6.9574 0.41607,-15.5 0.4788,-3.85 0.64463,-21.32331 0.36851,-38.82957 -0.43243,-27.417 -0.72772,-32.10829 -2.13002,-33.84006 -1.60554,-1.98276 -1.69475,-1.95532 -6.46778,1.98888 -8.12301,6.71246 -15.79906,7.2465 -22.54683,1.56862 -8.60462,-7.2403 -4.70974,-21.8601 6.37793,-23.94016 4.74968,-0.89105 11.50371,2.33903 15.63171,7.47579 3.79551,4.723 6.98673,5.16565 7.93948,1.10127 1.09892,-4.68791 0.26496,-68.66446 -0.92403,-70.8861 -0.6162,-1.1514 -2.57249,-2.51304 -4.34729,-3.02587 l -3.22692,-0.93242 3.12756,-0.0902 c 5.7038,-0.16448 5.87014,-0.95798 5.868,-27.99238 -0.002,-28.27807 -0.98084,-48.98309 -2.38134,-50.38359 -0.57096,-0.57096 -0.62127,-1.88059 -0.12261,-3.19214 1.50866,-3.9681 2.17859,-24.71285 1.20075,-37.18216 -0.90213,-11.5039 -1.1249,-12.37325 -4.12837,-16.11066 -1.74612,-2.17283 -4.38336,-4.57579 -5.86051,-5.33993 -1.47715,-0.76413 -6.62268,-3.97683 -11.43449,-7.13933 -4.81182,-3.1625 -9.00834,-5.75 -9.3256,-5.75 -0.31726,0 -2.00931,-1.05245 -3.76011,-2.33877 -1.7508,-1.28632 -6.10828,-3.41899 -9.68328,-4.73926 -5.78347,-2.13588 -8.15354,-2.40168 -21.5,-2.41123 -15.4228,-0.011 -23.72962,1.53136 -27.5,5.10618 -1.39523,1.32286 -7.18422,4.39613 -35.42681,18.80746 -6.00975,3.06659 -11.5732,5.57562 -12.36323,5.57562 -1.21494,0 -1.32958,-2.27419 -0.74353,-14.75 0.60635,-12.90829 0.36837,-17.05995 -1.906,-33.25 -2.32796,-16.57158 -3.9147,-24.42452 -5.85966,-29 -0.35069,-0.825 -1.37311,-3.75 -2.27205,-6.5 -3.871,-11.84213 -15.16433,-28.74975 -25.76055,-38.567 -5.12272,-4.74612 -5.15468,-4.81299 -3.6338,-7.60354 0.84391,-1.54842 2.35384,-2.973124 3.35541,-3.166008 2.04714,-0.394244 10.92376,5.343218 17.38337,11.235858 9.51731,8.68198 22.14698,29.08533 23.84362,38.51963 0.35421,1.96958 1.05199,4.09724 1.55064,4.72813 1.22763,1.5532 2.63102,13.5896 3.83049,32.85293 1.20369,19.33093 1.43527,20.5 4.06099,20.5 2.8359,0 8.98763,-3.31952 11.86542,-6.40268 1.33338,-1.42853 2.97221,-2.59732 3.64185,-2.59732 0.66964,0 3.4037,-1.94015 6.07569,-4.31146 14.42566,-12.80231 37.59689,-18.84115 56.65783,-14.76605 4.52393,0.96719 6.11871,0.97517 7.25,0.0363 1.94833,-1.61697 1.83703,-5.394 -0.20882,-7.08633 -0.91252,-0.75484 -2.61589,-3.39744 -3.78525,-5.87244 -1.16937,-2.475 -3.43714,-6.525 -5.03948,-9 C 333.00578,148.48867 317,121.69589 317,120.9832 c 0,-0.39242 -0.8679,-1.81684 -1.92866,-3.16538 -2.50976,-3.19064 -9.93551,-17.25987 -11.64741,-22.06782 l -1.33521,-3.75 4.26855,0 c 4.52066,0 7.95116,2.579957 10.63738,8 2.16281,4.36395 19.86487,30.56289 21.88746,32.39331 1.15708,1.04715 3.08741,1.62536 4.77946,1.43165 L 346.5,133.5 l -0.20062,-18 -0.20063,-18 -2.57484,-2.057869 c -1.41616,-1.131828 -2.26338,-2.369328 -1.88271,-2.75 1.16681,-1.166809 49.15931,-0.82393 49.88881,0.356427 0.44085,0.713312 1.11213,0.663406 2.09956,-0.156089 2.30844,-1.91584 57.71232,-1.298596 61.90222,0.689641 2.3791,1.128955 3.80531,1.240221 5.86407,0.457484 4.1026,-1.559805 73.6087,-1.312834 73.58959,0.261481 -0.0252,2.075437 -3.08281,10.132565 -4.43965,11.698925 -0.71464,0.825 -2.22531,3.62804 -3.35704,6.22897 -1.13173,2.60093 -4.0418,7.55093 -6.46681,11 -2.42502,3.44907 -5.43467,8.43957 -6.68813,11.09 -1.25345,2.65043 -3.28734,6.02543 -4.51976,7.5 -1.23241,1.47457 -3.15484,4.48103 -4.27206,6.68103 -1.11722,2.2 -4.11799,6.83316 -6.66838,10.2959 -6.03878,8.19906 -10.98264,17.69584 -10.23135,19.65367 0.69484,1.81072 4.4803,1.97731 13.04807,0.57422 15.55453,-2.54726 34.49274,4.29494 58.10966,20.99448 8.12788,5.74723 12.92364,7.70496 14.88565,6.07663 0.85031,-0.70569 1.52605,-4.89242 1.93047,-11.9607 0.34222,-5.98122 1.07029,-12.84578 1.61792,-15.25458 0.54764,-2.40879 1.6738,-8.22073 2.50258,-12.91543 3.92438,-22.22996 13.59605,-41.40271 27.15124,-53.82358 3.57294,-3.27395 7.93983,-6.67897 9.7042,-7.5667 1.76437,-0.88774 4.16468,-2.29789 5.33403,-3.13369 1.96276,-1.40288 2.36609,-1.31768 5.25,1.10897 1.71815,1.44573 3.12391,3.46181 3.12391,4.48018 0,1.01837 -2.29388,3.78581 -5.09751,6.14987 C 614.77359,122.56326 606,135.43633 606,142.38119 c 0,0.82797 -0.92511,2.15338 -2.05581,2.94534 -3.39717,2.37948 -11.23341,25.88142 -13.89516,41.67347 -0.77463,4.5958 -0.80653,12.35516 -0.10891,26.4866 0.59471,12.04665 0.62418,20.3491 0.0742,20.8991 -1.45745,1.45745 -24.91183,-10.96955 -40.61618,-21.51996 -3.79396,-2.54885 -8.92312,-5.32731 -11.39812,-6.17436 -2.475,-0.84705 -6.29453,-2.29989 -8.48785,-3.22853 -3.25069,-1.37634 -6.20833,-1.60171 -16,-1.2192 -13.47359,0.52634 -23.60674,3.19758 -31.51215,8.30703 -7.1038,4.59135 -7.45198,4.80172 -12.6111,7.6197 -2.68889,1.46871 -7.5889,4.86093 -10.8889,7.53826 -9.41988,7.64248 -10.17519,10.34908 -11.10424,39.79136 -1.21843,38.61294 -1.07979,94.68865 0.23962,96.92088 0.94878,1.60518 2.26362,1.91403 8,1.8792 l 6.86462,-0.0417 -5.95046,0.62081 c -9.13006,0.95252 -9.17164,1.08509 -10.39019,33.1208 -0.91352,24.01675 -1.76024,97.83199 -1.42237,124 0.0746,5.775 0.093,11.175 0.041,12 -0.1729,2.74373 -0.0669,47.29832 0.14426,60.64795 0.14072,8.89535 0.62719,13.72124 1.50404,14.92041 1.02067,1.39585 3.39723,1.91605 11.18486,2.44821 l 9.88881,0.67576 -10.12756,0.15383 c -6.94126,0.10544 -10.46783,0.56386 -11.20913,1.45706 -1.01726,1.22573 -1.92502,17.22321 -2.09043,36.83979 -0.0763,9.05373 -1.11712,11.05858 -4.43248,8.53831 z m -9.78366,-517.60823 c 2.07738,-1.0598 4.29786,-2.55445 4.9344,-3.32143 1.49071,-1.79619 3.66344,-24.51503 2.78985,-29.17165 -1.01432,-5.40676 -2.96052,-5.96628 -20.83099,-5.98877 -12.60014,-0.0159 -16.04635,0.27653 -17.23179,1.46198 C 397.38032,107.19111 396,115.81171 396,127.02571 c 0,8.04216 0.3285,10.1584 1.87291,12.06567 2.82769,3.49204 7.6165,4.74861 18.41693,4.83254 7.79897,0.0606 10.55794,-0.31578 13.5669,-1.85083 z m 44.10428,-2.0532 c 3.49007,-1.7805 3.9904,-2.51076 4.63021,-6.75805 0.39453,-2.61901 0.76041,-9.32248 0.81305,-14.8966 0.13817,-14.62891 0.17022,-14.603 -17.54671,-14.18699 -18.30919,0.42992 -18.13328,0.27537 -19.70041,17.30914 -1.30215,14.15361 -0.8166,16.49156 4.06791,19.58728 2.94845,1.86867 4.29917,2.01905 13.549,1.5085 7.42607,-0.40988 11.35873,-1.12043 14.18695,-2.56328 z M 494.40864,138.75 c 2.55491,-2.28102 18.60288,-26.93193 22.47833,-34.52843 2.27483,-4.459056 2.70185,-7.739622 1.1336,-8.708857 -0.53869,-0.332927 -2.67619,-0.166176 -4.75,0.370558 -3.85278,0.997157 -12.00555,2.61144 -18.27057,3.61765 -5.67447,0.911359 -7.26091,2.776379 -8.2877,9.742999 -0.50714,3.44085 -1.04178,8.05608 -1.18809,10.25608 -0.14632,2.2 -0.59917,7.18031 -1.00633,11.06736 -0.62296,5.94713 -0.4736,7.33407 0.94234,8.75 2.33201,2.33201 5.95844,2.10209 8.94842,-0.56736 z M 385.4323,138.59274 c 3.87293,-1.61822 4.35982,-3.07672 5.03841,-15.09274 0.24848,-4.4 0.74914,-9.66307 1.11257,-11.69571 1.57203,-8.79223 -0.35501,-10.05568 -18.08328,-11.856202 -15.86285,-1.611065 -18.35114,-1.244989 -20.63845,3.036312 -1.96354,3.6753 -2.40506,14.20192 -1.02394,24.41285 0.97469,7.20615 4.57969,9.37497 19.16239,11.52835 8.43834,1.24606 10.78281,1.19199 14.4323,-0.33286 z M 688.5,600.9392 c -16.26858,-1.95799 -53.49792,-3.39518 -88.5,-3.41643 -20.625,-0.0125 -38.10291,-0.4118 -38.83981,-0.88729 -0.87928,-0.56737 -1.14334,-1.94225 -0.76823,-4 0.31437,-1.72451 0.83399,-9.21048 1.15471,-16.63548 0.32073,-7.425 0.89143,-17.1 1.26823,-21.5 l 0.6851,-8 29,0.0426 c 15.95,0.0234 41.825,0.33611 57.5,0.69488 15.675,0.35878 31.977,0.67713 36.22666,0.70744 l 7.72666,0.0551 1.9674,4.07204 c 2.15435,4.45899 3.78096,11.53406 4.52589,19.6857 0.26426,2.89176 1.03249,7.16676 1.70718,9.5 0.6747,2.33324 1.28449,7.16726 1.3551,10.74226 0.0706,3.575 0.32249,7.175 0.55974,8 0.53129,1.84746 -5.16625,2.19117 -15.56863,0.9392 z m 4.32105,-11.76798 c 0.46618,-3.18596 -4.66962,-28.29116 -6.29503,-30.77185 -1.26768,-1.93472 -2.61514,-2.15751 -16.70247,-2.76153 -8.42795,-0.36137 -31.29855,-0.88341 -50.82355,-1.1601 -19.525,-0.27669 -37.78823,-0.74547 -40.58495,-1.04174 -3.61255,-0.38269 -5.41217,-0.1444 -6.215,0.82296 -1.53004,1.84358 -3.29626,34.01005 -1.91598,34.89388 0.56075,0.35906 10.06373,0.37068 21.11773,0.0258 27.7428,-0.86552 63.84683,-0.24264 74.5982,1.28697 2.475,0.35213 7.96686,0.74577 12.20414,0.87478 4.23728,0.129 7.97825,0.50865 8.31327,0.84366 1.3494,1.3494 5.98988,-0.86853 6.30364,-3.01285 z m -563.13832,10.17817 c -0.92058,-0.92057 0.30106,-21.45059 1.39843,-23.50104 0.50536,-0.94428 0.91884,-3.48987 0.91884,-5.65688 0,-2.16701 0.71758,-5.90909 1.59462,-8.31574 0.87705,-2.40665 1.66455,-6.17573 1.75,-8.37573 l 0.15538,-4 11,-0.27551 c 6.05,-0.15153 11.9,-0.21107 13,-0.13231 1.1,0.0788 3.35,0.095 5,0.0361 1.65,-0.0589 8.85,-0.1065 16,-0.10576 7.15,7.4e-4 14.125,-0.0303 15.5,-0.0691 22.18187,-0.62478 38.09313,-0.98729 40.5,-0.92272 1.65,0.0443 5.25,-0.004 8,-0.10749 6.52954,-0.24546 11.40479,-0.21191 14.5,0.0998 1.375,0.13847 3.95298,-0.0894 5.72884,-0.50639 2.87449,-0.67495 3.33651,-0.47492 4.21008,1.82274 0.53969,1.41949 1.4319,8.78633 1.98269,16.37077 0.55079,7.58443 1.50494,17.53351 2.12035,22.10906 0.6154,4.57556 0.84982,9.02044 0.52093,9.87752 -0.51196,1.33414 -2.14195,1.4659 -11.33044,0.91588 -23.23898,-1.39108 -56.2366,-1.69247 -76.476,-0.69851 -31.61313,1.55253 -55.34895,2.16009 -56.07372,1.43531 z M 170,590.2846 c 7.74707,-0.53997 13.61568,-0.50799 15.43419,0.0841 1.96252,0.63899 4.80781,0.56837 8.59207,-0.21326 3.11184,-0.64274 6.96646,-0.95049 8.56582,-0.68388 4.87741,0.81305 52.63839,1.36511 56.90792,0.65779 l 4,-0.66266 -0.097,-7.48335 c -0.15111,-11.65403 -1.56863,-23.00616 -3.05879,-24.49633 -1.11559,-1.11558 -9.79777,-1.2736 -49.0997,-0.89362 -65.65533,0.63478 -64.8825,0.60019 -67.29416,3.01185 -2.1748,2.1748 -2.4806,3.62343 -4.1646,19.72847 -0.87194,8.33883 -0.85813,11.00349 0.06,11.5709 1.37585,0.85032 12.27368,0.62624 30.15433,-0.62002 z m 295.99895,0.77504 c -5.01731,-2.65405 -6.86667,-5.06923 -8.6312,-11.27199 l -1.55637,-5.47103 3.0897,-6.12066 c 1.69933,-3.36636 4.02836,-6.62302 5.17562,-7.23701 3.92582,-2.10103 12.08646,-1.57298 16.85752,1.0908 6.64266,3.70873 8.52538,6.86376 8.54732,14.32344 0.0159,5.3904 -0.38818,6.80956 -2.86336,10.0575 -4.92136,6.4578 -13.51483,8.38701 -20.61923,4.62895 z m 12.2407,-6.22762 c 2.35318,-1.20565 4.76035,-6.08411 4.76035,-9.6475 0,-6.2123 -8.08804,-11.63654 -13.80881,-9.26087 -1.48015,0.61467 -3.6945,2.58523 -4.92076,4.37903 -1.887,2.76033 -2.08048,3.80138 -1.25927,6.77557 2.28161,8.26332 8.27645,11.31566 15.22849,7.75377 z m -112.69797,4.4598 c -5.30157,-1.40424 -9.8442,-6.88738 -11.01189,-13.29182 -0.53128,-2.91386 -0.11987,-4.20128 2.4566,-7.68752 2.64204,-3.57497 3.88806,-4.35222 8.51796,-5.31338 5.10874,-1.06057 5.68821,-0.97056 9.99309,1.55227 5.32484,3.12056 7.50256,6.73077 7.50256,12.43769 0,7.72383 -9.49204,14.4128 -17.45832,12.30276 z M 550,476.90466 c -13.40638,-1.49662 -23.38899,-3.04387 -28.9601,-4.48866 -3.00305,-0.7788 -7.75454,-1.416 -10.55887,-1.416 -8.35287,0 -8.70809,-0.62107 -8.61626,-15.06493 0.10967,-17.252 0.81776,-34.84772 2.09467,-52.05157 2.33402,-31.44627 2.35908,-30.4953 -0.8997,-34.14396 -2.8647,-3.20744 -3.00568,-3.24526 -14.22656,-3.81664 -11.30224,-0.57553 -11.30972,-0.57758 -2.73817,-0.75 6.78717,-0.13653 8.91731,-0.54099 10.12729,-1.9229 2.324,-2.65421 3.88266,-16.31355 4.74375,-41.57204 0.51968,-15.24376 1.16978,-23.2132 1.95777,-24 1.30371,-1.30175 25.7862,-1.36871 93.07618,-0.25459 21.175,0.3506 44.89305,0.67243 52.70678,0.71519 9.47622,0.0519 14.76154,0.4834 15.87285,1.29601 1.20704,0.88261 1.93089,3.81455 2.62728,10.64184 0.52867,5.18298 1.82339,13.59875 2.87715,18.70173 1.05377,5.10298 1.92081,10.72798 1.92676,12.5 0.006,1.77202 0.68096,5.43088 1.5,8.13079 0.81905,2.69991 1.49581,6.29991 1.50392,8 0.0222,4.65702 2.13192,7.99353 5.51223,8.71761 2.59616,0.5561 2.6661,0.65183 0.55177,0.75515 -1.33169,0.0651 -3.20846,0.83071 -4.17059,1.70143 -0.96213,0.87071 -3.24756,2.38117 -5.07874,3.35657 -5.38957,2.87082 -5.93656,4.89851 -5.41147,20.06031 0.25715,7.425 0.7267,15.75 1.04346,18.5 0.31676,2.75 1.256,13.325 2.08721,23.5 0.83121,10.175 2.03193,21.32033 2.66826,24.76741 1.77194,9.59879 0.76037,11.41905 -7.23965,13.02727 -25.40602,5.10728 -39.35279,6.22495 -75.8226,6.07628 -17.41004,-0.071 -35.02962,-0.50581 -39.15462,-0.9663 z m 48.52834,-12.00443 c 1.41381,-1.41381 1.47565,-3.76399 0.56549,-21.4938 -0.56204,-10.94854 -1.0707,-28.23143 -1.13036,-38.40643 -0.13953,-23.79761 -0.90656,-35.53991 -2.46032,-37.66481 -1.00221,-1.3706 -2.86136,-1.68963 -9.64698,-1.6554 -10.58365,0.0534 -12.42944,0.65732 -13.77103,4.50582 -0.61391,1.76107 -1.32144,15.0466 -1.63544,30.70914 -0.30438,15.18289 -0.75241,28.57296 -0.99563,29.75571 -0.24321,1.18275 0.0203,9.03908 0.58558,17.45852 1.33434,19.8737 0.77724,19.20792 15.67644,18.73495 8.56612,-0.27192 11.60086,-0.73231 12.81225,-1.9437 z m 50.27896,-0.56442 c 9.49937,-0.87515 9.63744,-1.24871 8.33906,-22.56189 C 656.5676,432.27327 655.59571,414.825 654.98662,403 c -0.65199,-12.65786 -1.61116,-22.52588 -2.33226,-23.99446 -0.92482,-1.88347 -2.72535,-2.89942 -7.35084,-4.14772 -8.15373,-2.20049 -26.3527,-3.43705 -29.08257,-1.97607 -2.84949,1.525 -3.50005,5.37721 -3.73533,22.11825 -0.18296,13.01796 -3.02011,49.43778 -3.97115,50.97658 -0.70981,1.1485 1.46052,15.28835 2.54767,16.5983 0.59571,0.71778 2.06292,1.49466 3.26048,1.7264 3.39468,0.65691 27.46744,0.68101 34.48468,0.0345 z M 558,462.69218 c 2.98839,-1.52806 3.02833,-2.96781 0.47696,-17.19218 -1.44186,-8.03864 -1.83155,-16.24678 -1.98683,-41.84922 -0.21124,-34.82665 0.12318,-33.02219 -6.35088,-34.26813 -4.27726,-0.82317 -28.9776,2.35678 -31.66864,4.07705 -1.49742,0.95724 -2.35286,3.22964 -3.26335,8.66881 -2.32048,13.86227 -4.17502,69.25881 -2.58408,77.18856 0.32104,1.60011 1.49648,3.1927 2.72101,3.68661 3.57324,1.44127 39.74455,1.17713 42.65581,-0.3115 z M 658.95,357.05206 c 1.67013,-1.05657 1.69463,-3.01149 0.24501,-19.55206 -1.35104,-15.41568 -3.7719,-26.20319 -6.16815,-27.48563 -1.85539,-0.99297 -35.4972,-1.7242 -102.52686,-2.22848 l -38,-0.28589 -1.13791,19.60143 c -0.62586,10.78079 -1.43336,20.94658 -1.79446,22.59066 -1.02519,4.66766 0.73088,5.39858 11.54237,4.80418 31.57101,-1.73571 111.12828,0.22969 135.39,3.34471 0.55,0.0706 1.6525,-0.2844 2.45,-0.78892 z M 216,474.85879 c -12.925,-0.93003 -27.325,-2.40656 -32,-3.28117 -8.95627,-1.67558 -18.3509,-4.05842 -19.98674,-5.06942 -1.01383,-0.62659 -0.85279,-3.50263 1.48425,-26.5082 0.75427,-7.425 1.87818,-20.475 2.49758,-29 0.61939,-8.525 1.54889,-17.93755 2.06554,-20.91678 1.07913,-6.22267 1.23394,-15.15201 0.30469,-17.57361 C 169.71258,370.80861 159.97785,366 157.18701,366 c -1.23503,0 -1.12128,-0.41258 0.54065,-1.9609 1.5756,-1.4679 2.25997,-3.66781 2.72206,-8.75 1.71579,-18.87079 2.85299,-28.1209 5.19898,-42.2891 1.41158,-8.525 2.99055,-15.95 3.50882,-16.5 1.15528,-1.22602 84.6164,-1.68133 86.8835,-0.47399 1.67183,0.89033 10.74027,-0.67944 12.6116,-2.1831 0.63394,-0.50939 1.39309,-2.81993 1.68701,-5.13453 2.09524,-16.49989 3.93001,-27.82811 5.23326,-32.31113 1.51028,-5.19517 2.26117,-6.06933 13.3418,-15.53208 2.56012,-2.18632 3.08531,-3.36668 3.08531,-6.93427 0,-12.42353 10.23059,-19.16417 18.23353,-12.01354 4.18869,3.74259 3.3065,4.59367 -2.02655,1.95508 -4.13281,-2.04475 -4.22372,-2.04684 -7.44544,-0.17135 -2.84123,1.654 -3.30054,2.49755 -3.56417,6.54589 -0.27828,4.27328 -0.0639,4.77067 2.66387,6.18127 1.63158,0.84372 5.48026,1.82948 8.55263,2.19057 3.70266,0.43518 5.58613,1.11231 5.58613,2.00827 0,0.74346 2.22714,3.81102 4.9492,6.81682 2.86572,3.16442 5.49681,7.27338 6.25,9.76058 1.67025,5.51551 1.54941,29.18857 -0.1595,31.24768 -0.65628,0.79076 -1.04618,2.47501 -0.86646,3.74279 0.24455,1.72509 1.08156,2.3902 3.32676,2.64353 4.67182,0.52711 5.79477,1.99426 5.1465,6.72394 -0.3121,2.277 -0.15465,5.66944 0.34989,7.53878 0.88423,3.27609 2.09951,14.93246 4.02858,38.64012 0.52776,6.48595 1.57286,12.51407 2.47055,14.25 1.48109,2.86412 1.8789,3.01591 8.28016,3.15934 6.69586,0.15004 6.68623,0.15374 -2.27568,0.8741 -9.94443,0.79933 -12.13702,1.42685 -13.42735,3.84288 -1.2323,2.30736 -0.50043,49.32993 1.08378,69.63235 1.42525,18.26549 1.57616,26.14851 0.55167,28.81829 -0.51432,1.34029 -2.02208,1.69062 -7.42672,1.7256 -3.72976,0.0241 -8.58138,0.68582 -10.78138,1.47038 -12.56941,4.48253 -61.04148,6.11183 -99.5,3.34452 z m 46.84118,-10.69997 c 1.70221,-1.70221 1.90237,-5.00441 2.65179,-43.75 0.83413,-43.12504 0.82161,-49.64139 -0.10118,-52.67581 -1.20537,-3.96367 -12.58831,-5.46933 -24.0312,-3.17869 -2.84921,0.57036 -3.1679,2.22514 -4.34892,22.58179 -0.55406,9.55014 -1.44672,22.53889 -1.98368,28.86389 -0.53696,6.325 -1.21912,18.94302 -1.5159,28.04005 -0.67822,20.78876 -0.9665,20.24504 11.15423,21.03749 15.91294,1.04039 16.23187,1.02427 18.17486,-0.91872 z m -53.66261,-2.14517 c 9.72374,-0.0105 13.01625,-0.35133 14.12747,-1.46254 2.18861,-2.18862 3.01186,-16.37884 1.65639,-28.55111 -0.64308,-5.775 -1.28087,-21.79733 -1.41731,-35.60517 -0.13644,-13.80784 -0.56646,-25.62034 -0.95561,-26.25 -1.78075,-2.88132 -34.63344,-0.0993 -40.21755,3.40574 -1.17043,0.73464 -2.40092,2.8238 -2.73443,4.64257 -1.46162,7.97085 -3.55287,33.75883 -4.07959,50.30686 -0.31512,9.9 -0.8433,20.94196 -1.17373,24.53768 -0.45647,4.96726 -0.26313,6.81792 0.80488,7.70429 1.33423,1.10731 15.04564,2.23525 19.31091,1.58857 1.1,-0.16678 7.70536,-0.30938 14.67857,-0.31689 z m 112.54872,-0.53519 c 2.07838,-1.45576 2.15624,-2.09342 1.8008,-14.75 -0.20432,-7.27565 -0.68065,-26.05346 -1.05852,-41.72846 -0.43213,-17.92612 -1.114,-29.42753 -1.83786,-31 -0.91123,-1.97951 -2.39801,-2.77156 -7.14127,-3.80436 -8.1532,-1.77529 -31.96006,-2.1039 -33.61262,-0.46397 -0.90514,0.89822 -1.27976,7.26028 -1.38374,23.5 -0.15352,23.97426 -1.62821,44.5214 -4.00699,55.82968 -2.59878,12.35419 -2.66224,12.2838 11.72337,13.00329 23.69553,1.18512 33.21218,1.02806 35.51683,-0.58618 z M 204.5,353.31736 c 10.45359,-0.56006 77.0824,-0.63985 100.22282,-0.12002 11.12255,0.24986 20.69372,0.16326 21.26927,-0.19245 0.97474,-0.60242 0.62976,-15.18969 -0.39857,-16.85356 -0.22831,-0.36943 -0.69332,-4.85836 -1.03335,-9.9754 -0.34004,-5.11704 -1.39268,-11.63746 -2.33921,-14.48982 L 320.5,306.5 l -8.76635,-0.28917 c -6.4653,-0.21327 -8.88458,0.0492 -9.21675,1 -0.24772,0.70904 -1.06363,9.34539 -1.81313,19.19188 -1.26241,16.58478 -1.53067,18.03871 -3.64403,19.75 -2.95764,2.39495 -4.57654,2.33049 -7.19347,-0.28644 -2.05569,-2.05569 -2.10266,-2.61346 -1.28434,-15.25 0.46716,-7.21395 0.80905,-15.02683 0.75976,-17.36195 -0.16618,-7.87161 2.42578,-7.47182 -44.27507,-6.82911 -45.40512,0.62487 -63.68539,1.22114 -65.14787,2.125 -2.29151,1.41624 -3.75991,8.23553 -5.41791,25.16106 -0.97677,9.97119 -1.48666,18.88329 -1.1331,19.80467 0.57407,1.496 1.89944,1.59506 12.38756,0.92585 6.45958,-0.41217 14.8947,-0.91816 18.7447,-1.12443 z m 85.02084,-62.38302 c 0.36059,-1.13612 0.54494,-4.62362 0.40966,-7.75 -0.13527,-3.12639 0.0982,-6.47184 0.51877,-7.43434 0.42059,-0.9625 0.5061,-2.42392 0.19003,-3.2476 -0.77592,-2.022 3.01913,-8.25921 5.50549,-9.04835 3.32146,-1.0542 6.80859,0.42094 8.82215,3.73198 1.58654,2.60886 1.81647,4.401 1.37579,10.72317 -0.291,4.17494 -0.57632,7.8158 -0.63404,8.0908 -0.25574,1.2185 1.51373,5 2.33965,5 1.00738,0 1.59606,-2.2154 2.39148,-9 2.26945,-19.35731 1.8036,-22.66166 -3.66489,-25.9958 -4.15852,-2.53545 -7.81812,-2.53297 -12.80014,0.009 -4.9334,2.51684 -7.38178,6.08884 -6.67545,9.73899 0.29248,1.51148 -0.10522,7.90605 -0.88378,14.21014 -0.77856,6.3041 -1.41556,11.8166 -1.41556,12.25 0,1.75376 3.90937,0.64891 4.52084,-1.27765 z m 175.69734,169.40258 c -6.19625,-3.05401 -9.85896,-10.57822 -8.74982,-17.97452 0.86468,-5.76611 7.09041,-13.0014 11.9759,-13.91792 8.37053,-1.57032 18.33563,5.00909 21.1607,13.97126 0.94165,2.98726 1.39643,6.44258 1.03664,7.87612 -0.91798,3.65752 -5.50586,8.75348 -9.31279,10.34411 -4.38018,1.83016 -12.08071,1.68722 -16.11063,-0.29905 z m 14.20741,-6.85113 c 3.07304,-3.31587 3.93031,-7.89687 2.12948,-11.37929 -2.03146,-3.92842 -3.91432,-5.21087 -8.5666,-5.83487 -3.52514,-0.47282 -4.49724,-0.15838 -7.03921,2.27699 -4.28137,4.10181 -3.95691,10.20872 0.83423,15.70138 2.44727,2.80561 9.74239,2.36462 12.6421,-0.76421 z M 466.77774,341.09914 c -5.28941,-2.4711 -7.46955,-4.7253 -9.36164,-9.67965 -1.9642,-5.1432 -1.3548,-10.6984 1.90661,-17.38022 2.81762,-5.7726 7.0885,-7.59272 15.38679,-6.55739 4.98488,0.62194 6.30862,1.26681 9.51457,4.63513 6.47944,6.80761 7.83074,17.21726 3.08188,23.74115 -2.46,3.37952 -9.84217,7.16549 -13.76784,7.06089 -1.67096,-0.0445 -4.71313,-0.86348 -6.76037,-1.81991 z m 12.72705,-7.51302 c 8.25943,-8.25943 -0.95585,-22.56776 -11.03788,-17.13823 -3.71328,1.99973 -5.46691,5.20603 -5.46691,9.99557 0,2.58211 0.80973,4.06031 3.5348,6.45295 4.49286,3.94478 9.45124,4.20846 12.96999,0.68971 z m -116.58311,4.14008 c -13.20433,-8.8984 -8.75849,-26.71878 6.66729,-26.72465 14.23676,-0.005 18.85944,21.287 5.95134,27.4123 -4.63859,2.20115 -8.65687,1.98218 -12.61863,-0.68765 z"
         style="fill:#261c21" />
    </g>
    <path
       inkscape:connector-curvature="0"
       id="path3037"
       d="m -1713.0446,169.86432 c -1.5684,0.19423 -2.9046,1.19111 -4.2298,1.98343 -1.3503,0.7615 -2.2087,2.17305 -2.376,3.70059 -0.2584,2.09097 -0.5527,4.27021 -0.061,6.34631 0.7542,1.57181 2.5865,2.15811 4.0906,2.77 3.5252,1.2571 7.3067,1.41843 10.9097,2.34392 0.8077,0.18171 1.6305,0.69241 1.7172,1.58743 0.2672,0.51727 0.642,1.20827 1.0105,1.54306 -0.6636,-1.54464 -1.3516,-3.1265 -1.3894,-4.84082 -0.2989,-3.25265 0.2729,-6.49246 0.3004,-9.73966 -0.089,-1.10213 -0.3484,-2.36455 -1.1471,-3.14413 0.076,0.72586 -0.8669,0.44927 -1.2802,0.33114 -2.4316,-0.69574 -4.55,-2.21235 -6.9983,-2.84372 -0.1804,-0.0272 -0.3636,-0.0493 -0.5462,-0.0376 z"
       style="fill:#501616;fill-opacity:1" />
    <path
       inkscape:connector-curvature="0"
       id="path3039"
       d="m -1716.595,201.67098 c -3.4569,0.11693 -6.6754,1.75292 -9.4373,3.72931 -2.0583,1.56278 -3.8879,3.90878 -3.841,6.60765 0.421,5.84487 -0.4372,11.67836 -1.0574,17.47791 -0.3851,3.48868 -0.8916,6.9749 -1.1494,10.47124 0.2965,1.01925 1.5881,0.73549 2.3461,0.4868 1.319,-0.42047 2.4471,-1.57628 2.447,-3.0224 0.3688,-4.27168 0.058,-8.57815 0.4635,-12.84588 0.2119,-1.38431 0.843,-2.7304 0.5271,-4.15678 -0.1725,-1.07573 -0.1169,-2.17995 0.3919,-3.16372 0.9996,-2.24116 2.3548,-4.46949 4.4106,-5.88203 1.2917,-0.74043 2.8863,-0.65968 4.3117,-0.45404 3.3974,0.88173 5.8219,4.10086 6.4369,7.45813 0.3576,4.39846 -0.1854,8.80811 -0.495,13.19456 -0.1216,1.54017 -0.3164,3.17594 0.4693,4.58918 0.4453,0.87496 0.821,2.00959 1.7752,2.43065 0.888,-0.12927 1.0306,-1.27704 1.2802,-1.9732 0.9259,-4.04712 1.2596,-8.20193 1.7281,-12.31996 0.3866,-4.3775 0.8613,-8.78502 0.5455,-13.18135 -0.2482,-2.55467 -1.2784,-5.20622 -3.497,-6.67246 -2.2086,-1.61878 -4.8537,-2.90086 -7.656,-2.77361 z"
       style="fill:#501616;fill-opacity:1" />
    <path
       inkscape:connector-curvature="0"
       id="path3047"
       d="m -1709.7623,214.19848 c 0,0.70899 0,1.41797 0,2.12696 1.4583,0 2.9166,0 4.3749,0 0.01,-0.10313 0.01,-0.20723 0.013,-0.31075 0.045,-1.31227 0.047,-2.62647 -0.013,-3.93828 -0.012,-0.0116 -0.046,-0.001 -0.066,-0.005 -1.4362,0 -2.8724,0 -4.3086,0 0,0.70898 0,1.41797 0,2.12695 z"
       style="fill:#501616;fill-opacity:1" />
    <path
       inkscape:connector-curvature="0"
       id="path3049"
       d="m -1716.5439,201.78259 c -3.9597,0.1107 -7.6411,2.11941 -10.5782,4.66015 -1.7316,1.59718 -2.8465,3.91102 -2.6472,6.29687 0.262,6.9346 -0.8525,13.81554 -1.5718,20.69179 -0.1884,2.20497 -0.6544,4.41344 -0.5544,6.62853 0.2942,0.84645 1.4183,0.42393 2.0703,0.3125 1.6033,-0.43188 2.6368,-2.04936 2.5032,-3.67925 0.2373,-4.40521 0.08,-8.84494 0.6765,-13.22309 0.4885,-1.74004 0.172,-3.57659 0.2969,-5.33296 1.1543,-2.65886 2.614,-5.48428 5.2187,-6.97173 1.3658,-0.52206 2.9508,-0.53412 4.3555,-0.15625 3.9681,1.34207 6.4554,5.62872 6.1641,9.73047 0.029,4.37086 -0.5239,8.7183 -0.6329,13.08203 0.036,1.63685 0.7906,3.25659 1.9141,4.42578 0.6379,0.60093 1.1502,-0.30359 1.2724,-0.85996 1.1186,-3.90167 1.3979,-7.98331 1.8824,-11.99807 0.455,-4.9611 1.0772,-9.97186 0.5444,-14.95056 -0.3176,-2.59716 -1.7576,-5.05108 -4.0439,-6.38477 -2.0252,-1.33368 -4.3817,-2.46185 -6.8701,-2.27148 z"
       style="fill:#501616;fill-opacity:1" />
    <path
       inkscape:connector-curvature="0"
       id="path3051"
       d="m -1716.6025,201.73571 c -4.0234,0.28117 -7.849,2.2138 -10.7578,4.95703 -1.4431,1.44885 -2.5308,3.40665 -2.3756,5.50768 0,4.39681 -0.1499,8.79581 -0.6996,13.16206 -0.4573,4.73671 -1.1917,9.44918 -1.5069,14.19745 -0.1768,0.78144 0.6291,1.18143 1.293,1.00391 1.6266,-0.185 3.2864,-1.44405 3.2617,-3.20313 0.3666,-5.10776 0.089,-10.27721 1,-15.33594 0.096,-1.75819 -0.2949,-3.64043 0.6807,-5.23792 1.1039,-2.27307 2.5689,-4.64471 4.9365,-5.75426 1.9831,-0.49363 4.2535,-0.29232 5.9336,0.96093 2.1525,1.42369 3.5841,3.81141 4.0742,6.31641 0.3921,5.16171 -0.3481,10.31756 -0.4765,15.47266 0.017,1.63807 0.7665,3.25748 1.8671,4.44531 0.6683,0.62656 1.2546,-0.35808 1.3553,-0.95083 1.1545,-4.26433 1.4772,-8.7003 1.9729,-13.07651 0.4066,-4.65539 0.9258,-9.36147 0.4023,-14.02735 -0.4292,-2.50724 -1.8595,-4.88793 -4.0889,-6.18569 -2.0457,-1.2717 -4.4087,-2.36846 -6.872,-2.25181 z"
       style="fill:#501616;fill-opacity:1" />
    <path
       inkscape:connector-curvature="0"
       id="path3053"
       d="m -1716.6025,201.73571 c -4.0234,0.28117 -7.849,2.2138 -10.7578,4.95703 -1.4431,1.44885 -2.5308,3.40665 -2.3756,5.50768 0,4.39681 -0.1499,8.79581 -0.6996,13.16206 -0.4573,4.73671 -1.1917,9.44918 -1.5069,14.19745 -0.1768,0.78144 0.6291,1.18143 1.293,1.00391 1.6266,-0.185 3.2864,-1.44405 3.2617,-3.20313 0.3666,-5.10776 0.089,-10.27721 1,-15.33594 0.096,-1.75819 -0.2949,-3.64043 0.6807,-5.23792 1.1039,-2.27307 2.5689,-4.64471 4.9365,-5.75426 1.9831,-0.49363 4.2535,-0.29232 5.9336,0.96093 2.1525,1.42369 3.5841,3.81141 4.0742,6.31641 0.3921,5.16171 -0.3481,10.31756 -0.4765,15.47266 0.017,1.63807 0.7665,3.25748 1.8671,4.44531 0.6683,0.62656 1.2546,-0.35808 1.3553,-0.95083 1.1545,-4.26433 1.4772,-8.7003 1.9729,-13.07651 0.4066,-4.65539 0.9258,-9.36147 0.4023,-14.02735 -0.4292,-2.50724 -1.8595,-4.88793 -4.0889,-6.18569 -2.0457,-1.2717 -4.4087,-2.36846 -6.872,-2.25181 z"
       style="fill:#501616;fill-opacity:1" />
    <path
       inkscape:connector-curvature="0"
       id="path3055"
       d="m -1716.6025,201.73571 c -4.0234,0.28117 -7.849,2.2138 -10.7578,4.95703 -1.4431,1.44885 -2.5308,3.40665 -2.3756,5.50768 0,4.39681 -0.1499,8.79581 -0.6996,13.16206 -0.4573,4.73671 -1.1917,9.44918 -1.5069,14.19745 -0.1768,0.78144 0.6291,1.18143 1.293,1.00391 1.6266,-0.185 3.2864,-1.44405 3.2617,-3.20313 0.3666,-5.10776 0.089,-10.27721 1,-15.33594 0.096,-1.75819 -0.2949,-3.64043 0.6807,-5.23792 1.1039,-2.27307 2.5689,-4.64471 4.9365,-5.75426 1.9831,-0.49363 4.2535,-0.29232 5.9336,0.96093 2.1525,1.42369 3.5841,3.81141 4.0742,6.31641 0.3921,5.16171 -0.3481,10.31756 -0.4765,15.47266 0.017,1.63807 0.7665,3.25748 1.8671,4.44531 0.6683,0.62656 1.2546,-0.35808 1.3553,-0.95083 1.1545,-4.26433 1.4772,-8.7003 1.9729,-13.07651 0.4066,-4.65539 0.9258,-9.36147 0.4023,-14.02735 -0.4292,-2.50724 -1.8595,-4.88793 -4.0889,-6.18569 -2.0457,-1.2717 -4.4087,-2.36846 -6.872,-2.25181 z"
       style="fill:#501616;fill-opacity:1" />
    <path
       inkscape:connector-curvature="0"
       id="path3057"
       d="m -1713.0361,169.94665 c -1.8968,0.39113 -3.5837,1.50421 -5.1055,2.66016 -1.6889,1.75679 -1.6522,4.40062 -1.707,6.67968 -0.013,1.31593 -0.068,2.90382 1.1758,3.73047 2.5589,1.89588 5.8359,2.33403 8.8801,2.93644 1.9461,0.4261 3.9753,0.61962 5.8425,1.32528 0.5936,0.32994 0.9877,0.8897 1.1406,1.53125 0.3319,0.55117 0.1074,-0.32312 0.024,-0.49219 -0.9818,-2.68988 -0.6253,-5.60914 -0.5833,-8.40974 0.054,-1.93494 0.4354,-3.93332 -0.042,-5.83635 -0.2155,-0.4348 -0.3065,-1.2347 -0.8086,-1.38281 -0.3719,0.5661 -1.2229,0.0512 -1.7383,-0.0508 -2.3641,-0.76138 -4.4864,-2.2405 -6.9414,-2.69922 l -0.066,0 -0.07,0.008 z"
       style="fill:#501616;fill-opacity:1" />
    <path
       inkscape:connector-curvature="0"
       id="path3059"
       d="m -1713.0361,169.94665 c -1.8968,0.39113 -3.5837,1.50421 -5.1055,2.66016 -1.6889,1.75679 -1.6522,4.40062 -1.707,6.67968 -0.013,1.31593 -0.068,2.90382 1.1758,3.73047 2.5589,1.89588 5.8359,2.33403 8.8801,2.93644 1.9461,0.4261 3.9753,0.61962 5.8425,1.32528 0.5936,0.32994 0.9877,0.8897 1.1406,1.53125 0.3319,0.55117 0.1074,-0.32312 0.024,-0.49219 -0.9818,-2.68988 -0.6253,-5.60914 -0.5833,-8.40974 0.054,-1.93494 0.4354,-3.93332 -0.042,-5.83635 -0.2155,-0.4348 -0.3065,-1.2347 -0.8086,-1.38281 -0.3719,0.5661 -1.2229,0.0512 -1.7383,-0.0508 -2.3641,-0.76138 -4.4864,-2.2405 -6.9414,-2.69922 l -0.066,0 -0.07,0.008 z"
       style="fill:#501616;fill-opacity:1" />
    <path
       inkscape:connector-curvature="0"
       id="path3061"
       d="m -1713.0361,169.94665 c -1.8968,0.39113 -3.5837,1.50421 -5.1055,2.66016 -1.6889,1.75679 -1.6522,4.40062 -1.707,6.67968 -0.013,1.31593 -0.068,2.90382 1.1758,3.73047 2.5589,1.89588 5.8359,2.33403 8.8801,2.93644 1.9461,0.4261 3.9753,0.61962 5.8425,1.32528 0.5936,0.32994 0.9877,0.8897 1.1406,1.53125 0.3319,0.55117 0.1074,-0.32312 0.024,-0.49219 -0.9818,-2.68988 -0.6253,-5.60914 -0.5833,-8.40974 0.054,-1.93494 0.4354,-3.93332 -0.042,-5.83635 -0.2155,-0.4348 -0.3065,-1.2347 -0.8086,-1.38281 -0.3719,0.5661 -1.2229,0.0512 -1.7383,-0.0508 -2.3641,-0.76138 -4.4864,-2.2405 -6.9414,-2.69922 l -0.066,0 -0.07,0.008 z"
       style="fill:#501616;fill-opacity:1" />
  </g>
</svg>
