<?xml version="1.0" encoding="UTF-8" standalone="no"?>
<!-- Created with Inkscape (http://www.inkscape.org/) -->

<svg
   xmlns:dc="http://purl.org/dc/elements/1.1/"
   xmlns:cc="http://creativecommons.org/ns#"
   xmlns:rdf="http://www.w3.org/1999/02/22-rdf-syntax-ns#"
   xmlns:svg="http://www.w3.org/2000/svg"
   xmlns="http://www.w3.org/2000/svg"
   xmlns:sodipodi="http://sodipodi.sourceforge.net/DTD/sodipodi-0.dtd"
   xmlns:inkscape="http://www.inkscape.org/namespaces/inkscape"
   width="1024"
   height="1024"
   id="svg2"
   version="1.1"
   inkscape:version="0.48.4 r9939"
   sodipodi:docname="Mr Gold Torso.svg"
   inkscape:export-filename="LEGO-Textures\Complete\LEGO Minifigures\Series 10\Mr. Gold\Mr Gold Torso.png"
   inkscape:export-xdpi="180"
   inkscape:export-ydpi="180">
  <defs
     id="defs4" />
  <sodipodi:namedview
     id="base"
     pagecolor="#ffffff"
     bordercolor="#666666"
     borderopacity="1.0"
     inkscape:pageopacity="0.0"
     inkscape:pageshadow="2"
     inkscape:zoom="0.7"
     inkscape:cx="1196.3849"
     inkscape:cy="295.05877"
     inkscape:document-units="px"
     inkscape:current-layer="layer1"
     showgrid="false"
     inkscape:window-width="1920"
     inkscape:window-height="1018"
     inkscape:window-x="-8"
     inkscape:window-y="-8"
     inkscape:window-maximized="1" />
  <metadata
     id="metadata7">
    <rdf:RDF>
      <cc:Work
         rdf:about="">
        <dc:format>image/svg+xml</dc:format>
        <dc:type
           rdf:resource="http://purl.org/dc/dcmitype/StillImage" />
        <dc:title></dc:title>
      </cc:Work>
    </rdf:RDF>
  </metadata>
  <g
     inkscape:label="Layer 1"
     inkscape:groupmode="layer"
     id="layer1"
     transform="translate(0,-28.362183)">
    <g
       id="g3224"
       transform="matrix(1.296821,0,0,1.296821,9.922091,-76.933662)">
      <path
         sodipodi:nodetypes="cccccc"
         inkscape:connector-curvature="0"
         id="path3169"
         d="m 490,322.36218 -212.5,38.92857 58.21429,52.85715 113.21428,-22.14286 50.53572,-44.46429 z"
         style="fill:#e1b234;stroke:#e1b234;stroke-width:1px;stroke-linecap:butt;stroke-linejoin:miter;stroke-opacity:1;fill-opacity:1" />
      <g
         style="fill:#000000;stroke:#000000"
         id="g3133">
        <path
           style="fill:#380d02;fill-opacity:1;stroke:#380d02;stroke-opacity:1"
           d="m 401.53125,474.53125 c -13.66835,0 -24.75,11.08165 -24.75,24.75 0,13.66835 11.08165,24.75 24.75,24.75 13.66835,0 24.75,-11.08165 24.75,-24.75 0,-13.66835 -11.08165,-24.75 -24.75,-24.75 z m 0.25,9.84375 c 7.88978,0 14.28125,6.39147 14.28125,14.28125 0,7.88978 -6.39147,14.28125 -14.28125,14.28125 -7.88979,0 -14.28125,-6.39147 -14.28125,-14.28125 0,-7.88978 6.39146,-14.28125 14.28125,-14.28125 z"
           id="path3087"
           inkscape:connector-curvature="0" />
        <path
           inkscape:connector-curvature="0"
           style="fill:#380d02;fill-opacity:1;stroke:#380d02;stroke-opacity:1"
           d="m 398.21429,570.46933 c -13.66835,0 -24.75,11.08165 -24.75,24.75 0,13.66835 11.08165,24.75 24.75,24.75 13.66835,0 24.75,-11.08165 24.75,-24.75 0,-13.66835 -11.08165,-24.75 -24.75,-24.75 z m 0.25,9.84375 c 7.88978,0 14.28125,6.39147 14.28125,14.28125 0,7.88978 -6.39147,14.28125 -14.28125,14.28125 -7.88979,0 -14.28125,-6.39147 -14.28125,-14.28125 0,-7.88978 6.39146,-14.28125 14.28125,-14.28125 z"
           id="path3087-0" />
        <path
           inkscape:connector-curvature="0"
           style="fill:#380d02;fill-opacity:1;stroke:#380d02;stroke-opacity:1"
           d="m 395.35714,667.96933 c -13.66835,0 -24.75,11.08165 -24.75,24.75 0,13.66835 11.08165,24.75 24.75,24.75 13.66835,0 24.75,-11.08165 24.75,-24.75 0,-13.66835 -11.08165,-24.75 -24.75,-24.75 z m 0.25,9.84375 c 7.88978,0 14.28125,6.39147 14.28125,14.28125 0,7.88978 -6.39147,14.28125 -14.28125,14.28125 -7.88979,0 -14.28125,-6.39147 -14.28125,-14.28125 0,-7.88978 6.39146,-14.28125 14.28125,-14.28125 z"
           id="path3087-0-9" />
      </g>
      <path
         inkscape:connector-curvature="0"
         id="path3167"
         d="M 279.28571,298.43361 475,260.57647 460,200.93361 289.64286,240.57647 z"
         style="fill:#e1b234;stroke:#e1b234;stroke-width:1px;stroke-linecap:butt;stroke-linejoin:miter;stroke-opacity:1;fill-opacity:1" />
      <g
         style="fill:#000000;stroke:#000000"
         id="g3079">
        <g
           style="fill:#000000;stroke:#000000"
           id="g3075">
          <path
             inkscape:connector-curvature="0"
             id="path2998"
             d="m 161.86012,494.15308 c -18.36207,0 -33.25,14.88792 -33.25,33.25 0,18.36208 14.88793,33.25 33.25,33.25 18.36208,0 33.25,-14.88792 33.25,-33.25 0,-18.36208 -14.88792,-33.25 -33.25,-33.25 z m 0.1875,10.125 c 12.58909,0 22.78125,10.22341 22.78125,22.8125 0,12.58909 -10.19216,22.78125 -22.78125,22.78125 -12.58909,0 -22.8125,-10.19216 -22.8125,-22.78125 0,-12.58909 10.22341,-22.8125 22.8125,-22.8125 z"
             style="fill:#380d02;stroke:#380d02;stroke-width:0.66494942000000001;stroke-opacity:1;fill-opacity:1" />
          <path
             inkscape:connector-curvature="0"
             id="path2998-1"
             d="m 219.70818,600.40395 c -18.36207,0 -33.25,14.88792 -33.25,33.25 0,18.36208 14.88793,33.25 33.25,33.25 18.36208,0 33.25,-14.88792 33.25,-33.25 0,-18.36208 -14.88792,-33.25 -33.25,-33.25 z m 0.1875,10.125 c 12.58909,0 22.78125,10.22341 22.78125,22.8125 0,12.58909 -10.19216,22.78125 -22.78125,22.78125 -12.58909,0 -22.8125,-10.19216 -22.8125,-22.78125 0,-12.58909 10.22341,-22.8125 22.8125,-22.8125 z"
             style="fill:#380d02;stroke:#380d02;stroke-width:0.66494942000000001;stroke-opacity:1;fill-opacity:1" />
        </g>
        <g
           style="fill:#000000;stroke:#000000"
           id="g3071">
          <path
             inkscape:connector-curvature="0"
             id="path2998-7"
             d="m 607.23636,504.34704 c 18.36207,0 33.25,14.88792 33.25,33.25 0,18.36208 -14.88793,33.25 -33.25,33.25 -18.36208,0 -33.25,-14.88792 -33.25,-33.25 0,-18.36208 14.88792,-33.25 33.25,-33.25 z m -0.1875,10.125 c -12.58909,0 -22.78125,10.22341 -22.78125,22.8125 0,12.58909 10.19216,22.78125 22.78125,22.78125 12.58909,0 22.8125,-10.19216 22.8125,-22.78125 0,-12.58909 -10.22341,-22.8125 -22.8125,-22.8125 z"
             style="fill:#380d02;stroke:#380d02;stroke-width:0.66494942000000001;stroke-opacity:1;fill-opacity:1" />
          <path
             inkscape:connector-curvature="0"
             id="path2998-1-4"
             d="m 549.3883,610.5979 c 18.36207,0 33.25,14.88792 33.25,33.25 0,18.36208 -14.88793,33.25 -33.25,33.25 -18.36207,0 -33.24999,-14.88792 -33.24999,-33.25 0,-18.36208 14.88792,-33.25 33.24999,-33.25 z m -0.1875,10.125 c -12.58908,0 -22.78124,10.22341 -22.78124,22.8125 0,12.58909 10.19216,22.78125 22.78124,22.78125 12.58909,0 22.8125,-10.19216 22.8125,-22.78125 0,-12.58909 -10.22341,-22.8125 -22.8125,-22.8125 z"
             style="fill:#380d02;stroke:#380d02;stroke-width:0.66494942000000001;stroke-opacity:1;fill-opacity:1" />
        </g>
      </g>
      <path
         sodipodi:nodetypes="ccssssscscsssssssssssssssssssssssssssssssscsssssssssssssssccccccccsssssssssscsccsssssssscssssscssscsssssssscsssscccssssscss"
         inkscape:connector-curvature="0"
         id="path3222"
         d="m 199.557,846.39289 c -14.76615,-8.06592 -28.05541,-18.81402 -42.27017,-28.39013 -5.86572,-5.59287 -29.70985,-15.95361 -52.98712,-23.0239 C 69.09676,784.28633 57.04179,783.09974 32.63718,787.92517 7.25344,792.94415 3.297,792.43727 3.297,784.16629 c 0,-7.0372 24.73729,-17.89929 93.73414,-41.15846 51.55376,-17.37904 113.47065,-40.79328 137.59324,-52.03165 l 43.8591,-20.43339 -2.53445,-55.09146 c -1.40746,-30.59489 -5.95656,-60.38404 -10.23076,-66.9942 -4.2329,-6.54651 -27.82803,-27.97144 -52.4335,-47.61098 C 130.71106,434.93765 64.19431,348.10205 80.8806,327.99636 c 3.95622,-4.76689 16.23855,-8.66706 27.29418,-8.66706 23.40088,0 24.79628,-3.21713 7.47806,-17.24064 -11.97181,-9.69412 -12.35555,-13.09677 -7.43926,-65.94939 3.37906,-36.32614 7.85187,-56.60809 12.84718,-58.25609 5.96911,-1.9692 6.89535,6.48003 4.18938,38.21426 -1.91068,22.40834 -4.62423,48.11425 -6.02991,57.12425 -2.41887,15.50413 -0.6505,16.9115 33.0067,26.26906 19.55941,5.43799 35.56256,11.86432 35.56256,14.28072 0,6.7051 -35.07377,17.46057 -56.93932,17.46057 -35.74402,0 -39.50872,4.07206 -26.66379,28.84032 15.60923,30.09857 149.88208,156.94317 157.6903,148.96666 1.20684,-1.23282 -7.01683,-31.70078 -18.27486,-67.70659 -46.54933,-148.87579 -72.25305,-270.78744 -57.09263,-270.78744 3.50162,0 9.60676,20.08588 13.56701,44.63529 3.96024,24.54942 8.6494,44.6353 10.42014,44.6353 1.77086,0 23.85987,-20.08588 49.08674,-44.6353 45.8255,-44.59486 45.8986,-44.63638 80.7708,-45.83575 70.1719,-2.41344 111.77135,2.00868 131.31101,13.95866 10.4716,6.4042 33.69186,28.23814 51.60048,48.51989 17.9085,20.28174 34.05147,35.3854 35.8732,33.56369 1.82172,-1.82172 6.87476,-24.40369 11.22892,-50.18218 4.35416,-25.77848 11.11134,-47.93487 15.01598,-49.23641 3.90465,-1.30155 7.09941,1.73794 7.09941,6.75443 0,27.41144 -27.71696,145.31477 -52.87912,224.93914 -34.18006,108.16103 -38.22642,124.01421 -31.65342,124.01421 2.73069,0 30.13949,-21.21174 60.90843,-47.1372 53.53116,-45.10463 106.94331,-106.12323 106.94331,-122.17323 0,-4.91489 -12.26695,-8.68991 -34.90969,-10.74309 -19.20027,-1.74102 -41.29484,-6.62076 -49.09881,-10.84385 -13.59492,-7.35676 -12.6087,-8.14679 23.54805,-18.86315 l 37.73715,-11.18482 -3.71987,-36.82379 c -2.04601,-20.25309 -5.26312,-49.86656 -7.1492,-65.8077 -2.70337,-22.84719 -1.71526,-28.41778 4.66657,-26.31014 8.87393,2.93068 15.48727,44.77785 16.43445,103.99181 0.5309,33.17024 -0.73059,37.21932 -12.802,41.10194 -11.50337,3.69991 -9.61622,5.22427 13.39063,10.81594 35.2738,8.57315 36.84652,21.68738 7.71973,64.37112 -30.42008,44.57893 -51.41109,67.39511 -96.60892,105.00915 -20.95043,17.43516 -41.84976,35.45829 -46.44287,40.05139 -4.59312,4.59311 -10.18416,8.35111 -12.42464,8.35111 -9.11561,0 -18.92015,35.85901 -22.19311,81.16812 -2.81409,38.95777 -1.70852,49.84337 5.82751,57.37945 11.01505,11.01502 103.54,47.46938 201.31837,79.31848 45.0974,14.68947 69.92858,25.73439 69.92858,31.10443 0,6.03023 -3.69314,7.05839 -13.39063,3.72782 -33.75574,-11.59327 -79.46938,0.58998 -117.53959,14.80815 -28.60725,10.75496 -52.87961,26.3218 -77.36785,41.96491 -9.55958,5.0898 -34.19541,6.05447 -44.13933,1.48784 -16.48528,-7.61564 -26.11513,-12.50493 -40.66765,-24.16346 -28.15556,-16.68374 -55.34374,-41.63938 -90.75846,-42.78948 -14.21525,0 -49.50266,14.48231 -56.53807,23.20375 -21.03253,15.56807 -67.6703,48.04609 -90.89367,48.21272 -18.95375,0 -25.29903,-6.08493 -40.17176,-14.51129 z m 109.91745,-39.39005 c 34.54417,-23.09918 62.80764,-44.0573 62.80764,-46.57354 0,-2.51625 -6.69531,-10.86491 -14.8784,-18.55257 -14.30291,-13.43681 -14.87072,-16.75787 -14.67802,-85.84446 0.16549,-59.3703 6.6196,-157.41047 13.20301,-200.56174 0.89856,-5.88927 -12.8324,-20.25233 -35.13457,-36.75198 -20.13527,-14.89653 -50.26412,-43.49218 -66.95289,-63.5459 -16.6889,-20.05371 -30.34344,-34.66053 -30.34344,-32.45959 0,2.20094 11.73759,40.50316 26.08368,85.11602 34.12292,106.11482 40.86105,140.39615 41.67835,212.04452 l 0.67877,59.51373 -77.72118,38.68391 c -119.55604,59.50629 -112.68281,50.66076 -61.37806,78.99138 22.39,13.22473 45.94769,19.5795 60.67551,38.14925 5.96579,7.58424 15.86545,13.78956 21.99946,13.78956 6.13389,0 39.41598,-18.89936 73.96014,-41.99859 z m 288.23548,5.10783 c 24.15111,-15.71586 35.78977,-19.91095 49.6964,-27.37938 16.09992,-8.64631 -5.38613,-15.95995 -74.26544,-48.35635 -43.37066,-20.39876 -83.73382,-41.4847 -89.69595,-46.85763 -9.50313,-8.56395 -10.37389,-16.03105 -7.05966,-60.53614 5.70378,-76.59415 18.56492,-140.2206 45.15643,-223.39852 13.22194,-41.35831 23.16122,-77.83313 22.08723,-81.05519 -1.07411,-3.22205 -24.31719,17.05425 -51.65135,45.05844 -27.33427,28.0042 -50.71209,50.91672 -51.95074,50.91672 -2.08233,0 -59.65204,39.46323 -68.82277,47.17699 -2.22948,1.87533 -7.22539,57.75858 -11.10199,124.185 -6.70951,114.9712 -6.51468,121.38065 4.05369,133.37125 17.15828,19.46718 176.98047,123.00368 183.69176,118.99971 3.27331,-1.95276 25.7114,-16.409 49.86239,-32.1249 z M 406.8834,424.29499 c 10.48272,-7.73395 34.17651,-28.3587 52.6527,-45.83275 l 33.5932,-31.77101 -6.93497,-24.09586 c -3.81427,-13.25273 -11.10141,-46.85988 -16.1936,-74.68254 -5.0922,-27.82267 -11.40956,-52.78616 -14.03864,-55.47442 -2.62908,-2.68825 -34.68825,-5.81211 -71.2427,-6.94187 -61.33973,-1.8958 -67.36231,-1.08851 -78.13391,10.47348 -7.77332,8.34366 -11.67122,20.92002 -11.67122,37.65634 0,13.82082 -5.32169,42.10558 -11.82596,62.85505 -6.50426,20.74948 -11.86049,42.56952 -11.90272,48.48898 -0.11972,16.78017 90.30469,93.27956 110.35514,93.36088 3.45571,0.0143 14.85983,-6.30231 25.34268,-14.03628 z M 273.95448,260.4074 c 3.89199,-17.72046 3.28053,-18.94417 -6.72134,-13.45 -6.05155,3.32425 -19.59904,12.47022 -30.10554,20.32436 l -19.1028,14.28028 15.67464,23.06735 15.67465,23.06735 10.14937,-23.89763 c 5.58217,-13.14371 12.07615,-32.66998 14.43102,-43.39171 z m 270.91738,26.08477 c 0,-6.28403 -48.11732,-44.53072 -56.02314,-44.53072 -6.595,0 -3.46979,16.84926 9.3283,50.29282 l 12.81891,33.49784 16.93802,-16.22759 c 9.31588,-8.92519 16.93791,-19.28974 16.93791,-23.03235 z"
         style="fill:#380d02;fill-opacity:1;stroke:#380d02;stroke-opacity:1" />
    </g>
  </g>
</svg>
