<?xml version="1.0" encoding="UTF-8" standalone="no"?>
<!-- Created with Inkscape (http://www.inkscape.org/) -->

<svg
   xmlns:dc="http://purl.org/dc/elements/1.1/"
   xmlns:cc="http://creativecommons.org/ns#"
   xmlns:rdf="http://www.w3.org/1999/02/22-rdf-syntax-ns#"
   xmlns:svg="http://www.w3.org/2000/svg"
   xmlns="http://www.w3.org/2000/svg"
   xmlns:sodipodi="http://sodipodi.sourceforge.net/DTD/sodipodi-0.dtd"
   xmlns:inkscape="http://www.inkscape.org/namespaces/inkscape"
   width="1024"
   height="1024"
   id="svg2"
   version="1.1"
   inkscape:version="0.48.4 r9939"
   sodipodi:docname="Mr Gold Face.svg"
   inkscape:export-filename="C:\Users\Benjamin\Documents\GitHub\LEGO-Textures\Complete\LEGO Minifigures\Series 10\Mr. Gold\Mr Gold Face.png"
   inkscape:export-xdpi="180"
   inkscape:export-ydpi="180">
  <defs
     id="defs4" />
  <sodipodi:namedview
     id="base"
     pagecolor="#ffffff"
     bordercolor="#666666"
     borderopacity="1.0"
     inkscape:pageopacity="0.0"
     inkscape:pageshadow="2"
     inkscape:zoom="1.0300893"
     inkscape:cx="757.01018"
     inkscape:cy="210.78212"
     inkscape:document-units="px"
     inkscape:current-layer="layer1"
     showgrid="false"
     inkscape:window-width="1920"
     inkscape:window-height="1018"
     inkscape:window-x="-8"
     inkscape:window-y="-8"
     inkscape:window-maximized="1" />
  <metadata
     id="metadata7">
    <rdf:RDF>
      <cc:Work
         rdf:about="">
        <dc:format>image/svg+xml</dc:format>
        <dc:type
           rdf:resource="http://purl.org/dc/dcmitype/StillImage" />
        <dc:title></dc:title>
      </cc:Work>
    </rdf:RDF>
  </metadata>
  <g
     inkscape:label="Layer 1"
     inkscape:groupmode="layer"
     id="layer1"
     transform="translate(0,-28.362183)">
    <g
       id="g3296"
       transform="matrix(2.4091866,0,0,2.4091866,-102.5175,-591.12519)">
      <g
         id="g3357"
         transform="translate(6.758662,-283.18794)">
        <g
           id="g3200"
           transform="translate(-116.60994,8.1244628)">
          <g
             transform="translate(-6.758662,283.18794)"
             id="g3187">
            <path
               style="fill:#b38b1c;fill-opacity:1;stroke:#b38b1c;stroke-width:1px;stroke-linecap:butt;stroke-linejoin:miter;stroke-opacity:1"
               d="m 254.46363,484.46561 51.70376,-38.69335 -16.05182,-3.54829 -18.24839,5.57589 -13.85526,14.02423 -6.42073,16.55872 z"
               id="path3386"
               inkscape:connector-curvature="0" />
            <g
               id="g3184">
              <path
                 inkscape:connector-curvature="0"
                 id="path3388"
                 d="m 256.66019,496.1243 60.82796,-42.91751 8.27936,7.94143 -62.68659,45.78994 z"
                 style="fill:#b38b1c;fill-opacity:1;stroke:#b38b1c;stroke-width:1px;stroke-linecap:butt;stroke-linejoin:miter;stroke-opacity:1" />
            </g>
            <path
               style="fill:#b38b1c;fill-opacity:1;stroke:#b38b1c;stroke-width:1px;stroke-linecap:butt;stroke-linejoin:miter;stroke-opacity:1"
               d="m 273.21891,516.73822 57.78656,-40.72094 1.18277,7.94143 -53.73136,36.49677 z"
               id="path3390"
               inkscape:connector-curvature="0" />
            <path
               style="fill:#b38b1c;fill-opacity:1;stroke:#b38b1c;stroke-width:1px;stroke-linecap:butt;stroke-linejoin:miter;stroke-opacity:1"
               d="m 331.17444,490.88633 -38.69334,29.23122 19.93805,0.5069 13.01043,-13.34836 7.26556,-13.34836 z"
               id="path3392"
               inkscape:connector-curvature="0" />
          </g>
          <g
             id="g3329">
            <g
               id="g3248"
               transform="translate(-4.7790958,285.31202)">
              <g
                 id="g3090">
                <path
                   style="fill:#380d02;fill-opacity:1"
                   d="m 339.40134,637.46944 c -2.5916,-0.49917 -4.712,-2.02002 -4.712,-3.3797 0,-1.78229 8.1813,-2.47213 29.31915,-2.47213 20.15138,0 29.31914,0.72955 29.31914,2.33314 0,4.10453 -38.00848,6.5846 -53.92629,3.51869 z M 298.3964,609.85661 c -14.97862,-6.0774 -19.90792,-21.85472 -18.63618,-35.7675 0.6743,-7.01762 0.22417,-10.53381 -1.34851,-10.53381 -3.09947,0 -3.02483,-4.78082 0.12381,-7.92946 1.91648,-1.91647 3.32923,-1.71999 6.17954,0.85951 3.27504,2.96387 12.35939,3.25782 79.9195,2.5859 56.79123,-0.56481 76.90584,1.32523 79.24633,-0.6172 2.56674,-2.13023 2.26009,-3.4232 6.89312,-0.72692 2.54189,1.47931 0.96654,5.40568 -0.5048,7.26826 -1.15445,1.46139 -0.36594,8.44702 -1.02233,16.69184 -2.36886,29.75531 -3.27968,30.08827 -81.64455,29.84637 -33.65176,-0.10387 -64.61613,-0.23897 -69.20593,-1.67699 z m 135.77134,-6.89333 c 4.96472,-2.26208 8.91631,-9.19765 6.57461,-11.53935 -0.62418,-0.62418 -5.42222,-1.61812 -10.66232,-2.20876 -5.24011,-0.59063 -9.52747,-1.82564 -9.52747,-2.74444 0,-0.9188 5.18321,-1.13559 11.51824,-0.48175 l 11.51823,1.18878 -0.032,-9.19346 c -0.0519,-14.8714 -0.76527,-15.2613 -24.88362,-13.60019 -11.62678,0.80077 -46.17031,1.43501 -76.76342,1.4094 l -55.62383,-0.0465 0.64158,8.85176 c 0.63949,8.82274 0.67119,8.85388 9.67428,9.50217 10.79364,0.77725 10.93707,5.0803 0.22486,6.74638 -4.87435,0.75811 -6.94198,2.09648 -6.47064,4.18845 1.89644,8.41702 11.59325,9.58772 82.59574,9.97184 37.57048,0.20335 57.76303,-0.47106 61.21582,-2.04426 z m 35.55239,-9.07546 c -1.882,-3.51656 -3.45736,-24.80764 -2.47592,-43.90337 0.41968,-8.16517 0.25746,-8.36748 -7.94849,-9.914 -11.59579,-2.18538 -173.26553,-4.02836 -187.43313,-2.13667 l -11.51824,1.53794 -0.58637,25.44996 c -0.43631,18.9364 -0.6625,25.45986 -3.5769,27.93187 -2.6256,2.22705 -11.97262,2.61112 -26.63855,2.82208 -18.85226,0.27118 -24.97773,-0.38781 -30.2048,-3.24951 -8.87379,-4.85818 -16.90264,-14.79733 -19.56805,-24.22384 -1.64495,-5.81758 -14.71257,-149.50291 -14.71257,-161.77249 0,-1.11957 0.83752,-2.03558 1.86116,-2.03558 2.9035,0 3.97318,8.95807 9.62771,80.62766 2.90802,36.85836 6.32799,72.13861 7.59993,78.40056 4.65804,22.93222 22.9634,30.98627 59.15235,26.02604 l 9.7163,-1.33178 0,-23.56692 c 0,-30.87126 0.58565,-31.61534 26.17781,-33.25948 10.36642,-0.66598 25.44484,-1.37052 33.5076,-1.56564 36.29567,0.17601 68.01942,0.43318 99.09274,0.48683 24.70404,-0.0727 57.5043,3.91296 61.11547,7.42628 2.45387,2.38738 3.14134,8.65143 3.14134,28.62291 l 1.0138,24.97529 25.16401,-0.18687 c 26.52253,-0.19696 33.56119,-2.54995 40.02223,-10.00202 7.70506,-8.88689 8.00996,-11.32999 15.40196,-123.38623 3.023,-45.82619 4.0791,-53.26663 7.5613,-53.26663 2.0624,0 1.1931,25.58634 -3.3086,97.38146 -3.3706,53.75605 -4.3465,63.22708 -7.5955,73.71676 -2.723,8.7912 -14.24144,18.71215 -25.12919,21.64392 -10.11004,2.72234 -45.92073,1.02234 -52.61933,0.98667 -2.69925,-0.38135 -4.64835,-0.05 -6.84007,-4.2352 z M 415.1285,519.27158 c -0.87788,-1.42044 0.47922,-4.09051 3.19807,-6.29209 l 4.72308,-3.82453 c 16.63883,-7.15828 23.00982,-4.50346 33.46368,-3.82384 6.31367,0.36902 11.18982,1.72467 11.69275,3.25078 0.63614,1.93031 -3.06316,2.61778 -14.0863,2.61778 -13.32742,0 -24.63428,3.04525 -36.04029,9.70665 -0.78429,0.45804 -2.11224,-0.2776 -2.95099,-1.63475 z M 261.24996,439.10576 c -5.10538,0.79981 -13.09624,2.34569 -17.65941,1.69579 -4.58684,-0.65327 -7.01801,-4.99559 -9.03847,-9.66651 -2.72245,-13.02305 22.35439,-20.80144 31.02783,-22.99262 14.10715,-1.99719 11.77264,-1.73944 57.34576,2.12536 22.91382,1.9432 26.42324,4.0883 26.42324,16.15101 0,8.324 -7.26742,15.41491 -17.50061,17.07553 -33.43728,2.60353 -44.82235,-8.42663 -70.59834,-4.38856 z m 75.98752,-3.63444 c 10.28663,-3.99284 9.42309,-16.62996 -1.32064,-19.32647 -18.58215,-4.54608 -35.75934,-3.56793 -51.36486,-4.1169 -18.47788,-0.948 -23.32769,0.22752 -30.52084,3.59368 -22.27872,10.42572 -17.88201,22.1457 -0.79462,20.05138 19.01304,-2.33034 31.46354,-1.18437 38.09456,-0.24131 12.00754,1.70771 34.39563,4.50761 45.9064,0.0396 z m 134.0585,14.20436 c -11.33066,-9.32556 -13.4648,-10.08592 -28.37505,-11.93504 -13.93357,-1.728 -31.91192,-0.15454 -36.28116,2.09405 -3.86475,2.50288 -11.05357,1.67038 -13.67011,-0.32217 -3.65807,-2.78568 -8.66937,-7.20923 -0.58924,-18.5567 7.3332,-10.29855 19.42113,-15.23747 33.5917,-15.2241 19.60404,1.00906 24.72729,3.24623 35.21325,8.31061 7.90129,4.50676 10.83737,7.97521 15.39549,12.67535 4.55813,4.70014 9.73048,11.6394 11.48428,14.87482 3.79077,6.99319 4.39394,14.62031 1.77819,15.80177 -4.62995,2.09122 -13.32614,-3.42135 -18.54735,-7.71859 z m 16.26395,2.36215 c -1.57222,-18.23654 -27.23595,-33.03443 -35.98844,-37.30872 -8.22196,-2.88446 -23.68937,-4.14115 -35.44903,-1.66931 -10.3611,2.17787 -22.79483,12.20837 -22.79483,18.38898 0,6.68132 4.84203,7.69333 11.70286,4.14546 3.46498,-1.79182 12.50167,-2.80279 20.80431,-3.38244 20.23731,-1.41288 35.17387,2.99331 47.29443,13.95158 9.39469,8.49378 14.44468,10.54953 14.4307,5.87445 z"
                   id="path3009"
                   inkscape:connector-curvature="0"
                   sodipodi:nodetypes="sssssccsssssssssccsssscssscssssscccssscsssssssssscssccsscsssssssccssccsssscsccsscccccsssccsscssccssssccsssssc" />
              </g>
              <g
                 id="g3229">
                <g
                   id="g3081">
                  <g
                     id="g3077">
                    <path
                       style="fill:#380d02;fill-opacity:1;stroke:#380d02;stroke-width:2.4091866;stroke-opacity:1"
                       d="M 646.3125 518.3125 C 615.47202 518.3125 590.5 543.31579 590.5 574.15625 C 590.5 604.99673 615.47202 630 646.3125 630 C 677.15296 630 702.15625 604.99673 702.15625 574.15625 C 702.15625 543.31579 677.15296 518.3125 646.3125 518.3125 z M 643.28125 528.875 C 658.02743 528.875 670 540.84757 670 555.59375 C 670 570.33993 658.02743 582.28125 643.28125 582.28125 C 628.53505 582.28125 616.59375 570.33993 616.59375 555.59375 C 616.59375 540.84757 628.53505 528.875 643.28125 528.875 z "
                       transform="matrix(0.41507785,0,0,0.41507785,157.18312,246.88695)"
                       id="path3073" />
                  </g>
                  <g
                     id="g3068">
                    <path
                       style="fill:#380d02;fill-opacity:1;stroke:#000000;stroke-width:0.25253814000000002;stroke-opacity:1"
                       d="m 290.37388,437.72539 c -15.99193,0.0925 -31.17667,10.19793 -37.95965,24.57512 -1.68714,3.51577 -2.62371,6.42324 -4.05711,8.77484 -1.4334,2.3516 -3.36363,4.14731 -7.03808,5.43955 -2.38904,0.84018 -8.26692,0.71207 -8.37435,4.60489 -0.17559,6.36243 3.21323,5.47202 7.22462,6.60093 5.74196,1.61594 13.00237,15.98005 15.39812,19.07991 8.5275,11.56578 3.24416,12.89601 31.13272,12.91632 32.92319,0.30556 32.55356,-3.63034 39.89717,-14.09037 5.35417,-7.53262 8.25808,-16.80516 7.7849,-26.07452 0.0377,-7.46564 -2.37558,-14.80245 -6.17497,-21.17378 -7.54266,-12.44949 -21.65564,-20.69127 -36.31814,-20.66078 -0.50511,-0.002 -1.01016,5.5e-4 -1.51523,0.008 z m 0.73394,5.36644 c 10.76437,-0.067 21.38727,4.81769 28.26747,13.04719 5.80844,6.67747 9.06125,15.40077 8.94639,24.26529 0.31694,13.52084 -7.70407,26.70509 -19.63879,32.96415 -10.75205,5.85582 -24.4448,5.90233 -35.16294,0.0765 -12.05268,-6.21678 -20.05726,-19.40825 -19.79568,-33.0248 -0.27493,-11.27301 5.29574,-22.35047 14.04745,-29.23129 6.561,-5.28754 14.91679,-8.16556 23.3361,-8.097 z"
                       id="path3045"
                       inkscape:connector-curvature="0"
                       sodipodi:nodetypes="ccssssccccccccccccccccc" />
                    <g
                       id="g3065">
                      <path
                         sodipodi:nodetypes="csssscc"
                         inkscape:connector-curvature="0"
                         id="path3063"
                         d="m 250.02101,521.22857 c 0.84483,-0.33793 19.39221,-1.1895 33.24747,-1.35847 13.85525,-0.16896 24.65359,0.39592 31.41225,2.25455 6.75866,1.85863 11.27273,-0.8056 7.20055,-3.35884 -5.57568,-3.49594 -24.33118,-3.04139 -29.06225,-2.53449 -4.73106,0.5069 -34.46871,-3.14473 -42.4926,-0.07 -4.5879,1.61065 -5.67504,5.32857 -0.30542,5.06729 z"
                         style="fill:#380d02;stroke:#380d02;stroke-width:1px;stroke-linecap:butt;stroke-linejoin:miter;stroke-opacity:1;fill-opacity:1" />
                    </g>
                  </g>
                </g>
                <g
                   id="g3219">
                  <path
                     d="m 230.35241,485.32248 c 0,2.50745 -2.03269,4.54014 -4.54014,4.54014 -2.50745,0 -4.54014,-2.03269 -4.54014,-4.54014 0,-2.50745 2.03269,-4.54014 4.54014,-4.54014 2.50745,0 4.54014,2.03269 4.54014,4.54014 z"
                     sodipodi:ry="4.5401411"
                     sodipodi:rx="4.5401411"
                     sodipodi:cy="485.32248"
                     sodipodi:cx="225.81227"
                     id="path3047"
                     style="fill:#b38b1c;fill-opacity:1;stroke:#b38b1c;stroke-opacity:1"
                     sodipodi:type="arc" />
                  <path
                     d="m 230.35241,485.32248 c 0,2.50745 -2.03269,4.54014 -4.54014,4.54014 -2.50745,0 -4.54014,-2.03269 -4.54014,-4.54014 0,-2.50745 2.03269,-4.54014 4.54014,-4.54014 2.50745,0 4.54014,2.03269 4.54014,4.54014 z"
                     sodipodi:ry="4.5401411"
                     sodipodi:rx="4.5401411"
                     sodipodi:cy="485.32248"
                     sodipodi:cx="225.81227"
                     id="path3047-1"
                     style="fill:#b38b1c;fill-opacity:1;stroke:#b38b1c;stroke-opacity:1"
                     sodipodi:type="arc"
                     transform="translate(-12.238551,5.2259216)" />
                  <path
                     d="m 230.35241,485.32248 c 0,2.50745 -2.03269,4.54014 -4.54014,4.54014 -2.50745,0 -4.54014,-2.03269 -4.54014,-4.54014 0,-2.50745 2.03269,-4.54014 4.54014,-4.54014 2.50745,0 4.54014,2.03269 4.54014,4.54014 z"
                     sodipodi:ry="4.5401411"
                     sodipodi:rx="4.5401411"
                     sodipodi:cy="485.32248"
                     sodipodi:cx="225.81227"
                     id="path3047-1-7"
                     style="fill:#b38b1c;fill-opacity:1;stroke:#b38b1c;stroke-opacity:1"
                     sodipodi:type="arc"
                     transform="translate(-23.390343,15.025982)" />
                  <path
                     d="m 230.35241,485.32248 c 0,2.50745 -2.03269,4.54014 -4.54014,4.54014 -2.50745,0 -4.54014,-2.03269 -4.54014,-4.54014 0,-2.50745 2.03269,-4.54014 4.54014,-4.54014 2.50745,0 4.54014,2.03269 4.54014,4.54014 z"
                     sodipodi:ry="4.5401411"
                     sodipodi:rx="4.5401411"
                     sodipodi:cy="485.32248"
                     sodipodi:cx="225.81227"
                     id="path3047-1-7-4"
                     style="fill:#b38b1c;fill-opacity:1;stroke:#b38b1c;stroke-opacity:1"
                     sodipodi:type="arc"
                     transform="translate(-27.614507,30.908837)" />
                  <path
                     d="m 230.35241,485.32248 c 0,2.50745 -2.03269,4.54014 -4.54014,4.54014 -2.50745,0 -4.54014,-2.03269 -4.54014,-4.54014 0,-2.50745 2.03269,-4.54014 4.54014,-4.54014 2.50745,0 4.54014,2.03269 4.54014,4.54014 z"
                     sodipodi:ry="4.5401411"
                     sodipodi:rx="4.5401411"
                     sodipodi:cy="485.32248"
                     sodipodi:cx="225.81227"
                     id="path3047-1-7-4-0"
                     style="fill:#b38b1c;fill-opacity:1;stroke:#b38b1c;stroke-opacity:1"
                     sodipodi:type="arc"
                     transform="translate(-27.614507,46.45376)" />
                  <path
                     d="m 230.35241,485.32248 c 0,2.50745 -2.03269,4.54014 -4.54014,4.54014 -2.50745,0 -4.54014,-2.03269 -4.54014,-4.54014 0,-2.50745 2.03269,-4.54014 4.54014,-4.54014 2.50745,0 4.54014,2.03269 4.54014,4.54014 z"
                     sodipodi:ry="4.5401411"
                     sodipodi:rx="4.5401411"
                     sodipodi:cy="485.32248"
                     sodipodi:cx="225.81227"
                     id="path3047-1-7-4-0-9"
                     style="fill:#b38b1c;fill-opacity:1;stroke:#b38b1c;stroke-opacity:1"
                     sodipodi:type="arc"
                     transform="translate(-24.06621,61.66075)" />
                  <path
                     d="m 230.35241,485.32248 c 0,2.50745 -2.03269,4.54014 -4.54014,4.54014 -2.50745,0 -4.54014,-2.03269 -4.54014,-4.54014 0,-2.50745 2.03269,-4.54014 4.54014,-4.54014 2.50745,0 4.54014,2.03269 4.54014,4.54014 z"
                     sodipodi:ry="4.5401411"
                     sodipodi:rx="4.5401411"
                     sodipodi:cy="485.32248"
                     sodipodi:cx="225.81227"
                     id="path3047-1-7-4-0-9-4"
                     style="fill:#b38b1c;fill-opacity:1;stroke:#b38b1c;stroke-opacity:1"
                     sodipodi:type="arc"
                     transform="translate(-17.307547,76.698772)" />
                  <path
                     d="m 230.35241,485.32248 c 0,2.50745 -2.03269,4.54014 -4.54014,4.54014 -2.50745,0 -4.54014,-2.03269 -4.54014,-4.54014 0,-2.50745 2.03269,-4.54014 4.54014,-4.54014 2.50745,0 4.54014,2.03269 4.54014,4.54014 z"
                     sodipodi:ry="4.5401411"
                     sodipodi:rx="4.5401411"
                     sodipodi:cy="485.32248"
                     sodipodi:cx="225.81227"
                     id="path3047-1-7-4-0-9-4-8"
                     style="fill:#b38b1c;fill-opacity:1;stroke:#b38b1c;stroke-opacity:1"
                     sodipodi:type="arc"
                     transform="translate(-9.8730187,90.55403)" />
                </g>
              </g>
            </g>
            <g
               id="g3323">
              <path
                 style="fill:#380d02;stroke:#380d02;stroke-width:1px;stroke-linecap:butt;stroke-linejoin:miter;stroke-opacity:1;fill-opacity:1"
                 d="m 326.29277,817.40989 c 0,0 12.42564,4.06223 30.10829,3.94275 17.68266,-0.11948 24.85131,-2.1506 27.47981,-4.65962 2.6285,-2.50903 -0.71687,-6.45178 -6.21283,-3.58432 -5.49596,2.86746 -14.39702,3.88302 -21.9241,4.12197 -7.52708,0.23896 -20.8488,-2.44929 -23.35783,-4.36093 -2.50902,-1.91164 -10.15558,-0.71686 -6.09334,4.54015 z"
                 id="path3270"
                 inkscape:connector-curvature="0"
                 sodipodi:nodetypes="csssssc" />
              <g
                 style="fill:#000000;stroke:#000000"
                 id="g3292">
                <path
                   style="fill:#380d02;stroke:#000000;stroke-width:1.01949596000000000px;stroke-linecap:butt;stroke-linejoin:miter;stroke-opacity:1;fill-opacity:1"
                   d="m 161.79587,915.16938 c 0,0 4.56833,20.51943 16.16485,22.88381 11.59651,2.36438 65.74705,0.0769 79.6821,4.8132 9.68888,3.29311 11.92811,5.86739 21.34813,7.0087 10.45443,1.26663 84.95325,1.77328 84.95325,1.77328 l 0,-5.06653 c 0,0 -66.67995,0.0845 -83.10835,-2.6177 -16.55728,-2.72334 -17.92189,-7.34647 -31.97826,-8.35977 -14.05638,-1.01331 -66.06499,-0.67553 -74.85023,-7.76867 -2.18605,-1.53304 -12.70987,-24.82101 -12.21149,-12.66632 z"
                   id="path3272"
                   inkscape:connector-curvature="0"
                   sodipodi:nodetypes="csssccsscc" />
                <path
                   style="fill:#380d02;stroke:#000000;stroke-width:1.02535343000000000px;stroke-linecap:butt;stroke-linejoin:miter;stroke-opacity:1;fill-opacity:1"
                   d="m 569.03975,915.20268 c 0,0 -4.62165,20.51642 -16.35353,22.88046 -11.73186,2.36403 -66.51445,0.0769 -80.61214,4.81249 -9.80197,3.29259 -12.06733,5.86656 -21.59731,7.00764 -10.57646,1.26649 -85.94483,1.77307 -85.94483,1.77307 l 0,-5.06578 c 0,0 67.45824,0.0839 84.0784,-2.61734 16.75054,-2.72295 18.13107,-7.34539 32.35151,-8.35855 14.22044,-1.01316 66.8361,-0.67543 75.72388,-7.76753 2.21157,-1.53281 12.85822,-24.81737 12.35402,-12.66446 z"
                   id="path3272-8"
                   inkscape:connector-curvature="0"
                   sodipodi:nodetypes="csssccsscc" />
              </g>
            </g>
          </g>
        </g>
      </g>
    </g>
  </g>
</svg>
