<?xml version="1.0" encoding="UTF-8" standalone="no"?>
<!-- Created with Inkscape (http://www.inkscape.org/) -->

<svg
   xmlns:dc="http://purl.org/dc/elements/1.1/"
   xmlns:cc="http://creativecommons.org/ns#"
   xmlns:rdf="http://www.w3.org/1999/02/22-rdf-syntax-ns#"
   xmlns:svg="http://www.w3.org/2000/svg"
   xmlns="http://www.w3.org/2000/svg"
   xmlns:sodipodi="http://sodipodi.sourceforge.net/DTD/sodipodi-0.dtd"
   xmlns:inkscape="http://www.inkscape.org/namespaces/inkscape"
   id="svg3075"
   version="1.1"
   inkscape:version="0.48.2 r9819"
   width="1920"
   height="1920"
   sodipodi:docname="Jay Torso Back.svg">
  <metadata
     id="metadata3081">
    <rdf:RDF>
      <cc:Work
         rdf:about="">
        <dc:format>image/svg+xml</dc:format>
        <dc:type
           rdf:resource="http://purl.org/dc/dcmitype/StillImage" />
        <dc:title />
      </cc:Work>
    </rdf:RDF>
  </metadata>
  <defs
     id="defs3079" />
  <sodipodi:namedview
     pagecolor="#ffffff"
     bordercolor="#666666"
     borderopacity="1"
     objecttolerance="10"
     gridtolerance="10"
     guidetolerance="10"
     inkscape:pageopacity="0"
     inkscape:pageshadow="2"
     inkscape:window-width="1600"
     inkscape:window-height="850"
     id="namedview3077"
     showgrid="false"
     inkscape:zoom="0.38450968"
     inkscape:cx="1009.3497"
     inkscape:cy="1206.1377"
     inkscape:window-x="-8"
     inkscape:window-y="-8"
     inkscape:window-maximized="1"
     inkscape:current-layer="svg3075" />
  <g
     id="g3199"
     transform="matrix(6.7251904,0,0,6.7251904,-506.63104,-518.7722)">
    <path
       style="fill:#6f8296"
       d="M 178.19819,250.27093 C 177.61421,248.74692 176.13118,244.125 174.90256,240 c -1.22863,-4.125 -2.54073,-7.95 -2.91578,-8.5 -0.37506,-0.55 -1.5324,-4.0375 -2.57187,-7.75 -2.1249,-7.58919 -3.91985,-8.63969 -4.89547,-2.86508 -0.85014,5.03194 -3.73849,8.08094 -7.8084,8.2427 -1.76607,0.0702 -4.11104,0.23581 -5.21104,0.36804 -10.92274,1.313 -24.27127,2.49248 -29.93183,2.64479 -6.74323,0.18144 -7.00851,0.0947 -9.75,-3.18919 C 110.26818,227.09462 109,225.25034 109,224.85287 c 0,-0.39747 -0.47626,-1.97532 -1.05835,-3.50634 l -1.05835,-2.78367 -4.69165,5.32104 c -3.901371,4.42474 -5.371246,5.39951 -8.726209,5.78692 -3.700775,0.42733 -4.419956,0.0913 -8.693,-4.06171 C 82.210298,223.11894 79.63835,220.19277 79.057,219.10651 77.716953,216.6026 77.677559,211 79,211 c 0.55,0 1,-1.15073 1,-2.55718 0,-2.75886 1.679683,-10.69777 2.949968,-13.94282 0.430598,-1.1 1.191254,-3.35 1.690347,-5 0.849768,-2.80933 1.446141,-3.11367 9.383563,-4.78855 4.661867,-0.9837 8.628802,-2.22924 8.815412,-2.76786 0.1866,-0.53862 1.08374,-1.72377 1.99364,-2.63366 0.9099,-0.9099 2.11609,-2.5805 2.68042,-3.71244 1.58609,-3.18137 5.38062,-4.56665 12.55299,-4.58275 3.61149,-0.008 9.01149,-0.46482 12,-1.01492 2.98851,-0.5501 9.70866,-1.1616 14.93366,-1.35889 l 9.5,-0.35871 -0.33531,-4.30039 c -0.18442,-2.36521 -0.71983,-5.31175 -1.18979,-6.54785 -0.46997,-1.23611 -1.16394,-4.98271 -1.54217,-8.32579 -0.60824,-5.37612 -0.47079,-6.1677 1.18979,-6.85192 3.20447,-1.32036 13.34753,-7.3988 13.93647,-8.35171 C 168.86646,133.40705 170.21648,133 171.55902,133 172.90156,133 174,132.55 174,132 c 0,-0.55 0.50891,-1 1.13092,-1 1.6616,0 21.70542,-9.92618 22.43828,-11.11198 0.3438,-0.55626 1.59387,-1.44915 2.77794,-1.98419 5.62637,-2.54237 20.03228,-11.87392 22.15286,-14.3497 0.55,-0.64212 3.7,-3.13877 7,-5.548096 3.3,-2.409328 6.15,-4.74632 6.33333,-5.193315 C 236.01667,92.365723 258.82384,92 286.51595,92 c 47.09315,0 50.38185,0.113174 50.85295,1.75 0.27702,0.9625 4.57765,22.45 9.55695,47.75 4.9793,25.3 9.47921,47.47176 9.99981,49.27058 0.80228,2.77212 0.62272,3.57225 -1.17812,5.25 -1.16857,1.08868 -2.57331,1.97942 -3.12165,1.97942 -0.54834,0 -1.92599,0.85716 -3.06144,1.9048 -2.39377,2.20865 -6.81904,4.86312 -14.56445,8.73638 -3.025,1.51272 -6.85,3.73337 -8.5,4.93477 -1.65,1.20141 -6.06541,3.58669 -9.81202,5.30062 -3.74661,1.71394 -8.33973,4.2815 -10.20694,5.70569 -1.86721,1.42419 -4.8768,3.36986 -6.68798,4.32371 -1.81118,0.95385 -5.8907,3.16522 -9.0656,4.91415 -3.1749,1.74893 -6.40009,3.17988 -7.16709,3.17988 -0.76701,0 -3.56937,0.95261 -6.22746,2.11692 -4.53112,1.98472 -14.79942,3.8424 -32.33291,5.84947 -4.125,0.4722 -8.625,1.11976 -10,1.43905 -1.375,0.31928 -9.7,1.26121 -18.5,2.09318 -14.54544,1.37516 -25.72988,2.7007 -34.12001,4.04378 -2.69714,0.43176 -3.26392,0.12389 -4.1818,-2.27147 z"
       id="path3209"
       inkscape:connector-curvature="0" />
    <path
       style="fill:#64778d"
       d="m 177.71531,247.7987 c -0.87648,-2.36428 -2.09204,-6.3237 -2.70123,-8.7987 -1.13843,-4.62512 -2.56153,-8.9852 -4.07992,-12.5 -0.47519,-1.1 -1.24571,-3.57431 -1.71225,-5.49847 -1.13782,-4.69273 -3.77641,-5.15025 -4.62297,-0.80161 -1.23181,6.32754 -3.38798,7.89118 -12.17204,8.82705 -27.62869,2.94361 -35.52173,3.30673 -38.39752,1.76649 -1.51965,-0.8139 -3.24909,-3.33829 -4.49308,-6.55835 -2.24632,-5.81458 -3.53098,-6.41836 -5.91495,-2.77998 -2.2407,3.41975 -5.710049,6.57621 -8.370921,7.61599 C 92.701832,230.06702 87,229.21891 87,227.84392 c 0,-0.49834 -1.779896,-2.54259 -3.955324,-4.54277 -2.175429,-2.00019 -3.723871,-4.01121 -3.440983,-4.46893 C 79.88658,218.3745 79.641476,218 79.059017,218 78.476558,218 78,216.425 78,214.5 c 0,-1.925 0.45,-3.5 1,-3.5 0.55,0 1,-1.15073 1,-2.55718 0,-2.75886 1.679683,-10.69777 2.949968,-13.94282 0.430598,-1.1 1.191254,-3.35 1.690347,-5 0.849768,-2.80933 1.446141,-3.11367 9.383563,-4.78855 4.661867,-0.9837 8.628802,-2.22924 8.815412,-2.76786 0.1866,-0.53862 1.08374,-1.72377 1.99364,-2.63366 0.9099,-0.9099 2.11609,-2.5805 2.68042,-3.71244 1.58609,-3.18137 5.38062,-4.56665 12.55299,-4.58275 3.61149,-0.008 9.01149,-0.46482 12,-1.01492 2.98851,-0.5501 9.70866,-1.1616 14.93366,-1.35889 l 9.5,-0.35871 -0.33531,-4.30039 c -0.18442,-2.36521 -0.71983,-5.31175 -1.18979,-6.54785 -0.46997,-1.23611 -1.16394,-4.98271 -1.54217,-8.32579 -0.60824,-5.37612 -0.47079,-6.1677 1.18979,-6.85192 3.20447,-1.32036 13.34753,-7.3988 13.93647,-8.35171 C 168.86646,133.40705 170.21648,133 171.55902,133 172.90156,133 174,132.55 174,132 c 0,-0.55 0.50891,-1 1.13092,-1 1.6616,0 21.70542,-9.92618 22.43828,-11.11198 0.3438,-0.55626 1.59387,-1.44915 2.77794,-1.98419 5.62637,-2.54237 20.03228,-11.87392 22.15286,-14.3497 0.55,-0.64212 3.7,-3.13877 7,-5.548096 3.3,-2.409328 6.15,-4.74632 6.33333,-5.193315 0.5691,-1.387548 11.1647,-0.973198 11.18198,0.437281 0.0122,0.993102 0.17952,0.991349 0.81429,-0.0085 0.62221,-0.980088 9.07634,-1.218427 38.21174,-1.077265 20.57701,0.0997 38.77308,0.470275 40.43571,0.823507 1.96144,0.416718 2.97689,1.217691 2.89177,2.280993 -0.10556,1.318804 0.62658,1.563366 3.75,1.252635 C 336.45701,96.189244 337,96.41383 337,98.12663 c 0,1.250632 -0.42946,1.725984 -1.15451,1.277878 -0.72104,-0.445627 -0.88282,-0.273932 -0.4309,0.457295 0.39798,0.643947 1.07437,0.954037 1.50309,0.689077 0.79738,-0.49281 1.35128,1.77701 5.11214,20.94912 4.48956,22.88688 4.70867,24.41661 3.56511,24.88941 -0.69146,0.28588 -0.63431,0.48179 0.15507,0.53164 1.34842,0.0852 1.73222,2.6426 0.5,3.33172 -0.4125,0.23069 -0.1875,0.28232 0.5,0.11472 0.69128,-0.16852 1.30704,0.68694 1.37762,1.91389 0.0702,1.22024 0.29792,3.34362 0.50606,4.71862 0.20814,1.375 0.43708,4.1875 0.50874,6.25 0.0717,2.0625 0.44231,3.75 0.82364,3.75 0.58574,0 4.03394,13.96044 4.03394,16.33186 0,0.4324 -0.5625,0.46205 -1.25,0.0659 -0.6875,-0.39615 -0.24442,0.38643 0.98461,1.73905 1.22904,1.35263 2.5219,3.89574 2.87302,5.65135 0.51872,2.59359 0.19353,3.56259 -1.73461,5.16865 -1.30516,1.08715 -2.6653,1.99161 -3.02253,2.00991 -0.35723,0.0183 -2.9847,1.60473 -5.83881,3.52541 -2.85412,1.92068 -8.29934,5.12642 -12.10049,7.12387 -3.80115,1.99745 -6.91119,3.97003 -6.91119,4.38352 0,0.41349 -3.9375,2.65598 -8.75,4.98331 -4.8125,2.32734 -9.425,4.81262 -10.25,5.52286 -0.825,0.71024 -3.12585,2.19469 -5.11299,3.29879 -7.07281,3.92977 -8.39319,4.70169 -8.88701,5.19551 -0.79276,0.79276 -7.30054,3.76936 -9.5,4.34521 -1.1,0.28799 -4.925,1.62536 -8.5,2.97192 -3.88058,1.46167 -9.92539,2.72109 -15,3.12522 -4.675,0.3723 -9.625,1.07445 -11,1.56033 -1.375,0.48588 -5.2,1.09916 -8.5,1.36285 -3.3,0.26368 -12.3,1.19059 -20,2.0598 -7.7,0.8692 -18.275,2.02814 -23.5,2.57542 -5.225,0.54728 -11.56799,1.24291 -14.09554,1.54585 l -4.59555,0.5508 -1.5936,-4.2987 z m 55.14637,-14.13203 c 0.82691,-0.99637 0.77361,-1.33334 -0.21089,-1.33334 -0.7246,0 -1.31746,0.6 -1.31746,1.33334 0,0.73333 0.0949,1.33333 0.21089,1.33333 0.11599,0 0.70885,-0.6 1.31746,-1.33333 z m 5.53874,-0.26777 c 0.28405,-0.74023 -0.2656,-0.98541 -1.49082,-0.66501 -2.65247,0.69364 -3.18842,1.83754 -0.86094,1.83754 1.046,0 2.10429,-0.52764 2.35176,-1.17253 z m 7.0925,0.61255 c 0.35034,-0.56686 -0.0511,-0.7345 -0.94098,-0.39301 -1.73242,0.66479 -2.04939,1.38156 -0.61096,1.38156 0.51754,0 1.21592,-0.44485 1.55194,-0.98855 z M 268.25,230.08333 C 269.38735,229.95696 269.1476,227 268,227 c -0.55,0 -1,0.45 -1,1 0,1.78096 -1.9977,1.05725 -2.07029,-0.75 -0.0601,-1.49644 -0.19481,-1.46022 -0.92971,0.25 -1.28303,2.98577 -1.19654,3.18756 1.25,2.91621 1.2375,-0.13725 2.5875,-0.28704 3,-0.33288 z M 207,228.5 c 0,-0.825 -0.675,-1.5 -1.5,-1.5 -0.825,0 -1.5,0.675 -1.5,1.5 0,0.825 0.675,1.5 1.5,1.5 0.825,0 1.5,-0.675 1.5,-1.5 z m 13.56498,-2.60515 c 0.48462,-0.78412 0.0909,-0.78107 -1.38861,0.0108 -1.13574,0.60783 -2.36935,1.59762 -2.74135,2.19954 -0.48462,0.78412 -0.0909,0.78107 1.38861,-0.0108 1.13574,-0.60783 2.36935,-1.59762 2.74135,-2.19954 z m -29.42827,-6.68261 c -0.72144,-0.24048 -1.78716,0.0382 -2.36826,0.61931 -0.74207,0.74207 -0.35164,0.87221 1.31171,0.43724 1.3522,-0.35361 1.8055,-0.8069 1.05655,-1.05655 z m 18.88389,-1.19951 c -1.85086,-1.14389 -2.24186,-0.75289 -1.41136,1.41136 0.48051,1.25217 0.95337,1.4133 1.76518,0.60149 0.81181,-0.81181 0.71703,-1.35103 -0.35382,-2.01285 z m 29.1669,2.30416 c -0.72188,-0.28887 -1.58438,-0.25335 -1.91667,0.0789 -0.33229,0.33229 0.25834,0.56864 1.3125,0.52522 1.16495,-0.048 1.4019,-0.28494 0.60417,-0.60416 z M 92.5,217.97709 C 93.693706,217.72176 97.694534,215 96.876144,215 c -1.625011,0 -6.874048,3.3076 -6.860831,4.32324 0.01148,0.8823 0.199151,0.88787 0.75,0.0223 0.404078,-0.63498 1.184687,-1.25076 1.734687,-1.3684 z m 121.5,-0.0361 c 0,-0.58246 -0.45,-0.7809 -1,-0.44098 -0.55,0.33992 -1,0.81648 -1,1.05902 0,0.24254 0.45,0.44098 1,0.44098 0.55,0 1,-0.47656 1,-1.05902 z m 29,-2.9096 c 0,-0.53273 -0.675,-0.70959 -1.5,-0.39301 -0.825,0.31659 -1.5,0.75246 -1.5,0.96862 0,0.21615 0.675,0.39301 1.5,0.39301 0.825,0 1.5,-0.43588 1.5,-0.96862 z m 15.88486,-0.88098 c -2.39,-1.85359 -6.25816,-2.56343 -5.27177,-0.96742 0.28881,0.4673 0.87772,0.63172 1.30869,0.36536 0.43097,-0.26635 1.63737,0.162 2.6809,0.95189 1.04353,0.78989 2.29551,1.45047 2.78218,1.46797 0.48667,0.0175 -0.18833,-0.80052 -1.5,-1.8178 z m -12.42757,-0.0813 c 0.31644,-0.512 0.19299,-1.1672 -0.27431,-1.45601 -0.46731,-0.28881 -0.84965,0.13009 -0.84965,0.9309 0,1.68617 0.31534,1.83349 1.12396,0.52511 z m 25.46376,-2.37812 c -0.0565,-0.85244 -0.22291,-0.83389 -0.58541,0.0652 -0.27855,0.69093 -0.98755,0.9589 -1.57556,0.59549 -0.63721,-0.39382 -0.77678,-0.18776 -0.34549,0.51008 0.85086,1.37672 2.62054,0.55006 2.50646,-1.17082 z M 205,211.44098 C 205,211.19844 204.55,211 204,211 c -0.55,0 -1,0.47656 -1,1.05902 0,0.58246 0.45,0.7809 1,0.44098 0.55,-0.33992 1,-0.81648 1,-1.05902 z m 4.80687,-0.96744 c -0.30789,-0.30789 -0.86705,0.24711 -1.24258,1.23333 -0.54268,1.4252 -0.42782,1.54006 0.5598,0.5598 0.68342,-0.67834 0.99067,-1.48524 0.68278,-1.79313 z M 240,211.44098 C 240,211.19844 239.55,211 239,211 c -0.55,0 -1,0.47656 -1,1.05902 0,0.58246 0.45,0.7809 1,0.44098 0.55,-0.33992 1,-0.81648 1,-1.05902 z m 3,0.059 c 0.68469,-0.825 1.01989,-1.5 0.74489,-1.5 -0.275,0 -1.0602,0.675 -1.74489,1.5 -0.68469,0.825 -1.01989,1.5 -0.74489,1.5 0.275,0 1.0602,-0.675 1.74489,-1.5 z m -140.26903,-1.19299 c -0.97297,-0.25354 -2.32297,-0.23687 -3.000002,0.0371 -0.677032,0.27393 0.119032,0.48137 1.769032,0.46099 1.65,-0.0204 2.20394,-0.2445 1.23097,-0.49804 z M 284,210 c 0,-0.55 -0.92656,-1 -2.05902,-1 -1.13246,0 -1.7809,0.45 -1.44098,1 0.33992,0.55 1.26648,1 2.05902,1 0.79254,0 1.44098,-0.45 1.44098,-1 z m 24.5,-3 c -0.33992,-0.55 -1.06803,-1 -1.61803,-1 -0.55,0 -0.72189,0.45 -0.38197,1 0.33992,0.55 1.06803,1 1.61803,1 0.55,0 0.72189,-0.45 0.38197,-1 z m 4.5,0 c 0,-0.55 -0.47656,-1 -1.05902,-1 -0.58246,0 -0.7809,0.45 -0.44098,1 0.33992,0.55 0.81648,1 1.05902,1 C 312.80156,208 313,207.55 313,207 z M 92.771496,203.43816 c -0.3352,-0.3352 -1.148481,0.44159 -1.807291,1.72619 -1.145119,2.23286 -1.118297,2.25968 0.609456,0.60946 0.99401,-0.94941 1.533036,-2.00045 1.197835,-2.33565 z M 316,204 c -1.95837,-1.2656 -3.28218,-1.2656 -2.5,0 0.33992,0.55 1.37898,0.99311 2.30902,0.98469 C 317.26629,204.97149 317.29269,204.8354 316,204 z m -8.8125,-0.68311 c -0.72188,-0.28887 -1.58438,-0.25335 -1.91667,0.0789 -0.33229,0.33229 0.25834,0.56864 1.3125,0.52522 1.16495,-0.048 1.4019,-0.28494 0.60417,-0.60416 z M 290.25,202.33772 c -0.6875,-0.27741 -1.8125,-0.27741 -2.5,0 -0.6875,0.27741 -0.125,0.50439 1.25,0.50439 1.375,0 1.9375,-0.22698 1.25,-0.50439 z m 10.48097,-0.0307 c -0.97297,-0.25354 -2.32297,-0.23687 -3,0.0371 -0.67703,0.27393 0.11903,0.48137 1.76903,0.46099 1.65,-0.0204 2.20394,-0.2445 1.23097,-0.49804 z M 127,201 c 0,-0.55 -0.45,-1 -1,-1 -0.55,0 -1,0.45 -1,1 0,0.55 0.45,1 1,1 0.55,0 1,-0.45 1,-1 z m -30,-2.28593 c 1.295744,-0.48044 1.287727,-0.56693 -0.05887,-0.63512 -0.857379,-0.0434 -2.432379,0.62087 -3.5,1.47622 -1.910069,1.53028 -1.909127,1.54044 0.05887,0.63512 1.1,-0.50602 2.675,-1.17032 3.5,-1.47622 z m 174.25,1.62365 c -0.6875,-0.27741 -1.8125,-0.27741 -2.5,0 -0.6875,0.27741 -0.125,0.50439 1.25,0.50439 1.375,0 1.9375,-0.22698 1.25,-0.50439 z m 16.48097,-0.0307 c -0.97297,-0.25354 -2.32297,-0.23687 -3,0.0371 -0.67703,0.27393 0.11903,0.48137 1.76903,0.46099 1.65,-0.0204 2.20394,-0.2445 1.23097,-0.49804 z m 32.45653,0.01 c -0.72188,-0.28887 -1.58438,-0.25335 -1.91667,0.0789 -0.33229,0.33229 0.25834,0.56864 1.3125,0.52522 1.16495,-0.048 1.4019,-0.28494 0.60417,-0.60416 z m 6,-1 c -0.72188,-0.28887 -1.58438,-0.25335 -1.91667,0.0789 -0.33229,0.33229 0.25834,0.56864 1.3125,0.52522 1.16495,-0.048 1.4019,-0.28494 0.60417,-0.60416 z m -53.9375,-0.9793 c -0.6875,-0.27741 -1.8125,-0.27741 -2.5,0 -0.6875,0.27741 -0.125,0.50439 1.25,0.50439 1.375,0 1.9375,-0.22698 1.25,-0.50439 z m -94.90792,-1.78679 c 0.37092,-0.96661 0.0755,-1.26467 -0.88726,-0.89522 -0.79383,0.30462 -1.19436,0.95671 -0.89006,1.44907 0.76643,1.24011 1.13272,1.12596 1.77732,-0.55385 z m 138.05491,-0.38426 c 0.28327,-0.45834 -0.12038,-0.83334 -0.89699,-0.83334 -0.77661,0 -1.18026,0.375 -0.89699,0.83334 C 313.88627,196.625 314.28992,197 314.5,197 c 0.21008,0 0.61373,-0.375 0.89699,-0.83333 z M 304,194.94098 c 0,-0.58246 -0.45,-0.7809 -1,-0.44098 -0.55,0.33992 -1,0.81648 -1,1.05902 0,0.24254 0.45,0.44098 1,0.44098 0.55,0 1,-0.47656 1,-1.05902 z m 3.1875,0.37591 c -0.72188,-0.28887 -1.58438,-0.25335 -1.91667,0.0789 -0.33229,0.33229 0.25834,0.56864 1.3125,0.52522 1.16495,-0.048 1.4019,-0.28494 0.60417,-0.60416 z M 280.44113,192.5318 C 277.90154,190.61095 276.41617,190.5916 278,192.5 c 0.68469,0.825 1.9508,1.5 2.81357,1.5 1.2558,0 1.18151,-0.29285 -0.37244,-1.4682 z M 285,192 c 0,-0.55 -0.45,-1 -1,-1 -0.55,0 -1,0.45 -1,1 0,0.55 0.45,1 1,1 0.55,0 1,-0.45 1,-1 z m 53.98469,-2.75 c 0.008,-0.6875 -0.37844,-1.25 -0.85969,-1.25 -0.48125,0 -0.875,1.17304 -0.875,2.60676 0,1.83967 0.25298,2.20751 0.85969,1.25 0.47283,-0.74622 0.86658,-1.91926 0.875,-2.60676 z M 302.5,186 c -0.33992,-0.55 -0.0665,-1 0.60765,-1 0.67413,0 0.95562,-0.27006 0.62555,-0.60014 -0.89821,-0.89821 -2.85547,0.59329 -2.19049,1.66924 0.31643,0.51199 0.80032,0.9309 1.07532,0.9309 0.275,0 0.22189,-0.45 -0.11803,-1 z m 24.22143,-1.70714 c -1.37665,-1.37665 -1.95052,-1.46198 -2.96429,-0.44076 -1.01138,1.01882 -0.9348,1.14374 0.39171,0.63897 0.90687,-0.34508 1.94592,-0.14674 2.30902,0.44076 0.36309,0.58749 0.95503,1.06817 1.31543,1.06817 0.3604,0 -0.11294,-0.76821 -1.05187,-1.70714 z M 351,184 c 0,-0.55 -0.47656,-1 -1.05902,-1 -0.58246,0 -0.7809,0.45 -0.44098,1 0.33992,0.55 0.81648,1 1.05902,1 0.24254,0 0.44098,-0.45 0.44098,-1 z m -9,-1 c 0,-0.55 -0.70156,-1 -1.55902,-1 -0.85746,0 -1.2809,0.45 -0.94098,1 0.33992,0.55 1.04148,1 1.55902,1 0.51754,0 0.94098,-0.45 0.94098,-1 z m 5.5,0 c 0.33992,-0.55 -0.0835,-1 -0.94098,-1 -0.85746,0 -1.55902,0.45 -1.55902,1 0,0.55 0.42344,1 0.94098,1 0.51754,0 1.2191,-0.45 1.55902,-1 z m -25.04271,-0.9309 c 0.31644,-0.512 0.19299,-1.1672 -0.27431,-1.45601 -0.46731,-0.28881 -0.84965,0.13009 -0.84965,0.9309 0,1.68617 0.31534,1.83349 1.12396,0.52511 z M 332,181.44098 C 332,181.19844 331.55,181 331,181 c -0.55,0 -1,0.47656 -1,1.05902 0,0.58246 0.45,0.7809 1,0.44098 0.55,-0.33992 1,-0.81648 1,-1.05902 z M 338,182 c 0,-0.55 -0.47656,-1 -1.05902,-1 -0.58246,0 -0.7809,0.45 -0.44098,1 0.33992,0.55 0.81648,1 1.05902,1 0.24254,0 0.44098,-0.45 0.44098,-1 z m -19,-3.55902 C 319,178.19844 318.55,178 318,178 c -0.55,0 -1,0.47656 -1,1.05902 0,0.58246 0.45,0.7809 1,0.44098 0.55,-0.33992 1,-0.81648 1,-1.05902 z m 3,-1.83399 c 0,-0.21616 -0.69837,-0.661 -1.55194,-0.98855 -0.88992,-0.34149 -1.29132,-0.17385 -0.94098,0.39301 0.58726,0.95021 2.49292,1.40545 2.49292,0.59554 z m 14,-4.16601 c 0,-0.85746 -0.45,-1.2809 -1,-0.94098 -0.55,0.33992 -1,1.04148 -1,1.55902 0,0.51754 0.45,0.94098 1,0.94098 0.55,0 1,-0.70156 1,-1.55902 z m 7.54112,0.49249 c 1.07627,-1.74144 -0.14952,-2.11024 -1.52106,-0.45764 -0.78875,0.95039 -0.86462,1.52417 -0.20152,1.52417 0.58488,0 1.36004,-0.47994 1.72258,-1.06653 z M 349,173 c 0,-0.55 -0.675,-1 -1.5,-1 -0.825,0 -1.5,0.45 -1.5,1 0,0.55 0.675,1 1.5,1 0.825,0 1.5,-0.45 1.5,-1 z m -42,-2.05902 c 0,-0.58246 -0.45,-0.7809 -1,-0.44098 -0.55,0.33992 -1,0.81648 -1,1.05902 0,0.24254 0.45,0.44098 1,0.44098 0.55,0 1,-0.47656 1,-1.05902 z m -18.25,-0.63031 c -0.9625,-0.25152 -2.5375,-0.25152 -3.5,0 -0.9625,0.25153 -0.175,0.45733 1.75,0.45733 1.925,0 2.7125,-0.2058 1.75,-0.45733 z M 284,166 c -0.825,-0.53316 -1.95,-0.96937 -2.5,-0.96937 -0.55,0 -0.325,0.43621 0.5,0.96937 0.825,0.53316 1.95,0.96937 2.5,0.96937 0.55,0 0.325,-0.43621 -0.5,-0.96937 z m 63,0 c 0,-0.55 -0.675,-1 -1.5,-1 -0.825,0 -1.5,0.45 -1.5,1 0,0.55 0.675,1 1.5,1 0.825,0 1.5,-0.45 1.5,-1 z m -178.8125,-0.68311 c -0.72188,-0.28887 -1.58438,-0.25335 -1.91667,0.0789 -0.33229,0.33229 0.25834,0.56864 1.3125,0.52522 1.16495,-0.048 1.4019,-0.28494 0.60417,-0.60416 z M 182.5,165 c -0.33992,-0.55 -1.15398,-0.99311 -1.80902,-0.98469 -0.71561,0.009 -0.59227,0.40223 0.30902,0.98469 1.92112,1.24153 2.2673,1.24153 1.5,0 z m 136.5,0 c 0,-0.55 -0.45,-1 -1,-1 -0.55,0 -1,0.45 -1,1 0,0.55 0.45,1 1,1 0.55,0 1,-0.45 1,-1 z m -148,-1 c 0,-0.55 -1.2375,-0.95514 -2.75,-0.90032 l -2.75,0.0997 L 168,164 c 1.375,0.44035 2.6125,0.8455 2.75,0.90032 C 170.8875,164.95514 171,164.55 171,164 z m 174.54194,-4 c 0.86947,0 1.19023,0.6595 0.85117,1.75 -0.49628,1.59613 -0.44941,1.60368 0.53298,0.0859 0.5924,-0.91523 0.81355,-2.35085 0.49144,-3.19026 -0.472,-1.23 -1.05454,-1.31256 -3.00159,-0.42542 -2.41477,1.10024 -3.0795,2.7772 -1.66594,4.20278 0.4125,0.41601 0.8955,0.041 1.07332,-0.83333 C 344.00115,160.71537 344.77453,160 345.54194,160 z M 319,160.44098 C 319,160.19844 318.55,160 318,160 c -0.55,0 -1,0.47656 -1,1.05902 0,0.58246 0.45,0.7809 1,0.44098 0.55,-0.33992 1,-0.81648 1,-1.05902 z M 297,158 c 0,-0.55 -0.675,-1 -1.5,-1 -0.825,0 -1.5,0.45 -1.5,1 0,0.55 0.675,1 1.5,1 0.825,0 1.5,-0.45 1.5,-1 z m 9.1875,0.31689 c -0.72188,-0.28887 -1.58438,-0.25335 -1.91667,0.0789 -0.33229,0.33229 0.25834,0.56864 1.3125,0.52522 1.16495,-0.048 1.4019,-0.28494 0.60417,-0.60416 z m -21,-1 c -0.72188,-0.28887 -1.58438,-0.25335 -1.91667,0.0789 -0.33229,0.33229 0.25834,0.56864 1.3125,0.52522 1.16495,-0.048 1.4019,-0.28494 0.60417,-0.60416 z M 331.5,157 c -0.33992,-0.55 -0.81648,-1 -1.05902,-1 -0.24254,0 -0.44098,0.45 -0.44098,1 0,0.55 0.47656,1 1.05902,1 0.58246,0 0.7809,-0.45 0.44098,-1 z m -161.25,-0.66228 c -0.6875,-0.27741 -1.8125,-0.27741 -2.5,0 -0.6875,0.27741 -0.125,0.50439 1.25,0.50439 1.375,0 1.9375,-0.22698 1.25,-0.50439 z M 181,153 c 0,-0.55 -0.47656,-1 -1.05902,-1 -0.58246,0 -0.7809,0.45 -0.44098,1 0.33992,0.55 0.81648,1 1.05902,1 0.24254,0 0.44098,-0.45 0.44098,-1 z m 91.1875,-1.68311 c -0.72188,-0.28887 -1.58438,-0.25335 -1.91667,0.0789 -0.33229,0.33229 0.25834,0.56864 1.3125,0.52522 1.16495,-0.048 1.4019,-0.28494 0.60417,-0.60416 z M 335,147.44098 C 335,147.19844 334.55,147 334,147 c -0.55,0 -1,0.47656 -1,1.05902 0,0.58246 0.45,0.7809 1,0.44098 0.55,-0.33992 1,-0.81648 1,-1.05902 z m -28.47354,-1.24785 c -0.30789,-0.30789 -1.11479,-6.4e-4 -1.79313,0.68278 -0.98026,0.98762 -0.8654,1.10248 0.5598,0.5598 0.98622,-0.37553 1.54122,-0.93469 1.23333,-1.24258 z m 8.07771,-0.9223 c -0.33229,-0.33229 -0.56864,0.25834 -0.52522,1.3125 0.048,1.16495 0.28494,1.4019 0.60416,0.60417 0.28887,-0.72188 0.25335,-1.58438 -0.0789,-1.91667 z M 169.36163,145.5 c 0.31658,-0.825 0.13972,-1.5 -0.39301,-1.5 -0.53274,0 -0.96862,0.675 -0.96862,1.5 0,0.825 0.17686,1.5 0.39301,1.5 0.21616,0 0.65203,-0.675 0.96862,-1.5 z m 160.28123,-1 c 0.825,-0.825 1.07295,-1.5 0.55101,-1.5 -0.52194,0 -1.50918,0.675 -2.19387,1.5 -0.68469,0.825 -0.93265,1.5 -0.55102,1.5 0.38163,0 1.36888,-0.675 2.19388,-1.5 z M 322,144 c 0,-0.55 -0.47656,-1 -1.05902,-1 -0.58246,0 -0.7809,0.45 -0.44098,1 0.33992,0.55 0.81648,1 1.05902,1 0.24254,0 0.44098,-0.45 0.44098,-1 z m 21.49292,-6.98855 c 0.35034,-0.56686 -0.0511,-0.7345 -0.94098,-0.39301 -1.73242,0.66479 -2.04939,1.38156 -0.61096,1.38156 0.51754,0 1.21592,-0.44485 1.55194,-0.98855 z m -58.30542,-1.69456 c -0.72188,-0.28887 -1.58438,-0.25335 -1.91667,0.0789 -0.33229,0.33229 0.25834,0.56864 1.3125,0.52522 1.16495,-0.048 1.4019,-0.28494 0.60417,-0.60416 z m -70.66104,-13.12376 c -0.30789,-0.30789 -1.11479,-6.4e-4 -1.79313,0.68278 -0.98026,0.98762 -0.8654,1.10248 0.5598,0.5598 0.98622,-0.37553 1.54122,-0.93469 1.23333,-1.24258 z M 338,121.44098 C 338,121.19844 337.55,121 337,121 c -0.55,0 -1,0.47656 -1,1.05902 0,0.58246 0.45,0.7809 1,0.44098 0.55,-0.33992 1,-0.81648 1,-1.05902 z M 309,112 c 0,-0.55 -0.45,-1 -1,-1 -0.55,0 -1,0.45 -1,1 0,0.55 0.45,1 1,1 0.55,0 1,-0.45 1,-1 z m 6,0.61663 c 0,-0.21085 -0.9,-0.61872 -2,-0.90638 -1.1,-0.28766 -2,-0.11514 -2,0.38337 0,0.49851 0.9,0.90638 2,0.90638 1.1,0 2,-0.17252 2,-0.38337 z M 294,104 c 0,-0.55 -0.42344,-1 -0.94098,-1 -0.51754,0 -1.2191,0.45 -1.55902,1 -0.33992,0.55 0.0835,1 0.94098,1 0.85746,0 1.55902,-0.45 1.55902,-1 z m 39,-2 c 0,-0.55 -0.47656,-1 -1.05902,-1 -0.58246,0 -0.7809,0.45 -0.44098,1 0.33992,0.55 0.81648,1 1.05902,1 0.24254,0 0.44098,-0.45 0.44098,-1 z m -10.8125,-7.683114 c -0.72188,-0.288871 -1.58438,-0.253344 -1.91667,0.07895 -0.33229,0.332292 0.25834,0.568641 1.3125,0.52522 1.16495,-0.04798 1.4019,-0.284941 0.60417,-0.604167 z m -28,-1 c -0.72188,-0.288871 -1.58438,-0.253344 -1.91667,0.07895 -0.33229,0.332292 0.25834,0.568641 1.3125,0.52522 1.16495,-0.04798 1.4019,-0.284941 0.60417,-0.604167 z"
       id="path3207"
       inkscape:connector-curvature="0" />
    <path
       style="fill:#585d68"
       d="m 178.45669,249.31675 c -0.43649,-1.54921 -0.8372,-3.04175 -0.89047,-3.31675 -0.0533,-0.275 -0.38707,-0.95418 -0.74178,-1.50928 -0.35471,-0.55511 -1.39751,-3.93011 -2.31733,-7.5 -0.91982,-3.5699 -2.28677,-7.84072 -3.03766,-9.49072 -0.7509,-1.65 -1.75464,-4.57431 -2.23053,-6.49847 -1.22866,-4.96777 -3.85137,-5.12675 -5.18324,-0.31418 -1.92953,6.97208 -3.3825,7.8127 -15.05568,8.71047 -4.675,0.35954 -13.58517,1.18224 -19.80038,1.82822 -10.3992,1.08084 -11.57319,1.02759 -14.72126,-0.66776 -1.88149,-1.01325 -3.18226,-2.22837 -2.8906,-2.70027 C 111.87941,227.3861 111.7135,227 111.21908,227 c -0.49443,0 -1.49301,-1.8 -2.21908,-4 -1.60059,-4.84983 -3.03438,-5.02977 -5.9761,-0.75 -3.931782,5.72016 -7.202195,7.35977 -13.7739,6.90552 -1.2375,-0.0855 -2.25,-0.6195 -2.25,-1.1866 0,-0.56709 -1.779896,-2.66759 -3.955324,-4.66777 -2.175429,-2.00019 -3.723871,-4.01121 -3.440983,-4.46893 C 79.88658,218.3745 79.641476,218 79.059017,218 78.476558,218 78,217.07344 78,215.94098 c 0,-1.13246 0.45,-1.7809 1,-1.44098 0.610977,0.3776 1,-1.16081 1,-3.95455 0,-2.51492 0.41217,-5.35398 0.915933,-6.30902 0.503763,-0.95504 1.640804,-3.40481 2.52676,-5.44395 0.885955,-2.03914 2.048785,-3.9782 2.584067,-4.30902 C 87.515809,193.56318 87.184248,192 85.5,192 c -0.825,0 -1.5,-0.58899 -1.5,-1.30887 0,-2.92702 2.842478,-4.58682 10.5,-6.13122 4.4,-0.88742 8.15268,-2.05947 8.33929,-2.60455 0.1866,-0.54509 1.08374,-1.73554 1.99364,-2.64543 0.9099,-0.9099 2.11609,-2.5805 2.68042,-3.71244 1.58609,-3.18137 5.38062,-4.56665 12.55299,-4.58275 3.61149,-0.008 9.01149,-0.46482 12,-1.01492 2.98851,-0.5501 9.70866,-1.1616 14.93366,-1.35889 l 9.5,-0.35871 -0.33531,-4.30039 c -0.18442,-2.36521 -0.71983,-5.31175 -1.18979,-6.54785 -0.46997,-1.23611 -1.16394,-4.98271 -1.54217,-8.32579 -0.60824,-5.37612 -0.47079,-6.1677 1.18979,-6.85192 3.20447,-1.32036 13.34753,-7.3988 13.93647,-8.35171 C 168.86646,133.40705 170.21648,133 171.55902,133 172.90156,133 174,132.55 174,132 c 0,-0.55 0.50891,-1 1.13092,-1 1.6616,0 21.70542,-9.92618 22.43828,-11.11198 0.3438,-0.55626 1.59387,-1.44915 2.77794,-1.98419 5.62637,-2.54237 20.03228,-11.87392 22.15286,-14.3497 0.55,-0.64212 3.7,-3.13877 7,-5.548096 3.3,-2.409328 6.15,-4.74632 6.33333,-5.193315 C 236.01667,92.365723 238.64875,92 241.68242,92 l 5.51575,0 -5.84909,4.442528 c -3.21699,2.443391 -7.5519,6.224142 -9.63314,8.401682 -2.08123,2.17753 -6.35623,5.65564 -9.5,7.72914 -3.14376,2.0735 -6.84094,4.51895 -8.21594,5.43433 -3.18907,2.12308 -8.88049,5.30878 -27.5,15.39278 -14.9319,8.08686 -16.58652,8.93297 -23.77714,12.15873 -2.92535,1.31233 -3.64368,2.11494 -3.18533,3.55905 0.32549,1.02553 0.80257,3.10597 1.06017,4.62318 0.2576,1.51722 1.60266,6.66494 2.98901,11.43938 1.38635,4.77444 2.71069,9.72444 2.94298,11 0.52242,2.86871 4.87555,17.3066 6.37782,21.15312 0.60874,1.55865 0.92751,3.13365 0.70839,3.5 -0.44032,0.73614 2.70747,13.82279 3.52039,14.63571 0.28066,0.28065 1.65581,-3.3102 3.05589,-7.97968 1.62703,-5.42638 2.14186,-8.49548 1.42671,-8.50526 -0.74081,-0.0101 -0.70645,-0.27737 0.10167,-0.79082 1.30019,-0.82611 4.58822,-9.19387 3.61264,-9.19387 -0.31795,0 -0.096,-0.5809 0.49325,-1.29089 0.58924,-0.70999 1.33891,-2.80962 1.66593,-4.66584 0.32702,-1.85623 0.82056,-3.7406 1.09675,-4.18749 0.2762,-0.44689 -0.82608,-3.85976 -2.4495,-7.58415 -1.62342,-3.7244 -3.08282,-8.79663 -3.24311,-11.27163 -0.38698,-5.97513 1.81207,-15.6742 3.71976,-16.40625 0.83077,-0.31879 1.25416,-0.99437 0.94087,-1.50128 -0.31329,-0.50691 -0.15056,-1.07258 0.36162,-1.25706 0.51218,-0.18448 1.07748,-0.99841 1.25623,-1.80874 0.17875,-0.81033 1.225,-1.97212 2.325,-2.58175 1.1,-0.60964 1.90288,-1.58799 1.78419,-2.17411 -0.12085,-0.59673 0.64926,-0.83947 1.75,-0.55162 1.08119,0.28274 1.96581,0.0691 1.96581,-0.47475 0,-0.54385 1.82978,-1.28142 4.06619,-1.63903 3.92373,-0.62743 4.92963,-1.16545 8.92215,-4.77208 1.01475,-0.91666 2.10749,-1.40416 2.42833,-1.08333 0.32083,0.32083 0.58341,0.17083 0.5835,-0.33333 1e-4,-0.50417 3.9376,-0.8934 8.75,-0.86496 9.06597,0.0536 14.53196,1.73042 18.46667,5.66513 0.98074,0.98074 2.92677,1.78316 4.32452,1.78316 3.42067,0 12.41289,4.17963 12.43831,5.78138 0.0112,0.70477 0.66692,1.52951 1.45719,1.83276 0.79027,0.30326 1.21439,1.13111 0.94249,1.83968 -0.27191,0.70857 0.094,1.91954 0.81314,2.69105 1.49379,1.6026 1.76764,2.47584 2.91612,9.29902 0.45769,2.71914 0.55486,6.04876 0.21594,7.39915 -0.46048,1.83468 -0.29382,2.256 0.65934,1.66692 0.84652,-0.52318 1.11982,-0.32108 0.81251,0.60084 -0.25469,0.76406 -0.87557,1.28526 -1.37973,1.15822 -0.50417,-0.12704 -1.27713,0.99796 -1.71769,2.5 -2.68689,9.16067 -3.44311,12.77508 -2.76668,13.2236 0.42085,0.27906 0.78623,1.18238 0.81195,2.00738 0.0807,2.58911 3.71772,15.47186 4.53962,16.07995 0.43113,0.31897 0.49548,1.33147 0.14301,2.25 -0.39193,1.02136 -0.14614,1.67005 0.6328,1.67005 0.70051,0 1.01238,0.26128 0.69304,0.58062 -0.31934,0.31934 0.29817,3.75183 1.37224,7.62775 1.07407,3.87593 1.73605,7.26395 1.47106,7.52895 -0.265,0.26499 -3.87963,-1.58106 -8.03252,-4.10234 l -7.5507,-4.58414 -1.62141,2.47458 C 250.49961,212.88644 249.45978,214 249.08064,214 c -0.37913,0 -3.26145,-2.57211 -6.40514,-5.71581 l -5.71581,-5.71581 0.62218,6.71581 0.62218,6.71581 -3.5645,0 -3.5645,0 -0.28752,9.25 c -0.16501,5.30832 -0.71366,9.25 -1.28753,9.25 -0.82075,0 -7.22239,-8.20184 -18.13445,-23.23404 -4.57441,-6.30159 -3.80712,-6.18584 -8.78363,-1.32507 l -4.54663,4.44089 -2.4233,-2.27657 c -2.69943,-2.53598 -3.0461,-2.44413 -10.97697,2.90834 -5.1469,3.47361 -7.51872,5.98645 -5.65048,5.98645 0.68627,0 0.97313,0.66794 0.64929,1.51185 -0.31909,0.83152 -0.17323,2.51902 0.32413,3.75 0.49735,1.23098 1.86204,5.54613 3.03264,9.58923 1.93491,6.68291 2.32747,7.29613 4.31888,6.74658 1.20479,-0.33248 6.24052,-1.06331 11.19052,-1.62407 4.95,-0.56076 11.925,-1.45935 15.5,-1.99686 10.22764,-1.53774 11.23917,-1.65421 15.80902,-1.82021 2.84878,-0.10348 4.07868,-0.52921 3.62932,-1.25629 -0.49008,-0.79296 -0.12476,-0.80277 1.3095,-0.0352 1.09406,0.58552 2.16836,0.88542 2.38733,0.66644 0.21898,-0.21897 3.76565,-0.67535 7.88149,-1.01417 4.11583,-0.33881 8.38334,-0.79127 9.48334,-1.00547 1.1,-0.21419 4.7,-0.68959 8,-1.05644 6.36592,-0.70768 22.69041,-7.96597 24.99038,-11.11136 0.66341,-0.90728 1.72448,-1.32929 2.35792,-0.93781 0.63343,0.39149 1.1517,0.23524 1.1517,-0.34722 0,-0.58246 0.4497,-1.05902 0.99934,-1.05902 1.68266,0 19.40506,-9.03856 20.2125,-10.30853 0.41665,-0.65531 0.76443,-0.87837 0.77285,-0.49568 0.008,0.38268 3.15283,-0.85482 6.98758,-2.75 3.83475,-1.89519 7.43475,-3.44579 8,-3.44579 0.56525,0 1.02773,-0.45 1.02773,-1 0,-0.55 0.9,-1 2,-1 1.1,0 2,-0.47656 2,-1.05902 0,-0.58246 0.41372,-0.80332 0.91938,-0.49081 0.50566,0.31252 1.61459,-0.127 2.46429,-0.97669 0.84969,-0.8497 1.67347,-1.49979 1.83062,-1.44465 1.01637,0.35667 3.67258,-1.40286 3.22095,-2.13361 -0.3043,-0.49235 0.37328,-0.8952 1.50574,-0.8952 1.13246,0 2.05902,-0.40598 2.05902,-0.90217 0,-0.4962 1.38375,-1.38456 3.07501,-1.97413 1.96351,-0.68449 2.81131,-1.49862 2.34549,-2.25234 -0.46721,-0.75596 -0.29865,-0.91409 0.4688,-0.43978 0.65907,0.40733 1.86447,0.18773 2.67867,-0.48799 1.85337,-1.53816 2.10933,-1.26542 2.86832,3.05641 0.61255,3.48794 0.58442,3.51927 -8.16081,9.09119 -4.82651,3.07516 -11.58798,7.07535 -15.02548,8.88933 -3.4375,1.81397 -6.25,3.62948 -6.25,4.03447 0,0.40498 -3.9375,2.64052 -8.75,4.96785 -4.8125,2.32734 -9.425,4.81262 -10.25,5.52286 -0.825,0.71024 -3.12585,2.19469 -5.11299,3.29879 -7.07281,3.92977 -8.39319,4.70169 -8.88701,5.19551 -1.65236,1.65236 -21.56611,8.96102 -26,9.54241 -1.375,0.1803 -5.2,0.60248 -8.5,0.9382 -3.3,0.33571 -8.025,1.01566 -10.5,1.51101 -2.475,0.49534 -7.2,1.18818 -10.5,1.53965 -3.3,0.35147 -7.35,0.78291 -9,0.95876 -1.65,0.17585 -6.5802,0.61826 -10.956,0.98314 -4.37579,0.36488 -8.24655,0.84299 -8.60167,1.06247 -0.35512,0.21948 -5.77492,0.86317 -12.044,1.43042 -6.26908,0.56725 -13.02951,1.28699 -15.02317,1.59941 -3.32186,0.52056 -3.69117,0.3326 -4.41847,-2.24872 z M 96.597574,219.5 c 1.314419,-2.2 2.897535,-4.97436 3.518036,-6.16525 0.6205,-1.19088 1.97333,-2.38625 3.00629,-2.65638 C 104.5276,210.31077 105,209.26709 105,206.529 105,202.68765 101.35641,193 99.911652,193 c -1.723922,0 -8.075037,6.42266 -10.583057,10.70227 -2.206932,3.76584 -2.512459,5.22732 -2.043229,9.77372 0.607875,5.88974 3.196077,10.77853 5.46328,10.31945 0.802493,-0.16249 2.53451,-2.09544 3.848928,-4.29544 z m 46.972496,-7.52664 c 1.9815,-0.75337 2.10873,-1.23815 1.35217,-5.15249 -0.45933,-2.37648 -0.85474,-4.60212 -0.87869,-4.94587 -0.024,-0.34375 -1.39355,-0.895 -3.04355,-1.225 -2.37561,-0.47512 -3,-1.12156 -3,-3.10595 0,-1.83902 0.66534,-2.67294 2.5,-3.13341 2.19637,-0.55125 2.5,-1.16589 2.5,-5.06075 l 0,-4.43329 -7.75,0.60189 c -11.1944,0.86939 -12.55422,1.24635 -11.77944,3.26538 0.35882,0.93507 0.91379,6.89885 1.23326,13.25283 l 0.58087,11.55271 8.04903,-0.39222 c 4.42697,-0.21572 9.03333,-0.76644 10.23635,-1.22383 z M 294.61039,193.02048 C 297.98847,191.6555 304,190.93097 304,191.88881 c 0,1.16393 -3.66472,2.09575 -8,2.03415 -2.9356,-0.0417 -3.15969,-0.18724 -1.38961,-0.90248 z m 10.65156,-2.30927 c 0.22151,-0.66616 1.4907,-1.28601 2.8204,-1.37743 1.32971,-0.0914 5.1049,-0.89918 8.38933,-1.79503 6.27034,-1.71028 11.02832,-1.72699 11.02832,-0.0387 0,0.55 -1.8,1.24078 -4,1.53506 -2.2,0.29428 -4.47648,0.83017 -5.05885,1.19088 -0.58237,0.3607 -3.87655,0.88997 -7.32041,1.17615 -4.64126,0.38569 -6.15733,0.20691 -5.85879,-0.69088 z M 270.75,189.75325 c 1.7875,-0.57341 3.25,-1.4149 3.25,-1.86998 0,-0.75659 10.16229,-4.29979 12.5,-4.35826 0.55,-0.0138 1.225,-0.25001 1.5,-0.52501 0.85463,-0.85463 7.41148,-3.2305 9.1957,-3.33205 0.93264,-0.0531 2.24726,-1.12711 2.92138,-2.38672 0.67412,-1.2596 1.71106,-2.23486 2.3043,-2.16723 3.2809,0.37403 6.62006,-0.23793 6.07862,-1.114 -0.33992,-0.55 0.0835,-1.05625 0.94098,-1.125 0.85746,-0.0687 2.00902,-0.2375 2.55902,-0.375 0.55,-0.1375 1.70156,-0.30625 2.55902,-0.375 0.85746,-0.0687 1.28905,-0.56181 0.9591,-1.09568 -0.32995,-0.53388 0.65599,-1.27273 2.19098,-1.6419 1.535,-0.36917 4.45783,-1.50602 6.49519,-2.52633 2.03736,-1.0203 5.25601,-1.96895 7.15255,-2.1081 1.89654,-0.13914 3.24055,-0.59049 2.98669,-1.00299 -0.64569,-1.04919 4.8534,-0.91127 6.55209,0.16433 1.73031,1.09563 -1.88628,3.12524 -9.68367,5.43442 -2.90842,0.86133 -6.95842,2.47743 -9,3.59135 -4.18336,2.28251 -9.2128,4.41023 -10.71195,4.53172 -0.55,0.0446 -1.48153,0.38316 -2.07007,0.75243 -0.58854,0.36926 -2.16354,0.89322 -3.5,1.16437 -1.33646,0.27114 -6.40255,1.86962 -11.25798,3.55218 -4.85542,1.68256 -9.28741,3.0592 -9.84887,3.0592 -0.56145,0 -2.43883,0.61847 -4.17195,1.37438 -3.58274,1.56262 -10.9423,3.67653 -12.26715,3.52353 -0.48619,-0.0562 0.57852,-0.57124 2.36602,-1.14466 z m -2.47917,-35.35742 c 0.33229,-0.33229 1.19479,-0.36781 1.91667,-0.0789 0.79773,0.31922 0.56078,0.55618 -0.60417,0.60416 -1.05416,0.0434 -1.64479,-0.19293 -1.3125,-0.52522 z M 326.75,151.59822 c -6.42755,-0.66243 -8.75,-1.27529 -8.75,-2.30902 0,-0.77398 0.48173,-1.10951 1.0705,-0.74563 0.58878,0.36388 6.32628,0.75281 12.75,0.86428 10.20781,0.17714 16.1795,1.32483 16.1795,3.10952 0,0.62364 -10.82245,0.15552 -21.25,-0.91915 z m -14.51483,-1.3059 c -1.24566,-0.23942 -2.0066,-0.85314 -1.69098,-1.36381 0.92012,-1.4888 5.18771,-1.06956 5.81744,0.57149 0.58089,1.51378 0.10375,1.60539 -4.12646,0.79232 z m 28.29585,-7.09463 c -0.28379,-0.28379 -13.45687,-0.6934 -29.2735,-0.91025 -16.17156,-0.2217 -29.1733,-0.80854 -29.70752,-1.34085 C 280.95106,140.3498 281.22821,140 282.3,140 c 0.935,0 1.70689,-0.5625 1.71531,-1.25 0.01,-0.79921 0.28027,-0.87939 0.75,-0.22235 0.43503,0.6085 4.20164,0.90406 9.23469,0.72462 22.95782,-0.81849 46,-0.83233 46,-0.0276 0,0.49137 0.44417,0.61889 0.98705,0.28337 0.54288,-0.33552 1.91657,0.25594 3.05264,1.31435 l 2.06557,1.92437 -2.52913,0.48348 c -1.39102,0.26591 -2.76132,0.25128 -3.04511,-0.0325 z m -78.66427,-8.28005 c -1.1847,-0.73218 3.05059,-2.26834 9.63325,-3.49402 2.2,-0.40963 4.56071,-0.85745 5.24603,-0.99514 0.68532,-0.13769 1.50013,0.16079 1.81069,0.66329 0.33269,0.53831 1.36983,0.48272 2.52464,-0.13531 1.07798,-0.57692 2.38746,-0.78475 2.90994,-0.46184 0.52248,0.32291 2.355,-0.13946 4.07226,-1.02749 1.71727,-0.88803 3.36465,-1.37225 3.66085,-1.07605 0.29621,0.2962 1.41886,0.0674 2.49479,-0.50839 1.07592,-0.57582 3.14467,-1.26245 4.59721,-1.52584 1.45255,-0.2634 2.91393,-0.92053 3.24753,-1.4603 0.33359,-0.53977 2.28361,-0.86845 4.33338,-0.7304 2.29087,0.15428 4.04934,-0.27083 4.56384,-1.1033 0.46034,-0.74486 1.56145,-1.07629 2.44689,-0.73651 0.97332,0.3735 2.04972,-0.0865 2.7222,-1.16329 0.75158,-1.20348 1.99355,-1.65173 3.82976,-1.38223 1.53604,0.22545 3.3513,-0.23498 4.17537,-1.05906 2.24975,-2.24975 5.86462,-3.1399 5.86462,-1.44414 0,2.09217 -6.34511,6.71444 -9.23643,6.72854 -0.69496,0.003 -2.58398,0.69472 -4.19782,1.53629 -1.61383,0.84157 -3.55092,1.29348 -4.30463,1.00426 -0.75371,-0.28923 -3.9333,0.40996 -7.06575,1.55375 -3.13245,1.14379 -6.99778,2.26287 -8.58961,2.48685 -1.59183,0.22397 -3.43102,0.85271 -4.08709,1.39719 -0.65606,0.54449 -3.11658,1.16325 -5.46782,1.37504 -2.35124,0.21179 -4.57341,0.86795 -4.93817,1.45814 -0.43334,0.70116 -1.9368,0.78583 -4.33787,0.2443 -2.02108,-0.45583 -3.87675,-0.62671 -4.12373,-0.37973 -0.7627,0.7627 -10.61277,0.95946 -11.78433,0.23539 z m 77.81905,-0.72505 c -3.2102,-0.20499 -4.66786,-0.70476 -4.375,-1.5 0.24156,-0.65593 1.04416,-1.04719 1.78356,-0.86947 0.7394,0.17772 2.6117,0.35915 4.16066,0.40319 1.54897,0.044 3.07032,0.49108 3.38078,0.99342 0.78215,1.26554 0.50048,1.3209 -4.95,0.97286 z M 328,133 c -0.66744,-0.4125 -0.82542,-0.98986 -0.35107,-1.28303 1.16321,-0.7189 6.35107,0.32226 6.35107,1.27461 0,0.97912 -4.41934,0.98532 -6,0.008 z m -7.57006,-3.88664 c 0.43808,-0.70883 6.31307,-2.28627 8.57006,-2.30106 0.275,-0.002 0.77157,-0.4427 1.1035,-0.97977 0.33192,-0.53706 1.68192,-1.11311 3,-1.28011 1.31807,-0.16699 3.58491,-0.62107 5.03741,-1.00905 3.70061,-0.98849 4.69942,1.18318 1.16926,2.5423 C 336.68011,127.09824 322.99753,130 320.85301,130 c -0.53407,0 -0.72446,-0.39899 -0.42307,-0.88664 z M 283,119.18947 c 0,-0.52887 1.6875,-1.75113 3.75,-2.71613 2.0625,-0.965 4.9258,-2.57798 6.36288,-3.5844 1.43708,-1.00642 2.88273,-1.55999 3.21256,-1.23017 0.32982,0.32983 1.13876,-0.58347 1.79763,-2.02954 1.26045,-2.76639 2.82224,-3.49513 2.95588,-1.37923 0.0627,0.99336 0.18293,0.99208 0.58541,-0.006 0.27855,-0.69093 0.91803,-1.00187 1.42105,-0.69098 0.50302,0.31088 0.91459,0.14494 0.91459,-0.36877 0,-0.51371 1.0125,-0.9345 2.25,-0.93508 1.2375,-5.9e-4 4.3901,-1.00762 7.00577,-2.23785 5.49306,-2.58354 14.76563,-3.28911 15.50107,-1.17951 0.29067,0.83376 -0.23136,1.25803 -1.39631,1.13485 -3.08467,-0.32618 -4.50769,-0.0136 -3.96143,0.87031 0.28443,0.46021 -0.92652,0.74594 -2.69098,0.63495 -1.76447,-0.11099 -3.43312,0.0811 -3.70812,0.42686 -0.78934,0.99245 -11.30447,5.88878 -14.21555,6.61941 -1.44842,0.36353 -4.35496,2.11154 -6.45897,3.88446 -2.95061,2.4863 -4.91178,3.28355 -8.57548,3.48607 -2.6125,0.14441 -4.75,-0.17015 -4.75,-0.69902 z m 30.6169,-4.00032 c -0.30327,-0.49071 1.34636,-1.44788 3.66585,-2.12706 2.31949,-0.67917 5.24246,-1.88969 6.4955,-2.69003 1.25303,-0.80035 2.71553,-1.18492 3.25,-0.8546 0.53446,0.33031 0.97175,0.22633 0.97175,-0.23108 0,-1.41367 9.33798,-3.19796 10.75,-2.0541 2.07825,1.68356 1.41586,2.76772 -1.69098,2.76772 -1.61754,0 -3.18158,0.3893 -3.47565,0.8651 -0.4475,0.72407 -3.45371,1.50527 -14.20972,3.69259 -0.6195,0.12597 -2.04413,0.52034 -3.16585,0.87636 -1.12172,0.35602 -2.28762,0.24581 -2.5909,-0.2449 z"
       id="path3205"
       inkscape:connector-curvature="0" />
    <path
       style="fill:#675128"
       d="m 178.46398,248.75 c -0.38221,-1.7875 -1.03091,-3.7 -1.44157,-4.25 -0.41065,-0.55 -1.0492,-2.35 -1.419,-4 -1.20828,-5.39115 -3.96351,-13.98876 -4.64673,-14.5 -0.36752,-0.275 -1.08677,-2.29695 -1.59835,-4.49322 -1.31263,-5.63524 -3.76821,-5.77314 -5.49718,-0.3087 -1.89996,6.00483 -5.26112,7.37689 -21.36115,8.71987 -7.15,0.59642 -16.02863,1.36595 -19.7303,1.71007 -6.65105,0.61831 -6.76654,0.58687 -9.80872,-2.66979 -1.69314,-1.81251 -3.34099,-4.60827 -3.66189,-6.2128 -0.867,-4.33497 -3.05639,-4.53871 -6.65606,-0.61938 -7.579227,8.25226 -11.215772,8.78878 -17.784985,2.62395 -4.208323,-3.94927 -6.832222,-8.75 -4.782425,-8.75 0.488609,0 0.855041,-2.1375 0.814293,-4.75 -0.08131,-5.21304 1.997011,-11.01404 5.708412,-15.93328 2.497115,-3.30978 2.925821,-4.39948 1.651675,-4.1983 -1.937449,0.30591 -4.25,-0.19865 -4.25,-0.92729 0,-2.84672 3.00326,-4.28463 11.25,-5.38629 8.14726,-1.08837 8.75,-1.32856 8.75,-3.48686 0,-1.27489 0.42545,-2.31798 0.94543,-2.31798 0.51999,0 1.53249,-1.22433 2.25,-2.72074 1.83873,-3.83474 5.29271,-5.2475 12.87091,-5.26452 3.61149,-0.008 9.01149,-0.46482 12,-1.01492 2.98851,-0.5501 9.70866,-1.1616 14.93366,-1.35889 l 9.5,-0.35871 -0.33531,-4.30039 c -0.18442,-2.36521 -0.71983,-5.31175 -1.18979,-6.54785 -0.46997,-1.23611 -1.15677,-4.91927 -1.52622,-8.18481 l -0.67173,-5.93734 3.86152,-2.11818 c 2.12384,-1.165 12.04473,-6.18073 22.04643,-11.14607 10.00169,-4.96534 18.4829,-9.51008 18.84714,-10.09942 0.36423,-0.58934 1.63103,-1.48103 2.8151,-1.98153 4.75537,-2.01008 20.0563,-11.96476 22.15286,-14.4125 0.55,-0.64212 3.7,-3.13877 7,-5.548096 3.3,-2.409328 6.15,-4.74632 6.33333,-5.193315 C 236.01667,92.365723 238.42867,92 241.19334,92 l 5.02668,0 -6.19127,4.557751 c -3.40519,2.506762 -7.55041,6.105729 -9.21159,7.997709 C 227.79784,107.99428 219.6686,114 218.0332,114 c -0.47659,0 -1.01653,0.35233 -1.19987,0.78295 -0.76149,1.78863 -24.07769,14.90608 -45.97749,25.86644 l -12.64415,6.32812 1.75564,7.76125 c 1.63359,7.22165 6.77613,25.78435 11.01532,39.76124 1.00089,3.3 2.10369,7.96957 2.45067,10.37683 0.34698,2.40725 1.57564,7.13225 2.73035,10.5 1.15471,3.36774 2.23104,7.18484 2.39184,8.48243 0.1608,1.2976 0.72315,3.5476 1.24966,5 0.52651,1.45241 1.79815,5.45324 2.82586,8.89074 1.02772,3.4375 2.31866,6.239 2.86877,6.22555 0.55011,-0.0134 3.00689,-0.48687 5.45951,-1.05206 2.45262,-0.56519 8.30262,-1.42862 13,-1.91874 4.69738,-0.49011 11.69069,-1.33033 15.54069,-1.86714 3.85,-0.53682 11.725,-1.47197 17.5,-2.07811 5.775,-0.60615 12.525,-1.33531 15,-1.62038 2.475,-0.28506 7.2,-0.77606 10.5,-1.09111 4.32699,-0.4131 8.50951,-1.82845 15,-5.07593 4.95,-2.47671 9.225,-4.79952 9.5,-5.1618 0.55393,-0.72974 29.00761,-14.88951 41.41092,-20.60784 4.35101,-2.00596 10.66081,-5.52713 14.02179,-7.82482 7.11789,-4.86607 12.57325,-8.01912 13.01971,-7.52505 0.17267,0.19109 0.58914,1.69743 0.9255,3.34743 0.58547,2.87211 0.23874,3.23827 -8.13319,8.58905 -4.8096,3.07398 -10.83107,6.6157 -13.38105,7.87048 -2.54997,1.25479 -5.87751,3.34796 -7.39453,4.65149 -1.51702,1.30354 -6.18067,3.98926 -10.36368,5.96828 -4.18301,1.97903 -8.28047,4.18762 -9.10547,4.90798 -0.825,0.72037 -3.12585,2.21311 -5.11299,3.31721 -7.07117,3.92886 -8.39317,4.70166 -8.88777,5.19551 -1.55226,1.54992 -7.53692,4.00448 -9.83028,4.0318 -1.46793,0.0175 -3.54247,0.6925 -4.61009,1.5 -1.06762,0.80751 -2.50083,1.4682 -3.1849,1.4682 -0.68407,0 -2.51057,0.51068 -4.05887,1.13485 -3.2584,1.31356 -5.55249,1.68856 -13.8151,2.25827 -3.3,0.22753 -6.675,0.67079 -7.5,0.98503 -1.32808,0.50585 -37.43716,4.81344 -52,6.20328 -3.025,0.2887 -8.5112,0.95098 -12.19155,1.47174 -3.68036,0.52076 -6.9071,0.94683 -7.17055,0.94683 -0.26344,0 -0.79171,-1.4625 -1.17392,-3.25 z M 139.8702,226.24076 c 1.44649,-0.32605 4.69967,-0.79344 9.25979,-1.45803 l 9.91686,-1.44529 -0.002,-6.87038 c -0.003,-9.43272 -3.26688,-29.96706 -4.05663,-29.96706 -0.0907,0 -0.33518,-2.24512 -0.54335,-4.98917 -0.50068,-6.59971 -1.9031,-7.51322 -10.82375,-7.05041 -3.9166,0.20319 -7.12108,0.42318 -7.12108,0.48885 0,0.0657 -3.6,0.34008 -8,0.60977 -13.16707,0.80706 -15.92752,1.30514 -17.24897,3.11233 -0.69322,0.94804 -1.61221,2.53961 -1.33321,3.41866 0.279,0.87904 1.31107,4.63096 1.58453,8.45577 0.27346,3.82481 -0.5099,7.72238 0.0316,10.19738 2.08272,7.17532 0.32663,17.72748 3.6234,24.41737 0.36623,0.56262 1.91136,0.72162 2.60649,0.94413 1.47615,0.47252 13.81617,1.19565 17.65913,0.32943 z M 96.603917,220.75 c 1.445954,-2.3375 4.164843,-5.85753 6.041973,-7.8223 2.68691,-2.81235 3.36795,-4.30148 3.20139,-7 C 105.56155,201.29853 101.45203,192 99.691871,192 c -1.53889,0 -9.716833,8.30961 -11.551225,11.7372 -2.870766,5.36408 -1.772538,16.52071 1.920786,19.5128 3.055399,2.47528 3.591561,2.27041 6.542485,-2.5 z m 129.009023,8.56853 c -1.97083,-2.65019 -3.93292,-5.26853 -4.3602,-5.81853 -0.42728,-0.55 -2.43133,-3.32511 -4.45345,-6.1669 -2.02211,-2.8418 -4.37064,-5.9918 -5.21894,-7 -0.84831,-1.00821 -2.197,-2.7331 -2.99709,-3.8331 -1.41321,-1.94295 -1.5844,-1.87332 -6.00134,2.44089 l -4.54663,4.44089 -2.4156,-2.26934 c -2.27754,-2.13963 -2.58529,-2.18159 -5.38447,-0.73408 -1.63288,0.8444 -5.0538,3.12673 -7.60205,5.07185 -4.87014,3.71746 -5.18384,3.62923 -3.73675,-1.05099 2.72647,-8.81795 4.53335,-14.9774 4.56628,-15.56589 0.0205,-0.36666 0.3748,-1.00416 0.7873,-1.41666 0.4125,-0.4125 0.75,-1.80611 0.75,-3.09691 0,-1.29079 0.41657,-3.12829 0.92571,-4.08333 0.50914,-0.95504 1.5983,-3.95244 2.42036,-6.66089 1.45911,-4.80739 1.42293,-5.10457 -1.52163,-12.5 -4.03909,-10.14443 -4.20062,-16.75147 -0.58911,-24.09762 4.45849,-9.06901 7.97675,-12.59159 14.00294,-14.02014 2.89395,-0.68603 7.17949,-2.55742 9.52341,-4.15863 7.78505,-5.31824 21.49373,-4.51981 29.68636,1.72901 1.77551,1.35425 3.44973,2.24074 3.7205,1.96997 0.27076,-0.27076 2.53671,0.2043 5.03543,1.0557 11.34568,3.86586 17.51916,21.00176 12.40978,34.44617 -3.6137,9.50879 -3.61197,9.42815 -0.43364,20.25301 4.19682,14.2937 7.53482,27.75232 6.87481,27.71882 -0.30521,-0.0155 -2.57992,-1.13378 -5.05492,-2.48509 -9.66131,-5.27491 -9.01065,-5.12408 -10.95944,-2.54051 l -1.77395,2.35177 -3.63327,-2.899 c -1.99831,-1.59445 -3.63329,-3.21897 -3.63331,-3.61004 -5e-5,-1.24162 -4.26792,-4.74143 -5.13128,-4.20784 -0.4556,0.28157 -0.55179,3.15797 -0.21377,6.392 l 0.61459,5.88006 -3.38479,0.32341 L 230.5,215.5 l -0.23642,8.90309 c -0.13003,4.89669 -0.42337,9.09003 -0.65186,9.31853 -0.2285,0.22849 -2.02795,-1.7529 -3.99878,-4.40309 z m 85.9731,-39.45775 C 311.87864,189.38735 313.44148,189 315.05902,189 316.67656,189 318,188.52344 318,187.94098 c 0,-0.58246 0.47994,-0.7624 1.06653,-0.39986 0.58659,0.36253 0.82943,0.89625 0.53964,1.18604 -0.94238,0.94238 -8.5681,2.02025 -8.02013,1.13362 z M 290.5,182.55134 c 1.65,-0.75156 3.1875,-1.18307 3.41667,-0.95891 0.66205,0.6476 -0.19961,1.08283 -3.41667,1.72581 l -3,0.59958 z m 9.00931,-3.5664 C 299.84411,178.44322 301.44148,178 303.05902,178 304.67656,178 306,177.60248 306,177.11663 c 0,-0.85797 3.7394,-2.44261 5.25,-2.22478 0.4125,0.0595 0.75,-0.34185 0.75,-0.89185 0,-0.55 0.87344,-1 1.94098,-1 1.06754,0 2.20115,-0.42095 2.51912,-0.93545 1.07651,-1.74182 11.01793,-5.72237 14.62878,-5.85736 1.97388,-0.0738 4.82507,-0.60417 6.33597,-1.17862 2.04343,-0.77691 2.64716,-0.7446 2.35692,0.12612 -0.2146,0.64381 -1.26579,1.29356 -2.33598,1.44388 -3.50915,0.49292 -12.91243,3.79044 -14.49544,5.08323 -1.51018,1.23331 -8.75742,4.11433 -12.13545,4.82424 -0.92681,0.19477 -2.50181,0.77221 -3.5,1.28319 -2.85626,1.46215 -8.50506,2.32747 -7.80559,1.19571 z m 34.03981,-27.90546 c -0.52166,-0.84406 4.06297,-0.80155 4.90957,0.0455 0.34355,0.34375 -0.52731,0.625 -1.93526,0.625 -1.40795,0 -2.74639,-0.30173 -2.97431,-0.67052 z m 6.95796,-0.068 c -0.35034,-0.56686 0.0511,-0.7345 0.94098,-0.39301 1.73242,0.66479 2.04939,1.38156 0.61096,1.38156 -0.51754,0 -1.21592,-0.44485 -1.55194,-0.98855 z m -2.07851,-8.91621 c -0.2594,-0.2594 -6.19945,-0.61125 -13.2001,-0.78189 -7.00066,-0.17064 -13.50711,-0.33958 -14.45878,-0.37543 -0.95167,-0.0358 -2.03105,-0.55179 -2.39862,-1.14654 -0.45408,-0.73471 0.26088,-0.86058 2.23031,-0.39265 1.59424,0.37879 4.92362,0.60545 7.39862,0.50369 2.475,-0.10176 6.75,-0.27633 9.5,-0.38793 5.42566,-0.22019 15.5,1.50268 15.5,2.65075 0,0.76601 -3.7935,0.70793 -4.57143,-0.07 z M 278,134.21192 c -4.50365,-0.68684 -4.27874,-1.98836 0.40801,-2.36112 2.52559,-0.20086 4.59199,-0.0796 4.59199,0.26955 0,1.35945 -2.61843,2.45477 -5,2.09157 z m -9.75,-0.90125 c 0.9625,-0.25152 2.5375,-0.25152 3.5,0 0.9625,0.25153 0.175,0.45733 -1.75,0.45733 -1.925,0 -2.7125,-0.2058 -1.75,-0.45733 z m 17.75,-1.2326 c 0,-0.57198 1.2375,-1.31112 2.75,-1.64254 1.5125,-0.33142 3.425,-0.81665 4.25,-1.0783 1.17835,-0.37371 1.23957,-0.21331 0.2855,0.74803 -0.66798,0.67306 -2.02589,1.28352 -3.01759,1.35658 -0.99169,0.0731 -2.35766,0.4756 -3.03549,0.89452 C 286.55459,132.77528 286,132.65005 286,132.07807 z m 10,-3.03997 c 0,-0.55 1.2375,-1.26075 2.75,-1.57945 1.5125,-0.3187 3.46526,-0.96098 4.33948,-1.42728 0.88543,-0.47229 2.21425,-0.45231 3,0.0451 1.09488,0.6931 0.95178,0.89634 -0.63948,0.90823 -1.1275,0.008 -2.4775,0.40721 -3,0.8862 -1.51712,1.39079 -6.45,2.28346 -6.45,1.16721 z M 312.16667,125 c 0.18333,-0.55 0.78333,-1.03827 1.33333,-1.08504 0.55,-0.0468 1.45,-0.4565 2,-0.91051 0.55,-0.45401 2.8,-1.11865 5,-1.47696 3.74438,-0.60985 3.87595,-0.55166 2.05887,0.91051 -1.06762,0.8591 -2.95356,1.562 -4.19098,1.562 -1.23742,0 -2.52797,0.45 -2.86789,1 -0.33992,0.55 -1.30398,1 -2.14235,1 -0.83837,0 -1.37432,-0.45 -1.19098,-1 z M 327,118.5 c 0.68469,-0.825 1.46989,-1.5 1.74489,-1.5 0.275,0 -0.0602,0.675 -0.74489,1.5 -0.68469,0.825 -1.46989,1.5 -1.74489,1.5 -0.275,0 0.0602,-0.675 0.74489,-1.5 z m -41,0.084 c 0,-0.22281 2.25,-1.52633 5,-2.89671 5.11339,-2.54811 5.89586,-2.44857 3.67736,0.46779 C 293.59109,117.58306 286,119.70792 286,118.584 z m 12.51468,-6.60775 C 299.17917,110.90108 303,110.0499 303,110.97704 c 0,0.43439 -1.11138,1.00226 -2.46974,1.26193 -1.35835,0.25966 -2.26537,0.14144 -2.01558,-0.26272 z m 6.56427,-1.69107 c -0.12222,-1.88067 3.89746,-3.70877 5.22841,-2.37782 0.79019,0.79019 0.36832,1.09264 -1.52403,1.09264 -1.43916,0 -2.84364,0.5625 -3.12105,1.25 -0.38017,0.94216 -0.52383,0.95082 -0.58333,0.0352 z M 329,110.06739 c 0,-0.58707 0.5625,-1.10083 1.25,-1.1417 0.6875,-0.0409 2.375,-0.26007 3.75,-0.48711 1.76672,-0.29172 2.06003,-0.15875 1,0.45335 -2.85879,1.65075 -6,2.26615 -6,1.17546 z m -10.9434,-6.03241 c -0.8059,-0.49807 -0.0527,-0.96179 2.09209,-1.28809 4.15303,-0.63181 4.53561,-0.37971 1.51345,0.99728 -1.29048,0.58798 -2.91297,0.71884 -3.60554,0.29081 z"
       id="path3203"
       inkscape:connector-curvature="0"
       sodipodi:nodetypes="ssscssssssssssssssssscsscssscsscssscscssscscssssssscsssssssssscsssssssssssssssssscsccssssssssccsccscccssscssssssssscsssscssssssssssssscsscsccsccsscsssscssssscsssscsscsssscsssccsccscsssscsssssssssssssssssscssssssssssccsssssscssssssssssssscsssccsssss" />
    <path
       style="fill:#0d0d12"
       d="m 178.46398,248.75 c -0.38221,-1.7875 -1.03091,-3.7 -1.44157,-4.25 -0.41065,-0.55 -1.0492,-2.35 -1.419,-4 -1.20828,-5.39115 -3.96351,-13.98876 -4.64673,-14.5 -0.36752,-0.275 -1.08677,-2.29695 -1.59835,-4.49322 -1.31263,-5.63524 -3.76821,-5.77314 -5.49718,-0.3087 -1.89996,6.00483 -5.26112,7.37689 -21.36115,8.71987 -7.15,0.59642 -16.02863,1.36595 -19.7303,1.71007 -6.65105,0.61831 -6.76654,0.58687 -9.80872,-2.66979 -1.69314,-1.81251 -3.34099,-4.60827 -3.66189,-6.2128 -0.867,-4.33497 -3.05639,-4.53871 -6.65606,-0.61938 -7.579227,8.25226 -11.215772,8.78878 -17.784985,2.62395 -4.208323,-3.94927 -6.832222,-8.75 -4.782425,-8.75 0.488609,0 0.855041,-2.1375 0.814293,-4.75 -0.08131,-5.21304 1.997011,-11.01404 5.708412,-15.93328 2.497115,-3.30978 2.925821,-4.39948 1.651675,-4.1983 -1.937449,0.30591 -4.25,-0.19865 -4.25,-0.92729 0,-2.84672 3.00326,-4.28463 11.25,-5.38629 8.14726,-1.08837 8.75,-1.32856 8.75,-3.48686 0,-1.27489 0.42545,-2.31798 0.94543,-2.31798 0.51999,0 1.53249,-1.22433 2.25,-2.72074 1.83873,-3.83474 5.29271,-5.2475 12.87091,-5.26452 3.61149,-0.008 9.01149,-0.46482 12,-1.01492 2.98851,-0.5501 9.70866,-1.1616 14.93366,-1.35889 l 9.5,-0.35871 -0.33531,-4.30039 c -0.18442,-2.36521 -0.71983,-5.31175 -1.18979,-6.54785 -0.46997,-1.23611 -1.15677,-4.91927 -1.52622,-8.18481 l -0.67173,-5.93734 3.86152,-2.11818 c 2.12384,-1.165 12.04473,-6.18073 22.04643,-11.14607 10.00169,-4.96534 18.4829,-9.51008 18.84714,-10.09942 0.36423,-0.58934 1.63103,-1.48103 2.8151,-1.98153 4.75537,-2.01008 20.0563,-11.96476 22.15286,-14.4125 0.55,-0.64212 3.7,-3.13877 7,-5.548096 3.3,-2.409328 6.15,-4.74632 6.33333,-5.193315 C 236.01667,92.365723 238.42867,92 241.19334,92 l 5.02668,0 -6.19127,4.557751 c -3.40519,2.506762 -7.55041,6.105729 -9.21159,7.997709 C 227.79784,107.99428 219.6686,114 218.0332,114 c -0.47659,0 -1.01653,0.35233 -1.19987,0.78295 -0.76352,1.7934 -24.08296,14.90894 -46.09102,25.92295 -12.32115,6.16616 -12.73632,6.47718 -12.13316,9.08937 1.21333,5.25476 4.48369,17.76195 5.80606,22.20473 0.73667,2.475 1.82427,6.3 2.41688,8.5 0.59261,2.2 2.05678,7.15 3.25371,11 1.19693,3.85 2.30983,8.0779 2.47311,9.39534 0.56563,4.56366 3.7006,16.60899 4.56886,17.55466 0.47972,0.5225 0.87077,1.8725 0.86898,3 -0.002,1.1275 1.43605,6.68721 3.19518,12.35492 l 3.19844,10.30492 3.55481,-0.5646 c 1.95515,-0.31053 5.12982,-0.75082 7.05482,-0.97844 1.925,-0.22761 10.475,-1.32819 19,-2.44572 8.525,-1.11753 20,-2.51297 25.5,-3.10098 5.5,-0.588 11.8,-1.2726 14,-1.52133 2.2,-0.24873 6.64631,-0.72644 9.88068,-1.06158 6.03421,-0.62526 21.8912,-7.65 24.57905,-10.88867 0.70684,-0.85169 1.69976,-1.54852 2.2065,-1.54852 2.0752,0 49.91286,-24.29746 57.1717,-29.03836 4.31086,-2.81551 7.97079,-4.97118 8.13318,-4.79038 0.16239,0.18081 0.57045,1.67874 0.90681,3.32874 0.58547,2.87211 0.23874,3.23827 -8.13319,8.58905 -4.8096,3.07398 -10.83107,6.6157 -13.38105,7.87048 -2.54997,1.25479 -5.87751,3.34796 -7.39453,4.65149 -1.51702,1.30354 -6.18067,3.98926 -10.36368,5.96828 -4.18301,1.97903 -8.28047,4.18762 -9.10547,4.90798 -0.825,0.72037 -3.12585,2.21311 -5.11299,3.31721 -7.07117,3.92886 -8.39317,4.70166 -8.88777,5.19551 -1.55226,1.54992 -7.53692,4.00448 -9.83028,4.0318 -1.46793,0.0175 -3.54247,0.6925 -4.61009,1.5 -1.06762,0.80751 -2.50083,1.4682 -3.1849,1.4682 -0.68407,0 -2.51057,0.51068 -4.05887,1.13485 -3.2584,1.31356 -5.55249,1.68856 -13.8151,2.25827 -3.3,0.22753 -6.675,0.67079 -7.5,0.98503 -1.32808,0.50585 -37.43716,4.81344 -52,6.20328 -3.025,0.2887 -8.5112,0.95098 -12.19155,1.47174 -3.68036,0.52076 -6.9071,0.94683 -7.17055,0.94683 -0.26344,0 -0.79171,-1.4625 -1.17392,-3.25 z m -39.49539,-23.23059 c 0.89384,-0.55242 13.1096,-1.75119 17.17817,-1.68575 2.15416,0.0346 2.86968,-4.6547 1.80562,-11.83366 -0.44836,-3.025 -1.11476,-10 -1.48089,-15.5 -0.36613,-5.5 -0.9595,-10.225 -1.31859,-10.5 -0.3591,-0.275 -0.74865,-2.51879 -0.86567,-4.98619 -0.28702,-6.05167 -1.8482,-7.01087 -10.66615,-6.55339 -3.9166,0.20319 -7.12108,0.42318 -7.12108,0.48885 0,0.0657 -3.6,0.34008 -8,0.60977 -17.21441,1.05514 -18.81471,1.75215 -17.90492,7.7985 0.26006,1.72836 0.66292,5.39246 0.89524,8.14246 0.23232,2.75 0.63394,6.8 0.89249,9 0.83738,7.12533 1.84853,17.44633 1.99549,20.3685 0.27765,5.52063 1.73504,6.14705 13.22104,5.68269 5.70829,-0.23077 10.82445,-0.69507 11.36925,-1.03178 z m -15.67713,-4.03891 c -3.77658,-1.58793 -4.09067,-2.46761 -5.87803,-16.46299 -0.809,-6.33463 -1.69544,-13.14291 -1.96988,-15.12951 -0.868,-6.28322 0.71196,-8.57527 6.75031,-9.79272 2.91838,-0.5884 6.20614,-1.01547 7.30614,-0.94905 1.1,0.0664 4.41301,-0.18253 7.36225,-0.55323 8.53847,-1.07325 13.09663,1.24002 13.60988,6.907 0.38864,4.29117 1.88678,9.5 2.73234,9.5 0.61475,0 0.7644,1.10657 0.3719,2.75 -0.36123,1.5125 -0.64157,3.3125 -0.62298,4 0.0186,0.6875 0.1059,3.01161 0.19405,5.16469 0.0881,2.15308 -0.40116,5.91986 -1.08733,8.37061 l -1.24758,4.45593 -6.15627,0.62404 c -9.40925,0.9538 -14.99209,1.62572 -16.76446,2.01768 -0.88452,0.19561 -2.95467,-0.21049 -4.60034,-0.90245 z m 20.06598,-8.01351 c 1.5716,-0.1917 3.03948,-0.53058 3.26196,-0.75306 0.22248,-0.22248 -0.19633,-3.06163 -0.93068,-6.30922 -1.18812,-5.25433 -1.63002,-5.93956 -4.01195,-6.22113 -3.57457,-0.42255 -3.65506,-3.86114 -0.12182,-5.20447 2.30864,-0.87774 2.52555,-1.42298 2.25,-5.65568 l -0.30495,-4.68429 -7,0.2422 c -7.39768,0.25596 -13.70041,1.01763 -14.44881,1.74609 -0.24684,0.24027 0.0907,2.45385 0.75,4.91906 0.65935,2.46522 1.19881,8.78508 1.19881,14.04414 l 0,9.56193 8.25,-0.66851 c 4.5375,-0.36768 9.53585,-0.82536 11.10744,-1.01706 z M 122.5,184 c 0.33992,-0.55 -0.057,-1 -0.88197,-1 -0.825,0 -1.77811,0.45 -2.11803,1 -0.33992,0.55 0.057,1 0.88197,1 0.825,0 1.77811,-0.45 2.11803,-1 z m -25.495271,36.7778 c 1.305156,-2.32222 3.863021,-5.71222 5.684141,-7.53334 C 105.15297,210.78036 106,209.05381 106,206.49518 106,202.15869 101.57906,192 99.691871,192 c -1.532247,0 -9.713659,8.30368 -11.535585,11.70798 -2.687729,5.02206 -2.131957,15.86764 0.984542,19.21281 2.964997,3.18255 5.215459,2.56927 7.863901,-2.14299 z M 225.76481,229.5 c -2.05436,-2.75 -4.08479,-5.45 -4.51207,-6 -0.42728,-0.55 -2.43133,-3.32511 -4.45345,-6.1669 -2.02211,-2.8418 -4.37064,-5.9918 -5.21894,-7 -0.84831,-1.00821 -2.197,-2.7331 -2.99709,-3.8331 -1.41321,-1.94295 -1.5844,-1.87332 -6.00134,2.44089 l -4.54663,4.44089 -2.4156,-2.26934 c -2.27754,-2.13963 -2.58529,-2.18159 -5.38447,-0.73408 -1.63288,0.8444 -5.09257,3.15633 -7.68821,5.13762 -3.47744,2.65439 -4.58597,3.12627 -4.21252,1.79319 0.27875,-0.99504 0.79673,-2.93417 1.15108,-4.30917 1.08002,-4.19096 7.64308,-25.36855 8.5224,-27.5 1.90205,-4.61051 1.78594,-7.04478 -0.61541,-12.90227 -5.4723,-13.3483 -4.99335,-20.46591 2.09586,-31.14625 3.73059,-5.62037 7.46646,-8.10082 13.70283,-9.09805 2.09481,-0.33498 3.80875,-0.95198 3.80875,-1.37111 0,-1.34303 8.53917,-4.82876 13.16079,-5.3723 5.66299,-0.66602 13.93202,1.4893 18.88647,4.92273 2.10942,1.46183 4.28063,2.38264 4.82492,2.04625 0.54429,-0.33639 1.23635,-0.21241 1.53791,0.27553 0.30156,0.48793 1.82761,1.14301 3.39122,1.45573 3.68486,0.73697 8.92972,6.03728 11.41277,11.53342 2.39115,5.29273 2.65325,16.72739 0.50537,22.04745 -3.54645,8.78413 -3.81113,10.59757 -2.20938,15.13741 1.36074,3.85674 4.1731,13.92003 5.02245,17.97146 0.17295,0.825 0.34889,1.6125 0.39097,1.75 0.0421,0.1375 0.15183,0.5875 0.24388,1 0.092,0.4125 0.9508,3.3375 1.90832,6.5 0.95753,3.1625 1.44472,5.73732 1.08264,5.72183 -0.36208,-0.0155 -2.68333,-1.13378 -5.15833,-2.48509 -9.66131,-5.27491 -9.01065,-5.12408 -10.95944,-2.54051 l -1.77395,2.35177 -3.63327,-2.899 c -1.99831,-1.59445 -3.63329,-3.21897 -3.63331,-3.61004 -5e-5,-1.28949 -4.28445,-4.73121 -5.19164,-4.17054 -0.4888,0.3021 -0.59121,3.17897 -0.22758,6.39304 l 0.66114,5.84378 -3.37097,0.32238 L 230.5,215.5 230,225 l -0.5,9.5 -3.73519,-5 z M 227.25,209.82157 c 1.75047,0.20468 2.77659,-0.15878 2.82317,-1 0.0777,-1.40263 -0.2395,-13.79072 -0.51386,-20.07157 -0.0901,-2.0625 0.0847,-3.71638 0.38844,-3.67529 0.30374,0.0411 3.47725,3.39857 7.05225,7.46107 3.575,4.0625 7.77749,8.34692 9.33886,9.52093 l 2.83887,2.13456 1.46784,-2.09563 c 1.86865,-2.66789 2.29408,-2.63418 5.61465,0.44483 2.34697,2.17623 2.73663,2.28376 2.71782,0.75 -0.0121,-0.98476 -0.89008,-3.70297 -1.95111,-6.04047 -1.06103,-2.3375 -1.71031,-4.25 -1.44285,-4.25 0.26746,0 -0.0274,-0.95986 -0.65527,-2.13302 -1.13463,-2.12007 -1.15524,-2.11584 -3.39821,0.69711 l -2.25666,2.83012 -2.69756,-4.27322 c -1.48366,-2.35027 -2.94785,-4.92545 -3.25375,-5.72262 -0.43622,-1.13676 -0.86439,-1.19364 -1.98492,-0.26368 -0.7858,0.65216 -1.19737,1.78864 -0.9146,2.52552 0.28276,0.73689 0.12639,1.33979 -0.34751,1.33979 -1.53119,0 -1.88814,-2.53588 -0.60411,-4.29189 0.68695,-0.93946 1.87439,-1.70979 2.63875,-1.71185 0.76437,-0.002 2.84469,-0.89084 4.62294,-1.97507 1.77824,-1.08423 3.91574,-1.7094 4.75,-1.38927 C 252.45115,179.00336 253,178.6325 253,177.60699 253,176.72314 252.52344,176 251.94098,176 c -0.58246,0 -0.83094,-0.36903 -0.55218,-0.82007 0.27876,-0.45104 0.73611,-1.91354 1.01634,-3.25 0.28023,-1.33646 1.18396,-4.22993 2.00829,-6.42993 3.22964,-8.61936 1.50235,-17.53648 -4.43613,-22.90154 -4.43982,-4.01112 -8.91937,-4.72819 -12.75479,-2.04176 -5.02814,3.52185 -0.62277,10.37335 5.83888,9.08102 1.88308,-0.37661 2.80661,-0.23316 2.4293,0.37734 -0.3348,0.54172 -2.61445,0.98494 -5.06589,0.98494 -4.04542,0 -4.60054,-0.30069 -6.00937,-3.25502 -1.19011,-2.49569 -1.30875,-3.89537 -0.50857,-6 0.574,-1.50974 1.50478,-2.74498 2.06839,-2.74498 1.84131,0 1.07643,-2.48663 -1.20268,-3.90996 -3.40696,-2.12768 -11.89458,-4.09402 -14.73541,-3.41377 C 215.72243,132.70945 210,135.97148 210,137.39788 c 0,0.74648 0.675,1.91743 1.5,2.60212 3.94986,3.27809 -0.008,11.85675 -5.28165,11.44722 C 202.91188,151.19045 202.18389,150 205.33333,150 c 1.46667,0 3.5586,-0.89193 4.64874,-1.98207 1.64649,-1.64649 1.8052,-2.44725 0.93744,-4.72965 -1.29191,-3.39796 -2.5818,-4.25522 -6.41951,-4.26638 -5.12043,-0.0149 -10.65059,4.77266 -13.37811,11.58165 -2.03736,5.08608 -1.59986,10.89922 1.26024,16.74506 1.43983,2.9429 2.61787,6.05338 2.61787,6.91217 0,2.13109 5.64094,6.71741 9.1172,7.41266 2.95934,0.59187 5.61759,2.92511 4.54947,3.99323 -0.34009,0.34008 -1.36297,3.4e-4 -2.27307,-0.75497 -1.85647,-1.54073 -2.48718,-0.93878 -6.90312,6.5883 l -2.3467,4 -1.04714,-2.75 c -0.57593,-1.5125 -1.66808,-2.75 -2.427,-2.75 -1.38939,0 -7.14186,13.86111 -6.15997,14.843 0.28116,0.28116 1.89174,-0.806 3.57908,-2.4159 l 3.06789,-2.9271 1.96564,2.41507 1.96563,2.41507 4.64362,-4.41507 c 2.55399,-2.42829 5.57055,-5.54007 6.70345,-6.91507 1.13291,-1.375 3.18255,-3.55266 4.55475,-4.83925 l 2.49492,-2.33925 1.20535,2.95399 c 0.66294,1.62469 1.38354,4.02736 1.60132,5.33925 0.21778,1.31189 0.91955,3.66052 1.55948,5.21918 1.50621,3.66863 0.79241,4.66608 -3.33918,4.66608 l -3.37034,0 4.67936,7.08481 4.67936,7.08481 0.5,-4.33481 c 0.46627,-4.04239 0.68551,-4.31312 3.25,-4.01324 z m -18.61676,-33.25856 c -1.31383,-2.00517 -1.98752,-10.53788 -0.83358,-10.55783 2.06991,-0.0358 6.67045,3.8757 7.83413,6.66077 1.35532,3.24375 1.32839,3.64521 -0.32878,4.90178 -2.6985,2.04616 -4.88889,1.7163 -6.67177,-1.00472 z m 22.9739,0.90128 c -0.84464,-0.84465 -1.77678,-1.51965 -2.07143,-1.5 -1.60135,0.10675 -1.67289,-0.0941 -0.52583,-1.47619 0.69012,-0.83155 1.98272,-2.96905 2.87244,-4.75 1.38872,-2.77979 2.18383,-3.26245 5.61768,-3.41014 2.2,-0.0946 3.2125,0.0509 2.25,0.32332 -2.02131,0.57217 -2.08858,0.84756 -0.79666,3.26153 0.62135,1.161 0.56292,3.05341 -0.16779,5.43426 -0.85815,2.79613 -1.65139,3.65293 -3.3819,3.65293 -1.24344,0 -2.95186,-0.69107 -3.79651,-1.53571 z M 218.63837,174.5 c 0.31659,-0.825 0.75246,-1.5 0.96862,-1.5 0.21615,0 0.39301,0.675 0.39301,1.5 0,0.825 -0.43588,1.5 -0.96862,1.5 -0.53273,0 -0.70959,-0.675 -0.39301,-1.5 z m 93.0312,15.51067 c 0.97484,-0.88066 8.85565,-2.20256 7.99397,-1.34088 -0.32134,0.32134 -2.43829,0.92329 -4.70433,1.33767 -2.26604,0.41437 -3.74638,0.41582 -3.28964,0.003 z M 290.5,182.55134 c 1.65,-0.75156 3.1875,-1.18307 3.41667,-0.95891 0.66205,0.6476 -0.19961,1.08283 -3.41667,1.72581 l -3,0.59958 3,-1.36648 z m 9.00931,-3.5664 c 0.3348,-0.54172 1.7502,-0.98494 3.14534,-0.98494 1.39513,0 3.73108,-0.85054 5.19098,-1.89008 1.4599,-1.03954 3.10437,-1.99345 3.65437,-2.1198 2.57923,-0.59251 5.3681,-1.96769 5.97196,-2.94475 0.36643,-0.5929 1.12792,-0.79266 1.69221,-0.44391 0.56428,0.34875 2.37481,-0.36316 4.0234,-1.58201 1.64859,-1.21886 4.86831,-2.36179 7.15493,-2.53985 2.28663,-0.17806 5.43369,-0.81239 6.99348,-1.40961 2.12928,-0.81528 2.73875,-0.79417 2.44579,0.0847 -0.2146,0.64381 -1.26579,1.29356 -2.33598,1.44388 -3.50915,0.49292 -12.91243,3.79044 -14.49544,5.08323 -1.51018,1.23331 -8.75742,4.11433 -12.13545,4.82424 -0.92681,0.19477 -2.50181,0.77221 -3.5,1.28319 -2.85626,1.46215 -8.50506,2.32747 -7.80559,1.19571 z m 34.03981,-27.90546 c -0.52166,-0.84406 4.06297,-0.80155 4.90957,0.0455 0.34355,0.34375 -0.52731,0.625 -1.93526,0.625 -1.40795,0 -2.74639,-0.30173 -2.97431,-0.67052 z m 6.95796,-0.068 c -0.35034,-0.56686 0.0511,-0.7345 0.94098,-0.39301 1.73242,0.66479 2.04939,1.38156 0.61096,1.38156 -0.51754,0 -1.21592,-0.44485 -1.55194,-0.98855 z m -2.79729,-9.21197 c -0.70814,-0.45004 0.13785,-0.7752 2.04021,-0.78417 1.7875,-0.008 3.25,0.40672 3.25,0.92254 0,1.08476 -3.51007,0.99295 -5.29021,-0.13837 z m -24.96453,-0.95696 c -0.58514,-0.36161 -1.62168,-0.44344 -2.30343,-0.18183 -0.68174,0.26161 -1.54608,-0.0204 -1.92076,-0.62659 -0.4633,-0.74964 0.22414,-0.91516 2.14885,-0.51741 3.6479,0.75386 10.72103,0.95182 11.90883,0.3333 0.50669,-0.26385 3.28375,-0.39428 6.17125,-0.28986 6.9325,0.25072 7.25,0.30517 7.25,1.24335 0,0.9548 -21.71392,0.99126 -23.25474,0.039 z M 278,134.21192 c -4.50365,-0.68684 -4.27874,-1.98836 0.40801,-2.36112 2.52559,-0.20086 4.59199,-0.0796 4.59199,0.26955 0,1.35945 -2.61843,2.45477 -5,2.09157 z m -9.75,-0.90125 c 0.9625,-0.25152 2.5375,-0.25152 3.5,0 0.9625,0.25153 0.175,0.45733 -1.75,0.45733 -1.925,0 -2.7125,-0.2058 -1.75,-0.45733 z M 286,132.05902 C 286,131.47656 286.45,131 287,131 c 0.55,0 1,0.19844 1,0.44098 0,0.24254 -0.45,0.7191 -1,1.05902 -0.55,0.33992 -1,0.14148 -1,-0.44098 z m 3,-0.94244 c 0,-0.48589 1.22894,-1.11835 2.73098,-1.40549 2.55447,-0.48831 2.60675,-0.43121 0.80887,0.88343 C 290.34229,132.20141 289,132.39938 289,131.11658 z m 7,-2.01807 c 0,-0.51678 1.4625,-1.25232 3.25,-1.63453 1.7875,-0.38221 3.71509,-1.06722 4.28354,-1.52225 0.56844,-0.45503 1.69344,-0.40996 2.5,0.10016 1.17962,0.74607 1.06548,0.93048 -0.58354,0.9428 -1.1275,0.008 -2.4775,0.40721 -3,0.8862 -1.45906,1.33756 -6.45,2.28748 -6.45,1.22762 z M 312.25,124.75 c 0.22917,-0.6875 0.82917,-1.27904 1.33333,-1.31452 0.50417,-0.0355 2.71667,-0.59548 4.91667,-1.24443 5.26122,-1.55193 6.43134,-1.45369 4.05887,0.34075 -1.06762,0.80751 -2.95356,1.4682 -4.19098,1.4682 -1.23742,0 -2.52797,0.45 -2.86789,1 -0.89575,1.44935 -3.74343,1.2303 -3.25,-0.25 z M 327,118.5 c 0.68469,-0.825 1.46989,-1.5 1.74489,-1.5 0.275,0 -0.0602,0.675 -0.74489,1.5 -0.68469,0.825 -1.46989,1.5 -1.74489,1.5 -0.275,0 0.0602,-0.675 0.74489,-1.5 z m -40.85547,0.0221 c 1.08801,-1.08801 9.85417,-5.22507 9.82367,-4.63613 -0.0997,1.92543 -3.04988,4.00361 -6.45072,4.54409 -2.14547,0.34097 -3.6633,0.38238 -3.37295,0.092 z m 12.37015,-6.54589 C 299.17917,110.90108 303,110.0499 303,110.97704 c 0,0.43439 -1.11138,1.00226 -2.46974,1.26193 -1.35835,0.25966 -2.26537,0.14144 -2.01558,-0.26272 z m 6.56427,-1.69107 c -0.12222,-1.88067 3.89746,-3.70877 5.22841,-2.37782 0.79019,0.79019 0.36832,1.09264 -1.52403,1.09264 -1.43916,0 -2.84364,0.5625 -3.12105,1.25 -0.38017,0.94216 -0.52383,0.95082 -0.58333,0.0352 z M 329,110.06739 C 329,109.48032 329.8632,109 330.91821,109 c 1.05502,0 2.74252,-0.25898 3.75,-0.57551 1.46182,-0.45927 1.52884,-0.38271 0.33179,0.37904 -2.6516,1.68738 -6,2.39269 -6,1.26386 z m -10.9434,-6.03241 c -0.8059,-0.49807 -0.0527,-0.96179 2.09209,-1.28809 4.15303,-0.63181 4.53561,-0.37971 1.51345,0.99728 -1.29048,0.58798 -2.91297,0.71884 -3.60554,0.29081 z"
       id="path3201"
       inkscape:connector-curvature="0" />
  </g>
</svg>
