<?xml version="1.0" encoding="UTF-8" standalone="no"?>
<!-- Created with Inkscape (http://www.inkscape.org/) -->

<svg
   xmlns:dc="http://purl.org/dc/elements/1.1/"
   xmlns:cc="http://creativecommons.org/ns#"
   xmlns:rdf="http://www.w3.org/1999/02/22-rdf-syntax-ns#"
   xmlns:svg="http://www.w3.org/2000/svg"
   xmlns="http://www.w3.org/2000/svg"
   xmlns:sodipodi="http://sodipodi.sourceforge.net/DTD/sodipodi-0.dtd"
   xmlns:inkscape="http://www.inkscape.org/namespaces/inkscape"
   width="1024"
   height="1024"
   id="svg2"
   version="1.1"
   inkscape:version="0.48.4 r9939"
   sodipodi:docname="Casual Sweater.svg">
  <defs
     id="defs4" />
  <sodipodi:namedview
     id="base"
     pagecolor="#ffffff"
     bordercolor="#666666"
     borderopacity="1.0"
     inkscape:pageopacity="0.0"
     inkscape:pageshadow="2"
     inkscape:zoom="0.35"
     inkscape:cx="-420.92678"
     inkscape:cy="150.95789"
     inkscape:document-units="px"
     inkscape:current-layer="layer1"
     showgrid="false"
     inkscape:window-width="1366"
     inkscape:window-height="705"
     inkscape:window-x="-8"
     inkscape:window-y="-8"
     inkscape:window-maximized="1" />
  <metadata
     id="metadata7">
    <rdf:RDF>
      <cc:Work
         rdf:about="">
        <dc:format>image/svg+xml</dc:format>
        <dc:type
           rdf:resource="http://purl.org/dc/dcmitype/StillImage" />
        <dc:title></dc:title>
      </cc:Work>
    </rdf:RDF>
  </metadata>
  <g
     inkscape:label="Layer 1"
     inkscape:groupmode="layer"
     id="layer1"
     transform="translate(0,-28.362183)">
    <g
       id="g3302"
       transform="matrix(4.9793622,0,0,4.9793622,-1969.871,-2594.91)">
      <path
         sodipodi:nodetypes="ccccccccccc"
         inkscape:connector-curvature="0"
         id="path3169"
         d="m 444.38681,567.09746 7.78272,4.81092 7.19734,13.13198 16.28871,17.67767 12.75318,9.97526 13.51079,-6.06092 14.52094,-9.59645 10.85914,-12.6269 6.9448,-11.11168 c 9.10593,-2.89912 10.16966,-3.75058 12.44199,-6.47408 -35.43052,0 -66.72351,0.19969 -102.29961,0.2742 z"
         style="fill:#ffffff;stroke:#ffffff;stroke-width:1px;stroke-linecap:butt;stroke-linejoin:miter;stroke-opacity:1" />
      <path
         inkscape:connector-curvature="0"
         id="path3167"
         d="m 486.96429,566.46932 20.89285,0 -12.67857,16.07143 z"
         style="fill:#ffff00;stroke:#ffff00;stroke-width:1px;stroke-linecap:butt;stroke-linejoin:miter;stroke-opacity:1" />
      <path
         sodipodi:nodetypes="cccccccccccccc"
         inkscape:connector-curvature="0"
         id="path2996"
         d="m 548,566.39286 -13.88839,0.0848 c 0,0 -6.60268,31.23214 -45.17411,44.80357 -5.17857,0 -29.90888,-25.78755 -37.91767,-41.58106 L 443.25,568.09375 c 20.20305,52.02285 47.6875,57.46875 47.6875,57.46875 C 522.06839,615.42508 548,566.39286 548,566.39286 z m -3.40625,1.96875 c 0,0 -25.09078,44.73191 -53.25,55.32589 0,0 -25.89426,-6.35501 -45.5,-53.5 l 4.625,0.0625 c 4.99786,17.32594 33.54373,43.28125 38.375,43.28125 36.36345,-11.90366 47.36161,-45.42857 47.36161,-45.42857 z"
         style="fill:#000000;stroke:#000000;stroke-width:1px;stroke-linecap:butt;stroke-linejoin:miter;stroke-opacity:1" />
      <path
         sodipodi:nodetypes="ccccc"
         inkscape:connector-curvature="0"
         id="path3002"
         d="m 489.92399,611.30433 8.97144,9.89231 0.88389,-0.50507 -9.03458,-9.89231 z"
         style="fill:#000000;stroke:#000000;stroke-width:1px;stroke-linecap:butt;stroke-linejoin:miter;stroke-opacity:1" />
      <path
         sodipodi:nodetypes="ccccc"
         inkscape:connector-curvature="0"
         id="path3002-1"
         d="m 502.29836,605.55909 7.48237,7.96129 0.88389,-0.50507 -7.54551,-7.96129 z"
         style="fill:#000000;stroke:#000000;stroke-width:1px;stroke-linecap:butt;stroke-linejoin:miter;stroke-opacity:1" />
      <path
         sodipodi:nodetypes="ccccc"
         inkscape:connector-curvature="0"
         id="path3002-1-7"
         d="m 513.69414,598.04608 5.84088,6.43523 0.88389,-0.50507 -5.90402,-6.43523 z"
         style="fill:#000000;stroke:#000000;stroke-width:1px;stroke-linecap:butt;stroke-linejoin:miter;stroke-opacity:1" />
      <path
         sodipodi:nodetypes="ccccc"
         inkscape:connector-curvature="0"
         id="path3002-1-7-4"
         d="m 524.80581,586.46088 5.76691,5.86702 0.44195,-0.63134 -5.70378,-5.93015 z"
         style="fill:#000000;stroke:#000000;stroke-width:1px;stroke-linecap:butt;stroke-linejoin:miter;stroke-opacity:1" />
      <path
         sodipodi:nodetypes="ccccc"
         inkscape:connector-curvature="0"
         id="path3002-1-7-4-0"
         d="m 531.30062,574.86131 6.92762,6.40274 0.44195,-0.63134 -6.86449,-6.46587 z"
         style="fill:#000000;stroke:#000000;stroke-width:1px;stroke-linecap:butt;stroke-linejoin:miter;stroke-opacity:1" />
      <path
         sodipodi:nodetypes="ccccc"
         inkscape:connector-curvature="0"
         id="path3002-9"
         d="m 487.46661,611.28541 -6.82087,9.15756 -0.80442,-0.62392 6.88339,-9.14872 z"
         style="fill:#000000;stroke:#000000;stroke-width:1px;stroke-linecap:butt;stroke-linejoin:miter;stroke-opacity:1" />
      <path
         sodipodi:nodetypes="ccccc"
         inkscape:connector-curvature="0"
         id="path3002-1-4"
         d="m 476.27171,602.85306 -8.25804,6.62069 -0.80441,-0.62392 8.32055,-6.61185 z"
         style="fill:#000000;stroke:#000000;stroke-width:1px;stroke-linecap:butt;stroke-linejoin:miter;stroke-opacity:1" />
      <path
         sodipodi:nodetypes="ccccc"
         inkscape:connector-curvature="0"
         id="path3002-1-7-8"
         d="m 468.6925,594.82779 -7.53033,6.29925 -0.80441,-0.62392 7.59285,-6.2904 z"
         style="fill:#000000;stroke:#000000;stroke-width:1px;stroke-linecap:butt;stroke-linejoin:miter;stroke-opacity:1" />
      <path
         sodipodi:nodetypes="ccccc"
         inkscape:connector-curvature="0"
         id="path3002-1-7-4-8"
         d="m 462.47021,587.73477 -6.82189,5.01443 -0.34914,-0.68703 6.76822,-5.08578 z"
         style="fill:#000000;stroke:#000000;stroke-width:1px;stroke-linecap:butt;stroke-linejoin:miter;stroke-opacity:1" />
      <path
         sodipodi:nodetypes="ccccc"
         inkscape:connector-curvature="0"
         id="path3002-1-7-4-0-2"
         d="m 455.54749,577.5084 -6.66272,3.2869 -0.34915,-0.68702 6.60906,-3.35826 z"
         style="fill:#000000;stroke:#000000;stroke-width:1px;stroke-linecap:butt;stroke-linejoin:miter;stroke-opacity:1" />
      <path
         sodipodi:nodetypes="ccccccccc"
         inkscape:connector-curvature="0"
         id="path3117"
         d="m 443.39286,567.8979 32.67857,18.24492 10.88388,-15.05231 7.1735,13.40184 1.94262,-2.13017 -8.95024,-15.60596 L 475,582.54075 443.39286,565.57647 z"
         style="fill:#000000;stroke:#000000;stroke-width:1px;stroke-linecap:butt;stroke-linejoin:miter;stroke-opacity:1" />
      <path
         sodipodi:nodetypes="ccccccc"
         inkscape:connector-curvature="0"
         id="path3119"
         d="m 545.065,570.24996 c -16.25,3.75 -28.99357,17.82651 -28.99357,17.82651 -6.96429,-5.35715 -10,-21.60715 -10,-21.60715 l 2.16157,-0.49559 c 0,0 3.40927,15.5311 7.70241,18.30902 0,0 11.36422,-9.72272 24.4962,-17.5514 z"
         style="fill:#000000;stroke:#000000;stroke-width:1px;stroke-linecap:butt;stroke-linejoin:miter;stroke-opacity:1" />
      <path
         sodipodi:nodetypes="ccccc"
         inkscape:connector-curvature="0"
         id="path3121"
         d="m 506.33896,567.7415 c 0,0 -20.83439,20.07678 -22.8547,40.53237 l 1.7836,1.40974 c 0,0 4.46428,-25.71429 21.875,-39.10714 z"
         style="fill:#000000;stroke:#000000;stroke-width:1px;stroke-linecap:butt;stroke-linejoin:miter;stroke-opacity:1" />
      <path
         inkscape:connector-curvature="0"
         id="path3123"
         d="M 511.60714,581.73718 C 495,597.2729 498.66072,607.09432 498.66072,607.09432 l -2.67858,1.42858 c 0,0 -3.30357,-12.58929 14.10715,-28.92858 z"
         style="fill:#000000;stroke:#000000;stroke-width:1px;stroke-linecap:butt;stroke-linejoin:miter;stroke-opacity:1" />
      <path
         sodipodi:nodetypes="csc"
         inkscape:connector-curvature="0"
         id="path3125"
         d="m 497.27697,588.70182 c -0.79971,-0.23746 -0.19993,-2.84951 2.89899,-4.35342 3.09891,-1.50391 -1.24956,4.70961 -2.89899,4.35342 z"
         style="fill:#000000;stroke:#000000;stroke-width:0.70446831px;stroke-linecap:butt;stroke-linejoin:miter;stroke-opacity:1" />
      <path
         d="m 493.03573,603.79077 c 0,1.08485 -0.87944,1.96429 -1.96429,1.96429 -1.08484,0 -1.96428,-0.87944 -1.96428,-1.96429 0,-1.08484 0.87944,-1.96428 1.96428,-1.96428 1.08485,0 1.96429,0.87944 1.96429,1.96428 z"
         sodipodi:ry="1.9642857"
         sodipodi:rx="1.9642857"
         sodipodi:cy="603.79077"
         sodipodi:cx="491.07144"
         id="path3127"
         style="fill:#000000;fill-opacity:1;stroke:#000000;stroke-opacity:1"
         sodipodi:type="arc" />
      <path
         d="m 493.03573,603.79077 c 0,1.08485 -0.87944,1.96429 -1.96429,1.96429 -1.08484,0 -1.96428,-0.87944 -1.96428,-1.96429 0,-1.08484 0.87944,-1.96428 1.96428,-1.96428 1.08485,0 1.96429,0.87944 1.96429,1.96428 z"
         sodipodi:ry="1.9642857"
         sodipodi:rx="1.9642857"
         sodipodi:cy="603.79077"
         sodipodi:cx="491.07144"
         id="path3127-4"
         style="fill:#000000;fill-opacity:1;stroke:#000000;stroke-opacity:1"
         sodipodi:type="arc"
         transform="translate(-5.6250118,-18.30359)" />
      <path
         inkscape:connector-curvature="0"
         id="path3171"
         d="m 400.71429,725.93361 c 0,0 142.14285,5 189.28571,0 47.14286,-5 -191.60714,-2.14286 -189.28571,0 z"
         style="fill:#000000;stroke:#000000;stroke-width:1px;stroke-linecap:butt;stroke-linejoin:miter;stroke-opacity:1" />
      <path
         inkscape:connector-curvature="0"
         id="path3173"
         d="m 413.03572,725.04075 c 0,0 -4.28572,-6.96428 -2.32143,-8.92857 1.96428,-1.96428 4.28571,9.10714 4.28571,9.10714 z"
         style="fill:#000000;stroke:#000000;stroke-width:1px;stroke-linecap:butt;stroke-linejoin:miter;stroke-opacity:1" />
      <path
         inkscape:connector-curvature="0"
         id="path3173-5"
         d="m 427.7576,725.24681 c 0,0 -4.28572,-6.96428 -2.32143,-8.92857 1.96428,-1.96428 4.28571,9.10714 4.28571,9.10714 z"
         style="fill:#000000;stroke:#000000;stroke-width:1px;stroke-linecap:butt;stroke-linejoin:miter;stroke-opacity:1" />
      <path
         inkscape:connector-curvature="0"
         id="path3173-5-1"
         d="m 443.82903,725.9611 c 0,0 -4.28572,-6.96428 -2.32143,-8.92857 1.96428,-1.96428 4.28571,9.10714 4.28571,9.10714 z"
         style="fill:#000000;stroke:#000000;stroke-width:1px;stroke-linecap:butt;stroke-linejoin:miter;stroke-opacity:1" />
      <path
         inkscape:connector-curvature="0"
         id="path3173-5-1-7"
         d="m 459.90046,725.78253 c 0,0 -4.28572,-6.96428 -2.32143,-8.92857 1.96428,-1.96428 4.28571,9.10714 4.28571,9.10714 z"
         style="fill:#000000;stroke:#000000;stroke-width:1px;stroke-linecap:butt;stroke-linejoin:miter;stroke-opacity:1" />
      <path
         inkscape:connector-curvature="0"
         id="path3173-5-1-7-1"
         d="m 474.91008,726.23162 c 0,0 -4.38036,-5.44564 -2.37269,-6.9816 2.00766,-1.53595 4.38035,7.12123 4.38035,7.12123 z"
         style="fill:#000000;stroke:#000000;stroke-width:0.89398342px;stroke-linecap:butt;stroke-linejoin:miter;stroke-opacity:1" />
      <path
         inkscape:connector-curvature="0"
         id="path3173-5-1-7-1-1"
         d="m 488.13459,726.90868 c 0,0 -1.22854,-5.90282 1.32272,-6.22408 2.55125,-0.32125 0.40227,7.16068 0.40227,7.16068 z"
         style="fill:#000000;stroke:#000000;stroke-width:0.83626866px;stroke-linecap:butt;stroke-linejoin:miter;stroke-opacity:1" />
      <path
         inkscape:connector-curvature="0"
         id="path3173-52"
         d="m 579.69721,723.7962 c 0,0 4.28572,-6.96428 2.32143,-8.92857 -1.96428,-1.96428 -4.28571,9.10714 -4.28571,9.10714 z"
         style="fill:#000000;stroke:#000000;stroke-width:1px;stroke-linecap:butt;stroke-linejoin:miter;stroke-opacity:1" />
      <path
         inkscape:connector-curvature="0"
         id="path3173-5-7"
         d="m 564.97533,724.00226 c 0,0 4.28572,-6.96428 2.32143,-8.92857 -1.96428,-1.96428 -4.28571,9.10714 -4.28571,9.10714 z"
         style="fill:#000000;stroke:#000000;stroke-width:1px;stroke-linecap:butt;stroke-linejoin:miter;stroke-opacity:1" />
      <path
         inkscape:connector-curvature="0"
         id="path3173-5-1-6"
         d="m 548.9039,724.71655 c 0,0 4.28572,-6.96428 2.32143,-8.92857 -1.96428,-1.96428 -4.28571,9.10714 -4.28571,9.10714 z"
         style="fill:#000000;stroke:#000000;stroke-width:1px;stroke-linecap:butt;stroke-linejoin:miter;stroke-opacity:1" />
      <path
         inkscape:connector-curvature="0"
         id="path3173-5-1-7-14"
         d="m 532.83247,724.53798 c 0,0 4.28572,-6.96428 2.32143,-8.92857 -1.96428,-1.96428 -4.28571,9.10714 -4.28571,9.10714 z"
         style="fill:#000000;stroke:#000000;stroke-width:1px;stroke-linecap:butt;stroke-linejoin:miter;stroke-opacity:1" />
      <path
         inkscape:connector-curvature="0"
         id="path3173-5-1-7-1-2"
         d="m 517.82285,724.98707 c 0,0 4.38036,-5.44564 2.37269,-6.9816 -2.00766,-1.53595 -4.38035,7.12123 -4.38035,7.12123 z"
         style="fill:#000000;stroke:#000000;stroke-width:0.89398342px;stroke-linecap:butt;stroke-linejoin:miter;stroke-opacity:1" />
      <path
         inkscape:connector-curvature="0"
         id="path3173-5-1-7-1-1-3"
         d="m 504.59834,725.66413 c 0,0 1.22854,-5.90282 -1.32272,-6.22408 -2.55125,-0.32125 -0.40227,7.16068 -0.40227,7.16068 z"
         style="fill:#000000;stroke:#000000;stroke-width:0.83626866px;stroke-linecap:butt;stroke-linejoin:miter;stroke-opacity:1" />
    </g>
  </g>
</svg>
