<?xml version="1.0" encoding="UTF-8" standalone="no"?>
<!-- Created with Inkscape (http://www.inkscape.org/) -->

<svg
   xmlns:dc="http://purl.org/dc/elements/1.1/"
   xmlns:cc="http://creativecommons.org/ns#"
   xmlns:rdf="http://www.w3.org/1999/02/22-rdf-syntax-ns#"
   xmlns:svg="http://www.w3.org/2000/svg"
   xmlns="http://www.w3.org/2000/svg"
   xmlns:sodipodi="http://sodipodi.sourceforge.net/DTD/sodipodi-0.dtd"
   xmlns:inkscape="http://www.inkscape.org/namespaces/inkscape"
   width="1024"
   height="1024"
   id="svg2"
   version="1.1"
   inkscape:version="0.48.4 r9939"
   sodipodi:docname="aMBULANCE DRIVER.svg">
  <defs
     id="defs4" />
  <sodipodi:namedview
     id="base"
     pagecolor="#ffffff"
     bordercolor="#666666"
     borderopacity="1.0"
     inkscape:pageopacity="0.0"
     inkscape:pageshadow="2"
     inkscape:zoom="0.35355339"
     inkscape:cx="-247.55523"
     inkscape:cy="543.75683"
     inkscape:document-units="px"
     inkscape:current-layer="layer1"
     showgrid="false"
     inkscape:window-width="1366"
     inkscape:window-height="705"
     inkscape:window-x="-8"
     inkscape:window-y="-8"
     inkscape:window-maximized="1" />
  <metadata
     id="metadata7">
    <rdf:RDF>
      <cc:Work
         rdf:about="">
        <dc:format>image/svg+xml</dc:format>
        <dc:type
           rdf:resource="http://purl.org/dc/dcmitype/StillImage" />
        <dc:title></dc:title>
      </cc:Work>
    </rdf:RDF>
  </metadata>
  <g
     inkscape:label="Layer 1"
     inkscape:groupmode="layer"
     id="layer1"
     transform="translate(0,-28.362183)">
    <path
       style="fill:#f7d117;fill-opacity:1;stroke:#f7d117;stroke-width:3.41755772px;stroke-linecap:butt;stroke-linejoin:miter;stroke-opacity:1"
       d="m 350.38653,56.382691 338.40254,0 L 587.95196,265.66828 535.8243,420.28335 511.04227,416.86649 475.15108,314.35926 420.45979,170.84911 z"
       id="path3063"
       inkscape:connector-curvature="0"
       sodipodi:nodetypes="cccccccc" />
    <path
       style="fill:#000000;stroke:#000000;stroke-width:3.41755772px;stroke-linecap:butt;stroke-linejoin:miter;stroke-opacity:1"
       d="m 398.6278,504.73871 0,55.22557 32.80265,0 0,-87.15287 -185.16235,0 -185.162351,0 0,87.15287 32.802654,0 0,-55.22557 152.359697,0 z"
       id="path3044"
       inkscape:connector-curvature="0"
       sodipodi:nodetypes="ccccccccccc" />
    <path
       sodipodi:nodetypes="ccsssssssssscssssssssssccc"
       inkscape:connector-curvature="0"
       id="path2998"
       d="m 506.41729,1044.9138 0,-590.94948 c 0,0 -6.83547,-52.7016 -68.97454,-101.28692 C 375.79294,304.47464 184.04705,289.1087 170.09006,224.54336 158.1406,169.26489 186.57071,90.917878 219.53201,67.121561 c 29.70655,-21.446509 28.68854,1.220314 3.66237,35.389409 -15.60125,21.30086 -54.32509,109.82916 -16.48065,131.18485 52.78123,29.78452 168.46882,61.0162 232.56018,90.30397 18.20987,8.32134 22.91339,-8.20059 11.5975,-39.05036 C 437.44275,248.3397 390.63018,143.9408 350.15634,73.223171 c -10.34373,-18.073096 14.03906,-30.508086 37.84445,6.101644 22.63054,34.802905 98.81976,230.642615 117.8061,302.030245 5.71467,21.48689 11.53511,29.66208 15.75171,29.94978 4.21664,-0.2877 10.03711,-8.46289 15.75174,-29.94978 18.9862,-71.38763 95.17564,-267.22734 117.80624,-302.030245 23.80541,-36.60973 48.18818,-24.17474 37.84434,-6.101644 C 652.48697,143.9408 605.67461,248.3397 592.24583,284.94943 c -11.31596,30.84977 -6.61252,47.3717 11.59763,39.05036 64.09139,-29.28777 179.77895,-60.51945 232.56016,-90.30397 37.84432,-21.35569 -0.87952,-109.88399 -16.48089,-131.18485 -25.02607,-34.169095 -26.044,-56.835918 3.66262,-35.389409 32.96108,23.796317 61.39134,102.143329 49.44196,157.421799 -13.95722,64.56534 -205.70292,79.93128 -267.3527,128.13404 -62.1392,48.58532 -68.97465,101.28692 -68.97465,101.28692 l 0,590.94948 z"
       style="fill:#000000;stroke:#000000;stroke-width:3.41755772px;stroke-linecap:butt;stroke-linejoin:miter;stroke-opacity:1" />
    <g
       transform="matrix(0.40402622,0,0,0.40387256,560.03256,398.77698)"
       id="layer1-9"
       inkscape:label="Layer 1">
      <g
         inkscape:label="Layer 1"
         id="layer1-8"
         transform="translate(-2568.6703,-93.790541)">
        <g
           id="g3036"
           transform="matrix(12.600469,0,0,12.600469,-4247.6104,-6152.3087)" />
      </g>
      <path
         inkscape:connector-curvature="0"
         id="path3073"
         d=""
         style="fill:#0b6bbc;fill-opacity:1;stroke:#0b6bbc;stroke-width:2.02030516;stroke-opacity:1" />
      <g
         transform="matrix(0.87416801,0,0,0.87416801,1296.6804,155.04481)"
         id="g3129">
        <g
           id="g3109">
          <g
             style="fill:#0b6bbc;fill-opacity:1;stroke:#0b6bbc;stroke-opacity:1"
             transform="translate(-1246.5282,64.649763)"
             id="g3034">
            <path
               inkscape:connector-curvature="0"
               style="fill:#0b6bbc;stroke:#0b6bbc"
               d="m 206.07112,-188.10515 286.88333,0 0,1123.28967 -286.88333,0 z"
               id="rect2996" />
            <path
               inkscape:connector-curvature="0"
               transform="matrix(0.50196192,0.86488972,-0.86488972,0.50196192,0,0)"
               style="fill:#0b6bbc;stroke:#0b6bbc;stroke-width:1"
               d="m 355.80426,-673.67072 286.88333,0 0,1123.28968 -286.88333,0 z"
               id="rect2996-1" />
            <path
               inkscape:connector-curvature="0"
               transform="matrix(-0.49759478,0.86740961,-0.86740961,-0.49759478,0,0)"
               style="fill:#0b6bbc;stroke:#0b6bbc;stroke-width:1"
               d="m 8.4069872,-1051.6923 286.8833328,0 0,1123.289712 -286.8833328,0 z"
               id="rect2996-1-7" />
          </g>
          <g
             style="fill:#ffffff;stroke:#ffffff"
             id="g3095">
            <path
               style="fill:#ffffff;fill-opacity:1;stroke:#ffffff;stroke-width:1.42857146;stroke-opacity:1"
               d="m -912.7605,269.05298 c -1.77256,-82.96265 -2.72054,-151.25735 -2.10662,-151.76598 0.61391,-0.50864 7.54478,-3.05888 15.40192,-5.6672 14.82019,-4.91983 30.75615,-12.42109 35.72659,-16.816968 1.5782,-1.395761 4.31034,-4.3923 6.07143,-6.658974 l 3.20198,-4.121227 -0.0203,5.549798 c -0.0177,4.826697 -1.30033,65.352601 -5.09777,240.549801 l -0.94442,43.57143 -5.72724,7.51727 c -6.76038,8.87333 -33.82449,33.37684 -41.81793,37.86144 -0.98785,0.55423 -2.51418,-48.29326 -4.68764,-150.01939 z"
               id="path3089"
               inkscape:connector-curvature="0" />
            <path
               style="fill:#ffffff;fill-opacity:1;stroke:#ffffff;stroke-width:1.42857146;stroke-opacity:1"
               d="m -932.61149,551.86607 c -10.78793,-13.42413 -18.30035,-34.36591 -19.92595,-55.54596 -0.75292,-9.80994 -0.44991,-12.06783 2.44467,-18.21658 4.9662,-10.54936 17.51379,-22.96477 43.19181,-42.7368 37.33269,-28.74613 46.3716,-37.27835 56.48458,-53.31821 9.78037,-15.51234 10.61893,-19.9567 12.15596,-64.42629 0.76718,-22.19643 1.87044,-40.35715 2.45169,-40.35715 0.58125,0 5.51386,5.47684 10.96136,12.17075 31.26685,38.42083 40.01397,78.27876 25.85852,117.82925 -8.70757,24.32903 -21.5974,38.28972 -61.01839,66.08765 -43.53505,30.69898 -56.70224,45.95348 -63.07527,73.07418 -1.28823,5.48216 -2.97181,10.1774 -3.74129,10.4339 -0.76947,0.25649 -3.37394,-1.99114 -5.78769,-4.99474 l 0,0 z"
               id="path3087"
               inkscape:connector-curvature="0" />
            <path
               style="fill:#ffffff;fill-opacity:1;stroke:#ffffff;stroke-width:1.42857146;stroke-opacity:1"
               d="m -945.02984,272.72487 c -23.67778,-25.92026 -41.52932,-61.1584 -48.72149,-96.17407 -8.94887,-43.56847 0.4015,-87.555731 23.54588,-110.767283 17.51601,-17.566847 37.44882,-24.905455 65.02597,-23.940431 12.92864,0.45242 16.85387,1.136932 22.14286,3.86145 12.21129,6.290406 17.14645,12.993098 17.13751,23.27532 -0.0117,13.552817 -7.17191,18.867953 -41.85263,31.068224 -30.5116,10.73361 -35.25354,12.95967 -43.25148,20.30399 -8.53368,7.83627 -11.96155,15.22969 -12.00203,25.88665 -0.052,13.68788 5.04494,26.13573 23.02197,56.22476 l 6.94666,11.62696 -0.0219,32.65876 c -0.012,17.9623 -0.56066,33.5085 -1.21917,34.5471 -0.87553,1.38087 -3.76513,-0.92267 -10.75216,-8.57143 l -10e-6,0 z"
               id="path3091"
               inkscape:connector-curvature="0" />
            <path
               style="fill:#ffffff;fill-opacity:1;stroke:#ffffff;stroke-width:1.42857146;stroke-opacity:1"
               d="m -858.95663,47.787374 c -10.02821,-12.955038 -23.50429,-19.08373 -44.35773,-20.173137 l -13.84916,-0.723496 -0.94464,-7.560664 c -0.51956,-4.158366 -0.716,-20.4119699 -0.43656,-36.11912 l 0.5081,-28.558454 4.29878,-6.115649 c 11.68437,-16.622713 39.49844,-18.712821 52.81852,-3.969085 2.83418,3.137102 5.76723,7.319207 6.51788,9.293568 1.51099,3.974217 1.64794,90.820024 0.15099,95.747523 -0.87962,2.895407 -1.12993,2.798523 -4.70618,-1.821486 l 0,0 z"
               id="path3093"
               inkscape:connector-curvature="0" />
            <path
               style="fill:#ffffff;fill-opacity:1;stroke:#ffffff;stroke-width:1.42857146;stroke-opacity:1"
               d="m -904.94644,619.0508 c -1.47255,-68.6475 -1.28783,-81.35065 1.26105,-86.72201 4.07389,-8.58509 15.55031,-21.23944 27.58654,-30.418 6.56578,-5.00692 12.16432,-8.87694 12.44121,-8.60006 0.27688,0.27689 -0.15102,29.38629 -0.9509,64.68756 l -1.45433,64.18413 -4.48773,8.41985 c -2.46826,4.63091 -7.28207,11.52781 -10.69736,15.32644 -6.29961,7.00669 -18.90115,17.05066 -21.39239,17.05066 -0.81601,0 -1.74228,-17.6444 -2.30609,-43.92857 z"
               id="path3085"
               inkscape:connector-curvature="0" />
            <path
               style="fill:#ffffff;fill-opacity:1;stroke:#ffffff;stroke-width:1.42857146;stroke-opacity:1"
               d="m -891.18051,929.76508 c -6.9392,-7.6186 -6.97512,-8.01457 -9.13122,-100.65869 l -1.56962,-67.44441 4.33075,-7.55559 c 2.38192,-4.15558 6.46127,-9.56439 9.06522,-12.01958 5.82686,-5.49396 16.82897,-13.39315 18.65419,-13.39315 1.41576,0 0.24992,89.9073 -1.67646,129.28571 -1.02006,20.85164 -1.24706,22.00667 -8.43148,42.90069 -4.06077,11.80965 -7.38321,22.25608 -7.38321,23.21428 0,1.03867 2.01903,1.74217 5,1.74217 5.59806,0 6.24251,1.28987 2.38751,4.77859 -3.61369,3.27036 -7.77956,2.95547 -11.24568,-0.85002 l 0,0 z"
               id="path3079"
               inkscape:connector-curvature="0" />
            <path
               style="fill:#ffffff;fill-opacity:1;stroke:#ffffff;stroke-width:1.42857146;stroke-opacity:1"
               d="m -927.98121,788.31906 c -14.3577,-29.51396 -13.24886,-54.94219 3.52775,-80.89886 8.04095,-12.4409 15.58839,-20.1823 34.27398,-35.15474 18.73309,-15.0105 20.56185,-16.87373 27.8385,-28.36317 9.70722,-15.32719 14.31599,-33.98114 17.34169,-70.19035 l 0.83408,-9.98172 3.39859,4.26223 c 4.37169,5.48263 11.46014,19.89432 14.54201,29.56569 3.36815,10.56979 3.28668,38.69423 -0.14606,50.42123 -4.04862,13.83097 -7.91607,22.12172 -16.07517,34.46082 -9.13279,13.81162 -20.36537,24.56151 -36.98192,35.39272 -27.21009,17.73643 -36.57231,33.95889 -38.83366,67.28932 -0.47977,7.07143 -1.35851,13.77621 -1.95276,14.89953 -0.73782,1.39471 -3.20087,-2.3164 -7.76703,-11.7027 z"
               id="path3083"
               inkscape:connector-curvature="0" />
            <path
               style="fill:#ffffff;fill-opacity:1;stroke:#ffffff;stroke-width:1.42857146;stroke-opacity:1"
               d="m -866.52636,905.60198 c 7.12209,-22.28705 12.04847,-45.04548 14.25552,-65.85619 0.48026,-4.52846 1.38771,-7.91558 2.01657,-7.52693 2.41014,1.48955 8.5652,16.60592 9.43675,23.17592 1.19414,9.00191 -1.31697,22.17169 -5.99069,31.41881 -3.88155,7.67979 -12.61818,17.75481 -17.80193,20.52907 -2.71772,1.45447 -2.88787,1.2999 -1.91622,-1.74068 z"
               id="path3081"
               inkscape:connector-curvature="0" />
          </g>
          <path
             inkscape:connector-curvature="0"
             style="fill:#0b6bbc;fill-opacity:1;stroke:#0b6bbc;stroke-opacity:1"
             d="m -901.56117,60.897457 c 0,4.463135 -3.61809,8.081221 -8.08123,8.081221 -4.46313,0 -8.08122,-3.618086 -8.08122,-8.081221 0,-4.463135 3.61809,-8.081221 8.08122,-8.081221 4.46314,0 8.08123,3.618086 8.08123,8.081221 z"
             id="path3105" />
        </g>
      </g>
    </g>
    <path
       style="fill:#9c9c9c;fill-opacity:1;stroke:#9c9c9c;stroke-width:3.35149717px;stroke-linecap:butt;stroke-linejoin:miter;stroke-opacity:1"
       d="m 149.97511,461.56113 0,129.50054 28.38387,0 0,-130.36386 z"
       id="path3050"
       inkscape:connector-curvature="0"
       sodipodi:nodetypes="ccccc" />
    <path
       style="fill:#0b6bbc;fill-opacity:1;stroke:#0b6bbc;stroke-width:3.41755772px;stroke-linecap:butt;stroke-linejoin:miter;stroke-opacity:1"
       d="m 115.48909,469.53405 0,-139.5325 62.8378,0 0,130.7293 -28.30868,0 0,-98.37055 -13.38002,0 0,107.07131 z"
       id="path3048"
       inkscape:connector-curvature="0"
       sodipodi:nodetypes="ccccccccc" />
  </g>
</svg>
