<?xml version="1.0" encoding="UTF-8" standalone="no"?>
<!-- Created with Inkscape (http://www.inkscape.org/) -->

<svg
   xmlns:dc="http://purl.org/dc/elements/1.1/"
   xmlns:cc="http://creativecommons.org/ns#"
   xmlns:rdf="http://www.w3.org/1999/02/22-rdf-syntax-ns#"
   xmlns:svg="http://www.w3.org/2000/svg"
   xmlns="http://www.w3.org/2000/svg"
   xmlns:sodipodi="http://sodipodi.sourceforge.net/DTD/sodipodi-0.dtd"
   xmlns:inkscape="http://www.inkscape.org/namespaces/inkscape"
   width="1024"
   height="1024"
   id="svg3000"
   version="1.1"
   inkscape:version="0.48.4 r9939"
   sodipodi:docname="Girl Face 3.svg"
   inkscape:export-filename="C:\Users\Benjamin\Documents\GitHub\LEGO-Textures\Complete\City\Girl Face 3.png"
   inkscape:export-xdpi="90"
   inkscape:export-ydpi="90">
  <defs
     id="defs3002" />
  <sodipodi:namedview
     id="base"
     pagecolor="#ffffff"
     bordercolor="#666666"
     borderopacity="1.0"
     inkscape:pageopacity="0.0"
     inkscape:pageshadow="2"
     inkscape:zoom="0.24748737"
     inkscape:cx="1018.8187"
     inkscape:cy="604.88679"
     inkscape:document-units="px"
     inkscape:current-layer="layer1"
     showgrid="false"
     inkscape:window-width="1366"
     inkscape:window-height="705"
     inkscape:window-x="-8"
     inkscape:window-y="-8"
     inkscape:window-maximized="1" />
  <metadata
     id="metadata3005">
    <rdf:RDF>
      <cc:Work
         rdf:about="">
        <dc:format>image/svg+xml</dc:format>
        <dc:type
           rdf:resource="http://purl.org/dc/dcmitype/StillImage" />
        <dc:title></dc:title>
      </cc:Work>
    </rdf:RDF>
  </metadata>
  <g
     inkscape:label="Layer 1"
     inkscape:groupmode="layer"
     id="layer1"
     transform="translate(0,-28.362183)">
    <g
       id="g3227"
       transform="matrix(2.7394236,0,0,2.7394236,-524.59978,-1328.8773)">
      <path
         sodipodi:nodetypes="ssscss"
         inkscape:connector-curvature="0"
         id="path3019"
         d="m 219.2031,530.36585 c 9.7012,-1.52629 17.42513,1.38897 28.53681,7.95496 11.11168,6.56599 23.1899,6.16453 27.14785,6.69226 3.78807,0.50507 12.2481,9.59645 -5.68211,9.09137 -24.47529,-3.58681 -32.54953,-18.02863 -51.0127,-17.80394 -17.1712,0.20897 -2.72727,-5.34664 1.01015,-5.93465 z"
         style="fill:#532115;fill-opacity:1;stroke:#532115;stroke-width:1px;stroke-linecap:butt;stroke-linejoin:miter;stroke-opacity:1" />
      <path
         style="fill:#532115;fill-opacity:1;stroke:#532115;stroke-width:1px;stroke-linecap:butt;stroke-linejoin:miter;stroke-opacity:1"
         d="m 379.96969,521.61585 c -9.21685,-3.39006 -21.53227,6.92468 -32.64395,13.49067 -11.11168,6.56599 -23.01133,9.37882 -26.96928,9.90655 -3.78807,0.50507 -9.92667,8.34645 8.00354,7.84137 24.47529,-3.58681 34.16438,-24.72522 52.61984,-25.30394 16.1,-0.50486 3.20924,-4.38271 -1.01015,-5.93465 z"
         id="path3032"
         inkscape:connector-curvature="0"
         sodipodi:nodetypes="ssscss" />
      <path
         sodipodi:nodetypes="cscsscscssc"
         inkscape:connector-curvature="0"
         id="path3006"
         d="m 275.02296,575.32637 c 0,0 -13.85429,-8.54023 -33.66248,-3.28022 -19.8082,5.26003 -24.0139,-12.87372 -24.0139,-12.87372 0,0 3.79854,5.50478 7.65158,6.16172 3.85304,0.65692 4.89677,2.64361 3.61654,-1.29375 -1.28022,-3.93735 -1.0036,-6.51184 -1.0036,-6.51184 0,0 4.82065,7.97555 7.11686,7.2696 2.29619,-0.70595 1.7296,-2.50967 1.12394,-7.06363 0,0 3.6515,5.17488 6.41041,4.9746 2.75894,-0.20027 22.50543,-0.45105 26.22168,3.27163 5.74477,5.75467 6.53897,9.34561 6.53897,9.34561 z"
         style="fill:#000000;stroke:#000000;stroke-width:0.9047358px;stroke-linecap:butt;stroke-linejoin:miter;stroke-opacity:1" />
      <path
         sodipodi:type="arc"
         style="fill:#000000;fill-opacity:1;stroke:#000000;stroke-opacity:1"
         id="path3048"
         sodipodi:cx="286.6308"
         sodipodi:cy="617.99658"
         sodipodi:rx="20.960665"
         sodipodi:ry="20.960665"
         d="m 307.59146,617.99658 c 0,11.57626 -9.38441,20.96067 -20.96066,20.96067 -11.57626,0 -20.96067,-9.38441 -20.96067,-20.96067 0,-11.57625 9.38441,-20.96066 20.96067,-20.96066 11.57625,0 20.96066,9.38441 20.96066,20.96066 z"
         transform="matrix(0.83649921,0,0,0.94247295,15.084565,5.3509251)" />
      <path
         sodipodi:type="arc"
         style="fill:#ffffff;fill-opacity:1;stroke:#ffffff;stroke-opacity:1"
         id="path3050"
         sodipodi:cx="286.37823"
         sodipodi:cy="606.63239"
         sodipodi:rx="8.586297"
         sodipodi:ry="8.586297"
         d="m 294.96453,606.63239 c 0,4.74208 -3.84421,8.58629 -8.5863,8.58629 -4.74208,0 -8.58629,-3.84421 -8.58629,-8.58629 0,-4.74209 3.84421,-8.5863 8.58629,-8.5863 4.74209,0 8.5863,3.84421 8.5863,8.5863 z"
         transform="matrix(0.83769692,0,0,0.83769692,14.741261,71.265668)" />
      <path
         style="fill:#000000;stroke:#000000;stroke-width:0.9047358px;stroke-linecap:butt;stroke-linejoin:miter;stroke-opacity:1"
         d="m 318.36183,575.32637 c 0,0 13.85429,-8.54023 33.66248,-3.28022 19.8082,5.26003 24.0139,-12.87372 24.0139,-12.87372 0,0 -3.79854,5.50478 -7.65158,6.16172 -3.85304,0.65692 -4.89677,2.64361 -3.61654,-1.29375 1.28022,-3.93735 1.0036,-6.51184 1.0036,-6.51184 0,0 -4.82065,7.97555 -7.11686,7.2696 -2.29619,-0.70595 -1.7296,-2.50967 -1.12394,-7.06363 0,0 -3.6515,5.17488 -6.41041,4.9746 -2.75894,-0.20027 -22.50543,-0.45105 -26.22168,3.27163 -5.74477,5.75467 -6.53897,9.34561 -6.53897,9.34561 z"
         id="path3097"
         inkscape:connector-curvature="0"
         sodipodi:nodetypes="cscsscscssc" />
      <path
         transform="matrix(-0.83649921,0,0,0.94247295,578.30023,5.3509251)"
         d="m 307.59146,617.99658 c 0,11.57626 -9.38441,20.96067 -20.96066,20.96067 -11.57626,0 -20.96067,-9.38441 -20.96067,-20.96067 0,-11.57625 9.38441,-20.96066 20.96067,-20.96066 11.57625,0 20.96066,9.38441 20.96066,20.96066 z"
         sodipodi:ry="20.960665"
         sodipodi:rx="20.960665"
         sodipodi:cy="617.99658"
         sodipodi:cx="286.6308"
         id="path3099"
         style="fill:#000000;fill-opacity:1;stroke:#000000;stroke-opacity:1"
         sodipodi:type="arc" />
      <path
         transform="matrix(-0.83769692,0,0,0.83769692,578.64353,71.265668)"
         d="m 294.96453,606.63239 c 0,4.74208 -3.84421,8.58629 -8.5863,8.58629 -4.74208,0 -8.58629,-3.84421 -8.58629,-8.58629 0,-4.74209 3.84421,-8.5863 8.58629,-8.5863 4.74209,0 8.5863,3.84421 8.5863,8.5863 z"
         sodipodi:ry="8.586297"
         sodipodi:rx="8.586297"
         sodipodi:cy="606.63239"
         sodipodi:cx="286.37823"
         id="path3101"
         style="fill:#ffffff;fill-opacity:1;stroke:#ffffff;stroke-opacity:1"
         sodipodi:type="arc" />
      <path
         sodipodi:nodetypes="cssssc"
         inkscape:connector-curvature="0"
         id="path3105"
         d="m 247.67857,645.57647 c 0,0 10.26936,-0.007 24.07433,-1.25898 6.92209,-0.62755 11.99058,-4.28866 17.45426,-3.87248 5.46367,0.41617 9.55616,4.77604 13.90996,4.7347 6.2896,-0.0597 10.79128,-7.4718 19.38659,-3.97189 5.51035,2.24374 8.75527,5.40046 14.99629,10.79722 0,0 -23.5951,3.49346 -23.72137,4.12481 -0.12626,0.63134 -47.60343,0.25253 -47.60343,0.25253 z"
         style="fill:#a8390b;fill-opacity:1;stroke:#a8390b;stroke-width:1px;stroke-linecap:butt;stroke-linejoin:miter;stroke-opacity:1" />
      <path
         sodipodi:nodetypes="csccc"
         inkscape:connector-curvature="0"
         id="path3107"
         d="m 269.10714,657.54075 c 0,0 14.98675,11.26213 33.75,10.71429 12.23214,-0.35715 21.96429,-2.67857 29.28572,-11.42857 l -48.03572,0.53571 z"
         style="fill:#a8390b;fill-opacity:1;stroke:#a8390b;stroke-width:1px;stroke-linecap:butt;stroke-linejoin:miter;stroke-opacity:1" />
      <path
         sodipodi:nodetypes="sssss"
         inkscape:connector-curvature="0"
         id="path3103"
         d="m 265.98214,658.96932 c -15.7259,-2.23609 -35.80357,-20.53571 -8.48214,-10.71428 30.58439,10.99439 66.96429,4.28571 72.32143,3.21428 5.35714,-1.07142 20.53571,-3.03571 7.85714,4.10715 -12.67857,7.14285 -42.25787,7.57878 -71.69643,3.39285 z"
         style="fill:#000000;stroke:#000000;stroke-width:1px;stroke-linecap:butt;stroke-linejoin:miter;stroke-opacity:1" />
      <path
         d="m 369.28572,630.2193 c 0,1.28209 -1.03934,2.32143 -2.32143,2.32143 -1.28209,0 -2.32142,-1.03934 -2.32142,-2.32143 0,-1.28209 1.03933,-2.32143 2.32142,-2.32143 1.28209,0 2.32143,1.03934 2.32143,2.32143 z"
         sodipodi:ry="2.3214285"
         sodipodi:rx="2.3214285"
         sodipodi:cy="630.2193"
         sodipodi:cx="366.96429"
         id="path3109"
         style="fill:#fdaf4b;fill-opacity:1;stroke:#fdaf4b;stroke-opacity:1"
         sodipodi:type="arc" />
      <path
         d="m 356.42857,615.57648 c 0,1.67658 -1.35914,3.03571 -3.03572,3.03571 -1.67658,0 -3.03571,-1.35913 -3.03571,-3.03571 0,-1.67658 1.35913,-3.03572 3.03571,-3.03572 1.67658,0 3.03572,1.35914 3.03572,3.03572 z"
         sodipodi:ry="3.0357144"
         sodipodi:rx="3.0357144"
         sodipodi:cy="615.57648"
         sodipodi:cx="353.39285"
         id="path3111"
         style="fill:#fdaf4b;fill-opacity:1;stroke:#fdaf4b;stroke-opacity:1"
         sodipodi:type="arc" />
      <path
         d="m 373.39287,610.75507 c 0,1.28209 -1.03934,2.32142 -2.32143,2.32142 -1.28209,0 -2.32143,-1.03933 -2.32143,-2.32142 0,-1.28209 1.03934,-2.32143 2.32143,-2.32143 1.28209,0 2.32143,1.03934 2.32143,2.32143 z"
         sodipodi:ry="2.3214285"
         sodipodi:rx="2.3214285"
         sodipodi:cy="610.75507"
         sodipodi:cx="371.07144"
         id="path3113"
         style="fill:#fdaf4b;fill-opacity:1;stroke:#fdaf4b;stroke-opacity:1"
         sodipodi:type="arc" />
      <path
         d="m 386.42858,618.79077 c 0,1.57796 -1.27918,2.85714 -2.85714,2.85714 -1.57795,0 -2.85714,-1.27918 -2.85714,-2.85714 0,-1.57795 1.27919,-2.85714 2.85714,-2.85714 1.57796,0 2.85714,1.27919 2.85714,2.85714 z"
         sodipodi:ry="2.8571429"
         sodipodi:rx="2.8571429"
         sodipodi:cy="618.79077"
         sodipodi:cx="383.57144"
         id="path3115"
         style="fill:#fdaf4b;fill-opacity:1;stroke:#fdaf4b;stroke-opacity:1"
         sodipodi:type="arc" />
      <path
         d="m 388.21427,603.43359 c 0,0.98623 -0.79949,1.78572 -1.78571,1.78572 -0.98622,0 -1.78572,-0.79949 -1.78572,-1.78572 0,-0.98622 0.7995,-1.78571 1.78572,-1.78571 0.98622,0 1.78571,0.79949 1.78571,1.78571 z"
         sodipodi:ry="1.7857143"
         sodipodi:rx="1.7857143"
         sodipodi:cy="603.43359"
         sodipodi:cx="386.42856"
         id="path3119"
         style="fill:#fdaf4b;fill-opacity:1;stroke:#fdaf4b;stroke-opacity:1"
         sodipodi:type="arc" />
      <path
         d="m 212.38458,596.53082 c 0,1.11579 -0.90452,2.02031 -2.02031,2.02031 -1.11578,0 -2.0203,-0.90452 -2.0203,-2.02031 0,-1.11578 0.90452,-2.0203 2.0203,-2.0203 1.11579,0 2.02031,0.90452 2.02031,2.0203 z"
         sodipodi:ry="2.0203052"
         sodipodi:rx="2.0203052"
         sodipodi:cy="596.53082"
         sodipodi:cx="210.36427"
         id="path3121"
         style="fill:#fdaf4b;fill-opacity:1;stroke:#fdaf4b;stroke-opacity:1"
         sodipodi:type="arc" />
      <path
         d="m 210.86934,614.33478 c 0,0.97631 -0.79145,1.76776 -1.76776,1.76776 -0.97631,0 -1.76777,-0.79145 -1.76777,-1.76776 0,-0.97631 0.79146,-1.76777 1.76777,-1.76777 0.97631,0 1.76776,0.79146 1.76776,1.76777 z"
         sodipodi:ry="1.767767"
         sodipodi:rx="1.767767"
         sodipodi:cy="614.33478"
         sodipodi:cx="209.10158"
         id="path3123"
         style="fill:#fdaf4b;fill-opacity:1;stroke:#fdaf4b;stroke-opacity:1"
         sodipodi:type="arc" />
      <path
         d="m 226.27417,607.39001 c 0,1.67368 -1.35678,3.03046 -3.03046,3.03046 -1.67367,0 -3.03045,-1.35678 -3.03045,-3.03046 0,-1.67367 1.35678,-3.03045 3.03045,-3.03045 1.67368,0 3.03046,1.35678 3.03046,3.03045 z"
         sodipodi:ry="3.0304577"
         sodipodi:rx="3.0304577"
         sodipodi:cy="607.39001"
         sodipodi:cx="223.24371"
         id="path3125"
         style="fill:#fdaf4b;fill-opacity:1;stroke:#fdaf4b;stroke-opacity:1"
         sodipodi:type="arc" />
      <path
         d="m 226.40043,625.82526 c 0,1.5342 -1.24371,2.77792 -2.77792,2.77792 -1.5342,0 -2.77792,-1.24372 -2.77792,-2.77792 0,-1.53421 1.24372,-2.77792 2.77792,-2.77792 1.53421,0 2.77792,1.24371 2.77792,2.77792 z"
         sodipodi:ry="2.7779195"
         sodipodi:rx="2.7779195"
         sodipodi:cy="625.82526"
         sodipodi:cx="223.62251"
         id="path3127"
         style="fill:#fdaf4b;fill-opacity:1;stroke:#fdaf4b;stroke-opacity:1"
         sodipodi:type="arc" />
      <path
         transform="translate(0.12626907,1.1364216)"
         d="m 241.30019,612.6933 c 0,1.67367 -1.35678,3.03046 -3.03046,3.03046 -1.67368,0 -3.03046,-1.35679 -3.03046,-3.03046 0,-1.67368 1.35678,-3.03046 3.03046,-3.03046 1.67368,0 3.03046,1.35678 3.03046,3.03046 z"
         sodipodi:ry="3.0304577"
         sodipodi:rx="3.0304577"
         sodipodi:cy="612.6933"
         sodipodi:cx="238.26973"
         id="path3129"
         style="fill:#fdaf4b;fill-opacity:1;stroke:#fdaf4b;stroke-opacity:1"
         sodipodi:type="arc" />
    </g>
    <g
       id="g3204"
       transform="matrix(1.5244368,0,0,1.5244368,-142.00719,-451.99693)">
      <path
         sodipodi:nodetypes="csccccc"
         inkscape:connector-curvature="0"
         id="path3202"
         d="m 480.67659,905.96952 c 0,0 -1.84082,51.72119 44.61244,44.06102 44.9068,-7.40514 53.42466,-27.36384 58.20248,-46.4751 l -39.09122,13.89909 -26.49514,3.90912 -30.1871,-7.81823 z"
         style="fill:#a8390b;fill-opacity:1;stroke:#a8390b;stroke-width:3.43985057px;stroke-linecap:butt;stroke-linejoin:miter;stroke-opacity:1" />
      <path
         sodipodi:nodetypes="csssssc"
         inkscape:connector-curvature="0"
         id="path3198"
         d="m 562.22205,857.52614 c -13.82084,-0.9214 -37.77696,-26.72028 -69.71841,7.67823 -31.94146,34.39851 -3.68556,61.11879 19.34916,60.50453 23.03472,-0.61425 60.19738,-12.59233 81.38931,-26.10602 21.19195,-13.5137 42.69102,-4.29982 55.28332,-10.13528 12.59233,-5.83547 22.93826,-14.48717 -9.82814,-27.02739 -24.87748,-9.52099 -61.42589,-5.52832 -76.47524,-4.91407 z"
         style="fill:#000000;stroke:#000000;stroke-width:3.43985057px;stroke-linecap:butt;stroke-linejoin:miter;stroke-opacity:1" />
      <path
         sodipodi:nodetypes="cscsscscssc"
         inkscape:connector-curvature="0"
         id="path3006-4"
         d="m 534.09384,748.04736 c 0,0 -24.98388,-15.40087 -60.70445,-5.91534 -35.72065,9.48556 -43.30494,-23.21549 -43.30494,-23.21549 0,0 6.85002,9.92693 13.79827,11.11158 6.94833,1.18462 8.83051,4.76726 6.52186,-2.33308 -2.30866,-7.10033 -1.80984,-11.74296 -1.80984,-11.74296 0,0 8.69319,14.3825 12.83401,13.10948 4.14079,-1.27306 3.11902,-4.52575 2.02683,-12.73804 0,0 6.58484,9.33203 11.5601,8.97082 4.97526,-0.36108 40.58463,-0.81336 47.28625,5.89982 10.35969,10.37758 11.79191,16.85321 11.79191,16.85321 z"
         style="fill:#000000;stroke:#000000;stroke-width:1.63153458px;stroke-linecap:butt;stroke-linejoin:miter;stroke-opacity:1" />
      <path
         sodipodi:type="arc"
         style="fill:#000000;fill-opacity:1;stroke:#000000;stroke-opacity:1"
         id="path3048-0"
         sodipodi:cx="286.6308"
         sodipodi:cy="617.99658"
         sodipodi:rx="20.960665"
         sodipodi:ry="20.960665"
         d="m 307.59146,617.99658 c 0,11.57626 -9.38441,20.96067 -20.96066,20.96067 -11.57626,0 -20.96067,-9.38441 -20.96067,-20.96067 0,-11.57625 9.38441,-20.96066 20.96067,-20.96066 11.57625,0 20.96066,9.38441 20.96066,20.96066 z"
         transform="matrix(1.5084817,0,0,1.6995871,65.339782,-279.80483)" />
      <path
         sodipodi:type="arc"
         style="fill:#ffffff;fill-opacity:1;stroke:#ffffff;stroke-opacity:1"
         id="path3050-9"
         sodipodi:cx="286.37823"
         sodipodi:cy="606.63239"
         sodipodi:rx="8.586297"
         sodipodi:ry="8.586297"
         d="m 294.96453,606.63239 c 0,4.74208 -3.84421,8.58629 -8.5863,8.58629 -4.74208,0 -8.58629,-3.84421 -8.58629,-8.58629 0,-4.74209 3.84421,-8.5863 8.58629,-8.5863 4.74209,0 8.5863,3.84421 8.5863,8.5863 z"
         transform="matrix(1.5106416,0,0,1.5106416,64.720782,-160.939)" />
      <path
         style="fill:#000000;stroke:#000000;stroke-width:1.63153458px;stroke-linecap:butt;stroke-linejoin:miter;stroke-opacity:1"
         d="m 612.24797,748.04736 c 0,0 24.98381,-15.40087 60.70449,-5.91534 35.72068,9.48556 43.30494,-23.21549 43.30494,-23.21549 0,0 -6.85005,9.92693 -13.79835,11.11158 -6.94825,1.18462 -8.83044,4.76726 -6.52175,-2.33308 2.30862,-7.10033 1.80978,-11.74296 1.80978,-11.74296 0,0 -8.69323,14.3825 -12.83405,13.10948 -4.14076,-1.27306 -3.11902,-4.52575 -2.0268,-12.73804 0,0 -6.58487,9.33203 -11.56003,8.97082 -4.97529,-0.36108 -40.58473,-0.81336 -47.28628,5.89982 -10.35973,10.37758 -11.79195,16.85321 -11.79195,16.85321 z"
         id="path3097-4"
         inkscape:connector-curvature="0"
         sodipodi:nodetypes="cscsscscssc" />
      <path
         transform="matrix(-1.5084817,0,0,1.6995871,1081.002,-279.80483)"
         d="m 307.59146,617.99658 c 0,11.57626 -9.38441,20.96067 -20.96066,20.96067 -11.57626,0 -20.96067,-9.38441 -20.96067,-20.96067 0,-11.57625 9.38441,-20.96066 20.96067,-20.96066 11.57625,0 20.96066,9.38441 20.96066,20.96066 z"
         sodipodi:ry="20.960665"
         sodipodi:rx="20.960665"
         sodipodi:cy="617.99658"
         sodipodi:cx="286.6308"
         id="path3099-8"
         style="fill:#000000;fill-opacity:1;stroke:#000000;stroke-opacity:1"
         sodipodi:type="arc" />
      <path
         transform="matrix(-1.5106416,0,0,1.5106416,1081.6211,-160.939)"
         d="m 294.96453,606.63239 c 0,4.74208 -3.84421,8.58629 -8.5863,8.58629 -4.74208,0 -8.58629,-3.84421 -8.58629,-8.58629 0,-4.74209 3.84421,-8.5863 8.58629,-8.5863 4.74209,0 8.5863,3.84421 8.5863,8.5863 z"
         sodipodi:ry="8.586297"
         sodipodi:rx="8.586297"
         sodipodi:cy="606.63239"
         sodipodi:cx="286.37823"
         id="path3101-8"
         style="fill:#ffffff;fill-opacity:1;stroke:#ffffff;stroke-opacity:1"
         sodipodi:type="arc" />
      <path
         d="m 369.28572,630.2193 c 0,1.28209 -1.03934,2.32143 -2.32143,2.32143 -1.28209,0 -2.32142,-1.03934 -2.32142,-2.32143 0,-1.28209 1.03933,-2.32143 2.32142,-2.32143 1.28209,0 2.32143,1.03934 2.32143,2.32143 z"
         sodipodi:ry="2.3214285"
         sodipodi:rx="2.3214285"
         sodipodi:cy="630.2193"
         sodipodi:cx="366.96429"
         id="path3109-2"
         style="fill:#fdaf4b;fill-opacity:1;stroke:#fdaf4b;stroke-opacity:1"
         sodipodi:type="arc"
         transform="matrix(1.8033272,0,0,1.8033272,38.137442,-278.15194)" />
      <path
         d="m 356.42857,615.57648 c 0,1.67658 -1.35914,3.03571 -3.03572,3.03571 -1.67658,0 -3.03571,-1.35913 -3.03571,-3.03571 0,-1.67658 1.35913,-3.03572 3.03571,-3.03572 1.67658,0 3.03572,1.35914 3.03572,3.03572 z"
         sodipodi:ry="3.0357144"
         sodipodi:rx="3.0357144"
         sodipodi:cy="615.57648"
         sodipodi:cx="353.39285"
         id="path3111-4"
         style="fill:#fdaf4b;fill-opacity:1;stroke:#fdaf4b;stroke-opacity:1"
         sodipodi:type="arc"
         transform="matrix(1.8033272,0,0,1.8033272,38.137442,-278.15194)" />
      <path
         d="m 373.39287,610.75507 c 0,1.28209 -1.03934,2.32142 -2.32143,2.32142 -1.28209,0 -2.32143,-1.03933 -2.32143,-2.32142 0,-1.28209 1.03934,-2.32143 2.32143,-2.32143 1.28209,0 2.32143,1.03934 2.32143,2.32143 z"
         sodipodi:ry="2.3214285"
         sodipodi:rx="2.3214285"
         sodipodi:cy="610.75507"
         sodipodi:cx="371.07144"
         id="path3113-5"
         style="fill:#fdaf4b;fill-opacity:1;stroke:#fdaf4b;stroke-opacity:1"
         sodipodi:type="arc"
         transform="matrix(1.8033272,0,0,1.8033272,38.137442,-278.15194)" />
      <path
         d="m 386.42858,618.79077 c 0,1.57796 -1.27918,2.85714 -2.85714,2.85714 -1.57795,0 -2.85714,-1.27918 -2.85714,-2.85714 0,-1.57795 1.27919,-2.85714 2.85714,-2.85714 1.57796,0 2.85714,1.27919 2.85714,2.85714 z"
         sodipodi:ry="2.8571429"
         sodipodi:rx="2.8571429"
         sodipodi:cy="618.79077"
         sodipodi:cx="383.57144"
         id="path3115-5"
         style="fill:#fdaf4b;fill-opacity:1;stroke:#fdaf4b;stroke-opacity:1"
         sodipodi:type="arc"
         transform="matrix(1.8033272,0,0,1.8033272,38.137442,-278.15194)" />
      <path
         d="m 388.21427,603.43359 c 0,0.98623 -0.79949,1.78572 -1.78571,1.78572 -0.98622,0 -1.78572,-0.79949 -1.78572,-1.78572 0,-0.98622 0.7995,-1.78571 1.78572,-1.78571 0.98622,0 1.78571,0.79949 1.78571,1.78571 z"
         sodipodi:ry="1.7857143"
         sodipodi:rx="1.7857143"
         sodipodi:cy="603.43359"
         sodipodi:cx="386.42856"
         id="path3119-1"
         style="fill:#fdaf4b;fill-opacity:1;stroke:#fdaf4b;stroke-opacity:1"
         sodipodi:type="arc"
         transform="matrix(1.8033272,0,0,1.8033272,38.137442,-278.15194)" />
      <path
         d="m 212.38458,596.53082 c 0,1.11579 -0.90452,2.02031 -2.02031,2.02031 -1.11578,0 -2.0203,-0.90452 -2.0203,-2.02031 0,-1.11578 0.90452,-2.0203 2.0203,-2.0203 1.11579,0 2.02031,0.90452 2.02031,2.0203 z"
         sodipodi:ry="2.0203052"
         sodipodi:rx="2.0203052"
         sodipodi:cy="596.53082"
         sodipodi:cx="210.36427"
         id="path3121-7"
         style="fill:#fdaf4b;fill-opacity:1;stroke:#fdaf4b;stroke-opacity:1"
         sodipodi:type="arc"
         transform="matrix(1.8033272,0,0,1.8033272,38.137442,-278.15194)" />
      <path
         d="m 210.86934,614.33478 c 0,0.97631 -0.79145,1.76776 -1.76776,1.76776 -0.97631,0 -1.76777,-0.79145 -1.76777,-1.76776 0,-0.97631 0.79146,-1.76777 1.76777,-1.76777 0.97631,0 1.76776,0.79146 1.76776,1.76777 z"
         sodipodi:ry="1.767767"
         sodipodi:rx="1.767767"
         sodipodi:cy="614.33478"
         sodipodi:cx="209.10158"
         id="path3123-1"
         style="fill:#fdaf4b;fill-opacity:1;stroke:#fdaf4b;stroke-opacity:1"
         sodipodi:type="arc"
         transform="matrix(1.8033272,0,0,1.8033272,38.137442,-278.15194)" />
      <path
         d="m 226.27417,607.39001 c 0,1.67368 -1.35678,3.03046 -3.03046,3.03046 -1.67367,0 -3.03045,-1.35678 -3.03045,-3.03046 0,-1.67367 1.35678,-3.03045 3.03045,-3.03045 1.67368,0 3.03046,1.35678 3.03046,3.03045 z"
         sodipodi:ry="3.0304577"
         sodipodi:rx="3.0304577"
         sodipodi:cy="607.39001"
         sodipodi:cx="223.24371"
         id="path3125-1"
         style="fill:#fdaf4b;fill-opacity:1;stroke:#fdaf4b;stroke-opacity:1"
         sodipodi:type="arc"
         transform="matrix(1.8033272,0,0,1.8033272,38.137442,-278.15194)" />
      <path
         d="m 226.40043,625.82526 c 0,1.5342 -1.24371,2.77792 -2.77792,2.77792 -1.5342,0 -2.77792,-1.24372 -2.77792,-2.77792 0,-1.53421 1.24372,-2.77792 2.77792,-2.77792 1.53421,0 2.77792,1.24371 2.77792,2.77792 z"
         sodipodi:ry="2.7779195"
         sodipodi:rx="2.7779195"
         sodipodi:cy="625.82526"
         sodipodi:cx="223.62251"
         id="path3127-5"
         style="fill:#fdaf4b;fill-opacity:1;stroke:#fdaf4b;stroke-opacity:1"
         sodipodi:type="arc"
         transform="matrix(1.8033272,0,0,1.8033272,38.137442,-278.15194)" />
      <path
         transform="matrix(1.8033272,0,0,1.8033272,38.365132,-276.10265)"
         d="m 241.30019,612.6933 c 0,1.67367 -1.35678,3.03046 -3.03046,3.03046 -1.67368,0 -3.03046,-1.35679 -3.03046,-3.03046 0,-1.67368 1.35678,-3.03046 3.03046,-3.03046 1.67368,0 3.03046,1.35678 3.03046,3.03046 z"
         sodipodi:ry="3.0304577"
         sodipodi:rx="3.0304577"
         sodipodi:cy="612.6933"
         sodipodi:cx="238.26973"
         id="path3129-2"
         style="fill:#fdaf4b;fill-opacity:1;stroke:#fdaf4b;stroke-opacity:1"
         sodipodi:type="arc" />
      <path
         inkscape:connector-curvature="0"
         id="path3194"
         d="m 474.47046,688.11945 c 0,0 33.44471,-3.90912 58.20245,-32.57601 24.75777,-28.66689 19.97996,2.6061 4.34346,16.93955 -15.63646,14.33344 -42.1316,30.40425 -81.65717,27.79819 -39.52557,-2.6061 -15.20214,-7.81827 19.11126,-12.16173 z"
         style="fill:#532115;fill-opacity:1;stroke:#532115;stroke-width:3.43985057px;stroke-linecap:butt;stroke-linejoin:miter;stroke-opacity:1" />
      <path
         style="fill:#532115;fill-opacity:1;stroke:#532115;stroke-width:3.43985057px;stroke-linecap:butt;stroke-linejoin:miter;stroke-opacity:1"
         d="m 672.66527,688.11945 c 0,0 -33.44471,-3.90912 -58.20245,-32.57601 -24.75777,-28.66689 -19.97996,2.6061 -4.34346,16.93955 15.63646,14.33344 42.1316,30.40425 81.65717,27.79819 39.52556,-2.6061 15.20214,-7.81827 -19.11126,-12.16173 z"
         id="path3196"
         inkscape:connector-curvature="0" />
      <path
         sodipodi:nodetypes="ssscsscscs"
         inkscape:connector-curvature="0"
         id="path3200"
         d="m 526.595,887.31769 c -1.52351,1.60022 -29.9451,-8.13893 -37.46978,6.29617 -4.48941,8.61238 2.76416,24.87748 17.04567,24.41678 14.28153,-0.46067 37.77695,5.52835 85.68915,-24.26323 0,0 4.29982,-5.22121 -12.59229,-3.83911 -16.89215,1.38206 -5.3748,-3.83912 20.27052,-3.83912 25.64533,0 70.17912,-4.14626 21.49907,-19.1956 -25.18463,-5.22121 -52.51916,0.9214 -66.18641,-2.91772 -13.66725,-3.83911 -32.00241,-12.09059 -50.21566,7.37112 -5.68191,10.13528 23.58994,14.25842 21.95973,15.97071 z"
         style="fill:#ffffff;stroke:#000000;stroke-width:3.43985057px;stroke-linecap:butt;stroke-linejoin:miter;stroke-opacity:1" />
    </g>
  </g>
</svg>
