<?xml version="1.0" encoding="UTF-8" standalone="no"?>
<!-- Created with Inkscape (http://www.inkscape.org/) -->

<svg
   xmlns:dc="http://purl.org/dc/elements/1.1/"
   xmlns:cc="http://creativecommons.org/ns#"
   xmlns:rdf="http://www.w3.org/1999/02/22-rdf-syntax-ns#"
   xmlns:svg="http://www.w3.org/2000/svg"
   xmlns="http://www.w3.org/2000/svg"
   xmlns:sodipodi="http://sodipodi.sourceforge.net/DTD/sodipodi-0.dtd"
   xmlns:inkscape="http://www.inkscape.org/namespaces/inkscape"
   width="1024"
   height="1024"
   id="svg2"
   version="1.1"
   inkscape:version="0.48.4 r9939"
   sodipodi:docname="Girl Face 1.svg">
  <defs
     id="defs4" />
  <sodipodi:namedview
     id="base"
     pagecolor="#ffffff"
     bordercolor="#666666"
     borderopacity="1.0"
     inkscape:pageopacity="0.0"
     inkscape:pageshadow="2"
     inkscape:zoom="0.49497475"
     inkscape:cx="610.6712"
     inkscape:cy="422.99219"
     inkscape:document-units="px"
     inkscape:current-layer="layer1"
     showgrid="false"
     inkscape:window-width="1366"
     inkscape:window-height="705"
     inkscape:window-x="-8"
     inkscape:window-y="-8"
     inkscape:window-maximized="1" />
  <metadata
     id="metadata7">
    <rdf:RDF>
      <cc:Work
         rdf:about="">
        <dc:format>image/svg+xml</dc:format>
        <dc:type
           rdf:resource="http://purl.org/dc/dcmitype/StillImage" />
        <dc:title />
      </cc:Work>
    </rdf:RDF>
  </metadata>
  <g
     inkscape:label="Layer 1"
     inkscape:groupmode="layer"
     id="layer1"
     transform="translate(0,-28.362183)">
    <path
       style="fill:#e15104;fill-opacity:1;stroke:#e15104;stroke-width:4.87415361px;stroke-linecap:butt;stroke-linejoin:miter;stroke-opacity:1"
       d="m 197.72653,703.17603 c 0,0 100.96206,9.8446 161.29305,-24.61152 60.33098,-34.45612 117.90762,4.99539 139.13063,6.15288 20.06055,1.0941 64.31064,-30.91362 111.09791,-12.45502 46.78732,18.45865 115.45109,48.14172 125.30099,55.52514 l -155.13673,10.45994 -204.38665,1.23039 -150.82745,-17.84316 z"
       id="path3007"
       inkscape:connector-curvature="0"
       sodipodi:nodetypes="csssc" />
    <path
       style="fill:#e15104;fill-opacity:1;stroke:#e15104;stroke-width:4.87415361px;stroke-linecap:butt;stroke-linejoin:miter;stroke-opacity:1"
       d="m 253.13255,779.47165 c 0,0 123.12443,231.34865 281.95498,206.73694 158.83051,-24.61173 230.24271,-231.34867 230.24271,-231.34867 l -89.88084,77.52634 -115.73697,56.60677 -151.4431,0 L 302.3823,801.6221 z"
       id="path3009"
       inkscape:connector-curvature="0" />
    <path
       style="fill:#000000;stroke:#000000;stroke-width:4.87415361px;stroke-linecap:butt;stroke-linejoin:miter;stroke-opacity:1"
       d="m 171.8704,683.48685 c 0,0 61.56224,41.83954 320.12359,43.07008 258.56137,1.23058 284.41746,-30.76436 309.04235,-43.07008 14.13478,-5.17826 -3.69376,33.22549 -22.1624,57.83682 C 754.675,773.57112 675.4494,909.9126 514.15636,912.37387 352.86336,914.83514 203.88275,741.32367 191.57031,725.32639 179.25788,709.32892 149.70803,681.02568 171.8704,683.48685 z"
       id="path2999"
       inkscape:connector-curvature="0"
       sodipodi:nodetypes="cscsssc" />
    <path
       style="fill:#ffffff;stroke:#ffffff;stroke-width:4.87415361px;stroke-linecap:butt;stroke-linejoin:miter;stroke-opacity:1"
       d="m 264.21374,749.93787 c 43.64588,13.00267 201.92412,28.3029 470.33537,3.69166 0,0 7.38751,2.46127 -23.39361,29.53378 -30.78112,27.0725 -130.51195,113.21304 -243.78638,89.8322 C 354.09461,849.61466 275.29497,769.62705 275.29497,769.62705 c 0,0 -31.68803,-25.82846 -11.08123,-19.68918 z"
       id="path3005"
       inkscape:connector-curvature="0"
       sodipodi:nodetypes="scsscs" />
    <path
       style="fill:#000000;stroke:#000000;stroke-width:4.87415361px;stroke-linecap:butt;stroke-linejoin:miter;stroke-opacity:1"
       d="m 622.54512,199.89005 c 0,0 156.71188,-34.80594 179.34806,-36.54623 22.63607,-1.74028 102.73333,-10.4418 142.78184,19.14323 40.04866,29.58504 -10.44741,-40.02679 -74.87341,-48.72826 -64.42601,-8.70148 -238.55024,17.40294 -268.15136,24.36413 -29.60112,6.96119 -22.63618,53.94917 20.89487,41.76713 z"
       id="path2996"
       inkscape:connector-curvature="0" />
    <path
       inkscape:connector-curvature="0"
       id="path2998"
       d="m 398.7112,195.17734 c 0,0 -152.50749,-50.1011 -174.86112,-54.06671 -22.35358,-3.96561 -101.19974,-20.52907 -143.975344,4.95918 -42.77575,25.48825 14.350681,-38.80015 79.321514,-41.1012 64.97083,-2.30101 235.66527,40.85932 264.43401,50.7077 28.76874,9.8484 17.19577,55.91941 -24.91906,39.50103 z"
       style="fill:#000000;stroke:#000000;stroke-width:4.87415361px;stroke-linecap:butt;stroke-linejoin:miter;stroke-opacity:1" />
    <path
       sodipodi:type="arc"
       style="fill:#000000;fill-opacity:1;stroke:#000000;stroke-opacity:1"
       id="path3002"
       sodipodi:cx="336.78571"
       sodipodi:cy="524.14789"
       sodipodi:rx="19.642857"
       sodipodi:ry="19.642857"
       d="m 356.42856,524.14789 a 19.642857,19.642857 0 1 1 -39.28571,0 19.642857,19.642857 0 1 1 39.28571,0 z"
       transform="matrix(4.8754795,0,0,4.8728292,-1357.2477,-2125.5182)" />
    <path
       sodipodi:type="arc"
       style="fill:#ffffff;fill-opacity:1;stroke:#ffffff;stroke-opacity:1"
       id="path3000"
       sodipodi:cx="337.5"
       sodipodi:cy="518.43359"
       sodipodi:rx="7.8571429"
       sodipodi:ry="7.8571429"
       d="m 345.35714,518.43359 a 7.8571429,7.8571429 0 1 1 -15.71428,0 7.8571429,7.8571429 0 1 1 15.71428,0 z"
       transform="matrix(4.8754795,0,0,4.8728292,-1359.6854,-2138.3964)" />
    <path
       style="fill:#000000;stroke:#000000;stroke-width:4.87415361px;stroke-linecap:butt;stroke-linejoin:miter;stroke-opacity:1"
       d="m 390.95987,361.73761 c 0,0 -76.61465,-42.63727 -181.95987,-9.57167 -105.34516,33.06565 -132.334402,-63.52079 -132.334402,-63.52079 0,0 21.765505,28.71485 42.660442,31.32533 20.89489,2.61043 26.98924,13.05224 19.15366,-7.83133 -7.83557,-20.88357 -6.96496,-34.80594 -6.96496,-34.80594 0,0 27.85986,41.76713 40.04855,37.41636 12.18871,-4.35076 8.70624,-13.92237 4.35312,-38.2865 0,0 20.89494,26.97456 35.69549,25.23423 14.80053,-1.74024 121.01636,-7.83124 141.91126,11.31199 32.30015,29.59244 37.43671,48.72832 37.43671,48.72832 z"
       id="path3006"
       inkscape:connector-curvature="0"
       sodipodi:nodetypes="cscsscscssc" />
    <path
       sodipodi:nodetypes="cscsscscssc"
       inkscape:connector-curvature="0"
       id="path3008"
       d="m 623.33812,361.73761 c 0,0 76.61468,-42.63727 181.9599,-9.57167 105.34512,33.06565 132.33439,-63.52079 132.33439,-63.52079 0,0 -21.7655,28.71485 -42.66046,31.32533 -20.89486,2.61043 -26.98922,13.05224 -19.15366,-7.83133 7.83558,-20.88357 6.96499,-34.80594 6.96499,-34.80594 0,0 -27.85986,41.76713 -40.04857,37.41636 -12.18872,-4.35076 -8.70626,-13.92237 -4.3531,-38.2865 0,0 -20.89497,26.97456 -35.69553,25.23423 -14.80051,-1.74024 -121.01636,-7.83124 -141.91123,11.31199 -32.30017,29.59244 -37.43673,48.72832 -37.43673,48.72832 z"
       style="fill:#000000;stroke:#000000;stroke-width:4.87415361px;stroke-linecap:butt;stroke-linejoin:miter;stroke-opacity:1" />
    <path
       transform="matrix(4.8754795,0,0,4.8728292,-898.95268,-2125.5182)"
       d="m 356.42856,524.14789 a 19.642857,19.642857 0 1 1 -39.28571,0 19.642857,19.642857 0 1 1 39.28571,0 z"
       sodipodi:ry="19.642857"
       sodipodi:rx="19.642857"
       sodipodi:cy="524.14789"
       sodipodi:cx="336.78571"
       id="path3014"
       style="fill:#000000;fill-opacity:1;stroke:#000000;stroke-opacity:1"
       sodipodi:type="arc" />
    <path
       transform="matrix(4.8754795,0,0,4.8728292,-901.39034,-2138.3964)"
       d="m 345.35714,518.43359 a 7.8571429,7.8571429 0 1 1 -15.71428,0 7.8571429,7.8571429 0 1 1 15.71428,0 z"
       sodipodi:ry="7.8571429"
       sodipodi:rx="7.8571429"
       sodipodi:cy="518.43359"
       sodipodi:cx="337.5"
       id="path3016"
       style="fill:#ffffff;fill-opacity:1;stroke:#ffffff;stroke-opacity:1"
       sodipodi:type="arc" />
  </g>
</svg>
