<?xml version="1.0" encoding="UTF-8" standalone="no"?>
<!-- Created with Inkscape (http://www.inkscape.org/) -->

<svg
   xmlns:dc="http://purl.org/dc/elements/1.1/"
   xmlns:cc="http://creativecommons.org/ns#"
   xmlns:rdf="http://www.w3.org/1999/02/22-rdf-syntax-ns#"
   xmlns:svg="http://www.w3.org/2000/svg"
   xmlns="http://www.w3.org/2000/svg"
   xmlns:sodipodi="http://sodipodi.sourceforge.net/DTD/sodipodi-0.dtd"
   xmlns:inkscape="http://www.inkscape.org/namespaces/inkscape"
   width="1024"
   height="1024"
   id="svg2"
   version="1.1"
   inkscape:version="0.48.4 r9939"
   sodipodi:docname="New document 1">
  <defs
     id="defs4" />
  <sodipodi:namedview
     id="base"
     pagecolor="#ffffff"
     bordercolor="#666666"
     borderopacity="1.0"
     inkscape:pageopacity="0.0"
     inkscape:pageshadow="2"
     inkscape:zoom="0.24748737"
     inkscape:cx="686.37461"
     inkscape:cy="597.18431"
     inkscape:document-units="px"
     inkscape:current-layer="layer1"
     showgrid="false"
     inkscape:window-width="1366"
     inkscape:window-height="705"
     inkscape:window-x="-8"
     inkscape:window-y="-8"
     inkscape:window-maximized="1" />
  <metadata
     id="metadata7">
    <rdf:RDF>
      <cc:Work
         rdf:about="">
        <dc:format>image/svg+xml</dc:format>
        <dc:type
           rdf:resource="http://purl.org/dc/dcmitype/StillImage" />
        <dc:title></dc:title>
      </cc:Work>
    </rdf:RDF>
  </metadata>
  <g
     inkscape:label="Layer 1"
     inkscape:groupmode="layer"
     id="layer1"
     transform="translate(0,-28.362183)">
    <path
       style="fill:#000000;stroke:#000000;stroke-width:5.66780806px;stroke-linecap:butt;stroke-linejoin:miter;stroke-opacity:1"
       d="m 104.38877,830.46606 c 0,0 30.0581,150.29046 253.34679,153.15326 223.28869,2.8628 461.42838,24.55288 526.73224,-10.0196 48.66551,-25.76412 79.64637,-79.1356 68.70422,-201.81871 -3.90886,-43.8252 34.3521,-193.23033 -184.64258,-191.79903 -218.99463,1.43135 -191.79924,58.68489 -498.10551,64.41022 0,0 -180.348526,7.15668 -166.03516,186.07386 z"
       id="path3021"
       inkscape:connector-curvature="0"
       sodipodi:nodetypes="csssscc" />
    <path
       sodipodi:type="arc"
       style="fill:#000000;fill-opacity:1;stroke:#000000;stroke-opacity:1"
       id="path3015"
       sodipodi:cx="409.28571"
       sodipodi:cy="385.21933"
       sodipodi:rx="15"
       sodipodi:ry="18.571428"
       d="m 424.28571,385.21933 a 15,18.571428 0 1 1 -30,0 15,18.571428 0 1 1 30,0 z"
       transform="matrix(5.2996841,-2.0093282,2.0093282,5.2996841,-2208.9362,-785.3005)" />
    <path
       sodipodi:type="arc"
       style="fill:#ffffff;fill-opacity:1;stroke:#ffffff;stroke-opacity:1"
       id="path3013"
       sodipodi:cx="409.28571"
       sodipodi:cy="380.21933"
       sodipodi:rx="6.4285712"
       sodipodi:ry="6.4285712"
       d="m 415.71428,380.21933 a 6.4285712,6.4285712 0 1 1 -12.85715,0 6.4285712,6.4285712 0 1 1 12.85715,0 z"
       transform="matrix(5.6678083,0,0,5.6678083,-1595.6932,-1755.5711)" />
    <path
       style="fill:#000000;stroke:#000000;stroke-width:5.66780806px;stroke-linecap:butt;stroke-linejoin:miter;stroke-opacity:1"
       d="m 978.57827,544.91423 c -6.07642,9.99784 -35.66215,-47.07586 -66.55715,-61.54753 -15.93125,-7.4624 25.40618,-24.33275 69.06198,-12.88202 43.6559,11.45068 -29.34243,5.00966 -25.76406,18.60736 3.57832,13.59775 33.09,39.64706 23.25923,55.82219 z"
       id="path3017"
       inkscape:connector-curvature="0"
       sodipodi:nodetypes="sssss" />
    <path
       style="fill:#000000;stroke:#000000;stroke-width:5.66780806px;stroke-linecap:butt;stroke-linejoin:miter;stroke-opacity:1"
       d="m 692.66861,124.10094 c 5.48366,10.96738 161.74111,75.14522 196.80892,146.71212 35.06775,71.56685 57.25348,88.74292 52.95948,31.48944 -4.29404,-57.25354 -20.75437,-54.39084 -1.43134,-56.53786 19.32304,-2.14703 -24.33269,-45.80281 -48.66545,-56.53786 0,0 17.17601,-65.84152 -90.17431,-68.70421 -107.35034,-2.86264 -71.56691,-16.46039 -93.75259,-22.185731 -19.51414,-5.0359 -27.91106,1.4314 -15.74471,25.764101 z"
       id="path3019"
       inkscape:connector-curvature="0"
       sodipodi:nodetypes="sssscsss" />
    <path
       style="fill:#ffffff;stroke:#ffffff;stroke-width:5.66780806px;stroke-linecap:butt;stroke-linejoin:miter;stroke-opacity:1"
       d="m 810.03826,621.49079 c 0,0 41.50882,-4.29398 37.21478,48.66551 -4.29399,52.9592 22.90139,62.97876 -164.60381,61.54764 -187.50526,-1.43169 -446.57737,27.19527 -446.57737,27.19527 0,0 -52.9595,7.15674 -60.11618,-30.05808 -7.15674,-37.21478 104.48764,-50.0968 135.97707,-48.66551 31.48944,1.43135 221.85734,-15.74472 294.85552,-42.94011 72.99826,-27.19538 203.24999,-15.74472 203.24999,-15.74472 z"
       id="path3023"
       inkscape:connector-curvature="0" />
    <path
       style="fill:#ffffff;stroke:#ffffff;stroke-width:5.66780806px;stroke-linecap:butt;stroke-linejoin:miter;stroke-opacity:1"
       d="m 214.6018,914.91527 c 0,0 83.01758,31.48917 306.30627,35.78312 223.28868,4.29394 297.71823,2.86288 309.1689,5.72567 11.45072,2.86222 25.76409,-62.97901 -64.41017,-74.42969 -90.17426,-11.45067 -294.85558,-20.0391 -445.14602,0 -150.29049,20.03854 -105.91898,32.9209 -105.91898,32.9209 z"
       id="path3025"
       inkscape:connector-curvature="0" />
    <path
       transform="matrix(-5.2996841,-2.0093282,-2.0093282,5.2996841,3232.9362,-785.3005)"
       d="m 424.28571,385.21933 a 15,18.571428 0 1 1 -30,0 15,18.571428 0 1 1 30,0 z"
       sodipodi:ry="18.571428"
       sodipodi:rx="15"
       sodipodi:cy="385.21933"
       sodipodi:cx="409.28571"
       id="path3027"
       style="fill:#000000;fill-opacity:1;stroke:#000000;stroke-opacity:1"
       sodipodi:type="arc" />
    <path
       transform="matrix(-5.6678083,0,0,5.6678083,2619.6932,-1755.5711)"
       d="m 415.71428,380.21933 a 6.4285712,6.4285712 0 1 1 -12.85715,0 6.4285712,6.4285712 0 1 1 12.85715,0 z"
       sodipodi:ry="6.4285712"
       sodipodi:rx="6.4285712"
       sodipodi:cy="380.21933"
       sodipodi:cx="409.28571"
       id="path3029"
       style="fill:#ffffff;fill-opacity:1;stroke:#ffffff;stroke-opacity:1"
       sodipodi:type="arc" />
    <path
       sodipodi:nodetypes="sssss"
       inkscape:connector-curvature="0"
       id="path3031"
       d="m 45.421748,544.91423 c 6.076401,9.99784 35.662134,-47.07586 66.557132,-61.54753 15.93125,-7.4624 -25.406181,-24.33275 -69.062019,-12.88202 -43.65578341,11.45068 29.342471,5.00966 25.764099,18.60736 -3.578313,13.59775 -33.090025,39.64706 -23.259212,55.82219 z"
       style="fill:#000000;stroke:#000000;stroke-width:5.66780806px;stroke-linecap:butt;stroke-linejoin:miter;stroke-opacity:1" />
    <path
       sodipodi:nodetypes="sssscsss"
       inkscape:connector-curvature="0"
       id="path3033"
       d="m 330.84419,166.6095 c -5.48367,10.96738 -161.74111,75.14523 -196.80893,146.71212 -35.067745,71.56685 -57.253471,88.74293 -52.959483,31.48945 4.294043,-57.25354 20.754383,-54.39084 1.431348,-56.53787 -19.323032,-2.14702 24.332695,-45.8028 48.665445,-56.53786 0,0 -17.17601,-65.84152 90.17432,-68.70421 107.35033,-2.86264 71.5669,-16.46039 93.75258,-22.18572 19.51414,-5.03591 27.91107,1.4314 15.74472,25.76409 z"
       style="fill:#000000;stroke:#000000;stroke-width:5.66780806px;stroke-linecap:butt;stroke-linejoin:miter;stroke-opacity:1" />
  </g>
</svg>
