<?xml version="1.0" encoding="UTF-8" standalone="no"?>
<!-- Created with Inkscape (http://www.inkscape.org/) -->

<svg
   xmlns:dc="http://purl.org/dc/elements/1.1/"
   xmlns:cc="http://creativecommons.org/ns#"
   xmlns:rdf="http://www.w3.org/1999/02/22-rdf-syntax-ns#"
   xmlns:svg="http://www.w3.org/2000/svg"
   xmlns="http://www.w3.org/2000/svg"
   xmlns:sodipodi="http://sodipodi.sourceforge.net/DTD/sodipodi-0.dtd"
   xmlns:inkscape="http://www.inkscape.org/namespaces/inkscape"
   id="svg2985"
   version="1.1"
   inkscape:version="0.48.3.1 r9886"
   width="908"
   height="908"
   sodipodi:docname="Space Tech Face.svg">
  <metadata
     id="metadata2991">
    <rdf:RDF>
      <cc:Work
         rdf:about="">
        <dc:format>image/svg+xml</dc:format>
        <dc:type
           rdf:resource="http://purl.org/dc/dcmitype/StillImage" />
        <dc:title />
      </cc:Work>
    </rdf:RDF>
  </metadata>
  <defs
     id="defs2989" />
  <sodipodi:namedview
     pagecolor="#ffffff"
     bordercolor="#666666"
     borderopacity="1"
     objecttolerance="10"
     gridtolerance="10"
     guidetolerance="10"
     inkscape:pageopacity="0"
     inkscape:pageshadow="2"
     inkscape:window-width="1920"
     inkscape:window-height="1005"
     id="namedview2987"
     showgrid="false"
     inkscape:zoom="0.73514185"
     inkscape:cx="638.36111"
     inkscape:cy="534.97109"
     inkscape:window-x="-9"
     inkscape:window-y="-9"
     inkscape:window-maximized="1"
     inkscape:current-layer="g3073" />
  <path
     style="fill:#ddbd9d;stroke:#ddbc9b;stroke-width:1px;stroke-linecap:butt;stroke-linejoin:miter;stroke-opacity:1;fill-opacity:1"
     d="m 593.42289,499.23535 c -17.68366,4.42092 -62.57296,-3.4007 -92.49916,-10.54218 -29.92619,-7.14148 -38.08788,-47.26979 -42.5088,-58.49211 -4.42092,-11.22233 0.34007,-34.68719 -8.16169,-40.12831 -8.50176,-5.44113 -22.78472,-0.68014 -22.78472,-0.68014 0,0 -18.53384,0.85017 -29.07602,-3.74077 -5.17717,5.50057 -8.87988,32.97142 -11.73243,62.91302 -20.54544,49.30904 -45.90951,46.24958 -54.75134,48.97014 -8.84183,2.72056 -60.19246,4.08084 -85.69774,-0.34007 -25.50529,-4.42092 -57.47191,-47.60987 -57.47191,-47.60987 -17.34359,-11.56239 -25.29916,-92.36124 -29.58612,-96.23992 -7.14149,-6.46134 -1.92742,-0.60782 -8.84183,-2.72056 -12.24254,-3.74078 -106.782116,10.20211 -106.782116,10.20211 0,0 -23.124789,-14.28296 -2.720563,-21.08437 20.404225,-6.80141 117.324299,-9.86204 117.324299,-9.86204 0,0 13.53138,-9.16543 21.08437,-18.70387 3.7891,-4.78515 37.40774,-4.42091 46.58964,-0.68015 0.34007,2.72057 61.21267,7.82163 61.21267,7.82163 117.3243,29.58612 95.38976,15.30317 125.48599,37.06767 11.96358,8.22356 28.16212,9.9629 39.27814,6.63138 0,0 8.33172,-23.6349 40.97848,-25.84536 32.64676,-2.21045 90.11867,-17.68366 106.27201,-19.21398 83.48729,-6.46133 62.74299,-12.5826 83.65732,-6.46133 0,0 26.35546,16.32337 32.98683,21.93454 0,0 104.91173,1.87038 110.01279,6.12127 15.81327,3.23067 18.43457,3.27347 31.96662,10.54217 15.11865,8.12095 -12.24254,26.5255 -31.96662,17.68367 0,0 -59.68236,-15.13314 -117.49434,-13.09271 l -7.48154,2.55053 c -1.87039,3.06063 -8.6718,3.4007 -9.35194,32.47672 0,0 -10.20211,57.13183 -44.20916,83.4873 0,0 -36.38753,23.63488 -53.73112,27.03559 z"
     id="path3085"
     inkscape:connector-curvature="0"
     sodipodi:nodetypes="cscsccsscsscccssscccsccccscccccc" />
  <path
     sodipodi:type="arc"
     style="fill:#000000;fill-opacity:1;stroke:#000000;stroke-opacity:1"
     id="path3014"
     sodipodi:cx="253.45126"
     sodipodi:cy="450.63348"
     sodipodi:rx="62.040253"
     sodipodi:ry="62.040253"
     d="m 315.49152,450.63348 a 62.040253,62.040253 0 1 1 -124.08051,0 62.040253,62.040253 0 1 1 124.08051,0 z"
     transform="matrix(0.88384909,0,0,1.0073059,78.014576,-20.600541)" />
  <path
     transform="matrix(0.88384909,0,0,1.0073059,355.51246,-20.60006)"
     d="m 315.49152,450.63348 a 62.040253,62.040253 0 1 1 -124.08051,0 62.040253,62.040253 0 1 1 124.08051,0 z"
     sodipodi:ry="62.040253"
     sodipodi:rx="62.040253"
     sodipodi:cy="450.63348"
     sodipodi:cx="253.45126"
     id="path3018"
     style="fill:#000000;fill-opacity:1;stroke:#000000;stroke-opacity:1"
     sodipodi:type="arc" />
  <path
     sodipodi:nodetypes="cccccccssscccsccccscccssc"
     inkscape:connector-curvature="0"
     id="path2993"
     d="m 450.25324,390.07275 c -8.50176,-5.44113 -22.78472,-0.68014 -22.78472,-0.68014 0,0 -18.53384,0.85017 -29.07602,-3.74077 -64.31106,-66.22174 -230.52454,-28.82767 -239.23954,-32.3067 -7.14149,-6.46134 -1.92742,-0.60782 -8.84183,-2.72056 -12.24254,-3.74078 -106.782116,10.20211 -106.782116,10.20211 0,0 -23.124789,-14.28296 -2.720563,-21.08437 20.404225,-6.80141 117.324299,-9.86204 117.324299,-9.86204 0,0 13.53138,-9.16543 21.08437,-18.70387 3.7891,-4.78515 37.40774,-4.42091 46.58964,-0.68015 0.34007,2.72057 61.21267,7.82163 61.21267,7.82163 117.3243,29.58612 95.38976,15.30317 125.48599,37.06767 11.96358,8.22356 28.16212,9.9629 39.27814,6.63138 0,0 8.33172,-23.6349 40.97848,-25.84536 32.64676,-2.21045 90.11867,-17.68366 106.27201,-19.21398 83.48729,-6.46133 62.74299,-12.5826 83.65732,-6.46133 0,0 26.35546,16.32337 32.98683,21.93454 0,0 104.91173,1.87038 110.01279,6.12127 15.81327,3.23067 18.43457,3.27347 31.96662,10.54217 15.11865,8.12095 -12.24254,26.5255 -31.96662,17.68367 0,0 -59.68236,-15.13314 -117.49434,-13.09271 l -7.48154,2.55053 c -16.76252,-8.33495 -24.98338,-20.99375 -49.16346,-19.628 -45.73876,2.58343 -95.44973,19.52058 -139.51829,17.03526 -17.03803,-0.96088 -25.00789,21.5988 -61.78012,36.42975 z"
     style="fill:#b49f92;stroke:#b5a094;stroke-width:1px;stroke-linecap:butt;stroke-linejoin:miter;stroke-opacity:1;fill-opacity:1" />
  <path
     style="fill:#ffffff;fill-opacity:1;stroke:#ffffff;stroke-width:0.76516128;stroke-opacity:1"
     d="m 449.59043,715.78302 c -0.97111,-0.40512 -6.36919,-1.28792 -11.99572,-1.96177 -7.66055,-0.91746 -12.77225,-2.07114 -20.35143,-4.59319 -5.56675,-1.8524 -13.12201,-4.31283 -16.78944,-5.46763 -12.46512,-3.92498 -42.818,-18.91867 -50.31154,-24.85284 -4.49023,-3.55583 -13.12031,-12.4807 -13.12031,-13.56848 0,-1.89528 3.29242,-3.38411 7.4767,-3.38094 5.10089,0.003 16.63372,1.90156 20.75046,3.41443 1.67818,0.61671 8.91835,1.87547 16.08928,2.79723 7.17092,0.92177 15.9664,2.21665 19.54551,2.87752 5.6218,1.03804 9.2952,1.08295 26.99034,0.32995 26.21366,-1.11548 38.30292,-2.14263 46.72349,-3.96981 3.71116,-0.80529 9.44661,-1.85298 12.74543,-2.32822 3.29882,-0.47522 11.73331,-2.06111 18.74329,-3.52417 13.47233,-2.81185 30.61476,-4.78131 33.97379,-3.90319 3.58399,0.93692 4.0022,1.79448 2.42146,4.96523 -1.53349,3.07598 -11.64643,13.70366 -19.52628,20.5201 -7.82859,6.77212 -26.91378,20.5363 -32.61333,23.52062 -12.54422,6.56825 -34.8878,11.57145 -40.7517,9.12516 z"
     id="path3010"
     inkscape:connector-curvature="0" />
  <g
     id="g3073"
     transform="translate(-17.68366,25.845355)">
    <path
       style="fill:#974523;fill-opacity:1;stroke:#984723;stroke-opacity:1"
       d="M 525.5,277.30736 C 516.72648,272.5914 512,266.33623 512,259.44105 c 0.52191,-4.63622 3.1698,-7.80278 7.45077,-9.44105 32.53684,-16.38634 75.00718,-26.96581 106.04923,-30.16494 3.12348,-0.29943 19.00963,1.26447 22.96715,2.26098 19.05699,2.43068 48.77738,8.63792 60.02278,27.90396 0.73719,1.375 2.18685,3.4 3.22146,4.5 3.54927,3.7736 8.83903,17.41463 8.1439,21.00117 -0.60997,3.14712 -2.43856,2.70768 -5.17719,-1.24418 -1.62333,-2.34245 -4.85456,-4.94856 -8.4074,-6.78087 -50.30822,-29.65844 -119.65602,3.32079 -167.65956,8.93155 -5.46625,0.79405 -9.4492,2.84612 -13.11114,0.89969 z"
       id="path3079"
       inkscape:connector-curvature="0"
       sodipodi:nodetypes="ccccccsssccc" />
    <path
       style="fill:#000000;stroke:#000000"
       d="m 464,709.41246 c -8.25926,-0.70588 -17.51277,-2.14016 -21.5,-3.33245 -3.85,-1.15125 -9.89679,-2.7946 -13.43731,-3.65188 -3.54052,-0.85728 -7.62564,-2.40486 -9.07805,-3.43906 -1.4524,-1.03421 -7.55561,-3.97265 -13.56269,-6.52989 C 400.41488,689.90195 394.825,687.22671 394,686.5142 c -0.825,-0.71251 -5.55,-3.32385 -10.5,-5.80297 -4.95,-2.47912 -11.52756,-6.69083 -14.6168,-9.35936 -3.08924,-2.66853 -6.91424,-5.62905 -8.5,-6.57893 -7.5592,-4.52803 -15.14043,-10.74677 -25.05534,-20.55241 C 329.37254,638.33084 323.825,632.53101 323,631.33202 c -0.825,-1.19899 -3.62175,-4.60677 -6.215,-7.57285 -3.45794,-3.95507 -5.12344,-6.96097 -6.24697,-11.27447 l -1.53196,-5.8816 2.68406,-2.80155 c 3.51079,-3.66447 6.27139,-3.53451 12.05756,0.56765 6.38198,4.52457 8.42182,5.5097 12.87345,6.21718 2.07857,0.33034 5.82664,1.40437 8.32904,2.38674 6.31419,2.47876 22.93275,5.64024 39.54982,7.52386 7.7,0.87283 17.375,2.11336 21.5,2.75673 16.13885,2.51718 88.76053,0.66174 106,-2.70823 4.125,-0.80635 10.2,-1.49177 13.5,-1.52315 3.3,-0.0314 8.925,-0.67181 12.5,-1.42317 3.575,-0.75137 8.93861,-1.69625 11.91914,-2.09974 6.1322,-0.83015 18.2802,-4.74479 21.72161,-6.99969 1.25889,-0.82485 3.14403,-1.49973 4.18921,-1.49973 1.04518,0 2.97351,-0.7875 4.28518,-1.75 8.0687,-5.92078 16.40025,-7.21342 20.6963,-3.21104 3.84756,3.58455 2.44674,10.33406 -4.01829,19.36108 -1.53623,2.14502 -2.79315,4.33473 -2.79315,4.86602 0,0.53129 -1.575,3.11157 -3.5,5.73394 -1.925,2.62237 -3.5,5.22759 -3.5,5.78936 0,0.56178 -1.575,2.90657 -3.5,5.21064 -1.925,2.30407 -3.5,4.6628 -3.5,5.24162 0,3.17314 -22.73435,27.36161 -35.01854,37.25838 -8.55403,6.89156 -15.23522,11.4665 -16.77212,11.48471 -0.70987,0.008 -6.10987,1.99178 -12,4.40749 -11.28087,4.6266 -24.34313,8.16009 -32.70934,8.84825 -2.75,0.2262 -11.525,-0.1464 -19.5,-0.82799 z m 17,-22.96467 c 16.44111,-3.39909 24.57209,-6.9222 35.65185,-15.44779 3.21648,-2.475 7.83617,-5.77548 10.26597,-7.3344 5.48504,-3.51912 18.92199,-15.63843 23.09237,-20.82791 3.7806,-4.70444 3.35524,-7.38508 -1.29309,-8.14918 -3.74837,-0.61615 -20.18693,0.88716 -26.7171,2.44329 -10.48464,2.49847 -16.91404,3.7009 -23.5,4.39499 -3.85,0.40575 -8.09204,1.14731 -9.42675,1.64792 -3.85209,1.44479 -20.1408,2.86102 -38.48525,3.34612 -9.3016,0.24598 -17.68734,0.69331 -18.63498,0.99408 -0.94764,0.30077 -3.68724,0.0521 -6.088,-0.55261 -3.99109,-1.00528 -9.59513,-1.76974 -27.86502,-3.80111 -3.575,-0.39749 -7.54261,-1.30331 -8.81691,-2.01294 -1.27429,-0.70963 -6.60869,-1.72931 -11.85421,-2.26597 -8.11478,-0.8302 -9.89465,-0.74159 -11.93309,0.59405 -1.31769,0.86338 -2.39579,2.13599 -2.39579,2.82803 0,1.8909 10.86977,12.02916 16,14.92323 16.58432,9.35558 36.67308,18.3632 45.25732,20.29298 3.16652,0.71185 8.11652,2.19745 11,3.30132 7.88864,3.01998 12.45334,4.02104 21.07042,4.62087 4.30526,0.29968 8.58026,0.98397 9.5,1.52065 2.39641,1.39832 6.60679,1.25523 15.17226,-0.51562 z"
       id="path3075"
       inkscape:connector-curvature="0"
       sodipodi:nodetypes="ssssssssssssscssssssssssssssssssssscsssssssssssssssssssssssss" />
    <path
       sodipodi:type="arc"
       style="fill:#ffffff;fill-opacity:1;stroke:#ffffff;stroke-opacity:1"
       id="path3020"
       sodipodi:cx="313.32733"
       sodipodi:cy="414.80402"
       sodipodi:rx="26.210806"
       sodipodi:ry="26.210806"
       d="m 339.53814,414.80402 a 26.210806,26.210806 0 1 1 -52.42161,0 26.210806,26.210806 0 1 1 52.42161,0 z"
       transform="translate(2.7747617,-34.502135)" />
    <path
       transform="translate(281.23451,-34.502135)"
       d="m 339.53814,414.80402 a 26.210806,26.210806 0 1 1 -52.42161,0 26.210806,26.210806 0 1 1 52.42161,0 z"
       sodipodi:ry="26.210806"
       sodipodi:rx="26.210806"
       sodipodi:cy="414.80402"
       sodipodi:cx="313.32733"
       id="path3026"
       style="fill:#ffffff;fill-opacity:1;stroke:#ffffff;stroke-opacity:1"
       sodipodi:type="arc" />
    <path
       sodipodi:nodetypes="ccccccsssccc"
       inkscape:connector-curvature="0"
       id="path3028"
       d="m 379.24072,273.56658 c 8.73772,-4.71596 13.44492,-10.97113 13.44492,-17.86631 -0.51978,-4.63622 -3.15687,-7.80278 -7.42037,-9.44105 -32.4041,-16.38634 -74.70116,-26.96581 -105.61656,-30.16494 -3.11074,-0.29943 -18.93208,1.26447 -22.87345,2.26098 -18.97924,2.43068 -48.57837,8.63792 -59.77789,27.90396 -0.73419,1.375 -2.17793,3.4 -3.20832,4.5 -3.53479,3.7736 -8.80297,17.41463 -8.11067,21.00117 0.60748,3.14712 2.42861,2.70768 5.15606,-1.24418 1.61671,-2.34245 4.83476,-4.94856 8.3731,-6.78087 50.10297,-29.65844 119.16784,3.32079 166.97553,8.93155 5.44395,0.79405 9.41065,2.84612 13.05765,0.89969 z"
       style="fill:#974523;fill-opacity:1;stroke:#984723;stroke-width:0.99795794;stroke-opacity:1" />
  </g>
</svg>
