<?xml version="1.0" encoding="UTF-8" standalone="no"?>
<!-- Created with Inkscape (http://www.inkscape.org/) -->

<svg
   xmlns:dc="http://purl.org/dc/elements/1.1/"
   xmlns:cc="http://creativecommons.org/ns#"
   xmlns:rdf="http://www.w3.org/1999/02/22-rdf-syntax-ns#"
   xmlns:svg="http://www.w3.org/2000/svg"
   xmlns="http://www.w3.org/2000/svg"
   xmlns:sodipodi="http://sodipodi.sourceforge.net/DTD/sodipodi-0.dtd"
   xmlns:inkscape="http://www.inkscape.org/namespaces/inkscape"
   id="svg2985"
   version="1.1"
   inkscape:version="0.48.3.1 r9886"
   width="1920"
   height="1920"
   sodipodi:docname="Mermaid Torso.png">
  <metadata
     id="metadata2991">
    <rdf:RDF>
      <cc:Work
         rdf:about="">
        <dc:format>image/svg+xml</dc:format>
        <dc:type
           rdf:resource="http://purl.org/dc/dcmitype/StillImage" />
        <dc:title></dc:title>
      </cc:Work>
    </rdf:RDF>
  </metadata>
  <defs
     id="defs2989" />
  <sodipodi:namedview
     pagecolor="#ffffff"
     bordercolor="#666666"
     borderopacity="1"
     objecttolerance="10"
     gridtolerance="10"
     guidetolerance="10"
     inkscape:pageopacity="0"
     inkscape:pageshadow="2"
     inkscape:window-width="1920"
     inkscape:window-height="1005"
     id="namedview2987"
     showgrid="false"
     inkscape:zoom="0.18708206"
     inkscape:cx="-574.02819"
     inkscape:cy="541.59657"
     inkscape:window-x="-9"
     inkscape:window-y="-9"
     inkscape:window-maximized="1"
     inkscape:current-layer="svg2985" />
  <g
     id="g3032"
     transform="matrix(9.8637505,0,0,9.8637505,31.207932,-306.3427)">
    <path
       inkscape:connector-curvature="0"
       id="path3019"
       d="m 91.893009,147.17055 -1.417373,7.55932 -14.646187,-2.12606 -17.717161,8.50424 -24.095339,-5.43326 -10.157839,-20.31568 -2.598517,-10.15784 -0.708686,-6.85063 5.90572,-10.6303 9.449153,-12.520128 14.646186,-7.795551 16.299788,1.181144 12.520127,4.488347 5.905721,8.504238 1.653601,11.10275 8.740467,3.77966 8.97669,-3.07097 2.59852,-13.701271 7.08687,-8.031779 12.52012,-4.01589 10.6303,-0.708687 10.6303,2.834746 9.21292,7.795551 8.26801,9.68538 5.66949,12.75636 -1.6536,16.53601 -7.55932,13.46505 -11.10276,7.79555 -18.42585,1.88983 -14.17372,-4.48835 -4.72458,-3.54343 -7.55932,3.3072 -4.48835,0.47246 -1.889831,-4.48835 0,-8.74046 -3.779661,-5.43327 -3.779661,3.77966 z"
       style="fill:#f2f2f2;stroke:#f2f2f2;stroke-width:1px;stroke-linecap:butt;stroke-linejoin:miter;stroke-opacity:1" />
    <g
       transform="translate(-15,52.100853)"
       id="g3011">
      <path
         inkscape:connector-curvature="0"
         id="path3017"
         d="m 15,166.94282 c 0,-2.23145 0.42438,-5.94395 0.943067,-8.25 C 16.461753,156.38677 18.562563,144.9375 20.611532,133.25 22.660502,121.5625 24.711122,112 25.168466,112 25.62581,112 26,110.875 26,109.5 c 0,-1.375 0.45,-2.5 1,-2.5 0.55,0 1,0.75207 1,1.67126 0,0.91919 0.628569,2.38169 1.396819,3.25 3.085122,3.48693 6.920322,18.29495 7.013253,27.07874 0.08005,7.56673 -0.252963,9.21367 -3.03305,15 C 30.147207,160.72236 25.69691,165.9582 20.5,169.15001 15.973487,171.93007 15,171.5394 15,166.94282 z m 181.41076,-2.68996 c -7.0042,-7.0042 -10.62216,-15.41317 -10.54569,-24.51065 0.0335,-3.98322 0.5145,-8.76878 1.06893,-10.63458 0.55443,-1.86581 0.76792,-3.78091 0.47444,-4.25578 -0.29349,-0.47488 0.82741,-5.02331 2.4909,-10.10763 1.66349,-5.08432 3.15415,-10.36922 3.31259,-11.74422 0.41854,-3.632292 2.09001,-3.061698 2.92934,1 0.80265,3.88414 2.08946,14.66338 2.02944,17 -0.0716,2.78689 4.16651,28.49582 4.78062,29 0.9129,0.74948 -0.0206,19 -0.97188,19 -0.45186,0 -2.95777,-2.13621 -5.56869,-4.74714 z m -87.6281,-6.83052 c -1.22084,-2.67945 -0.32904,-5.40688 2.02443,-6.19137 1.94792,-0.64931 3.58641,4.16524 2.26061,6.64254 -1.51173,2.82468 -2.857,2.68304 -4.28504,-0.45117 z M 65,115.40996 c -0.825,-0.30013 -3.075,-1.16003 -5,-1.91089 -1.925,-0.75086 -5.174253,-1.63822 -7.220563,-1.97192 -4.572749,-0.7457 -9.33091,-4.58982 -10.241612,-8.2742 -0.374259,-1.51412 -1.86276,-3.99587 -3.30778,-5.514995 -3.023202,-3.178243 -4.119366,-8.779171 -4.690892,-23.968447 -0.3372,-8.961676 -0.178877,-9.98882 2.003811,-13 1.303466,-1.79823 2.998277,-4.628385 3.766246,-6.289234 C 42.044872,50.726643 54.279212,38 56.15198,38 c 0.757701,0 3.165376,-0.95817 5.350389,-2.129267 3.511197,-1.881889 4.959478,-2.053421 12.465841,-1.476436 10.948504,0.841568 14.789313,1.923032 19.850509,5.589344 4.765599,3.452182 7.951371,9.059854 8.843121,15.565865 0.54707,3.991302 1.08427,4.790484 4.33482,6.448792 3.52675,1.799214 3.87827,1.808978 7.10311,0.197295 2.88356,-1.441121 3.63994,-2.596065 5.03995,-7.695593 0.90597,-3.3 1.9683,-6.7875 2.36073,-7.75 0.83371,-2.04476 0.44065,-2.135916 -2.81456,-0.652742 -1.32453,0.603493 -3.13842,2.628493 -4.03088,4.5 -2.0136,4.222566 -3.26887,4.284372 -5.45152,0.268418 -0.93692,-1.723879 -3.13743,-4.605315 -4.89002,-6.403193 -3.74026,-3.83692 -5.110786,-9.368639 -3.45537,-13.946621 C 101.48615,28.77904 102,26.805715 102,26.130696 c 0,-0.67502 0.87131,-3.030705 1.93624,-5.234855 C 106.21522,16.17888 107.02861,16.589895 92.5,15.116962 82.020169,14.054501 69.302525,11.488404 67.797771,10.13268 66.69642,9.1404079 76.292773,9.6825903 82.179986,10.945258 c 2.926008,0.62756 9.537135,1.418064 14.691395,1.756676 8.098169,0.532015 9.497499,0.390293 10.299689,-1.043138 1.22499,-2.1889274 4.11248,-2.1079486 6.17692,0.17323 1.33004,1.469688 2.7946,1.759666 7.40498,1.466165 8.09847,-0.515557 21.42305,-2.341734 23.22815,-3.183495 C 144.8165,9.7251373 147.3,9.6692615 149.5,9.9905276 l 4,0.5841204 -7.15802,1.703717 c -9.13031,2.173155 -19.52358,3.67652 -25.59198,3.701826 -2.6125,0.01089 -4.75,0.272755 -4.75,0.581912 0,1.121873 3.16811,10.982383 4.07217,12.674328 0.51031,0.955037 0.92783,2.362437 0.92783,3.127555 0,0.765119 0.68635,1.960747 1.52523,2.656952 1.36697,1.134485 1.36697,1.440699 0,2.951185 C 121.68635,38.89907 121,40.38299 121,41.269724 c 0,2.98021 2.05224,2.916521 5.20039,-0.161387 4.06141,-3.970772 10.17627,-5.893829 21.31814,-6.704317 8.03357,-0.584383 9.45174,-0.423841 12.98519,1.469974 C 162.68538,37.043298 165.00502,38 165.65847,38 167.34126,38 173,42.933662 173,44.400835 c 0,0.672676 1.39137,2.251733 3.09194,3.509015 1.70056,1.257281 3.71874,3.786136 4.48484,5.619677 0.76611,1.833541 1.90073,3.647555 2.52138,4.031142 2.46735,1.524906 4.95829,9.234149 4.30456,13.322292 -0.35171,2.199512 -0.13352,5.450523 0.48489,7.224469 0.92967,2.666859 0.82857,3.672728 -0.58385,5.808963 -0.93951,1.420984 -1.58625,3.792857 -1.4372,5.270829 0.30713,3.045437 -1.07945,6.166179 -4.35993,9.812778 -1.23695,1.375 -2.53304,3.70762 -2.8802,5.18361 -0.82822,3.52124 -5.67538,6.88167 -10.92326,7.57286 -2.31174,0.30448 -5.10317,1.12554 -6.20317,1.82459 -3.35836,2.13422 -9.17074,2.69741 -14.54146,1.40899 -3.8663,-0.92751 -6.49829,-2.52113 -10.91067,-6.60622 -6.23277,-5.77044 -8.77217,-6.47047 -15.97663,-4.40426 -4.50605,1.29232 -6.0697,-0.0848 -6.07682,-5.352015 C 113.98772,93.667343 112.26391,87 110.98818,87 109.34583,87 108,90.769346 108,95.369159 c 0,6.020931 -1.55708,10.014781 -3.59898,9.231231 -0.86415,-0.3316 -4.0384,-0.89289 -7.053881,-1.2473 -5.468347,-0.6427 -5.494954,-0.63251 -10.164919,3.89372 -2.575221,2.49596 -6.168914,5.28557 -7.985984,6.19913 C 75.708777,115.19932 67.53098,116.3307 65,115.40996 z m 4.802123,-14.50051 c 3.404756,-1.149807 8.74579,-4.074807 11.868963,-6.500003 C 84.794259,91.984251 87.720926,90 88.174791,90 c 1.985787,0 0.431742,2.380097 -4.89766,7.501011 -6.047595,5.811009 -5.801169,6.827309 0.834597,3.441989 2.736199,-1.395904 4.389775,-3.083189 5.145113,-5.249999 0.612184,-1.756151 2.391795,-5.623935 3.954691,-8.595077 1.90648,-3.624312 3.026841,-7.536546 3.404432,-11.888067 0.309541,-3.567294 1.154247,-8.45121 1.877123,-10.853147 1.108799,-3.684257 1.084326,-5.247902 -0.156502,-9.999553 C 97.527632,51.259338 96.157127,47.643246 95.291017,46.321396 93.909191,44.212463 86.378222,39 84.713059,39 c -0.336174,0 0.651483,2.5875 2.194792,5.75 4.082885,8.366517 8.507346,20.168136 7.819112,20.85637 -1.105206,1.105206 -2.755169,-0.728104 -5.334376,-5.927139 C 83.416281,47.632491 77.554243,39.040258 74.611888,38.014548 71.150249,36.807814 66,36.674597 66,37.791792 c 0,0.435486 2.064662,2.797986 4.588139,5.25 C 79.429325,51.632606 92.312278,70 89.496718,70 89.219914,70 85.967954,66.7375 82.270141,62.75 67.712352,47.051752 61.317824,41 59.288203,41 57.227363,41 52.050758,44.474718 53,45.220861 c 0.275,0.216161 4.484264,3.205614 9.353919,6.643229 C 73.164565,59.495602 87,70.849562 87,72.089736 87,74.12401 84.004511,72.53951 69.098263,62.620397 48.458257,48.885851 49.366281,49.307269 46.405651,52.088636 45.082543,53.331632 44,54.616249 44,54.94334 c 0,0.327092 4.3875,2.577132 9.75,5.000089 C 81.16533,72.330591 86.247133,75.086201 84.639865,76.693468 84.16785,77.165483 64.704043,70.126549 46.654706,62.956431 43.235255,61.598051 41.283527,61.313077 40.022355,61.988036 36.39614,63.928727 35.910133,69.588083 39.25,70.981788 44.197695,73.04643 63.097413,76.996275 73,78.03519 c 5.775,0.605875 10.912748,1.506063 11.417217,2.000418 1.9737,1.934126 -3.260496,2.225309 -19.285273,1.072855 C 46.265136,79.751619 44.188293,79.520897 41.75,78.510907 c -2.282083,-0.945284 -2.236458,0.666774 0.100554,3.552863 1.753062,2.164939 2.477452,2.277982 13.75,2.145728 C 62.145249,84.132712 71.775,83.806098 77,83.483689 c 8.301254,-0.51223 9.278101,-0.407303 7.74146,0.831543 C 83.128446,85.615651 76.06261,86.944415 53,90.284365 l -8.5,1.230978 3.786904,2.346696 c 3.013972,1.86772 4.544772,2.204566 7.5,1.650343 C 59.028959,94.904368 79.39653,88.449488 84.25,86.491873 85.443603,86.010441 86,86.253864 86,87.257494 c 0,2.30838 -15.816164,9.395651 -29.971975,13.430536 -1.295966,0.36939 -1.295966,0.53087 0,1.35045 2.373004,1.50071 7.145331,1.10954 13.774098,-1.12903 z M 137.7187,97.221003 c -8.61359,-8.704417 -7.68626,-9.816808 2.19173,-2.62912 9.30391,6.769957 20.75247,10.171697 25.06154,7.446597 1.29597,-0.81958 1.29597,-0.98775 0,-1.40643 -0.80958,-0.26154 -4.62197,-1.47415 -8.47197,-2.694677 -7.39429,-2.344138 -21.16017,-8.578503 -22.0224,-9.973625 -1.28147,-2.073458 2.0847,-1.876045 7.93768,0.465515 6.79336,2.717771 23.94095,7.56399 26.77896,7.568215 0.93183,0.0014 2.93805,-1.067361 4.45826,-2.374996 l 2.76403,-2.377518 -5.45826,-0.661818 c -16.29175,-1.975381 -33.12423,-4.996519 -34.68203,-6.224822 -1.84208,-1.452452 2.39415,-1.424599 31.37729,0.2063 l 9.15353,0.515075 2.24466,-3.152329 2.24465,-3.152329 -4.89818,0.505048 c -16.53835,1.705253 -37.31041,2.967574 -38.88567,2.363089 -3.41764,-1.311473 -0.14253,-2.485581 9.98748,-3.580448 12.68659,-1.371186 24.52892,-3.738513 31.25,-6.246992 4.2593,-1.589682 5.25,-2.396733 5.25,-4.276803 0,-1.274552 -0.84443,-3.360197 -1.87652,-4.634766 l -1.87651,-2.317399 -16.87349,6.588898 c -24.0803,9.403078 -26.34009,10.191058 -27.08625,9.444895 -0.3675,-0.3675 -0.02,-1.282694 0.77229,-2.033765 1.29472,-1.227401 18.01083,-9.257425 33.19048,-15.943919 6.40354,-2.820698 7.69917,-5.797654 3.3798,-7.765694 -2.12527,-0.968335 -4.10882,0.08222 -19.19415,10.165829 C 137.67291,72.247872 134,74.237891 134,72.11526 c 0,-1.312702 18.95694,-16.600271 27.19438,-21.930546 3.165,-2.048005 5.71909,-4.446416 5.75,-5.39953 0.0701,-2.160569 -3.40966,-4.089674 -5.93259,-3.288927 -1.05196,0.333881 -8.02132,6.947457 -15.48746,14.696836 -12.77184,13.256371 -16.26095,15.91378 -13.79855,10.509407 1.35497,-2.973825 12.32134,-16.851742 18.06153,-22.85681 C 154.40027,39.019863 154.6034,37 150.47578,37 145.66064,37 137.36041,47.435961 130.39323,62.25 129.42322,64.3125 128.03792,66 127.31479,66 126.59165,66 126,65.758035 126,65.462301 c 0,-1.086984 6.8717,-18.290488 8.87216,-22.211709 1.94558,-3.813663 1.95841,-4.019046 0.22265,-3.565135 -2.89713,0.757618 -8.97798,6.187946 -10.73591,9.587397 -3.42331,6.619948 -1.20226,27.470954 4.17847,39.227146 1.76211,3.85 3.46435,7.765093 3.78275,8.700206 0.60819,1.786254 7.13556,5.679974 9.64858,5.755594 0.80778,0.0243 -1.10472,-2.55635 -4.25,-5.734797 z M 104.21331,98 c 0.52403,-3.570431 -0.37268,-3.734769 -4.467778,-0.818803 -2.792498,1.988434 -2.894515,2.247347 -1.15437,2.929713 3.802908,1.49125 5.168728,0.97843 5.622148,-2.11091 z m 19.26882,2.01365 c 1.53129,-0.0105 1.14531,-0.582288 -1.69694,-2.51365 C 119.76169,96.125 117.85723,95 117.55305,95 117.24887,95 117,96.402484 117,98.116631 c 0,2.744059 0.26898,3.044549 2.25,2.513659 1.2375,-0.33164 3.14196,-0.60913 4.23213,-0.61664 z M 97.208712,93.75 c 1.663769,-1.2375 4.789918,-3.902034 6.946998,-5.921186 4.30005,-4.025102 4.35707,-4.963466 0.80997,-13.328814 -0.93285,-2.2 -2.05563,-4.9 -2.49506,-6 -0.64275,-1.608945 -0.9479,-1.120126 -1.56067,2.5 -0.41894,2.475 -0.79506,6.230533 -0.83583,8.34563 -0.0408,2.115096 -0.876416,5.040096 -1.856999,6.5 C 95.916641,89.27061 92.862148,96 93.608018,96 c 0.316613,0 1.936926,-1.0125 3.600694,-2.25 z m 30.768578,1.5 c -0.0125,-0.4125 -1.58749,-3.654108 -3.5,-7.203574 -2.38754,-4.431083 -3.51437,-7.878382 -3.5956,-11 C 120.81661,74.545892 120.45437,71.15 120.07669,69.5 l -0.68667,-3 -0.81416,2.5 c -0.44779,1.375 -1.68663,4.445066 -2.75297,6.822368 -3.12661,6.970446 -2.26809,9.776816 4.67711,15.28876 5.94298,4.716549 7.52124,5.590154 7.47729,4.138872 z M 111.87693,71.370774 c 0.65887,-1.446074 1.0686,-2.704958 0.91051,-2.797519 C 110.85572,67.44226 107,66.194549 107,66.700441 107,68.138149 109.44155,74 110.04037,74 c 0.35123,0 1.17768,-1.183152 1.83656,-2.629226 z"
         style="fill:#ced2d0" />
      <path
         inkscape:connector-curvature="0"
         id="path3015"
         d="m 15,166.94282 c 0,-2.23145 0.42438,-5.94395 0.943067,-8.25 C 16.461753,156.38677 18.562563,144.9375 20.611532,133.25 22.660502,121.5625 24.711122,112 25.168466,112 25.62581,112 26,110.875 26,109.5 c 0,-1.375 0.45,-2.5 1,-2.5 0.55,0 1,0.75207 1,1.67126 0,0.91919 0.628569,2.38169 1.396819,3.25 3.085122,3.48693 6.920322,18.29495 7.013253,27.07874 0.08005,7.56673 -0.252963,9.21367 -3.03305,15 C 30.147207,160.72236 25.69691,165.9582 20.5,169.15001 15.973487,171.93007 15,171.5394 15,166.94282 z m 182.26217,-2.31828 c -8.77688,-8.16966 -12.75367,-19.01743 -11.0918,-30.25587 0.4773,-3.22777 1.05756,-7.44367 1.28946,-9.36867 0.23191,-1.925 1.50507,-6.65 2.82926,-10.5 1.32418,-3.85 2.73987,-8.78683 3.14598,-10.97073 0.51677,-2.77901 0.97719,-3.529324 1.53411,-2.5 0.87905,1.62473 3.56279,18.92422 3.16421,20.39662 -0.13786,0.50923 0.92167,7.93504 2.35451,16.50179 1.70762,10.2096 2.503,18.33149 2.30863,23.57411 L 202.5,169.5 l -5.23783,-4.87546 z m -88.47951,-7.2022 c -1.22084,-2.67945 -0.32904,-5.40688 2.02443,-6.19137 1.94792,-0.64931 3.58641,4.16524 2.26061,6.64254 -1.51173,2.82468 -2.857,2.68304 -4.28504,-0.45117 z M 60,113 c -1.925,-1.05389 -4.767084,-1.93503 -6.315741,-1.95808 -5.045119,-0.0751 -10.611447,-4.37717 -10.662023,-8.2404 -0.01223,-0.93416 -1.197127,-2.959161 -2.633105,-4.499998 -3.312327,-3.554202 -4.66525,-7.065238 -3.898961,-10.118378 0.330598,-1.317208 9.1e-5,-3.359772 -0.734459,-4.539033 C 34.906467,82.280719 34.476353,78.769082 34.574477,74 34.756678,65.144577 35.6262,61.226432 38.014266,58.5 c 0.963483,-1.1 2.470435,-3.422767 3.348781,-5.161704 0.878347,-1.738937 2.620757,-3.988937 3.872023,-5 1.251265,-1.011063 3.082282,-3.09358 4.068927,-4.627816 0.986644,-1.534236 3.459372,-3.522564 5.494951,-4.418507 2.035578,-0.895943 5.644351,-2.508211 8.019493,-3.582818 3.152899,-1.426495 5.447039,-1.785477 8.5,-1.330062 2.299858,0.343073 6.90013,1.012996 10.222828,1.488719 12.31814,1.763631 18.856531,8.254023 20.914221,20.760694 0.58281,3.542351 1.21497,4.370081 4.45251,5.830009 3.42493,1.544427 4.10779,1.561726 7.39704,0.187391 2.60458,-1.088262 3.79438,-2.306091 4.23035,-4.330008 0.33362,-1.548744 1.27501,-5.003025 2.09198,-7.67618 0.81697,-2.673156 1.26894,-5.076743 1.00437,-5.341307 -1.23393,-1.233935 -4.94384,1.23573 -7.1818,4.780882 C 113.08868,52.235682 111.7647,54 111.50778,54 c -0.25692,0 -1.37025,-1.770263 -2.47407,-3.933918 -1.10381,-2.163656 -2.95049,-4.594809 -4.10372,-5.402564 -1.15323,-0.807755 -2.73004,-3.3067 -3.50403,-5.553212 -1.21219,-3.518414 -1.20953,-4.843638 0.0192,-9.560968 0.78454,-3.012021 2.18923,-7.083904 3.12156,-9.048627 0.93232,-1.964724 1.48238,-3.784972 1.22236,-4.044996 -0.26003,-0.260024 -5.15643,-0.916207 -10.880911,-1.458186 -11.129898,-1.053749 -26.251481,-4.035192 -24.118386,-4.755295 0.709365,-0.239472 5.209365,0.263349 10,1.117378 4.790636,0.85403 12.445792,1.85761 17.011458,2.230177 7.731319,0.630892 8.442369,0.525881 10.357379,-1.529637 l 2.05616,-2.2070326 2.4159,2.2696206 c 2.39901,2.253753 2.50207,2.261073 14.74154,1.046967 6.77909,-0.67246 13.85315,-1.660741 15.72012,-2.196181 1.86697,-0.535439 4.97246,-0.932906 6.90109,-0.883259 6.29088,0.161939 -9.34926,3.713027 -22.2434,5.050355 -6.9439,0.720194 -11.74405,1.656472 -11.73545,2.289021 0.0283,2.078621 3.69567,12.123442 6.18422,16.938255 0.64347,1.244972 0.60456,2.228768 -0.11667,2.95 C 120.51703,38.882973 120.71836,44 122.34501,44 c 0.73976,0 2.20226,-0.947884 3.25,-2.10641 3.53572,-3.909564 9.44681,-6.078253 19.65513,-7.211171 9.22304,-1.023572 10.18683,-0.958044 14.07542,0.956993 2.29594,1.130692 5.8416,2.782402 7.87925,3.670467 2.04952,0.89324 4.37236,2.905558 5.19889,4.503893 0.82174,1.589075 2.60272,3.615639 3.95773,4.503475 1.35501,0.887835 3.26461,3.42966 4.24356,5.6485 C 181.58394,56.184586 182.65127,58 182.97684,58 c 0.32557,0 1.41444,1.39237 2.41971,3.094156 1.22592,2.075316 1.90225,5.450421 2.05397,10.25 0.12441,3.935714 0.55874,7.908551 0.96516,8.828525 0.48656,1.101369 0.0164,2.395232 -1.37652,3.788155 -1.65718,1.657187 -1.97902,2.84282 -1.48561,5.472929 0.54298,2.894311 0.13441,3.905868 -2.96184,7.333046 C 180.61627,98.953386 179,101.52036 179,102.4712 c 0,2.93761 -6.41851,8.5288 -9.7908,8.5288 -1.64493,0 -4.95243,0.89012 -7.35,1.97804 -5.20514,2.36189 -13.49673,2.61808 -18.4019,0.56856 -1.91316,-0.79936 -5.8362,-3.66978 -8.71788,-6.37869 L 129.5,102.2426 l -6.86016,0.93521 c -3.77309,0.51436 -7.10088,0.69448 -7.3951,0.40026 -0.29422,-0.29422 -0.81818,-3.582149 -1.16436,-7.306508 C 113.40367,88.991134 112.64506,87 110.54797,87 c -1.79865,0 -2.55632,2.283543 -3.26081,9.827779 -0.32626,3.493831 -1.129,6.558031 -1.78388,6.809331 -0.65487,0.2513 -4.06734,-0.006 -7.583264,-0.57259 l -6.392591,-1.02949 -5.013713,4.87595 c -2.757541,2.68178 -6.453865,5.5989 -8.214052,6.48249 C 73.841938,115.63119 64.436651,115.42896 60,113 z m 11.178409,-11.38301 c 3.123125,-1.28454 7.398125,-3.673344 9.5,-5.308452 6.57122,-5.111936 7.059699,-4.666262 1.071591,0.97769 -3.1625,2.980742 -5.75,5.769612 -5.75,6.197492 0,1.36296 6.954308,-0.29236 10.541006,-2.50906 C 88.443453,99.79888 90,98.298388 90,97.640229 90,96.98207 91.511062,93.29052 93.357915,89.436785 95.297178,85.390221 97.017141,79.909902 97.429026,76.464996 97.821284,73.184248 98.765506,68.025 99.527297,65 101.65361,56.556606 99.155494,47.83296 93.168773,42.795467 c -3.220162,-2.709588 -8.937041,-5.360533 -9.768071,-4.529503 -0.294342,0.294343 0.57107,2.718223 1.923138,5.3864 C 90.017264,52.914391 95.763116,68.64743 91.841962,61.5 78.276507,36.773059 77.580809,35.975904 69.600777,36.015313 64.514684,36.04043 63.596949,37.275717 66.591664,40.065632 70.060704,43.297433 88,65.464952 88,66.519829 88,66.974444 82.110434,61.193461 74.912076,53.6732 64.449014,42.742243 61.284743,40 59.134582,40 56.024377,40 52,42.504509 52,44.440098 c 0,0.72968 3.9375,4.162669 8.75,7.628865 12.542675,9.033843 24.222093,18.292278 23.715092,18.799278 C 84.225794,71.107539 76.55313,66.28508 67.414728,60.151664 58.276326,54.018249 50.148088,49 49.351977,49 47.806513,49 43,53.687323 43,55.194462 43,55.91541 65.067446,67 66.502725,67 c 0.21256,0 3.855512,1.580892 8.095448,3.513093 13.491389,6.148224 7.238588,4.854992 -11.243623,-2.325456 -23.074853,-8.964716 -21.578987,-8.585536 -24.574482,-6.229279 -3.298294,2.594439 -4.009247,5.548476 -1.937403,8.049984 2.398889,2.896377 16.75278,6.767465 30.157335,8.133105 10.689258,1.089009 17.241732,2.873982 10.45,2.846706 C 72.739992,80.969237 43.724765,78.091215 41.25,77.397472 39.925952,77.026306 39,77.206906 39,77.836316 c 0,2.168022 2.351136,6.139091 3.901757,6.590065 2.923486,0.850251 19.463136,1.026105 29.598243,0.314695 14.116004,-0.990839 7.784222,0.716495 -11.943094,3.220398 -8.725995,1.107552 -16.133524,2.288206 -16.461175,2.623675 -0.327652,0.335469 0.979269,1.94828 2.904269,3.584024 3.107702,2.640729 4.013764,2.908621 8.083692,2.390072 2.52103,-0.321204 9.83353,-2.347722 16.25,-4.503373 C 77.750161,89.900221 83,88.323212 83,88.551408 83,89.525696 72.736091,94.039799 63.732388,97.025372 58.379575,98.800332 54,100.62338 54,101.0766 c 0,1.53188 3.478238,2.86255 7.5,2.86926 2.2,0.004 6.555284,-1.04432 9.678409,-2.32887 z M 145,103.35288 c 0,-0.35592 -2.5875,-3.07683 -5.75,-6.046476 -6.04079,-5.672407 -5.00766,-5.60549 3.09309,0.200346 5.14517,3.68756 12.98649,6.49325 18.14728,6.49325 2.98542,0 7.55598,-2.32064 6.50806,-3.30438 -0.27414,-0.25734 -4.77343,-1.923584 -9.99843,-3.702757 -8.92575,-3.03932 -19,-7.515181 -19,-8.441455 0,-0.228196 5.24984,1.348813 11.66631,3.504464 15.26369,5.127929 19.81092,5.686825 24.15186,2.968484 4.56019,-2.855637 3.96661,-5.441455 -1.32649,-5.778629 -7.29119,-0.464453 -28.37896,-3.385793 -31.20684,-4.323158 -1.95198,-0.647027 -0.39228,-0.765161 5.21516,-0.395003 4.4,0.290453 12.98527,0.784812 19.07838,1.098577 l 11.07838,0.570482 2.67162,-3.175038 c 4.83912,-5.750971 5.16981,-5.681607 -16.82838,-3.529849 -17.33054,1.69519 -22.2877,1.852492 -20.95,0.664789 0.5225,-0.46391 6.125,-1.359997 12.45,-1.991303 11.94131,-1.191878 24.85932,-4.22514 28.75,-6.750756 C 186.87445,68.737104 184.39613,60 179.51223,60 c -0.81827,0 -9.25577,3.099211 -18.75,6.887136 C 151.268,70.67506 142.375,74.063202 141,74.41634 c -3.952,1.014982 6.26899,-4.173468 21,-10.660162 12.0075,-5.287415 16,-7.722529 16,-9.758746 C 178,52.588026 173.79223,49 172.13938,49 c -0.98049,0 -8.05046,4.199523 -15.71105,9.332274 C 148.76775,63.465025 141.15,68.509863 139.5,69.543026 l -3,1.878478 1.95031,-2.260837 c 1.87166,-2.169659 21.09873,-16.967445 26.79969,-20.625928 4.96477,-3.186041 2.83548,-8.492887 -3.43426,-8.559251 -1.68076,-0.01779 -5.94891,3.740346 -15.56574,13.70574 -7.2875,7.551639 -13.25,13.459173 -13.25,13.127855 0,-0.885496 10.47535,-14.344046 16.771,-21.547089 6.55683,-7.501862 6.54664,-9.830081 -0.0392,-8.963834 -5.46651,0.719019 -9.52471,5.164344 -16.08393,17.618235 -2.66868,5.066968 -5.06059,9.004216 -5.31537,8.749438 -0.5329,-0.532895 6.06436,-16.81926 8.46009,-20.885066 2.25936,-3.834376 0.87166,-4.502017 -4.21793,-2.029303 -8.57155,4.164382 -13.49788,15.062525 -11.03283,24.407088 0.68735,2.605653 1.56983,7.573428 1.96105,11.0395 0.43985,3.896906 2.00616,9.013436 4.10422,13.40688 1.86609,3.907712 3.3929,7.550468 3.3929,8.095012 0,2.369269 7.91635,7.283396 11.75,7.293896 1.2375,0.003 2.25,-0.28504 2.25,-0.64096 z M 126,99.942159 C 126,99.266367 117.50289,93 116.58652,93 c -0.70366,0 -0.79608,8.4571 -0.10003,9.15316 C 117.12336,102.79002 126,100.72704 126,99.942159 z M 105,98 c 0,-4.751931 -0.99227,-4.970362 -6.196249,-1.363999 C 94.281764,99.76974 94.065066,100.72552 97.75,101.28375 104.86941,102.36225 105,102.3031 105,98 z m -5.496973,-4.612924 c 7.767783,-5.430069 9.962213,-8.333094 9.183353,-12.148757 -0.90126,-4.415368 -6.66477,-16.369708 -7.61048,-15.785227 -0.47671,0.294622 -1.194577,4.239156 -1.595261,8.765631 -0.400685,4.526475 -1.324136,9.141502 -2.052114,10.255616 C 94.95594,88.258439 91.020739,98 91.9647,98 c 0.516713,0 3.908961,-2.075816 7.538327,-4.612924 z M 130,97.44795 c 0,-0.303628 -1.8,-4.159278 -4,-8.568111 -2.81109,-5.63346 -4.03517,-9.407649 -4.11831,-12.697949 -0.1466,-5.801043 -1.12236,-10.55015 -2.18308,-10.625193 -0.78413,-0.05548 -4.95459,9.121408 -6.7314,14.812079 -1.29433,4.145399 0.98405,7.8282 7.53163,12.174239 3.02765,2.009639 5.75555,4.059586 6.06201,4.555437 C 127.16144,98.070239 130,98.358702 130,97.44795 z M 113.62992,68.477973 c -0.51978,-1.354533 -7.42286,-4.018367 -8.2555,-3.185723 -0.58605,0.586051 2.19308,7.481696 3.7916,9.407789 0.90706,1.092949 1.49186,0.74729 3.03852,-1.795987 1.05341,-1.732182 1.69483,-3.723917 1.42538,-4.426079 z"
         style="fill:#a9b1ae" />
      <path
         inkscape:connector-curvature="0"
         id="path3013"
         d="m 15,166.94282 c 0,-2.23145 0.42438,-5.94395 0.943067,-8.25 C 16.461753,156.38677 18.562563,144.9375 20.611532,133.25 22.660502,121.5625 24.711122,112 25.168466,112 25.62581,112 26,110.875 26,109.5 c 0,-1.375 0.45,-2.5 1,-2.5 0.55,0 1,0.75207 1,1.67126 0,0.91919 0.628569,2.38169 1.396819,3.25 3.085122,3.48693 6.920322,18.29495 7.013253,27.07874 0.08005,7.56673 -0.252963,9.21367 -3.03305,15 C 30.147207,160.72236 25.69691,165.9582 20.5,169.15001 15.973487,171.93007 15,171.5394 15,166.94282 z m 182.26217,-2.31828 c -8.77688,-8.16966 -12.75367,-19.01743 -11.0918,-30.25587 0.4773,-3.22777 1.05756,-7.44367 1.28946,-9.36867 0.23191,-1.925 1.50507,-6.65 2.82926,-10.5 1.32418,-3.85 2.73987,-8.78683 3.14598,-10.97073 0.51677,-2.77901 0.97719,-3.529324 1.53411,-2.5 0.87905,1.62473 3.56279,18.92422 3.16421,20.39662 -0.13786,0.50923 0.92167,7.93504 2.35451,16.50179 1.70762,10.2096 2.503,18.33149 2.30863,23.57411 L 202.5,169.5 l -5.23783,-4.87546 z m -88.47951,-7.2022 c -1.22084,-2.67945 -0.32904,-5.40688 2.02443,-6.19137 1.94792,-0.64931 3.58641,4.16524 2.26061,6.64254 -1.51173,2.82468 -2.857,2.68304 -4.28504,-0.45117 z M 185.15789,91 c 0,-1.375 0.22698,-1.9375 0.50439,-1.25 0.27741,0.6875 0.27741,1.8125 0,2.5 -0.27741,0.6875 -0.50439,0.125 -0.50439,-1.25 z m 1.23512,-7.581787 c 0.33385,-0.869984 0.63551,-2.782484 0.67038,-4.25 0.063,-2.653297 0.0686,-2.655218 0.99532,-0.343738 0.59776,1.490953 0.56242,3.01494 -0.0986,4.25 -1.23918,2.315428 -2.42341,2.575181 -1.56713,0.343738 z M 186.15789,74 c 0,-1.375 0.22698,-1.9375 0.50439,-1.25 0.27741,0.6875 0.27741,1.8125 0,2.5 -0.27741,0.6875 -0.50439,0.125 -0.50439,-1.25 z m 0.92106,-5.416667 c -0.0434,-1.054166 0.19292,-1.644791 0.52522,-1.3125 0.33229,0.332292 0.36781,1.194792 0.0789,1.916667 -0.31922,0.797733 -0.55618,0.560776 -0.60416,-0.604167 z M 113.2314,41.722497 C 113.46702,39.400123 114.0009,36.6 114.41779,35.5 c 0.57383,-1.514106 0.12926,-1.318348 -1.82991,0.805764 C 111.16455,37.848934 110,39.959876 110,40.996747 c 0,5.163276 -5.73792,1.520149 -6.65811,-4.22738 -0.6795,-4.244111 1.56982,-8.72773 4.43116,-8.832753 1.26365,-0.04638 1.10609,-0.312391 -0.58729,-0.991542 C 104.58848,25.903406 105.11473,24 108,24 c 1.03508,0 2.16008,-0.45 2.5,-1 0.34229,-0.553837 -0.41216,-1.014189 -1.69098,-1.031803 -1.97067,-0.02714 -2.08922,-0.21031 -0.80902,-1.25 0.825,-0.670009 1.545,-1.780697 1.6,-2.468197 0.2306,-2.882532 0.44644,-3.339336 1.32208,-2.798155 0.50715,0.313434 1.91705,3.602492 3.13311,7.309017 1.21607,3.706526 2.63466,7.275655 3.15244,7.931399 0.51778,0.655744 1.08004,3.686649 1.24946,6.735345 0.29338,5.279336 0.16619,5.613844 -2.67304,7.030235 l -2.98106,1.487152 0.42841,-4.222496 z m 8.03943,2.673336 c 0.3323,-0.332291 1.1948,-0.367818 1.91667,-0.07895 0.79773,0.319226 0.56078,0.556183 -0.60417,0.604167 -1.05416,0.04342 -1.64479,-0.192928 -1.3125,-0.52522 z"
         style="fill:#cc9b67" />
    </g>
  </g>
</svg>
