<?xml version="1.0" encoding="UTF-8" standalone="no"?>
<!-- Created with Inkscape (http://www.inkscape.org/) -->

<svg
   xmlns:dc="http://purl.org/dc/elements/1.1/"
   xmlns:cc="http://creativecommons.org/ns#"
   xmlns:rdf="http://www.w3.org/1999/02/22-rdf-syntax-ns#"
   xmlns:svg="http://www.w3.org/2000/svg"
   xmlns="http://www.w3.org/2000/svg"
   xmlns:sodipodi="http://sodipodi.sourceforge.net/DTD/sodipodi-0.dtd"
   xmlns:inkscape="http://www.inkscape.org/namespaces/inkscape"
   id="svg2985"
   version="1.1"
   inkscape:version="0.48.3.1 r9886"
   width="1920"
   height="1920"
   sodipodi:docname="Mermaid Face.svg">
  <metadata
     id="metadata2991">
    <rdf:RDF>
      <cc:Work
         rdf:about="">
        <dc:format>image/svg+xml</dc:format>
        <dc:type
           rdf:resource="http://purl.org/dc/dcmitype/StillImage" />
        <dc:title></dc:title>
      </cc:Work>
    </rdf:RDF>
  </metadata>
  <defs
     id="defs2989" />
  <sodipodi:namedview
     pagecolor="#ffffff"
     bordercolor="#666666"
     borderopacity="1"
     objecttolerance="10"
     gridtolerance="10"
     guidetolerance="10"
     inkscape:pageopacity="0"
     inkscape:pageshadow="2"
     inkscape:window-width="1920"
     inkscape:window-height="1005"
     id="namedview2987"
     showgrid="false"
     inkscape:zoom="0.24255407"
     inkscape:cx="432.51235"
     inkscape:cy="569.56898"
     inkscape:window-x="-9"
     inkscape:window-y="-9"
     inkscape:window-maximized="1"
     inkscape:current-layer="svg2985" />
  <g
     id="g3366"
     transform="matrix(8.8212075,0,0,8.8212053,2123.2786,424.14363)">
    <g
       id="g3344">
      <g
         id="g3239"
         transform="translate(-265.40474,102.55445)">
        <path
           style="fill:#e1d2a0"
           d="M 130.97674,65.029674 C 123.6093,64.974723 113.56279,63.143677 108.65116,60.960688 103.73953,58.777698 96.872484,53.806875 93.39105,49.914413 89.909617,46.021951 83.546826,37.170804 79.251516,30.2452 74.956205,23.319594 71.44186,16.287036 71.44186,14.617293 c 0,-1.669745 2.703727,-3.035898 6.008279,-3.035898 3.304552,0 12.782958,-3.5423848 21.063126,-7.8719669 13.051575,-6.8244808 16.415035,-7.4545116 25.276835,-4.7347468 7.38536,2.26663 12.75616,2.1806735 19.35404,-0.3097481 8.04864,-3.0380205 10.87062,-2.476291 23.78621,4.7347498 8.05978,4.4999412 18.00229,8.181712 22.09446,8.181712 4.09217,0 7.44031,0.846542 7.44031,1.881201 0,1.03466 -2.94499,6.727683 -6.54441,12.651163 -3.59942,5.92348 -10.52019,15.791854 -15.37948,21.929722 -5.43137,6.860461 -12.94456,12.301321 -19.50211,14.122934 -5.86687,1.629744 -16.69493,2.918212 -24.06238,2.863259 z m 14.88373,-26.192977 c 7.36744,-0.694194 17.23298,-3.206016 21.92342,-5.581821 5.97069,-3.024277 7.58826,-5.259472 5.39407,-7.45366 -1.84953,-1.849532 -17.92577,-3.134015 -39.22447,-3.134015 -21.1338,0 -37.379958,1.289499 -39.20202,3.111561 -2.164254,2.164254 -0.975172,4.286771 3.905694,6.97169 3.859486,2.123071 13.045166,4.644995 20.412606,5.604275 7.36744,0.959279 19.42325,1.176168 26.7907,0.48197 z M 79.702826,-31.389568 c -6.492774,1.524385 -9.907858,0.107609 -17.116279,-7.100809 -6.609301,-6.609298 -9.005152,-11.791238 -9.005152,-19.477057 0,-5.759548 1.339535,-11.299784 2.976745,-12.311636 1.637209,-1.011852 2.976744,-2.831229 2.976744,-4.043061 0,-1.211833 -4.748131,-1.649015 -10.551403,-0.971517 -7.258684,0.84741 -12.367834,-0.412032 -16.372093,-4.035834 -3.20138,-2.897209 -5.82069,-6.542893 -5.82069,-8.101516 0,-1.558627 2.237091,-1.975412 4.971311,-0.926193 2.734223,1.049219 5.980967,0.274009 7.214988,-1.722669 1.747679,-2.827803 3.280905,-2.769518 6.935665,0.26365 3.966604,3.292005 4.691989,3.091013 4.691989,-1.300069 0,-3.903503 0.954079,-4.402274 3.839777,-2.007356 2.111878,1.752701 10.483971,3.041254 18.604651,2.863447 8.633719,-0.189053 18.782205,1.761009 24.439293,4.696055 5.320928,2.760641 9.674418,6.41475 9.674418,8.120242 0,1.818937 -2.64742,2.260635 -6.40379,1.068413 -5.420236,-1.720317 -6.036357,-1.179636 -4.011507,3.520337 1.315754,3.054047 2.979284,9.690517 3.696737,14.747704 0.94901,6.689405 -0.594061,11.322827 -5.662912,17.004208 -3.832049,4.295123 -10.617371,8.666273 -15.078492,9.713661 z m -2.129831,-28.470897 c 2.826386,0 5.872345,-1.911365 6.768795,-4.247478 0.896452,-2.336113 -0.282702,-5.834811 -2.620357,-7.774886 -2.337646,-1.940073 -6.276629,-2.749818 -8.753292,-1.799433 -2.476663,0.950385 -4.503025,3.55606 -4.503025,5.790389 0,2.23433 0.893024,4.95544 1.984497,6.046911 1.091471,1.091474 4.296993,1.984497 7.123382,1.984497 z m 111.853185,26.790698 c -6.37801,0 -12.0368,-2.398259 -16.25613,-6.889529 -3.90552,-4.157241 -6.47238,-10.72779 -6.47238,-16.56779 0,-5.323041 1.45451,-12.396023 3.23223,-15.717736 2.85787,-5.339973 2.5131,-5.811233 -2.97674,-4.068826 -3.58172,1.136795 -6.20897,0.658543 -6.20897,-1.130243 0,-1.705492 3.95208,-5.144599 8.7824,-7.642457 4.83033,-2.497857 14.9649,-4.541559 22.52128,-4.541559 7.55638,0 16.53299,-1.495367 19.94803,-3.323041 5.24178,-2.805316 5.9215,-2.573428 4.36284,1.488372 -1.01547,2.646278 -0.62787,4.811413 0.86133,4.811413 1.4892,0 3.53552,-1.339535 4.54737,-2.976744 1.01185,-1.637209 3.05817,-2.976744 4.54737,-2.976744 1.4892,0 1.8768,2.165135 0.86133,4.811413 -1.58962,4.142499 -0.92042,4.315892 4.81349,1.247196 3.66289,-1.96032 7.32647,-2.897548 8.14129,-2.082733 0.81482,0.814819 -1.46473,4.427702 -5.06566,8.028631 -5.22393,5.223927 -8.87356,6.235103 -18.05804,5.003207 -10.45689,-1.402564 -11.24295,-1.043277 -8.58464,3.923828 1.60944,3.007271 2.92626,9.991615 2.92626,15.520765 0,6.00242 -2.44552,12.677957 -6.06945,16.56779 -3.86571,4.149353 -9.6218,6.514787 -15.85321,6.514787 z m 0.99202,-26.790698 c 4.46555,0 6.04692,-1.946172 6.04692,-7.441861 0,-5.381938 -1.59931,-7.44186 -5.77781,-7.44186 -3.1778,0 -6.64533,1.403681 -7.70564,3.119291 -1.06031,1.715611 -1.1814,5.064448 -0.2691,7.441861 0.91229,2.377412 4.37983,4.322569 7.70563,4.322569 z M 33.871637,-111.4498 c -4.872043,1.82889 -5.082968,1.47247 -1.637162,-2.76644 2.175476,-2.67619 9.902631,-7.13707 17.171456,-9.91306 9.974921,-3.80946 18.495176,-4.63726 34.742266,-3.37547 11.839423,0.91949 23.870403,2.59381 26.735523,3.72071 2.86512,1.12691 5.2093,3.83586 5.2093,6.01988 0,2.18403 -1.16211,4.68919 -2.58248,5.56702 -1.42036,0.87784 -13.14129,-0.44054 -26.046509,-2.92973 -17.657704,-3.40586 -26.499801,-3.77062 -35.731929,-1.47403 -6.747347,1.67847 -14.784557,3.99647 -17.860465,5.15112 z M 159.09532,-111.48 c -2.35391,0.90328 -5.09481,-0.55738 -6.13564,-3.26977 -1.03467,-2.69629 -1.15208,-5.63147 -0.26092,-6.52263 0.89116,-0.89116 6.74967,-2.81073 13.01891,-4.26572 6.26923,-1.45498 18.09628,-2.64796 26.28233,-2.65106 8.20696,-0.003 20.39422,2.49669 27.16764,5.57251 6.75616,3.06799 13.2806,7.19082 14.49876,9.16184 1.64492,2.66154 0.78195,2.83025 -3.35369,0.65565 -3.06269,-1.61042 -11.09369,-3.84275 -17.84667,-4.96073 -6.75298,-1.11798 -20.56673,-0.52968 -30.69722,1.30733 -10.13049,1.83701 -20.33356,4.07467 -22.6735,4.97259 z"
           id="path3247"
           inkscape:connector-curvature="0" />
        <path
           style="fill:#c29560"
           d="m 132.12849,62.186047 c -20.32438,0 -22.52075,-0.647314 -32.825897,-9.674419 C 93.228339,47.190698 84.474752,36.881932 79.850177,29.603257 75.225603,22.324584 71.44186,15.292026 71.44186,13.97535 c 0,-1.316674 3.402202,-2.393955 7.560448,-2.393955 4.158247,0 12.53034,-2.5311788 18.604652,-5.6248436 8.16198,-4.156919 17.25896,-5.60251233 34.85816,-5.53928033 17.14389,0.0615888 26.90732,1.63706343 34.85815,5.62484393 6.07431,3.0466054 14.44641,5.53928 18.60465,5.53928 4.46211,0 7.56045,1.691982 7.56045,4.128703 0,2.270785 -4.35349,10.607223 -9.67442,18.525419 -5.32093,7.918193 -14.226,17.446326 -19.78904,21.173623 -8.22738,5.512424 -14.17883,6.776907 -31.89642,6.776907 z m 9.1685,-22.530382 c 11.40637,-0.794853 23.79706,-3.449005 27.53488,-5.898118 3.73782,-2.449113 6.79604,-5.590382 6.79604,-6.980602 0,-1.390217 -5.02326,-3.17482 -11.16279,-3.965779 -6.13954,-0.790963 -24.24397,-1.164708 -40.23208,-0.830548 -15.98811,0.334161 -29.973489,1.51177 -31.078626,2.616907 -1.10514,1.105137 0.106955,4.12563 2.693522,6.712204 2.586573,2.586576 9.204514,5.847721 14.706534,7.246991 5.50202,1.399272 19.33615,1.893795 30.74252,1.098945 z M 76.432447,-33.069767 c -4.019278,0 -10.398712,-2.502886 -14.176515,-5.561967 -5.023929,-4.068128 -6.877393,-8.665227 -6.900963,-17.116279 -0.01786,-6.354872 1.056816,-13.893271 2.387867,-16.752 2.104389,-4.519647 1.218709,-4.957413 -6.789391,-3.355794 -6.15187,1.230375 -11.691776,0.215427 -16.686116,-3.056979 -4.112145,-2.694382 -7.476631,-6.254663 -7.476631,-7.911733 0,-1.882645 2.459112,-1.696777 6.555389,0.495482 4.374173,2.340989 6.897836,2.480985 7.584586,0.420739 0.566061,-1.698179 3.66395,-2.398595 6.884203,-1.55648 4.695534,1.22791 5.46474,0.428475 3.884276,-4.036936 -1.614032,-4.560253 -1.244892,-4.894577 2.039478,-1.847123 2.231796,2.070805 11.520548,3.72093 20.945548,3.72093 12.473243,0 18.786923,1.542522 23.962791,5.854455 5.895411,4.911369 6.188291,5.870408 1.818151,5.953488 -2.86512,0.05447 -5.209306,0.568913 -5.209306,1.143207 0,0.574294 1.484958,5.303924 3.299905,10.510289 2.492661,7.150455 2.392791,11.65609 -0.40826,18.418426 -2.039492,4.92377 -6.115456,10.240651 -9.0577,11.815293 -2.94224,1.574641 -8.638032,2.862982 -12.657312,2.862982 z m 1.693779,-27.326104 c 4.391218,-0.623557 6.710983,-2.996799 6.710983,-6.865688 0,-3.393381 -2.354345,-6.366128 -5.525492,-6.976834 -3.03902,-0.585263 -6.900608,0.311005 -8.581304,1.991701 -1.6807,1.6807 -2.214171,5.249111 -1.185492,7.9298 1.148384,2.992646 4.460738,4.506144 8.581305,3.921021 z m 110.897034,27.326104 c -4.24186,0 -11.00043,-3.287948 -15.01903,-7.306553 -4.91152,-4.911524 -7.30656,-10.64657 -7.30656,-17.495981 0,-5.604182 2.00931,-11.856997 4.46512,-13.895141 2.45581,-2.038144 4.46512,-4.755825 4.46512,-6.039293 0,-1.283468 -3.01396,-1.613642 -6.69768,-0.733726 -6.45323,1.541466 -6.50454,1.396361 -1.40585,-3.975826 3.81782,-4.022593 11.07297,-6.005215 26.04652,-7.117752 11.41508,-0.848143 20.75468,-0.367729 20.75468,1.067582 0,1.435312 2.67907,1.909064 5.95349,1.052786 3.27442,-0.856279 5.95349,-0.252488 5.95349,1.341785 0,1.639174 2.91018,1.992897 6.69767,0.81408 l 6.69768,-2.084578 -5.91312,6.617007 c -4.84515,5.42192 -7.9365,6.293454 -17.11628,4.82555 -6.36776,-1.018246 -11.20316,-0.567308 -11.20316,1.044783 0,1.559936 1.33953,3.664122 2.97674,4.675974 1.63721,1.011852 2.97675,6.509934 2.97675,12.217963 0,7.049871 -2.34326,12.721486 -7.30656,17.684787 -4.0186,4.018605 -10.77716,7.306553 -15.01902,7.306553 z m 2.76407,-24.83128 c 1.52025,-0.453965 4.17661,-3.064716 5.90304,-5.801666 2.35695,-3.736561 1.94027,-6.174958 -1.67262,-9.787838 -3.84026,-3.840265 -6.08348,-4.130852 -11.11233,-1.439494 -3.46542,1.854637 -6.30077,5.267679 -6.30077,7.584539 0,2.316856 2.34419,5.575379 5.2093,7.241159 2.86512,1.66578 6.45314,2.657265 7.97338,2.2033 z M 43.356577,-116.49228 c -4.199606,1.59668 -7.635647,2.30085 -7.635647,1.56481 0,-0.73604 4.353489,-3.63019 9.674419,-6.43146 6.929765,-3.64825 16.057451,-4.97736 32.173484,-4.68486 12.374487,0.22459 26.322847,1.86215 30.996357,3.63901 6.232,2.3694 7.61544,4.11252 5.18938,6.53858 -2.42605,2.42605 -7.84585,2.39656 -20.330031,-0.11062 -9.362167,-1.88019 -22.739415,-3.41853 -29.72722,-3.41853 -6.987803,0 -16.14114,1.30638 -20.340742,2.90307 z m 121.391923,1.36235 c -5.32033,1.15382 -10.18007,0.75992 -11.21135,-0.90871 -1.00117,-1.61993 -0.79381,-3.57723 0.4608,-4.34954 1.25462,-0.77232 8.97879,-2.20278 17.16484,-3.17881 8.18605,-0.97602 12.87442,-0.9056 10.41861,0.15649 -2.45582,1.0621 -5.13489,2.90148 -5.95349,4.08752 -0.81861,1.18603 -5.71434,3.0729 -10.87941,4.19304 z m 59.99569,-1.9448 c -1.63721,-0.24484 -10.00931,-0.93714 -18.60466,-1.53846 -8.59534,-0.6013 -15.6279,-2.36282 -15.6279,-3.91447 0,-1.55165 5.02325,-2.77371 11.16279,-2.7157 6.13953,0.058 14.51163,2.01986 18.60465,4.35964 4.09302,2.33978 6.10233,4.05383 4.46512,3.80899 z"
           id="path3245"
           inkscape:connector-curvature="0" />
        <path
           style="fill:#a87648"
           d="M 138.4186,54.772423 C 128.59535,55.44698 115.26714,54.677233 108.80035,53.061876 102.33357,51.446519 94.628185,47.939873 91.67727,45.269334 88.726358,42.598793 82.946643,34.392579 78.833465,27.033299 74.720286,19.674023 71.709395,13.434314 72.142595,13.167283 72.575795,12.900251 82.976744,11.310699 95.255814,9.634947 107.53488,7.9591948 126.95814,6.8831553 138.4186,7.2437522 c 11.46047,0.3605938 26.69517,2.048515 33.85489,3.7509388 7.15973,1.702421 14.86205,2.387557 17.11628,1.522527 2.25423,-0.865027 4.0986,-0.0095 4.0986,1.901184 0,1.910683 -4.31354,10.062982 -9.58566,18.116227 -5.95524,9.096737 -13.00145,15.848353 -18.60465,17.826795 -4.96044,1.751493 -17.0562,3.736442 -26.87946,4.410999 z m -61.571743,-87.93271 c -3.791351,-0.04978 -9.137081,-1.399653 -11.879397,-2.999707 -2.742317,-1.600057 -6.466242,-7.39428 -8.275391,-12.876053 -2.298427,-6.964307 -2.36569,-12.396303 -0.223273,-18.031288 1.686349,-4.435433 3.066088,-8.753417 3.066088,-9.595526 0,-0.842109 -3.94004,-0.665728 -8.755641,0.391956 -4.815604,1.057685 -11.513278,0.447221 -14.883721,-1.356588 -3.370445,-1.803806 -6.12808,-4.66232 -6.12808,-6.352253 0,-1.717966 2.624756,-2.239545 5.953488,-1.183045 3.274419,1.039259 5.953489,0.585169 5.953489,-1.009095 0,-1.594261 2.888534,-2.143289 6.418967,-1.22006 4.004165,1.047111 5.704276,0.522201 4.519192,-1.395305 -1.242686,-2.010707 2.972071,-2.638118 12.185684,-1.813971 7.747003,0.692962 18.304348,1.900657 23.460765,2.683767 5.156418,0.78311 11.013463,3.397692 13.015653,5.810179 2.9524,3.55743 2.72766,4.386346 -1.18926,4.386346 -2.656285,0 -4.829606,0.343727 -4.829606,0.763838 0,0.420111 1.256781,5.145978 2.792847,10.50193 1.817582,6.33753 1.708243,12.849393 -0.313103,18.647835 -1.708276,4.900358 -5.556063,10.221002 -8.550641,11.823651 -2.994578,1.60265 -8.546706,2.873175 -12.33806,2.823389 z m 1.824196,-24.892854 c 1.520244,-0.370316 4.199314,-3.016213 5.953489,-5.879772 2.489924,-4.064613 1.983476,-6.102668 -2.309227,-9.292791 -3.024253,-2.247475 -7.377742,-3.365239 -9.674419,-2.483924 -2.29668,0.881319 -4.17578,4.696294 -4.17578,8.477717 0,3.781427 1.674419,7.545088 3.720931,8.363693 2.046511,0.818605 4.964765,1.18539 6.485006,0.815077 z m 110.352207,24.983374 c -4.24186,0 -11.00043,-3.287948 -15.01903,-7.306553 -4.34449,-4.344487 -7.30656,-10.751065 -7.30656,-15.803151 0,-4.673128 1.9667,-11.096805 4.37045,-14.27484 2.40375,-3.178037 4.41305,-6.873165 4.46512,-8.211402 0.0521,-1.338234 -2.91929,-1.529353 -6.60301,-0.42471 -6.30519,1.890747 -6.40531,1.703594 -1.70861,-3.193785 3.36436,-3.508105 11.8465,-5.830781 26.04651,-7.132359 16.46021,-1.508748 21.05745,-1.069765 21.05745,2.01074 0,3.018448 1.39351,3.195088 5.95349,0.754664 4.28026,-2.290726 5.95349,-2.263784 5.95349,0.09585 0,1.966191 2.6853,2.541833 6.69767,1.435764 l 6.69768,-1.846304 -7.10067,6.170112 c -5.56675,4.837227 -9.36799,5.744759 -17.59644,4.201088 -9.49528,-1.781323 -10.2649,-1.432273 -8.07364,3.661648 1.33218,3.096865 3.02539,9.907444 3.76268,15.134619 1.03369,7.328482 -0.40193,11.246428 -6.27178,17.116279 -4.24782,4.247829 -11.0211,7.612339 -15.3248,7.61234 z m 0.89557,-24.43047 c 2.43089,-0.479521 5.8802,-3.190906 7.66514,-6.025303 2.49658,-3.964437 2.10835,-6.29045 -1.68268,-10.081473 -2.71946,-2.719464 -7.06282,-4.108821 -9.69147,-3.100113 -2.6199,1.005348 -5.5527,3.884652 -6.51734,6.39845 -0.96463,2.513797 -0.0528,6.620234 2.02633,9.125417 2.07912,2.50518 5.76912,4.162539 8.20002,3.683022 z M 37.209302,-113.44186 c -0.818604,0 -1.488372,-0.66977 -1.488372,-1.48837 0,-0.81861 0.669768,-1.48837 1.488372,-1.48837 0.818605,0 1.488372,0.66976 1.488372,1.48837 0,0.8186 -0.669767,1.48837 -1.488372,1.48837 z m 70.697678,-0.35219 c -2.86512,-0.19371 -9.22791,-1.37476 -14.139538,-2.62455 -8.465182,-2.15403 -8.54269,-2.30616 -1.488372,-2.92128 l 7.44186,-0.64891 -7.44186,-2.61579 c -5.635358,-1.98081 -4.556961,-2.20448 4.442445,-0.92141 6.536365,0.93191 12.899155,2.3216 14.139535,3.08819 1.24038,0.76659 2.25523,2.65429 2.25523,4.19487 0,1.54059 -2.34419,2.64258 -5.2093,2.44888 z m -64.744189,-2.62455 c -0.818605,0 -1.488372,-0.66977 -1.488372,-1.48838 0,-0.8186 0.669767,-1.48837 1.488372,-1.48837 0.818604,0 1.488372,0.66977 1.488372,1.48837 0,0.81861 -0.669768,1.48838 -1.488372,1.48838 z M 64,-119.83989 c -12.860547,-0.0581 -13.736528,-0.41125 -6.444264,-2.5984 4.704679,-1.41105 11.291291,-1.38133 14.883721,0.0672 4.923508,1.98521 2.931914,2.58254 -8.439457,2.53122 z m 143.62791,0.23531 c -6.13954,0.11508 -11.16279,-1.1303 -11.16279,-2.76751 0,-1.63721 2.34418,-2.8826 5.2093,-2.76753 2.86511,0.11508 7.88837,1.36046 11.16279,2.76753 4.77581,2.05223 3.74534,2.59969 -5.2093,2.76752 z"
           id="path3243"
           inkscape:connector-curvature="0"
           sodipodi:nodetypes="ssssssssssssssssssssssssssssssssssssssssssssscssssssscssssssssssssssssssssscsssssssssscsscccssscc" />
        <path
           style="fill:#1a1711"
           d="M 139.50922,51.683242 C 129.08612,52.36792 117.87907,52.24479 114.60465,51.409619 111.33023,50.574446 104.2922,48.533188 98.964584,46.873487 92.332374,44.80737 86.935275,39.858283 81.848305,31.178023 77.761971,24.20522 74.425219,17.278351 74.433304,15.784981 c 0.008,-1.493367 6.370875,-3.249369 14.139535,-3.902229 7.768659,-0.65286 27.520181,-1.157677 43.892281,-1.121819 16.37209,0.03587 36.79759,1.0912 45.39,2.345201 l 15.62256,2.280008 -6.69233,12.23716 c -4.12458,7.541956 -10.84239,14.266451 -17.50869,17.526117 -5.949,2.908925 -19.34435,5.849145 -29.76744,6.533823 z M 76.024424,-33.069767 c -3.586843,0 -9.4341,-3.100288 -12.993908,-6.889529 -3.905524,-4.157241 -6.472376,-10.72779 -6.472376,-16.56779 0,-5.323041 1.49387,-12.469579 3.319709,-15.881192 3.137929,-5.863275 2.734932,-6.108035 -7.359675,-4.469906 -7.921893,1.285545 -12.429991,0.287375 -17.459245,-3.865728 l -6.779859,-5.59875 6.697674,1.681304 c 4.246751,1.066052 6.697675,0.331579 6.697675,-2.007109 0,-2.846431 1.071077,-2.7995 4.691988,0.205604 2.843797,2.360142 5.482041,2.774388 6.697675,1.051648 1.103128,-1.563294 8.980778,-3.215696 17.505887,-3.671998 9.758437,-0.522321 18.855549,0.905472 24.55814,3.854395 4.981871,2.576211 9.057941,5.464615 9.057941,6.418661 0,0.95405 -3.46269,0.865554 -7.694854,-0.196643 -7.478335,-1.876942 -7.562095,-1.741747 -2.976745,4.804756 2.594959,3.704815 4.718107,11.698897 4.718107,17.764614 0,8.368843 -1.891551,12.516474 -7.843301,17.198122 -4.313814,3.393247 -10.77799,6.169541 -14.364833,6.169541 z m 1.630679,-23.813954 c 3.016346,0 6.757352,-2.378776 8.313341,-5.286171 1.794691,-3.353409 1.778902,-7.162722 -0.04319,-10.418604 -1.579728,-2.822838 -5.437622,-5.132434 -8.573083,-5.132434 -3.135464,0 -7.18046,2.764696 -8.988886,6.143768 -2.440624,4.560345 -2.373677,7.245514 0.259751,10.418604 1.951291,2.351161 6.015723,4.274837 9.032067,4.274837 z m 110.430177,23.612488 c -1.12132,-0.110795 -4.95738,-1.6125 -8.52456,-3.337091 -3.56719,-1.724592 -7.99789,-6.786132 -9.846,-11.247861 -1.84811,-4.461731 -2.46483,-11.679675 -1.37049,-16.039873 1.09434,-4.360201 3.18085,-8.663802 4.63669,-9.563559 1.45585,-0.899759 2.64699,-3.03972 2.64699,-4.755471 0,-1.715747 -2.00931,-2.348502 -4.46512,-1.406118 -2.45581,0.942386 -4.46512,0.519817 -4.46512,-0.939041 0,-1.458855 4.35349,-4.070567 9.67442,-5.803803 5.32093,-1.733236 16.03721,-3.00677 23.81396,-2.830077 7.77674,0.1767 14.13953,1.351478 14.13953,2.610629 0,1.259153 5.27591,2.019997 11.72425,1.690763 6.44834,-0.32923 10.99964,0.573842 10.114,2.006832 -0.88563,1.43299 -4.47477,3.665093 -7.97586,4.960226 -3.50108,1.295137 -10.06169,1.294774 -14.57911,-8.06e-4 -4.51743,-1.295584 -8.21351,-1.539564 -8.21351,-0.542182 0,0.997382 1.55895,6.124631 3.46434,11.393888 2.71465,7.507232 2.61405,11.633244 -0.46487,19.066412 -2.16106,5.217271 -7.15605,10.712794 -11.09998,12.212272 -3.94393,1.499478 -8.08823,2.635666 -9.20956,2.52486 z m 1.66524,-24.157318 c 6.92024,-0.795997 8.20297,-2.339998 8.20297,-9.873775 0,-7.928882 -0.99678,-8.930232 -8.88947,-8.930232 -6.20887,0 -9.20208,1.623287 -9.92617,5.383183 -0.57019,2.960753 -0.26127,7.403951 0.6865,9.873774 1.09968,2.865747 4.6913,4.149185 9.92617,3.54705 z"
           id="path3241"
           inkscape:connector-curvature="0"
           sodipodi:nodetypes="sssscssscssssssssscsssssssssssssssssssssssssssssssssssssssssssss" />
        <path
           style="fill:#ff2a2a;fill-opacity:1;stroke:#ff2a2a;stroke-width:0.25767452;stroke-opacity:1"
           d="m -138.94573,167.41212 c -4.64482,-0.41728 -11.75446,-1.78734 -15.33163,-2.95448 -4.39686,-1.43458 -11.22825,-5.7534 -15.81921,-10.00093 -6.14858,-5.68863 -19.81325,-26.34216 -23.32806,-35.2593 -1.32611,-3.36438 -0.32007,-4.35414 5.16053,-5.07699 5.29792,-0.69876 11.07851,-2.87264 22.26255,-8.37217 3.96818,-1.95128 8.49037,-3.9952 10.0493,-4.54206 2.75222,-0.96544 2.9353,-0.99422 6.31303,-0.99255 2.80558,0.001 3.87743,0.11285 5.54,0.57607 7.05157,1.96469 6.83321,1.92334 10.86247,2.05707 4.79256,0.15907 6.2307,-0.0712 11.29754,-1.8091 3.79902,-1.303033 3.91799,-1.325856 6.95721,-1.334635 2.56824,-0.0074 3.39768,0.09293 4.89581,0.592315 2.09474,0.69825 6.18773,2.6686 12.368381,5.95409 6.677562,3.54964 13.678692,6.39426 18.037215,7.32866 0.992047,0.21268 3.269421,0.50812 5.06083,0.65654 2.192135,0.18162 3.654673,0.44027 4.473016,0.79105 1.199555,0.51419 1.213528,0.5339 1.038761,1.46549 -0.702027,3.74213 -10.694778,19.66105 -19.945785,31.77457 -6.928071,9.0718 -14.659118,14.82038 -22.515028,16.7415 -7.67182,1.87611 -20.61085,3.0127 -27.37693,2.40486 z m 7.34372,-12.96255 c 7.44296,-0.32246 10.66849,-0.63386 16.27373,-1.57109 8.23008,-1.37613 15.571871,-3.42972 19.588071,-5.47903 5.405942,-2.75845 10.829222,-7.74405 14.754174,-13.56346 1.61136,-2.38912 9.054548,-15.66935 8.870613,-15.82706 -0.179128,-0.15359 -16.627548,-2.44573 -20.32006,-2.83167 -10.982528,-1.1479 -25.415108,-1.69784 -44.521228,-1.69642 -21.00415,0.002 -36.17241,0.50071 -43.34578,1.42642 -5.18286,0.66885 -10.11041,2.14084 -10.49157,3.13413 -0.23498,0.61235 0.38499,2.31368 2.28141,6.26064 7.0387,14.64939 13.10934,21.75894 21.09389,24.70377 1.74409,0.64325 10.62597,3.2913 14.81628,4.41733 4.42165,1.1882 10.45739,1.48321 21.00047,1.02644 l 0,0 z"
           id="path3257"
           inkscape:connector-curvature="0"
           transform="translate(265.40474,-102.55445)" />
        <path
           style="fill:#c29560;fill-opacity:1;stroke:#c29560;stroke-width:0.0911017;stroke-opacity:1"
           d="m -228.80095,-11.054803 c -1.31338,-0.596468 -1.03532,-2.505588 0.40412,-2.774573 0.1672,-0.03124 0.61815,-0.277322 1.00212,-0.54684 1.57595,-1.106215 4.696,-2.955374 7.21189,-4.27428 5.73027,-3.003983 12.203,-4.358098 22.56614,-4.720908 3.75111,-0.131326 12.35606,-0.05467 15.83322,0.141048 10.0611,0.566305 19.13129,1.72302 23.68644,3.020716 0.88856,0.253139 2.6694,0.958345 4.06524,1.609821 1.70881,0.797545 2.99479,1.793321 3.31945,2.570361 0.448,1.072217 -0.34201,2.363851 -2.21796,3.626254 -0.94884,0.638508 -1.65141,0.922304 -2.6356,1.064613 -1.23597,0.178718 -1.99471,0.129353 -5.67414,-0.369174 -4.02761,-0.545703 -5.8414,-0.839091 -9.88453,-1.598867 -8.48432,-1.594356 -14.94817,-2.503993 -22.22881,-3.128195 -6.26597,-0.537209 -10.14216,-0.560727 -15.21453,-0.09231 -5.28603,0.488144 -11.3245,1.618342 -12.89292,2.413119 -0.24578,0.124548 -0.53368,0.22645 -0.63976,0.22645 -0.10609,0 -0.83512,0.219266 -1.62008,0.487257 -0.78497,0.267991 -1.78163,0.583733 -2.21482,0.701648 l -0.78761,0.214391 -0.0484,0.360911 c -0.0637,0.475005 -0.30161,0.786373 -0.79243,1.03717 -0.48485,0.247748 -0.74603,0.254375 -1.23703,0.03139 l 0,0 z"
           id="path3288"
           inkscape:connector-curvature="0"
           transform="translate(265.40474,-102.55445)" />
        <path
           style="fill:#c29560;fill-opacity:1;stroke:#c29560;stroke-width:0.0911017;stroke-opacity:1"
           d="m -235.44601,-7.971872 c -0.19289,-0.3120962 0.41166,-1.3678009 1.71818,-3.000444 0.79733,-0.996349 1.27803,-1.481916 2.2484,-2.271187 3.01121,-2.449235 8.61558,-5.53225 14.16631,-7.793015 5.88437,-2.396651 10.80302,-3.60275 17.17267,-4.210896 2.68719,-0.256561 11.3111,-0.231349 15.30508,0.04474 14.24938,0.985019 27.67718,2.794162 30.62869,4.126641 2.58941,1.169005 4.62386,3.475119 4.868,5.518033 0.12754,1.067207 -0.37456,3.046941 -1.0787,4.253213 -0.42184,0.722663 -1.19806,1.5545577 -1.59265,1.7068934 -1.01806,0.3930318 -4.80452,0.2205499 -10.36877,-0.4723204 -4.60318,-0.573196 -8.26266,-1.164108 -16.06925,-2.594771 -10.22558,-1.873975 -15.13032,-2.530927 -20.73583,-2.77741 -5.0654,-0.222733 -9.83677,0.245084 -14.57627,1.429156 -6.32255,1.579561 -13.32837,3.588763 -17.14285,4.9164011 -1.09368,0.3806575 -2.3744,0.8113261 -2.84603,0.9570406 -0.87631,0.2707396 -1.5898,0.3413416 -1.69698,0.1679223 l 0,0 z m 7.87495,-3.041342 c 0.34696,-0.179421 0.82891,-0.743625 0.82891,-0.97038 0,-0.314872 0.16302,-0.510921 0.47505,-0.571306 0.43193,-0.08359 4.28174,-1.310037 5.04591,-1.607493 2.6713,-1.039822 9.18966,-2.100028 15.43243,-2.510078 7.4801,-0.491321 19.57313,0.668869 33.40282,3.204626 5.28012,0.968141 7.22996,1.284757 10.82706,1.758102 1.55328,0.204399 2.99002,0.393701 3.19274,0.420671 0.20272,0.02697 0.89965,0.05043 1.54873,0.05213 1.82342,0.0048 2.60189,-0.239521 4.16504,-1.307113 2.25801,-1.542162 2.70869,-3.159052 1.24828,-4.478442 -1.08463,-0.979901 -3.81106,-2.320281 -6.37407,-3.133657 -4.4317,-1.406405 -15.28596,-2.751036 -25.96399,-3.216431 -3.19632,-0.139309 -12.99101,-0.141601 -15.48728,-0.0036 -7.85282,0.434053 -13.11593,1.374061 -17.67373,3.156585 -2.46147,0.962662 -6.47591,3.144715 -9.89418,5.377999 -0.70679,0.46177 -1.48934,0.90743 -1.739,0.990352 -0.45302,0.150468 -0.81867,0.456885 -1.02642,0.860134 -0.1322,0.25661 -0.14254,0.884555 -0.0197,1.198901 0.0934,0.239183 0.48176,0.634579 0.79057,0.804951 0.25962,0.143239 0.92089,0.129192 1.22087,-0.02593 l 0,0 z"
           id="path3290"
           inkscape:connector-curvature="0"
           transform="translate(265.40474,-102.55445)" />
        <path
           style="fill:#c29560;fill-opacity:1;stroke:#c29560;stroke-width:0.0911017;stroke-opacity:1"
           d="m -107.30782,-11.939473 c -1.72324,-0.105996 -3.20446,-0.457024 -3.90021,-0.924295 -0.81183,-0.545235 -1.2298,-1.458271 -1.24021,-2.709184 -0.005,-0.649662 0.0327,-0.905254 0.1834,-1.230895 0.23338,-0.504181 0.67672,-0.959972 1.11791,-1.149288 2.42468,-1.040454 13.340471,-2.823666 21.74059,-3.551562 2.191724,-0.189919 5.419224,-0.217002 5.898835,-0.0495 0.187897,0.06562 0.341631,0.150777 0.341631,0.189231 0,0.1449 -0.347974,0.365683 -1.275424,0.809232 -1.931444,0.923704 -3.767318,2.157168 -4.782839,3.213434 -0.956472,0.994849 -1.064349,1.087856 -1.699315,1.465082 -2.556866,1.519006 -8.981283,3.409228 -12.922508,3.802118 -1.14801,0.114442 -2.77193,0.178062 -3.46186,0.135625 z"
           id="path3292"
           inkscape:connector-curvature="0"
           transform="translate(265.40474,-102.55445)" />
        <path
           style="fill:#c29560;fill-opacity:1;stroke:#c29560;stroke-width:0.0911017;stroke-opacity:1"
           d="m -109.15501,-8.9164809 c -0.83189,-0.2935907 -1.40796,-0.679154 -2.06644,-1.3830631 -0.68399,-0.731194 -1.0178,-1.306241 -1.36889,-2.358154 -0.78984,-2.366482 -0.9218,-4.559797 -0.34211,-5.68624 0.16986,-0.330079 0.32932,-0.472341 0.84445,-0.753404 2.54609,-1.389176 10.57933,-3.675393 16.25899,-4.627221 7.110461,-1.191609 17.808482,-2.046482 23.549789,-1.881851 8.512449,0.244093 19.742436,2.673338 26.37394,5.705151 5.534477,2.530271 11.201488,5.968722 13.395406,8.127645 0.542222,0.533573 0.778713,0.857433 1.123911,1.539129 0.546318,1.0788643 0.552704,1.3884771 0.02953,1.4316146 -0.496546,0.040942 -1.060904,-0.1656474 -3.099646,-1.1346579 -0.993354,-0.4721387 -2.223227,-1.0168687 -2.733051,-1.2105097 -4.862826,-1.846999 -13.380066,-3.885711 -18.129638,-4.339565 -3.174627,-0.303358 -9.533709,-0.323742 -13.999645,-0.04488 -6.419437,0.400847 -10.951746,0.992297 -18.214792,2.376966 -8.273435,1.577294 -15.683404,3.2364985 -18.520284,4.1469724 -1.24482,0.3995147 -2.1539,0.4264999 -3.10152,0.092065 l 0,0 z m 4.54423,-3.0603651 c 3.39414,-0.270177 8.108761,-1.438419 11.651474,-2.887131 1.754676,-0.717535 2.423848,-1.141652 3.661476,-2.320619 1.313383,-1.251133 2.58746,-2.131975 4.650479,-3.215142 0.789759,-0.414655 1.448649,-0.817607 1.464198,-0.895449 0.01555,-0.07784 -0.06644,-0.195542 -0.182204,-0.261555 -0.349919,-0.199542 -4.511629,-0.140223 -6.997551,0.09974 -8.743642,0.844015 -18.419112,2.466703 -20.790342,3.486782 -0.93441,0.401973 -1.40496,1.316076 -1.3233,2.570685 0.0885,1.359291 0.60402,2.256767 1.56731,2.728443 1.37411,0.672835 3.55186,0.912877 6.29846,0.694245 z m 64.495704,-2.648029 c 0.228411,-0.369577 -3.200315,-2.793891 -5.797441,-4.099138 -3.445088,-1.73141 -9.273586,-3.228667 -14.705687,-3.777679 -1.651825,-0.166947 -5.093975,-0.189344 -6.8437,-0.04453 -4.341047,0.359282 -7.413716,1.415474 -7.413716,2.548372 0,1.231412 4.315338,2.59778 10.932204,3.461471 1.822792,0.237927 3.225515,0.359339 11.156294,0.965626 6.344426,0.485015 9.934259,0.789434 11.163621,0.946679 0.875252,0.111952 1.438925,0.111652 1.508425,-8.2e-4 l 0,1.8e-5 z"
           id="path3294"
           inkscape:connector-curvature="0"
           transform="translate(265.40474,-102.55445)" />
        <path
           style="fill:#c29560;fill-opacity:1;stroke:#c29560;stroke-width:0.0911017;stroke-opacity:1"
           d="m -108.53185,-8.764844 c -0.0147,-0.01471 -0.10403,-0.041894 -0.1985,-0.060409 -1.22259,-0.239622 -2.75121,-1.522182 -3.44733,-2.892414 -0.17356,-0.341646 -0.29568,-0.621175 -0.27136,-0.621175 0.0243,0 -0.0169,-0.118184 -0.0916,-0.262632 -0.0747,-0.144448 -0.15932,-0.396069 -0.18805,-0.559158 -0.0287,-0.163088 -0.0931,-0.37287 -0.14304,-0.466181 -0.0499,-0.09331 -0.0732,-0.169656 -0.0516,-0.169656 0.0215,0 0.001,-0.153734 -0.045,-0.341631 -0.29761,-1.208162 -0.37627,-2.440967 -0.20739,-3.250241 0.13573,-0.650426 0.11223,-0.575096 0.2862,-0.917662 0.15475,-0.304721 0.42645,-0.592161 0.55974,-0.592161 0.048,0 0.10099,-0.04058 0.11769,-0.09018 0.0607,-0.18014 4.89932,-2.005047 5.71554,-2.155623 0.12049,-0.02223 0.29472,-0.0809 0.38718,-0.130384 0.0925,-0.04948 0.16811,-0.06301 0.16811,-0.03006 0,0.03295 0.0615,0.0089 0.13665,-0.0535 0.0752,-0.06238 0.13666,-0.08734 0.13666,-0.05548 0,0.03186 0.14348,-0.002 0.31885,-0.0753 0.17537,-0.07328 0.31886,-0.115835 0.31886,-0.09458 0,0.02126 0.11274,-0.005 0.25053,-0.05829 0.2462,-0.09526 0.34203,-0.122866 0.70639,-0.203475 0.10041,-0.02221 0.36688,-0.09259 0.59216,-0.156385 0.61229,-0.173393 0.82282,-0.228562 1.5256,-0.399774 0.11274,-0.02746 0.27672,-0.06846 0.36441,-0.0911 0.0877,-0.02264 0.25167,-0.06364 0.36441,-0.0911 0.11273,-0.02747 0.29721,-0.07254 0.40995,-0.100158 0.11274,-0.02762 0.28697,-0.06828 0.38718,-0.09035 0.10022,-0.02207 0.2847,-0.06307 0.40996,-0.0911 0.125267,-0.02804 0.309748,-0.06903 0.40996,-0.0911 0.100212,-0.02207 0.284693,-0.06317 0.409958,-0.09134 0.125265,-0.02817 0.309745,-0.06627 0.409957,-0.08467 0.100212,-0.0184 0.264195,-0.05178 0.364407,-0.07418 0.169615,-0.03791 0.733721,-0.15009 1.04767,-0.208344 0.07516,-0.01395 0.280137,-0.04801 0.455508,-0.0757 0.175371,-0.02769 0.441843,-0.07863 0.592161,-0.113208 0.150318,-0.03458 0.334799,-0.07212 0.409958,-0.08344 0.499659,-0.07522 0.982959,-0.149458 1.138771,-0.174923 0.100212,-0.01638 0.346186,-0.05456 0.54661,-0.08485 0.200424,-0.03029 0.507892,-0.07683 0.683263,-0.103419 0.175371,-0.02659 0.441843,-0.06417 0.592161,-0.0835 0.338882,-0.04359 0.989696,-0.132183 1.412076,-0.192232 0.394315,-0.05606 1.066774,-0.135334 2.323093,-0.273868 0.25053,-0.02763 0.598994,-0.06721 0.774365,-0.08797 0.17537,-0.02076 0.544332,-0.05938 0.819915,-0.08582 0.275583,-0.02645 0.665042,-0.06677 0.865466,-0.08962 0.200424,-0.02284 0.651377,-0.06488 1.002119,-0.09341 0.613087,-0.04987 0.898134,-0.07439 2.095339,-0.180235 0.300635,-0.02658 0.83358,-0.06821 1.184322,-0.09251 0.350741,-0.0243 0.939753,-0.06502 1.308915,-0.0905 0.369162,-0.02547 1.107085,-0.06958 1.639831,-0.09802 0.532744,-0.02844 1.276095,-0.06843 1.651889,-0.08887 0.945432,-0.05142 6.563578,-0.05334 7.288136,-0.0025 1.015673,0.07128 2.131055,0.159622 2.368644,0.1876 0.125265,0.01475 0.432733,0.05101 0.683263,0.08058 0.634988,0.07495 1.294013,0.14861 1.776483,0.198564 0.225476,0.02334 0.512447,0.05924 0.637712,0.07978 0.125264,0.02053 0.412235,0.06493 0.637712,0.09866 0.225476,0.03373 0.491949,0.07472 0.592161,0.0911 0.100211,0.01638 0.366684,0.05737 0.592161,0.0911 0.225476,0.03373 0.491949,0.07472 0.592161,0.0911 0.100211,0.01638 0.346186,0.05312 0.54661,0.08164 0.348684,0.04963 0.604654,0.09637 1.002118,0.183015 1.021173,0.222602 1.565935,0.333929 1.849283,0.377919 0.489567,0.076 0.580762,0.09273 0.883768,0.162094 0.150318,0.03441 0.365546,0.08237 0.478284,0.106579 0.112738,0.02421 0.297219,0.06649 0.409958,0.09395 0.112738,0.02746 0.266632,0.06416 0.341986,0.08155 0.07535,0.01739 0.300831,0.07498 0.50106,0.127969 0.200228,0.05299 0.466541,0.116683 0.591805,0.141531 0.125265,0.02485 0.330244,0.06988 0.455509,0.100069 0.125265,0.03019 0.318924,0.0739 0.430353,0.09712 0.111431,0.02323 0.30616,0.0816 0.432733,0.129728 0.126574,0.04812 0.230134,0.06657 0.230134,0.04099 0,-0.02557 0.07634,-0.0056 0.169656,0.0443 0.09331,0.04994 0.303936,0.114454 0.468056,0.143368 0.16412,0.02891 0.374745,0.09343 0.468056,0.143368 0.09331,0.04994 0.169656,0.06831 0.169656,0.04082 0,-0.02749 0.143485,0.01 0.318856,0.08325 0.175371,0.07327 0.318856,0.113378 0.318856,0.08912 0,-0.02426 0.07565,-0.0036 0.16811,0.04586 0.09246,0.04948 0.266692,0.108736 0.387182,0.131673 0.386507,0.07358 2.583625,0.805651 2.701593,0.900164 0.06263,0.05018 0.113878,0.0607 0.113878,0.02337 0,-0.03732 0.06149,-0.01683 0.136652,0.04555 0.07516,0.06238 0.136653,0.08287 0.136653,0.04555 0,-0.03732 0.06779,-0.0116 0.150654,0.05717 0.08286,0.06877 0.175101,0.118515 0.204978,0.11055 0.02988,-0.008 0.192568,0.04328 0.361531,0.113877 0.168964,0.0706 0.343752,0.128359 0.388419,0.128359 0.04467,0 0.152398,0.04067 0.239404,0.09039 0.139805,0.07988 0.878451,0.40743 2.344632,1.039719 0.555342,0.239491 3.4088,1.695608 4.611884,2.353441 1.605466,0.877851 3.028467,1.726241 4.224981,2.518924 0.651377,0.431534 1.220834,0.800194 1.265461,0.819245 0.04463,0.01905 0.147117,0.08907 0.227755,0.155595 0.248711,0.205184 0.798932,0.62264 1.010055,0.766334 0.769287,0.523591 2.086482,1.850642 2.351052,2.368644 0.06398,0.125265 0.172375,0.330244 0.240882,0.455509 0.264183,0.4830635 0.382783,0.8742286 0.32967,1.0873073 -0.0477,0.1913764 -0.104971,0.2202065 -0.416993,0.2099302 -0.520021,-0.017126 -0.84548,-0.097397 -1.11747,-0.2756109 -0.131082,-0.085889 -0.241802,-0.1356631 -0.246045,-0.1106102 -0.0042,0.025053 -0.190526,-0.044286 -0.413964,-0.1540867 -0.681596,-0.3349463 -1.898332,-0.8931157 -3.045203,-1.3969697 -1.013789,-0.445387 -4.517612,-1.660725 -5.080413,-1.762197 -0.136965,-0.02469 -0.283323,-0.06609 -0.325241,-0.092 -0.04192,-0.02591 -0.175829,-0.06871 -0.297582,-0.09512 -0.121754,-0.02641 -0.508341,-0.131697 -0.859083,-0.233975 -0.350741,-0.102278 -0.719703,-0.203696 -0.819915,-0.225374 -0.100212,-0.02168 -0.264195,-0.06004 -0.364407,-0.08525 -0.349625,-0.08795 -0.548054,-0.137289 -0.751589,-0.186873 l -0.409958,-0.09987 c -0.112738,-0.02747 -0.266472,-0.06649 -0.341631,-0.08671 -0.07516,-0.02023 -0.228893,-0.05925 -0.341631,-0.08672 -0.381981,-0.09306 -0.614621,-0.1516 -0.706038,-0.177669 -0.240047,-0.06845 -0.568225,-0.147813 -0.774365,-0.18726 -0.125265,-0.02397 -0.381488,-0.08157 -0.569385,-0.128006 -0.187898,-0.04643 -0.341632,-0.0668 -0.341632,-0.04526 0,0.02154 -0.07174,0.0013 -0.159428,-0.04488 -0.08769,-0.04622 -0.323411,-0.108016 -0.523834,-0.137319 -0.200424,-0.0293 -0.466897,-0.07534 -0.592161,-0.102309 -0.125265,-0.02696 -0.330244,-0.06868 -0.455509,-0.0927 -0.125265,-0.02402 -0.330244,-0.06502 -0.455508,-0.0911 -0.653855,-0.136165 -0.813148,-0.165724 -1.457628,-0.270484 -0.441256,-0.07173 -0.816763,-0.134486 -1.138771,-0.190327 -0.150318,-0.02607 -0.41679,-0.0645 -0.592161,-0.08541 -0.175371,-0.02091 -0.503337,-0.06328 -0.728813,-0.09415 -0.912166,-0.124896 -1.449419,-0.164452 -3.826272,-0.281716 -1.392646,-0.06871 -6.914303,-0.0632 -8.518008,0.0085 -0.701483,0.03136 -1.664883,0.0734 -2.14089,0.09342 -0.476006,0.02002 -1.152436,0.05975 -1.503178,0.08829 -0.350741,0.02854 -0.904184,0.07239 -1.229873,0.09744 -1.443938,0.111072 -2.422945,0.196841 -3.051906,0.267371 -0.25053,0.02809 -0.63999,0.07158 -0.865467,0.09663 -1.477819,0.164203 -2.090354,0.233004 -2.368644,0.266052 -0.125264,0.01487 -0.473728,0.05504 -0.774364,0.08925 -0.300636,0.03421 -0.619778,0.08357 -0.709205,0.109685 -0.08943,0.02612 -0.294405,0.06349 -0.455508,0.08305 -0.161103,0.01956 -0.415901,0.05562 -0.566219,0.08015 -0.150318,0.02452 -0.51928,0.0712 -0.819916,0.103733 -0.300635,0.03253 -0.574196,0.07571 -0.607914,0.09595 -0.03372,0.02024 -0.259193,0.05999 -0.501059,0.08833 -0.241865,0.02834 -0.9727,0.152862 -1.624077,0.276715 -1.549731,0.294667 -1.479302,0.282283 -2.00125,0.351872 -0.248888,0.03318 -0.480463,0.0776 -0.514615,0.09871 -0.03415,0.02111 -0.240474,0.06017 -0.458495,0.08682 -0.218022,0.02664 -0.464871,0.06951 -0.548553,0.09525 -0.08368,0.02575 -0.247666,0.06601 -0.364407,0.08947 -0.285548,0.05739 -0.718258,0.140445 -0.94107,0.180624 -0.100212,0.01807 -0.284693,0.05335 -0.409958,0.07841 l -0.455508,0.0911 c -0.125265,0.02505 -0.350742,0.0683 -0.50106,0.0961 -0.150317,0.0278 -0.355296,0.06846 -0.455508,0.09035 -0.100212,0.02189 -0.325689,0.06198 -0.501059,0.08909 -0.175371,0.02711 -0.913295,0.173945 -1.639831,0.326294 -0.726536,0.15235 -1.443962,0.299727 -1.59428,0.327505 -0.150317,0.02778 -0.437288,0.09002 -0.637711,0.138307 -0.200424,0.04829 -0.487395,0.109783 -0.637712,0.136652 -0.150318,0.02687 -0.437288,0.08836 -0.637712,0.136653 -0.200424,0.04829 -0.487394,0.110039 -0.637712,0.13722 -0.327946,0.0593 -2.565761,0.560282 -2.824153,0.632245 -0.100211,0.02791 -0.305188,0.07158 -0.455508,0.09706 -0.15032,0.02547 -0.49878,0.107095 -0.77436,0.181385 -0.27559,0.07429 -0.62405,0.156282 -0.77437,0.182203 -0.15032,0.02592 -0.49878,0.107587 -0.77436,0.181478 -0.27559,0.07389 -0.60235,0.1555589 -0.72615,0.1814864 -0.17703,0.037075 -1.45859,0.3982921 -2.55351,0.7197271 -0.0752,0.022065 -0.30064,0.083476 -0.50106,0.1364713 -0.20043,0.052995 -0.4464,0.118301 -0.54661,0.1451241 -0.19596,0.052452 -1.68073,0.1024675 -1.72509,0.058111 l 0,2.7e-6 z m 65.314069,-6.033744 c -0.100212,-0.04306 -0.284692,-0.07633 -0.409957,-0.07392 -0.206661,0.004 -0.202442,0.01082 0.04555,0.07392 0.379354,0.09653 0.589042,0.09653 0.364406,0 z m 0.706038,0.03077 c -0.06263,-0.02527 -0.165121,-0.02527 -0.227754,0 -0.06263,0.02527 -0.01139,0.04595 0.113877,0.04595 0.125265,0 0.17651,-0.02068 0.113877,-0.04595 z m -2.009931,-0.184101 c -0.06576,-0.02632 -0.144339,-0.02308 -0.174612,0.0072 -0.03027,0.03027 0.02354,0.0518 0.119571,0.04785 0.106129,-0.0044 0.127716,-0.02596 0.05504,-0.05504 l 0,3e-6 z m -1.63983,-0.0911 c -0.06576,-0.02632 -0.14434,-0.02308 -0.174612,0.0072 -0.03027,0.03027 0.02353,0.0518 0.119571,0.04785 0.106129,-0.0044 0.127715,-0.02596 0.05504,-0.05504 l 0,4e-6 z m 0.637712,0 c -0.06576,-0.02632 -0.14434,-0.02308 -0.174612,0.0072 -0.03027,0.03027 0.02353,0.0518 0.119571,0.04785 0.106129,-0.0044 0.127715,-0.02596 0.05504,-0.05504 l 0,4e-6 z m -1.884667,-0.119971 c -0.100212,-0.04306 -0.30519,-0.07578 -0.455508,-0.07271 -0.266872,0.0055 -0.265799,0.0072 0.04555,0.07271 0.447229,0.09414 0.629028,0.09414 0.409957,0 z m 0.840957,0.02797 c -0.08864,-0.0231 -0.211626,-0.02158 -0.273305,0.0034 -0.06168,0.02495 0.01084,0.04385 0.161162,0.042 0.150318,-0.0019 0.200783,-0.02227 0.112143,-0.04537 l 0,5e-6 z m -1.979728,-0.119071 c -0.125265,-0.04012 -0.330243,-0.07217 -0.455508,-0.07124 -0.204578,0.0015 -0.199943,0.0088 0.04555,0.07124 0.150317,0.03825 0.355296,0.07031 0.455508,0.07124 0.142775,0.0013 0.132916,-0.01409 -0.04555,-0.07124 z m -1.076139,-0.06223 c -0.06576,-0.02632 -0.144339,-0.02308 -0.174612,0.0072 -0.03027,0.03027 0.02354,0.0518 0.119571,0.04785 0.106129,-0.0044 0.127716,-0.02596 0.05504,-0.05504 l 0,3e-6 z m -1.184322,-0.0911 c -0.06576,-0.02632 -0.144339,-0.02308 -0.174612,0.0072 -0.03027,0.03027 0.02354,0.0518 0.119571,0.04785 0.106129,-0.0044 0.127716,-0.02596 0.05504,-0.05504 l 0,4e-6 z m 0.734508,0.0019 c -0.06263,-0.02527 -0.165122,-0.02527 -0.227754,0 -0.06263,0.02527 -0.01139,0.04595 0.113877,0.04595 0.125264,0 0.176509,-0.02068 0.113877,-0.04595 z m -1.190016,-0.093 c -0.06576,-0.02632 -0.14434,-0.02308 -0.174612,0.0072 -0.03027,0.03027 0.02354,0.0518 0.119571,0.04785 0.106129,-0.0044 0.127715,-0.02596 0.05504,-0.05504 l 0,3e-6 z m -37.839293,-1.828125 c 0.145518,-0.137791 0.437217,-0.394014 0.648217,-0.569385 0.211001,-0.175371 0.468588,-0.390599 0.572417,-0.478284 0.103828,-0.08769 0.223502,-0.159428 0.26594,-0.159428 0.04244,0 0.07716,-0.04354 0.07716,-0.09676 0,-0.05322 -0.174232,0.03029 -0.387183,0.185585 -0.478238,0.348749 -1.595356,1.361637 -1.506319,1.365775 0.03585,0.0017 0.184246,-0.109709 0.329765,-0.247501 l 0,0 z m 2.32233,-1.839004 c 0.06707,-0.08212 -0.006,-0.06516 -0.196212,0.04555 -0.166697,0.09702 -0.351178,0.235281 -0.409957,0.307247 -0.06707,0.08212 0.006,0.06516 0.196211,-0.04555 0.166697,-0.09702 0.351178,-0.23528 0.409958,-0.307246 z m 0.334627,-0.193385 c 0,-0.05306 -0.041,-0.07114 -0.0911,-0.04017 -0.05011,0.03097 -0.0911,0.07438 -0.0911,0.09648 0,0.0221 0.04099,0.04017 0.0911,0.04017 0.05011,0 0.0911,-0.04341 0.0911,-0.09648 z m 0.86118,-0.464755 c 0.127622,-0.05815 0.23204,-0.141583 0.23204,-0.185409 0,-0.07563 -0.152245,-0.01026 -0.455508,0.195586 -0.184639,0.12533 -0.06164,0.119729 0.223468,-0.01018 z m -4.579268,-1.68744 c -0.06576,-0.02632 -0.14434,-0.02308 -0.174612,0.0072 -0.03027,0.03027 0.02353,0.0518 0.119571,0.04785 0.106129,-0.0044 0.127716,-0.02596 0.05504,-0.05504 l 0,0 z"
           id="path3296"
           inkscape:connector-curvature="0"
           transform="translate(265.40474,-102.55445)" />
        <path
           style="fill:#1a1711;fill-opacity:1;stroke:#1a1711;stroke-width:0.12883726;stroke-opacity:1"
           d="m -191.00313,69.262855 c -2.07907,-0.444601 -5.01985,-1.766791 -7.16599,-3.221868 -3.65666,-2.479216 -5.93388,-5.061964 -7.83176,-8.882522 -2.10233,-4.232135 -2.87251,-7.652146 -2.74182,-12.175121 0.0768,-2.656199 0.30235,-4.570335 0.86552,-7.343723 0.70534,-3.473472 1.34104,-5.355333 2.84217,-8.413575 1.17133,-2.386338 1.42698,-3.255783 1.10279,-3.750546 -0.6194,-0.945328 -1.72905,-0.921642 -9.1665,0.19566 -2.33918,0.351408 -3.06325,0.407357 -5.34674,0.413142 -2.26475,0.0057 -2.83396,-0.03447 -3.99396,-0.282113 -2.39431,-0.511158 -4.5272,-1.50733 -6.75734,-3.156035 -1.40952,-1.042036 -7.57199,-6.150385 -7.5029,-6.219484 0.0305,-0.03047 1.43971,0.29049 3.13166,0.713234 4.28882,1.071595 4.96831,1.198645 6.36161,1.189492 1.39503,-0.0092 1.90145,-0.127152 2.58808,-0.602989 0.57952,-0.401611 0.82442,-0.961609 0.95162,-2.176038 0.11958,-1.141746 0.24303,-1.455953 0.64378,-1.638545 0.27954,-0.127367 0.4507,-0.084 1.25874,0.318932 0.51437,0.25649 1.56197,0.959031 2.328,1.561203 2.16588,1.702584 3.57421,2.393237 4.88013,2.393237 0.84153,0 1.40998,-0.258507 2.24339,-1.020201 1.40225,-1.281581 5.19255,-2.320899 11.32464,-3.105272 10.15829,-1.299377 20.21652,-0.602688 27.31349,1.891885 2.18543,0.768173 2.81216,1.058974 5.29667,2.457662 2.67394,1.50533 4.10246,2.42749 5.46124,3.52543 1.28231,1.036143 1.79165,1.687821 1.54834,1.980999 -0.63491,0.765017 -3.3395,0.575685 -8.31229,-0.581894 -4.23589,-0.986039 -5.06699,-1.053671 -5.30564,-0.431752 -0.17736,0.462191 0.54667,1.782492 2.74759,5.010355 1.21484,1.781692 2.07832,3.577422 2.89255,6.015524 1.46158,4.376525 2.09822,8.229061 2.08242,12.601459 -0.0276,7.645937 -1.66495,11.556067 -6.60413,15.771596 -2.34104,1.998044 -4.28665,3.262926 -7.15047,4.648655 -2.72379,1.317977 -5.00288,2.083279 -7.08605,2.379454 -1.181,0.167909 -1.87841,0.151972 -2.89884,-0.06624 l 0,0 z m 5.47806,-23.960109 c 1.84476,-0.612557 3.8117,-1.945432 5.04446,-3.418324 2.74474,-3.279395 3.13313,-8.328483 0.92818,-12.06625 -0.54629,-0.926048 -1.98111,-2.386386 -3.07628,-3.130987 -1.01373,-0.689233 -2.75405,-1.457482 -3.78495,-1.670834 -2.9579,-0.612156 -6.11948,0.668008 -8.86962,3.591426 -1.08569,1.154091 -1.83944,2.33149 -2.55471,3.990554 -0.715,1.658475 -0.93288,2.594999 -0.93304,4.010592 -1.1e-4,1.013123 0.0563,1.363296 0.32738,2.032896 0.97862,2.417108 2.77308,4.257034 5.48072,5.619552 2.70249,1.359934 5.35856,1.73181 7.43786,1.041375 z"
           id="path3298"
           inkscape:connector-curvature="0"
           transform="translate(265.40474,-102.55445)" />
        <path
           style="fill:#1a1711;fill-opacity:1;stroke:#1a1711;stroke-width:0.12883726;stroke-opacity:1"
           d="m -191.58289,69.147773 c -3.28276,-0.854931 -6.82336,-2.855095 -9.6628,-5.458713 -3.76403,-3.451431 -6.53222,-8.902806 -7.35486,-14.483886 -0.25946,-1.760277 -0.18877,-6.318235 0.13142,-8.473459 0.65677,-4.42079 1.4431,-7.289698 2.80734,-10.242562 1.9156,-4.146248 2.05524,-4.652604 1.44168,-5.227659 -0.31931,-0.299275 -0.4042,-0.311869 -2.02918,-0.30103 -1.22413,0.0082 -2.59199,0.141626 -4.91687,0.479731 -4.40898,0.641196 -6.08532,0.778527 -8.43884,0.691334 -2.31988,-0.08594 -3.91991,-0.423447 -5.75022,-1.212919 -1.82277,-0.786222 -3.13973,-1.640665 -5.71169,-3.705739 -2.35818,-1.893428 -5.93168,-4.875961 -5.88852,-4.914709 0.012,-0.01078 1.8149,0.408093 4.00644,0.930819 2.42121,0.577505 4.41797,0.982433 5.08907,1.032025 1.97287,0.145788 3.33236,-0.311335 3.78923,-1.274112 0.117,-0.246551 0.27389,-0.903963 0.34864,-1.460917 0.30282,-2.25605 1.01205,-2.220004 4.31031,0.219067 2.4284,1.795806 3.53144,2.333515 4.81081,2.345171 0.82572,0.0075 1.32898,-0.205673 2.21082,-0.936554 1.50435,-1.246828 4.35131,-2.10196 9.59837,-2.88303 4.5303,-0.674373 6.0935,-0.780721 11.53094,-0.784479 5.37837,-0.0037 6.72326,0.08119 10.30698,0.650691 5.69567,0.905122 9.27973,2.221811 14.43797,5.304134 2.93006,1.750868 5.27413,3.654163 5.27413,4.282392 0,0.429291 -0.7018,0.646098 -2.08947,0.645497 -1.48216,-6.44e-4 -2.82901,-0.21321 -6.5836,-1.039063 -4.33861,-0.954312 -4.98368,-0.971266 -4.98368,-0.130982 0,0.419383 0.8784,1.972107 2.37719,4.202116 1.85386,2.758286 2.88157,5.084404 3.93791,8.91304 1.12503,4.077622 1.56225,8.176976 1.30646,12.24942 -0.36983,5.88825 -1.67843,9.035405 -5.19138,12.485194 -2.77753,2.727594 -5.8115,4.757677 -9.66456,6.466722 -4.07832,1.808965 -6.9004,2.296468 -9.45004,1.63246 z"
           id="path3300"
           inkscape:connector-curvature="0"
           transform="translate(265.40474,-102.55445)"
           sodipodi:nodetypes="cssssscsssscssscscsssssssssssssscc" />
        <path
           style="fill:#1a1711;fill-opacity:1;stroke:#1a1711;stroke-width:0.12883726;stroke-opacity:1"
           d="m -191.90499,71.459213 c -2.21315,-0.447237 -4.60448,-1.760851 -7.02163,-3.857166 -0.42516,-0.368729 -1.12088,-0.923802 -1.54604,-1.233494 -1.16908,-0.851562 -5.14333,-4.704731 -5.9405,-5.759511 -0.38653,-0.511439 -1.06906,-1.612997 -1.51674,-2.447908 -0.44767,-0.83491 -1.02196,-1.894867 -1.27619,-2.35546 -0.98955,-1.792755 -1.91666,-4.618159 -2.30403,-7.021631 -0.10679,-0.662593 -0.16414,-2.250047 -0.16056,-4.444885 0.005,-2.869441 0.05,-3.686346 0.28417,-5.11994 0.62525,-3.828102 1.50203,-6.147907 2.6252,-6.945832 0.28761,-0.204331 0.48352,-0.541045 0.74946,-1.288114 0.19803,-0.556307 0.53617,-1.418604 0.75143,-1.916213 0.21525,-0.497611 0.41012,-1.076388 0.43305,-1.286171 0.0391,-0.358212 0.002,-0.392236 -0.60251,-0.559124 -1.12439,-0.310169 -5.50288,-0.346258 -8.22243,-0.06777 -3.07922,0.315318 -7.14277,0.313023 -8.78408,-0.005 -3.18182,-0.616431 -5.32154,-1.576161 -7.66582,-3.438357 -1.31355,-1.043428 -2.0595,-1.799747 -4.10268,-4.159731 -1.82796,-2.111378 -2.38868,-3.056835 -2.36739,-3.991716 0.0299,-1.313208 0.51982,-1.76336 2.01589,-1.85232 0.77101,-0.04584 1.15887,0.01862 2.52162,0.41911 2.56012,0.752377 4.07292,0.738666 5.72849,-0.05192 0.89513,-0.427449 1.34919,-0.823523 2.0835,-1.817419 1.83907,-2.4892295 2.99618,-2.4051357 6.65818,0.483892 1.80798,1.426346 2.45192,1.861567 3.17117,2.143297 0.54923,0.215132 0.58271,0.214299 0.90186,-0.02244 0.1823,-0.135228 0.39922,-0.447939 0.48204,-0.694914 0.17153,-0.511497 0.46618,-4.5948786 0.43299,-6.0004156 -0.0303,-1.2824916 -0.0148,-1.2817711 1.94638,0.090499 0.4509,0.315501 1.08071,0.7739332 1.39958,1.0187383 2.52447,1.9380863 8.49774,2.8873123 19.58327,3.1120253 4.14226,0.08397 5.97754,0.173512 7.53698,0.367738 8.44652,1.052002 14.03351,2.790099 19.0315,5.920641 3.83658,2.403081 6.53906,4.904365 6.75826,6.255103 0.10175,0.627036 -0.25016,1.213115 -0.90111,1.500743 -1.27784,0.564622 -2.72854,0.451495 -5.94958,-0.463955 -1.13377,-0.322227 -2.48344,-0.619681 -2.99927,-0.661011 -0.85877,-0.06881 -0.96472,-0.04992 -1.25616,0.223873 -0.57873,0.543687 -0.47029,1.077211 1.01067,4.972591 1.07454,2.826388 2.70954,9.158881 3.17953,12.314636 0.49075,3.295094 0.59046,5.286876 0.35758,7.142997 -0.27167,2.165416 -0.70684,3.627979 -1.64267,5.520863 -1.19562,2.418392 -2.50957,4.1604 -5.67019,7.517418 -2.11634,2.247865 -3.09016,3.076281 -4.4425,3.77922 -0.56881,0.295659 -1.55599,0.854962 -2.19374,1.242894 -1.66385,1.012099 -4.31856,2.284038 -5.68735,2.724957 -2.50458,0.806784 -5.49313,1.094388 -7.38963,0.711144 l 0,0 z m 5.43887,-2.373066 c 1.59072,-0.412099 2.86963,-0.88625 4.88343,-1.810523 3.16182,-1.451178 5.94269,-3.263881 8.28154,-5.398293 3.62867,-3.311491 5.17045,-6.190318 5.83924,-10.903054 0.33174,-2.337718 0.29895,-7.262087 -0.0645,-9.679738 -0.56783,-3.777647 -1.74503,-7.86509 -3.03559,-10.540132 -0.37806,-0.783634 -1.37259,-2.497359 -2.21006,-3.808278 -2.20437,-3.450582 -2.46476,-4.132125 -1.63914,-4.290237 0.44183,-0.08462 1.87707,0.148426 4.98827,0.80995 3.43614,0.730614 4.58293,0.90243 6.02728,0.903024 1.44123,5.93e-4 2.15389,-0.210082 2.15389,-0.636723 0,-0.933328 -4.61714,-4.197403 -9.08462,-6.42235 -2.93769,-1.463059 -6.37338,-2.506599 -10.43423,-3.169239 -3.52638,-0.575428 -4.84484,-0.657956 -10.50023,-0.657254 -5.45238,6.82e-4 -6.48881,0.06019 -10.30698,0.591868 -5.98173,0.83295 -9.03877,1.695397 -10.84597,3.059847 -1.29391,0.976908 -2.07909,1.127169 -3.45967,0.662084 -0.92116,-0.310317 -1.60125,-0.717721 -3.73158,-2.235384 -1.66357,-1.185142 -2.69286,-1.753545 -3.17937,-1.755727 -0.47192,-0.0021 -0.76709,0.548179 -1.00613,1.875754 -0.18008,1.000135 -0.2952,1.320277 -0.59931,1.666642 -0.51183,0.582938 -1.32473,0.836852 -2.67849,0.836636 -1.35183,-2.16e-4 -2.23812,-0.1552 -6.51554,-1.139362 -1.84237,-0.423899 -3.36207,-0.758603 -3.37712,-0.743788 -0.12197,0.120141 7.41251,6.215463 8.80486,7.123044 4.30016,2.802987 7.99904,3.299668 16.1525,2.168937 3.31648,-0.459933 6.70895,-0.70286 7.39851,-0.529791 0.21059,0.05285 0.41587,0.24606 0.54162,0.509749 0.19329,0.405342 0.18487,0.473966 -0.18529,1.510454 -0.21328,0.597201 -0.79758,1.992315 -1.29845,3.100255 -1.36105,3.010687 -2.10679,5.505677 -2.70965,9.065569 -0.63146,3.728731 -0.6953,8.622138 -0.14708,11.273259 0.86959,4.205224 2.97625,8.553272 5.65509,11.671847 2.67826,3.117903 7.68301,6.185942 11.54847,7.079512 1.05447,0.243759 3.43083,0.149113 4.73426,-0.188558 l 0,0 z"
           id="path3316"
           inkscape:connector-curvature="0"
           transform="translate(265.40474,-102.55445)" />
        <path
           style="fill:#1a1711;fill-opacity:1;stroke:#1a1711;stroke-width:0.1822034;stroke-opacity:1"
           d="m -78.81597,69.27738 c -0.450953,-0.0891 -1.475847,-0.292371 -2.277542,-0.451708 -6.792001,-1.349914 -12.6076,-6.342029 -15.497896,-13.303412 -1.456133,-3.507152 -2.084658,-6.524615 -2.0847,-10.008374 -4e-5,-3.22629 0.212952,-4.970718 1.011642,-8.285475 0.88139,-3.657985 1.214177,-4.624721 2.634291,-7.652543 1.413407,-3.01352 1.54678,-3.449901 1.199543,-3.924776 -0.354076,-0.484228 -1.363272,-0.387878 -4.202867,0.401252 -2.714061,0.754246 -4.696301,0.884381 -5.676701,0.372679 -1.63146,-0.851504 -0.79239,-2.834492 2.20991,-5.222674 4.613988,-3.67021 9.184723,-5.58791 16.714464,-7.012731 3.485107,-0.659472 6.44814,-0.98817 10.798246,-1.197882 8.171722,-0.393946 10.857524,-0.663805 14.634895,-1.470458 2.876343,-0.614241 4.169193,-1.056057 6.989461,-2.3885661 4.02349,-1.9010029 4.515584,-1.6970514 3.429567,1.4214011 -0.641519,1.842085 -0.86369,3.555155 -0.561619,4.330403 l 0.203638,0.522631 1.688309,-0.07384 c 1.540412,-0.06737 1.74806,-0.121135 2.370414,-0.613732 0.375157,-0.296941 1.056794,-1.014837 1.514748,-1.595326 1.140474,-1.44563 1.823826,-2.06014 2.881827,-2.591507 0.875509,-0.439712 1.989249,-0.5852519 2.396696,-0.313193 0.811825,0.542071 0.826077,2.399985 0.03687,4.807725 -0.569307,1.736873 -0.574882,1.785798 -0.245065,2.150242 0.257849,0.28492 0.561656,0.372929 1.287349,0.372929 0.810189,0 1.365186,-0.20135 3.774531,-1.369386 4.096329,-1.985876 6.525745,-2.722531 7.867799,-2.385697 1.499753,0.376414 -0.523891,3.833031 -4.701943,8.031459 -5.344378,5.370443 -8.573267,6.207526 -19.034011,4.934527 -4.764309,-0.579784 -7.986899,-0.60171 -8.529741,-0.05803 -0.500788,0.501557 -0.349147,1.437071 0.546051,3.36875 2.40701,5.193902 3.120036,8.005944 3.339168,13.169059 0.178172,4.198019 -0.296998,7.981967 -1.428104,11.372507 -2.068938,6.20173 -5.559068,10.277336 -10.923374,12.755799 -3.521214,1.626902 -9.286378,2.516419 -12.36586,1.907952 l 0,0 z m 5.147796,-0.784192 c 5.923443,-1.613723 8.187262,-2.837168 11.297601,-6.105601 2.894881,-3.042024 4.770501,-6.164615 6.211378,-10.340895 1.054493,-3.056377 1.394073,-4.868435 1.394073,-7.439044 0,-2.948189 -0.324508,-4.349467 -2.637172,-11.387712 -1.13602,-3.457309 -2.206199,-6.929091 -2.378175,-7.71507 -0.279595,-1.277819 -0.283414,-1.458324 -0.03609,-1.705646 0.65536,-0.655359 3.067837,-0.429416 8.057795,0.75466 4.928834,1.169571 9.981539,1.275062 13.543862,0.282769 3.417982,-0.952087 8.958257,-4.351699 8.958257,-5.496948 0,-0.438148 -0.714345,-0.874431 -1.965699,-1.200542 -0.794347,-0.207011 -2.83035,-0.30137 -8.602097,-0.398666 -6.178015,-0.104144 -7.796054,-0.184257 -8.843774,-0.437877 -1.413541,-0.342174 -2.452837,-0.883367 -2.452837,-1.277267 0,-0.866511 -3.642564,-1.813791 -8.927966,-2.321795 -2.904633,-0.279178 -10.471538,-0.281136 -13.665254,-0.0035 -9.755093,0.84792 -15.378307,2.142877 -20.507634,4.722657 -3.65872,1.840142 -4.970398,3.244657 -4.040165,4.326117 0.626173,0.72797 1.797303,0.786586 3.76317,0.18835 3.891106,-1.184109 5.563311,0.08384 4.348563,3.297302 -0.305872,0.809143 -0.725508,1.391085 -1.75256,2.430407 -0.742715,0.751589 -1.601829,1.73135 -1.909141,2.177245 -1.14038,1.654642 -2.807674,6.044523 -3.428969,9.028264 -0.287453,1.38048 -0.283923,6.240442 0.006,8.290254 0.682542,4.825338 1.913634,7.923703 4.559036,11.474005 2.338802,3.138823 4.900951,5.327737 7.835563,6.694133 2.873648,1.33801 5.598068,2.396495 7.286388,2.830892 0.436692,0.112359 2.030354,-0.160969 3.885828,-0.666456 l 0,0 z"
           id="path3324"
           inkscape:connector-curvature="0"
           transform="translate(265.40474,-102.55445)" />
        <path
           style="fill:#1a1711;fill-opacity:1;stroke:#1a1711;stroke-width:0.1822034;stroke-opacity:1"
           d="m -80.4558,69.038823 c -4.845636,-1.092816 -7.945915,-2.745672 -11.11904,-5.927913 -2.719505,-2.727316 -4.479485,-5.638764 -5.80423,-9.601646 -1.008891,-3.018028 -1.295793,-4.872995 -1.296487,-8.382451 -0.0011,-5.589106 1.158456,-10.341176 4.083606,-16.735267 0.964406,-2.108097 1.024751,-2.563443 0.378725,-2.857792 -0.376377,-0.171489 -0.944471,-0.09168 -3.23411,0.454342 -3.325824,0.793128 -4.712244,0.961081 -5.711774,0.691935 -0.94398,-0.254188 -1.38398,-0.741188 -1.38398,-1.531833 0,-2.488842 6.627596,-7.278214 12.881781,-9.308903 5.318805,-1.726978 10.818274,-2.584304 19.404661,-3.025041 6.833742,-0.350773 10.691504,-0.805879 14.095611,-1.662878 2.067637,-0.520537 2.810154,-0.789387 5.809701,-2.1035713 4.004565,-1.7545103 4.449376,-1.573453 3.511541,1.4293483 -0.509751,1.632137 -0.766534,3.634775 -0.56766,4.427147 l 0.123277,0.49118 1.586858,-0.127104 c 1.964976,-0.157391 2.381619,-0.394698 3.944432,-2.246626 0.656169,-0.77756 1.421558,-1.582699 1.700863,-1.789198 1.610343,-1.190577 3.400451,-1.5294937 3.948182,-0.747498 0.436767,0.623574 0.362892,2.532217 -0.16805,4.341697 -0.248427,0.846655 -0.453406,1.672817 -0.455509,1.835917 -0.0063,0.486359 0.486294,0.747698 1.406704,0.746354 0.682717,-0.001 1.428605,-0.259974 3.508965,-1.218341 4.106581,-1.891792 5.497878,-2.355051 7.105933,-2.366055 l 1.366525,-0.0094 0.05716,0.69351 c 0.103909,1.260703 -1.469002,3.587529 -4.655207,6.886502 -3.188829,3.301691 -5.683254,4.915028 -8.61811,5.574 -1.896752,0.425884 -6.421372,0.381187 -10.834691,-0.107029 -1.904026,-0.21063 -4.507257,-0.383162 -5.784958,-0.383405 -2.115143,-3.64e-4 -2.357242,0.03371 -2.704574,0.381039 -0.522547,0.522546 -0.401373,1.039042 1.025196,4.369825 2.068087,4.828613 2.602039,7.169206 2.760908,12.102507 0.189661,5.889546 -0.543125,9.938827 -2.577274,14.24166 -1.158238,2.450018 -2.329166,4.156552 -3.994627,5.821843 -3.888581,3.888186 -8.780143,5.838307 -15.053061,6.001213 -2.47916,0.06438 -3.057858,0.02064 -4.737288,-0.358117 l 0,0 z"
           id="path3326"
           inkscape:connector-curvature="0"
           transform="translate(265.40474,-102.55445)"
           sodipodi:nodetypes="csssssssssssssscssssscssccsssscssssssccc" />
        <g
           id="g3336"
           transform="translate(-2.7994659e-4,0)">
          <path
             transform="translate(230.36101,-153.31633)"
             d="m -30.920941,86.51535 c 0,5.834698 -4.729957,10.564655 -10.564655,10.564655 -5.834697,0 -10.564654,-4.729957 -10.564654,-10.564655 0,-5.834697 4.729957,-10.564654 10.564654,-10.564654 5.834698,0 10.564655,4.729957 10.564655,10.564654 z"
             sodipodi:ry="10.564654"
             sodipodi:rx="10.564654"
             sodipodi:cy="86.51535"
             sodipodi:cx="-41.485596"
             id="path3332"
             style="fill:#ffffff;fill-opacity:1;stroke:#ffffff;stroke-opacity:1"
             sodipodi:type="arc" />
          <path
             sodipodi:type="arc"
             style="fill:#ffffff;fill-opacity:1;stroke:#ffffff;stroke-opacity:1"
             id="path3334"
             sodipodi:cx="-41.485596"
             sodipodi:cy="86.51535"
             sodipodi:rx="10.564654"
             sodipodi:ry="10.564654"
             d="m -30.920941,86.51535 c 0,5.834698 -4.729957,10.564655 -10.564655,10.564655 -5.834697,0 -10.564654,-4.729957 -10.564654,-10.564655 0,-5.834697 4.729957,-10.564654 10.564654,-10.564654 5.834698,0 10.564655,4.729957 10.564655,10.564654 z"
             transform="translate(118.53027,-153.31633)" />
        </g>
        <path
           style="fill:#ffffff;fill-opacity:1;stroke:#ffffff;stroke-width:0.36440679;stroke-opacity:1"
           d="M 120.43212,40.22827 C 109.08047,39.59975 105.65681,38.90716 99.843127,36.06322 93.957896,33.18427 91.201346,30.66003 90.164876,27.20057 89.472577,24.88988 90.016666,24.0095 92.442266,23.51558 104.353,21.0902 156.7409,20.34139 168.71601,22.42535 c 5.20713,0.90617 9.74858,2.82295 9.9477,4.19855 0.13444,0.92875 -2.47361,3.90684 -5.37975,6.14306 -5.91809,4.55388 -12.31943,6.21082 -28.2223,7.30517 -8.09206,0.55685 -16.43702,0.60975 -24.62954,0.15614 z"
           id="path3340"
           inkscape:connector-curvature="0" />
      </g>
    </g>
  </g>
</svg>
