<?xml version="1.0" encoding="UTF-8" standalone="no"?>
<!-- Created with Inkscape (http://www.inkscape.org/) -->

<svg
   xmlns:dc="http://purl.org/dc/elements/1.1/"
   xmlns:cc="http://creativecommons.org/ns#"
   xmlns:rdf="http://www.w3.org/1999/02/22-rdf-syntax-ns#"
   xmlns:svg="http://www.w3.org/2000/svg"
   xmlns="http://www.w3.org/2000/svg"
   xmlns:sodipodi="http://sodipodi.sourceforge.net/DTD/sodipodi-0.dtd"
   xmlns:inkscape="http://www.inkscape.org/namespaces/inkscape"
   width="1024"
   height="1024"
   id="svg2"
   version="1.1"
   inkscape:version="0.48.4 r9939"
   sodipodi:docname="New document 1">
  <defs
     id="defs4" />
  <sodipodi:namedview
     id="base"
     pagecolor="#ffffff"
     bordercolor="#666666"
     borderopacity="1.0"
     inkscape:pageopacity="0.0"
     inkscape:pageshadow="2"
     inkscape:zoom="0.24748737"
     inkscape:cx="-25.153242"
     inkscape:cy="693.53579"
     inkscape:document-units="px"
     inkscape:current-layer="layer1"
     showgrid="false"
     inkscape:window-width="1024"
     inkscape:window-height="705"
     inkscape:window-x="-8"
     inkscape:window-y="-8"
     inkscape:window-maximized="1" />
  <metadata
     id="metadata7">
    <rdf:RDF>
      <cc:Work
         rdf:about="">
        <dc:format>image/svg+xml</dc:format>
        <dc:type
           rdf:resource="http://purl.org/dc/dcmitype/StillImage" />
        <dc:title></dc:title>
      </cc:Work>
    </rdf:RDF>
  </metadata>
  <g
     inkscape:label="Layer 1"
     inkscape:groupmode="layer"
     id="layer1"
     transform="translate(0,-28.362183)">
    <g
       id="g3041"
       transform="matrix(9.0003821,0,0,9.0003821,-2862.5882,-629.41989)">
      <path
         sodipodi:nodetypes="cssssssssc"
         inkscape:connector-curvature="0"
         id="path2996"
         d="m 400.77802,170.24647 c 0,0 -8.33376,11.61675 -11.86929,11.86929 -1.76776,0.12627 -7.82868,1.51523 -13.82646,1.5468 -5.99778,0.0316 -11.93243,-1.29426 -12.94258,-1.5468 -2.02031,-0.50508 -11.86929,-10.35406 -11.36422,-11.86929 0.50508,-1.51523 4.54569,0 7.82868,-1.26269 3.283,-1.26269 9.36082,-3.66236 13.38453,-2.34681 3.86204,1.26269 8.07529,-0.11495 9.48177,-0.55103 2.15555,-0.66833 6.48941,1.22198 11.28763,2.73721 4.79822,1.51523 7.7674,-0.59698 8.01994,1.42332 z"
         style="fill:#ff0000;stroke:#ff0000;stroke-width:1px;stroke-linecap:butt;stroke-linejoin:miter;stroke-opacity:1" />
      <path
         d="m 416.68793,124.03199 c 0,5.85786 -4.74874,10.6066 -10.6066,10.6066 -5.85787,0 -10.6066,-4.74874 -10.6066,-10.6066 0,-5.85786 4.74873,-10.6066 10.6066,-10.6066 5.85786,0 10.6066,4.74874 10.6066,10.6066 z"
         sodipodi:ry="10.606602"
         sodipodi:rx="10.606602"
         sodipodi:cy="124.03199"
         sodipodi:cx="406.08133"
         id="path3016"
         style="fill:#000000;fill-opacity:1;stroke:#000000;stroke-opacity:1"
         sodipodi:type="arc" />
      <path
         sodipodi:nodetypes="cccssscssccc"
         inkscape:connector-curvature="0"
         id="path3018"
         d="m 394.375,111.38004 c 0,0 11.07143,-5.625 27.5,-0.44643 0,0 2.23214,-0.71428 5.53571,-3.66071 0,0 1.60715,-2.23215 -1.7857,-0.53572 -3.39286,1.69642 -3.57144,2.14286 -4.64287,1.60714 -1.07142,-0.53571 2.67858,-3.48214 1.78572,-3.83929 -0.89286,-0.35714 -2.58929,1.78572 -3.92857,2.67858 0,0 -1.33929,0.26786 -1.69643,-0.89286 -0.35714,-1.16071 1.96429,-2.76786 0.98213,-2.94643 -0.98214,-0.17857 -1.875,0.98215 -3.03571,1.33929 0,0 -5.89285,-4.55357 -20.98214,3.66071 0,0 -5,3.75001 0.26786,3.03572 z"
         style="fill:#000000;stroke:#000000;stroke-width:1px;stroke-linecap:butt;stroke-linejoin:miter;stroke-opacity:1" />
      <path
         d="m 416.68793,124.03199 c 0,5.85786 -4.74874,10.6066 -10.6066,10.6066 -5.85787,0 -10.6066,-4.74874 -10.6066,-10.6066 0,-5.85786 4.74873,-10.6066 10.6066,-10.6066 5.85786,0 10.6066,4.74874 10.6066,10.6066 z"
         sodipodi:ry="10.606602"
         sodipodi:rx="10.606602"
         sodipodi:cy="124.03199"
         sodipodi:cx="406.08133"
         id="path3016-7"
         style="fill:#000000;fill-opacity:1;stroke:#000000;stroke-opacity:1"
         sodipodi:type="arc"
         transform="matrix(-1,0,0,1,749.87664,-4.0914917e-4)" />
      <path
         sodipodi:nodetypes="cccssscssccc"
         inkscape:connector-curvature="0"
         id="path3018-4"
         d="m 355.50164,111.37963 c 0,0 -11.07143,-5.625 -27.5,-0.44643 0,0 -2.23214,-0.71428 -5.53571,-3.66071 0,0 -1.60715,-2.23215 1.7857,-0.53572 3.39286,1.69642 3.57144,2.14286 4.64287,1.60714 1.07142,-0.53571 -2.67858,-3.48214 -1.78572,-3.83929 0.89286,-0.35714 2.58929,1.78572 3.92857,2.67858 0,0 1.33929,0.26786 1.69643,-0.89286 0.35714,-1.16071 -1.96429,-2.76786 -0.98213,-2.94643 0.98214,-0.17857 1.875,0.98215 3.03571,1.33929 0,0 5.89285,-4.55357 20.98214,3.66071 0,0 5,3.75001 -0.26786,3.03572 z"
         style="fill:#000000;stroke:#000000;stroke-width:1px;stroke-linecap:butt;stroke-linejoin:miter;stroke-opacity:1" />
    </g>
  </g>
</svg>
