<?xml version="1.0" encoding="UTF-8" standalone="no"?>
<!-- Created with Inkscape (http://www.inkscape.org/) -->

<svg
   xmlns:dc="http://purl.org/dc/elements/1.1/"
   xmlns:cc="http://creativecommons.org/ns#"
   xmlns:rdf="http://www.w3.org/1999/02/22-rdf-syntax-ns#"
   xmlns:svg="http://www.w3.org/2000/svg"
   xmlns="http://www.w3.org/2000/svg"
   xmlns:sodipodi="http://sodipodi.sourceforge.net/DTD/sodipodi-0.dtd"
   xmlns:inkscape="http://www.inkscape.org/namespaces/inkscape"
   width="1024"
   height="1024"
   id="svg2"
   version="1.1"
   inkscape:version="0.48.4 r9939"
   sodipodi:docname="Mermaid (Redo).svg">
  <defs
     id="defs4" />
  <sodipodi:namedview
     id="base"
     pagecolor="#ffffff"
     bordercolor="#666666"
     borderopacity="1.0"
     inkscape:pageopacity="0.0"
     inkscape:pageshadow="2"
     inkscape:zoom="0.35"
     inkscape:cx="1021.6613"
     inkscape:cy="193.80789"
     inkscape:document-units="px"
     inkscape:current-layer="layer1"
     showgrid="false"
     inkscape:window-width="1366"
     inkscape:window-height="705"
     inkscape:window-x="-8"
     inkscape:window-y="-8"
     inkscape:window-maximized="1"
     showguides="true"
     inkscape:guide-bbox="true" />
  <metadata
     id="metadata7">
    <rdf:RDF>
      <cc:Work
         rdf:about="">
        <dc:format>image/svg+xml</dc:format>
        <dc:type
           rdf:resource="http://purl.org/dc/dcmitype/StillImage" />
        <dc:title />
      </cc:Work>
    </rdf:RDF>
  </metadata>
  <g
     inkscape:label="Layer 1"
     inkscape:groupmode="layer"
     id="layer1"
     transform="translate(0,-28.362183)">
    <g
       id="g3076"
       transform="matrix(4.3522247,0,0,4.3522247,-1338.6628,-1706.0265)">
      <path
         inkscape:connector-curvature="0"
         id="path3048"
         d="m 482.34784,469.7567 c 0,0 -15.40483,-4.29315 -16.41498,-3.03046 -1.01015,1.2627 -24.4962,23.23351 -24.4962,23.23351 l -10.10152,19.44544 -10.35407,-1.01015 -8.58629,-16.16244 -11.8693,-15.40483 -18.43528,-11.36422 -30.30458,8.08122 -14.89975,21.71828 -3.28299,21.46575 4.79822,17.42513 13.63706,13.88959 32.32488,5.80838 25.50636,-10.85914 12.12183,2.77792 5.55583,5.80838 14.89975,-9.84899 18.43529,8.5863 28.03173,1.51523 23.73859,-10.35407 3.28299,-15.65736 3.53554,-25.50635 -9.59645,-13.63706 -12.12183,-14.89975 z"
         style="fill:#595d60;fill-opacity:1;stroke:#595d60;stroke-width:1px;stroke-linecap:butt;stroke-linejoin:miter;stroke-opacity:1" />
      <path
         id="path3007-1"
         d="m 378.34375,463.84375 c -7.00614,0.15067 -11.21875,4.0625 -11.21875,4.0625 -30.17858,0.89285 -30.375,23.21875 -30.375,23.21875 -13.2143,8.92857 -2.3125,35.53125 -2.3125,35.53125 -4.82142,3.57142 -1.07589,11.95982 3.03125,15.53125 40,25.17857 64.10714,6.61607 66.25,5.1875 2.14286,-1.42857 3.93304,-4.8259 4.46875,-3.21875 0.53572,1.60714 9.5625,3.1875 9.5625,3.1875 3.60757,-0.17968 0.71906,2.72208 6.90625,5.5 6.18718,2.77792 10.53125,-4.9375 10.53125,-4.9375 0,0 7.30803,-2.14286 7.84375,-3.75 0.53571,-1.60715 2.32589,1.79018 4.46875,3.21875 2.14286,1.42857 26.25,19.99107 66.25,-5.1875 4.10714,-3.57143 7.85267,-11.95983 3.03125,-15.53125 0,0 10.9018,-26.60268 -2.3125,-35.53125 0,0 -0.19642,-22.3259 -30.375,-23.21875 0,0 -7.48661,-6.97321 -19.09375,-2.6875 -11.60714,4.28572 -30.88759,28.22906 -33.84375,40.71875 0,0 -0.076,1.82265 -1.84375,0.8125 -1.76776,-1.01015 -5.66974,0.62246 -7.4375,0.875 -1.76777,0.25254 -1.375,-2.40625 -1.375,-2.40625 -3.39285,-11.78571 -22.67411,-35.71428 -34.28125,-40 -2.90179,-1.07143 -5.53962,-1.42522 -7.875,-1.375 z M 381.8125,469.5 c 4.82143,0 25.70536,7.6741 36.0625,38.03125 1.25,1.96429 2.67858,2.69643 2.5,5.375 -0.24023,3.60339 -1.20984,10.05082 9.46875,9.09375 3.45755,-0.30988 -3.8763,15.09215 -4.9375,16.625 -1.60714,2.32142 -5.75893,4.62053 -7.1875,3.90625 -1.42857,-0.71429 -4.99554,-5.51786 -6.78125,-3.375 -1.78572,2.14286 -11.09821,7.85268 -25.5625,10.53125 -14.46428,2.67858 -35.33036,-4.63839 -41.9375,-11.78125 -6.60715,-7.14286 0,-6.96875 0,-6.96875 14.82142,8.21429 48.73215,9.27679 59.625,6.0625 10.89286,-3.21428 0.1875,-2.5 0.1875,-2.5 -20.17857,2.32143 -56.44643,-7.84821 -60.375,-9.8125 -3.92857,-1.96428 -5.52678,-7.5134 -6.0625,-17.15625 -0.53571,-9.64286 7.3125,-10.71875 7.3125,-10.71875 32.5,-0.17857 58.24107,22.8616 63.0625,25.71875 4.82142,2.85714 3.1875,-0.15625 3.1875,-0.15625 -12.85714,-16.69643 -31.62228,-29.90185 -62.84375,-32 -3.83074,-0.25743 -1.42216,-3.24397 -0.34375,-4.96875 5.2392,-8.37943 11.94649,-13.78544 26.59375,-10.375 0,0 19.12053,6.25 33.40625,22.5 0,0 5.69643,4.83036 0.875,-2.3125 -4.82143,-7.14286 -18.73661,-22.15625 -29.09375,-23.40625 0,0 -1.97768,-2.3125 2.84375,-2.3125 z m 90.6875,0 c 4.82143,0 2.84375,2.3125 2.84375,2.3125 -10.35714,1.25 -24.27232,16.26339 -29.09375,23.40625 -4.82143,7.14286 0.90625,2.3125 0.90625,2.3125 14.28572,-16.25 33.375,-22.5 33.375,-22.5 14.64726,-3.41044 21.3858,1.99557 26.625,10.375 1.07841,1.72478 3.45574,4.71132 -0.375,4.96875 -31.22147,2.09815 -49.98661,15.30357 -62.84375,32 0,0 -1.60267,3.01339 3.21875,0.15625 4.82143,-2.85715 30.53125,-25.89732 63.03125,-25.71875 0,0 7.84821,1.07589 7.3125,10.71875 -0.53572,9.64285 -2.13393,15.19197 -6.0625,17.15625 -3.92857,1.96429 -40.19643,12.13393 -60.375,9.8125 0,0 -10.70536,-0.71428 0.1875,2.5 10.89285,3.21429 44.83483,2.15179 59.65625,-6.0625 0,0 6.60715,-0.17411 0,6.96875 -6.60714,7.14286 -27.50447,14.45983 -41.96875,11.78125 -14.46429,-2.67857 -23.74553,-8.38839 -25.53125,-10.53125 -1.78571,-2.14286 -5.38393,2.66071 -6.8125,3.375 -1.42857,0.71428 -2.67411,-1.58483 -4.28125,-3.90625 -1.0612,-1.53285 4.28125,-14.10715 4.28125,-17.5 0,-3.39286 -2.41602,-4.61536 -2.65625,-8.21875 -0.17858,-2.67857 1.25,-3.41071 2.5,-5.375 C 446.79464,477.1741 467.67857,469.5 472.5,469.5 z m -45.96875,41.53125 c 1.74341,0 3.15625,1.44409 3.15625,3.1875 0,1.74341 -1.41284,3.15625 -3.15625,3.15625 -1.74341,0 -3.15625,-1.41284 -3.15625,-3.15625 0,-1.74341 1.41284,-3.1875 3.15625,-3.1875 z m 2,31.96875 c 1.74341,0 3.15625,1.41284 3.15625,3.15625 0,1.74341 -1.41284,3.15625 -3.15625,3.15625 -1.74341,0 -3.15625,-1.41284 -3.15625,-3.15625 0,-1.74341 1.41284,-3.15625 3.15625,-3.15625 z"
         style="fill:#000000;stroke:#000000;stroke-width:1px;stroke-linecap:butt;stroke-linejoin:miter;stroke-opacity:1"
         inkscape:connector-curvature="0" />
      <path
         inkscape:connector-curvature="0"
         id="path3033"
         d="m 474.46428,485.29029 c 0,0 15.35715,-0.89286 19.28572,2.5 3.92857,3.39285 9.10714,1.25 9.10714,-1.42857 0,-2.67858 -6.78571,-10.17858 -15.71429,-8.92858 -8.92857,1.25 -11.96428,4.64286 -12.85714,5.35715 -0.89286,0.71428 -2.32143,2.5 0.17857,2.5 z"
         style="fill:#dec69c;fill-opacity:1;stroke:#dec69c;stroke-width:1px;stroke-linecap:butt;stroke-linejoin:miter;stroke-opacity:1" />
      <path
         inkscape:connector-curvature="0"
         id="path3035"
         d="m 487.14285,509.32647 c 0,0 13.21429,1.07143 16.78572,3.75 3.57143,2.67857 5.35714,7.85714 9.10714,5.17857 3.75,-2.67857 2.14286,-11.42857 -0.53571,-13.39285 -2.67857,-1.96429 -14.46429,-2.32143 -21.60715,-0.35715 -7.14285,1.96429 -6.42857,4.46429 -3.75,4.82143 z"
         style="fill:#dec69c;fill-opacity:1;stroke:#dec69c;stroke-width:1px;stroke-linecap:butt;stroke-linejoin:miter;stroke-opacity:1" />
      <path
         inkscape:connector-curvature="0"
         id="path3033-4"
         d="m 379.68858,485.29029 c 0,0 -15.35715,-0.89286 -19.28572,2.5 -3.92857,3.39285 -9.10714,1.25 -9.10714,-1.42857 0,-2.67858 6.78571,-10.17858 15.71429,-8.92858 8.92857,1.25 11.96428,4.64286 12.85714,5.35715 0.89286,0.71428 2.32143,2.5 -0.17857,2.5 z"
         style="fill:#dec69c;fill-opacity:1;stroke:#dec69c;stroke-width:1px;stroke-linecap:butt;stroke-linejoin:miter;stroke-opacity:1" />
      <path
         inkscape:connector-curvature="0"
         id="path3035-0"
         d="m 367.01001,509.32615 c 0,0 -13.21429,1.07143 -16.78572,3.75 -3.57143,2.67857 -5.35714,7.85714 -9.10714,5.17857 -3.75,-2.67857 -2.14286,-11.42857 0.53571,-13.39285 2.67857,-1.96429 14.46429,-2.32143 21.60715,-0.35715 7.14285,1.96429 6.42857,4.46429 3.75,4.82143 z"
         style="fill:#dec69c;fill-opacity:1;stroke:#dec69c;stroke-width:1px;stroke-linecap:butt;stroke-linejoin:miter;stroke-opacity:1" />
      <path
         sodipodi:nodetypes="csccscc"
         inkscape:connector-curvature="0"
         id="path3058"
         d="m 476.72158,431.40452 c -13.18655,11.59358 -35.1553,22.15798 -55.28408,22.15798 -20.12878,0 -42.46248,-10.74297 -55.65685,-22.33655 l -12.48,0.58983 c 14.92351,13.11386 45.36212,30.15297 68.13685,30.15297 22.77472,0 54.46334,-17.03911 69.38685,-30.15297 z"
         style="fill:#532115;fill-opacity:1;stroke:#532115;stroke-width:1.05085707;stroke-opacity:1" />
      <path
         inkscape:connector-curvature="0"
         id="path3046"
         d="m 416.18285,475.18627 17.93021,-1.13642 3.28299,-16.16244 -12.87944,-10.22779 -14.14214,11.23794 z"
         style="fill:#595d60;fill-opacity:1;stroke:#595d60;stroke-width:1px;stroke-linecap:butt;stroke-linejoin:miter;stroke-opacity:1" />
      <path
         id="path3041"
         d="m 424,441.84375 c -0.82169,0 -1.62545,0.76602 -2.21875,2.28125 -1.80789,4.40393 -4.06027,8.26027 -7.59375,11 -1.79185,0.75761 -3.63028,0.78125 -6.09375,0.78125 -7.95495,1.01015 -2.21875,4.5 -2.21875,4.5 2.0624,2.31493 5.35701,4.71036 6.1875,6.9375 0.39697,3.77124 -1.39731,8.18038 -1.90625,10.25 -0.96923,3.94137 5.8125,2 5.8125,2 l 3.90625,-2.625 c 2.21501,-1.17175 7.11788,-0.89657 8.3125,0 l 3.90625,2.625 c 0,0 6.78173,1.94137 5.8125,-2 -0.50894,-2.06962 -2.30322,-6.47876 -1.90625,-10.25 0.83049,-2.22714 4.1251,-4.62257 6.1875,-6.9375 0,0 5.7362,-3.48985 -2.21875,-4.5 -2.46347,0 -4.3019,-0.0236 -6.09375,-0.78125 -3.53348,-2.73973 -5.78586,-6.59607 -7.59375,-11 -0.63022,-1.51523 -1.45956,-2.28125 -2.28125,-2.28125 z m 0,7.9375 c 0.48027,0 0.9754,0.45812 1.34375,1.34375 1.05669,2.57403 2.37223,4.80492 4.4375,6.40625 1.04731,0.44282 2.12264,0.46875 3.5625,0.46875 4.64955,0.59042 1.3125,2.65625 1.3125,2.65625 -1.20544,1.35304 -3.13959,2.72952 -3.625,4.03125 -0.23203,2.20424 0.79629,4.79033 1.09375,6 0.56651,2.30367 -3.375,1.15625 -3.375,1.15625 l -2.28125,-1.53125 c -0.69823,-0.52403 -3.58036,-0.68487 -4.875,0 l -2.28125,1.53125 c 0,0 -3.97276,1.14742 -3.40625,-1.15625 0.29746,-1.20967 1.35703,-3.79576 1.125,-6 -0.48541,-1.30173 -2.41956,-2.67821 -3.625,-4.03125 0,0 -3.33705,-2.06583 1.3125,-2.65625 1.43986,0 2.51519,-0.0259 3.5625,-0.46875 2.06527,-1.60133 3.38081,-3.83222 4.4375,-6.40625 0.34677,-0.88563 0.80098,-1.34375 1.28125,-1.34375 z"
         style="fill:#000000;stroke:#000000;stroke-width:1px;stroke-linecap:butt;stroke-linejoin:miter;stroke-opacity:1"
         inkscape:connector-curvature="0" />
      <path
         transform="translate(-2,0)"
         d="m 433.92857,598.79077 c 0,3.5504 -2.87817,6.42857 -6.42857,6.42857 -3.5504,0 -6.42857,-2.87817 -6.42857,-6.42857 0,-3.5504 2.87817,-6.42857 6.42857,-6.42857 3.5504,0 6.42857,2.87817 6.42857,6.42857 z"
         sodipodi:ry="6.4285712"
         sodipodi:rx="6.4285712"
         sodipodi:cy="598.79077"
         sodipodi:cx="427.5"
         id="path3000"
         style="fill:#e6881d;fill-opacity:1;stroke:#e6881d;stroke-opacity:1"
         sodipodi:type="arc" />
      <path
         sodipodi:nodetypes="csssccc"
         inkscape:connector-curvature="0"
         id="path3002"
         d="m 535.46174,628.34696 c 0,0 -5.81889,-14.19906 -16.89032,-20.62763 -11.07143,-6.42857 -7.5,-31.78572 -2.5,-41.42857 5,-9.64286 8.72959,-14.30843 9.64286,-21.42857 0.29586,-2.30663 3.31889,5.25024 3.57143,11.78571 l 8.31889,65.1405 c 0,0 1.42857,10.84427 -2.14286,6.55856 z"
         style="fill:#e6881d;fill-opacity:1;stroke:#e6881d;stroke-width:1px;stroke-linecap:butt;stroke-linejoin:miter;stroke-opacity:1" />
      <path
         sodipodi:nodetypes="csssccc"
         inkscape:connector-curvature="0"
         id="path3002-1"
         d="m 314.98278,628.34682 c 0,0 5.81889,-14.19906 16.89032,-20.62763 11.07143,-6.42857 7.5,-31.78572 2.5,-41.42857 -5,-9.64286 -8.72959,-14.30843 -9.64286,-21.42857 -0.29586,-2.30663 -3.31889,5.25024 -3.57143,11.78571 l -8.31889,65.1405 c 0,0 -1.42857,10.84427 2.14286,6.55856 z"
         style="fill:#e6881d;fill-opacity:1;stroke:#e6881d;stroke-width:1px;stroke-linecap:butt;stroke-linejoin:miter;stroke-opacity:1" />
    </g>
  </g>
</svg>
