<?xml version="1.0" encoding="UTF-8" standalone="no"?>
<!-- Created with Inkscape (http://www.inkscape.org/) -->

<svg
   xmlns:dc="http://purl.org/dc/elements/1.1/"
   xmlns:cc="http://creativecommons.org/ns#"
   xmlns:rdf="http://www.w3.org/1999/02/22-rdf-syntax-ns#"
   xmlns:svg="http://www.w3.org/2000/svg"
   xmlns="http://www.w3.org/2000/svg"
   xmlns:sodipodi="http://sodipodi.sourceforge.net/DTD/sodipodi-0.dtd"
   xmlns:inkscape="http://www.inkscape.org/namespaces/inkscape"
   width="1024"
   height="1024"
   id="svg2"
   version="1.1"
   inkscape:version="0.48.4 r9939"
   sodipodi:docname="Mermaid (Pirate) Torso.svg">
  <defs
     id="defs4" />
  <sodipodi:namedview
     id="base"
     pagecolor="#ffffff"
     bordercolor="#666666"
     borderopacity="1.0"
     inkscape:pageopacity="0.0"
     inkscape:pageshadow="2"
     inkscape:zoom="0.7"
     inkscape:cx="368.0185"
     inkscape:cy="546.4656"
     inkscape:document-units="px"
     inkscape:current-layer="layer1"
     showgrid="false"
     inkscape:window-width="1920"
     inkscape:window-height="1018"
     inkscape:window-x="-8"
     inkscape:window-y="-8"
     inkscape:window-maximized="1" />
  <metadata
     id="metadata7">
    <rdf:RDF>
      <cc:Work
         rdf:about="">
        <dc:format>image/svg+xml</dc:format>
        <dc:type
           rdf:resource="http://purl.org/dc/dcmitype/StillImage" />
        <dc:title></dc:title>
      </cc:Work>
    </rdf:RDF>
  </metadata>
  <g
     inkscape:label="Layer 1"
     inkscape:groupmode="layer"
     id="layer1"
     transform="translate(0,-28.362183)">
    <g
       id="g3115"
       transform="matrix(4.2499542,0,0,4.2499542,-52.979412,-2514.6703)">
      <path
         sodipodi:nodetypes="sssssss"
         inkscape:connector-curvature="0"
         id="path3002-1"
         d="m 251.36046,835.67167 c 1.0237,-1.65638 -0.15978,-10.811 -2.62991,-20.3436 -2.47015,-9.53261 -4.62227,-21.74521 -4.7825,-27.13913 -0.16022,-5.39391 -1.28852,-13.095 -2.50732,-17.11352 -2.08902,-6.88769 -2.5895,-6.46898 -8.73335,7.30641 -9.18007,20.58305 -7.12241,36.3872 6.51277,50.02238 5.94534,5.94534 11.06377,9.00934 12.14031,7.26746 z"
         style="fill:#c35a14;fill-opacity:1" />
      <path
         d="m 137.63329,813.46112 c 0,2.0921 -1.69598,3.78807 -3.78808,3.78807 -2.09209,0 -3.78807,-1.69597 -3.78807,-3.78807 0,-2.09209 1.69598,-3.78807 3.78807,-3.78807 2.0921,0 3.78808,1.69598 3.78808,3.78807 z"
         sodipodi:ry="3.7880721"
         sodipodi:rx="3.7880721"
         sodipodi:cy="813.46112"
         sodipodi:cx="133.84521"
         id="path3113"
         style="fill:#c35a14;fill-opacity:1;stroke:#c35a14;stroke-opacity:1"
         sodipodi:type="arc" />
      <g
         id="g3080">
        <g
           id="g3022">
          <g
             transform="translate(-345.71429,237.14286)"
             id="g2996">
            <path
               sodipodi:nodetypes="sssssss"
               inkscape:connector-curvature="0"
               id="path3002"
               d="m 360.22936,600.27356 c -1.0237,-1.65638 0.15978,-10.811 2.62991,-20.3436 2.47015,-9.53261 4.62227,-21.74521 4.7825,-27.13913 0.16022,-5.39391 1.28852,-13.095 2.50732,-17.11352 2.08902,-6.88769 2.5895,-6.46898 8.73335,7.30641 9.18007,20.58305 7.12241,36.3872 -6.51277,50.02238 -5.94534,5.94534 -11.06377,9.00934 -12.14031,7.26746 z"
               style="fill:#c35a14" />
            <path
               inkscape:connector-curvature="0"
               id="path2998"
               d="m 404.41967,525.59794 c -16.50467,-5.88631 -20.77555,-11.1594 -25.20323,-31.11746 -3.8519,-17.36267 -3.73704,-18.54527 3.02464,-31.14007 8.98367,-16.73365 14.59213,-20.17435 36.91867,-22.649 22.12326,-2.45211 32.5989,2.81535 46.09657,23.1787 4.82223,7.27509 10.94424,13.25634 13.60447,13.29168 2.6846,0.0357 8.28329,-5.81678 12.58244,-13.15272 4.26012,-7.26934 12.94438,-16.65732 19.29836,-20.86219 9.77634,-6.46968 13.70454,-7.39036 25.54735,-5.98775 21.02651,2.49027 28.14627,6.99077 37.00345,23.39037 7.75732,14.36314 7.91915,15.52791 4.32682,31.14234 -2.05255,8.92161 -5.78956,18.63121 -8.30448,21.57687 -11.47012,13.43468 -46.3601,18.06514 -65.90201,8.74625 -9.74356,-4.64638 -10.56994,-4.61797 -16.2917,0.56016 -5.71274,5.16996 -6.46367,5.19716 -14.38002,0.52085 -7.92342,-4.68047 -9.00589,-4.63748 -21.07014,0.83694 -14.77471,6.70436 -31.47165,7.29272 -47.25119,1.66503 z m 49.65712,-8.98319 c 3.89281,-2.55066 9.90603,-4.23686 13.36271,-3.74712 4.33726,0.61451 7.68618,-1.58528 10.80676,-7.09857 4.25392,-7.51563 4.14663,-8.25185 -1.8107,-12.42453 -3.48291,-2.43952 -7.23085,-8.52538 -8.32876,-13.52413 -2.10713,-9.59369 -26.91251,-37.66512 -33.28287,-37.66512 -2.05842,0 2.63163,5.98935 10.42234,13.30967 l 14.16492,13.30968 -15.52967,-10.28962 c -20.29899,-13.44966 -33.62255,-16.03615 -43.73062,-8.48938 -11.71405,8.74579 -11.44454,12.6176 0.87829,12.6176 13.05729,0 44.08418,14.28884 54.04128,24.88768 6.59075,7.01553 5.19767,6.65485 -15.8289,-4.09824 -39.50295,-20.20201 -61.81451,-19.04514 -55.52672,2.8791 3.31067,11.54361 16.28228,16.86231 47.11706,19.31923 11.60736,0.92488 20.40703,2.8098 19.55482,4.1887 -2.45859,3.9781 -33.46947,2.85182 -48.69616,-1.76859 -14.50504,-4.40142 -17.42078,-2.727 -8.76769,5.03502 12.4042,11.12686 46.56911,13.11496 61.15391,3.55862 z m 99.35329,1.1152 c 9.17052,-2.78106 17.72633,-10.10338 14.99583,-12.83387 -0.77789,-0.77789 -10.80289,0.70585 -22.27777,3.29721 -15.69844,3.54516 -23.59095,3.98756 -31.88096,1.78703 l -11.01753,-2.92454 13.26814,-0.30205 c 19.9018,-0.45307 47.40501,-8.36114 53.22017,-15.30253 6.57824,-7.85225 6.55791,-19.09214 -0.0409,-22.62372 -9.33402,-4.99542 -33.34996,1.90744 -56.94906,16.36875 -15.89473,9.74015 -13.47641,3.01538 2.79034,-7.75927 12.66081,-8.38617 37.34287,-17.7463 46.79587,-17.7463 7.13778,0 -1.26556,-10.82946 -11.05009,-14.24037 -10.37789,-3.61775 -22.87367,0.41553 -40.57073,13.09506 -7.93165,5.68283 -7.0228,4.26573 3.8456,-5.99618 12.21485,-11.53322 13.05683,-12.99094 5.9409,-10.28547 -4.56004,1.73372 -10.05383,4.61525 -12.20841,6.4034 -7.48555,6.21246 -19.05767,29.13834 -20.07792,39.77699 -0.56443,5.88565 -1.35767,13.98906 -1.76276,18.00759 -0.55741,5.52963 0.49918,7.09942 4.34491,6.45524 2.79478,-0.46814 8.05539,0.76173 11.69025,2.73304 14.42185,7.82148 29.94471,8.4583 50.94414,2.08999 z m -72.09966,0.2395 c 0,-1.70228 -1.31515,-2.28224 -2.92256,-1.2888 -1.60741,0.99343 -2.92257,2.3862 -2.92257,3.09504 0,0.70884 1.31516,1.2888 2.92257,1.2888 1.60741,0 2.92256,-1.39277 2.92256,-3.09504 z"
               style="fill:#000000"
               sodipodi:nodetypes="ssssscsssssssssssssssssscssssssssssscssscsssssssssssssssccsssss" />
          </g>
          <path
             inkscape:connector-curvature="0"
             id="path3014"
             d="m 89.144136,679.02131 c -1.387561,0.24505 -0.358044,1.94695 0.118377,2.59641 4.243277,6.05031 9.996871,10.84858 15.265547,15.99336 2.23364,2.09627 4.47002,4.18981 6.68949,6.30102 -9.10604,-5.69881 -17.758836,-12.24465 -27.520023,-16.80311 -6.827805,-3.17472 -14.574817,-5.48423 -22.119507,-3.71561 -5.964045,1.76335 -10.8599,6.02368 -14.868183,10.62238 -1.164362,1.33393 -1.553695,3.93217 0.410374,4.76666 4.323123,1.68725 9.115927,0.91809 13.597601,1.89404 10.78485,2.18237 20.965759,6.75001 30.683383,11.81405 7.838802,4.3098 15.811375,9.03393 21.118505,16.3913 -0.47284,0.26957 -1.73485,-0.30529 -2.43857,-0.52086 -16.242434,-7.41281 -31.803693,-16.88919 -49.380195,-21.01098 -5.641163,-1.20218 -11.692246,-2.11817 -17.329337,-0.43898 -3.844754,1.25523 -6.585575,4.99773 -6.621234,9.04402 -0.224782,6.17005 2.09415,12.65038 7.071068,16.48601 6.811034,5.51693 15.774593,7.07565 24.188418,8.52316 11.320353,1.90614 22.93806,2.02646 34.12422,4.62461 0.63115,0.32001 2.12738,0.3875 2.13868,1.28636 -1.54112,1.42381 -3.89377,1.48235 -5.886001,1.79332 -10.60237,0.57742 -21.319449,0.12588 -31.825619,-1.47144 -6.658567,-0.86876 -12.964384,-3.36673 -19.590863,-4.38616 -1.50951,-0.03 -3.858372,-0.7939 -4.727198,0.89177 -0.223857,2.00317 1.783713,3.39809 2.924923,4.79529 6.523533,6.87345 16.14352,9.31575 25.183142,10.80342 6.732053,1.13845 13.590087,0.72027 20.362168,0.28556 6.326699,-0.69146 12.512768,-2.55826 18.030888,-5.75573 3.64319,-1.92856 7.55475,-3.67548 11.76992,-3.47574 2.78122,-0.0499 5.88544,0.0486 8.01808,-2.05187 3.27432,-3.00585 5.43329,-7.08524 6.98426,-11.19849 0.89461,-2.66594 -1.70513,-4.61169 -3.52764,-6.02145 -5.0949,-3.44879 -8.00459,-9.18914 -9.6424,-14.99536 -3.33222,-8.45755 -9.49492,-15.36873 -15.33141,-22.18168 -4.69139,-5.06368 -9.379977,-10.33308 -15.306024,-13.98561 -0.80798,-0.37806 -1.651741,-0.89681 -2.56484,-0.89967 z"
             style="fill:#6b665c;fill-opacity:1;stroke:#6b665c;stroke-width:0.25253814;stroke-opacity:1" />
          <path
             inkscape:connector-curvature="0"
             id="path3016"
             d="m 178.70047,677.9717 c -4.83586,1.19586 -9.37612,3.46764 -13.67652,5.92675 -6.88047,4.47594 -10.7927,12.07789 -14.54843,19.1182 -3.20088,6.45339 -6.42847,13.0778 -7.78541,20.19094 -0.97202,7.63797 -1.91184,15.29698 -2.26495,22.98887 -0.10596,1.77839 0.59913,4.13044 2.74635,4.15109 2.71714,0.0299 5.50147,-0.26939 8.10919,0.6751 6.04154,1.87784 11.49768,5.41895 17.72804,6.84754 12.93067,3.17164 26.53329,1.03526 39.0414,-2.89803 5.60685,-1.90758 11.17325,-4.91345 14.7577,-9.73851 0.85582,-1.06242 0.89696,-2.9062 -0.27622,-3.68547 -13.33817,0.70389 -26.17837,5.19927 -39.44258,6.45879 -6.22235,0.63851 -12.42382,-0.40007 -18.37201,-2.18276 -1.63851,-0.43501 -3.66181,-0.94608 -5.05162,-1.38763 10.27758,-0.16117 20.61982,-0.4556 30.71015,-2.5902 10.12232,-2.10548 20.38885,-4.69599 29.46495,-9.7526 7.2181,-4.06504 11.05087,-13.47873 8.44425,-21.38682 -1.41869,-4.06625 -5.71806,-6.31732 -9.8411,-6.44762 -10.31775,-0.61923 -20.33116,2.87871 -29.76004,6.70015 -9.24364,3.80351 -17.8729,8.87031 -26.53229,13.82647 -1.70942,0.74041 -3.59098,2.16991 -5.47692,1.76776 0.29408,-1.61292 1.90667,-2.70034 2.95415,-3.84254 12.76253,-11.23624 28.79672,-18.30897 44.97285,-23.25796 4.31783,-1.39924 8.82837,-1.97557 13.29772,-2.60429 1.86669,-0.34039 1.87259,-2.70265 0.98647,-3.98537 -2.90343,-4.84121 -7.75207,-8.23531 -12.90312,-10.35407 -6.34457,-2.38243 -13.54344,-1.38317 -19.78478,0.89967 -9.28075,3.52749 -17.37791,9.50459 -25.62473,14.88397 5.96291,-6.42943 12.83167,-12.15035 18.55366,-18.78253 0.59423,-0.59367 0.76204,-1.69569 -0.42616,-1.5389 z"
             style="fill:#6b665c;fill-opacity:1;stroke:#6b665c;stroke-width:0.25253814;stroke-opacity:1" />
          <path
             inkscape:connector-curvature="0"
             id="path3020"
             d="m 134.02928,753.10469 c -1.92564,0.28495 -3.36704,1.90028 -4.45871,3.39286 -0.43474,1.17896 1.18936,1.76528 2.08706,1.90848 2.52184,0.87431 5.26507,-2.29303 3.87276,-4.59263 -0.32358,-0.49975 -0.9137,-0.75667 -1.50111,-0.70871 z"
             style="fill:#6b665c;fill-opacity:1;stroke:#6b665c;stroke-width:0.17857143;stroke-opacity:1" />
        </g>
        <g
           id="g3073">
          <path
             sodipodi:nodetypes="csssscccc"
             inkscape:connector-curvature="0"
             id="path3058"
             d="m 112.2532,666.48391 c 19.31917,2.90419 18.58238,3.01644 21.08694,2.77792 2.65164,-0.25254 13.63706,0.50508 32.07234,-9.84899 18.43528,-10.35406 23.73858,-12.87944 25.88516,-18.30901 2.14657,-5.42957 -12.2481,2.65165 -14.64721,4.79822 -2.39912,2.14658 -21.86468,11.35897 -30.94862,14.27738 -12.33688,3.71319 -18.3397,4.04941 -29.91307,0.9235 -23.211844,-5.94516 -36.723632,-16.98125 -50.886438,-20.88298 -2.690953,8.50105 36.013488,21.11334 47.350898,26.26396 z"
             style="fill:#000000;stroke:#000000;stroke-width:1px;stroke-linecap:butt;stroke-linejoin:miter;stroke-opacity:1" />
          <g
             transform="translate(-2.5956311,-8.1186546)"
             id="g3068">
            <path
               style="fill:#6b665c;fill-opacity:1;stroke:#6b665c;stroke-width:0.12626907;stroke-opacity:1"
               d="m 133.73698,673.04351 c -1.03808,1.99913 -1.52028,4.26368 -2.43068,6.31739 -0.0904,0.42496 -0.35541,0.75134 -0.83259,0.68265 -2.36582,0.34058 -4.7808,0.18492 -7.14209,0.49324 -0.62075,0.52576 0.32653,0.98652 0.68398,1.29244 1.68933,1.34701 3.59076,2.50827 5.01785,4.12134 -0.4443,2.37458 -1.41685,4.65183 -1.88614,7.00793 0.0888,0.77185 0.98707,0.35828 1.32582,0.0118 1.77883,-1.07258 3.40669,-2.44533 5.28358,-3.31851 0.76836,-0.0611 1.36516,0.66221 2.0331,0.95478 1.4548,0.86073 2.79835,1.97646 4.32375,2.68335 0.7569,0.12742 0.67231,-0.82576 0.45015,-1.26952 -0.49091,-1.97514 -1.45297,-3.87951 -1.61813,-5.90809 0.16172,-0.9433 1.23588,-1.35926 1.84668,-1.98479 1.26991,-1.06824 2.72584,-1.90385 3.89856,-3.06991 0.15797,-0.85513 -0.99472,-0.5988 -1.49156,-0.67081 -2.13521,-0.0302 -4.27495,-0.11951 -6.39631,-0.37091 -0.9352,-2.22219 -1.60982,-4.57344 -2.4149,-6.86589 -0.17843,-0.24225 -0.40643,-0.27925 -0.65107,-0.10653 z"
               id="path3066"
               inkscape:connector-curvature="0" />
            <g
               id="g3062"
               transform="translate(0.75761441,11.490485)">
              <path
                 inkscape:connector-curvature="0"
                 id="path3056"
                 d="m 123.83912,685.70247 c -0.71095,-0.39804 -0.60022,-1.06025 1.01998,-6.10517 l 1.48503,-4.62394 -4.11404,-3.05685 c -3.3165,-2.46424 -4.11411,-3.1858 -4.11411,-3.72213 0,-0.37506 0.2331,-0.79009 0.5345,-0.95126 0.31107,-0.16627 2.59478,-0.28579 5.46623,-0.28579 l 4.9319,0 1.64659,-5.04108 1.64655,-5.04109 0.82869,0 0.82869,0 1.65733,5.04053 1.65731,5.04051 4.92118,5.2e-4 c 2.86286,2.9e-4 5.14462,0.12017 5.45545,0.28632 0.30486,0.16346 0.5345,0.57628 0.5345,0.96238 0,0.55137 -0.76082,1.23927 -4.10974,3.71694 l -4.10971,3.04056 1.48554,4.6291 c 0.81706,2.54597 1.48557,4.90437 1.48562,5.24085 0,0.33631 -0.2408,0.7407 -0.53507,0.89823 -0.55526,0.29703 -0.9889,0.0392 -7.19898,-4.27497 l -2.07169,-1.43946 -3.72904,2.60264 c -4.61142,3.21845 -4.9889,3.42623 -5.60202,3.08309 z m 5.78984,-5.89687 c 1.64386,-1.13723 3.23739,-2.0695 3.54124,-2.07169 0.30376,-0.002 1.73331,0.8136 3.1766,1.81279 3.88047,2.68664 3.65298,2.67449 2.87881,0.15393 -0.36605,-1.1922 -0.8529,-2.69822 -1.08168,-3.34675 -0.75126,-2.12932 -0.69887,-2.22205 2.67821,-4.74074 l 3.09415,-2.30773 -3.85381,-0.13812 c -2.1196,-0.0758 -4.00734,-0.23747 -4.19503,-0.35934 -0.18749,-0.12125 -0.86186,-1.85724 -1.49822,-3.85711 l -1.15696,-3.63621 -1.19212,3.56429 c -0.65563,1.96033 -1.32344,3.69602 -1.48395,3.85711 -0.1639,0.16455 -2.00739,0.35371 -4.20197,0.43118 l -3.91012,0.13814 3.09419,2.30768 c 2.26302,1.68781 3.09422,2.46695 3.09417,2.90037 0,0.32622 -0.48227,2.11537 -1.07191,3.97636 -0.58951,1.8611 -1.03327,3.3838 -0.98611,3.3838 0.0448,0 1.43067,-0.93049 3.07451,-2.0677 z"
                 style="fill:#000000" />
            </g>
          </g>
        </g>
      </g>
    </g>
  </g>
</svg>
