<?xml version="1.0" encoding="UTF-8" standalone="no"?>
<!-- Created with Inkscape (http://www.inkscape.org/) -->

<svg
   xmlns:dc="http://purl.org/dc/elements/1.1/"
   xmlns:cc="http://creativecommons.org/ns#"
   xmlns:rdf="http://www.w3.org/1999/02/22-rdf-syntax-ns#"
   xmlns:svg="http://www.w3.org/2000/svg"
   xmlns="http://www.w3.org/2000/svg"
   xmlns:sodipodi="http://sodipodi.sourceforge.net/DTD/sodipodi-0.dtd"
   xmlns:inkscape="http://www.inkscape.org/namespaces/inkscape"
   width="1024"
   height="1024"
   id="svg2"
   version="1.1"
   inkscape:version="0.48.4 r9939"
   sodipodi:docname="Infomaniac Torso.svg">
  <defs
     id="defs4" />
  <sodipodi:namedview
     id="base"
     pagecolor="#ffffff"
     bordercolor="#666666"
     borderopacity="1.0"
     inkscape:pageopacity="0.0"
     inkscape:pageshadow="2"
     inkscape:zoom="0.35"
     inkscape:cx="130.72203"
     inkscape:cy="705.3361"
     inkscape:document-units="px"
     inkscape:current-layer="layer1"
     showgrid="false"
     inkscape:window-width="1920"
     inkscape:window-height="1018"
     inkscape:window-x="-8"
     inkscape:window-y="-8"
     inkscape:window-maximized="1" />
  <metadata
     id="metadata7">
    <rdf:RDF>
      <cc:Work
         rdf:about="">
        <dc:format>image/svg+xml</dc:format>
        <dc:type
           rdf:resource="http://purl.org/dc/dcmitype/StillImage" />
        <dc:title></dc:title>
      </cc:Work>
    </rdf:RDF>
  </metadata>
  <g
     inkscape:label="Layer 1"
     inkscape:groupmode="layer"
     id="layer1"
     transform="translate(0,-28.362183)">
    <g
       id="g3045"
       transform="matrix(0.50419232,0,0,0.50419232,1304.5146,400.02946)">
      <g
         style="fill:#ffffff;stroke:#ffffff"
         id="g3038">
        <path
           style="fill:#ffffff;fill-opacity:1;stroke:#ffffff;stroke-width:0.71428573;stroke-opacity:1"
           d="m -1542.3267,-596.82663 c -34.4673,1.23606 -67.7524,11.77784 -99.9553,23.41518 -46.7758,17.7717 -91.882,40.15072 -134.0617,67.10997 -15.726,9.96542 -31.8603,19.70054 -45.983,31.84092 -0.6444,21.20303 1.9737,43.03349 -4.5121,63.57023 -3.0519,11.58326 -8.0274,22.50819 -12.9209,33.30477 -0.6347,5.4598 5.355,8.8566 8.0187,13.04106 33.6581,38.16908 69.3492,74.59022 106.8802,108.96995 46.2349,41.28708 94.7687,80.9625 149.4761,110.55595 21.5716,11.20448 44.2574,21.60914 68.5714,24.75447 13.5234,0.52188 27.483,0.55403 40.067,-5.08929 19.498,-7.20833 36.6398,-21.02586 47.174,-39.11783 15.1407,-25.62081 20.1734,-55.79887 22.3509,-85.12221 2.4675,-53.45059 -0.5603,-106.9831 -4.6643,-160.27584 -3.8009,-38.9917 -8.0776,-79.16224 -25.7535,-114.68055 -13.1254,-26.35269 -34.5216,-48.55665 -60.9821,-61.65178 -13.7018,-7.28297 -29.0897,-10.91948 -44.6201,-10.61667 -3.0276,-0.0718 -6.0576,-0.0734 -9.0853,-0.008 z"
           id="path3028"
           inkscape:connector-curvature="0" />
        <path
           style="fill:#ffffff;fill-opacity:1;stroke:#ffffff;stroke-width:0.50507629;stroke-opacity:1"
           d="m -1976.6295,-589.01448 c -32.7696,0.099 -63.7597,17.98679 -83.3376,43.68909 -20.0789,25.73706 -29.4681,59.13079 -27.1637,91.624 1.184,23.77199 9.3109,46.96721 22.3812,66.76477 19.9045,29.89392 53.2324,51.01183 89.2091,54.46932 11.8058,0.009 23.6978,0.1418 35.4343,-1.18378 22.3429,-4.83038 43.3196,-16.22757 59.7194,-32.00333 12.8664,-13.51897 22.9386,-29.96567 28.6081,-47.80922 8.4486,-28.16575 6.9712,-58.97265 -2.575,-86.67321 -9.6602,-27.92136 -28.8614,-52.3186 -53.2205,-68.88557 -17.1195,-11.07809 -36.8189,-18.47886 -57.2965,-19.56592 -3.9103,-0.30815 -7.8359,-0.48425 -11.7588,-0.42615 z"
           id="path3030"
           inkscape:connector-curvature="0" />
        <path
           style="fill:#ffffff;fill-opacity:1;stroke:#ffffff;stroke-width:0.71428573;stroke-opacity:1"
           d="m -2397.0835,-596.55862 c -14.6199,-0.45567 -28.6071,4.39216 -41.317,11.25 -29.1412,14.60209 -51.4872,40.72115 -63.7946,70.66965 -18.9211,44.97185 -20.7085,94.44979 -23.9809,142.47019 -2.416,46.10403 -5.4051,92.5081 -0.5076,138.55123 3.9309,31.20103 11.8318,64.16725 34.8373,87.0283 13.7232,13.64618 31.8343,23.70433 51.1882,26.01852 12.8763,0.55551 26.0509,1.22296 38.4159,-3.04908 43.4724,-12.11943 81.6566,-37.47314 117.983,-63.46591 57.9245,-42.1702 110.4711,-91.23169 159.3362,-143.51635 13.0645,-14.29862 27.054,-27.93712 38.5538,-43.52351 0.5012,-3.59267 -3.147,-6.41823 -4.2154,-9.71756 -13.0801,-24.48263 -20.2816,-51.9712 -20.4275,-79.79137 -0.2646,-5.92169 0.1312,-11.96473 -0.2902,-17.8125 -46.1826,-32.00889 -95.004,-60.37191 -146.8527,-82.05357 -40.8926,-16.75578 -83.5736,-32.65789 -128.3703,-32.99073 -3.5191,-0.047 -7.0388,-0.12843 -10.5582,-0.0673 z"
           id="path3032"
           inkscape:connector-curvature="0" />
        <path
           style="fill:#ffffff;fill-opacity:1;stroke:#ffffff;stroke-width:0.35714287;stroke-opacity:1"
           d="m -1363.3508,567.91193 c -15.6071,-0.10754 -31.0527,4.63874 -44.5389,12.29965 -20.3282,11.55816 -35.436,31.73332 -41.0875,54.42972 -3.02,11.11428 -3.172,22.7802 -2.3089,34.19697 2.2143,18.28787 10.3491,35.79623 23.1794,49.02184 10.7869,11.66352 24.5697,20.5799 39.8675,25.0853 13.313,4.10855 27.5733,4.99249 41.29,2.46504 11.3604,-1.71308 21.7962,-6.82858 31.7973,-12.2324 14.1965,-8.6584 25.3913,-21.89584 32.8614,-36.66121 6.953,-13.77669 9.4558,-29.48013 8.9062,-44.81027 -1.0465,-23.42438 -12.4576,-45.87192 -30.0316,-61.24463 -16.2635,-14.4751 -38.0718,-23.06465 -59.9349,-22.55001 z"
           id="path3034"
           inkscape:connector-curvature="0" />
        <path
           style="fill:#ffffff;fill-opacity:1;stroke:#ffffff;stroke-width:0.50507629;stroke-opacity:1"
           d="m -1494.8126,769.4235 c 0,36.87057 0,73.74114 0,110.61171 3.3293,0.94675 7.3964,0.1127 11.0011,0.39459 8.6232,0 17.2463,0 25.8694,0 0,39.4696 0,78.93921 0,118.40882 -13.5055,0 -27.011,0 -40.5166,0 -0.9467,3.32938 -0.1127,7.39638 -0.3946,11.00118 0,43.2682 0,86.5364 0,129.8046 3.3294,0.9468 7.3965,0.1127 11.0012,0.3946 83.3376,0 166.6752,0 250.0128,0 0.9467,-3.3294 0.1127,-7.3964 0.3946,-11.0012 0,-43.9416 0,-87.8833 0,-131.8249 -3.3294,-0.94675 -7.3964,-0.11271 -11.0012,-0.39459 -7.613,0 -15.226,0 -22.8389,0 0,-75.79827 0,-151.59654 0,-227.39481 -3.3294,-0.94675 -7.3964,-0.1127 -11.0012,-0.39459 -70.7107,0 -141.4214,0 -212.1321,0 l -0.3571,0.35714 -0.037,0.0375 z"
           id="path3036"
           inkscape:connector-curvature="0" />
      </g>
      <g
         transform="translate(-2224.5656,-262.31767)"
         id="g3006">
        <path
           sodipodi:nodetypes="csssssscssssssssssssssssssssscccccccccccccccccccccccssssssss"
           inkscape:connector-curvature="0"
           id="path3010"
           d="m 827.5,1520.3411 c -21.3133,-1.5592 -26.9665,-2.3764 -50.5,-7.3002 -22.7513,-4.7601 -29.8951,-6.7381 -50.5,-13.9824 -67.1382,-23.6047 -125.2098,-62.7172 -172.0289,-115.8654 -35.6031,-40.4159 -61.5118,-84.8536 -79.4856,-136.3309 -7.7821,-22.2881 -9.3332,-27.9831 -14.299,-52.5 -5.2184,-25.764 -5.6783,-29.2155 -7.2857,-54.6763 -1.6189,-25.644 -1.6195,-28.6606 -0.01,-53.5 1.5714,-24.2416 2.1439,-28.4988 7.2385,-53.8237 4.9325,-24.5189 6.4938,-30.2817 14.4023,-53.16082 7.3868,-21.3697 10.8221,-29.562 20.5428,-48.9894 47.6913,-95.3135 130.7013,-168.0988 231.7868,-203.237 21.7319,-7.5541 28.2157,-9.3259 51.5,-14.073 24.5455,-5.0041 28.818,-5.5806 54.3881,-7.3377 27.2495,-1.8726 28.2505,-1.8729 55.5,-0.018 25.645,1.7457 29.7769,2.3022 54.4706,7.3366 23.1424,4.7182 29.9874,6.5786 51.1159,13.8926 34.4726,11.9333 65.3121,27.3643 95.666,47.8681 73.5743,49.6986 128.3543,121.1054 157.4579,205.2493 7.507,21.70412 9.2287,28.06272 14.0403,51.85352 5.0863,25.1488 5.6138,29.0973 7.271,54.431 1.7189,26.2765 1.7182,28.349 -0.018,54.5 -1.6782,25.2795 -2.1959,29.1025 -7.3859,54.5461 -4.9542,24.2875 -6.5705,30.1949 -14.3877,52.5846 -17.8762,51.2006 -43.2466,94.5518 -79.1807,135.2986 -35.0897,39.7893 -74.0796,69.9844 -122.2996,94.713 -19.8159,10.1622 -26.6686,13.0764 -49.5,21.0504 -24.3393,8.5008 -28.783,9.71 -54.5,14.8305 -25.3758,5.0526 -30.2962,5.7207 -52.5,7.1289 -28.6857,1.8192 -30.1128,1.8078 -61.5,-0.4884 z m 159.5,-189.4789 0,-71.5 -17,0 -17,0 0,-114 0,-114 -111.5,0 -111.5,0 0,55.5 0,55.5 18.5,0 18.5,0 0,59.5 0,59.5 -20.5,0 -20.5,0 0,70.5 0,70.5 130.5,0 130.5,0 z M 884,1006.2435 c 8.3308,-2.1123 21.5008,-8.08022 28.7594,-13.03242 14.8302,-10.1178 27.4749,-26.6985 33.4226,-43.8264 4.9098,-14.1391 6.3053,-33.8742 3.3735,-47.7071 -11.0096,-51.9457 -64.4197,-83.2413 -114.5555,-67.1238 -37.7811,12.1457 -62.1166,45.5671 -62.1166,85.3084 0,23.5811 8.0168,43.8008 24.1166,60.826 22.5532,23.84952 55.5269,33.53512 87,25.55532 z"
           style="fill:#b1b1b1" />
        <path
           inkscape:connector-curvature="0"
           id="path3008"
           d="m 710,1332.3622 0,-87 23.5,0 23.5,0 0,-42.5 0,-42.5 -21,0 -21,0 0,-73.5 0,-73.5 47.5,0 c 26.125,0 47.4942,-0.3375 47.4871,-0.75 -0.01,-0.4125 -3.3509,-2.9216 -7.4307,-5.5758 -18.3881,-11.96292 -33.8703,-32.49392 -40.8523,-54.17422 -4.1573,-12.9092 -5.0872,-19.1698 -5.0499,-34 0.03,-11.7519 0.4603,-15.6861 2.6824,-24.5 4.8033,-19.0526 14.2028,-35.5924 28.0799,-49.4106 20.5951,-20.5077 45.3816,-30.7155 74.5835,-30.7155 28.9017,0 53.9928,10.2723 74.2612,30.4025 15.1624,15.059 24.9124,32.9628 29.3265,53.8516 2.0964,9.921 2.3653,31.2695 0.5085,40.372 -5.7903,28.3854 -21.5912,52.5688 -44.3124,67.82052 -4.2439,2.8487 -7.7314,5.517 -7.75,5.9295 -0.019,0.4125 12.7912,0.75 28.4662,0.75 l 28.5,0 0,115 0,115 19.5,0 19.5,0 0,88 0,88 -150,0 -150,0 0,-87 z m 278,-1.4764 0,-71.4764 -17.25,-0.2736 -17.25,-0.2736 -0.2542,-114.25 -0.2543,-114.25 -111.9957,0 -111.9958,0 0,56 0,56 18.5,0 18.5,0 0,58.9793 0,58.9793 -20.25,0.2707 -20.25,0.2707 -0.2567,70.75 -0.2567,70.75 131.5067,0 131.5067,0 0,-71.4764 z M 879.6846,1007.912 c 13.5629,-2.8859 22.2221,-6.65 34.0716,-14.81082 18.0368,-12.422 30.7765,-31.5765 36.4068,-54.739 2.1663,-8.9115 1.5967,-31.755 -1.0346,-41.5 -5.4297,-20.1085 -17.5125,-37.6805 -34.5361,-50.226 -17.1673,-12.6515 -40.7936,-18.8875 -62.0573,-16.3798 -21.6025,2.5478 -38.853,10.7402 -53.7963,25.5486 -34.7758,34.4617 -35.6384,90.4558 -1.9377,125.7875 12.8598,13.4821 28.4458,22.18132 47.199,26.34392 7.7935,1.7299 27.5032,1.7165 35.6846,-0.024 z M 249.82286,701.03518 C 146.03455,412.27267 18.75659,58.82606 18.43856,58.48875 c -0.19365,-0.20538 -4.53404,3.19405 -9.64532,7.5543 -17.24121,14.70786 -50.83514,40.29618 -73.13363,55.70551 -46.9085,32.41603 -86.31372,52.59506 -120.52025,61.71722 -17.68976,4.71749 -18.85568,4.8964 -31.90925,4.8964 -13.01781,0 -14.10067,-0.16481 -27.63937,-4.20657 -62.61461,-18.69261 -90.41766,-76.50133 -90.55954,-188.29343 -0.0509,-40.08386 5.11026,-139.41229 9.04109,-174 11.41198,-100.41501 42.20475,-155.48143 103.13749,-184.43974 18.03279,-8.5701 29.67928,-11.06026 51.72881,-11.06026 20.866,0 38.29485,2.32604 64.42578,8.59821 10.37541,2.49039 19.40265,4.32144 20.06053,4.06898 0.65788,-0.25245 1.78287,-2.41728 2.49996,-4.81074 2.00882,-6.70485 9.63219,-21.26257 15.29128,-29.20051 10.03692,-14.07866 25.50421,-28.26354 40.78386,-37.40241 l 8.5,-5.08392 272.00664,-1.68364 272.00666,-1.68364 9.9933,4.43178 c 23.4215,10.38677 42.6157,25.52731 55.7112,43.94539 4.862,6.8382 14.2288,24.61062 15.3262,29.07995 0.3727,1.5177 1.0524,2.99111 1.5105,3.27425 0.4582,0.28315 9.0708,-1.56579 19.1393,-4.10875 26.1037,-6.59295 46.0828,-9.36506 67.8062,-9.40814 22.6743,-0.045 34.2356,2.38946 52.625,11.08103 36.2088,17.11371 63.9428,46.94099 80.3384,86.40216 18.9554,45.62228 26.408,103.00696 31.0555,239.12682 0.9558,27.9927 0.1526,70.54181 -1.5926,84.37318 -3.9454,31.26888 -8.8984,52.61296 -16.3056,70.26708 -14.7277,35.10146 -37.6858,56.25909 -72.3032,66.63274 -13.1913,3.95301 -14.1784,4.09925 -27.5,4.07421 -13.3205,-0.025 -14.4681,-0.19997 -31.9067,-4.86392 C 674.7428,174.46777 634.4821,153.83849 588,121.77467 568.2966,108.18309 524.8577,75.20195 517.3627,68.14308 c -1.7255,-1.62509 -3.3555,-2.5781 -3.6222,-2.11781 -0.2667,0.4603 -10.032,33.01191 -21.7007,72.33691 -11.6688,39.325 -32.843,110.65 -47.0539,158.5 -41.0607,138.25672 -122.75315,413.4238 -138.64438,467 -7.99363,26.95 -14.8281,49.3028 -15.1877,49.673 -0.3596,0.3701 -18.95853,-50.2549 -41.33096,-112.5 z m -425.9707,-562.63987 c 28.04089,-7.59393 60.76308,-24.36463 100.0287,-51.26646 C -43.85563,65.02433 -4.16685,33.05457 29,2.45419 c 37.41196,-34.517 90.87102,-90.16416 108.87958,-113.33606 1.18353,-1.52286 0.83837,-2.61438 -2.72166,-8.60679 -8.79648,-14.80667 -16.24149,-35.60603 -19.74031,-55.14916 -1.08321,-6.05037 -1.77875,-15.83232 -1.91548,-26.93872 l -0.21468,-17.43872 -14.39373,-9.95687 C 46.41335,-265.27548 -21.58,-299.58083 -77.5,-317.96978 c -35.6648,-11.72815 -61.78474,-16.66804 -88.13317,-16.66804 -19.51527,0 -30.21359,2.34925 -45.36683,9.96214 -37.54482,18.86227 -61.52526,49.3296 -74.80306,95.03786 -8.75257,30.13034 -12.53368,59.49928 -16.22187,126 -4.87303,87.86406 -3.65691,125.72043 5.22024,162.5 10.30809,42.70821 32.80239,69.31608 67.67466,80.05042 9.72762,2.99435 11.80597,3.27966 24.48219,3.36085 13.15385,0.0843 14.59058,-0.11125 28.5,-3.87814 z m 928.70914,0.51134 c 34.5468,-10.47287 57.4211,-37.15721 67.8972,-79.20647 8.7957,-35.30417 10.0414,-77.02878 5.0111,-167.838 -5.4572,-98.51402 -15.6416,-140.54383 -43.0136,-177.51176 -16.4669,-22.2398 -44.5865,-41.26338 -69.2815,-46.87075 -12.3487,-2.80394 -35.2537,-2.88663 -53.1745,-0.19195 -44.9603,6.7605 -109.1981,30.76105 -168.0995,62.80547 -37.7973,20.563 -90.6713,55.109 -90.1327,58.88944 0.1473,1.03375 0.5394,8.85455 0.8713,17.37955 0.6729,17.28177 -0.7845,30.50196 -5.1261,46.5 -2.4303,8.95521 -9.255,25.86587 -12.0482,29.85378 -0.8057,1.15018 -1.4648,2.64722 -1.4648,3.32675 0,4.76632 66.1855,75.13136 101.8722,108.30523 83.435,77.5602 160.9571,129.83595 213.6278,144.05633 12.8691,3.47447 15.1173,3.787 27.8313,3.86886 13.0394,0.084 14.4839,-0.10879 25.23,-3.36648 z M 291.5,-73.07365 c 17.77503,-4.73227 37.68961,-15.95217 51.35049,-28.93091 9.40711,-8.93735 20.37261,-25.22428 26.21281,-38.93356 12.2822,-28.8314 12.2405,-68.07195 -0.1066,-100.1997 -15.894,-41.35703 -49.02587,-71.77962 -89.4567,-82.14164 -13.61504,-3.48939 -35.05386,-4.34859 -47.90205,-1.91975 -39.73087,7.51079 -72.85246,37.88965 -87.27907,80.05167 -8.9185,26.06451 -9.60892,56.39147 -1.88976,83.00972 12.69348,43.77142 45.65269,77.01168 87.71625,88.4642 12.17039,3.3136 18.31188,3.93705 35.35463,3.58902 13.47118,-0.27509 17.58051,-0.74751 26,-2.98905 z"
           style="fill:#000000" />
      </g>
    </g>
  </g>
</svg>
