<?xml version="1.0" encoding="UTF-8" standalone="no"?>
<svg
   xmlns:dc="http://purl.org/dc/elements/1.1/"
   xmlns:cc="http://creativecommons.org/ns#"
   xmlns:rdf="http://www.w3.org/1999/02/22-rdf-syntax-ns#"
   xmlns:svg="http://www.w3.org/2000/svg"
   xmlns="http://www.w3.org/2000/svg"
   xmlns:xlink="http://www.w3.org/1999/xlink"
   xmlns:sodipodi="http://sodipodi.sourceforge.net/DTD/sodipodi-0.dtd"
   xmlns:inkscape="http://www.inkscape.org/namespaces/inkscape"
   width="1024"
   height="275"
   id="svg2"
   version="1.1"
   inkscape:version="0.48.4 r9939"
   sodipodi:docname="isle.svg">
  <metadata
     id="metadata3110">
    <rdf:RDF>
      <cc:Work
         rdf:about="">
        <dc:format>image/svg+xml</dc:format>
        <dc:type
           rdf:resource="http://purl.org/dc/dcmitype/StillImage" />
      </cc:Work>
    </rdf:RDF>
  </metadata>
  <defs
     id="defs3108">
    <linearGradient
       inkscape:collect="always"
       xlink:href="#SVGID_6_"
       id="linearGradient3285"
       gradientUnits="userSpaceOnUse"
       x1="341.88531"
       y1="13.2944"
       x2="341.88531"
       y2="86.471397"
       gradientTransform="matrix(2.7306781,0,0,2.7306781,0,12.03112)" />
    <linearGradient
       inkscape:collect="always"
       xlink:href="#SVGID_5_"
       id="linearGradient3287"
       gradientUnits="userSpaceOnUse"
       x1="283.06149"
       y1="20.9526"
       x2="283.06149"
       y2="83.329399"
       gradientTransform="matrix(2.7306781,0,0,2.7306781,0,12.03112)" />
    <linearGradient
       inkscape:collect="always"
       xlink:href="#SVGID_4_"
       id="linearGradient3289"
       gradientUnits="userSpaceOnUse"
       x1="221.59621"
       y1="13.2949"
       x2="221.59621"
       y2="86.470802"
       gradientTransform="matrix(2.7306781,0,0,2.7306781,0,12.03112)" />
    <linearGradient
       inkscape:collect="always"
       xlink:href="#SVGID_3_"
       id="linearGradient3291"
       gradientUnits="userSpaceOnUse"
       x1="178.50929"
       y1="13.2949"
       x2="178.50929"
       y2="86.471397"
       gradientTransform="matrix(2.7306781,0,0,2.7306781,0,12.03112)" />
    <linearGradient
       inkscape:collect="always"
       xlink:href="#SVGID_2_"
       id="linearGradient3293"
       gradientUnits="userSpaceOnUse"
       x1="141.98779"
       y1="19.6758"
       x2="141.98779"
       y2="84.888298"
       gradientTransform="matrix(2.7306781,0,0,2.7306781,0,12.03112)" />
    <linearGradient
       inkscape:collect="always"
       xlink:href="#SVGID_1_"
       id="linearGradient3295"
       gradientUnits="userSpaceOnUse"
       x1="116.5747"
       y1="13.2944"
       x2="116.5747"
       y2="86.470901"
       gradientTransform="matrix(2.7306781,0,0,2.7306781,0,12.03112)" />
  </defs>
  <sodipodi:namedview
     pagecolor="#ffffff"
     bordercolor="#666666"
     borderopacity="1"
     objecttolerance="10"
     gridtolerance="10"
     guidetolerance="10"
     inkscape:pageopacity="0"
     inkscape:pageshadow="2"
     inkscape:window-width="1920"
     inkscape:window-height="1018"
     id="namedview3106"
     showgrid="false"
     inkscape:zoom="0.65186406"
     inkscape:cx="396.21654"
     inkscape:cy="441.38808"
     inkscape:window-x="-8"
     inkscape:window-y="-8"
     inkscape:window-maximized="1"
     inkscape:current-layer="svg2" />
  <path
     d="m 1012.4126,109.04119 c -5.09,-8.17292 -11.2586,-20.85965 -18.87448,-27.30678 C 982.00101,71.95858 967.6076,60.62354 951.1225,56.78694 939.93491,54.13818 923.48258,61.18333 902.72942,61.18333 H 868.9564 c 0.15837,21.84542 -3.34509,48.0217 -4.09602,81.863 -0.87109,47.83602 -5.83546,75.80908 -0.87109,81.01922 3.55534,3.7301 17.55007,2.00705 32.11551,2.88086 12.21432,0.73182 21.92188,1.00216 29.13906,1.00216 12.21433,0 26.69511,-0.30037 36.06953,-3.83933 24.95567,-9.44542 61.14811,-53.30557 62.63081,-79.18421 0.598,-10.2455 -3.6372,-23.21349 -11.5316,-35.88384 z m -58.3792,60.03123 c -3.41334,2.83991 -10.50765,6.69289 -17.63472,8.50333 -7.66774,1.93332 -15.26449,1.74491 -15.26449,1.74491 0,0 -3.63999,0.55705 -3.48434,-4.60393 l 0.87108,-66.63674 c 0,0 19.98857,-0.36591 27.09652,6.18499 2.474,2.28285 9.74033,7.65136 14.51629,13.06903 5.46955,6.2041 8.71086,11.01555 8.71086,14.95319 0.003,14.37975 -8.77913,21.78535 -14.8112,26.78522 z M 843.1706,85.01123 c -5.0026,0 -32.6043,7.47659 -32.6043,7.47659 0,0 0.0683,24.39588 0.27853,32.51692 0.22665,7.85889 -1.34076,33.61738 -1.34076,33.61738 L 753.20022,83.68958 c 0,0 -32.81183,8.10465 -36.15964,8.50333 2.00432,42.29274 -4.39093,79.33985 -4.79234,123.51676 0.13926,1.166 -1.13323,2.61326 -1.51553,8.71087 -2.16269,-8.94024 -11.79653,-29.74801 -34.57311,-74.89704 -24.81368,-49.20955 -34.46935,-79.11321 -36.6812,-80.85538 0,0 -0.85471,-4.93161 -8.69721,-5.52417 -7.84251,-0.57344 -39.65218,5.81908 -45.08896,5.52417 -3.10478,8.67809 -18.37746,41.50903 -40.29935,95.80857 -0.83832,2.0562 -1.65479,4.1479 -2.44122,6.11672 -1.77495,0.24303 -3.71373,0.55706 -5.83819,0.83559 -8.83375,1.18511 -32.67257,3.51984 -35.94938,0.90658 -12.14606,-9.74033 0.66082,-116.16305 0.66082,-116.16305 0,0 -1.44453,-5.22925 -14.51628,-4.35816 -13.06903,0.87109 -43.86015,7.03969 -43.86015,7.03969 2.64875,39.59483 1.9497,70.00093 1.9497,92.7939 0,16.01543 -1.53464,31.15704 -2.73614,45.04527 -0.48879,-10.05436 -5.21013,-20.17698 -10.54315,-29.57051 -8.10192,-14.56817 -16.58887,-22.95135 -14.51628,-31.94348 2.9464,-12.92703 20.28894,-31.44102 20.28894,-31.44102 L 425.14747,93.35345 399.66205,78.25007 c -15.08973,11.13843 -33.76483,30.02653 -41.95414,45.4494 0.0164,-0.97485 0.0546,-1.96882 0.0683,-2.97917 0.8902,-24.7099 -1.08135,-54.14388 -1.08135,-54.14388 0,0 -2.23096,-6.72566 -12.58023,-6.18499 -6.69016,0.3468 -41.56092,6.02934 -41.56092,6.02934 0,0 1.62202,52.59013 1.62202,78.19024 0,7.66774 -10.26462,70.43511 -3.62634,89.5007 5.29751,1.76129 32.27115,0.27853 39.78325,0.27853 5.15825,0 18.15628,-1.18511 18.15628,-1.18511 0,0 -0.12015,-2.35385 -0.27853,-6.2396 -0.52429,-11.39512 -1.53464,-35.91388 -1.53464,-51.94569 0,-6.18499 0.10649,-13.80358 0.33041,-22.84486 0.0164,-0.88747 0.0355,-1.77767 0.071,-2.68425 4.65307,11.11932 13.97561,19.63904 19.27312,26.92448 9.18327,12.63485 10.3165,18.05252 9.58195,26.73061 -0.58982,6.62463 -18.29554,18.87172 -27.44604,23.80605 9.44541,9.39081 31.78509,23.57663 40.81271,27.88023 11.46612,-6.0293 31.7141,-24.13647 40.65434,-43.56524 0.88747,-1.93332 1.53191,-3.88576 1.98793,-5.83819 -0.38502,5.40401 -0.66355,10.57865 -0.67994,15.51025 l 1.96882,2.61326 71.44546,0.12288 c -0.45329,5.75081 -0.66082,8.92113 -0.66082,10.75068 0,0.74821 10.57865,0.94208 10.87356,1.237 l 48.56784,0.66355 c 1.60018,0.43418 6.76116,-24.55426 8.2248,-29.11995 0.4533,0 63.46642,-0.67994 63.46642,-0.67994 l 11.10021,28.77043 50.97084,-0.94209 c -0.8547,7.03969 6.62189,7.80701 6.62189,7.80701 l 46.51164,-2.52588 1.06224,-58.1334 c 4.66946,3.60449 19.09836,23.47291 24.45049,30.26956 4.5302,5.87369 18.55769,22.37518 23.09061,28.10687 6.39525,0.80009 44.29707,3.9213 44.29707,3.9213 0,0 1.14961,-67.57886 1.14961,-81.32783 0,-14.1531 0.94755,-71.73218 0.94755,-71.73218 0,0 -0.85198,-5.72896 -12.17883,-5.72896 z m -236.45215,76.55183 c -4.95072,-0.36591 -14.56817,-2.85629 -14.56817,-2.85629 0,0 6.6219,-18.73246 12.28532,-29.81355 4.84423,-9.51368 9.89598,-14.91769 9.89598,-14.91769 0,0 7.11069,10.45576 10.24824,18.40204 3.11843,7.949 8.51971,29.22372 8.51971,29.22372 0,0 -21.03441,0.37956 -26.38108,-0.0382 z"
     id="path2986"
     inkscape:connector-curvature="0" />
  <linearGradient
     id="SVGID_1_"
     gradientUnits="userSpaceOnUse"
     x1="116.5747"
     y1="13.2944"
     x2="116.5747"
     y2="86.470901">
    <stop
       offset="0"
       style="stop-color:#FF4D00"
       id="stop2989" />
    <stop
       offset="0.0992"
       style="stop-color:#FF6603"
       id="stop2991" />
    <stop
       offset="0.3129"
       style="stop-color:#FF9508"
       id="stop2993" />
    <stop
       offset="0.5164"
       style="stop-color:#FFBA0C"
       id="stop2995" />
    <stop
       offset="0.7044"
       style="stop-color:#FFD50F"
       id="stop2997" />
    <stop
       offset="0.8714"
       style="stop-color:#FFE511"
       id="stop2999" />
    <stop
       offset="1"
       style="stop-color:#FFEB12"
       id="stop3001" />
  </linearGradient>
  <path
     d="m 317.13277,53.70673 c 6.84854,0.0246 27.37504,-1.08135 27.37504,-1.08135 0,0 1.96609,29.43125 1.07862,54.14935 -0.29764,11.91941 -0.54886,22.41068 -0.77278,31.45468 -0.21572,9.0522 -0.33314,16.66806 -0.33314,22.84759 0,21.48224 1.82136,58.17982 1.82136,58.17982 0,0 -13.00622,1.19604 -18.15082,1.19604 -7.50936,0 -31.15157,0 -36.45182,-1.77494 1.024,-21.92461 0.28945,-80.3502 0.28945,-88.0043 0,-25.60556 -1.63021,-78.20116 -1.63021,-78.20116 0,0 20.07321,1.21243 26.7743,1.23427 z m -3.07202,20.61935 v 126.99565 l 6.53452,0.87109 -0.43418,-127.86401 c 0.29491,-1.16873 -5.06814,-0.58436 -6.10034,-0.003 z"
     id="path3003"
     style="fill:url(#linearGradient3295)"
     inkscape:connector-curvature="0" />
  <linearGradient
     id="SVGID_2_"
     gradientUnits="userSpaceOnUse"
     x1="141.98779"
     y1="19.6758"
     x2="141.98779"
     y2="84.888298">
    <stop
       offset="0"
       style="stop-color:#FF4D00"
       id="stop3006" />
    <stop
       offset="0.0992"
       style="stop-color:#FF6603"
       id="stop3008" />
    <stop
       offset="0.3129"
       style="stop-color:#FF9508"
       id="stop3010" />
    <stop
       offset="0.5164"
       style="stop-color:#FFBA0C"
       id="stop3012" />
    <stop
       offset="0.7044"
       style="stop-color:#FFD50F"
       id="stop3014" />
    <stop
       offset="0.8714"
       style="stop-color:#FFE511"
       id="stop3016" />
    <stop
       offset="1"
       style="stop-color:#FFEB12"
       id="stop3018" />
  </linearGradient>
  <path
     d="m 425.15293,93.35072 c 0,0 -16.79094,14.96138 -19.74826,27.88022 -2.05893,9.00032 6.41982,19.39055 14.52174,33.95871 7.94082,13.97561 14.52175,27.61535 7.84251,42.1371 -8.93751,19.42877 -29.18549,37.53044 -40.66253,43.56524 -9.02762,-4.31721 -32.74629,-18.36108 -42.18351,-27.73823 9.14777,-4.9398 28.22975,-17.33435 28.82504,-23.95897 0.73728,-8.6781 0.46421,-16.41411 -8.7136,-29.04349 -7.4056,-10.19636 -16.46053,-17.80403 -15.84612,-36.53921 0.5789,-17.64291 21.94646,-43.61985 40.82363,-57.56269 l 35.1411,27.30132 z m -27.80922,0.29218 -3.99226,-2.97644 c 0,0 -19.16936,20.89242 -19.71276,32.3285 -0.35772,7.50117 0.43418,12.34539 9.80313,27.37232 8.40776,13.49228 15.74782,22.71651 15.93624,31.62125 0.2048,9.5246 -10.36838,23.89343 -20.07594,32.27388 l 4.68311,2.81533 c 8.25757,-8.54702 20.58658,-21.49317 20.91153,-35.21482 0.18569,-7.76605 -4.80326,-14.55998 -13.28748,-29.18822 -8.72998,-15.05423 -12.37816,-18.73245 -12.77957,-26.93814 -0.29492,-6.11126 4.03048,-13.48409 9.04127,-20.2589 5.38763,-7.28272 9.47273,-11.83476 9.47273,-11.83476 z"
     id="path3020"
     style="fill:url(#linearGradient3293)"
     inkscape:connector-curvature="0" />
  <linearGradient
     id="SVGID_3_"
     gradientUnits="userSpaceOnUse"
     x1="178.50929"
     y1="13.2949"
     x2="178.50929"
     y2="86.471397">
    <stop
       offset="0"
       style="stop-color:#FF4D00"
       id="stop3023" />
    <stop
       offset="0.0992"
       style="stop-color:#FF6603"
       id="stop3025" />
    <stop
       offset="0.3129"
       style="stop-color:#FF9508"
       id="stop3027" />
    <stop
       offset="0.5164"
       style="stop-color:#FFBA0C"
       id="stop3029" />
    <stop
       offset="0.7044"
       style="stop-color:#FFD50F"
       id="stop3031" />
    <stop
       offset="0.8714"
       style="stop-color:#FFE511"
       id="stop3033" />
    <stop
       offset="1"
       style="stop-color:#FFEB12"
       id="stop3035" />
  </linearGradient>
  <path
     d="m 489.6297,42.23788 c 0,0 -12.81507,106.44184 -0.65263,116.17124 3.26589,2.61599 27.11017,0.30584 35.94119,-0.87108 8.82555,-1.17693 14.46713,-2.03436 18.73518,-2.17908 -1.024,5.73988 -2.1272,19.53527 -6.54544,29.69339 -4.85241,11.18213 -7.949,19.41785 -9.27065,24.7181 l -91.9037,-0.17204 -1.96063,-2.61325 c 0.10923,-19.71277 0.48879,-43.04914 0.48879,-68.94963 0,-22.80389 -0.56252,-53.53221 -3.21127,-93.11339 L 489.6297,42.23788 z M 463.70738,65.6316 h -5.1801 l 0.83832,120.2618 c 0,0 4.65034,2.55045 11.64361,2.75798 6.98781,0.20753 45.01796,-1.06769 45.01796,-1.06769 l 1.26976,-6.52086 -51.04183,2.22004 c 0,0 -2.62964,-41.05575 -2.03436,-68.72844 0.43418,-25.15774 -0.51336,-48.92283 -0.51336,-48.92283 z"
     id="path3037"
     style="fill:url(#linearGradient3291)"
     inkscape:connector-curvature="0" />
  <linearGradient
     id="SVGID_4_"
     gradientUnits="userSpaceOnUse"
     x1="221.59621"
     y1="13.2949"
     x2="221.59621"
     y2="86.470802">
    <stop
       offset="0"
       style="stop-color:#FF4D00"
       id="stop3040" />
    <stop
       offset="0.0992"
       style="stop-color:#FF6603"
       id="stop3042" />
    <stop
       offset="0.3129"
       style="stop-color:#FF9508"
       id="stop3044" />
    <stop
       offset="0.5164"
       style="stop-color:#FFBA0C"
       id="stop3046" />
    <stop
       offset="0.7044"
       style="stop-color:#FFD50F"
       id="stop3048" />
    <stop
       offset="0.8714"
       style="stop-color:#FFE511"
       id="stop3050" />
    <stop
       offset="1"
       style="stop-color:#FFEB12"
       id="stop3052" />
  </linearGradient>
  <path
     d="m 663.96439,135.97387 c 24.39588,48.35758 38.03288,78.17385 38.61452,84.67014 h -54.07835 l -8.13469,-27.96488 c 0,0 -70.42965,0.58164 -70.86656,0.58164 -1.47457,4.56296 -6.6219,29.56232 -8.23846,29.12268 l -48.56238,-0.66629 c -0.29764,-0.29491 -5.06267,-0.70997 -5.06267,-1.44725 0,-5.88462 8.92385,-28.63117 25.55641,-69.54218 21.92462,-54.30227 41.63738,-86.41505 44.72578,-95.0986 5.44224,0.29491 11.24766,0.17203 27.2904,-0.12015 h 22.06934 c 2.20912,1.32984 11.86206,31.25534 36.68666,80.46489 z M 618.58325,78.00431 584.38424,77.70393 c 0,0 -17.7303,45.98462 -22.72471,57.7593 -9.86048,23.39645 -27.83653,71.13963 -27.83653,71.13963 l 6.84035,0.36591 11.99041,-34.04063 97.7337,-0.14473 c 1.61929,2.50676 12.63211,32.96202 12.63211,32.96202 l 7.17076,0.24303 -51.60708,-127.98415 z m -2.90544,3.14847 33.40165,86.84102 -94.81187,-0.43691 c 6.47443,-18.25185 33.81944,-86.04093 33.81944,-86.04093 l 27.59078,-0.36318 z m 5.22925,66.50839 c 0,0 -5.40129,-21.28017 -8.53337,-29.22644 -3.12936,-7.94355 -10.23732,-18.40478 -10.23732,-18.40478 0,0 -5.05448,5.39309 -9.90963,14.92043 -5.64977,11.08382 -12.26893,29.80808 -12.26893,29.80808 0,0 9.61471,2.49311 14.55724,2.86721 5.36032,0.40688 26.39201,0.0355 26.39201,0.0355 z"
     id="path3054"
     style="fill:url(#linearGradient3289)"
     inkscape:connector-curvature="0" />
  <linearGradient
     id="SVGID_5_"
     gradientUnits="userSpaceOnUse"
     x1="283.06149"
     y1="20.9526"
     x2="283.06149"
     y2="83.329399">
    <stop
       offset="0"
       style="stop-color:#FF4D00"
       id="stop3057" />
    <stop
       offset="0.0992"
       style="stop-color:#FF6603"
       id="stop3059" />
    <stop
       offset="0.3129"
       style="stop-color:#FF9508"
       id="stop3061" />
    <stop
       offset="0.5164"
       style="stop-color:#FFBA0C"
       id="stop3063" />
    <stop
       offset="0.7044"
       style="stop-color:#FFD50F"
       id="stop3065" />
    <stop
       offset="0.8714"
       style="stop-color:#FFE511"
       id="stop3067" />
    <stop
       offset="1"
       style="stop-color:#FFEB12"
       id="stop3069" />
  </linearGradient>
  <path
     d="m 745.50244,79.12115 51.6972,67.37949 c 0,0 1.66571,-27.57166 1.45272,-35.43328 -0.22392,-8.12923 -0.29219,-32.53057 -0.29219,-32.53057 0,0 14.96412,-0.49152 19.9558,-0.56252 6.48809,-0.0901 25.93598,-0.8902 25.93598,-0.8902 0,0 -2.03162,57.30055 -2.03162,71.44546 0,13.74077 -1.16327,81.32232 -1.16327,81.32232 0,0 -32.8091,-0.65263 -39.20708,-1.45272 -4.53566,-5.74261 -21.35663,-27.42147 -25.8841,-33.28969 -5.34393,-6.80758 -21.99015,-27.87477 -26.65415,-31.47926 l -1.14415,62.15843 -46.51437,2.61325 c 0,0 1.55102,-21.49862 1.28342,-23.63128 0.39868,-44.16326 3.91306,-84.22231 1.91147,-126.52324 3.33143,-0.39595 40.65434,0.87381 40.65434,0.87381 z m 26.71695,69.12166 c -10.00793,-11.46612 -18.7461,-24.59522 -26.95452,-33.13678 -8.21115,-8.53337 -18.64234,-20.8815 -18.64234,-20.8815 0,0 -2.2965,38.67187 -1.8869,57.2159 0.25941,9.33892 -0.7209,17.93783 -0.58983,24.81094 0.12835,6.87312 -0.73455,30.4498 -0.86289,32.9866 0.39868,0 5.08179,0.14472 5.08179,0.14472 l 2.90544,-101.65495 c 8.00362,8.40502 13.16187,16.11373 20.90061,24.39041 7.73601,8.27396 28.0823,32.7108 35.66812,41.49539 9.59833,11.11386 32.59337,39.10604 32.59337,39.10604 l 1.16327,-115.0107 -5.5187,-0.57891 0.28946,103.68658 c -4.93434,-4.66946 -33.33612,-40.16281 -44.14688,-52.57374 z"
     id="path3071"
     style="fill:url(#linearGradient3287)"
     inkscape:connector-curvature="0" />
  <linearGradient
     id="SVGID_6_"
     gradientUnits="userSpaceOnUse"
     x1="341.88531"
     y1="13.2944"
     x2="341.88531"
     y2="86.471397">
    <stop
       offset="0"
       style="stop-color:#FF4D00"
       id="stop3074" />
    <stop
       offset="0.0992"
       style="stop-color:#FF6603"
       id="stop3076" />
    <stop
       offset="0.3129"
       style="stop-color:#FF9508"
       id="stop3078" />
    <stop
       offset="0.5164"
       style="stop-color:#FFBA0C"
       id="stop3080" />
    <stop
       offset="0.7044"
       style="stop-color:#FFD50F"
       id="stop3082" />
    <stop
       offset="0.8714"
       style="stop-color:#FFE511"
       id="stop3084" />
    <stop
       offset="1"
       style="stop-color:#FFEB12"
       id="stop3086" />
  </linearGradient>
  <path
     d="m 856.76392,45.7195 c 4.8606,0 10.82441,0 17.88321,0 h 15.89528 c 20.74769,0 36.7085,1.32984 47.89882,3.98133 16.47418,3.83387 30.85666,12.68127 42.38832,22.4489 7.61313,6.44713 12.77684,15.3628 17.86136,23.52479 7.89439,12.66489 13.65889,25.03486 13.06899,35.28583 -1.4909,25.87863 -37.68332,69.70329 -62.63626,79.15416 -9.37168,3.54715 -23.8552,3.80111 -36.06952,3.80111 -7.21172,0 -16.92202,-0.36591 -29.13634,-1.10593 -14.56817,-0.87928 -23.38007,-1.35988 -28.53012,-1.51006 0.14472,-7.20353 -0.3823,-34.7588 0.49971,-82.5839 0.73182,-33.84949 1.0322,-61.50853 0.87655,-82.99623 z m 118.18375,54.092 C 961.70661,80.38546 941.04084,70.04438 926.52455,66.46719 914.90552,63.60544 883.38257,64.2963 878.66942,65.61522 v 126.77446 c 8.37772,1.47184 18.11805,0.87109 25.92232,0.87109 29.87089,0 53.90086,-9.69391 68.61375,-29.40941 7.21173,-9.71575 15.68229,-20.30805 15.68229,-33.10947 0,-10.15539 -8.93751,-23.57121 -13.94011,-30.93039 z M 925.41863,72.43099 c 17.94328,2.76618 35.71454,16.83736 43.21025,27.16479 6.31879,8.70267 15.02965,22.29052 15.02965,30.82389 0,18.24912 -24.76452,43.48332 -39.32996,51.08553 -7.56944,3.95402 -21.29109,6.24779 -34.58677,7.83704 -4.86606,0.57891 -20.76407,1.30527 -24.75905,-0.79735 L 884.11166,70.19183 c 0,0 10.77252,-0.92296 14.37156,-0.84651 6.77754,0.142 20.23705,2.05347 26.93541,3.08567 z m 8.3586,26.2937 C 926.66655,92.17652 906.32846,94.1508 906.32846,94.1508 l -0.87655,66.63128 c -0.15292,5.15552 3.49254,4.59846 3.49254,4.59846 0,0 7.58855,0.19934 15.2481,-1.74217 7.13253,-1.81044 14.23503,-5.65796 17.64291,-8.49514 6.02934,-5.0026 14.81393,-12.41366 14.81393,-26.79341 0,-3.92945 -2.36476,-10.99098 -7.8425,-17.20601 -4.77323,-5.42039 -12.54747,-10.13354 -15.02966,-12.41912 z"
     id="path3088"
     style="fill:url(#linearGradient3285)"
     inkscape:connector-curvature="0" />
  <path
     d="M 0,12.03112 V 267 H 255.24741 V 12.03112 H 0 z"
     id="path3090"
     inkscape:connector-curvature="0" />
  <rect
     x="4.30901"
     y="16.334595"
     width="246.63213"
     height="246.36179"
     id="rect3092"
     style="fill:#ff0000" />
  <path
     d="m 208.38897,87.54529 c -11.3842,0 -21.57509,3.58538 -29.90366,10.43939 -5.91191,-6.19591 -14.06845,-9.52188 -23.67224,-9.52188 -7.69779,0 -14.67194,1.66572 -21.1573,5.07087 -5.50505,-4.61211 -13.19463,-5.3849 -20.91426,-5.3849 -14.011111,0 -22.011998,3.24132 -28.17787,9.65295 -0.297644,-0.56798 -0.608941,-1.08681 -0.931161,-1.55375 -3.680954,-5.3849 -10.493996,-8.11831 -20.25617,-8.11831 -15.409217,0 -20.971608,6.71474 -28.30894,17.77671 -7.634976,11.52893 -18.443001,36.13507 -22.006535,47.09328 -2.940941,9.04401 -4.008636,21.31021 1.8159,28.61478 3.533498,4.43462 10.234582,9.72394 22.058418,9.72394 l 2.291039,-0.041 c 3.874833,0 13.115447,-0.58983 23.109729,-5.46409 4.612116,3.76561 10.521303,5.37944 19.024635,5.37944 11.384197,0 22.159455,-3.13482 30.075685,-8.57979 6.66013,5.57058 14.70744,8.57979 23.20804,8.57979 10.58684,0 20.67123,-4.23801 28.69669,-11.85387 6.9332,8.27395 15.75329,12.46008 26.31009,12.46008 38.33053,0 53.81074,-45.55044 53.81074,-64.54504 0,-36.86142 -26.84257,-39.72864 -35.07283,-39.72864 z"
     id="path3094"
     inkscape:connector-curvature="0"
     style="fill:#ffff00" />
  <path
     d="m 208.38897,94.96728 c -12.21978,0 -22.40248,4.61484 -30.25318,13.71073 l -0.63079,0.73182 -0.46148,-0.85197 c -5.6607,-10.47488 -15.21534,-12.67307 -22.23045,-12.67307 -8.27942,0 -15.54849,2.28557 -22.23319,6.99872 l -0.61713,0.43691 -0.35499,-0.66628 c -2.3238,-4.36909 -6.28875,-7.07519 -18.86898,-7.07519 -17.031242,0 -22.607287,4.88245 -29.371177,16.56429 -6.676508,11.5262 -12.978913,26.90537 -16.009966,34.29459 l -0.838318,2.03709 -0.622594,-0.26215 c -1.234267,-0.52429 -2.190004,-0.72909 -3.932177,-0.83286 l -1.024004,-0.0601 0.475138,-0.90932 c 2.460341,-4.73499 14.505362,-29.89 15.982659,-33.67472 1.414491,-3.61542 2.57776,-8.68356 0.109227,-12.29624 -2.21458,-3.24132 -6.971421,-4.88519 -14.13399,-4.88519 -11.457925,0 -15.166186,3.96495 -22.123954,14.45348 -6.668316,10.06801 -17.378036,33.71569 -21.13818,45.2883 -2.411188,7.41925 -3.175778,17.00666 0.56252,21.69524 3.66457,4.59846 9.131388,6.93046 16.255727,6.93046 0.595288,0 1.116847,-0.0164 1.537372,-0.0273 0.300374,-0.008 0.551597,-0.0164 0.750936,-0.0164 3.855718,0 13.918267,-0.68267 24.032699,-7.02877 l 0.521559,-0.32495 0.365911,0.49152 c 2.670603,3.57173 5.993838,6.77482 17.216926,6.77482 14.352444,0 24.903786,-5.52417 29.988306,-10.69061 l 0.50518,-0.5161 0.4724,0.54614 c 4.21344,4.86334 11.49889,10.66057 22.31784,10.66057 15.73689,0 25.37892,-11.05106 28.795,-15.80517 l 0.60894,-0.84651 0.51337,0.90932 c 6.17952,11.0019 14.38521,16.34857 25.08947,16.34857 33.04393,0 46.39149,-40.313 46.39149,-57.12306 0.005,-29.15818 -19.33047,-32.30665 -27.64812,-32.30665 z"
     id="path3096"
     inkscape:connector-curvature="0" />
  <path
     d="m 51.634393,153.31095 c 1.955165,-3.75469 18.634147,-37.18365 19.914835,-40.47958 2.889058,-7.44109 0.275799,-10.40388 -7.640437,-10.51857 -9.677523,-0.12834 -11.949447,3.84207 -17.905057,12.83146 -5.794499,8.74636 -14.69924,28.54651 -18.049782,37.93731 -2.269193,6.34336 -4.986218,16.13558 -1.750365,20.2234 3.814758,4.83603 14.229564,4.03867 21.288367,2.74433 7.602208,-1.38991 19.251281,-7.25541 19.16663,-15.88435 -0.08192,-8.70813 -9.549182,-8.07189 -15.024191,-6.854 z m 50.329127,-24.12008 2.29104,-5.33029 c 13.78446,0 22.24137,-4.93706 22.17038,-13.83907 -0.0573,-7.30457 -7.15438,-7.40833 -15.80517,-7.42472 -11.586266,-0.0273 -15.439253,2.85902 -21.722543,12.55839 -5.466818,8.44326 -14.693779,28.20244 -19.439698,45.35656 -2.102622,7.60494 -0.587096,11.94945 2.861751,14.24049 4.292626,2.8481 13.298402,2.24462 20.040446,0.79463 7.684124,-1.64933 18.691494,-8.90474 17.440844,-17.15685 -1.02401,-6.77481 -8.58252,-6.66013 -18.126244,-4.6285 l 2.337461,-5.6962 c 12.004063,-0.67174 15.944433,-4.92341 17.257883,-10.39569 1.64114,-6.82669 -2.76344,-8.5716 -9.30615,-8.47875 z m 47.451,3.8366 c -5.06268,1.05677 -8.38319,5.70712 -8.87744,7.66501 -0.5434,2.18181 -0.65536,4.34178 1.19877,6.19864 1.63841,1.63841 5.30844,1.46911 5.30844,1.46911 -0.97486,3.26862 -3.92672,7.52575 -5.37125,8.54156 -1.95789,1.38991 -4.74865,1.82409 -6.63281,0.92297 -1.44999,-0.69086 -2.0562,-1.08954 -2.77437,-2.6078 -0.74002,-1.55103 -2.14632,-5.74808 2.67606,-16.68171 5.33848,-12.11056 10.68788,-17.43538 14.85762,-18.23547 6.63828,-1.26977 5.49413,5.84092 8.58525,8.13196 1.77494,1.32438 3.11298,1.43633 5.64431,1.01035 2.42485,-0.41779 6.81032,-3.43519 7.72509,-7.06427 1.07589,-4.30354 0.92024,-8.07734 -2.26373,-13.05537 -3.09932,-4.84149 -16.29942,-11.47977 -31.5011,-1.8514 -13.10453,8.2958 -27.55527,30.60544 -24.40134,50.56397 0.65809,4.13425 3.65365,14.62005 15.73417,17.90233 12.15697,3.30139 23.89343,-5.32756 29.84631,-14.61186 6.52086,-10.15813 9.26246,-18.40477 7.02876,-23.81971 -2.28557,-5.54874 -11.69822,-5.54328 -16.78274,-4.47831 z m 60.12953,-31.12154 c -22.56906,-1.4691 -36.23883,21.5587 -40.0099,39.48834 -3.72464,17.67841 1.76948,35.53977 20.77773,35.95211 16.97663,0.36318 32.35308,-14.93135 37.91274,-42.31732 4.97529,-24.51603 -8.91021,-32.48961 -18.68057,-33.12313 z"
     id="path3098"
     inkscape:connector-curvature="0"
     style="fill:#ffffff" />
  <path
     d="m 205.24869,120.17417 c -6.45532,-1.15508 -11.63269,7.51209 -15.02965,16.08642 -2.29104,5.76993 -7.62405,21.93008 1.85686,22.60456 6.75843,0.48333 11.42789,-6.33791 15.92531,-20.34083 2.11082,-6.5782 5.1446,-16.94658 -2.75252,-18.35015 z"
     id="path3100"
     inkscape:connector-curvature="0" />
  <path
     d="m 203.08053,127.55246 c -1.37353,-0.21026 -3.5253,4.19159 -6.19318,10.58957 -2.44941,5.87642 -4.72134,13.59605 -3.47615,14.07665 1.67391,0.66082 5.28113,-7.82613 7.05061,-12.61301 2.04528,-5.5187 3.95949,-11.84568 2.61872,-12.05321 z"
     id="path3102"
     inkscape:connector-curvature="0"
     style="fill:#ffff00" />
  <path
     d="m 241.91624,89.23831 c -3.34781,0 -6.05938,2.71157 -6.05938,6.04846 0,3.34508 2.71157,6.04845 6.05938,6.04845 3.34508,0 6.05391,-2.70337 6.05391,-6.04845 0,-3.33689 -2.71156,-6.04846 -6.05391,-6.04846 z m 0,10.84353 c -2.65149,0 -4.7978,-2.14905 -4.7978,-4.79507 0,-2.64603 2.14904,-4.78961 4.7978,-4.78961 2.64602,0 4.79507,2.14358 4.79507,4.78961 0,2.64602 -2.14905,4.79507 -4.79507,4.79507 z m 1.76402,-4.57935 v -0.0164 c 0.69086,-0.28126 0.9885,-0.83013 0.9885,-1.56741 0,-0.94482 -0.71544,-1.72306 -1.83502,-1.72306 h -3.37238 v 6.25052 h 1.3708 v -2.44122 h 1.37899 c 0.69086,0 0.94481,0.28672 1.04585,0.94481 0.0683,0.49971 0.0519,1.10046 0.22118,1.49641 h 1.37354 c -0.24303,-0.34953 -0.23757,-1.08681 -0.25942,-1.48003 -0.0464,-0.62805 -0.2403,-1.28888 -0.91204,-1.46364 z m -1.33531,-0.47787 h -1.51279 v -1.76129 h 1.51279 c 0.61168,0 0.94482,0.26215 0.94482,0.86563 0,0.63352 -0.33314,0.89566 -0.94482,0.89566 z"
     id="path3104"
     inkscape:connector-curvature="0" />
</svg>
