<?xml version="1.0" encoding="UTF-8" standalone="no"?>
<!-- Created with Inkscape (http://www.inkscape.org/) -->

<svg
   xmlns:dc="http://purl.org/dc/elements/1.1/"
   xmlns:cc="http://creativecommons.org/ns#"
   xmlns:rdf="http://www.w3.org/1999/02/22-rdf-syntax-ns#"
   xmlns:svg="http://www.w3.org/2000/svg"
   xmlns="http://www.w3.org/2000/svg"
   xmlns:sodipodi="http://sodipodi.sourceforge.net/DTD/sodipodi-0.dtd"
   xmlns:inkscape="http://www.inkscape.org/namespaces/inkscape"
   id="svg3143"
   version="1.1"
   inkscape:version="0.48.3.1 r9886"
   width="1920"
   height="1920"
   sodipodi:docname="Jungle Boy Face.svg">
  <metadata
     id="metadata3149">
    <rdf:RDF>
      <cc:Work
         rdf:about="">
        <dc:format>image/svg+xml</dc:format>
        <dc:type
           rdf:resource="http://purl.org/dc/dcmitype/StillImage" />
      </cc:Work>
    </rdf:RDF>
  </metadata>
  <defs
     id="defs3147" />
  <sodipodi:namedview
     pagecolor="#ffffff"
     bordercolor="#666666"
     borderopacity="1"
     objecttolerance="10"
     gridtolerance="10"
     guidetolerance="10"
     inkscape:pageopacity="0"
     inkscape:pageshadow="2"
     inkscape:window-width="1920"
     inkscape:window-height="1005"
     id="namedview3145"
     showgrid="false"
     inkscape:zoom="0.27677637"
     inkscape:cx="-97.455656"
     inkscape:cy="1341.9303"
     inkscape:window-x="-9"
     inkscape:window-y="-9"
     inkscape:window-maximized="1"
     inkscape:current-layer="svg3143" />
  <g
     id="g3201"
     transform="translate(0,1635)" />
  <g
     id="g3326"
     transform="matrix(5.3977344,0.77422961,-0.77422961,5.3977344,179.5275,196.35947)">
    <path
       style="fill:#363636"
       d="m 169.83032,283.57258 c 0,-2.2108 8.10257,-9.9752 13.03627,-12.49218 9.78621,-4.99256 18.84801,-6.11654 30.27849,-3.75562 4.20947,0.86946 6.36839,1.8871 7.4252,3.5 0.81953,1.25077 2.4633,2.27412 3.65281,2.27412 1.18951,0 2.93335,0.9 3.8752,2 1.6931,1.97739 1.61661,2 -6.76662,2 -14.0871,0 -36.24448,2.91152 -42.72122,5.61365 -6.64626,2.77285 -8.78013,2.98187 -8.78013,0.86003 z M 43.765324,263.3489 c -0.55852,-1.5125 -2.06321,-5 -3.34376,-7.75 -4.64526,-9.97579 -11.01317,-31.25901 -12.11755,-40.5 -0.36152,-3.025 -1.33892,-7.37792 -2.17201,-9.67315 -0.83308,-2.29524 -1.26509,-4.57703 -0.96002,-5.07066 0.30508,-0.49362 -0.41613,-2.4407 -1.60269,-4.32684 -1.18656,-1.88614 -2.90404,-5.03377 -3.81662,-6.99473 -0.91259,-1.96095 -2.9795,-5.11095 -4.59315,-7 -8.0460899,-9.41931 -15.80766993,-23.18912 -15.11656993,-26.81828 0.44088,-2.31516 4.60139003,-2.59462 6.95239003,-0.467 1.10005,0.99553 2.62277,3.30035 3.3838299,5.12182 1.69529,4.0574 6.67686,10.17053 16.15249,19.82151 4.10446,4.18041 8.67021,10.10253 10.61697,13.77098 2.97983,5.61518 3.62642,8.20345 5.06785,20.28636 0.90873,7.6175 2.09559,15.77642 2.63748,18.13094 1.4773,6.41899 3.29371,28.81847 2.57058,31.69966 -0.82834,3.30038 -2.39171,3.20185 -3.65922,-0.23061 z m 93.064996,-6.13574 c -3.025,-0.97801 -7.37418,-2.7434 -9.66484,-3.92311 -5.2853,-2.72195 -16.7622,-15.3092 -21.37773,-23.44593 -2.95825,-5.21511 -4.03038,-6.29312 -6.499996,-6.53564 -4.81882,-0.47321 -8.12415,-2.1827 -9.32771,-4.82422 -3.1778,-6.97451 0.52318,-20.204 7.28232,-26.03128 5.815066,-5.01338 8.928956,-6.43588 12.517286,-5.71821 2.68674,0.53734 3.07067,1.02873 3.07067,3.93011 0,1.82379 0.5625,3.67704 1.25,4.11834 3.49593,2.24397 11.56131,3.23092 26.73495,3.27155 14.73104,0.0394 18.45483,-0.32674 35,-3.44172 10.18328,-1.91722 22.56505,-4.22625 27.51505,-5.13118 4.95,-0.90493 11.7,-2.48049 15,-3.50125 3.3,-1.02075 7.25425,-1.86172 8.78723,-1.86882 3.51287,-0.0163 29.958,-8.90442 30.94746,-10.40138 0.40408,-0.61134 0.74158,-2.95179 0.75,-5.201 0.0127,-3.40435 0.44204,-4.28392 2.56236,-5.25 8.31107,-3.78678 16.90494,2.05273 21.44756,14.57356 3.49753,9.64021 1.2147,16.26592 -5.60428,16.26592 -2.94711,0 -3.35647,0.34728 -3.83091,3.25 -0.29217,1.7875 -0.47469,4.375 -0.4056,5.75 0.22587,4.49541 -2.12622,17.04562 -3.80616,20.30881 -3.39449,6.59361 -8.68718,11.83712 -15.28522,15.14318 -9.24477,4.63225 -29.91899,11.01573 -40.56244,12.52426 -4.95,0.70157 -11.025,1.94879 -13.5,2.77158 -2.475,0.82279 -7.2,1.63103 -10.5,1.79608 -3.3,0.16506 -11.85,1.00019 -19,1.85586 -16.90685,2.02331 -26.61464,1.94057 -33.5,-0.28551 z m 28.70211,-16.34403 c 1.75573,-1.58951 2.09427,-1.60116 4.17517,-0.14363 2.57988,1.80702 10.44188,1.25056 17.86761,-1.26464 3.1993,-1.08364 4.75193,-1.16644 6.3034,-0.33612 1.60543,0.8592 3.45822,0.63589 8.41793,-1.0146 3.49769,-1.16395 10.16143,-2.50854 14.80831,-2.98798 9.80441,-1.01155 16.59719,-2.65544 18.72547,-4.53167 0.825,-0.7273 3.3,-1.64411 5.5,-2.03737 2.2,-0.39325 4.59663,-1.18975 5.32584,-1.77 0.72922,-0.58025 3.14966,-1.98407 5.37876,-3.11961 2.34045,-1.19226 4.93404,-3.60239 6.13831,-5.70411 3.06898,-5.35606 1.4319,-6.8605 -7.46535,-6.8605 -8.08519,0 -8.81816,-1.23937 -3.34236,-5.65151 9.7181,-7.83036 12.4648,-10.68967 12.4648,-12.97585 0,-1.54017 -0.58011,-2.37264 -1.65337,-2.37264 -0.90936,0 -9.79686,2.24723 -19.75,4.99384 -30.27891,8.35558 -49.89967,12.13293 -77.59663,14.93873 -25.62514,2.59593 -31.22397,3.04704 -31.98436,2.57709 -1.20722,-0.7461 -7.01564,0.60172 -7.01564,1.62795 0,1.44932 10.73817,5.75877 16.13268,6.47438 11.20037,1.48578 10.26796,8.47142 -1.59088,11.91888 -4.77453,1.38799 -5.40712,1.85227 -4.59398,3.37163 0.51864,0.96909 1.65446,2.35246 2.52404,3.07415 4.67032,3.87602 27.48288,5.18617 31.23025,1.79358 z M 320.42892,221.3489 c -0.29489,-0.9625 -1.64564,-8.275 -3.00165,-16.25 -7.05581,-41.49684 -6.93005,-52.59613 0.8725,-77 1.49472,-4.675 3.13568,-10.22241 3.64658,-12.32759 0.5109,-2.10517 2.11597,-6.15517 3.56681,-9 l 2.6379,-5.17241 1.29453,3 c 2.25173,5.21828 1.26165,18.37984 -2.63288,35 -1.03104,4.4 -2.38257,10.24563 -3.0034,12.99028 -0.68092,3.01027 -1.06507,13.52475 -0.96818,26.5 0.25717,34.44205 0.0521,44.00972 -0.94342,44.00972 -0.51294,0 -1.17389,-0.7875 -1.46879,-1.75 z M 24.938614,104.18699 c -2.13114,-1.34952 -0.90333,-8.593162 2.72965,-16.103932 7.6864,-15.890784 18.02987,-26.915203 29.02248,-30.933142 4.65338,-1.700869 5.13235,-1.715152 6.49414,-0.19366 2.14263,2.393892 3.45074,11.64019 2.7342,19.326472 -0.3427,3.676106 -0.84036,6.89522 -1.10592,7.15359 -1.54682,1.50494 -10.61145,5.6659 -12.38178,5.68364 -1.15558,0.0116 -7.05106,3.61019 -13.10106,7.99691 -11.33179,8.216442 -12.03552,8.562162 -14.39171,7.070122 z m 47.94155,-24.528038 c -3.05027,-3.675343 -0.39321,-19.667615 4.06227,-24.450017 2.18987,-2.350549 15.78462,-3.896877 41.387886,-4.707649 16.43804,-0.520538 19.36535,-0.857911 21.70951,-2.502026 5.91458,-4.148295 8.3421,-1.574589 9.4163,9.983349 0.70769,7.614494 -0.7351,13.713667 -3.43759,14.531835 -6.84162,2.071273 -22.66502,4.079836 -51.688216,6.56111 -6.6,0.564253 -13.82579,1.288427 -16.05731,1.609277 -3.0341,0.436247 -4.39411,0.177534 -5.39285,-1.025879 z M 182.70153,66.590435 c -4.77888,-2.596678 -8.73725,-18.136286 -5.94759,-23.34882 1.08091,-2.019705 1.66626,-2.137979 7.58159,-1.531936 4.43092,0.453961 8.50754,0.164457 13.20252,-0.937584 3.73575,-0.876884 10.84227,-2.088353 15.79227,-2.692155 4.95,-0.603801 15.75,-2.639907 24,-4.52468 23.71936,-5.418861 23.81528,-5.419782 31.40393,-0.301329 6.50975,4.39075 18.71651,17.276516 21.54186,22.740134 1.95769,3.785755 1.99037,7.000235 0.0786,7.733839 -0.81158,0.311429 -6.71408,-1.553848 -13.11669,-4.145061 -10.57051,-4.27802 -12.57301,-4.754632 -21.77441,-5.182508 -6.72505,-0.312722 -12.35312,0.0102 -16.73313,0.960085 -5.5438,1.202281 -6.89443,1.215864 -8.44113,0.08489 -3.15859,-2.309622 -7.1836,-1.688379 -8.65449,1.335787 -0.99251,2.040605 -2.50059,2.967682 -6.30457,3.875689 -2.75,0.656421 -7.025,1.949413 -9.5,2.873315 -4.44285,1.658488 -17.01614,4.606473 -19.31538,4.528763 -0.65154,-0.02202 -2.36757,-0.682813 -3.81341,-1.468427 z"
       id="path3165"
       inkscape:connector-curvature="0"
       sodipodi:nodetypes="ssssssssssssscssssssssssssssssssssssssssscssssssssssssssssssssssssssssssssssssssssscsssssssssssscssssssssssscsssssssssssssssscc" />
    <path
       style="fill:#823113;fill-opacity:1"
       d="m 26.203703,104.79405 c -0.359414,-0.0854 -1.073669,-0.457 -1.407897,-0.7325 -0.602248,-0.49642 -0.883069,-1.49633 -0.871185,-3.10199 0.02553,-3.449191 1.444595,-8.147888 4.092601,-13.551085 5.792114,-11.818676 13.263113,-21.071675 21.397311,-26.50105 2.651927,-1.770095 5.184702,-3.019588 8.488411,-4.187585 1.528616,-0.540428 2.425033,-0.781769 3.122827,-0.840755 0.541008,-0.04573 0.636042,-0.03062 1.035163,0.164657 1.938406,0.948373 3.251821,4.740819 3.845828,11.10471 0.171305,1.835275 0.234715,5.760676 0.121873,7.544627 -0.200944,3.176815 -0.850835,8.025224 -1.151792,8.592773 -0.225986,0.426166 -1.709713,1.341022 -4.177193,2.575628 -3.370898,1.686632 -6.322398,2.875501 -7.948655,3.201731 -0.863327,0.173185 -1.453215,0.398247 -2.458251,0.937905 -2.830911,1.520068 -6.699002,4.05191 -11.825073,7.740049 -4.374977,3.147735 -5.821959,4.161265 -7.398973,5.182555 -2.549274,1.65093 -3.786452,2.12656 -4.864995,1.87033 l 0,0 z"
       id="path3183"
       inkscape:connector-curvature="0" />
    <path
       style="fill:#823113;fill-opacity:1"
       d="m 74.603211,80.728061 c -1.160132,-0.287465 -1.991346,-1.119381 -2.433223,-2.435277 -0.366269,-1.090736 -0.496377,-2.090422 -0.539651,-4.146409 -0.05123,-2.433872 0.104158,-4.267808 0.586159,-6.918086 0.923208,-5.076261 2.676406,-9.626336 4.558387,-11.830383 0.373722,-0.437678 1.246039,-0.944038 2.219381,-1.288299 2.479784,-0.877076 7.704855,-1.701241 14.490475,-2.285624 6.579721,-0.566651 13.164321,-0.900944 28.382171,-1.44093 9.14527,-0.324509 13.3308,-0.656449 15.6077,-1.237791 0.94358,-0.24092 1.66185,-0.571958 2.72893,-1.257723 0.54245,-0.348607 1.23368,-0.765125 1.53607,-0.925596 l 0.5498,-0.291766 1.91996,0 1.91995,0 0.388,0.413273 c 1.44063,1.534463 2.26128,4.503644 2.90884,10.524441 0.20466,1.902917 0.20355,6.309767 -0.002,7.824058 -0.45123,3.32451 -1.23408,5.399776 -2.449,6.492095 -0.48263,0.433923 -0.89744,0.599777 -2.54656,1.018196 -7.009,1.778342 -21.4654,3.601195 -45.235512,5.70389 -11.244076,0.994646 -17.393045,1.591425 -20.560431,1.995463 -1.706419,0.217674 -3.357008,0.253094 -4.029466,0.08647 z"
       id="path3185"
       inkscape:connector-curvature="0" />
    <path
       style="fill:#823113;fill-opacity:1"
       d="m 186.02679,67.953464 c -0.81339,-0.177277 -2.93637,-1.124602 -3.72301,-1.661294 -3.41443,-2.329508 -6.62085,-11.709953 -6.37641,-18.654241 0.11917,-3.385299 0.89313,-5.37542 2.32518,-5.97887 0.64417,-0.271445 3.12473,-0.229784 7.29521,0.122523 3.77487,0.318887 6.75695,0.04088 12.93365,-1.205745 5.40815,-1.091512 7.65949,-1.475182 14.05137,-2.394614 8.54497,-1.22914 15.42353,-2.540284 27.62372,-5.265446 13.65755,-3.050693 15.25524,-3.33588 18.76177,-3.34896 2.97176,-0.01109 3.64112,0.127052 5.7378,1.184118 3.86091,1.946526 8.08194,5.33662 13.90829,11.170365 9.13617,9.147757 13.08533,14.866479 13.12891,19.011759 0.0143,1.363413 -0.2386,2.012814 -0.99329,2.550201 -0.56182,0.400049 -0.84378,0.370971 -3.35962,-0.346472 -2.67967,-0.764161 -5.26438,-1.687694 -11.7132,-4.185197 -5.98791,-2.319001 -7.53383,-2.846086 -10.16223,-3.46482 -3.12322,-0.735216 -8.1281,-1.124068 -14.5304,-1.128932 -5.85021,-0.0045 -8.6359,0.271496 -14.29088,1.415613 -1.24628,0.252147 -2.65021,0.425811 -3.5133,0.434588 l -1.43753,0.01461 -1.48482,-0.84372 c -0.81665,-0.464045 -1.9291,-0.957538 -2.47211,-1.096652 -2.55121,-0.653588 -5.01473,0.388099 -6.15621,2.603116 -1.01219,1.964143 -2.29116,2.675733 -7.29048,4.056272 -1.93206,0.533531 -5.45522,1.606249 -7.82925,2.383817 -4.68369,1.53406 -10.13284,2.959956 -15.1639,3.967989 -3.43429,0.688102 -4.51767,0.823796 -5.26926,0.659984 l 0,7e-6 z"
       id="path3187"
       inkscape:connector-curvature="0" />
    <path
       style="fill:#77360b;fill-opacity:1"
       d="m 44.509345,264.75794 c -1.414928,-2.21381 -7.066343,-16.34345 -9.438283,-23.59757 -3.209037,-9.81421 -5.40607,-18.22248 -6.844451,-26.19443 -0.627454,-3.47753 -1.550196,-7.74477 -2.05054,-9.48275 -0.500344,-1.73798 -0.909716,-3.85718 -0.909716,-4.70934 0,-2.14279 -6.137121,-13.43558 -10.037438,-18.46969 -7.3943819,-9.54388 -13.8500605,-20.33724 -14.87501553,-24.86981 -0.52513021,-2.32224 -0.50288287,-2.47125 0.48884441,-3.27431 2.04135862,-1.65299 5.44905952,-0.65733 7.31945712,2.13859 0.6483632,0.96919 2.170821,3.45915 3.383238,5.53323 2.274789,3.89148 6.570686,9.06101 14.249578,17.14743 8.31885,8.76034 12.570198,15.38085 14.353004,22.35155 0.488725,1.9109 1.412593,7.488 2.053041,12.39357 0.640447,4.90556 1.767855,12.70523 2.505349,17.3326 2.266609,14.22167 3.409354,31.62532 2.222204,33.84353 -0.62275,1.16362 -1.622067,1.10471 -2.419272,-0.1426 z"
       id="path3189"
       inkscape:connector-curvature="0" />
    <path
       style="fill:#77360b;fill-opacity:1"
       d="m 320.99624,222.30236 c -0.81772,-0.98529 -5.19374,-25.88362 -7.04419,-40.07946 -2.38651,-18.30823 -2.04051,-30.28137 1.24638,-43.13048 2.82508,-11.04377 8.00972,-27.33769 10.16718,-31.95269 1.24831,-2.67026 2.45013,-4.85501 2.67069,-4.85501 0.22057,0 0.62403,0.48943 0.89659,1.08762 1.08426,2.3797 1.49707,5.02144 1.50785,9.64934 0.0186,8.00816 -1.44917,17.36187 -5.26048,33.5226 -1.5233,6.45912 -1.68072,7.78573 -2.03652,17.16187 -0.21208,5.5889 -0.39618,20.5519 -0.40909,33.25112 -0.0129,12.69922 -0.15051,23.72459 -0.30576,24.50083 -0.30342,1.51709 -0.68677,1.74299 -1.43265,0.84426 z"
       id="path3191"
       inkscape:connector-curvature="0" />
    <path
       style="fill:#77360b;fill-opacity:1"
       d="m 170.62538,284.89501 c -1.8957,-0.76493 0.73419,-4.72847 6.31506,-9.51751 8.811,-7.56087 20.71071,-10.56989 33.55917,-8.48594 5.64662,0.91585 7.6831,1.73107 10.19594,4.08153 1.1919,1.11489 2.59236,2.02707 3.11213,2.02707 1.8856,0 5.38819,2.56263 4.80105,3.51264 -0.13874,0.22448 -4.31564,0.54393 -9.28201,0.70987 -17.29667,0.57793 -32.22054,2.70204 -41.9014,5.96382 -3.2772,1.1042 -6.02084,1.99158 -6.09698,1.97197 -0.0761,-0.0196 -0.39246,-0.13816 -0.70296,-0.26345 z"
       id="path3193"
       inkscape:connector-curvature="0" />
    <path
       style="fill:#000000;fill-opacity:1"
       d="m 142.86413,258.41442 c -4.52249,-0.62832 -10.01963,-2.44006 -14.99052,-4.94058 -5.77033,-2.90266 -14.78244,-12.60758 -22.28064,-23.99349 -1.97432,-2.99797 -4.09622,-5.58997 -4.71534,-5.76 -0.61911,-0.17003 -2.600425,-0.64212 -4.402917,-1.0491 -4.218204,-0.95242 -6.423053,-3.20668 -7.199053,-7.36041 -2.25987,-12.0965 8.804384,-28.41699 19.26491,-28.41699 3.30636,0 4.30472,0.83222 4.30472,3.58835 0,1.1305 0.17857,2.5208 0.39682,3.08954 0.56861,1.48177 3.96928,2.7312 9.54421,3.5066 7.50227,1.04347 32.45599,0.85007 40.28355,-0.31221 11.33573,-1.68319 43.53838,-7.85355 52.92525,-10.14101 4.91798,-1.19845 10.66627,-2.51732 12.77398,-2.93081 4.67819,-0.91778 23.6657,-7.16089 27.08655,-8.90607 2.44303,-1.24635 2.48568,-1.33093 2.93694,-5.82437 l 0.45791,-4.55965 2.88845,-1.2777 c 6.99441,-3.09396 14.5171,1.48154 19.32383,11.75329 4.84627,10.35623 3.26007,19.03973 -3.47795,19.03973 -3.10501,0 -4.27777,1.23175 -4.5978,4.82908 -1.9081,21.44808 -4.10197,27.70484 -12.18026,34.73715 -7.54255,6.56594 -26.50068,13.40107 -49.68254,17.91245 -5.62055,1.0938 -11.79996,2.38808 -13.73202,2.87618 -4.04553,1.02202 -33.34694,3.98289 -43.75085,4.42097 -3.86413,0.16271 -8.89388,0.0363 -11.17723,-0.28095 z m 21.86893,-17.3886 c 2.91782,-1.2257 3.11254,-1.23126 5.3833,-0.15371 2.89676,1.3746 9.09763,0.99843 15.85993,-0.96212 3.26221,-0.94579 5.42056,-1.19216 7.98373,-0.91135 2.63807,0.28902 5.10333,-0.0179 9.89983,-1.23249 3.51284,-0.88955 9.69225,-2.08733 13.73202,-2.66174 9.78218,-1.3909 15.13474,-2.64218 17.51564,-4.09467 1.08057,-0.65921 3.9797,-1.79311 6.44252,-2.51979 7.99281,-2.35833 16.13989,-8.24067 17.61849,-12.72087 1.13212,-3.43037 -0.0611,-4.14237 -7.71592,-4.6041 -8.74449,-0.52745 -9.11389,-1.07101 -3.8419,-5.65329 8.61061,-7.48413 12.13528,-11.28973 12.13528,-13.1025 0,-0.94778 -0.40633,-1.87916 -0.90295,-2.06973 -0.49662,-0.19057 -10.34056,2.10556 -21.87543,5.10252 -23.5435,6.11701 -34.46435,8.56865 -48.43652,10.8736 -15.99991,2.63946 -48.50935,6.10003 -57.80222,6.15293 -2.98592,0.017 -6.24629,0.38012 -7.24526,0.80694 -1.74242,0.74447 -1.76841,0.81786 -0.6387,1.8038 1.73285,1.51233 8.87358,4.18514 14.97947,5.6069 8.50045,1.97932 10.2163,5.29956 4.69327,9.08167 -1.34764,0.92286 -4.04845,2.17662 -6.0018,2.78615 -4.92454,1.53665 -5.33251,1.94945 -4.16261,4.21181 1.64506,3.18119 6.48205,4.89904 15.93984,5.66101 7.52916,0.60659 12.7124,0.1649 16.43999,-1.40097 l 0,0 z"
       id="path3195"
       inkscape:connector-curvature="0" />
    <path
       inkscape:connector-curvature="0"
       id="path3213"
       d="M 39.514429,253.51425 C 33.697787,238.66761 31.54082,231.36523 27.544274,212.98947 24.218693,197.69873 21.121673,190.87721 11.000982,176.55107 1.7629426,163.47435 -1.5780008,155.42505 1.4545115,153.55085 c 2.5163469,-1.55518 5.7863624,0.70595 9.4706455,6.54873 2.053585,3.25671 8.302969,11.1044 13.887522,17.43932 5.584552,6.33492 11.472283,14.4525 13.083845,18.03907 3.256428,7.24727 7.999687,36.84113 9.183569,57.29759 0.963661,16.65122 -1.220027,16.83557 -7.565664,0.63869 z"
       style="fill:#806600;fill-opacity:1" />
    <path
       inkscape:connector-curvature="0"
       id="path3215"
       d="m 170.63294,284.38552 c -1.86514,-3.01787 6.41774,-10.74832 16.34399,-15.25392 8.54445,-3.87839 24.26902,-3.50515 32.39148,0.76885 11.08581,5.8333 11.05613,6.57773 -0.29782,7.4694 -19.69101,1.54641 -32.45357,3.37508 -40.0451,5.73784 -4.23554,1.31824 -8.01219,1.89327 -8.39255,1.27783 z"
       style="fill:#806600;fill-opacity:1" />
    <path
       inkscape:connector-curvature="0"
       id="path3217"
       d="m 320.31977,221.1094 c -1.28443,-4.1069 -5.78281,-32.42416 -7.28129,-45.83573 -1.82761,-16.35727 -0.75741,-26.87199 4.64567,-45.64377 5.6369,-19.58411 9.3934,-28.42042 11.27881,-26.5308 2.43649,2.44193 1.31211,21.45545 -2.2486,38.02453 -3.12041,14.52023 -3.3686,17.98383 -3.38673,47.2637 -0.018,29.06988 -0.9566,39.28084 -3.00786,32.72207 l 0,0 z"
       style="fill:#806600;fill-opacity:1" />
    <path
       inkscape:connector-curvature="0"
       id="path3219"
       d="m 320.52973,221.72186 c -0.88917,-2.75676 -2.57754,-12.20048 -4.96423,-27.76689 -2.37472,-15.48831 -3.11192,-22.43229 -3.23617,-30.48308 -0.18851,-12.21368 0.98648,-19.10423 6.34266,-37.19555 3.71799,-12.55809 5.05037,-16.21201 7.94555,-21.78982 l 1.53028,-2.94821 0.28548,0.6722 c 0.15702,0.36971 0.41889,0.81539 0.58193,0.99039 0.39353,0.4224 0.74514,1.58834 1.1805,3.91448 0.31336,1.67433 0.35802,2.42984 0.35393,5.9878 -0.008,7.09033 -0.8227,12.9012 -4.12964,29.45997 -2.78503,13.94543 -2.87419,15.25919 -3.12092,45.9863 -0.0853,10.62635 -0.22588,21.11698 -0.31236,23.3125 -0.18272,4.63938 -0.44567,9.13974 -0.58487,10.01028 -0.0969,0.60621 -0.0996,0.60809 -0.86237,0.60809 l -0.76514,0 -0.24463,-0.75846 z"
       style="fill:#806600;fill-opacity:1" />
    <path
       inkscape:connector-curvature="0"
       id="path3221"
       d="m 320.61381,222.04121 c -0.76799,-1.94215 -2.64828,-12.24105 -4.80281,-26.3064 -1.69909,-11.09217 -2.52796,-17.40733 -3.15408,-24.03103 -0.40781,-4.31422 -0.40834,-15.4625 -9e-4,-19.16096 0.84494,-7.67003 2.64175,-15.30187 6.91712,-29.38014 3.24368,-10.68102 4.61961,-14.24286 7.76102,-20.09072 l 0.79968,-1.48863 0.54053,0.92977 c 0.84575,1.45477 0.95369,1.75428 1.42846,3.96358 0.42924,1.99745 0.44588,2.24447 0.44111,6.54666 -0.008,7.39417 -0.65753,12.07593 -4.12888,29.76968 -2.79666,14.25478 -2.78425,14.05762 -3.1203,49.58863 -0.13429,14.1985 -0.42681,25.68947 -0.71337,28.0229 -0.0485,0.39519 -0.12588,1.02391 -0.17188,1.39715 l -0.0836,0.67862 -0.76922,0 c -0.6906,0 -0.78696,-0.0449 -0.94285,-0.43911 z"
       style="fill:#806600;fill-opacity:1" />
    <path
       inkscape:connector-curvature="0"
       id="path3223"
       d="m 170.51656,284.92822 c -0.46233,-0.3087 -0.79373,-1.19593 -0.63449,-1.69867 0.36058,-1.13842 2.24967,-3.60235 4.23285,-5.52089 5.66873,-5.48398 12.56069,-9.20744 19.7364,-10.66282 5.46081,-1.10757 11.07626,-1.15616 16.9957,-0.14707 4.24249,0.72322 6.64391,1.49422 8.41171,2.70065 0.77616,0.52969 2.91035,1.80888 4.74264,2.84265 4.05365,2.28704 5.74866,3.93401 4.53005,4.40163 -0.20939,0.0804 -2.57197,0.24059 -5.25018,0.35607 -7.72521,0.33313 -23.03853,1.87703 -31.4446,3.17028 -3.38812,0.52125 -7.90293,1.41959 -10.05157,2.00001 -10.64865,2.8766 -10.75534,2.90082 -11.26851,2.55816 z"
       style="fill:#806600;fill-opacity:1" />
    <path
       inkscape:connector-curvature="0"
       id="path3225"
       d="m 44.982559,265.44026 c -0.678234,-0.77022 -1.765379,-3.00458 -3.908708,-8.0334 C 35.68974,244.77432 31.730409,232.24495 28.632208,218.03508 25.743066,204.78406 23.967712,198.92895 20.952814,192.70846 19.026672,188.73434 15.193323,182.50017 12.003679,178.15449 4.7897417,168.32597 -0.23915685,158.74974 0.08718689,155.46264 0.3166121,153.15176 3.3373157,152.4587 6.0013233,154.10573 c 1.155058,0.71412 2.151609,1.87978 4.3871497,5.13162 4.336566,6.30802 9.489619,12.71674 18.1826,22.61323 4.704779,5.35614 7.98502,10.04338 9.743824,13.92326 1.904657,4.20164 2.322308,6.26694 5.450628,26.95345 2.404487,15.90004 3.547693,27.16557 3.630536,35.77646 0.04841,5.03223 -0.01594,5.86708 -0.510831,6.62649 -0.655832,1.00639 -1.20997,1.09668 -1.902671,0.31002 l 0,0 z"
       style="fill:#806600;fill-opacity:1" />
    <path
       inkscape:connector-curvature="0"
       id="path3227"
       d="m 44.964328,265.4352 c -1.499809,-1.65727 -7.084842,-15.21548 -10.225885,-24.82434 -2.693861,-8.24087 -3.9301,-12.78704 -6.283864,-23.10837 C 23.810987,197.14018 21.650127,192.04643 11.501522,177.53937 3.8216495,166.56127 -0.18634433,158.8685 0.0876663,155.63213 c 0.20779759,-2.45432 3.0335218,-3.23144 5.8175303,-1.5999 1.1129598,0.65224 2.1565777,1.8516 4.5516084,5.23086 4.965944,7.00668 7.316796,9.93752 17.43939,21.74188 6.949438,8.10402 10.01575,12.81288 11.676156,17.9308 0.972428,2.99735 1.154269,3.95427 3.080785,16.21221 3.080303,19.59922 4.471596,31.88867 4.816877,42.54806 0.172684,5.33095 0.134337,6.01704 -0.392618,7.02475 -0.682003,1.30422 -1.369076,1.53651 -2.113067,0.71441 z"
       style="fill:#806600;fill-opacity:1" />
  </g>
  <path
     sodipodi:type="arc"
     style="fill:#000000;fill-opacity:1"
     id="path3489"
     sodipodi:cx="72.260506"
     sodipodi:cy="105.252"
     sodipodi:rx="28.000944"
     sodipodi:ry="28.000944"
     d="m 100.26145,105.252 a 28.000944,28.000944 0 1 1 -56.001888,0 28.000944,28.000944 0 1 1 56.001888,0 z"
     transform="matrix(5.4526382,0.06086968,-0.06086968,5.4526382,302.25343,391.96979)" />
  <path
     d="m 100.26145,105.252 a 28.000944,28.000944 0 1 1 -56.001888,0 28.000944,28.000944 0 1 1 56.001888,0 z"
     sodipodi:ry="28.000944"
     sodipodi:rx="28.000944"
     sodipodi:cy="105.252"
     sodipodi:cx="72.260506"
     id="path3491"
     style="fill:#ffffff;fill-opacity:1"
     sodipodi:type="arc"
     transform="matrix(1.934807,0.02159892,-0.02159892,1.934807,562.46326,708.53369)" />
  <path
     transform="matrix(5.4526382,0.06086968,-0.06086968,5.4526382,1000.1911,399.761)"
     d="m 100.26145,105.252 a 28.000944,28.000944 0 1 1 -56.001888,0 28.000944,28.000944 0 1 1 56.001888,0 z"
     sodipodi:ry="28.000944"
     sodipodi:rx="28.000944"
     sodipodi:cy="105.252"
     sodipodi:cx="72.260506"
     id="path3497"
     style="fill:#000000;fill-opacity:1"
     sodipodi:type="arc" />
  <path
     transform="matrix(1.934807,0.02159892,-0.02159892,1.934807,1260.4009,716.32491)"
     sodipodi:type="arc"
     style="fill:#ffffff;fill-opacity:1"
     id="path3499"
     sodipodi:cx="72.260506"
     sodipodi:cy="105.252"
     sodipodi:rx="28.000944"
     sodipodi:ry="28.000944"
     d="m 100.26145,105.252 a 28.000944,28.000944 0 1 1 -56.001888,0 28.000944,28.000944 0 1 1 56.001888,0 z" />
</svg>
