<?xml version="1.0" encoding="UTF-8" standalone="no"?>
<!-- Created with Inkscape (http://www.inkscape.org/) -->

<svg
   xmlns:dc="http://purl.org/dc/elements/1.1/"
   xmlns:cc="http://creativecommons.org/ns#"
   xmlns:rdf="http://www.w3.org/1999/02/22-rdf-syntax-ns#"
   xmlns:svg="http://www.w3.org/2000/svg"
   xmlns="http://www.w3.org/2000/svg"
   xmlns:sodipodi="http://sodipodi.sourceforge.net/DTD/sodipodi-0.dtd"
   xmlns:inkscape="http://www.inkscape.org/namespaces/inkscape"
   width="1024"
   height="1024"
   id="svg2"
   version="1.1"
   inkscape:version="0.48.4 r9939"
   sodipodi:docname="Lex Luther Torso.svg">
  <defs
     id="defs4" />
  <sodipodi:namedview
     id="base"
     pagecolor="#ffffff"
     bordercolor="#666666"
     borderopacity="1.0"
     inkscape:pageopacity="0.0"
     inkscape:pageshadow="2"
     inkscape:zoom="0.175"
     inkscape:cx="1657.002"
     inkscape:cy="-74.558474"
     inkscape:document-units="px"
     inkscape:current-layer="layer1"
     showgrid="false"
     inkscape:window-width="1366"
     inkscape:window-height="705"
     inkscape:window-x="-8"
     inkscape:window-y="-8"
     inkscape:window-maximized="1" />
  <metadata
     id="metadata7">
    <rdf:RDF>
      <cc:Work
         rdf:about="">
        <dc:format>image/svg+xml</dc:format>
        <dc:type
           rdf:resource="http://purl.org/dc/dcmitype/StillImage" />
        <dc:title></dc:title>
      </cc:Work>
    </rdf:RDF>
  </metadata>
  <g
     inkscape:label="Layer 1"
     inkscape:groupmode="layer"
     id="layer1"
     transform="translate(0,-28.362183)">
    <g
       id="g3164"
       transform="matrix(3.8752636,0,0,3.8752636,-1661.1647,-1355.4074)">
      <path
         inkscape:connector-curvature="0"
         id="path3007"
         d="m 677.85714,608.43361 c 0,-3.21429 -15.35714,-55 -16.07142,-63.21429 -0.71429,-8.21428 -3.57143,-62.5 -2.5,-65.71428 1.07142,-3.21429 5.35714,-2.85714 5.35714,7.85714 0,10.71429 2.14286,51.42857 3.92857,55.35714 1.78571,3.92858 13.21429,60.35715 13.92857,64.28572 0.71429,3.92857 -1.42857,9.28571 -4.64286,1.42857 z"
         style="fill:#7e9392;fill-opacity:1;stroke:none" />
      <path
         sodipodi:nodetypes="ccssc"
         inkscape:connector-curvature="0"
         id="path3011"
         d="m 610.00587,505.36458 43.94164,0 c 0,0 2.14657,3.91434 -3.91435,3.91434 -6.06091,0 -30.18359,0 -37.50191,0 -3.69562,0 -2.52538,-3.91434 -2.52538,-3.91434 z"
         style="fill:#546463;fill-opacity:1;stroke:none" />
      <path
         inkscape:connector-curvature="0"
         id="path3013"
         d="m 616.60714,500.75504 31.96429,0 c 0,0 7.5,0.53571 1.96429,-4.10714 -5.53572,-4.64286 -11.07143,-10.35715 -13.92858,-9.46429 -2.85714,0.89286 -22.5,9.46429 -22.14285,11.60714 0.35714,2.14286 2.14285,1.96429 2.14285,1.96429 z"
         style="fill:#ffffff;stroke:none" />
      <path
         sodipodi:nodetypes="cccsssssc"
         inkscape:connector-curvature="0"
         id="path3015"
         d="m 570,504.86218 c 0,0 50,-14.64286 77.14286,-50.35714 0,0 3.92857,-3.57143 -3.57143,-9.28572 0,0 6.46173,0.29372 7.47189,-6.52481 1.01015,-6.81853 -2.02031,-32.57742 -8.08122,-34.59772 -6.06092,-2.02031 5.05076,29.29442 1.76776,32.57742 -3.28299,3.28299 -21.97081,5.55583 -20.20304,8.33375 1.76776,2.77792 15.65736,4.79823 14.89975,7.57615 -0.75762,2.77792 -9.34392,19.69797 -65.65992,45.20432 z"
         style="fill:#7e9392;fill-opacity:1;stroke:none" />
      <path
         sodipodi:nodetypes="cscscccsscc"
         inkscape:connector-curvature="0"
         id="path3017"
         d="m 622.25397,402.32902 c 0,1.26269 3.78807,17.17259 -14.89975,48.23478 -18.34503,30.49241 -16.03617,34.21891 -50.12882,69.82679 0,0 -2.27284,1.89405 0.88388,5.80839 1.91554,2.37527 0.25254,84.97908 0.25254,84.97908 l -3.53553,0 0,-84.60028 c 0,0 -4.79823,-3.28299 -2.02031,-6.06091 2.77792,-2.77792 30.59267,-37.95509 42.80521,-59.72528 11.61676,-20.70812 19.1929,-26.01143 23.99113,-57.83123 z"
         style="fill:#7e9392;fill-opacity:1;stroke:none" />
      <path
         inkscape:connector-curvature="0"
         id="path3019"
         d="m 546.9976,517.48641 c 0,0 -9.59645,-8.83884 -7.3236,-10.85914 2.27284,-2.02031 10.6066,3.283 11.36421,5.3033 0.75762,2.02031 -0.50507,5.05076 -4.04061,5.55584 z"
         style="fill:#546463;fill-opacity:1;stroke:none" />
      <path
         sodipodi:nodetypes="csssscc"
         inkscape:connector-curvature="0"
         id="path3021"
         d="m 502.55089,402.8341 c 0,0 0.25254,25.75889 19.95051,55.30585 19.69798,29.54696 33.0825,44.95179 33.33504,46.71955 0.25254,1.76777 -1.51523,5.55584 -3.283,4.54569 -1.76776,-1.01015 -29.21839,-38.6913 -35.05947,-48.53065 -6.61457,-11.14232 -16.20577,-24.95795 -21.25653,-57.53537 z"
         style="fill:#7e9392;fill-opacity:1;stroke:none" />
      <path
         sodipodi:nodetypes="cccsssssc"
         inkscape:connector-curvature="0"
         id="path3015-1"
         d="m 552.12495,504.86218 c 0,0 -50,-14.64286 -77.14286,-50.35714 0,0 -3.92857,-3.57143 3.57143,-9.28572 0,0 -6.46173,0.29372 -7.47189,-6.52481 -1.01015,-6.81853 2.02031,-32.57742 8.08122,-34.59772 6.06092,-2.02031 -5.05076,29.29442 -1.76776,32.57742 3.28299,3.28299 21.97081,5.55583 20.20304,8.33375 -1.76776,2.77792 -15.65736,4.79823 -14.89975,7.57615 0.75762,2.77792 9.34392,19.69797 65.65992,45.20432 z"
         style="fill:#7e9392;fill-opacity:1;stroke:none" />
      <path
         inkscape:connector-curvature="0"
         id="path3043"
         d="m 550.2806,576.07526 c 0,0 2.27284,6.31345 -0.25254,6.81853 -2.52538,0.50507 -15.15229,-2.02031 -14.64721,-4.04061 0.50508,-2.02031 12.62691,-3.78808 14.89975,-2.77792 z"
         style="fill:#546463;fill-opacity:1;stroke:none" />
      <path
         inkscape:connector-curvature="0"
         id="path3045"
         d="m 549.77552,586.42932 c 0,0 -22.47589,9.34391 -20.45559,11.86929 2.02031,2.52538 18.18275,-1.51523 20.45559,-3.78807 2.27285,-2.27284 1.76777,-8.08122 0,-8.08122 z"
         style="fill:#546463;fill-opacity:1;stroke:none" />
      <path
         sodipodi:nodetypes="csssc"
         inkscape:connector-curvature="0"
         id="path3047"
         d="m 562.40243,534.659 c 0,0 10.74413,3.96844 15.25689,-9.09137 3.41029,-9.86926 8.98677,-3.78807 6.71393,1.26269 -2.27285,5.05076 -7.07107,12.62691 -17.42513,12.62691 -6.60407,0 -6.56599,-4.54569 -4.54569,-4.79823 z"
         style="fill:#7e9392;fill-opacity:1;stroke:none" />
      <path
         d="m 573.57143,523.9693 c 0,3.35316 -2.71827,6.07143 -6.07143,6.07143 -3.35316,0 -6.07143,-2.71827 -6.07143,-6.07143 0,-3.35316 2.71827,-6.07143 6.07143,-6.07143 3.35316,0 6.07143,2.71827 6.07143,6.07143 z"
         sodipodi:ry="6.0714288"
         sodipodi:rx="6.0714288"
         sodipodi:cy="523.9693"
         sodipodi:cx="567.5"
         id="path3049"
         style="fill:#546463;fill-opacity:1;stroke:#546463;stroke-opacity:1"
         sodipodi:type="arc" />
      <path
         sodipodi:nodetypes="csssc"
         inkscape:connector-curvature="0"
         id="path3047-7"
         d="m 562.40285,568.70077 c 0,0 10.74413,3.96844 15.25689,-9.09137 3.41029,-9.86926 8.98677,-3.78807 6.71393,1.26269 -2.27285,5.05076 -7.07107,12.62691 -17.42513,12.62691 -6.60407,0 -6.56599,-4.54569 -4.54569,-4.79823 z"
         style="fill:#7e9392;fill-opacity:1;stroke:none" />
      <path
         d="m 573.57143,523.9693 c 0,3.35316 -2.71827,6.07143 -6.07143,6.07143 -3.35316,0 -6.07143,-2.71827 -6.07143,-6.07143 0,-3.35316 2.71827,-6.07143 6.07143,-6.07143 3.35316,0 6.07143,2.71827 6.07143,6.07143 z"
         sodipodi:ry="6.0714288"
         sodipodi:rx="6.0714288"
         sodipodi:cy="523.9693"
         sodipodi:cx="567.5"
         id="path3049-4"
         style="fill:#546463;fill-opacity:1;stroke:#546463;stroke-opacity:1"
         sodipodi:type="arc"
         transform="translate(4.2567024e-4,34.041775)" />
      <path
         sodipodi:nodetypes="csssc"
         inkscape:connector-curvature="0"
         id="path3047-7-0"
         d="m 562.40285,606.37934 c 0,0 10.74413,3.96844 15.25689,-9.09137 3.41029,-9.86926 8.98677,-3.78807 6.71393,1.26269 -2.27285,5.05076 -7.07107,12.62691 -17.42513,12.62691 -6.60407,0 -6.56599,-4.54569 -4.54569,-4.79823 z"
         style="fill:#7e9392;fill-opacity:1;stroke:none" />
      <path
         d="m 573.57143,523.9693 c 0,3.35316 -2.71827,6.07143 -6.07143,6.07143 -3.35316,0 -6.07143,-2.71827 -6.07143,-6.07143 0,-3.35316 2.71827,-6.07143 6.07143,-6.07143 3.35316,0 6.07143,2.71827 6.07143,6.07143 z"
         sodipodi:ry="6.0714288"
         sodipodi:rx="6.0714288"
         sodipodi:cy="523.9693"
         sodipodi:cx="567.5"
         id="path3049-4-9"
         style="fill:#546463;fill-opacity:1;stroke:#546463;stroke-opacity:1"
         sodipodi:type="arc"
         transform="translate(4.2000024e-4,71.720349)" />
      <path
         sodipodi:nodetypes="csssc"
         inkscape:connector-curvature="0"
         id="path3093"
         d="m 580.83771,475.81762 c 0,0 -3.28299,-36.74431 -5.3033,-41.03745 -2.05436,-4.36551 27.14785,-12.50063 29.92577,-13.51079 2.77792,-1.01015 5.68211,5.55584 2.39911,13.13198 -3.28299,7.57615 -19.44543,37.12311 -27.02158,41.41626 z"
         style="fill:#ffffff;stroke:none" />
      <path
         inkscape:connector-curvature="0"
         id="path3095"
         d="m 575.89286,405.21932 36.78571,0 c 0,0 3.92857,3.92858 -2.67857,8.03572 -6.60714,4.10714 -25,13.03571 -26.60714,12.5 -1.60714,-0.53572 -7.32143,-13.39286 -7.5,-20.53572 z"
         style="fill:#ffffff;stroke:none" />
      <path
         inkscape:connector-curvature="0"
         id="path3097"
         d="m 561.42857,499.86218 16.875,-16.875 -7.23214,-47.23214 c 0,0 -2.85714,-1.96429 -3.92857,1.96428 -1.07143,3.92858 2.5,23.39286 0.89286,23.92858 -1.60715,0.53571 -4.82143,-23.57143 -6.25,-23.39286 -1.42858,0.17857 -10.71429,1.07143 -11.07143,3.57143 -0.35715,2.5 -5.71429,43.21428 -5.71429,43.21428 z"
         style="fill:#7e9392;fill-opacity:1;stroke:none" />
      <path
         sodipodi:nodetypes="csssc"
         inkscape:connector-curvature="0"
         id="path3099"
         d="m 551.78572,405.21933 c 0,0 -7.0018,13.70698 -3.39286,23.57142 2.67857,7.32143 23.03571,6.42857 26.25,-1.07143 3.21428,-7.5 -1.60714,-21.96428 -4.46429,-23.03571 -2.85714,-1.07143 -9.64285,-1.42857 -18.39285,0.53572 z"
         style="fill:#7e9392;fill-opacity:1;stroke:#7e9392;stroke-width:1px;stroke-linecap:butt;stroke-linejoin:miter;stroke-opacity:1" />
      <path
         sodipodi:nodetypes="csssc"
         inkscape:connector-curvature="0"
         id="path3093-2"
         d="m 542.5824,475.81718 c 0,0 3.28299,-36.74431 5.3033,-41.03745 2.05436,-4.36551 -27.14785,-12.50063 -29.92577,-13.51079 -2.77792,-1.01015 -5.68211,5.55584 -2.39911,13.13198 3.28299,7.57615 19.44543,37.12311 27.02158,41.41626 z"
         style="fill:#ffffff;stroke:none" />
      <path
         inkscape:connector-curvature="0"
         id="path3095-4"
         d="m 547.52725,405.21888 -36.78571,0 c 0,0 -3.92857,3.92858 2.67857,8.03572 6.60714,4.10714 25,13.03571 26.60714,12.5 1.60714,-0.53572 7.32143,-13.39286 7.5,-20.53572 z"
         style="fill:#ffffff;stroke:none" />
      <path
         inkscape:connector-curvature="0"
         id="path3007-5"
         d="m 443.69999,608.43349 c 0,-3.21429 15.35714,-55 16.07142,-63.21429 0.71429,-8.21428 3.57143,-62.5 2.5,-65.71428 -1.07142,-3.21429 -5.35714,-2.85714 -5.35714,7.85714 0,10.71429 -2.14286,51.42857 -3.92857,55.35714 -1.78571,3.92858 -13.21429,60.35715 -13.92857,64.28572 -0.71429,3.92857 1.42857,9.28571 4.64286,1.42857 z"
         style="fill:#7e9392;fill-opacity:1;stroke:none" />
    </g>
  </g>
</svg>
