<?xml version="1.0" encoding="UTF-8" standalone="no"?>
<!-- Created with Inkscape (http://www.inkscape.org/) -->

<svg
   xmlns:dc="http://purl.org/dc/elements/1.1/"
   xmlns:cc="http://creativecommons.org/ns#"
   xmlns:rdf="http://www.w3.org/1999/02/22-rdf-syntax-ns#"
   xmlns:svg="http://www.w3.org/2000/svg"
   xmlns="http://www.w3.org/2000/svg"
   xmlns:sodipodi="http://sodipodi.sourceforge.net/DTD/sodipodi-0.dtd"
   xmlns:inkscape="http://www.inkscape.org/namespaces/inkscape"
   id="svg2985"
   version="1.1"
   inkscape:version="0.48.4 r9939"
   width="1024"
   height="1024"
   sodipodi:docname="Shell Torso.svg">
  <metadata
     id="metadata2991">
    <rdf:RDF>
      <cc:Work
         rdf:about="">
        <dc:format>image/svg+xml</dc:format>
        <dc:type
           rdf:resource="http://purl.org/dc/dcmitype/StillImage" />
        <dc:title />
      </cc:Work>
    </rdf:RDF>
  </metadata>
  <defs
     id="defs2989" />
  <sodipodi:namedview
     pagecolor="#ffffff"
     bordercolor="#666666"
     borderopacity="1"
     objecttolerance="10"
     gridtolerance="10"
     guidetolerance="10"
     inkscape:pageopacity="0"
     inkscape:pageshadow="2"
     inkscape:window-width="1366"
     inkscape:window-height="705"
     id="namedview2987"
     showgrid="false"
     inkscape:zoom="0.1613942"
     inkscape:cx="1418.2402"
     inkscape:cy="846.82402"
     inkscape:window-x="-8"
     inkscape:window-y="-8"
     inkscape:window-maximized="1"
     inkscape:current-layer="svg2985" />
  <g
     id="g3008"
     transform="matrix(0.49224313,0,0,0.49224313,35.64218,463.21392)">
    <g
       transform="matrix(6.2640729,0,0,6.2640729,954.12153,-1447.4566)"
       id="layer1">
      <g
         transform="matrix(0.2326949,0,0,0.2326949,0.4836773,190.36074)"
         id="g2384"
         style="display:inline">
        <path
           inkscape:connector-curvature="0"
           d="m 355.02537,715.37104 c -19.98944,0 -30.26349,-13.03571 -30.26349,-13.03571 -16.42857,-0.71429 -144.82143,-0.35715 -144.82143,-0.35715 l -12.5,-105.50885 c 0,0 -79.080325,-55.74115 -85.508896,-62.16972 C 43.972263,362.09404 181.17751,197.92475 355.03065,197.92475 c 173.85314,0 311.05839,164.16929 273.0991,336.37486 -6.42858,6.42857 -85.5089,62.16972 -85.5089,62.16972 l -12.5,105.50885 c 0,0 -128.39286,-0.35714 -144.82143,0.35715 0,0 -10.27405,13.03571 -30.27405,13.03571 z"
           id="Red part"
           style="fill:#ed1c24;fill-opacity:1;fill-rule:evenodd;stroke:none" />
        <path
           inkscape:connector-curvature="0"
           d="M 355.2112,554.91135 343.07983,250.34962 c -14.63091,-2.9859 -51.95465,0.59719 -71.96017,15.52668 l 58.22504,290.22941 c 0,0 -79.42493,-278.28581 -79.42493,-278.28581 -19.04017,-0.23339 -57.46126,31.96025 -60.31516,41.504 L 305.4575,566.25777 c 0,0 -130.18521,-225.73399 -130.18521,-225.73399 -12.83937,4.77744 -40.90682,56.4335 -36.42797,62.43558 0,0 145.11471,177.63073 145.11471,177.63073 L 134.66406,428.9064 c 0,0 -19.40835,29.56041 -6.75158,79.63049 l 84.32869,60.89857 10.55745,83.19979 103.39021,0 c 0,0 16.91497,16.0333 28.91677,16.0333 12.0018,0 28.91677,-16.0333 28.91677,-16.0333 l 103.39021,0 10.55745,-83.19979 84.32869,-60.89857 c 12.65677,-50.07008 -6.75158,-79.63049 -6.75158,-79.63049 L 426.25217,580.59009 c 0,0 145.11471,-177.63073 145.11471,-177.63073 4.47885,-6.00208 -23.5886,-57.65814 -36.42797,-62.43558 0,0 -130.18521,225.73399 -130.18521,225.73399 L 520.60659,319.3239 c -2.8539,-9.54375 -41.27499,-41.73739 -60.31516,-41.504 0,0 -79.42493,278.28581 -79.42493,278.28581 L 439.09154,265.8763 C 419.08602,250.94681 381.76228,247.36372 367.13137,250.34962 L 355.2112,554.91135 z"
           id="Yellow part"
           style="fill:#ffd500;fill-opacity:1;fill-rule:evenodd;stroke:none" />
      </g>
    </g>
    <path
       inkscape:connector-curvature="0"
       id="path3136"
       d="M 341.69255,741.623 C 272.29606,727.4956 147.37048,699.9429 126.33897,694.1261 98.073649,686.3084 77.57225,675.0578 70.139927,663.2853 64.470076,654.3048 63.165038,645.1038 58.544206,581.5298 53.335047,509.8636 52.534207,468.6151 54.338663,364.9127 c 0.529461,-30.4279 1.194908,-84.3813 1.478659,-119.8966 0.283853,-35.5152 1.843387,-68.5215 3.465813,-73.3473 1.622323,-4.8258 6.336453,-12.5979 10.47569,-17.2712 l 7.525974,-8.497 57.199331,-2.1166 c 118.03072,-4.3678 533.66164,-1.6889 558.07137,3.5969 6.3229,1.3691 13.00887,5.2693 15.27237,8.9089 3.14776,5.0615 5.61569,50.7482 11.31289,209.4244 9.02829,251.4506 7.6134,296.4508 -9.70629,308.7379 -23.08376,16.3764 -230.18111,67.4548 -297.20034,73.3013 -24.92879,2.1748 -33.33131,1.4447 -70.54158,-6.1304 l 0,0 z M 441.687,665.6712 c 55.29204,-10.25 167.96689,-41.241 188.1516,-51.7508 6.24687,-3.2525 11.12198,-8.7392 13.11897,-14.7645 2.08003,-6.276 2.48646,-42.7251 1.17646,-105.5054 -2.1955,-105.2165 -4.90598,-134.7437 -12.60975,-137.3775 -5.75122,-1.9662 -43.13451,3.4284 -147.41606,21.2729 -42.29812,7.2381 -82.69006,13.3741 -89.75992,13.6358 -7.06985,0.2618 -50.50171,-6.15 -96.51518,-14.2479 -100.72315,-17.7264 -137.55514,-22.859 -144.96553,-20.2016 -9.49292,3.4042 -11.16768,34.4712 -7.73847,143.5502 l 3.16755,100.7544 9.22084,6.8943 c 12.99731,9.7182 62.01465,26.0437 127.96229,42.6187 94.23959,23.6858 104.59888,24.6886 156.2072,15.1214 l 0,0 z m 45.01236,-374.83 c 71.79943,-16.0683 122.96768,-31.0053 135.89178,-39.6694 10.44079,-6.9991 15.63843,-19.6001 10.17676,-24.672 -7.78375,-7.2282 -53.89456,-10.1308 -187.96126,-11.8316 -82.9681,-1.0525 -182.79336,0.6287 -254.61385,4.2881 -29.55156,1.5056 -34.26506,2.4715 -39.48243,8.0899 -16.97004,18.2743 8.7077,29.9418 130.61416,59.3488 104.93613,25.3133 111.49853,25.4554 205.37484,4.4462 z"
       style="fill:#000000;fill-opacity:1" />
    <path
       inkscape:connector-curvature="0"
       id="path3120"
       d="m 903.77427,1002.8402 c -5.50047,-3.6479 -11.21001,-10.6539 -12.68797,-15.5688 -1.55069,-5.157 -2.27484,-150.4074 -1.71225,-343.4445 1.24643,-427.6909 -4.122,-1053.45172 -9.32991,-1087.53421 -6.98114,-45.6861 -21.63515,-75.31532 -55.03321,-111.27277 -10.5316,-11.33863 -27.85181,-26.71235 -38.48944,-34.16379 l -19.34107,-13.54809 -71.97858,4.01411 c -73.83479,4.11762 -104.37288,7.94043 -233.64054,29.24739 -100.99744,16.64724 -134.20785,20.01823 -185.83382,18.86282 -63.96335,-1.43152 -75.66585,-7.80774 -78.18668,-42.60078 -2.88974,-39.88548 12.27879,-78.84404 57.72739,-148.26553 42.31757,-64.63902 82.61554,-104.7165 105.49353,-104.91636 13.63289,-0.1191 26.40188,12.98812 24.46445,25.11238 -0.79387,4.96785 -18.28946,38.07501 -38.87907,73.57146 -53.34171,91.96102 -62.07095,109.55551 -57.20944,115.31026 7.3271,8.67329 57.2495,4.58866 185.18129,-15.15143 84.47045,-13.03394 232.64741,-39.61743 242.70482,-43.54214 l 8.30215,-3.23976 -15.02838,-17.01278 c -8.26561,-9.35702 -36.20745,-40.11375 -62.09296,-68.34829 -43.26875,-47.19525 -47.07249,-52.24808 -47.16336,-62.65054 -0.0619,-7.0881 2.29481,-14.41343 6.3088,-19.60912 6.00224,-7.76939 7.50561,-8.2042 23.76314,-6.8731 16.27281,1.33236 58.31152,18.4114 71.64263,29.10621 8.32186,6.67619 133.06789,150.50794 176.94907,204.02169 51.22525,62.46996 50.74556,62.01929 57.80279,54.30858 2.90632,-3.17546 27.26033,-30.15703 54.11999,-59.95905 26.85966,-29.80202 79.34576,-84.61276 116.63576,-121.80165 l 67.8001,-67.61615 28.2694,-11.83037 c 15.5482,-6.5067 34.4224,-12.62277 41.9427,-13.59127 12.3227,-1.58694 14.3197,-0.95388 20.2156,6.4083 4.2726,5.33507 6.579,12.38002 6.6483,20.30662 0.1033,11.83015 -1.5614,13.8406 -65.7582,79.41714 -51.8834,52.99848 -64.9153,67.85655 -61.3941,69.99715 5.8581,3.56122 382.803,93.50715 416.8492,99.46783 32.6164,5.71034 42.9299,4.86663 41.4522,-3.39108 -1.6033,-8.95959 -22.2333,-47.90348 -71.6544,-135.2645 -24.5042,-43.31568 -45.339,-82.42914 -46.2996,-86.9188 -2.4629,-11.5101 5.4657,-22.28294 19.6203,-26.65885 32.6445,-10.09213 70.7895,28.79899 130.1627,132.70855 38.6809,67.69568 60.3096,119.80724 60.5372,145.85632 0.1453,16.63116 -9.9242,35.73286 -26.1728,49.64938 -9.0282,7.73243 -11.3935,8.25338 -38.5072,8.48131 -41.1879,0.34618 -64.4215,-4.16543 -235.3651,-45.70459 -166.9053,-40.55787 -197.6153,-46.07472 -253.7492,-45.58434 -40.148,0.35073 -62.676,3.9738 -79.8323,12.83909 -23.405,12.09416 -57.8192,60.14492 -70.21829,98.04223 -13.84451,42.31511 -16.45734,122.88381 -23.76655,732.85932 -5.44249,454.1951 -9.93068,671.2228 -14.78958,715.1643 -3.51915,31.8254 -7.53584,37.6549 -26.05714,37.8167 -10.01878,0.087 -17.47452,-1.8988 -24.4222,-6.5065 z"
       style="fill:#000000;fill-opacity:1;stroke:#000000" />
  </g>
</svg>
