<?xml version="1.0" encoding="UTF-8" standalone="no"?>
<!-- Created with Inkscape (http://www.inkscape.org/) -->

<svg
   xmlns:dc="http://purl.org/dc/elements/1.1/"
   xmlns:cc="http://creativecommons.org/ns#"
   xmlns:rdf="http://www.w3.org/1999/02/22-rdf-syntax-ns#"
   xmlns:svg="http://www.w3.org/2000/svg"
   xmlns="http://www.w3.org/2000/svg"
   xmlns:sodipodi="http://sodipodi.sourceforge.net/DTD/sodipodi-0.dtd"
   xmlns:inkscape="http://www.inkscape.org/namespaces/inkscape"
   width="1024"
   height="1024"
   id="svg2"
   version="1.1"
   inkscape:version="0.48.4 r9939"
   sodipodi:docname="Dr Lightning Face.svg"
   inkscape:export-filename="Dr Kilroy Face.png"
   inkscape:export-xdpi="90"
   inkscape:export-ydpi="90">
  <defs
     id="defs4" />
  <sodipodi:namedview
     id="base"
     pagecolor="#ffffff"
     bordercolor="#666666"
     borderopacity="1.0"
     inkscape:pageopacity="0.0"
     inkscape:pageshadow="2"
     inkscape:zoom="0.53526338"
     inkscape:cx="804.46226"
     inkscape:cy="388.49965"
     inkscape:document-units="px"
     inkscape:current-layer="layer1"
     showgrid="false"
     inkscape:window-width="1366"
     inkscape:window-height="705"
     inkscape:window-x="-8"
     inkscape:window-y="-8"
     inkscape:window-maximized="1" />
  <metadata
     id="metadata7">
    <rdf:RDF>
      <cc:Work
         rdf:about="">
        <dc:format>image/svg+xml</dc:format>
        <dc:type
           rdf:resource="http://purl.org/dc/dcmitype/StillImage" />
        <dc:title />
      </cc:Work>
    </rdf:RDF>
  </metadata>
  <g
     inkscape:label="Layer 1"
     inkscape:groupmode="layer"
     id="layer1"
     transform="translate(0,-28.362183)">
    <path
       inkscape:connector-curvature="0"
       id="path3079"
       d="M 226.09718,586.97705 76.003158,622.85317 73.806658,603.81684 226.09718,562.81556 z"
       style="fill:#000000;stroke:#000000;stroke-width:3.13521361px;stroke-linecap:butt;stroke-linejoin:miter;stroke-opacity:1" />
    <path
       sodipodi:type="arc"
       style="fill:#000000;fill-opacity:1;stroke:#000000;stroke-width:2;stroke-linecap:round;stroke-linejoin:miter;stroke-miterlimit:4;stroke-opacity:1;stroke-dasharray:none"
       id="path3065"
       sodipodi:cx="393.26434"
       sodipodi:cy="481.38159"
       sodipodi:rx="38.765961"
       sodipodi:ry="38.765961"
       d="m 432.0303,481.38159 c 0,21.40985 -17.35611,38.76596 -38.76596,38.76596 -21.40985,0 -38.76596,-17.35611 -38.76596,-38.76596 0,-21.40985 17.35611,-38.76596 38.76596,-38.76596 21.40985,0 38.76596,17.35611 38.76596,38.76596 z"
       transform="matrix(3.2357577,0.36930838,-0.45480675,3.9848665,-379.65647,-1455.2674)" />
    <path
       transform="matrix(2.862701,0.32673011,-0.40237121,3.5254438,-258.18812,-1217.3652)"
       d="m 432.0303,481.38159 c 0,21.40985 -17.35611,38.76596 -38.76596,38.76596 -21.40985,0 -38.76596,-17.35611 -38.76596,-38.76596 0,-21.40985 17.35611,-38.76596 38.76596,-38.76596 21.40985,0 38.76596,17.35611 38.76596,38.76596 z"
       sodipodi:ry="38.765961"
       sodipodi:rx="38.765961"
       sodipodi:cy="481.38159"
       sodipodi:cx="393.26434"
       id="path3067"
       style="fill:#ffffff;fill-opacity:1;stroke:#ffffff;stroke-width:2;stroke-linecap:round;stroke-linejoin:miter;stroke-miterlimit:4;stroke-opacity:1;stroke-dasharray:none"
       sodipodi:type="arc" />
    <path
       style="fill:#000000;stroke:#000000;stroke-width:3.13521361px;stroke-linecap:butt;stroke-linejoin:miter;stroke-opacity:1"
       d="m 790.33059,586.97705 150.09403,35.87612 2.19649,-19.03633 -152.29052,-41.00128 z"
       id="path3061"
       inkscape:connector-curvature="0" />
    <path
       sodipodi:nodetypes="cssssssssscc"
       inkscape:connector-curvature="0"
       id="path3039"
       d="m 460.39401,912.39942 c -11.08464,10.29291 -39.59537,32.94357 -75.21729,49.08899 -44.8189,20.31433 -92.01305,57.18259 -182.89679,63.34099 -51.43778,3.4855 -128.265282,-13.46 -148.851063,-68.09147 C 32.843086,902.10651 39.968925,857.7678 40.760691,795.21868 c 0.791767,-62.54911 6.334072,-350.7501 5.542306,-368.16885 -0.791736,-17.41875 0.85444,-82.39222 22.961082,-22.16931 14.930922,40.67479 11.272158,125.59615 27.711651,228.02716 10.29287,64.13264 0.332207,139.05738 91.82777,208.56108 39.945,30.34375 82.32949,37.4679 121.15591,8.38143 68.93319,-51.64086 175.77095,-51.46447 175.77095,-34.8375 -1.79808,33.71976 -13.58607,84.52044 -25.33635,97.38673 z"
       style="fill:#ececec;fill-opacity:1;stroke:#ececec;stroke-width:3.13521361000000010px;stroke-linecap:butt;stroke-linejoin:miter;stroke-opacity:1" />
    <path
       style="fill:#ececec;fill-opacity:1;stroke:#ececec;stroke-width:3.13521361000000010px;stroke-linecap:butt;stroke-linejoin:miter;stroke-opacity:1"
       d="m 563.606,912.39942 c 11.08464,10.29291 39.59535,32.94357 75.21727,49.08899 44.81892,20.31433 92.01307,57.18259 182.8968,63.34099 51.43779,3.4855 128.26528,-13.46 148.85107,-68.09147 20.58582,-54.63142 13.45998,-98.97013 12.66821,-161.51925 -0.79177,-62.54911 -6.33415,-350.7501 -5.54238,-368.16885 0.79177,-17.41875 -0.85444,-82.39222 -22.96105,-22.16931 -14.93092,40.67479 -11.27216,125.59615 -27.71165,228.02716 -10.29287,64.13264 -0.33221,139.05738 -91.82777,208.56108 -39.945,30.34375 -82.32949,37.4679 -121.15591,8.38143 -68.93318,-51.64086 -175.77095,-51.46447 -175.77095,-34.8375 1.79808,33.71976 13.58607,84.52044 25.33636,97.38673 z"
       id="path3013"
       inkscape:connector-curvature="0"
       sodipodi:nodetypes="cssssssssscc" />
    <path
       style="fill:#000000;stroke:#000000;stroke-width:3.13521361px;stroke-linecap:butt;stroke-linejoin:miter;stroke-opacity:1"
       d="m 566.43853,945.5634 c 14.55636,-1.67953 29.44753,-18.98529 34.15144,-29.67261 3.18127,-7.22791 -10.83003,-12.92491 -22.39438,-19.03513 -8.477,-4.47928 -16.6716,-4.94297 -25.62934,-1.02396 -8.95778,3.91902 -24.46711,2.78533 -36.72643,2.78533 -12.25931,0 -27.76865,1.13369 -36.72642,-2.78533 -8.95775,-3.91901 -17.15234,-3.45532 -25.62934,1.02396 -11.56436,6.11022 -25.57566,11.80722 -22.39439,19.03513 4.70392,10.68732 19.59508,27.99308 34.15144,29.67261 14.55636,1.67953 33.71596,1.53939 50.59871,1.53939 16.88276,0 36.04235,0.14108 50.59871,-1.53939 z"
       id="path3007"
       inkscape:connector-curvature="0"
       sodipodi:nodetypes="sssssssssss" />
    <path
       sodipodi:nodetypes="ssssssss"
       inkscape:connector-curvature="0"
       id="path3041"
       d="m 467.12396,807.88686 c -7.38167,2.32244 -16.62698,1.18765 -36.02511,26.12812 -19.39816,24.9405 -27.29645,66.88448 -43.54686,83.13492 -22.56517,22.56507 -63.29632,33.575 -76.80082,21.37745 -12.27228,-11.08455 5.93823,-7.91735 26.91989,-10.2929 27.47948,-3.11076 42.75509,-10.29291 55.02739,-53.44379 12.27228,-43.15098 35.23334,-72.84198 55.02739,-76.40491 19.79401,-3.56292 33.25257,5.14219 19.39812,9.50111 z"
       style="fill:#000000;stroke:#000000;stroke-width:3.13521361px;stroke-linecap:butt;stroke-linejoin:miter;stroke-opacity:1" />
    <path
       style="fill:#000000;stroke:#000000;stroke-width:3.13521361px;stroke-linecap:butt;stroke-linejoin:miter;stroke-opacity:1"
       d="m 556.87604,807.88686 c 7.38167,2.32244 16.62697,1.18765 36.02511,26.12812 19.39815,24.9405 27.29645,66.88448 43.54686,83.13492 22.56516,22.56507 63.29633,33.575 76.80082,21.37745 12.27229,-11.08455 -5.93822,-7.91735 -26.91989,-10.2929 -27.47949,-3.11076 -42.7551,-10.29291 -55.02738,-53.44379 -12.2723,-43.15098 -35.23334,-72.84198 -55.02739,-76.40491 -19.79402,-3.56292 -33.25258,5.14219 -19.39813,9.50111 z"
       id="path3019"
       inkscape:connector-curvature="0"
       sodipodi:nodetypes="ssssssss" />
    <path
       style="fill:#000000;stroke:#000000;stroke-width:3.13521361px;stroke-linecap:butt;stroke-linejoin:miter;stroke-opacity:1"
       d="m 627.14479,811.25182 c 9.46819,7.91378 58.42634,51.23259 86.13799,87.65364 27.71162,36.42084 51.18904,72.67457 79.53802,52.68601 20.09851,-14.17116 29.87557,-38.65185 28.9627,-48.0647 -0.74851,-7.71858 -8.39113,-16.53731 -11.26401,-7.52264 -10.11191,31.72993 -21.5181,51.10555 -40.17604,39.12434 -26.3832,-16.94206 -61.98105,-66.38376 -81.24336,-90.02882 -15.92782,-19.55197 -54.03766,-51.4645 -63.93469,-50.67273 -12.25228,0.98016 -5.99367,10.16078 1.97939,16.8249 z"
       id="path3023"
       inkscape:connector-curvature="0"
       sodipodi:nodetypes="sssssssss" />
    <path
       style="fill:#000000;stroke:#000000;stroke-width:3.13521361px;stroke-linecap:butt;stroke-linejoin:miter;stroke-opacity:1"
       d="m 806.67662,860.1431 c 0,0 48.29741,43.5467 45.13036,82.34309 -3.16703,38.7964 -6.33407,55.42337 2.37531,48.29735 8.70937,-7.12574 20.1899,-43.94254 8.70937,-77.59248 -11.48055,-33.64993 -51.86035,-85.51018 -57.40269,-72.05024 -5.54234,13.45994 1.18765,19.00228 1.18765,19.00228 z"
       id="path3025"
       inkscape:connector-curvature="0" />
    <path
       style="fill:#000000;stroke:#000000;stroke-width:3.13521361px;stroke-linecap:butt;stroke-linejoin:miter;stroke-opacity:1"
       d="m 858.53698,810.26212 c 0,0 37.48107,44.76258 39.58802,79.17625 3.56296,58.19427 -9.50114,85.11416 -1.5835,82.73891 7.9176,-2.37523 11.48053,-3.56285 13.06406,-27.31586 1.5835,-23.75269 1.97939,-69.67479 -9.10526,-92.24005 -11.08467,-22.5652 -34.04572,-70.07086 -40.37982,-62.94502 -6.33407,7.12587 -5.14645,15.04347 -1.5835,20.58577 z"
       id="path3027"
       inkscape:connector-curvature="0"
       sodipodi:nodetypes="csssssc" />
    <path
       style="fill:#000000;stroke:#000000;stroke-width:3.13521361px;stroke-linecap:butt;stroke-linejoin:miter;stroke-opacity:1"
       d="m 897.72912,767.90292 c 0,0 31.55558,27.64869 35.23338,70.86263 4.75057,55.81928 10.68875,72.05028 14.25171,60.56975 4.51414,-14.54551 -3.95881,-74.42558 -9.89703,-91.05255 -5.93822,-16.62698 -32.06631,-66.11207 -38.40041,-58.59032 -6.33407,7.52173 -7.52172,9.10526 -1.18765,18.21049 z"
       id="path3029"
       inkscape:connector-curvature="0"
       sodipodi:nodetypes="cssssc" />
    <path
       style="fill:#000000;stroke:#000000;stroke-width:3.13521361px;stroke-linecap:butt;stroke-linejoin:miter;stroke-opacity:1"
       d="m 929.79546,688.72683 c 9.27108,13.33528 23.45628,40.39453 24.94046,67.29967 1.74751,31.67871 7.63766,49.62091 9.89699,35.62927 2.60669,-16.14225 1.58354,-59.77796 -12.27226,-87.48962 -13.85582,-27.71161 -23.49278,-46.41404 -27.84747,-38.89232 -4.35468,7.52173 -2.55243,12.18376 5.28228,23.453 z"
       id="path3031"
       inkscape:connector-curvature="0"
       sodipodi:nodetypes="ssssss" />
    <path
       style="fill:#000000;stroke:#000000;stroke-width:3.13521361px;stroke-linecap:butt;stroke-linejoin:miter;stroke-opacity:1"
       d="m 937.71307,568.77503 c 11.97466,19.64497 19.64991,38.32425 23.35693,58.59031 2.99937,16.39729 11.48051,13.45994 8.70937,-5.54231 -2.77115,-19.00228 -21.7254,-72.33019 -30.43477,-65.60024 -8.70937,6.72996 -3.76515,9.05199 -1.63153,12.55224 z"
       id="path3033"
       inkscape:connector-curvature="0"
       sodipodi:nodetypes="sssss" />
    <path
       style="fill:#000000;stroke:#000000;stroke-width:3.13521361px;stroke-linecap:butt;stroke-linejoin:miter;stroke-opacity:1"
       d="m 946.57493,510.17642 c 4.26095,2.69113 11.18312,7.23049 13.71656,22.11445 2.23946,13.1567 10.35742,10.35739 7.27813,-10.07746 -2.86588,-19.01915 -19.87497,-37.51061 -23.79396,-31.07223 -5.61636,9.22694 -2.51939,15.67607 2.79927,19.03524 z"
       id="path3035"
       inkscape:connector-curvature="0"
       sodipodi:nodetypes="sssss" />
    <path
       style="fill:#000000;stroke:#000000;stroke-width:3.13521361px;stroke-linecap:butt;stroke-linejoin:miter;stroke-opacity:1"
       d="m 968.24552,463.00412 c 0,0 2.79932,-15.95601 -13.43667,-18.75529 -16.23592,-2.7993 -4.47888,-23.79404 1.39966,-20.15497 5.87852,3.63911 22.11448,16.79581 19.03519,30.51237 -3.0792,13.71656 -7.27814,16.79577 -6.99818,8.39789 z"
       id="path3037"
       inkscape:connector-curvature="0" />
    <path
       sodipodi:nodetypes="sssssssss"
       inkscape:connector-curvature="0"
       id="path3043"
       d="m 396.8552,811.25182 c -9.46818,7.91378 -58.42632,51.23259 -86.13797,87.65364 -27.71163,36.42084 -51.18905,72.67457 -79.53802,52.68601 -20.09851,-14.17116 -29.87558,-38.65185 -28.9627,-48.0647 0.7485,-7.71858 8.39112,-16.53731 11.26401,-7.52264 10.11191,31.72993 21.51809,51.10555 40.17603,39.12434 26.3832,-16.94206 61.98105,-66.38376 81.24336,-90.02882 15.92782,-19.55197 54.03765,-51.4645 63.93468,-50.67273 12.25229,0.98016 5.99369,10.16078 -1.97939,16.8249 z"
       style="fill:#000000;stroke:#000000;stroke-width:3.13521361px;stroke-linecap:butt;stroke-linejoin:miter;stroke-opacity:1" />
    <path
       inkscape:connector-curvature="0"
       id="path3045"
       d="m 217.32338,860.1431 c 0,0 -48.2974,43.5467 -45.13036,82.34309 3.16703,38.7964 6.33407,55.42337 -2.37531,48.29735 -8.70937,-7.12574 -20.1899,-43.94254 -8.70937,-77.59248 11.48055,-33.64993 51.86035,-85.51018 57.40269,-72.05024 5.54234,13.45994 -1.18765,19.00228 -1.18765,19.00228 z"
       style="fill:#000000;stroke:#000000;stroke-width:3.13521361px;stroke-linecap:butt;stroke-linejoin:miter;stroke-opacity:1" />
    <path
       sodipodi:nodetypes="csssssc"
       inkscape:connector-curvature="0"
       id="path3047"
       d="m 165.46302,810.26212 c 0,0 -37.48106,44.76258 -39.58802,79.17625 -3.56295,58.19427 9.50114,85.11416 1.5835,82.73891 -7.9176,-2.37523 -11.48052,-3.56285 -13.06406,-27.31586 -1.5835,-23.75269 -1.97938,-69.67479 9.10526,-92.24005 11.08467,-22.5652 34.04572,-70.07086 40.37982,-62.94502 6.33407,7.12587 5.14646,15.04347 1.5835,20.58577 z"
       style="fill:#000000;stroke:#000000;stroke-width:3.13521361px;stroke-linecap:butt;stroke-linejoin:miter;stroke-opacity:1" />
    <path
       sodipodi:nodetypes="cssssc"
       inkscape:connector-curvature="0"
       id="path3049"
       d="m 126.27088,767.90292 c 0,0 -31.555577,27.64869 -35.23337,70.86263 -4.750569,55.81928 -10.688758,72.05028 -14.251709,60.56975 -4.514143,-14.54551 3.958803,-74.42558 9.897023,-91.05255 5.938219,-16.62698 32.066306,-66.11207 38.400406,-58.59032 6.33407,7.52173 7.52173,9.10526 1.18765,18.21049 z"
       style="fill:#000000;stroke:#000000;stroke-width:3.13521361px;stroke-linecap:butt;stroke-linejoin:miter;stroke-opacity:1" />
    <path
       sodipodi:nodetypes="ssssss"
       inkscape:connector-curvature="0"
       id="path3051"
       d="m 94.204546,688.72683 c -9.271078,13.33528 -23.456288,40.39453 -24.940467,67.29967 -1.747507,31.67871 -7.637663,49.62091 -9.897024,35.62927 -2.606616,-16.14225 -1.583502,-59.77796 12.272292,-87.48962 13.855826,-27.71161 23.492784,-46.41404 27.84747,-38.89232 4.354683,7.52173 2.552443,12.18376 -5.282271,23.453 z"
       style="fill:#000000;stroke:#000000;stroke-width:3.13521361px;stroke-linecap:butt;stroke-linejoin:miter;stroke-opacity:1" />
    <path
       sodipodi:nodetypes="sssss"
       inkscape:connector-curvature="0"
       id="path3053"
       d="M 86.286941,568.77503 C 74.312274,588.42 66.637019,607.09928 62.930006,627.36534 c -2.999364,16.39729 -11.480525,13.45994 -8.709372,-5.54231 2.771153,-19.00228 21.7254,-72.33019 30.434772,-65.60024 8.709373,6.72996 3.765141,9.05199 1.631535,12.55224 z"
       style="fill:#000000;stroke:#000000;stroke-width:3.13521361px;stroke-linecap:butt;stroke-linejoin:miter;stroke-opacity:1" />
    <path
       sodipodi:nodetypes="sssss"
       inkscape:connector-curvature="0"
       id="path3055"
       d="m 77.425071,510.17642 c -4.260943,2.69113 -11.18312,7.23049 -13.71656,22.11445 -2.239451,13.1567 -10.357429,10.35739 -7.278179,-10.07746 2.86593,-19.01915 19.875029,-37.51061 23.794014,-31.07223 5.61636,9.22694 2.519396,15.67607 -2.799275,19.03524 z"
       style="fill:#000000;stroke:#000000;stroke-width:3.13521361px;stroke-linecap:butt;stroke-linejoin:miter;stroke-opacity:1" />
    <path
       inkscape:connector-curvature="0"
       id="path3057"
       d="m 55.754505,463.00412 c 0,0 -2.799306,-15.95601 13.436649,-18.75529 16.235923,-2.7993 4.478872,-23.79404 -1.399655,-20.15497 -5.878525,3.63911 -22.114448,16.79581 -19.03523,30.51237 3.07922,13.71656 7.278179,16.79577 6.998236,8.39789 z"
       style="fill:#000000;stroke:#000000;stroke-width:3.13521361px;stroke-linecap:butt;stroke-linejoin:miter;stroke-opacity:1" />
    <path
       sodipodi:type="arc"
       style="fill:#000000;fill-opacity:1;stroke:#000000;stroke-width:2;stroke-linecap:round;stroke-linejoin:miter;stroke-miterlimit:4;stroke-opacity:1;stroke-dasharray:none"
       id="path3063"
       sodipodi:cx="388.3602"
       sodipodi:cy="480.681"
       sodipodi:rx="18.91592"
       sodipodi:ry="18.91592"
       d="m 407.27612,480.681 c 0,10.44697 -8.46895,18.91592 -18.91592,18.91592 -10.44698,0 -18.91592,-8.46895 -18.91592,-18.91592 0,-10.44697 8.46894,-18.91592 18.91592,-18.91592 10.44697,0 18.91592,8.46895 18.91592,18.91592 z"
       transform="matrix(3.2087393,0,0,3.2087393,-583.21296,-940.75969)" />
    <path
       style="fill:#000000;stroke:#000000;stroke-width:3.13521361px;stroke-linecap:butt;stroke-linejoin:miter;stroke-opacity:1"
       d="m 559.43729,545.82956 12.94298,-23.72625 c 0,0 -25.78085,-35.72266 -62.64408,-35.72266 -35.69558,0 -62.64408,37.18698 -62.64408,37.18698 l 12.94298,23.72626 c 2.07087,-0.51771 20.75706,-36.69846 49.7011,-36.88371 28.24459,-0.18077 47.63022,34.90167 49.7011,35.41938 z"
       id="path3069"
       inkscape:connector-curvature="0"
       sodipodi:nodetypes="ccsccsc" />
    <path
       transform="matrix(-3.2357577,0.36930838,0.45480675,3.9848665,1399.4781,-1455.2674)"
       d="m 432.0303,481.38159 c 0,21.40985 -17.35611,38.76596 -38.76596,38.76596 -21.40985,0 -38.76596,-17.35611 -38.76596,-38.76596 0,-21.40985 17.35611,-38.76596 38.76596,-38.76596 21.40985,0 38.76596,17.35611 38.76596,38.76596 z"
       sodipodi:ry="38.765961"
       sodipodi:rx="38.765961"
       sodipodi:cy="481.38159"
       sodipodi:cx="393.26434"
       id="path3073"
       style="fill:#000000;fill-opacity:1;stroke:#000000;stroke-width:2;stroke-linecap:round;stroke-linejoin:miter;stroke-miterlimit:4;stroke-opacity:1;stroke-dasharray:none"
       sodipodi:type="arc" />
    <path
       sodipodi:type="arc"
       style="fill:#ffffff;fill-opacity:1;stroke:#ffffff;stroke-width:2;stroke-linecap:round;stroke-linejoin:miter;stroke-miterlimit:4;stroke-opacity:1;stroke-dasharray:none"
       id="path3075"
       sodipodi:cx="393.26434"
       sodipodi:cy="481.38159"
       sodipodi:rx="38.765961"
       sodipodi:ry="38.765961"
       d="m 432.0303,481.38159 c 0,21.40985 -17.35611,38.76596 -38.76596,38.76596 -21.40985,0 -38.76596,-17.35611 -38.76596,-38.76596 0,-21.40985 17.35611,-38.76596 38.76596,-38.76596 21.40985,0 38.76596,17.35611 38.76596,38.76596 z"
       transform="matrix(-2.862701,0.32673011,0.40237121,3.5254438,1278.0098,-1217.3652)" />
    <path
       transform="matrix(-3.2087393,0,0,3.2087393,1603.0347,-940.75969)"
       d="m 407.27612,480.681 c 0,10.44697 -8.46895,18.91592 -18.91592,18.91592 -10.44698,0 -18.91592,-8.46895 -18.91592,-18.91592 0,-10.44697 8.46894,-18.91592 18.91592,-18.91592 10.44697,0 18.91592,8.46895 18.91592,18.91592 z"
       sodipodi:ry="18.91592"
       sodipodi:rx="18.91592"
       sodipodi:cy="480.681"
       sodipodi:cx="388.3602"
       id="path3077"
       style="fill:#000000;fill-opacity:1;stroke:#000000;stroke-width:2;stroke-linecap:round;stroke-linejoin:miter;stroke-miterlimit:4;stroke-opacity:1;stroke-dasharray:none"
       sodipodi:type="arc" />
  </g>
</svg>
