<?xml version="1.0" encoding="UTF-8" standalone="no"?>
<!-- Created with Inkscape (http://www.inkscape.org/) -->

<svg
   xmlns:dc="http://purl.org/dc/elements/1.1/"
   xmlns:cc="http://creativecommons.org/ns#"
   xmlns:rdf="http://www.w3.org/1999/02/22-rdf-syntax-ns#"
   xmlns:svg="http://www.w3.org/2000/svg"
   xmlns="http://www.w3.org/2000/svg"
   xmlns:sodipodi="http://sodipodi.sourceforge.net/DTD/sodipodi-0.dtd"
   xmlns:inkscape="http://www.inkscape.org/namespaces/inkscape"
   width="1024"
   height="1024"
   id="svg2"
   version="1.1"
   inkscape:version="0.48.4 r9939"
   sodipodi:docname="Dr Kilroy Torso.svg"
   inkscape:export-filename="Dr Kilroy Torso.png"
   inkscape:export-xdpi="90"
   inkscape:export-ydpi="90">
  <defs
     id="defs4" />
  <sodipodi:namedview
     id="base"
     pagecolor="#ffffff"
     bordercolor="#666666"
     borderopacity="1.0"
     inkscape:pageopacity="0.0"
     inkscape:pageshadow="2"
     inkscape:zoom="0.49497475"
     inkscape:cx="686.34471"
     inkscape:cy="494.12345"
     inkscape:document-units="px"
     inkscape:current-layer="layer1"
     showgrid="false"
     inkscape:window-width="1366"
     inkscape:window-height="705"
     inkscape:window-x="-8"
     inkscape:window-y="-8"
     inkscape:window-maximized="1" />
  <metadata
     id="metadata7">
    <rdf:RDF>
      <cc:Work
         rdf:about="">
        <dc:format>image/svg+xml</dc:format>
        <dc:type
           rdf:resource="http://purl.org/dc/dcmitype/StillImage" />
        <dc:title></dc:title>
      </cc:Work>
    </rdf:RDF>
  </metadata>
  <g
     inkscape:label="Layer 1"
     inkscape:groupmode="layer"
     id="layer1"
     transform="translate(0,-28.362153)">
    <path
       inkscape:connector-curvature="0"
       id="path3113"
       d="m 186.90977,872.22273 -40.3559,66.64272 32.21067,0.36944 35.91308,-68.12344 z"
       style="fill:#914827;fill-opacity:1;stroke:#914827;stroke-width:5.86426878px;stroke-linecap:butt;stroke-linejoin:miter;stroke-opacity:1" />
    <path
       style="fill:#914827;fill-opacity:1;stroke:#914827;stroke-width:5.86426878px;stroke-linecap:butt;stroke-linejoin:miter;stroke-opacity:1"
       d="m 772.62607,872.22273 -40.35591,66.64272 32.21067,0.36944 35.91308,-68.12344 z"
       id="path3109"
       inkscape:connector-curvature="0" />
    <rect
       style="fill:#000000;fill-opacity:1;stroke:#000000;stroke-width:11.46820927;stroke-linecap:round;stroke-linejoin:miter;stroke-miterlimit:4;stroke-opacity:1;stroke-dasharray:none"
       id="rect3093"
       width="179.32997"
       height="95.977547"
       x="408.19778"
       y="930.97754" />
    <path
       style="fill:#914827;fill-opacity:1;stroke:#914827;stroke-width:5.86426878px;stroke-linecap:butt;stroke-linejoin:miter;stroke-opacity:1"
       d="m 822.60817,872.59276 42.94764,67.38338 25.91661,-0.74007 -49.98212,-80.71227 z"
       id="path3111"
       inkscape:connector-curvature="0"
       sodipodi:nodetypes="ccccc" />
    <path
       sodipodi:nodetypes="ccccc"
       inkscape:connector-curvature="0"
       id="path3115"
       d="m 236.89188,872.59276 42.94762,67.38338 25.91666,-0.74007 -49.98215,-80.71227 z"
       style="fill:#914827;fill-opacity:1;stroke:#914827;stroke-width:5.86426878px;stroke-linecap:butt;stroke-linejoin:miter;stroke-opacity:1" />
    <rect
       style="fill:#000000;fill-opacity:1;stroke:#000000;stroke-width:11.96469879;stroke-linecap:round;stroke-linejoin:miter;stroke-miterlimit:4;stroke-opacity:1;stroke-dasharray:none"
       id="rect3091"
       width="966.32098"
       height="87.204277"
       x="28.839493"
       y="938.97937" />
    <rect
       style="fill:#000000;fill-opacity:1;stroke:#000000;stroke-width:11.26083279;stroke-linecap:round;stroke-linejoin:miter;stroke-miterlimit:4;stroke-opacity:1;stroke-dasharray:none"
       id="rect3079"
       width="77.117844"
       height="666.5365"
       x="178.71051"
       y="203.21228" />
    <path
       style="fill:#000000;stroke:#000000;stroke-width:5.86426878px;stroke-linecap:butt;stroke-linejoin:miter;stroke-opacity:1"
       d="m 636.90356,193.83421 c -9.93003,-0.71984 -20.95938,0.33133 -32.43673,3.84843 -51.72115,15.85006 -72.57033,36.28516 -72.57033,36.28516 0,0 -9.47267,97.05253 3.1154,104.45729 5.92379,12.58805 90.67495,44.64778 115.45277,31.7037 31.0078,-16.19864 46.62205,-76.15269 39.2173,-139.09313 -1.97028,-16.74765 -22.98834,-35.04188 -52.77841,-37.20145 z"
       id="path2998"
       inkscape:connector-curvature="0" />
    <path
       style="fill:#000000;stroke:#000000;stroke-width:5.86426878px;stroke-linecap:butt;stroke-linejoin:miter;stroke-opacity:1"
       d="m 721.96166,199.02115 -32.46294,224.09887 -99.48309,-89.01122 9.42469,-8.37752 80.63368,68.0674 28.27417,-194.77753 z"
       id="path2996"
       inkscape:connector-curvature="0" />
    <path
       style="fill:#d81911;fill-opacity:1;stroke:#d81911;stroke-width:5.86426878px;stroke-linecap:butt;stroke-linejoin:miter;stroke-opacity:1"
       d="m 632.68861,207.39533 c 8.42367,0.61065 16.08452,2.76893 22.54079,5.86426 6.45626,3.09534 11.74289,7.07496 15.57695,11.54528 3.83406,4.47034 6.22347,9.37521 6.78056,14.1109 1.5704,13.34814 1.87123,26.53371 1.09955,39.03403 -0.77168,12.50035 -2.58766,24.25351 -5.49774,34.8191 -2.91009,10.5656 -6.88371,19.94485 -11.72854,27.48876 -2.42241,3.77196 -5.0122,7.08322 -7.88011,9.89595 -2.86793,2.81275 -6.0582,5.06293 -9.34618,6.78057 -2.62738,1.37259 -5.90725,2.28243 -9.89596,2.56562 -3.9887,0.28324 -8.67143,0.0411 -13.56112,-0.54949 -9.77931,-1.18323 -20.8993,-3.93515 -31.52043,-7.33033 -10.62113,-3.39517 -20.62499,-7.47138 -28.40505,-11.36202 -7.78007,-3.89066 -13.22111,-7.59282 -14.47741,-10.26247 -1.33483,-0.78517 -2.50001,-2.8298 -3.29866,-5.68101 -0.79865,-2.85121 -1.28128,-6.51339 -1.64932,-10.81224 -0.73609,-8.59778 -0.71984,-19.3759 -0.36652,-30.05438 0.7067,-21.35703 2.74888,-41.96618 2.74888,-41.96618 0,0 4.38894,-4.43162 14.29415,-10.44573 4.95261,-3.00701 11.23113,-6.38014 19.05888,-9.89595 7.82774,-3.5158 17.25296,-7.08433 28.22179,-10.44572 9.73626,-2.98369 18.88181,-3.90931 27.30549,-3.29866 z"
       id="path3005"
       inkscape:connector-curvature="0" />
    <path
       inkscape:connector-curvature="0"
       id="path3047"
       d="m 284.41557,199.02115 32.46294,224.09887 99.4831,-89.01122 -9.4247,-8.37752 -80.63369,68.0674 -28.27417,-194.77753 z"
       style="fill:#000000;stroke:#000000;stroke-width:5.86426878px;stroke-linecap:butt;stroke-linejoin:miter;stroke-opacity:1" />
    <path
       id="path3037"
       d="m 369.44822,193.83421 c 9.93003,-0.71984 20.95937,0.33133 32.43673,3.84843 51.72116,15.85006 72.57034,36.28516 72.57034,36.28516 0,0 9.47267,97.05253 -3.1154,104.45729 -5.92379,12.58805 -90.67497,44.64778 -115.45279,31.7037 -31.00778,-16.19864 -46.62204,-76.15269 -39.2173,-139.09313 1.97028,-16.74765 22.98835,-35.04188 52.77842,-37.20145 z"
       style="fill:#000000;stroke:#000000;stroke-width:5.86426878px;stroke-linecap:butt;stroke-linejoin:miter;stroke-opacity:1"
       inkscape:connector-curvature="0" />
    <path
       inkscape:connector-curvature="0"
       id="path3039"
       d="m 373.66316,207.39533 c -8.42367,0.61065 -16.08451,2.76893 -22.54077,5.86426 -6.45627,3.09534 -11.74291,7.07496 -15.57697,11.54528 -3.83406,4.47034 -6.22345,9.37521 -6.78056,14.1109 -1.5704,13.34814 -1.87123,26.53371 -1.09955,39.03403 0.77168,12.50035 2.58766,24.25351 5.49775,34.8191 2.91008,10.5656 6.88371,19.94485 11.72853,27.48876 2.42243,3.77196 5.0122,7.08322 7.88011,9.89595 2.86793,2.81275 6.05821,5.06293 9.34619,6.78057 2.62736,1.37259 5.90725,2.28243 9.89595,2.56562 3.9887,0.28324 8.67144,0.0411 13.56112,-0.54949 9.77931,-1.18323 20.89931,-3.93515 31.52044,-7.33033 10.62114,-3.39517 20.62499,-7.47138 28.40506,-11.36202 7.78006,-3.89066 13.22111,-7.59282 14.47741,-10.26247 1.33483,-0.78517 2.5,-2.8298 3.29865,-5.68101 0.79866,-2.85121 1.28128,-6.51339 1.64933,-10.81224 0.73608,-8.59778 0.71983,-19.3759 0.36651,-30.05438 -0.7067,-21.35703 -2.74888,-41.96618 -2.74888,-41.96618 0,0 -4.38893,-4.43162 -14.29415,-10.44573 -4.95261,-3.00701 -11.23113,-6.38014 -19.05888,-9.89595 -7.82773,-3.5158 -17.25296,-7.08433 -28.22179,-10.44572 -9.73626,-2.98369 -18.88182,-3.90931 -27.3055,-3.29866 z"
       style="fill:#d81911;fill-opacity:1;stroke:#d81911;stroke-width:5.86426878px;stroke-linecap:butt;stroke-linejoin:miter;stroke-opacity:1" />
    <path
       sodipodi:nodetypes="cssscc"
       inkscape:connector-curvature="0"
       id="path3043"
       d="m 447.75193,267.61216 c 0,0 -37.22011,4.73581 -54.97752,-12.5663 -15.94583,-15.53697 -28.27416,-15.18424 -16.23148,-0.52369 12.04269,14.66068 27.75055,27.75055 59.68987,27.75055 31.93933,0 25.13261,-16.23148 25.13261,-16.23148 z"
       style="fill:#000000;stroke:#000000;stroke-width:5.86426878px;stroke-linecap:butt;stroke-linejoin:miter;stroke-opacity:1" />
    <path
       sodipodi:nodetypes="csscc"
       inkscape:connector-curvature="0"
       id="path3041"
       d="m 438.85079,291.69753 c 0,0 -20.30579,16.81127 -57.07189,15.70786 -17.86338,-0.536 -21.46744,14.66072 5.75953,12.5663 27.22698,-2.09436 57.07189,-17.80222 57.07189,-17.80222 z"
       style="fill:#000000;stroke:#000000;stroke-width:5.86426878px;stroke-linecap:butt;stroke-linejoin:miter;stroke-opacity:1" />
    <path
       style="fill:#000000;stroke:#000000;stroke-width:5.86426878px;stroke-linecap:butt;stroke-linejoin:miter;stroke-opacity:1"
       d="m 567.501,291.69753 c 0,0 20.30579,16.81127 57.07187,15.70786 17.86339,-0.536 21.46744,14.66072 -5.75953,12.5663 -27.22697,-2.09436 -57.07188,-17.80222 -57.07188,-17.80222 z"
       id="path3019"
       inkscape:connector-curvature="0"
       sodipodi:nodetypes="csscc" />
    <path
       style="fill:#000000;stroke:#000000;stroke-width:5.86426878px;stroke-linecap:butt;stroke-linejoin:miter;stroke-opacity:1"
       d="m 558.59986,267.61216 c 0,0 37.2201,4.73581 54.9775,-12.5663 15.94583,-15.53697 28.27416,-15.18424 16.23147,-0.52369 -12.04268,14.66068 -27.75052,27.75055 -59.68985,27.75055 -31.93933,0 -25.13261,-16.23148 -25.13261,-16.23148 z"
       id="path3017"
       inkscape:connector-curvature="0"
       sodipodi:nodetypes="cssscc" />
    <path
       transform="matrix(7.12568,0,0,7.6498529,-2132.8792,-3360.3246)"
       d="m 377.94643,475.75504 a 7.9464288,7.9464288 0 1 1 -15.89286,0 7.9464288,7.9464288 0 1 1 15.89286,0 z"
       sodipodi:ry="7.9464288"
       sodipodi:rx="7.9464288"
       sodipodi:cy="475.75504"
       sodipodi:cx="370"
       id="path3027"
       style="fill:#000000;fill-opacity:1;stroke:#000000;stroke-width:2;stroke-linecap:round;stroke-linejoin:miter;stroke-miterlimit:4;stroke-opacity:1;stroke-dasharray:none"
       sodipodi:type="arc" />
    <path
       sodipodi:type="arc"
       style="fill:#d81911;fill-opacity:1;stroke:#d81911;stroke-width:2;stroke-linecap:round;stroke-linejoin:miter;stroke-miterlimit:4;stroke-opacity:1;stroke-dasharray:none"
       id="path3045"
       sodipodi:cx="370"
       sodipodi:cy="475.75504"
       sodipodi:rx="7.9464288"
       sodipodi:ry="7.9464288"
       d="m 377.94643,475.75504 a 7.9464288,7.9464288 0 1 1 -15.89286,0 7.9464288,7.9464288 0 1 1 15.89286,0 z"
       transform="matrix(5.7623293,0,0,6.1862124,-1628.4394,-2663.9905)" />
    <path
       transform="matrix(5.6349977,0,0,5.6349977,-1578.5206,-2399.6249)"
       d="m 374.26151,496.43103 a 3.4408321,3.4408321 0 1 1 -6.88166,0 3.4408321,3.4408321 0 1 1 6.88166,0 z"
       sodipodi:ry="3.4408321"
       sodipodi:rx="3.4408321"
       sodipodi:cy="496.43103"
       sodipodi:cx="370.82068"
       id="path3051"
       style="fill:#000000;fill-opacity:1;stroke:#000000;stroke-width:2;stroke-linecap:round;stroke-linejoin:miter;stroke-miterlimit:4;stroke-opacity:1;stroke-dasharray:none"
       sodipodi:type="arc" />
    <path
       sodipodi:type="arc"
       style="fill:#39373c;fill-opacity:1;stroke:#39373c;stroke-width:2;stroke-linecap:round;stroke-linejoin:miter;stroke-miterlimit:4;stroke-opacity:1;stroke-dasharray:none"
       id="path3049"
       sodipodi:cx="370.82068"
       sodipodi:cy="496.43103"
       sodipodi:rx="3.4408321"
       sodipodi:ry="3.4408321"
       d="m 374.26151,496.43103 a 3.4408321,3.4408321 0 1 1 -6.88166,0 3.4408321,3.4408321 0 1 1 6.88166,0 z"
       transform="matrix(3.0504879,0,0,3.0504879,-620.13101,-1116.594)" />
    <path
       sodipodi:type="arc"
       style="fill:#000000;fill-opacity:1;stroke:#000000;stroke-width:2;stroke-linecap:round;stroke-linejoin:miter;stroke-miterlimit:4;stroke-opacity:1;stroke-dasharray:none"
       id="path3053"
       sodipodi:cx="370.82068"
       sodipodi:cy="496.43103"
       sodipodi:rx="3.4408321"
       sodipodi:ry="3.4408321"
       d="m 374.26151,496.43103 a 3.4408321,3.4408321 0 1 1 -6.88166,0 3.4408321,3.4408321 0 1 1 6.88166,0 z"
       transform="matrix(5.6349977,0,0,5.6349977,-1578.5206,-2321.5047)" />
    <path
       transform="matrix(3.0504879,0,0,3.0504879,-620.13101,-1038.4738)"
       d="m 374.26151,496.43103 a 3.4408321,3.4408321 0 1 1 -6.88166,0 3.4408321,3.4408321 0 1 1 6.88166,0 z"
       sodipodi:ry="3.4408321"
       sodipodi:rx="3.4408321"
       sodipodi:cy="496.43103"
       sodipodi:cx="370.82068"
       id="path3055"
       style="fill:#39373c;fill-opacity:1;stroke:#39373c;stroke-width:2;stroke-linecap:round;stroke-linejoin:miter;stroke-miterlimit:4;stroke-opacity:1;stroke-dasharray:none"
       sodipodi:type="arc" />
    <path
       transform="matrix(5.6349977,0,0,5.6349977,-1578.5206,-2241.163)"
       d="m 374.26151,496.43103 a 3.4408321,3.4408321 0 1 1 -6.88166,0 3.4408321,3.4408321 0 1 1 6.88166,0 z"
       sodipodi:ry="3.4408321"
       sodipodi:rx="3.4408321"
       sodipodi:cy="496.43103"
       sodipodi:cx="370.82068"
       id="path3057"
       style="fill:#000000;fill-opacity:1;stroke:#000000;stroke-width:2;stroke-linecap:round;stroke-linejoin:miter;stroke-miterlimit:4;stroke-opacity:1;stroke-dasharray:none"
       sodipodi:type="arc" />
    <path
       sodipodi:type="arc"
       style="fill:#39373c;fill-opacity:1;stroke:#39373c;stroke-width:2;stroke-linecap:round;stroke-linejoin:miter;stroke-miterlimit:4;stroke-opacity:1;stroke-dasharray:none"
       id="path3059"
       sodipodi:cx="370.82068"
       sodipodi:cy="496.43103"
       sodipodi:rx="3.4408321"
       sodipodi:ry="3.4408321"
       d="m 374.26151,496.43103 a 3.4408321,3.4408321 0 1 1 -6.88166,0 3.4408321,3.4408321 0 1 1 6.88166,0 z"
       transform="matrix(3.0504879,0,0,3.0504879,-620.13101,-958.13218)" />
    <path
       sodipodi:type="arc"
       style="fill:#000000;fill-opacity:1;stroke:#000000;stroke-width:2;stroke-linecap:round;stroke-linejoin:miter;stroke-miterlimit:4;stroke-opacity:1;stroke-dasharray:none"
       id="path3061"
       sodipodi:cx="370.82068"
       sodipodi:cy="496.43103"
       sodipodi:rx="3.4408321"
       sodipodi:ry="3.4408321"
       d="m 374.26151,496.43103 a 3.4408321,3.4408321 0 1 1 -6.88166,0 3.4408321,3.4408321 0 1 1 6.88166,0 z"
       transform="matrix(5.6349977,0,0,5.6349977,-1578.5206,-2162.6726)" />
    <path
       transform="matrix(3.0504879,0,0,3.0504879,-620.13101,-879.64175)"
       d="m 374.26151,496.43103 a 3.4408321,3.4408321 0 1 1 -6.88166,0 3.4408321,3.4408321 0 1 1 6.88166,0 z"
       sodipodi:ry="3.4408321"
       sodipodi:rx="3.4408321"
       sodipodi:cy="496.43103"
       sodipodi:cx="370.82068"
       id="path3063"
       style="fill:#39373c;fill-opacity:1;stroke:#39373c;stroke-width:2;stroke-linecap:round;stroke-linejoin:miter;stroke-miterlimit:4;stroke-opacity:1;stroke-dasharray:none"
       sodipodi:type="arc" />
    <path
       transform="matrix(5.6349977,0,0,5.6349977,-1578.5206,-2083.0714)"
       d="m 374.26151,496.43103 a 3.4408321,3.4408321 0 1 1 -6.88166,0 3.4408321,3.4408321 0 1 1 6.88166,0 z"
       sodipodi:ry="3.4408321"
       sodipodi:rx="3.4408321"
       sodipodi:cy="496.43103"
       sodipodi:cx="370.82068"
       id="path3065"
       style="fill:#000000;fill-opacity:1;stroke:#000000;stroke-width:2;stroke-linecap:round;stroke-linejoin:miter;stroke-miterlimit:4;stroke-opacity:1;stroke-dasharray:none"
       sodipodi:type="arc" />
    <path
       sodipodi:type="arc"
       style="fill:#39373c;fill-opacity:1;stroke:#39373c;stroke-width:2;stroke-linecap:round;stroke-linejoin:miter;stroke-miterlimit:4;stroke-opacity:1;stroke-dasharray:none"
       id="path3067"
       sodipodi:cx="370.82068"
       sodipodi:cy="496.43103"
       sodipodi:rx="3.4408321"
       sodipodi:ry="3.4408321"
       d="m 374.26151,496.43103 a 3.4408321,3.4408321 0 1 1 -6.88166,0 3.4408321,3.4408321 0 1 1 6.88166,0 z"
       transform="matrix(3.0504879,0,0,3.0504879,-620.13101,-800.04067)" />
    <path
       sodipodi:type="arc"
       style="fill:#000000;fill-opacity:1;stroke:#000000;stroke-width:2;stroke-linecap:round;stroke-linejoin:miter;stroke-miterlimit:4;stroke-opacity:1;stroke-dasharray:none"
       id="path3069"
       sodipodi:cx="370.82068"
       sodipodi:cy="496.43103"
       sodipodi:rx="3.4408321"
       sodipodi:ry="3.4408321"
       d="m 374.26151,496.43103 a 3.4408321,3.4408321 0 1 1 -6.88166,0 3.4408321,3.4408321 0 1 1 6.88166,0 z"
       transform="matrix(5.6349977,0,0,5.6349977,-1578.5206,-2006.8024)" />
    <path
       transform="matrix(3.0504879,0,0,3.0504879,-620.13101,-723.77165)"
       d="m 374.26151,496.43103 a 3.4408321,3.4408321 0 1 1 -6.88166,0 3.4408321,3.4408321 0 1 1 6.88166,0 z"
       sodipodi:ry="3.4408321"
       sodipodi:rx="3.4408321"
       sodipodi:cy="496.43103"
       sodipodi:cx="370.82068"
       id="path3071"
       style="fill:#39373c;fill-opacity:1;stroke:#39373c;stroke-width:2;stroke-linecap:round;stroke-linejoin:miter;stroke-miterlimit:4;stroke-opacity:1;stroke-dasharray:none"
       sodipodi:type="arc" />
    <path
       transform="matrix(5.6349977,0,0,5.6349977,-1578.5206,-1924.6097)"
       d="m 374.26151,496.43103 a 3.4408321,3.4408321 0 1 1 -6.88166,0 3.4408321,3.4408321 0 1 1 6.88166,0 z"
       sodipodi:ry="3.4408321"
       sodipodi:rx="3.4408321"
       sodipodi:cy="496.43103"
       sodipodi:cx="370.82068"
       id="path3073"
       style="fill:#000000;fill-opacity:1;stroke:#000000;stroke-width:2;stroke-linecap:round;stroke-linejoin:miter;stroke-miterlimit:4;stroke-opacity:1;stroke-dasharray:none"
       sodipodi:type="arc" />
    <path
       sodipodi:type="arc"
       style="fill:#39373c;fill-opacity:1;stroke:#39373c;stroke-width:2;stroke-linecap:round;stroke-linejoin:miter;stroke-miterlimit:4;stroke-opacity:1;stroke-dasharray:none"
       id="path3075"
       sodipodi:cx="370.82068"
       sodipodi:cy="496.43103"
       sodipodi:rx="3.4408321"
       sodipodi:ry="3.4408321"
       d="m 374.26151,496.43103 a 3.4408321,3.4408321 0 1 1 -6.88166,0 3.4408321,3.4408321 0 1 1 6.88166,0 z"
       transform="matrix(3.0504879,0,0,3.0504879,-620.13101,-641.57885)" />
    <rect
       style="fill:#914827;fill-opacity:1;stroke:#914827;stroke-width:10.97081852;stroke-linecap:round;stroke-linejoin:miter;stroke-miterlimit:4;stroke-opacity:1;stroke-dasharray:none"
       id="rect3081"
       width="45.712505"
       height="346.33069"
       x="194.35942"
       y="217.49174" />
    <rect
       y="601.38159"
       x="193.20169"
       height="205.18089"
       width="48.02784"
       id="rect3083"
       style="fill:#914827;fill-opacity:1;stroke:#914827;stroke-width:8.65547752;stroke-linecap:round;stroke-linejoin:miter;stroke-miterlimit:4;stroke-opacity:1;stroke-dasharray:none" />
    <rect
       y="203.21228"
       x="765.13733"
       height="666.5365"
       width="77.117844"
       id="rect3085"
       style="fill:#000000;fill-opacity:1;stroke:#000000;stroke-width:11.26083279;stroke-linecap:round;stroke-linejoin:miter;stroke-miterlimit:4;stroke-opacity:1;stroke-dasharray:none" />
    <rect
       y="217.49174"
       x="780.78632"
       height="346.33069"
       width="45.712505"
       id="rect3087"
       style="fill:#914827;fill-opacity:1;stroke:#914827;stroke-width:10.97081852;stroke-linecap:round;stroke-linejoin:miter;stroke-miterlimit:4;stroke-opacity:1;stroke-dasharray:none" />
    <rect
       style="fill:#914827;fill-opacity:1;stroke:#914827;stroke-width:8.65547752;stroke-linecap:round;stroke-linejoin:miter;stroke-miterlimit:4;stroke-opacity:1;stroke-dasharray:none"
       id="rect3089"
       width="48.02784"
       height="205.18089"
       x="779.6286"
       y="601.38159" />
    <rect
       style="fill:#ffff00;fill-opacity:1;stroke:#ffff00;stroke-width:21.98685455;stroke-linecap:round;stroke-linejoin:miter;stroke-miterlimit:4;stroke-opacity:1;stroke-dasharray:none"
       id="rect3103"
       width="135.4059"
       height="59.768456"
       x="430.56104"
       y="953.96509" />
    <rect
       y="962.26392"
       x="451.39752"
       height="43.170139"
       width="93.732872"
       id="rect3101"
       style="fill:#000000;fill-opacity:1;stroke:#000000;stroke-width:15.546978;stroke-linecap:round;stroke-linejoin:miter;stroke-miterlimit:4;stroke-opacity:1;stroke-dasharray:none" />
    <rect
       style="fill:#ffff00;fill-opacity:1;stroke:#ffff00;stroke-width:11.8638258;stroke-linecap:round;stroke-linejoin:miter;stroke-miterlimit:4;stroke-opacity:1;stroke-dasharray:none"
       id="rect3099"
       width="71.527107"
       height="32.942928"
       x="462.50043"
       y="967.37799" />
  </g>
</svg>
