<?xml version="1.0" encoding="UTF-8" standalone="no"?>
<!-- Created with Inkscape (http://www.inkscape.org/) -->

<svg
   xmlns:dc="http://purl.org/dc/elements/1.1/"
   xmlns:cc="http://creativecommons.org/ns#"
   xmlns:rdf="http://www.w3.org/1999/02/22-rdf-syntax-ns#"
   xmlns:svg="http://www.w3.org/2000/svg"
   xmlns="http://www.w3.org/2000/svg"
   xmlns:sodipodi="http://sodipodi.sourceforge.net/DTD/sodipodi-0.dtd"
   xmlns:inkscape="http://www.inkscape.org/namespaces/inkscape"
   width="1024"
   height="1024"
   id="svg2"
   version="1.1"
   inkscape:version="0.48.4 r9939"
   sodipodi:docname="Classic Ambulance Driver.svg"
   inkscape:export-filename="G:\LEGO Textures Scans\Complete\Classics\6666 Ambulance\Classic Ambulance Driver.png"
   inkscape:export-xdpi="90"
   inkscape:export-ydpi="90">
  <defs
     id="defs4" />
  <sodipodi:namedview
     id="base"
     pagecolor="#ffffff"
     bordercolor="#666666"
     borderopacity="1.0"
     inkscape:pageopacity="0.0"
     inkscape:pageshadow="2"
     inkscape:zoom="0.49497475"
     inkscape:cx="415.67486"
     inkscape:cy="597.89476"
     inkscape:document-units="px"
     inkscape:current-layer="layer1"
     showgrid="false"
     inkscape:window-width="1920"
     inkscape:window-height="1018"
     inkscape:window-x="-8"
     inkscape:window-y="-8"
     inkscape:window-maximized="1" />
  <metadata
     id="metadata7">
    <rdf:RDF>
      <cc:Work
         rdf:about="">
        <dc:format>image/svg+xml</dc:format>
        <dc:type
           rdf:resource="http://purl.org/dc/dcmitype/StillImage" />
        <dc:title></dc:title>
      </cc:Work>
    </rdf:RDF>
  </metadata>
  <g
     inkscape:label="Layer 1"
     inkscape:groupmode="layer"
     id="layer1"
     transform="translate(0,-28.362183)">
    <g
       id="g3058"
       transform="matrix(2.1688752,0,0,2.1688752,-1292.9112,-533.32305)">
      <path
         inkscape:connector-curvature="0"
         id="path3046"
         d="m 773.77685,270.50411 137.88582,1.51523 -30.80965,58.08377 -19.69797,55.55839 -19.1929,55.05332 -10.10153,-1.51523 -20.20305,-46.9721 3.03046,-22.72843 -20.20305,-53.03301 -25.25382,-43.43656 z"
         style="fill:#ffff00;stroke:#ffff00;stroke-width:1px;stroke-linecap:butt;stroke-linejoin:miter;stroke-opacity:1" />
      <rect
         y="471.43362"
         x="672.5"
         height="31.428572"
         width="9.2857141"
         id="rect3042"
         style="fill:#b3b3b3;fill-opacity:1;stroke:#b3b3b3;stroke-opacity:1" />
      <path
         sodipodi:nodetypes="ccccccccccccccccccccccccccccccccccccccccccc"
         inkscape:connector-curvature="0"
         id="path3032"
         d="m 708.32654,264.11719 c -5.06736,0.19006 -6.00251,6.69268 -8.70349,9.96594 -11.13831,20.52699 -22.63553,42.656 -21.82102,66.66134 0.1617,11.50697 7.46078,22.84035 18.91736,25.80576 22.43465,5.95672 46.28319,7.00573 67.52968,17.09371 21.09936,9.06355 39.3666,23.6226 53.85171,41.3515 11.55511,10.55571 11.67761,27.69547 11.97757,42.24667 0.3658,60.89868 -0.0163,121.80504 -0.74481,182.7004 -0.27148,24.26183 -1.50648,48.60425 -2.61415,72.76843 3.35345,-1.06023 11.02439,2.63847 10.35462,-2.93191 3.22711,-88.66446 4.62656,-177.39942 8.02676,-266.0615 -0.54553,-12.24984 6.45478,-22.86139 12.08067,-33.17839 8.57386,-14.1846 24.28308,-21.47459 39.95325,-27.66717 30.01616,-13.1787 62.53598,-19.85939 90.96863,-30.13871 9.84477,-2.29945 12.76228,-13.99294 12.65628,-22.83482 1.356,-23.57419 -9.97369,-45.19212 -20.31253,-65.58035 -1.44476,-4.44037 -6.04128,-0.54307 -8.66637,0.2672 -1.50065,1.14107 -4.9311,1.37775 -5.59702,3.01405 10.52606,12.41593 20.02024,27.40667 20.40179,44.26339 -0.22699,9.31852 -1.11645,19.1696 -5.40179,27.56696 -5.93391,7.20449 -22.20444,10.40823 -30.59217,13.79202 -21.95562,7.78549 -38.72055,11.07515 -61.02116,17.66687 -6.15336,1.16944 -11.55256,7.00276 -18.05185,5.5054 -3.98079,-2.04232 -2.05768,-8.09219 -1.92581,-11.75557 3.16796,-16.4932 11.32515,-31.51239 18.13047,-46.71756 8.70133,-17.75277 17.6675,-35.7189 29.17481,-51.72776 -3.2557,-1.59774 -6.29993,-3.93569 -9.75447,-4.97768 -17.45076,24.78797 -32.67921,51.42299 -43.57143,79.77678 -8.45029,26.4635 -12.67905,54.34354 -23.90483,79.87277 -0.4707,1.02465 -2.16931,3.77173 -2.83624,1.2433 -11.97297,-23.47425 -16.75445,-49.59743 -21.96428,-75.17857 -5.10915,-17.58267 -13.35605,-34.07567 -20.52845,-50.87987 -6.01234,-12.33294 -10.99125,-25.55161 -19.38227,-36.46388 -2.86516,-1.12115 -6.07581,1.93865 -8.86161,2.58929 -1.51051,1.16585 -7.05175,1.88438 -4.13791,4.65055 16.92066,27.35053 34.83254,54.54849 46.16916,84.81373 2.24923,7.35157 3.51814,17.89334 -3.50446,22.96875 -6.51554,2.90679 -11.80076,-4.13586 -16.76339,-7.1875 -20.34755,-14.33357 -44.31126,-25.15512 -69.57395,-25.49854 -8.24925,-0.17529 -18.22865,-0.24594 -23.35016,-7.78271 -5.90136,-10.25001 -2.58092,-22.94095 1.11607,-33.39285 5.64517,-14.99181 14.39877,-28.75384 23.28125,-41.83036 -1.32024,-3.88914 -7.44659,-4.65054 -11.00446,-4.79911 z"
         style="fill:#000000;fill-opacity:1;stroke:#000000;stroke-width:0.71428573;stroke-opacity:1" />
      <path
         sodipodi:nodetypes="ccccccccc"
         inkscape:connector-curvature="0"
         id="path3038"
         d="m 651.42857,462.71932 0.71429,-66.42857 30,-0.35714 0.71428,68.57143 -10.71428,-0.35715 0,-56.42857 -10,-0.71428 0,57.14286 z"
         style="fill:#0000ff;stroke:#0000ff;stroke-width:1px;stroke-linecap:butt;stroke-linejoin:miter;stroke-opacity:1" />
      <path
         sodipodi:nodetypes="ccccccccc"
         inkscape:connector-curvature="0"
         id="path3034"
         d="m 626.42857,495.3979 17.5,0.17857 0,-22.85715 134.64286,0 -0.35714,22.14286 17.5,0 0,-32.85714 -169.28572,0.35714 z"
         style="fill:#000000;stroke:#000000;stroke-width:1px;stroke-linecap:butt;stroke-linejoin:miter;stroke-opacity:1" />
      <path
         transform="matrix(0.90430622,0,0,0.90430622,65.035887,36.013809)"
         d="m 682.85717,387.54074 c 0,3.84627 -3.11802,6.96429 -6.96429,6.96429 -3.84627,0 -6.96428,-3.11802 -6.96428,-6.96429 0,-3.84627 3.11801,-6.96428 6.96428,-6.96428 3.84627,0 6.96429,3.11801 6.96429,6.96428 z"
         sodipodi:ry="6.9642859"
         sodipodi:rx="6.9642859"
         sodipodi:cy="387.54074"
         sodipodi:cx="675.89288"
         id="path3044"
         style="fill:#b3b3b3;fill-opacity:1;stroke:#b3b3b3;stroke-opacity:1"
         sodipodi:type="arc" />
      <g
         inkscape:label="Layer 1"
         id="layer1-1"
         transform="matrix(0.18423689,0,0,0.18423689,857.23446,423.54305)">
        <g
           id="g3036"
           transform="matrix(12.600469,0,0,12.600469,-4247.6104,-6152.3087)">
          <path
             style="fill:#0b6bbc"
             d="m 365.4451,561.8579 c 0.3983,-9.75127 0.85823,-10.71872 -1.6951,-9.97606 -1.2375,0.35995 -4.92318,2.27073 -8.1904,4.24619 -3.55544,2.14973 -6.08988,3.1433 -6.31273,2.47477 -0.20477,-0.61433 -2.59801,-4.78142 -5.3183,-9.2602 -2.72028,-4.47878 -4.69727,-8.54565 -4.39331,-9.03748 0.30397,-0.49182 3.41505,-2.49496 6.9135,-4.45141 4.74408,-2.65304 5.48551,-3.45246 8.6654,-5.22 -2.79615,-2.49701 -2.66656,-2.35422 -7.68898,-5.65505 C 343.34665,522.29817 340,519.7027 340,519.19294 c 0,-1.19128 3.10066,-6.3674 5.15456,-9.26447 2.62517,-3.70286 3.35109,-4.32099 5.25152,-6.52016 3.35253,1.39951 4.28088,1.59679 8.13166,3.37596 4.25916,1.96785 7.83916,3.57791 7.95556,3.57791 0.11641,0 0.51212,-3.90909 0.87937,-8.68687 0.36725,-4.77777 0.69902,-5.32094 1.09266,-9.11179 7.56428,0.0484 14.53931,0.11488 20.25486,0.13879 -0.0458,0.35455 0.29677,5.71216 0.16137,9.973 -0.20926,6.58531 -0.3022,3.78255 -0.33971,8.38135 7.75831,-3.98054 8.79223,-4.33874 11.56815,-5.75002 l 5.96432,-3.01078 1.49791,3.28316 c 0.82384,1.80574 3.0396,5.75816 4.9239,8.78316 1.88429,3.025 3.44351,5.8068 3.46492,6.18178 0.0214,0.37498 -3.33607,2.60202 -7.46107,4.94897 -4.125,2.34695 -7.5,4.57589 -7.5,4.9532 0,0.37732 1.2375,1.4747 2.75,2.43864 1.5125,0.96393 4.84639,3.3268 7.40864,5.25082 l 4.65864,3.49822 -2.15864,3.6825 c -1.18725,2.02538 -3.50864,6.01381 -5.15864,8.86317 -1.65,2.84937 -3.29721,5.18112 -3.66047,5.18168 -0.36325,5.6e-4 -3.89363,-1.8311 -7.84529,-4.07036 -3.95165,-2.23925 -7.4245,-3.8317 -7.71743,-3.53876 -0.29294,0.29294 -0.61881,3.13756 -0.72414,6.32138 -0.10533,3.18382 -0.27278,7.02626 -0.37209,8.53876 l -0.15224,3.00509 -11.09288,0.0284 c -4.40825,0.0623 -8.8477,0.0172 -11.57171,0.005 0.0253,-1.76982 -0.10462,-3.81878 0.0814,-7.79239 z m 13.34632,-1.90024 c 0.18358,-4.78493 -0.0939,-7.59548 -0.75,-7.59548 -0.63574,0 -1.04142,3.13933 -1.04142,8.05902 0,10.11821 1.39932,9.75613 1.79142,-0.46354 z M 379,550.13842 c 2.6411,-1.76583 3.57923,-3.16101 3.82284,-5.68532 0.17757,-1.83988 -0.15993,-3.82801 -0.75,-4.41808 -0.76379,-0.76379 -1.07284,-0.1413 -1.07284,2.16089 0,2.62777 -0.64754,3.61578 -3.45566,5.27261 -3.85098,2.27213 -5.05675,4.77918 -3.91672,8.14366 0.74565,2.20059 0.77458,2.19089 1.31739,-0.44184 0.32607,-1.58152 1.99864,-3.65705 4.05499,-5.03192 z m -0.0352,-5.7105 c 1.30657,-2.44135 1.3627,-12.06574 0.0704,-12.06574 -1.74837,0 -3.03518,3.7878 -3.03518,8.93426 0,5.2464 1.17101,6.48324 2.96482,3.13148 z m 1.29302,-15.06574 c 5.56452,-3.8056 7.2711,-7.31911 5.38078,-11.07795 -1.89563,-3.7694 -3.63862,-3.52804 -3.63862,0.50386 0,3.23422 -0.49874,3.89946 -5,6.66911 -4.19315,2.58007 -5,3.55741 -5,6.0565 0,1.63898 0.5625,3.96288 1.25,5.16422 1.2198,2.13148 1.25773,2.11177 1.57009,-0.81574 0.2478,-2.32249 1.47584,-3.79043 5.43775,-6.5 z m 0.53422,-15.36796 c 0.29025,-7.58445 0.27622,-7.63204 -2.25,-7.63204 -2.53697,0 -2.54206,0.0183 -2.54206,9.12197 l 0,9.12197 2.25,-1.48993 c 1.95464,-1.29435 2.28834,-2.49179 2.54206,-9.12197 z m -7.41145,-5.22387 c -2.12201,-3.94034 -1.59036,-4.71864 3.38821,-4.96008 5.13092,-0.24884 5.50543,-1.68572 0.8379,-3.21486 -3.31484,-1.08598 -4.24343,-1.04606 -6.25,0.26869 -3.71911,2.43686 -3.04147,8.61087 1.52178,13.86512 1.57033,1.80812 1.63213,1.79609 1.95826,-0.3813 0.18521,-1.23659 -0.47005,-3.7465 -1.45615,-5.57757 z M 377,501.86218 c 0,-0.275 0.225,-0.5 0.5,-0.5 0.275,0 0.5,0.225 0.5,0.5 0,0.275 -0.225,0.5 -0.5,0.5 -0.275,0 -0.5,-0.225 -0.5,-0.5 z m 4.81955,-3.73978 c -0.32509,-2.27859 -2.78421,-3.3715 -5.3611,-2.38265 -0.78361,0.3007 -1.16927,1.21244 -0.85704,2.02611 0.48989,1.27662 1.68184,1.78944 5.71814,2.46014 0.45075,0.0749 0.67575,-0.87172 0.5,-2.1036 z"
             id="path3038-2"
             inkscape:connector-curvature="0"
             sodipodi:nodetypes="csscscscssscsssccscccsscsssscsssscssccccsssssssssssscssccssssssssssscsssssssssssssssssss" />
        </g>
      </g>
    </g>
  </g>
</svg>
