<?xml version="1.0" encoding="UTF-8" standalone="no"?>
<!-- Created with Inkscape (http://www.inkscape.org/) -->

<svg
   xmlns:dc="http://purl.org/dc/elements/1.1/"
   xmlns:cc="http://creativecommons.org/ns#"
   xmlns:rdf="http://www.w3.org/1999/02/22-rdf-syntax-ns#"
   xmlns:svg="http://www.w3.org/2000/svg"
   xmlns="http://www.w3.org/2000/svg"
   xmlns:sodipodi="http://sodipodi.sourceforge.net/DTD/sodipodi-0.dtd"
   xmlns:inkscape="http://www.inkscape.org/namespaces/inkscape"
   width="1024"
   height="1024"
   id="svg3382"
   version="1.1"
   inkscape:version="0.48.4 r9939"
   sodipodi:docname="Female Buisness Suit Torso.svg">
  <defs
     id="defs3384" />
  <sodipodi:namedview
     id="base"
     pagecolor="#ffffff"
     bordercolor="#666666"
     borderopacity="1.0"
     inkscape:pageopacity="0.0"
     inkscape:pageshadow="2"
     inkscape:zoom="0.24748737"
     inkscape:cx="-705.50191"
     inkscape:cy="164.58877"
     inkscape:document-units="px"
     inkscape:current-layer="layer1"
     showgrid="false"
     inkscape:window-width="1366"
     inkscape:window-height="705"
     inkscape:window-x="-8"
     inkscape:window-y="-8"
     inkscape:window-maximized="1" />
  <metadata
     id="metadata3387">
    <rdf:RDF>
      <cc:Work
         rdf:about="">
        <dc:format>image/svg+xml</dc:format>
        <dc:type
           rdf:resource="http://purl.org/dc/dcmitype/StillImage" />
        <dc:title></dc:title>
      </cc:Work>
    </rdf:RDF>
  </metadata>
  <g
     inkscape:label="Layer 1"
     inkscape:groupmode="layer"
     id="layer1"
     transform="translate(0,-28.362183)">
    <g
       id="g3534"
       transform="matrix(10.143719,0,0,10.143719,-3293.0153,-4893.7256)">
      <path
         sodipodi:nodetypes="cccc"
         inkscape:connector-curvature="0"
         id="path3530"
         d="m 371.79927,581.94677 14.26841,0.0631 -6.88167,-4.54568 z"
         style="fill:#ffffff;stroke:#ffffff;stroke-width:1px;stroke-linecap:butt;stroke-linejoin:miter;stroke-opacity:1" />
      <path
         inkscape:connector-curvature="0"
         id="path3524"
         d="m 366.93791,524.0524 c 0,0.63135 10.85914,19.06663 10.85914,19.06663 l 0.25254,-14.89975 z"
         style="fill:#ffffff;stroke:#ffffff;stroke-width:1px;stroke-linecap:butt;stroke-linejoin:miter;stroke-opacity:1" />
      <path
         sodipodi:nodetypes="cc"
         inkscape:connector-curvature="0"
         id="path3401"
         d="m 420.89286,580.57647 c 0,0 -13.62373,-10.49611 -5.23087,-34.96039 0,0 -7.68663,2.42744 -6.67648,3.18506 1.01015,0.75761 4.9245,-1.38896 4.41942,-0.12627 -0.50508,1.26269 -9.14153,21.62933 7.48793,31.9016 z"
         style="fill:#000000;stroke:#000000;stroke-width:1px;stroke-linecap:butt;stroke-linejoin:miter;stroke-opacity:1" />
      <path
         sodipodi:nodetypes="cccccccccc"
         inkscape:connector-curvature="0"
         id="path3403"
         d="m 388.28125,557.125 -0.875,6.5625 19.8125,4.8125 0,-6.9375 z m 0.59821,0.60268 17.76786,4.13839 0,5.9375 -18.51786,-4.45089 z"
         style="fill:#000000;stroke:#000000;stroke-width:1px;stroke-linecap:butt;stroke-linejoin:miter;stroke-opacity:1" />
      <path
         sodipodi:nodetypes="ccccccccc"
         inkscape:connector-curvature="0"
         id="path3526"
         d="m 375.1454,527.08286 -13.13198,-7.07107 -0.88388,-3.40926 -2.02031,0 -2.52538,3.03045 -7.78404,-11.95092 3.43224,-2.2805 24.42858,20.67115 z"
         style="fill:#ffffff;stroke:#ffffff;stroke-width:1px;stroke-linecap:butt;stroke-linejoin:miter;stroke-opacity:1" />
      <path
         sodipodi:nodetypes="cccccccccccc"
         inkscape:connector-curvature="0"
         id="path3427"
         d="m 386.85968,582.02671 -7.13219,-5.36809 -0.12627,-30.93794 11.38339,-17.79328 -0.56065,-0.4026 -11.76852,17.86404 -0.12627,31.20227 -7.51661,5.36749 3.43641,0.0631 4.42791,-3.52301 5.26781,3.60051 z"
         style="fill:#000000;stroke:#000000;stroke-width:1px;stroke-linecap:butt;stroke-linejoin:miter;stroke-opacity:1" />
      <path
         inkscape:connector-curvature="0"
         id="path3522"
         d="m 378.55467,541.85634 c 0.25254,-0.63135 6.43972,-19.44544 6.43972,-19.44544 l -6.69226,5.55584 z"
         style="fill:#ffffff;stroke:#ffffff;stroke-width:1px;stroke-linecap:butt;stroke-linejoin:miter;stroke-opacity:1" />
      <path
         inkscape:connector-curvature="0"
         id="path3528"
         d="m 378.04959,524.81001 15.40483,-20.58185 5.42957,2.27284 -19.69798,19.31917 z"
         style="fill:#ffffff;stroke:#ffffff;stroke-width:1px;stroke-linecap:butt;stroke-linejoin:miter;stroke-opacity:1" />
      <path
         sodipodi:nodetypes="ccccccccccc"
         inkscape:connector-curvature="0"
         id="path3429"
         d="m 378.68094,549.55875 c 0,0 -12.75318,-14.12392 -23.35978,-17.04632 l 2.38642,-4.39775 -5.58647,0.16959 -2.22952,-18.24774 1.7362,1.95717 2.15647,14.67337 5.6425,0.1046 -1.45395,4.85687 c 0,0 14.64721,8.46003 20.8344,16.28871 z"
         style="fill:#000000;stroke:#000000;stroke-width:1px;stroke-linecap:butt;stroke-linejoin:miter;stroke-opacity:1" />
      <path
         sodipodi:nodetypes="ccccc"
         inkscape:connector-curvature="0"
         id="path3431"
         d="m 377.78173,546.48497 7.844,-24.45287 -1.07216,0.77651 -7.58928,23.125 z"
         style="fill:#000000;stroke:#000000;stroke-width:1px;stroke-linecap:butt;stroke-linejoin:miter;stroke-opacity:1" />
      <path
         inkscape:connector-curvature="0"
         id="path3433"
         d="m 378.43528,527.49834 0,17.67013 -0.62055,0.27184 0,-17.94197 z"
         style="fill:#000000;stroke:#000000;stroke-width:0.73660415px;stroke-linecap:butt;stroke-linejoin:miter;stroke-opacity:1" />
      <path
         inkscape:connector-curvature="0"
         id="path3532"
         d="m 352.16443,504.73323 41.41626,0 -16.66752,21.08694 -24.74874,-19.82425 z"
         style="fill:#ffff00;stroke:#ffff00;stroke-width:1px;stroke-linecap:butt;stroke-linejoin:miter;stroke-opacity:1" />
      <path
         sodipodi:nodetypes="ccsccccccccc"
         inkscape:connector-curvature="0"
         id="path3435"
         d="m 348.92408,507.55793 7.68306,11.58997 c 0,0 1.65047,-4.69965 3.9719,-3.44965 2.32143,1.25 1.92096,2.37822 2.01025,4.07465 l 14.45015,7.87817 21.6265,-21.83122 1.13641,0.63135 -22.82605,22.9045 -15.76514,-8.79737 c 0.63397,-2.02475 -1.41287,-7.02596 -4.23899,0.80806 l -8.3561,-13.55778 z"
         style="fill:#000000;stroke:#000000;stroke-width:1px;stroke-linecap:butt;stroke-linejoin:miter;stroke-opacity:1" />
      <path
         inkscape:connector-curvature="0"
         id="path3437"
         d="m 367.32143,523.79075 10.625,19.91072 -0.98214,1.51785 -11.25,-22.23214 z"
         style="fill:#000000;stroke:#000000;stroke-width:1px;stroke-linecap:butt;stroke-linejoin:miter;stroke-opacity:1" />
      <path
         sodipodi:nodetypes="ccccccc"
         inkscape:connector-curvature="0"
         id="path3439"
         d="m 352.41071,505.21932 24.37501,20.26786 16.65047,-21.54586 0.80357,0.44642 -17.27547,22.52801 -25.26786,-21.25 z"
         style="fill:#000000;stroke:#000000;stroke-width:1px;stroke-linecap:butt;stroke-linejoin:miter;stroke-opacity:1" />
      <path
         sodipodi:nodetypes="ccccc"
         inkscape:connector-curvature="0"
         id="path3441"
         d="m 386.63589,506.37473 c -17.1726,4.41942 -34.21892,-1.26269 -34.21892,-1.26269 l 16.03617,14.14214 c 0,0 7.57615,3.91434 18.43529,-5.3033 -3.91514,-5.2863 -0.25254,-7.57615 -0.25254,-7.57615 z"
         style="fill:#a9297a;fill-opacity:1;stroke:#000000;stroke-width:1px;stroke-linecap:butt;stroke-linejoin:miter;stroke-opacity:1" />
      <path
         sodipodi:nodetypes="cccsc"
         inkscape:connector-curvature="0"
         id="path3443"
         d="m 386.60714,505.93361 c 0,0 7.32143,-2.58929 17.05358,13.39286 1.42857,3.39286 -0.89286,6.78571 2.05357,19.55357 0,0 -15.4388,-9.98219 -17.23215,-15.26786 -1.69642,-5 -4.19643,-11.60714 -1.875,-17.67857 z"
         style="fill:#a9297a;fill-opacity:1;stroke:#000000;stroke-width:1px;stroke-linecap:butt;stroke-linejoin:miter;stroke-opacity:1" />
      <path
         inkscape:connector-curvature="0"
         id="path3445"
         d="m 390.44643,528.5229 c 0,0 5.71429,8.92857 -0.53571,15.44642 -6.25,6.51786 9.19642,-4.10714 10.71428,-8.03571 l -6.78571,-5.98214 -2.85715,-2.32143 z"
         style="fill:#a9297a;fill-opacity:1;stroke:#000000;stroke-width:1px;stroke-linecap:butt;stroke-linejoin:miter;stroke-opacity:1" />
      <path
         sodipodi:nodetypes="cssc"
         inkscape:connector-curvature="0"
         id="path3447"
         d="m 386.69829,511.88063 c 0,0 3.92671,7.71369 5.266,7.35655 1.33928,-0.35714 2.05357,-2.14286 -2.14286,-5.80357 -4.19643,-3.66071 -3.12314,-1.55298 -3.12314,-1.55298 z"
         style="fill:#000000;stroke:#a9297a;stroke-width:1px;stroke-linecap:butt;stroke-linejoin:miter;stroke-opacity:1" />
      <path
         sodipodi:nodetypes="cssc"
         inkscape:connector-curvature="0"
         id="path3449"
         d="m 387.38194,510.15805 c 0,0 5.74306,6.84699 6.63592,5.77556 0.89286,-1.07143 -4.9395,-6.7577 -6.36807,-7.11485 -1.42857,-0.35714 -0.26785,1.33929 -0.26785,1.33929 z"
         style="fill:#000000;stroke:#a9297a;stroke-width:1px;stroke-linecap:butt;stroke-linejoin:miter;stroke-opacity:1" />
      <path
         sodipodi:nodetypes="cccsc"
         inkscape:connector-curvature="0"
         id="path3451"
         d="m 385.71429,511.0229 c 0,0 -9.19643,6.875 -18.39286,3.66071 -0.98214,-1.69643 2.05357,1.07143 10,-1.96429 0,0 -1.96429,0.0893 -3.83929,-0.80357 -1.875,-0.89285 9.19643,-1.875 11.875,-1.25"
         style="fill:#a9297a;fill-opacity:1;stroke:#000000;stroke-width:1px;stroke-linecap:butt;stroke-linejoin:miter;stroke-opacity:1" />
      <path
         transform="matrix(0.76683938,0,0,0.76683938,87.351962,129.64264)"
         d="m 377.58928,556.02289 c 0,1.62727 -1.31916,2.94643 -2.94643,2.94643 -1.62726,0 -2.94643,-1.31916 -2.94643,-2.94643 0,-1.62727 1.31917,-2.94643 2.94643,-2.94643 1.62727,0 2.94643,1.31916 2.94643,2.94643 z"
         sodipodi:ry="2.9464285"
         sodipodi:rx="2.9464285"
         sodipodi:cy="556.02289"
         sodipodi:cx="374.64285"
         id="path3453"
         style="fill:none;stroke:#000000;stroke-opacity:1"
         sodipodi:type="arc" />
      <path
         inkscape:connector-curvature="0"
         id="path3478"
         d="m 372.05357,555.04076 -2.67857,-0.17857 0.17857,1.875 2.41072,-0.17858 z"
         style="fill:#000000;stroke:#000000;stroke-width:1px;stroke-linecap:butt;stroke-linejoin:miter;stroke-opacity:1" />
      <path
         transform="matrix(0.76683938,0,0,0.76683938,87.128749,139.2855)"
         d="m 377.58928,556.02289 c 0,1.62727 -1.31916,2.94643 -2.94643,2.94643 -1.62726,0 -2.94643,-1.31916 -2.94643,-2.94643 0,-1.62727 1.31917,-2.94643 2.94643,-2.94643 1.62727,0 2.94643,1.31916 2.94643,2.94643 z"
         sodipodi:ry="2.9464285"
         sodipodi:rx="2.9464285"
         sodipodi:cy="556.02289"
         sodipodi:cx="374.64285"
         id="path3453-7"
         style="fill:none;stroke:#000000;stroke-opacity:1"
         sodipodi:type="arc" />
      <path
         inkscape:connector-curvature="0"
         id="path3478-6"
         d="m 371.83036,564.68362 -2.67857,-0.17857 0.17857,1.875 2.41072,-0.17858 z"
         style="fill:#000000;stroke:#000000;stroke-width:1px;stroke-linecap:butt;stroke-linejoin:miter;stroke-opacity:1" />
      <path
         sodipodi:nodetypes="cc"
         inkscape:connector-curvature="0"
         id="path3401-1"
         d="m 329.32812,580.91381 c 0,0 13.62373,-10.49611 5.23087,-34.96039 0,0 7.68663,2.42744 6.67648,3.18506 -1.01015,0.75761 -4.9245,-1.38896 -4.41942,-0.12627 0.50508,1.26269 9.14153,21.62933 -7.48793,31.9016 z"
         style="fill:#000000;stroke:#000000;stroke-width:1px;stroke-linecap:butt;stroke-linejoin:miter;stroke-opacity:1" />
      <path
         sodipodi:nodetypes="cccccccccc"
         inkscape:connector-curvature="0"
         id="path3403-4"
         d="m 361.93973,557.46234 0.875,6.5625 -19.8125,4.8125 0,-6.9375 z m -0.59821,0.60268 -17.76786,4.13839 0,5.9375 18.51786,-4.45089 z"
         style="fill:#000000;stroke:#000000;stroke-width:1px;stroke-linecap:butt;stroke-linejoin:miter;stroke-opacity:1" />
    </g>
  </g>
</svg>
