<?xml version="1.0" encoding="UTF-8" standalone="no"?>
<!-- Created with Inkscape (http://www.inkscape.org/) -->

<svg
   xmlns:dc="http://purl.org/dc/elements/1.1/"
   xmlns:cc="http://creativecommons.org/ns#"
   xmlns:rdf="http://www.w3.org/1999/02/22-rdf-syntax-ns#"
   xmlns:svg="http://www.w3.org/2000/svg"
   xmlns="http://www.w3.org/2000/svg"
   xmlns:sodipodi="http://sodipodi.sourceforge.net/DTD/sodipodi-0.dtd"
   xmlns:inkscape="http://www.inkscape.org/namespaces/inkscape"
   width="1024"
   height="1024"
   id="svg2"
   version="1.1"
   inkscape:version="0.48.4 r9939"
   sodipodi:docname="New document 1">
  <defs
     id="defs4" />
  <sodipodi:namedview
     id="base"
     pagecolor="#ffffff"
     bordercolor="#666666"
     borderopacity="1.0"
     inkscape:pageopacity="0.0"
     inkscape:pageshadow="2"
     inkscape:zoom="0.35"
     inkscape:cx="213.07223"
     inkscape:cy="399.29478"
     inkscape:document-units="px"
     inkscape:current-layer="layer1"
     showgrid="false"
     inkscape:window-width="1366"
     inkscape:window-height="705"
     inkscape:window-x="-8"
     inkscape:window-y="-8"
     inkscape:window-maximized="1" />
  <metadata
     id="metadata7">
    <rdf:RDF>
      <cc:Work
         rdf:about="">
        <dc:format>image/svg+xml</dc:format>
        <dc:type
           rdf:resource="http://purl.org/dc/dcmitype/StillImage" />
        <dc:title></dc:title>
      </cc:Work>
    </rdf:RDF>
  </metadata>
  <g
     inkscape:label="Layer 1"
     inkscape:groupmode="layer"
     id="layer1"
     transform="translate(0,-28.362183)">
    <path
       sodipodi:type="arc"
       style="fill:#000000;fill-opacity:1;stroke:#000000;stroke-opacity:1"
       id="path3048"
       sodipodi:cx="286.6308"
       sodipodi:cy="617.99658"
       sodipodi:rx="20.960665"
       sodipodi:ry="20.960665"
       d="m 307.59146,617.99658 a 20.960665,20.960665 0 1 1 -41.92133,0 20.960665,20.960665 0 1 1 41.92133,0 z"
       transform="matrix(4.1943895,0,0,4.725765,-906.37114,-2383.9171)" />
    <path
       style="fill:#000000;stroke:#000000;stroke-width:4.20039511px;stroke-linecap:butt;stroke-linejoin:miter;stroke-opacity:1"
       d="M 399.82453,353.07806 C 358.80574,338.76996 227.98141,286.78058 153.72822,293.14515 102.34844,292.82549 28.239647,330.50875 93.264914,287.8413 147.36365,252.83626 206.76622,253.89698 292.68778,277.23371 c 85.92157,23.33672 114.34048,33.72564 119.86589,36.06586 45.08229,19.09368 32.32212,55.49322 -12.72914,39.77849 z"
       id="path2996"
       inkscape:connector-curvature="0"
       sodipodi:nodetypes="sccsss" />
    <path
       sodipodi:nodetypes="sccsss"
       inkscape:connector-curvature="0"
       id="path2998"
       d="m 624.17547,353.07806 c 41.01879,-14.3081 171.84311,-66.29748 246.09631,-59.93291 51.37979,-0.31966 125.4886,37.3636 60.46331,-5.30385 -54.09874,-35.00504 -113.50131,-33.94432 -199.42288,-10.60759 -85.92156,23.33672 -114.34047,33.72564 -119.86588,36.06586 -45.08229,19.09368 -32.32212,55.49322 12.72914,39.77849 z"
       style="fill:#000000;stroke:#000000;stroke-width:4.20039511px;stroke-linecap:butt;stroke-linejoin:miter;stroke-opacity:1" />
    <path
       sodipodi:nodetypes="cscsscscssc"
       inkscape:connector-curvature="0"
       id="path3006"
       d="m 397.01661,474.06418 c 0,0 -69.4684,-42.82261 -168.79099,-16.44777 -99.32254,26.37491 -120.41087,-64.55168 -120.41087,-64.55168 0,0 19.04669,27.60223 38.3667,30.89622 19.31997,3.29399 24.55341,13.25565 18.13411,-6.48713 -6.41929,-19.74274 -5.03228,-32.65182 -5.03228,-32.65182 0,0 24.1718,39.99117 35.68543,36.45141 11.51365,-3.5398 8.67268,-12.58405 5.63575,-35.41861 0,0 18.30939,25.94798 32.14323,24.94375 13.83387,-1.00419 112.84705,-2.26167 131.48118,16.40464 28.80547,28.8552 32.78774,46.86099 32.78774,46.86099 z"
       style="fill:#000000;stroke:#000000;stroke-width:4.53654242px;stroke-linecap:butt;stroke-linejoin:miter;stroke-opacity:1" />
    <path
       sodipodi:type="arc"
       style="fill:#ffffff;fill-opacity:1;stroke:#ffffff;stroke-opacity:1"
       id="path3050"
       sodipodi:cx="286.37823"
       sodipodi:cy="606.63239"
       sodipodi:rx="8.586297"
       sodipodi:ry="8.586297"
       d="m 294.96453,606.63239 a 8.586297,8.586297 0 1 1 -17.17259,0 8.586297,8.586297 0 1 1 17.17259,0 z"
       transform="matrix(4.2003951,0,0,4.2003951,-908.09248,-2053.4062)" />
    <path
       transform="matrix(-4.1943895,0,0,4.725765,1930.2513,-2383.9171)"
       d="m 307.59146,617.99658 a 20.960665,20.960665 0 1 1 -41.92133,0 20.960665,20.960665 0 1 1 41.92133,0 z"
       sodipodi:ry="20.960665"
       sodipodi:rx="20.960665"
       sodipodi:cy="617.99658"
       sodipodi:cx="286.6308"
       id="path3052"
       style="fill:#000000;fill-opacity:1;stroke:#000000;stroke-opacity:1"
       sodipodi:type="arc" />
    <path
       style="fill:#000000;stroke:#000000;stroke-width:4.53654242px;stroke-linecap:butt;stroke-linejoin:miter;stroke-opacity:1"
       d="m 626.8636,474.06418 c 0,0 69.4684,-42.82261 168.79098,-16.44777 99.32254,26.37491 120.41088,-64.55168 120.41088,-64.55168 0,0 -19.04669,27.60223 -38.36671,30.89622 -19.31997,3.29399 -24.55341,13.25565 -18.13411,-6.48713 6.4193,-19.74274 5.03229,-32.65182 5.03229,-32.65182 0,0 -24.17181,39.99117 -35.68542,36.45141 -11.51367,-3.5398 -8.67269,-12.58405 -5.63577,-35.41861 0,0 -18.30939,25.94798 -32.14322,24.94375 -13.83388,-1.00419 -112.84706,-2.26167 -131.48119,16.40464 -28.80547,28.8552 -32.78773,46.86099 -32.78773,46.86099 z"
       id="path3054"
       inkscape:connector-curvature="0"
       sodipodi:nodetypes="cscsscscssc" />
    <path
       transform="matrix(-4.2003951,0,0,4.2003951,1931.9727,-2053.4062)"
       d="m 294.96453,606.63239 a 8.586297,8.586297 0 1 1 -17.17259,0 8.586297,8.586297 0 1 1 17.17259,0 z"
       sodipodi:ry="8.586297"
       sodipodi:rx="8.586297"
       sodipodi:cy="606.63239"
       sodipodi:cx="286.37823"
       id="path3056"
       style="fill:#ffffff;fill-opacity:1;stroke:#ffffff;stroke-opacity:1"
       sodipodi:type="arc" />
    <path
       style="fill:#c51d0d;fill-opacity:1;stroke:#c51d0d;stroke-width:4.20039511px;stroke-linecap:butt;stroke-linejoin:miter;stroke-opacity:1"
       d="m 290.15625,856.28888 c 0,0 52.50494,-14.25152 116.26097,-42.75414 63.75599,-28.50262 91.75433,4.46586 113.84433,3.99668 25.73209,-0.54647 67.3307,-22.60107 95.80039,-6.24683 44.00511,25.2784 82.04821,44.64012 117.38605,54.0049 L 668.19187,883.29112 491.1752,896.04226 366.66347,883.29112 z"
       id="path3060"
       inkscape:connector-curvature="0"
       sodipodi:nodetypes="csssccccc" />
    <path
       style="fill:#c51d0d;fill-opacity:1;stroke:#c51d0d;stroke-width:4.20039511px;stroke-linecap:butt;stroke-linejoin:miter;stroke-opacity:1"
       d="m 323.90945,888.54161 c 6.00056,6.00069 69.00649,105.76004 189.76786,107.26007 120.76136,1.50037 198.7687,-108.00984 198.7687,-108.00984 l -99.00932,12.75114 -137.26292,0 z"
       id="path3062"
       inkscape:connector-curvature="0" />
    <path
       style="fill:#000000;stroke:#000000;stroke-width:4.20039511px;stroke-linecap:butt;stroke-linejoin:miter;stroke-opacity:1"
       d="m 313.90298,857.4692 c 58.05172,13.8991 159.4777,31.65879 376.5698,7.42545 83.51159,-9.32193 58.36609,5.70666 36.06586,20.15434 -64.22606,41.61079 -358.03301,29.64218 -415.28754,6.36485 -37.79381,-15.36546 -108.84258,-60.639 2.65188,-33.94464 z"
       id="path3058"
       inkscape:connector-curvature="0"
       sodipodi:nodetypes="sssss" />
  </g>
</svg>
