<?xml version="1.0" encoding="UTF-8" standalone="no"?>
<!-- Created with Inkscape (http://www.inkscape.org/) -->

<svg
   xmlns:dc="http://purl.org/dc/elements/1.1/"
   xmlns:cc="http://creativecommons.org/ns#"
   xmlns:rdf="http://www.w3.org/1999/02/22-rdf-syntax-ns#"
   xmlns:svg="http://www.w3.org/2000/svg"
   xmlns="http://www.w3.org/2000/svg"
   xmlns:sodipodi="http://sodipodi.sourceforge.net/DTD/sodipodi-0.dtd"
   xmlns:inkscape="http://www.inkscape.org/namespaces/inkscape"
   width="1920"
   height="1920"
   id="svg2"
   version="1.1"
   inkscape:version="0.48.3.1 r9886"
   sodipodi:docname="Galaxy Patrol Legs.svg"
   inkscape:export-filename="G:\LEGO Textures Scans\Complete\Galaxy Patrol (Minifigures Series 7)\Galaxy Patrol Legs.png"
   inkscape:export-xdpi="96"
   inkscape:export-ydpi="96">
  <defs
     id="defs4" />
  <sodipodi:namedview
     id="base"
     pagecolor="#ffffff"
     bordercolor="#666666"
     borderopacity="1.0"
     inkscape:pageopacity="0.0"
     inkscape:pageshadow="2"
     inkscape:zoom="0.20265246"
     inkscape:cx="1250.0333"
     inkscape:cy="859.58107"
     inkscape:document-units="px"
     inkscape:current-layer="layer1"
     showgrid="false"
     inkscape:window-width="1920"
     inkscape:window-height="1018"
     inkscape:window-x="-8"
     inkscape:window-y="-8"
     inkscape:window-maximized="1" />
  <metadata
     id="metadata7">
    <rdf:RDF>
      <cc:Work
         rdf:about="">
        <dc:format>image/svg+xml</dc:format>
        <dc:type
           rdf:resource="http://purl.org/dc/dcmitype/StillImage" />
        <dc:title></dc:title>
      </cc:Work>
    </rdf:RDF>
  </metadata>
  <g
     inkscape:label="Layer 1"
     inkscape:groupmode="layer"
     id="layer1"
     transform="translate(0,867.63782)">
    <g
       id="g3083"
       transform="matrix(2.8554141,0,0,2.8554141,-93.84627,-2068.3705)">
      <path
         inkscape:connector-curvature="0"
         id="path3027"
         d="m 266.74478,648.01136 c -1.46228,0.0431 -3.78788,0.33753 -3.93686,2.16916 0.14998,1.3497 -0.38201,2.59794 -0.49859,3.9045 0.37172,6.18266 0.018,12.41662 0.22331,18.58271 1.49103,2.06104 3.89333,3.89462 6.60051,3.39341 2.37971,-0.34892 5.56393,-0.69551 6.54081,-3.31485 0.67516,-1.83214 -0.44163,-3.60304 -0.23958,-5.465 -0.11744,-3.07126 0.0943,-6.19503 -0.12781,-9.23286 -0.79634,-0.75211 -1.81044,-1.80105 -1.70464,-2.99862 0.74917,-0.592 1.10008,-1.58112 0.67341,-2.50587 -0.62306,-2.11019 -2.25686,-4.10033 -4.58438,-4.27357 -0.9675,-0.19474 -1.95917,-0.28572 -2.94618,-0.25901 z"
         style="fill:#666666;fill-opacity:1;stroke:#666666;stroke-width:0.20720357;stroke-opacity:1" />
      <path
         inkscape:connector-curvature="0"
         id="path3029"
         d="m 289.53717,648.00489 c -1.7769,0.0402 -3.88985,0.64531 -4.72683,2.31809 0.21763,1.38669 0.58594,2.81856 -0.0199,4.1519 -0.39775,2.16916 -0.76402,4.37028 -1.04854,6.55146 0.8069,4.24484 0.97315,8.59128 0.91299,12.91137 0.77597,1.05862 2.33276,1.3979 3.53541,1.91663 2.75951,0.787 6.25395,0.41218 8.20397,-1.87778 1.97345,-2.53325 0.83666,-5.87697 1.24322,-8.78025 0.54108,-1.86819 -0.73783,-3.65144 -0.90652,-5.49737 -0.54465,-2.16135 -0.16725,-4.40223 0.76407,-6.40389 0.32706,-0.72905 0.19302,-1.76303 -0.66047,-2.00081 -1.03818,-2.20209 -3.72533,-2.83037 -5.9312,-3.20518 -0.45234,-0.0577 -0.90998,-0.0994 -1.36625,-0.0842 z"
         style="fill:#666666;fill-opacity:1;stroke:#666666;stroke-width:0.20720357;stroke-opacity:1" />
      <path
         inkscape:connector-curvature="0"
         id="path3031"
         d="m 340.96251,637.69651 c -3.22993,0.12316 -6.5616,-0.0656 -9.71267,0.65399 -1.65478,0.56543 -3.41415,-0.38959 -5.11389,-0.42587 -2.69548,-0.27121 -5.92399,-0.57004 -8.09534,1.37123 -1.61317,2.28981 -2.66873,5.05183 -2.9656,7.84136 -0.11318,1.25533 0.0607,2.606 -0.20073,3.80737 -0.93036,1.06094 -0.11998,2.73568 0.67342,3.65843 2.7201,1.68167 6.11733,1.53092 9.21408,1.56698 3.77043,-0.095 8.12441,0.0487 11.01416,-2.80372 0.96215,-1.0113 2.32946,-1.14619 3.63902,-1.172 1.53343,-0.53923 2.52204,-2.20642 4.27357,-2.24039 4.84433,-0.65028 9.41143,-2.77245 14.20639,-3.41885 1.48695,-0.6359 3.71436,-1.49519 3.56132,-3.45771 -0.85878,-2.0337 -2.98558,-3.17501 -4.78511,-4.27358 -2.78249,-1.11565 -5.90002,-0.78753 -8.83821,-1.03 -2.28902,-0.0776 -4.58027,-0.0905 -6.87041,-0.0772 z"
         style="fill:#666666;fill-opacity:1;stroke:#666666;stroke-width:0.20720357;stroke-opacity:1" />
      <path
         inkscape:connector-curvature="0"
         id="path3033"
         d="m 321.51127,669.1008 c -1.8069,0.0538 -3.87711,-0.13638 -5.20293,1.36334 -0.88181,0.76515 -2.21722,1.75155 -1.57651,3.09154 1.46423,3.30783 1.02802,7.28648 3.21223,10.33463 0.48861,0.78876 1.13852,1.6646 2.10384,1.79325 1.19471,1.65293 3.55766,1.46789 5.37338,1.75529 10.2674,0.67342 20.59282,0.59174 30.85384,-0.15713 2.2702,-0.14025 4.74664,-0.48643 6.30778,-2.33632 1.32613,-1.19139 -0.0633,-2.86572 -1.01659,-3.76852 -3.19333,-3.33959 -8.0217,-4.0632 -12.21938,-5.48055 -6.0983,-1.66623 -11.89529,-4.33378 -18.02586,-5.89622 -3.20938,-0.73133 -6.53329,-0.70778 -9.8098,-0.69931 z"
         style="fill:#666666;fill-opacity:1;stroke:#666666;stroke-width:0.20720357;stroke-opacity:1" />
      <path
         inkscape:connector-curvature="0"
         id="path3035"
         d="m 409.43681,666.85394 c -2.33049,-0.0306 -4.91427,0.13837 -6.60006,1.97377 -3.6513,2.88408 -8.24199,4.24029 -12.61077,5.54655 -2.35535,0.73129 -5.01098,0.85125 -7.01337,2.41897 -2.65266,0.68821 -5.62109,0.91806 -7.80898,2.75192 -1.14863,1.48033 -1.76137,3.66201 -1.1202,5.47147 1.57002,1.89483 4.26367,2.27864 6.56438,2.63988 9.09877,0.43191 18.21975,0.16447 27.32613,0.093 4.10397,-0.15409 8.24825,0.0132 12.32236,-0.53136 1.80467,-0.76028 2.9908,-2.69286 3.46418,-4.53258 -0.27906,-1.55558 1.43378,-2.52809 1.57346,-4.03399 0.39572,-2.31333 -0.0634,-4.74564 0.77054,-6.98665 0.3262,-2.18596 -2.10587,-3.45449 -3.91097,-3.86564 -4.22909,-0.91193 -8.6339,-0.95348 -12.9567,-0.94536 z"
         style="fill:#666666;fill-opacity:1;stroke:#666666;stroke-width:0.20720357;stroke-opacity:1" />
      <path
         inkscape:connector-curvature="0"
         id="path3037"
         d="m 365.36073,653.16555 c -4.08097,-0.2083 -7.75309,1.78043 -11.60818,2.76672 -4.35439,1.23969 -8.96239,2.49352 -12.50514,5.44372 -0.56203,1.1575 1.01684,2.00289 1.78066,2.61595 4.76452,2.48349 10.045,3.75892 15.11673,5.46755 4.34827,1.33545 8.96604,2.95185 13.55506,1.93997 3.61148,-0.92623 7.21633,-2.09285 10.92351,-2.57062 1.33519,-0.5073 2.45236,-1.52504 3.9304,-1.6382 2.56021,-0.69355 5.53365,-1.39306 7.16795,-3.65844 0.86787,-1.59091 -0.98816,-2.80699 -2.21449,-3.42533 -4.7438,-2.28939 -9.95819,-3.38348 -14.91275,-5.10944 -3.64329,-1.10251 -7.4041,-1.93043 -11.23375,-1.83188 z"
         style="fill:#666666;fill-opacity:1;stroke:#666666;stroke-width:0.20720357;stroke-opacity:1" />
      <path
         inkscape:connector-curvature="0"
         id="path3039"
         d="m 378.64766,638.46057 c -2.03521,0.38676 -4.07973,1.25548 -5.6722,2.59005 -0.79948,1.03775 0.6804,2.00418 1.2497,2.74544 1.70407,1.84625 3.88764,3.14011 6.32473,3.76241 5.22426,1.86248 10.79811,2.81073 15.85252,5.0308 2.87302,1.31208 5.01983,4.09453 8.17159,4.8887 5.57871,0.58692 11.22137,0.28227 16.81587,0.0453 1.21257,-0.1176 2.87728,0.0754 3.32173,-1.39215 0.554,-1.36508 1.41914,-3.04482 0.75111,-4.49373 -1.00708,-0.40048 -0.38947,-1.68198 -0.59752,-2.50534 0.0562,-1.36251 -0.91493,-2.34814 -1.85007,-3.17333 -1.63003,-2.28317 -2.56858,-5.43143 -5.43909,-6.48806 -3.68317,-0.81513 -7.51902,-0.44877 -11.26648,-0.64187 -8.10066,-0.0399 -16.21227,-0.44927 -24.30779,-0.0833 -0.73772,-0.039 -1.69026,0.65384 -2.22096,-0.0907 -0.33925,-0.20021 -0.74867,-0.22153 -1.13314,-0.19426 z"
         style="fill:#666666;fill-opacity:1;stroke:#666666;stroke-width:0.20720357;stroke-opacity:1" />
      <path
         inkscape:connector-curvature="0"
         id="path3041"
         d="m 444.64847,649.60424 c -1.35753,-0.0519 -3.35234,0.21039 -3.43829,1.93606 -0.17994,1.62562 0.50235,3.38937 -0.47916,4.85633 -0.18417,0.57004 0.63128,0.74827 0.0583,1.2238 -0.86877,3.21119 -0.34052,6.62394 -0.38375,9.91272 0.12984,2.80138 0.0649,5.66065 0.41948,8.42167 2.29131,1.46943 5.28595,1.37014 7.96093,1.31764 1.20791,-0.19135 2.75735,0.23313 3.74272,-0.62168 1.20486,-1.99027 -0.26533,-4.34545 0.0259,-6.44274 1.56932,-4.19479 0.92325,-8.76768 1.24322,-13.14447 0.19278,-1.99568 -0.58722,-4.03284 -1.65116,-5.69163 -1.76314,-2.15673 -5.04497,-1.67847 -7.49817,-1.7677 z"
         style="fill:#666666;fill-opacity:1;stroke:#666666;stroke-width:0.20720357;stroke-opacity:1" />
      <path
         inkscape:connector-curvature="0"
         id="path3043"
         d="m 467.39553,649.53949 c -1.5549,-0.0869 -3.63352,0.30491 -3.95629,2.13031 -0.62487,3.7521 -0.3024,7.604 -0.43141,11.39619 0.0988,4.18049 -0.13395,8.42928 0.60624,12.55525 0.90946,1.3207 2.83855,1.26562 4.26062,1.62525 2.12164,0.25744 4.45277,0.44848 6.45569,-0.39498 1.00133,-0.83362 1.38939,-2.191 2.02023,-3.29583 0.50012,-3.12827 -0.11316,-6.30761 -0.45973,-9.40187 0.28444,-0.64821 0.70129,-1.30026 0.57628,-2.09146 0.19706,-3.53159 -0.48068,-7.07398 -1.81303,-10.3278 -1.54368,-2.29324 -4.8191,-2.15709 -7.2586,-2.19506 z"
         style="fill:#666666;fill-opacity:1;stroke:#666666;stroke-width:0.20720357;stroke-opacity:1" />
      <path
         inkscape:connector-curvature="0"
         id="path3045"
         d="m 488.90585,649.45531 c -1.9466,-0.20916 -4.40328,1.16717 -4.03955,3.3734 -0.0764,1.78148 0.82437,3.69926 -0.13042,5.34858 -0.41311,1.48114 -0.0567,3.04336 0.63456,4.3707 0.22738,2.61019 -0.32674,5.18742 -0.64751,7.74423 0.39249,1.38148 0.68841,2.81677 1.19789,4.15702 1.89488,3.11076 6.24977,4.25768 9.51842,2.77782 2.39437,-1.61847 3.59454,-4.44461 3.74526,-7.26389 0.49104,-5.66185 -0.0828,-11.36405 -0.69548,-16.99187 -0.065,-1.30032 -0.82776,-2.64856 -2.27277,-2.7066 -2.38852,-0.5573 -4.85601,-0.81637 -7.3104,-0.80939 z"
         style="fill:#666666;fill-opacity:1;stroke:#666666;stroke-width:0.20720357;stroke-opacity:1" />
      <path
         inkscape:connector-curvature="0"
         id="path3047"
         d="m 512.75369,649.97332 c -2.00598,-0.16762 -4.2883,0.88701 -4.65561,3.03683 -0.71982,3.40032 -0.33622,6.93633 -0.47268,10.39255 0.11714,3.5896 -0.22235,7.24039 0.42088,10.78754 0.52873,2.50496 3.37273,3.46396 5.61392,3.73614 2.97113,0.10132 5.82333,-1.38473 8.00324,-3.30231 0.72391,-0.58079 0.74393,-1.65667 -0.14245,-2.08499 -0.44166,-2.00514 -0.27026,-4.18282 -0.0777,-6.23553 0.26677,-0.86392 0.15472,-1.72549 -0.23311,-2.50587 0.0275,-1.51372 -1.18973,-2.86703 -0.60687,-4.37315 0.67615,-2.71371 0.51174,-5.67987 -0.57807,-8.25331 -1.25485,-1.47056 -3.45951,-1.04887 -5.18657,-1.20437 -0.69496,0.004 -1.39012,-0.008 -2.08498,0.006 z"
         style="fill:#666666;fill-opacity:1;stroke:#666666;stroke-width:0.20720357;stroke-opacity:1" />
      <path
         inkscape:connector-curvature="0"
         id="path3049"
         d="m 244.08189,647.91423 c -1.46519,0.0717 -3.64464,0.0171 -4.09227,1.80656 -0.6808,2.34121 -0.14591,4.80898 0.49859,7.06435 -0.0701,1.1217 -1.04581,2.04643 -0.75759,3.24403 0.0741,2.10541 0.64682,4.25212 -0.0971,6.28733 -0.24754,1.01197 1.01644,1.51969 0.91299,2.55119 0.25623,1.7734 -0.0332,3.91958 1.54108,5.18009 2.44565,1.86039 5.81679,1.86514 8.72845,1.42453 1.3532,-0.50762 1.21963,-2.39611 1.59886,-3.55773 0.60554,-3.32219 1.07329,-6.74702 0.43432,-10.09181 -0.44272,-3.75785 -0.19936,-7.60573 -0.80939,-11.32497 -0.91519,-2.01888 -3.49549,-2.24319 -5.43261,-2.51881 -0.83891,-0.0727 -1.68375,-0.0978 -2.5253,-0.0648 z"
         style="fill:#666666;fill-opacity:1;stroke:#666666;stroke-width:0.20720357;stroke-opacity:1" />
      <path
         inkscape:connector-curvature="0"
         id="path3051"
         d="m 222.18954,647.81711 c -2.14201,0.0709 -4.65202,1.08242 -5.03763,3.45771 -0.66446,3.26969 -0.57383,6.74909 0.0259,10.02994 0.22547,0.74847 0.91021,1.76358 0.0259,2.33104 -0.74195,1.68365 0.0656,3.60695 0.0772,5.37032 0.22232,1.41459 0.04,3.20065 1.50924,3.9927 2.01798,1.69009 4.69502,2.49989 7.32982,2.17563 1.90045,0.0589 4.08823,-0.79856 4.51963,-2.862 0.29564,-1.10219 0.009,-2.25457 -0.43383,-3.26345 1.09144,-0.92068 0.46389,-2.60456 0.49739,-3.83871 -0.0477,-1.86971 -1.21848,-3.46764 -0.97655,-5.35595 0.11895,-1.63894 0.47897,-3.30826 -0.24605,-4.88223 -0.69609,-1.90318 -0.5685,-4.37244 -2.4735,-5.63335 -1.37797,-1.0007 -3.10027,-1.59689 -4.81748,-1.52165 z"
         style="fill:#666666;fill-opacity:1;stroke:#666666;stroke-width:0.20720357;stroke-opacity:1" />
      <path
         inkscape:connector-curvature="0"
         id="path3053"
         d="m 199.79861,646.95592 c -2.04204,-0.0376 -4.85691,0.82221 -5.09592,3.20518 -0.21731,5.64577 -0.33674,11.30932 -0.19425,16.95831 0.2437,1.89849 1.34675,3.55612 1.92311,5.36787 0.77834,1.36969 2.3554,2.15626 3.79441,2.64832 2.2224,0.22173 4.80582,-0.26842 6.40389,-1.92311 1.05403,-2.22864 0.31251,-4.94344 1.46985,-7.13557 0.11702,-1.58547 -0.9788,-2.99296 -0.80939,-4.6038 -0.20531,-2.70941 0.35114,-5.59112 -0.86119,-8.12627 -0.26439,-1.48409 0.3658,-3.36173 -1.06192,-4.43545 -1.5516,-1.29073 -3.53723,-2.04481 -5.56859,-1.95548 z"
         style="fill:#666666;fill-opacity:1;stroke:#666666;stroke-width:0.20720357;stroke-opacity:1" />
      <path
         inkscape:connector-curvature="0"
         id="path3055"
         d="m 177.01269,647.01419 c -1.64601,0.0942 -3.65849,0.61196 -4.5261,2.13032 -0.38362,2.7997 -0.25682,5.65256 -0.49859,8.46944 0.15709,3.18835 1.13633,6.34103 0.50506,9.55079 -0.16219,0.8632 -0.1134,1.73713 0.23311,2.51234 -0.10734,2.19242 1.40022,4.24139 3.38,5.05707 2.67735,0.61494 5.7058,0.24804 8.04857,-1.21733 1.90956,-1.54805 1.52232,-4.33308 1.53666,-6.52662 -0.0507,-1.6197 -0.29527,-3.29058 -0.8503,-4.77244 0.27231,-1.68785 0.9734,-3.57219 -0.12303,-5.13477 -0.38361,-0.69866 -0.97529,-1.47291 -0.47916,-2.27924 0.37034,-1.7914 0.51654,-3.94854 -1.04249,-5.25131 -1.55185,-1.74314 -3.85639,-2.6697 -6.18373,-2.53825 z"
         style="fill:#666666;fill-opacity:1;stroke:#666666;stroke-width:0.20720357;stroke-opacity:1" />
      <path
         inkscape:connector-curvature="0"
         id="path3057"
         d="m 153.28141,646.89764 c -1.49815,-0.0195 -3.45039,0.61487 -3.54836,2.37637 -0.98718,2.15197 0.1663,4.41853 0.11823,6.63647 0.26628,2.91739 0.3228,5.84485 0.0954,8.76134 0.0759,2.6798 0.52725,5.42746 1.59287,7.88669 2.21159,2.28752 5.76012,2.11087 8.69608,1.98786 1.67651,-0.13229 3.23476,-1.60446 3.53541,-3.23756 0.0557,-2.07415 -0.79596,-4.22194 0.1295,-6.21611 0.53649,-1.3793 -0.6935,-2.41679 -1.49575,-3.34763 -0.84617,-1.01154 -0.68697,-2.49797 0.1295,-3.50303 0.7885,-2.42864 0.239,-5.14676 -0.67989,-7.46581 -1.51647,-3.04596 -5.48274,-3.84928 -8.57304,-3.87859 z"
         style="fill:#666666;fill-opacity:1;stroke:#666666;stroke-width:0.20720357;stroke-opacity:1" />
      <path
         inkscape:connector-curvature="0"
         id="path3061"
         d="m 110.23487,645.32419 c 0.1368,1.79174 -1.09036,3.70566 -2.97855,3.86564 -2.15498,0.82584 -1.93612,3.59012 -2.07851,5.47795 -0.079,4.03626 -0.0936,8.0843 -0.0259,12.11493 0.88623,1.62219 1.20062,3.42436 1.59287,5.19304 0.73937,2.11588 3.38717,1.97376 5.20599,2.01376 1.87549,-0.12392 4.37701,0.44828 5.6722,-1.28855 0.42673,-1.02272 -1.13745,-2.30626 0.0971,-3.10158 0.58843,-0.85956 1.60735,-1.96713 1.21084,-3.07568 -0.37822,-0.33937 -0.8602,-0.18945 -0.60218,-0.86119 0.16827,-1.34129 -0.75908,-2.59764 -0.59571,-3.89801 1.39193,-1.59298 1.0973,-3.93952 1.01011,-5.9312 -0.25257,-3.13224 -1.6298,-6.04259 -2.60947,-8.94213 -1.31969,-1.05881 -3.32306,-0.3913 -4.67076,-1.48375 -0.37413,-0.2386 -0.89898,-0.58883 -1.22806,-0.0832 z"
         style="fill:#666666;fill-opacity:1;stroke:#666666;stroke-width:0.20720357;stroke-opacity:1" />
      <path
         inkscape:connector-curvature="0"
         id="path3063"
         d="m 132.59343,646.93002 c -2.04314,-0.005 -4.68404,0.48215 -5.52975,2.59004 0.85562,6.60751 0.82105,13.3475 1.28207,20.0081 0.26914,1.27512 -0.4064,3.23793 1.1461,3.85269 2.79166,1.40227 6.0936,1.43239 9.11696,0.95831 2.00949,-0.70581 2.59314,-3.21586 2.56414,-5.12828 -0.0314,-3.59388 -1.60082,-6.91311 -2.20154,-10.37961 0.4705,-1.3984 2.36136,-2.2618 2.13679,-3.86564 -0.17103,-0.7469 -1.70071,-0.88529 -1.0943,-1.72885 0.15451,-1.7185 -0.93869,-3.31674 -1.9749,-4.60381 -1.37418,-1.51128 -3.51924,-1.76525 -5.44557,-1.70295 z"
         style="fill:#666666;fill-opacity:1;stroke:#666666;stroke-width:0.20720357;stroke-opacity:1" />
      <path
         inkscape:connector-curvature="0"
         id="path3065"
         d="m 88.161213,646.57389 c -1.038868,0.1042 -2.751256,0.33369 -2.31809,1.78713 0.144381,0.9683 -0.08054,2.10387 -1.171995,2.36989 -0.930237,0.49895 -2.574488,0.63745 -2.210991,2.07801 -0.133629,4.50689 -0.622827,9.20024 1.032521,13.50111 0.589915,2.00734 -1.141318,4.4175 0.427357,6.17078 1.3924,1.31506 3.421527,1.58574 5.173614,2.11736 2.116279,-0.1182 4.41932,-0.30478 6.248483,-1.4569 1.61103,-1.27693 0.273183,-3.42171 0.362606,-5.07001 0.240179,-3.75684 0.960226,-7.60156 0.226629,-11.33792 -0.116966,-1.11601 -1.612685,-1.89622 -0.900041,-3.08863 0.702656,-1.43956 0.90747,-3.22569 -0.220153,-4.51315 -1.496716,-1.94668 -4.316433,-2.54979 -6.64994,-2.55767 z"
         style="fill:#666666;fill-opacity:1;stroke:#666666;stroke-width:0.20720357;stroke-opacity:1" />
      <path
         inkscape:connector-curvature="0"
         id="path3067"
         d="m 65.193994,646.72281 c -1.331129,-0.0873 -2.575063,0.66163 -2.997977,1.94901 -1.306097,2.60355 -2.304961,5.52351 -1.677568,8.46612 0.568643,4.48501 0.342379,9.05946 1.114233,13.51041 0.473072,2.24514 2.856492,3.41552 5.004569,3.35808 1.814923,0.0486 3.783431,0.49393 5.511012,-0.19823 0.86294,-0.78487 -0.241103,-2.24526 0.828814,-2.95912 1.132057,-1.14415 2.716621,-3.03233 1.521651,-4.64266 -0.641924,-0.45087 -0.125922,-1.4916 -0.466208,-2.14973 -0.213861,-0.62174 -0.537049,-1.26203 0.01528,-1.83293 1.483475,-2.07916 0.110818,-4.55531 -0.449116,-6.69479 -0.635713,-1.77966 -0.01255,-3.62713 0.103602,-5.41967 -0.434407,-1.6272 -2.400548,-2.04772 -3.77499,-2.63537 -1.523601,-0.49759 -3.125573,-0.79889 -4.733306,-0.75112 z"
         style="fill:#666666;fill-opacity:1;stroke:#666666;stroke-width:0.20720357;stroke-opacity:1" />
      <path
         inkscape:connector-curvature="0"
         id="path3069"
         d="m 534.50197,649.67832 c -2.14689,-0.13164 -4.84856,0.92453 -4.34051,3.57131 -0.29715,7.2149 -1.24486,14.64105 0.0183,21.77579 2.03495,3.01566 6.53938,2.50252 9.76156,2.56402 4.84209,0.92139 2.36368,-4.97716 2.94862,-7.72867 -0.42093,-5.25037 0.85921,-10.93273 -0.89741,-15.95183 -1.16899,-1.14825 -0.80502,-3.39156 -3.00356,-3.60793 -1.43354,-0.49739 -2.9683,-0.67887 -4.48702,-0.62269 z"
         style="fill:#666666;fill-opacity:1;stroke:#666666;stroke-width:0.58606017;stroke-opacity:1" />
      <path
         inkscape:connector-curvature="0"
         id="path3071"
         d="m 556.24114,650.1545 c -2.50658,-0.52195 -4.64618,1.41457 -4.08411,3.99253 -0.12593,7.13614 -0.88648,14.53243 0.29303,21.53771 2.0872,3.33335 7.07526,2.49294 10.311,1.68492 3.3833,-2.15666 2.05629,-7.14501 2.58233,-10.53076 -0.0482,-4.03851 0.26026,-8.14481 -0.0183,-12.14244 -1.9445,-2.58265 -4.42464,-5.35555 -8.04001,-4.56028 l -0.58597,0.0103 -0.45795,0.008 z"
         style="fill:#666666;fill-opacity:1;stroke:#666666;stroke-width:0.58606017;stroke-opacity:1" />
      <path
         inkscape:connector-curvature="0"
         id="path3073"
         d="m 578.87771,650.00798 c -3.01797,-0.45625 -5.46684,2.01093 -5.10971,4.9632 -0.45872,7.18415 -0.3378,14.63381 1.28201,21.61097 3.61342,1.65994 8.52915,2.00311 11.99592,-0.1282 1.85381,-2.16133 -0.1321,-5.33635 0.42123,-7.8935 -0.48978,-5.57556 0.56591,-11.55587 -1.20875,-16.88586 -1.68125,-2.14857 -4.99324,-1.57115 -7.3807,-1.66661 z"
         style="fill:#666666;fill-opacity:1;stroke:#666666;stroke-width:0.58606017;stroke-opacity:1" />
      <path
         inkscape:connector-curvature="0"
         id="path3075"
         d="m 600.06745,650.06292 c -4.29515,-0.20943 -4.04597,5.20787 -4.08141,8.13138 0.0194,5.98179 -0.77945,12.34873 1.05954,18.11313 2.57368,2.32645 6.77165,2.38862 10.07291,2.12447 3.26728,-1.56183 1.86162,-6.25228 2.32592,-9.13888 -0.0789,-3.84361 0.20143,-7.77941 0.58606,-11.53806 -1.03083,-0.76186 -2.63452,-0.99436 -2.91198,-2.6739 -0.26425,-1.9765 -0.62352,-4.50519 -3.11345,-4.78005 -1.29058,-0.28386 -2.62317,-0.28993 -3.93759,-0.23809 z"
         style="fill:#666666;fill-opacity:1;stroke:#666666;stroke-width:0.58606017;stroke-opacity:1" />
      <path
         inkscape:connector-curvature="0"
         id="path3077"
         d="m 623.8212,649.97135 c -3.11282,-0.24331 -5.97309,1.93967 -5.91554,5.20129 -0.55821,6.9207 -0.71927,14.17457 1.0256,20.91502 1.95048,3.48443 7.04653,2.36448 10.25606,1.68492 3.24265,-1.40742 1.99893,-6.00737 2.39918,-8.82753 -0.63461,-5.86953 1.16627,-13.07627 -2.85704,-17.94809 -1.39262,-1.01167 -3.24731,-1.07134 -4.90826,-1.02561 z"
         style="fill:#666666;fill-opacity:1;stroke:#666666;stroke-width:0.58606017;stroke-opacity:1" />
      <path
         inkscape:connector-curvature="0"
         id="path3079"
         d="m 644.79117,650.17281 c -2.31305,-0.20623 -5.02975,0.69679 -4.9632,3.4431 -1.24134,7.77243 -0.95215,15.97128 0.56775,23.57061 4.28749,1.4642 10.51805,3.07227 13.58711,-1.42636 0.89831,-4.8964 -0.16031,-10.44103 -0.10773,-15.5877 -0.6803,-3.09749 1.17292,-8.31639 -3.04019,-9.39528 -1.94114,-0.60041 -4.02567,-0.64477 -6.04374,-0.60437 z"
         style="fill:#666666;fill-opacity:1;stroke:#666666;stroke-width:0.58606017;stroke-opacity:1" />
      <path
         inkscape:connector-curvature="0"
         id="path3081"
         d="m 662.666,650.88707 c -2.51309,5.86069 -1.14953,12.55167 -1.32528,18.75293 0.14104,3.18424 -0.1663,8.43312 4.23727,8.70033 3.15581,0.3231 7.34902,-0.31305 7.7653,-4.17568 0.55779,-7.23169 0.61528,-14.79745 -1.17212,-21.83074 -2.38969,-2.00846 -6.75899,-1.59015 -9.50517,-1.44684 z"
         style="fill:#666666;fill-opacity:1;stroke:#666666;stroke-width:0.58606017;stroke-opacity:1" />
      <g
         transform="translate(0,127.27922)"
         id="g3018">
        <path
           sodipodi:nodetypes="cssscsssccscsscssccssccssscccsccscccccsccsscccscccsssssssssccccsccscssscssccssscccsssscsscsccssscsccsssccssssccssscscscssssscssscssssssscssssssssssssscssssscssccscsssssscsscsssscsscsscsssccscsccsscsscscscsscssscssscccscscssccsssccssccscssssscssssssccccsscsscccssssscsccccsccccsscccsscssssssccsscccscsssscccssscsssssscssscccsccsssssscscsscccsscssssscscssscssssscccscccccsccssssssscssssscsssscccsscscsssssscscssscssssccsssssssscsssscsscccsssssccssssccscccsscsssscsssccsscscccsscssssccscscccccsccccsccsccccssccccsccsssscsccssccscscssssscssccssssscscssssscssccsccsssscccscsccccssscssscccscsscccscsscssssccccssssssssscsscscccsccsssssccsccscsccccsssssscsccsscccscssscssscssccscccscsssssscssccscccsscscssssscscssccsssssssssscssssssssssssssssssscscssssscsssssccscssssssssssssssssssscsssssscsssscsssssssscssssssssssscssssscssssssssssccsssssssscsssscsscc"
           inkscape:connector-curvature="0"
           id="path3020"
           d="m 360.88921,575.32685 c -0.18405,-0.29779 -2.61476,-0.48848 -5.40158,-0.42376 -2.78682,0.0647 -5.06729,-0.009 -5.06772,-0.16483 -4.3e-4,-0.15538 -2.53355,-0.30696 -5.62918,-0.33685 -3.94266,-0.0381 -5.5174,0.13116 -5.2578,0.56502 0.20383,0.34064 -0.10094,0.23796 -0.67727,-0.22817 -0.79901,-0.64624 -1.10432,-0.6798 -1.28557,-0.14126 -0.13074,0.38845 -0.74004,0.70627 -1.354,0.70627 -0.61396,0 -0.97675,-0.22578 -0.8062,-0.50173 0.17055,-0.27596 -0.45009,-0.6133 -1.37919,-0.74967 -0.9291,-0.13636 -1.68928,-0.008 -1.68928,0.2851 0,0.29316 -0.63564,0.41151 -1.41254,0.263 -0.77689,-0.14852 -1.41253,-0.0979 -1.41253,0.11235 0,0.48551 -3.89755,0.27776 -5.2834,-0.28162 -0.64227,-0.25924 -1.21543,-0.14767 -1.4854,0.28916 -0.28396,0.45945 -0.51382,0.49745 -0.64924,0.10735 -0.13879,-0.3998 -0.91858,-0.44316 -2.30701,-0.12828 -1.48291,0.33631 -2.06225,0.2876 -1.97755,-0.16627 0.0766,-0.41037 -0.75017,-0.60431 -2.29199,-0.53765 -1.37663,0.0595 -2.27173,-0.12237 -2.08546,-0.42376 0.17949,-0.29042 0.0571,-0.52804 -0.27202,-0.52804 -0.32909,0 -0.60644,0.31782 -0.61632,0.70627 -0.011,0.43133 -0.31017,0.32135 -0.76856,-0.28251 -0.41283,-0.54382 -1.13322,-0.98877 -1.60088,-0.98877 -0.46766,0 -1.47672,-0.49275 -2.24236,-1.095 -0.76564,-0.60226 -2.07446,-1.26627 -2.90848,-1.4756 -0.83403,-0.20933 -1.70386,-0.67004 -1.93296,-1.0238 -0.2291,-0.35377 -0.73437,-0.66863 -1.12281,-0.69971 -0.38845,-0.0311 -1.22979,-0.0946 -1.86965,-0.14125 -0.63985,-0.0466 -1.00803,-0.3361 -0.81817,-0.6433 0.19405,-0.31398 -0.0196,-0.41855 -0.48798,-0.23882 -0.45825,0.17585 -0.97199,0.68145 -1.14165,1.12356 -0.16965,0.44211 -0.71282,0.80383 -1.20705,0.80383 -0.49423,0 -0.74326,-0.25134 -0.55341,-0.55854 0.19795,-0.32028 -0.0289,-0.415 -0.53166,-0.22206 -0.48228,0.18507 -1.32182,0.13886 -1.86565,-0.10271 -1.48475,-0.65949 -5.79014,-0.64459 -5.80004,0.0201 -0.005,0.3194 -0.21578,0.25429 -0.46894,-0.14468 -0.25315,-0.39897 -0.88344,-0.56302 -1.40064,-0.36455 -0.51719,0.19846 -0.81614,0.56181 -0.66434,0.80745 0.32913,0.53253 -1.4301,1.3008 -1.9008,0.8301 -0.17959,-0.1796 0.0475,-0.57054 0.50463,-0.86878 0.58077,-0.3789 0.15032,-0.47191 -1.4289,-0.30876 -1.24303,0.12842 -2.55524,-0.007 -2.91602,-0.30199 -0.41476,-0.33857 -0.78115,-0.33293 -0.99639,0.0154 -0.20843,0.33723 -0.99474,0.36317 -2.02785,0.0669 -0.98712,-0.2831 -1.68743,-0.27163 -1.68743,0.0276 0,0.29841 -0.53446,0.30839 -1.28259,0.024 -0.74682,-0.28394 -2.66262,-0.24988 -4.58627,0.0815 -2.45163,0.42238 -3.40948,0.39799 -3.71391,-0.0946 -0.22563,-0.36507 -1.14932,-0.55706 -2.05264,-0.42663 -0.90333,0.13043 -1.94323,3.3e-4 -2.31088,-0.28911 -0.44411,-0.34963 -1.06042,-0.1343 -1.8363,0.64158 -1.14502,1.14502 -2.05724,1.5848 -1.53519,0.74011 0.14539,-0.23525 -2.19147,-0.39793 -5.19304,-0.36152 -3.00156,0.0364 -6.07086,-0.16194 -6.82067,-0.44079 -0.86738,-0.32258 -1.57645,-0.29384 -1.9493,0.079 -0.88728,0.88728 -2.066,0.70698 -1.6952,-0.25931 0.25888,-0.67465 -0.0161,-0.77723 -1.36175,-0.50809 -1.00936,0.20187 -1.8472,0.0766 -2.08745,-0.31215 -0.29824,-0.48257 -0.59844,-0.48579 -1.16868,-0.0125 -0.42203,0.35026 -1.9885,0.68464 -3.48103,0.74307 -1.49254,0.0584 -2.97824,0.27479 -3.30158,0.4808 -0.32333,0.20602 -1.39867,-0.0181 -2.38965,-0.49805 -1.03704,-0.50225 -2.22638,-0.69654 -2.8022,-0.45775 -1.84242,0.76401 -4.03193,0.72823 -4.33858,-0.0709 -0.16444,-0.4285 -0.57623,-0.77912 -0.91508,-0.77912 -0.33885,0 -0.47572,0.22714 -0.30414,0.50475 0.48728,0.78843 -2.1304,1.21894 -4.05519,0.66692 -1.20787,-0.34642 -2.18022,-0.26789 -3.19371,0.25791 -1.2719,0.65987 -1.52767,0.63502 -2.01218,-0.19555 -0.50981,-0.87395 -0.55646,-0.8682 -0.57224,0.0706 -0.009,0.56217 -0.27558,0.86242 -0.59141,0.66723 -0.31583,-0.19519 -0.42975,-0.58867 -0.25316,-0.8744 0.17658,-0.28572 -0.01,-0.41652 -0.41455,-0.29066 -2.89599,0.90092 -3.97684,0.92149 -3.64988,0.0694 0.25724,-0.67036 -0.0578,-0.87623 -1.34107,-0.87623 -0.92252,0 -1.67731,0.25426 -1.67731,0.56502 0,0.31075 0.29663,0.56501 0.65919,0.56501 0.36254,0 0.49782,0.16135 0.30062,0.35856 -0.19721,0.19721 -1.1763,0.0198 -2.17576,-0.39415 -1.35877,-0.56282 -1.87287,-0.5857 -2.03788,-0.0907 -0.16434,0.49302 -0.53444,0.47351 -1.44974,-0.0764 -1.38425,-0.83166 -3.73408,-0.79915 -6.45546,0.0893 -1.00996,0.32973 -1.8363,0.38108 -1.8363,0.11412 0,-0.26696 -5.10855,-0.43853 -11.35235,-0.38126 -6.24379,0.0573 -11.48176,-0.10529 -11.63994,-0.36122 -0.15817,-0.25594 -0.64326,-0.32885 -1.07796,-0.16204 -0.43471,0.16681 -0.79037,0.1046 -0.79037,-0.13824 0,-0.24284 -1.33485,-0.38578 -2.96633,-0.31763 -1.63147,0.0681 -2.96632,0.17797 -2.96632,0.24407 0,0.0661 -1.52554,0.18398 -3.39008,0.26196 -1.86455,0.078 -3.77147,0.29631 -4.23761,0.48517 -0.68918,0.27921 -3.10758,0.12624 -3.10758,-0.19657 0,-0.0476 -0.38138,-0.16957 -0.84752,-0.27115 -0.46614,-0.10158 -1.29535,-0.36469 -1.8427,-0.58469 -0.79876,-0.32106 -0.91728,-0.19243 -0.60048,0.65167 0.31826,0.84802 0.23744,0.9331 -0.41736,0.43932 -0.47185,-0.35582 -3.10523,-0.5798 -6.28577,-0.53462 -3.01055,0.0428 -5.34741,-0.12662 -5.19304,-0.37641 0.15438,-0.24978 0.0114,-0.45415 -0.31767,-0.45415 -0.3291,0 -0.59836,0.23891 -0.59836,0.5309 0,0.93191 -4.17331,0.96081 -4.92591,0.0341 -0.60193,-0.74117 -0.69055,-0.72345 -0.70627,0.14125 -0.0206,1.13538 -0.93702,1.33583 -1.29154,0.28251 -0.1873,-0.55653 -0.42921,-0.54821 -1.14099,0.0392 -0.62811,0.51837 -1.21552,0.57935 -1.92818,0.20016 -1.33784,-0.71183 -7.03778,-1.05572 -7.94631,-0.47942 -0.40244,0.25527 -0.70627,0.19059 -0.70627,-0.15036 0,-0.84144 -2.10483,-0.74883 -2.45247,0.10791 -0.20286,0.49996 -0.42292,0.52571 -0.75335,0.0882 -0.61605,-0.81576 -5.59353,-0.56769 -6.67863,0.33286 -0.49015,0.40679 -0.85082,0.46262 -0.85082,0.13169 0,-0.31593 -0.57208,-0.5906 -1.27128,-0.61036 -3.074648,-0.0869 -6.529722,-0.51444 -7.123526,-0.88143 -0.354983,-0.21941 -0.645423,-0.15931 -0.645423,0.13354 0,0.29286 -0.508513,0.66544 -1.130029,0.82798 -0.621515,0.16253 -1.130028,0.10954 -1.130028,-0.11775 0,-0.22729 -0.826333,-0.4127 -1.836296,-0.41201 -5.294703,0.003 -14.057132,-0.38339 -16.653031,-0.73549 -1.938277,-0.2629 -3.03876,-0.19104 -3.205817,0.20935 -0.170298,0.40816 -0.420874,0.37431 -0.758091,-0.1024 -0.332676,-0.47029 -2.505612,-0.78144 -6.399425,-0.91635 -6.702874,-0.23222 -7.755783,-0.53158 -8.469148,-2.40787 -0.280126,-0.73679 -0.705597,-1.27419 -0.945492,-1.19422 -0.46145,0.15381 -0.71868,-0.31166 -0.71868,-1.30049 0,-0.3291 0.246908,-0.44577 0.548683,-0.25926 0.320519,0.19809 0.517032,-0.5028 0.472571,-1.68548 -0.04186,-1.11353 -0.288769,-2.15602 -0.548683,-2.31666 -0.259914,-0.16063 -0.472571,-1.16696 -0.472571,-2.23627 0,-1.11186 -0.284057,-1.9442 -0.663504,-1.9442 -0.364927,0 -0.137939,-0.57208 0.504418,-1.27128 0.837497,-0.91162 1.041396,-1.60113 0.720701,-2.43717 -0.245973,-0.64124 -0.364828,-2.84607 -0.264123,-4.89962 0.138148,-2.81711 -0.01227,-3.80871 -0.612685,-4.03911 -0.442623,-0.16985 -0.64781,-0.69099 -0.462352,-1.17428 0.197963,-0.51588 0.02192,-0.87589 -0.433286,-0.88609 -0.556225,-0.0125 -0.51984,-0.16154 0.132532,-0.54299 0.62202,-0.36371 0.828204,-1.09871 0.668798,-2.38413 -0.126749,-1.02208 -0.208455,-2.55753 -0.181568,-3.41211 0.258909,-8.22942 0.0092,-13.08032 -0.695828,-13.51604 -0.432978,-0.26759 -0.391929,-0.65432 0.137115,-1.29178 0.595392,-0.7174 0.613599,-1.17466 0.08608,-2.16187 -0.367962,-0.68861 -0.565815,-1.88766 -0.439674,-2.66455 0.12614,-0.7769 0.04477,-1.79392 -0.180829,-2.26006 -0.225598,-0.46614 -0.190452,-1.6564 0.0781,-2.64503 0.441312,-1.6246 0.790919,-1.86033 3.63455,-2.45067 3.012759,-0.62544 8.614379,-1.03878 17.747048,-1.30954 2.330684,-0.0691 4.577581,-0.33755 4.993105,-0.59656 0.433632,-0.2703 1.012116,-0.21431 1.35784,0.13141 0.414059,0.41406 0.938305,0.42254 1.677136,0.0271 0.591136,-0.31637 1.378519,-0.4681 1.749738,-0.33719 0.371219,0.13091 1.277947,0.0148 2.014952,-0.25801 0.789452,-0.29223 1.601949,-0.28237 1.97755,0.024 0.787107,0.64203 20.682302,0.84044 28.888252,0.2881 7.10573,-0.47829 14.11367,-0.56549 14.69037,-0.18279 0.31076,0.20622 0.9464,0.38429 1.41254,0.39572 0.46613,0.0114 2.79208,0.18098 5.16877,0.37677 3.15007,0.25951 4.52829,0.1599 5.08513,-0.36752 0.94672,-0.89671 7.39338,-0.89299 7.69252,0.004 0.15115,0.45344 0.63075,0.46028 1.72547,0.0246 2.76507,-1.10037 5.08783,-1.475 5.65135,-0.91148 0.30246,0.30246 3.22502,0.58908 6.49457,0.63692 3.26956,0.0478 6.13519,0.27769 6.36807,0.51076 0.58542,0.58589 4.62004,0.53454 4.98965,-0.0635 0.29861,-0.48316 18.569,-0.35914 25.89745,0.17579 2.28038,0.16646 3.81385,0.0579 3.81385,-0.27008 0,-0.30163 1.39841,-0.54844 3.10758,-0.54844 1.70917,0 3.10758,0.22754 3.10758,0.50564 0,0.2781 2.12641,0.49587 4.72536,0.48393 2.59895,-0.012 5.02553,0.16379 5.39239,0.39052 0.36686,0.22673 1.02083,0.1186 1.45327,-0.24029 0.69786,-0.57917 6.57471,-0.38531 7.60403,0.25084 0.40577,0.25079 4.45312,-0.52413 5.91951,-1.13336 0.7637,-0.31729 0.96142,-0.25508 0.67292,0.21172 -0.2247,0.36357 -0.13928,0.66103 0.18982,0.66103 0.3291,0 0.59836,-0.2591 0.59836,-0.57578 0,-0.53918 2.40458,-0.23426 3.619,0.45892 0.69382,0.39601 7.65509,0.14222 11.11923,-0.40538 1.54631,-0.24444 2.93864,-0.23868 3.09406,0.0128 0.26626,0.43082 6.81669,1.43541 7.73905,1.18689 0.23551,-0.0635 1.40529,-0.20339 2.59951,-0.31096 1.19423,-0.10757 2.39995,-0.31574 2.67938,-0.4626 0.27943,-0.14686 1.39796,-0.18738 2.48561,-0.09 11.08056,0.99172 12.89508,1.02936 26.83817,0.55675 3.7291,-0.1264 7.28869,-0.41896 7.9102,-0.65012 3.22531,-1.19962 6.49767,-2.79641 6.49767,-3.17062 0,-0.5049 5.6742,-1.30693 8.47521,-1.19794 1.98517,0.0772 11.16339,0.14249 13.27783,0.0944 0.62152,-0.0141 6.26891,0.10635 12.54978,0.26776 6.36807,0.16365 11.55631,0.0725 11.72848,-0.20609 0.17821,-0.28835 1.09798,-0.28163 2.17552,0.0159 1.12045,0.30937 5.46706,0.31238 10.87208,0.008 4.95292,-0.27935 9.8952,-0.37156 10.98286,-0.20491 1.08765,0.16666 6.04565,0.25268 11.01777,0.19116 16.93733,-0.20956 25.98828,-0.15562 27.63297,0.16469 0.90327,0.17591 1.90993,0.15444 2.23702,-0.0477 0.51634,-0.31912 2.29302,-0.28968 6.85594,0.11359 3.0429,0.26894 4.80262,1.79939 4.80262,4.17692 0,0.52951 0.44495,0.98413 0.98877,1.01027 0.54383,0.0261 2.38719,0.2402 4.09635,0.47569 1.70917,0.23548 4.19894,0.39252 5.53282,0.34898 1.33388,-0.0436 2.9094,0.17994 3.50117,0.49664 0.81894,0.43828 1.1944,0.36414 1.5719,-0.3104 0.53771,-0.96084 2.65208,-1.13332 5.77953,-0.47147 1.97309,0.41756 11.25488,0.83787 15.53789,0.70361 3.7054,-0.11616 3.91043,-0.10075 5.03656,0.37845 0.80662,0.34325 0.96814,0.27685 0.63558,-0.26125 -0.34227,-0.5538 -0.0356,-0.63133 1.31985,-0.33363 1.15064,0.25272 1.76573,0.16919 1.76573,-0.23979 0,-0.36582 0.82391,-0.57212 1.97522,-0.49458 1.08638,0.0732 2.25596,-0.14771 2.59907,-0.49082 0.45511,-0.4551 0.92948,-0.31819 1.75387,0.50619 0.66897,0.66898 1.33733,0.92272 1.63813,0.62192 0.7104,-0.71039 4.54933,-0.20003 4.08968,0.5437 -0.21173,0.34257 -0.0933,0.42293 0.28173,0.19115 0.35585,-0.21992 4.78106,-0.4499 9.83379,-0.51106 5.05274,-0.0611 9.34906,-0.33445 9.54739,-0.60734 0.19832,-0.27288 0.65158,-0.3163 1.00725,-0.0965 0.35567,0.21981 2.29144,0.45399 4.30172,0.5204 3.42498,0.11315 3.63702,0.0481 3.36863,-1.03354 -0.27642,-1.11394 -0.26486,-1.11278 0.33051,0.0332 0.53768,1.03492 1.06437,1.17163 4.09934,1.06403 1.91531,-0.0679 3.96904,-0.32766 4.56384,-0.57724 0.7648,-0.3209 0.96184,-0.26022 0.67293,0.20726 -0.542,0.87697 6.8701,1.18189 12.65179,0.52047 1.119,-0.12801 2.28141,0.0795 2.68043,0.47853 0.76538,0.76539 8.32913,0.56263 9.43223,-0.25284 0.33101,-0.2447 1.55525,-0.42753 2.72053,-0.40627 1.16528,0.0213 2.11874,-0.15206 2.1188,-0.38513 7e-5,-0.23307 0.25438,-0.42376 0.56513,-0.42376 0.31076,0 0.56502,0.37173 0.56502,0.82606 0,0.63627 0.65037,0.78901 2.83071,0.66483 1.55689,-0.0887 2.97416,-0.0178 3.14948,0.15753 0.68998,0.68998 5.32009,0.38594 5.32009,-0.34934 0,-0.90329 0.0101,-0.90327 4.52032,0.008 4.52717,0.91425 14.55999,0.80022 16.40358,-0.18644 0.982,-0.52555 1.3977,-0.54458 1.55549,-0.0712 0.30212,0.90636 1.54669,0.80408 2.37607,-0.19527 0.84313,-1.0159 1.90869,-0.51696 1.44981,0.67886 -0.24507,0.63866 -0.0771,0.74964 0.66775,0.44125 0.54735,-0.22662 1.62228,-0.49283 2.38873,-0.59159 0.76646,-0.0988 1.71992,-0.6259 2.11881,-1.17141 0.6756,-0.92394 0.72525,-0.91123 0.72525,0.18573 0,1.47889 0.57128,1.6649 4.94387,1.60976 1.94224,-0.0245 3.53134,0.12292 3.53134,0.3276 0,0.39865 3.44964,-0.25981 4.38293,-0.83661 0.30861,-0.19073 1.78692,0.0709 3.28516,0.5814 1.98422,0.67608 2.78377,0.74907 2.9439,0.26873 0.12085,-0.3627 0.46427,-0.50838 0.76299,-0.32373 0.29878,0.18465 1.99332,0.32414 3.7656,0.30998 1.77233,-0.0142 5.70138,-0.029 8.73127,-0.0329 3.39709,-0.004 5.50889,-0.2302 5.50889,-0.58896 0,-0.31998 0.25426,-0.58178 0.56502,-0.58178 0.31075,0 0.50145,0.31782 0.42376,0.70627 -0.16538,0.82678 3.13656,0.65792 3.43551,-0.1757 0.10266,-0.28626 0.56575,-0.14137 1.02912,0.322 1.21353,1.21352 9.16306,1.30779 9.90017,0.1174 0.26647,-0.43037 0.6457,-0.39487 1.26405,0.11835 0.52807,0.43824 1.28406,0.558 1.87941,0.29773 0.54778,-0.23949 1.23682,-0.37834 1.53119,-0.30857 1.63594,0.38775 7.5044,0.77667 12.31883,0.81642 3.02989,0.025 5.50889,0.20383 5.50889,0.39737 0,0.19354 0.95346,0.31165 2.11881,0.26248 3.10966,-0.13123 4.5352,1.02173 4.98681,4.0333 0.24251,1.61708 0.15001,2.76876 -0.25493,3.17367 -0.96782,0.9678 -0.77645,1.66615 0.96555,3.52437 1.66374,1.77477 1.69651,2.67274 0.16148,4.43092 -0.50326,0.57645 -0.83068,1.08497 -0.72757,1.13003 0.10312,0.0451 0.007,0.79989 -0.21295,1.67739 -0.24482,0.97532 -0.10837,2.1832 0.35093,3.10758 0.77345,1.55652 1.10584,7.44447 0.42026,7.44466 -0.21138,6e-5 -0.17295,0.73716 0.0854,1.63799 0.26454,0.92245 0.24877,1.85884 -0.0362,2.14376 -0.27822,0.27823 -0.51112,1.13029 -0.5175,1.89346 -0.006,0.76316 -0.0158,1.89609 -0.0209,2.51761 -0.0401,4.75855 0.19239,7.42962 0.7,8.04126 0.32703,0.39405 0.37223,0.71646 0.10046,0.71646 -0.59191,0 -0.74294,3.55074 -0.16821,3.9551 0.22081,0.15538 -0.0384,2.0623 -0.57586,4.2376 -0.5375,2.17531 -0.75876,4.10061 -0.49162,4.27844 1.20987,0.80547 -1.84951,2.83812 -5.54177,3.6819 -2.13649,0.48824 -4.30207,1.10668 -4.81239,1.37431 -0.51033,0.26763 -1.08839,0.32607 -1.28456,0.12988 -0.92589,-0.92587 -11.9961,-1.0106 -13.09308,-0.1002 -0.62829,0.52144 -0.7974,0.47575 -0.7974,-0.21547 0,-0.67739 -0.35404,-0.78606 -1.55379,-0.47696 -0.85459,0.22017 -5.55833,0.38308 -10.45276,0.36203 -4.9167,-0.0211 -8.89898,0.189 -8.89898,0.4696 0,0.27932 -0.95346,0.34258 -2.1188,0.14058 -1.16534,-0.202 -2.75445,-0.412 -3.53134,-0.46667 -0.77689,-0.0547 -1.58769,-0.35206 -1.80183,-0.66085 -0.23646,-0.34114 -0.85684,-0.13827 -1.58085,0.51696 -1.30654,1.1824 -2.83248,1.61564 -2.83248,0.80421 0,-0.97841 -1.13008,-0.51204 -1.14799,0.47375 -0.0164,0.89842 -0.0932,0.88941 -0.84063,-0.0986 -0.86103,-1.13801 -3.03509,-1.35788 -6.20408,-0.62742 -1.27722,0.29438 -1.4861,0.24265 -0.84752,-0.2099 0.7022,-0.49763 0.62959,-0.60208 -0.42376,-0.60925 -0.69921,-0.005 -1.27129,0.27674 -1.27129,0.62555 0,0.41207 -0.24736,0.44941 -0.70626,0.10659 -0.62079,-0.46375 -1.85512,-0.56449 -2.26006,-0.18446 -0.43783,0.4109 -3.81385,0.36006 -3.81385,-0.0574 0,-0.69137 -2.11304,-0.62891 -2.54827,0.0753 -0.19515,0.31583 -0.65513,0.38724 -1.02211,0.15869 -0.63976,-0.39845 -3.25306,-0.28876 -3.71406,0.1559 -0.12198,0.11764 0.13228,0.65506 0.56501,1.19426 0.55885,0.69634 0.27046,0.61845 -0.99548,-0.26885 -1.94386,-1.36247 -5.01747,-1.66749 -5.47123,-0.54294 -0.19091,0.47312 -0.29971,0.41983 -0.32959,-0.16143 -0.0565,-1.0994 -2.30774,-1.15595 -3.39646,-0.0853 -0.68099,0.66968 -0.90491,0.67394 -1.41253,0.0269 -0.62853,-0.80114 -3.06843,-0.95014 -4.19163,-0.25597 -0.35708,0.22069 -0.64921,0.19556 -0.64919,-0.0559 2e-5,-0.25141 -1.08057,-0.431 -2.40131,-0.39909 -1.32074,0.0319 -2.90752,-0.12347 -3.52617,-0.3453 -0.61864,-0.22183 -1.87693,-0.18762 -2.79618,0.076 -1.16248,0.3334 -1.81246,0.2665 -2.13475,-0.21971 -0.35545,-0.53623 -0.6254,-0.49095 -1.15892,0.1944 -0.58907,0.75671 -0.95496,0.78633 -2.39057,0.19355 -0.93227,-0.38495 -1.95151,-0.48897 -2.26496,-0.23116 -0.99876,0.82145 -6.95264,1.13731 -7.26028,0.38517 -0.20064,-0.49058 -0.40451,-0.50333 -0.74326,-0.0465 -0.30227,0.40766 -1.46376,0.49934 -3.29582,0.26016 -1.55599,-0.20314 -3.63805,-0.20389 -4.6268,-0.002 -1.02569,0.20978 -2.05524,0.11019 -2.39733,-0.2319 -0.33005,-0.32971 -0.59987,-0.39041 -0.59987,-0.13483 0,0.25558 -0.38138,0.14817 -0.84752,-0.23869 -0.63773,-0.52927 -0.84752,-0.53696 -0.84752,-0.0311 0,0.36975 -0.44495,0.54939 -0.98877,0.39919 -0.54383,-0.1502 -2.26006,-0.43208 -3.81385,-0.6264 -2.01418,-0.2519 -2.5818,-0.18693 -1.97755,0.22636 0.46614,0.31882 0.58055,0.58357 0.25426,0.58833 -0.3263,0.005 -0.93568,-0.30917 -1.35417,-0.69762 -0.60873,-0.56502 -0.68116,-0.56502 -0.36217,0 0.46971,0.83196 -1.22108,0.9576 -2.44674,0.18181 -0.52431,-0.33186 -1.29792,-0.18241 -2.23821,0.43241 -1.05025,0.68672 -1.30502,0.72555 -0.94669,0.1443 0.37835,-0.61375 0.21834,-0.72417 -0.70103,-0.48374 -0.65521,0.17134 -1.26705,0.0874 -1.35964,-0.1865 -0.0926,-0.27391 -0.90181,-0.1171 -1.79827,0.34848 -1.22347,0.63541 -1.821,0.68793 -2.39614,0.21061 -0.42141,-0.34974 -1.5313,-0.5236 -2.46642,-0.38636 -0.93512,0.13727 -1.70022,0.0393 -1.70022,-0.21759 0,-0.25694 -0.50851,-0.46716 -1.13003,-0.46716 -0.75335,0 -1.13003,0.37668 -1.13003,1.13003 0,0.62151 -0.23045,1.13003 -0.51211,1.13003 -0.28167,0 -0.37914,-0.50852 -0.21661,-1.13003 0.31782,-1.21537 -0.70091,-1.59703 -1.13112,-0.42376 -0.20716,0.56501 -0.40869,0.56501 -1.0076,0 -0.96746,-0.9127 -2.78017,-0.9127 -2.79135,0 -0.007,0.54867 -0.10609,0.55293 -0.44531,0.0191 -0.3381,-0.53208 -0.78431,-0.50683 -1.97681,0.11185 -1.26887,0.65829 -1.96171,0.67643 -3.93354,0.10299 -2.22336,-0.64658 -3.84058,-0.75159 -5.21848,-0.33883 -0.31076,0.0931 -1.58204,-0.12984 -2.82507,-0.49541 -2.95541,-0.86916 -2.91813,-0.87588 -3.33347,0.60031 -0.34466,1.22496 -0.38718,1.23276 -1.16692,0.21419 -0.66428,-0.86775 -1.19395,-0.97821 -2.95704,-0.61669 -2.44194,0.50072 -6.4249,0.69119 -7.16102,0.34246 -1.32827,-0.62926 -7.29203,-0.65394 -8.03989,-0.0333 -0.44938,0.37296 -0.99424,0.50091 -1.2108,0.28436 -0.21656,-0.21656 -0.0197,-0.65084 0.43741,-0.96505 0.61099,-0.41997 0.45699,-0.46457 -0.58137,-0.16835 -0.7769,0.22163 -1.79392,0.44695 -2.26006,0.50073 -0.46614,0.0538 -1.22891,0.2516 -1.69504,0.43962 -0.46614,0.18803 -1.68478,0.44544 -2.70809,0.57202 -1.41317,0.17482 -1.78835,0.042 -1.56026,-0.55241 0.16517,-0.43041 0.0784,-0.64541 -0.1929,-0.47775 -1.05675,0.65311 -5.81847,0.49096 -6.25351,-0.21295 -0.28354,-0.45877 -0.57292,-0.5107 -0.79984,-0.14352 -0.19556,0.31642 -0.99011,0.50566 -1.76567,0.42052 -0.77556,-0.0851 -1.4101,0.0645 -1.4101,0.33253 0,1.02291 -1.75269,0.42993 -2.18522,-0.73931 -0.30066,-0.81278 -0.59171,-1.00341 -0.86266,-0.56501 -0.22489,0.36388 -0.97868,0.66161 -1.67509,0.66161 -0.6964,0 -1.57129,0.30511 -1.9442,0.67802 -0.44624,0.44624 -0.67802,0.46877 -0.67802,0.0659 0,-0.9972 -2.14873,-1.28396 -2.51276,-0.33533 -0.25181,0.65621 -0.50398,0.70074 -1.11176,0.19633 -0.43233,-0.35881 -1.55686,-0.87344 -2.49894,-1.14363 -1.44034,-0.41308 -1.65869,-0.35005 -1.37233,0.39619 0.29146,0.75953 -0.0695,0.83887 -2.50447,0.55049 -2.05376,-0.24324 -3.18016,-0.1022 -4.05006,0.50711 -1.08111,0.75724 -1.20506,0.75015 -1.20506,-0.0688 0,-0.5021 -0.24315,-0.76264 -0.54034,-0.57896 -0.29719,0.18367 -0.41337,0.66481 -0.25819,1.0692 0.15653,0.4079 -0.10602,0.73526 -0.58969,0.73526 -0.47951,0 -0.87184,-0.2039 -0.87184,-0.45311 0,-0.24921 -0.39599,-0.30116 -0.87999,-0.11543 -0.484,0.18573 -0.76177,0.64575 -0.61729,1.02228 0.14449,0.37653 0.0359,1.04292 -0.24138,1.48087 -0.38333,0.60553 -0.50616,0.62021 -0.51274,0.0613 -0.006,-0.45908 -0.75106,-0.16876 -1.9862,0.77333 -1.08765,0.82959 -1.97755,1.36879 -1.97755,1.19822 0,-0.17057 -0.82634,-0.0708 -1.8363,0.22169 -1.00996,0.29251 -2.78043,0.65263 -3.93437,0.80029 -1.69024,0.21628 -2.03544,0.10524 -1.77585,-0.57126 0.39124,-1.01955 -0.0229,-1.06215 -1.47986,-0.15224 -0.84861,0.52997 -1.65595,0.53808 -3.52367,0.0354 -1.9315,-0.51986 -2.73792,-0.49619 -3.97662,0.11673 -1.35523,0.67058 -1.55379,0.65764 -1.55379,-0.10129 0,-0.63115 -0.34913,-0.77233 -1.27128,-0.51408 -1.70526,0.47756 -12.84731,0.80886 -13.10627,0.38969 -0.11261,-0.18228 -1.81817,-0.26356 -3.79012,-0.18062 -1.97196,0.0829 -4.85666,0.1165 -6.41044,0.0746 -1.55379,-0.0419 -3.96923,-0.02 -5.36764,0.0488 -5.29236,0.26007 -6.5867,0.24384 -9.74649,-0.12228 -1.78686,-0.20703 -3.24884,-0.19876 -3.24884,0.0184 0,0.21714 -1.11987,0.39479 -2.48861,0.39479 -1.36873,0 -2.40337,-0.13791 -2.2992,-0.30647 0.10418,-0.16856 -0.30148,-0.34345 -0.90147,-0.38865 -0.59999,-0.0452 -1.09089,0.17129 -1.09089,0.48108 0,0.30978 0.29355,0.38182 0.65232,0.16009 0.40415,-0.24978 0.49894,-0.15499 0.24916,0.24916 -0.49058,0.79378 -0.73314,0.81678 -1.16941,0.11088 z m -5.53656,-15.61776 c 3.42463,-0.23979 5.02355,-0.62068 6.0739,-1.44689 1.86617,-1.46793 1.79933,-2.19006 -0.41066,-4.43687 -1.87008,-1.90123 -4.58376,-3.03538 -12.28906,-5.13605 -2.33068,-0.63541 -5.76314,-1.74694 -7.62769,-2.47008 -8.91696,-3.4583 -10.62368,-3.86547 -16.84616,-4.01898 -6.00132,-0.14806 -6.14289,-0.12216 -7.89601,1.44424 -1.65128,1.47542 -1.7285,1.7008 -1.02997,3.00602 0.41533,0.77606 0.82602,2.26459 0.91265,3.30786 0.0866,1.04326 0.21781,1.89684 0.29154,1.89684 0.0737,0 0.19284,0.54756 0.26469,1.21679 0.17949,1.67177 2.52844,5.36102 3.16349,4.96854 0.28421,-0.17565 0.51675,-0.0672 0.51675,0.24092 0,0.30815 0.57208,0.74268 1.27128,0.96563 3.18344,1.01504 22.01076,1.2739 33.60525,0.46203 z m 65.39804,-0.21795 c 1.39227,-0.74512 3.26141,-3.84736 2.78376,-4.62023 -0.18928,-0.30625 0.15954,-1.11007 0.77514,-1.78628 0.87751,-0.96388 1.08961,-1.90071 0.9819,-4.33703 -0.0756,-1.70917 0.10406,-3.4132 0.39914,-3.78673 0.95587,-1.21002 -0.11032,-2.86612 -2.44716,-3.80114 -1.5375,-0.61518 -4.70728,-0.99555 -9.71004,-1.16519 -7.75019,-0.26281 -8.46405,-0.1054 -11.04047,2.43443 -1.8676,1.84106 -10.41314,5.03539 -16.08113,6.01112 -1.18167,0.20342 -2.27021,0.68705 -2.41898,1.07473 -0.14876,0.38768 -1.16095,0.73011 -2.24931,0.76096 -2.11209,0.0599 -5.36674,1.37748 -6.31796,2.55775 -0.81741,1.01424 -1.35113,3.98909 -0.84835,4.72846 0.79359,1.167 3.21677,2.09656 6.34146,2.43265 5.46258,0.58756 38.57544,0.169 39.832,-0.5035 z m 188.38373,-11.26736 c 0.66637,-2.18448 0.54704,-11.57984 -0.16719,-13.15617 -0.26296,-0.58041 -0.0784,-1.68834 0.4615,-2.77062 1.09455,-2.19407 1.09698,-2.2351 0.10984,-1.85631 -1.24851,0.47911 -3.18843,-1.99205 -2.89219,-3.68425 0.32415,-1.85144 -0.18132,-2.64773 -2.15768,-3.39912 -2.05674,-0.78198 -4.48665,-0.76245 -6.27066,0.0504 -1.46047,0.66544 -2.34761,2.30903 -1.75974,3.26024 0.18051,0.29207 0.0922,0.67691 -0.19633,0.85521 -0.49047,0.30313 -0.39535,2.30312 0.2503,5.26279 0.15351,0.70372 0.006,1.27128 -0.3318,1.27128 -0.33879,0 -0.41813,0.30905 -0.17877,0.69634 0.5845,0.94573 0.6784,2.69375 0.14471,2.69375 -0.55963,0 -0.47165,3.34609 0.0972,3.69768 0.23787,0.14701 0.31804,1.88325 0.17817,3.85832 -0.23661,3.34101 -0.15607,3.65539 1.1568,4.51562 1.75039,1.1469 8.71328,2.03064 10.00857,1.2703 0.51224,-0.30069 1.20851,-1.45514 1.54724,-2.56545 z m 43.30031,1.97993 c 1.55029,-1.01578 1.91676,-3.40581 1.60939,-10.49634 -0.48919,-11.28666 -0.75051,-14.26302 -1.31163,-14.93908 -1.8885,-2.27554 -11.30638,-2.46871 -12.49048,-0.2562 -0.44569,0.83278 -1.14359,8.39212 -1.16806,12.65272 -0.006,0.78637 0.6048,6.9882 0.88826,9.04023 0.12871,0.93227 0.2516,2.1128 0.27302,2.62339 0.0933,2.22614 9.31443,3.26566 12.1995,1.37528 z m -88.90585,-0.69606 c 0.5537,-0.50109 0.89932,-1.08486 0.76804,-1.29727 -0.13128,-0.21242 0.13722,-1.47729 0.59667,-2.81084 0.54287,-1.57569 0.64577,-2.65306 0.2939,-3.07704 -0.54269,-0.6539 -0.34607,-11.55966 0.2418,-13.41187 0.2023,-0.63741 -0.49505,-1.81734 -2.02243,-3.42201 -2.30884,-2.42567 -2.36843,-2.44914 -6.21227,-2.44669 -2.18101,10e-4 -4.16733,0.28874 -4.53457,0.65597 -0.45599,0.456 -0.62262,3.87037 -0.55134,11.29781 0.14293,14.89421 -0.007,13.87648 2.19048,14.91378 2.38356,1.12536 7.8029,0.88942 9.22972,-0.40184 z m 66.57502,0.36998 c 0.83221,-0.83219 1.14862,-1.94908 1.20066,-4.23761 0.039,-1.70916 0.1156,-4.18816 0.17057,-5.50888 0.0548,-1.32073 -0.13735,-2.95718 -0.42737,-3.63657 -0.29008,-0.67939 -0.33161,-1.69641 -0.0924,-2.26005 1.18845,-2.79974 -0.67666,-9.82907 -2.87361,-10.83007 -3.3763,-1.53835 -8.82309,-0.37873 -9.73694,2.07299 -0.87267,2.3411 -0.52552,21.80165 0.40895,22.92763 0.41427,0.49915 0.5314,0.91902 0.26025,0.93303 -0.27109,0.014 0.26985,0.37475 1.20212,0.80164 0.93228,0.42687 3.28415,0.79679 5.22638,0.82203 2.81784,0.0366 3.75967,-0.18243 4.66137,-1.08414 z m 41.72952,-0.20872 c 1.26173,-1.14184 2.39431,-5.00694 1.76539,-6.02458 -0.23556,-0.38108 -0.33325,-3.11766 -0.21714,-6.08127 0.11606,-2.96362 -0.022,-5.66939 -0.3072,-6.01283 -0.28499,-0.34345 -0.47218,-1.81443 -0.4159,-3.26885 0.0565,-1.45442 -0.18437,-2.93114 -0.53484,-3.28161 -1.00002,-1.00003 -5.31651,-1.77332 -7.67465,-1.37491 -1.72962,0.29222 -2.2061,0.65209 -2.47035,1.86587 -0.18013,0.8271 -0.55411,2.22205 -0.83108,3.09987 -0.36387,1.15314 -0.272,1.94962 0.33121,2.87017 0.45913,0.70077 0.70497,1.40395 0.54631,1.56263 -0.67073,0.67075 -0.88532,5.03698 -0.34392,6.99781 0.32234,1.16747 0.41229,2.4008 0.19984,2.74072 -1.10285,1.76479 -0.22583,6.16427 1.50639,7.55629 1.29975,1.04454 7.06392,0.60141 8.44594,-0.64931 z m -177.07127,0.20872 c 0.40384,0 1.41218,-0.88881 2.24076,-1.97513 1.14908,-1.50653 1.56884,-2.81352 1.76923,-5.50889 0.1445,-1.94357 0.28359,-3.78801 0.30908,-4.09877 0.0255,-0.31076 -0.10302,-2.34481 -0.28558,-4.52011 -0.18255,-2.17531 -0.41002,-5.16282 -0.50548,-6.63891 -0.0955,-1.47609 -0.42063,-2.93088 -0.72261,-3.23287 -0.72841,-0.7284 -7.41194,-1.64039 -9.60043,-1.31 -2.43243,0.3672 -3.20844,1.84159 -2.53851,4.82308 0.34107,1.51791 0.34231,2.60138 0.003,2.94036 -0.72843,0.72849 -0.68103,3.54496 0.0674,4.00754 0.68513,0.42343 0.58272,4.92808 -0.15901,6.99467 -0.27019,0.7528 -0.31215,1.76982 -0.0932,2.26006 0.50107,1.12209 0.61934,1.54399 0.7075,2.52379 0.20553,2.28422 4.69195,4.70562 7.32077,3.95114 0.41384,-0.11878 1.08286,-0.21596 1.4867,-0.21596 z m 22.81854,-0.3875 c 2.90566,-1.34163 4.45267,-2.61355 4.17865,-3.43561 -0.12907,-0.38722 -0.40366,-0.60038 -0.61018,-0.47368 -0.52562,0.32247 -0.47199,-6.5723 0.0575,-7.38821 0.23814,-0.36698 0.17043,-0.82949 -0.15047,-1.02782 -0.32089,-0.19832 -0.44356,-0.58694 -0.27258,-0.86358 0.17098,-0.27664 -5.6e-4,-1.00198 -0.38164,-1.61186 -0.51398,-0.82302 -0.53887,-1.60942 -0.0966,-3.05057 0.67476,-2.19858 0.15005,-6.88353 -0.88712,-7.9207 -0.40815,-0.40815 -2.3763,-0.67864 -4.93792,-0.67864 -6.50279,0 -6.64817,0.33414 -6.51451,14.97287 0.0933,10.21748 0.0815,10.17719 3.42611,11.67816 2.10513,0.94472 3.82969,0.88889 6.18876,-0.20036 z m 24.7612,0.21922 c 0.4051,-0.25037 0.55071,-3.9674 0.44115,-11.26175 -0.09,-5.98842 -0.18442,-11.04907 -0.20994,-11.24589 -0.0255,-0.19683 -0.57394,-0.49582 -1.2187,-0.66443 -0.97113,-0.25396 -1.06992,-0.49786 -0.57568,-1.42135 0.5223,-0.97594 0.33403,-1.21931 -1.51152,-1.95388 -1.3472,-0.53621 -3.14846,-0.73773 -4.99033,-0.55829 -4.52428,0.44077 -4.72292,1.062 -4.58065,14.32579 0.11307,10.54258 0.41483,12.47235 1.8742,11.98589 0.33904,-0.11301 0.9395,0.1838 1.33437,0.65959 0.55125,0.66422 1.65994,0.82362 4.77517,0.68655 2.23149,-0.0982 4.32935,-0.34669 4.66193,-0.55223 z m 44.31171,-0.45252 c 1.01203,-1.01204 1.12573,-1.57095 0.77579,-3.81385 -0.22552,-1.44541 -0.37712,-4.9645 -0.33689,-7.82019 0.0461,-3.2687 -0.15903,-5.33566 -0.5536,-5.57952 -0.44959,-0.27785 -0.43402,-0.50646 0.0551,-0.80875 0.84056,-0.51949 0.87487,-3.69922 0.0626,-5.80389 -0.74536,-1.93134 -2.59097,-2.67368 -6.64733,-2.67368 -4.19337,0 -6.2564,1.21364 -6.11626,3.59806 0.0572,0.97327 0.29744,2.21648 0.53386,2.76271 0.26676,0.6163 0.0704,1.5418 -0.51758,2.43912 -0.66364,1.01285 -0.77438,1.65452 -0.36969,2.14213 0.31776,0.38289 0.58601,3.48051 0.59611,6.88362 0.0101,3.4031 0.10468,6.66533 0.21018,7.2494 0.28226,1.56254 2.98995,2.51281 7.30802,2.56476 3.15807,0.038 4.01775,-0.158 4.99967,-1.13992 z m -134.06403,-1.25536 c 0.10044,-0.87651 -0.0751,-2.33286 -0.39002,-3.23634 -0.31495,-0.90348 -0.36329,-1.77208 -0.10741,-1.93022 0.25588,-0.15814 0.66234,-1.75287 0.90325,-3.54383 0.58478,-4.34739 0.60996,-5.30715 0.17517,-6.67612 -0.20259,-0.63787 -0.12194,-1.60008 0.17923,-2.13824 0.37938,-0.67789 0.25767,-1.85133 -0.39617,-3.81987 -1.0998,-3.31118 -2.1003,-3.87249 -7.1505,-4.01168 -3.87864,-0.10689 -4.6161,0.50382 -4.10979,3.40344 0.19148,1.09658 0.05,2.21423 -0.33971,2.68382 -0.52259,0.62967 -0.49918,0.80657 0.10761,0.81334 0.62916,0.007 0.63581,0.0972 0.0353,0.47808 -0.82782,0.525 -0.95,2.93284 -0.6204,12.22609 l 0.22044,6.21516 1.70011,0.65033 c 0.93506,0.35768 3.47991,0.61194 5.65521,0.56501 3.89522,-0.084 3.95787,-0.10944 4.13773,-1.67897 z m 20.86415,1.52004 c 0.6992,-0.18738 1.27128,-0.66129 1.27128,-1.05313 0,-0.39184 0.38065,-1.02835 0.84589,-1.41446 0.86105,-0.71462 0.84113,-5.53751 -0.0379,-9.18284 -0.2104,-0.87252 -0.13793,-1.55379 0.16528,-1.55379 0.73762,0 0.46482,-6.8439 -0.33215,-8.33306 -0.35261,-0.65884 -0.6411,-1.69388 -0.6411,-2.30008 0,-1.80074 -2.56978,-3.04318 -6.36828,-3.07896 -4.33855,-0.0409 -5.0601,0.77445 -4.75354,5.37131 0.11941,1.79061 0.0539,3.25566 -0.14558,3.25566 -0.63569,0 -0.0196,16.66799 0.63619,17.21257 1.34419,1.11617 6.84961,1.74952 9.35993,1.07678 z m -199.80254,-2.24258 c 1.6323,-0.82287 2.41396,-3.27007 1.55633,-4.87256 -0.29012,-0.54209 -0.39476,-3.40518 -0.23253,-6.36242 0.18985,-3.461 0.0902,-5.3768 -0.27965,-5.3768 -0.31603,0 -0.87251,-0.65385 -1.23663,-1.453 -0.52491,-1.15206 -0.50657,-1.54908 0.0886,-1.91691 0.96464,-0.59618 0.43878,-2.76909 -1.09934,-4.54255 -0.90988,-1.0491 -1.87432,-1.39215 -4.43453,-1.57734 -3.68323,-0.26642 -5.49911,0.77865 -4.85874,2.79628 0.1916,0.60368 0.0783,1.42301 -0.25178,1.82074 -0.38884,0.46853 -0.42346,1.33922 -0.0983,2.47292 0.276,0.96238 0.37345,1.87816 0.21654,2.03507 -0.15691,0.15691 -0.24193,3.2907 -0.18892,6.96396 0.053,3.67327 0.0937,7.11786 0.0905,7.65465 -0.006,0.94155 2.12903,2.80288 3.87707,3.38059 1.25558,0.41496 5.1539,-0.1669 6.85141,-1.02263 z m 21.27947,0.28235 c 1.97081,-1.23079 2.73896,-3.99349 2.13759,-7.6879 -0.16219,-0.99636 -0.0566,-1.95882 0.23463,-2.13881 0.32316,-0.19973 0.29119,-0.92496 -0.082,-1.86104 -1.30263,-3.26716 -1.58945,-6.80426 -0.69132,-8.52552 0.9157,-1.75495 1.00082,-2.89602 0.21601,-2.89602 -0.31076,0 -0.56502,-0.35378 -0.56502,-0.78617 0,-1.01799 -3.9765,-2.60391 -6.52897,-2.60391 -1.0923,0 -2.5907,0.39621 -3.32976,0.88046 -1.12609,0.73785 -1.26921,1.14046 -0.88348,2.4854 0.25315,0.88271 0.24734,1.82135 -0.0129,2.08586 -0.26027,0.26451 -0.57886,1.82048 -0.70798,3.45771 -0.12911,1.63723 -0.37879,3.12081 -0.55484,3.29686 -0.17604,0.17605 -0.0728,1.02928 0.22932,1.89608 0.30216,0.8668 0.59922,3.8327 0.66013,6.59089 l 0.11074,5.01488 1.97755,1.01945 c 2.12264,1.09423 5.84752,0.98512 7.79037,-0.22822 z m -44.00489,0.10139 c 0.43664,-0.27644 0.86164,-1.22601 0.94443,-2.11016 0.0828,-0.88414 0.39836,-3.00594 0.70128,-4.71511 0.30291,-1.70916 0.38979,-3.36183 0.19305,-3.67259 -0.3547,-0.56026 -0.77741,-6.62782 -0.8119,-11.65382 -0.0154,-2.24709 -0.23735,-2.74322 -1.58258,-3.53787 -1.80699,-1.06741 -7.66353,-1.3968 -9.23169,-0.51922 -1.26249,0.70653 -1.55098,4.78399 -0.49034,6.93046 0.54515,1.10326 0.53744,1.56923 -0.0374,2.26006 -0.73743,0.88626 -0.80377,3.54025 -0.12877,5.15167 0.20535,0.49024 0.11158,1.5799 -0.20839,2.42147 -0.4367,1.14863 -0.40376,1.59843 0.13213,1.80408 0.42662,0.1637 0.68767,1.17985 0.64874,2.52524 -0.0803,2.77527 0.94447,4.32573 3.31142,5.01014 2.37168,0.68578 5.56247,0.73717 6.55999,0.10565 z m -67.42636,-1.43138 c 0.74545,-0.48843 1.48479,-1.45693 1.64295,-2.1522 0.44637,-1.96216 0.0749,-7.99964 -0.51841,-8.42661 -0.32799,-0.23602 -0.29493,-1.15241 0.0864,-2.39487 0.5249,-1.71029 0.45897,-2.2143 -0.43899,-3.35587 -0.58116,-0.73883 -0.88727,-1.51271 -0.68025,-1.71973 0.20702,-0.20702 0.42447,-1.32166 0.48321,-2.47697 0.0847,-1.66531 -0.23056,-2.41524 -1.52131,-3.6192 -2.22933,-2.0794 -6.01295,-2.63581 -8.38708,-1.23338 -1.61835,0.95599 -1.72742,1.21091 -1.41459,3.30646 0.18644,1.24884 0.0948,2.91076 -0.20359,3.69315 -0.36499,0.95694 -0.30978,2.66131 0.16868,5.20736 0.44072,2.34524 0.54112,4.70541 0.26397,6.20516 -0.246,1.33118 -0.24042,2.49609 0.0124,2.58868 0.25282,0.0926 0.34402,0.61064 0.20265,1.15122 -0.33848,1.29438 1.75924,3.91452 3.35458,4.19 2.28589,0.39473 5.57208,-0.0607 6.94939,-0.9632 z m 21.41354,0.50933 c 1.7487,-0.82981 1.852,-1.04823 1.9215,-4.06289 0.0404,-1.75226 0.3336,-3.34672 0.65157,-3.54323 0.38452,-0.23766 0.33086,-1.00571 -0.16023,-2.29353 -0.67583,-1.77225 -0.76235,-2.62065 -0.42794,-4.19627 0.28605,-1.34777 -0.13953,-5.14229 -0.64554,-5.7557 -0.30424,-0.36881 -0.43309,-1.43248 -0.28632,-2.36371 0.27132,-1.72153 -0.28924,-2.49582 -2.7303,-3.77135 -2.98327,-1.55884 -7.71929,-0.54995 -8.09719,1.7249 -0.26781,1.61213 -0.31091,4.98163 -0.0722,5.64574 0.11169,0.31076 0.0108,3.0291 -0.22427,6.04075 -0.36501,4.67696 -0.28306,5.74843 0.5618,7.34518 0.54403,1.0282 1.07414,2.37797 1.17802,2.99949 0.10389,0.62151 0.39973,1.20276 0.65743,1.29165 0.25771,0.0889 0.94955,0.52576 1.53745,0.97081 1.40823,1.06605 3.8493,1.05339 6.13625,-0.0319 z m 24.42393,-0.10767 c 1.18825,-1.21921 1.43901,-2.78874 0.67395,-4.21828 -0.37651,-0.70352 -0.34115,-1.01225 0.11594,-1.01225 0.77107,0 0.21532,-5.49366 -0.66279,-6.55172 -0.29547,-0.35603 -0.38267,-1.63367 -0.19378,-2.8392 0.18889,-1.20553 0.36092,-2.319 0.38228,-2.47438 0.0214,-0.15538 -0.25647,-0.99827 -0.61741,-1.87308 -0.36094,-0.87481 -0.65625,-2.02596 -0.65625,-2.5581 0,-2.43589 -3.6286,-4.64717 -6.78017,-4.13185 -2.81684,0.46058 -3.83019,1.33682 -4.23333,3.66053 -0.5763,3.32185 -0.32444,8.81101 0.46258,10.08154 0.5162,0.83334 0.50279,1.17046 -0.0605,1.52123 -0.49114,0.30583 -0.61502,1.1627 -0.3855,2.66658 0.18601,1.21876 0.39524,3.08821 0.46497,4.15433 0.0697,1.06612 0.43049,2.03963 0.80169,2.16337 0.37121,0.12374 1.20129,0.64987 1.84462,1.16918 1.77575,1.43346 7.52912,1.59095 8.84372,0.2421 z m -134.252706,-1.037 c 0.783599,-0.70915 0.874843,-1.24384 0.457483,-2.68093 -0.286733,-0.98731 -0.353472,-2.55788 -0.14831,-3.49015 0.205163,-0.93228 0.405421,-3.59581 0.445011,-5.91897 0.05577,-3.27082 -0.142146,-4.43806 -0.877011,-5.17293 -0.821054,-0.82105 -0.847676,-1.14432 -0.197456,-2.39762 1.229083,-2.36906 0.0241,-4.65902 -2.992451,-5.68687 -1.360472,-0.46356 -3.214516,-0.68769 -4.146603,-0.50127 -1.467072,0.29342 -1.645702,0.52895 -1.37628,1.81471 0.261811,1.24944 0.02629,1.60837 -1.525644,2.32506 l -1.835251,0.84752 -0.162387,5.36763 c -0.12031,3.97678 0.07059,5.88484 0.736705,7.36364 0.695017,1.54296 0.778977,2.5306 0.369902,4.35126 -0.432385,1.92441 -0.360434,2.50797 0.393324,3.19012 0.507382,0.45917 1.176769,0.88535 1.487527,0.94706 0.744713,0.14788 1.506978,0.37453 2.542564,0.756 1.439533,0.53026 5.797421,-0.18081 6.828877,-1.11426 z m 44.208936,0.74913 c 0.8656,-0.63294 1.72638,-3.15847 1.58833,-4.66016 -0.15917,-1.73144 -1.1619,-5.96183 -1.90191,-8.02394 -0.82467,-2.29805 -0.80919,-2.4139 0.48512,-3.62983 1.57098,-1.47587 1.70499,-2.49196 0.39496,-2.99467 -0.65425,-0.25106 -0.76188,-0.5416 -0.35233,-0.95115 0.40955,-0.40954 0.21327,-1.30145 -0.64257,-2.91986 -1.41594,-2.67758 -3.52302,-3.52319 -7.63398,-3.06366 -2.41256,0.26968 -4.30741,1.68357 -3.66004,2.73103 0.27352,0.44257 0.48957,3.9925 1.00981,16.59203 0.11547,2.79682 0.24278,5.2677 0.28289,5.49084 0.32058,1.78338 8.42637,2.89426 10.42972,1.42937 z m 22.51831,10e-4 c 1.59542,-1.27283 2.04565,-2.71554 1.38973,-4.45325 -0.45392,-1.20258 -0.43098,-2.09435 0.0889,-3.45695 0.62318,-1.63321 0.57765,-1.9374 -0.41167,-2.75051 -1.5381,-1.26416 -2.02661,-3.5091 -0.9568,-4.39697 1.0029,-0.83233 0.67434,-5.59669 -0.55432,-8.03787 -1.46498,-2.91064 -9.70291,-4.53849 -10.97158,-2.16796 -0.32651,0.61008 -0.42644,1.10923 -0.22208,1.10923 0.20437,0 0.0884,0.34122 -0.25772,0.75826 -0.34611,0.41704 -0.48247,0.90507 -0.30302,1.08452 0.57162,0.57162 1.29631,11.39466 0.80294,11.99179 -0.44968,0.54425 0.20913,5.82717 0.95224,7.63597 0.19151,0.46614 0.31695,1.01088 0.27875,1.21052 -0.0382,0.19965 0.74777,0.76594 1.7466,1.25842 2.17737,1.07357 7.18153,1.20131 8.41798,0.21488 z m -89.693518,-1.20746 c -0.251511,-1.0021 -0.0078,-1.58044 0.948078,-2.24998 1.360885,-0.9532 2.123484,-3.74641 1.022842,-3.74641 -0.363347,0 -0.490841,-0.40119 -0.292089,-0.91914 0.193988,-0.50552 0.07705,-1.25127 -0.259858,-1.65722 -0.449339,-0.54143 -0.369754,-1.10867 0.298676,-2.12882 0.847966,-1.29416 0.830843,-1.61947 -0.246596,-4.68498 -0.95561,-2.71888 -1.048988,-3.62405 -0.534637,-5.18255 0.536019,-1.62415 0.477004,-1.99724 -0.421871,-2.66704 -1.727837,-1.28749 -5.560745,-2.34234 -7.632387,-2.10048 -1.781184,0.20794 -2.056565,0.50515 -3.24853,3.50608 -1.026285,2.5838 -1.213851,3.80117 -0.884806,5.74267 0.229659,1.35508 0.492549,4.7521 0.584198,7.54892 0.211627,6.45804 0.342812,7.24061 1.388826,8.28491 1.279212,1.27712 2.184087,1.50924 6.074578,1.55823 3.459938,0.0436 3.53425,0.0133 3.203576,-1.30419 z m 44.432428,0.76006 c 0.91955,-0.49213 0.99443,-0.78613 0.45634,-1.79157 -0.51068,-0.95421 -0.47076,-1.32931 0.1931,-1.81474 1.06247,-0.7769 2.0102,-3.49118 1.00128,-2.86763 -0.48679,0.30085 -0.58136,0.0941 -0.32557,-0.71184 0.19828,-0.62473 0.0449,-1.82857 -0.34087,-2.67522 -0.58652,-1.28728 -0.56073,-1.64487 0.15755,-2.18373 1.25915,-0.94461 0.8703,-7.60866 -0.6137,-10.51755 -0.62561,-1.22628 -1.13747,-2.62112 -1.13747,-3.09964 0,-0.6148 -0.57034,-0.87003 -1.9442,-0.87003 -1.06931,0 -2.10134,-0.25425 -2.2934,-0.56501 -0.19206,-0.31076 -0.60346,-0.56502 -0.91421,-0.56502 -0.31076,0 -0.41232,0.24708 -0.22569,0.54906 0.51455,0.83255 -1.3959,3.40604 -2.5285,3.40604 -2.11723,0 -2.54322,1.54617 -2.63128,9.55059 -0.063,5.72988 0.11645,8.00039 0.70627,8.93375 0.43493,0.68827 0.79468,1.83243 0.79944,2.54257 0.0169,2.52464 1.04055,3.08804 5.81989,3.20316 1.49653,0.036 3.21599,-0.19938 3.82102,-0.52319 z m 255.7282,-2.34073 c 0.36774,-0.29507 1.6031,-0.6524 2.74524,-0.79406 1.14215,-0.14166 2.54079,-0.50597 3.10809,-0.80958 0.5673,-0.30361 1.90694,-0.55202 2.97697,-0.55202 1.07003,0 2.26203,-0.38139 2.64889,-0.84752 0.38686,-0.46614 1.16421,-0.84753 1.72745,-0.84753 0.56323,0 1.73982,-0.2939 2.61463,-0.65311 0.87482,-0.35922 1.84483,-0.67704 2.15559,-0.70627 0.75935,-0.0714 2.7917,-1.57685 3.31943,-2.45879 0.83489,-1.39527 -2.84607,-3.53423 -8.99483,-5.22679 -2.16141,-0.59497 -5.79688,-1.74125 -8.07882,-2.54728 -2.50535,-0.88495 -6.00161,-1.59626 -8.82554,-1.79555 -4.10288,-0.28954 -5.15343,-0.15422 -8.56384,1.10315 -2.13801,0.78824 -5.2857,1.74937 -6.99486,2.13583 -3.36895,0.76176 -8.09128,2.76934 -9.87365,4.19753 -1.0971,0.8791 -1.08852,0.91773 0.50907,2.29049 1.0129,0.87036 4.73201,2.36418 9.87364,3.96585 4.53676,1.41325 9.26568,2.8859 10.50871,3.27255 2.73485,0.8507 8.21982,1.01453 9.14383,0.2731 z m 51.38989,-13.92256 c 1.22945,-0.82125 2.2356,-5.18353 1.19557,-5.18353 -0.26113,0 -0.43351,-0.31782 -0.38307,-0.70627 0.28123,-2.16567 -0.1358,-3.76741 -1.05699,-4.05978 -0.55814,-0.17715 -1.48798,-1.46952 -2.06631,-2.87193 -1.57117,-3.80998 -3.85874,-5.00663 -9.28151,-4.85525 -2.36791,0.0661 -4.68667,0.11167 -5.15281,0.10125 -0.46613,-0.0104 -6.03478,-0.16186 -12.37476,-0.33654 -7.04415,-0.19408 -12.15313,-0.0994 -13.13658,0.24342 -0.99616,0.34726 -1.60934,0.35694 -1.60934,0.0254 0,-0.2946 -0.3603,-0.53563 -0.80067,-0.53563 -1.33497,0 -5.9795,2.17925 -5.9795,2.80562 0,0.32215 0.98308,1.5389 2.18461,2.7039 2.20358,2.13657 3.33932,2.55986 16.46086,6.13494 3.70699,1.01 5.54021,1.8152 7.06268,3.10209 0.62151,0.52535 2.1287,1.62412 3.3493,2.44172 2.18549,1.46392 2.36235,1.48567 11.61877,1.42903 5.16973,-0.0316 9.65612,-0.22893 9.96975,-0.43844 z m -92.93721,-1.5198 c 1.87608,-0.23275 3.14344,-0.81912 4.43201,-2.05055 1.27433,-1.21782 2.19789,-1.64942 3.14291,-1.46876 0.90521,0.17304 1.74269,-0.17463 2.58791,-1.07432 0.84459,-0.89904 1.88226,-1.33016 3.20157,-1.33016 1.07357,0 3.75119,-0.64902 5.95025,-1.44226 2.19907,-0.79325 5.15378,-1.55462 6.56603,-1.69194 2.36221,-0.2297 4.54526,-1.70731 4.54526,-3.0765 0,-0.99181 -3.76863,-4.01793 -5.62699,-4.51833 -3.11478,-0.83873 -22.93428,-0.9208 -23.9244,-0.0991 -0.44888,0.37254 -1.16619,0.54723 -1.59402,0.38821 -0.42784,-0.15902 -2.41947,-0.50989 -4.42586,-0.7797 -4.13245,-0.55573 -6.88347,0.21491 -7.96214,2.23041 -1.64105,3.06634 -2.79292,7.7983 -2.24749,9.23288 0.35833,0.94248 0.3586,1.45135 5.6e-4,1.45135 -1.07664,0 -0.53052,2.56666 0.72025,3.38504 0.69921,0.45749 2.92395,0.97363 4.94388,1.14698 3.72579,0.31976 4.986,0.28031 9.69006,-0.30328 z"
           style="fill:#131517" />
      </g>
    </g>
    <g
       transform="matrix(-1.4255746,0,0,1.4255746,4696.086,-340.34557)"
       id="g3132">
      <path
         style="fill:#666666;stroke:#666666;stroke-width:1px;stroke-linecap:butt;stroke-linejoin:miter;stroke-opacity:1"
         d="m 1969.4433,632.34076 148.4924,-120.20816 0.7071,-126.57211 67.8823,-42.42641 -14.1422,-17.67767 -67.1751,-16.26345 -14.8492,9.19239 -1.4143,45.25483 -12.0208,25.45584 -30.4056,-8.48528 4.9498,-93.33809 -73.5391,4.24264 -0.7071,132.93607 67.8822,17.67767 1.4142,42.42641 -85.5599,68.58936 z"
         id="path3134"
         inkscape:connector-curvature="0" />
      <path
         style="fill:#000000;stroke:#000000;stroke-width:1px;stroke-linecap:butt;stroke-linejoin:miter;stroke-opacity:1"
         d="m 2119.7033,397.22775 75.6604,-44.54772 -2.4749,-35.35534 -65.0538,-9.8995 -18.7383,-12.37437 -39.598,18.73833 4.2426,21.92031 -5.3033,11.31371 6.0105,12.37437 -1.4143,27.57716 z"
         id="path3136"
         inkscape:connector-curvature="0" />
      <g
         id="g3138"
         transform="translate(1000.0001,0)">
        <g
           id="g3140">
          <g
             id="g3142">
            <g
               id="g3144">
              <g
                 id="g3146">
                <path
                   sodipodi:end="0.29849893"
                   sodipodi:start="0"
                   sodipodi:open="true"
                   d="m 998.5,453.61218 c 0,0.67287 -0.12297,1.34197 -0.36482,1.98508"
                   sodipodi:ry="6.75"
                   sodipodi:rx="8.25"
                   sodipodi:cy="453.61218"
                   sodipodi:cx="990.25"
                   id="path3148"
                   style="fill:#666666;fill-opacity:1;stroke:#666666;stroke-opacity:1"
                   sodipodi:type="arc" />
                <path
                   d="m 999,456.61218 c 0,4.28021 -3.52576,7.75 -7.875,7.75 -4.34924,0 -7.875,-3.46979 -7.875,-7.75 0,-4.2802 3.52576,-7.75 7.875,-7.75 4.34924,0 7.875,3.4698 7.875,7.75 z"
                   sodipodi:ry="7.75"
                   sodipodi:rx="7.875"
                   sodipodi:cy="456.61218"
                   sodipodi:cx="991.125"
                   id="path3150"
                   style="fill:#666666;fill-opacity:1;stroke:#666666;stroke-opacity:1"
                   sodipodi:type="arc" />
                <path
                   d="m 1027.5,467.73718 c 0,4.62539 -3.9175,8.375 -8.75,8.375 -4.8325,0 -8.75,-3.74961 -8.75,-8.375 0,-4.62538 3.9175,-8.375 8.75,-8.375 4.8325,0 8.75,3.74962 8.75,8.375 z"
                   sodipodi:ry="8.375"
                   sodipodi:rx="8.75"
                   sodipodi:cy="467.73718"
                   sodipodi:cx="1018.75"
                   id="path3152"
                   style="fill:#666666;fill-opacity:1;stroke:#666666;stroke-opacity:1"
                   sodipodi:type="arc" />
                <path
                   d="m 998.75,491.61218 c 0,4.28021 -3.97347,7.75 -8.875,7.75 -4.90153,0 -8.875,-3.46979 -8.875,-7.75 0,-4.2802 3.97347,-7.75 8.875,-7.75 4.90153,0 8.875,3.4698 8.875,7.75 z"
                   sodipodi:ry="7.75"
                   sodipodi:rx="8.875"
                   sodipodi:cy="491.61218"
                   sodipodi:cx="989.875"
                   id="path3154"
                   style="fill:#666666;fill-opacity:1;stroke:#666666;stroke-opacity:1"
                   sodipodi:type="arc" />
              </g>
              <g
                 id="g3156">
                <path
                   d="m 1239.5582,636.40662 c 0,4.19813 -3.799,7.60139 -8.4853,7.60139 -4.6863,0 -8.4853,-3.40326 -8.4853,-7.60139 0,-4.19814 3.799,-7.6014 8.4853,-7.6014 4.6863,0 8.4853,3.40326 8.4853,7.6014 z"
                   sodipodi:ry="7.601398"
                   sodipodi:rx="8.485281"
                   sodipodi:cy="636.40662"
                   sodipodi:cx="1231.0729"
                   id="path3158"
                   style="fill:#666666;fill-opacity:1;stroke:#666666;stroke-opacity:1"
                   sodipodi:type="arc" />
                <path
                   d="m 1194.6569,643.3009 c 0,4.88156 -4.1156,8.83884 -9.1924,8.83884 -5.0768,0 -9.1924,-3.95728 -9.1924,-8.83884 0,-4.88155 4.1156,-8.83883 9.1924,-8.83883 5.0768,0 9.1924,3.95728 9.1924,8.83883 z"
                   sodipodi:ry="8.8388348"
                   sodipodi:rx="9.1923885"
                   sodipodi:cy="643.3009"
                   sodipodi:cx="1185.4645"
                   id="path3160"
                   style="fill:#666666;fill-opacity:1;stroke:#666666;stroke-opacity:1"
                   sodipodi:type="arc" />
                <path
                   d="m 1217.2843,664.86768 c 0,4.68629 -3.5616,8.48528 -7.955,8.48528 -4.3934,0 -7.9549,-3.79899 -7.9549,-8.48528 0,-4.6863 3.5615,-8.48529 7.9549,-8.48529 4.3934,0 7.955,3.79899 7.955,8.48529 z"
                   sodipodi:ry="8.485281"
                   sodipodi:rx="7.9549513"
                   sodipodi:cy="664.86768"
                   sodipodi:cx="1209.3293"
                   id="path3162"
                   style="fill:#666666;fill-opacity:1;stroke:#666666;stroke-opacity:1"
                   sodipodi:type="arc" />
              </g>
            </g>
            <g
               id="g3164">
              <path
                 sodipodi:type="arc"
                 style="fill:#666666;fill-opacity:1;stroke:#666666;stroke-opacity:1"
                 id="path3166"
                 sodipodi:cx="1406.4354"
                 sodipodi:cy="502.94022"
                 sodipodi:rx="10.960155"
                 sodipodi:ry="10.960155"
                 d="m 1417.3956,502.94022 c 0,6.05312 -4.907,10.96015 -10.9602,10.96015 -6.0531,0 -10.9601,-4.90703 -10.9601,-10.96015 0,-6.05313 4.907,-10.96016 10.9601,-10.96016 6.0532,0 10.9602,4.90703 10.9602,10.96016 z" />
              <path
                 sodipodi:type="arc"
                 style="fill:#666666;fill-opacity:1;stroke:#666666;stroke-opacity:1"
                 id="path3168"
                 sodipodi:cx="1429.2396"
                 sodipodi:cy="525.56763"
                 sodipodi:rx="9.7227182"
                 sodipodi:ry="8.1317282"
                 d="m 1438.9623,525.56763 c 0,4.49103 -4.353,8.13173 -9.7227,8.13173 -5.3697,0 -9.7227,-3.6407 -9.7227,-8.13173 0,-4.49103 4.353,-8.13173 9.7227,-8.13173 5.3697,0 9.7227,3.6407 9.7227,8.13173 z" />
              <path
                 sodipodi:type="arc"
                 style="fill:#666666;fill-opacity:1;stroke:#666666;stroke-opacity:1"
                 id="path3170"
                 sodipodi:cx="1379.035"
                 sodipodi:cy="521.32501"
                 sodipodi:rx="10.076272"
                 sodipodi:ry="9.1923885"
                 d="m 1389.1113,521.32501 c 0,5.07682 -4.5113,9.19239 -10.0763,9.19239 -5.5649,0 -10.0762,-4.11557 -10.0762,-9.19239 0,-5.07681 4.5113,-9.19239 10.0762,-9.19239 5.565,0 10.0763,4.11558 10.0763,9.19239 z" />
              <path
                 sodipodi:type="arc"
                 style="fill:#666666;fill-opacity:1;stroke:#666666;stroke-opacity:1"
                 id="path3172"
                 sodipodi:cx="1418.8097"
                 sodipodi:cy="761.38776"
                 sodipodi:rx="7.4246211"
                 sodipodi:ry="6.7175145"
                 d="m 1426.2343,761.38776 c 0,3.70998 -3.3241,6.71751 -7.4246,6.71751 -4.1005,0 -7.4246,-3.00753 -7.4246,-6.71751 0,-3.70998 3.3241,-6.71752 7.4246,-6.71752 4.1005,0 7.4246,3.00754 7.4246,6.71752 z" />
              <path
                 sodipodi:type="arc"
                 style="fill:#666666;fill-opacity:1;stroke:#666666;stroke-opacity:1"
                 id="path3174"
                 sodipodi:cx="1452.7509"
                 sodipodi:cy="768.81238"
                 sodipodi:rx="10.253048"
                 sodipodi:ry="7.7781744"
                 d="m 1463.0039,768.81238 c 0,4.29577 -4.5904,7.77817 -10.253,7.77817 -5.6626,0 -10.2531,-3.4824 -10.2531,-7.77817 0,-4.29577 4.5905,-7.77818 10.2531,-7.77818 5.6626,0 10.253,3.48241 10.253,7.77818 z" />
              <path
                 sodipodi:type="arc"
                 style="fill:#666666;fill-opacity:1;stroke:#666666;stroke-opacity:1"
                 id="path3176"
                 sodipodi:cx="1441.7908"
                 sodipodi:cy="798.51086"
                 sodipodi:rx="9.1923885"
                 sodipodi:ry="7.0710678"
                 d="m 1450.9832,798.51086 c 0,3.90525 -4.1156,7.07107 -9.1924,7.07107 -5.0768,0 -9.1924,-3.16582 -9.1924,-7.07107 0,-3.90524 4.1156,-7.07106 9.1924,-7.07106 5.0768,0 9.1924,3.16582 9.1924,7.07106 z" />
            </g>
          </g>
          <path
             style="fill:#666666;stroke:#000000;stroke-width:1px;stroke-linecap:butt;stroke-linejoin:miter;stroke-opacity:1"
             d="m 961,698.36218 c 0,0 77,-89 112,-108 35,-19 93,-35 107,-39 14,-4 4,-18 4,-18 l 29,-112.99999 22,-26 -14,-16 39,-74 10,-2 6,-18 72,4 -6,23 -20,88 -15,2 -11,29 12,11 -26,100.99999 204,-1 7,68 c 0,0 -279,-4 -287,-3 -8,1 -100,54 -118,70 -18,16 -86,72 -110,117 -24,45 -17,-95 -17,-95 z"
             id="path3178"
             inkscape:connector-curvature="0" />
        </g>
        <path
           inkscape:connector-curvature="0"
           id="path3180"
           d="m 966,917.36218 44,-29 93,-124 229,-8 71,72 25,49 71,37 -19,41 -103,-47 -34,-66 -36,-31 -158,0 -33,21 -49,79 -88,48 -11,3 z"
           style="fill:#666666;stroke:#666666;stroke-width:1px;stroke-linecap:butt;stroke-linejoin:miter;stroke-opacity:1" />
      </g>
      <g
         id="g3182"
         transform="translate(900,0)">
        <path
           inkscape:connector-curvature="0"
           id="path3184"
           d="m 1068,733.36218 4,30 c 0,0 117,-128 166,-146 49,-18 66,-16 66,-16 l 284,-3 -7,-25 -248,6 3,-29 51,8 33,-125.99999 -46,-6 6,-19 51,1 26,-95 -38,-10 5,-11 -25,-4 -7,12 -49,-4 -42,89 50,17 -2,16 -45,-7 -43,116.99999 43,16 -4,36 c 0,0 -97,26 -124,48 -27,22 -108,105 -108,105 z"
           style="fill:#000000;stroke:#000000;stroke-width:1px;stroke-linecap:butt;stroke-linejoin:miter;stroke-opacity:1" />
        <g
           transform="translate(100,0)"
           id="g3186">
          <path
             style="fill:#666666;stroke:#666666;stroke-width:1px;stroke-linecap:butt;stroke-linejoin:miter;stroke-opacity:1"
             d="m 1293,386.36219 c 5.5,-18.5 -6.5,-15 -5.5,-27.5 1,-12.5 16.5,-17.5 16.5,-17.5 0,0 16.5,-19.5 13,-22 -3.5,-2.5 17,3 17,3 l -25,70 z"
             id="path3188"
             inkscape:connector-curvature="0" />
          <path
             style="fill:#666666;stroke:#666666;stroke-width:1px;stroke-linecap:butt;stroke-linejoin:miter;stroke-opacity:1"
             d="m 1263.5,382.86219 c 2.5,-8 -5,-14 -5,-14 l 11.5,-38 17.5,-9.5 2.5,-4 -31,-6 -28,62 z"
             id="path3190"
             inkscape:connector-curvature="0" />
          <path
             style="fill:#666666;stroke:#666666;stroke-width:1px;stroke-linecap:butt;stroke-linejoin:miter;stroke-opacity:1"
             d="m 1276.5,443.86218 -5,25.5 -19,9 c 0,0 14.5,-2 15.5,4.5 1,6.5 -0.5,12.5 -8.5,12 -8,-0.5 0,8.5 -0.5,15 -0.5,6.5 -8.5,14 -8.5,14 l 16.5,7.5 22.5,-80 z"
             id="path3192"
             inkscape:connector-curvature="0" />
          <path
             style="fill:#666666;stroke:#666666;stroke-width:1px;stroke-linecap:butt;stroke-linejoin:miter;stroke-opacity:1"
             d="m 1222,524.36218 0.5,-11.5 c 0,0 -13.5,-3.5 -11,-8 2.5,-4.5 -1.5,0.5 -6.5,-6.5 -5,-7 0.5,-13.5 0.5,-13.5 0,0 10,-2 14.5,4.5 4.5,6.5 4,-13 4,-13 0,0 -12,3.5 -13.5,-3.5 -1.5,-7 2.5,-15 2.5,-15 0,0 8,-2 14,4.5 6,6.5 21,-20.5 21,-20.5 l -28.5,-4 -9,17 -18,59 z"
             id="path3194"
             inkscape:connector-curvature="0" />
        </g>
      </g>
      <path
         style="fill:#000000;stroke:#000000;stroke-width:1px;stroke-linecap:butt;stroke-linejoin:miter;stroke-opacity:1"
         d="m 1967.5,612.86218 129.5,-96.5 -3.5,-92 -74,-14.5 4,-114.49999 -25.5,1.5 -2,129.99999 72.5,15 0,64.5 -105.5,78.5 z"
         id="path3196"
         inkscape:connector-curvature="0" />
      <path
         style="fill:#666666;stroke:#666666;stroke-width:1px;stroke-linecap:butt;stroke-linejoin:miter;stroke-opacity:1"
         d="m 2099.5529,321.79871 c 0,0 4.3615,16.13782 -1.7447,20.06323 -6.1062,3.92542 1.7447,16.13782 1.7447,16.13782 0,0 9.1593,9.59546 5.67,14.39319 -3.4893,4.79773 6.1062,5.23389 10.9039,0 4.7978,-5.23388 22.2441,-11.34009 26.1695,-11.34009 3.9254,0 17.8824,-21.3717 27.0417,-19.62707 9.1593,1.74462 2.1808,-7.41468 -4.7977,-6.97852 -6.9785,0.43616 -25.7333,-11.34009 -34.4564,-12.64856 -8.7232,-1.30848 -13.5209,5.67004 -20.4994,-1.74463 -6.9785,-7.41468 -10.0316,1.74463 -10.0316,1.74463 z"
         id="path3198"
         inkscape:connector-curvature="0" />
      <path
         sodipodi:type="arc"
         style="fill:#000000;fill-opacity:1;stroke:#000000;stroke-opacity:1"
         id="path3200"
         sodipodi:cx="1129"
         sodipodi:cy="343.86218"
         sodipodi:rx="11"
         sodipodi:ry="6.5"
         d="m 1140,343.86218 c 0,3.58985 -4.9249,6.5 -11,6.5 -6.0751,0 -11,-2.91015 -11,-6.5 0,-3.58985 4.9249,-6.5 11,-6.5 6.0751,0 11,2.91015 11,6.5 z"
         transform="translate(1000,0)" />
      <g
         id="g3202"
         transform="translate(999.99956,0)">
        <path
           d="m 1258.3119,354.89346 c 0,3.83243 -3.452,6.93922 -7.7102,6.93922 -4.2583,0 -7.7103,-3.10679 -7.7103,-6.93922 0,-3.83242 3.452,-6.93922 7.7103,-6.93922 4.2582,0 7.7102,3.1068 7.7102,6.93922 z"
           sodipodi:ry="6.93922"
           sodipodi:rx="7.7102447"
           sodipodi:cy="354.89346"
           sodipodi:cx="1250.6017"
           id="path3205"
           style="fill:#000000;fill-opacity:1;stroke:#000000;stroke-opacity:1"
           sodipodi:type="arc" />
        <path
           d="m 1268.4895,337.46829 c 0,3.23627 -2.9688,5.85979 -6.6309,5.85979 -3.6621,0 -6.6308,-2.62352 -6.6308,-5.85979 0,-3.23627 2.9687,-5.85978 6.6308,-5.85978 3.6621,0 6.6309,2.62351 6.6309,5.85978 z"
           sodipodi:ry="5.859786"
           sodipodi:rx="6.6308103"
           sodipodi:cy="337.46829"
           sodipodi:cx="1261.8586"
           id="path3207"
           style="fill:#000000;fill-opacity:1;stroke:#000000;stroke-opacity:1"
           sodipodi:type="arc" />
        <path
           d="m 1309.5079,353.35141 c 0,2.81045 -3.5901,5.08876 -8.0186,5.08876 -4.4286,0 -8.0187,-2.27831 -8.0187,-5.08876 0,-2.81045 3.5901,-5.08876 8.0187,-5.08876 4.4285,0 8.0186,2.27831 8.0186,5.08876 z"
           sodipodi:ry="5.0887613"
           sodipodi:rx="8.0186548"
           sodipodi:cy="353.35141"
           sodipodi:cx="1301.4893"
           id="path3209"
           style="fill:#000000;fill-opacity:1;stroke:#000000;stroke-opacity:1"
           sodipodi:type="arc" />
      </g>
      <path
         style="fill:#000000;stroke:#000000;stroke-width:1px;stroke-linecap:butt;stroke-linejoin:miter;stroke-opacity:1"
         d="m 1968.4071,966.62426 25.9064,0 78.9528,-43.79419 70.9343,-104.2425 156.0553,-0.61682 c 0,0 27.7569,44.41101 59.2147,91.28929 l 119.663,49.96239 4.9346,-17.27095 -82.037,-37.62599 22.8223,-15.42049 73.4015,33.30825 2.4673,-16.0373 -62.9156,-38.24282 c 0,0 -48.7287,-109.17706 -85.7379,-119.66299 -37.0092,-10.48594 -249.1951,3.70091 -249.1951,3.70091 0,0 -101.7752,99.92477 -98.6911,123.36392 3.0841,23.43914 -34.5419,9.86911 -39.4765,20.35504 -4.9345,10.48594 0,24.05597 0,24.05597 l 46.2615,-23.43915 32.0746,16.03731 -75.252,40.71009 z"
         id="path3211"
         inkscape:connector-curvature="0" />
      <path
         style="fill:#666666;stroke:#666666;stroke-width:1px;stroke-linecap:butt;stroke-linejoin:miter;stroke-opacity:1"
         d="m 2023.92,885.8209 30.841,16.03731 11.1027,-32.69144 27.1401,-31.4578 28.3737,-25.90642 -15.4205,-31.4578 -39.4765,33.92508 -35.1587,53.04648 -4.3177,19.73823"
         id="path3213"
         inkscape:connector-curvature="0" />
      <path
         style="fill:#666666;stroke:#666666;stroke-width:1px;stroke-linecap:butt;stroke-linejoin:miter;stroke-opacity:1"
         d="m 2299.0215,796.38206 -160.3731,4.31774 -17.8877,-29.60734 194.2981,-4.93456 z"
         id="path3215"
         inkscape:connector-curvature="0" />
      <path
         style="fill:#666666;stroke:#666666;stroke-width:1px;stroke-linecap:butt;stroke-linejoin:miter;stroke-opacity:1"
         d="m 2322.4607,806.25118 34.5418,32.07461 19.7383,34.5419 6.1682,13.57003 25.9064,-12.95321 -19.7382,-48.11193 -17.8878,-16.65413 -31.4578,-31.45779 -16.0373,32.07461"
         id="path3217"
         inkscape:connector-curvature="0" />
    </g>
    <g
       id="g3305"
       transform="matrix(1.4255746,0,0,1.4255746,-2771.4846,-340.34557)">
      <path
         inkscape:connector-curvature="0"
         id="path3307"
         d="m 1969.4433,632.34076 148.4924,-120.20816 0.7071,-126.57211 67.8823,-42.42641 -14.1422,-17.67767 -67.1751,-16.26345 -14.8492,9.19239 -1.4143,45.25483 -12.0208,25.45584 -30.4056,-8.48528 4.9498,-93.33809 -73.5391,4.24264 -0.7071,132.93607 67.8822,17.67767 1.4142,42.42641 -85.5599,68.58936 z"
         style="fill:#666666;stroke:#666666;stroke-width:1px;stroke-linecap:butt;stroke-linejoin:miter;stroke-opacity:1" />
      <path
         inkscape:connector-curvature="0"
         id="path3309"
         d="m 2119.7033,397.22775 75.6604,-44.54772 -2.4749,-35.35534 -65.0538,-9.8995 -18.7383,-12.37437 -39.598,18.73833 4.2426,21.92031 -5.3033,11.31371 6.0105,12.37437 -1.4143,27.57716 z"
         style="fill:#000000;stroke:#000000;stroke-width:1px;stroke-linecap:butt;stroke-linejoin:miter;stroke-opacity:1" />
      <g
         transform="translate(1000.0001,0)"
         id="g3311">
        <g
           id="g3313">
          <g
             id="g3315">
            <g
               id="g3317">
              <g
                 id="g3319">
                <path
                   sodipodi:type="arc"
                   style="fill:#666666;fill-opacity:1;stroke:#666666;stroke-opacity:1"
                   id="path3321"
                   sodipodi:cx="990.25"
                   sodipodi:cy="453.61218"
                   sodipodi:rx="8.25"
                   sodipodi:ry="6.75"
                   d="m 998.5,453.61218 c 0,0.67287 -0.12297,1.34197 -0.36482,1.98508"
                   sodipodi:open="true"
                   sodipodi:start="0"
                   sodipodi:end="0.29849893" />
                <path
                   sodipodi:type="arc"
                   style="fill:#666666;fill-opacity:1;stroke:#666666;stroke-opacity:1"
                   id="path3323"
                   sodipodi:cx="991.125"
                   sodipodi:cy="456.61218"
                   sodipodi:rx="7.875"
                   sodipodi:ry="7.75"
                   d="m 999,456.61218 c 0,4.28021 -3.52576,7.75 -7.875,7.75 -4.34924,0 -7.875,-3.46979 -7.875,-7.75 0,-4.2802 3.52576,-7.75 7.875,-7.75 4.34924,0 7.875,3.4698 7.875,7.75 z" />
                <path
                   sodipodi:type="arc"
                   style="fill:#666666;fill-opacity:1;stroke:#666666;stroke-opacity:1"
                   id="path3325"
                   sodipodi:cx="1018.75"
                   sodipodi:cy="467.73718"
                   sodipodi:rx="8.75"
                   sodipodi:ry="8.375"
                   d="m 1027.5,467.73718 c 0,4.62539 -3.9175,8.375 -8.75,8.375 -4.8325,0 -8.75,-3.74961 -8.75,-8.375 0,-4.62538 3.9175,-8.375 8.75,-8.375 4.8325,0 8.75,3.74962 8.75,8.375 z" />
                <path
                   sodipodi:type="arc"
                   style="fill:#666666;fill-opacity:1;stroke:#666666;stroke-opacity:1"
                   id="path3327"
                   sodipodi:cx="989.875"
                   sodipodi:cy="491.61218"
                   sodipodi:rx="8.875"
                   sodipodi:ry="7.75"
                   d="m 998.75,491.61218 c 0,4.28021 -3.97347,7.75 -8.875,7.75 -4.90153,0 -8.875,-3.46979 -8.875,-7.75 0,-4.2802 3.97347,-7.75 8.875,-7.75 4.90153,0 8.875,3.4698 8.875,7.75 z" />
              </g>
              <g
                 id="g3329">
                <path
                   sodipodi:type="arc"
                   style="fill:#666666;fill-opacity:1;stroke:#666666;stroke-opacity:1"
                   id="path3331"
                   sodipodi:cx="1231.0729"
                   sodipodi:cy="636.40662"
                   sodipodi:rx="8.485281"
                   sodipodi:ry="7.601398"
                   d="m 1239.5582,636.40662 c 0,4.19813 -3.799,7.60139 -8.4853,7.60139 -4.6863,0 -8.4853,-3.40326 -8.4853,-7.60139 0,-4.19814 3.799,-7.6014 8.4853,-7.6014 4.6863,0 8.4853,3.40326 8.4853,7.6014 z" />
                <path
                   sodipodi:type="arc"
                   style="fill:#666666;fill-opacity:1;stroke:#666666;stroke-opacity:1"
                   id="path3333"
                   sodipodi:cx="1185.4645"
                   sodipodi:cy="643.3009"
                   sodipodi:rx="9.1923885"
                   sodipodi:ry="8.8388348"
                   d="m 1194.6569,643.3009 c 0,4.88156 -4.1156,8.83884 -9.1924,8.83884 -5.0768,0 -9.1924,-3.95728 -9.1924,-8.83884 0,-4.88155 4.1156,-8.83883 9.1924,-8.83883 5.0768,0 9.1924,3.95728 9.1924,8.83883 z" />
                <path
                   sodipodi:type="arc"
                   style="fill:#666666;fill-opacity:1;stroke:#666666;stroke-opacity:1"
                   id="path3335"
                   sodipodi:cx="1209.3293"
                   sodipodi:cy="664.86768"
                   sodipodi:rx="7.9549513"
                   sodipodi:ry="8.485281"
                   d="m 1217.2843,664.86768 c 0,4.68629 -3.5616,8.48528 -7.955,8.48528 -4.3934,0 -7.9549,-3.79899 -7.9549,-8.48528 0,-4.6863 3.5615,-8.48529 7.9549,-8.48529 4.3934,0 7.955,3.79899 7.955,8.48529 z" />
              </g>
            </g>
            <g
               id="g3337">
              <path
                 d="m 1417.3956,502.94022 c 0,6.05312 -4.907,10.96015 -10.9602,10.96015 -6.0531,0 -10.9601,-4.90703 -10.9601,-10.96015 0,-6.05313 4.907,-10.96016 10.9601,-10.96016 6.0532,0 10.9602,4.90703 10.9602,10.96016 z"
                 sodipodi:ry="10.960155"
                 sodipodi:rx="10.960155"
                 sodipodi:cy="502.94022"
                 sodipodi:cx="1406.4354"
                 id="path3339"
                 style="fill:#666666;fill-opacity:1;stroke:#666666;stroke-opacity:1"
                 sodipodi:type="arc" />
              <path
                 d="m 1438.9623,525.56763 c 0,4.49103 -4.353,8.13173 -9.7227,8.13173 -5.3697,0 -9.7227,-3.6407 -9.7227,-8.13173 0,-4.49103 4.353,-8.13173 9.7227,-8.13173 5.3697,0 9.7227,3.6407 9.7227,8.13173 z"
                 sodipodi:ry="8.1317282"
                 sodipodi:rx="9.7227182"
                 sodipodi:cy="525.56763"
                 sodipodi:cx="1429.2396"
                 id="path3341"
                 style="fill:#666666;fill-opacity:1;stroke:#666666;stroke-opacity:1"
                 sodipodi:type="arc" />
              <path
                 d="m 1389.1113,521.32501 c 0,5.07682 -4.5113,9.19239 -10.0763,9.19239 -5.5649,0 -10.0762,-4.11557 -10.0762,-9.19239 0,-5.07681 4.5113,-9.19239 10.0762,-9.19239 5.565,0 10.0763,4.11558 10.0763,9.19239 z"
                 sodipodi:ry="9.1923885"
                 sodipodi:rx="10.076272"
                 sodipodi:cy="521.32501"
                 sodipodi:cx="1379.035"
                 id="path3343"
                 style="fill:#666666;fill-opacity:1;stroke:#666666;stroke-opacity:1"
                 sodipodi:type="arc" />
              <path
                 d="m 1426.2343,761.38776 c 0,3.70998 -3.3241,6.71751 -7.4246,6.71751 -4.1005,0 -7.4246,-3.00753 -7.4246,-6.71751 0,-3.70998 3.3241,-6.71752 7.4246,-6.71752 4.1005,0 7.4246,3.00754 7.4246,6.71752 z"
                 sodipodi:ry="6.7175145"
                 sodipodi:rx="7.4246211"
                 sodipodi:cy="761.38776"
                 sodipodi:cx="1418.8097"
                 id="path3345"
                 style="fill:#666666;fill-opacity:1;stroke:#666666;stroke-opacity:1"
                 sodipodi:type="arc" />
              <path
                 d="m 1463.0039,768.81238 c 0,4.29577 -4.5904,7.77817 -10.253,7.77817 -5.6626,0 -10.2531,-3.4824 -10.2531,-7.77817 0,-4.29577 4.5905,-7.77818 10.2531,-7.77818 5.6626,0 10.253,3.48241 10.253,7.77818 z"
                 sodipodi:ry="7.7781744"
                 sodipodi:rx="10.253048"
                 sodipodi:cy="768.81238"
                 sodipodi:cx="1452.7509"
                 id="path3347"
                 style="fill:#666666;fill-opacity:1;stroke:#666666;stroke-opacity:1"
                 sodipodi:type="arc" />
              <path
                 d="m 1450.9832,798.51086 c 0,3.90525 -4.1156,7.07107 -9.1924,7.07107 -5.0768,0 -9.1924,-3.16582 -9.1924,-7.07107 0,-3.90524 4.1156,-7.07106 9.1924,-7.07106 5.0768,0 9.1924,3.16582 9.1924,7.07106 z"
                 sodipodi:ry="7.0710678"
                 sodipodi:rx="9.1923885"
                 sodipodi:cy="798.51086"
                 sodipodi:cx="1441.7908"
                 id="path3349"
                 style="fill:#666666;fill-opacity:1;stroke:#666666;stroke-opacity:1"
                 sodipodi:type="arc" />
            </g>
          </g>
          <path
             inkscape:connector-curvature="0"
             id="path3351"
             d="m 961,698.36218 c 0,0 77,-89 112,-108 35,-19 93,-35 107,-39 14,-4 4,-18 4,-18 l 29,-112.99999 22,-26 -14,-16 39,-74 10,-2 6,-18 72,4 -6,23 -20,88 -15,2 -11,29 12,11 -26,100.99999 204,-1 7,68 c 0,0 -279,-4 -287,-3 -8,1 -100,54 -118,70 -18,16 -86,72 -110,117 -24,45 -17,-95 -17,-95 z"
             style="fill:#666666;stroke:#000000;stroke-width:1px;stroke-linecap:butt;stroke-linejoin:miter;stroke-opacity:1" />
        </g>
        <path
           style="fill:#666666;stroke:#666666;stroke-width:1px;stroke-linecap:butt;stroke-linejoin:miter;stroke-opacity:1"
           d="m 966,917.36218 44,-29 93,-124 229,-8 71,72 25,49 71,37 -19,41 -103,-47 -34,-66 -36,-31 -158,0 -33,21 -49,79 -88,48 -11,3 z"
           id="path3353"
           inkscape:connector-curvature="0" />
      </g>
      <g
         transform="translate(900,0)"
         id="g3355">
        <path
           style="fill:#000000;stroke:#000000;stroke-width:1px;stroke-linecap:butt;stroke-linejoin:miter;stroke-opacity:1"
           d="m 1068,733.36218 4,30 c 0,0 117,-128 166,-146 49,-18 66,-16 66,-16 l 284,-3 -7,-25 -248,6 3,-29 51,8 33,-125.99999 -46,-6 6,-19 51,1 26,-95 -38,-10 5,-11 -25,-4 -7,12 -49,-4 -42,89 50,17 -2,16 -45,-7 -43,116.99999 43,16 -4,36 c 0,0 -97,26 -124,48 -27,22 -108,105 -108,105 z"
           id="path3357"
           inkscape:connector-curvature="0" />
        <g
           id="g3359"
           transform="translate(100,0)">
          <path
             inkscape:connector-curvature="0"
             id="path3361"
             d="m 1293,386.36219 c 5.5,-18.5 -6.5,-15 -5.5,-27.5 1,-12.5 16.5,-17.5 16.5,-17.5 0,0 16.5,-19.5 13,-22 -3.5,-2.5 17,3 17,3 l -25,70 z"
             style="fill:#666666;stroke:#666666;stroke-width:1px;stroke-linecap:butt;stroke-linejoin:miter;stroke-opacity:1" />
          <path
             inkscape:connector-curvature="0"
             id="path3363"
             d="m 1263.5,382.86219 c 2.5,-8 -5,-14 -5,-14 l 11.5,-38 17.5,-9.5 2.5,-4 -31,-6 -28,62 z"
             style="fill:#666666;stroke:#666666;stroke-width:1px;stroke-linecap:butt;stroke-linejoin:miter;stroke-opacity:1" />
          <path
             inkscape:connector-curvature="0"
             id="path3365"
             d="m 1276.5,443.86218 -5,25.5 -19,9 c 0,0 14.5,-2 15.5,4.5 1,6.5 -0.5,12.5 -8.5,12 -8,-0.5 0,8.5 -0.5,15 -0.5,6.5 -8.5,14 -8.5,14 l 16.5,7.5 22.5,-80 z"
             style="fill:#666666;stroke:#666666;stroke-width:1px;stroke-linecap:butt;stroke-linejoin:miter;stroke-opacity:1" />
          <path
             inkscape:connector-curvature="0"
             id="path3367"
             d="m 1222,524.36218 0.5,-11.5 c 0,0 -13.5,-3.5 -11,-8 2.5,-4.5 -1.5,0.5 -6.5,-6.5 -5,-7 0.5,-13.5 0.5,-13.5 0,0 10,-2 14.5,4.5 4.5,6.5 4,-13 4,-13 0,0 -12,3.5 -13.5,-3.5 -1.5,-7 2.5,-15 2.5,-15 0,0 8,-2 14,4.5 6,6.5 21,-20.5 21,-20.5 l -28.5,-4 -9,17 -18,59 z"
             style="fill:#666666;stroke:#666666;stroke-width:1px;stroke-linecap:butt;stroke-linejoin:miter;stroke-opacity:1" />
        </g>
      </g>
      <path
         inkscape:connector-curvature="0"
         id="path3369"
         d="m 1967.5,612.86218 129.5,-96.5 -3.5,-92 -74,-14.5 4,-114.49999 -25.5,1.5 -2,129.99999 72.5,15 0,64.5 -105.5,78.5 z"
         style="fill:#000000;stroke:#000000;stroke-width:1px;stroke-linecap:butt;stroke-linejoin:miter;stroke-opacity:1" />
      <path
         inkscape:connector-curvature="0"
         id="path3371"
         d="m 2099.5529,321.79871 c 0,0 4.3615,16.13782 -1.7447,20.06323 -6.1062,3.92542 1.7447,16.13782 1.7447,16.13782 0,0 9.1593,9.59546 5.67,14.39319 -3.4893,4.79773 6.1062,5.23389 10.9039,0 4.7978,-5.23388 22.2441,-11.34009 26.1695,-11.34009 3.9254,0 17.8824,-21.3717 27.0417,-19.62707 9.1593,1.74462 2.1808,-7.41468 -4.7977,-6.97852 -6.9785,0.43616 -25.7333,-11.34009 -34.4564,-12.64856 -8.7232,-1.30848 -13.5209,5.67004 -20.4994,-1.74463 -6.9785,-7.41468 -10.0316,1.74463 -10.0316,1.74463 z"
         style="fill:#666666;stroke:#666666;stroke-width:1px;stroke-linecap:butt;stroke-linejoin:miter;stroke-opacity:1" />
      <path
         transform="translate(1000,0)"
         d="m 1140,343.86218 c 0,3.58985 -4.9249,6.5 -11,6.5 -6.0751,0 -11,-2.91015 -11,-6.5 0,-3.58985 4.9249,-6.5 11,-6.5 6.0751,0 11,2.91015 11,6.5 z"
         sodipodi:ry="6.5"
         sodipodi:rx="11"
         sodipodi:cy="343.86218"
         sodipodi:cx="1129"
         id="path3373"
         style="fill:#000000;fill-opacity:1;stroke:#000000;stroke-opacity:1"
         sodipodi:type="arc" />
      <g
         transform="translate(999.99956,0)"
         id="g3375">
        <path
           sodipodi:type="arc"
           style="fill:#000000;fill-opacity:1;stroke:#000000;stroke-opacity:1"
           id="path3377"
           sodipodi:cx="1250.6017"
           sodipodi:cy="354.89346"
           sodipodi:rx="7.7102447"
           sodipodi:ry="6.93922"
           d="m 1258.3119,354.89346 c 0,3.83243 -3.452,6.93922 -7.7102,6.93922 -4.2583,0 -7.7103,-3.10679 -7.7103,-6.93922 0,-3.83242 3.452,-6.93922 7.7103,-6.93922 4.2582,0 7.7102,3.1068 7.7102,6.93922 z" />
        <path
           sodipodi:type="arc"
           style="fill:#000000;fill-opacity:1;stroke:#000000;stroke-opacity:1"
           id="path3379"
           sodipodi:cx="1261.8586"
           sodipodi:cy="337.46829"
           sodipodi:rx="6.6308103"
           sodipodi:ry="5.859786"
           d="m 1268.4895,337.46829 c 0,3.23627 -2.9688,5.85979 -6.6309,5.85979 -3.6621,0 -6.6308,-2.62352 -6.6308,-5.85979 0,-3.23627 2.9687,-5.85978 6.6308,-5.85978 3.6621,0 6.6309,2.62351 6.6309,5.85978 z" />
        <path
           sodipodi:type="arc"
           style="fill:#000000;fill-opacity:1;stroke:#000000;stroke-opacity:1"
           id="path3381"
           sodipodi:cx="1301.4893"
           sodipodi:cy="353.35141"
           sodipodi:rx="8.0186548"
           sodipodi:ry="5.0887613"
           d="m 1309.5079,353.35141 c 0,2.81045 -3.5901,5.08876 -8.0186,5.08876 -4.4286,0 -8.0187,-2.27831 -8.0187,-5.08876 0,-2.81045 3.5901,-5.08876 8.0187,-5.08876 4.4285,0 8.0186,2.27831 8.0186,5.08876 z" />
      </g>
      <path
         inkscape:connector-curvature="0"
         id="path3383"
         d="m 1968.4071,966.62426 25.9064,0 78.9528,-43.79419 70.9343,-104.2425 156.0553,-0.61682 c 0,0 27.7569,44.41101 59.2147,91.28929 l 119.663,49.96239 4.9346,-17.27095 -82.037,-37.62599 22.8223,-15.42049 73.4015,33.30825 2.4673,-16.0373 -62.9156,-38.24282 c 0,0 -48.7287,-109.17706 -85.7379,-119.66299 -37.0092,-10.48594 -249.1951,3.70091 -249.1951,3.70091 0,0 -101.7752,99.92477 -98.6911,123.36392 3.0841,23.43914 -34.5419,9.86911 -39.4765,20.35504 -4.9345,10.48594 0,24.05597 0,24.05597 l 46.2615,-23.43915 32.0746,16.03731 -75.252,40.71009 z"
         style="fill:#000000;stroke:#000000;stroke-width:1px;stroke-linecap:butt;stroke-linejoin:miter;stroke-opacity:1" />
      <path
         inkscape:connector-curvature="0"
         id="path3385"
         d="m 2023.92,885.8209 30.841,16.03731 11.1027,-32.69144 27.1401,-31.4578 28.3737,-25.90642 -15.4205,-31.4578 -39.4765,33.92508 -35.1587,53.04648 -4.3177,19.73823"
         style="fill:#666666;stroke:#666666;stroke-width:1px;stroke-linecap:butt;stroke-linejoin:miter;stroke-opacity:1" />
      <path
         inkscape:connector-curvature="0"
         id="path3387"
         d="m 2299.0215,796.38206 -160.3731,4.31774 -17.8877,-29.60734 194.2981,-4.93456 z"
         style="fill:#666666;stroke:#666666;stroke-width:1px;stroke-linecap:butt;stroke-linejoin:miter;stroke-opacity:1" />
      <path
         inkscape:connector-curvature="0"
         id="path3389"
         d="m 2322.4607,806.25118 34.5418,32.07461 19.7383,34.5419 6.1682,13.57003 25.9064,-12.95321 -19.7382,-48.11193 -17.8878,-16.65413 -31.4578,-31.45779 -16.0373,32.07461"
         style="fill:#666666;stroke:#666666;stroke-width:1px;stroke-linecap:butt;stroke-linejoin:miter;stroke-opacity:1" />
    </g>
  </g>
</svg>
