<?xml version="1.0" encoding="UTF-8" standalone="no"?>
<!-- Created with Inkscape (http://www.inkscape.org/) -->

<svg
   xmlns:dc="http://purl.org/dc/elements/1.1/"
   xmlns:cc="http://creativecommons.org/ns#"
   xmlns:rdf="http://www.w3.org/1999/02/22-rdf-syntax-ns#"
   xmlns:svg="http://www.w3.org/2000/svg"
   xmlns="http://www.w3.org/2000/svg"
   xmlns:sodipodi="http://sodipodi.sourceforge.net/DTD/sodipodi-0.dtd"
   xmlns:inkscape="http://www.inkscape.org/namespaces/inkscape"
   width="1024"
   height="1024"
   id="svg2"
   version="1.1"
   inkscape:version="0.48.4 r9939"
   sodipodi:docname="Hospital Logo.svg"
   inkscape:export-filename="G:\LEGO Textures Scans\Complete\Classics\Hospital Logo.png"
   inkscape:export-xdpi="90"
   inkscape:export-ydpi="90">
  <defs
     id="defs4" />
  <sodipodi:namedview
     id="base"
     pagecolor="#ffffff"
     bordercolor="#666666"
     borderopacity="1.0"
     inkscape:pageopacity="0.0"
     inkscape:pageshadow="2"
     inkscape:zoom="0.7"
     inkscape:cx="836.4553"
     inkscape:cy="516.60049"
     inkscape:document-units="px"
     inkscape:current-layer="g3036"
     showgrid="false"
     inkscape:window-width="1920"
     inkscape:window-height="1018"
     inkscape:window-x="-8"
     inkscape:window-y="-8"
     inkscape:window-maximized="1" />
  <metadata
     id="metadata7">
    <rdf:RDF>
      <cc:Work
         rdf:about="">
        <dc:format>image/svg+xml</dc:format>
        <dc:type
           rdf:resource="http://purl.org/dc/dcmitype/StillImage" />
        <dc:title></dc:title>
      </cc:Work>
    </rdf:RDF>
  </metadata>
  <g
     inkscape:label="Layer 1"
     inkscape:groupmode="layer"
     id="layer1"
     transform="translate(0,-28.362183)">
    <g
       id="g3036"
       transform="matrix(12.600469,0,0,12.600469,-4247.6104,-6152.3087)">
      <path
         style="fill:#0b6bbc"
         d="m 365.4451,561.8579 c 0.3983,-9.75127 0.85823,-10.71872 -1.6951,-9.97606 -1.2375,0.35995 -4.92318,2.27073 -8.1904,4.24619 -3.55544,2.14973 -6.08988,3.1433 -6.31273,2.47477 -0.20477,-0.61433 -2.59801,-4.78142 -5.3183,-9.2602 -2.72028,-4.47878 -4.69727,-8.54565 -4.39331,-9.03748 0.30397,-0.49182 3.41505,-2.49496 6.9135,-4.45141 4.74408,-2.65304 5.48551,-3.45246 8.6654,-5.22 -2.79615,-2.49701 -2.66656,-2.35422 -7.68898,-5.65505 C 343.34665,522.29817 340,519.7027 340,519.19294 c 0,-1.19128 3.10066,-6.3674 5.15456,-9.26447 2.62517,-3.70286 3.35109,-4.32099 5.25152,-6.52016 3.35253,1.39951 4.28088,1.59679 8.13166,3.37596 4.25916,1.96785 7.83916,3.57791 7.95556,3.57791 0.11641,0 0.51212,-3.90909 0.87937,-8.68687 0.36725,-4.77777 0.69902,-5.32094 1.09266,-9.11179 7.56428,0.0484 14.53931,0.11488 20.25486,0.13879 -0.0458,0.35455 0.29677,5.71216 0.16137,9.973 -0.20926,6.58531 -0.3022,3.78255 -0.33971,8.38135 7.75831,-3.98054 8.79223,-4.33874 11.56815,-5.75002 l 5.96432,-3.01078 1.49791,3.28316 c 0.82384,1.80574 3.0396,5.75816 4.9239,8.78316 1.88429,3.025 3.44351,5.8068 3.46492,6.18178 0.0214,0.37498 -3.33607,2.60202 -7.46107,4.94897 -4.125,2.34695 -7.5,4.57589 -7.5,4.9532 0,0.37732 1.2375,1.4747 2.75,2.43864 1.5125,0.96393 4.84639,3.3268 7.40864,5.25082 l 4.65864,3.49822 -2.15864,3.6825 c -1.18725,2.02538 -3.50864,6.01381 -5.15864,8.86317 -1.65,2.84937 -3.29721,5.18112 -3.66047,5.18168 -0.36325,5.6e-4 -3.89363,-1.8311 -7.84529,-4.07036 -3.95165,-2.23925 -7.4245,-3.8317 -7.71743,-3.53876 -0.29294,0.29294 -0.61881,3.13756 -0.72414,6.32138 -0.10533,3.18382 -0.27278,7.02626 -0.37209,8.53876 l -0.15224,3.00509 -11.09288,0.0284 c -4.40825,0.0623 -8.8477,0.0172 -11.57171,0.005 0.0253,-1.76982 -0.10462,-3.81878 0.0814,-7.79239 z m 13.34632,-1.90024 c 0.18358,-4.78493 -0.0939,-7.59548 -0.75,-7.59548 -0.63574,0 -1.04142,3.13933 -1.04142,8.05902 0,10.11821 1.39932,9.75613 1.79142,-0.46354 z M 379,550.13842 c 2.6411,-1.76583 3.57923,-3.16101 3.82284,-5.68532 0.17757,-1.83988 -0.15993,-3.82801 -0.75,-4.41808 -0.76379,-0.76379 -1.07284,-0.1413 -1.07284,2.16089 0,2.62777 -0.64754,3.61578 -3.45566,5.27261 -3.85098,2.27213 -5.05675,4.77918 -3.91672,8.14366 0.74565,2.20059 0.77458,2.19089 1.31739,-0.44184 0.32607,-1.58152 1.99864,-3.65705 4.05499,-5.03192 z m -0.0352,-5.7105 c 1.30657,-2.44135 1.3627,-12.06574 0.0704,-12.06574 -1.74837,0 -3.03518,3.7878 -3.03518,8.93426 0,5.2464 1.17101,6.48324 2.96482,3.13148 z m 1.29302,-15.06574 c 5.56452,-3.8056 7.2711,-7.31911 5.38078,-11.07795 -1.89563,-3.7694 -3.63862,-3.52804 -3.63862,0.50386 0,3.23422 -0.49874,3.89946 -5,6.66911 -4.19315,2.58007 -5,3.55741 -5,6.0565 0,1.63898 0.5625,3.96288 1.25,5.16422 1.2198,2.13148 1.25773,2.11177 1.57009,-0.81574 0.2478,-2.32249 1.47584,-3.79043 5.43775,-6.5 z m 0.53422,-15.36796 c 0.29025,-7.58445 0.27622,-7.63204 -2.25,-7.63204 -2.53697,0 -2.54206,0.0183 -2.54206,9.12197 l 0,9.12197 2.25,-1.48993 c 1.95464,-1.29435 2.28834,-2.49179 2.54206,-9.12197 z m -7.41145,-5.22387 c -2.12201,-3.94034 -1.59036,-4.71864 3.38821,-4.96008 5.13092,-0.24884 5.50543,-1.68572 0.8379,-3.21486 -3.31484,-1.08598 -4.24343,-1.04606 -6.25,0.26869 -3.71911,2.43686 -3.04147,8.61087 1.52178,13.86512 1.57033,1.80812 1.63213,1.79609 1.95826,-0.3813 0.18521,-1.23659 -0.47005,-3.7465 -1.45615,-5.57757 z M 377,501.86218 c 0,-0.275 0.225,-0.5 0.5,-0.5 0.275,0 0.5,0.225 0.5,0.5 0,0.275 -0.225,0.5 -0.5,0.5 -0.275,0 -0.5,-0.225 -0.5,-0.5 z m 4.81955,-3.73978 c -0.32509,-2.27859 -2.78421,-3.3715 -5.3611,-2.38265 -0.78361,0.3007 -1.16927,1.21244 -0.85704,2.02611 0.48989,1.27662 1.68184,1.78944 5.71814,2.46014 0.45075,0.0749 0.67575,-0.87172 0.5,-2.1036 z"
         id="path3038"
         inkscape:connector-curvature="0"
         sodipodi:nodetypes="csscscscssscsssccscccsscsssscsssscssccccsssssssssssscssccssssssssssscsssssssssssssssssss" />
    </g>
  </g>
</svg>
