<?xml version="1.0" encoding="UTF-8" standalone="no"?>
<!-- Created with Inkscape (http://www.inkscape.org/) -->

<svg
   xmlns:dc="http://purl.org/dc/elements/1.1/"
   xmlns:cc="http://creativecommons.org/ns#"
   xmlns:rdf="http://www.w3.org/1999/02/22-rdf-syntax-ns#"
   xmlns:svg="http://www.w3.org/2000/svg"
   xmlns="http://www.w3.org/2000/svg"
   xmlns:sodipodi="http://sodipodi.sourceforge.net/DTD/sodipodi-0.dtd"
   xmlns:inkscape="http://www.inkscape.org/namespaces/inkscape"
   width="744.09448819"
   height="1052.3622047"
   id="svg2"
   version="1.1"
   inkscape:version="0.48.4 r9939"
   sodipodi:docname="Cave Girl Legs.svg">
  <defs
     id="defs4" />
  <sodipodi:namedview
     id="base"
     pagecolor="#ffffff"
     bordercolor="#666666"
     borderopacity="1.0"
     inkscape:pageopacity="0.0"
     inkscape:pageshadow="2"
     inkscape:zoom="0.7"
     inkscape:cx="160.25648"
     inkscape:cy="532.53005"
     inkscape:document-units="px"
     inkscape:current-layer="layer1"
     showgrid="false"
     inkscape:window-width="1280"
     inkscape:window-height="1002"
     inkscape:window-x="1912"
     inkscape:window-y="-8"
     inkscape:window-maximized="1" />
  <metadata
     id="metadata7">
    <rdf:RDF>
      <cc:Work
         rdf:about="">
        <dc:format>image/svg+xml</dc:format>
        <dc:type
           rdf:resource="http://purl.org/dc/dcmitype/StillImage" />
        <dc:title></dc:title>
      </cc:Work>
    </rdf:RDF>
  </metadata>
  <g
     inkscape:label="Layer 1"
     inkscape:groupmode="layer"
     id="layer1">
    <path
       style="fill:#c7ae72;fill-opacity:1;stroke:#c7ae72;stroke-width:1px;stroke-linecap:butt;stroke-linejoin:miter;stroke-opacity:1"
       d="m 55.807102,802.661 252.142858,9.2858 2.5,10.7142 90.35714,-8.9285 170,-32.5 85.71429,-9.6429 2.14285,-275.35714 -581.605488,9.96218 -14.647212,-0.50508 z"
       id="path3106"
       inkscape:connector-curvature="0" />
    <g
       id="g3130"
       inkscape:export-filename="G:\LEGO Textures Scans\Complete\LEGO Minifigures\Series 5\Cave Girl\Cave Girl Legs.png"
       inkscape:export-xdpi="151.32814"
       inkscape:export-ydpi="151.32814">
      <g
         transform="translate(-12.142856,-183.57143)"
         id="g3014">
        <path
           inkscape:connector-curvature="0"
           id="path3016"
           d="m 250.42019,668.62816 c -2.11026,-8.06966 -13.54142,-8.78155 -19.42678,-1.20982 -3.9147,5.03638 -4.38319,5.00165 -8.74646,-0.64818 -3.97882,-5.15206 -5.85282,-5.50057 -13.68367,-2.54474 -5.00034,1.8874 -9.07347,2.17838 -9.07347,0.64818 0,-4.79172 -14.46084,-3.01792 -16.39042,2.01047 -1.67123,4.35514 -2.26926,4.3549 -6.6269,-0.003 -4.94866,-4.94866 -17.25242,-3.91548 -24.87554,2.08883 -2.69478,2.12255 -3.80102,1.61765 -3.80102,-1.73479 0,-6.95593 -12.38724,-10.06389 -15.8007,-3.96437 -3.55201,6.34709 -8.52583,6.31556 -8.52583,-0.0541 0,-4.03325 -2.27588,-4.65634 -12.16327,-3.33018 -7.29572,0.97857 -12.163262,0.39224 -12.163262,-1.46516 0,-1.7031 -4.032834,-2.50469 -8.961855,-1.78124 -4.929022,0.72341 -8.29708,0.23961 -7.484575,-1.07499 2.031059,-3.28631 35.362082,-2.35965 39.818382,1.10704 2.24898,1.74956 6.0586,1.49346 10.12026,-0.68027 3.5825,-1.91729 8.80134,-2.54583 11.59744,-1.39673 4.4966,1.8479 50.63995,5.45522 60.57872,4.73582 6.79609,-0.49191 11.10329,-0.42197 31.16837,0.50615 10.87092,0.50286 22.61626,-0.031 26.10077,-1.18613 3.4845,-1.15521 8.07177,-1.02728 10.19394,0.28431 4.68478,2.89535 22.25015,-5.29698 19.81289,-9.24055 -0.95251,-1.54118 -6.09826,-2.91018 -11.43502,-3.04222 l -9.70319,-0.24007 8.46448,-3.08825 c 6.13531,-2.23844 9.69146,-2.06992 12.92347,0.61239 2.94065,2.44053 5.75327,2.70125 8.26001,0.76568 5.49959,-4.2465 21.30492,-3.07631 22.89489,1.6951 0.99245,2.9783 -1.38035,3.79178 -8.86948,3.04082 -7.5168,-0.75373 -10.22439,0.18269 -10.22439,3.53601 0,5.07193 2.22757,5.34706 14.43708,1.78307 4.59549,-1.34142 10.75314,-1.3833 13.68367,-0.093 2.93053,1.29025 6.3545,2.4641 7.60884,2.60854 1.25434,0.14444 2.28061,1.28891 2.28061,2.54325 0,1.25433 0,3.68413 0,5.39951 0,1.75331 -4.13008,0.98316 -9.43274,-1.75896 -8.95984,-4.63332 -9.779,-4.55256 -16.3392,1.61042 -6.15111,5.77867 -7.40727,5.98746 -11.48564,1.90908 -2.51856,-2.51855 -8.03639,-5.44689 -12.26186,-6.5074 -6.06557,-1.52239 -8.10617,-0.59391 -9.69469,4.4111 -2.10707,6.6388 -9.02837,8.50321 -12.24505,3.29849 -2.88902,-4.67453 -11.07634,-3.61036 -15.15683,1.97002 -3.30959,4.52614 -3.82923,4.37908 -5.37198,-1.5204 z m 190.37409,-8.10293 c -0.95186,-2.48048 -3.63678,-4.50995 -5.96653,-4.50995 -2.32973,0 -4.23589,-1.36837 -4.23589,-3.04082 0,-3.84888 1.96725,-3.82933 9.29489,0.0921 4.32678,2.31564 8.31323,1.86152 15.27865,-1.74042 5.18337,-2.68044 11.30958,-4.1501 13.61373,-3.26592 2.30418,0.8842 4.99816,0.29891 5.98664,-1.30038 0.98851,-1.59941 7.07595,-2.90802 13.52765,-2.90802 6.6814,0 12.27574,-1.63605 12.99739,-3.80102 0.69683,-2.09056 6.62643,-4.0813 13.17686,-4.42381 6.55047,-0.34255 15.67039,-1.52786 20.26653,-2.63405 5.57114,-1.34082 10.97813,-0.29344 16.22141,3.14202 7.39436,4.84493 8.20647,4.84402 13.57606,-0.0152 3.16814,-2.86712 7.90269,-4.32766 10.6328,-3.28004 2.70684,1.03872 7.85157,-0.16359 11.4327,-2.67202 3.58114,-2.50831 9.96969,-4.6041 14.19682,-4.65729 4.2271,-0.0532 10.33172,-2.09837 13.56584,-4.54483 5.06092,-3.82839 6.78482,-3.85539 12.37332,-0.1937 5.79936,3.79986 6.90546,3.59427 10.35167,-1.92405 3.3765,-5.40657 5.89174,-5.9395 20.13282,-4.26575 9.73004,1.14356 17.03131,0.6879 18.15678,-1.13319 2.32413,-3.76048 10.64602,-4.04173 10.64602,-0.35972 0,1.47738 -2.73674,3.40182 -6.08163,4.27654 -3.63865,0.95153 -6.08164,4.1477 -6.08164,7.95669 0,8.38727 -3.45242,8.03654 -12.16326,-1.23573 -3.92798,-4.18112 -8.36933,-7.60204 -9.8697,-7.60204 -5.09483,0 -12.01472,9.25789 -10.28638,13.76182 2.29864,5.99014 -5.46204,5.7979 -11.54595,-0.28614 -4.55545,-4.55544 -16.95104,-3.63891 -16.95104,1.25334 0,1.18582 -5.47347,1.63407 -12.16326,0.99611 -10.55574,-1.00666 -12.16327,-0.34887 -12.16327,4.97693 0,5.54107 -0.87563,5.80638 -9.01872,2.73269 -7.9178,-2.98863 -9.95935,-2.5205 -16.72449,3.83502 -4.23817,3.98168 -7.70577,5.63244 -7.70577,3.66844 0,-1.96397 -2.05255,-3.57086 -4.56122,-3.57086 -2.50868,0 -4.56123,-1.36837 -4.56123,-3.04082 0,-4.48018 -9.75405,-3.51956 -16.56497,1.63137 -3.25717,2.46334 -8.38854,3.69596 -11.40306,2.7392 -7.63272,-2.42253 -17.64421,1.25272 -17.64421,6.47721 0,5.32441 -1.41982,5.42017 -9.11455,0.61473 -4.93254,-3.08041 -6.87711,-2.85572 -11.00447,1.27167 -4.00025,4.00023 -6.47824,4.34572 -12.26349,1.70979 -5.72996,-2.61075 -8.03654,-2.32887 -11.00018,1.34426 -5.70698,7.07318 -14.34977,9.14793 -16.35367,3.92581 z M 150.83675,650.2633 c 0,-5.27904 -1.84788,-6.41129 -10.4634,-6.41129 -13.08794,0 -16.03461,-4.11605 -6.16574,-8.6126 4.59189,-2.0922 7.50669,-2.26486 7.50669,-0.44465 0,1.63659 4.06215,2.97562 9.02701,2.97562 6.77472,0 8.5903,1.13805 7.27671,4.56122 -2.10332,5.48116 5.52884,6.10994 14.68483,1.20979 5.25731,-2.81364 7.54303,-2.01472 14.24397,4.97855 6.5792,6.86622 6.9131,7.89411 1.90013,5.84952 -7.71016,-3.14463 -18.93548,-3.18279 -29.64796,-0.10065 -7.23907,2.08272 -8.36224,1.54474 -8.36224,-4.00542 z m 71.29041,-18.84765 c -1.24675,-2.01728 -6.16624,-2.54133 -12.57323,-1.33936 -6.11867,1.14785 -12.19574,0.58803 -14.51551,-1.3372 -2.8908,-2.39917 -6.18612,-2.31129 -11.95874,0.31889 -6.25319,2.84916 -9.52109,2.79962 -15.18208,-0.22988 -3.99935,-2.1404 -10.15011,-2.92871 -13.80362,-1.76912 -3.75304,1.19118 -8.49061,0.51411 -11.0052,-1.57283 -3.45554,-2.86783 -5.42931,-2.82282 -9.08018,0.20708 -3.75315,3.11483 -6.05959,3.12507 -11.80092,0.0523 -3.93882,-2.10799 -10.08858,-2.882 -13.72594,-1.72755 -3.69705,1.17339 -8.46966,0.53147 -10.872,-1.46227 -2.355155,-1.9546 -5.710407,-2.67108 -7.456118,-1.59217 -1.745712,1.07894 -3.17402,0.15752 -3.17402,-2.04756 0,-2.20505 2.736735,-5.71835 6.081633,-7.80727 5.153424,-3.21837 6.081633,-3.03683 6.081633,1.18936 0,4.06329 2.253642,4.68507 12.163262,3.35593 6.6898,-0.89731 12.16327,-0.3933 12.16327,1.12003 0,3.82349 11.36461,3.46297 13.77493,-0.43703 1.36046,-2.20125 3.22763,-2.1452 6.03059,0.18093 2.3782,1.9737 8.38826,2.55751 14.50874,1.4093 7.9845,-1.49791 10.88494,-0.82346 12.29833,2.85979 2.85385,7.43699 10.10027,5.73076 17.03749,-4.01169 8.43257,-11.84233 7.9342,-15.90438 -2.83375,-23.09679 -5.00773,-3.3449 -9.1089,-7.76602 -9.11371,-9.82472 -0.0128,-5.48817 13.58537,-7.97538 21.23136,-3.88337 7.77224,4.15958 15.2497,2.06957 15.2497,-4.26242 0,-2.83979 -4.72735,-5.41259 -12.92347,-7.03345 -9.96144,-1.96997 -12.92347,-3.92759 -12.92347,-8.54119 0,-5.36722 1.84477,-5.90065 17.85997,-5.16438 17.99663,0.82737 26.23186,-2.41119 26.23186,-10.31587 0,-2.60441 -3.36848,-4.18889 -8.90524,-4.18889 -4.89789,0 -11.22141,-2.31615 -14.05226,-5.147 -4.83546,-4.83547 -4.73619,-5.47967 1.64008,-10.64286 3.7329,-3.02272 10.83577,-5.49585 15.78416,-5.49585 7.47792,0 8.83299,-1.1028 8.02537,-6.53129 -1.62341,-10.91175 -9.37341,-13.47006 -22.26854,-7.35091 -8.92424,4.23483 -12.93205,4.68785 -18.60514,2.10302 -10.15725,-4.62796 -9.24047,-14.39268 1.89178,-20.14939 10.46193,-5.41008 11.49983,-10.5896 3.56158,-17.77361 -7.72807,-6.99381 -14.18671,-6.29422 -22.96889,2.48796 -6.62798,6.62799 -8.62916,7.13399 -16.86271,4.26376 -10.89958,-3.79962 -12.0284,-10.79502 -3.2606,-20.20616 14.00366,-15.03116 2.98751,-23.63192 -16.57851,-12.94354 -10.54224,5.75895 -13.88187,6.34741 -19.366,3.4124 -8.28962,-4.43648 -8.56722,-14.23264 -0.54528,-19.24242 8.12631,-5.07497 7.6791,-12.80042 -1.1427,-19.73965 -3.97338,-3.12546 -8.18721,-10.06661 -9.36406,-15.42478 -1.17685,-5.35817 -3.39937,-9.74213 -4.93893,-9.74213 -1.53957,0 -2.799212,-2.73673 -2.799212,-6.08163 0,-7.35318 2.535462,-7.61765 11.672822,-1.21759 6.36494,4.45817 7.39287,4.45817 12.3191,0 6.30807,-5.70873 18.88442,-6.38362 23.98113,-1.28692 2.74229,2.7423 4.8917,2.38746 9.20984,-1.5204 6.89047,-6.23579 12.52074,-6.4443 20.63048,-0.76401 4.03207,2.82417 7.70985,3.36994 10.55926,1.56697 7.59474,-4.80558 17.54226,-3.10072 22.40347,3.83963 l 4.69238,6.69931 6.24136,-6.69931 c 7.79392,-8.36579 10.41296,-8.37244 18.73787,-0.0475 3.65848,3.65848 7.12874,5.2209 7.7117,3.47203 0.58295,-1.74886 2.96638,-5.76844 5.29651,-8.93239 4.15411,-5.64066 4.44864,-5.63937 15.12907,0.0663 l 10.89249,5.81894 7.34228,-6.89772 c 7.49564,-7.04179 13.87412,-6.34255 13.87412,1.52094 0,5.00918 4.80413,5.86807 7.59194,1.3573 1.02807,-1.66345 4.54268,-4.45525 7.81024,-6.204 5.024,-2.68876 6.41787,-1.92531 9.03041,4.94619 2.8919,7.60627 3.43995,7.80849 8.57294,3.16319 6.88311,-6.22913 16.76721,-6.38012 21.78603,-0.33281 3.43077,4.13383 4.66639,4.08979 11.53573,-0.41117 7.18901,-4.71042 8.34078,-4.69225 17.56838,0.27714 9.12802,4.91577 10.40495,4.94687 16.88055,0.41117 8.68752,-6.08497 13.85657,-6.14118 25.10893,-0.273 7.8686,4.1035 9.56905,4.10149 15.85731,-0.0189 9.07006,-5.94293 13.05371,-5.81606 20.1909,0.64301 5.50686,4.98365 5.9638,4.98365 8.75278,0 3.78539,-6.7641 14.2028,-6.73381 21.7678,0.0633 5.6724,5.09661 6.11569,5.03237 10.49298,-1.52041 5.33052,-7.97972 10.65538,-8.71066 16.05554,-2.20389 3.44975,4.1567 4.3809,4.1567 8.974,0 7.36282,-6.66325 17.21543,-5.71406 22.87658,2.20389 l 4.89173,6.84184 5.98636,-7.25628 c 5.80708,-7.03899 6.16857,-7.09137 12.07168,-1.74913 5.71798,5.1747 6.71579,5.2065 16.52933,0.52675 10.20327,-4.8656 10.57818,-4.80979 16.26624,2.42143 l 5.82228,7.4018 5.64217,-6.23454 5.64218,-6.23454 4.95011,6.11314 c 4.54852,5.61718 5.34694,5.71632 9.8413,1.22196 3.98557,-3.98556 6.30997,-4.24474 12.55398,-1.39978 6.9964,3.18778 7.60119,2.90412 6.95416,-3.26174 -0.55853,-5.32285 1.06247,-6.95694 7.65362,-7.71533 9.78653,-1.12607 10.5277,-4.47441 2.71888,-12.28322 -5.70901,-5.70902 -18.8162,-10.16087 -28.56582,-9.70237 -23.98815,1.12809 -35.15202,2.2837 -40.82783,4.22621 -4.01381,1.37372 -11.05735,0.41059 -17.89712,-2.44724 -10.43906,-4.36173 -11.57325,-4.31513 -15.23926,0.62613 -3.74687,5.05026 -4.20217,5.01272 -8.42981,-0.69504 -4.08653,-5.51726 -5.42278,-5.68873 -15.6139,-2.00358 -8.91275,3.22289 -12.94311,3.28521 -20.12315,0.31114 -7.56965,-3.13545 -9.8385,-2.94038 -14.46148,1.24338 -6.9701,6.30784 -12.19641,6.27592 -19.26123,-0.11765 -5.28531,-4.78312 -6.10852,-4.60545 -14.0895,3.04082 -10.15831,9.73225 -11.52099,9.93479 -13.59075,2.02002 -1.54854,-5.92165 -1.86779,-5.94437 -10.8767,-0.77398 -8.93693,5.1291 -9.43991,5.10986 -13.55559,-0.51871 -3.78849,-5.18104 -5.3262,-5.40976 -13.52862,-2.0122 -6.82743,2.828 -10.87597,2.96537 -15.43805,0.52382 -4.53075,-2.42479 -8.31961,-2.33627 -14.17391,0.33112 -6.16948,2.811 -10.16214,2.82073 -17.52198,0.0427 -7.30863,-2.7587 -11.83355,-2.76555 -19.40037,-0.0295 -7.40589,2.678 -12.65404,2.71363 -21.03069,0.14277 -9.0672,-2.7828 -12.47622,-2.56473 -18.16379,1.16191 -6.25081,4.09569 -7.97197,4.08589 -16.04994,-0.0914 -7.96039,-4.11648 -9.49542,-4.14028 -12.7673,-0.1979 -4.70268,5.66639 -12.29311,5.71895 -19.87785,0.13766 -5.25097,-3.86397 -6.67218,-3.62425 -12.87324,2.17144 -5.78976,5.41129 -7.95542,5.89993 -12.78395,2.88446 -4.68579,-2.92633 -7.59261,-2.61026 -14.98675,1.62957 -8.90165,5.10425 -9.37197,5.06162 -15.87647,-1.43891 -6.3975,-6.39359 -7.08902,-6.47098 -15.1694,-1.69779 -7.79671,4.60563 -8.89696,4.61269 -13.911,0.0892 -4.75445,-4.28924 -6.19295,-4.36313 -11.34729,-0.58282 -8.37165,6.13996 -16.13524,5.36481 -20.07934,-2.0048 -3.11406,-5.81867 -3.82247,-5.94235 -8.70867,-1.52041 -6.39941,5.79139 -11.38642,6.16603 -13.47754,1.01249 -1.18053,-2.90944 -2.249,-2.78753 -4.55511,0.51976 -2.57077,3.68684 -4.17884,3.55677 -10.96025,-0.88658 -9.10857,-5.96817 -15.080187,-3.87775 -12.88647,4.51102 0.82535,3.15638 0.26037,5.73868 -1.255503,5.73868 -1.515875,0 -2.756135,-7.52602 -2.756135,-16.72449 0,-9.19847 1.368367,-16.72449 3.040816,-16.72449 1.672452,0 3.040812,1.41246 3.040812,3.1388 0,1.72635 3.07883,4.35668 6.84184,5.84519 5.2374,2.07172 8.02577,1.33565 11.89048,-3.13881 6.09538,-7.05706 8.63503,-7.40662 8.63503,-1.18852 0,7.01821 6.94685,8.27807 16.92443,3.06937 8.41147,-4.39114 8.97816,-4.31037 9.89421,1.41007 1.19947,7.49036 11.53356,8.07701 19.25098,1.09284 5.08991,-4.6063 5.639,-4.6063 7.40661,0 2.37934,6.20047 8.50955,6.34151 17.57094,0.40426 6.52299,-4.27403 7.24061,-4.07654 11.04971,3.04082 5.18563,9.68945 10.68531,9.66126 17.07295,-0.0875 4.58268,-6.99405 5.51617,-7.27255 10.19219,-3.04081 7.08288,6.40991 11.34644,5.85903 19.75842,-2.55295 6.71824,-6.71824 7.31282,-6.82325 8.69553,-1.53575 2.2065,8.43766 10.51617,10.29408 17.55692,3.92229 4.99923,-4.52424 7.10634,-4.87322 11.28981,-1.86985 10.63492,7.63497 13.72593,7.68748 20.06649,0.34089 6.06785,-7.03059 6.60922,-7.12463 11.68408,-2.02962 7.38962,7.41896 28.41421,7.23559 33.11328,-0.28881 3.42311,-5.48128 3.66692,-5.48128 9.1482,0 6.44501,6.445 17.87225,7.37826 23.34402,1.90649 2.93928,-2.93929 4.9828,-2.93929 9.68935,0 9.09286,5.67859 18.555,4.58384 20.37,-2.35676 0.87472,-3.34489 3.15418,-6.08163 5.06548,-6.08163 1.91134,0 5.18426,2.73674 7.27318,6.08163 4.88361,7.81991 12.98374,7.81991 15.02869,0 1.86803,-7.1434 8.5921,-8.06415 11.10317,-1.5204 2.32778,6.06607 12.43129,5.79997 18.72441,-0.49316 4.27244,-4.27244 5.47493,-4.39005 7.77269,-0.76021 1.49505,2.3618 2.73926,5.32046 2.76486,6.57479 0.0994,4.87749 12.36053,1.95676 15.95632,-3.80102 4.5424,-7.2735 7.34193,-7.59086 13.4124,-1.5204 2.50868,2.50867 7.24317,4.56122 10.52108,4.56122 3.27794,0 6.74751,-2.05255 7.71017,-4.56122 1.93128,-5.03285 16.30373,-6.37315 16.30373,-1.5204 0,4.31043 14.44674,3.79242 15.90095,-0.57016 0.77468,-2.32405 3.5743,-1.24033 7.85543,3.04082 8.49391,8.49391 17.19512,8.47223 23.16971,-0.0577 4.53374,-6.47281 4.84555,-6.5098 8.83893,-1.04855 3.31184,4.52922 6.50543,5.27699 15.9745,3.74038 6.50932,-1.05632 12.30202,-3.32121 12.87263,-5.03309 1.61923,-4.85765 9.65316,-3.65194 9.65316,1.44871 0,3.0161 3.01667,4.56123 8.90525,4.56123 4.8979,0 10.95779,-2.05255 13.46646,-4.56123 2.50868,-2.50867 5.20129,-4.56122 5.9836,-4.56122 2.5888,0 -1.23962,49.16925 -4.10699,52.74699 -16.69435,20.83035 -18.09267,21.90566 -21.36724,16.43158 -1.75081,-2.92678 -4.71801,-5.32143 -6.59376,-5.32143 -1.87576,0 -6.1128,2.39465 -9.41562,5.32143 -4.40161,3.90048 -6.36014,4.30646 -7.33466,1.52041 -1.58323,-4.52627 -14.86409,-5.10164 -17.54724,-0.7602 -3.73239,6.03913 -10.64286,3.0775 -10.64286,-4.56123 0,-9.96926 -7.28647,-9.89643 -16.61207,0.16606 -7.01216,7.56625 -7.25074,7.60576 -9.18217,1.52041 -2.32054,-7.31135 -11.35523,-8.21953 -16.77719,-1.68647 -5.2694,6.34923 -7.61104,5.73592 -11.60999,-3.04081 -4.59626,-10.08771 -13.80734,-9.71207 -18.64057,0.7602 l -3.85937,8.36224 -4.60164,-6.84183 c -5.77795,-8.59078 -9.18625,-8.59078 -18.43887,0 l -7.36894,6.84183 -4.60099,-6.84183 c -6.00081,-8.92336 -11.09813,-8.64902 -17.378,0.93531 l -5.0958,7.77714 -6.11748,-7.77714 c -7.44574,-9.46571 -12.99785,-9.85566 -18.96791,-1.3322 l -4.51422,6.44494 -9.05111,-6.44494 c -11.82294,-8.41867 -17.39621,-8.12903 -28.83816,1.49875 -9.37274,7.88665 -9.46092,7.89805 -12.27684,1.58731 -4.50293,-10.09142 -14.28828,-11.51428 -21.15067,-3.07546 l -5.87784,7.22812 -4.56445,-6.84183 c -5.68705,-8.52453 -16.00225,-8.95668 -18.14568,-0.76021 -1.99192,7.61712 -4.19049,7.61712 -13.87409,0 -10.30902,-8.10908 -13.31385,-7.67588 -15.81934,2.28062 l -2.10431,8.36224 -7.20193,-8.36224 c -8.6447,-10.03746 -9.7522,-10.15726 -18.44076,-1.99478 l -6.77786,6.36747 -3.40777,-6.36747 c -4.22943,-7.90277 -11.11863,-8.2054 -15.15377,-0.66567 -4.46534,8.34355 -14.76835,10.22439 -17.02691,3.10831 -2.1864,-6.88874 -9.18484,-7.61487 -11.64336,-1.20807 -2.47426,6.44782 -12.16919,5.65812 -18.66567,-1.52041 -7.53773,-8.3291 -18.53586,-7.9306 -20.98069,0.76021 -1.92385,6.8388 -1.92749,6.83812 -8.21032,-1.52041 -7.84874,-10.44177 -15.70812,-10.64055 -23.6083,-0.5971 -6.02471,7.65917 -6.15367,7.67992 -9.45014,1.5204 -4.4505,-8.31583 -15.67657,-7.94306 -23.88376,0.79309 -8.83672,9.40626 -8.36816,11.98581 3.09918,17.06175 7.16625,3.17209 10.0215,3.3666 10.89626,0.7423 0.65197,-1.95588 5.46812,-3.55615 10.70258,-3.55615 l 9.51718,0 -14.48575,13.68367 c -7.96716,7.52602 -15.78485,13.68367 -17.37263,13.68367 -1.58778,0 -2.88688,2.73674 -2.88688,6.08164 0,3.34489 1.39894,6.08163 3.10876,6.08163 5.57278,0 30.39396,-25.00229 32.27955,-32.51507 1.18262,-4.71192 3.60201,-6.93041 6.79075,-6.22687 5.46262,1.20523 5.45374,2.34091 -0.13045,16.68509 -3.34012,8.57981 -3.15129,10.5635 1.44294,15.15773 4.94838,4.94837 6.16553,4.96974 19.05582,0.33441 16.08475,-5.78404 24.64021,-4.40491 27.44229,4.42366 1.40853,4.43787 0.0778,7.88726 -4.46051,11.56216 -12.57635,10.18371 -5.84306,19.98928 7.03674,10.24749 7.70067,-5.8245 11.74848,-5.63094 19.87615,0.95046 6.60352,5.3472 6.61897,5.55811 1.23384,16.85084 -5.27764,11.06733 -5.26645,11.78298 0.3473,22.20709 5.0729,9.4198 6.96334,10.59498 15.06733,9.36652 5.09665,-0.77259 13.04492,0.52419 17.66282,2.88173 6.57273,3.35553 8.017,5.79716 6.65027,11.24268 -1.3095,5.21747 0.0122,7.87736 5.28749,10.64128 4.004,2.09783 4.41395,2.69103 0.95178,1.37725 -3.3449,-1.26928 -12.83081,-2.18774 -21.07979,-2.04103 -12.72369,0.2263 -16.06465,1.59957 -22.03081,9.05557 -9.7904,12.23519 -8.84773,17.45414 4.28374,23.71609 10.71671,5.11045 11.02561,5.64554 5.5644,9.63888 -3.84312,2.81015 -9.68774,3.60352 -17.42824,2.36577 -9.16063,-1.46484 -11.64604,-0.88703 -11.64604,2.70749 0,2.62611 3.8097,5.3317 8.95708,6.36118 11.61797,2.32359 17.18503,11.92288 10.68455,18.42338 -3.29816,3.29816 -7.54558,4.0733 -14.43785,2.63484 -19.91331,-4.15601 -24.89169,-2.99679 -25.93127,6.03812 -1.0662,9.26628 1.37183,10.12345 13.31548,4.68155 6.85282,-3.12234 8.65515,-2.8917 11.88137,1.5204 4.64642,6.35437 11.78584,6.70129 16.67493,0.81029 2.86812,-3.45589 5.21915,-3.67318 11.04117,-1.02047 5.64309,2.57117 9.20813,2.40112 15.03461,-0.71714 5.86762,-3.14025 8.46888,-3.25611 11.22505,-0.49991 4.96656,4.96653 13.04456,4.4855 17.63896,-1.05042 3.44976,-4.15671 4.3809,-4.15671 8.97401,0 6.80237,6.15607 14.2918,5.87142 17.98435,-0.68349 2.83801,-5.03796 3.57494,-5.01248 13.83477,0.47884 5.96039,3.19015 10.83708,6.95316 10.83708,8.36225 0,3.3577 -1.26213,3.24202 -10.48743,-0.9613 -6.39398,-2.91331 -8.73995,-2.61182 -13.55026,1.74148 -5.29686,4.79357 -6.61559,4.85205 -14.73546,0.65307 -8.00831,-4.14125 -9.4031,-4.12651 -13.67403,0.14444 -4.20832,4.20831 -5.77413,4.24817 -13.5962,0.34602 -7.60862,-3.7957 -9.73593,-3.81529 -15.27015,-0.14079 -5.05865,3.35882 -7.8436,3.51281 -13.05816,0.72207 -4.79343,-2.56539 -7.54788,-2.6276 -9.95069,-0.22472 -4.28701,4.28701 -16.35189,4.29248 -18.99946,0.009 z m 9.81983,-28.80471 c 1.0104,-3.16978 -43.85716,-21.35214 -46.40421,-18.8051 -2.38202,2.38203 16.16963,14.84811 28.80163,19.35375 11.7121,4.17754 16.14006,4.03951 17.60258,-0.54865 z m 7.07343,-28.32325 c 0,-3.81711 -28.54846,-15.57854 -37.81371,-15.57854 -4.28919,0 -7.79853,1.36837 -7.79853,3.04082 0,1.67245 3.76301,3.09817 8.36224,3.16827 4.59924,0.0701 13.15153,2.74948 19.00511,5.95418 11.59081,6.3457 18.24489,7.59128 18.24489,3.41527 z m 20.27507,-47.56149 c 10.64132,-6.97247 3.32811,-11.94306 -8.54119,-5.80521 -4.61507,2.38655 -12.45219,4.33918 -17.4158,4.33918 -11.22445,0 -18.64461,2.71792 -18.64461,6.8293 0,4.87639 35.48646,0.60919 44.6016,-5.36327 z m -53.42872,-25.95062 c 6.1692,-3.30165 24.0312,-26.12518 24.0312,-30.70634 0,-6.63128 -12.41547,-1.79485 -16.70968,6.50923 -2.58642,5.0016 -8.09503,11.31663 -12.24135,14.0334 -13.00664,8.52228 -8.68708,17.44591 4.91983,10.16371 z m -35.73293,-34.6877 c 0.93658,-2.44068 8.77534,-8.02149 17.41946,-12.4018 10.93653,-5.54195 14.7494,-8.93139 12.53652,-11.14426 -6.53771,-6.53771 -43.17144,13.46904 -43.17144,23.57718 0,5.75108 11.00657,5.72516 13.21546,-0.0311 z m 269.46562,157.86044 c -2.14518,-2.58479 -5.73365,-3.99609 -7.97436,-3.13624 -2.50576,0.96154 -4.07406,-0.6158 -4.07406,-4.09753 0,-6.24398 7.87918,-10.78325 10.72493,-6.17873 3.56253,5.7643 13.6016,3.16379 13.6016,-3.52333 0,-6.1367 0.3434,-6.20637 7.49507,-1.52041 9.91166,6.49436 14.72786,6.19387 21.55014,-1.34465 l 5.66124,-6.2556 2.31409,6.2556 c 3.02759,8.18439 10.79968,7.95788 17.66034,-0.51466 5.06597,-6.25623 6.1048,-6.4371 13.68157,-2.38211 7.36048,3.93919 8.49823,3.85411 11.12057,-0.83179 3.16044,-5.64741 16.28613,-7.12606 19.34352,-2.17911 3.50481,5.67091 13.68367,3.40894 13.68367,-3.04081 0,-3.96799 -2.02722,-6.08164 -5.83292,-6.08164 -8.09067,0 -15.45279,-3.1326 -15.45279,-6.57519 0,-1.58604 7.52602,-6.32924 16.72449,-10.54044 11.83583,-5.41861 16.72449,-9.36926 16.72449,-13.51544 0,-5.13683 -2.25982,-5.85872 -18.34032,-5.85872 -13.56603,0 -18.79985,-1.19745 -20.10552,-4.59995 -2.8521,-7.43243 4.11687,-12.75483 18.87943,-14.41878 16.67867,-1.87993 17.99199,-2.96762 13.56691,-11.23598 -2.82586,-5.28013 -5.26591,-6.10864 -13.46221,-4.57101 -7.04868,1.32234 -11.43454,0.45425 -14.82265,-2.93384 -5.46249,-5.46251 -11.32789,-6.34056 -11.32789,-1.69579 0,5.34075 -14.50743,9.16152 -22.80612,6.00637 -5.33831,-2.02963 -7.60204,-5.17643 -7.60204,-10.5676 0,-8.7354 -1.22259,-8.98838 -20.26516,-4.19341 -13.44676,3.38593 -13.79007,3.76536 -12.21113,13.49536 1.72524,10.63136 -1.00018,14.48371 -12.17905,17.21482 -7.64519,1.86781 -19.20181,-5.08979 -19.20181,-11.56037 0,-2.41384 -2.73673,-4.3888 -6.08163,-4.3888 -5.7421,0 -6.08163,2.02721 -6.08163,36.31033 0,20.9268 -1.28831,37.10655 -3.04082,38.18967 -1.77407,1.09644 -3.04082,-1.99563 -3.04082,-7.42258 0,-9.4564 -1.80585,-10.75181 -10.39415,-7.45617 -5.73893,2.20224 -6.35995,9.18527 -1.00891,11.34447 2.09056,0.84356 0.93426,1.64177 -2.56952,1.77381 -7.37367,0.27787 -14.6553,-6.84483 -19.1895,-18.77061 -1.74743,-4.59617 -4.57944,-8.35668 -6.29327,-8.35668 -5.25812,0 -3.46352,10.90139 3.18626,19.35523 6.02048,7.65381 6.04566,8.01212 0.56319,8.01212 -3.57558,0 -7.67095,-4.05105 -10.86356,-10.74602 -6.38702,-13.39372 -6.46399,-18.49744 -0.31448,-20.85722 10.98023,-4.21351 16.80516,-1.80016 21.23298,8.79712 5.09504,12.19417 4.87255,12.10917 16.27004,6.21529 7.14024,-3.69235 8.90595,-7.02058 10.63347,-20.0433 2.29599,-17.30813 -0.1712,-22.48832 -12.14198,-25.49277 -6.0158,-1.50988 -9.21401,0.0119 -15.34965,7.30369 -4.62356,5.49481 -10.66533,9.21097 -14.97526,9.21097 -8.64793,0 -15.9496,-10.95036 -10.76124,-16.13871 6.29732,-6.29733 3.56685,-11.22864 -6.21734,-11.22864 l -9.53986,0 1.50283,36.48979 c 0.82656,20.06939 0.33021,36.4898 -1.103,36.4898 -1.4332,0 -2.60582,-4.58147 -2.60582,-10.18104 0,-8.87005 -1.50719,-10.86068 -11.70479,-15.45915 -8.69522,-3.921 -15.34814,-4.73177 -25.87456,-3.15323 -9.61078,1.44123 -15.62842,0.91432 -18.70338,-1.63767 -5.20672,-4.32119 -6.1865,-21.26279 -1.22969,-21.26279 1.81716,0 9.25689,-4.2751 16.53274,-9.50022 14.73888,-10.58466 28.16787,-10.36112 31.01236,0.51625 0.8548,3.26873 3.44713,5.94316 5.76074,5.94316 3.17573,0 4.33184,-5.77509 4.71775,-23.56633 0.28115,-12.96148 1.03795,-18.6022 1.68181,-12.53494 1.06265,10.01381 2.1813,11.19539 12.12707,12.80937 13.65701,2.21623 16.08811,0.74616 16.08811,-9.72838 0,-10.13571 4.98791,-15.63279 14.18486,-15.63279 9.24302,0 13.70092,9.37059 11.37566,23.91191 -1.65748,10.36545 -1.06221,12.22258 4.48174,13.98217 9.85462,3.12774 12.48784,-0.42237 13.01582,-17.54802 0.35222,-11.42509 0.83042,-12.98776 1.73129,-5.65777 0.92459,7.52293 2.42727,9.67325 5.84369,8.36225 2.52947,-0.97065 5.85549,-1.76482 7.39116,-1.76482 1.53564,0 2.79211,-2.8267 2.79211,-6.28154 0,-7.15414 5.37309,-18.48438 10.33786,-21.79945 10.37247,-6.92588 33.16844,3.98403 27.49741,13.15996 -1.71138,2.76908 0.27306,3.19426 7.84263,1.68035 13.16357,-2.63272 14.08749,-3.84698 8.02456,-10.54644 -6.29972,-6.96111 -6.36321,-10.95447 -0.27094,-17.0467 8.37952,-8.37953 21.36365,-5.97904 30.17989,5.57964 7.53417,9.8778 8.42258,10.21459 19.15985,7.26353 6.19265,-1.702 12.26471,-4.65267 13.49344,-6.55705 4.2226,-6.54457 2.31619,-11.06455 -4.66674,-11.06455 -8.93501,0 -14.29184,-5.38503 -14.29184,-14.3671 0,-8.3487 9.77398,-13.00024 27.3166,-13.00024 14.06682,0 21.33647,-2.45176 21.33647,-7.19592 0,-1.92744 2.87132,-5.2976 6.38069,-7.48925 4.15665,-2.59586 5.84336,-6.03965 4.8391,-9.87999 -1.4522,-5.55318 0.19765,-5.87744 28.43978,-5.58941 29.17651,0.29757 29.88335,0.4698 26.32928,6.41565 -3.28959,5.5034 -5.8142,5.93446 -25.43373,4.34266 l -21.78164,-1.76721 -6.34591,10.75555 c -3.49028,5.91555 -6.34594,11.19046 -6.34594,11.72204 0,0.53157 4.03069,1.77262 8.95709,2.7579 13.06018,2.61205 17.30483,12.2375 9.04074,20.50157 -6.41436,6.41436 -9.94693,6.54178 -29.17055,1.05213 -5.2351,-1.49498 -7.60904,0.041 -11.40306,7.37783 -2.63536,5.09622 -4.79157,9.88711 -4.79157,10.6464 0,0.7593 9.23648,1.16934 20.52551,0.91121 l 20.52551,-0.46933 0,8.98634 c 0,8.00575 -1.30125,9.2567 -11.92514,11.46401 -17.2452,3.58303 -20.11056,6.75405 -15.98332,17.68833 3.04349,8.06317 4.43138,8.82497 13.11115,7.19663 23.56824,-4.42143 31.16083,9.52019 9.47588,17.39978 -9.06087,3.29242 -13.21517,6.67098 -13.89945,11.30397 -0.89056,6.0297 0.25026,6.56164 13.0344,6.07808 26.301,-0.99482 23.86172,13.01148 -2.96668,17.03465 -12.98383,1.94704 -13.9464,2.70172 -13.07414,10.25051 1.193,10.32461 12.56474,12.88604 18.07029,4.07023 3.41673,-5.47101 4.33253,-5.59335 10.68966,-1.42799 6.47712,4.24397 7.43212,3.99842 13.95847,-3.58891 6.99823,-8.13591 7.0158,-8.13872 16.59067,-2.64351 9.19841,5.27917 9.82667,5.28234 15.57661,0.0787 5.75113,-5.2047 6.41016,-5.19798 16.42083,0.16742 13.10778,7.02534 12.30661,14.0372 -1.07103,9.37372 -6.59693,-2.29971 -10.1331,-2.23768 -12.59163,0.22085 -4.47146,4.47145 -12.96647,4.34389 -20.413,-0.30657 -4.99877,-3.12177 -6.64212,-2.79906 -10.14562,1.99227 -3.26207,4.46112 -6.57811,5.32839 -15.09121,3.94692 -7.75119,-1.25787 -12.02324,-0.42982 -14.75313,2.85949 -2.7703,3.33803 -7.01963,4.12198 -15.22807,2.80941 -6.26205,-1.00134 -14.6907,-0.31466 -18.73037,1.52591 -5.70086,2.5975 -9.34902,2.31014 -16.29902,-1.28386 -8.30991,-4.29722 -9.2154,-4.21208 -12.58475,1.18312 -5.1111,8.18415 -4.52355,12.97097 1.31701,10.72973 2.894,-1.11053 6.47,0.18337 8.61554,3.11769 3.40125,4.65151 4.24796,4.63627 11.6432,-0.20921 4.38635,-2.87405 9.55674,-4.24811 11.48972,-3.05346 1.93299,1.19464 4.49004,0.59363 5.68238,-1.33562 1.60096,-2.59038 4.89167,-2.3258 12.5835,1.01183 9.75062,4.23093 9.9141,4.52711 2.56019,4.63852 -4.32052,0.0654 -8.88174,1.1453 -10.13608,2.39963 -1.25433,1.25434 -13.45561,2.31571 -27.11392,2.35858 -18.70188,0.0587 -25.70783,-1.0627 -28.37517,-4.54197 -2.42925,-3.16872 -2.53899,-5.23969 -0.34939,-6.59295 1.86557,-1.15299 0.29679,-3.52278 -3.77478,-5.70177 -6.07117,-3.24918 -7.62968,-2.85046 -12.11829,3.10023 -4.73394,6.27588 -6.05518,6.53058 -16.31431,3.14475 -10.29758,-3.39851 -11.60729,-3.13575 -16.89022,3.38835 -5.4832,6.77148 -5.97721,6.8461 -11.60512,1.75294 -5.61253,-5.07929 -6.12779,-5.04374 -11.40419,0.7866 -6.64251,7.33989 -8.72109,7.55144 -13.82081,1.40665 z m 148.53938,-49.80784 c 10.55443,-2.70919 18.33764,-5.77801 17.29604,-6.81961 -2.35301,-2.35301 -31.02451,4.18893 -40.28689,9.19221 -8.04713,4.34683 -9.25877,8.22247 -1.52041,4.86323 2.92678,-1.27052 13.95686,-4.52664 24.51126,-7.23583 z M 348.48982,554.14793 c 0,-9.73191 -0.75954,-10.64286 -8.87375,-10.64286 -19.46557,0 -24.7342,8.58345 -10.13136,16.50563 14.19234,7.69947 19.00511,6.21481 19.00511,-5.86277 z m -39.53062,0.15474 c 0,-2.42356 4.85241,-8.10758 10.78313,-12.63116 6.71986,-5.12549 9.70745,-9.30036 7.9285,-11.07931 -3.87345,-3.87344 -13.11235,1.39236 -22.94487,13.07763 -9.51216,11.30457 -9.97118,15.03932 -1.84839,15.03932 3.3449,0 6.08163,-1.98291 6.08163,-4.40647 z m 275.41946,-11.17161 c 13.1494,-3.31106 18.90004,-7.36092 15.40915,-10.85181 -0.93429,-0.93431 -7.25666,0.5251 -14.0497,3.24313 -6.79303,2.71803 -17.79674,4.94187 -24.45269,4.94187 -6.65595,0 -12.10172,1.36837 -12.10172,3.04082 0,4.05537 18.37997,3.86005 35.19496,-0.37401 z M 389.41267,527.27362 c 8.1253,-13.86481 10.6597,-33.90491 4.00734,-31.68747 -2.04757,0.68253 -4.64379,5.74386 -5.76937,11.24741 -1.12562,5.50355 -4.98643,13.98286 -8.57964,18.8429 -6.16428,8.33768 -6.2174,14.78779 -0.12175,14.78779 1.50326,0 6.21178,-5.93578 10.46342,-13.19063 z m 68.54654,-8.24609 c 0,-5.1004 2.1816,-13.49219 4.84797,-18.64842 4.00558,-7.74592 4.13767,-9.82337 0.7602,-11.95552 -5.0913,-3.21407 -10.63607,3.72622 -15.23175,19.06523 -3.81534,12.73443 -1.88756,20.81217 4.96693,20.81217 3.1637,0 4.65665,-2.97313 4.65665,-9.27346 z m 63.85714,-15.35372 c 0,-13.45496 -8.60107,-30.10752 -15.55055,-30.10752 -6.8166,0 -7.24353,5.35209 -1.07724,13.50466 2.45549,3.24644 4.46453,10.43037 4.46453,15.96429 0,8.03445 1.22532,10.06167 6.08163,10.06167 4.77329,0 6.08163,-2.02722 6.08163,-9.4231 z m 54.7347,-4.81351 c 4.18112,-2.18395 10.68086,-3.97926 14.44388,-3.98956 4.04611,-0.011 6.84183,-1.88256 6.84183,-4.57996 0,-8.96265 -23.42335,-2.99179 -43.02877,10.96851 -6.9437,4.94435 -8.22416,7.18999 -5.17446,9.07481 2.44542,1.51135 7.07896,0.52025 11.684,-2.49918 4.19733,-2.75208 11.05239,-6.79066 15.23352,-8.97462 z m -29.64796,-1.72768 6.84183,-6.84184 -7.06299,-1.00067 c -10.29563,-1.45868 -15.74313,1.48505 -15.74313,8.50728 0,8.17643 7.43258,7.86693 15.96429,-0.66477 z m 55.4949,-41.58669 c 1.67245,-0.22986 0.38463,-2.42698 -2.86181,-4.88247 -6.0147,-4.54928 -38.98168,-6.30328 -48.661,-2.58899 -15.17537,5.82334 23.11523,11.37596 51.52281,7.47146 z"
           style="fill:#0c0a0d" />
      </g>
      <g
         id="g3110">
        <path
           style="fill:#8f3619;fill-opacity:1;stroke:#0c0a0d;stroke-width:0.25253814;stroke-opacity:1"
           d="m 141.60415,221.04159 c -8.72998,8.0168 -16.9384,16.64341 -26.4297,23.7307 -1.47442,1.03848 -2.94064,2.18217 -4.69563,2.62008 -2.52566,1.95538 -2.65147,5.68018 -2.115,8.5784 0.3689,1.58402 1.29736,3.88328 3.22775,3.80386 3.35656,-0.68371 5.8766,-3.31686 8.54057,-5.29481 7.7309,-6.65591 14.98858,-13.9664 20.99061,-22.23974 1.90434,-2.39403 2.76537,-5.39227 3.98537,-8.13646 0.46576,-1.08703 1.53072,-1.79684 2.01241,-2.83317 -1.12879,-0.78227 -2.94212,-0.12091 -4.33261,-0.33934 -0.39157,0.041 -0.82662,-0.10116 -1.18377,0.11048 z"
           id="path3060"
           inkscape:connector-curvature="0" />
        <path
           style="fill:#611e0a;fill-opacity:1;stroke:#611e0a;stroke-width:0.50507629;stroke-opacity:1"
           d="m 76.949303,429.26466 c -2.915968,0.37538 -5.264049,2.68715 -5.161248,5.72946 -0.09523,3.90856 -1.68958,7.43065 -4.435201,10.14888 -0.906815,3.66041 1.369858,7.40645 1.135733,11.15687 0.724793,6.67674 0.508197,13.55897 1.752672,20.11051 1.596948,-0.52749 5.206561,-3.3825 1.373176,-3.50397 -1.807821,-0.45165 -0.178431,-2.01455 0.978585,-1.76777 9.990257,-0.79751 20.105188,-0.70403 30.09939,0.0789 4.28118,0.0373 7.82648,3.05646 12.05869,3.04624 5.54225,-0.97631 10.70276,-4.49191 16.55704,-3.14094 2.90544,0.18373 5.96624,1.75817 8.82305,1.02593 0.19445,-1.24373 -1.25497,-2.31935 -1.03005,-3.76541 -0.36068,-2.68316 -0.23391,-6.8467 -3.75239,-7.36205 -5.94441,-2.05039 -13.20799,0.50757 -18.45107,-3.4724 -1.44556,-1.53313 1.29489,-3.33493 2.38333,-4.10374 2.93208,-1.48471 6.31389,-3.80796 9.69115,-2.98311 1.57686,3.52533 6.36787,3.39707 9.72058,3.85028 2.19925,0.66944 5.81838,-0.43628 7.10477,1.83183 0.59945,2.15107 -1.47524,5.26186 1.23113,6.64491 6.12977,2.0123 11.85759,-2.78739 17.66188,-3.86699 4.93628,-0.33269 8.00925,4.54351 11.25871,7.48325 1.4032,1.59043 2.92783,3.13248 3.94093,5.0016 -7.29892,-2.21124 -14.99745,-3.84308 -22.69686,-2.71478 -5.5934,0.68145 -11.24821,1.81066 -16.57282,3.4724 2.15831,1.41349 6.05926,0.7348 8.88153,1.34032 30.74273,3.10957 61.68922,2.60298 92.54368,2.56906 5.77977,0.41546 11.44391,-2.88833 17.12566,-0.83157 7.15984,2.02767 14.47768,-1.58648 19.82425,-6.09249 1.79729,-0.99654 1.4127,-3.34292 -0.39459,-4.05639 -5.6523,-2.97778 -12.31034,-1.60187 -18.40372,-2.6043 5.84578,-1.65526 12.30154,-5.83884 18.37215,-2.85684 2.9855,2.00991 7.0573,3.85868 10.38563,1.42053 5.758,-3.11578 12.98659,-2.66675 19.08241,-0.78918 1.7055,0.60179 4.83921,3.39308 2.49382,4.98763 -5.599,1.42017 -11.92108,-0.93155 -17.2673,1.51523 -2.67436,2.30801 -0.32646,8.23071 3.5329,6.87748 7.92128,-1.28329 16.14511,-5.05679 24.12994,-2.04345 3.19042,0.76462 6.321,2.35459 9.28665,3.38924 1.52043,-2.51962 0.64078,-6.06821 1.05561,-8.93335 -0.091,-5.82835 0.52752,-11.8329 -0.3927,-17.56737 -3.73328,-2.85853 -8.54909,-4.14667 -12.98993,-5.58741 -5.94869,-1.36044 -9.11955,5.59717 -14.34732,6.67648 -6.62201,0.46337 -11.64504,-6.14784 -18.26167,-5.46114 -4.12469,1.22308 -6.68946,6.81368 -11.42735,5.82416 -5.75893,-1.49179 -11.06966,-6.40802 -17.29886,-4.97184 -4.74458,1.39231 -9.02904,6.44949 -14.36311,4.21423 -4.09822,-1.44687 -9.08653,-4.79917 -13.2109,-1.56258 -5.85049,4.35172 -15.07191,4.62501 -20.17148,-0.8681 -5.30912,-1.40659 -11.04008,-0.13099 -16.4939,-0.33146 -3.53171,0.17283 -7.13832,0.67124 -10.07977,-1.70954 -5.48003,-3.40705 -11.19273,1.46112 -16.64192,2.26197 -6.57435,1.56326 -12.05843,-4.29316 -18.62469,-4.00904 -5.35062,-0.0207 -11.34675,2.31674 -16.02039,-1.3574 -2.15683,-1.40769 -5.00643,-2.66656 -7.29204,-0.74183 -3.00757,1.44359 -6.22908,4.8949 -9.7258,2.68962 -4.37597,-1.64073 -8.66695,-4.17169 -13.53927,-3.33675 -4.393284,-0.27464 -9.15101,1.11708 -13.352955,-0.4735 -2.899141,-2.12118 -6.601841,-3.86199 -10.133093,-2.14658 -2.24703,-0.005 -1.948923,-3.34373 -0.978585,-4.64039 0.142024,-0.81935 3.546701,-3.54101 1.025936,-3.69337 z"
           id="path3024"
           inkscape:connector-curvature="0" />
        <path
           style="fill:#611e0a;fill-opacity:1;stroke:#611e0a;stroke-width:0.25253814;stroke-opacity:1"
           d="m 622.91672,408.76409 c -2.47098,0.27498 -3.72451,2.84934 -5.35871,4.40693 -1.50785,2.06368 -3.76221,3.64808 -6.41588,3.77688 -6.45238,0.80753 -13.10863,-2.32612 -19.42176,0.0316 -3.14047,1.43824 -5.09868,4.83671 -8.64944,5.48481 -5.64588,1.16553 -11.3068,-0.93591 -17.00685,-0.58147 -5.38301,-0.20629 -10.57134,1.38761 -15.55478,3.24101 -3.81062,0.74554 -7.72002,-0.24756 -11.10501,-2.00231 -3.33374,-1.28571 -6.50611,-3.8827 -10.25814,-3.45093 -2.43879,1.20513 -3.57728,4.00271 -5.03575,6.16868 -1.2965,2.46399 -2.81731,5.30201 -2.08267,8.15496 0.54675,1.6707 2.50593,1.75307 3.89856,1.23113 2.39031,-0.90652 5.18756,-0.79026 7.2289,0.8681 2.19198,1.58402 3.3661,4.61408 6.12405,5.36643 3.02188,-0.002 5.44647,-2.32297 7.99844,-3.64086 3.61505,-2.13294 8.10796,-4.45945 12.29142,-2.58578 2.40278,0.92353 4.27912,-1.24744 5.82416,-2.69111 2.14838,-1.68494 5.00497,-0.22246 7.29994,0.41037 3.89871,1.47368 7.92591,2.98882 11.38789,5.24017 -2.81149,0.69566 -5.85195,0.14961 -8.72046,0.79707 -2.62669,0.2552 -4.99659,1.38978 -7.37096,2.42279 -5.84872,1.47432 -11.94346,1.40069 -17.93745,1.74087 -9.27665,0.19869 -18.63418,0.45414 -27.84298,-0.73861 -3.17841,-0.56306 -6.80095,-1.27789 -8.681,-4.19844 -1.30425,-1.43544 -2.04971,-4.01384 -0.1894,-5.31909 1.14442,-0.74617 1.32392,-2.27527 0.39459,-3.26721 -2.31995,-2.46009 -5.5379,-4.02966 -8.74413,-4.96395 -3.11658,-0.6024 -5.33729,2.1362 -7.07107,4.30893 -2.21013,2.472 -4.35043,6.34486 -8.25484,5.82416 -5.22922,-0.40975 -10.05016,-2.99898 -15.22331,-3.87488 -2.45562,-0.59624 -5.27197,-0.25132 -6.99215,1.76776 -3.07101,2.66608 -5.06564,6.48795 -8.51527,8.65733 -1.55723,0.51892 -2.95293,-1.05889 -4.18698,-1.79359 -2.38787,-1.70554 -4.31623,-4.29862 -7.17724,-5.2617 -2.42893,-0.19048 -4.03507,2.25801 -5.67422,3.6697 -2.43966,2.22382 -4.45712,5.16698 -7.67084,6.29767 -3.04205,0.5947 -4.98945,-2.49125 -6.8501,-4.32472 -2.078,-2.15333 -5.14421,-3.76946 -8.19675,-2.90581 -1.05593,0.42881 -2.06458,0.0859 -2.78077,-0.73232 -1.12872,-0.59857 -0.9267,1.17698 -1.01015,1.78355 -0.73732,7.39103 -1.59271,14.89349 -0.72923,22.30755 0.11216,1.36138 0.52667,2.94823 1.97614,3.42767 1.25497,0.96434 1.39407,2.64135 1.53101,4.0485 0.86019,0.0998 1.40657,-1.26816 2.43857,-0.97069 4.62747,0.70149 8.41462,4.89995 13.36844,4.13869 4.81034,-0.25378 8.87205,-3.28744 13.34536,-4.76215 3.34062,-1.33596 6.93012,-2.10859 10.50001,-1.30185 1.91902,0.44729 3.88004,-0.28528 5.20471,-1.69704 3.57854,-2.49853 8.23801,-2.27439 12.39702,-2.66738 4.22493,-0.36271 8.8624,-0.21004 12.56479,-2.57278 1.42487,-1.19068 2.34064,-3.08104 4.26159,-3.58289 5.95511,-2.4208 12.56204,-2.01181 18.83279,-2.92769 4.97153,-0.4392 9.84836,-1.7029 14.77845,-2.27301 5.16485,-0.34121 10.11569,1.5524 14.2763,4.48255 2.48668,1.50998 5.6907,3.69111 8.61786,2.01241 3.47368,-2.51203 6.72204,-5.87472 11.1906,-6.42394 2.46003,-0.33813 4.83118,1.01148 7.31318,0.41412 5.29097,-0.70632 9.23278,-4.80568 14.32618,-6.09623 5.4216,-1.77952 11.38321,-1.27466 16.62017,-3.72493 3.76086,-1.32284 6.51577,-5.13065 10.72498,-5.05866 3.13377,0.59673 5.61331,2.91973 8.45408,4.2579 1.544,1.08019 3.83549,1.30009 5.1593,-0.26464 2.76819,-2.72707 4.26283,-7.41625 8.55855,-8.03169 9.80673,-0.97012 19.65678,2.1534 29.44055,0.57392 2.80688,-0.34411 4.09641,-3.45194 6.88166,-3.81964 2.00334,-0.58345 4.39513,-0.5092 6.00566,0.96281 1.16047,-0.13229 1.16781,-1.81198 1.68888,-2.63587 0.9581,-2.80045 1.11596,-6.4758 -1.40477,-8.53105 -1.525,-1.20146 -2.25171,-3.13672 -2.14658,-5.05866 -0.49573,-1.10049 -1.84156,0.12556 -2.70688,-0.15784 -5.99785,0.13863 -11.53245,-4.05538 -17.59086,-2.69111 -2.6984,0.94607 -4.48248,3.62644 -7.37885,4.19056 -4.89532,1.23448 -10.07313,0.0229 -14.39806,-2.40455 -2.09225,-1.00596 -4.14188,-2.56731 -6.57049,-2.48048 z"
           id="path3026"
           inkscape:connector-curvature="0" />
        <path
           style="fill:#611e0a;fill-opacity:1;stroke:#611e0a;stroke-width:0.50507629;stroke-opacity:1"
           d="m 538.06584,156.40886 c -8.3464,1.20045 -16.64692,6.63602 -25.23574,3.59101 -4.94016,-1.02485 -10.639,-5.0373 -15.47025,-1.60227 -4.2734,2.99954 -9.24828,8.18974 -14.97867,5.85573 -4.59449,-1.62089 -7.731,-6.01335 -12.29545,-7.4341 -5.3376,2.24733 -9.02891,7.28571 -13.61138,10.74448 -1.668,0.92719 -3.35968,3.75768 -5.53417,2.93993 -3.32657,-1.91145 -2.05543,-7.14928 -5.01919,-9.28077 -4.87826,-0.22084 -8.84034,3.66995 -13.12342,5.40803 -2.23085,1.52674 -5.46086,1.85504 -7.17433,-0.56246 -2.72821,-2.31848 -4.85094,-7.28477 -9.18608,-6.0767 -6.9545,1.27426 -14.18813,6.06259 -21.23964,2.57314 -5.45993,-3.07668 -11.71326,-1.20711 -17.11956,0.91895 -7.28618,3.18638 -14.6259,-1.17494 -21.80801,-2.40301 -9.04765,-1.40965 -17.19453,4.8633 -26.27975,3.25142 -6.90966,-0.44467 -13.63439,-4.44841 -20.59764,-2.74635 -5.01719,1.66942 -9.35311,6.51443 -15.08916,4.81401 -5.07549,-1.23341 -9.45731,-5.16374 -14.72613,-5.47692 -4.43624,1.98008 -7.30076,7.23324 -12.70582,6.99215 -6.02171,0.18347 -10.53225,-4.21503 -15.76785,-6.37659 -4.37476,-0.40474 -7.24833,4.04888 -10.59043,6.15531 -2.15053,2.04856 -5.31606,3.87279 -8.25523,2.16267 -3.81625,-1.86257 -8.33059,-4.06052 -12.4375,-1.60994 -4.7138,1.66004 -8.8737,5.49512 -13.95273,5.68211 -5.54106,-1.77334 -8.34544,-8.37952 -14.15792,-9.75428 -4.92488,0.60573 -8.81345,4.42506 -13.46344,6.01356 -3.72881,2.20043 -6.79821,-1.80271 -9.58803,-3.63618 -2.2351,-2.32392 -5.86209,-2.80255 -8.4211,-0.68853 -4.95495,3.34298 -11.72229,7.32661 -17.5514,3.45661 -3.56382,-2.06197 -4.42085,-6.98067 -8.0023,-8.98089 -5.05519,1.81568 -8.58576,7.92603 -14.47359,7.48145 -2.92511,-0.47329 -3.31815,-4.27628 -5.61898,-5.46114 -2.75798,1.4261 -4.56325,6.37375 -8.33376,4.65617 -5.07732,-2.25508 -9.957305,-6.88631 -15.894115,-5.99778 -4.068045,1.28669 -2.311148,6.45642 -2.572732,9.56488 -0.9093,7.42472 -3.719896,13.19788 -3.591595,19.63323 -0.469408,3.94321 0.951271,8.36368 4.649098,10.22941 1.800315,0.94103 2.340829,3.66921 4.293148,4.07217 0.821556,-1.91473 -1.487047,-3.89473 -2.604299,-5.31908 -1.858009,-1.0611 -3.298628,-2.76369 -3.062025,-5.08233 0.02975,-2.22448 -0.877248,-6.67215 2.351761,-6.97637 5.606779,1.46311 9.880995,6.31556 15.436389,7.82869 4.43439,-1.24637 7.5064,-5.43932 12.04292,-6.67648 6.15908,-2.54929 13.35168,-1.35328 18.62994,2.6181 2.37406,2.04247 5.2285,0.40224 7.17698,-1.33838 4.18256,-3.53251 9.89519,-7.17327 15.48388,-4.64172 5.39868,1.82316 10.79188,7.5334 16.84032,4.64047 7.12613,-4.44937 17.54483,-2.99336 22.35175,4.13329 1.84996,1.84629 2.82791,5.08984 5.06442,6.20499 4.45664,-4.2364 7.96001,-10.32225 13.96852,-12.35858 5.40832,-0.654 8.81754,4.795 12.74081,7.5872 1.56796,1.11363 4.63487,3.86355 6.02593,1.15693 2.25214,-4.24441 4.76542,-8.68179 8.27062,-11.99556 3.4901,-1.49662 6.95908,1.72955 10.0823,2.89672 4.16357,1.9613 8.15383,4.70769 12.4883,6.242 5.45429,-3.49463 9.33533,-10.15894 16.16244,-11.09589 2.99078,-0.54725 4.60714,2.44862 4.78244,4.98763 0.32696,2.29069 1.80055,6.51798 4.87714,5.12968 4.83378,-3.58045 8.75839,-9.44227 15.18386,-10.10153 3.36489,0.91038 3.74716,5.392 5.35065,7.97074 0.86924,1.53586 1.88567,5.49269 4.38785,3.97747 4.90853,-3.39567 9.9487,-7.97842 16.43076,-7.10263 5.35778,-0.0286 8.66786,4.51482 12.78475,7.1342 2.88339,0.10551 5.36713,-2.45636 7.96452,-3.53842 3.4322,-2.30529 7.84697,-4.36887 11.81237,-2.0332 5.49652,1.96684 10.59558,6.51674 16.71487,5.85573 6.30734,-2.34396 11.67084,-8.3767 18.95614,-7.35518 7.28715,0.65606 13.11024,6.27654 20.3451,6.99215 7.11715,-0.63874 12.38054,-8.54693 19.90317,-6.81853 5.04832,1.29004 7.92172,6.27844 12.70582,7.93917 3.04721,-0.14984 3.38642,-4.36814 5.72946,-5.65054 5.93838,-5.104 14.77266,-2.01152 19.90458,2.66526 1.94179,1.75687 5.34968,4.65861 7.59051,1.67524 3.31129,-3.57774 5.71516,-9.50252 11.17481,-10.03839 5.11508,0.22492 7.51763,5.80334 11.90086,7.38674 5.05814,-2.79589 9.49076,-7.71854 15.75207,-7.38674 7.02248,0.12145 11.57128,6.10027 15.1565,11.42024 1.00706,2.68303 2.88245,-0.20158 3.88938,-1.15348 3.20213,-2.98423 5.34224,-7.67795 9.49093,-9.33553 3.79758,0.28138 6.07694,4.1761 9.31234,5.85573 2.52886,2.18727 6.00657,1.66341 8.69005,0.0438 4.91801,-1.59686 9.54515,-5.0881 14.82756,-4.96831 3.88177,1.57334 5.80606,5.85757 8.5863,8.79148 1.25123,0.95228 2.11667,3.96014 3.81964,3.51975 3.72559,-3.64727 7.05708,-8.24649 10.81176,-11.5694 3.35674,3.15445 5.5368,7.84693 9.73853,9.94369 4.54483,-0.38134 6.68509,-6.63521 11.63256,-6.04513 4.13481,0.20945 7.76697,3.5475 11.91662,3.14094 2.20991,-2.20151 0.61579,-5.97389 1.5468,-8.75992 1.12425,-3.59603 5.92273,-2.97738 8.82308,-4.00904 2.23753,-0.70677 6.93787,-1.13444 6.20294,-4.51412 -3.48321,-9.17102 -13.24638,-13.73182 -22.19179,-16.11509 -8.58195,-2.14579 -17.58918,-0.76316 -26.32382,-0.56332 -9.93859,0.51639 -19.77803,2.06529 -29.51868,3.98837 -8.12414,0.20871 -15.37592,-4.01452 -23.09145,-5.80838 -4.80253,-1.12324 -6.65629,4.64254 -9.97526,6.66069 -1.66423,1.08155 -2.952,-1.96816 -4.0631,-2.72691 -2.2994,-2.1702 -4.33608,-6.01008 -8.05873,-5.41744 z"
           id="path3030"
           inkscape:connector-curvature="0"
           sodipodi:nodetypes="ccccccccccccccccccccccccccccccccccccccccccccccccccccccccccccccccccccccccccccccccccccccccccccccccccc" />
        <path
           style="fill:#8f3619;fill-opacity:1;stroke:#0c0a0d;stroke-width:0.50507629;stroke-opacity:1"
           d="m 213.8761,283.56801 c -7.46884,0.83729 -11.76224,7.57218 -15.51166,13.30431 -4.01306,6.19161 -10.41456,10.15 -15.36113,15.48504 -2.13546,1.95726 -3.21973,6.48676 0.41037,7.40252 5.91491,0.79683 11.53769,-2.73432 15.33734,-7.00447 7.08058,-7.36944 13.99021,-15.28593 18.51856,-24.51544 1.3863,-2.4773 -0.56028,-5.23447 -3.39348,-4.67196 z"
           id="path3032"
           inkscape:connector-curvature="0" />
        <path
           style="fill:#8f3619;fill-opacity:1;stroke:#0c0a0d;stroke-width:0.35714287;stroke-opacity:1"
           d="m 182.58846,257.74621 c -7.72253,0.58144 -14.68964,4.52993 -21.35045,8.1808 -6.0234,3.79028 -12.52374,7.91702 -15.97098,14.29688 -1.52192,2.53373 0.0278,6.13483 3.05803,6.41741 3.75234,0.88684 7.99786,-0.48739 9.87724,-4.0067 2.82338,-4.23716 7.85484,-6.63821 12.04241,-9.35268 5.77111,-3.66935 12.40361,-6.17927 17.44419,-10.85937 1.72593,-1.40126 0.82458,-4.27041 -1.37277,-4.43081 -1.21892,-0.27266 -2.48231,-0.27405 -3.72767,-0.24553 z"
           id="path3034"
           inkscape:connector-curvature="0" />
        <path
           style="fill:#8f3619;fill-opacity:1;stroke:#0c0a0d;stroke-width:0.25253814;stroke-opacity:1"
           d="m 247.64563,334.33247 c -6.29778,0.58544 -11.56986,4.57005 -17.7021,5.78906 -7.78204,2.15531 -16.30942,0.34937 -23.74572,3.8942 -1.95342,0.82355 -4.23225,2.65978 -3.69337,5.0192 1.11057,1.64846 3.49961,1.51137 5.27173,1.69674 10.70676,0.31134 21.44128,-1.28904 31.7251,-4.18266 4.72872,-1.46737 10.04973,-3.44779 12.57956,-8.0102 0.89162,-1.44727 0.0576,-3.3213 -1.52312,-3.78807 -0.91411,-0.38426 -1.92668,-0.47559 -2.91208,-0.41827 z"
           id="path3036"
           inkscape:connector-curvature="0" />
        <path
           style="fill:#8f3619;fill-opacity:1;stroke:#0c0a0d;stroke-width:0.25253814;stroke-opacity:1"
           d="m 188.52014,374.93587 c -2.48561,0.21532 -5.52318,0.41373 -7.22101,2.47803 -0.89661,1.68891 1.34381,2.8969 2.68321,3.26721 4.31412,1.27845 9.0018,0.8669 13.30329,2.35182 8.2614,2.25018 15.39056,7.32316 23.5515,9.85682 1.83261,0.46682 4.50001,1.17533 5.82416,-0.6708 0.82483,-1.06707 0.37869,-2.43451 -0.66291,-3.16462 -4.68408,-3.76858 -10.40789,-5.9708 -15.87834,-8.31008 -6.61093,-2.50987 -13.34547,-5.15123 -20.43966,-5.80115 -0.38659,-0.0148 -0.7735,-0.0194 -1.16024,-0.007 z"
           id="path3038"
           inkscape:connector-curvature="0" />
        <path
           style="fill:#8f3619;fill-opacity:1;stroke:#0c0a0d;stroke-width:0.25253814;stroke-opacity:1"
           d="m 174.07022,399.75564 c -1.34186,-0.0927 -1.34297,1.5638 -0.56821,2.26495 3.7837,4.599 9.10839,7.62277 14.10787,10.7573 7.55387,4.33373 15.59677,8.14347 24.19112,9.80088 2.31359,0.11986 5.26923,0.6948 6.92901,-1.33372 0.72072,-0.91959 2.22922,-2.52081 0.61556,-3.34613 -4.60844,-3.57666 -10.16348,-5.69137 -15.42248,-8.12712 -8.98037,-3.75559 -18.04142,-7.51479 -27.51988,-9.77369 -0.77616,-0.14068 -1.55025,-0.28001 -2.33299,-0.24247 z"
           id="path3040"
           inkscape:connector-curvature="0" />
        <path
           style="fill:#8f3619;fill-opacity:1;stroke:#0c0a0d;stroke-width:0.25253814;stroke-opacity:1"
           d="m 311.87713,345.55464 c -4.26058,0.58001 -7.94661,3.23488 -11.16195,5.94837 -5.74144,5.20722 -11.13789,11.03142 -14.96786,17.806 -0.80137,1.50695 -1.70821,3.88508 0.14995,5.01919 1.87952,1.43751 4.45483,0.83558 6.64491,0.78129 2.47873,-0.36686 4.51279,-2.42589 4.67984,-4.94817 1.38781,-3.59916 4.3285,-6.37132 7.11647,-8.9857 3.97759,-3.66798 8.96729,-6.56068 11.56346,-11.462 0.61507,-1.00947 0.55838,-2.28226 -0.44983,-3.00678 -0.92828,-0.92826 -2.30031,-1.22674 -3.57499,-1.1522 z"
           id="path3042"
           inkscape:connector-curvature="0" />
        <path
           style="fill:#8f3619;fill-opacity:1;stroke:#0c0a0d;stroke-width:0.25253814;stroke-opacity:1"
           d="m 382.1064,311.6435 c -2.75882,0.60217 -4.0252,3.5836 -5.10881,5.89928 -1.81975,5.08112 -2.73995,10.44753 -5.13476,15.30603 -2.41294,5.80153 -6.68388,10.54319 -9.12294,16.31239 -0.96963,2.36161 -1.27901,5.90578 1.38106,7.27625 1.41063,0.98589 3.34213,0.86804 4.49834,-0.44983 4.21904,-4.39924 7.43406,-9.66542 10.35005,-14.99075 3.60598,-7.40091 6.33431,-15.48857 6.31064,-23.80533 -0.14015,-2.00771 -0.35876,-4.94592 -2.70007,-5.53226 -0.15663,-0.028 -0.31533,-0.0301 -0.47351,-0.0158 z"
           id="path3044"
           inkscape:connector-curvature="0" />
        <path
           style="fill:#8f3619;fill-opacity:1;stroke:#0c0a0d;stroke-width:0.25253814;stroke-opacity:1"
           d="m 448.68966,303.87006 c -3.88332,0.48818 -5.99125,4.34163 -7.74976,7.41042 -3.68442,7.22257 -6.37019,15.15199 -6.8743,23.30439 -0.12793,3.64448 0.64318,8.21118 4.38048,9.84124 2.35336,1.18682 5.85097,0.37255 6.64491,-2.39911 1.459,-4.59229 0.80147,-9.53437 2.07555,-14.1816 1.19126,-6.10788 4.24702,-11.6356 6.55021,-17.362 0.86095,-2.26765 -0.16638,-4.93489 -2.39911,-5.94253 -0.79411,-0.45344 -1.70818,-0.73048 -2.62798,-0.67081 z"
           id="path3046"
           inkscape:connector-curvature="0" />
        <path
           style="fill:#8f3619;fill-opacity:1;stroke:#0c0a0d;stroke-width:0.25253814;stroke-opacity:1"
           d="m 493.66513,289.75949 c -2.08574,-0.0419 -4.10567,1.04055 -5.16125,2.84106 -0.29877,4.25287 2.18619,7.87271 4.41152,11.24584 3.61568,5.46754 4.14747,12.12566 4.44936,18.48845 0.15883,2.65836 0.63677,6.24086 3.64765,7.12049 2.17739,0.55974 4.80531,0.43832 6.72383,-0.83653 2.41152,-2.2015 1.93002,-5.69971 1.95582,-8.63365 0.31662,-7.55285 -2.24542,-14.9275 -5.79125,-21.48152 -2.07456,-3.46504 -4.61424,-7.26117 -8.64154,-8.57841 -0.52206,-0.11487 -1.05834,-0.19422 -1.59414,-0.16573 z"
           id="path3048"
           inkscape:connector-curvature="0" />
        <path
           style="fill:#8f3619;fill-opacity:1;stroke:#0c0a0d;stroke-width:0.25253814;stroke-opacity:1"
           d="m 578.38378,302.31537 c -9.69109,0.62382 -18.59994,5.09125 -27.01273,9.60205 -5.23223,3.06562 -10.68449,6.1607 -14.73498,10.74306 -1.22191,1.16286 -1.11744,3.29384 0.46562,4.07217 2.80013,1.96145 6.41479,0.5833 9.22553,-0.63923 8.60192,-4.62544 16.55881,-10.87333 26.07491,-13.49312 3.47716,-1.10207 7.33507,-0.59266 10.73252,-1.97484 2.36541,-0.91823 3.48122,-3.95294 2.15447,-6.13195 -1.52897,-2.05489 -4.51605,-2.27742 -6.90534,-2.17814 z"
           id="path3050"
           inkscape:connector-curvature="0" />
        <path
           style="fill:#8f3619;fill-opacity:1;stroke:#0c0a0d;stroke-width:0.25253814;stroke-opacity:1"
           d="m 555.47383,262.29597 c -6.07692,0.23043 -12.47032,0.13066 -18.12573,2.57272 -1.21146,0.45973 -2.99199,1.83745 -1.84056,3.21987 2.24276,2.31859 5.72741,2.54532 8.681,3.34613 12.36581,2.32699 25.04236,2.41957 37.57209,1.64455 2.99283,-0.34352 6.08436,-0.35261 9.0133,-1.04477 0.9424,-0.99794 -0.42383,-2.32625 -1.0575,-3.11727 -3.27825,-3.83836 -8.64546,-4.37967 -13.29771,-5.24016 -6.92737,-1.04196 -13.94141,-1.43732 -20.94489,-1.38107 z"
           id="path3052"
           inkscape:connector-curvature="0" />
        <path
           style="fill:#8f3619;fill-opacity:1;stroke:#0c0a0d;stroke-width:0.25253814;stroke-opacity:1"
           d="m 585.67582,348.26153 c -7.56327,1.06248 -14.4377,4.80031 -21.88501,6.36374 -6.39599,1.64956 -13.03695,1.84245 -19.59438,2.33304 -2.49208,0.3635 -5.49456,0.50865 -7.26047,2.52538 -0.45186,1.64361 1.69658,2.52626 2.96732,2.84106 6.78634,1.46478 13.82463,0.54259 20.64007,-0.27552 8.28943,-1.27864 16.7578,-2.89059 24.2328,-6.77187 1.83992,-1.12054 4.49841,-2.71365 3.98537,-5.23228 -0.36333,-1.46011 -1.67758,-2.01095 -3.0857,-1.78355 z"
           id="path3054"
           inkscape:connector-curvature="0" />
        <path
           style="fill:#8f3619;fill-opacity:1;stroke:#0c0a0d;stroke-width:0.25253814;stroke-opacity:1"
           d="m 589.8427,383.1039 c -8.82246,0.60163 -17.41342,2.94765 -25.87727,5.39011 -5.91168,1.96359 -12.22005,3.86513 -16.77011,8.34165 -0.81698,0.51544 -1.71158,2.33385 -0.14995,2.44647 3.41712,-0.49017 6.56144,-2.17674 9.90074,-3.04232 10.75813,-3.49844 21.96998,-5.70406 32.56257,-9.70276 1.36334,-0.70841 3.30521,-1.04809 4.07474,-2.49402 -0.25738,-1.40418 -2.81506,-0.73967 -3.74072,-0.93913 z"
           id="path3056"
           inkscape:connector-curvature="0" />
        <path
           style="fill:#8f3619;fill-opacity:1;stroke:#0c0a0d;stroke-width:0.25253814;stroke-opacity:1"
           d="m 366.51469,381.06047 c -2.65778,0.35058 -3.33645,3.61887 -2.8963,5.85573 0.94989,7.45893 6.04485,13.32025 10.1427,19.27161 0.37161,1.31721 1.42549,1.70847 2.74464,1.43414 3.40743,-0.11023 6.90975,0.19857 10.25936,-0.15546 0.0658,-1.11079 -1.72432,-1.21364 -2.38333,-2.01241 -4.91286,-3.73234 -8.13984,-9.13289 -10.51465,-14.76216 -1.61311,-3.23895 -2.84307,-7.04174 -5.86087,-9.26053 -0.45316,-0.25037 -0.96611,-0.43005 -1.49155,-0.37092 z"
           id="path3064"
           inkscape:connector-curvature="0" />
      </g>
    </g>
  </g>
</svg>
