<?xml version="1.0" encoding="UTF-8" standalone="no"?>
<!-- Created with Inkscape (http://www.inkscape.org/) -->

<svg
   xmlns:dc="http://purl.org/dc/elements/1.1/"
   xmlns:cc="http://creativecommons.org/ns#"
   xmlns:rdf="http://www.w3.org/1999/02/22-rdf-syntax-ns#"
   xmlns:svg="http://www.w3.org/2000/svg"
   xmlns="http://www.w3.org/2000/svg"
   xmlns:sodipodi="http://sodipodi.sourceforge.net/DTD/sodipodi-0.dtd"
   xmlns:inkscape="http://www.inkscape.org/namespaces/inkscape"
   width="1024"
   height="1024"
   id="svg2"
   version="1.1"
   inkscape:version="0.48.4 r9939"
   sodipodi:docname="Cave Girl Torso.svg">
  <defs
     id="defs4" />
  <sodipodi:namedview
     id="base"
     pagecolor="#ffffff"
     bordercolor="#666666"
     borderopacity="1.0"
     inkscape:pageopacity="0.0"
     inkscape:pageshadow="2"
     inkscape:zoom="0.49497475"
     inkscape:cx="460.22419"
     inkscape:cy="394.10238"
     inkscape:document-units="px"
     inkscape:current-layer="layer1"
     showgrid="false"
     inkscape:window-width="1280"
     inkscape:window-height="1002"
     inkscape:window-x="1912"
     inkscape:window-y="-8"
     inkscape:window-maximized="1" />
  <metadata
     id="metadata7">
    <rdf:RDF>
      <cc:Work
         rdf:about="">
        <dc:format>image/svg+xml</dc:format>
        <dc:type
           rdf:resource="http://purl.org/dc/dcmitype/StillImage" />
        <dc:title />
      </cc:Work>
    </rdf:RDF>
  </metadata>
  <g
     inkscape:label="Layer 1"
     inkscape:groupmode="layer"
     id="layer1"
     transform="translate(0,-28.362183)">
    <g
       id="g3077"
       transform="matrix(2.0204982,0,0,2.0204982,-281.5211,-382.10312)">
      <g
         transform="translate(22.857143,-1.6139977e-6)"
         id="g3070">
        <path
           sodipodi:nodetypes="ssssssssscssssssscssscsssscssssssssssscccccsssssscsssssscccscccsssssssssssssssssssccssssssscsssssssssss"
           inkscape:connector-curvature="0"
           id="path3086"
           d="m 611.88921,679.17926 c -18.34981,-24.97174 -27.2005,-55.36246 -27.25847,-93.59769 -0.0362,-23.9003 -0.40158,-25.66837 -5.30421,-25.66837 -5.8645,0 -6.95071,5.1595 -2.10613,10.00409 2.45714,2.45713 0.99457,3.15918 -6.58163,3.15918 -8.6351,0 -9.74082,0.74709 -9.74082,6.58163 0,5.26531 -1.31632,6.58163 -6.58163,6.58163 -7.0067,0 -8.73475,5.71605 -3.97946,13.16327 2.01034,3.14836 0.80127,4.23294 -5.96378,5.34955 -4.66693,0.77029 -8.29878,2.54733 -8.07077,3.94898 0.22799,1.40163 0.82036,4.86986 1.31633,7.70717 0.6936,3.96788 -0.61759,5.18335 -5.67987,5.26531 -5.78931,0.0937 -6.5012,1.13657 -5.91344,8.66266 0.40435,5.17788 -0.55325,8.55613 -2.42536,8.55613 -1.70145,0 -5.1863,1.8939 -7.74408,4.20869 -3.51319,3.17937 -4.07785,5.71501 -2.30878,10.36799 2.06626,5.43467 1.50495,6.25587 -4.77103,6.98009 -5.4563,0.62962 -7.06414,2.20031 -6.90379,6.74425 0.2401,6.80185 -0.0211,6.91382 -7.18274,3.08099 -4.13066,-2.21069 -6.37371,-1.88095 -10.09125,1.48337 -4.46643,4.04204 -5.06554,3.92626 -9.13218,-1.76467 l -4.35211,-6.09051 -4.9381,5.98007 c -5.45996,6.61207 -6.48456,5.87013 -9.16734,-6.63823 -1.00931,-4.70587 -2.51766,-8.55612 -3.3519,-8.55612 -0.83426,0 -5.48387,3.02581 -10.33248,6.72403 l -8.81565,6.724 -2.62162,-6.89539 c -1.44188,-3.79249 -2.62162,-8.61791 -2.62162,-10.72316 0,-2.76834 -1.82161,-3.37056 -6.58163,-2.17586 -5.73129,1.43845 -6.58164,0.78471 -6.58164,-5.05978 0,-7.79829 -4.42901,-11.54442 -8.65387,-7.31956 -4.80025,4.80024 -9.09724,3.35473 -10.85577,-3.65184 -1.90027,-7.57124 -5.7718,-8.34348 -12.2838,-2.45018 -4.22238,3.82119 -4.69797,3.52691 -6.33332,-3.91881 -2.16341,-9.84991 -5.5603,-12.27435 -10.94091,-7.80884 -3.42651,2.84374 -4.82289,2.40537 -8.69671,-2.73028 -4.48601,-5.94721 -4.80967,-5.99026 -11.59867,-1.54194 l -6.98388,4.57602 0,-8.41546 0,-8.41546 -8.92056,5.5132 -8.92056,5.51322 -1.72029,-6.85419 c -1.29799,-5.17161 -2.82419,-6.39895 -6.2172,-4.9998 -10.6688,4.39945 -13.71119,4.45442 -13.71119,0.24773 0,-5.09292 -1.11575,-5.24795 -7.78641,-1.08207 -4.15619,2.59559 -6.00124,2.34235 -10.12508,-1.38967 -4.80486,-4.34833 -5.21677,-4.30157 -8.73126,0.99153 l -3.6885,5.55519 -7.34018,-5.7738 c -6.83419,-5.37577 -7.6688,-5.47637 -12.10742,-1.45949 -4.44845,4.0258 -5.05128,3.91331 -9.01496,-1.68253 -4.22428,-5.96372 -4.27083,-5.96778 -8.43847,-0.73151 -4.17116,5.24069 -4.21348,5.23761 -9.04919,-0.65816 -6.41783,-7.8247 -9.63624,-7.47353 -11.83611,1.29147 l -1.81084,7.21492 -7.70845,-9.18941 -7.70845,-9.18943 -5.46529,7.23979 c -7.3128,9.68717 -9.81436,9.12404 -10.79068,-2.42915 -25.32012,-20.33165 -38.18619,0.33952 -44.24665,-10.07595 2.22389,-19.8378 3.44662,-37.56898 6.99776,-51.47945 1.56195,-6.71482 13.95118,-73.70957 20.66484,-111.74504 3.57812,-20.27143 10.13897,-57.4191 14.57967,-82.55038 4.4407,-25.13128 9.47503,-47.93664 11.1874,-50.67858 2.82589,-4.52496 6.68951,-4.98533 41.8391,-4.98533 32.89787,0 39.08348,0.63931 41.10312,4.24822 1.94089,3.46817 3.42509,3.68751 8.08318,1.19457 6.93215,-3.70996 10.86226,-1.70181 10.86226,5.55024 0,5.43589 2.35248,5.60348 13.57145,0.96685 3.33826,-1.37965 4.77236,0.0896 6.13265,6.28295 1.87489,8.53632 6.00414,10.25155 11.53844,4.79289 2.67424,-2.6377 4.0934,-2.26508 7.15056,1.87749 3.2965,4.46687 4.88031,4.76589 11.66971,2.20318 7.36792,-2.78108 7.85555,-2.57078 7.85555,3.3878 0,7.22865 4.17517,8.00532 11.84694,2.20377 4.86186,-3.67664 5.38015,-3.51893 6.76397,2.05822 1.50354,6.05951 3.95736,6.59583 14.95542,3.26878 4.4391,-1.34287 5.92347,-0.72538 5.92347,2.46411 0,5.11966 1.08215,5.24894 8.07974,0.96522 4.43992,-2.718 5.76825,-2.60143 7.6312,0.66971 1.55526,2.73092 6.28219,3.90216 15.22513,3.77252 20.59492,3.93405 21.24538,5.30779 26.9823,4.42969 0,4.32005 7.26122,5.47553 13.48329,2.14558 5.20086,-2.78341 6.4937,-2.46091 9.74111,2.42993 4.73848,7.13653 9.98178,7.19586 13.74963,0.15559 2.82602,-5.28047 3.12709,-5.30971 8.12247,-0.78893 4.46264,4.03863 6.3651,4.24923 13.61193,1.50687 7.04182,-2.66479 8.90387,-2.53533 11.3471,0.78893 3.87132,5.26728 6.1563,5.0216 12.98798,-1.39644 l 5.71963,-5.37329 4.3832,6.68962 c 5.49746,8.39017 7.89704,8.41236 11.68077,0.10799 3.73434,-8.19601 5.79034,-8.16034 11.88382,0.20619 4.53993,6.23344 9.69988,30.52888 10.85928,51.13054 0.84205,14.96234 14.69038,98.26165 17.2881,103.98979 3.42756,7.55802 7.5345,33.26213 5.96715,37.34658 -0.73017,1.90275 -0.45258,5.53276 0.61688,8.06669 1.06944,2.53393 2.19045,10.53061 2.49115,17.77041 0.3007,7.23979 4.92598,37.44949 10.2784,67.13265 5.35245,29.68317 9.39312,56.75516 8.9793,60.16 -0.74849,6.15832 -0.78166,6.1508 -6.3632,-1.44497 z"
           style="fill:#c7ae72" />
        <path
           sodipodi:nodetypes="csssssssssscsssssssscssssscsssccssssssssssscssssscsscssssssssssssssssssssssssssssssssssssssssssssscsssssssssssssssssscssssscssssscsscssssssscsssssssssssscscsssssssssssscsssssssssscsssscssssssssscsssssssssssssssscsssscsssssssssssssscsssssssssssssssssssssscsssssssscssssssssssssssssscsssscsssssssscccsssssssssssssssssssssssssssssssssssssssssssccsssssssssssssssscsssssssssssssssssssscccssssssscssccsssccssssssscsssssscssscsscssssssssscsscccsscccsscssccssssssssscsssscssssssssssssssssssssssssssssssssssssssssssssssssssssssssssssssssssssssccccsscccscscssccsscsccccssscccc"
           inkscape:connector-curvature="0"
           id="path3072"
           d="m 477.82935,669.75268 c -1.96412,-5.11835 -9.19338,-5.99382 -13.54671,-1.64049 -2.10204,2.10204 -3.38267,0.66267 -4.68467,-5.2653 -2.04142,-9.29443 -9.64762,-11.01631 -17.45439,-3.9513 -5.78878,5.2388 -10.24563,2.7686 -10.24563,-5.67858 0,-5.04332 -1.37135,-6.42625 -6.37244,-6.42625 -4.98145,0 -6.76255,-1.7761 -8.15956,-8.13661 -1.29435,-5.89317 -2.98528,-7.79634 -6.13264,-6.90256 -11.25585,3.19639 -12.14638,3.0096 -13.02229,-2.73124 -0.95265,-6.24381 -6.86461,-7.68048 -13.70082,-3.32944 -3.00049,1.90973 -4.30086,1.10964 -5.414,-3.33112 -1.13291,-4.5195 -3.37114,-5.83878 -9.87245,-5.81909 -5.12656,0.0158 -8.40743,-1.30092 -8.40743,-3.37345 0,-4.98319 -6.67544,-6.70582 -12.95755,-3.34374 -4.70658,2.5189 -5.47102,2.17937 -5.47102,-2.42993 0,-6.50337 -6.90702,-7.07539 -15.21014,-1.25968 -5.51216,3.8609 -5.85109,3.76467 -5.85109,-1.66078 0,-5.08647 -1.05211,-5.58831 -9.00892,-4.29709 -6.49836,1.05453 -9.4221,0.38523 -10.49155,-2.40172 -1.18245,-3.08142 -2.6138,-3.2583 -7.06964,-0.87359 -4.04047,2.16238 -6.38326,2.19381 -8.46355,0.11346 -4.14845,-4.14845 -12.26622,-3.53618 -14.02922,1.05815 -1.31325,3.42226 -2.5095,3.34418 -9.18569,-0.59954 -6.14903,-3.63232 -8.66581,-3.91596 -12.65297,-1.42592 -4.03577,2.52037 -5.2766,2.32792 -6.56035,-1.01744 -1.10893,-2.88984 -3.74213,-3.70741 -8.79024,-2.72928 -4.48566,0.86917 -8.90969,-0.13189 -11.71614,-2.65129 -5.7744,-5.18356 -12.60316,-2.60382 -12.60316,4.76123 0,5.45204 -0.24009,5.39776 -5.45638,-1.23368 -6.66649,-8.47507 -13.94359,-8.88218 -19.40454,-1.08558 l -4.09826,5.85107 -0.0403,-7.82556 c -0.0221,-4.30407 -1.05896,-9.43324 -2.30397,-11.39812 -3.0948,-4.88426 -12.73932,-1.5028 -14.87113,5.21392 -1.19571,3.76737 -2.96461,4.7567 -6.05813,3.38825 -2.40312,-1.06304 -8.81191,-2.45785 -14.24176,-3.09958 -11.31191,-1.33689 -11.28062,-1.2825 -5.66675,-9.85034 3.19188,-4.87143 3.76695,-9.60871 2.38561,-19.65225 -1.26673,-9.21016 -0.9083,-13.23359 1.1789,-13.23359 2.00157,0 2.42408,-3.06451 1.27037,-9.21428 -1.50186,-8.00564 -1.04609,-9.21429 3.47465,-9.21429 2.8618,0 8.21953,2.3726 11.90607,5.27241 3.7536,2.9526 8.55798,4.56055 10.91917,3.65447 2.31901,-0.88989 6.01341,-0.12663 8.20979,1.69627 3.17447,2.63457 5.44767,2.65163 11.0848,0.0832 4.10498,-1.87037 7.43821,-2.1906 7.91494,-0.76041 0.45296,1.35887 2.42809,4.665 4.38919,7.34697 3.04725,4.16736 4.56444,4.42122 10.43567,1.7461 3.77852,-1.72162 6.87003,-4.47153 6.87003,-6.11096 0,-1.63941 2.24214,-0.21193 4.98253,3.17242 4.62438,5.71086 5.4919,5.88056 12.0687,2.36076 6.61474,-3.54008 7.42472,-3.36082 12.17513,2.69462 l 5.08896,6.48702 6.09304,-7.38538 c 5.39272,-6.53654 6.48361,-6.91477 9.49122,-3.29082 4.56518,5.50069 8.87565,5.15505 14.60042,-1.17074 6.33842,-7.00389 9.21429,-6.64153 9.21429,1.16095 0,8.93264 3.5055,10.19539 11.29459,4.06847 7.77845,-6.11852 9.76663,-6.48636 9.76663,-1.80697 0,6.24573 5.63981,9.72565 11.06045,6.8246 3.66595,-1.96196 4.48634,-4.19769 3.09438,-8.43289 -2.88547,-8.7794 -1.7733,-15.09679 3.73971,-21.24261 4.13726,-4.61215 4.73285,-8.09699 3.42869,-20.06135 -1.4182,-13.01054 -2.1645,-14.39853 -7.35588,-13.68066 -9.6331,1.33207 -26.86049,-4.58934 -29.9056,-10.27917 -2.22108,-4.15012 -1.87582,-6.86139 1.53698,-12.06999 3.89035,-5.93743 5.7465,-6.56596 15.98303,-5.41216 14.16299,1.59638 14.66486,-0.97683 3.12016,-15.99781 -8.91302,-11.59687 -12.59987,-13.6437 -12.59987,-6.99505 0,5.99539 -12.9111,10.10918 -20.65454,6.58104 -6.49402,-2.95888 -6.7196,-5.8972 -2.5175,-32.79242 0.5205,-3.33138 -1.76171,-6.50902 -6.61775,-9.21428 -7.14591,-3.98093 -7.62242,-3.86917 -13.26216,3.1105 -3.28663,4.06749 -8.47795,7.2398 -11.84757,7.2398 -15.45635,0 -20.89088,-11.73228 -11.16306,-24.09921 4.97325,-6.32246 4.96386,-6.43383 -1.02922,-12.20197 -3.32656,-3.2017 -7.43873,-5.82127 -9.13816,-5.82127 -1.69943,0 -8.93679,-2.51528 -16.08302,-5.58951 -11.17627,-4.8079 -12.99315,-6.62769 -12.99315,-13.01398 0,-8.30656 8.68813,-16.16278 15.13741,-13.68796 3.43039,1.31636 3.72581,-0.68713 2.06734,-14.02003 -2.40872,-19.36428 -2.73727,-19.87039 -10.8877,-16.7716 -3.6629,1.39263 -6.96986,2.53205 -7.3488,2.53205 -0.37894,0 -0.16736,-3.55408 0.47019,-7.89795 0.97599,-6.64988 0.2799,-7.89796 -4.40494,-7.89796 -5.79197,0 -6.66191,-1.97386 -3.96612,-8.99897 2.26083,-5.89163 7.7427,-5.16373 13.34869,1.77246 6.88464,8.51826 19.79253,16.37875 25.42703,15.48425 5.52289,-0.87678 14.912,6.61284 14.912,11.89518 0,2.03362 2.83688,3.54095 6.66426,3.54095 3.66534,0 7.36964,1.83818 8.23176,4.08485 1.11033,2.89346 3.63635,3.63045 8.66089,2.52687 5.72645,-1.25774 7.64371,-0.35013 9.94918,4.70983 2.30095,5.05003 4.38787,6.04294 10.74126,5.11046 6.26289,-0.9192 8.24635,-0.0203 9.63932,4.36859 0.96463,3.03927 2.78881,5.52594 4.05374,5.52594 3.75899,0 6.43314,-6.18502 3.14765,-7.28018 -4.51135,-1.50378 -53.51798,-40.89057 -60.8888,-48.93653 l -6.38238,-6.96697 14.9385,0 c 12.05624,0 14.9385,0.82839 14.9385,4.29344 0,3.41517 1.83697,3.99535 8.97997,2.8362 7.87455,-1.27787 9.17703,-0.67212 10.58077,4.92084 1.73578,6.91588 4.47194,7.79098 11.91133,3.80954 3.95838,-2.11846 5.368,-1.1958 8.04428,5.26531 3.47347,8.38569 7.4662,9.81865 12.71981,4.56504 3.20715,-3.20714 6.33606,-0.80358 9.06481,6.96338 0.45955,1.30804 4.03289,0.28327 7.94076,-2.27727 7.09399,-4.64816 7.10521,-4.64464 7.10521,2.2289 0,7.54022 1.61032,8.14372 11.59776,4.3465 5.21947,-1.98444 7.18846,-1.62079 9.02871,1.66753 1.64235,2.93474 4.84774,3.83935 10.60841,2.99387 5.71246,-0.83842 8.25492,-0.13574 8.25492,2.28145 0,4.04159 4.87093,4.49436 10.44231,0.97066 2.44308,-1.54516 5.09087,-1.42079 7.21094,0.33871 1.92166,1.59484 7.29164,2.04106 12.5934,1.04644 5.78002,-1.08434 9.24314,-0.70295 9.24314,1.01792 0,1.51357 1.48087,2.74136 3.29082,2.72842 3.88048,-0.0278 31.03121,-20.7584 49.653,-37.912 18.30899,-16.86545 25.71591,-15.97034 8.92353,1.07839 -7.13093,7.23979 -14.16949,12.45019 -15.10716,13.16326 -21.58535,16.41498 -28.33161,19.49766 -28.33161,22.61715 0,6.5708 7.64301,9.936 14.97708,6.59438 6.74207,-3.07188 11.17603,-0.8484 11.30914,5.67113 0.0895,4.38666 10.53988,1.59253 14.34106,-3.83441 3.99245,-5.70001 4.13861,-5.71332 7.79742,-0.7096 3.57264,4.8859 4.11881,4.91327 13.05046,0.65407 8.97874,-4.28166 9.38198,-4.25555 10.95786,0.70959 2.09325,6.59527 6.05992,6.52983 13.24314,-0.21846 l 5.71963,-5.37329 4.52845,6.91128 c 4.337,6.61914 4.7423,6.71774 9.58781,2.33262 2.78266,-2.51827 5.06527,-6.46828 5.07246,-8.77779 0.0211,-6.91254 12.94805,10.75381 13.05551,17.84263 0.0806,5.31831 -0.50507,5.74807 -3.94406,2.89398 -3.27233,-2.7158 -5.24553,-2.70598 -10.39845,0.0518 -5.14973,2.75605 -7.88798,2.7706 -14.39221,0.0765 -6.39601,-2.64932 -8.83387,-2.6621 -11.96594,-0.0627 -3.17419,2.63434 -5.26865,2.38957 -10.85095,-1.2681 -5.80161,-3.80136 -7.91273,-3.99993 -13.08671,-1.2309 -4.95944,2.65422 -6.96063,2.64476 -10.20551,-0.0482 -3.26701,-2.7114 -5.5779,-2.71133 -12.1245,3.6e-4 -7.22139,2.99119 -8.67124,2.76717 -13.52878,-2.09038 -4.52047,-4.52045 -6.50879,-4.95392 -11.75637,-2.56296 -4.99717,2.27687 -7.17064,2.02275 -10.41057,-1.21719 -5.30774,-5.30775 -18.30639,-1.75258 -35.75043,9.77782 -11.36663,7.51329 -12.02301,8.5087 -7.89795,11.97754 2.47443,2.08079 8.64536,3.95965 13.71322,4.17526 5.06786,0.21562 17.50714,1.17797 27.64286,2.13858 10.13571,0.96061 23.06162,1.68571 28.72422,1.61134 5.6626,-0.0744 11.58607,0.83608 13.16326,2.02323 3.39062,2.55212 26.93331,2.23853 29.56567,-0.39383 1.00231,-1.00231 5.24891,-1.82237 9.43691,-1.82237 4.23409,0 6.9159,-1.13048 6.04078,-2.54642 -0.86557,-1.40053 -5.37809,-1.90592 -10.02781,-1.12309 l -8.45405,1.42332 6.21511,-5.45854 c 7.5003,-6.58724 12.39159,-6.95665 14.6369,-1.10545 1.52043,3.96221 1.98433,3.92381 5.16626,-0.42775 1.97447,-2.70025 5.24048,-4.11136 7.50472,-3.24249 2.20488,0.84609 5.22819,0.31905 6.71843,-1.17121 1.85765,-1.85765 3.64312,-0.96524 5.67874,2.83838 2.74032,5.12035 2.30067,5.54795 -5.70446,5.54795 -6.01788,0 -9.75343,1.72904 -12.20024,5.647 -3.19686,5.11897 -3.07144,5.44795 1.3412,3.51819 2.6773,-1.17085 7.82956,-1.91602 11.44946,-1.65594 3.6199,0.26008 9.83954,0.62397 13.82143,0.80863 9.25183,0.42906 9.49232,6.55759 0.7621,19.4223 l -6.47772,9.54543 -1.67855,-6.68788 c -0.9232,-3.67834 -3.47268,-8.17689 -5.66553,-9.99678 -3.32699,-2.76116 -5.23913,-1.90746 -11.55153,5.15732 -8.97726,10.04733 -10.25852,10.36326 -10.31173,2.54275 -0.095,-13.97237 -11.33789,-16.58501 -14.64624,-3.40355 -2.02532,8.06958 -4.67425,8.39479 -11.63998,1.42906 -6.59064,-6.59065 -7.49364,-6.56296 -14.96808,0.45891 -5.88893,5.53236 -6.09315,5.55 -6.09315,0.52653 0,-5.26233 -4.57076,-11.51606 -8.41693,-11.51606 -1.15421,0 -3.75517,3.85026 -5.77989,8.55613 l -3.68131,8.55612 -3.16543,-8.55612 c -3.26536,-8.82635 -6.4024,-10.26479 -13.1208,-6.01634 -2.66453,1.68494 -5.3749,1.11428 -8.60906,-1.81259 -4.3761,-3.96031 -5.29216,-3.84889 -12.56524,1.52833 l -7.84501,5.80006 0,-6.66044 c 0,-5.66749 -1.19531,-6.66045 -8.01762,-6.66045 -5.05516,0 -10.46463,-2.44701 -14.64021,-6.62257 -4.87791,-4.87791 -5.99079,-5.3555 -9.16687,-3.57806 -3.71275,2.07775 -3.05033,2.03339 5.54815,10.63187 9.28021,9.28022 8.01254,11.366 3.64431,14.56012 -2.58534,1.89047 -7.47763,3.43721 -10.87172,3.43721 -5.13165,0 -8.39465,-1.05245 -6.28116,-5.00154 1.55311,-2.90202 1.226,-6.22965 -0.24586,-8.55612 -1.32475,-2.09392 0.60365,-8.54785 0.58149,-14.65073 -0.0319,-8.73161 1.18282,-11.75075 5.69945,-14.16798 5.52789,-2.95844 5.5593,-3.2038 0.85035,-6.64706 -2.68917,-1.96637 -4.09464,-4.37 -3.12325,-5.34139 0.9714,-0.97139 3.87037,0.13811 6.44218,2.46558 4.31158,3.9019 5.33881,3.8121 13.17941,-1.15223 9.10408,-5.76429 11.06233,-8.31626 4.42794,-5.7704 -2.32545,0.89235 -5.54432,-0.44486 -7.49611,-3.1141 -2.38311,-3.25909 -3.98892,-3.75851 -5.29419,-1.64652 -2.6871,4.3478 -11.98652,3.74068 -13.76685,-0.89878 -1.02392,-2.66825 -3.5444,-3.41919 -7.84952,-2.33867 -3.48774,0.87537 -8.04615,0.1767 -10.12982,-1.55256 -2.08364,-1.72928 -6.21469,-2.37409 -9.18009,-1.4329 -6.2078,1.97027 -7.34332,9.25438 -1.44267,9.25438 2.17194,0 3.94898,1.18469 3.94898,2.63265 0,1.44796 -2.82356,2.63266 -6.27458,2.63266 -6.64532,0 -11.50093,-9.31676 -5.95104,-11.41861 4.4356,-1.67985 -6.37726,-9.45859 -13.28737,-9.55889 -3.17246,-0.046 -6.50028,-1.26842 -7.39517,-2.71638 -0.89489,-1.44796 -4.45171,-2.63266 -7.90405,-2.63266 -3.45234,0 -7.99569,-2.45381 -10.09634,-5.45291 -2.83437,-4.04661 -6.08077,-5.23478 -12.58799,-4.60714 l -8.76862,0.84577 18.36217,13.51078 c 27.00023,19.86661 53.78591,35.5764 57.13242,33.50815 2.00576,-1.23964 2.26347,-0.22098 0.81659,3.22777 -1.16273,2.77146 -3.3407,10.07396 -4.83991,16.22779 -3.00878,12.35013 -8.64629,12.47039 -12.89345,4.53451 -2.02649,-3.78654 -2.98632,-7.34319 -0.83097,-11.3705 3.78219,-7.06708 2.8229,-9.26308 -4.26715,-4.83526 -3.57029,2.22968 -5.54397,2.21631 -7.81321,-0.0529 -2.29318,-2.29318 -4.28114,-2.27705 -8.12329,0.0659 -4.3469,2.65077 -5.86002,2.05134 -10.3993,-4.11975 -4.36843,-5.93882 -6.21539,-6.73852 -10.39587,-4.5012 -4.25008,2.27457 -5.50056,1.62412 -7.62626,-3.96689 -2.77525,-7.29945 -5.30621,-8.26655 -9.82033,-3.75242 -2.15843,2.15843 -4.12951,0.62551 -7.44853,-5.79277 l -4.51339,-8.72792 -6.16064,7.16217 c -5.18641,6.02957 -5.70234,8.16803 -3.26252,13.52284 3.80479,8.35061 1.3837,13.98384 -7.59904,17.68092 -5.51695,2.27065 -6.22179,3.26744 -2.87685,4.06847 2.43672,0.58354 8.00518,-0.78762 12.37436,-3.047 9.46322,-4.89363 21.71732,-5.33897 26.10748,-0.94881 4.82492,4.82492 3.77047,14.49477 -2.18567,20.04376 -4.91067,4.57499 -4.99453,5.27023 -1.03234,8.55856 3.74705,3.10977 4.99448,2.64289 9.51341,-3.5606 5.61699,-7.71088 17.849,-9.80709 22.45928,-3.84887 5.80049,7.49643 5.62557,12.54176 -0.69528,20.05366 -3.5594,4.23011 -6.47165,8.58193 -6.47165,9.67071 0,1.08878 5.33112,7.679 11.84694,14.64493 6.51582,6.96594 11.84694,14.49313 11.84694,16.7271 0,2.56199 2.39602,4.06177 6.489,4.06177 3.56896,0 7.59856,2.07321 8.95468,4.60714 2.70477,5.05391 1.41376,5.33129 -29.26511,6.28765 -16.6879,0.52021 -20.65776,5.5654 -8.12773,10.32931 7.37067,2.80232 33.55175,-1.03774 39.41212,-5.7807 1.94471,-1.57391 3.54868,-0.94133 4.60715,1.81697 2.26982,5.91509 2.49317,5.61535 -6.52791,8.76012 -8.0895,2.82001 -8.13742,2.94746 -6.28395,16.71162 1.02724,7.62846 2.28632,14.32377 2.79795,14.87845 0.51162,0.5547 5.15766,-2.70321 10.32454,-7.2398 5.16687,-4.53657 10.59163,-8.24831 12.05502,-8.24831 4.04947,0 15.58465,12.41101 15.58465,16.76795 0,2.8916 4.40287,4.09232 17.77041,4.84626 16.57494,0.93483 18.32442,0.49334 26.00603,-6.56281 5.90159,-5.42105 10.36096,-7.32018 15.73492,-6.70107 9.29971,1.07137 15.24309,11.1135 11.12806,18.80246 -3.71341,6.93859 1.02037,9.61303 17.10548,9.66405 l 12.71427,0.0403 -1.71857,-7.82457 c -1.3693,-6.23435 -0.36604,-9.17708 4.93646,-14.47959 3.66028,-3.66028 8.04987,-6.65503 9.75467,-6.65503 1.7048,0 7.28255,4.4426 12.39503,9.87245 5.11245,5.42985 13.88569,11.24143 19.49606,12.91459 9.5113,2.83655 10.09306,2.70313 8.60846,-1.97449 -1.38778,-4.37245 -0.21725,-5.0166 9.11579,-5.0166 10.14714,0 13.84636,-3.01497 8.07538,-6.58164 -5.59031,-3.45501 -2.17555,-6.3122 8.47167,-7.08842 10.00655,-0.72951 11.34552,-1.65539 13.5441,-9.36566 5.31662,-18.64489 14.8226,-6.83721 16.06426,19.95393 0.44766,9.65876 1.71955,19.77131 2.82642,22.47233 1.71441,4.18355 1.13512,4.6325 -3.91096,3.03092 -6.11289,-1.94016 -6.18426,-0.49912 -0.69726,14.07585 1.07067,2.844 -0.91735,3.20589 -9.57557,1.74308 -9.60726,-1.62314 -10.92674,-1.24588 -10.92674,3.12412 0,2.73361 1.13388,6.10407 2.51971,7.48989 1.60452,1.60453 -0.54696,2.51292 -5.92347,2.50102 -7.45104,-0.0158 -8.39148,0.78425 -8.00324,6.81431 0.3791,5.88814 -0.43999,6.6648 -5.92347,5.61658 -5.76206,-1.1015 -6.36341,-0.334 -6.36341,8.12163 0,7.67958 -1.05206,9.4875 -5.92347,10.17937 -4.76176,0.67627 -5.91847,2.51929 -5.89801,9.39738 0.0237,7.67216 -0.75544,8.55612 -7.53279,8.55612 -7.18119,0 -7.47383,0.45 -5.86602,9.02032 1.49877,7.98915 1.00559,9.11774 -4.31416,9.87245 -4.6311,0.65703 -6.19526,2.81122 -6.83134,9.40826 -0.61935,6.42372 -2.09561,8.55612 -5.92347,8.55612 -3.58209,0 -5.0985,1.8219 -5.0985,6.12568 0,5.35727 -1.02728,5.97489 -8.18963,4.9237 -5.15618,-0.75679 -9.00425,0.1161 -10.38897,2.35667 -1.75885,2.84587 -2.54781,2.65063 -3.93898,-0.97474 z m 17.91044,-17.18849 c 2.53393,-2.17626 4.60714,-5.34376 4.60714,-7.03887 0,-1.69514 2.96174,-5.86445 6.58164,-9.26518 3.93523,-3.69695 6.58163,-9.10295 6.58163,-13.44477 0,-4.94949 1.6765,-7.79373 5.26531,-8.93278 3.31019,-1.05061 5.2653,-3.98328 5.2653,-7.89796 0,-3.93215 1.95683,-6.8479 5.31004,-7.91215 2.9205,-0.92693 7.01344,-5.76219 9.09542,-10.74504 2.08195,-4.98282 5.61589,-9.76211 7.85323,-10.62067 2.23731,-0.85854 4.06784,-2.99762 4.06784,-4.75352 0,-1.75593 2.96174,-5.76775 6.58163,-8.91522 3.6199,-3.14747 6.58164,-6.89263 6.58164,-8.32255 0,-1.42995 3.03239,-3.36101 6.73864,-4.29123 4.31979,-1.08418 6.23331,-3.0082 5.33083,-5.36005 -0.77431,-2.01783 1.02195,-8.33043 3.99169,-14.02799 2.96971,-5.69756 5.01346,-12.76055 4.54161,-15.69554 -0.768,-4.77723 -2.04215,-4.23883 -12.16107,5.1385 -6.21674,5.76116 -12.78374,10.47485 -14.59332,10.47485 -1.80958,0 -4.42367,3.85025 -5.80905,8.55612 -1.7345,5.89164 -4.36355,8.8181 -8.44239,9.39739 -4.35612,0.61867 -5.92347,2.59953 -5.92347,7.48626 0,4.46156 -1.75435,7.10377 -5.33913,8.04121 -3.83243,1.00219 -4.89071,2.80909 -3.75011,6.40279 1.23061,3.87729 -0.2372,5.64323 -6.50781,7.82914 -6.12392,2.13482 -8.09683,4.4236 -8.09683,9.39313 0,4.43741 -1.77499,7.03473 -5.46728,8.00029 -3.00702,0.78637 -6.53177,4.22954 -7.83281,7.65149 -2.78326,7.32054 -12.87867,8.32639 -24.21522,2.41269 -6.09269,-3.17824 -7.23979,-3.20028 -7.23979,-0.13927 0,5.85587 -3.79123,6.58911 -12.01333,2.32345 -4.66603,-2.42077 -10.88462,-3.38806 -15.82422,-2.4614 -5.97736,1.12138 -9.3203,0.21957 -12.59366,-3.39751 -2.82465,-3.1212 -6.75655,-4.48441 -10.73867,-3.72318 -4.46853,0.85422 -7.13654,-0.395 -9.24074,-4.32669 -1.94567,-3.6354 -5.53368,-5.52754 -10.48197,-5.52754 -4.49425,0 -8.17999,-1.71033 -9.15365,-4.24766 -1.03837,-2.70592 -3.542,-3.74766 -6.89776,-2.87012 -3.46884,0.90711 -6.18669,-0.33945 -7.95859,-3.6503 -1.70844,-3.19222 -5.50664,-5.02784 -10.40354,-5.02784 -4.83552,0 -8.69413,-1.83383 -10.34358,-4.91585 -2.01321,-3.76169 -6.96543,-5.34294 -21.09331,-6.73506 -10.15435,-1.0006 -19.19481,-3.00425 -20.08994,-4.45258 -0.91343,-1.47797 -5.11974,-1.86632 -9.58706,-0.88513 -4.70604,1.03361 -10.48554,0.39635 -14.13922,-1.55903 -4.97242,-2.66116 -6.96863,-2.65245 -10.21837,0.0445 -3.13814,2.60444 -4.88177,2.65217 -7.81942,0.21404 -2.75244,-2.28433 -5.21142,-2.372 -9.04121,-0.32234 -7.76965,4.15819 -15.53381,3.42616 -18.42326,-1.73703 -2.39325,-4.27648 -2.87975,-4.25176 -8.02878,0.40804 -5.13073,4.64323 -5.79157,4.67946 -10.33645,0.56639 -4.42621,-4.00566 -5.70585,-4.0386 -14.4796,-0.37271 -11.79678,4.92904 -12.71057,9.70157 -1.42537,7.44454 7.47878,-1.49577 8.04128,-1.14313 6.40422,4.01479 -2.19673,6.9213 1.53014,7.30812 11.8242,1.22727 7.27558,-4.29778 7.64666,-4.24002 12.68468,1.97449 6.14779,7.58343 5.50306,9.2374 -2.0294,5.20615 -6.8922,-3.68861 -16.55311,0.6957 -14.32537,6.5011 1.79615,4.6807 4.68489,4.90597 12.09006,0.94286 4.53888,-2.42913 6.18718,-2.08364 9.10653,1.9088 2.88535,3.94595 4.48656,4.29899 8.40353,1.85281 3.83599,-2.39561 5.73281,-2.12821 9.15117,1.29016 3.99445,3.99444 4.92399,3.95074 12.61623,-0.59316 8.10544,-4.78801 8.39031,-4.78738 11.91006,0.0263 3.09757,4.23618 4.37471,4.45142 9.05818,1.52655 4.60675,-2.87697 6.21611,-2.71361 10.37874,1.05351 3.05328,2.76318 7.15971,3.8745 10.79959,2.92264 3.23018,-0.84472 7.40925,-0.2609 9.28683,1.29737 1.87758,1.55824 5.73443,2.22633 8.57076,1.4846 2.83634,-0.74172 7.28525,0.26548 9.88647,2.23821 2.60123,1.97272 7.32514,3.62445 10.4976,3.67052 3.17244,0.0461 6.50028,1.26841 7.39517,2.71637 0.89489,1.44796 4.53048,2.63265 8.07908,2.63265 3.54863,0 8.48078,2.36939 10.96034,5.26531 2.74881,3.21036 7.76617,5.26531 12.85583,5.26531 4.99143,0 8.95678,1.58767 9.86292,3.94898 0.83344,2.17193 3.97849,3.94898 6.98898,3.94898 3.01052,0 8.08264,2.75383 11.27141,6.11962 3.18878,3.3658 7.98344,6.92588 10.65485,7.91126 2.67141,0.98537 5.47513,4.15501 6.23052,7.04364 1.484,5.67481 4.73553,6.83502 7.34097,2.61935 2.85903,-4.62602 14.1578,-2.88775 17.11224,2.63266 1.61913,3.02539 5.5123,5.2653 9.15155,5.2653 3.4835,0 7.03382,1.13296 7.88964,2.51769 1.84762,2.98951 8.79019,0.87043 15.20881,-4.64221 z m -28.6653,-14.98772 c -0.93923,-2.44758 -4.94678,-3.94898 -10.54062,-3.94898 -8.25099,0 -8.78013,-0.45803 -6.16788,-5.33905 1.72349,-3.22039 4.11081,-4.55233 6.01608,-3.35652 1.73732,1.09039 5.08611,1.66615 7.44178,1.27949 2.35567,-0.38668 5.10584,1.41995 6.11149,4.01469 1.74082,4.49157 2.00287,4.48078 5.46713,-0.22535 3.53744,-4.80554 3.88016,-4.78211 12.31707,0.84192 l 8.67841,5.78502 -8.60609,-1.05146 c -5.11953,-0.62549 -9.78299,0.36663 -11.51114,2.4489 -3.82227,4.60556 -7.33241,4.43449 -9.20623,-0.44863 z M 343.80444,583.76946 c -1.33922,-2.16688 -5.08978,-2.69194 -11.13203,-1.5584 -5.47976,1.028 -10.56107,0.50716 -12.74645,-1.30656 -1.99875,-1.6588 -5.00314,-2.16991 -6.67641,-1.13575 -3.18465,1.9682 -7.60953,-3.0261 -7.67863,-8.66677 -0.0222,-1.80995 1.14438,-3.29082 2.59234,-3.29082 1.44796,0 2.63265,1.90378 2.63265,4.23065 0,2.82578 1.42239,3.68482 4.28347,2.58692 2.50269,-0.96036 5.59917,0.15559 7.44821,2.68431 2.73519,3.7406 4.02978,3.85049 9.53796,0.80972 3.50527,-1.93507 8.02411,-3.17879 10.04188,-2.76381 2.01776,0.41499 4.38715,-0.34143 5.2653,-1.68089 0.88533,-1.35042 5.11524,-0.17876 9.49461,2.62975 6.40938,4.1105 6.74507,4.73451 1.78115,3.3108 -4.26411,-1.223 -7.13262,-0.36517 -9.47059,2.83218 -2.52388,3.45162 -3.85356,3.77794 -5.37346,1.31867 z m 146.1045,10.5413 c -1.4989,-2.80072 -2.72527,-7.56993 -2.72527,-10.59821 0,-5.27026 0.33814,-5.33113 7.89796,-1.4218 l 7.89796,4.0842 0,-8.87386 c 0,-5.53041 -1.98384,-10.66922 -5.26531,-13.63891 -3.2221,-2.91598 -5.26531,-8.10849 -5.26531,-13.38106 l 0,-8.61604 -13.83482,1.42787 c -7.60916,0.78532 -18.51511,0.13558 -24.23542,-1.44385 -11.45667,-3.16335 -14.46903,-1.21303 -14.54251,9.41536 -0.0703,10.18379 -19.4909,15.6174 -26.33675,7.36867 -3.19735,-3.85257 -2.65068,-16.93739 1.06257,-25.43317 1.57009,-3.59231 -0.37415,-4.64776 -11.33976,-6.15593 -16.98946,-2.33664 -26.6683,-0.10557 -42.6558,9.83285 -13.01458,8.09033 -16.73824,13.39231 -8.40172,11.96296 2.78427,-0.4774 4.89808,1.2424 5.52084,4.49173 1.57219,8.20308 5.04787,10.45282 9.91209,6.41588 3.81988,-3.17024 5.08455,-2.73451 10.0168,3.45109 4.05739,5.08847 7.23021,6.66485 11.28181,5.60534 4.15567,-1.08673 6.09612,-0.0274 7.38444,4.03191 1.87292,5.90104 5.33267,7.14765 7.97436,2.87333 2.86882,-4.64187 5.85533,-2.84392 9.36982,5.6408 l 3.42698,8.27348 5.79857,-7.27212 5.79861,-7.2721 3.13283,9.49258 c 4.1827,12.67373 6.82241,13.75562 14.18328,5.81311 l 6.19253,-6.68185 3.14028,6.89215 3.14028,6.89215 5.98626,-5.62379 c 6.92877,-6.50926 12.22852,-7.29182 12.22852,-1.80563 0,4.03972 6.92229,9.13075 12.59771,9.26504 2.53185,0.06 2.6975,-1.20165 0.65817,-5.01218 z M 208.76679,574.3928 c -0.95989,-5.02134 -2.90173,-6.59119 -8.19105,-6.62194 -6.44579,-0.0374 -18.19528,-5.09571 -12.04321,-5.1847 1.5332,-0.0211 4.93179,-1.60815 7.55243,-3.52441 4.16613,-3.04635 4.31517,-4.20403 1.18623,-9.21429 -4.32008,-6.91753 -6.91411,-7.14644 -13.495,-1.1908 -4.76641,4.31353 -5.23512,4.26803 -9.42158,-0.91448 -2.94096,-3.64066 -7.03136,-5.27741 -12.3036,-4.92319 -7.8526,0.52759 -7.89296,0.6122 -7.02828,14.73588 1.06997,17.47669 3.18922,19.92858 12.15005,14.05724 6.73704,-4.41428 7.28127,-4.38 14.43602,0.90974 4.33398,3.20425 9.64278,4.91964 12.72825,4.11278 2.91126,-0.76131 6.08916,-0.0964 7.06201,1.47779 3.50098,5.6647 8.66343,3.05843 7.36773,-3.71962 z m 302.11076,-26.27325 c 0,-11.31488 -7.33128,-30.3288 -11.69401,-30.3288 -6.0169,0 -6.36734,3.1093 -1.28911,11.43756 2.78601,4.56903 5.06991,12.74994 5.07531,18.17979 0.008,7.01605 1.15242,9.87245 3.95883,9.87245 2.75365,0 3.94898,-2.773 3.94898,-9.161 z m -171.12245,1.10766 c 0,-1.3625 -1.1847,-2.47727 -2.63266,-2.47727 -1.44796,0 -2.63265,1.84696 -2.63265,4.10436 0,2.25739 1.18469,3.37216 2.63265,2.47727 1.44796,-0.89489 2.63266,-2.74186 2.63266,-4.10436 z m 90.71093,-4.27032 c 0.98121,-3.90946 5.24961,-11.48379 9.48537,-16.83184 6.53669,-8.25326 7.13088,-10.19716 3.92907,-12.85443 -6.92785,-5.74961 -25.53978,25.05999 -21.49932,35.58928 2.12874,5.5474 5.90257,2.79201 8.08488,-5.90301 z m 96.20743,0.47672 c 0,-5.06786 -1.18469,-9.21428 -2.63265,-9.21428 -1.44796,0 -2.63265,4.14642 -2.63265,9.21428 0,5.06786 1.18469,9.21429 2.63265,9.21429 1.44796,0 2.63265,-4.14643 2.63265,-9.21429 z M 348.50553,533.76303 c 8.78361,-3.33952 25.47406,-18.29538 25.47406,-22.82663 0,-6.05054 -6.79338,-4.18793 -15.96141,4.37629 -4.74117,4.42891 -11.97462,8.72343 -16.07435,9.54337 -5.00323,1.00064 -7.45404,3.11379 -7.45404,6.42704 0,5.45404 4.22633,6.20185 14.01574,2.47993 z m -49.52751,-109.0229 c 1.9091,-5.56713 5.94148,-12.75165 8.96082,-15.9656 6.64802,-7.0765 7.33513,-15.46794 1.16708,-14.25335 -7.5254,1.48188 -19.69231,19.25446 -21.2788,31.08259 -1.28581,9.5865 -0.86186,10.98142 3.09495,10.18326 2.55466,-0.51532 6.12186,-5.40693 8.05595,-11.0469 z M 257.07666,396.3065 c 2.75834,-3.10613 10.05012,-7.90034 16.20395,-10.6538 10.57564,-4.73196 14.1986,-10.48695 8.72968,-13.86693 -3.90703,-2.41468 -31.76931,11.9309 -36.14609,18.6107 -7.24214,11.05291 2.21755,16.03907 11.21246,5.91003 z m -4.76811,-36.06756 c 6.95016,-4.40999 0.59135,-10.46257 -10.81082,-10.2902 -6.05069,0.0915 -14.93582,-1.86833 -19.74473,-4.35512 -6.87897,-3.55725 -9.55218,-3.85027 -12.53581,-1.37408 -5.49779,4.56276 -0.38876,9.58304 14.38105,14.13124 13.99803,4.31053 23.86949,4.95974 28.71031,1.88816 z m 69.01797,-13.41527 c 0,-3.10616 -5.1346,-6.42893 -7.02041,-4.54312 -1.8858,1.8858 1.43697,7.0204 4.54313,7.0204 1.36251,0 2.47728,-1.11477 2.47728,-2.47728 z m -64.74108,-9.36965 c -0.82117,-2.89592 -2.07121,-7.33853 -2.77787,-9.87245 -1.69945,-6.09382 -6.57776,-5.81863 -15.05458,0.84924 -3.81517,3.00101 -6.93667,5.0664 -6.93667,4.58976 0,-0.47664 1.07865,-4.62765 2.397,-9.22446 1.72921,-6.02943 1.41488,-9.69175 -1.1283,-13.14589 -3.38344,-4.59536 -3.59907,-4.59772 -5.35825,-0.0586 -2.56295,6.61301 0.24523,28.43545 3.95414,30.72768 1.68884,1.04376 8.31918,1.78576 14.73409,1.64888 10.35453,-0.22093 11.49591,-0.83976 10.17044,-5.51416 z m 25.25129,-39.4898 c 0,-2.17194 -1.77704,-3.94898 -3.94898,-3.94898 -4.11108,0 -5.2231,3.11364 -2.19388,6.14286 3.02922,3.02922 6.14286,1.9172 6.14286,-2.19388 z m 206.93685,175.51412 c -0.74441,-1.20448 5.57196,-3.47788 14.03636,-5.052 22.95481,-4.26889 44.39203,-15.52193 60.0625,-31.5286 7.60179,-7.76488 13.82143,-12.49105 13.82143,-10.5026 0,7.13819 -15.76298,27.03359 -26.95628,34.0231 -17.91813,11.18875 -56.95245,19.55093 -60.96401,13.0601 z m -258.61963,-4.37195 c -19.0554,-4.14431 -29.10769,-8.99449 -41.87535,-20.20465 -8.02223,-7.0436 -17.0133,-19.89294 -17.0133,-24.31407 0,-0.72694 5.76864,4.44694 12.8192,11.4975 14.49908,14.49908 32.78398,24.65052 54.66772,30.35051 26.62739,6.93555 20.19621,8.93314 -8.59827,2.67071 z m 125.13628,-17.42951 -11.60266,-25.27581 8.51857,-9.65878 12.55916,-6.75461 2.02298,17.90146 c 0.9269,8.20218 9.65647,31.44848 5.1044,38.5964 l -4.49473,7.05788 z m 16.54504,2.99229 c -0.84888,-8.41461 -1.62025,-22.69062 -0.73651,-31.95783 l 0.0493,-18.8051 17.38378,-3.89782 c 7.96612,-1.78617 15.06863,-1.41751 15.6342,-0.8553 0.86159,0.85643 -24.26088,68.27847 -26.31795,70.75325 -0.37473,0.45083 -5.16392,-6.82259 -6.01279,-15.2372 z m -39.98405,-66.22895 0.89708,-13.64298 8.68831,8.08265 c 3.63416,3.38082 10.05219,8.81324 14.03408,11.24947 3.98189,2.43623 5.34576,6.97713 5.34576,9.0106 -9e-5,3.63968 -11.94165,14.60998 -15.90357,14.60998 -1.11658,0 -7.20155,-5.54217 -9.5096,-12.31592 -3.02143,-6.6275 -3.35169,-11.27242 -3.55206,-16.9938 z m 30.51768,3.24425 c -3.88124,-4.28874 -7.89206,-7.33939 -5.34589,-16.79518 3.91589,-14.54249 11.60932,-26.11241 14.48699,-26.11241 1.28116,0 1.96111,7.13892 1.04803,12.00604 -0.91308,4.86712 -0.40985,13.37746 1.11827,18.91188 1.98187,7.17776 1.95383,11.05615 -0.0979,13.52825 -3.86029,4.65134 -5.8556,4.37747 -11.20957,-1.53858 z"
           style="fill:#171513" />
      </g>
      <path
         inkscape:connector-curvature="0"
         id="path2998"
         d=""
         style="fill:#000000" />
      <path
         sodipodi:nodetypes="cssssscsscscssssssssssssssssssssssssssssccsssccccscscsccccssscssccsssscsscssssssssss"
         inkscape:connector-curvature="0"
         id="path3090"
         d="m 400.97411,500.02746 c -5.32824,-3.9633 -11.79451,-5.42096 -15.5144,-3.49734 -2.141,1.10716 -2.18982,0.9797 -0.51192,-1.33657 0.83512,-1.15285 1.5184,-2.66174 1.5184,-3.35309 0,-1.68472 -4.46106,-10.59671 -5.75969,-11.5063 -0.56709,-0.39721 -1.92232,-0.72219 -3.01162,-0.72219 l -1.98056,0 2.34548,-1.79091 c 1.29001,-0.98499 2.34547,-1.96728 2.34547,-2.18287 0,-0.70971 -1.64884,-5.35789 -2.11034,-5.9492 -0.24858,-0.31849 -1.82728,-3.25765 -3.50823,-6.53147 -3.92609,-7.64646 -6.60979,-11.26037 -8.3973,-11.30794 -0.86983,-0.0231 -0.79103,-0.77074 0.16487,-1.56407 1.23316,-1.02343 0.61031,-3.14933 -4.38518,-14.96751 -10.55607,-24.97322 -15.20173,-41.25277 -16.40263,-57.4789 -0.48425,-6.54302 0.28675,-9.74392 3.11371,-12.92692 1.22687,-1.38139 2.23068,-2.95861 2.23068,-3.50492 0,-1.0513 0.73826,-1.33675 1.26269,-0.48822 0.59386,0.96089 3.82854,0.49919 6.71659,-0.95869 4.1688,-2.1044 6.50947,-2.23667 8.16348,-0.4613 1.39242,1.49459 1.29596,3.66386 -0.25324,5.69497 -1.86208,2.44131 -2.31315,4.47819 -1.66702,7.52775 1.03683,4.89358 4.05747,9.41048 6.29319,9.41048 1.91115,0 3.05387,-2.42735 6.20725,-13.18542 1.66061,-5.66534 3.48675,-11.6431 4.05808,-13.28389 1.47114,-4.22493 1.41599,-4.49061 -0.85525,-4.12048 -2.53733,0.4135 -6.88104,-1.20907 -7.10112,-2.65258 -0.40553,-2.65988 4.9581,-8.94519 8.68235,-10.1743 2.48616,-0.82051 5.26401,-0.37797 11.26658,1.79487 6.96232,2.52026 11.70016,2.76772 14.15243,5.02814 3.05516,2.81615 7.89497,5.61773 0.86413,9.67965 -4.46012,2.57674 -5.77222,3.44049 -5.74384,13.52949 0.0209,7.40854 -1.61683,8.41766 -0.59593,11.11167 2.4423,6.44486 2.44767,6.50412 0.96449,10.62799 -1.70063,4.72844 -1.34656,5.28192 3.37894,5.28192 4.21935,0 9.0177,-1.55073 12.13896,-3.92308 3.75379,-2.85311 3.65214,-3.66691 -1.02789,-8.22929 -2.11993,-2.06665 -5.4709,-5.54154 -7.44659,-7.72198 -3.90371,-4.30826 -4.42627,-6.00289 -2.67518,-8.67538 1.59495,-2.43421 4.65125,-1.38662 9.18675,3.14887 4.41622,4.41623 14.5263,5.49545 17.44161,7.47834 2.36835,1.17579 1.24539,3.97347 1.14792,6.27189 -0.55722,13.14006 -0.76187,15.23321 -1.97209,20.17101 -1.90079,7.75531 -5.42811,18.26328 -15.28114,45.52278 -13.58738,37.591 -16.14158,46.24302 -14.8724,50.37839 0.31154,1.0151 0.51701,1.88183 0.45658,1.92607 -0.0604,0.0442 -1.42261,-0.89602 -3.02707,-2.08947 z m -10.53681,-27.938 c 0.56778,-0.35972 0.62786,-2.9419 0.34355,-14.76574 -0.56954,-23.6858 -2.47639,-45.41754 -3.98149,-45.37568 -0.32214,0.009 -1.76361,0.86866 -3.20326,1.91044 -3.4028,2.46238 -14.32554,12.25957 -14.11713,12.66242 0.0884,0.17083 4.56601,10.59521 9.95029,23.1653 5.38428,12.57008 9.90892,22.85122 10.05476,22.84697 0.14584,-0.004 0.57481,-0.20392 0.95328,-0.44371 z m 11.82922,-7.28667 c 3.32422,-7.94111 19.65498,-53.74298 21.76039,-61.03 1.18996,-4.11855 1.12152,-4.46795 -0.87521,-4.46795 -2.43517,0 -16.38419,2.69711 -27.51925,5.32098 l -1.18781,0.2799 0.33271,7.42735 c 1.14252,25.50522 3.31559,51.95969 4.62477,56.30082 0.42554,1.41103 0.98099,0.66812 2.8644,-3.8311 z m -31.54625,-49.08214 c 5.04549,-2.34885 12.21038,-10.39808 12.21038,-13.71746 0,-2.09025 -2.7629,-5.16805 -7.77644,-8.66276 -4.44083,-3.0955 -12.33203,-10.47755 -15.96214,-14.93226 -1.25007,-1.53402 -2.48279,-2.73102 -2.73938,-2.66001 -0.5461,0.15114 -0.44089,5.33159 0.23293,11.46873 0.5809,5.29083 2.60189,14.51685 4.33714,19.79946 1.45184,4.41984 4.88663,9.96872 6.16605,9.96123 0.46315,-0.003 2.05231,-0.56834 3.53146,-1.25693 z m 22.69533,-20.95877 c 0.90536,-0.55201 2.09209,-1.73699 2.63717,-2.63331 1.67091,-2.74758 1.71948,-5.15023 0.24814,-12.27387 -1.49766,-7.25104 -1.74851,-12.41075 -1.04886,-21.57351 0.34977,-4.58067 0.30719,-6.09545 -0.18811,-6.69226 -2.54497,-3.06649 -5.73668,2.21391 -11.20124,18.53144 -3.65113,10.90253 -4.03088,13.45344 -2.46091,16.53084 1.98052,3.88214 7.4973,9.11432 9.61008,9.11432 0.41669,0 1.49837,-0.45164 2.40373,-1.00365 z"
         style="fill:#646964;fill-opacity:1;stroke:#646964;stroke-width:0.50507629;stroke-opacity:1" />
      <path
         inkscape:connector-curvature="0"
         id="path3132"
         d="m 376.37933,351.00148 c -0.15918,0.14305 -0.0256,0.36689 -0.0148,0.52875 -0.18589,-0.0205 -0.48164,0.0265 -0.41728,0.28016 0.16612,0.21069 0.47554,0.22078 0.70435,0.34292 1.24695,0.47321 2.51956,0.93861 3.85219,1.0855 0.42152,0.0257 0.85477,0.002 1.228,-0.21691 0.32268,-0.16474 0.64962,-0.32878 0.98528,-0.45728 0.16369,-0.14957 0.0761,-0.41467 0.0773,-0.61711 -5.8e-4,-0.30438 -0.32051,-0.45813 -0.58794,-0.44589 -0.7423,-0.006 -1.47047,0.20104 -2.21464,0.15685 -1.17202,-0.016 -2.32364,-0.30758 -3.429,-0.68658 -0.0644,-0.0264 -0.12245,0.0139 -0.18348,0.0296 z"
         style="fill:#5f220c;fill-opacity:1;stroke:#5f220c;stroke-width:0.03156727;stroke-opacity:1" />
      <path
         inkscape:connector-curvature="0"
         id="path3154"
         d="m 612.2864,542.45833 c -2.28648,0.34782 -0.71619,3.64361 -0.55243,5.01919 0.70354,3.76906 2.99412,7.35083 3.09359,11.14325 -2.09443,1.96788 -5.61077,0.22054 -8.21919,0.29894 -3.73175,-0.0479 -8.14548,-2.10458 -11.5577,-0.0622 -0.83761,0.6524 -0.7238,2.56821 0.64713,1.75198 3.91207,-1.01632 8.43385,0.22192 12.32702,0.56822 1.00614,18.75854 -1.38342,37.85074 1.92192,56.52514 3.75405,23.93471 13.15174,47.35113 28.60362,66.14525 0.79135,1.36536 2.20246,0.57132 2.06766,-0.83653 0.29391,-12.38264 -2.36315,-24.63273 -4.07797,-36.85103 -5.39124,-33.18053 -11.74657,-66.26463 -16.04616,-99.59848 -0.2966,-1.19582 -0.0961,-3.31659 -1.92561,-2.95154 -2.08524,-0.44897 -4.13809,-1.18239 -6.28188,-1.1522 z"
         style="fill:#88aa00;fill-opacity:1;stroke:#646964;stroke-width:0.50507629;stroke-opacity:1" />
      <path
         inkscape:connector-curvature="0"
         id="path3156"
         d="m 389.6109,629.14204 c -2.68878,2.24561 -4.02076,6.16098 -4.78245,9.50175 -0.25537,5.26721 7.43859,8.56812 10.81179,4.35628 2.92296,-2.98224 -0.60284,-6.85488 -1.9256,-9.70693 -1.09022,-1.44115 -2.22572,-3.71259 -4.10374,-4.1511 z"
         style="fill:#88aa00;fill-opacity:1;stroke:#646964;stroke-width:0.50507629;stroke-opacity:1" />
      <path
         inkscape:connector-curvature="0"
         id="path3158"
         d="m 158.60163,582.76973 c -1.89342,1.52606 -1.36579,4.84567 -2.17462,7.03803 -4.8768,26.95496 -9.71255,53.99812 -11.79402,81.3492 0.0448,1.75326 -0.57749,4.94792 1.62584,5.5096 8.1811,-7.38953 13.63967,-17.42191 18.30997,-27.30951 6.94309,-14.81216 10.17038,-30.91369 13.76947,-46.76071 1.0279,-5.03629 3.76859,-9.44999 6.29058,-13.78148 0.087,-1.65898 -2.93617,-0.90189 -3.88278,-1.68885 -7.24313,-2.18821 -14.8328,-2.7562 -22.14444,-4.35628 z"
         style="fill:#88aa00;fill-opacity:1;stroke:#646964;stroke-width:0.50507629;stroke-opacity:1" />
      <path
         inkscape:connector-curvature="0"
         id="path3035"
         d="m 604.98927,512.56018 c -5.26787,2.30485 -8.9382,7.14784 -13.4665,10.6215 -3.77641,3.62921 -8.36082,6.12489 -12.82903,8.80815 -5.16616,4.39617 -4.29401,13.70392 -11.25373,16.28871 -2.77646,0.99888 -6.88051,1.67687 -7.0395,5.31909 -0.65685,3.89478 -0.77546,9.29551 -5.42957,10.59082 -2.41305,0.61918 -5.11669,2.34817 -4.32472,5.25595 0.18078,2.41661 1.15907,5.81142 -1.78355,6.86588 -4.26497,2.78352 -11.32393,3.51986 -12.27966,9.56488 -0.53941,3.71498 -0.96747,8.52797 -5.16125,9.8332 -4.75497,1.70741 -7.59442,6.03966 -9.91212,10.19623 -3.82832,4.91501 -11.4655,4.19753 -16.84114,2.47803 -4.04117,-1.04502 -7.60574,-4.20586 -11.83773,-4.30893 -2.59847,1.28057 -0.71678,6.23032 -4.16688,6.66069 -7.01771,-0.19642 -12.8768,-5.54788 -20.07678,-5.22438 -5.65623,-0.15429 -12.65703,2.13304 -16.94233,-2.80657 -2.76989,-3.17088 -6.94569,-4.57113 -11.10512,-4.03564 -3.65056,0.42096 -7.43812,-0.83926 -9.24873,-4.23434 -2.20286,-3.90589 -6.51272,-5.69862 -10.85968,-5.74881 -3.90275,-0.16806 -7.79471,-1.80004 -9.62802,-5.35065 -3.38576,-4.03644 -10.33775,0.68628 -13.22668,-4.21423 -2.39908,-4.17732 -7.07597,-6.15536 -11.78623,-6.23603 -4.22493,-0.20372 -8.31179,-2.14269 -10.53183,-5.83845 -5.09926,-4.79518 -12.81064,-4.38835 -19.30339,-5.60319 -7.65323,-1.29806 -15.97346,-1.28133 -22.71264,-5.42957 -6.46352,-1.18459 -13.36946,1.15567 -19.72955,-0.67869 -3.00976,-0.84426 -5.96641,-3.14792 -9.1545,-2.84106 -3.15918,1.03923 -6.19653,5.2311 -9.77007,3.07781 -2.60414,-1.96433 -6.08212,-3.45516 -9.26759,-1.72542 -5.42493,2.29447 -12.6673,5.21947 -17.83291,0.6837 -2.1026,-1.23553 -2.97203,-5.37934 -5.87151,-4.59304 -3.63727,1.64975 -5.85328,6.29967 -10.10153,6.32924 -4.223,-1.39088 -7.12637,-6.8116 -12.18496,-5.36643 -5.54708,1.79871 -11.52451,3.81127 -15.68894,8.03387 -1.38733,2.09793 1.85452,2.46641 3.23565,2.24127 3.71125,0.32233 7.52111,-1.40411 11.12746,-0.67869 0.95248,2.99337 -2.44498,6.8092 -0.0473,9.50174 3.48377,1.03504 6.81748,-1.90591 9.93916,-3.04996 2.90847,-1.13069 5.76756,-3.52782 8.89071,-3.59495 4.15387,2.45893 7.1829,6.76477 9.28078,11.06433 0.21715,1.38876 -2.34038,-0.034 -2.91997,-0.0631 -5.05992,-2.5557 -12.09892,-4.04068 -16.52547,0.53664 -2.98396,3.42932 0.55643,9.88033 5.14547,8.28641 4.0834,-0.59506 7.68759,-4.45507 11.90086,-3.44084 3.21879,1.52479 4.98214,7.04543 9.17029,5.93465 3.12429,-1.0976 6.8718,-4.19913 9.94369,-1.26269 2.50982,2.09429 5.56718,5.55747 9.15451,3.48818 4.69232,-1.70494 8.78299,-5.76308 13.92116,-5.91886 3.10818,1.62647 4.49562,7.13485 8.72835,6.36081 3.67734,-0.93042 7.4945,-5.16297 11.34843,-2.4149 3.38826,2.59076 7.07664,5.42164 11.64832,4.81401 4.44532,0.0438 9.23668,-0.55112 13.06885,2.20971 5.3824,1.9264 11.75992,-0.963 16.51935,2.80667 4.41039,3.05935 9.9244,3.28936 14.8743,4.7379 2.96316,1.51405 5.54781,3.93556 9.09137,4.08796 5.35694,0.31492 10.28502,2.67746 14.0639,6.45426 5.1168,4.85088 12.66063,3.5107 18.73449,5.80963 2.94506,1.31346 3.84007,5.2314 7.35518,5.82416 4.96879,0.78666 9.67014,2.7963 13.25825,6.39237 4.29288,4.35568 9.98106,7.01324 14.58408,10.87492 3.00219,2.51593 2.63935,8.09705 6.72382,9.39126 3.09838,-0.0153 3.57923,-4.52727 6.83432,-4.51411 5.13843,-0.77913 11.34765,0.42058 14.03165,5.31908 2.35859,3.22786 6.13397,4.53661 9.99104,4.81401 3.21279,0.0552 5.73773,1.9327 8.34954,3.42505 6.0257,0.77796 11.40076,-3.65644 15.29461,-7.79918 3.16344,-3.62028 3.80342,-8.8899 7.48759,-12.14795 4.35669,-4.30503 8.24789,-9.49971 8.70615,-15.83437 -0.10408,-3.7435 1.71932,-7.602 5.52427,-8.71257 3.96713,-1.70329 4.9822,-6.12141 5.3033,-10.0226 1.04365,-5.21993 7.46174,-6.09968 10.02261,-10.19623 4.64605,-5.87903 6.63165,-14.09488 13.44765,-17.93021 2.88498,-2.72055 3.31234,-7.21345 6.37659,-9.8332 3.81409,-3.86951 7.58059,-7.89152 10.35407,-12.50064 3.10978,-3.14408 9.58995,-2.32864 10.96962,-7.1342 -0.32555,-10.77979 8.03557,-19.40764 8.50738,-30.06782 0.0475,-1.33706 -0.12016,-3.9001 -2.06766,-3.63024 z m -273.7829,55.49526 c 3.31953,0.91393 1.06928,6.90457 5.05076,7.00793 2.53252,-0.59891 5.53456,-1.03205 7.57614,1.12064 2.00191,1.21127 3.46267,4.34475 6.02935,4.08796 5.52335,-1.98987 10.73232,-5.09897 16.778,-5.03498 2.63138,-0.15546 4.69839,-2.91961 7.48145,-1.46788 3.79843,1.4185 7.39377,3.74028 10.41719,6.28189 -4.14059,-0.99127 -9.39905,-1.81726 -12.32701,2.09922 -1.28612,0.97934 -3.13887,4.37803 -4.9245,2.20971 -3.44034,-4.32132 -9.70619,-2.17195 -14.39467,-2.02031 -4.64732,0.79038 -9.04315,-0.7215 -13.03728,-2.93575 -2.65629,-0.89618 -5.93502,2.1591 -8.0023,-0.63135 -1.99618,-2.35517 -3.99663,-5.96164 -2.90419,-9.09137 0.56287,-0.7143 1.29573,-1.51889 2.25706,-1.62571 z m 146.15644,56.85264 c 3.97327,1.09264 8.28033,1.1051 12.26389,2.20971 3.00082,0.84393 2.80642,5.11294 5.398,6.21875 3.03674,-1.39192 4.03058,-6.00092 7.54458,-6.43972 5.24009,1.42841 9.57808,5.46548 14.2684,8.23906 2.50433,1.46706 1.46522,1.42617 -0.80107,0.94751 -6.01244,-0.78749 -13.47989,-2.11341 -18.04459,2.96683 -1.69977,2.12667 -5.1975,3.02153 -6.96058,0.45772 -1.10195,-2.45292 -2.90645,-4.70226 -5.77681,-5.06654 -4.21947,-1.30195 -9.06339,-0.34136 -13.06885,-2.14658 -0.73898,-1.92109 1.47547,-3.9018 2.35176,-5.50848 0.72436,-0.89726 1.58412,-1.85631 2.82527,-1.87826 z"
         style="fill:#5f220c;fill-opacity:1;stroke:#5f220c;stroke-width:0.50507629;stroke-opacity:1" />
      <path
         inkscape:connector-curvature="0"
         id="path3039"
         d="m 185.27621,542.4856 c -2.20653,0.21961 -4.68213,0.11473 -6.58482,1.42299 -1.59741,1.50802 -1.366,3.96771 -1.45424,5.97655 0.18234,5.99658 0.4552,12.01076 1.42076,17.93528 0.52072,2.32897 1.00222,5.14584 3.19754,6.5067 2.26793,1.12024 4.73558,-0.40544 6.70551,-1.48519 2.53753,-1.38076 4.82642,-3.3942 7.67507,-4.03379 2.60177,-0.2294 4.68489,1.75676 6.76714,3.03771 3.79819,2.63108 8.04905,5.32568 12.83107,5.24912 2.38761,-0.26012 4.97895,-0.96645 7.17634,0.35157 1.668,1.26807 2.62948,3.71889 4.96652,3.93973 1.61593,0.34978 3.07025,-0.81727 3.62723,-2.26563 1.00771,-2.57494 0.307,-5.5099 -0.71986,-7.96875 -0.98641,-2.56266 -3.86853,-3.61528 -6.44405,-3.63492 -4.85234,-0.29395 -9.7951,-1.37065 -13.96332,-3.90414 -0.23189,-0.13966 -0.72959,-0.50607 -0.13951,-0.54129 3.87462,-0.53738 7.44838,-2.55269 10.38505,-5.09487 1.27942,-1.0556 2.32675,-2.73919 1.63504,-4.42522 -1.12067,-2.80485 -2.82007,-5.38903 -4.82143,-7.62835 -1.40994,-1.58631 -3.78831,-2.29212 -5.74776,-1.31138 -3.45668,1.57294 -5.79183,4.81686 -9.08483,6.59598 -1.63179,0.73296 -2.92678,-1.05576 -3.91741,-2.0759 -1.87661,-2.22539 -3.88038,-4.53396 -6.68526,-5.55245 -2.15699,-0.87494 -4.50953,-1.15519 -6.82478,-1.09375 z"
         style="fill:#5f220c;fill-opacity:1;stroke:#5f220c;stroke-width:0.17857143;stroke-opacity:1" />
      <path
         inkscape:connector-curvature="0"
         id="path3045"
         d="m 317.0102,304.64717 c -3.51692,0.10095 -7.01304,0.53621 -10.51339,0.88169 -0.93458,0.58157 0.52276,1.1929 0.91825,1.58444 19.37749,14.40771 38.84085,28.86293 59.96516,40.64157 2.84263,1.46401 5.61761,3.16539 8.67016,4.13002 0.87212,-0.11017 0.5679,-1.2251 -0.13951,-1.35045 -0.79628,-0.38889 -1.77119,-1.0222 -1.95871,-1.9308 0.73854,-3.52859 3.53552,-6.11837 6.16072,-8.37612 2.41086,-2.11775 5.87798,-2.10343 8.82733,-1.18598 5.13121,1.54775 10.22506,3.26727 15.41677,4.65442 0.61054,0.37439 1.37716,-0.0171 1.20791,-0.77312 0.38892,-0.88411 1.70426,-0.57275 2.41071,-0.29576 2.9505,1.06663 4.86152,3.87167 7.74554,5.03906 2.51721,0.65614 4.84715,-1.02476 6.95935,-2.14308 3.71595,-2.29106 7.45566,-4.56475 10.64667,-7.55 0.57085,-0.37511 0.57609,-1.45219 -0.27343,-1.38393 -2.18511,0.22954 -4.25318,1.74789 -6.49554,0.98772 -2.96464,-0.73355 -4.35976,-3.68267 -6.5904,-5.47433 -0.8933,-0.80973 -2.29651,-0.63293 -2.97991,0.35157 -1.26501,1.86666 -3.36951,3.08423 -5.61942,3.15848 -2.75516,0.24709 -5.95882,-0.33467 -7.57813,-2.7846 -0.82297,-1.54585 -1.90256,-3.27533 -3.80022,-3.59375 -3.20952,-0.57002 -6.3511,1.13723 -9.56893,0.58053 -2.34832,-0.14897 -4.44673,-1.15631 -6.35741,-2.46111 -2.40922,-1.32589 -5.34066,-1.22655 -7.97991,-0.81473 -2.8885,0.83524 -5.76293,3.33057 -5.75893,6.5346 0.006,1.98583 1.95124,3.2743 3.78348,3.33147 1.51335,0.14361 3.69016,0.46261 3.9788,2.28236 -0.30095,1.31504 -1.93597,1.69932 -3.05246,2.03684 -3.01885,0.82998 -6.42659,0.0986 -8.58051,-2.25239 -1.66125,-1.67707 -3.00049,-4.34775 -1.93846,-6.66503 0.60394,-1.33238 2.58291,-1.41618 2.92411,-2.87946 -0.0415,-2.00447 -1.94773,-3.31857 -3.38728,-4.44196 -3.52398,-2.53038 -7.69307,-4.2918 -12.07484,-4.45017 -2.4509,-0.27157 -5.05688,-0.88903 -6.66958,-2.91033 -2.32044,-2.10853 -5.71634,-2.15417 -8.67187,-2.47209 -3.87457,-0.50547 -7.31602,-2.88938 -9.58148,-6.03795 -1.73665,-2.27626 -4.41142,-3.79399 -7.29843,-3.89382 -0.9103,-0.0886 -1.83119,-0.0983 -2.74621,-0.0738 z"
         style="fill:#5f220c;fill-opacity:1;stroke:#5f220c;stroke-width:0.17857143;stroke-opacity:1" />
      <path
         inkscape:connector-curvature="0"
         id="path3047"
         d="m 300.29703,293.79337 c -1.69072,5.2e-4 -3.89244,1.05245 -3.71094,3.0413 0.14005,2.32779 2.09955,4.16028 4.11273,5.06138 1.49613,0.69236 3.36345,-0.1256 3.84486,-1.70759 0.83371,-1.93051 0.4602,-4.41286 -1.3337,-5.6529 -0.81167,-0.67868 -1.89436,-0.78406 -2.91295,-0.74219 z"
         style="fill:#5f220c;fill-opacity:1;stroke:#5f220c;stroke-width:0.17857143;stroke-opacity:1" />
      <path
         inkscape:connector-curvature="0"
         id="path3049"
         d="m 338.47994,341.42846 c -1.37141,0.009 -2.47093,1.40671 -2.12684,2.74635 0.3787,2.40659 2.21697,4.59332 4.53779,5.34276 1.38387,0.36926 3.00088,-0.34984 3.41716,-1.77566 0.65372,-1.94761 -0.81516,-3.85182 -2.28763,-4.97186 -1.01892,-0.74199 -2.24597,-1.38792 -3.54048,-1.34159 z"
         style="fill:#5f220c;fill-opacity:1;stroke:#5f220c;stroke-width:0.12626907;stroke-opacity:1" />
      <path
         sodipodi:nodetypes="cccccccccccccccccccccccccccccccccccccccccccccccccc"
         inkscape:connector-curvature="0"
         id="path3059"
         d="m 458.95702,340.8166 c -6.61713,0.29382 -12.76525,3.23589 -18.53795,6.2221 -6.12835,3.35719 -12.08768,7.0999 -17.63951,11.35044 -1.19267,1.06975 -3.10678,2.3435 -2.67857,4.20201 0.84927,2.29127 3.28226,3.55007 5.357,4.60704 6.01703,2.81783 12.82582,2.52749 19.28533,3.11309 16.38797,1.20253 32.73083,3.05232 49.17431,3.24716 4.30167,0.19046 8.80186,0.25803 12.68875,2.31257 3.72948,1.31507 7.75356,1.14536 11.65303,1.34717 5.09251,-0.008 10.2775,-0.0275 15.24002,-1.24533 1.91179,-0.62128 3.54515,-1.96165 5.60268,-2.1317 3.52321,-0.64808 7.17287,-0.28524 10.63616,-1.25 1.0222,-0.23902 2.21942,-1.58212 1.18303,-2.51116 -1.59295,-1.56869 -4.08683,-1.1914 -6.12723,-1.30022 -3.82124,-0.0669 -7.5579,0.87005 -11.31138,1.46205 3.80992,-3.21362 7.33295,-7.04059 11.93638,-9.15736 2.09593,-1.02321 5.02702,-1.00778 6.42857,1.12723 1.22673,1.49088 1.33279,3.69832 2.82924,4.96652 1.27171,0.54094 2.15357,-1.01017 2.87389,-1.7913 1.57633,-2.0976 3.4935,-4.42596 6.28088,-4.72342 1.60217,-0.2881 3.12409,0.72483 4.76264,0.49909 1.88079,0.007 3.56212,-0.94709 4.96652,-2.10379 1.39108,-0.91196 2.80422,0.52303 3.51005,1.6462 1.02837,1.71848 2.32915,3.50779 2.38839,5.56362 -0.19912,0.83925 -1.41165,0.74683 -2.07031,0.9375 -4.19505,0.4836 -8.72319,-0.25101 -12.60603,1.80245 -2.72786,1.27206 -4.54148,3.82819 -5.90402,6.43416 -0.28891,0.82209 -1.29802,1.70985 -0.84263,2.60602 1.06315,0.51901 2.26084,-0.3814 3.29799,-0.63616 5.42066,-2.24701 11.45214,-1.89379 17.2197,-1.56496 3.84416,0.27255 7.7642,0.31617 11.53588,1.00135 1.21438,0.25699 2.71487,3.81981 3.59293,4.65658 1.06611,-0.005 -0.22783,-4.24112 -0.22297,-4.87151 -1.58496,-7.62951 -3.10921,-15.28384 -4.80969,-22.88217 -0.19886,-0.76633 -1.12819,-0.27193 -1.58482,-0.78683 -2.19774,-1.33494 -4.19181,-3.70298 -7.03683,-3.3538 -4.42227,0.48395 -7.95003,4.38237 -12.56135,3.95716 -4.09683,-0.0532 -7.7255,-2.45381 -11.64066,-3.41586 -2.51317,-0.72834 -5.41746,-0.49883 -7.43862,1.28348 -1.23768,1.03959 -2.68836,2.0249 -4.40289,1.78906 -2.25941,0.0392 -4.10242,-1.55493 -6.01019,-2.54876 -2.87297,-1.70918 -6.00275,-4.09576 -9.55344,-3.19119 -3.31324,0.74259 -6.08041,3.19852 -9.48645,3.50631 -3.65317,0.39226 -5.66731,-3.95329 -9.27471,-3.88578 -4.38812,-0.0107 -8.2149,2.54412 -12.36607,3.55469 -2.01033,0.67475 -4.2845,0.28066 -5.8817,-1.16629 -2.76583,-2.07502 -4.97631,-5.22077 -8.43191,-6.28907 -4.50025,-1.00368 -8.21043,3.40692 -12.68416,2.47768 -2.77634,-0.59571 -4.33524,-3.56098 -7.09821,-4.30245 -1.35905,-0.45442 -2.81333,-0.59108 -4.24107,-0.56362 z"
         style="fill:#5f220c;fill-opacity:1;stroke:#5f220c;stroke-width:0.17857143;stroke-opacity:1" />
      <path
         inkscape:connector-curvature="0"
         id="path3061"
         d="m 303.02068,371.2794 c -3.52763,0.35566 -6.78398,1.90287 -10.03789,3.21593 -7.63554,3.44491 -15.06833,7.47771 -21.61947,12.7439 -3.04467,2.52272 -5.31456,6.24281 -5.44643,10.24553 -0.12676,2.31835 1.74467,4.60122 4.1462,4.55915 4.14316,0.1713 7.42024,-2.89831 10.18906,-5.58383 5.17366,-5.19142 11.75813,-8.46057 18.2596,-11.67621 3.35773,-1.68604 6.78205,-3.82197 8.63282,-7.20424 0.97475,-1.87631 0.36038,-4.3161 -1.40625,-5.50223 -0.72559,-0.73623 -1.73763,-0.83127 -2.71764,-0.798 z"
         style="fill:#8c3514;fill-opacity:1;stroke:#5f220c;stroke-width:0.17857143;stroke-opacity:1" />
      <path
         inkscape:connector-curvature="0"
         id="path3063"
         d="m 332.54635,394.22583 c -2.38427,0.14575 -4.43592,1.7364 -6.2114,3.21469 -6.66052,6.08317 -11.52547,13.98673 -14.54178,22.44049 -1.38366,4.22339 -1.95722,8.68913 -2.04155,13.12818 -0.0364,1.33899 0.52532,3.07528 2.09161,3.19209 2.94512,0.4792 5.18001,-2.1185 6.68646,-4.27628 3.12279,-4.37111 4.20538,-9.76933 6.85967,-14.38188 1.7834,-3.48015 3.89197,-6.76086 6.55431,-9.63983 2.36806,-3.01811 4.732,-6.63399 4.47044,-10.62427 -0.0247,-1.70513 -1.47769,-3.30533 -3.25948,-3.05581 -0.20273,-0.003 -0.40565,-0.007 -0.60828,0.003 z"
         style="fill:#8c3514;fill-opacity:1;stroke:#5f220c;stroke-width:0.17857143;stroke-opacity:1" />
      <path
         inkscape:connector-curvature="0"
         id="path3065"
         d="m 373.668,461.83744 c -0.45487,0.31062 -0.5465,0.97045 -1.19419,1.08817 -3.21206,1.3506 -6.81903,1.15755 -10.22816,1.4946 -8.44338,0.60597 -16.9511,0.40284 -25.3522,1.3179 -2.83071,0.45745 -5.91588,0.89934 -8.19196,2.77902 -0.92543,0.7637 -1.29577,2.1556 -0.45201,3.125 1.78225,2.4268 4.76408,3.57735 7.50313,4.5786 4.86927,1.36039 10.01673,0.82464 14.98571,0.43814 7.04107,-0.80306 14.17723,-1.88906 20.77756,-4.52442 1.80476,-0.61616 3.24195,-2.00339 5.05391,-2.53473 1.24936,0.20439 1.67786,-0.75891 0.8132,-1.64611 -1.15676,-2.00413 -2.01446,-4.23565 -3.38574,-6.08827 -0.0999,-0.0495 -0.22265,-0.0687 -0.32925,-0.0279 z"
         style="fill:#8c3514;fill-opacity:1;stroke:#5f220c;stroke-width:0.17857143;stroke-opacity:1" />
      <path
         inkscape:connector-curvature="0"
         id="path3067"
         d="m 393.60662,507.17226 c -3.76191,0.41408 -6.82629,2.99454 -9.73772,5.20089 -4.20312,3.55368 -8.30578,7.32948 -13.26555,9.81669 -2.81594,1.72505 -6.10189,2.2587 -9.14517,3.41434 -2.24916,0.80308 -4.30175,2.73056 -4.31919,5.24554 -0.40517,2.21733 0.7967,4.7527 3.06919,5.35714 3.96164,0.43585 7.88369,-0.88385 11.5203,-2.32448 6.06985,-2.60374 11.22637,-6.91342 16.17847,-11.20282 3.27128,-3.08756 6.72847,-6.20912 8.83025,-10.2506 0.80871,-1.84825 0.25395,-4.80901 -2.05915,-5.18973 -0.35294,-0.0626 -0.71331,-0.0857 -1.07143,-0.067 z"
         style="fill:#8c3514;fill-opacity:1;stroke:#5f220c;stroke-width:0.17857143;stroke-opacity:1" />
      <path
         inkscape:connector-curvature="0"
         id="path3069"
         d="m 464.13675,514.32628 c -2.91095,0.64445 -5.12065,2.92924 -7.08642,5.03072 -5.14519,5.97736 -8.96238,13.07529 -11.36844,20.57015 -1.11967,3.89489 -2.18828,8.36464 -0.18911,12.15583 0.62349,1.23994 2.18478,2.59061 3.57701,1.60714 2.33579,-1.64654 3.19047,-4.609 4.11272,-7.17634 1.93084,-7.06764 6.1533,-13.21773 10.48287,-19.02401 1.7821,-2.58194 4.16827,-4.92102 5.01937,-7.99608 0.32084,-1.34856 0.1065,-2.86373 -1.04126,-3.77018 -0.86517,-1.05647 -2.16987,-1.49431 -3.50674,-1.39723 z"
         style="fill:#8c3514;fill-opacity:1;stroke:#5f220c;stroke-width:0.17857143;stroke-opacity:1" />
      <path
         inkscape:connector-curvature="0"
         id="path3071"
         d="m 521.20149,517.51824 c -1.7683,0.025 -4.05547,0.83336 -4.22433,2.87947 -0.11139,2.91439 1.64345,5.49145 2.93526,7.97433 3.58031,6.05649 5.46466,13.04367 5.65282,20.07148 0.20321,2.81521 0.0269,6.04811 2.01459,8.30463 1.43543,1.27042 3.88188,1.03978 4.89956,-0.64174 1.75764,-2.90934 1.61714,-6.51443 1.47321,-9.79352 -0.62285,-7.80658 -2.87589,-15.45918 -6.29464,-22.48326 -1.23832,-2.21589 -2.41783,-4.7604 -4.69866,-6.07143 -0.55262,-0.22638 -1.16547,-0.26019 -1.75781,-0.23996 z"
         style="fill:#8c3514;fill-opacity:1;stroke:#5f220c;stroke-width:0.17857143;stroke-opacity:1" />
      <path
         inkscape:connector-curvature="0"
         id="path3073"
         d="m 546.74836,535.92226 c -1.36702,0.43427 -1.65056,2.16431 -2.05915,3.3538 -1.08742,4.38021 -0.93488,9.10673 0.32627,13.43883 0.31128,0.95275 1.05621,2.55558 2.30208,2.0913 1.61796,-1.16027 1.86544,-3.36341 2.23772,-5.17857 0.15823,-3.14497 0.31615,-6.35036 -0.20089,-9.46987 -0.41238,-1.47245 -0.68796,-3.37921 -2.17076,-4.18527 -0.13883,-0.0451 -0.29033,-0.0605 -0.43527,-0.0502 z"
         style="fill:#5f220c;fill-opacity:1;stroke:#5f220c;stroke-width:0.17857143;stroke-opacity:1" />
      <path
         inkscape:connector-curvature="0"
         id="path3075"
         d="m 235.64995,342.38895 c -2.77097,0.38886 -5.6796,2.63359 -5.91886,5.57163 0.14462,2.85706 3.0438,4.47752 5.15336,5.90307 6.60602,3.68845 14.05516,5.54143 21.36535,7.27431 5.08503,1.15746 10.4252,1.53472 15.57624,0.67275 2.75956,-0.62914 5.90473,-2.40157 6.43972,-5.41378 -0.0325,-3.00109 -3.18675,-4.69699 -5.68211,-5.54795 -6.23362,-1.78678 -12.92057,-0.873 -19.19399,-2.52834 -5.1097,-0.98393 -9.62059,-3.69614 -14.48039,-5.4345 -1.0483,-0.33858 -2.15433,-0.56706 -3.25932,-0.49719 z"
         style="fill:#8c3514;fill-opacity:1;stroke:#8c3514;stroke-width:0.25253814;stroke-opacity:1" />
    </g>
  </g>
</svg>
