<?xml version="1.0" encoding="UTF-8" standalone="no"?>
<!-- Created with Inkscape (http://www.inkscape.org/) -->

<svg
   xmlns:dc="http://purl.org/dc/elements/1.1/"
   xmlns:cc="http://creativecommons.org/ns#"
   xmlns:rdf="http://www.w3.org/1999/02/22-rdf-syntax-ns#"
   xmlns:svg="http://www.w3.org/2000/svg"
   xmlns="http://www.w3.org/2000/svg"
   xmlns:sodipodi="http://sodipodi.sourceforge.net/DTD/sodipodi-0.dtd"
   xmlns:inkscape="http://www.inkscape.org/namespaces/inkscape"
   id="svg3015"
   version="1.1"
   inkscape:version="0.48.2 r9819"
   width="1920"
   height="1920"
   sodipodi:docname="Viking Lady Face.png">
  <metadata
     id="metadata3021">
    <rdf:RDF>
      <cc:Work
         rdf:about="">
        <dc:format>image/svg+xml</dc:format>
        <dc:type
           rdf:resource="http://purl.org/dc/dcmitype/StillImage" />
        <dc:title></dc:title>
      </cc:Work>
    </rdf:RDF>
  </metadata>
  <defs
     id="defs3019" />
  <sodipodi:namedview
     pagecolor="#ffffff"
     bordercolor="#666666"
     borderopacity="1"
     objecttolerance="10"
     gridtolerance="10"
     guidetolerance="10"
     inkscape:pageopacity="0"
     inkscape:pageshadow="2"
     inkscape:window-width="1600"
     inkscape:window-height="850"
     id="namedview3017"
     showgrid="false"
     inkscape:zoom="0.24343624"
     inkscape:cx="1487.5865"
     inkscape:cy="768.09567"
     inkscape:window-x="-8"
     inkscape:window-y="-8"
     inkscape:window-maximized="1"
     inkscape:current-layer="g3049" />
  <g
     id="g3049"
     transform="translate(-19.310265,1390.7142)">
    <g
       id="g3083"
       transform="matrix(3.054315,0,0,3.054315,-257.1915,-1021.8845)">
      <path
         transform="translate(19.310265,-26.714249)"
         inkscape:connector-curvature="0"
         id="path3057"
         d="m 247.18079,170.20155 c -9.10641,0.83949 -19.98607,3.60425 -24.68232,12.19374 -5.05778,9.64757 -6.66308,21.32329 -2.21865,31.49836 3.07356,8.68204 10.91283,15.03559 19.07537,18.82114 15.03813,4.66864 31.82962,-4.7593 38.71935,-18.18899 4.54949,-11.94749 2.66653,-27.27845 -7.0696,-36.2154 -6.45317,-5.61174 -15.25892,-8.65101 -23.82415,-8.10885 z"
         style="fill:#ffffff;fill-opacity:1;stroke:#ffffff;stroke-width:0.65208203" />
      <path
         transform="translate(19.310265,-26.714249)"
         inkscape:connector-curvature="0"
         id="path3059"
         d="m 526.77092,180.13817 c -16.11902,2.11649 -27.52677,14.5297 -25.44905,26.22724 1.2399,11.62441 13.00407,23.6062 30.02694,24.25796 14.72463,1.44215 29.74964,-5.57789 33.57571,-16.09404 4.70148,-7.53768 2.32855,-16.77864 -4.53327,-23.16627 -6.85822,-5.43778 -15.10036,-11.77245 -26.18561,-11.1367 -2.47566,-0.0734 -4.95704,-0.1416 -7.43472,-0.0882 z"
         style="fill:#ffffff;fill-opacity:1;stroke:#ffffff;stroke-width:0.6717121" />
      <path
         sodipodi:nodetypes="cssssscccssccssscccc"
         inkscape:connector-curvature="0"
         id="path3053"
         d="m 277.81632,461.82444 c -1.86276,0.16049 -6.74596,-0.40899 -10.85157,-1.26551 -4.10561,-0.85651 -11.09262,-1.55766 -15.52669,-1.55811 -7.88214,-8e-4 -8.11386,-0.071 -10.38955,-3.14908 -1.28018,-1.73154 -2.53823,-5.01688 -2.79565,-7.30076 -0.42168,-3.74115 -0.0859,-4.55755 3.38954,-8.24131 2.12168,-2.24884 7.04378,-5.68073 10.93801,-7.62641 11.24014,-10.39247 17.56449,-14.6688 24.67573,-20.52366 30.36926,-17.02983 64.1222,-31.27402 99.24382,-36.35012 11.91689,-0.22073 18.05417,0.86431 24.71944,4.3703 3.49124,1.83642 5.84794,2.2444 12.78056,2.2125 11.33789,-0.0522 19.37259,-0.7145 20.06817,-1.65427 40.80694,-10.39865 92.30301,22.79175 122.46824,46.78803 6.44135,3.95369 14.46359,12.11421 14.46359,14.71289 0,1.35444 0.46024,3.78288 1.02276,5.39652 0.61396,1.76119 0.71294,5.11845 0.24764,8.39923 l -0.77513,5.46532 -8.49764,2.15915 c -47.74827,21.18813 -118.21948,35.09526 -145.59789,32.74272 -45.67795,1.05058 -108.80345,-25.30113 -139.58338,-34.57743 z"
         style="fill:#ff2a2a;stroke:#ff2a2a" />
      <path
         sodipodi:nodetypes="cccccccsssssscssssscccccsssssssssssssscscssssssssssssssssssssssssssccssssssssscsssssssssssssssssssssscsssssssssscssssssssscsccssssssssssssccssccsssssssccssccss"
         inkscape:connector-curvature="0"
         id="path3051"
         d="m 548.5,460.41474 c -50.6951,-7.39735 -104.19905,-19.07301 -148.26461,-17.98797 -33.93079,2.7108 -69.89277,3.85023 -103.37251,10.1797 -14.26751,1.38823 -58.35821,7.27622 -53.88419,-5.55502 2.70019,-4.91183 7.77736,-7.66494 11.68067,-11.1704 6.76508,-4.18838 14.99201,-8.9696 22.84064,-10.44961 7.93719,-1.52123 21.18555,-6.30128 27.97789,-6.43144 1.77302,0 4.52831,-0.43523 6.12289,-0.96719 1.59457,-0.53195 5.37422,-1.19405 8.39922,-1.47132 3.025,-0.27728 8.65,-1.3911 12.5,-2.47517 3.85,-1.08407 9.78321,-1.99697 13.1849,-2.02867 3.4017,-0.0317 7.36135,-0.50494 8.79924,-1.05162 2.74187,-1.04246 25.08807,-2.23698 34.51586,-1.84506 3.025,0.12576 7.1875,0.13222 9.25,0.0144 8.33354,-0.47621 14.92134,-0.43147 28.75,0.19527 7.975,0.36144 18.325,0.81156 23,1.00026 4.675,0.1887 10.975,0.86387 14,1.50038 3.025,0.63651 9.55,1.60297 14.5,2.1477 4.95,0.54473 11.475,1.41806 14.5,1.94074 3.025,0.52268 7.075,1.20755 9,1.52194 13.19125,1.72797 29.57364,6.29899 41.24633,9.51838 27.12603,3.83765 35.61804,39.77677 5.25367,33.41474 z M 544,268.9393 c -1.925,-0.45689 -4.85,-1.15045 -6.5,-1.54124 -2.66841,-0.632 -4.93158,-1.92275 -12.97158,-7.39806 -4.71128,-3.20842 -12.32351,-10.70293 -15.10823,-14.8746 C 503.20572,235.81578 500,229.67943 500,227.09336 c 0,-1.48135 -0.39788,-3.12086 -0.88419,-3.64336 -0.4863,-0.5225 -1.58755,-5 -2.44722,-9.95 -2.4823,-14.29309 -0.35586,-26.70698 7.55427,-44.10076 0.52545,-1.15542 0.80276,-3.18042 0.61625,-4.5 -0.40207,-2.8447 -4.26373,-3.65937 -9.82103,-2.07187 -1.93495,0.55274 -5.43058,1.30725 -7.76808,1.6767 -3.78628,0.59843 -4.25,0.45727 -4.25,-1.29373 0,-1.081 0.64607,-2.50164 1.43572,-3.15699 0.78965,-0.65535 1.74839,-2.62295 2.13053,-4.37245 0.84729,-3.87896 10.32781,-14.44893 15.32439,-17.08538 4.28393,-2.26042 12.51043,-4.56702 16.34765,-4.58365 1.50606,-0.007 6.64219,-1.62789 11.41362,-3.60303 8.38964,-3.4729 9.08983,-3.59105 21.26171,-3.58766 13.2782,0.004 21.28259,0.85178 34.89128,3.69683 7.94427,1.66084 8.48706,1.65807 12.5,-0.0636 2.45256,-1.05224 7.36468,-5.05109 11.82576,-9.62712 4.19686,-4.305 8.30048,-7.82727 9.11916,-7.82727 1.71386,0 3.1829,6.75003 1.83612,8.43677 -0.94359,1.18178 -2.08775,7.19806 -2.38925,12.56323 -0.18988,3.37878 -0.0634,3.51095 3.65074,3.81617 3.66408,0.30111 4.27416,-0.11586 12.8021,-8.75 4.92506,-4.98639 9.33307,-9.06617 9.79558,-9.06617 2.41038,0 2.19624,5.06684 -0.64315,15.21832 -1.30114,4.65186 -1.36236,6.00398 -0.32825,7.25 1.74708,2.10511 3.83758,1.86343 8.52629,-0.98568 2.2,-1.33684 5.35,-3.17984 7,-4.09556 4.07311,-2.2605 6.71645,-5.08025 9.53491,-10.17124 2.78537,-5.03125 5.31254,-5.26817 5.77222,-0.54115 0.36738,3.77781 -4.08123,17.41536 -7.28258,22.32531 -3.70732,5.68597 -12.65924,14.62722 -17.91045,17.88909 -6.47607,4.02272 -18.49161,6.74362 -23.47211,5.31522 C 620.72904,170.6519 612.16554,169 609.5307,169 c -3.84307,0 -4.77881,5.72879 -1.84569,11.29966 2.60034,4.93881 2.54694,35.68654 -0.0776,44.70034 -2.0632,7.08586 -6.47777,15.7225 -10.53074,20.60227 -1.41715,1.70625 -3.34184,4.51635 -4.27708,6.24468 -0.93524,1.72833 -3.81948,4.38231 -6.40943,5.89773 -2.58995,1.51543 -6.09976,3.89195 -7.79957,5.28117 -4.36406,3.56666 -7.15943,4.69236 -14.67247,5.90862 -7.49789,1.21381 -14.81681,1.21559 -19.91809,0.005 z m 18.29966,-69.55125 c 6.10828,-3.07663 9.43281,-7.22021 11.286,-14.06645 1.65985,-6.13198 1.65895,-6.70429 -0.0189,-12.02713 -1.30217,-4.13094 -2.93426,-6.65901 -6.25676,-9.69162 -6.34246,-5.78907 -8.01938,-6.52739 -14.91618,-6.56741 -5.48186,-0.0318 -6.58151,0.32749 -10.75499,3.51418 C 535.62757,165.13954 533,170.2928 533,177.49228 c 0,9.44138 5.06299,18.27004 12.38391,21.5946 5.08265,2.30813 12.66321,2.44309 16.91575,0.30117 z M 255.5,264.7563 c -8.17454,-2.02518 -14.70826,-5.13601 -19.28833,-9.18354 C 233.62025,253.28265 230.15,250.40611 228.5,249.18045 225.22945,246.751 221.24463,241.04434 217.89987,234 210.69486,218.82562 208.85001,206.52439 211.41517,190.76077 212.28683,185.40419 213,179.53683 213,177.72221 c 0,-1.81463 0.9,-5.06462 2,-7.22221 2.47614,-4.85681 2.51234,-6.72636 0.17126,-8.84501 -2.27697,-2.06063 -8.0738,-2.11795 -14.58019,-0.14417 -8.61618,2.61381 -25.94682,1.03187 -30.4374,-2.77832 -0.90952,-0.77171 -3.05709,-1.95735 -4.77238,-2.63475 -3.79841,-1.50005 -8.88868,-6.6163 -10.29521,-10.34775 -0.57012,-1.5125 -1.64427,-2.75 -2.38702,-2.75 -2.18629,0 -5.25284,-4.16271 -6.63004,-9 -0.70464,-2.475 -2.13344,-6.23003 -3.17509,-8.3445 -1.86479,-3.78535 -2.4375,-6.6555 -1.32803,-6.6555 0.31124,0 3.55691,3.15 7.2126,7 3.6557,3.85 7.1563,7 7.77912,7 0.62282,0 1.94689,0.9 2.94238,2 0.99549,1.1 2.83867,2 4.09597,2 1.2573,0 2.56411,0.45 2.90403,1 0.33992,0.55 2.15064,1 4.02383,1 5.62825,0 6.10175,-2.34418 2.96003,-14.65434 -1.47197,-5.76759 -2.42026,-10.74259 -2.10731,-11.05555 0.70696,-0.70696 7.62345,4.47592 7.62345,5.71264 0,1.69718 7.49783,8.20324 12.21676,10.6008 8.66326,4.40156 13.794,2.29464 10.47996,-4.30357 -1.87226,-3.72765 -3.90318,-14.59837 -3.11236,-16.65922 0.34629,-0.90242 1.2353,-1.64076 1.97558,-1.64076 2.03581,0 6.44006,2.19998 6.44006,3.2169 0,1.35993 9.77866,10.44613 14.93698,13.87923 3.43631,2.28703 5.30379,2.9043 7.56302,2.49984 1.65,-0.29539 8.625,-1.22822 15.5,-2.07295 6.875,-0.84474 14.5873,-2.05519 17.13844,-2.68991 3.51,-0.87327 6.04419,-0.87171 10.41678,0.006 3.17809,0.63825 8.17914,1.16046 11.11344,1.16046 7.01474,0 19.49053,4.36735 32.66961,11.43653 11.77754,6.3174 24.63145,17.91166 26.65491,24.0428 2.02597,6.13876 0.33543,6.70806 -10.01793,3.37353 -7.96,-2.56369 -11.97525,-2.04502 -11.97525,1.5469 0,1.29891 1.63057,6.80284 3.6235,12.23095 3.16902,8.63143 3.65873,11.18626 3.9044,20.36929 0.51276,19.1669 -4.1575,34.01295 -14.60918,46.44028 -3.37389,4.01166 -7.87373,8.36622 -9.99964,9.67682 -2.12591,1.31059 -3.87739,2.69838 -3.89218,3.08396 -0.0148,0.38558 -2.8394,2.25194 -6.2769,4.14747 -10.21541,5.63303 -27.48527,8.07464 -38.25,5.40777 z m 25.42622,-69.57771 c 2.98443,-2.01568 6.69693,-5.66857 8.25,-8.11752 5.15096,-8.12222 3.46285,-22.69336 -3.3687,-29.07727 -9.42058,-8.80328 -23.87072,-9.39718 -34.45087,-1.41593 -2.40774,1.8163 -3.6602,4.07285 -5.35194,9.64252 -2.00049,6.5862 -2.08904,7.79036 -0.93976,12.78045 1.65444,7.18351 3.04891,9.8506 7.09973,13.57906 6.8023,6.261 10.19753,7.50983 18.33532,6.74407 3.58904,-0.33772 6.53124,-1.50469 10.42622,-4.13538 z M 487.5,117.08081 c -13.05134,-0.94754 -22.50885,-7.45537 -22.49442,-15.47869 0.0123,-6.827738 1.81,-10.317098 6.94242,-13.475103 4.96699,-3.056224 8.31238,-3.877347 27.052,-6.639902 20.85689,-5.709224 34.67435,-8.441933 50.32356,-12.964022 4.85163,-1.405949 10.54912,-3.437818 12.66109,-4.515264 2.11197,-1.077447 6.69191,-3.047071 10.17765,-4.376944 3.48573,-1.329872 7.6877,-3.138088 9.3377,-4.018257 2.95257,-1.342562 6.26241,-3.446583 9.25,-4.466322 5.45829,-1.827393 12.76047,-4.883802 20.90476,-8.74992 C 615.58988,40.528374 619.32473,39 619.95442,39 c 0.6297,0 2.52708,-0.714751 4.2164,-1.588336 6.84495,-3.53966 22.11787,-6.817166 33.43934,-7.175945 15.49216,-0.490948 26.18452,1.515699 36.40256,6.83171 8.24669,4.290396 17.99905,12.421104 17.97197,14.983531 -0.0342,3.234673 -1.34066,3.686606 -7.98469,2.762041 -3.575,-0.497488 -9.99656,-1.267988 -14.27013,-1.712222 -18.78104,-2.306861 -54.43281,8.279542 -68.92654,17.839284 -1.35652,1.067034 -4.85099,2.846138 -7.7655,3.953563 -2.9145,1.107425 -7.0039,3.141684 -9.08754,4.520576 -2.08365,1.378891 -4.96269,2.80179 -6.39787,3.161998 -14.92326,8.561872 -25.53364,9.760533 -34.12469,14.229192 -26.15425,13.110698 -40.07153,18.546868 -51.37775,20.068448 -8.65933,1.16537 -11.0692,1.18568 -24.54998,0.20697 z"
         style="fill:#191413" />
      <path
         sodipodi:nodetypes="ssccssccsssssssccssccsss"
         inkscape:connector-curvature="0"
         id="path3051-1"
         d="m 336.10291,115.55345 c 13.86108,-0.94754 23.90536,-7.45537 23.89004,-15.47869 -0.0131,-6.827745 -1.9223,-10.317105 -7.37315,-13.475105 -5.27516,-3.05623 -8.8281,-3.87735 -28.73037,-6.63991 -22.15091,-5.70922 -36.82564,-8.44193 -53.44576,-12.96402 -5.15264,-1.40595 -11.20362,-3.43782 -13.44662,-4.51526 -2.243,-1.07745 -7.10709,-3.04707 -10.80909,-4.37695 -3.702,-1.32987 -8.16467,-3.13809 -9.91704,-4.018253 -3.13576,-1.34257 -6.65095,-3.44659 -9.8239,-4.46633 -5.79692,-1.82739 -13.55215,-4.8838 -22.20174,-8.74992 -4.17927,-1.86801 -8.14582,-3.39638 -8.81458,-3.39638 -0.66877,0 -2.68387,-0.71475 -4.478,-1.58834 -7.26964,-3.53966 -23.49013,-6.81716 -35.51401,-7.17594 -16.45333,-0.49095 -27.80907,1.5157 -38.66106,6.83171 -8.75833,4.29039 -19.115758,12.4211 -19.086986,14.98353 0.03634,3.23467 1.423831,3.6866 8.480076,2.76204 3.79681,-0.49749 10.61677,-1.26799 15.15549,-1.71222 19.94626,-2.30686 57.80995,8.279543 73.20291,17.839283 1.44069,1.06704 5.15196,2.84614 8.24729,3.95356 3.09532,1.10743 7.43843,3.14169 9.65135,4.52058 2.21292,1.37889 5.27059,2.80179 6.79482,3.162 15.84913,8.56187 27.1178,9.76053 36.24186,14.22919 27.77692,13.110705 42.55766,18.546875 54.56535,20.068455 9.19659,1.16537 11.75597,1.18568 26.07312,0.20697 z"
         style="fill:#191413" />
    </g>
  </g>
</svg>
