<?xml version="1.0" encoding="UTF-8" standalone="no"?>
<!-- Created with Inkscape (http://www.inkscape.org/) -->

<svg
   xmlns:dc="http://purl.org/dc/elements/1.1/"
   xmlns:cc="http://creativecommons.org/ns#"
   xmlns:rdf="http://www.w3.org/1999/02/22-rdf-syntax-ns#"
   xmlns:svg="http://www.w3.org/2000/svg"
   xmlns="http://www.w3.org/2000/svg"
   xmlns:sodipodi="http://sodipodi.sourceforge.net/DTD/sodipodi-0.dtd"
   xmlns:inkscape="http://www.inkscape.org/namespaces/inkscape"
   id="svg2985"
   version="1.1"
   inkscape:version="0.48.2 r9819"
   width="1024"
   height="1024"
   sodipodi:docname="Gandalf Torso (Back).svg"
   inkscape:export-filename="G:\LEGO Textures Scans\Complete\Lord of the Rings\Gandalf the Gray (Lord of the Rings)\Gandalf Torso (Back).png"
   inkscape:export-xdpi="90"
   inkscape:export-ydpi="90">
  <metadata
     id="metadata2991">
    <rdf:RDF>
      <cc:Work
         rdf:about="">
        <dc:format>image/svg+xml</dc:format>
        <dc:type
           rdf:resource="http://purl.org/dc/dcmitype/StillImage" />
        <dc:title></dc:title>
      </cc:Work>
    </rdf:RDF>
  </metadata>
  <defs
     id="defs2989" />
  <sodipodi:namedview
     pagecolor="#ffffff"
     bordercolor="#666666"
     borderopacity="1"
     objecttolerance="10"
     gridtolerance="10"
     guidetolerance="10"
     inkscape:pageopacity="0"
     inkscape:pageshadow="2"
     inkscape:window-width="1600"
     inkscape:window-height="850"
     id="namedview2987"
     showgrid="false"
     inkscape:zoom="0.32202765"
     inkscape:cx="654.14448"
     inkscape:cy="987.39038"
     inkscape:window-x="-8"
     inkscape:window-y="-8"
     inkscape:window-maximized="1"
     inkscape:current-layer="g3055" />
  <g
     id="g3055"
     transform="translate(2.2171987,655.1086)">
    <g
       id="g3170"
       transform="matrix(0.52931254,0,0,0.52931254,3.323029,233.81208)">
      <g
         transform="matrix(5.8260317,0,0,5.8260317,-109.34666,-1634.7868)"
         id="g3067">
        <g
           id="g3063">
          <path
             inkscape:connector-curvature="0"
             id="path3059"
             d="m 334.5,317.48691 c -1.65,-1.82642 -4.68721,-4.02939 -6.74935,-4.89548 -2.06214,-0.86609 -4.76214,-2.74279 -6,-4.17044 -1.23786,-1.42765 -3.76811,-3.23141 -5.62277,-4.00836 -4.11781,-1.72501 -13.28493,-1.85558 -14.92788,-0.21263 -0.75737,0.75737 -1.2,0.80898 -1.2,0.1399 0,-1.85974 -10.46137,-2.22207 -22.16147,-0.76756 -6.23619,0.77526 -13.4712,1.41363 -16.0778,1.41861 -2.6066,0.005 -6.91498,0.83575 -9.57417,1.84617 -3.50733,1.33267 -5.50099,1.58156 -7.26073,0.9064 -4.07037,-1.56168 -50.1144,0.55814 -50.75916,2.3369 -0.18334,0.50577 -1.30834,0.92647 -2.5,0.93489 -1.19167,0.008 -2.76113,0.39223 -3.48769,0.85291 -0.76788,0.48688 -4.11768,0.11027 -8,-0.89942 -3.67344,-0.95536 -12.56703,-2.01217 -19.76353,-2.34847 -11.05944,-0.51681 -14.21994,-0.31336 -20.42051,1.31455 l -7.33597,1.926 -4.57949,-2.31183 c -3.61268,-1.82376 -7.00731,-2.45973 -16.07948,-3.01241 -6.325,-0.38532 -18.025,-1.33769 -26,-2.11638 -17.83752,-1.74168 -22.797846,-1.73812 -25.970973,0.0186 -2.241626,1.24104 -2.844933,1.11035 -6.5,-1.40805 C 49.563144,300.29828 47.96695,299.9124 28.25,296.91972 L 21,295.8193 l 0,-8.48108 c 0,-6.2054 0.402486,-8.88356 1.5,-9.98108 0.860169,-0.86017 1.550468,-3.49566 1.618315,-6.17857 0.294119,-11.63046 1.126193,-12.24176 13.253355,-9.73683 C 41.520877,262.29878 46.710118,263 48.903316,263 l 3.987632,0 -0.07378,-7.75 c -0.0795,-8.35056 1.084136,-28.28129 1.710326,-29.29449 0.210255,-0.3402 1.071123,-7.83332 1.91304,-16.65139 1.431396,-14.99216 5.473245,-35.19947 9.261708,-46.30412 0.844371,-2.475 1.710705,-5.85 1.925187,-7.5 0.214481,-1.65 0.836052,-3.15 1.381268,-3.33333 C 69.553914,151.98333 70,150.97083 70,149.91667 70,148.8625 70.498145,148 71.106989,148 c 0.608844,0 0.86023,0.64304 0.558635,1.42899 -0.301594,0.78594 -0.8348,3.14844 -1.184902,5.25 -0.350102,2.10155 -0.894092,4.49601 -1.208867,5.32101 -0.314775,0.825 -0.739653,2.4 -0.944172,3.5 -0.204519,1.1 -1.220859,6.5 -2.258534,12 -2.358223,12.49932 -4.852941,29.13126 -5.549835,37 -1.163119,13.13294 -1.584293,49.51007 -0.594638,51.35926 1.023052,1.91159 1.105067,1.92885 24.575324,5.17273 3.85,0.53211 12.85,1.40253 20,1.93426 7.15,0.53172 16.6,1.2471 21,1.58972 14.01855,1.09161 62.6481,1.96766 72.5,1.30608 5.225,-0.35088 15.35,-0.90381 22.5,-1.22874 23.86733,-1.08465 41.75538,-2.70324 44.23533,-4.00262 l 2.45514,-1.28638 -2.92216,-2.92215 c -1.60719,-1.60719 -2.88754,-3.3661 -2.84523,-3.90869 0.0423,-0.54258 -1.24018,-1.61779 -2.84997,-2.38934 -2.80507,-1.34444 -6.9602,-5.20651 -8.43297,-7.83819 -0.38398,-0.68615 -2.1476,-1.53743 -3.91915,-1.89174 C 243.14272,247.77854 243,247.88847 243,250.875 c 0,1.71875 -0.45,3.125 -1,3.125 -0.55,0 -1.017,-1.0125 -1.03777,-2.25 -0.11514,-6.85929 -1.18171,-10.32943 -3.76512,-12.25 -1.47964,-1.1 -4.81656,-4.025 -7.41538,-6.5 -2.59882,-2.475 -6.08294,-5.625 -7.74249,-7 -1.65955,-1.375 -3.2751,-3.27959 -3.59011,-4.23241 -0.31501,-0.95283 -2.11283,-2.46324 -3.99517,-3.35646 -1.88234,-0.89323 -4.41735,-3.26365 -5.63336,-5.26759 -1.216,-2.00395 -2.91059,-4.06341 -3.76576,-4.57659 -0.85516,-0.51318 -2.85215,-2.22587 -4.43775,-3.80599 -5.41547,-5.39673 -6.13449,-3.34129 -7.07989,20.23904 -0.76204,19.00704 -5.57468,37 -9.89652,37 -4.61949,0 -8.50682,-13.26481 -8.09658,-27.6281 0.15507,-5.42955 0.48866,-10.9969 0.7413,-12.3719 0.25265,-1.375 0.51678,-2.8375 0.58698,-3.25 0.0702,-0.4125 0.50762,-0.75 0.97207,-0.75 0.46444,0 1.13067,6.29206 1.4805,13.98235 0.61752,13.57496 1.67956,18.01765 4.30719,18.01765 1.52122,0 1.96348,-2.02656 3.92817,-18 3.00094,-24.39847 0.81401,-43.76659 -5.20005,-46.05313 C 181.06212,185.45332 180,184.33681 180,183.46573 c 0,-0.87107 -0.45,-1.30565 -1,-0.96573 -0.55,0.33992 -1,0.24938 -1,-0.2012 0,-1.10438 -3.96761,-5.26942 -7.74626,-8.13171 -1.69388,-1.2831 -3.59934,-3.58722 -4.23435,-5.12028 -0.63501,-1.53305 -2.26178,-3.29185 -3.61504,-3.90844 -1.35327,-0.61659 -2.721,-1.79996 -3.0394,-2.62972 C 159.04654,161.67889 158.15917,161 157.39301,161 156.62686,161 156,160.33094 156,159.51319 c 0,-0.81774 -2.24053,-3.73915 -4.97895,-6.49203 -2.73842,-2.75287 -5.24489,-6.06482 -5.56993,-7.35988 -0.32504,-1.29507 -2.58451,-4.02105 -5.02105,-6.05774 C 137.99353,137.56684 136,135.11067 136,134.14537 c 0,-0.96529 -2.025,-3.48119 -4.5,-5.59089 -2.475,-2.10969 -4.5,-4.25253 -4.5,-4.76186 0,-1.51553 -4.93158,-7.51777 -7.62883,-9.28507 -1.90371,-1.24736 -2.83354,-1.36871 -3.87362,-0.50552 -2.4974,2.07266 -6.72956,24.91135 -10.09882,54.49797 -1.32179,11.60705 -3.43247,25.86707 -3.89752,26.33212 -0.44107,0.44107 -0.9024,-3.17213 -0.64078,-5.01867 0.0535,-0.3776 0.13461,-5.3276 0.18024,-11 0.0456,-5.6724 0.49411,-14.13845 0.99661,-18.81345 0.5025,-4.675 1.18899,-11.64408 1.52554,-15.48684 0.33654,-3.84276 0.83985,-7.35567 1.11846,-7.80647 0.27861,-0.4508 0.90784,-3.38172 1.39828,-6.51316 0.49045,-3.13144 1.08951,-6.81853 1.33125,-8.19353 2.4771,-14.08972 2.73779,-20.04403 1.06888,-24.413999 -0.93627,-2.451598 -2.25866,-4.670942 -2.93864,-4.931875 C 104.15949,92.123973 100,83.816844 100,81.587821 c 0,-0.788686 -1.259722,-2.70609 -2.799383,-4.260898 -1.827346,-1.845324 -3.2324,-4.784285 -4.046436,-8.46396 -0.685879,-3.10037 -2.126157,-6.432614 -3.200617,-7.404987 C 88.655387,60.283142 88,58.389313 88,55.812894 88,53.680472 87.325,50.32026 86.5,48.345757 84.153305,42.729325 84.498149,41 87.964816,41 89.906177,41 91.299124,41.690401 92,43 c 0.588702,1.1 1.954535,2 3.035184,2 2.340101,0 2.362324,0.275424 0.462296,5.729358 -1.153758,3.311806 -1.224251,4.776207 -0.324931,6.75 1.38678,3.043652 2.244846,3.12408 5.554581,0.520642 4.04933,-3.185206 4.63989,-2.350729 1.85836,2.625953 C 101.16347,63.170227 100,66.220099 100,67.403447 c 0,3.283856 2.91016,6.853309 5.11697,6.276215 C 106.74835,73.253048 107,73.769833 107,77.546567 107,82.949794 108.75365,87 111.09313,87 c 0.97465,0 2.0579,-0.900478 2.40721,-2.001061 0.34931,-1.100584 1.47646,-2.451341 2.50479,-3.001683 1.70985,-0.915086 1.82039,-0.67992 1.29317,2.751061 -0.31708,2.063426 -0.96391,4.509599 -1.43741,5.435942 -1.19041,2.328929 -1.07639,5.248657 0.32508,8.324548 0.95696,2.100303 1.77082,2.543853 4.21485,2.297053 2.93403,-0.29628 3.03367,-0.16995 3.18119,4.03352 0.10522,2.99809 0.82938,5.00721 2.34282,6.5 2.18257,2.15279 2.1959,2.15337 3.67639,0.16062 4.82775,-6.49817 4.52852,-6.61684 3.91668,1.55326 -0.52136,6.96194 -0.38642,7.72163 1.72368,9.70397 1.62788,1.52931 2.71826,1.87951 3.77388,1.21206 2.34544,-1.483 2.57868,-1.22096 2.83892,3.18967 0.47292,8.01505 4.19129,10.41947 7.48655,4.84104 0.97468,-1.65 2.22446,-3 2.77729,-3 0.96088,0 0.55307,5.19061 -0.73252,9.32372 -1.4117,4.53851 3.90796,10.33731 7.07326,7.71034 1.63468,-1.35666 2.06726,-0.64915 2.42481,3.96594 0.2652,3.42312 3.82287,9.97961 5.42246,9.99317 0.44343,0.004 1.79343,-2.13067 3,-4.74317 l 2.19377,-4.75 0.5,8.1019 c 0.57621,9.33674 1.93351,11.79125 6.0236,10.89292 2.53719,-0.55726 2.74673,-0.33258 3.37934,3.62359 0.63019,3.94094 2.74921,6.77606 5.11966,6.84979 0.56242,0.0175 1.87781,-1.55624 2.92307,-3.49718 2.49627,-4.6353 3.66057,-2.78084 2.88896,4.60147 -0.54556,5.21964 -0.4046,5.72731 2.14762,7.73489 2.03492,1.60067 3.18878,1.90386 4.52466,1.18892 1.9918,-1.06598 2.99309,0.41618 2.99309,4.4305 0,2.08765 1.71579,4.25673 4.71166,5.95642 0.76807,0.43576 2.04941,-0.88143 3.5,-3.5979 L 212.5,192.5 l 0.56084,7.5 c 0.6414,8.57722 1.34995,10.6143 4.22764,12.15439 1.62694,0.87071 2.30012,0.76114 3.2426,-0.52778 1.82178,-2.49143 2.28735,-2.02019 3.05382,3.09099 0.72815,4.85566 1.68807,6.42995 4.59032,7.52827 1.24852,0.47249 2.18075,-0.38779 3.65992,-3.37745 1.76099,-3.55928 2.05964,-3.77531 2.64956,-1.91662 0.36568,1.15215 0.554,3.77183 0.4185,5.82151 -0.31844,4.81659 0.58202,7.42411 3.10866,9.00202 1.49131,0.93134 2.56578,0.98589 4.02601,0.2044 1.4981,-0.80175 2.08479,-0.74545 2.36694,0.22715 1.96265,6.76529 3.36738,9.32182 5.27407,9.59848 1.53338,0.22249 2.47149,-0.52379 3.45691,-2.75 2.01351,-4.54884 2.86421,-3.73102 2.86421,2.75351 0,3.19488 0.5625,6.507 1.25,7.36026 1.62839,2.02103 4.52597,3.00237 5.27699,1.7872 0.86948,-1.40685 3.60079,-1.16531 3.3208,0.29367 -0.63652,3.31676 3.19715,9.75 5.81017,9.75 0.74139,0 2.1278,-1.8 3.08091,-4 0.95311,-2.2 2.07678,-4 2.49703,-4 0.42026,0 0.7641,2.72235 0.7641,6.04966 0,9.1824 4.40934,15.34529 8.53141,11.92427 1.17239,-0.97299 1.61883,-0.66743 2.43615,1.66738 2.05585,5.8729 3.5738,7.85869 6.00722,7.85869 1.86611,0 2.5849,-0.72095 3.24024,-3.25 1.20241,-4.64023 2.78498,-4.01471 2.78498,1.10078 0,6.34969 1.73788,10.54533 4.67314,11.28203 1.36031,0.34142 2.98034,0.11371 3.60008,-0.50603 1.7737,-1.7737 2.51868,-1.35072 3.21647,1.82626 0.76104,3.46499 4.1192,8.04696 5.89768,8.04696 0.68321,0 2.01984,-1.63071 2.97028,-3.62381 0.95044,-1.99309 2.04376,-3.30811 2.42961,-2.92227 0.38584,0.38585 0.92905,3.23908 1.20714,6.34053 0.43475,4.84878 0.88923,5.8536 3.24325,7.17053 2.14532,1.20016 3.13978,1.28041 4.59619,0.37086 1.63169,-1.01901 2.06949,-0.68256 3.58674,2.75637 1.82641,4.13965 4.79093,6.42434 7.15756,5.51618 1.06073,-0.40704 1.42186,0.33535 1.42186,2.92299 0,3.35861 -0.11893,3.46557 -3.75,3.37247 -2.91052,-0.0746 -4.42158,-0.83955 -6.75,-3.41694 z m 0,-17.18612 c 0.55,-0.52715 2.21973,-1.87377 3.71052,-2.99249 2.34302,-1.75825 2.53526,-2.27371 1.41787,-3.80183 -0.83532,-1.14237 -3.10346,-1.94179 -6.41102,-2.25961 -4.93378,-0.47407 -5.09902,-0.58859 -4.58167,-3.17535 0.86963,-4.34815 -1.46431,-5.44878 -10.15988,-4.79113 -4.1117,0.31096 -7.47582,0.24712 -7.47582,-0.14189 0,-0.389 1.35,-1.50474 3,-2.47942 1.65,-0.97468 3,-2.17118 3,-2.6589 0,-1.63012 -4.41015,-3.99999 -7.47251,-4.01548 -4.16253,-0.0211 -5.36488,-1.0236 -5.01453,-4.18122 0.47167,-4.25103 -3.27379,-6.14366 -10.49869,-5.30513 -6.85211,0.79528 -8.23174,-0.38788 -3.4531,-2.96135 3.98613,-2.14667 4.16001,-2.81581 1.43883,-5.53699 -1.32335,-1.32335 -3.33333,-2 -5.94098,-2 -4.24826,0 -5.87166,-1.31591 -4.16312,-3.37457 0.78697,-0.94824 0.5143,-1.88138 -1.03599,-3.54543 -1.93428,-2.0762 -2.65914,-2.20272 -8.982,-1.56774 -7.64496,0.76775 -8.81215,-0.21946 -3.34298,-2.82753 2.995,-1.42821 3.38088,-1.97352 2.52638,-3.57018 -0.86349,-1.61344 -2.0593,-2.21173 -7.31131,-3.65802 -0.4125,-0.11359 -1.66583,-0.26278 -2.78518,-0.33153 -1.69273,-0.10397 -1.861,-0.45048 -1,-2.05926 1.52465,-2.84885 1.31936,-3.46666 -1.75554,-5.28305 -1.94349,-1.14804 -4.05415,-1.47906 -6.95235,-1.09033 -2.28889,0.30701 -4.97056,0.24017 -5.95927,-0.14852 -1.49903,-0.58931 -1.1747,-1.02939 1.95234,-2.64916 2.0625,-1.06835 3.75,-2.31196 3.75,-2.76358 0,-1.71196 -3.6505,-3.98881 -7.5,-4.67783 -5.20233,-0.93115 -5.82932,-1.35153 -4.46594,-2.99431 1.53406,-1.84842 0.39979,-4.94467 -2.50981,-6.85111 -1.86285,-1.22059 -3.41317,-1.38138 -6.9494,-0.72074 -3.06628,0.57285 -5.05419,0.48287 -6.09161,-0.27571 -1.30709,-0.95576 -1.0064,-1.41339 1.9884,-3.02619 1.9406,-1.04508 3.52836,-2.27929 3.52836,-2.74268 0,-1.84952 -4.16004,-4.84342 -6.75,-4.85784 -1.5125,-0.008 -3.39606,-0.42413 -4.1857,-0.92379 -1.23388,-0.78076 -1.23845,-1.14614 -0.0325,-2.59922 1.23844,-1.49222 1.06246,-1.98385 -1.4987,-4.18687 -2.36486,-2.03416 -3.65431,-2.40675 -6.9675,-2.01327 -2.23608,0.26557 -5.09844,0.20286 -6.3608,-0.13935 -2.18185,-0.59146 -2.12011,-0.7164 1.25,-2.52966 1.94986,-1.04911 3.5452,-2.45651 3.5452,-3.12756 0,-1.93864 -2.79671,-3.74676 -6.8024,-4.39787 -3.39863,-0.55243 -3.6976,-0.86895 -3.6976,-3.91467 0,-4.63815 -2.50832,-6.15243 -10.19113,-6.15243 -6.86647,0 -8.00029,-0.92309 -3.30887,-2.6939 1.97634,-0.74598 3,-1.8251 3,-3.16253 C 187,157.09852 183.59194,154 181.34259,154 c -0.66681,0 -2.39804,-0.45078 -3.84718,-1.00174 -2.39401,-0.91021 -2.49134,-1.14519 -1.0651,-2.57143 2.01368,-2.01368 1.97554,-2.65286 -0.3159,-5.29492 -1.45085,-1.67284 -3.2894,-2.26725 -7.97432,-2.57812 -7.85235,-0.52104 -9.57358,-1.56105 -5.08484,-3.07239 2.63242,-0.88633 3.44475,-1.7193 3.44475,-3.53227 0,-2.35586 -1.29991,-3.33218 -7.8138,-5.86869 -2.55065,-0.99323 -2.66774,-1.24176 -1.25198,-2.65752 1.19791,-1.19791 1.31404,-2.02479 0.49838,-3.54885 -1.3093,-2.44646 -1.95503,-2.67472 -9.35058,-3.30537 -3.25489,-0.27756 -6.38239,-0.96907 -6.95,-1.53668 C 140.92266,118.32266 141.11679,118 142.25295,118 145.11739,118 149,115.74424 149,114.08003 c 0,-1.79286 -3.00303,-4.02315 -7.5,-5.57009 -2.33974,-0.80486 -2.92879,-1.53868 -2.67643,-3.33421 0.59602,-4.24064 -2.17626,-6.864408 -8.02506,-7.595167 -7.14998,-0.893331 -9.01733,-2.12933 -4.49791,-2.977177 1.92414,-0.360971 4.02376,-1.289287 4.66582,-2.062925 1.71416,-2.065437 -1.25341,-6.081184 -6.06152,-8.202517 -4.18364,-1.845821 -4.79297,-2.783181 -2.4049,-3.69957 3.78855,-1.453802 0.49113,-7.335751 -4.60771,-8.219268 C 113.21005,71.607778 109,69.931566 109,68.87868 109,68.395406 110.8,68 113,68 c 2.96353,0 4,-0.40571 4,-1.565741 0,-2.676027 -1.93456,-5.349059 -5.02964,-6.949589 C 108.76761,57.828468 108.03094,56 110.56642,56 c 1.11887,0 1.47602,-0.785726 1.25,-2.75 -0.23667,-2.056859 -1.69464,-3.670991 -5.78441,-6.40398 -3.0074,-2.00969 -5.6324,-4.14719 -5.83334,-4.75 C 99.955386,41.366157 102.34353,41 107.34712,41 c 7.03072,0 7.53432,0.144652 7.83333,2.25 0.28792,2.027295 1.21037,2.378065 9.31955,3.543851 4.95,0.711618 11.65926,1.756581 14.90946,2.322139 11.25489,1.958432 47.67535,2.233934 68.59054,0.518852 19.67708,-1.613555 47.21752,-6.06564 47.83333,-7.732559 0.18334,-0.496256 4.45834,-0.895392 9.5,-0.88697 11.07837,0.01851 10.55851,0.500259 -6.51645,6.038779 -9.76144,3.166271 -13.46238,4.870774 -16.06595,7.399329 -3.1246,3.034569 -3.72537,3.233387 -7.8698,2.60442 -8.06582,-1.224085 -28.03441,-0.22012 -40.51359,2.036909 -11.84784,2.142844 -12.31702,2.153762 -20,0.465425 -12.92249,-2.839722 -16.48206,-3.42441 -24.86754,-4.084687 -4.4,-0.346459 -9.575,-0.925335 -11.5,-1.286393 -1.925,-0.361057 -6.86722,-0.663809 -10.9827,-0.672782 -6.28715,-0.01371 -7.53619,0.258412 -7.81744,1.703116 -0.1841,0.945685 0.57321,2.693996 1.68293,3.885134 1.10971,1.191138 2.32541,3.5669 2.70156,5.27947 0.37614,1.712571 1.69348,4.01426 2.92741,5.114866 2.52545,2.252576 4.48824,5.661682 4.48824,7.795481 0,0.784224 1.57428,3.09508 3.49839,5.135236 1.92411,2.040156 3.78494,4.915601 4.13516,6.389879 0.35022,1.474278 1.87756,3.924098 3.39409,5.444046 1.51653,1.519947 3.45137,4.22613 4.29965,6.013739 0.84828,1.78761 2.88855,4.24551 4.53394,5.462 1.6454,1.2165 3.56513,3.79781 4.26609,5.73626 0.70095,1.93845 1.81244,3.52446 2.46998,3.52446 1.56371,0 7.4027,6.66761 7.4027,8.45324 0,0.761 1.62663,2.38895 3.61473,3.61767 1.99156,1.23085 4.24947,3.75316 5.02825,5.61705 0.77744,1.86066 2.43704,3.77217 3.68802,4.24779 1.25098,0.47562 3.37577,2.48157 4.72175,4.45767 4.63936,6.81125 5.29,5.22896 4.58218,-11.14342 -1.7658,-40.844512 -1.80297,-39.857042 0.83735,-22.25 0.59342,3.95721 2.10659,21.19441 2.99832,34.15521 0.67965,9.8783 3.6758,17.12332 7.30219,17.65751 1.21707,0.17928 3.29278,2.16186 4.86457,4.64633 1.50791,2.38349 4.02353,5.09085 5.59028,6.01635 1.56674,0.9255 3.98946,3.40664 5.38382,5.51366 1.39435,2.10701 3.60819,4.10024 4.91964,4.42939 1.31145,0.32915 3.74994,2.58313 5.41887,5.00883 2.08054,3.02396 4.00241,4.62299 6.11373,5.08671 1.69362,0.37198 3.28574,0.4699 3.53804,0.2176 0.40346,-0.40345 -0.8819,-10.68229 -2.21731,-17.73159 -4.587,-24.21361 -6.92085,-61.96836 -4.08126,-66.02245 1.56568,-2.23532 1.19929,-4.194 3.65184,19.52245 1.20616,11.66376 1.86325,17.64063 2.47362,22.5 0.24179,1.925 1.15448,9.575 2.02819,17 0.87372,7.425 1.77709,15.075 2.00749,17 0.2304,1.925 0.70816,6.25901 1.06169,9.63113 0.5391,5.14215 1.19373,6.71525 4.05839,9.75232 1.87859,1.99165 3.41561,4.29515 3.41561,5.11887 0,0.82372 0.38812,1.49768 0.8625,1.49768 0.47437,0 2.56124,1.35 4.6375,3 2.07626,1.65 3.47776,3 3.11445,3 -1.76645,0 3.149,5.34883 6.47457,7.04541 2.08092,1.06161 4.58421,3.28569 5.56285,4.9424 0.97864,1.6567 2.39651,3.01219 3.15083,3.01219 0.75431,0 3.86632,2.475 6.91556,5.5 3.04925,3.025 6.05773,5.5 6.68552,5.5 0.62779,0 2.69609,1.8 4.59622,4 1.90013,2.2 4.17372,4 5.05243,4 1.60027,0 3.45476,1.57775 6.70842,5.70736 0.95653,1.21405 2.91543,2.48496 4.3531,2.82426 3.69092,0.87107 3.98764,-0.97953 3.37211,-21.03162 -0.49372,-16.08417 -0.71385,-19.0878 -2.01539,-27.5 -0.29784,-1.925 -1.19699,-7.775 -1.99811,-13 -2.39351,-15.6106 -4.52667,-26.90326 -7.46147,-39.5 -2.23119,-9.57672 -3.37733,-16.18711 -2.68744,-15.5 0.78174,0.77861 8.51363,24.30332 8.89077,27.05067 0.18492,1.34713 0.64755,2.94495 1.02806,3.5507 1.1564,1.84093 5.65005,25.73863 7.21165,38.35235 1.82273,14.72284 3.04852,33.07948 2.89119,43.29628 -0.1133,7.35787 -0.008,7.75 2.08401,7.75 2.59253,0 11.9124,-1.52274 19.28583,-3.15103 5.75333,-1.27053 8.28484,-0.27029 8.28484,3.27347 0,1.03266 0.45,1.87756 1,1.87756 1.2815,0 1.36263,35.65785 0.0829,36.44875 -1.72548,1.0664 -10.63288,1.85838 -9.58293,0.85204 z M 133.64352,255.5 c 0.24992,-6.6 0.66093,-13.22127 0.91335,-14.71394 0.74544,-4.4081 1.42294,-14.33116 2.03365,-29.78606 0.31514,-7.975 0.83063,-15.175 1.14553,-16 0.31491,-0.825 0.72519,-3.3 0.91175,-5.5 0.44786,-5.2816 3.36983,-14.5 4.59608,-14.5 0.53355,0 0.69396,0.71961 0.35645,1.59914 -1.46624,3.82096 -2.63607,21.12972 -2.42641,35.90086 0.33855,23.85115 -1.86432,42.84751 -5.68702,49.04168 -0.69301,1.12293 -1.49352,2.92293 -1.77891,4 -0.28539,1.07708 -0.3144,-3.44168 -0.0645,-10.04168 z M 267.59973,194.32707 C 267.2219,192.22218 266.27938,186.45 265.50526,181.5 c -0.77413,-4.95 -2.12226,-13.5 -2.99583,-19 -0.87358,-5.5 -1.83646,-12.25 -2.13974,-15 -0.30328,-2.75 -0.75051,-6.35 -0.99383,-8 -0.24332,-1.65 -0.47722,-3.675 -0.51977,-4.5 -0.0426,-0.825 -0.44916,-3.3 -0.90358,-5.5 -0.87199,-4.22155 -1.71195,-10.04509 -2.52411,-17.5 -0.26964,-2.475 -0.8885,-5.85 -1.37526,-7.5 -0.48675,-1.65 -1.42126,-6.15 -2.07668,-10 -0.65542,-3.85 -1.79367,-9.7 -2.52944,-13 -0.73578,-3.3 -1.62374,-7.8 -1.97325,-10 -0.60858,-3.830817 -0.5761,-3.894261 0.76803,-1.5 0.77191,1.375 1.92295,3.4 2.55785,4.5 0.98055,1.698847 2.96434,8.104337 3.76813,12.166981 0.12698,0.64184 0.76456,3.56684 1.41683,6.5 0.65227,2.933161 1.38857,6.683019 1.63622,8.333019 0.24765,1.65 1.5385,8.625 2.86854,15.5 2.13848,11.05379 5.28053,34.15396 5.98481,44 0.13769,1.925 0.52046,4.85 0.85058,6.5 0.33012,1.65 0.85743,7.275 1.1718,12.5 0.31437,5.225 0.7489,10.87579 0.96562,12.55731 0.60847,4.72116 -1.04981,6.29692 -1.86245,1.76976 z M 45.161842,168.25 c 1.368372,-7.19294 1.741002,-9.87816 2.879489,-20.75 0.575953,-5.5 1.468545,-11.125 1.983537,-12.5 0.514992,-1.375 0.795725,-3.35879 0.623851,-4.40843 -0.171874,-1.04964 0.293189,-4.42464 1.033474,-7.5 1.254875,-5.21313 2.020546,-10.62197 2.702582,-19.09157 0.155016,-1.925 0.78483,-5.975 1.399587,-9 0.614757,-3.025 1.326958,-7.075 1.582667,-9 0.486154,-3.659793 3.397084,-13.775967 4.460128,-15.5 0.339131,-0.55 0.713037,-1.638118 0.830902,-2.418041 0.117865,-0.779922 1.143019,-2.6742 2.27812,-4.209507 C 66.071281,62.337145 67,60.713051 67,60.263354 67,58.979031 72.406947,53.38776 74.981222,52.01005 l 2.3275,-1.24564 -2.061054,3.367795 C 73.15684,57.548652 66.627504,70.083681 66.46145,71 c -0.262295,1.447394 -2.793027,9.773718 -3.49535,11.5 -0.447526,1.1 -1.095959,5.15 -1.440962,9 -0.345003,3.85 -1.030923,8.8 -1.524267,11 -2.580565,11.50769 -4.551838,23.42496 -5.458633,33 -1.010505,10.67014 -4.174759,25.87871 -6.386346,30.69514 C 46.970151,168.77746 46,171.36496 46,171.94514 46,172.52531 45.608097,173 45.129105,173 c -0.489931,0 -0.475611,-2.07783 0.03274,-4.75 z m 269.124088,0.5 c -2.70957,-5.79502 -8.59771,-43.70883 -8.35395,-53.79123 0.0471,-1.94768 -0.3696,-5.77268 -0.92598,-8.5 -1.3922,-6.824462 -4.1066,-23.237359 -4.51875,-27.323178 -0.18666,-1.850425 -0.78361,-4.550425 -1.32654,-6 -0.54294,-1.449576 -1.50677,-4.868731 -2.14185,-7.598124 -0.63508,-2.729392 -2.66985,-8.241892 -4.52171,-12.25 -3.55146,-7.686688 -3.37146,-8.889053 0.71847,-4.799124 4.61168,4.611681 10.99607,19.201397 12.35442,28.232528 0.31262,2.07852 1.19399,6.540801 1.9586,9.91618 0.7646,3.375379 1.64681,8.550379 1.96047,11.5 0.31365,2.949618 0.98404,8.737948 1.48976,12.862948 0.50572,4.125 1.18909,11.55 1.51861,16.5 0.92137,13.84065 1.43549,19.80298 1.90806,22.12768 0.6768,3.3294 1.8166,21.37232 1.35012,21.37232 -0.22973,0 -0.89111,-1.0125 -1.46973,-2.25 z"
             style="fill:#471917" />
          <path
             sodipodi:nodetypes="cssssssssssssscssssssssssssssscsssscsssscsssscsssssssssssssssssssssscssssssssssssssssssssssssssssssssssssssssssssssscssssssssssssscssssscsssssssssssssssssssssssssssscsssssssccssssssccsssssssssssssssssssssssssssssssscssssssssscsssssssssscssssssssscssssssscssssssssscsssssssssscsssssssssssssssssssssssssssssssscssssssssssssssssscssssssccsssssssscsscssssssssssssscssssssscscsssssscscssssssssssscssssssssssssssscsssssssssss"
             inkscape:connector-curvature="0"
             id="path3057"
             d="m 334.5,317.48691 c -1.65,-1.82642 -4.68721,-4.02939 -6.74935,-4.89548 -2.06214,-0.86609 -4.76214,-2.74279 -6,-4.17044 -1.23786,-1.42765 -3.76811,-3.23141 -5.62277,-4.00836 -4.11781,-1.72501 -13.28493,-1.85558 -14.92788,-0.21263 -0.75737,0.75737 -1.2,0.80898 -1.2,0.1399 0,-1.85974 -10.46137,-2.22207 -22.16147,-0.76756 -6.23619,0.77526 -13.4712,1.41363 -16.0778,1.41861 -2.6066,0.005 -6.91498,0.83575 -9.57417,1.84617 -3.50733,1.33267 -5.50099,1.58156 -7.26073,0.9064 -3.77417,-1.44803 -47.28084,0.37745 -51.42583,2.15776 -6.16452,2.64771 -6.93086,2.71092 -12.9243,1.066 -3.51759,-0.96542 -11.97026,-1.91735 -20.0757,-2.2609 -11.6923,-0.49558 -15.15385,-0.29196 -21,1.23534 l -7,1.82874 -4.5,-2.26662 c -3.51667,-1.77132 -7.01295,-2.4197 -16,-2.9672 -6.325,-0.38532 -18.025,-1.33769 -26,-2.11638 -17.83752,-1.74168 -22.797846,-1.73812 -25.970973,0.0186 -2.241626,1.24104 -2.844933,1.11035 -6.5,-1.40805 C 49.563144,300.29828 47.96695,299.9124 28.25,296.91972 21.618277,295.91314 21,295.61884 21,293.46867 c 0,-1.29285 0.362748,-2.57483 0.806107,-2.84884 0.712806,-0.44054 11.953427,1.04876 32.193893,4.26546 16.497031,2.62177 52.71465,5.68889 80,6.77486 16.37842,0.65187 65.53695,0.96358 78,0.49459 26.39395,-0.99321 47.27375,-2.63532 73,-5.74115 3.025,-0.3652 6.625,-0.61539 8,-0.55599 1.375,0.0594 3.175,-0.31859 4,-0.84 1.32148,-0.83517 1.29934,-1.27943 -0.18604,-3.7328 -0.97244,-1.60617 -2.63133,-2.83626 -3.91952,-2.9064 -1.22842,-0.0669 -2.76931,-0.85437 -3.42421,-1.75 -0.65489,-0.89562 -1.73016,-1.6284 -2.38949,-1.6284 -0.65933,0 -0.97918,-0.35532 -0.71078,-0.78959 0.2684,-0.43428 -0.82875,-1.67178 -2.43811,-2.75 -1.60935,-1.07823 -2.92739,-2.29791 -2.92897,-2.71041 C 281.00129,278.3375 280.19,278 279.2,278 c -0.99,0 -2.3035,-0.5035 -2.91889,-1.11889 -0.82519,-0.82519 -6.32445,-0.69089 -20.95,0.51164 -24.77891,2.03735 -31.07062,2.43335 -50.04734,3.14993 l -15.04468,0.36873 -0.83211,-2.42599 c -0.4842,-1.41168 -2.77058,-3.83647 -2.28834,-4.26044 0.48223,-0.42397 15.53136,-0.45094 30.38136,-1.10827 14.85,-0.65733 31.95,-1.84876 38,-2.64762 6.05,-0.79886 11.1125,-1.45621 11.25,-1.46078 0.1375,-0.005 0.25,-0.50738 0.25,-1.11736 0,-1.19034 -2.79739,-4.56028 -7.2844,-8.77532 -1.53142,-1.4386 -4.78635,-4.52813 -7.23317,-6.86563 -4.74923,-4.53703 -7.94332,-5.3284 -10.09038,-2.5 -1.21794,1.60443 -1.33155,1.54204 -1.36582,-0.75 -0.0635,-4.24767 -2.05128,-10 -3.45559,-10 -1.414,0 -9.57064,-7.68639 -9.57064,-9.01887 0,-0.43097 -1.59348,-1.72375 -3.54106,-2.87285 -1.94758,-1.1491 -4.31008,-3.44046 -5.25,-5.09191 -0.93992,-1.65144 -2.68685,-3.34322 -3.88208,-3.7595 C 213.1816,217.50971 207,210.53562 207,208.8625 207,208.38812 206.4,208 205.66667,208 c -0.73334,0 -2.64584,-1.3375 -4.25,-2.97222 -3.50741,-3.57422 -6.20579,-3.88132 -6.83401,-0.77778 -0.25049,1.2375 -0.71601,8.1 -1.03448,15.25 -0.70726,15.87839 -1.95036,24.82464 -4.5496,32.74234 -2.25948,6.88272 -3.53199,8.75766 -5.94377,8.75766 -4.86611,0 -9.42452,-22.94102 -7.05436,-35.50236 0.6743,-3.5737 1.6732,-6.49764 2.21977,-6.49764 0.54657,0 0.73723,0.6685 0.4237,1.48555 -0.31353,0.81705 -0.16595,7.18777 0.32795,14.15715 0.75436,10.6447 1.2214,12.99502 2.91978,14.6934 l 2.02179,2.02178 0.97722,-2.5703 c 4.26862,-11.22732 5.36921,-49.72123 1.67365,-58.53758 -0.97981,-2.3375 -2.20017,-4.25 -2.71192,-4.25 -0.51175,0 -2.60039,-1.75988 -4.64142,-3.91085 -2.04103,-2.15097 -4.23972,-4.43472 -4.88597,-5.075 -2.28729,-2.26617 -8.38986,-8.54153 -10.22465,-10.51415 -1.02314,-1.1 -3.26427,-3.23027 -4.9803,-4.73393 C 157.40402,160.26241 156,158.37909 156,157.58093 c 0,-0.79817 -1.73096,-2.69546 -3.84658,-4.21619 C 148.28851,150.58658 145,146.03058 145,143.45414 c 0,-0.76107 -1.0125,-1.90584 -2.25,-2.54392 -3.6336,-1.87356 -6.75,-5.12292 -6.75,-7.03798 0,-0.97852 -1.9125,-3.76748 -4.25,-6.19771 -2.3375,-2.43022 -5.6,-6.24093 -7.25,-8.46826 -5.79153,-7.81795 -10.80026,-7.71312 -12.00666,0.25128 -0.33678,2.22335 -1.27025,7.19245 -2.07439,11.04245 -0.80413,3.85 -2.14561,12.175 -2.98106,18.5 -1.91693,14.51271 -4.26088,32.99879 -5.00688,39.48787 -1.20798,10.5077 -1.58638,5.26549 -0.96856,-13.41827 0.35338,-10.68672 0.82756,-19.72983 1.05375,-20.09581 0.22618,-0.36597 0.66841,-3.99729 0.98273,-8.0696 0.52882,-6.85153 1.38911,-11.9831 3.50449,-20.90419 0.45646,-1.925 1.38048,-8.31708 2.05337,-14.20462 1.35884,-11.889238 0.80601,-14.695939 -4.00022,-20.309044 -1.41925,-1.657515 -3.23859,-5.032515 -4.04297,-7.5 -0.80438,-2.467485 -2.253354,-5.349934 -3.219933,-6.405442 -0.966579,-1.055508 -2.472673,-3.980508 -3.346877,-6.5 C 93.572587,68.561402 91.76443,64.408679 90.428665,61.85262 89.092899,59.296561 88,55.794608 88,54.070502 88,52.346395 87.325,49.32026 86.5,47.345757 84.313378,42.112434 84.56452,41 87.932612,41 c 2.054354,0 3.122715,0.59896 3.567388,2 0.362725,1.142846 1.513034,2 2.684019,2 1.668881,0 1.917437,0.417625 1.339123,2.25 -2.451478,7.767443 -1.732066,12.75 1.840922,12.75 1.279279,0 3.142946,-0.902759 4.141486,-2.006131 2.70737,-2.991613 3.02587,-1.589795 0.54926,2.417452 -1.55139,2.510193 -2.08483,4.743071 -1.86407,7.802599 0.27924,3.87002 0.62475,4.378959 3.55926,5.242877 3.12085,0.918774 3.25,1.160983 3.25,6.095012 0,3.956419 0.48475,5.576366 2.10761,7.043203 2.09073,1.889736 2.13175,1.876965 5.12387,-1.595012 2.74485,-3.18505 2.95944,-3.275036 2.38482,-1 -0.34729,1.375 -0.91773,5.093086 -1.26763,8.262413 -0.74978,6.791369 1.27658,10.299447 5.35758,9.275177 2.13408,-0.53562 2.29375,-0.26616 2.29375,3.87078 0,3.62191 0.49272,4.83405 2.65702,6.53648 l 2.65702,2.09002 2.56418,-3.60385 c 2.96437,-4.16631 3.78238,-3.11157 2.26386,2.91901 -0.5857,2.32601 -0.78093,5.3363 -0.43386,6.68954 0.74992,2.92398 4.09138,5.54455 6.54178,5.13045 1.27851,-0.21606 1.75,0.37721 1.75,2.20202 0,6.78269 4.24112,10.18836 7.80339,6.26621 1.06813,-1.17604 2.22233,-2.81325 2.56491,-3.63825 0.34257,-0.825 0.37268,1.45671 0.0669,5.07046 -0.61402,7.25687 0.66759,11.51 3.76453,12.49294 1.04293,0.33101 2.49083,0.10837 3.21756,-0.49477 1.05274,-0.87369 1.45653,-0.1282 1.98644,3.66738 0.67188,4.81251 3.38502,9.26399 5.64631,9.26399 1.63124,0 3.87834,-3.04478 3.91815,-5.30902 0.0175,-0.99496 0.49988,-1.51973 1.07197,-1.16615 0.64848,0.40078 0.80027,2.77655 0.40309,6.30901 -0.55263,4.91505 -0.34164,6.04069 1.59165,8.49148 1.69704,2.15129 2.78837,2.68487 4.5745,2.23658 1.95094,-0.48966 2.4537,-0.12365 2.98714,2.17468 1.69595,7.30702 5.73852,9.2714 9.28836,4.51342 l 2.05173,-2.75 0.0317,6.59501 c 0.0364,7.5746 2.01791,10.5231 6.49664,9.66694 C 200.67698,190.33909 201,190.62475 201,193.00381 201,196.13879 204.43123,201 206.64401,201 208.60253,201 211,198.56259 211,196.57143 211,195.70714 211.48238,195 212.07196,195 c 0.70554,0 0.85914,1.79452 0.44935,5.25 -0.78605,6.62828 1.74533,12.07547 5.83979,12.56642 1.45139,0.17403 2.6389,-0.16347 2.6389,-0.75 0,-0.58653 0.47656,-1.06642 1.05902,-1.06642 0.58246,0 0.82433,0.37973 0.53749,0.84385 -0.74882,1.21161 1.34405,8.23956 2.92424,9.81976 2.15664,2.15663 5.0529,1.56754 6.35618,-1.29284 1.6316,-3.58097 2.29251,-2.51907 2.67098,4.29157 0.36416,6.55293 2.23807,8.79639 6.63124,7.93892 2.36126,-0.46087 2.76244,-0.14369 3.38114,2.67324 0.92179,4.19688 3.29115,7.7255 5.18742,7.7255 0.83474,0 2.35798,-0.96885 3.38499,-2.15301 1.86606,-2.15158 1.8673,-2.15006 1.8673,2.27749 0,6.29147 2.2974,9.25122 6.63459,8.54739 3.28289,-0.53274 3.39652,-0.43394 4.48839,3.90225 0.84949,3.37362 1.6945,4.59295 3.49639,5.0452 3.49115,0.87622 5.02071,-0.0697 5.71344,-3.53337 1.10831,-5.54157 2.66719,-3.36416 2.66719,3.72549 0,8.23672 2.15495,11.48963 7.28104,10.9908 2.78627,-0.27114 3.17566,0.0315 3.78482,2.9416 0.91873,4.38897 2.66092,6.25616 5.83735,6.25616 2.04827,0 2.97624,-0.74582 4.04372,-3.25 l 1.3854,-3.25 0.58383,6.09851 c 0.32111,3.35418 1.18698,6.82425 1.92415,7.71127 1.90086,2.28729 5.00887,3.06028 6.6911,1.66415 1.16822,-0.96953 1.62469,-0.69355 2.45202,1.48248 0.55911,1.47058 1.01657,3.15739 1.01657,3.74845 0,1.45103 3.11164,3.72406 5.1518,3.76334 0.90849,0.0175 2.58841,-1.4307 3.73315,-3.2182 l 2.08136,-3.25 0.0168,4.73422 c 0.0136,3.81815 0.58582,5.36616 2.95725,8 2.62602,2.9166 3.16497,3.12851 5.04068,1.9819 2.5115,-1.53526 4.01892,-0.82697 4.01892,1.88835 0,2.85431 4.66898,7.21536 7.05642,6.59103 1.59554,-0.41725 1.94358,0.0122 1.94358,2.39812 0,2.70891 -0.25479,2.89985 -3.75,2.81023 -2.91052,-0.0746 -4.42158,-0.83955 -6.75,-3.41694 z m 1.5,-17.31793 c 0,-0.45706 1.125,-1.4331 2.5,-2.16898 3.61267,-1.93344 3.19144,-4.81315 -0.95763,-6.54674 -1.9017,-0.79458 -4.4892,-1.33412 -5.75,-1.19898 -1.91732,0.20552 -2.34362,-0.28579 -2.60563,-3.00295 -0.19769,-2.05013 -1.08158,-3.65987 -2.39581,-4.36322 -2.06534,-1.10534 -9.44693,-0.78394 -13.29093,0.57869 -1.56728,0.55557 -1.40501,0.15943 0.75,-1.83095 4.77411,-4.4094 3.22128,-6.70122 -5.5,-8.1175 -3.41748,-0.55498 -3.75279,-0.89314 -3.78142,-3.81366 -0.0463,-4.72601 -3.71326,-7.14732 -8.71889,-5.75719 -4.75864,1.32154 -7.24969,1.33222 -7.24969,0.0311 0,-0.56179 1.125,-1.53402 2.5,-2.16051 1.375,-0.6265 2.5,-1.8971 2.5,-2.82358 0,-2.18532 -3.125,-4.99069 -5.57874,-5.00812 -4.4204,-0.0314 -6.12654,-1.07725 -5.66827,-3.47452 0.62329,-3.26055 -3.37947,-5.72003 -8.9479,-5.49801 -6.84643,0.27298 -7.53773,0.0323 -4.55509,-1.58579 3.25942,-1.76827 3.4841,-3.69393 0.75,-6.42803 -1.32269,-1.32269 -3.33333,-2 -5.93713,-2 -3.93602,0 -3.93697,-9.8e-4 -3.37298,-3.47646 0.50766,-3.12832 0.27815,-3.58519 -2.29192,-4.56233 -1.60901,-0.61175 -4.89215,-0.80585 -7.51918,-0.44454 -5.47083,0.75243 -6.98714,-0.53785 -2.80667,-2.3883 4.92859,-2.18161 3.55185,-6.26259 -2.57771,-7.64092 -5.89266,-1.32506 -6.39376,-1.58618 -5.83553,-3.04088 1.9952,-5.19941 -3.39659,-9.05833 -11.05245,-7.91026 -5.21083,0.78141 -5.71888,0.12659 -2.10643,-2.71497 1.375,-1.08158 2.5,-2.59847 2.5,-3.37087 0,-1.9007 -3.69181,-4.08425 -8.25994,-4.88541 -3.29757,-0.57833 -3.63618,-0.89065 -2.75358,-2.53979 2.39419,-4.47359 -1.22849,-6.99867 -10.17074,-7.08922 l -6.31574,-0.064 3.29678,-1.63962 c 2.61743,-1.30176 3.23562,-2.16435 3,-4.18605 -0.24119,-2.06947 -1.18549,-2.82738 -5.04153,-4.04642 -3.9735,-1.25618 -4.75077,-1.90637 -4.7818,-4 -0.0689,-4.64901 -2.08905,-5.99503 -9.08369,-6.05245 -6.1008,-0.0501 -6.28801,-0.12343 -4.13976,-1.62197 2.2857,-1.59443 2.89844,-4.75468 1.38472,-7.14184 -0.45906,-0.72394 -2.58926,-1.91946 -4.73379,-2.65672 -3.45604,-1.18813 -3.86469,-1.6688 -3.59604,-4.22989 0.52741,-5.0281 -2.93861,-6.7927 -14.30489,-7.28282 -1.79814,-0.0775 -1.72245,-0.31349 0.75,-2.33784 1.5125,-1.23838 2.75,-2.95245 2.75,-3.80905 0,-2.06945 -2.88574,-4.58303 -6.84693,-5.96391 -2.53113,-0.88235 -2.97941,-1.40783 -2.10245,-2.4645 1.61368,-1.94437 0.17575,-5.40245 -2.70129,-6.49629 C 153.98559,120.42422 151.1359,120 149.01669,120 c -2.11921,0 -4.62383,-0.29575 -5.56581,-0.65722 -1.33019,-0.51044 -0.95761,-0.90129 1.66821,-1.75 2.64634,-0.85535 3.38091,-1.6351 3.38091,-3.58882 0,-1.95206 -1.03831,-3.05682 -4.76421,-5.06912 -2.62032,-1.4152 -4.48366,-2.85364 -4.14076,-3.19653 1.12574,-1.12575 -1.97793,-6.591739 -4.35886,-7.676567 -1.28165,-0.583959 -3.5466,-1.093371 -5.03322,-1.132028 C 128.71633,96.891058 126.6,96.472686 125.5,96 c -1.83841,-0.78999 -1.79801,-0.867678 0.5,-0.961518 2.8433,-0.116107 6,-2.185803 6,-3.933908 0,-2.494188 -3.31748,-6.054247 -6.67397,-7.16199 -2.53738,-0.837411 -3.20751,-1.461101 -2.41809,-2.25052 3.15272,-3.152728 -0.17343,-9.647505 -4.98668,-9.737168 C 116.58957,71.930089 114.15,71.31431 112.5,70.586498 l -3,-1.323295 3.75,-0.742892 C 116.51632,67.873237 117,67.41535 117,64.970269 117,62.840787 116.15507,61.640925 113.5,60 c -3.37617,-2.086589 -4.57205,-4 -2.5,-4 1.72237,0 1.0895,-5.609026 -0.82874,-7.345012 -1.00581,-0.910244 -2.24331,-1.671171 -2.75,-1.690951 -0.50669,-0.01978 -2.23833,-1.112632 -3.84809,-2.428561 l -2.92682,-2.392598 4.04718,0.542841 c 2.464,0.330491 4.31657,0.106955 4.73584,-0.571439 C 109.80814,41.501426 111.18518,41 112.48947,41 c 1.69791,0 2.46218,0.639029 2.69098,2.25 0.28792,2.027295 1.21037,2.378065 9.31955,3.543851 4.95,0.711618 11.65926,1.756581 14.90946,2.322139 11.26496,1.960184 47.67559,2.233907 68.62747,0.51592 19.09081,-1.565386 44.45151,-5.579777 48.48364,-7.674564 1.11132,-0.577354 5.57042,-0.916447 9.90912,-0.75354 L 274.31824,41.5 259.80617,46.288668 c -13.54786,4.470502 -17.47675,6.51337 -19.50829,10.143539 -0.67112,1.199225 -1.6278,1.273678 -5.30827,0.413109 -6.10186,-1.42674 -27.54928,-0.309077 -42.27203,2.20287 -9.38598,1.601403 -12.58386,1.792681 -15.51975,0.928294 C 172.59769,58.6221 163.93315,57.013592 158,56.412544 c -2.475,-0.250726 -9.9,-1.157773 -16.5,-2.01566 -20.47597,-2.661528 -25.4397,-1.334058 -20.57221,5.501705 1.13972,1.600584 2.07221,3.564856 2.07221,4.365051 0,0.800194 1.57063,3.430727 3.49029,5.845629 1.91967,2.414902 3.49467,5.135655 3.5,6.046117 0.005,0.910463 1.6107,3.571642 3.56746,5.913732 1.95676,2.34209 3.8191,5.565142 4.13854,7.162339 0.31944,1.597196 1.66938,3.617257 2.99986,4.489023 1.33048,0.871766 3.30666,3.324865 4.3915,5.451331 1.08484,2.126469 3.35521,5.095229 5.04526,6.597249 1.69005,1.50202 3.88575,4.32057 4.87933,6.26346 0.99358,1.94288 2.85979,4.09659 4.14713,4.78602 1.28735,0.68943 3.3513,3.01078 4.58657,5.15855 1.23527,2.14778 3.58462,4.69582 5.22079,5.66233 1.63616,0.9665 3.64491,3.43196 4.46389,5.4788 0.81898,2.04683 2.39544,4.00919 3.50324,4.36079 1.1078,0.3516 3.02356,2.07516 4.25725,3.83013 3.77003,5.36303 4.71721,6.09335 5.44453,4.19799 0.57556,-1.49989 -0.0347,-26.19363 -1.09989,-44.50713 -0.23992,-4.125 0.41349,-0.525 1.45205,8 1.03855,8.525 2.17698,20.675 2.52985,27 0.35286,6.325 1.05023,13.075 1.54971,15 1.31808,5.07992 4.62286,10 6.71691,10 1.03191,0 2.87016,1.70291 4.2647,3.95071 1.34807,2.17289 3.87718,4.73064 5.62025,5.6839 1.74306,0.95325 4.10717,3.40205 5.25355,5.44177 1.20261,2.13976 3.12139,3.96887 4.53582,4.32387 1.34831,0.33841 3.70655,2.29929 5.24053,4.35752 3.09294,4.14997 4.69165,5.41589 8.10944,6.42141 1.61209,0.47428 2.48593,0.21696 2.89648,-0.85292 0.32336,-0.84265 -0.66784,-9.02328 -2.20267,-18.17917 -5.01056,-29.89028 -6.15695,-43.4476 -4.14524,-49.02232 0.59768,-1.65624 0.52384,-2.16924 -0.24394,-1.69472 -0.76864,0.47504 -1.03709,-1.44265 -0.88913,-6.35144 0.29128,-9.66385 2.2875,-10.1279 3.20518,-0.7451 0.3855,3.94157 0.91975,9.41649 1.18721,12.16649 0.86123,8.85485 3.29973,30.5547 5.33777,47.5 1.09146,9.075 1.99827,18.1385 2.01513,20.14112 0.0231,2.74797 1.01183,4.82847 4.03065,8.48167 2.2,2.6623 4,5.4113 4,6.10888 0,0.69758 0.58672,1.26833 1.30383,1.26833 1.56175,0 7.69617,6.13218 7.69617,7.69336 0,0.60398 2.26901,2.55417 5.04225,4.33375 2.77323,1.77958 5.67868,4.46633 6.45654,5.97055 0.8536,1.65068 2.52259,2.95662 4.20982,3.29406 1.71782,0.34357 3.95126,2.12079 5.79346,4.61006 1.64886,2.22802 3.64148,4.06158 4.42804,4.07458 0.78656,0.013 3.26156,1.96255 5.5,4.33233 2.23844,2.36978 5.50363,4.88746 7.25598,5.59485 1.75235,0.70738 4.22735,2.8154 5.5,4.68447 3.00124,4.40777 7.42485,4.81032 8.43941,0.76799 1.00171,-3.99113 -0.40701,-37.48765 -2.05468,-48.856 -2.46902,-17.03542 -6.39683,-38.63324 -8.53111,-46.90996 -2.23265,-8.6582 -2.74151,-14.12144 -0.89323,-9.59004 2.32606,5.70278 9.01542,30.4737 10.80195,40 3.51706,18.75394 6.11841,45.09392 6.13866,62.15718 0.006,5.41355 0.41662,9.84282 0.91153,9.84282 0.49492,0 5.69485,-0.92534 11.55541,-2.05631 12.05352,-2.32609 15.77498,-2.25512 16.26147,0.3101 0.39228,2.06844 -6.23569,5.26484 -13.0131,6.27568 -2.3589,0.35183 -4.62256,1.16413 -5.03034,1.80511 -0.54226,0.85235 -0.74555,0.82018 -0.75675,-0.11976 -0.0122,-1.02388 -0.47279,-1.0396 -2.26531,-0.0773 l -2.25,1.20785 2.77361,1.13706 c 1.52549,0.62538 2.46299,1.44768 2.08334,1.82733 -0.37966,0.37965 -0.13873,0.69028 0.5354,0.69028 0.67413,0 1.016,0.33928 0.75971,0.75396 -0.25629,0.41468 1.73712,2.10218 4.42979,3.75 2.69267,1.64782 5.12052,3.67135 5.39522,4.49673 0.4804,1.44344 3.52708,3.09235 8.27293,4.47742 1.99775,0.58305 2.25,1.30403 2.25,6.43099 l 0,5.77432 -3.86602,1.15829 C 336.5279,301.22173 336,301.25538 336,300.16898 z M 146.67223,280.37171 C 146.5775,280.30116 140.65,279.98184 133.5,279.66212 111.61521,278.68352 87.890831,276.98193 81.024677,275.89843 77.436105,275.33214 71.575,274.49782 68,274.04439 52.050984,272.02152 27.856857,267.6476 25.888969,266.43138 c -1.182499,-0.73083 -1.140603,-5.15783 0.05581,-5.89725 0.519629,-0.32115 6.371464,0.35272 13.004078,1.49748 6.632614,1.14476 12.437053,1.84792 12.898753,1.56257 0.461701,-0.28535 1.110404,-7.4567 1.441563,-15.93634 0.331159,-8.47964 1.061,-19.1841 1.621869,-23.78768 0.560869,-4.60359 1.514197,-13.00829 2.118506,-18.67712 0.604309,-5.66883 1.703445,-13.09383 2.442523,-16.5 2.753885,-12.69176 4.68475,-20.34633 6.481068,-25.69304 1.0163,-3.025 2.139503,-6.7906 2.496007,-8.368 0.356504,-1.5774 0.886691,-2.6295 1.178194,-2.33799 0.291503,0.2915 -0.842922,7.2071 -2.520944,15.368 -3.470435,16.87812 -4.571683,24.12366 -6.64116,43.6948 -1.565078,14.80101 -2.016754,53.1843 -0.635889,54.03772 1.241052,0.76701 13.048162,2.55878 27.670652,4.1991 21.829071,2.44875 54.907371,4.33483 76.668211,4.37152 11.36752,0.0192 27.06159,0.16942 27.93157,0.50327 0.94289,0.36182 1.58179,1.78694 1.58179,3.52829 l -3.46524,2.92131 -22.7941,-0.13973 c -11.3186,-0.0694 -20.65528,-0.33602 -20.75,-0.40658 z M 133.55104,258.5 c 0.36754,-7.25236 1.52355,-22.16677 4.55995,-58.83048 0.58442,-7.05676 1.67968,-14.70676 2.4339,-17 1.3297,-4.04297 1.35568,-3.91153 0.85587,4.33048 -0.28349,4.675 -0.67514,18.85 -0.87033,31.5 -0.37088,24.03669 -1.55905,33.55361 -5.36848,43 l -2.01634,5 z m 134.41571,-62.75 c -0.0183,-0.6875 -0.90321,-6.65 -1.96649,-13.25 -1.06329,-6.6 -2.85953,-18.525 -3.99166,-26.5 -1.13213,-7.975 -2.70402,-18.775 -3.49309,-24 -0.78907,-5.225 -1.73073,-12.3873 -2.09257,-15.91623 -0.36185,-3.52893 -1.08979,-7.80393 -1.61766,-9.5 C 254.27741,104.8877 253.00608,99 251.98011,93.5 c -1.02597,-5.5 -2.55975,-13.118959 -3.4084,-16.931021 -0.84865,-3.812061 -1.39665,-7.077369 -1.21778,-7.25624 0.35827,-0.358277 4.0936,7.062762 5.08629,10.105014 0.34416,1.054764 2.6432,11.854764 5.10896,23.999997 C 263.15106,131.0101 270.97908,197 268.65032,197 c -0.35768,0 -0.66528,-0.5625 -0.68357,-1.25 z M 45.630165,168 c 0.316722,-1.925 0.931078,-5.075 1.365235,-7 0.434157,-1.925 0.858841,-5.975 0.943744,-9 0.0849,-3.025 0.600443,-8.2 1.145645,-11.5 0.545203,-3.3 1.395088,-8.7 1.888635,-12 0.493546,-3.3 1.349255,-8.025 1.901575,-10.5 0.552321,-2.475 1.249244,-7.12208 1.548719,-10.32684 2.583266,-27.64419 10.658231,-49.892574 19.90723,-54.848991 1.287537,-0.689974 0.76815,0.68024 -1.75,4.616742 C 70.611427,60.519769 69,63.523166 69,64.115125 c 0,0.59196 -0.658158,2.270722 -1.462573,3.730583 -2.612801,4.741736 -4.708586,12.416283 -6.732658,24.654292 -1.091589,6.6 -2.602833,15.6 -3.35832,20 -0.755487,4.4 -2.276418,14.75 -3.379847,23 -2.135269,15.96475 -4.997897,28.65992 -7.48998,33.21654 L 45.054306,171.5 z m 268.988175,1.25 c -2.92994,-9.92839 -6.22818,-29.46882 -7.63777,-45.25 -1.25332,-14.03174 -5.60166,-42.670855 -7.51569,-49.5 -0.77076,-2.75 -1.66478,-6.575 -1.98671,-8.5 -0.88818,-5.310751 -3.80396,-12.453304 -7.24602,-17.75 -1.98524,-3.0549 -0.89523,-2.830778 2.53352,0.520933 9.51106,9.297353 16.11957,35.893086 19.18991,77.229067 0.59236,7.975 1.51093,18.775 2.04126,24 1.7297,17.04155 2.02739,21 1.57928,21 -0.24274,0 -0.67374,-0.7875 -0.95778,-1.75 z"
             style="fill:#0f0809" />
        </g>
      </g>
    </g>
  </g>
</svg>
