<?xml version="1.0" encoding="UTF-8" standalone="no"?>
<!-- Created with Inkscape (http://www.inkscape.org/) -->

<svg
   xmlns:dc="http://purl.org/dc/elements/1.1/"
   xmlns:cc="http://creativecommons.org/ns#"
   xmlns:rdf="http://www.w3.org/1999/02/22-rdf-syntax-ns#"
   xmlns:svg="http://www.w3.org/2000/svg"
   xmlns="http://www.w3.org/2000/svg"
   xmlns:sodipodi="http://sodipodi.sourceforge.net/DTD/sodipodi-0.dtd"
   xmlns:inkscape="http://www.inkscape.org/namespaces/inkscape"
   width="1024"
   height="1024"
   id="svg2"
   version="1.1"
   inkscape:version="0.48.4 r9939"
   sodipodi:docname="Johnny Pocket.svg"
   inkscape:export-filename="G:\Blender\Projects\LEGO-A_study_of_materials\Johnny Thunder Project\Pocket.png"
   inkscape:export-xdpi="90"
   inkscape:export-ydpi="90">
  <defs
     id="defs4" />
  <sodipodi:namedview
     id="base"
     pagecolor="#ffffff"
     bordercolor="#666666"
     borderopacity="1.0"
     inkscape:pageopacity="0.0"
     inkscape:pageshadow="2"
     inkscape:zoom="0.24748737"
     inkscape:cx="1340.1312"
     inkscape:cy="423.25643"
     inkscape:document-units="px"
     inkscape:current-layer="layer1-9"
     showgrid="false"
     inkscape:window-width="1920"
     inkscape:window-height="1018"
     inkscape:window-x="-8"
     inkscape:window-y="-8"
     inkscape:window-maximized="1" />
  <metadata
     id="metadata7">
    <rdf:RDF>
      <cc:Work
         rdf:about="">
        <dc:format>image/svg+xml</dc:format>
        <dc:type
           rdf:resource="http://purl.org/dc/dcmitype/StillImage" />
        <dc:title></dc:title>
      </cc:Work>
    </rdf:RDF>
  </metadata>
  <g
     inkscape:label="Layer 1"
     inkscape:groupmode="layer"
     id="layer1"
     transform="translate(0,-28.362183)">
    <g
       transform="translate(-621.5119,111.03614)"
       id="layer1-9"
       inkscape:label="Layer 1">
      <rect
         style="fill:#dec69c;fill-opacity:1;stroke:#dec69c;stroke-width:2.08553958;stroke-opacity:1"
         id="rect3054"
         width="1021.9145"
         height="1021.9145"
         x="622.55469"
         y="-81.631218" />
      <g
         id="g3061">
        <path
           transform="translate(608.37992,-107.92777)"
           d="m 607.10171,320.42874 a 84.34774,84.34774 0 1 1 -168.69548,0 84.34774,84.34774 0 1 1 168.69548,0 z"
           sodipodi:ry="84.34774"
           sodipodi:rx="84.34774"
           sodipodi:cy="320.42874"
           sodipodi:cx="522.75397"
           id="path3056"
           style="fill:#000000;fill-opacity:1;stroke:#000000;stroke-opacity:1"
           sodipodi:type="arc" />
        <path
           transform="matrix(1.7502356,0,0,1.7502356,238.4175,-302.609)"
           d="m 526.28948,293.15463 a 15.657365,15.657365 0 1 1 -31.31473,0 15.657365,15.657365 0 1 1 31.31473,0 z"
           sodipodi:ry="15.657365"
           sodipodi:rx="15.657365"
           sodipodi:cy="293.15463"
           sodipodi:cx="510.63211"
           id="path3058"
           style="fill:#ffffff;fill-opacity:1;stroke:#ffffff;stroke-opacity:1"
           sodipodi:type="arc" />
        <g
           id="g3131"
           transform="matrix(5.6807422,-0.01136769,0.13810878,5.6804886,1024.7639,-5001.8066)">
          <g
             transform="translate(-208.09142,4.0406101)"
             id="g3087">
            <g
               id="g3083">
              <path
                 sodipodi:nodetypes="cccccccccccccccccccccccccccccccccccccccccccccccc"
                 inkscape:connector-curvature="0"
                 id="path3066"
                 d="m 218.51524,1034.1126 c -21.72549,-0.8168 -43.51135,0.06 -65.20929,-1.3821 -4.77323,-4.8144 -14.68999,-17.6664 -17.68096,-23.7145 -0.1636,-38.31049 -0.93526,-76.62322 -0.5318,-114.93232 1.45592,-5.78925 -2.83734,-19.08244 6.81186,-17.64431 43.54064,2.01012 87.15714,0.94537 130.71516,2.2101 8.26768,-0.27415 2.84099,12.32996 4.62206,17.64441 0.30563,38.50292 -0.50128,77.00245 -1.3452,115.49412 -5.8247,7.7301 -12.01525,15.1759 -18.56464,22.3027 -12.93802,0.025 -25.88317,0.313 -38.81719,0.022 z m 4.66871,-6.8858 c 5.99067,-5.5464 2.18013,-15.7766 3.73,-23.203 0.39108,-20.94218 1.14487,-41.90734 0.47426,-62.84611 -2.03822,-8.8985 -14.20463,0.14676 -22.47855,0.84859 -6.60287,0.002 -11.08033,-3.71408 -17.51986,-6.75389 -8.44591,0.74406 -3.56962,14.18586 -5.24704,20.18103 -0.24574,21.56803 -1.00328,43.16148 -0.19084,64.71998 -1.03082,9.1185 9.48623,6.808 15.19252,7.2712 8.6724,0.05 17.38621,0.4173 26.03951,-0.2178 z m 34.96269,-3.754 c 3.63982,-5.0404 8.37677,-9.5951 11.6453,-14.7271 0.0883,-26.22116 0.98152,-52.45514 0.23284,-78.6674 -1.64967,-7.73308 -14.5222,-4.35593 -20.58851,-3.46769 -6.50875,2.69769 -13.5756,3.10978 -14.60279,13.06871 -0.58091,28.53088 -0.89013,57.0934 0.0502,85.61728 2.56778,4.1798 9.76397,1.8178 14.45693,2.3496 2.3701,-0.4227 5.7095,1.1264 6.88258,-1.7315 0.64111,-0.8138 1.28257,-1.6287 1.92347,-2.4419 z m -86.21304,1.7034 c 2.36243,-15.7038 3.92231,-30.25444 2.88155,-44.89689 -0.15936,-15.61675 0.35035,-31.24263 -0.0425,-46.85289 -0.55321,-8.17233 -11.51407,-7.1143 -17.57201,-9.02296 -6.63309,-2.06026 -16.81762,-0.78238 -14.91504,8.31882 -0.58694,21.29066 -0.31578,50.51519 -0.16198,71.81102 3.67134,8.7375 6.76537,14.1376 12.11802,22.5192 5.88343,-0.4969 12.03898,-0.055 17.69201,-1.8763 z m 65.9321,-102.16134 c 7.45263,-2.21421 14.81709,-4.78147 22.75995,-4.1563 10.19858,2.4882 10.34704,-8.93705 9.89253,-15.89427 -1.07172,-5.85809 3.51101,-18.46749 -5.78576,-17.72397 -36.52575,-1.70442 -73.12203,-1.89271 -109.68055,-1.41911 -5.92294,-0.47621 -12.95215,-0.30862 -11.25958,7.54702 -0.30163,7.67161 -0.85865,15.4422 0.22354,23.06618 6.23875,4.84234 16.09547,2.06253 23.5125,5.21612 31.44401,16.22861 42.18172,12.37708 70.33737,3.36433 z"
                 style="fill:#000000" />
            </g>
          </g>
        </g>
      </g>
    </g>
  </g>
</svg>
