<?xml version="1.0" encoding="UTF-8" standalone="no"?>
<!-- Created with Inkscape (http://www.inkscape.org/) -->

<svg
   xmlns:dc="http://purl.org/dc/elements/1.1/"
   xmlns:cc="http://creativecommons.org/ns#"
   xmlns:rdf="http://www.w3.org/1999/02/22-rdf-syntax-ns#"
   xmlns:svg="http://www.w3.org/2000/svg"
   xmlns="http://www.w3.org/2000/svg"
   xmlns:sodipodi="http://sodipodi.sourceforge.net/DTD/sodipodi-0.dtd"
   xmlns:inkscape="http://www.inkscape.org/namespaces/inkscape"
   id="svg2985"
   version="1.1"
   inkscape:version="0.48.3.1 r9886"
   width="1920"
   height="1920"
   sodipodi:docname="Jungle Boy Legs.svg">
  <metadata
     id="metadata2991">
    <rdf:RDF>
      <cc:Work
         rdf:about="">
        <dc:format>image/svg+xml</dc:format>
        <dc:type
           rdf:resource="http://purl.org/dc/dcmitype/StillImage" />
        <dc:title />
      </cc:Work>
    </rdf:RDF>
  </metadata>
  <defs
     id="defs2989">
    <inkscape:path-effect
       effect="skeletal"
       id="path-effect3043"
       is_visible="true"
       pattern="M 0,5 C 0,2.24 2.24,0 5,0 7.76,0 10,2.24 10,5 10,7.76 7.76,10 5,10 2.24,10 0,7.76 0,5 z"
       copytype="single_stretched"
       prop_scale="1"
       scale_y_rel="false"
       spacing="0"
       normal_offset="0"
       tang_offset="0"
       prop_units="false"
       vertical_pattern="false"
       fuse_tolerance="0" />
    <inkscape:path-effect
       effect="skeletal"
       id="path-effect3039"
       is_visible="true"
       pattern="M 0,5 C 0,2.24 2.24,0 5,0 7.76,0 10,2.24 10,5 10,7.76 7.76,10 5,10 2.24,10 0,7.76 0,5 z"
       copytype="single_stretched"
       prop_scale="1"
       scale_y_rel="false"
       spacing="0"
       normal_offset="0"
       tang_offset="0"
       prop_units="false"
       vertical_pattern="false"
       fuse_tolerance="0" />
    <inkscape:path-effect
       effect="skeletal"
       id="path-effect3011"
       is_visible="true"
       pattern="m -9.2073692,-10.784062 c 0,-2.76 2.24,-5 5,-5 2.76,0 4.99999996,2.24 4.99999996,5 0,2.7600004 -2.23999996,5.0000004 -4.99999996,5.0000004 -2.76,0 -5,-2.24 -5,-5.0000004 z"
       copytype="single_stretched"
       prop_scale="1"
       scale_y_rel="false"
       spacing="0"
       normal_offset="0"
       tang_offset="0"
       prop_units="false"
       vertical_pattern="false"
       fuse_tolerance="0" />
  </defs>
  <sodipodi:namedview
     pagecolor="#ffffff"
     bordercolor="#666666"
     borderopacity="1"
     objecttolerance="10"
     gridtolerance="10"
     guidetolerance="10"
     inkscape:pageopacity="0"
     inkscape:pageshadow="2"
     inkscape:window-width="1920"
     inkscape:window-height="1005"
     id="namedview2987"
     showgrid="false"
     inkscape:zoom="0.13439636"
     inkscape:cx="-976.11199"
     inkscape:cy="402.71205"
     inkscape:window-x="-9"
     inkscape:window-y="-9"
     inkscape:window-maximized="1"
     inkscape:current-layer="g3045" />
  <g
     id="g3045"
     transform="matrix(2.948329,0,0,2.948329,1815.5276,-63.0195)">
    <path
       inkscape:connector-curvature="0"
       id="path2997"
       d="m -250.34154,535.389 c -0.84869,-1.02262 -3.47683,-14.93494 -3.70149,-59.91268 -0.16932,-33.89884 -0.57988,-61.90612 -0.91234,-62.23839 -0.97696,-0.9764 -17.07133,-3.57122 -18.12218,-2.92176 -0.52813,0.32641 -4.85569,0.80956 -9.61679,1.07368 -7.39163,0.41005 -9.29676,0.90053 -13.03788,3.35666 -2.40973,1.58204 -5.87825,4.62526 -7.70783,6.76271 -3.12173,3.64704 -3.74465,3.92008 -10.11868,4.43524 -3.73569,0.30193 -7.26254,0.16142 -7.83744,-0.31224 -2.08133,-1.71482 -8.50557,1.64206 -12.58114,6.57406 -2.20255,2.6654 -4.48556,5.74479 -5.07335,6.84309 -2.56354,4.79001 -5.91507,17.75921 -6.86621,26.56974 -0.56746,5.25634 -1.27094,10.36297 -1.5633,11.34807 -0.29237,0.98509 -0.6693,12.39651 -0.83763,25.3587 -0.28497,21.94488 -0.44265,23.70421 -2.29002,25.55158 -1.86697,1.86697 -2.1656,1.89005 -5.06386,0.3913 -1.69394,-0.87597 -3.97568,-1.59267 -5.07053,-1.59267 -1.09486,0 -2.26876,-0.45 -2.60868,-1 -0.33992,-0.55 -1.66138,-1 -2.93657,-1 -1.2752,0 -2.86886,-0.66309 -3.54147,-1.47354 -0.67261,-0.81044 -2.86521,-1.75049 -4.87244,-2.08899 -2.00724,-0.33851 -5.44952,-1.41425 -7.64952,-2.39053 -2.2,-0.97629 -6.25,-2.28407 -9,-2.90619 -13.57098,-3.07008 -26.79872,-10.25718 -27.83371,-10.89684 -3.40299,-2.10317 -29.82783,2.74966 -48.91088,4.65495 -13.38103,1.33599 -13.88051,1.3158 -18.88335,-0.76329 -2.82632,-1.17456 -5.90032,-2.13557 -6.8311,-2.13557 -0.93078,0 -2.66639,-1.03683 -3.8569,-2.30408 -2.84812,-3.03168 -3.32353,-14.32732 -0.83813,-19.9138 0.90974,-2.04484 1.65949,-4.29484 1.66612,-5 0.007,-0.70517 1.17236,-3.30712 2.59052,-5.78212 3.59732,-6.27809 8.39743,-21.5636 8.39743,-26.74085 0,-2.91922 0.48683,-4.50874 1.5,-4.89752 0.825,-0.31659 1.5,-1.20246 1.5,-1.96862 0,-1.07948 -1.87967,-1.39301 -8.35133,-1.39301 -7.57431,0 -12.92329,-2.86705 -16.17648,-0.37291 -1.9728,1.5125 -5.09461,6.54271 -9.39108,9.81508 -4.29647,3.27237 -7.60611,9.6017 -10.08111,11.61146 -2.475,2.00977 -7.08938,5.08445 -10.25417,6.83264 -5.02393,2.77515 -6.48335,3.12568 -11.5,2.76216 -7.22235,-0.52336 -8.20764,-2.09573 -8.23916,-13.14843 -0.0225,-7.87286 -2.50679,-29.88216 -3.56656,-31.59691 -0.64462,-1.04301 4.19536,-22.87854 2.95862,-36.96455 -0.4829,-5.5 -1.17696,-13.14226 -1.81499,-15.89226 -0.63803,-2.75 -5.76649,-6.13274 -6.21651,-8.60774 -3.67366,-20.204 -8.73385,-26.48857 -10.85479,-32.80674 -1.34817,-4.01614 -2.88105,-11.76375 -3.40641,-17.21693 -1.28635,-13.35241 -4.42806,-32.43598 -7.64123,-46.41487 -2.87376,-12.50229 -5.54262,-26.25245 -7.36472,-37.94356 -0.63805,-4.09396 -2.06244,-10.61896 -3.1653,-14.5 -1.10286,-3.88104 -2.70005,-9.53144 -3.54932,-12.55644 -0.84926,-3.025 -3.50501,-9.58349 -5.90167,-14.57441 -2.39665,-4.99093 -4.65991,-10.27912 -5.02946,-11.75154 l -0.67192,-2.67713 321.8588,0.25154 321.858787,0.25154 0.26505,3.5 c 0.14577,1.925 0.70773,5.38463 1.2488,7.68806 0.61313,2.61025 0.63498,5.1054 0.058,6.62302 -0.61262,1.61129 -0.55734,2.80341 0.1634,3.52415 0.78556,0.78556 -0.0165,2.28869 -2.87739,5.39238 -2.52998,2.74471 -4.45298,6.10848 -5.30962,9.2878 -0.73869,2.74152 -1.72673,5.41209 -2.19565,5.93459 -0.46893,0.5225 -0.85368,2.00018 -1.74485,2.83249 -2.453716,2.29165 -2.72814,11.71751 -3.87466,11.71751 -0.46089,0 -1.66855,2.3625 -2.68367,5.25 -1.01512,2.8875 -2.14796,5.7 -2.51742,6.25 -0.36945,0.55 -1.2630695,3.025 -1.9857995,5.5 -0.72274,2.475 -2.1538,7.00496 -3.18013,10.06658 -1.02633,3.06162 -1.86606,6.32233 -1.86606,7.24602 0,0.92369 -0.85906,4.26873 -1.90902,7.43342 -1.04997,3.16469 -2.67409005,8.45398 -3.60917,11.75398 -0.93508,3.3 -2.51852,8.7 -3.51875,12 -2.05126,6.76753 -4.92018,20.1771 -7.4881205,35 -0.95282,5.5 -2.18941,10.87924 -2.74797,11.95387 -1.46809,2.82453 -3.68984,10.96225 -5.24282,19.20325 -0.74181,3.93642 -2.29169,9.00547 -3.44419,11.26455 -1.5011,2.9424 -2.26921,6.8688 -2.70805,13.84288 -0.48167,7.65484 -1.11689,10.60908 -2.97225,13.82331 -1.29781,2.24832 -2.37493,4.94832 -2.39359,6 -0.0187,1.05168 -0.90339,3.71214 -1.96607,5.91214 -1.06268,2.2 -1.94741,6.06776 -1.96607,8.59501 -0.0249,3.37368 -0.5938,5.10135 -2.14034,6.5 -4.45259,4.02682 -5.94232,8.86902 -6.51945,21.1908 -0.30177,6.4428 -1.13965,13.96419 -1.86195,16.71419 -0.72231,2.75 -1.6042,7.025 -1.95977,9.5 -0.60711,4.22596 -5.61559,7.10015 -7.69457,7.10015 -0.49484,0 -3.98282,1.57887 -7.75108,4.05387 -7.43927,4.88613 -7.375094,3.30051 -9.951754,0.29629 -0.82552,-0.9625 -5.862706,1.89913 -7.104216,-0.72932 -2.36969,-5.01696 -13.80193,-16.208 -18.82303,-18.42589 -1.500267,-0.66269 -5.818207,-1.22519 -9.595417,-1.25 -6.63444,-0.0436 -6.99575,0.083 -10.64019,3.72745 -3.53434,3.53434 -5.95357,9.06779 -6.00164,13.72745 -0.0113,1.1 -2.23057,3.35387 -3.02314,5.55387 -0.79258,2.2 -1.90694,5.95015 -1.93108,7.7884 -0.0241,1.83825 -1.61308,3.14805 -2.71308,4.54647 -1.1,1.39842 -3.78452,3.29363 -2.44613,5.54995 0.46831,0.78949 1.63643,3.10973 -0.18037,4.87065 -3.13519,3.03874 -5.3807,3.92589 -18.19672,7.1891 -2.75,0.70021 -7.925,2.07831 -11.5,3.06246 -15.36497,4.22974 -22.21981,6.00518 -34,8.80619 -6.875,1.63468 -15.65,3.74283 -19.5,4.68477 -7.4669,1.82686 -14.98756,3.0194 -25.52915,4.04811 -4.98393,0.48637 -4.57375,-2.81739 -5.4615,-3.88706 z"
       style="fill:#2a1c0f;fill-opacity:1"
       sodipodi:nodetypes="sssssssssssscsssssssssssssssscsscsssssssssssssssssssscccsscssssssscsssssssssssscssssssssssssscscsssssssss" />
    <path
       inkscape:connector-curvature="0"
       inkscape:original-d="m -155.07914,347.91225 c 12.61502,-62.888 48.9763,-97.8505 86.710688,-121.67874 10.541011,-8.04842 19.311966,-8.12999 28.903562,-12.16787"
       inkscape:path-effect="#path-effect3011"
       id="path3009"
       d="m -155.07914,347.91225 c -0.6353,-0.12744 -0.82242,-2.50505 -0.41372,-6.7345 0.4087,-4.22945 1.42828,-10.31492 3.43393,-17.71318 2.00566,-7.39827 5.01074,-16.11033 9.40431,-25.40224 4.39357,-9.2919 10.18657,-19.1572 17.59873,-28.71074 1e-5,0 1e-5,0 1e-5,0 1.9191,-2.46746 3.93667,-4.90712 6.04692,-7.30909 7.93118,-9.02756 16.48083,-16.73116 24.8215,-23.17231 8.340668,-6.44115 16.464828,-11.62789 23.676789,-15.71696 10e-7,0 3e-6,-1e-5 5e-6,-1e-5 2.846782,-1.97249 5.704201,-3.45989 8.428532,-4.5988 2.72433,-1.1389 5.316166,-1.92962 7.683124,-2.4873 2.3592,-0.56349 4.445994,-0.94049 6.251287,-1.25249 1.805293,-0.312 3.330705,-0.55485 4.578968,-0.73785 2.496527,-0.366 3.910033,-0.47157 4.103865,-0.0111 0.193832,0.46043 -0.882322,1.46878 -3.180771,2.73046 -1.149224,0.63085 -2.602487,1.31691 -4.308618,2.04555 -1.70613,0.72864 -3.666516,1.49563 -5.767992,2.38247 -2.069108,0.88466 -4.303692,1.94826 -6.597615,3.26811 -2.293923,1.31984 -4.647648,2.89585 -6.906343,4.82156 -10e-7,0 -3e-6,0 -4e-6,0 -6.607119,4.6373 -14.125281,10.1729 -21.900293,16.69368 -7.775013,6.52077 -15.798484,14.03042 -23.335144,22.59545 -2.00529,2.27891 -3.92997,4.57997 -5.76957,6.89643 0,1e-5 0,1e-5 0,1e-5 -7.07059,8.87955 -12.82711,17.99023 -17.47677,26.58146 -4.64965,8.59122 -8.19927,16.65696 -10.96164,23.5199 -2.76237,6.86295 -4.74787,12.52385 -6.24705,16.41702 -1.49919,3.89316 -2.52714,6.02195 -3.16244,5.89451 z"
       style="fill:#000000;fill-rule:evenodd;stroke:none" />
    <path
       inkscape:connector-curvature="0"
       inkscape:original-d="m -568.22622,188.76265 c 14.47722,23.65919 24.3144,52.53607 30.25279,76.28963"
       inkscape:path-effect="#path-effect3039"
       id="path3037"
       d="m -568.22622,188.76265 c 0.58856,-0.36014 1.75882,0.27823 3.34178,1.78743 1.58295,1.5092 3.5744,3.89206 5.75278,7.01845 2.17838,3.12638 4.54034,6.9977 6.86893,11.44905 2.32859,4.45135 4.6219,9.4826 6.70725,14.88454 4.17071,10.80389 6.71281,21.0133 7.88752,28.51449 1.1747,7.50119 1.03333,12.30097 -0.30547,12.63567 -1.3388,0.3347 -3.62548,-3.84063 -6.50967,-10.71088 -2.88419,-6.87025 -6.39836,-16.42295 -10.40739,-26.84126 -2.00451,-5.20915 -3.9468,-10.14573 -5.73264,-14.63525 -1.78584,-4.48951 -3.41439,-8.5331 -4.73803,-11.97496 -1.32363,-3.44185 -2.33967,-6.28405 -2.87326,-8.36476 -0.5336,-2.08072 -0.58036,-3.40238 0.008,-3.76252 z"
       style="fill:#000000;fill-rule:evenodd;stroke:none" />
    <path
       sodipodi:nodetypes="cssscssssssssc"
       inkscape:connector-curvature="0"
       inkscape:original-d="m 38.144815,192.70866 c -33.4602945,14.71594 -49.174931,170.69348 -71.028276,214.40017 -9.473567,18.94713 -9.229355,57.89688 -22.360754,71.02828 -25.288957,25.28895 -52.007525,-28.22813 -65.766925,-14.46873 -10.26509,10.26509 -10.425,30.91133 -18.41474,46.03685 -190.93984,80.46975 -74.79713,-27.44495 -121.01114,-101.28107 -4.95317,-7.91367 -69.25208,20.58457 -74.97429,26.30678 -21.34165,21.34165 1.21978,98.62384 -24.99143,92.07369 -14.54576,-3.63497 -41.31308,-18.02587 -47.35218,-21.04541 -29.03296,-14.51648 -70.92638,15.88596 -90.75836,-3.94602 -12.92775,-12.92775 23.48329,-51.49101 11.83805,-63.13625 -25.16542,-25.16542 -45.96249,46.11121 -69.71294,22.36076 -14.39402,-14.39402 10.66997,-80.08839 -6.57669,-97.33505 -14.52338,-14.52338 -30.51538,-160.64557 -43.40618,-190.72408"
       inkscape:path-effect="#path-effect3043"
       id="path3041"
       d="m 38.144815,192.70866 c 0.04935,0.11221 -0.502709,0.45159 -1.500969,1.18055 -0.998261,0.72896 -2.432208,1.89282 -4.059822,3.68231 -1.636948,1.80483 -3.443226,4.24663 -5.296501,7.35964 -1.608206,2.70335 -3.257836,5.87477 -4.883424,9.53375 -1.625588,3.65898 -3.222786,7.80856 -4.844248,12.38973 -2e-6,1e-5 -4e-6,1e-5 -7e-6,2e-5 -2.940841,8.3293 -5.836396,18.10386 -8.7394448,29.21271 -2.6444476,10.12367 -5.2855839,21.33918 -8.00405146,33.56428 -2.11e-6,1e-5 -4.22e-6,2e-5 -6.33e-6,3e-5 -2.24479651,10.09617 -4.52998291,20.88054 -6.96278881,32.2982 -2.4328059,11.41766 -5.0120336,23.46891 -7.9491826,36.0762 -2.179092,9.35704 -4.548582,19.05257 -7.495801,28.96379 -2.109285,7.12826 -4.485082,14.52965 -8.033389,21.76828 -2.438182,4.90161 -3.880762,10.54174 -5.242729,16.46554 -1.480831,6.5505 -2.65473,13.36971 -4.021745,20.36493 -1.256208,6.47252 -2.64507,13.17333 -4.878832,19.87944 -1.670383,5.25515 -4.115612,10.89184 -8.598929,15.56621 -2.959511,3.04581 -6.699566,5.67317 -11.179806,7.13709 -3.778076,1.15866 -7.750659,1.2965 -11.519069,0.54784 -1.8e-5,0 -3.6e-5,-1e-5 -5.4e-5,-1e-5 -3.810157,-0.76704 -7.316427,-2.21587 -10.490035,-3.9554 -1.5e-5,-10e-6 -3e-5,-2e-5 -4.5e-5,-3e-5 -3.354397,-1.81979 -6.461321,-3.92276 -9.418228,-6.08519 -2.896822,-2.11229 -5.669418,-4.28633 -8.437858,-6.3528 -2.4378,-1.80766 -4.77824,-3.52269 -7.1832,-4.83089 -1.92516,-0.95818 -3.56762,-1.79345 -4.87887,-1.73361 -0.4793,-0.006 -0.92082,0.044 -1.22979,0.18636 -1e-5,0 -1e-5,10e-6 -2e-5,10e-6 -0.35695,0.114 -0.76722,0.43715 -1.20053,0.84728 -1e-5,0 -2e-5,10e-6 -2e-5,2e-5 -2.12515,2.08379 -3.73318,4.93946 -5.1286,8.06931 -1.51052,3.45629 -2.62363,7.25259 -3.72423,11.22166 -2.58214,8.5377 -4.94166,17.85082 -9.76425,26.80826 -19.01079,8.26018 -38.75589,16.4983 -59.65538,23.14055 -6.62486,2.02961 -13.43151,3.88355 -20.46174,5.24673 -5.0293,0.9847 -10.28658,1.72153 -15.73585,1.75982 -2e-5,0 -4e-5,0 -6e-5,0 -3.8119,0.0548 -7.90293,-0.34731 -11.99943,-1.71371 -3.15825,-1.05676 -6.18435,-2.90069 -8.66127,-5.57225 -2.29135,-2.60083 -3.80179,-5.5897 -4.64345,-8.60758 -0.97527,-3.44063 -1.33767,-6.85233 -1.39573,-10.08498 -0.17374,-8.14481 0.96058,-16.01457 2.03107,-23.58792 1.2569,-9.0879 2.59192,-18.1021 3.2336,-27.09982 0.66899,-9.50108 0.65234,-19.03082 -0.89198,-28.27406 -1.5879,-9.53904 -4.83204,-18.85814 -9.9625,-27.01093 0.80768,0.83499 1.11572,1.21789 1.19125,1.05805 -0.10526,-0.0845 -0.56032,-0.0587 -1.29927,-0.0915 -2e-5,0 -3e-5,0 -5e-5,0 -2.24095,-2.3e-4 -4.73797,0.57155 -7.49034,1.20771 -7.86149,1.89319 -15.65304,4.77733 -23.54241,7.87177 -4.09565,1.61269 -8.17003,3.29614 -12.21482,5.05988 -3.97294,1.73242 -7.90085,3.53517 -11.77676,5.4154 -2.92441,1.42048 -5.7743,2.85054 -8.49036,4.39027 -0.94687,0.53841 -1.83299,1.05635 -2.63367,1.58932 -0.57473,0.41523 -0.92634,0.61317 -0.95768,0.69284 -2.18241,2.08084 -3.70103,5.1506 -4.95659,8.49572 -10e-6,2e-5 -10e-6,4e-5 -2e-5,5e-5 -1.45094,4.0092 -2.25581,8.38702 -2.8531,12.9142 -1.33689,10.27999 -1.25545,20.88208 -1.42921,31.62471 -0.074,5.01471 -0.17364,10.10109 -0.54895,15.23794 0,2e-5 0,3e-5 0,5e-5 -0.28437,4.16465 -0.77876,8.56111 -2.02722,13.00417 -0.72994,3.21485 -2.47177,6.89605 -5.92938,9.92997 -1.65067,1.29118 -3.56988,2.13237 -5.61156,2.47171 -2.35137,0.3353 -4.5079,0.14228 -6.36059,-0.36622 -4.74396,-1.20427 -9.16104,-2.89642 -13.35366,-4.6351 -4.92853,-2.03108 -9.72253,-4.23186 -14.42381,-6.48954 -4.28756,-2.05819 -8.51161,-4.17621 -12.68845,-6.31751 -10e-6,-1e-5 -3e-5,-2e-5 -5e-5,-3e-5 -2.67977,-1.37355 -5.28275,-2.75361 -7.85784,-4.04664 -3.0614,-1.55246 -6.46784,-2.54345 -9.97514,-3.08912 -3.62163,-0.56385 -7.39401,-0.61874 -11.21438,-0.40718 -8.07227,0.44357 -16.22045,2.20616 -24.5497,3.83316 -7.78527,1.56819 -15.96211,3.1776 -24.4982,3.00703 -3.7731,-0.0737 -7.68365,-0.63392 -11.50267,-1.9653 -3.79592,-1.34925 -7.26703,-3.52797 -10.12254,-6.38435 -2e-5,-2e-5 -4e-5,-4e-5 -6e-5,-6e-5 -2.39436,-2.51481 -3.7228,-5.59624 -4.03002,-8.69274 -1e-5,-2e-5 -1e-5,-4e-5 -1e-5,-7e-5 -0.32904,-3.44006 0.13724,-6.60494 0.89093,-9.37469 1.84606,-7.08286 4.92997,-13.3256 7.76471,-19.18583 2.87704,-6.06359 5.81194,-11.71173 7.45081,-17.42474 0.60059,-2.22082 1.07935,-4.21691 0.92163,-5.91044 0,-1e-5 0,-2e-5 0,-3e-5 -0.13801,-1.18452 -0.43009,-2.28649 -1.00277,-2.7048 0,0 -10e-6,-1e-5 -10e-6,-1e-5 -2.22123,-2.09916 -4.55464,-3.83693 -6.85464,-4.10262 -1.8841,-0.41833 -4.16152,0.15795 -6.35528,1.1156 -2.66277,1.20498 -5.16522,3.18009 -7.70104,5.36126 -2.85263,2.49002 -5.5597,5.27119 -8.32541,8.1025 -2.78604,2.86086 -5.61804,5.79604 -8.69219,8.58272 -2.72247,2.49834 -5.78922,4.94914 -9.39976,6.83851 -3.146,1.69861 -6.96183,2.66356 -11.01385,2.22614 -4.64106,-0.75497 -8.40136,-3.15391 -11.11019,-6.02393 -2.75753,-2.95565 -4.14336,-6.40998 -4.74612,-9.57811 -0.9053,-4.18916 -1.0692,-8.28578 -1.00481,-12.15425 0.13443,-10.17406 1.52783,-19.85499 2.64561,-29.13976 1.18024,-9.97913 2.35128,-19.55074 2.08697,-28.73126 -0.12229,-3.91066 -0.45301,-7.65913 -1.41988,-11.07924 -0.83416,-2.81129 -1.95262,-5.388 -3.70589,-7.085 -1.62287,-1.71456 -2.63516,-3.53055 -3.35891,-5.13576 -1.17956,-2.46431 -2.08441,-4.93851 -2.87732,-7.34238 -2.35461,-7.10909 -4.01109,-14.14257 -5.51413,-20.92846 -2.34597,-10.57026 -4.27931,-20.73605 -6.00489,-30.43589 -1.72557,-9.69983 -3.24259,-18.93392 -4.67755,-27.65724 -2.00613,-12.1901 -3.78442,-23.40795 -5.43892,-33.57637 -1.6545,-10.16843 -3.18223,-19.288 -4.5829,-27.29772 0,0 0,-1e-5 0,-2e-5 -1.71618,-9.81168 -3.2607,-17.93555 -4.61221,-24.27461 -0.80011,-3.75227 -1.52907,-6.87054 -2.15298,-9.34654 -0.59148,-2.34416 -1.08049,-4.10551 -1.40709,-5.29261 -0.3266,-1.18711 -0.47284,-1.80665 -0.36132,-1.85444 0.11152,-0.0478 0.47984,0.47885 1.03513,1.59662 0.5553,1.11778 1.281,2.83628 2.10097,5.13462 0.86824,2.432 1.84371,5.5246 2.8835,9.24579 1.7566,6.28573 3.70393,14.38782 5.80314,24.15005 0,0 0,1e-5 0,2e-5 1.71457,7.97224 3.54983,17.05992 5.5025,27.19096 1.95267,10.13103 4.01975,21.30598 6.30109,33.43006 1.63559,8.68974 3.34472,17.87298 5.25036,27.49055 1.90563,9.61757 4.00697,19.66964 6.50482,30.07826 1.61072,6.70005 3.3236,13.50781 5.66649,20.20476 0.79642,2.2672 1.63023,4.46869 2.65659,6.51049 0.74536,1.3958 1.35398,2.60005 2.11955,3.27394 2.83331,2.88959 4.59679,6.44923 5.58189,10.00232 1.21649,4.21806 1.69618,8.53739 1.85111,12.7542 0.38585,9.88072 -0.67401,19.8555 -1.75563,29.8225 -1.00241,9.41198 -2.27066,18.86153 -2.26672,28.34429 0.0147,3.61448 0.15654,7.1175 0.929,10.342 0.65185,2.37575 1.36196,4.52764 2.66961,5.63717 2.07162,1.91043 4.30271,3.50614 6.45436,3.62804 1.81731,0.32026 4.00395,-0.39461 6.16856,-1.4519 2.60765,-1.33751 5.05517,-3.39848 7.57209,-5.682 2.7729,-2.54977 5.45034,-5.38446 8.24071,-8.29269 2.73844,-2.86302 5.57969,-5.81981 8.74015,-8.64025 2.7443,-2.482 5.89342,-4.92044 9.66877,-6.76129 3.32177,-1.65172 7.30111,-2.49693 11.49039,-1.89918 4.78246,0.9192 8.72894,3.44631 11.63849,6.47793 2e-5,2e-5 4e-5,4e-5 6e-5,6e-5 2.30639,2.46081 3.47585,5.44559 3.60626,8.34723 0,3e-5 0,5e-5 0,7e-5 0.17084,3.30864 -0.39841,6.32833 -1.19712,8.95718 -1.96962,6.79329 -5.04087,12.93028 -7.83947,18.8298 -2.78715,5.98961 -5.63669,11.70682 -7.04463,17.54967 -0.51401,2.26583 -0.89048,4.34361 -0.62665,6.09409 0,1e-5 0,2e-5 0,3e-5 0.19629,1.31155 0.66189,2.5626 1.42064,3.20094 10e-6,10e-6 2e-5,10e-6 2e-5,2e-5 1.84224,1.84137 4.16845,3.27209 6.68329,4.15185 2.59619,0.93453 5.54254,1.29765 8.6212,1.3821 7.13151,0.191 14.59735,-1.39729 22.42973,-2.94392 8.22213,-1.67406 16.78215,-3.52804 25.82859,-4.11112 4.3009,-0.27549 8.74047,-0.20774 13.22245,0.44859 4.37843,0.6417 8.7486,1.92042 12.86883,3.95878 2.70633,1.34767 5.3389,2.73107 7.94411,4.0554 2e-5,1e-5 3e-5,1e-5 5e-5,2e-5 4.13313,2.10078 8.28855,4.16783 12.48169,6.16424 4.60921,2.19364 9.24154,4.30586 13.93632,6.22298 4.06797,1.65045 8.04311,3.1847 12.01838,4.15936 0.99352,0.20276 1.82158,0.33741 2.37076,0.19352 0.39676,-0.0635 0.8134,-0.24471 1.10507,-0.48871 1.07448,-0.54811 1.68081,-2.55204 2.54584,-4.91335 0.97579,-3.3332 1.34235,-7.05984 1.64728,-11.00575 0,-2e-5 0,-4e-5 0,-5e-5 0.34519,-4.77948 0.42738,-9.6726 0.49695,-14.66288 0.13257,-10.60674 0.0622,-21.57412 1.46511,-32.74556 0.60941,-4.92089 1.57546,-9.99325 3.33946,-15.00329 10e-6,-2e-5 10e-6,-4e-5 2e-5,-6e-5 1.45336,-4.25448 3.74889,-8.56055 7.2958,-12.20901 0.9973,-0.94894 1.86451,-1.56892 2.50333,-1.95779 1.10202,-0.72778 2.18634,-1.36794 3.22786,-1.95569 3.00435,-1.70017 6.0417,-3.22994 9.05156,-4.68873 4.00401,-1.94307 8.05432,-3.80287 12.14383,-5.58646 4.16345,-1.81583 8.34993,-3.54506 12.55115,-5.19725 8.01586,-3.16439 16.24862,-6.18328 24.85577,-8.27376 2.90132,-0.73144 6.13423,-1.39379 9.69108,-1.47947 3e-5,0 5e-5,0 8e-5,0 1.15561,-0.0608 2.62097,0.056 4.32781,0.51824 1.32966,0.21853 2.87971,1.25653 4.38183,3.20097 5.88425,9.44535 9.57354,19.99189 11.31093,30.6922 1.66662,10.30008 1.69807,20.60249 0.94194,30.60465 -0.70906,9.48744 -2.08891,18.71008 -3.36942,27.74069 -1.05977,7.63795 -2.18585,14.96721 -2.00637,22.00037 0.0811,2.74791 0.30567,5.33196 0.9859,7.61023 0.58354,1.9054 1.37814,3.63036 2.50552,4.81934 1.09282,1.28565 2.77544,2.25404 4.63033,2.93462 2.57337,0.94512 5.60579,1.18569 8.8101,1.22139 2e-5,0 3e-5,0 5e-5,0 4.57064,0.011 9.24241,-0.64829 13.96683,-1.52862 6.56679,-1.23675 13.05908,-2.98111 19.50961,-4.91699 19.59089,-5.63762 38.32859,-12.9701 56.59426,-20.41972 3.44462,-6.69335 4.87965,-14.73077 6.94398,-22.87391 1.14096,-4.07813 2.42482,-8.2652 4.22836,-12.37623 1.6317,-3.7823 3.88501,-7.52792 7.04006,-10.72433 2e-5,-1e-5 4e-5,-3e-5 5e-5,-5e-5 1.12841,-1.15157 2.55907,-2.12743 4.25578,-2.80692 3e-5,-10e-6 5e-5,-2e-5 8e-5,-3e-5 1.60226,-0.59613 3.23062,-0.83044 4.79199,-0.74235 3.51925,0.28365 6.42036,1.49958 8.69201,2.87391 3.01668,1.70506 5.67197,3.65481 8.143043,5.54335 2.861481,2.17266 5.587405,4.34838 8.306517,6.36435 2.797835,2.06786 5.563578,3.99082 8.407043,5.55107 1.2e-5,0 2.5e-5,1e-5 3.8e-5,2e-5 2.702801,1.46519 5.397673,2.65443 8.078721,3.17608 1.3e-5,10e-6 2.5e-5,10e-6 3.8e-5,10e-6 2.542493,0.50423 5.157396,0.47352 7.456284,-0.24912 2.835626,-0.80092 5.484534,-2.7183 7.864731,-5.01219 3.180782,-2.98973 5.055191,-7.58832 6.803983,-12.38087 2.115616,-6.07509 3.490743,-12.44399 4.822384,-18.83996 1.420184,-6.86457 2.692012,-13.75252 4.307783,-20.53538 1.422777,-6.06676 3.145709,-12.25065 6.045123,-18.02423 3.341213,-6.54041 5.675705,-13.55654 7.874414,-20.54677 3.021942,-9.65137 5.50303,-19.18876 7.820781,-28.45986 3.120245,-12.48541 5.900502,-24.4595 8.547307,-35.82565 2.6468037,-11.36616 5.1589457,-22.12462 7.6394005,-32.20448 2.3e-6,-10e-6 4.6e-6,-2e-5 7e-6,-3e-5 3.0017053,-12.19908 5.9439677,-23.41371 8.8976053,-33.53218 3.2378265,-11.09596 6.5009752,-20.89741 9.8101662,-29.22376 2e-6,0 5e-6,-1e-5 7e-6,-2e-5 1.812168,-4.56907 3.629092,-8.73228 5.478234,-12.39757 1.849143,-3.6653 3.726222,-6.83582 5.551423,-9.51316 2.105015,-3.09026 4.200766,-5.50299 6.085005,-7.22473 1.870513,-1.71399 3.545463,-2.73987 4.71187,-3.28853 1.166407,-0.54865 1.821349,-0.66632 1.870697,-0.55411 z"
       style="fill:#000000;fill-rule:evenodd;stroke:none" />
  </g>
</svg>
