<?xml version="1.0" encoding="UTF-8" standalone="no"?>
<!-- Created with Inkscape (http://www.inkscape.org/) -->

<svg
   xmlns:dc="http://purl.org/dc/elements/1.1/"
   xmlns:cc="http://creativecommons.org/ns#"
   xmlns:rdf="http://www.w3.org/1999/02/22-rdf-syntax-ns#"
   xmlns:svg="http://www.w3.org/2000/svg"
   xmlns="http://www.w3.org/2000/svg"
   xmlns:sodipodi="http://sodipodi.sourceforge.net/DTD/sodipodi-0.dtd"
   xmlns:inkscape="http://www.inkscape.org/namespaces/inkscape"
   width="1024"
   height="1024"
   id="svg2"
   version="1.1"
   inkscape:version="0.48.4 r9939"
   sodipodi:docname="Wonder Woman Legs.svg">
  <defs
     id="defs4" />
  <sodipodi:namedview
     id="base"
     pagecolor="#ffffff"
     bordercolor="#666666"
     borderopacity="1.0"
     inkscape:pageopacity="0.0"
     inkscape:pageshadow="2"
     inkscape:zoom="0.24748737"
     inkscape:cx="496.17364"
     inkscape:cy="-32.566384"
     inkscape:document-units="px"
     inkscape:current-layer="layer1"
     showgrid="false"
     inkscape:window-width="1366"
     inkscape:window-height="705"
     inkscape:window-x="-8"
     inkscape:window-y="-8"
     inkscape:window-maximized="1" />
  <metadata
     id="metadata7">
    <rdf:RDF>
      <cc:Work
         rdf:about="">
        <dc:format>image/svg+xml</dc:format>
        <dc:type
           rdf:resource="http://purl.org/dc/dcmitype/StillImage" />
        <dc:title></dc:title>
      </cc:Work>
    </rdf:RDF>
  </metadata>
  <g
     inkscape:label="Layer 1"
     inkscape:groupmode="layer"
     id="layer1"
     transform="translate(0,-28.362183)">
    <g
       id="g3313"
       transform="matrix(4.8932621,0,0,4.8932621,-1353.9989,-2799.3465)">
      <path
         inkscape:connector-curvature="0"
         id="path3290-5"
         d="m 373.2947,764.91351 0,-106.44838 -89.3189,0 0,116.09302 43.2958,-20.71813 45.34127,17.86046 z"
         style="fill:#dec69c;fill-opacity:1;stroke:#dec69c;stroke-width:0.97710323px;stroke-linecap:butt;stroke-linejoin:miter;stroke-opacity:1" />
      <path
         inkscape:connector-curvature="0"
         id="path3290"
         d="m 389.13437,764.15583 0,-106.44721 89.5689,0 0,116.09175 -43.41698,-20.71791 -45.46817,17.86026 z"
         style="fill:#dec69c;fill-opacity:1;stroke:#dec69c;stroke-width:0.97846431px;stroke-linecap:butt;stroke-linejoin:miter;stroke-opacity:1" />
      <path
         id="path3256-1"
         d="m 284.375,629.625 0,35.59375 c 46.71956,15.90991 89.90625,74 89.90625,74 l 6.8125,0.0625 0,-109.65625 -96.71875,0 z m 97.46875,0 0,109.65625 6.8125,-0.0625 c 0,0 43.18669,-58.09009 89.90625,-74 l 0,-35.59375 -96.71875,0 z"
         style="fill:#0057a6;fill-opacity:1;stroke:#0057a6;stroke-width:1px;stroke-linecap:butt;stroke-linejoin:miter;stroke-opacity:1"
         inkscape:connector-curvature="0" />
      <path
         sodipodi:nodetypes="ccccccc"
         inkscape:connector-curvature="0"
         id="path3277-2"
         d="m 373.30149,762.41229 -47.02834,-20.72638 -42.72292,21.44107 0,18.58227 44.37885,-21.08373 45.3724,20.72638 z"
         style="fill:#ffffff;stroke:#ffffff;stroke-width:0.96325493px;stroke-linecap:butt;stroke-linejoin:miter;stroke-opacity:1" />
      <g
         id="g3239">
        <path
           style="fill:#ffffff;fill-opacity:1;stroke:#ffffff;stroke-width:0.45453617px;stroke-linecap:butt;stroke-linejoin:miter;stroke-opacity:1"
           d="m 303.9177,633.91069 -3.12494,4.82944 -5.86636,1.56247 4.19026,4.19025 -1.73292,6.49134 6.54816,-3.25277 -0.0142,-13.82073 z m 0.44032,0 -0.0284,13.82073 6.54816,3.25277 -1.73292,-6.49134 4.19026,-4.19025 -5.86636,-1.56247 -3.11074,-4.82944 z"
           id="path2996"
           inkscape:connector-curvature="0" />
        <path
           style="fill:#ffffff;fill-opacity:1;stroke:#ffffff;stroke-width:0.45453617px;stroke-linecap:butt;stroke-linejoin:miter;stroke-opacity:1"
           d="m 335.66267,633.91041 -3.12494,4.82944 -5.86636,1.56247 4.19026,4.19025 -1.73292,6.49134 6.54816,-3.25277 -0.0142,-13.82073 z m 0.44032,0 -0.0284,13.82073 6.54816,3.25277 -1.73292,-6.49134 4.19026,-4.19025 -5.86636,-1.56247 -3.11074,-4.82944 z"
           id="path2996-7"
           inkscape:connector-curvature="0" />
        <path
           style="fill:#ffffff;fill-opacity:1;stroke:#ffffff;stroke-width:0.45453617px;stroke-linecap:butt;stroke-linejoin:miter;stroke-opacity:1"
           d="m 367.48247,633.91041 -3.12494,4.82944 -5.86636,1.56247 4.19026,4.19025 -1.73292,6.49134 6.54816,-3.25277 -0.0142,-13.82073 z m 0.44032,0 -0.0284,13.82073 6.54816,3.25277 -1.73292,-6.49134 4.19026,-4.19025 -5.86636,-1.56247 -3.11074,-4.82944 z"
           id="path2996-7-4"
           inkscape:connector-curvature="0" />
        <path
           style="fill:#ffffff;fill-opacity:1;stroke:#ffffff;stroke-width:0.45453617px;stroke-linecap:butt;stroke-linejoin:miter;stroke-opacity:1"
           d="m 400.31242,633.91041 -3.12494,4.82944 -5.86636,1.56247 4.19026,4.19025 -1.73292,6.49134 6.54816,-3.25277 -0.0142,-13.82073 z m 0.44032,0 -0.0284,13.82073 6.54816,3.25277 -1.73292,-6.49134 4.19026,-4.19025 -5.86636,-1.56247 -3.11074,-4.82944 z"
           id="path2996-7-4-0"
           inkscape:connector-curvature="0" />
        <path
           style="fill:#ffffff;fill-opacity:1;stroke:#ffffff;stroke-width:0.45453617px;stroke-linecap:butt;stroke-linejoin:miter;stroke-opacity:1"
           d="m 432.38477,633.91041 -3.12494,4.82944 -5.86636,1.56247 4.19026,4.19025 -1.73292,6.49134 6.54816,-3.25277 -0.0142,-13.82073 z m 0.44032,0 -0.0284,13.82073 6.54816,3.25277 -1.73292,-6.49134 4.19026,-4.19025 -5.86636,-1.56247 -3.11074,-4.82944 z"
           id="path2996-7-4-0-9"
           inkscape:connector-curvature="0" />
        <path
           style="fill:#ffffff;fill-opacity:1;stroke:#ffffff;stroke-width:0.45453617px;stroke-linecap:butt;stroke-linejoin:miter;stroke-opacity:1"
           d="m 465.21473,633.91041 -3.12494,4.82944 -5.86636,1.56247 4.19026,4.19025 -1.73292,6.49134 6.54816,-3.25277 -0.0142,-13.82073 z m 0.44032,0 -0.0284,13.82073 6.54816,3.25277 -1.73292,-6.49134 4.19026,-4.19025 -5.86636,-1.56247 -3.11074,-4.82944 z"
           id="path2996-7-4-0-9-4"
           inkscape:connector-curvature="0" />
        <path
           style="fill:#ffffff;fill-opacity:1;stroke:#ffffff;stroke-width:0.45453617px;stroke-linecap:butt;stroke-linejoin:miter;stroke-opacity:1"
           d="m 314.70199,660.22 -3.12494,4.82944 -5.86636,1.56247 4.19026,4.19025 -1.73292,6.49134 6.54816,-3.25277 -0.0142,-13.82073 z m 0.44032,0 -0.0284,13.82073 6.54816,3.25277 -1.73292,-6.49134 4.19026,-4.19025 -5.86636,-1.56247 -3.11074,-4.82944 z"
           id="path2996-8"
           inkscape:connector-curvature="0" />
        <path
           style="fill:#ffffff;fill-opacity:1;stroke:#ffffff;stroke-width:0.45453617px;stroke-linecap:butt;stroke-linejoin:miter;stroke-opacity:1"
           d="m 343.99642,660.22041 -3.12494,4.82944 -5.86636,1.56247 4.19026,4.19025 -1.73292,6.49134 6.54816,-3.25277 -0.0142,-13.82073 z m 0.44032,0 -0.0284,13.82073 6.54816,3.25277 -1.73292,-6.49134 4.19026,-4.19025 -5.86636,-1.56247 -3.11074,-4.82944 z"
           id="path2996-8-8"
           inkscape:connector-curvature="0" />
        <path
           style="fill:#ffffff;fill-opacity:1;stroke:#ffffff;stroke-width:0.45453617px;stroke-linecap:butt;stroke-linejoin:miter;stroke-opacity:1"
           d="m 352.58272,683.20097 -3.12494,4.82944 -5.86636,1.56247 4.19026,4.19025 -1.73292,6.49134 6.54816,-3.25277 -0.0142,-13.82073 z m 0.44032,0 -0.0284,13.82073 6.54816,3.25277 -1.73292,-6.49134 4.19026,-4.19025 -5.86636,-1.56247 -3.11074,-4.82944 z"
           id="path2996-8-8-2"
           inkscape:connector-curvature="0" />
        <path
           style="fill:#ffffff;fill-opacity:1;stroke:#ffffff;stroke-width:0.45453617px;stroke-linecap:butt;stroke-linejoin:miter;stroke-opacity:1"
           d="m 380.88231,664.00808 -3.12494,4.82944 -5.86636,1.56247 4.19026,4.19025 -1.73292,6.49134 6.54816,-3.25277 -0.0142,-13.82073 z m 0.44032,0 -0.0284,13.82073 6.54816,3.25277 -1.73292,-6.49134 4.19026,-4.19025 -5.86636,-1.56247 -3.11074,-4.82944 z"
           id="path2996-8-8-2-4"
           inkscape:connector-curvature="0" />
        <path
           style="fill:#ffffff;fill-opacity:1;stroke:#ffffff;stroke-width:0.45453617px;stroke-linecap:butt;stroke-linejoin:miter;stroke-opacity:1"
           d="m 380.88243,692.29234 -3.12494,4.82944 -5.86636,1.56247 4.19026,4.19025 -1.73292,6.49134 6.54816,-3.25277 -0.0142,-13.82073 z m 0.44032,0 -0.0284,13.82073 6.54816,3.25277 -1.73292,-6.49134 4.19026,-4.19025 -5.86636,-1.56247 -3.11074,-4.82944 z"
           id="path2996-8-8-2-4-5"
           inkscape:connector-curvature="0" />
        <path
           style="fill:#ffffff;fill-opacity:1;stroke:#ffffff;stroke-width:0.45453617px;stroke-linecap:butt;stroke-linejoin:miter;stroke-opacity:1"
           d="m 380.88243,716.03093 -3.12494,4.82944 -5.86636,1.56247 4.19026,4.19025 -1.73292,6.49134 6.54816,-3.25277 -0.0142,-13.82073 z m 0.44032,0 -0.0284,13.82073 6.54816,3.25277 -1.73292,-6.49134 4.19026,-4.19025 -5.86636,-1.56247 -3.11074,-4.82944 z"
           id="path2996-8-8-2-4-5-5"
           inkscape:connector-curvature="0" />
        <path
           style="fill:#ffffff;fill-opacity:1;stroke:#ffffff;stroke-width:0.45453617px;stroke-linecap:butt;stroke-linejoin:miter;stroke-opacity:1"
           d="m 442.65988,660.22044 3.12494,4.82944 5.86636,1.56247 -4.19026,4.19025 1.73292,6.49134 -6.54816,-3.25277 0.0142,-13.82073 z m -0.44032,0 0.0284,13.82073 -6.54816,3.25277 1.73292,-6.49134 -4.19026,-4.19025 5.86636,-1.56247 3.11074,-4.82944 z"
           id="path2996-8-1"
           inkscape:connector-curvature="0" />
        <path
           style="fill:#ffffff;fill-opacity:1;stroke:#ffffff;stroke-width:0.45453617px;stroke-linecap:butt;stroke-linejoin:miter;stroke-opacity:1"
           d="m 413.36545,660.22085 3.12494,4.82944 5.86636,1.56247 -4.19026,4.19025 1.73292,6.49134 -6.54816,-3.25277 0.0142,-13.82073 z m -0.44032,0 0.0284,13.82073 -6.54816,3.25277 1.73292,-6.49134 -4.19026,-4.19025 5.86636,-1.56247 3.11074,-4.82944 z"
           id="path2996-8-8-7"
           inkscape:connector-curvature="0" />
        <path
           style="fill:#ffffff;fill-opacity:1;stroke:#ffffff;stroke-width:0.45453617px;stroke-linecap:butt;stroke-linejoin:miter;stroke-opacity:1"
           d="m 404.77915,683.20141 3.12494,4.82944 5.86636,1.56247 -4.19026,4.19025 1.73292,6.49134 -6.54816,-3.25277 0.0142,-13.82073 z m -0.44032,0 0.0284,13.82073 -6.54816,3.25277 1.73292,-6.49134 -4.19026,-4.19025 5.86636,-1.56247 3.11074,-4.82944 z"
           id="path2996-8-8-2-1"
           inkscape:connector-curvature="0" />
      </g>
      <path
         sodipodi:nodetypes="ccccccc"
         inkscape:connector-curvature="0"
         id="path3277"
         d="m 389.12757,761.65463 47.15997,-20.72615 42.8425,21.44084 0,18.58206 -44.50307,-21.08349 -45.49939,20.72615 z"
         style="fill:#ffffff;stroke:#ffffff;stroke-width:0.96459675px;stroke-linecap:butt;stroke-linejoin:miter;stroke-opacity:1" />
    </g>
  </g>
</svg>
