<?xml version="1.0" encoding="UTF-8" standalone="no"?>
<!-- Created with Inkscape (http://www.inkscape.org/) -->

<svg
   xmlns:dc="http://purl.org/dc/elements/1.1/"
   xmlns:cc="http://creativecommons.org/ns#"
   xmlns:rdf="http://www.w3.org/1999/02/22-rdf-syntax-ns#"
   xmlns:svg="http://www.w3.org/2000/svg"
   xmlns="http://www.w3.org/2000/svg"
   xmlns:sodipodi="http://sodipodi.sourceforge.net/DTD/sodipodi-0.dtd"
   xmlns:inkscape="http://www.inkscape.org/namespaces/inkscape"
   width="1024"
   height="1024"
   id="svg2"
   version="1.1"
   inkscape:version="0.48.4 r9939"
   sodipodi:docname="Wonder Woman Face.svg">
  <defs
     id="defs4" />
  <sodipodi:namedview
     id="base"
     pagecolor="#ffffff"
     bordercolor="#666666"
     borderopacity="1.0"
     inkscape:pageopacity="0.0"
     inkscape:pageshadow="2"
     inkscape:zoom="0.35"
     inkscape:cx="-67.457024"
     inkscape:cy="479.51979"
     inkscape:document-units="px"
     inkscape:current-layer="layer1"
     showgrid="false"
     inkscape:window-width="1366"
     inkscape:window-height="705"
     inkscape:window-x="-8"
     inkscape:window-y="-8"
     inkscape:window-maximized="1" />
  <metadata
     id="metadata7">
    <rdf:RDF>
      <cc:Work
         rdf:about="">
        <dc:format>image/svg+xml</dc:format>
        <dc:type
           rdf:resource="http://purl.org/dc/dcmitype/StillImage" />
        <dc:title></dc:title>
      </cc:Work>
    </rdf:RDF>
  </metadata>
  <g
     inkscape:label="Layer 1"
     inkscape:groupmode="layer"
     id="layer1"
     transform="translate(0,-28.362183)">
    <path
       style="fill:#ff0000;stroke:#ff0000;stroke-width:11.48945904px;stroke-linecap:butt;stroke-linejoin:miter;stroke-opacity:1"
       d="m 315.33879,887.73654 c 2.09624,-33.00576 79.34367,-96.43218 139.27326,-71.08758 49.92457,21.11303 72.22067,22.35734 114.2884,1.94861 40.62271,-19.70787 151.49989,9.60174 149.7505,54.63123 -2.14462,55.20225 -97.11028,139.9118 -209.26187,139.0971 -121.47552,-0.8846 -193.72847,-83.64667 -194.05029,-124.58936 z"
       id="path3037"
       inkscape:connector-curvature="0"
       sodipodi:nodetypes="cssssc" />
    <path
       style="fill:#000000;stroke:#000000;stroke-width:0.41423127px;stroke-linecap:butt;stroke-linejoin:miter;stroke-opacity:1"
       d="m 627.26645,506.24401 c 0,0 99.92531,-49.45064 166.02198,-34.31442 66.09633,15.13506 104.13367,-24.32318 115.71309,-52.2621 11.57954,-27.93915 -38.59113,10.25089 -46.62306,8.40109 -6.96779,-1.60508 2.12198,-27.19601 -5.74382,-27.87412 -7.86602,-0.67787 -22.28725,24.078 -31.57866,25.99214 -9.29141,1.91415 -10.44955,-10.4723 -7.83845,-25.78417 2.61109,-15.31201 -26.54536,15.11851 -42.70161,19.20187 -16.15601,4.0822 -123.87555,23.49823 -159.32363,60.83323 -15.08118,15.88418 2.19242,31.98896 12.07416,25.80648 z"
       id="path3033"
       inkscape:connector-curvature="0"
       sodipodi:nodetypes="cssssssssc" />
    <path
       sodipodi:type="arc"
       style="fill:#000000;fill-opacity:1;stroke:#000000;stroke-opacity:1"
       id="path3016"
       sodipodi:cx="399.13654"
       sodipodi:cy="377.45401"
       sodipodi:rx="7.8286824"
       sodipodi:ry="7.8286824"
       d="m 406.96522,377.45401 a 7.8286824,7.8286824 0 1 1 -15.65737,0 7.8286824,7.8286824 0 1 1 15.65737,0 z"
       transform="matrix(11.489459,0,0,11.489459,-3862.8593,-3782.6817)" />
    <path
       style="fill:#000000;stroke:#000000;stroke-width:11.48945904px;stroke-linecap:butt;stroke-linejoin:miter;stroke-opacity:1"
       d="m 48.363982,361.34849 c 0,0 38.982125,-100.53277 207.220658,-53.34395 0,0 136.43732,63.60242 162.0834,84.11926 20.51696,16.4135 73.86079,-20.51684 -16.41349,-69.75744 -90.27429,-49.24049 -244.36034,-69.56362 -309.805098,-40.0079 -31.801098,14.36182 -42.059691,36.93045 -43.08547,78.99003 z"
       id="path2996"
       inkscape:connector-curvature="0"
       sodipodi:nodetypes="ccsssc" />
    <path
       style="fill:#000000;stroke:#000000;stroke-width:11.48945904px;stroke-linecap:butt;stroke-linejoin:miter;stroke-opacity:1"
       d="m 975.63606,393.01091 c 0,0 -38.98216,-100.53277 -207.2207,-53.34395 0,0 -136.43732,63.60243 -162.0834,84.1195 -20.51696,16.41383 -73.86079,-20.51707 16.4135,-69.75768 90.27428,-49.24049 244.36033,-69.56361 309.80509,-40.0079 31.80112,14.36183 42.05966,36.93045 43.08551,78.99003 z"
       id="path2996-1"
       inkscape:connector-curvature="0"
       sodipodi:nodetypes="ccsssc" />
    <path
       sodipodi:type="arc"
       style="fill:#ffffff;fill-opacity:1;stroke:#ffffff;stroke-opacity:1"
       id="path3018"
       sodipodi:cx="399.55356"
       sodipodi:cy="373.88004"
       sodipodi:rx="3.0357144"
       sodipodi:ry="3.0357144"
       d="m 402.58927,373.88004 a 3.0357144,3.0357144 0 1 1 -6.07143,0 3.0357144,3.0357144 0 1 1 6.07143,0 z"
       transform="matrix(11.489459,0,0,11.489459,-3874.4654,-3781.2309)" />
    <path
       style="fill:#000000;stroke:#000000;stroke-width:11.48945904px;stroke-linecap:butt;stroke-linejoin:miter;stroke-opacity:1"
       d="M 507.94232,882.47782 C 620.78524,880.4258 731.57648,824.00452 762.3518,822.97851 794.77379,821.8985 713.01273,935.36035 505.89065,934.79621 329.88766,931.01963 214.46812,826.43798 253.74288,822.46148 c 19.55208,-1.97963 112.52086,57.19223 254.19944,60.01634 z"
       id="path3035"
       inkscape:connector-curvature="0"
       sodipodi:nodetypes="cscsc" />
    <path
       style="fill:#000000;stroke:#000000;stroke-width:0.41423127px;stroke-linecap:butt;stroke-linejoin:miter;stroke-opacity:1"
       d="m 394.46772,506.24401 c 0,0 -99.92531,-49.45179 -166.02199,-34.31558 -66.09632,15.13622 -104.13367,-24.32318 -115.71309,-52.2621 -11.57954,-27.93857 38.59114,10.25205 46.62307,8.40225 6.96778,-1.60508 -2.12198,-27.19658 5.74381,-27.87469 7.86603,-0.67788 22.28725,24.07742 31.57866,25.99271 9.29141,1.91415 10.44956,-10.47286 7.83846,-25.78475 -2.6111,-15.31201 26.54536,15.11851 42.70161,19.20129 16.15601,4.08336 123.87555,23.49825 159.32363,60.83324 15.08118,15.88533 -2.19242,31.98895 -12.07416,25.80763 z"
       id="path3033-7"
       inkscape:connector-curvature="0"
       sodipodi:nodetypes="cssssssssc" />
    <path
       sodipodi:type="arc"
       style="fill:#000000;fill-opacity:1;stroke:#000000;stroke-opacity:1"
       id="path3016-4"
       sodipodi:cx="399.13654"
       sodipodi:cy="377.45401"
       sodipodi:rx="7.8286824"
       sodipodi:ry="7.8286824"
       d="m 406.96522,377.45401 a 7.8286824,7.8286824 0 1 1 -15.65737,0 7.8286824,7.8286824 0 1 1 15.65737,0 z"
       transform="matrix(-11.489459,0,0,11.489459,4884.5936,-3782.6823)" />
    <path
       sodipodi:type="arc"
       style="fill:#ffffff;fill-opacity:1;stroke:#ffffff;stroke-opacity:1"
       id="path3018-0"
       sodipodi:cx="399.55356"
       sodipodi:cy="373.88004"
       sodipodi:rx="3.0357144"
       sodipodi:ry="3.0357144"
       d="m 402.58927,373.88004 a 3.0357144,3.0357144 0 1 1 -6.07143,0 3.0357144,3.0357144 0 1 1 6.07143,0 z"
       transform="matrix(-11.489459,0,0,11.489459,4896.1996,-3781.2316)" />
  </g>
</svg>
