<?xml version="1.0" encoding="UTF-8" standalone="no"?>
<!-- Created with Inkscape (http://www.inkscape.org/) -->

<svg
   xmlns:dc="http://purl.org/dc/elements/1.1/"
   xmlns:cc="http://creativecommons.org/ns#"
   xmlns:rdf="http://www.w3.org/1999/02/22-rdf-syntax-ns#"
   xmlns:svg="http://www.w3.org/2000/svg"
   xmlns="http://www.w3.org/2000/svg"
   xmlns:sodipodi="http://sodipodi.sourceforge.net/DTD/sodipodi-0.dtd"
   xmlns:inkscape="http://www.inkscape.org/namespaces/inkscape"
   width="1024"
   height="1024"
   id="svg2"
   version="1.1"
   inkscape:version="0.48.4 r9939"
   sodipodi:docname="Johnny Thunder Face.svg"
   inkscape:export-filename="G:\Blender\Projects\LEGO-A_study_of_materials\Johnny Thunder Project\Johnny Thunder Face.png"
   inkscape:export-xdpi="90"
   inkscape:export-ydpi="90">
  <defs
     id="defs4" />
  <sodipodi:namedview
     id="base"
     pagecolor="#ffffff"
     bordercolor="#666666"
     borderopacity="1.0"
     inkscape:pageopacity="0.0"
     inkscape:pageshadow="2"
     inkscape:zoom="0.7"
     inkscape:cx="95.822614"
     inkscape:cy="531.67963"
     inkscape:document-units="px"
     inkscape:current-layer="layer1"
     showgrid="false"
     inkscape:window-width="1920"
     inkscape:window-height="1018"
     inkscape:window-x="-8"
     inkscape:window-y="-8"
     inkscape:window-maximized="1" />
  <metadata
     id="metadata7">
    <rdf:RDF>
      <cc:Work
         rdf:about="">
        <dc:format>image/svg+xml</dc:format>
        <dc:type
           rdf:resource="http://purl.org/dc/dcmitype/StillImage" />
        <dc:title></dc:title>
      </cc:Work>
    </rdf:RDF>
  </metadata>
  <g
     inkscape:label="Layer 1"
     inkscape:groupmode="layer"
     id="layer1"
     transform="translate(0,-28.362183)">
    <g
       id="g3080"
       transform="matrix(1.5665639,0,0,1.5665639,1010.6051,-156.47004)">
      <path
         sodipodi:nodetypes="ccscccccccscccccccsccccsccssssssssscsssssssssscssssssssssscsssssssscccccccsccccccccccccssssssssssccscssscssssscccccccccsssccccccccccccccccccccssccccc"
         inkscape:connector-curvature="0"
         id="path3027"
         d="m -332.44478,682.08248 c -14.58971,-3.8024 -25.26116,-5.49226 -39.03951,-7.08995 -15.09081,-1.74086 -20.55574,-4.25353 -22.72247,-10.44736 -2.67856,-7.65693 1.68705,-10.76051 16.31428,-11.59807 19.41297,-0.59332 33.37252,-0.96903 50.91397,-3.66607 23.21964,-3.76649 47.13657,-0.0914 69.11301,-15.46602 10.66738,-6.86238 22.22662,-2.79434 23.54566,5.75343 1.85607,10.60891 -1.71333,10.56351 -6.96671,18.30374 -15.42301,17.93285 -35.08639,26.95862 -56.44196,27.00644 -17.93767,-0.459 -24.14934,-0.65161 -34.71627,-2.79614 z m 87.96794,-60.48971 c -20.29536,-8.4772 -50.66854,-4.00737 -63.00167,-18.19619 -3.05258,-3.53123 -6.21771,-2.55669 -12.67792,3.90352 -11.44545,6.2279 -27.41743,6.17975 -37.66212,9.07869 -32.8343,5.63033 -80.32628,44.9655 -110.01193,23.74339 -13.60922,-11.36825 -16.86587,-19.70462 -5.78244,-14.80189 37.3937,11.32642 58.7158,-23.00219 83.73418,-36.50495 17.38336,-4.82512 36.3443,-8.81577 51.15023,-8.10185 11.45876,0.58796 17.8411,2.20864 22.19992,5.63729 3.527,2.77434 5.63634,2.54307 9.75029,-1.06903 10.2656,-6.59507 45.85171,-4.21702 58.10001,0.007 22.85113,9.18526 33.9246,27.68593 56.44978,39.15624 10.3667,3.36045 18.8343,7.25355 30.53322,4.62813 6.89106,-4.30716 9.53633,-4.29808 9.86649,-3.96792 2.14461,2.14462 -0.55672,9.3741 -9.28034,12.05267 -37.22267,9.35922 -57.62186,-3.42549 -83.3677,-15.56512 z M -611.87798,506.31699 c -6.40301,-0.83464 -12.99514,-3.60673 -15.36371,-6.46068 -0.8579,-1.03371 -1.5414,-5.05082 -1.80794,-10.62576 -0.39949,-8.3558 -0.2675,-9.13726 1.94628,-11.52284 2.35292,-2.53552 2.47635,-2.55303 13.37484,-1.8975 20.74468,1.24775 22.19474,2.5483 21.12035,18.94264 -0.35873,5.47406 -1.15017,10.5528 -1.75874,11.28608 -1.22315,1.4738 -7.56517,1.57451 -17.51108,0.27806 z m 574.861398,-3.19481 c -0.56813,-0.6875 -1.35746,-3.05 -1.75407,-5.25 -0.39661,-2.2 -1.10242,-4.74025 -1.56847,-5.64499 -0.55901,-1.08521 -0.34735,-2.05997 0.62196,-2.86443 0.86512,-0.71798 1.2444,-2.11559 0.92234,-3.39875 -0.34775,-1.38555 0.11106,-2.7591 1.25967,-3.77108 1.74514,-1.53757 3.46054,-1.95196 15.30664,-3.6976 3.025,-0.44576 6.29323,-1.15617 7.26273,-1.57869 3.51531,-1.532 4.41519,0.86602 4.31708,11.50425 -0.0871,9.44341 -0.24516,10.19026 -2.51985,11.90606 -1.50938,1.13853 -5.69125,2.24927 -11.06117,2.93793 -10.84436,1.39074 -11.52596,1.38313 -12.78686,-0.1427 z M -598.22851,454.73719 c -2.75264,-0.44501 -14.50073,-3.92436 -20,-5.92326 -1.925,-0.6997 -4.26128,-1.51116 -5.19174,-1.80323 -3.61934,-1.13611 -5.04973,-5.25268 -5.09385,-14.65979 -0.0376,-8.01976 0.20578,-9.26488 2.23299,-11.42274 1.9514,-2.07717 2.65075,-2.27123 4.9139,-1.36356 1.45128,0.58206 9.8387,1.1355 18.6387,1.22987 17.86495,0.19159 20.27556,0.83726 23.49443,6.29284 2.32195,3.93541 2.60882,10.51887 0.79983,18.35581 -1.09068,4.72508 -1.59165,5.39083 -5.25,6.97683 -4.48249,1.94329 -10.71508,2.93628 -14.54426,2.31723 z m 547.662978,-8.4487 c -3.79438,-4.12682 -3.82422,-4.22354 -3.17472,-10.29114 0.36061,-3.36884 0.86324,-6.86427 1.11695,-7.76762 0.88978,-3.16807 8.79759,-4.94599 23.39479,-5.25989 5.35781,-0.11522 10.50354,-0.75345 11.80158,-1.46377 3.38037,-1.8498 6.50052,-1.05304 7.30775,1.86611 1.0355504,3.74487 1.0193004,15.53148 -0.0252,18.27873 -0.50374,1.32492 -2.19124,2.87791 -3.75,3.45109 -3.08589,1.13473 -18.54776,3.83063 -27.33745,4.7665 -5.45549,0.58086 -5.53662,0.54974 -9.3337,-3.58001 z M -371.42521,417.84215 c -0.29152,-0.29152 -15.10402,-0.93862 -32.91667,-1.438 -42.37581,-0.34645 -75.77972,-6.4389 -96.10069,-12.73706 -8.04976,-9.17852 -2.21443,-14.29868 3.01015,-16.82285 44.94846,-5.18276 80.37188,-11.50135 122.25977,1.82537 10.6156,2.32132 16.93363,5.81708 18.75411,6.19702 9.88839,3.88081 6.63985,18.71495 3.36129,21.85054 -1.38106,1.24984 -3.7883,1.65499 -9.83333,1.65499 -4.40253,0 -8.24311,-0.23851 -8.53463,-0.53003 z m 98.1967,-4.77641 c -2.46882,-0.84191 -4.0369,-2.2922 -5.32232,-4.92256 -3.75928,-7.69256 1.86045,-12.30115 15.18362,-22.40017 27.35459,-11.09041 50.93227,-15.61884 80.1387,-18.97373 12.21482,-1.44321 34.58481,-2.25019 39.04115,-1.32365 3.36222,1.30179 8.87777,2.5705 8.56362,5.91303 -3.05596,11.83818 -7.02081,11.52256 -16.77401,11.65675 -33.90817,4.1994 -61.0142,20.86618 -92.20861,26.39978 -9.75005,1.22922 -19.35991,6.64035 -28.62215,3.65055 z m -322.73937,-17.20822 c -5.63165,-0.67864 -11.48165,-1.71233 -13,-2.29709 -1.51835,-0.58476 -4.27006,-1.3624 -6.11492,-1.72808 -3.91991,-0.77701 -11.83202,-4.14359 -12.57909,-5.35237 -0.28392,-0.45939 -0.98581,-4.9806 -1.55975,-10.04713 -0.80995,-7.14987 -0.75963,-9.78637 0.2248,-11.7784 1.25428,-2.5381 1.41782,-2.5703 14.76833,-2.9077 7.425,-0.18765 18.45,-0.51943 24.5,-0.73728 16.15499,-0.58173 21.22973,0.44734 25.14574,5.09914 4.04358,4.80333 4.79309,9.55973 2.83612,17.99804 -1.87921,8.10297 -3.33513,9.84751 -9.82737,11.77549 -5.74934,1.70737 -10.05705,1.70302 -24.39386,-0.0246 z m 530.989368,-4.97621 -3.25,-1.41258 0,-9.1252 c 0,-8.67324 0.13947,-9.26467 2.81595,-11.94115 3.19513,-3.19513 5.69054,-3.48017 39.37268,-4.49734 l 17.6886304,-0.53418 0.68302,4.55475 c 0.73552,4.90478 -0.11099,13.73855 -1.57945,16.48239 -0.49742,0.92943 -2.1590904,2.18414 -3.6926104,2.78824 -2.55068,1.00479 -5.85785,1.55664 -25.28822,4.21965 -9.85118,1.35015 -23.01917,1.08699 -26.75,-0.53458 z M -366.29096,371.15338 c -1.34009,-0.49574 -3.44297,-1.84684 -4.67308,-3.00247 -2.65927,-2.49825 -2.39873,-6.18976 1.21947,-17.27873 3.71241,-11.78618 7.74732,-34.41103 4.11674,-43.91329 -1.39851,-3.3471 -0.86695,-9.51528 -8.0284,-5.58671 -26.00048,24.93364 -61.81399,46.09253 -91.27967,59 -11.35966,4.53633 -20.30157,8.03536 -24.35531,4.44326 -2.25373,-2.0396 -2.57257,-6.26225 -0.53196,-7.04531 8.21438,-8.39338 17.24619,-18.63024 19.69739,-31.10068 1.77606,-7.31177 -0.722,-20.52605 -4.61944,-32.05136 -7.71509,-22.81465 -12.38648,-25.30251 -42.48329,-22.6254 -14.05486,1.25018 -18.72447,2.09251 -27.83919,5.0218 -7.06944,2.27197 -17.13374,11.04482 -19.81581,17.27304 -6.9675,13.61123 0.20478,28.47131 2.90382,40.3379 -0.3889,3.11629 -1.24829,4.27959 -5.06399,6.85477 -11.77998,6.70574 -45.96393,6.18069 -61.25056,-3.89718 -20.4809,-18.83933 14.60103,-88.80048 33.16707,-105.22663 10.41167,-7.82977 20.26226,-12.71498 36.89866,-18.29919 62.16195,-13.95754 111.68713,-13.75207 174.16949,-13.59246 20.53178,0.0611 44.30551,0.058 52.83051,-0.007 84.93864,-0.64675 126.2225,-0.437 148,0.75193 42.26553,2.98822 89.028271,-1.58781 127.650468,16.3249 20.560434,10.35724 39.500833,22.97511 46.5348904,48.20577 4.9268621,21.44473 2.9694994,35.78997 2.96436,56.08127 0.036,12.9205 -1.1675,14.1373 -15.4324404,15.60287 -11.259553,2.28259 -51.575417,7.19966 -47.61561,-3.26453 8.517188,-20.85066 4.132903,-38.81868 -4.40602,-52.89726 -16.298281,-20.64849 -38.749738,-23.36302 -62.098098,-20.3063 -11.30684,4.46741 -9.90564,4.72606 -15.16853,13.60362 -6.79558,27.29971 -30.43955,70.82514 -51.55841,86.85612 -12.2764,9.95734 -45.99158,13.27082 -49.06443,2.40712 0.74738,-14.55812 8.35098,-27.08636 8.5347,-39.71401 0.0783,-6.86425 -0.33267,-9.15381 -2.466,-13.73713 -3.45382,-7.42033 -7.45258,-12 -10.47786,-12 -2.78523,0 -8.99584,7.28785 -13.01963,12.77638 -22.35903,30.6394 -44.04137,52.6816 -78.96708,59.32806 -7.39235,1.40994 -15.67086,1.71321 -18.47276,0.67672 z"
         style="fill:#000000;stroke:#000000" />
      <path
         transform="translate(1.42857,4.2857192)"
         d="m -367.85714,454.50504 c 0,23.27485 -18.868,42.14285 -42.14286,42.14285 -23.27486,0 -42.14286,-18.868 -42.14286,-42.14285 0,-23.27486 18.868,-42.14286 42.14286,-42.14286 23.27486,0 42.14286,18.868 42.14286,42.14286 z"
         sodipodi:ry="42.142857"
         sodipodi:rx="42.142857"
         sodipodi:cy="454.50504"
         sodipodi:cx="-410"
         id="path3029"
         style="fill:#000000;fill-opacity:1;stroke:#000000;stroke-opacity:1"
         sodipodi:type="arc" />
      <path
         transform="translate(192.14286,4.2852906)"
         d="m -367.85714,454.50504 c 0,23.27485 -18.868,42.14285 -42.14286,42.14285 -23.27486,0 -42.14286,-18.868 -42.14286,-42.14285 0,-23.27486 18.868,-42.14286 42.14286,-42.14286 23.27486,0 42.14286,18.868 42.14286,42.14286 z"
         sodipodi:ry="42.142857"
         sodipodi:rx="42.142857"
         sodipodi:cy="454.50504"
         sodipodi:cx="-410"
         id="path3029-1"
         style="fill:#000000;fill-opacity:1;stroke:#000000;stroke-opacity:1"
         sodipodi:type="arc" />
      <path
         transform="matrix(0.8124411,0,0,0.8124411,-74.763022,83.963048)"
         d="m -374.76659,436.67419 c 0,8.64733 -7.01004,15.65737 -15.65736,15.65737 -8.64732,0 -15.65737,-7.01004 -15.65737,-15.65737 0,-8.64732 7.01005,-15.65736 15.65737,-15.65736 8.64732,0 15.65736,7.01004 15.65736,15.65736 z"
         sodipodi:ry="15.657365"
         sodipodi:rx="15.657365"
         sodipodi:cy="436.67419"
         sodipodi:cx="-390.42395"
         id="path3060"
         style="fill:#ffffff;fill-opacity:1;stroke:#000000;stroke-opacity:1"
         sodipodi:type="arc" />
      <path
         transform="matrix(0.8124411,0,0,0.8124411,113.67103,83.963213)"
         d="m -374.76659,436.67419 c 0,8.64733 -7.01004,15.65737 -15.65736,15.65737 -8.64732,0 -15.65737,-7.01004 -15.65737,-15.65737 0,-8.64732 7.01005,-15.65736 15.65737,-15.65736 8.64732,0 15.65736,7.01004 15.65736,15.65736 z"
         sodipodi:ry="15.657365"
         sodipodi:rx="15.657365"
         sodipodi:cy="436.67419"
         sodipodi:cx="-390.42395"
         id="path3060-7"
         style="fill:#ffffff;fill-opacity:1;stroke:#000000;stroke-opacity:1"
         sodipodi:type="arc" />
    </g>
  </g>
</svg>
