<?xml version="1.0" encoding="UTF-8" standalone="no"?>
<!-- Created with Inkscape (http://www.inkscape.org/) -->

<svg
   xmlns:dc="http://purl.org/dc/elements/1.1/"
   xmlns:cc="http://creativecommons.org/ns#"
   xmlns:rdf="http://www.w3.org/1999/02/22-rdf-syntax-ns#"
   xmlns:svg="http://www.w3.org/2000/svg"
   xmlns="http://www.w3.org/2000/svg"
   xmlns:sodipodi="http://sodipodi.sourceforge.net/DTD/sodipodi-0.dtd"
   xmlns:inkscape="http://www.inkscape.org/namespaces/inkscape"
   width="1024"
   height="1024"
   id="svg2"
   version="1.1"
   inkscape:version="0.48.4 r9939"
   sodipodi:docname="Johnny Thunder Torso.svg"
   inkscape:export-filename="G:\Blender\Projects\LEGO-A_study_of_materials\Johnny Thunder Project\Johnny Thunder Torso.png"
   inkscape:export-xdpi="90"
   inkscape:export-ydpi="90">
  <defs
     id="defs4" />
  <sodipodi:namedview
     id="base"
     pagecolor="#ffffff"
     bordercolor="#666666"
     borderopacity="1.0"
     inkscape:pageopacity="0.0"
     inkscape:pageshadow="2"
     inkscape:zoom="0.70000001"
     inkscape:cx="823.03161"
     inkscape:cy="504.37527"
     inkscape:document-units="px"
     inkscape:current-layer="layer1"
     showgrid="false"
     inkscape:window-width="1920"
     inkscape:window-height="1018"
     inkscape:window-x="-8"
     inkscape:window-y="-8"
     inkscape:window-maximized="1" />
  <metadata
     id="metadata7">
    <rdf:RDF>
      <cc:Work
         rdf:about="">
        <dc:format>image/svg+xml</dc:format>
        <dc:type
           rdf:resource="http://purl.org/dc/dcmitype/StillImage" />
        <dc:title></dc:title>
      </cc:Work>
    </rdf:RDF>
  </metadata>
  <g
     inkscape:label="Layer 1"
     inkscape:groupmode="layer"
     id="layer1"
     transform="translate(0,-28.362183)">
    <rect
       style="fill:#532115;fill-opacity:1;stroke:#532115;stroke-width:1.61187327;stroke-opacity:1"
       id="rect3119"
       width="1022.3881"
       height="1022.3881"
       x="0.80593663"
       y="29.168108" />
    <g
       id="g3131"
       transform="matrix(1.5163953,0,0,1.5163953,-52.409169,-211.11167)">
      <path
         inkscape:connector-curvature="0"
         id="path3121"
         d="m 171.97847,461.92802 0.25254,10.85914 8.83883,0 -1.26269,-11.36421 z"
         style="fill:#ffffff;stroke:#ffffff;stroke-width:1px;stroke-linecap:butt;stroke-linejoin:miter;stroke-opacity:1" />
      <path
         inkscape:connector-curvature="0"
         id="path3123"
         d="m 575.28187,464.45341 0.25254,10.85914 10.35406,0.50507 -0.50507,-12.87944 z"
         style="fill:#ffffff;stroke:#ffffff;stroke-width:1px;stroke-linecap:butt;stroke-linejoin:miter;stroke-opacity:1" />
      <path
         inkscape:connector-curvature="0"
         id="path3125"
         d="m 382.14285,530.57647 0.35715,10 15.35714,1.07143 -2.14286,-10.35714 z"
         style="fill:#ffffff;stroke:#000000;stroke-width:1px;stroke-linecap:butt;stroke-linejoin:miter;stroke-opacity:1" />
      <path
         inkscape:connector-curvature="0"
         id="path3127"
         d="m 381.07143,612.36219 -2.85715,10.35714 12.85715,0.71428 -0.35715,-11.07142 z"
         style="fill:#ffffff;stroke:#000000;stroke-width:1px;stroke-linecap:butt;stroke-linejoin:miter;stroke-opacity:1" />
      <path
         inkscape:connector-curvature="0"
         id="path3129"
         d="m 382.14285,693.79076 0,12.14285 17.85715,1.78572 -7.14286,-17.5 z"
         style="fill:#ffffff;stroke:#000000;stroke-width:1px;stroke-linecap:butt;stroke-linejoin:miter;stroke-opacity:1" />
      <g
         transform="translate(-208.09142,4.0406101)"
         id="g3087">
        <path
           style="fill:#808080;fill-opacity:1;stroke:#808080;stroke-opacity:1"
           d="m 466.69046,214.44066 246.47722,0 -112.12693,238.90107 -33.33504,1.01015 z"
           id="rect3075"
           inkscape:connector-curvature="0"
           sodipodi:nodetypes="ccccc" />
        <path
           style="fill:#b3b3b3;stroke:#000000;stroke-width:1px;stroke-linecap:butt;stroke-linejoin:miter;stroke-opacity:1"
           d="m 582.35294,486.17169 1.01015,-42.93149 -50.50763,-117.68277 -37.88072,-91.4188 -20.20305,-17.67767 -47.47717,-1.01015 -42.4264,1.01015 -28.28427,18.68782 -6.566,33.84011 33.84011,51.51778 46.9721,8.08122 -11.11168,33.33503 80.30713,83.84266 70.71067,42.42641 z"
           id="path3071"
           inkscape:connector-curvature="0" />
        <path
           style="fill:#b3b3b3;stroke:#000000;stroke-width:1px;stroke-linecap:butt;stroke-linejoin:miter;stroke-opacity:1"
           d="m 594.47477,484.65646 43.94163,-19.69798 66.16499,-49.49747 14.14214,-10.10153 21.71828,13.13199 12.62691,-25.75889 31.8198,-63.13454 12.62691,-108.5914 -46.46702,-3.03045 -53.53808,0 -15.65737,25.25381 -95.45941,203.54574 2.0203,31.31473 z"
           id="path3073"
           inkscape:connector-curvature="0" />
        <path
           style="fill:#aa0000;stroke:#000000;stroke-width:1px;stroke-linecap:butt;stroke-linejoin:miter;stroke-opacity:1"
           d="m 529.31993,308.38484 -19.69797,-48.48732 97.47972,-1.51523 13.13198,-15.65737 44.44671,5.05077 33.33503,11.61675 35.86042,13.13198 12.62691,54.54824 -4.04061,62.12438 5.55583,27.7792 -10.10152,4.04061 -40.91118,-43.94164 3.53553,-43.43656 -14.14213,-29.7995 -7.57614,47.98225 -10.10153,57.57869 -59.09392,41.41626 -6.06092,-31.31473 26.76904,-75.25637 15.15229,-29.7995 -17.17259,-8.08122 -39.90103,8.08122 z"
           id="path3069"
           inkscape:connector-curvature="0" />
        <path
           style="fill:#999999;stroke:#999999;stroke-width:1px;stroke-linecap:butt;stroke-linejoin:miter;stroke-opacity:1"
           d="m 772.85714,714.50504 -10.71429,-67.14285 37.14286,-10 18.57143,-28.57143 19.28571,27.14285 -2.14286,13.57143 29.28572,67.14286 z"
           id="path3078"
           inkscape:connector-curvature="0" />
        <g
           id="g3083">
          <path
             inkscape:connector-curvature="0"
             id="rect3080"
             d="m 535.71429,717.38641 78.92858,0 0,42.85715 -78.92858,0 z"
             style="fill:#000000;fill-opacity:1;stroke:#000000;stroke-opacity:1" />
          <path
             sodipodi:nodetypes="csccssscscsssssscssssssscsssssssssssccccsssscssssssscccscssssssssssssscssssssssssssssssssssssssscsssssssssscsssssssssssssssssscsscssssscsccccscccssccscscsscscsssssscscscscscccsccccccscsscccccsscsssscccsccsscscssssssccscscsscssssccsccsccccscsccscccccccccccccssscccscccsssccsscsscscsssscccscssscssssccsccsscssssssscscscscssssscccscssscccccssssscscscscssssscscssscsscsscssccscsssscssscscscssssssscsssccscsscssccscccssccccsssssscccssssssscssscsssscscccsccsscssscsssssssscssccsssscssccssssssccsscssssssscccssssssssssssssssssssssssscscscssscsccsssssscsccsssscsssccsscsssssssccssssssscsssssssssssssscsssscsssssssscsssssssssssssssssssssssssssscscccssscsssssssssscsccsssssssssssssscccssscssccscsscssssssssscssscsssssscccsccccssssscssssssssccssssssssssssssssssssssssssssssssssssssssssssssssssscssccsscsscssccscssccccccscsscsssscccscsscssscccccccscccsccscscssccsccccccsssssssccssscccccccccc"
             inkscape:connector-curvature="0"
             id="path3066"
             d="m 524.92102,768.14516 c -14.6264,-0.3543 -46.39345,-0.59 -70.59345,-0.5239 -24.2,0.066 -46.25,0 -49,-0.1375 -10.70225,-0.5514 -132.34822,-0.075 -138.20917,0.5411 -6.0928,0.6406 -6.22153,0.6036 -6.86863,-1.9746 -1.17381,-4.6769 0.2691,-46.6197 1.79048,-52.0461 1.30546,-4.6562 1.70729,-5.0951 5.84458,-6.3834 2.44351,-0.7609 6.46774,-2.1867 8.94274,-3.1683 4.21859,-1.6733 7.86089,-2.6673 24,-6.5501 14.43366,-3.4726 25.89612,-6.7529 33.1994,-9.501 4.23467,-1.5935 8.63111,-2.8972 9.76987,-2.8972 1.13876,0 4.83911,-1.125 8.22301,-2.5 3.38389,-1.375 6.80036,-2.5 7.59214,-2.5 0.79178,0 6.4517,-1.949 12.57759,-4.3312 6.1259,-2.3822 14.51299,-5.4779 18.63799,-6.8794 4.125,-1.4015 10.425,-3.6759 14,-5.0543 3.575,-1.3784 8.075,-3.0715 10,-3.7625 8.04165,-2.8863 11.58834,-4.4213 13.07874,-5.6602 0.86831,-0.7218 2.3039,-1.3124 3.19021,-1.3124 0.8863,0 4.21346,-1.35 7.39368,-3 3.18022,-1.65 6.43439,-3 7.23149,-3 1.61243,0 29.0716,-13.558 47.60588,-23.5055 6.6,-3.5423 13.125,-6.9507 14.5,-7.5743 1.375,-0.6236 3.175,-1.5364 4,-2.0284 0.825,-0.492 3.75,-2.0097 6.5,-3.3727 2.75,-1.3629 7.94053,-4.1748 11.5345,-6.2486 3.59398,-2.0738 8.93157,-5.1205 11.86132,-6.7705 2.92974,-1.65 7.43617,-4.6264 10.01427,-6.6142 2.5781,-1.9878 6.69051,-4.5005 9.13868,-5.5838 2.73232,-1.209 5.49932,-3.4827 7.16531,-5.8877 2.66104,-3.8415 2.69634,-4.0901 1.80628,-12.717 -0.58796,-5.6987 -0.52845,-12.9209 0.16888,-20.4981 0.59217,-6.4345 1.02843,-13.02 0.96946,-14.6342 -0.20463,-5.6013 4.61173,-21.0863 9.43,-30.3184 5.64266,-10.8116 5.38521,-11.8633 -2.49065,-10.1742 -7.97946,1.7113 -16.79848,-0.2458 -22.86323,-5.0739 -2.60415,-2.0731 -6.75982,-4.3643 -9.23482,-5.0915 -6.23079,-1.8308 -12.31961,-5.6444 -14.59006,-9.1383 -1.05047,-1.6164 -2.80994,-3.3496 -3.90994,-3.8515 -1.1,-0.5018 -2.675,-1.3397 -3.5,-1.862 -3.20548,-2.0293 -12.23585,-6.0552 -13.58216,-6.0552 -0.77981,0 -1.41784,-0.8308 -1.41784,-1.8463 0,-3.597 -3.03138,-8.1537 -5.4243,-8.1537 -5.38746,0 -21.06211,-11.0135 -20.22851,-14.2132 0.4931,-1.8927 -1.7358,-4.2827 -3.16833,-3.3973 -1.24262,0.768 -16.17886,-13.8745 -16.17886,-15.8606 0,-0.8754 -0.75312,-1.8807 -1.67361,-2.2339 -0.92048,-0.3532 -2.46758,-1.3516 -3.438,-2.2186 -0.97041,-0.867 -4.26729,-3.5815 -7.32639,-6.0321 -3.83843,-3.0749 -5.562,-5.1667 -5.562,-6.75 0,-1.2821 -0.60777,-2.2943 -1.37756,-2.2943 -0.75765,0 -1.98854,-0.7362 -2.73532,-1.636 -0.74677,-0.8998 -3.16437,-2.7569 -5.37244,-4.127 -4.84589,-3.0066 -8.42981,-7.0656 -8.47872,-9.6025 -0.0378,-1.9623 -7.358,-9.2728 -10.19375,-10.1802 -2.83528,-0.9073 -5.73773,-8.5453 -5.44523,-14.3295 0.14418,-2.8512 0.78884,-5.7106 1.43258,-6.3543 0.64374,-0.6438 1.17044,-2.4416 1.17044,-3.9952 0,-2.02428 0.64927,-3.07163 2.2911,-3.69586 2.81563,-1.0705 4.25347,-2.81226 5.0186,-6.07942 0.52217,-2.22974 0.0236,-2.76339 -4.61212,-4.93647 -2.85867,-1.34006 -6.54758,-3.10411 -8.19758,-3.9201 -1.91211,-0.94562 -6.44499,-1.54773 -12.5,-1.66037 -13.37167,-0.24877 -15.92618,-1.51394 -23.65495,-11.71557 -1.97194,-2.60289 -5.95661,-6.30647 -8.85481,-8.23018 -6.40793,-4.25335 -14.49024,-15.64811 -14.49024,-20.42894 0,-1.11352 -1.57358,-3.27867 -3.49997,-4.81574 -1.92498,-1.53595 -3.49998,-3.28811 -3.5,-3.89369 -2e-5,-0.60558 -1.16027,-3.28317 -2.57834,-5.95019 -1.77292,-3.33442 -2.38037,-5.64561 -1.94464,-7.39894 0.34852,-1.4024 0.61021,-3.60568 0.58154,-4.89618 -0.0287,-1.29051 0.81693,-3.45121 1.87912,-4.80157 1.0622,-1.35037 2.23834,-4.91295 2.61365,-7.91685 0.37531,-3.0039 1.0798,-5.70725 1.56551,-6.00744 0.48572,-0.30019 0.88313,-1.5658 0.88313,-2.81247 0,-1.24667 1.125,-3.32355 2.5,-4.6153 1.375,-1.29175 2.5,-2.93954 2.5,-3.66177 0,-1.49316 7.20311,-6.33823 9.42297,-6.33823 1.84881,0 8.57703,-3.92613 8.57703,-5.00497 0,-1.15637 9.94098,-8.27628 13.5,-9.66895 4.28588,-1.6771 9.69823,-1.57456 15.18326,0.28766 4.41639,1.4994 5.29814,1.48927 12.4449,-0.14301 8.03136,-1.83432 11.67953,-1.60488 17.36267,1.09194 3.07882,1.461 3.5841,1.44647 6.67017,-0.19173 4.33164,-2.2994 13.65038,-2.31689 16.91288,-0.0317 2.8802,2.01737 6.57373,2.07721 9.92612,0.16081 3.33016,-1.90369 12.40094,-1.73826 18.10412,0.33017 6.03473,2.18868 14.89588,11.79304 14.89588,16.14523 0,2.05109 0.68785,3.31111 2.25,4.12161 5.79705,3.0077 10.7495,8.13316 12.42972,12.86391 1.51042,4.25269 2.33879,5.14287 6.56175,7.05141 9.1025,4.11382 24.51066,5.06302 48.25853,2.97291 6.05,-0.53247 16.175,-0.97813 22.5,-0.99034 6.325,-0.0122 12.4,-0.2663 13.5,-0.56462 1.1,-0.29833 3.215,-2.72713 4.7,-5.39733 4.78834,-8.60995 13.35387,-12.92525 23.00369,-11.58922 2.91297,0.40331 6.5898,0.68204 8.17073,0.61941 1.58093,-0.0626 4.38225,0.77577 6.22516,1.86311 2.93528,1.73186 4.06675,1.85404 9.12558,0.98537 3.17616,-0.54538 9.08515,-0.98026 13.13108,-0.96638 6.7086,0.023 7.6751,-0.23761 10.97785,-2.96001 1.99188,-1.64188 4.12432,-2.98523 4.73877,-2.98523 1.9055,0 4.21006,-3.28472 5.96362,-8.5 2.15516,-6.40971 2.52886,-6.82617 8.75517,-9.75678 7.67864,-3.61419 11.6028,-4.05898 18.61357,-2.10982 5.3778,1.49516 7.04728,1.54071 14.42217,0.39345 7.81979,-1.21646 8.72678,-1.16371 14.53182,0.84525 l 6.19148,2.14269 3.93482,-2.0074 c 4.93855,-2.51946 9.16444,-2.53618 16.34796,-0.0647 5.27585,1.81516 5.94765,1.84012 10.23261,0.38008 3.13019,-1.06656 6.22854,-1.36379 9.75999,-0.9363 2.84566,0.34448 7.97135,0.90884 11.39041,1.25414 7.36121,0.74343 9.02301,2.19418 9.46389,8.26195 0.3147,4.33115 0.39522,4.42091 5.22379,5.8234 3.32186,0.96486 6.33815,2.85844 9.34867,5.86897 3.91929,3.91929 4.58125,5.23987 5.60149,11.17479 0.63632,3.70165 1.49011,7.24688 1.89731,7.87829 0.40719,0.63141 1.61705,3.96486 2.68857,7.40767 2.24885,7.22555 1.49705,14.5986 -1.93165,18.94431 -5.39683,6.84021 -8.24654,11.71106 -8.73989,14.93865 -0.78529,5.13741 -6.18284,13.78316 -9.44962,15.13631 -3.93562,1.63018 -4.89409,3.14293 -6.44839,10.17748 -1.29526,5.86217 -1.68421,8.67749 -2.83183,20.49756 -0.25365,2.6125 -1.16747,8.12504 -2.03071,12.25004 -0.86324,4.125 -1.99501,10.2 -2.51504,13.5 -1.47116,9.3355 -2.84198,15.3491 -3.98632,17.4873 -0.57657,1.0774 -1.49212,4.3334 -2.03456,7.2357 -0.99963,5.3486 -4.39896,16.8281 -8.56341,28.9187 -1.96705,5.7109 -2.09722,6.9021 -0.92883,8.5 1.49275,2.0414 -2.4614,1.8534 50.02005,2.3783 13.75,0.1376 25.74339,0.6316 26.65198,1.0978 1.47109,0.7548 1.61504,3.0668 1.31465,21.1149 -0.18554,11.147 -0.6152,40.2923 -0.95482,64.7673 -0.71732,51.6949 0.0477,47.8471 -11.97944,60.25 l -7.51527,7.75 -10.75855,0.06 c -13.99538,0.078 -24.2295,0.02 -61.75855,-0.3547 -23.79535,-0.2372 -31.58102,-0.6256 -33.5,-1.6709 -4.9495,-2.6963 -9.14097,-6.6192 -12.00501,-11.2358 -1.60406,-2.5857 -4.05596,-5.4479 -5.44866,-6.3604 -1.40436,-0.9202 -3.05123,-3.3916 -3.69755,-5.5488 -1.30996,-4.3723 -3.84091,-5.1666 -6.11539,-1.9194 -2.73577,3.9059 -21.09166,23.5494 -22.78699,24.3855 -0.95429,0.4706 -2.12012,1.6442 -2.59073,2.6081 -0.47062,0.9638 -4.34317,4.7723 -8.60567,8.4633 -4.82601,4.1789 -7.75,7.4622 -7.75,8.7024 0,1.8648 0.46169,1.9507 7.25,1.3487 3.9875,-0.3535 10.625,-1.218 14.75,-1.9211 9.43913,-1.6087 25.80894,-0.7689 38,1.9495 1.375,0.3066 4.55898,0.9665 7.0755,1.4664 10.56082,2.0981 28.00387,10.6892 41.8651,20.6197 4.34721,3.1144 7.91895,4.0275 9.96418,2.5473 1.81868,-1.3163 4.1812,-2.43 8.85156,-4.1728 3.98109,-1.4856 10.24366,-7.7404 10.24366,-10.2309 0,-1.0021 1.95178,-3.9402 4.33729,-6.5292 2.3855,-2.5889 4.61436,-5.4764 4.95301,-6.4165 0.74278,-2.062 8.94156,-6.3683 13.89345,-7.2973 2.41389,-0.4528 4.54677,-0.1669 6.57359,0.8812 5.23477,2.707 5.10932,3.866 -1.79478,16.5819 -4.20045,7.7363 -3.93131,9.2078 3.00545,16.4317 4.85975,5.061 6.17067,7.16 7.05931,11.3036 0.89575,4.1768 0.80781,5.7671 -0.49077,8.875 -1.48568,3.5557 -1.45365,4.1724 0.52564,10.1201 1.20895,3.6329 2.92629,6.7718 4.02737,7.3611 2.06259,1.1038 7.91044,11.8373 7.91044,14.5192 0,0.8934 0.65206,2.8187 1.44902,4.2786 0.79696,1.4598 3.50165,7.6043 6.01043,13.6543 2.50878,6.05 4.97734,11.654 5.4857,12.4533 0.72347,1.1377 4.3013,1.5442 16.46754,1.871 10.77769,0.2896 15.86161,0.8012 16.58159,1.6688 0.6768,0.8155 0.94561,10.7836 0.77202,28.629 l -0.2663,27.3779 -53.5,-0.077 c -29.425,-0.043 -82.75,-0.082 -118.5,-0.087 -35.75,-0.01 -66.35,-0.035 -68,-0.067 -1.65,-0.032 -4.125,-0.089 -5.5,-0.1277 -1.375,-0.038 -8.35,0.05 -15.5,0.1959 -44.04201,-0.0606 -78.94366,0.18276 -115.40655,-0.6961 z m 101.90472,-5.1393 c 0.20142,-9.03538 1.29148,-31.762 0.30195,-45.7145 -0.51214,-2.6791 -0.53139,-2.6845 -9.15644,-2.5531 -4.75376,0.072 -26.36329,-0.1988 -48.02117,-0.6026 -21.65787,-0.4038 -40.64998,-0.4548 -42.20467,-0.1133 -3.45602,0.759 -4.24303,2.9398 -3.94028,10.9181 0.12656,3.335 0.33752,13.0387 0.46881,21.5637 0.13129,8.525 0.22038,15.16964 0.30712,15.85714 0.0997,0.79 1.81649,0.653 4.81841,0.7011 65.65776,0.41105 66.71762,-0.0869 97.42627,-0.0565 z m 115.16065,-53.5445 c 2.37914,-0.6406 4.49488,-2.0698 5.54607,-3.7464 0.93474,-1.491 3.43561,-4.6426 5.55748,-7.0037 3.0672,-3.413 3.79437,-4.9486 3.54779,-7.4916 -0.26586,-2.7419 -1.02436,-3.5396 -5.31016,-5.5849 -9.02449,-4.3066 -23.35054,-4.6188 -28.5,-0.621 -0.825,0.6405 -4.425,2.5988 -8,4.3518 -10.26445,5.0333 -22.40825,12.8864 -23.41463,15.1418 -1.62907,3.6509 0.49251,4.2394 17.09787,4.7428 8.69922,0.2637 15.90041,0.5412 16.00264,0.6167 0.96244,0.7109 14.49299,0.397 17.47294,-0.4055 z m -228.05707,-2.5493 c 0.96521,-0.8735 2.57467,-1.3324 3.57659,-1.0199 1.00191,0.3125 2.94666,-0.013 4.32166,-0.7229 2.05348,-1.0605 3.08834,-1.0509 5.79402,0.054 1.81171,0.7397 3.65257,1.1232 4.0908,0.8524 0.43824,-0.2708 8.40593,-0.6952 17.70599,-0.943 9.30005,-0.2478 17.6619,-0.7503 18.58187,-1.1167 2.68144,-1.0678 3.07699,-3.173 3.53733,-18.8258 0.57758,-19.6389 -0.74651,-21.9628 -10.33789,-18.144 -2.12966,0.848 -5.44712,2.3812 -7.37212,3.4072 -7.98948,4.2584 -40.84073,16.9549 -53,20.4837 -2.475,0.7183 -6.525,1.9992 -9,2.8464 -11.18284,3.828 -26.83167,8.5668 -30.25,9.1604 -3.77189,0.655 -4.95313,2.6639 -2.5,4.2516 1.87809,1.2155 16.16581,1.8392 35.67341,1.5571 14.2651,-0.2063 17.74153,-0.5399 19.17834,-1.8402 z m 271.39825,-0.983 c 1.53655,-4.4942 2.29195,-5.2734 6.14336,-6.3369 2.75153,-0.7597 4.50004,-0.6143 7.61878,0.6336 4.00175,1.6012 4.07146,1.5908 6.14277,-0.9143 1.1523,-1.3937 2.86166,-3.9454 3.79858,-5.6706 1.46311,-2.6941 2.25775,-3.1367 5.63134,-3.1367 3.09777,0 4.58693,0.6741 7.04651,3.1899 1.71526,1.7544 3.11866,3.5544 3.11866,4 0,0.4455 0.41762,0.8101 0.92804,0.8101 0.51043,0 1.2384,-2.484 1.61773,-5.52 0.5366,-4.2948 1.27386,-5.9795 3.32164,-7.5903 3.14262,-2.472 8.07621,-2.0468 12.27561,1.0579 l 2.70914,2.003 -1.99293,-5.9014 c -1.09611,-3.2458 -3.02585,-7.0159 -4.2883,-8.3781 l -2.29536,-2.4768 -7.88778,2.741 c -15.82324,5.4986 -35.91161,13.1984 -36.83779,14.1197 -0.5225,0.5198 -2.0975,0.9636 -3.5,0.9862 -1.4025,0.023 -4.575,1.0352 -7.05,2.25 -5.19753,2.5512 -6.19425,5.6723 -3.57445,11.1932 0.86595,1.8248 1.57445,3.7749 1.57445,4.3334 0,1.1398 1.97737,2.1419 3.5,1.7738 0.55,-0.133 1.45,-1.558 2,-3.1667 z m 33.75,1.1584 c 2.53661,-1.51425 -2.20654,-8.17517 -2.89404,-8.40437 -0.6875,-0.2292 -3.64911,1.9748 -3.64911,2.8915 0,1.6934 6.08594,7.18937 6.54315,5.51257 z m -454.25,-1.665 c 1.925,-0.4989 5.975,-0.9292 9,-0.9563 3.025,-0.027 7.525,-0.5164 10,-1.0876 2.475,-0.5711 7.2,-1.4421 10.5,-1.9354 3.3,-0.4934 8.925,-1.3307 12.5,-1.8608 3.575,-0.53 8.075,-1.2337 10,-1.5637 1.925,-0.3301 6.425,-1.0781 10,-1.6622 3.575,-0.5842 8.525,-1.7237 11,-2.5323 2.475,-0.8085 6.3,-1.8527 8.5,-2.3203 2.2,-0.4677 6.7,-1.5491 10,-2.4031 3.3,-0.8541 8.025,-2.0239 10.5,-2.5995 11.5281,-2.6813 31.17491,-9.1545 48.5,-15.9796 6.6,-2.6001 13.8,-5.3001 16,-6 3.86552,-1.2298 8.85017,-3.437 13,-5.7564 2.49274,-1.3932 9.29695,-4.4061 16.5,-7.3062 3.025,-1.218 6.7375,-3.5132 8.25,-5.1005 l 2.75,-2.8859 -0.007,-15.2343 c -0.009,-19.2479 -0.86547,-28.7481 -2.65363,-29.4342 -0.74508,-0.286 -2.55629,0.3171 -4.0249,1.3401 -3.41661,2.3798 -12.01898,7.3421 -20.31436,11.7183 -3.575,1.8859 -10.47299,5.7268 -15.32887,8.5353 -4.85587,2.8085 -9.00964,5.1063 -9.23058,5.1063 -0.22094,0 -2.99795,1.6659 -6.17113,3.7019 -3.17318,2.036 -9.49474,5.5915 -14.0479,7.9012 -4.55317,2.3096 -8.82817,4.6312 -9.5,5.159 -1.07577,0.8452 -25.27593,11.9356 -34.72152,15.912 -1.925,0.8104 -4.85,2.0674 -6.5,2.7933 -8.95488,3.9397 -18.15525,7.5373 -19.26987,7.5351 -0.69843,-10e-4 -3.05199,1.1225 -5.23013,2.4975 -2.17814,1.375 -4.38093,2.5 -4.8951,2.5 -0.51416,0 -5.3606,1.8413 -10.76987,4.0917 -5.40927,2.2505 -12.31003,5.0176 -15.33503,6.1492 -14.16525,5.2989 -21.91847,8.0121 -26.724,9.3517 -2.8732,0.8009 -7.3732,2.3853 -10,3.5209 -2.6268,1.1356 -8.02928,2.9039 -12.0055,3.9295 -8.68353,2.2398 -11.2705,3.5189 -11.2705,5.5727 0,1.3512 1.72721,1.4614 13.75,0.8775 7.5625,-0.3673 15.325,-1.076 17.25,-1.5749 z m 270,-1.2532 c 2.85437,-0.9965 3.44909,-1.6711 3.22401,-3.6567 -0.15179,-1.3392 -1.12176,-3.3514 -2.15549,-4.4716 -2.44035,-2.6446 -13.06852,-23.3586 -13.06852,-25.4702 0,-0.8919 -0.74364,-2.6833 -1.65253,-3.9809 -0.90889,-1.2976 -1.78854,-3.3102 -1.95478,-4.4725 -0.33248,-2.3246 -4.84477,-14.7209 -6.45072,-17.7216 -0.55679,-1.0404 -1.81888,-1.8916 -2.80465,-1.8916 -2.68399,0 -23.28871,11.5031 -26.34846,14.7097 -2.4964,2.6162 -2.67757,3.4454 -2.90398,13.2903 -0.35931,15.623 0.64041,17.1168 8.65368,12.9305 2.97177,-1.5525 5.12,-1.9424 8.5989,-1.5605 8.06105,0.885 11.69916,3.0064 13.97372,8.1485 1.11573,2.5222 1.91555,5.7999 1.77739,7.2837 -0.44089,4.7347 0.91991,7.0423 4.40985,7.478 6.558,0.8188 13.30665,0.5702 16.70158,-0.6151 z m -35.5,-8.1514 c 0,-3.5909 -2.82607,-4.6415 -4.42894,-1.6465 -1.47502,2.7561 -0.28393,5.3053 2.30622,4.9357 1.62213,-0.2315 2.12272,-1.0071 2.12272,-3.2892 z m 238.22013,-5.08477 c -0.60147,-1.5674 -3.4879,1.42074 -3.4879,2.86884 0,1.2217 3.00419,6.20341 4.40305,5.70223 3.52437,-1.26269 -0.58514,-7.71107 -0.91515,-8.57107 z m -48.12364,-14.02323 c 2.80307,-1.3231 5.66006,-2.4057 6.34887,-2.4057 0.68881,0 2.67039,-0.6379 4.40351,-1.4176 1.73312,-0.7796 6.07613,-2.4096 9.65113,-3.6222 3.575,-1.2126 7.21043,-2.8247 8.07874,-3.5825 0.86831,-0.7577 2.11475,-1.3777 2.76987,-1.3777 1.44753,0 8.73001,-4.5092 9.62732,-5.961 1.47059,-2.3795 -5.29827,-6.518 -13.68475,-8.3669 -16.40514,-3.6167 -18.07526,-3.9287 -22.06238,-4.1221 -5.76758,-0.2797 -12.19863,4.1648 -17.05817,11.7889 -3.26773,5.1267 -3.87667,6.9723 -4.15184,12.5837 -0.44756,9.1266 0.43221,10.4606 6.32003,9.5833 2.56365,-0.382 6.9546,-1.7771 9.75767,-3.1002 z m -199.23135,-41.4783 c 1.44917,-1.1399 2.63486,-2.7057 2.63486,-3.4796 0,-1.7443 -7.67986,-5.7846 -9.59695,-5.049 -1.44659,0.5552 -2.04484,8.6261 -0.73638,9.9345 1.31949,1.3195 5.11484,0.6264 7.69847,-1.4059 z m 237.75149,-0.7095 c -0.52455,-0.9801 -2.96867,-2.7883 -5.43137,-4.0183 -2.95462,-1.4756 -4.68949,-3.0803 -5.1005,-4.7179 -0.75124,-2.9932 -2.21526,-3.2212 -3.0851,-0.4806 -0.34931,1.1006 -1.55096,2.4912 -2.67032,3.0903 -2.00102,1.0709 -1.99469,1.1102 0.37684,2.3406 1.32664,0.6882 4.35501,1.562 6.72971,1.9418 2.37471,0.3797 5.26073,1.351 6.41339,2.1583 2.82074,1.9757 3.92573,1.8503 2.76735,-0.3142 z m -207.78566,-21.2268 c 3.82448,-3.2736 6.7494,-4.9934 8.5,-4.9977 2.45499,-0.01 5.63805,-1.6312 9.24019,-4.7177 6.3172,-5.4129 14.01047,-11.2757 14.79614,-11.2757 0.5252,0 2.00741,-1.2375 3.29381,-2.75 1.28639,-1.5125 3.46389,-3.4923 4.83889,-4.3996 4.7089,-3.1073 17.06358,-15.9237 20.08761,-20.8384 1.66239,-2.7017 3.80625,-5.1609 4.76415,-5.4649 0.9579,-0.3041 3.39848,-2.7254 5.42351,-5.3808 2.02503,-2.6554 4.70402,-5.9416 5.9533,-7.3028 5.04521,-5.4968 13.74393,-16.7032 17.25265,-22.2263 l 3.72457,-5.8628 -0.13658,-19.6372 c -0.15082,-21.6837 -0.67813,-27.1372 -2.62391,-27.1372 -0.7145,0 -3.77349,2.5875 -6.79776,5.75 -3.02427,3.1625 -10.36966,10.8496 -16.3231,17.0825 -17.65573,18.4844 -32.62212,33.3671 -38.38211,38.1675 -2.96977,2.475 -6.5342,5.6179 -7.92095,6.9841 -1.38676,1.3663 -5.89638,5.2712 -10.02138,8.6775 -4.125,3.4063 -8.422,7.0134 -9.54889,8.0158 -1.12688,1.0025 -4.3881,3.6016 -7.24714,5.7759 -2.85903,2.1743 -5.44008,4.6493 -5.73564,5.5 -0.29557,0.8507 -2.88436,2.6476 -5.75287,3.9932 -2.8685,1.3456 -7.24046,4.3085 -9.71546,6.5841 -2.475,2.2757 -6.61748,5.5701 -9.2055,7.3209 -5.81521,3.9341 -7.7945,6.6674 -7.7945,10.764 0,3.9834 1.15888,4.4225 9.76688,3.7008 5.88725,-0.4935 7.63412,-0.233 12.09047,1.8034 4.99838,2.2841 5.28822,2.6364 7.16972,8.716 2.12914,6.8796 2.72705,8.169 3.78195,8.1554 0.38004,-0.01 3.31491,-2.2549 6.52195,-5 z m -24.33097,1.0089 c 0,-2.2768 -0.45633,-3 -1.89301,-3 -2.66409,0 -3.64044,3.1368 -1.47029,4.7236 2.6445,1.9337 3.3633,1.5654 3.3633,-1.7236 z m 212.83753,-36.913 c 1.06135,-0.5681 2.18919,-2.5075 2.50633,-4.3099 0.53483,-3.0397 0.62142,-6.6582 0.64081,-26.7771 0.0606,-62.8612 0.32018,-59.7725 -4.92385,-58.577 -14.1934,3.2358 -16.3137,3.4167 -23.20656,1.9795 -3.75821,-0.7836 -8.39125,-2.1678 -10.29565,-3.0759 -4.12872,-1.9689 -6.40005,-0.7571 -6.57335,3.507 -0.0596,1.4665 -0.29956,13.0164 -0.53325,25.6664 -0.23368,12.65 -0.63683,31.0529 -0.89588,40.8953 -0.2802,10.6458 -0.0773,18.6309 0.50089,19.7113 0.80473,1.5036 2.47445,1.8656 9.70744,2.1047 15.03065,0.4968 31.06234,-0.048 33.07307,-1.1243 z m -52.14819,-1.6768 c 0.75138,-1.0276 1.39939,-5.0179 1.51859,-9.3513 0.11436,-4.1574 0.32104,-9.8089 0.45928,-12.5589 0.3899,-7.7559 0.38901,-7.6814 0.37126,-31.2561 -0.013,-17.2187 -0.34718,-23.047 -1.47659,-25.75 -1.81448,-4.3427 -3.05834,-4.3978 -5.50751,-0.2439 -1.05393,1.7875 -2.86746,4.6 -4.03006,6.25 -1.16261,1.65 -4.00619,5.7946 -6.31907,9.2102 -2.31288,3.4156 -6.90524,10.1404 -10.20524,14.944 l -6,8.7339 0,12.2237 c 0,11.1084 0.20528,12.5011 2.25,15.2654 1.2375,1.673 2.25,3.5201 2.25,4.1047 0,1.893 8.07834,9.8883 10.32194,10.2158 1.19793,0.1749 5.07576,0.2475 8.6174,0.1615 4.91313,-0.1195 6.74999,-0.5814 7.75,-1.949 z m 82.61032,0.939 c 3.74323,-1.9308 10.12821,-8.8999 12.9738,-14.1608 1.87412,-3.4648 2.0217,-6.087 2.43444,-43.2548 0.3558,-32.0404 0.1876,-39.7633 -0.88426,-40.6011 -0.728,-0.5691 -3.79864,-1.5081 -6.82364,-2.0867 -6.46754,-1.2371 -13.62419,-0.3113 -20.02649,2.5908 -2.46043,1.1153 -5.26101,2.2692 -6.22351,2.5642 -1.19904,0.3676 -1.75316,1.5695 -1.76004,3.8178 -0.006,1.8048 -0.11592,22.6773 -0.24534,46.3833 -0.19245,35.252 0.0138,43.4021 1.13248,44.75 1.9116,2.3034 14.9554,2.3016 19.42256,0 z m -247.59746,-13.4159 c 3.73879,-3.3367 7.95979,-6.7641 9.38,-7.6165 2.93155,-1.7594 5.24051,-4.9856 4.46558,-6.2395 -0.28599,-0.4627 -3.51086,-1.1616 -7.16638,-1.5531 -3.94013,-0.4219 -8.33647,-1.6553 -10.79709,-3.0291 -3.10515,-1.7335 -4.59915,-2.0663 -5.93106,-1.3209 -1.56197,0.8741 -1.75519,2.3659 -1.57507,12.1611 0.29538,16.064 1.35886,16.7592 11.62402,7.598 z m 29.31877,-22.9333 c 0.47156,0 2.93713,-1.8 5.47903,-4 2.5419,-2.2 5.03269,-4 5.5351,-4 0.5024,0 2.38753,-1.6249 4.18918,-3.6109 4.96202,-5.4697 12.18654,-12.3531 12.98541,-12.3721 0.39034,-0.01 2.41534,-1.8686 4.5,-4.1318 2.08467,-2.2631 5.77069,-5.9756 8.19115,-8.25 2.42046,-2.2743 5.79546,-5.6521 7.5,-7.5062 1.70454,-1.8541 5.97193,-6.3541 9.4831,-10 3.51117,-3.6459 9.09706,-10.004 12.41309,-14.129 3.31604,-4.125 6.55548,-7.95 7.19876,-8.5 0.64328,-0.55 1.80739,-2.1708 2.58691,-3.6018 0.77951,-1.431 4.83809,-7.1109 9.01905,-12.6221 5.43717,-7.1671 7.78401,-11.1602 8.24184,-14.0233 0.47875,-2.994 1.52436,-4.6774 4.14825,-6.6788 2.15905,-1.6467 3.50816,-3.5319 3.50816,-4.902 0,-2.9076 -5.30159,-8.672 -7.97575,-8.672 -3.50767,0 -8.67262,2.6477 -10.64988,5.4595 -4.63248,6.5876 -6.82008,8.6061 -11.96429,11.0397 -3.16702,1.4983 -5.86639,3.5334 -6.36754,4.8008 -2.66555,6.741 -11.13858,14.0907 -17.5519,15.2248 -3.24692,0.5742 -5.42701,2.1752 -11.69794,8.5905 -7.1908,7.3563 -7.98707,7.8847 -11.88193,7.8847 -3.49143,0 -4.72581,0.5845 -7.54269,3.5712 -1.85245,1.9642 -3.36808,3.9265 -3.36808,4.3607 0,1.1149 -10.8873,6.7239 -14.55055,7.4963 -1.6778,0.3537 -5.45287,2.6137 -8.38903,5.0223 -2.93617,2.4085 -6.86388,4.6653 -8.72825,5.015 -5.6733,1.0643 -9.72824,4.1887 -13.9684,10.7626 -6.36064,9.8615 -8.41042,19.4301 -3.62861,16.9387 0.97066,-0.5058 4.74561,-1.2299 8.38877,-1.6093 7.19346,-0.749 12.03388,0.5632 14.9566,4.0545 2.48699,2.9708 4.86747,10.6165 4.24801,13.6438 -0.64394,3.1469 1.26967,6.1124 3.41346,5.2897 0.78187,-0.3 1.8074,-0.5455 2.27897,-0.5455 z m -20.22271,-8.4125 c -0.43376,-3.0359 -4.19855,-2.7927 -4.63575,0.2994 -0.18562,1.3128 0.24928,2.7496 0.96646,3.1928 1.81838,1.1238 4.0283,-0.9794 3.66929,-3.4922 z m 130.82765,-34.8375 c 5.64901,-6.4371 9.82095,-14.7667 8.88033,-17.7303 -1.17634,-3.7063 -10.00557,-5.3775 -12.93481,-2.4483 -2.9394,2.9394 -1.81895,22.4286 1.28944,22.4286 0.43478,0 1.67904,-1.0125 2.76504,-2.25 z m 79.08393,-18.8481 c 11.49678,-5.3752 17.37449,-7.0406 29.34879,-8.3161 6.35725,-0.6772 12.04373,-1.531 12.63664,-1.8974 1.76863,-1.0931 2.58776,-7.5465 2.37209,-18.6884 -0.13842,-7.1513 -0.62752,-10.9346 -1.53363,-11.8626 -1.06797,-1.0938 -8.008,-1.3787 -35.18207,-1.4439 -18.61841,-0.045 -34.78405,0.2358 -35.92364,0.6235 -2.65961,0.9047 -6.15545,7.1262 -7.01121,12.4779 -0.81617,5.1041 1.16811,6.397 5.96375,3.8859 6.30139,-3.2996 14.84408,-1.4735 19.35264,4.1368 5.6286,7.0041 5.09872,15.0231 -1.32667,20.0773 -1.72544,1.3572 -2.41661,2.6365 -2.00458,3.7102 0.82955,2.1618 4.49478,1.4173 13.30789,-2.7032 z m -234.94293,-0.5037 c 1.80356,-1.1667 2.06238,-1.8486 1.26626,-3.3362 -0.66773,-1.2477 -0.66634,-5.3981 0.004,-12.4747 1.08952,-11.497 0.21367,-15.3123 -4.03717,-17.5873 -2.93193,-1.5691 -5,-6.3039 -5,-11.4474 0,-3.7469 -0.59039,-5.2071 -3.35568,-8.2997 -4.91804,-5.5002 -5.99199,-8.119 -5.75291,-14.0284 0.20894,-5.1646 0.0825,-5.4304 -4.83843,-10.1734 -5.42308,-5.227 -5.68332,-6.1677 -3.87429,-14.0049 l 1.17869,-5.1063 -4.0619,-4.22 c -5.46851,-5.6812 -6.1983,-7.4024 -5.55573,-13.1033 0.53664,-4.761 0.4464,-4.9654 -3.99228,-9.0408 -4.56947,-4.1955 -6.73006,-8.9571 -6.74189,-14.8579 -0.007,-3.64696 -2.35618,-9.1574 -5.4919,-12.88399 -1.9197,-2.28144 -2.51368,-4.11983 -2.51368,-7.77999 0,-4.07282 -0.58997,-5.53361 -3.92803,-9.72604 -3.31288,-4.16081 -4.03985,-5.94306 -4.64205,-11.38063 -0.605,-5.46283 -1.29818,-7.14965 -4.53985,-11.04765 -4.31723,-5.1913 -5.89007,-8.66656 -5.89007,-13.01434 0,-4.10772 -2.28031,-8.1464 -6.61871,-11.72248 l -3.66044,-3.01724 0.50278,-7.02694 0.50277,-7.02693 -4.6132,-2.14404 c -6.50906,-3.02515 -8.87114,-5.54484 -9.66197,-10.30666 -0.82285,-4.95456 -2.52261,-8.49059 -5.28169,-10.98752 -2.33732,-2.11524 -6.20605,-1.6563 -12.3797,1.46861 -4.84869,2.45425 -6.47509,2.37301 -12.37036,-0.61786 -5.87326,-2.9797 -9.67658,-3.16187 -13.26511,-0.63538 -5.49479,3.8686 -9.96803,3.57539 -16.03923,-1.05135 -3.14498,-2.39672 -4.50615,-2.26621 -11.56406,1.10878 -6.43632,3.07776 -8.12114,2.93306 -16.54008,-1.42054 -4.38264,-2.26635 -7.6507,-0.77886 -11.511,5.23933 -2.53681,3.95488 -4.13075,5.16309 -10.32373,7.82543 -9.83629,4.22858 -10.56512,5.08049 -10.37958,12.13249 0.12238,4.65145 -0.33562,6.51305 -2.35204,9.56006 -3.46312,5.23313 -3.9872,8.7914 -1.93256,13.12124 0.94369,1.98867 2.1117,3.61576 2.59558,3.61576 0.48388,0 2.23261,1.86752 3.88606,4.15004 2.26399,3.12535 3.00627,5.24308 3.00627,8.57692 0,5.62299 3.70327,9.66592 10.39797,11.35167 5.38737,1.35655 8.60203,5.04637 8.60203,9.87349 0,5.78938 7.5094,10.3255 13.39138,8.08918 4.83061,-1.8366 10.83057,-1.25452 14.78802,1.43464 5.22831,3.55273 12.34416,4.98135 17.08091,3.42927 3.05145,-0.99986 4.23473,-0.97823 6.27698,0.11475 2.80992,1.50382 4.2262,5.35047 2.66677,7.24303 -0.5606,0.68035 -1.47657,3.71201 -2.03548,6.73701 -1.23479,6.68301 -4.57718,14.72448 -7.35175,17.68768 -1.15743,1.2362 -2.26394,4.0995 -2.54384,6.5827 -0.47266,4.1934 -0.34669,4.4564 2.74868,5.7386 5.54647,2.2974 8.85139,5.8245 10.42599,11.1267 1.70554,5.7432 4.53109,8.4764 9.68726,9.3708 4.63496,0.8039 7.52172,3.5086 8.80284,8.2476 1.5946,5.8986 3.62612,7.9772 9.45157,9.6707 5.51648,1.6037 7.72218,3.7499 8.9398,8.6988 1.10386,4.4865 3.86347,6.9584 8.45577,7.5744 4.37657,0.587 9.2151,4.7448 9.2151,7.9186 0,2.581 3.93624,9.2789 6.14908,10.4632 1.18357,0.6334 4.30624,0.9387 6.97671,0.6822 6.66174,-0.6402 10.87421,1.8782 10.87421,6.5008 0,6.5731 4.22614,9.8595 13.1039,10.1902 6.8207,0.2541 8.61531,1.4638 9.49075,6.3975 1.00063,5.6392 4.69777,8.9172 10.93659,9.6967 4.51119,0.5636 6.0174,1.366 10.54658,5.6182 5.62837,5.2842 7.47076,5.6084 12.68909,2.2328 z m 28.81343,0.5522 c 1.82402,-1.1273 3.59511,-2.9278 3.93576,-4.0011 0.86806,-2.735 4.17995,-4.2726 9.76612,-4.5341 5.831,-0.2729 7.25087,-1.3744 10.43195,-8.0929 1.36429,-2.8815 3.08429,-5.7401 3.82221,-6.3525 0.73793,-0.6124 4.29462,-1.2369 7.90377,-1.3877 8.06876,-0.3371 9.82746,-1.7315 11.47633,-9.0995 1.46718,-6.556 2.82341,-7.4826 10.95268,-7.4826 8.68298,0 10.80613,-1.0804 12.18482,-6.2005 0.6351,-2.3585 2.01691,-5.9783 3.07069,-8.0439 1.60576,-3.1475 2.4389,-3.7629 5.14565,-3.8007 6.01799,-0.084 8.62537,-2.02 12.03472,-8.9357 2.68109,-5.4385 3.71768,-6.6092 6.44496,-7.2786 4.01828,-0.9864 4.34529,-3.8657 0.73184,-6.4439 -3.73535,-2.6651 -11.31406,-14.4107 -13.21734,-20.4844 -1.6896,-5.3918 -1.83612,-11.6817 -0.3567,-15.3123 0.44824,-1.1 1.54803,-3.6937 2.44397,-5.7637 2.61233,-6.0358 2.98941,-11.09122 1.58839,-21.29562 -1.23282,-8.97928 -2.95049,-13.76367 -4.41543,-12.29872 -0.35134,0.35134 -1.07037,6.42563 -1.59784,13.49843 -0.52747,7.0728 -1.42017,15.43921 -1.98379,18.59211 -0.56362,3.1529 -1.21004,7.2029 -1.43648,9 -0.72585,5.7605 -2.30339,13.1858 -3.41183,16.0591 -0.59231,1.5354 -1.29176,4.9104 -1.55434,7.5 -0.60419,5.9586 -4.91435,20.3946 -7.66458,25.6711 -1.15475,2.2154 -3.41688,5.6051 -5.02696,7.5327 -10.12241,12.1183 -13.11776,14.7471 -27.84891,24.4402 -19.58687,12.8882 -23.72348,15.1459 -29.277,15.9787 -4.15573,0.6232 -4.75586,0.4204 -8.10551,-2.7387 -2.6604,-2.5091 -3.61749,-4.2404 -3.61749,-6.5437 0,-1.7225 -0.43417,-3.1319 -0.96482,-3.1319 -2.14738,0 -2.75003,4.1194 -2.41394,16.5 0.32039,11.8019 0.54864,13.1613 2.47662,14.75 2.74933,2.2655 4.42787,2.2062 8.48248,-0.2996 z m 185.10399,-10.0347 c 1.42333,-1.4233 0.47677,-4.9157 -1.33235,-4.9157 -1.70761,0 -2.78362,2.4328 -1.99035,4.5 0.67982,1.7716 1.82367,1.9147 3.3227,0.4157 z m -41.51634,-1.6657 c 2.72393,-3.2253 8.83201,-17.094 8.83201,-20.0535 0,-4.1897 -3.22791,-7.7204 -8.37606,-9.1618 -7.33351,-2.0532 -10.51713,-0.3766 -17.08634,8.9983 -4.95915,7.0773 -5.5376,8.4353 -5.5376,13.0006 0,8.4998 0.59221,8.9664 11.3802,8.9664 7.6368,0 9.57542,-0.3145 10.78779,-1.75 z m -129.66688,-26.2512 c 0.99609,-1.1007 4.32834,-3.1894 7.40498,-4.6416 10.45256,-4.9338 29.56429,-21.9408 32.01111,-28.4859 0.69319,-1.8542 1.8954,-4.5657 2.67157,-6.0256 0.77618,-1.4598 1.41123,-3.6264 1.41123,-4.8146 0,-1.1882 0.88206,-4.2687 1.96013,-6.8457 1.07808,-2.577 2.18271,-7.3854 2.45475,-10.6854 0.27204,-3.3 1.18998,-8.209 2.03987,-10.9089 1.69973,-5.3997 2.07734,-15.1442 0.62172,-16.0438 -0.50795,-0.314 -1.90556,0.8083 -3.1058,2.4939 -3.59274,5.0455 -5.45313,3.6192 -5.56971,-4.2701 -0.10223,-6.91832 -1.59192,-10.32367 -3.94069,-9.00822 -1.55088,0.86858 -7.46027,8.83992 -7.46027,10.06342 0,0.4639 -2.27107,4.5827 -5.04681,9.1528 -2.77575,4.5701 -5.71791,9.9154 -6.53814,11.8785 -1.81305,4.3392 -4.23163,7.1424 -6.16244,7.1424 -1.09485,0 -1.38582,-1.2512 -1.22093,-5.25 0.11906,-2.8875 0.16064,-5.839 0.0924,-6.559 -0.24326,-2.5663 -1.86942,-0.1655 -3.07055,4.5333 -0.67145,2.6266 -1.64791,5.8417 -2.16992,7.1446 -0.52201,1.3029 -1.8635,7.1529 -2.9811,13 -1.11761,5.8471 -3.11716,14.2311 -4.44345,18.6311 -1.32629,4.4 -2.85215,10.925 -3.39079,14.5 -0.53864,3.575 -1.28261,8.1837 -1.65327,10.2416 -1.08474,6.0222 2.44465,8.781 6.08611,4.7572 z m -31.07254,-6.5702 c 0.86429,-0.8643 1.57143,-2.4265 1.57143,-3.4715 0,-3.3004 4.61737,-12.3405 7.85508,-15.3791 2.71292,-2.5461 3.03787,-3.3952 2.52554,-6.5992 -0.63298,-3.9584 0.87021,-7.8284 5.37836,-13.8468 3.14383,-4.1971 6.20709,-12.0741 7.2457,-18.632 2.90914,-18.3687 6.83168,-29.5106 11.69519,-33.22023 1.81507,-1.38442 3.30013,-3.08696 3.30013,-3.78343 0,-0.69646 1.02278,-1.93645 2.27284,-2.75552 2.76407,-1.81109 8.61525,-12.94477 7.07312,-13.45881 -0.98276,-0.32759 -6.91817,-4.15525 -11.84596,-7.63929 -1.58886,-1.12335 -3.64455,-1.23573 -10,-0.54664 -4.4,0.47707 -10.025,1.43812 -12.5,2.13567 -8.02054,2.26049 -46.90839,1.37571 -56.16057,-1.27778 -1.82942,-0.52467 -4.3417,-0.95395 -5.58283,-0.95395 -3.39534,0 -3.22383,6.74271 0.25464,10.01056 2.59401,2.43695 3.86647,6.03637 5.04052,14.25825 0.46291,3.24172 1.60438,5.75734 3.56461,7.85577 1.58599,1.6978 2.88363,3.5076 2.88363,4.0217 0,0.5141 0.95707,2.2292 2.12683,3.8114 1.6704,2.2593 1.98077,3.6552 1.44624,6.5045 -0.72922,3.8871 1.54265,8.8686 5.97903,13.1101 2.36879,2.2648 3.93549,9.6368 2.91343,13.709 -0.47662,1.899 0.21671,3.5952 2.91401,7.1289 3.71115,4.8618 5.60551,9.9849 5.61488,15.1848 0.003,1.8734 0.83767,3.847 2.11367,5 2.80968,2.539 6.55817,10.075 7.4414,14.9602 1.09464,6.0547 1.98831,6.7642 4.87908,3.8734 z m 183.32143,-18.3337 c 1.83601,-3.6185 3.25,-7.935 3.25,-9.9213 0,-1.9339 0.76303,-4.3592 1.69561,-5.3897 0.93259,-1.0305 2.24595,-4.891 2.91858,-8.5788 2.42453,-13.2929 4.32202,-22.7701 5.24667,-26.2051 0.51819,-1.925 1.18319,-5.1875 1.47778,-7.25 0.44531,-3.1177 0.23839,-3.75 -1.2272,-3.75 -2.20032,0 -5.65967,3.6885 -6.56517,7 -0.74936,2.7405 -2.86109,7.5755 -5.6779,13 -0.9996,1.925 -3.68742,7.325 -5.97293,12 -2.28551,4.675 -4.82665,9.85 -5.64698,11.5 -2.77218,5.576 -3.26527,8.7066 -2.03774,12.9375 1.7409,6.0004 5.57635,11.7476 7.59174,11.3757 0.93364,-0.1722 3.16004,-3.1955 4.94754,-6.7183 z m -30.76082,-9.8449 c -0.006,-1.5125 -0.70792,-5 -1.55993,-7.75 -4.22497,-13.6368 -4.94019,-26.5697 -2.70979,-49 2.20427,-22.16755 2.58802,-41.38302 0.95872,-48.00602 -1.30936,-5.32247 -2.31079,-8.19786 -6.51513,-18.70689 -1.38276,-3.4563 -7.62111,-7.39523 -17.16305,-10.83685 -4.125,-1.48782 -8.76679,-3.21027 -10.3151,-3.82767 -3.53994,-1.41159 -12.03912,-1.50471 -11.1849,-0.12255 0.33992,0.55 1.46008,1 2.48925,1 1.02916,0 4.78789,1.35 8.35272,3 3.56484,1.65 6.92309,3 7.46279,3 0.83407,0 2.19524,2.2209 2.19524,3.58179 0,0.23001 -3.34844,0.41821 -7.44098,0.41821 -4.09254,0 -7.71746,0.44735 -8.05538,0.99412 -0.6844,1.10738 3.80735,7.54171 7.16618,10.26539 5.70897,4.62941 8.83979,13.58245 9.99318,28.57695 l 0.56433,7.33646 -2.86366,-0.33646 -2.86367,-0.33646 0.25048,9.5 c 0.28543,10.82517 -1.12463,21.21828 -3.86666,28.49998 -1.03555,2.75 -1.88304,6.0757 -1.88332,7.3905 -7.2e-4,3.4373 4.08171,11.1173 6.88657,12.9551 1.31689,0.8628 3.11853,2.7506 4.00364,4.195 1.47332,2.4043 13.07346,13.3372 19.81302,18.6734 3.96005,3.1355 6.29893,2.9628 6.28545,-0.464 z m -104.52733,-46.4708 c 0.93629,-2.3536 2.39931,-5.7578 3.25116,-7.5649 3.01421,-6.39461 -0.63069,-5.0396 -5.87973,2.1858 -1.95564,2.6919 -2.83328,5.1035 -2.83328,7.7851 0,3.4925 0.19001,3.7835 1.87975,2.8792 1.03386,-0.5533 2.6458,-2.9317 3.5821,-5.2852 z m 131.61353,-13.1048 c 2.57068,-6.35887 2.66153,-7.05979 1.32858,-10.25 -1.69787,-4.06356 -5.10103,-4.59442 -9.13109,-1.42438 -1.39842,1.1 -3.5169,2 -4.70773,2 -2.33009,0 -4.56514,1.71581 -4.56514,3.50458 0,0.60752 1.63305,2.88002 3.62899,5.05 1.99595,2.17 4.3125,4.9805 5.14789,6.2456 2.67384,4.0492 5.22686,2.4722 8.2985,-5.1258 z m -111.0365,-27.75058 c 2.26971,-4.449 1.49718,-6.9238 -2.16132,-6.9238 -1.60916,0 -1.87756,0.78623 -1.87756,5.5 0,3.025 0.44085,5.5 0.97968,5.5 0.53882,0 1.91546,-1.83429 3.0592,-4.0762 z m 108.83824,-1.87896 c 2.40741,-1.12466 5.68105,-2.04484 7.27475,-2.04484 3.33818,0 3.75178,-0.78579 6.31623,-12 0.9433,-4.125 2.06666,-8.4 2.49636,-9.5 0.42969,-1.1 1.32766,-4.7 1.99548,-8 0.66782,-3.3 1.85649,-8.8763 2.64148,-12.39178 2.3317,-10.44215 4.02308,-41.33547 2.48462,-45.38192 l -0.95697,-2.51703 -7.67824,1.99241 -7.67823,1.99241 -4.77163,-2.59705 c -5.97009,-3.24933 -8.33164,-3.25064 -15.41331,-0.009 l -5.65403,2.5885 -6.533,-3.1508 -6.53299,-3.15081 -6.37997,3.20594 c -5.91653,2.97305 -6.61995,3.11018 -9.68382,1.88771 -1.81712,-0.72502 -4.56296,-2.18569 -6.10186,-3.24591 -6.08401,-4.19162 -14.70199,1.31791 -14.70199,9.39901 0,4.21505 -3.39003,8.87782 -6.45455,8.87782 -2.02354,0 -2.01709,3.88162 0.0112,6.77749 0.85624,1.22238 2.42622,2.22251 3.4889,2.22251 4.87724,0 27.4246,7.3098 33.37303,10.81946 2.03266,1.1993 4.08487,2.18054 4.56047,2.18054 0.4756,0 3.11558,2.1375 5.86663,4.75 5.43202,5.15846 10.44514,14.82613 11.62136,22.41148 0.37002,2.38618 1.07847,5.68852 1.57433,7.33852 0.49586,1.65 1.09926,6.95552 1.34088,11.79003 0.53912,10.78714 1.49362,12.34492 5.93989,9.69419 1.74782,-1.042 5.14756,-2.81472 7.55498,-3.93938 z m -57.17453,-0.9082 c -0.62621,-5.28736 -5.59213,-16.72759 -8.43208,-19.42539 -9.214,-8.75281 -16.58941,-13.79936 -23.4474,-16.04361 -3.29526,-1.07837 -4.13496,1.83893 -1.95064,6.77695 2.21817,5.01455 4.44609,6.324 12.36385,7.26679 5.63072,0.67046 7.80824,3.08258 14.34184,15.88698 5.27551,10.33883 5.31548,10.40164 6.62015,10.40164 0.70457,0 0.87995,-1.6914 0.50428,-4.86336 z m -111.70259,-9.58104 c 10.76279,-2.02926 13.45787,-2.98076 13.82391,-4.88054 0.52625,-2.73132 -2.59541,-3.09462 -10.52592,-1.22499 -6.26191,1.47624 -9.87213,1.64324 -22.52476,1.04195 -8.2872,-0.39384 -16.46092,-1.11566 -18.16383,-1.60404 -1.70291,-0.48839 -4.92566,-0.88798 -7.16167,-0.88798 -5.25645,0 -8.39544,-2.15396 -6.83687,-4.69143 1.01041,-1.64504 2.36674,-1.76396 15,-1.31517 20.75261,0.73722 24.20303,0.60234 32.35193,-1.2647 7.66266,-1.75563 12.37644,-4.78947 10.44403,-6.72188 -1.288,-1.288 -72.15861,-1.67749 -73.35721,-0.40316 -1.38066,1.4679 1.31403,12.20442 3.6492,14.53959 2.15882,2.15882 8.01523,3.66055 23.30119,5.97498 19.98375,3.02573 29.72,3.3756 40,1.43737 z m 41.78519,-9.0556 c 4.03249,-2.74015 11.70331,-3.40537 16.8229,-1.4589 3.95532,1.5038 6.15041,-0.783 4.53585,-4.72536 -2.54452,-6.21309 -1.90919,-31.9505 0.85699,-34.71667 0.54949,-0.54949 0.99907,-1.8295 0.99907,-2.84448 0,-1.678 -0.71865,-1.80291 -7.92196,-1.37695 -4.35708,0.25766 -8.79702,0.93678 -9.86653,1.50916 -3.68378,1.9715 -12.5391,12.62426 -14.87286,17.89171 -1.93596,4.36963 -2.33865,6.97447 -2.33865,15.12803 0,9.0826 0.17519,9.97172 2.25,11.41904 3.18441,2.22133 5.32387,2.03609 9.53519,-0.82558 z m 179.30301,-20.78142 c 2.59026,-3.61837 3.04282,-8.33409 1.24729,-12.99675 -1.71557,-4.45503 -3.92612,-7.46453 -4.82363,-6.56702 -0.67724,0.67724 -1.45549,20.08409 -0.84596,21.09519 0.83776,1.38968 2.82344,0.70204 4.4223,-1.53142 z M 601.07757,272.609 c 3.64076,-1.39715 3.75722,-5.39876 0.22448,-7.7135 -2.23127,-1.46198 -4.82359,-1.57375 -22.25,-0.95929 -10.84846,0.38252 -23.77448,0.93065 -28.72448,1.21807 -4.95,0.28742 -13.92497,0.63362 -19.94437,0.76934 -11.04286,0.24898 -13.1022,1.01213 -10.66283,3.95139 0.94883,1.14327 8.25017,2.81901 17.6072,4.04103 6.39068,0.83463 61.09162,-0.28689 63.75,-1.30704 z m 79.75,-8.49783 c 0,-0.94863 -2.99338,-1.42672 -3.52699,-0.56332 -0.32508,0.52598 0.33551,0.95633 1.46797,0.95633 1.13246,0 2.05902,-0.17686 2.05902,-0.39301 z m -60,-11.71398 c 0,-1.04116 -0.3949,-1.89301 -0.87756,-1.89301 -1.41748,0 -3.3493,2.82392 -2.6765,3.91252 0.96427,1.56024 3.55406,0.0886 3.55406,-2.01951 z M 398.45324,583.79656 c -0.11947,-0.1195 -15.31549,-0.3467 -33.76893,-0.5048 -34.69865,-0.2974 -36.85674,-0.5581 -36.85674,-4.4521 0,-1.6344 -5.16306,-9.1617 -9.36921,-13.6596 l -2.86921,-3.0682 -0.36084,-47.0538 c -0.19847,-25.8796 -0.36604,-48.4039 -0.3724,-50.0539 -0.0946,-24.5464 0.58629,-37.7047 1.99167,-38.4913 0.836,-0.4678 6.236,-0.5223 12,-0.121 5.76399,0.4013 28.02999,0.8697 49.47999,1.0408 21.45,0.1712 47.55,0.381 58,0.4663 10.45,0.085 19.49592,0.4667 20.10205,0.8477 1.12422,0.7066 1.09192,53.8648 -0.0656,107.9914 l -0.52895,24.7339 -4.45534,5.7661 c -2.45044,3.1714 -6.62749,8.1895 -9.28232,11.1514 l -4.82698,5.3852 -19.29998,0.1195 c -10.61499,0.066 -19.39773,0.022 -19.5172,-0.098 z m 4.66871,-6.8858 c 1.0011,-0.3178 2.22625,-1.6457 2.72255,-2.9511 0.49629,-1.3054 1.16687,-20.994 1.49016,-43.7526 0.50061,-35.2406 0.37488,-41.556 -0.84749,-42.5704 -1.54832,-1.285 -6.53919,-0.5094 -14.22779,2.2111 -2.23751,0.7917 -4.71251,1.0942 -5.5,0.6723 -0.7875,-0.4219 -3.68181,-1.0905 -6.43181,-1.4857 -2.75,-0.3953 -6.94606,-1.6028 -9.32457,-2.6834 -5.90246,-2.6816 -7.50361,-2.1685 -8.31388,2.664 -0.36788,2.1941 -0.82472,22.0324 -1.01521,44.0852 -0.37476,43.3864 -0.42222,42.9707 4.97684,43.5947 5.26352,0.6083 34.68608,0.7825 36.4712,0.2159 z m 34.96269,-3.754 c 1.78361,-2.2646 3.81317,-4.8003 4.51012,-5.635 0.69696,-0.8347 2.58653,-3.1259 4.19905,-5.0916 l 2.93187,-3.574 0.40622,-40.6736 c 0.33348,-33.3893 0.16335,-40.8753 -0.94991,-41.7992 -0.74588,-0.619 -5.08563,-1.1826 -9.6439,-1.2523 -6.36492,-0.097 -8.90867,0.2791 -10.96396,1.6231 -1.47191,0.9625 -3.79585,1.75 -5.16432,1.75 -3.32789,0 -7.31101,1.8954 -8.1653,3.8855 -1.16053,2.7035 -1.37377,92.4533 -0.22296,93.8443 0.68436,0.8273 4.09491,1.1988 10.41879,1.135 l 9.40138,-0.095 3.24292,-4.1174 z m -86.21304,1.7034 c 0.55015,-0.5502 1.15506,-5.0473 1.34425,-9.9937 0.18919,-4.9464 0.87006,-9.9765 1.51303,-11.1779 0.86977,-1.6252 0.88227,-2.7203 0.0488,-4.2775 -0.61612,-1.1513 -0.87196,-3.0823 -0.56853,-4.2912 0.43646,-1.739 0.71064,-18.4401 0.52724,-32.1157 -0.0147,-1.1 0.0463,-8.9123 0.13565,-17.3608 0.12866,-12.1645 -0.13569,-15.6589 -1.27042,-16.7937 -1.94159,-1.9416 -16.10219,-5.3227 -22.27409,-5.3184 -8.31197,0.01 -7.94797,-1.0956 -8.32261,25.1835 -0.18261,12.8092 -0.3535,24.1894 -0.37976,25.2894 -0.0263,1.1 0.0416,7.2771 0.1507,13.7268 0.10915,6.4497 -0.0693,12.1599 -0.39646,12.6893 -1.09811,1.7768 0.70162,9.1784 3.08614,12.6922 1.2991,1.9143 2.36199,3.9583 2.36199,4.5422 0,0.5839 1.42921,2.8662 3.17603,5.0718 l 3.17603,4.01 8.34585,-0.438 c 4.59022,-0.2409 8.79598,-0.8882 9.34612,-1.4383 z m 42.31163,-92.9454 c 3.37938,-0.8742 6.62143,-1.9834 7.20454,-2.4649 1.77882,-1.469 15.71732,-6.9001 19.4398,-7.5747 1.925,-0.3488 4.4,-1.1157 5.5,-1.704 2.00485,-1.0725 5.57711,-1.4617 15.11271,-1.6466 8.64016,-0.1675 8.86483,-0.6005 9.032,-17.4042 0.10403,-10.4572 -0.20168,-14.8335 -1.08754,-15.5687 -2.4131,-2.0027 -122.73749,-3.2672 -124.69426,-1.3104 -1.26027,1.2603 -1.88297,26.5157 -0.73665,29.8771 0.62512,1.8331 1.80564,2.2089 8.87818,2.8258 9.4328,0.8228 17.40466,2.6758 24.49556,5.6936 10.87234,4.6271 13.12363,5.2844 13.88429,4.0536 0.60675,-0.9817 -1.43178,-7.3504 -2.64079,-8.2502 -0.41607,-0.3097 -0.46143,-2.7847 -0.1008,-5.5 0.87233,-6.5681 6.23114,-11.8283 13.72439,-13.4717 8.23063,-1.8052 12.42861,0.083 15.84567,7.1268 3.44443,7.1002 2.94472,11.0468 -2.1474,16.9591 -3.53464,4.1041 -3.9908,4.3187 -9.36523,4.4062 -6.82093,0.1112 -8.90692,1.5839 -5.56189,3.9269 2.89068,2.0247 5.47213,2.0298 13.21742,0.026 z m -7.91143,-17.3203 c 0.84781,-1.3718 -0.47624,-4.0903 -1.9922,-4.0903 -1.75682,0 -2.76864,1.7325 -2.07203,3.5479 0.61917,1.6135 3.19016,1.9566 4.06423,0.5424 z"
             style="fill:#000000" />
        </g>
      </g>
    </g>
  </g>
</svg>
