<?xml version="1.0" encoding="UTF-8" standalone="no"?>
<!-- Created with Inkscape (http://www.inkscape.org/) -->

<svg
   xmlns:dc="http://purl.org/dc/elements/1.1/"
   xmlns:cc="http://creativecommons.org/ns#"
   xmlns:rdf="http://www.w3.org/1999/02/22-rdf-syntax-ns#"
   xmlns:svg="http://www.w3.org/2000/svg"
   xmlns="http://www.w3.org/2000/svg"
   xmlns:sodipodi="http://sodipodi.sourceforge.net/DTD/sodipodi-0.dtd"
   xmlns:inkscape="http://www.inkscape.org/namespaces/inkscape"
   width="1024"
   height="1024"
   id="svg2"
   version="1.1"
   inkscape:version="0.48.4 r9939"
   sodipodi:docname="Olivia Winter.svg">
  <defs
     id="defs4" />
  <sodipodi:namedview
     id="base"
     pagecolor="#ffffff"
     bordercolor="#666666"
     borderopacity="1.0"
     inkscape:pageopacity="0.0"
     inkscape:pageshadow="2"
     inkscape:zoom="0.35"
     inkscape:cx="-25.99253"
     inkscape:cy="518.68279"
     inkscape:document-units="px"
     inkscape:current-layer="layer1"
     showgrid="false"
     inkscape:window-width="1366"
     inkscape:window-height="705"
     inkscape:window-x="-8"
     inkscape:window-y="-8"
     inkscape:window-maximized="1" />
  <metadata
     id="metadata7">
    <rdf:RDF>
      <cc:Work
         rdf:about="">
        <dc:format>image/svg+xml</dc:format>
        <dc:type
           rdf:resource="http://purl.org/dc/dcmitype/StillImage" />
        <dc:title />
      </cc:Work>
    </rdf:RDF>
  </metadata>
  <g
     inkscape:label="Layer 1"
     inkscape:groupmode="layer"
     id="layer1"
     transform="translate(0,-28.362183)">
    <g
       id="g3007"
       transform="matrix(2.8677036,0,0,2.8677036,87.784166,-1080.8204)"
       style="fill:#f785b1;fill-opacity:1;stroke:#f785b1;stroke-opacity:1">
      <path
         style="fill:#f785b1;fill-opacity:1;stroke:#f785b1;stroke-opacity:1"
         d="m 188.4716,585.10794 c -0.47705,-1.24316 2.1531,-12.12518 4.37766,-18.11222 0.23891,-0.64298 -2.99444,-3.74979 -7.18521,-6.90402 -10.11586,-7.61381 -9.86085,-8.83382 1.92691,-9.21874 4.91517,-0.1605 9.46127,-0.7272 10.10245,-1.25933 0.64119,-0.53213 2.18845,-4.55912 3.43837,-8.94885 3.6999,-12.99408 6.22537,-13.05681 9.98255,-0.24795 1.24997,4.26137 2.70679,8.29411 3.23738,8.96165 0.59641,0.75034 4.45642,1.32299 10.11096,1.5 11.98783,0.37525 12.28729,1.57338 2.27645,9.10814 -7.67753,5.53578 -7.99716,3.86922 -5.49014,12.40402 4.62248,15.73657 3.5767,17.12132 -7.0778,9.37189 -3.85483,-2.80376 -7.47255,-5.09775 -8.0394,-5.09775 -0.56685,0 -4.1241,2.25 -7.905,5 -7.37374,5.3632 -8.82221,5.87445 -9.75518,3.44316 z"
         id="path3009"
         inkscape:connector-curvature="0"
         sodipodi:nodetypes="sssssssssccssss" />
    </g>
    <path
       style="fill:#f785b1;fill-opacity:1;stroke:#f785b1;stroke-width:2.47713947px;stroke-linecap:butt;stroke-linejoin:miter;stroke-opacity:1"
       d="m 525.70152,663.79872 c 0,0 -35.28873,-32.6591 -65.74825,0.78932 -30.46058,33.44896 50.14711,85.59801 66.49092,85.86137 16.34488,0.26347 80.97854,-36.60974 71.69205,-76.64317 -9.2865,-40.03355 -65.00558,-20.80686 -72.43472,-10.0085 z"
       id="path2993"
       inkscape:connector-curvature="0" />
    <path
       sodipodi:type="arc"
       style="fill:#f785b1;fill-opacity:1;stroke:#f785b1;stroke-opacity:1"
       id="path2999"
       sodipodi:cx="344.9671"
       sodipodi:cy="510.66788"
       sodipodi:rx="9.3439112"
       sodipodi:ry="9.3439112"
       d="m 354.31101,510.66788 a 9.3439112,9.3439112 0 1 1 -18.68782,0 9.3439112,9.3439112 0 1 1 18.68782,0 z"
       transform="matrix(2.1882775,0,0,2.1882775,-231.54891,-642.88268)" />
    <path
       transform="matrix(2.1882775,0,0,2.1882775,-164.08869,-664.18029)"
       d="m 354.31101,510.66788 a 9.3439112,9.3439112 0 1 1 -18.68782,0 9.3439112,9.3439112 0 1 1 18.68782,0 z"
       sodipodi:ry="9.3439112"
       sodipodi:rx="9.3439112"
       sodipodi:cy="510.66788"
       sodipodi:cx="344.9671"
       id="path3012"
       style="fill:#f785b1;fill-opacity:1;stroke:#f785b1;stroke-opacity:1"
       sodipodi:type="arc" />
    <path
       transform="matrix(4.1551089,0,0,4.1551089,-910.04134,-1571.7713)"
       d="m 354.31101,510.66788 a 9.3439112,9.3439112 0 1 1 -18.68782,0 9.3439112,9.3439112 0 1 1 18.68782,0 z"
       sodipodi:ry="9.3439112"
       sodipodi:rx="9.3439112"
       sodipodi:cy="510.66788"
       sodipodi:cx="344.9671"
       id="path3014"
       style="fill:#f785b1;fill-opacity:1;stroke:#f785b1;stroke-opacity:1"
       sodipodi:type="arc" />
    <path
       transform="matrix(2.1882775,0,0,2.1882775,-231.54891,-493.80059)"
       d="m 354.31101,510.66788 a 9.3439112,9.3439112 0 1 1 -18.68782,0 9.3439112,9.3439112 0 1 1 18.68782,0 z"
       sodipodi:ry="9.3439112"
       sodipodi:rx="9.3439112"
       sodipodi:cy="510.66788"
       sodipodi:cx="344.9671"
       id="path3016"
       style="fill:#f785b1;fill-opacity:1;stroke:#f785b1;stroke-opacity:1"
       sodipodi:type="arc" />
    <path
       sodipodi:type="arc"
       style="fill:#f785b1;fill-opacity:1;stroke:#f785b1;stroke-opacity:1"
       id="path3018"
       sodipodi:cx="344.9671"
       sodipodi:cy="510.66788"
       sodipodi:rx="9.3439112"
       sodipodi:ry="9.3439112"
       d="m 354.31101,510.66788 a 9.3439112,9.3439112 0 1 1 -18.68782,0 9.3439112,9.3439112 0 1 1 18.68782,0 z"
       transform="matrix(2.1882775,0,0,2.1882775,-231.54891,-335.60645)" />
    <path
       sodipodi:type="arc"
       style="fill:#f785b1;fill-opacity:1;stroke:#f785b1;stroke-opacity:1"
       id="path3020"
       sodipodi:cx="344.9671"
       sodipodi:cy="510.66788"
       sodipodi:rx="9.3439112"
       sodipodi:ry="9.3439112"
       d="m 354.31101,510.66788 a 9.3439112,9.3439112 0 1 1 -18.68782,0 9.3439112,9.3439112 0 1 1 18.68782,0 z"
       transform="matrix(4.1551089,0,0,4.1551089,-910.04134,-1268.5264)" />
    <path
       transform="matrix(2.1882775,0,0,2.1882775,-231.54891,-191.92468)"
       d="m 354.31101,510.66788 a 9.3439112,9.3439112 0 1 1 -18.68782,0 9.3439112,9.3439112 0 1 1 18.68782,0 z"
       sodipodi:ry="9.3439112"
       sodipodi:rx="9.3439112"
       sodipodi:cy="510.66788"
       sodipodi:cx="344.9671"
       id="path3022"
       style="fill:#f785b1;fill-opacity:1;stroke:#f785b1;stroke-opacity:1"
       sodipodi:type="arc" />
    <path
       transform="matrix(4.1551089,0,0,4.1551089,-910.04134,-1126.8295)"
       d="m 354.31101,510.66788 a 9.3439112,9.3439112 0 1 1 -18.68782,0 9.3439112,9.3439112 0 1 1 18.68782,0 z"
       sodipodi:ry="9.3439112"
       sodipodi:rx="9.3439112"
       sodipodi:cy="510.66788"
       sodipodi:cx="344.9671"
       id="path3024"
       style="fill:#f785b1;fill-opacity:1;stroke:#f785b1;stroke-opacity:1"
       sodipodi:type="arc" />
    <path
       transform="matrix(2.1882775,0,0,2.1882775,-73.423618,-498.52348)"
       d="m 354.31101,510.66788 a 9.3439112,9.3439112 0 1 1 -18.68782,0 9.3439112,9.3439112 0 1 1 18.68782,0 z"
       sodipodi:ry="9.3439112"
       sodipodi:rx="9.3439112"
       sodipodi:cy="510.66788"
       sodipodi:cx="344.9671"
       id="path3026"
       style="fill:#f785b1;fill-opacity:1;stroke:#f785b1;stroke-opacity:1"
       sodipodi:type="arc" />
    <path
       transform="matrix(4.1551089,0,0,4.1551089,-751.91604,-1431.4435)"
       d="m 354.31101,510.66788 a 9.3439112,9.3439112 0 1 1 -18.68782,0 9.3439112,9.3439112 0 1 1 18.68782,0 z"
       sodipodi:ry="9.3439112"
       sodipodi:rx="9.3439112"
       sodipodi:cy="510.66788"
       sodipodi:cx="344.9671"
       id="path3028"
       style="fill:#f785b1;fill-opacity:1;stroke:#f785b1;stroke-opacity:1"
       sodipodi:type="arc" />
    <path
       sodipodi:type="arc"
       style="fill:#f785b1;fill-opacity:1;stroke:#f785b1;stroke-opacity:1"
       id="path3030"
       sodipodi:cx="344.9671"
       sodipodi:cy="510.66788"
       sodipodi:rx="9.3439112"
       sodipodi:ry="9.3439112"
       d="m 354.31101,510.66788 a 9.3439112,9.3439112 0 1 1 -18.68782,0 9.3439112,9.3439112 0 1 1 18.68782,0 z"
       transform="matrix(2.1882775,0,0,2.1882775,-73.423618,-354.8419)" />
    <path
       sodipodi:type="arc"
       style="fill:#f785b1;fill-opacity:1;stroke:#f785b1;stroke-opacity:1"
       id="path3032"
       sodipodi:cx="344.9671"
       sodipodi:cy="510.66788"
       sodipodi:rx="9.3439112"
       sodipodi:ry="9.3439112"
       d="m 354.31101,510.66788 a 9.3439112,9.3439112 0 1 1 -18.68782,0 9.3439112,9.3439112 0 1 1 18.68782,0 z"
       transform="matrix(4.1551089,0,0,4.1551089,-751.91604,-1289.7467)" />
    <path
       transform="matrix(2.1882775,0,0,2.1882775,-73.423618,-213.50432)"
       d="m 354.31101,510.66788 a 9.3439112,9.3439112 0 1 1 -18.68782,0 9.3439112,9.3439112 0 1 1 18.68782,0 z"
       sodipodi:ry="9.3439112"
       sodipodi:rx="9.3439112"
       sodipodi:cy="510.66788"
       sodipodi:cx="344.9671"
       id="path3034"
       style="fill:#f785b1;fill-opacity:1;stroke:#f785b1;stroke-opacity:1"
       sodipodi:type="arc" />
    <path
       sodipodi:type="arc"
       style="fill:#f785b1;fill-opacity:1;stroke:#f785b1;stroke-opacity:1"
       id="path3036"
       sodipodi:cx="344.9671"
       sodipodi:cy="510.66788"
       sodipodi:rx="9.3439112"
       sodipodi:ry="9.3439112"
       d="m 354.31101,510.66788 a 9.3439112,9.3439112 0 1 1 -18.68782,0 9.3439112,9.3439112 0 1 1 18.68782,0 z"
       transform="matrix(2.1882775,0,0,2.1882775,22.102126,-706.62076)" />
    <path
       transform="matrix(2.1882775,0,0,2.1882775,108.35321,-747.69226)"
       d="m 354.31101,510.66788 a 9.3439112,9.3439112 0 1 1 -18.68782,0 9.3439112,9.3439112 0 1 1 18.68782,0 z"
       sodipodi:ry="9.3439112"
       sodipodi:rx="9.3439112"
       sodipodi:cy="510.66788"
       sodipodi:cx="344.9671"
       id="path3038"
       style="fill:#f785b1;fill-opacity:1;stroke:#f785b1;stroke-opacity:1"
       sodipodi:type="arc" />
    <path
       sodipodi:type="arc"
       style="fill:#f785b1;fill-opacity:1;stroke:#f785b1;stroke-opacity:1"
       id="path3040"
       sodipodi:cx="344.9671"
       sodipodi:cy="510.66788"
       sodipodi:rx="9.3439112"
       sodipodi:ry="9.3439112"
       d="m 354.31101,510.66788 a 9.3439112,9.3439112 0 1 1 -18.68782,0 9.3439112,9.3439112 0 1 1 18.68782,0 z"
       transform="matrix(2.1882775,0,0,2.1882775,75.495375,-601.20382)" />
    <path
       sodipodi:type="arc"
       style="fill:#f785b1;fill-opacity:1;stroke:#f785b1;stroke-opacity:1"
       id="path3042"
       sodipodi:cx="344.9671"
       sodipodi:cy="510.66788"
       sodipodi:rx="9.3439112"
       sodipodi:ry="9.3439112"
       d="m 354.31101,510.66788 a 9.3439112,9.3439112 0 1 1 -18.68782,0 9.3439112,9.3439112 0 1 1 18.68782,0 z"
       transform="matrix(4.1551089,0,0,4.1551089,-582.83798,-1678.5574)" />
    <path
       inkscape:connector-curvature="0"
       id="path3017"
       d="m 707.409,366.30652 c 0,0 -24.50702,-11.70143 -35.3299,11.44381 -10.82393,23.14545 41.39181,37.76478 50.2512,35.16771 8.8593,-2.59686 37.54168,-33.31626 25.82439,-53.35245 -11.71739,-20.03628 -38.54908,-0.3296 -40.74569,6.7405 z"
       style="fill:#f785b1;fill-opacity:1;stroke:#f785b1;stroke-width:1.39907598px;stroke-linecap:butt;stroke-linejoin:miter;stroke-opacity:1" />
    <path
       style="fill:#f785b1;fill-opacity:1;stroke:#f785b1;stroke-width:1.39907598px;stroke-linecap:butt;stroke-linejoin:miter;stroke-opacity:1"
       d="m 866.35509,293.79202 c 0,0 -26.70702,-4.92483 -31.13831,20.23893 -4.43129,25.16409 49.79046,25.69948 57.66961,20.88741 7.87915,-4.81173 27.58403,-41.93378 11.05812,-58.2328 -16.52484,-16.29914 -37.30758,9.70784 -37.59058,17.10613 z"
       id="path3019"
       inkscape:connector-curvature="0" />
    <path
       sodipodi:type="arc"
       style="fill:#f785b1;fill-opacity:1;stroke:#f785b1;stroke-opacity:1"
       id="path3021"
       sodipodi:cx="344.9671"
       sodipodi:cy="510.66788"
       sodipodi:rx="9.3439112"
       sodipodi:ry="9.3439112"
       d="m 354.31101,510.66788 a 9.3439112,9.3439112 0 1 1 -18.68782,0 9.3439112,9.3439112 0 1 1 18.68782,0 z"
       transform="matrix(2.1882775,0,0,2.1882775,-294.14828,-664.18029)" />
    <g
       transform="matrix(-2.8677036,0,0,2.8677036,946.3501,-1080.8204)"
       id="g3023"
       style="fill:#f785b1;fill-opacity:1;stroke:#f785b1;stroke-opacity:1">
      <path
         sodipodi:nodetypes="sssssssssccssss"
         inkscape:connector-curvature="0"
         id="path3025"
         d="m 188.4716,585.10794 c -0.47705,-1.24316 2.1531,-12.12518 4.37766,-18.11222 0.23891,-0.64298 -2.99444,-3.74979 -7.18521,-6.90402 -10.11586,-7.61381 -9.86085,-8.83382 1.92691,-9.21874 4.91517,-0.1605 9.46127,-0.7272 10.10245,-1.25933 0.64119,-0.53213 2.18845,-4.55912 3.43837,-8.94885 3.6999,-12.99408 6.22537,-13.05681 9.98255,-0.24795 1.24997,4.26137 2.70679,8.29411 3.23738,8.96165 0.59641,0.75034 4.45642,1.32299 10.11096,1.5 11.98783,0.37525 12.28729,1.57338 2.27645,9.10814 -7.67753,5.53578 -7.99716,3.86922 -5.49014,12.40402 4.62248,15.73657 3.5767,17.12132 -7.0778,9.37189 -3.85483,-2.80376 -7.47255,-5.09775 -8.0394,-5.09775 -0.56685,0 -4.1241,2.25 -7.905,5 -7.37374,5.3632 -8.82221,5.87445 -9.75518,3.44316 z"
         style="fill:#f785b1;fill-opacity:1;stroke:#f785b1;stroke-opacity:1" />
    </g>
    <path
       sodipodi:type="arc"
       style="fill:#f785b1;fill-opacity:1;stroke:#f785b1;stroke-opacity:1"
       id="path3027"
       sodipodi:cx="344.9671"
       sodipodi:cy="510.66788"
       sodipodi:rx="9.3439112"
       sodipodi:ry="9.3439112"
       d="m 354.31101,510.66788 a 9.3439112,9.3439112 0 1 1 -18.68782,0 9.3439112,9.3439112 0 1 1 18.68782,0 z"
       transform="matrix(-2.1882775,0,0,2.1882775,1107.558,-498.52348)" />
    <path
       sodipodi:type="arc"
       style="fill:#f785b1;fill-opacity:1;stroke:#f785b1;stroke-opacity:1"
       id="path3029"
       sodipodi:cx="344.9671"
       sodipodi:cy="510.66788"
       sodipodi:rx="9.3439112"
       sodipodi:ry="9.3439112"
       d="m 354.31101,510.66788 a 9.3439112,9.3439112 0 1 1 -18.68782,0 9.3439112,9.3439112 0 1 1 18.68782,0 z"
       transform="matrix(-4.1551089,0,0,4.1551089,1786.0504,-1431.4435)" />
    <path
       transform="matrix(-2.1882775,0,0,2.1882775,1107.558,-354.8419)"
       d="m 354.31101,510.66788 a 9.3439112,9.3439112 0 1 1 -18.68782,0 9.3439112,9.3439112 0 1 1 18.68782,0 z"
       sodipodi:ry="9.3439112"
       sodipodi:rx="9.3439112"
       sodipodi:cy="510.66788"
       sodipodi:cx="344.9671"
       id="path3031"
       style="fill:#f785b1;fill-opacity:1;stroke:#f785b1;stroke-opacity:1"
       sodipodi:type="arc" />
    <path
       transform="matrix(-4.1551089,0,0,4.1551089,1786.0504,-1289.7467)"
       d="m 354.31101,510.66788 a 9.3439112,9.3439112 0 1 1 -18.68782,0 9.3439112,9.3439112 0 1 1 18.68782,0 z"
       sodipodi:ry="9.3439112"
       sodipodi:rx="9.3439112"
       sodipodi:cy="510.66788"
       sodipodi:cx="344.9671"
       id="path3033"
       style="fill:#f785b1;fill-opacity:1;stroke:#f785b1;stroke-opacity:1"
       sodipodi:type="arc" />
    <path
       sodipodi:type="arc"
       style="fill:#f785b1;fill-opacity:1;stroke:#f785b1;stroke-opacity:1"
       id="path3035"
       sodipodi:cx="344.9671"
       sodipodi:cy="510.66788"
       sodipodi:rx="9.3439112"
       sodipodi:ry="9.3439112"
       d="m 354.31101,510.66788 a 9.3439112,9.3439112 0 1 1 -18.68782,0 9.3439112,9.3439112 0 1 1 18.68782,0 z"
       transform="matrix(-2.1882775,0,0,2.1882775,1107.558,-213.50432)" />
    <path
       transform="matrix(-2.1882775,0,0,2.1882775,1012.0311,-706.62076)"
       d="m 354.31101,510.66788 a 9.3439112,9.3439112 0 1 1 -18.68782,0 9.3439112,9.3439112 0 1 1 18.68782,0 z"
       sodipodi:ry="9.3439112"
       sodipodi:rx="9.3439112"
       sodipodi:cy="510.66788"
       sodipodi:cx="344.9671"
       id="path3037"
       style="fill:#f785b1;fill-opacity:1;stroke:#f785b1;stroke-opacity:1"
       sodipodi:type="arc" />
    <path
       sodipodi:type="arc"
       style="fill:#f785b1;fill-opacity:1;stroke:#f785b1;stroke-opacity:1"
       id="path3039"
       sodipodi:cx="344.9671"
       sodipodi:cy="510.66788"
       sodipodi:rx="9.3439112"
       sodipodi:ry="9.3439112"
       d="m 354.31101,510.66788 a 9.3439112,9.3439112 0 1 1 -18.68782,0 9.3439112,9.3439112 0 1 1 18.68782,0 z"
       transform="matrix(-2.1882775,0,0,2.1882775,925.78105,-747.69226)" />
    <path
       transform="matrix(-2.1882775,0,0,2.1882775,958.63889,-601.20382)"
       d="m 354.31101,510.66788 a 9.3439112,9.3439112 0 1 1 -18.68782,0 9.3439112,9.3439112 0 1 1 18.68782,0 z"
       sodipodi:ry="9.3439112"
       sodipodi:rx="9.3439112"
       sodipodi:cy="510.66788"
       sodipodi:cx="344.9671"
       id="path3041"
       style="fill:#f785b1;fill-opacity:1;stroke:#f785b1;stroke-opacity:1"
       sodipodi:type="arc" />
    <path
       transform="matrix(-4.1551089,0,0,4.1551089,1616.9721,-1678.5574)"
       d="m 354.31101,510.66788 a 9.3439112,9.3439112 0 1 1 -18.68782,0 9.3439112,9.3439112 0 1 1 18.68782,0 z"
       sodipodi:ry="9.3439112"
       sodipodi:rx="9.3439112"
       sodipodi:cy="510.66788"
       sodipodi:cx="344.9671"
       id="path3043"
       style="fill:#f785b1;fill-opacity:1;stroke:#f785b1;stroke-opacity:1"
       sodipodi:type="arc" />
    <path
       style="fill:#f785b1;fill-opacity:1;stroke:#f785b1;stroke-width:1.39907598px;stroke-linecap:butt;stroke-linejoin:miter;stroke-opacity:1"
       d="m 326.72536,366.30652 c 0,0 24.50596,-11.70143 35.3299,11.44381 10.82394,23.14545 -41.3919,37.76478 -50.2512,35.16771 -8.86036,-2.59686 -37.54177,-33.31626 -25.82439,-53.35245 11.71739,-20.03628 38.54899,-0.3296 40.74569,6.7405 z"
       id="path3045"
       inkscape:connector-curvature="0" />
    <path
       inkscape:connector-curvature="0"
       id="path3047"
       d="m 167.77928,293.79202 c 0,0 26.70691,-4.92483 31.1382,20.23893 4.4313,25.16409 -49.79036,25.69948 -57.66951,20.88741 -7.87915,-4.81173 -27.58413,-41.93378 -11.05928,-58.2328 16.52601,-16.29914 37.30759,9.70784 37.59165,17.10613 z"
       style="fill:#f785b1;fill-opacity:1;stroke:#f785b1;stroke-width:1.39907598px;stroke-linecap:butt;stroke-linejoin:miter;stroke-opacity:1" />
    <path
       style="fill:#000000;stroke:#000000;stroke-width:10.8423357px;stroke-linecap:butt;stroke-linejoin:miter;stroke-opacity:1"
       d="m 1001.4359,106.05713 -108.15488,0 c -74.3115,190.56917 -585.95377,290.23885 -763.93146,0 l -106.785535,0 c 203.075645,376.48914 875.450805,287.54908 978.871875,0 z"
       id="path3055"
       inkscape:connector-curvature="0"
       sodipodi:nodetypes="ccccc" />
    <path
       inkscape:connector-curvature="0"
       id="path3017-1"
       d="m 524.1052,387.27775 c 0,0 -19.73261,-18.65854 -37.13705,0.0477 -17.40549,18.70609 27.80283,48.64632 37.03171,48.8938 9.22873,0.24766 45.95536,-20.18553 40.95332,-42.85099 -5.0021,-22.6656 -36.58724,-12.14553 -40.84784,-6.09089 z"
       style="fill:#f785b1;fill-opacity:1;stroke:#f785b1;stroke-width:1.39907598000000010px;stroke-linecap:butt;stroke-linejoin:miter;stroke-opacity:1" />
  </g>
</svg>
