<?xml version="1.0" encoding="UTF-8" standalone="no"?>
<!-- Created with Inkscape (http://www.inkscape.org/) -->

<svg
   xmlns:dc="http://purl.org/dc/elements/1.1/"
   xmlns:cc="http://creativecommons.org/ns#"
   xmlns:rdf="http://www.w3.org/1999/02/22-rdf-syntax-ns#"
   xmlns:svg="http://www.w3.org/2000/svg"
   xmlns="http://www.w3.org/2000/svg"
   xmlns:sodipodi="http://sodipodi.sourceforge.net/DTD/sodipodi-0.dtd"
   xmlns:inkscape="http://www.inkscape.org/namespaces/inkscape"
   id="svg2985"
   version="1.1"
   inkscape:version="0.48.3.1 r9886"
   width="1920"
   height="1920"
   sodipodi:docname="Ogel Head2.svg">
  <metadata
     id="metadata2991">
    <rdf:RDF>
      <cc:Work
         rdf:about="">
        <dc:format>image/svg+xml</dc:format>
        <dc:type
           rdf:resource="http://purl.org/dc/dcmitype/StillImage" />
        <dc:title />
      </cc:Work>
    </rdf:RDF>
  </metadata>
  <defs
     id="defs2989" />
  <sodipodi:namedview
     pagecolor="#ffffff"
     bordercolor="#666666"
     borderopacity="1"
     objecttolerance="10"
     gridtolerance="10"
     guidetolerance="10"
     inkscape:pageopacity="0"
     inkscape:pageshadow="2"
     inkscape:window-width="1920"
     inkscape:window-height="1005"
     id="namedview2987"
     showgrid="false"
     inkscape:zoom="0.1767767"
     inkscape:cx="1674.6592"
     inkscape:cy="396.15739"
     inkscape:window-x="-9"
     inkscape:window-y="-9"
     inkscape:window-maximized="1"
     inkscape:current-layer="g3026" />
  <g
     id="g3026"
     style="fill:#000000;stroke:#000000"
     transform="matrix(3.0677138,0,0,3.0677138,19.292134,-118.49384)">
    <g
       transform="translate(-70.561889,61.147344)"
       id="g3005"
       style="fill:#000000;stroke:#000000">
      <path
         sodipodi:nodetypes="cccscccccccccsccsccsccscccccscccsccccccccccccccccccccccsccccscccccssssccssssssccssccscccssssscsssscscsssssssscsssssssssss"
         inkscape:connector-curvature="0"
         id="path3009"
         d="m 358.55379,577.69059 c -10.05264,-1.43498 -13.19771,-1.98261 -16.55228,-4.69019 -7.37113,-4.31889 4.51816,3.39047 -14.42882,-11.37786 C 323.74739,558.59635 323,556.44717 323,554.06776 c 0,-4.02618 3.48455,-5.9291 7.70494,-4.20767 8.3759,1.62197 16.8163,0.66842 25.29506,0.93442 19.03587,2.06111 34.11851,-2.10241 50.27627,-4.10263 16.67889,-3.02002 19.87474,-1.73767 22.07506,-2.24391 7.64305,1.46635 4.06966,0.14235 7.08524,1.55204 7.49734,0 7.09763,5.89485 -0.92833,13.69106 -12.7222,7.6666 -32.8549,17.0297 -49.00824,19.16874 -13.13884,0.54018 -13.6208,0.72158 -26.94621,-1.16922 z m -16.88727,-82.7812 c -15.56139,2.83924 -32.63285,1.00798 -64.15467,13.08524 -29.9834,11.48783 -60.15091,35.69518 -75.09972,32.18833 -9.51678,-2.42554 -7.9968,-15.16326 0.63818,-17.5132 12.11589,-6.98402 30.28142,-23.04307 54.86395,-34.05861 23.31811,-10.44895 49.41515,-15.22943 57.19917,-16.56465 50.77962,-2.40291 96.30902,-7.05327 133.88657,0.9046 7.24926,0.51098 33.61809,7.19548 58.05251,18.00068 24.97269,11.04323 47.96586,26.22644 50.31581,28.10788 9.30553,4.41702 17.78134,12.84672 7.49753,22.13752 -8.88289,1.84721 -40.23396,-21.32762 -69.7926,-33.14757 -23.25158,-9.29788 -40.55982,-8.39518 -50.17029,-10.43288 -18.73785,-1.73247 -92.87864,-3.81212 -103.23644,-2.70734 z M 180.09036,271.36214 c -12.21744,-10.12962 -15.24133,-12.25756 -20.0941,-26.51335 -3.30129,-6.84224 -8.80919,-23.65646 -8.47365,-34.34879 0.57884,-17.15531 3.03111,-29.3563 8.54205,-42.5 3.84272,-9.16496 0.9059,-30.96963 -4.36145,-32.38195 -22.18994,4.15986 -54.28006,26.97161 -68.405326,23.87804 -7.79358,2.20065 -11.177596,1.69197 -16.026871,-1.73986 -0.857435,-0.67412 -0.933016,-1.51927 -0.25,-2.79549 C 71.559456,153.95465 72,150.82955 72,148.01608 c 2.217194,-7.9133 3.327558,-21.52193 6.551834,-28.11632 0.765027,-1.4794 1.704131,-4.64955 2.086897,-7.04479 1.274597,-4.57604 3.055777,-8.43609 13.302162,-21.009152 14.361647,-16.194148 13.919657,-25.519247 35.700917,-34.922475 37.04053,9.519301 102.88725,40.494616 125.74457,63.094797 13.10097,10.36114 29.42891,21.80677 40.61362,34.76965 10.34273,16.90298 12.72894,36.69588 16.15626,39.53898 2.51321,1.58529 4.84374,0.0646 4.84374,-3.16053 5.91698,-12.61498 6.34674,-15.45435 10,-29.27714 2.42377,-16.62756 4.30358,-23.57292 5.0715,-27.17898 2.2707,-8.47594 3.48728,-11.03816 6.2042,-13.06664 18.92634,-1.72629 26.18185,8.51615 33.23737,23.66809 1.46088,22.00331 -8.48465,60.28153 -11.16959,94.37623 -4.87329,14.16304 -33.05455,22.72886 -40.27985,18.11701 -21.04506,-12.11268 -32.28019,-11.697 -48.20417,3.17225 -7.72486,5.786 -19.32453,20.22839 -38.50051,24.3295 -19.00928,3.10482 -38.21047,-2.64988 -53.26859,-13.94442 z m 329.52589,-14.29136 c -18.39293,-18.68498 -13.823,-32.63067 -19.70208,-48.43795 -2.57628,-0.51525 -4.19797,-0.0175 -8.09911,2.48584 -23.7107,14.53029 -33.03846,18.65597 -46.22415,24.38133 -4.32659,4.32659 -8.23143,3.30442 -12.70633,-3.32613 -2.56596,-3.80203 -3.18717,-5.84405 -3.54173,-11.6423 -4.70253,-23.20869 -9.31247,-49.2927 -5.70976,-71.29494 0.85312,-6.08265 7.90997,-8.10234 16.90652,-5.65722 2.82124,1.47347 3.79671,2.91271 5.44166,5.42059 3.15525,4.7639 4.40786,11.32008 4.48987,23.5 0.0697,10.35087 0.38413,12.57407 2.28806,16.17729 13.69477,11.20829 39.90003,-13.06129 56.06648,-22.75325 43.6949,-38.51667 52.2515,-40.31545 94.80254,-78.547259 3.86747,-5.616959 9.65214,-10.403066 14.37178,-11.890887 7.43751,-4.239545 8.30306,-3.70596 18.2162,-4.471176 2.70191,-1.643131 3.33531,-1.682227 6.41394,-0.395896 1.87878,0.785004 5.19028,3.201598 7.35889,5.370208 2.16861,2.16861 5.77072,5.096761 8.00468,6.507002 2.23397,1.410241 5.43869,4.801868 7.1216,7.536949 1.70444,2.770064 4.08308,5.069356 5.26336,5.525923 7.28008,9.786986 7.44733,7.304116 15.52383,18.506456 3.19058,1.7932 4.29665,3.22212 5.67464,7.33099 1.75737,5.24009 2.92094,21.17779 1.60549,21.99078 -0.40435,0.2499 -0.66163,6.77706 -0.57172,14.5048 0.127,10.91556 -0.14603,14.30729 -1.22372,15.20169 -0.76295,0.6332 -1.38719,1.77117 -1.38719,2.52882 0,2.46689 -1.40828,1.49797 -9.85532,-6.78065 -4.5783,-4.48702 -11.06753,-9.99952 -14.42052,-12.25 -7.13107,-4.54622 -28.13409,-18.4305 -35.14918,-18.59179 -4.23732,0 -19.26217,7.30161 -23.26744,11.30724 -1.75585,1.75602 -4.11835,4.05899 -5.25,5.11773 -3.1238,2.92252 -2.63217,7.08249 1.31768,11.14951 4.30937,8.34017 6.12766,11.88717 8.04724,16.36117 6.28773,10.97124 5.3065,10.92141 6.52459,19.07801 1.39194,9.32086 0.58191,26.06276 -1.45124,29.99444 -3.83753,24.61721 -25.53725,40.2208 -34.63235,40.9919 -34.16217,7.06541 -54.11547,0.31521 -62.24721,-14.92922 z M 382.54812,114.40526 c -2.5992,-2.5992 -4.3082,-6.6115 -5.07654,-11.91843 -0.3971,-2.742759 -1.32253,-6.11183 -2.05651,-7.48683 -0.73398,-1.375 -2.30805,-4.8625 -3.49793,-7.75 -1.18989,-2.8875 -2.56463,-5.25 -3.05498,-5.25 -1.65509,0 -4.85466,-6.475233 -4.85842,-9.832387 -0.004,-3.279055 -2.89846,-10.873236 -9.4029,-24.667613 -5.54828,-11.766595 -6.00459,-14.110983 -4.63057,-23.790545 0.95097,-6.699336 1.71644,-9.005954 3.565,-10.742587 3.11503,-2.926425 6.29496,-2.050549 9.24604,2.546726 2.54994,3.972368 7.62373,7.476994 10.83295,7.482668 1.20242,0.0021 4.35135,-2.19834 7.30132,-5.102152 l 5.18707,-5.10589 5.66201,0.85589 c 4.88408,0.738296 5.97618,1.322737 7.94867,4.253773 C 400.971,19.766719 402,22.579219 402,24.147883 402,25.716547 402.41968,27 402.93261,27 c 0.51294,0 1.20406,0.855264 1.53584,1.900586 1.51538,4.774538 8.26012,3.115812 16.40888,-4.035415 6.33462,-5.559164 14.17664,-7.501365 16.06225,-3.978072 0.79392,1.483458 0.37755,2.820302 -1.94662,6.25 -1.62611,2.399596 -2.96475,4.846745 -2.97476,5.43811 -0.01,0.591365 -2.0432,3.683008 -4.5182,6.87032 -2.475,3.187311 -4.5,6.662395 -4.5,7.72241 0,1.060014 -2.27885,4.20615 -5.06411,6.991412 -3.07637,3.076367 -4.84659,5.630971 -4.50994,6.508278 0.5865,1.528383 -1.15284,5.858904 -4.35078,10.832371 -1.06094,1.65 -1.96188,4.232673 -2.00208,5.739273 -0.0402,1.506601 -0.97286,5.106601 -2.07259,8 -1.09972,2.8934 -1.99972,5.942391 -2,6.775536 -8.6e-4,2.59247 -4.07215,9.339831 -7.61482,12.620061 -1.86212,1.72418 -3.38568,4.11626 -3.38568,5.31574 0,5.55671 -5.67515,8.23139 -9.45188,4.45465 z"
         style="fill:#000000;stroke:#000000" />
      <path
         style="fill:#000000;stroke:#000000"
         d="m 145.90242,594.85493 c 0.89766,-1.45245 19.64137,-45.83245 27.54889,-88.94205 5.05711,-27.57002 12.75668,-54.38744 12.82472,-61.57301 4.97439,-17.34352 6.96215,-22.81974 10.98275,-36.29509 0.87925,-3.02449 3.74172,-7.45091 5.52862,-10.14865 4.73361,-5.6001 10.08527,-15.48299 7.78749,-21.76927 -5.46248,-0.78341 -5.26305,-0.75165 -13.2823,8.0977 -3.26743,2.96075 -6.14926,7.6163 -8.47615,10.69011 -1.88774,2.475 -4.46503,6.43986 -5.62326,8.91486 -0.90698,7.49743 -5.51287,12.52025 -6.51473,16.70613 -3.56551,13.60295 -14.13419,52.42184 -17.2286,63.17267 -4.48215,15.57224 -24.29131,88.62284 -25.88537,96.46846 -1.4498,14.4414 9.16994,18.72394 12.33794,14.67814 z"
         id="path3013"
         inkscape:connector-curvature="0"
         sodipodi:nodetypes="csssssscssscc" />
      <path
         sodipodi:nodetypes="cccccc"
         inkscape:connector-curvature="0"
         id="path3019"
         d="m 564.25,328.96884 c 6.10823,-15.05959 33.58223,-22.71372 54.89259,-37.94802 18.06177,-13.72845 26.24472,-35.3934 38.85741,-53.60682 9.26346,-27.72684 31.26233,-18.57228 24.63196,6.28034 -3.8532,32.15726 -30.59143,54.85947 -57.80219,68.48708 -18.26389,10.5156 -39.61571,17.54471 -60.57977,16.78742 z"
         style="fill:#000000;stroke:#000000" />
      <path
         style="fill:#000000;stroke:#000000"
         d="m 201.8829,328.96891 c -6.10823,-15.05959 -33.58223,-22.71372 -54.89259,-37.94802 -18.06177,-13.72845 -26.24472,-35.3934 -38.85741,-53.60682 -9.26346,-27.72684 -31.262325,-18.57228 -24.631955,6.28034 3.8532,32.15726 30.591425,54.85947 57.802185,68.48708 18.26389,10.5156 39.61571,17.54471 60.57977,16.78742 z"
         id="path3022"
         inkscape:connector-curvature="0"
         sodipodi:nodetypes="cccccc" />
      <path
         sodipodi:nodetypes="csssssscssscc"
         inkscape:connector-curvature="0"
         id="path3036"
         d="m 610.37022,594.855 c -0.89766,-1.45245 -19.64137,-45.83245 -27.54889,-88.94205 -5.05711,-27.57002 -12.75668,-54.38744 -12.82472,-61.57301 -4.97439,-17.34352 -6.96215,-22.81974 -10.98275,-36.29509 -0.87925,-3.02449 -3.74172,-7.45091 -5.52862,-10.14865 -4.73361,-5.6001 -10.08527,-15.48299 -7.78749,-21.76927 5.46248,-0.78341 5.26305,-0.75165 13.2823,8.0977 3.26743,2.96075 6.14926,7.6163 8.47615,10.69011 1.88774,2.475 4.46503,6.43986 5.62326,8.91486 0.90698,7.49743 5.51287,12.52025 6.51473,16.70613 3.56551,13.60295 14.13419,52.42184 17.2286,63.17267 4.48215,15.57224 24.29131,88.62284 25.88537,96.46846 1.4498,14.4414 -9.16994,18.72394 -12.33794,14.67814 z"
         style="fill:#000000;stroke:#000000" />
    </g>
  </g>
  <path
     sodipodi:type="arc"
     style="fill:#ff0000;fill-opacity:1;stroke:#ff0000;stroke-opacity:1"
     id="path3024"
     sodipodi:cx="148.47328"
     sodipodi:cy="268.06577"
     sodipodi:rx="46.993835"
     sodipodi:ry="51.080257"
     d="m 195.46712,268.06577 a 46.993835,51.080257 0 1 1 -93.98767,0 46.993835,51.080257 0 1 1 93.98767,0 z"
     transform="matrix(3.0537623,-0.29223963,0.29223963,3.0537623,-56.975876,-71.364087)" />
</svg>
