<?xml version="1.0" encoding="UTF-8" standalone="no"?>
<!-- Created with Inkscape (http://www.inkscape.org/) -->

<svg
   xmlns:dc="http://purl.org/dc/elements/1.1/"
   xmlns:cc="http://creativecommons.org/ns#"
   xmlns:rdf="http://www.w3.org/1999/02/22-rdf-syntax-ns#"
   xmlns:svg="http://www.w3.org/2000/svg"
   xmlns="http://www.w3.org/2000/svg"
   xmlns:sodipodi="http://sodipodi.sourceforge.net/DTD/sodipodi-0.dtd"
   xmlns:inkscape="http://www.inkscape.org/namespaces/inkscape"
   id="svg2985"
   version="1.1"
   inkscape:version="0.48.3.1 r9886"
   width="1920"
   height="1920"
   sodipodi:docname="Ann (Monster Fighters) Torso Back.png">
  <metadata
     id="metadata2991">
    <rdf:RDF>
      <cc:Work
         rdf:about="">
        <dc:format>image/svg+xml</dc:format>
        <dc:type
           rdf:resource="http://purl.org/dc/dcmitype/StillImage" />
        <dc:title></dc:title>
      </cc:Work>
    </rdf:RDF>
  </metadata>
  <defs
     id="defs2989" />
  <sodipodi:namedview
     pagecolor="#ffffff"
     bordercolor="#666666"
     borderopacity="1"
     objecttolerance="10"
     gridtolerance="10"
     guidetolerance="10"
     inkscape:pageopacity="0"
     inkscape:pageshadow="2"
     inkscape:window-width="1920"
     inkscape:window-height="1005"
     id="namedview2987"
     showgrid="false"
     inkscape:zoom="0.2012994"
     inkscape:cx="-2356.1066"
     inkscape:cy="216.43914"
     inkscape:window-x="-9"
     inkscape:window-y="-9"
     inkscape:window-maximized="1"
     inkscape:current-layer="svg2985" />
  <g
     id="g3005"
     transform="matrix(2.791363,0,0,2.791363,-179.59013,-223.12934)">
    <path
       style="fill:#6a7587"
       d="m 267.78474,698.85357 c -1.80661,-0.35554 -45.26822,-0.84259 -96.58136,-1.08234 -81.29284,-0.37982 -93.490039,-0.62932 -94.799905,-1.93918 -1.26909,-1.26909 -1.516281,-6.31936 -1.586721,-32.41767 -0.05066,-18.76803 0.341926,-32.87889 0.999181,-35.91438 0.595441,-2.75 1.567166,-7.025 2.159389,-9.5 0.592223,-2.475 1.486973,-6.975 1.988333,-10 0.50136,-3.025 1.378733,-7.975 1.949717,-11 0.570984,-3.025 1.74932,-9.55 2.618525,-14.5 2.090653,-11.90597 4.436473,-24.9336 5.491988,-30.5 0.469315,-2.475 1.35787,-8.325 1.974566,-13 1.413104,-10.71235 5.134748,-31.62464 8.987207,-50.5 0.56127,-2.75 2.63016,-12.875 4.59752,-22.5 5.32278,-26.04086 9.03805,-46.85609 10.97701,-61.5 0.90984,-6.87157 2.5972,-15.69623 3.82419,-20 0.78402,-2.75 1.71609,-7.10583 2.07127,-9.67962 0.35518,-2.57379 1.53759,-5.81336 2.62756,-7.19904 1.74229,-2.21496 2.55184,-2.46174 6.69928,-2.04214 2.59463,0.2625 11.69251,1.12679 20.21751,1.92063 8.525,0.79384 19.325,1.88334 24,2.42111 4.675,0.53777 13.89136,1.11305 20.4808,1.27841 14.68929,0.36862 15.12233,-0.21426 6.94697,-9.35067 -13.34232,-14.91076 -21.87553,-27.48497 -25.78678,-37.9984 C 173.92929,313.87325 173.8081,304 177.39733,304 c 2.00742,0 8.27371,7.49144 11.2922,13.5 5.74544,11.43679 18.83648,28.4148 27.6363,35.84202 12.9888,10.96281 29.50052,20.26685 31.79784,17.91748 0.40847,-0.41772 0.88525,-2.51393 1.0595,-4.65822 0.46942,-5.77639 2.47085,-6.442 8.04954,-2.67699 9.76835,6.59258 29.99577,13.09417 34.02653,10.93697 1.091,-0.58389 1.62942,-1.66893 1.32598,-2.67216 -0.281,-0.92901 -0.93128,-3.60825 -1.44508,-5.95388 -0.5138,-2.34563 -2.87151,-8.98214 -5.23935,-14.74781 -7.56836,-18.42884 -3.34921,-17.09068 25.09921,7.96056 4.675,4.11674 13.13871,10.61705 18.80823,14.44514 12.47236,8.4214 10.83076,8.15578 52.03231,8.41926 l 29.34054,0.18763 5.81714,-6.17839 c 7.71462,-8.19371 15.7083,-19.10746 21.54528,-29.41572 2.61788,-4.62324 5.78177,-9.75589 7.03086,-11.40589 3.70261,-4.89096 17.26591,-31.98003 18.53432,-37.01731 1.21622,-4.83008 3.44783,-6.79331 4.97693,-4.37841 1.574,2.4858 0.9869,16.29798 -1.01954,23.98576 -2.19571,8.41297 -6.29733,20.60406 -7.89982,23.48028 C 456.78491,347.63934 451,363.77047 451,367.13027 c 0,2.46487 2.22887,2.3793 4.53984,-0.17429 3.31611,-3.66426 5.61274,-2.15717 8.96045,5.88001 1.6806,4.0348 3.87734,7.79584 4.88164,8.35787 2.99379,1.67541 41.998,1.46997 58.98661,-0.31069 4.87769,-0.51126 11.17769,-1.91007 14,-3.10847 10.01308,-4.25175 37.52544,-26.63242 52.88987,-43.0247 6.05728,-6.4625 11.58638,-11.75 12.2869,-11.75 1.95455,0 -0.58034,8.25018 -4.80778,15.64762 -4.31837,7.55656 -9.73753,21.387 -9.73753,24.85151 0,5.1396 4.60218,4.2778 16,-2.99613 7.45416,-4.75714 12.70699,-9.80552 24.71664,-23.75462 4.69003,-5.44743 8.9094,-9.52234 9.37638,-9.05536 1.34562,1.34562 -1.60749,9.64405 -7.66064,21.52687 -7.03346,13.80726 -8.4018,17.63943 -7.33061,20.53011 0.76752,2.07119 1.45703,2.25 8.67633,2.25 4.3134,0 15.0154,-0.8947 23.78223,-1.98822 25.268,-3.15178 25.61009,-3.05758 27.56763,7.59123 1.40604,7.64865 5.46342,25.85887 7.88674,35.39699 1.04803,4.125 2.1708,11.325 2.49506,16 0.6271,9.04118 2.59673,20.66719 5.16718,30.5 1.41135,5.39885 4.10905,19.47763 6.32329,33 0.4503,2.75 1.33862,6.8 1.97404,9 0.63541,2.2 1.52146,7.82847 1.96898,12.50771 0.44753,4.67924 1.7578,13.00424 2.91171,18.5 3.14311,14.9697 8.47021,43.9702 11.75474,63.99229 0.81202,4.95 2.10411,11.925 2.87131,15.5 0.7672,3.575 1.70356,10.325 2.08081,15 0.37725,4.675 1.3219,10.75 2.09921,13.5 0.77732,2.75 1.83682,8.67899 2.35444,13.17552 0.51762,4.49654 1.67757,10.01608 2.57767,12.26565 1.36717,3.41689 1.43125,4.58573 0.38935,7.10109 -0.6973,1.68344 -1.29905,7.71794 -1.36484,13.68683 -0.11564,10.49386 -0.16027,10.68764 -2.61765,11.36694 -4.21104,1.16407 -463.38264,1.90539 -469.21526,0.75754 z M 384,181.50245 c -17.20188,-1.43723 -32.62296,-3.62994 -42,-5.97197 -3.025,-0.75552 -10.225,-2.34063 -16,-3.52245 -17.25093,-3.5303 -39.96565,-9.38409 -43.26477,-11.14973 -0.99343,-0.53167 -4.82775,-1.78502 -8.52073,-2.78524 -12.83833,-3.47716 -37.66818,-13.09314 -47.61344,-18.4395 C 223.90664,138.1851 220.90595,137 219.93285,137 217.09203,137 215,135.89437 215,134.39301 c 0,-2.0847 28.66872,-1.95815 31.44113,0.13879 1.06762,0.80751 2.79087,1.4682 3.82944,1.4682 1.03858,0 4.66507,1.05355 8.05887,2.34121 12.78983,4.85268 39.04854,12.31988 54.17056,15.40452 2.75,0.56095 9.275,1.93915 14.5,3.06265 9.36561,2.01385 25.21309,4.68105 34,5.72236 2.475,0.29331 7.2,0.93575 10.5,1.42765 6.03831,0.90007 36.41419,2.61007 42,2.36437 1.65,-0.0726 9.54393,-0.40335 17.54207,-0.73505 20.12854,-0.83476 47.38435,-4.4421 67.95793,-8.9943 22.47628,-4.9732 62.84784,-17.36065 71.99417,-22.0904 2.13104,-1.102 6.23909,-1.50301 15.39715,-1.50301 12.62235,0 16.2305,1.01819 10.91507,3.08014 -1.54352,0.59876 -4.15639,1.80722 -5.80639,2.68548 -17.53477,9.33332 -47.18992,21.84534 -64.5,27.21365 -7.425,2.30269 -17.00332,5.27051 -21.28517,6.59515 -8.8019,2.72297 -24.81064,5.78072 -41.53461,7.9333 -16.55942,2.1314 -60.10901,2.67169 -80.18022,0.99473 z"
       id="path3013"
       inkscape:connector-curvature="0" />
    <path
       style="fill:#88081b"
       d="m 263,693.68287 c -4.675,-2.35831 -12.05108,-6.44496 -16.39129,-9.08145 -4.34021,-2.63649 -9.74021,-5.59098 -12,-6.56552 -2.25979,-0.97455 -8.97106,-4.72601 -14.91393,-8.33658 -9.3481,-5.6794 -16.25275,-8.7296 -17.0782,-7.54448 -5.40468,7.75966 -8.4325,11.21313 -10.97348,12.51615 -1.7287,0.88649 -4.21629,2.44817 -5.52796,3.47041 -1.31167,1.02223 -3.07624,1.8586 -3.92126,1.8586 -0.84502,0 -2.24683,0.60779 -3.11514,1.35065 -2.25336,1.9278 -10.3474,4.33719 -20.54318,6.11519 C 148.22947,689.26307 146,689.35807 146,688 c 0,-0.55 0.40677,-1 0.90393,-1 0.49717,0 3.75967,-1.64828 7.25,-3.66284 3.49034,-2.01457 7.83928,-4.45672 9.66432,-5.427 1.82503,-0.97028 5.45928,-3.76684 8.07611,-6.21458 2.61683,-2.44773 5.63049,-4.72738 6.69702,-5.06589 2.45016,-0.77765 8.65351,-11.91995 8.22781,-14.77861 -0.2292,-1.53912 -2.57473,-3.31147 -8.31919,-6.28621 -4.4,-2.27852 -9.575,-5.13605 -11.5,-6.35008 -4.83803,-3.05116 -7.04928,-2.77962 -10.2738,1.26163 -3.02097,3.78615 -14.46971,13.41648 -21.07889,17.73092 -7.0313,4.59 -26.98518,13.79266 -29.90625,13.79266 -1.67698,0 2.55927,-4.93261 6.55638,-7.6341 4.95049,-3.34586 7.81665,-5.90969 21.28325,-19.03825 5.54438,-5.40521 10.85043,-11.01446 11.79121,-12.46501 1.52386,-2.34958 1.5461,-2.80178 0.20377,-4.14412 -0.82871,-0.82871 -3.65976,-2.4699 -6.29121,-3.6471 -2.63145,-1.17719 -6.92219,-3.24984 -9.53498,-4.60589 C 127.13669,619.10949 124.63453,618 124.18912,618 c -0.44542,0 -3.48268,3.64803 -6.74948,8.10674 -3.2668,4.45871 -7.73964,9.98901 -9.93964,12.28955 -4.93255,5.15797 -27.245778,21.84012 -29.416088,21.9925 -2.299476,0.16145 -2.529698,-4.43905 -0.640084,-12.7907 0.883295,-3.90395 2.271816,-11.37309 3.085604,-16.59809 0.813788,-5.225 1.910601,-11.75 2.437361,-14.5 0.526761,-2.75 1.462642,-8.36293 2.079737,-12.47318 0.617095,-4.11025 1.508256,-8.19493 1.980358,-9.07706 0.472102,-0.88213 1.172387,-5.0692 1.556189,-9.3046 0.383802,-4.2354 1.08462,-7.93979 1.557372,-8.23196 C 90.613202,577.12102 91,575.36008 91,573.5 c 0,-1.86008 0.486462,-3.68262 1.081027,-4.05008 0.594565,-0.36746 0.824379,-1.69068 0.510698,-2.94048 -0.313681,-1.2498 -0.16516,-3.56321 0.330045,-5.14091 0.495206,-1.57769 1.658807,-8.26853 2.585781,-14.86853 0.926974,-6.6 2.145068,-12.96959 2.706876,-14.15465 0.561808,-1.18505 0.739931,-2.61018 0.395829,-3.16695 -0.613228,-0.99223 0.457539,-9.25221 2.356524,-18.1784 2.44979,-11.5153 2.90214,-13.76055 3.52569,-17.5 0.36684,-2.2 1.14091,-4.98214 1.72014,-6.18254 0.57923,-1.2004 0.76058,-2.94493 0.40301,-3.87675 -0.35757,-0.93181 -0.24065,-2.19967 0.25982,-2.81746 0.50047,-0.61779 1.15957,-3.14825 1.46467,-5.62325 0.3051,-2.475 1.28051,-8.55 2.16756,-13.5 0.88706,-4.95 2.28612,-14.175 3.10903,-20.5 0.8229,-6.325 1.9242,-12.89137 2.44732,-14.59194 0.52312,-1.70057 1.41422,-6.42557 1.98022,-10.5 2.82647,-20.34664 3.87053,-26.74146 4.96463,-30.40806 0.65647,-2.2 1.32501,-5.42428 1.48564,-7.16506 0.16064,-1.74078 1.12759,-4.60513 2.14878,-6.36521 l 1.85671,-3.20015 9.5,0.72335 c 10.72324,0.81649 10.71539,0.81569 28.5,2.93229 17.76952,2.1148 54.10807,4.66241 56.02289,3.92762 2.22336,-0.85318 1.81753,-1.41052 -6.33782,-8.70409 -4.02321,-3.59808 -9.83923,-9.37848 -12.92449,-12.84535 -3.08526,-3.46687 -6.13039,-6.7534 -6.76695,-7.3034 -2.53793,-2.19282 -10.40022,-14.37137 -13.23449,-20.5 -3.47211,-7.50782 -5.22808,-16.48579 -3.08679,-15.78218 0.73021,0.23994 3.35265,4.0163 5.82765,8.39191 10.99337,19.43545 21.64554,31.54542 38.70483,44.00173 11.56115,8.4417 20.65757,13.06528 27.56813,14.01247 4.49693,0.61638 4.72686,0.53177 4.7233,-1.73801 -0.002,-1.31225 -0.9263,-3.89917 -2.05389,-5.7487 -1.12758,-1.84953 -1.85947,-3.55346 -1.62642,-3.78651 0.23306,-0.23305 3.0698,0.96336 6.30389,2.6587 14.43011,7.56436 26.08122,11.3316 33.42655,10.80804 4.05199,-0.28882 4.48276,-0.57181 4.77684,-3.138 0.17778,-1.55131 -0.19506,-4.25131 -0.82852,-6 -0.63347,-1.7487 -1.78112,-5.52437 -2.55035,-8.39037 -0.76922,-2.86601 -2.30889,-6.90935 -3.42147,-8.98519 C 288.92024,349.3808 288.37918,346 289.85398,346 c 0.83848,0 4.69644,3.05152 8.64602,6.83872 1.1,1.05477 4.475,3.85304 7.5,6.21838 3.025,2.36534 7.56325,6.13263 10.085,8.37176 5.57227,4.94777 21.65061,16.05949 24.415,16.87317 1.1,0.32378 15.48936,0.87468 31.97636,1.22421 16.48699,0.34954 30.24058,0.79882 30.56353,0.99841 0.32295,0.1996 2.61385,0.0507 5.09088,-0.33088 3.98956,-0.61457 5.2807,-1.54998 11.30978,-8.19377 8.92051,-9.83004 15.98031,-19.42574 22.4396,-30.5 2.88719,-4.95 6.23278,-10.41286 7.43465,-12.13969 3.35993,-4.82753 5.92554,-9.45877 7.7295,-13.95272 0.90352,-2.25083 3.15713,-6.29346 5.00802,-8.98363 3.22692,-4.69017 3.39061,-4.78913 3.98254,-2.40759 0.59935,2.41144 -1.03851,8.89483 -3.53259,13.98363 -0.67391,1.375 -1.51962,4.05385 -1.87937,5.95299 -0.35976,1.89915 -1.94329,6.17415 -3.51898,9.5 -4.21983,8.90696 -9.76257,22.43993 -11.18012,27.29701 -0.9719,3.33009 -0.98098,5.1158 -0.042,8.25 1.5736,5.2522 3.40688,5.12116 8.67809,-0.62026 2.33302,-2.54115 4.69124,-4.34254 5.24048,-4.00309 0.54924,0.33945 1.53747,2.86335 2.19606,5.60867 0.65859,2.74532 2.08647,6.12171 3.17306,7.50308 1.88002,2.39006 2.46812,2.51095 12.15304,2.49827 18.21199,-0.0239 55.04088,-1.95964 60.67742,-3.18929 3.07956,-0.67183 7.53292,-2.65159 10.11943,-4.49862 2.54069,-1.81432 5.05844,-3.29876 5.59501,-3.29876 0.53657,0 1.83283,-0.95472 2.88057,-2.12159 1.0478,-1.16687 4.38004,-3.81216 7.40504,-5.87841 3.025,-2.06625 6.4,-4.77742 7.5,-6.02481 1.1,-1.24739 3.8,-3.57629 6,-5.17533 2.2,-1.59904 7.9375,-6.75554 12.75,-11.45887 4.8125,-4.70334 8.75,-8.06965 8.75,-7.48068 0,0.58896 -1.5487,3.89883 -3.44155,7.35527 -5.58753,10.20306 -9.69849,21.37826 -8.95461,24.34212 2.39905,9.55857 22.13973,0.26336 39.28826,-18.49947 4.59602,-5.02868 8.54147,-8.958 8.76765,-8.73181 0.22619,0.22619 -2.33656,5.50873 -5.695,11.73898 -5.14162,9.53823 -6.13458,12.19024 -6.28551,16.78749 -0.17237,5.2506 -0.0666,5.4907 2.76054,6.2677 1.61689,0.44438 5.89189,0.37612 9.5,-0.15169 18.77663,-2.74669 46.29067,-5.02253 47.5985,-3.93713 1.77177,1.47044 3.14092,6.10391 3.86426,13.0774 0.32001,3.08504 1.25144,7.21177 2.06985,9.17052 0.81842,1.95874 1.93383,7.4847 2.4787,12.27991 0.5559,4.89225 1.62585,9.42555 2.43798,10.32948 0.99207,1.10422 1.67043,5.38542 2.15668,13.61092 0.39015,6.6 1.49607,16.5 2.4576,22 0.96153,5.5 2.95921,17.2 4.43929,26 1.48007,8.8 3.52323,19.15 4.54035,23 1.01711,3.85 2.09824,10.71631 2.4025,15.25847 0.30427,4.54217 1.08935,9.26026 1.74463,10.48467 0.65528,1.2244 1.33054,4.03308 1.50058,6.24152 0.45186,5.86889 3.10902,22.38109 4.34733,27.01534 0.58786,2.2 1.49422,7.375 2.01412,11.5 1.30565,10.3592 2.99153,18.26608 4.2083,19.73727 0.56281,0.68049 0.78807,1.85027 0.50056,2.59951 -0.49768,1.29692 0.0418,4.96376 2.37783,16.16322 0.57362,2.75 1.48194,9.05 2.01849,14 0.53656,4.95 1.18077,10.575 1.4316,12.5 0.25082,1.925 0.66489,5.18057 0.92014,7.23461 0.25525,2.05403 0.91779,4.58236 1.47232,5.61851 0.55454,1.03616 0.80887,2.08329 0.56519,2.32697 -0.4727,0.4727 1.03497,10.73708 2.04413,13.91667 0.95716,3.01575 -1.27406,2.31127 -8.95739,-2.82816 -14.12417,-9.44776 -28.52914,-24.23656 -34.35325,-35.2686 -3.69906,-7.00677 -4.2039,-7.31895 -8.78294,-5.43121 -9.5345,3.93067 -18.56832,8.60951 -19.05082,9.8669 -1.17664,3.06625 13.74128,19.90052 26.19881,29.56431 12.46336,9.6683 17.04448,13.70373 16.34778,14.40043 -0.67,0.67 -15.17476,-4.36684 -19.4329,-6.74815 -4.41815,-2.4708 -5.54746,-3.07711 -10.5,-5.63727 -7.24719,-3.74636 -15.89259,-10.87401 -20.70307,-17.06854 -2.45978,-3.16749 -5.32692,-5.98255 -6.37141,-6.2557 C 644.85192,639.6255 623,652.31074 623,655.74078 c 0,0.97109 1.53046,3.91824 3.40102,6.54922 5.20088,7.31516 13.21106,13.80577 26.91782,21.81142 13.38118,7.81549 10.68679,10.36661 -6.29868,5.96377 -11.75012,-3.04578 -27.79168,-11.23249 -31.52016,-16.08612 -1.65,-2.14793 -4.6926,-5.11165 -6.76134,-6.58605 l -3.76134,-2.68074 -6.47449,3.39386 c -8.64484,4.53153 -23.00681,12.16379 -35.55345,18.89386 -5.6394,3.025 -12.54754,6.72996 -15.35142,8.23325 l -5.09796,2.73324 -135.5,0.002 -135.5,0.002 -8.5,-4.28782 z m 113.31574,-18.79991 c 2.54887,-1.3035 5.63004,-4.86972 5.66202,-6.55337 0.0134,-0.70673 -2.5589,-1.44682 -6.49309,-1.86813 -11.40769,-1.22166 -13.58865,-4.79866 -7.97212,-13.07509 4.01511,-5.9166 3.13752,-7.80813 -2.31457,-4.98875 -3.88283,2.00789 -5.82611,4.51206 -7.25763,9.35238 -3.3455,11.312 8.37997,22.24467 18.37539,17.13296 z m 70.46654,-1.8402 c 3.43468,-2.48808 4.19143,-3.68461 4.76987,-7.54196 0.84239,-5.61746 -1.50921,-12.53527 -5.26561,-15.49005 C 443.76122,648.02433 437,647.18833 437,648.8625 c 0,0.47437 1.35,2.56124 3,4.6375 5.93795,7.47194 3.30093,12.17362 -7.38761,13.17173 -3.67225,0.34292 -6.92092,1.01847 -7.21927,1.50121 -0.29836,0.48275 1.02114,2.44132 2.93221,4.35239 3.11615,3.11615 4.037,3.47467 8.92463,3.47467 4.45103,0 6.19822,-0.54204 9.53232,-2.95724 z m -72.35611,-63.71095 c 0.41906,-1.09205 -0.40741,-2.74898 -2.39302,-4.7976 C 370.36492,602.81302 369,600.66527 369,599.76141 c 0,-0.90386 -0.45,-1.92149 -1,-2.26141 -1.94465,-1.20186 -0.94711,-3.39499 3.62281,-7.96491 2.54254,-2.54255 4.34254,-4.90307 4,-5.24562 -1.27471,-1.27471 -6.52274,-0.55676 -10.87108,1.4872 -4.92975,2.31725 -5.71638,3.89667 -5.73808,11.52108 -0.0112,3.94944 0.47259,5.25554 2.73635,7.38688 6.22408,5.85998 11.47243,7.78406 12.67617,4.64718 z M 447.0148,606.25 c 3.84412,-4.36333 4.1449,-5.10527 3.69495,-9.11424 -0.59101,-5.26573 -3.13298,-8.95765 -8.00305,-11.62348 -5.32434,-2.9145 -6.6588,-0.98536 -2.73437,3.9529 1.66522,2.09541 3.02767,4.63229 3.02767,5.63753 0,1.8245 -4.93735,8.23048 -8.25,10.70399 -0.9625,0.71869 -1.75,2.18119 -1.75,3.25 0,1.66081 0.71447,1.9433 4.91501,1.9433 4.60952,0 5.17512,-0.29524 9.09979,-4.75 z M 620,590.44098 c 0,-1.65007 -1.58044,-1.92885 -2.5,-0.44098 -0.81551,1.31952 0.38021,3.19207 1.5691,2.45729 0.51199,-0.31643 0.9309,-1.22377 0.9309,-2.01631 z M 448.64642,545.4439 c 6.05028,-4.59128 7.45567,-15.35638 2.6924,-20.62342 -3.724,-4.11785 -12.59152,-7.23444 -14.67002,-5.15595 -0.3655,0.3655 1.3595,2.65999 3.83333,5.09887 5.8392,5.75672 6.07591,9.47421 0.99787,15.6713 -1.925,2.3492 -3.5,5.28752 -3.5,6.52958 0,2.06657 0.31838,2.19925 3.75,1.5628 2.0625,-0.38253 5.16589,-1.76996 6.89642,-3.08318 z m -77.58068,1.52092 C 372.12958,546.39547 373,545.52481 373,545.03003 c 0,-0.49478 -2.45476,-3.35435 -5.45501,-6.35461 -5.02986,-5.02985 -5.41012,-5.73166 -4.879,-9.00458 0.31681,-1.95226 1.64656,-4.55529 2.95501,-5.78452 1.30845,-1.22922 2.379,-3.06508 2.379,-4.07969 0,-1.50044 -0.51324,-1.72566 -2.75,-1.20671 -10.46528,2.42801 -14.70426,14.33154 -8.26778,23.21684 3.72593,5.14349 9.88519,7.39493 14.08352,5.14806 z m 83.07438,-66.08205 c 0.90206,-0.45953 3.03173,-2.93649 4.73261,-5.50434 3.17652,-4.79567 3.29214,-6.36743 0.92833,-12.61959 -2.35558,-6.23039 -12.92595,-8.80921 -19.55106,-4.7698 -5.121,3.12234 -4.2886,4.97435 2.15952,4.80469 11.08079,-0.29154 13.85062,5.35615 6.09048,12.4185 -4.5588,4.14887 -5.51927,6.24274 -3.25,7.08512 1.50393,0.55828 6.61334,-0.25472 8.89012,-1.41458 z m -88.44646,-0.52684 c 0.42608,-1.11035 -0.31171,-2.32774 -2.27266,-3.75 -4.79193,-3.47555 -6.421,-5.48362 -6.421,-7.9148 0,-4.30222 2.02211,-5.61237 9.75,-6.31714 3.9875,-0.36365 7.25,-0.98537 7.25,-1.38159 0,-0.39622 -1.71169,-1.9066 -3.80375,-3.3564 -6.20836,-4.3024 -13.47194,-3.27801 -19.04217,2.68554 -5.2913,5.66492 -1.51457,19.89125 5.56412,20.95914 6.16246,0.92966 8.35036,0.70424 8.97546,-0.92475 z M 663,692 c 0,-0.55 0.675,-1 1.5,-1 0.825,0 1.5,0.45 1.5,1 0,0.55 -0.675,1 -1.5,1 -0.825,0 -1.5,-0.45 -1.5,-1 z M 412.5,181.33753 c -15.38408,-0.56877 -46.59299,-3.31845 -55.5,-4.88986 -8.01686,-1.41436 -14.48683,-2.77839 -28.5,-6.00851 -3.3,-0.76067 -8.475,-1.83819 -11.5,-2.39448 -6.95807,-1.27958 -26.08366,-6.35896 -32,-8.49857 -2.475,-0.89507 -7.425,-2.466 -11,-3.49095 -16.84153,-4.82849 -42.46943,-15.21801 -45.97727,-18.63913 L 225.54545,135 l 8.47728,0.0354 c 5.45635,0.0228 9.36816,0.54471 10.97727,1.46456 1.375,0.78602 3.32325,1.44508 4.32944,1.46456 1.0062,0.0195 4.6062,1.08899 8,2.37665 7.49934,2.84538 24.68678,8.27314 30.17056,9.52782 2.2,0.50336 6.7,1.64988 10,2.54783 9.95935,2.71002 32.51167,7.31983 48.5,9.91367 19.60089,3.17991 25.79064,3.95095 36.5,4.5467 13.56951,0.75485 51.34962,0.62587 61.5,-0.20996 10.56205,-0.86973 31.65085,-3.50674 37,-4.62659 2.475,-0.51815 9.45,-1.8849 15.5,-3.03722 18.57906,-3.53868 52.66656,-13.63313 71.5,-21.17354 7.14002,-2.85868 24.17682,-3.95282 22.07274,-1.41757 -3.06943,3.69845 -46.02639,22.66502 -62.07274,27.40667 -38.90513,11.49637 -53.72259,14.43166 -81.5,16.14491 -9.9,0.61061 -19.575,1.24433 -21.5,1.40827 -1.925,0.16394 -7.55,0.14834 -12.5,-0.0347 z"
       id="path3011"
       inkscape:connector-curvature="0" />
    <path
       style="fill:#660713"
       d="m 263,693.68287 c -4.675,-2.35831 -12.05108,-6.44496 -16.39129,-9.08145 -4.34021,-2.63649 -9.74021,-5.59098 -12,-6.56552 -2.25979,-0.97455 -8.97106,-4.72601 -14.91393,-8.33658 -9.3481,-5.6794 -16.25275,-8.7296 -17.0782,-7.54448 -5.40468,7.75966 -8.4325,11.21313 -10.97348,12.51615 -1.7287,0.88649 -4.21629,2.44817 -5.52796,3.47041 -1.31167,1.02223 -3.07624,1.8586 -3.92126,1.8586 -0.84502,0 -2.24683,0.60779 -3.11514,1.35065 -2.25336,1.9278 -10.3474,4.33719 -20.54318,6.11519 C 148.22947,689.26307 146,689.35807 146,688 c 0,-0.55 0.40677,-1 0.90393,-1 0.49717,0 3.75967,-1.64828 7.25,-3.66284 3.49034,-2.01457 7.83928,-4.45672 9.66432,-5.427 1.82503,-0.97028 5.45928,-3.76684 8.07611,-6.21458 2.61683,-2.44773 5.63049,-4.72738 6.69702,-5.06589 2.45016,-0.77765 8.65351,-11.91995 8.22781,-14.77861 -0.2292,-1.53912 -2.57473,-3.31147 -8.31919,-6.28621 -4.4,-2.27852 -9.575,-5.13605 -11.5,-6.35008 -4.83803,-3.05116 -7.04928,-2.77962 -10.2738,1.26163 -3.02097,3.78615 -14.46971,13.41648 -21.07889,17.73092 -7.0313,4.59 -26.98518,13.79266 -29.90625,13.79266 -1.67698,0 2.55927,-4.93261 6.55638,-7.6341 4.95049,-3.34586 7.81665,-5.90969 21.28325,-19.03825 5.54438,-5.40521 10.85043,-11.01446 11.79121,-12.46501 1.52386,-2.34958 1.5461,-2.80178 0.20377,-4.14412 -0.82871,-0.82871 -3.65976,-2.4699 -6.29121,-3.6471 -2.63145,-1.17719 -6.92219,-3.24984 -9.53498,-4.60589 C 127.13669,619.10949 124.63453,618 124.18912,618 c -0.44542,0 -3.48268,3.64803 -6.74948,8.10674 -3.2668,4.45871 -7.73964,9.98901 -9.93964,12.28955 -4.93255,5.15797 -27.245778,21.84012 -29.416088,21.9925 -2.299476,0.16145 -2.529698,-4.43905 -0.640084,-12.7907 0.883295,-3.90395 2.271816,-11.37309 3.085604,-16.59809 0.813788,-5.225 1.910601,-11.75 2.437361,-14.5 0.526761,-2.75 1.462642,-8.36293 2.079737,-12.47318 0.617095,-4.11025 1.508256,-8.19493 1.980358,-9.07706 0.472102,-0.88213 1.172387,-5.0692 1.556189,-9.3046 0.383802,-4.2354 1.08462,-7.93979 1.557372,-8.23196 C 90.613202,577.12102 91,575.36008 91,573.5 c 0,-1.86008 0.486462,-3.68262 1.081027,-4.05008 0.594565,-0.36746 0.824379,-1.69068 0.510698,-2.94048 -0.313681,-1.2498 -0.16516,-3.56321 0.330045,-5.14091 0.495206,-1.57769 1.658807,-8.26853 2.585781,-14.86853 0.926974,-6.6 2.145068,-12.96959 2.706876,-14.15465 0.561808,-1.18505 0.739931,-2.61018 0.395829,-3.16695 -0.613228,-0.99223 0.457539,-9.25221 2.356524,-18.1784 2.44979,-11.5153 2.90214,-13.76055 3.52569,-17.5 0.36684,-2.2 1.14091,-4.98214 1.72014,-6.18254 0.57923,-1.2004 0.76058,-2.94493 0.40301,-3.87675 -0.35757,-0.93181 -0.24065,-2.19967 0.25982,-2.81746 0.50047,-0.61779 1.15957,-3.14825 1.46467,-5.62325 0.3051,-2.475 1.27651,-8.55 2.15868,-13.5 0.88217,-4.95 2.36833,-14.175 3.30258,-20.5 0.93425,-6.325 2.14863,-11.46056 2.69863,-11.41237 1.12707,0.0988 8.36178,12.23047 8.4457,14.16237 0.0623,1.4337 2.0543,1.73629 2.0543,0.31205 0,-0.92644 -1.72971,-8.88997 -4.46615,-20.56205 -2.29685,-9.79706 -2.9118,-20.74645 -1.47913,-26.33645 1.10489,-4.31105 1.67368,-5.05923 4.23578,-5.57165 5.03653,-1.00731 13.0246,-0.6565 18.72578,0.82237 2.99868,0.77784 5.79343,1.20334 6.21055,0.94554 1.59408,-0.98519 9.50141,-1.02914 14.77317,-0.0821 3.025,0.54342 7.525,1.09196 10,1.21897 11.99051,0.61534 24.51681,1.7047 25.32165,2.20212 0.49322,0.30482 4.33511,0.73314 8.53755,0.95181 4.20244,0.21868 13.79537,1.06026 21.31763,1.87019 7.52225,0.80993 14.39049,1.19874 15.26273,0.86403 0.87225,-0.33472 2.14268,-0.17851 2.82317,0.34713 0.6805,0.52563 6.1837,1.02371 12.22934,1.10684 6.04564,0.0831 14.6686,0.64041 19.16214,1.23839 5.97759,0.79546 8.73036,0.78737 10.25793,-0.0302 1.4622,-0.78255 2.66749,-0.80718 4.02212,-0.0822 1.06384,0.56935 4.40628,1.03518 7.42764,1.03518 3.02136,0 8.78844,0.43046 12.81574,0.95658 13.68245,1.78744 75.55912,3.40389 77.32236,2.01994 0.55,-0.43168 2.1204,-0.9405 3.48978,-1.1307 2.63932,-0.36659 3.9281,-3.32794 2.20027,-5.05577 -0.57932,-0.57932 -10.7849,-1.1843 -24.34378,-1.44307 -12.84045,-0.24507 -26.49627,-0.57397 -30.34627,-0.73091 -3.85,-0.15694 -7.99917,0.1564 -9.22039,0.69632 -1.47712,0.65305 -2.64872,0.63749 -3.5,-0.0465 -0.75448,-0.60621 -4.97302,-0.86158 -10.27961,-0.62228 -4.95,0.22321 -10.46959,0.42621 -12.26576,0.4511 -1.79617,0.0249 -3.06336,0.37274 -2.81598,0.77301 0.24737,0.40026 -0.005,1.38127 -0.56037,2.18001 -0.77172,1.10946 -1.13036,1.15573 -1.51943,0.19602 -0.2801,-0.69093 -0.96574,-0.97412 -1.52364,-0.62932 -0.63229,0.39077 -0.60702,-0.13422 0.0671,-1.39381 0.85453,-1.59671 0.75339,-2.14661 -0.48202,-2.62068 C 297.75867,396.58643 284,396.92204 284,398 c 0,1.47646 -2.11202,1.21433 -3.38976,-0.42071 -0.7128,-0.91214 -3.97402,-1.62952 -9.11024,-2.004 -4.4,-0.32081 -9.8,-0.75667 -12,-0.96858 -4.39555,-0.4234 -15.36084,-1.24315 -28.5,-2.13063 -4.675,-0.31577 -11.875,-0.93212 -16,-1.36966 -4.125,-0.43754 -8.625,-0.81857 -10,-0.84673 -1.375,-0.0282 -4.28863,-0.52353 -6.47474,-1.10082 -2.83581,-0.74886 -4.16797,-0.73698 -4.64908,0.0415 -0.40487,0.6551 -1.41394,0.77073 -2.52526,0.28936 -1.97826,-0.85689 -3.94208,-1.11123 -14.71995,-1.90639 -3.77797,-0.27873 -8.27797,-0.96098 -10,-1.51613 -1.72203,-0.55514 -7.40597,-1.49632 -12.63097,-2.09151 -27.25468,-3.10462 -31.44384,-4.9572 -27.31359,-12.07893 l 1.81359,-3.12716 9.5,0.72335 c 10.72324,0.81649 10.71539,0.81569 28.5,2.93229 17.76952,2.1148 54.10807,4.66241 56.02289,3.92762 2.22336,-0.85318 1.81753,-1.41052 -6.33782,-8.70409 -4.02321,-3.59808 -9.83923,-9.37848 -12.92449,-12.84535 -3.08526,-3.46687 -6.13039,-6.7534 -6.76695,-7.3034 -2.53793,-2.19282 -10.40022,-14.37137 -13.23449,-20.5 -3.47211,-7.50782 -5.22808,-16.48579 -3.08679,-15.78218 0.73021,0.23994 3.35265,4.0163 5.82765,8.39191 10.99337,19.43545 21.64554,31.54542 38.70483,44.00173 11.56115,8.4417 20.65757,13.06528 27.56813,14.01247 4.49693,0.61638 4.72686,0.53177 4.7233,-1.73801 -0.002,-1.31225 -0.9263,-3.89917 -2.05389,-5.7487 -1.12758,-1.84953 -1.85947,-3.55346 -1.62642,-3.78651 0.23306,-0.23305 3.0698,0.96336 6.30389,2.6587 14.43011,7.56436 26.08122,11.3316 33.42655,10.80804 4.05199,-0.28882 4.48276,-0.57181 4.77684,-3.138 0.17778,-1.55131 -0.19506,-4.25131 -0.82852,-6 -0.63347,-1.7487 -1.78112,-5.52437 -2.55035,-8.39037 -0.76922,-2.86601 -2.30889,-6.90935 -3.42147,-8.98519 C 288.92024,349.3808 288.37918,346 289.85398,346 c 0.83848,0 4.69644,3.05152 8.64602,6.83872 1.1,1.05477 4.475,3.85304 7.5,6.21838 3.025,2.36534 7.56325,6.13263 10.085,8.37176 5.57227,4.94777 21.65061,16.05949 24.415,16.87317 1.1,0.32378 15.48936,0.87468 31.97636,1.22421 16.48699,0.34954 30.24058,0.79882 30.56353,0.99841 0.32295,0.1996 2.61385,0.0507 5.09088,-0.33088 3.98956,-0.61457 5.2807,-1.54998 11.30978,-8.19377 8.92051,-9.83004 15.98031,-19.42574 22.4396,-30.5 2.88719,-4.95 6.23278,-10.41286 7.43465,-12.13969 3.35993,-4.82753 5.92554,-9.45877 7.7295,-13.95272 0.90352,-2.25083 3.15713,-6.29346 5.00802,-8.98363 3.22692,-4.69017 3.39061,-4.78913 3.98254,-2.40759 0.59935,2.41144 -1.03851,8.89483 -3.53259,13.98363 -0.67391,1.375 -1.51962,4.05385 -1.87937,5.95299 -0.35976,1.89915 -1.94329,6.17415 -3.51898,9.5 -4.21983,8.90696 -9.76257,22.43993 -11.18012,27.29701 -0.9719,3.33009 -0.98098,5.1158 -0.042,8.25 1.5736,5.2522 3.40688,5.12116 8.67809,-0.62026 2.33302,-2.54115 4.69124,-4.34254 5.24048,-4.00309 0.54924,0.33945 1.53747,2.86335 2.19606,5.60867 0.65859,2.74532 2.08647,6.12171 3.17306,7.50308 1.88002,2.39006 2.46812,2.51095 12.15304,2.49827 18.21199,-0.0239 55.04088,-1.95964 60.67742,-3.18929 3.07956,-0.67183 7.53292,-2.65159 10.11943,-4.49862 2.54069,-1.81432 5.05844,-3.29876 5.59501,-3.29876 0.53657,0 1.83283,-0.95472 2.88057,-2.12159 1.0478,-1.16687 4.38004,-3.81216 7.40504,-5.87841 3.025,-2.06625 6.4,-4.77742 7.5,-6.02481 1.1,-1.24739 3.8,-3.57629 6,-5.17533 2.2,-1.59904 7.9375,-6.75554 12.75,-11.45887 4.8125,-4.70334 8.75,-8.06965 8.75,-7.48068 0,0.58896 -1.5487,3.89883 -3.44155,7.35527 -5.58753,10.20306 -9.69849,21.37826 -8.95461,24.34212 2.39905,9.55857 22.13973,0.26336 39.28826,-18.49947 4.59602,-5.02868 8.54147,-8.958 8.76765,-8.73181 0.22619,0.22619 -2.33656,5.50873 -5.695,11.73898 -5.14162,9.53823 -6.13458,12.19024 -6.28551,16.78749 -0.17237,5.2506 -0.0666,5.4907 2.76054,6.2677 1.61689,0.44438 5.89189,0.37612 9.5,-0.15169 13.70967,-2.00549 46.16315,-5.02332 47.19073,-4.38824 1.12429,0.69485 3.86949,6.62693 3.86949,8.36154 0,3.11245 -14.03356,6.34708 -37.46829,8.63617 -8.23255,0.80416 -16.63177,1.91003 -18.66493,2.4575 -2.03315,0.54747 -5.64742,0.92218 -8.03171,0.83268 -9.02492,-0.33876 -16.90477,0.84452 -18.29624,2.74746 -1.18581,1.62169 -1.62758,1.67445 -3.88855,0.46442 -1.99843,-1.06953 -3.69712,-1.13847 -7.84485,-0.31836 -3.46617,0.68535 -5.92235,0.71054 -7.11368,0.073 -1.26573,-0.6774 -2.29095,-0.58262 -3.36813,0.31135 -0.9646,0.80055 -4.80565,1.33611 -10.18608,1.42026 -18.55002,0.29014 -52.8601,1.52245 -57.04586,2.04892 -2.42457,0.30496 -12.09957,0.72582 -21.5,0.93526 -9.40042,0.20943 -23.39168,0.7374 -31.09168,1.17327 -13.93004,0.78853 -33.09294,0.98879 -35,0.36576 -2.41416,-0.78869 -10.27881,0.0279 -11.93548,1.23932 -1.48695,1.08728 -1.61206,1.71348 -0.6875,3.44104 1.09368,2.04356 1.74411,2.10717 20.10446,1.96617 10.43582,-0.0802 18.51289,-0.43084 17.94904,-0.77932 -0.63421,-0.39197 -0.39911,-1.1532 0.61645,-1.99604 1.41468,-1.17408 1.87054,-1.07163 3.29733,0.74107 1.61385,2.05033 2.27492,2.09631 26.1557,1.81921 13.475,-0.15636 24.5,-0.35677 24.5,-0.44536 0,-0.0886 6.41809,-0.33169 14.26242,-0.54024 7.84433,-0.20854 17.06933,-0.67843 20.5,-1.0442 3.43067,-0.36577 10.28758,-0.8661 15.23758,-1.11185 4.95,-0.24576 13.05,-0.85273 18,-1.34884 4.95,-0.4961 11.475,-1.14494 14.5,-1.44186 3.025,-0.29691 9.76031,-0.57697 14.96736,-0.62234 5.20705,-0.0454 9.93205,-0.4667 10.5,-0.93627 0.56795,-0.46957 2.15764,-0.85657 3.53264,-0.86 5.40907,-0.0135 20.97953,-1.15357 30,-2.19658 5.225,-0.60415 10.94246,-1.25646 12.70546,-1.44957 1.76301,-0.19311 3.65365,-0.6281 4.20143,-0.96664 0.54778,-0.33855 5.54502,-0.64763 11.10497,-0.68684 12.03604,-0.0849 13.42268,0.70708 14.30669,8.17114 1.20032,10.1348 -2.59049,35.28541 -6.58764,43.70664 -0.58699,1.23667 -0.77618,2.53958 -0.42041,2.89534 0.35576,0.35576 1.69721,-1.55606 2.981,-4.24849 3.24649,-6.8087 6.74484,-12.39534 7.76196,-12.39534 0.47075,0 1.07087,1.4625 1.33359,3.25 0.80161,5.45388 4.37828,27.38229 7.13593,43.75 1.4363,8.525 3.44347,18.65 4.46038,22.5 1.01691,3.85 2.09787,10.71631 2.40213,15.25847 0.30427,4.54217 1.08935,9.26026 1.74463,10.48467 0.65528,1.2244 1.33054,4.03308 1.50058,6.24152 0.45186,5.86889 3.10902,22.38109 4.34733,27.01534 0.58786,2.2 1.49422,7.375 2.01412,11.5 1.30565,10.3592 2.99153,18.26608 4.2083,19.73727 0.56281,0.68049 0.78807,1.85027 0.50056,2.59951 -0.49768,1.29692 0.0418,4.96376 2.37783,16.16322 0.57362,2.75 1.48194,9.05 2.01849,14 0.53656,4.95 1.18077,10.575 1.4316,12.5 0.25082,1.925 0.66489,5.18057 0.92014,7.23461 0.25525,2.05403 0.91779,4.58236 1.47232,5.61851 0.55454,1.03616 0.80887,2.08329 0.56519,2.32697 -0.4727,0.4727 1.03497,10.73708 2.04413,13.91667 0.95716,3.01575 -1.27406,2.31127 -8.95739,-2.82816 -14.12417,-9.44776 -28.52914,-24.23656 -34.35325,-35.2686 -3.69906,-7.00677 -4.2039,-7.31895 -8.78294,-5.43121 -9.5345,3.93067 -18.56832,8.60951 -19.05082,9.8669 -1.17664,3.06625 13.74128,19.90052 26.19881,29.56431 12.46336,9.6683 17.04448,13.70373 16.34778,14.40043 -0.67,0.67 -15.17476,-4.36684 -19.4329,-6.74815 -4.41815,-2.4708 -5.54746,-3.07711 -10.5,-5.63727 -7.24719,-3.74636 -15.89259,-10.87401 -20.70307,-17.06854 -2.45978,-3.16749 -5.32692,-5.98255 -6.37141,-6.2557 C 644.85192,639.6255 623,652.31074 623,655.74078 c 0,0.97109 1.53046,3.91824 3.40102,6.54922 5.20088,7.31516 13.21106,13.80577 26.91782,21.81142 13.38118,7.81549 10.68679,10.36661 -6.29868,5.96377 -11.75012,-3.04578 -27.79168,-11.23249 -31.52016,-16.08612 -1.65,-2.14793 -4.6926,-5.11165 -6.76134,-6.58605 l -3.76134,-2.68074 -6.47449,3.39386 c -8.64484,4.53153 -23.00681,12.16379 -35.55345,18.89386 -5.6394,3.025 -12.54754,6.72996 -15.35142,8.23325 -4.58734,2.45948 -6.11643,2.73492 -15.26617,2.75 -12.74006,0.021 -13.81938,-0.30947 -11.67918,-3.57581 2.09067,-3.19078 0.65354,-3.14258 -7.15261,0.23986 -5.65257,2.44928 -7.18919,2.62796 -26.53669,3.08575 -23.23248,0.54971 -22.63861,0.72943 -23.42987,-7.09036 C 463.07562,686.11817 461.54896,682 460.32949,682 c -0.33008,0 -1.58545,1.06316 -2.7897,2.36257 -3.41272,3.68238 -15.50724,7.03027 -22.6866,6.27987 -5.93716,-0.62055 -14.39377,-4.17902 -16.78845,-7.06443 C 417.34444,682.7101 415.88142,682 414.81359,682 c -1.50343,0 -1.89307,0.62053 -1.72676,2.75 0.72201,9.24486 -1.66695,13.25 -7.90328,13.25 -5.0891,0 -7.97675,-2.25241 -8.69053,-6.77874 -0.32275,-2.04669 -0.81111,-5.18376 -1.08523,-6.97126 -0.27413,-1.7875 -0.84698,-3.25 -1.27299,-3.25 -0.42602,0 -2.24198,1.31009 -4.03547,2.91132 -4.75482,4.2451 -12.20123,6.47265 -20.98771,6.27834 -6.20137,-0.13713 -7.91774,-0.56714 -10.68328,-2.67652 C 356.61615,686.13091 354.20342,685 353.06672,685 351.8963,685 351,684.34948 351,683.5 c 0,-1.55677 -1.18183,-1.98484 -2.32466,-0.84201 -0.36189,0.3619 -0.0994,1.34615 0.58334,2.18723 1.0552,1.29996 0.94602,1.41828 -0.7282,0.78916 -1.08323,-0.40705 -1.66157,-0.43213 -1.28518,-0.0557 0.37638,0.37638 0.25106,1.49392 -0.2785,2.48341 -0.70144,1.31066 -0.51387,2.24803 0.69094,3.45284 1.53836,1.53836 1.45099,1.82833 -1.25198,4.15506 l -2.90576,2.50129 -19,-0.38 c -18.13121,-0.36262 -19.26861,-0.50371 -24.87443,-3.08561 -3.23094,-1.48809 -7.05594,-2.68944 -8.5,-2.66966 l -2.62557,0.036 2.84048,2.32374 2.84047,2.32375 -2.34047,0.62663 c -1.28727,0.34465 -6.39048,0.62619 -11.34048,0.62564 -8.61155,-9.5e-4 -9.36687,-0.18607 -17.5,-4.28882 z m 19.57143,-8.2543 c -1.05899,-0.77435 -2.15043,-1.18291 -2.42543,-0.90791 -0.275,0.275 0.36644,1.13356 1.42543,1.90791 1.05898,0.77435 2.15043,1.18291 2.42543,0.90791 0.275,-0.275 -0.36645,-1.13356 -1.42543,-1.90791 z m -5.12212,-0.70008 C 276.83751,683.13417 273,680.66835 273,681.86955 c 0,0.48758 1.0125,1.59279 2.25,2.45603 2.7946,1.94941 2.79261,1.94905 2.19931,0.40291 z m 235.74877,-10.84528 c 2.90735,-1.71424 6.3362,-3.51604 7.61967,-4.00402 1.28346,-0.48797 4.2931,-2.23541 6.68809,-3.88321 2.39498,-1.64779 4.56575,-2.99598 4.82393,-2.99598 0.25818,0 3.3271,-1.79521 6.81982,-3.98935 3.49273,-2.19414 8.15041,-4.9579 10.35041,-6.1417 2.2,-1.1838 6.53771,-4.10158 9.63935,-6.48396 l 5.63935,-4.3316 0.54568,-7.7767 c 0.30012,-4.27718 0.7565,-14.30169 1.01419,-22.27669 0.69308,-21.45007 2.48349,-36.93337 9.65551,-83.5 0.72683,-4.71917 4.32561,-20.31997 7.49708,-32.5 0.78766,-3.025 1.93422,-7.975 2.5479,-11 0.61369,-3.025 1.71638,-7.75 2.45041,-10.5 0.73404,-2.75 2.28357,-10.175 3.44339,-16.5 1.15982,-6.325 2.81048,-15.11105 3.66813,-19.52455 0.85765,-4.4135 1.41078,-9.5885 1.22918,-11.5 -0.29468,-3.10191 -0.74038,-3.57676 -4.14672,-4.41807 -2.50556,-0.61883 -9.48781,-0.51439 -20.32679,0.30407 -9.08063,0.68568 -22.43819,1.48817 -29.68345,1.78333 -16.32123,0.66487 -19.85666,1.33875 -21.2042,4.04166 -0.5759,1.15514 -1.53852,2.71075 -2.13915,3.45691 -1.12924,1.40285 -2.04327,10.69338 -2.839,28.85665 -0.439,10.02055 -1.46537,18.94631 -3.56468,31 -3.68988,21.1863 -5.02378,32.50739 -5.47885,46.5 -0.28619,8.8 -1.00093,21.175 -1.58832,27.5 -0.58738,6.325 -1.21429,23.2 -1.39311,37.5 -0.17883,14.3 -0.78665,29.15 -1.35073,33 -1.29864,8.86366 -0.58449,37.22957 0.98491,39.12059 1.67849,2.02245 3.22084,1.72792 9.098,-1.73738 z m -136.88234,0.99975 c 2.54887,-1.3035 5.63004,-4.86972 5.66202,-6.55337 0.0134,-0.70673 -2.5589,-1.44682 -6.49309,-1.86813 -11.40769,-1.22166 -13.58865,-4.79866 -7.97212,-13.07509 4.01511,-5.9166 3.13752,-7.80813 -2.31457,-4.98875 -3.88283,2.00789 -5.82611,4.51206 -7.25763,9.35238 -3.3455,11.312 8.37997,22.24467 18.37539,17.13296 z m 70.46654,-1.8402 c 3.43468,-2.48808 4.19143,-3.68461 4.76987,-7.54196 0.84239,-5.61746 -1.50921,-12.53527 -5.26561,-15.49005 C 443.76122,648.02433 437,647.18833 437,648.8625 c 0,0.47437 1.35,2.56124 3,4.6375 5.93795,7.47194 3.30093,12.17362 -7.38761,13.17173 -3.67225,0.34292 -6.92092,1.01847 -7.21927,1.50121 -0.29836,0.48275 1.02114,2.44132 2.93221,4.35239 3.11615,3.11615 4.037,3.47467 8.92463,3.47467 4.45103,0 6.19822,-0.54204 9.53232,-2.95724 z M 306.34492,674.25 c 1.08175,-1.75247 0.44984,-67.2731 -0.81255,-84.25 -0.18404,-2.475 -0.62484,-11.21402 -0.97957,-19.42004 -0.35472,-8.20602 -0.94571,-15.40602 -1.3133,-16 -0.3676,-0.59398 -1.22851,-10.30496 -1.91313,-21.57996 -0.68463,-11.275 -1.71072,-23.65 -2.28021,-27.5 -0.56949,-3.85 -1.68469,-13.75 -2.47821,-22 -1.36041,-14.14373 -1.93297,-21.44065 -2.98171,-38 -0.24383,-3.85 -0.63018,-8.125 -0.85856,-9.5 -0.22838,-1.375 -0.48553,-4.40393 -0.57146,-6.73095 -0.18566,-5.02816 1.04635,-4.59817 -19.65622,-6.86042 -34.24858,-3.74248 -58.3431,-5.02185 -59.02295,-3.134 -0.2427,0.67395 0.23696,5.27537 1.0659,10.22537 0.82895,4.95 1.66273,10.8 1.85286,13 0.19012,2.2 1.32339,8.05 2.51837,13 3.66725,15.19091 4.08886,17.63971 3.46497,20.12549 -0.33137,1.32027 -0.0682,3.04426 0.58482,3.83109 2.29075,2.7602 5.86001,17.69008 9.09495,38.04342 1.13641,7.15 2.68611,15.475 3.44377,18.5 1.79042,7.14834 6.26802,41.67582 6.45827,49.80071 0.0812,3.46538 0.626,9.76538 1.21079,14 0.58478,4.23461 1.27302,15.21932 1.52941,24.41047 l 0.46617,16.71118 4.31696,2.78882 c 2.37433,1.53385 5.82418,3.67768 7.66634,4.76407 1.84215,1.08639 5.37437,3.21089 7.84937,4.7211 2.475,1.51022 6.525,3.89925 9,5.30896 2.475,1.40972 6.3,3.86143 8.5,5.44824 4.97892,3.5912 14.49376,8.41563 20.5,10.39438 2.25272,0.74216 2.83691,0.72506 3.34492,-0.0979 z m 158.13487,-31.21729 c 0.3288,-0.53201 -0.31965,-1.54026 -1.44099,-2.24055 C 460.45962,639.18143 460.42831,638 462.9648,638 c 2.96007,0 3.60817,-2.57963 3.23099,-12.86024 l -0.34342,-9.36024 -3.15983,0.63197 c -1.73791,0.34758 -4.9672,1.85969 -7.1762,3.36024 -10.01749,6.80477 -11.97255,7.3337 -24.41505,6.60534 -8.45175,-0.49475 -11.21572,-0.37121 -10.69098,0.47784 0.38924,0.6298 1.324,1.14509 2.07726,1.14509 0.75325,0 2.12354,0.75399 3.04509,1.67553 1.34936,1.34936 2.04196,1.4467 3.55786,0.5 1.03528,-0.64654 2.67593,-1.15958 3.64589,-1.14009 1.35956,0.0273 1.19085,0.36283 -0.73643,1.46456 l -2.5,1.42913 3.55,0.0354 c 1.9525,0.0195 3.99046,-0.40502 4.5288,-0.94336 1.84285,-1.84285 10.84677,2.04704 17.51171,7.56543 6.46162,5.35005 8.29426,6.21785 9.38928,4.44608 z M 349,641 c 0.5887,-1.1 1.70176,-2 2.47347,-2 0.7717,0 2.88115,-1.35 4.68767,-3 3.31843,-3.03092 4.04527,-3.3535 6.93577,-3.07823 0.8783,0.0836 2.16306,-0.53008 2.85501,-1.36383 0.89865,-1.08281 1.76354,-1.2454 3.02722,-0.5691 1.31555,0.70406 2.22571,0.44229 3.54998,-1.02102 2.22544,-2.45908 2.97913,-2.45957 5.43517,-0.004 1.82376,1.82376 2.08208,1.84649 3.61089,0.31767 1.50831,-1.50831 1.5119,-1.74512 0.0427,-2.81942 -0.88215,-0.64504 -4.86955,-1.42483 -8.86089,-1.73286 -7.26693,-0.56082 -16.34303,-3.62639 -18.29805,-6.18041 -0.57258,-0.74802 -2.82258,-1.51255 -5,-1.69895 L 345.5,617.5114 l -0.0755,11.9943 c -0.0415,6.59686 0.0976,12.3318 0.30902,12.7443 0.69396,1.35373 2.17662,0.78634 3.26644,-1.25 z m 78,-8 c 0,-0.55 -0.42344,-1 -0.94098,-1 -0.51754,0 -1.2191,0.45 -1.55902,1 -0.33992,0.55 0.0835,1 0.94098,1 0.85746,0 1.55902,-0.45 1.55902,-1 z m 221.7823,-9.8455 c 0.28658,-0.86063 -0.19425,-1.221 -1.33427,-1 -0.98026,0.19002 -1.98391,0.95098 -2.23033,1.691 -0.28658,0.86063 0.19425,1.221 1.33427,1 0.98026,-0.19002 1.98391,-0.95098 2.23033,-1.691 z m -440.8385,-3.04949 c 0.7434,-1.38905 0.64349,-2.20264 -0.37419,-3.04724 -1.01661,-0.84371 -1.326,-3.3487 -1.15544,-9.35501 0.12811,-4.51152 -0.11756,-10.00276 -0.54592,-12.20276 -0.42836,-2.2 -1.24548,-10.82407 -1.81582,-19.16459 -0.57034,-8.34052 -1.4974,-16.37557 -2.06013,-17.85567 -0.56273,-1.48009 -1.16715,-5.23102 -1.34314,-8.33541 -0.28576,-5.04047 -2.29489,-16.35132 -4.64397,-26.14433 -0.46175,-1.925 -1.39023,-6.65 -2.06328,-10.5 -0.67306,-3.85 -2.29249,-11.275 -3.59875,-16.5 -2.43442,-9.7376 -6.98365,-31.02776 -9.93601,-46.5 -0.31484,-1.65 -1.63412,-8.37276 -2.93172,-14.93947 -1.2976,-6.5667 -2.13774,-12.2979 -1.86699,-12.73599 0.27076,-0.43809 -0.68041,-2.79757 -2.1137,-5.2433 -2.88018,-4.91466 -2.31135,-4.69387 -18.49474,-7.17858 -13.72713,-2.10759 -24.04886,-3.13263 -24.4823,-2.43131 -0.53415,0.86428 1.1802,9.02418 2.92124,13.90438 0.85858,2.40665 1.56106,5.04231 1.56106,5.85703 0,0.81472 1.30393,4.24564 2.89762,7.62427 1.59369,3.37863 3.9192,8.61797 5.16779,11.64297 1.2486,3.025 2.79417,6.175 3.43459,7 0.64042,0.825 2.18315,3.975 3.42829,7 1.24514,3.025 3.077,7.3 4.0708,9.5 2.93233,6.49135 6.00091,14.673 6.00091,16 0,0.67831 0.85033,3.4308 1.88963,6.11665 2.94087,7.60006 6.77867,24.01841 9.08902,38.88335 0.59837,3.85 1.53659,9.61106 2.08492,12.80236 0.54834,3.1913 1.23578,8.1413 1.52766,11 0.29188,2.8587 0.70817,6.77264 0.9251,8.69764 0.21692,1.925 0.83355,12.275 1.37027,23 0.53673,10.725 1.00681,19.57951 1.04463,19.67669 0.0378,0.0972 2.65627,1.36013 5.81877,2.80654 3.1625,1.44641 6.875,3.70102 8.25,5.01023 2.22757,2.12099 12.37299,7.4716 14.21482,7.49677 0.39315,0.005 1.17119,-0.84298 1.72898,-1.88522 z m 408.34592,-2.63244 c 5.25663,-2.49009 10.98293,-5.85898 12.72511,-7.48642 2.73876,-2.55839 3.12827,-3.53621 2.87709,-7.22257 -0.29195,-4.28458 0.88515,-14.5065 1.85837,-16.13808 0.2869,-0.48097 0.63325,-5.20597 0.76969,-10.5 0.45873,-17.80039 4.17481,-45.44137 7.48789,-55.6965 0.54567,-1.68905 0.99213,-4.16251 0.99213,-5.49659 0,-1.33407 1.06357,-5.80213 2.3635,-9.929 1.29992,-4.12688 3.07276,-9.75341 3.93965,-12.50341 3.26837,-10.36817 5.61651,-16.31521 10.58204,-26.80071 C 662.69834,459.7589 665,454.65488 665,454.35702 c 0,-0.29786 0.9,-1.68573 2,-3.08415 1.1,-1.39842 2.01407,-3.2694 2.03127,-4.15773 0.0172,-0.88833 1.13809,-3.86514 2.49086,-6.61514 1.35277,-2.75 2.4637,-5.46735 2.46873,-6.03856 0.005,-0.57121 0.85568,-2.69899 1.89033,-4.7284 1.9982,-3.91934 3.84593,-16.64466 2.4484,-16.86213 -4.30779,-0.67035 -10.38192,-0.61806 -12.82959,0.11043 -1.65,0.49108 -5.25,1.14676 -8,1.45705 -13.19157,1.48847 -15.2204,1.9052 -18.25168,3.74897 -1.78842,1.08781 -3.4352,2.95317 -3.65951,4.14524 -2.35728,12.52758 -2.90561,15.78373 -3.31192,19.6674 -0.25894,2.475 -0.87717,4.9275 -1.37384,5.45 -0.49668,0.5225 -0.90305,2.00397 -0.90305,3.29216 0,3.75735 -5.39214,30.28012 -8.48947,41.75784 -0.74211,2.75 -1.64296,7.025 -2.00191,9.5 -0.35894,2.475 -1.47796,6.975 -2.4867,10 -1.90227,5.70449 -3.11989,11.85559 -5.04776,25.5 -0.62169,4.4 -1.7768,11.375 -2.56691,15.5 -2.76625,14.44201 -3.932,25.23405 -4.86088,45 -0.34893,7.425 -1.13182,15.17291 -1.73975,17.21757 -0.85226,2.86639 -0.81414,4.06844 0.16647,5.25 1.83897,2.21583 2.74809,2.01136 13.31663,-2.995 z m -241.86355,-8.14076 c 0.41906,-1.09205 -0.40741,-2.74898 -2.39302,-4.7976 C 370.36492,602.81302 369,600.66527 369,599.76141 c 0,-0.90386 -0.45,-1.92149 -1,-2.26141 -1.94465,-1.20186 -0.94711,-3.39499 3.62281,-7.96491 2.54254,-2.54255 4.34254,-4.90307 4,-5.24562 -1.27471,-1.27471 -6.52274,-0.55676 -10.87108,1.4872 -4.92975,2.31725 -5.71638,3.89667 -5.73808,11.52108 -0.0112,3.94944 0.47259,5.25554 2.73635,7.38688 6.22408,5.85998 11.47243,7.78406 12.67617,4.64718 z M 447.0148,606.25 c 3.84412,-4.36333 4.1449,-5.10527 3.69495,-9.11424 -0.59101,-5.26573 -3.13298,-8.95765 -8.00305,-11.62348 -5.32434,-2.9145 -6.6588,-0.98536 -2.73437,3.9529 1.66522,2.09541 3.02767,4.63229 3.02767,5.63753 0,1.8245 -4.93735,8.23048 -8.25,10.70399 -0.9625,0.71869 -1.75,2.18119 -1.75,3.25 0,1.66081 0.71447,1.9433 4.91501,1.9433 4.60952,0 5.17512,-0.29524 9.09979,-4.75 z M 486,608.94098 c 0,-0.58246 -0.45,-0.7809 -1,-0.44098 -0.55,0.33992 -1,0.81648 -1,1.05902 0,0.24254 0.45,0.44098 1,0.44098 0.55,0 1,-0.47656 1,-1.05902 z m 171,-9.96573 c 0,-0.56361 1.125,-1.45248 2.5,-1.97525 2.92584,-1.1124 3.3977,-4.71909 0.75,-5.73276 -3.29676,-1.26216 -9.17544,-10.00794 -10.25403,-15.25503 -0.57551,-2.79974 -3.35541,-3.78872 -5.54401,-1.97234 -1.70706,1.41673 -1.9514,6.62698 -0.33603,7.16544 1.43042,0.47681 3.06712,10.44401 2.30626,14.04469 -0.5127,2.42632 -0.28444,2.75 1.93934,2.75 1.38624,0 2.79855,0.45 3.13847,1 0.81347,1.31623 5.5,1.29514 5.5,-0.0248 z M 164.38112,583.75 c -0.34301,-18.2247 -0.84533,-24.27806 -2.33698,-28.16284 -0.85172,-2.21817 -1.3965,-2.6348 -2.28433,-1.74697 -0.88783,0.88783 -0.87896,2.83898 0.0372,8.1814 1.91473,11.16587 1.61101,15.66134 -1.25152,18.52386 -1.35,1.35 -2.84968,2.45455 -3.33263,2.45455 -0.48295,0 -2.35526,1.83814 -4.16069,4.08476 -3.18433,3.96247 -3.19765,5.41892 -0.0558,6.09381 0.82301,0.17679 1.94801,0.86801 2.5,1.53606 0.93558,1.13229 7.64878,3.90656 10.0877,4.16881 0.7476,0.0804 0.99498,-4.61664 0.79704,-15.13344 z m 161.07617,9.1809 C 324.60006,591.54386 324,591.80249 324,593.55902 c 0,0.85746 0.45734,1.27636 1.01631,0.9309 0.55897,-0.34546 0.75742,-1.04702 0.44098,-1.55902 z M 467.43118,583.75 c 0.32471,-3.4375 0.48962,-6.925 0.36648,-7.75 -0.12314,-0.825 0.15011,-4.98992 0.60722,-9.25537 0.61416,-5.73101 0.50847,-8.14411 -0.40491,-9.24467 -0.67981,-0.81912 -1.00004,-2.3917 -0.71161,-3.49463 0.34684,-1.32632 0.0334,-2.00533 -0.92582,-2.00533 -0.82643,0 -1.32382,0.75273 -1.15638,1.75 0.21097,1.25646 -0.28105,1.67187 -1.7446,1.47298 -1.18313,-0.16078 -3.76736,1.20288 -6.15896,3.25 -2.26629,1.93986 -4.76149,3.52702 -5.5449,3.52702 -0.7834,0 -1.71426,0.28989 -2.06857,0.64421 -0.35432,0.35431 -3.91682,0.80928 -7.91667,1.01104 -3.99985,0.20175 -7.38496,0.69936 -7.52246,1.10579 -0.43471,1.28493 0.21249,2.69948 1.25,2.73204 1.72697,0.0542 11.95444,3.7107 12.95,4.62984 0.5225,0.48239 1.87829,0.87708 3.01287,0.87708 1.18013,0 2.48529,0.96282 3.05,2.25 0.54292,1.2375 2.68024,3.34153 4.7496,4.67561 2.60588,1.67998 4.1147,3.60125 4.90829,6.25 0.6302,2.10342 1.48877,3.82439 1.90793,3.82439 0.41917,0 1.02779,-2.8125 1.35249,-6.25 z m -243.82779,0.55995 c -1.12875,-2.08213 -1.53369,-2.33965 -1.56335,-0.99421 -0.0529,2.3981 2.17671,6.534 2.69086,4.99155 0.21769,-0.65306 -0.28969,-2.45186 -1.12751,-3.99734 z m 363.50041,0.39385 c -1.28349,-1.28349 -2.58505,-0.2915 -1.63484,1.24598 0.36808,0.59556 1.12735,0.79971 1.68727,0.45366 0.683,-0.42212 0.66575,-0.98146 -0.0524,-1.69964 z M 487,583.5 c 0,-1.375 -0.45,-2.5 -1,-2.5 -0.55,0 -1,1.125 -1,2.5 0,1.375 0.45,2.5 1,2.5 0.55,0 1,-1.125 1,-2.5 z M 344.5,579 c -0.35167,-0.56901 0.50581,-1 1.98958,-1 1.43419,0 5.31757,-1.8 8.62973,-4 3.31217,-2.2 7.04644,-4 8.29839,-4 1.25196,0 3.3062,-0.89325 4.565,-1.98499 1.50093,-1.30176 3.08294,-1.78566 4.59617,-1.40586 3.19485,0.80186 4.81819,-0.35495 3.02062,-2.15252 -0.93075,-0.93074 -2.90349,-1.28356 -5.75767,-1.02974 -5.23691,0.46571 -15.63532,-2.69809 -18.00211,-5.4773 C 350.92655,556.87732 349.53628,556 348.75022,556 c -0.78605,0 -1.94177,-1.125 -2.56827,-2.5 -1.32878,-2.91637 -2.83788,-3.23564 -3.54506,-0.75 -0.89728,3.15382 -0.52175,23.59663 0.46742,25.44491 0.53133,0.9928 1.20178,1.80509 1.48989,1.80509 0.28811,0 0.24572,-0.45 -0.0942,-1 z m 245.02392,-9.07536 c 0.36228,-1.14145 0.36814,-2.36592 0.013,-2.72104 -0.74946,-0.74946 -2.49914,1.71128 -2.52162,3.5464 -0.0248,2.02669 1.79325,1.42852 2.50861,-0.82536 z M 387.5,568 c 0.33992,-0.55 0.17723,-1 -0.36153,-1 -0.53876,0 -1.27607,-1.35 -1.63847,-3 -0.3624,-1.65 -1.1213,-3 -1.68644,-3 -0.56515,0 -0.75293,0.71561 -0.4173,1.59024 0.90157,2.34946 -0.31105,3.72537 -2.02767,2.3007 -1.83668,-1.52431 -3.69365,0.0984 -2.79438,2.44184 0.71732,1.86931 7.85319,2.40273 8.92579,0.66722 z m 42.40089,-2.3945 c 1.23724,-1.31698 1.82889,-2.65447 1.31478,-2.97221 -1.55528,-0.96121 -6.19952,1.74453 -6.20787,3.61671 -0.011,2.46933 2.24724,2.17188 4.89309,-0.6445 z M 650.21331,565 c 0.24217,-1.65 0.27874,-3 0.0813,-3 -0.67446,0 -2.06087,4.49811 -1.61815,5.25 0.76613,1.30116 1.08397,0.83583 1.53688,-2.25 z M 489,558.05902 c 0,-0.51754 -0.45,-1.2191 -1,-1.55902 -0.55,-0.33992 -1,0.0835 -1,0.94098 0,0.85746 0.45,1.55902 1,1.55902 0.55,0 1,-0.42344 1,-0.94098 z M 448.64642,545.4439 c 6.05028,-4.59128 7.45567,-15.35638 2.6924,-20.62342 -3.724,-4.11785 -12.59152,-7.23444 -14.67002,-5.15595 -0.3655,0.3655 1.3595,2.65999 3.83333,5.09887 5.8392,5.75672 6.07591,9.47421 0.99787,15.6713 -1.925,2.3492 -3.5,5.28752 -3.5,6.52958 0,2.06657 0.31838,2.19925 3.75,1.5628 2.0625,-0.38253 5.16589,-1.76996 6.89642,-3.08318 z m -77.58068,1.52092 C 372.12958,546.39547 373,545.52481 373,545.03003 c 0,-0.49478 -2.45476,-3.35435 -5.45501,-6.35461 -5.02986,-5.02985 -5.41012,-5.73166 -4.879,-9.00458 0.31681,-1.95226 1.64656,-4.55529 2.95501,-5.78452 1.30845,-1.22922 2.379,-3.06508 2.379,-4.07969 0,-1.50044 -0.51324,-1.72566 -2.75,-1.20671 -10.46528,2.42801 -14.70426,14.33154 -8.26778,23.21684 3.72593,5.14349 9.88519,7.39493 14.08352,5.14806 z m 224.2836,-13.43279 c 0.89168,-2.3237 -1.13079,-2.80891 -2.33435,-0.56004 -0.85486,1.59733 -0.78205,2.02801 0.34284,2.02801 0.7855,0 1.68168,-0.66059 1.99151,-1.46797 z M 320,521.8 c 0,-1.61542 -0.29571,-1.90429 -1.11287,-1.08713 -0.61207,0.61207 -0.81052,1.60207 -0.44098,2.2 C 319.48054,524.58655 320,524.21451 320,521.8 z m 277.8213,-4.87701 c 0.37886,-4.03625 -1.2844,-3.02273 -2.39167,1.45739 -0.54926,2.22234 -0.39408,2.77588 0.67924,2.42299 0.76512,-0.25157 1.53571,-1.99774 1.71243,-3.88038 z m -252.11616,-3.20988 c 3.41282,-3.41721 7.68782,-6.95091 9.5,-7.85268 5.28927,-2.632 14.19262,-4.20597 19.98322,-3.5327 5.9138,0.68759 8.2001,-0.15184 7.23852,-2.65768 -0.57623,-1.50165 -1.69394,-2.06985 -3.58097,-1.82044 -0.35975,0.0476 -1.20235,-0.57416 -1.87244,-1.38158 C 375.15213,494.27345 372,494.6106 372,497 c 0,2.07031 -2.41251,2.7596 -3.5,1 -0.85859,-1.38922 -7.84358,-1.25642 -9.27637,0.17637 -0.90183,0.90183 -1.5903,0.81738 -2.95,-0.36185 -0.9755,-0.84603 -3.93634,-2.25667 -6.57964,-3.13476 -2.64331,-0.87809 -5.60488,-2.5831 -6.58128,-3.7889 -1.33047,-1.64306 -2.41197,-2.03257 -4.3164,-1.55459 -3.08518,0.77434 -4.26888,5.16768 -2.84223,10.54914 0.52703,1.98802 1.16614,7.21459 1.42024,11.61459 0.2541,4.4 0.49883,8.1125 0.54384,8.25 0.31871,0.97358 2.38655,-0.62953 7.78698,-6.03689 z m 126.42253,-4.32491 c 1.05571,-4.46771 1.44922,-9.19776 1.11984,-13.46074 -0.30702,-3.97359 -0.0599,-7.40956 0.62504,-8.68931 2.19464,-4.10074 -0.53572,-3.04847 -6.19131,2.38609 -3.24069,3.11404 -6.46882,5.3805 -7.44993,5.23056 -0.95222,-0.14553 -2.72307,0.28235 -3.93521,0.95082 -3.50399,1.93238 -13.50537,2.61045 -17.76556,1.20446 -3.02102,-0.99703 -3.92289,-0.99328 -4.54843,0.0189 -0.44453,0.71926 -1.52973,0.97489 -2.52206,0.59409 -3.12374,-1.19869 -5.46005,0.27512 -5.46005,3.44435 0,3.30422 1.4351,3.71701 4.77925,1.37468 2.27566,-1.59394 4.75264,-1.11171 3.62893,0.7065 -0.4021,0.65061 1.05664,0.8352 4.09681,0.5184 7.51712,-0.78332 16.63492,2.66355 21.83365,8.25394 0.46125,0.496 1.89823,2.06164 3.19329,3.47921 1.87785,2.05547 2.82177,2.40515 4.66137,1.72683 1.838,-0.67772 2.63743,-2.25016 3.93437,-7.73875 z M 208.5,486 c 0,-0.73333 -0.5625,-1.52083 -1.25,-1.75 -0.74359,-0.24786 -1.25,0.46111 -1.25,1.75 0,1.28889 0.50641,1.99786 1.25,1.75 0.6875,-0.22917 1.25,-1.01667 1.25,-1.75 z m 396.74475,-0.5 c 0.26285,-1.375 0.0903,-2.5 -0.38342,-2.5 -0.47373,0 -0.86133,1.125 -0.86133,2.5 0,1.375 0.17254,2.5 0.38342,2.5 0.21089,0 0.59848,-1.125 0.86133,-2.5 z m -151.10463,-4.61723 c 0.90206,-0.45953 3.03173,-2.93649 4.73261,-5.50434 3.17652,-4.79567 3.29214,-6.36743 0.92833,-12.61959 -2.35558,-6.23039 -12.92595,-8.80921 -19.55106,-4.7698 -5.121,3.12234 -4.2886,4.97435 2.15952,4.80469 11.08079,-0.29154 13.85062,5.35615 6.09048,12.4185 -4.5588,4.14887 -5.51927,6.24274 -3.25,7.08512 1.50393,0.55828 6.61334,-0.25472 8.89012,-1.41458 z m -88.44646,-0.52684 c 0.42608,-1.11035 -0.31171,-2.32774 -2.27266,-3.75 -4.79193,-3.47555 -6.421,-5.48362 -6.421,-7.9148 0,-4.30222 2.02211,-5.61237 9.75,-6.31714 3.9875,-0.36365 7.25,-0.98537 7.25,-1.38159 0,-0.39622 -1.71169,-1.9066 -3.80375,-3.3564 -6.20836,-4.3024 -13.47194,-3.27801 -19.04217,2.68554 -5.2913,5.66492 -1.51457,19.89125 5.56412,20.95914 6.16246,0.92966 8.35036,0.70424 8.97546,-0.92475 z M 477.50334,458.9946 c 0.79086,-1.27964 1.87679,-12.69855 1.94458,-20.4479 0.0493,-5.63131 -0.12484,-6.07291 -3.2189,-8.16448 -3.52835,-2.38516 -2.43314,-2.36277 -49.16494,-1.00519 -13.54513,0.3935 -12.8914,-0.30119 -12.99379,13.80787 -0.0861,11.85605 0.88816,15.13104 4.14727,13.94179 1.25534,-0.45807 3.4096,-2.47818 4.78725,-4.48913 2.92781,-4.27374 13.79258,-10.18471 20.59525,-11.20484 2.4201,-0.36291 7.39642,-0.0938 11.06492,0.59841 5.93638,1.12011 7.33344,1.86801 12.75093,6.826 3.34625,3.06243 6.43446,6.82239 6.86268,8.35546 0.79575,2.84884 2.11489,3.5778 3.22475,1.78201 z m -79.05486,-3.35927 c 2.29661,-2.12843 2.54933,-3.1025 2.52956,-9.75 -0.0215,-7.23115 -2.23359,-14.68917 -4.83348,-16.29599 -1.76731,-1.09226 -13.96596,-2.05852 -25.89456,-2.05112 -6.1875,0.004 -11.25,-0.27801 -11.25,-0.62633 0,-2.25193 -23.95819,-1.25927 -26.37972,1.09299 -0.48384,0.47 -1.06819,5.03874 -1.29855,10.15275 -0.36377,8.07569 -0.18237,9.48053 1.37971,10.68503 1.27925,0.98641 1.43764,1.52214 0.54856,1.85543 -1.70552,0.63933 -1.5789,2.96172 0.19866,3.64384 0.8513,0.32667 3.49872,-1.28727 6.42022,-3.91395 8.38713,-7.54075 18.55193,-10.64168 29.50107,-8.99975 4.32949,0.64924 9.27558,3.77198 15.17773,9.58254 2.97347,2.92733 8.75947,6.88327 10.1508,6.94019 0.65916,0.027 2.34666,-1.01506 3.75,-2.31563 z m 214.87563,-2.03756 C 613.88873,452.12639 613.24233,451 611.83333,451 611.375,451 611,451.9 611,453 c 0,2.29292 1.52327,2.68471 2.32411,0.59777 z M 663,692 c 0,-0.55 0.675,-1 1.5,-1 0.825,0 1.5,0.45 1.5,1 0,0.55 -0.675,1 -1.5,1 -0.825,0 -1.5,-0.45 -1.5,-1 z M 412.5,181.33753 c -15.38408,-0.56877 -46.59299,-3.31845 -55.5,-4.88986 -8.01686,-1.41436 -14.48683,-2.77839 -28.5,-6.00851 -3.3,-0.76067 -8.475,-1.83819 -11.5,-2.39448 -6.95807,-1.27958 -26.08366,-6.35896 -32,-8.49857 -2.475,-0.89507 -7.425,-2.466 -11,-3.49095 -16.84153,-4.82849 -42.46943,-15.21801 -45.97727,-18.63913 L 225.54545,135 l 8.47728,0.0354 c 5.45635,0.0228 9.36816,0.54471 10.97727,1.46456 1.375,0.78602 3.32325,1.44508 4.32944,1.46456 1.0062,0.0195 4.6062,1.08899 8,2.37665 7.49934,2.84538 24.68678,8.27314 30.17056,9.52782 2.2,0.50336 6.7,1.64988 10,2.54783 9.95935,2.71002 32.51167,7.31983 48.5,9.91367 19.60089,3.17991 25.79064,3.95095 36.5,4.5467 13.56951,0.75485 51.34962,0.62587 61.5,-0.20996 10.56205,-0.86973 31.65085,-3.50674 37,-4.62659 2.475,-0.51815 9.45,-1.8849 15.5,-3.03722 18.57906,-3.53868 52.66656,-13.63313 71.5,-21.17354 7.14002,-2.85868 24.17682,-3.95282 22.07274,-1.41757 -3.06943,3.69845 -46.02639,22.66502 -62.07274,27.40667 -38.90513,11.49637 -53.72259,14.43166 -81.5,16.14491 -9.9,0.61061 -19.575,1.24433 -21.5,1.40827 -1.925,0.16394 -7.55,0.14834 -12.5,-0.0347 z"
       id="path3009"
       inkscape:connector-curvature="0" />
    <path
       style="fill:#1c0709"
       d="m 269,696.3519 c -6.04658,-2.62629 -15.22423,-7.47436 -22.89129,-12.09228 -4.06521,-2.4485 -9.24021,-5.24918 -11.5,-6.22372 -2.25979,-0.97455 -8.97106,-4.72601 -14.91393,-8.33658 -9.3481,-5.6794 -16.25275,-8.7296 -17.0782,-7.54448 -5.40468,7.75966 -8.4325,11.21313 -10.97348,12.51615 -1.7287,0.88649 -4.21629,2.44817 -5.52796,3.47041 -1.31167,1.02223 -3.07624,1.8586 -3.92126,1.8586 -0.84502,0 -2.24683,0.60779 -3.11514,1.35065 -2.25336,1.9278 -10.3474,4.33719 -20.54318,6.11519 -11.66882,2.03487 -12.66755,1.98548 -9.53556,-0.47155 1.375,-1.07868 3.38949,-2.25637 4.47665,-2.61709 1.08715,-0.36071 4.17515,-2.16815 6.86221,-4.01652 2.68706,-1.84838 5.47731,-3.36068 6.20055,-3.36068 0.72324,0 2.58524,-1.51377 4.13779,-3.36393 1.55254,-1.85017 4.63103,-4.48999 6.84109,-5.86627 4.68618,-2.91826 9.78204,-11.37162 9.29753,-15.42337 -0.26071,-2.18017 -1.7119,-3.36381 -8.31582,-6.78269 -4.4,-2.2779 -9.575,-5.13492 -11.5,-6.34895 -4.83803,-3.05116 -7.04928,-2.77962 -10.2738,1.26163 -3.02097,3.78615 -14.46971,13.41648 -21.07889,17.73092 -8.01757,5.23383 -28.38046,14.39284 -29.50311,13.27019 -0.71653,-0.71653 3.96345,-5.46334 6.88649,-6.98482 1.39188,-0.72449 4.55605,-3.26923 7.03147,-5.65498 2.47543,-2.38575 5.83662,-5.48935 7.46931,-6.89688 6.82154,-5.8808 19.57602,-20.13623 19.28399,-21.55333 -0.31843,-1.54524 -3.66143,-3.51086 -16.16153,-9.50267 l -6.84606,-3.2816 -1.91061,2.44838 c -1.05084,1.3466 -3.82011,5.0938 -6.15394,8.3271 C 109.5656,636.93739 104.67555,641.7079 94,649.5905 c -14.661051,10.82541 -15.79854,11.54449 -16.490627,10.42467 -1.029635,-1.66599 0.599961,-10.21071 2.767253,-14.50999 1.107597,-2.19714 1.977242,-5.28104 1.932545,-6.8531 -0.0447,-1.57206 0.392277,-4.04939 0.971055,-5.50519 1.653293,-4.1585 3.793771,-17.40231 3.196921,-19.78035 -0.296944,-1.18312 0.19011,-3.56281 1.082344,-5.2882 0.892233,-1.72539 1.358978,-3.56305 1.037209,-4.08368 -1.031771,-1.66944 1.644677,-13.33176 4.237286,-18.4635 1.757313,-3.47837 2.592341,-6.92794 2.783777,-11.5 0.150405,-3.59214 0.391879,-6.98116 0.536609,-7.53116 0.14473,-0.55 -0.07706,-1.77608 -0.492861,-2.72462 -0.476055,-1.08598 -0.01993,-2.9375 1.231751,-5 1.289922,-2.1255 1.820555,-4.35 1.511485,-6.3364 -0.523961,-3.36751 4.367383,-34.88256 5.851643,-37.70223 0.57539,-1.0931 0.56533,-2.41159 -0.0265,-3.46911 -0.66203,-1.183 -0.4712,-2.63487 0.62261,-4.73675 1.34734,-2.58908 3.14218,-11.39965 4.69173,-23.03089 0.21982,-1.65 0.86094,-5.25 1.42471,-8 1.35421,-6.60565 3.99442,-24.40311 4.78934,-32.28464 0.66499,-6.59325 1.84086,-7.49452 4.09041,-3.13518 5.09596,9.87535 14.2513,29.8764 14.2513,31.13386 0,0.84759 0.65034,2.0808 1.4452,2.74048 0.79485,0.65967 2.16886,3.52727 3.05335,6.37244 0.88449,2.84517 2.04772,5.97616 2.58496,6.95776 1.61188,2.94508 7.91311,22.80702 7.96062,25.09249 0.0243,1.16754 0.65405,4.37279 1.3995,7.12279 1.29104,4.7627 1.23713,5.20572 -1.1358,9.33449 -3.19994,5.56772 -9.42986,22.56022 -10.04126,27.38819 -0.31993,2.52638 0.2042,5.11835 1.631,8.06573 2.90194,5.9946 2.6694,7.3639 -1.64757,9.70174 -2.0625,1.11694 -4.425,2.42148 -5.25,2.89899 -0.825,0.4775 -3.075,1.61625 -5,2.53054 -5.68825,2.70167 -8.07611,4.22042 -12.66,8.05208 -3.31806,2.77355 -4.34,4.32191 -4.34,6.57565 0,2.52432 0.68247,3.28134 4.75,5.26891 2.6125,1.27658 7.36364,4.00819 10.55808,6.07025 3.19445,2.06206 8.59445,5.01109 12,6.5534 3.40556,1.54231 12.26692,6.07937 19.69192,10.08234 7.425,4.00298 18.675,9.95198 25,13.22001 6.325,3.26803 12.175,6.52588 13,7.23967 0.825,0.71379 5.13303,3.11241 9.57339,5.33027 4.44037,2.21786 10.96537,6.00979 14.5,8.42652 3.53464,2.41673 9.57661,6.13065 13.42661,8.25316 3.85,2.12252 9.025,5.20874 11.5,6.85828 2.475,1.64954 5.625,3.7432 7,4.65259 1.375,0.90938 5.875,3.41372 10,5.5652 14.39781,7.50946 24.31354,14.11565 23.40172,15.59102 -0.86959,1.40702 -13.67103,0.81326 -17.40172,-0.80713 z m 40.48519,-0.47585 c -2.19185,-1.16817 -5.11019,-2.90977 -6.48519,-3.87021 -1.375,-0.96044 -5.875,-3.31627 -10,-5.23518 -4.125,-1.91891 -10.85431,-5.57731 -14.95402,-8.12979 -4.0997,-2.55248 -8.3747,-4.66371 -9.5,-4.69163 -1.12529,-0.0279 -4.74598,-2.04501 -8.04598,-4.48242 -3.3,-2.43741 -9.15,-5.98499 -13,-7.88352 -3.85,-1.89853 -11.36059,-6.3509 -16.6902,-9.89417 -5.32961,-3.54326 -10.84553,-6.73227 -12.2576,-7.08667 -1.41208,-0.35441 -5.60149,-2.69295 -9.3098,-5.19675 -3.70832,-2.5038 -10.7924,-6.58414 -15.7424,-9.06742 -4.95,-2.48328 -12.375,-6.48549 -16.5,-8.8938 -4.125,-2.40831 -8.34522,-4.39354 -9.37827,-4.41162 -2.07008,-0.0362 -12.20368,-5.54744 -13.21803,-7.18868 -0.3512,-0.56827 -3.39821,-2.28226 -6.77113,-3.80887 -9.60107,-4.34553 -24.50035,-14.49612 -24.58627,-16.75014 -0.0255,-0.66815 0.9662,-1.7506 2.2037,-2.40546 1.2375,-0.65486 4.05,-2.64153 6.25,-4.41482 2.2,-1.77329 7.27636,-4.49271 11.2808,-6.04314 8.48461,-3.28507 9.68059,-5.32111 6.31985,-10.7589 -3.1254,-5.05701 -2.84275,-11.77465 0.8063,-19.16286 1.62988,-3.3 3.52138,-8.025 4.20333,-10.5 0.68195,-2.475 2.14999,-5.5236 3.2623,-6.77467 1.23318,-1.387 1.98565,-3.57121 1.92822,-5.59709 -0.11596,-4.09107 -2.65005,-15.48005 -5.81362,-26.12824 -1.30724,-4.4 -2.67349,-9.125 -3.03611,-10.5 -0.36263,-1.375 -1.28739,-3.49655 -2.05503,-4.71456 -0.76764,-1.21801 -2.11298,-4.32724 -2.98965,-6.9094 -0.87666,-2.58216 -3.08331,-7.88561 -4.90365,-11.78544 -1.82035,-3.89983 -3.59558,-8.06246 -3.94496,-9.25029 -0.34938,-1.18784 -1.29281,-2.70544 -2.09651,-3.37245 C 133.65757,450.30085 133,448.99473 133,448.06538 c 0,-0.92934 -0.88663,-3.52484 -1.97029,-5.76776 -1.08367,-2.24292 -2.39496,-5.81495 -2.914,-7.93783 -0.51903,-2.12288 -1.67261,-6.33479 -2.56349,-9.35979 -3.6302,-12.32632 -3.9759,-25.55724 -0.76425,-29.25 2.1422,-2.4631 0.44442,-2.538 43.21203,1.9064 8.525,0.88592 17.075,1.74372 19,1.90622 7.00724,0.59154 15.62398,1.37643 21,1.91285 3.025,0.30184 8.425,0.79756 12,1.1016 3.575,0.30404 11,0.97376 16.5,1.48827 5.5,0.51451 14.5,1.14282 20,1.39624 5.5,0.25342 16.75,0.9279 25,1.49885 27.22774,1.88432 30.84788,2.07664 48.35982,2.5691 9.54791,0.2685 17.79817,0.7591 18.33392,1.09021 1.27852,0.79017 49.7108,1.54533 52.02395,0.81117 C 401.63084,410.98239 402,409.7721 402,405.5876 c 0,-5.51503 -1.38978,-7.76547 -5.5,-8.90602 -1.1,-0.30524 -17.075,-0.86248 -35.5,-1.2383 -18.425,-0.37583 -36.2,-0.80849 -39.5,-0.96147 -20.84546,-0.96636 -32.60102,-1.62665 -44.5,-2.4995 -7.425,-0.54466 -23.625,-1.6685 -36,-2.49743 -12.375,-0.82893 -26.325,-1.92853 -31,-2.44356 -4.675,-0.51503 -15.25,-1.60927 -23.5,-2.43165 -14.60356,-1.45572 -32.46265,-3.57444 -47.32532,-5.61446 -8.41614,-1.15519 -11.95431,-2.61558 -10.31311,-4.25678 2.07513,-2.07513 16.14372,-2.45927 32.13843,-0.87753 15.70862,1.55344 33.12959,3.00619 43.5,3.62749 4.4,0.26361 9.23594,0.74698 10.74654,1.07415 3.37678,0.73135 9.75346,-1.244 9.75346,-3.0214 0,-0.71707 -1.6875,-2.58079 -3.75,-4.14159 -6.10007,-4.61626 -13.25,-12.39063 -13.25,-14.40719 0,-2.78849 1.75754,-3.35346 3.20784,-1.03116 0.70029,1.12134 1.77026,2.0388 2.37772,2.0388 0.60746,0 1.96065,0.94607 3.00709,2.10238 1.04645,1.15631 3.25369,2.78395 4.90499,3.61697 1.6513,0.83303 3.90988,2.34178 5.01907,3.35277 1.9397,1.76798 7.85215,5.19237 15.71214,9.10021 2.05087,1.01965 6.48966,2.14248 9.86398,2.49516 l 6.13513,0.64125 -0.70188,-4.15437 c -0.87142,-5.1579 0.042,-5.29251 8.74496,-1.28874 11.74299,5.40236 13.52527,5.99991 21.56798,7.2311 6.51984,0.99808 8.35425,0.98776 9.60953,-0.054 1.82508,-1.51468 1.98721,-5.18081 0.44441,-10.0493 -0.60887,-1.92137 -1.27268,-5.0684 -1.47514,-6.9934 -0.20245,-1.925 -0.49179,-4.38276 -0.64296,-5.46169 -0.44203,-3.15475 2.90291,-3.00633 5.96613,0.26472 1.51745,1.62042 3.88401,3.51936 5.25901,4.21986 1.375,0.70051 3.85,2.35416 5.5,3.67478 5.11518,4.09407 13.92073,10.753 15.60701,11.80233 0.88386,0.55 3.58386,2.32484 6,3.9441 4.97309,3.33287 10.3439,4.37588 23.08397,4.4829 5.00535,0.042 8.97095,0.52599 9.35115,1.14117 0.36329,0.58782 1.40166,0.73674 2.30902,0.33116 C 369.75802,387.994 379.725,387.76989 391,387.90133 l 20.5,0.23898 6.07683,-6.32014 c 12.1089,-12.59374 21.94631,-25.05901 26.33059,-33.36427 1.72924,-3.27573 4.59498,-7.80691 6.36832,-10.0693 1.77334,-2.26238 4.03128,-5.59536 5.01764,-7.40662 1.31091,-2.40724 2.09112,-2.99545 2.90014,-2.18643 0.80901,0.80901 0.25929,2.88092 -2.04338,7.70152 -1.73258,3.62712 -3.15014,7.29108 -3.15014,8.14213 0,0.85105 -0.83343,2.6069 -1.85206,3.90189 -1.01864,1.29499 -2.43649,5.19096 -3.15079,8.65773 -0.7143,3.46677 -1.85387,7.42821 -2.53238,8.80321 -0.6785,1.375 -1.2294,3.81717 -1.22421,5.42704 0.0124,3.84865 2.44608,9.57296 4.06991,9.57296 0.706,0 3.04129,-1.8 5.18953,-4 2.14824,-2.2 4.39133,-4 4.98463,-4 0.59331,0 1.70811,2.1375 2.47733,4.75 0.76923,2.6125 2.64956,6.0042 4.17851,7.53711 l 2.77991,2.78711 19.28981,-0.49564 c 33.43983,-0.85921 46.08839,-1.6753 51.28981,-3.30925 5.60919,-1.76204 15.46038,-7.31235 20,-11.26829 1.65,-1.43786 5.5875,-4.55603 8.75,-6.92927 3.1625,-2.37324 5.75,-4.6274 5.75,-5.00924 0,-0.38184 1.6875,-1.70396 3.75,-2.93806 2.0625,-1.23409 5.27905,-3.34195 7.14788,-4.68414 1.86884,-1.34218 3.78134,-2.44033 4.25,-2.44033 1.50325,0 0.91309,4.69196 -1.21447,9.65536 -1.39585,3.25637 -1.86873,5.87587 -1.45697,8.07075 1.40532,7.49098 9.78158,6.90138 22.84204,-1.60785 C 611.79501,364.85322 615.62056,363 616.81972,363 618.11094,363 619,362.37554 619,361.46862 c 0,-0.84227 0.65426,-1.78245 1.45391,-2.08931 0.79966,-0.30685 2.45702,-2.20523 3.68304,-4.21861 1.75162,-2.87656 2.31467,-3.27567 2.62855,-1.86321 0.21969,0.98861 -0.71569,3.2595 -2.07863,5.0464 -1.9043,2.49667 -2.64419,5.02163 -3.19552,10.90509 l -0.71744,7.65617 2.70197,0.67815 c 1.48608,0.37298 5.24945,0.38657 8.36304,0.0302 3.11359,-0.35638 9.93608,-0.89887 15.16108,-1.20554 5.225,-0.30667 10.85,-0.95014 12.5,-1.42994 2.49978,-0.72689 15.9373,-1.44579 20.21482,-1.08147 0.66815,0.0569 1.72457,1.05597 2.34762,2.22013 2.01491,3.76491 -0.75345,5.04028 -15.25907,7.02981 -12.3233,1.69021 -32.14105,3.71681 -42.80337,4.37716 -2.475,0.15328 -10.8,0.98745 -18.5,1.85371 -22.10778,2.48715 -40.19374,3.45739 -122.5,6.57166 -31.93249,1.20824 -67.87964,1.50881 -70.14625,0.58652 -2.79239,-1.13624 -4.86941,3.03291 -4.17369,8.37773 1.11792,8.58827 -1.49554,7.98762 32.56355,7.48407 59.99413,-0.88698 83.29776,-1.68074 100.46954,-3.42215 5.61723,-0.56966 13.94223,-0.9765 18.5,-0.90411 4.55777,0.0724 14.13685,-0.56222 21.28685,-1.41026 7.15,-0.84805 18.4,-1.80697 25,-2.13093 6.6,-0.32397 13.125,-0.80209 14.5,-1.06249 1.375,-0.2604 6.55,-0.90556 11.5,-1.43368 4.95,-0.52813 16.425,-1.83558 25.5,-2.90544 26.23701,-3.09311 26.76146,-3.12751 27.7777,-1.82216 1.90925,2.45241 2.84698,9.31402 2.07645,15.1939 -1.84807,14.10259 -2.52655,17.5724 -3.65718,18.70303 -0.65833,0.65833 -1.19697,2.42731 -1.19697,3.93106 0,3.37301 -6.75972,20.01713 -15.58166,38.36591 -4.98953,10.37775 -8.90154,20.24331 -10.70636,27 -7.84349,29.36364 -7.8945,30.03483 -2.66339,35.04655 1.62327,1.5552 2.95141,3.35843 2.95141,4.00719 0,1.87808 4.18964,11.44626 5.012,11.44626 0.40995,0 1.30144,1.3425 1.9811,2.98333 1.4908,3.59913 0.75293,8.75372 -2.18375,15.25506 -2.06394,4.56924 -2.07619,4.80928 -0.34296,6.72447 0.98856,1.09234 2.75053,2.28161 3.91549,2.64281 1.16497,0.3612 3.24312,1.44173 4.61812,2.40119 1.375,0.95946 3.93141,2.05434 5.6809,2.43308 1.7495,0.37874 3.7171,1.33469 4.37245,2.12434 0.65535,0.78965 1.69894,1.44783 2.31909,1.46262 0.62016,0.0148 2.60079,1.2523 4.40141,2.75 3.05239,2.53889 3.17287,2.86683 1.78104,4.84783 C 687.1675,596.59941 664.19547,610 662.19776,610 c -0.49373,0 -2.66955,1.28353 -4.83517,2.8523 -2.16561,1.56876 -5.72063,3.43388 -7.90004,4.14471 -8.14566,2.65677 -46.68714,23.09766 -60.46255,32.06698 -2.475,1.6115 -6.04979,3.64886 -7.94399,4.52748 -1.89419,0.87861 -5.94419,3.29273 -9,5.3647 -5.98673,4.05926 -23.85606,13.77575 -44.32537,24.10201 -7.02314,3.543 -14.67314,7.43089 -17,8.63975 -10.43804,5.42283 -14.03739,6.24922 -26.94348,6.1861 -6.75794,-0.0331 -13.07466,-0.2758 -14.03716,-0.53945 -1.59814,-0.43776 -1.74995,-2.36085 -1.74942,-22.16197 3.2e-4,-11.92543 0.4277,-29.78261 0.94973,-39.68261 0.52204,-9.9 1.19885,-25.2 1.50403,-34 0.30518,-8.8 1.05284,-26.575 1.66146,-39.5 0.60862,-12.925 1.211,-25.75 1.33861,-28.5 0.48308,-10.41006 2.01364,-22.8499 4.65937,-37.86962 1.13997,-6.47159 2.75562,-19.83228 3.5226,-29.13038 0.27221,-3.3 0.85447,-8.68671 1.29392,-11.97047 1.09212,-8.16094 0.79887,-28.20542 -0.4303,-29.41195 -1.21425,-1.19189 -8.10126,-1.38152 -42.759,-1.17736 -26.41181,0.15558 -26.77673,0.18618 -28.12508,2.3587 -1.03084,1.66092 -1.31466,6.10468 -1.15651,18.10785 0.2005,15.21856 0.30805,15.98651 2.48586,17.75 1.25196,1.01378 3.3719,1.84323 4.71097,1.84323 2.65395,0 7.34376,-4.04763 7.34376,-6.33818 0,-2.12623 7.60672,-8.60031 12.80844,-10.90128 3.73089,-1.65035 5.77369,-1.9007 11.31055,-1.3861 3.71651,0.34541 7.90668,1.06502 9.31148,1.59912 3.57351,1.35865 11.56953,8.93525 11.56953,10.96267 0,0.92483 0.66069,2.55502 1.4682,3.62264 2.36356,3.12491 1.92228,11.74453 -0.8818,17.22437 -5.44266,10.63626 -15.41751,16.00234 -27.37083,14.72443 -3.69356,-0.39487 -7.92778,-1.34411 -9.40937,-2.10943 -3.38191,-1.74692 -5.66585,-0.93726 -13.15505,4.66351 -3.52759,2.63809 -5.65115,4.9669 -5.65115,6.19735 0,1.08414 1.66294,3.49435 3.69542,5.35603 3.62057,3.31631 6.96293,4.26054 8.85458,2.50144 0.5225,-0.48589 3.875,-1.38912 7.45,-2.00719 5.81381,-1.00513 7.13789,-0.90008 12.54247,0.9951 7.09455,2.48778 7.90221,3.05861 12.2654,8.66892 9.83037,12.64015 7.17784,29.56538 -6.00948,38.3453 -4.07366,2.71217 -13.27196,4.51995 -15.22718,2.99266 -0.58917,-0.46022 -3.85633,-1.11378 -7.26037,-1.45237 l -6.18915,-0.61561 -4.56085,4.24749 C 418.05238,563.62698 416,566.31012 416,567.2534 c 0,0.94327 1.30189,3.17212 2.89309,4.95298 l 2.8931,3.23794 5.9171,-1.22216 c 9.60138,-1.98314 14.14571,-1.57675 20.01615,1.79 7.27286,4.17104 11.50819,8.77768 13.37995,14.55295 1.84287,5.68616 1.46369,14.72268 -0.69288,16.51248 -0.77358,0.64201 -1.40651,1.7062 -1.40651,2.36486 0,2.96187 -7.20519,9.49064 -12.77416,11.57494 -5.97997,2.23812 -8.39389,2.23305 -19.49471,-0.0409 -4.96653,-1.01739 -6.11175,-0.95709 -8.23413,0.43355 -5.15986,3.38087 -3.70979,10.44126 2.99558,14.58541 3.01066,1.86069 4.01027,2.02494 6.67347,1.09654 4.07591,-1.42087 13.08718,-1.39598 17.91167,0.0495 5.91405,1.7719 10.7039,6.39103 14.11613,13.61304 2.85186,6.03595 3.03129,7.05387 2.45183,13.90893 -0.93535,11.06512 -4.44094,16.14895 -14.07248,20.40799 -5.52112,2.44142 -15.08213,2.90418 -20.04111,0.97 -5.46876,-2.13301 -11.40176,-7.84365 -12.53973,-12.06976 -1.17614,-4.36784 -4.11461,-6.73418 -5.81627,-4.68381 -0.56865,0.68519 -1.30971,5.28823 -1.64679,10.22899 C 407.40951,695.92988 407.16627,697 404.55536,697 c -2.90383,0 -3.45016,-1.77904 -4.14576,-13.5 -0.94116,-15.8585 -1.43271,-16.28983 -8.55839,-7.50976 -2.82967,3.48664 -6.44382,6.51631 -9.90347,8.30189 -4.80037,2.47754 -6.23334,2.75437 -12.05873,2.3296 -6.558,-0.47819 -8.84986,-1.44123 -15.75863,-6.62173 -7.10217,-5.32552 -10.75943,-19.2025 -6.98403,-26.5 3.69724,-7.14646 5.4041,-10.02216 6.1406,-10.34565 0.43282,-0.19011 2.16703,-1.50691 3.85379,-2.92623 3.80715,-3.2035 14.22588,-5.39746 19.64911,-4.13768 6.24346,1.45032 8.05091,1.04822 12.2204,-2.71866 4.90724,-4.4334 5.93761,-7.6632 3.35827,-10.52684 -2.99513,-3.32525 -6.00085,-4.0254 -10.03848,-2.33837 -8.89545,3.71675 -21.93285,0.28021 -28.63301,-7.54742 C 350.0668,608.71804 347,601.56377 347,597.33621 c 0,-4.28649 2.37089,-11.81655 4.75459,-15.10079 5.04262,-6.94768 21.22551,-11.81299 28.78549,-8.65422 4.47295,1.86891 9.1183,1.26196 12.85847,-1.68006 4.16107,-3.27309 3.40676,-6.13526 -2.99022,-11.3462 -6.19723,-5.04823 -6.2548,-5.06286 -11.90833,-3.0261 -5.1646,1.86061 -13.85385,1.84131 -19.26252,-0.0428 -5.64479,-1.96635 -13.36601,-9.83058 -14.98748,-15.26508 -1.64629,-5.51768 -1.59444,-16.46246 0.0971,-20.5031 1.73975,-4.15573 8.69062,-10.40469 14.36575,-12.91507 4.52205,-2.00032 7.19932,-2.03117 20.58055,-0.23716 4.12037,0.55241 5.34897,0.275 8.75,-1.97569 2.36019,-1.5619 3.95657,-3.40486 3.95657,-4.56769 0,-1.1667 -2.47323,-4.0076 -6.16007,-7.07582 -4.919,-4.09363 -6.68186,-5.01709 -8.75,-4.58361 -1.42446,0.29857 -5.73993,1.2657 -9.58993,2.14918 -5.75413,1.32044 -7.80092,1.395 -11.5,0.41894 -6.44847,-1.70152 -11.37148,-5.1594 -15.16057,-10.64864 -2.97929,-4.31609 -3.29753,-5.46475 -3.26437,-11.78232 0.0465,-8.84834 1.50478,-13.91954 5.09481,-17.71673 6.1698,-6.52584 20.59878,-10.36917 27.73487,-7.38752 6.01322,2.51248 12.05946,7.61197 14.69102,12.39061 2.47399,4.49251 2.8493,4.74798 8,5.44564 7.76082,1.0512 13.96687,-0.78598 12.14511,-3.59531 -0.40541,-0.62518 -0.79283,-7.81883 -0.86093,-15.9859 -0.11916,-14.29177 -0.21459,-14.93998 -2.54198,-17.26738 -2.68188,-2.68187 0.84927,-2.40555 -50.37448,-3.94187 -19.74855,-0.59231 -22.17841,-0.48995 -23.40325,0.98588 -1.08626,1.30887 -1.22245,4.3583 -0.66368,14.8597 0.38669,7.26708 0.89161,17.26288 1.12206,22.21288 0.23045,4.95 0.87692,12.6 1.43659,17 0.88495,6.95729 1.82431,15.72763 3.58805,33.5 0.24562,2.475 0.88993,7.875 1.43179,12 0.54186,4.125 1.20614,12.45 1.47616,18.5 0.27003,6.05 1.00555,17.3 1.63448,25 0.62893,7.7 1.28537,15.8 1.45876,18 1.98763,25.21945 3.38838,110.18166 1.85737,112.65887 C 341.1159,697.62149 334.71436,698 327.17617,698 c -12.05487,0 -14.18582,-0.25584 -17.69098,-2.12395 z m 175.76609,-3.00063 c 1.79246,-2.41014 2.02274,-5.22886 2.81852,-34.5 0.47662,-17.53148 1.08785,-35.47542 1.35828,-39.87542 0.27043,-4.4 0.76645,-15.65 1.10227,-25 0.33581,-9.35 0.97909,-21.27721 1.4295,-26.50491 0.45041,-5.2277 0.68627,-10.71346 0.52412,-12.19059 -0.33313,-3.03474 2.07028,-40.64191 3.08706,-48.3045 0.36491,-2.75 1.25089,-6.14782 1.96884,-7.55071 0.71796,-1.40289 1.80717,-7.70289 2.42047,-14 0.6133,-6.29711 1.27704,-12.57429 1.47497,-13.94929 0.78973,-5.48587 2.3381,-32.88293 2.19254,-38.79486 -0.15882,-6.4505 -1.16789,-8.15701 -4.84267,-8.18983 -3.01873,-0.0269 -3.71625,3.37725 -4.32673,21.11648 -0.32874,9.55251 -1.05613,20.96821 -1.61642,25.36821 -2.3485,18.443 -2.74896,21.23358 -3.7311,26 -2.25205,10.92932 -4.25239,28.68114 -4.67639,41.5 -0.24559,7.425 -0.67254,16.425 -0.9488,20 -0.61555,7.96599 -1.2241,20.61203 -1.97298,41 -0.31313,8.525 -0.96682,22.925 -1.45264,32 -0.48581,9.075 -0.92051,25.03249 -0.966,35.4611 -0.0455,10.4286 -0.35301,20.40198 -0.68339,22.16306 -1.35357,7.21515 2.74288,9.76101 6.84055,4.25126 z M 331.29423,678.5 c -0.81714,-63.53875 -4.88877,-138.11776 -9.41763,-172.5 -2.69266,-20.44219 -2.66295,-20.09093 -3.84867,-45.5 -1.27559,-27.33471 -2.00765,-35.65244 -3.27847,-37.25 -0.54689,-0.6875 -2.28068,-1.25 -3.85285,-1.25 -3.6778,0 -4.36363,2.51193 -3.49783,12.81126 0.35549,4.2288 0.8638,12.86374 1.1296,19.18874 0.58238,13.85892 2.10183,31.59232 3.98425,46.5 1.61888,12.82053 3.03423,29.38532 4.48577,52.5 0.56989,9.075 1.50213,22.35 2.07164,29.5 0.56951,7.15 1.22574,20.875 1.45827,30.5 0.23254,9.625 0.72888,27.175 1.10297,39 0.37409,11.825 0.72259,25.46314 0.77444,30.30698 0.0873,8.15435 0.27954,8.95095 2.59428,10.74985 1.375,1.06858 3.4,1.83044 4.5,1.69302 1.91604,-0.23936 1.99136,-0.92156 1.79423,-16.24985 z M 311.26286,666.41196 C 311.13243,657.66038 310.79192,643.3 310.50617,634.5 c -0.28575,-8.8 -0.71548,-22.975 -0.95495,-31.5 -0.41317,-14.70893 -2.15898,-42.0251 -3.09968,-48.5 -0.23972,-1.65 -0.87639,-11.00944 -1.41481,-20.79875 -0.53842,-9.78931 -1.19149,-18.14264 -1.45126,-18.56295 -0.38772,-0.62736 -2.09311,-14.70131 -4.13665,-34.1383 -0.20239,-1.925 -0.65335,-8.675 -1.00214,-15 -2.38001,-43.15956 -2.52118,-44.43087 -5.04106,-45.39784 -0.8864,-0.34015 -8.42778,-1.07192 -16.75863,-1.62617 -8.33084,-0.55425 -17.17199,-1.45005 -19.64699,-1.99067 -2.475,-0.54061 -8.325,-1.03877 -13,-1.10701 -4.675,-0.0682 -9.45911,-0.48733 -10.63135,-0.93133 -3.29375,-1.24752 -22.25041,-1.46522 -23.44638,-0.26925 -1.86454,1.86454 6.39913,48.70724 12.5822,71.32227 1.66031,6.07269 4.66146,20.67194 6.47542,31.5 0.64497,3.85 2.06113,11.4715 3.14703,16.93667 1.08589,5.46516 2.64972,14.69016 3.47515,20.5 2.98774,21.02914 6.92883,75.36969 5.82931,80.37577 -0.83348,3.79478 1.10907,8.12293 4.38457,9.76917 1.47623,0.74194 5.93596,3.48915 9.91052,6.10492 3.97455,2.61576 9.59683,5.95708 12.49395,7.42517 2.89712,1.46808 7.13908,4.06853 9.42658,5.77877 4.84127,3.61957 7.18608,5.01751 21.353,12.73032 5.775,3.14405 10.95,5.60095 11.5,5.45979 0.62665,-0.16084 0.91146,-6.19733 0.76286,-16.16862 z m 199.80023,12.24748 c 4.6403,-2.3873 10.91191,-5.82609 13.93691,-7.64174 3.025,-1.81566 7.3,-4.29871 9.5,-5.51789 18.76529,-10.39921 32.17494,-19.00234 33.46521,-21.47 0.43994,-0.8414 1.10359,-12.77981 1.47478,-26.52981 0.3712,-13.75 0.85318,-26.35 1.07109,-28 0.2179,-1.65 0.66397,-5.7 0.99127,-9 1.03022,-10.38739 3.50282,-27.81869 4.61006,-32.5 0.5854,-2.475 1.18931,-5.625 1.34204,-7 1.22318,-11.01277 6.23015,-34.62538 12.51073,-59 0.49601,-1.925 1.39839,-5.3 2.00528,-7.5 1.16952,-4.23953 1.98079,-8.49271 4.38708,-23 0.82105,-4.95 1.94759,-11.025 2.50343,-13.5 1.74535,-7.77165 1.80872,-17.96506 0.11832,-19.03396 -1.90677,-1.20573 -11.60784,-1.21629 -23.2687,-0.0253 -5.06583,0.51738 -16.18559,1.1951 -24.71059,1.50604 -22.58283,0.82368 -31.23289,1.62039 -33.59988,3.0947 -2.17734,1.35619 -2.29803,2.42867 -4.89051,43.45856 -0.62745,9.93026 -2.31098,25.86957 -2.81934,26.69295 -0.69417,1.12431 -3.44715,17.5613 -4.15486,24.80705 -1.18026,12.08387 -3.61901,56.50405 -4.09018,74.5 -0.26641,10.175 -0.90731,26.6 -1.42423,36.5 -0.51692,9.9 -0.96809,24.47161 -1.0026,32.38136 -0.0345,7.90975 -0.32012,14.79782 -0.63471,15.30683 -1.08792,1.7603 0.61894,5.81181 2.44845,5.81181 0.98673,0 5.59065,-1.95325 10.23095,-4.34056 z M 376.98896,675.50571 C 379.94603,673.97655 383,670.40536 383,668.47663 c 0,-0.59309 -3.37749,-1.56493 -7.50552,-2.15963 -4.12804,-0.5947 -8.17804,-1.63942 -9,-2.32158 -1.99973,-1.65963 -1.88884,-4.59622 0.25552,-6.76687 1.535,-1.55382 4.25,-7.65428 4.25,-9.54955 0,-1.98842 -5.44634,-0.27055 -8.82789,2.78447 -7.66521,6.92506 -7.65255,16.40156 0.0307,22.97814 4.6791,4.00513 9.68204,4.70353 14.78614,2.0641 z m 67.32678,0.3721 c 1.20134,-0.6172 3.42176,-2.27639 4.93426,-3.68709 2.39561,-2.23437 2.75,-3.3204 2.75,-8.42747 0,-6.28537 -1.40856,-9.95476 -5.16919,-13.46604 -2.31536,-2.16185 -9.01965,-3.44171 -10.4638,-1.99756 -0.38701,0.38702 0.72208,2.68899 2.46466,5.11549 3.6418,5.07111 4.20032,9.96219 1.31399,11.5069 -1.01988,0.54583 -4.84488,1.2988 -8.5,1.67328 -7.92993,0.81245 -8.62992,2.45529 -3.11086,7.30109 2.95187,2.59178 4.36444,3.10359 8.56574,3.10359 2.76702,0 6.01386,-0.50498 7.2152,-1.12219 z M 414.81823,649.18468 C 415.15509,645.67531 413.66675,643 411.37756,643 410.38864,643 410,644.43022 410,648.06955 c 0,4.68533 0.17053,5.04533 2.25,4.75 1.7354,-0.24647 2.32278,-1.0778 2.56823,-3.63487 z M 398,648.05902 c 0,-3.46645 -1.29631,-4.61184 -2.95609,-2.61193 -0.87644,1.05604 -0.89667,1.95952 -0.0781,3.48899 1.58513,2.96184 3.03421,2.54297 3.03421,-0.87706 z m 187.81144,-12.09798 c 1.97239,-1.83756 2.19052,-3.04752 2.20844,-12.25 0.0109,-5.61607 0.70743,-16.28604 1.54777,-23.71104 0.84034,-7.425 1.9024,-17.1 2.36013,-21.5 0.45773,-4.4 1.30769,-10.7 1.88879,-14 0.5811,-3.3 1.57403,-9.15 2.20649,-13 0.63247,-3.85 1.5592,-9.475 2.05939,-12.5 0.50019,-3.025 1.12107,-7.075 1.37973,-9 1.68182,-12.51652 5.37133,-28.95188 7.31428,-32.58232 0.59909,-1.1194 1.83738,-6.05881 2.75175,-10.97647 0.91438,-4.91767 2.02796,-10.74121 2.47462,-12.94121 0.44666,-2.2 1.75446,-8.95 2.90622,-15 1.15176,-6.05 2.51307,-13.025 3.02514,-15.5 2.06241,-9.96842 3.33392,-20.79563 2.72642,-23.21609 -0.76071,-3.03092 -3.07555,-4.16739 -5.66533,-2.78139 -2.25492,1.2068 -2.84814,2.94303 -4.00332,11.71675 -0.49103,3.7294 -1.37922,9.03073 -1.97376,11.78073 -0.59454,2.75 -1.91848,10.52059 -2.94207,17.26798 -1.0236,6.74739 -2.28702,12.82239 -2.80761,13.5 -0.52059,0.67761 -1.51789,4.60702 -2.21621,8.73202 -0.69833,4.125 -1.85345,9.525 -2.56693,12 -0.71349,2.475 -1.58484,5.625 -1.93633,7 -0.35149,1.375 -1.73908,6.60554 -3.08352,11.62342 -2.26715,8.46168 -4.70662,22.76718 -7.93795,46.5495 -0.72285,5.32011 -1.59493,10.12704 -1.93796,10.68207 -0.34302,0.55502 -0.81713,3.62721 -1.05357,6.82707 -0.23644,3.19987 -0.94303,12.34294 -1.5702,20.31794 -0.62717,7.975 -1.08097,15.5125 -1.00844,16.75 0.0725,1.2375 0.0793,3.2625 0.015,4.5 -0.30328,5.83736 0.10145,20.06044 0.5935,20.8566 0.90447,1.46345 2.91683,1.02398 5.24556,-1.14556 z m -355.74823,-2.5372 c 1.0755,-1.29591 1.08043,-4.98555 0.0277,-20.75 C 229.3867,602.12823 228.69006,590.575 228.54282,587 c -0.36696,-8.91008 -2.3578,-27.53286 -3.52782,-33 -0.52967,-2.475 -1.16608,-6.525 -1.41424,-9 -0.24815,-2.475 -2.28484,-13.42156 -4.52598,-24.3257 C 216.83365,509.77017 215,499.78423 215,498.48332 c 0,-1.30091 -0.39049,-2.60662 -0.86775,-2.90158 -0.47726,-0.29497 -1.64915,-4.48402 -2.60421,-9.30902 -0.95506,-4.825 -2.61129,-12.82272 -3.68052,-17.77272 -4.21164,-19.49785 -6.72493,-32.35227 -7.82077,-40 -2.11011,-14.7262 -4.42662,-18.90281 -8.57479,-15.46013 -1.70653,1.41629 -1.89083,11.61593 -0.35163,19.46013 0.53961,2.75 1.38439,7.25 1.8773,10 0.49291,2.75 2.07328,10.4 3.51193,17 1.43865,6.6 3.42262,15.86813 4.4088,20.59585 0.98619,4.72772 2.08859,9.07402 2.44979,9.65845 0.3612,0.58444 1.58099,5.9413 2.71065,11.90415 1.12966,5.96285 3.15228,16.01655 4.49472,22.34155 2.65579,12.51292 7.06193,44.71368 7.86791,57.5 0.27736,4.4 1.01198,12.95 1.6325,19 0.62052,6.05 1.22675,15.44913 1.34718,20.88697 0.1987,8.97232 0.4318,10.05931 2.51971,11.75 2.81147,2.27659 4.42839,2.3521 6.14239,0.28687 z m -36.66695,-8.01408 C 194.20903,623.2917 193.30127,622 191,622 c -2.50006,0 -3.46279,1.73744 -1.96365,3.5438 1.58837,1.91386 3.59776,1.85208 4.35991,-0.13404 z m 423.82547,-4.87003 c 17.38891,-8.46022 17.90814,-8.89696 17.94693,-15.09598 0.041,-6.55484 1.84371,-17.44375 2.88787,-17.44375 2.34826,0 3.94347,4.78914 3.94347,11.83908 0,7.15436 0.0729,7.37732 2.25,6.87736 4.03611,-0.92689 12.73073,-4.51721 16.02669,-6.61799 1.77282,-1.12996 4.66603,-2.81328 6.42935,-3.74071 5.80901,-3.05529 5.11461,-7.19608 -1.54119,-9.1902 -2.17422,-0.65141 -5.52594,-2.80368 -7.44826,-4.78281 -4.56368,-4.69853 -5.42671,-9.60166 -2.73439,-15.53482 2.37255,-5.22848 2.50222,-7.71329 0.54811,-10.50317 -0.80832,-1.15405 -2.20005,-4.29167 -3.09273,-6.9725 -0.89268,-2.68083 -2.18248,-5.45932 -2.86622,-6.17443 -2.53607,-2.65239 -3.58875,1.25635 -6.10108,22.65417 -0.28116,2.39468 -0.952,5.1776 -1.49074,6.18425 -0.53875,1.00666 -0.97954,2.69013 -0.97954,3.74104 0,1.05092 -0.85673,2.68608 -1.90384,3.6337 -1.85426,1.67809 -1.89359,1.57147 -1.51029,-4.09501 0.76091,-11.24908 3.53141,-34.90368 5.01497,-42.81796 0.8248,-4.4 1.96971,-10.475 2.54426,-13.5 0.57455,-3.025 1.63469,-7.3 2.35587,-9.5 0.72118,-2.2 2.06103,-6.7 2.97744,-10 0.91642,-3.3 2.51508,-8.25 3.55259,-11 1.0375,-2.75 2.63321,-7.25 3.546,-10 0.9128,-2.75 2.44735,-6.125 3.41012,-7.5 0.96277,-1.375 2.08404,-3.625 2.49171,-5 0.40768,-1.375 2.43017,-5.875 4.49443,-10 C 674.76093,442.43626 677,437.48766 677,436.04987 c 0,-0.78013 0.83204,-3.248 1.84898,-5.48415 1.94887,-4.28537 4.15102,-14.31585 4.15102,-18.9073 0,-1.59067 -0.67589,-2.98055 -1.62688,-3.34548 -2.72531,-1.0458 -45.88128,4.78623 -47.49669,6.41863 -0.72464,0.73226 -1.26117,3.38623 -4.40074,21.76843 -3.16949,18.55743 -4.53823,26.25632 -5.42242,30.5 -2.25592,10.82742 -3.05089,14.18713 -3.54677,14.98948 -0.29091,0.47071 -0.97123,3.02814 -1.51181,5.68318 -2.76325,13.57161 -4.94526,23.42532 -6.38353,28.82734 -0.87862,3.3 -2.31278,10.5 -3.18702,16 -1.55296,9.76982 -2.49202,15.344 -4.46438,26.5 C 602.34954,573.76383 600,600.43839 600,615.3086 600,626.27746 600.12185,627 601.97173,627 c 1.08446,0 7.94696,-2.90712 15.25,-6.46027 z m -406.38372,-1.53431 c 0.78214,-3.78674 0.90051,-6.64111 0.3214,-7.75 -0.80842,-1.54797 -1.73692,-9.96202 -2.67661,-24.25542 -1.44959,-22.04942 -4.73103,-44.14221 -10.54561,-71 -1.13119,-5.225 -2.43226,-11.975 -2.89127,-15 -0.45901,-3.025 -2.26753,-11.125 -4.01894,-18 -3.39095,-13.31084 -7.72268,-33.25267 -9.01456,-41.5 -0.43077,-2.75 -1.58482,-10.175 -2.56457,-16.5 -2.06347,-13.32122 -3.41664,-15.57116 -9.784,-16.26801 -17.34646,-1.89839 -32.62803,-3.98205 -35.06307,-4.78088 -4.32743,-1.41964 -5.39607,-1.19317 -7.17403,1.52034 -1.53374,2.34079 -1.42572,3.09415 2.04337,14.25 4.65218,14.96044 8.88346,25.65999 14.14913,35.77855 2.28974,4.4 5.16052,10.475 6.37951,13.5 1.21898,3.025 3.09662,7.6751 4.17253,10.33355 2.2022,5.44141 7.67964,23.58932 10.3122,34.16645 1.99003,7.99559 3.81049,18.94387 5.90288,35.5 2.9317,23.19721 3.63272,31.77128 3.62328,44.31574 -0.005,7.04866 0.4517,13.67777 1.01556,14.73137 0.56387,1.05359 4.27637,3.44537 8.25,5.31505 3.97364,1.86968 8.77472,4.57807 10.66907,6.01863 1.89435,1.44057 4.14435,2.63516 5,2.65465 0.85565,0.0195 2.68072,0.67854 4.05572,1.46456 5.05504,2.88972 6.48179,2.07157 7.83801,-4.49458 z m 163.99568,-9.86334 c 0.21065,-1.48843 -0.5956,-3.33221 -2.18638,-5 -1.38604,-1.45315 -3.00211,-3.91783 -3.59126,-5.47708 -1.17315,-3.10488 0.16072,-5.75016 5.3337,-10.57758 1.97918,-1.84698 2.32506,-2.72613 1.47532,-3.75 -1.57176,-1.89385 -4.53718,-1.66454 -10.51493,0.8131 -4.71353,1.95365 -5.28745,2.54345 -6.26933,6.44282 -1.70007,6.75162 -1.33087,9.95602 1.54024,13.36815 3.10119,3.68555 9.06554,7.08186 11.87895,6.76427 1.25378,-0.14153 2.1245,-1.10552 2.33369,-2.58368 z m 38.6472,0.87904 c 1.59036,-1.75733 1.65122,-2.47762 0.54362,-6.43359 -1.16173,-4.14927 -1.08266,-6.52382 0.51971,-15.6078 0.49399,-2.80053 0.1939,-3.90675 -1.46776,-5.41054 -1.1488,-1.03964 -2.41466,-1.56433 -2.81302,-1.16596 -0.80491,0.80491 -1.51824,27.37027 -0.78802,29.34677 0.6587,1.78292 1.94398,1.54904 4.00547,-0.72888 z m 33.53534,-2.15729 c 4.74691,-4.89136 5.64714,-7.70634 4.10768,-12.8446 C 449.73064,590.36891 443.01057,584 439.49712,584 c -3.16609,0 -3.16527,1.70581 0.003,6 3.60848,4.89102 3.17993,7.09487 -2.61193,13.43209 -6.00714,6.57277 -5.60301,8.56791 1.73549,8.56791 3.81882,0 4.89188,-0.52884 8.39267,-4.13617 z M 168.02381,600.5 c 1.4898,-7.47562 -1.33421,-49.1557 -3.95941,-58.4375 -1.07246,-3.79187 -2.75448,-3.53272 -4.12598,0.63571 -0.68798,2.09099 -2.37302,5.50086 -3.74454,7.57749 l -2.49367,3.7757 2.03925,8.2243 2.03926,8.2243 -2.01356,4.75245 c -1.7594,4.15259 -2.94452,5.28212 -9.38936,8.94896 -4.05669,2.30808 -7.3758,4.50357 -7.3758,4.87886 0,1.08448 6.05028,5.34888 11.5,8.10551 2.75,1.39103 6.8,3.45326 9,4.58274 5.46023,2.80328 7.78118,2.45787 8.52381,-1.26852 z m 230.58036,-15.22917 c -0.33229,-0.33229 -0.56864,0.25834 -0.52522,1.3125 0.048,1.16495 0.28494,1.4019 0.60416,0.60417 0.28887,-0.72187 0.25335,-1.58438 -0.0789,-1.91667 z m 15.87196,-34.55947 c 2.10535,-5.03879 0.90746,-30.05424 -1.54548,-32.27412 -1.63491,-1.47957 -1.85452,-1.44801 -2.84854,0.40934 -1.2595,2.35339 -1.91777,32.05194 -0.75148,33.90342 1.41241,2.24219 3.7426,1.31898 5.1455,-2.03864 z m -14.00078,-0.63369 c 1.09944,-3.46404 1.09118,-33.90769 -0.01,-35.01015 -0.71301,-0.71416 -2.18807,-0.2148 -4.75,1.60804 -3.92825,2.79499 -4.84658,6.34314 -2.6864,10.37948 0.70917,1.32508 0.69048,4.64926 -0.0601,10.68426 l -1.08952,8.7607 3.07584,2.75 c 3.639,3.2535 4.69925,3.41248 5.51964,0.82767 z m 48.28616,-3.72156 c 6.16985,-4.68285 8.06242,-14.0705 4.02463,-19.96326 -2.84162,-4.14708 -11.20192,-8.7563 -14.41818,-7.94907 -3.20076,0.80334 -2.97799,2.60835 0.7552,6.11913 2.86805,2.69718 5.87684,7.99312 5.87684,10.34415 0,0.53422 -1.8,3.05104 -4,5.59294 -3.81259,4.4051 -4.87263,7.29404 -3.26595,8.90072 1.28038,1.28037 7.64397,-0.47657 11.02746,-3.04461 z m -75.92482,-0.23689 c 0.25067,-1.77253 -0.99797,-3.73222 -4.88745,-7.67062 -4.0171,-4.06763 -5.04478,-5.71252 -4.44784,-7.11922 0.42696,-1.00616 0.85762,-2.5357 0.95703,-3.39897 0.0994,-0.86327 1.16193,-2.55077 2.36116,-3.75 4.79147,-4.79147 1.69958,-7.38835 -5.17572,-4.34707 -5.47338,2.42113 -7.52056,5.95602 -7.83763,13.53337 -0.2036,4.86538 0.14034,6.00172 2.82588,9.33645 5.0465,6.2664 15.49012,8.46801 16.20457,3.41606 z m 30.08963,-56.98154 c 1.29525,-2.4202 -0.19406,-12.05991 -2.04426,-13.23174 C 396.9893,473.44049 387,476.00073 387,479.4639 c 0,1.49886 11.79494,11.36207 13.71482,11.46866 0.66815,0.0371 1.66332,-0.77061 2.2115,-1.79488 z m 14.52072,-5.53858 c 5.04102,-4.62816 5.19029,-6.02609 0.82084,-7.68735 -1.88983,-0.71851 -3.14172,-0.56921 -4.90286,0.58473 -1.96232,1.28577 -2.36502,2.39706 -2.36502,6.52657 0,2.73732 0.37205,4.97695 0.82677,4.97695 0.45473,0 2.98385,-1.98041 5.62027,-4.4009 z m -50.64485,-2.85224 c 0.16621,-0.84008 -1.74629,-3.206 -4.25,-5.2576 -4.73658,-3.88128 -5.64801,-6.60838 -3.28749,-9.83659 0.90851,-1.24245 3.3025,-1.90042 8.5,-2.33616 8.44523,-0.70802 9.03841,-1.79495 3.19105,-5.84718 -5.45796,-3.78236 -11.32346,-3.8153 -16.94498,-0.0951 -2.25023,1.48913 -4.5232,3.84342 -5.05105,5.23176 -1.39255,3.6627 -1.1509,9.51158 0.51208,12.39406 0.79328,1.375 1.90051,3.5125 2.46051,4.75 0.68522,1.51419 1.9256,2.27299 3.79294,2.32029 1.52611,0.0387 3.67475,0.42699 4.77475,0.86296 2.51639,0.99734 5.90489,-0.17821 6.30219,-2.18639 z M 451.55853,483 c 3.62873,0 10.44264,-9.03483 10.43773,-13.8398 -0.007,-7.14771 -6.86171,-14.14868 -13.86011,-14.15646 -3.69258,-0.004 -10.72413,3.48017 -11.59308,5.74461 -0.96947,2.52642 0.44494,3.25165 6.34163,3.25165 4.70112,0 6.14862,0.41575 7.83374,2.25 2.65506,2.89003 1.81861,5.16255 -3.59023,9.7541 -2.26499,1.92274 -4.12043,4.2504 -4.12319,5.17258 -0.005,1.73243 2.49159,2.87275 4.82677,2.20446 C 448.56427,483.17151 450.24131,483 451.55853,483 z M 626,429 c 0,-0.55 -0.45,-1 -1,-1 -0.55,0 -1,0.45 -1,1 0,0.55 0.45,1 1,1 0.55,0 1,-0.45 1,-1 z m -99.73341,268.18592 c -0.82161,-0.52188 0.68083,-1.90572 4.5,-4.14479 3.15337,-1.84873 7.30841,-4.37518 9.23341,-5.61433 3.85951,-2.48442 15.89186,-9.18635 29,-16.15277 4.675,-2.48457 9.175,-5.06209 10,-5.72783 0.825,-0.66574 3.975,-2.47091 7,-4.0115 3.025,-1.54058 6.57319,-3.64113 7.88486,-4.66788 1.31167,-1.02675 2.95017,-1.86682 3.64112,-1.86682 0.69094,0 3.44275,-1.81331 6.11514,-4.02958 2.67238,-2.21628 9.00201,-6.15378 14.06583,-8.75 5.06382,-2.59623 11.26617,-5.84542 13.78301,-7.22042 2.51683,-1.375 16.07914,-8.34994 30.13846,-15.49986 14.05931,-7.14993 25.77102,-13.33743 26.026,-13.75 0.25499,-0.41258 1.44956,-0.75015 2.6546,-0.75017 1.29888,-2e-5 3.31069,-1.40335 4.94098,-3.44657 4.78482,-5.99676 3.58189,-8.7478 -6.32182,-14.45772 C 685.02105,584.84306 681.44837,583 680.98888,583 c -0.45949,0 -2.10746,-1.06169 -3.66215,-2.35931 -1.5547,-1.29761 -4.28923,-3.10917 -6.07673,-4.02568 -3.80445,-1.95065 -4.02874,-3.61891 -1.11945,-8.32624 1.78931,-2.89517 2.04738,-4.48341 1.61127,-9.91634 -0.2856,-3.55797 -1.17725,-7.2348 -1.98145,-8.17073 -0.80421,-0.93594 -2.51857,-4.4017 -3.80971,-7.7017 -1.29113,-3.3 -3.38322,-7.14962 -4.64909,-8.55472 -3.66768,-4.07108 -3.12563,-9.29875 3.20864,-30.94528 0.72424,-2.475 2.4494,-7.425 3.83369,-11 1.3843,-3.575 3.64627,-9.58479 5.02661,-13.35509 1.38035,-3.7703 3.1982,-7.61584 4.03967,-8.54566 0.84147,-0.92981 2.92976,-4.82003 4.64065,-8.64491 C 687.59086,449.06894 692.22024,440 693.00252,440 c 1.11415,0 1.9667,3.84778 1.99412,9 0.0216,4.05065 2.18278,15.77006 4.88696,26.5 0.55445,2.2 1.23814,6.925 1.5193,10.5 0.28117,3.575 0.98234,8.75 1.55817,11.5 0.57582,2.75 1.19265,6.8 1.37074,9 0.17809,2.2 0.84614,5.82895 1.48455,8.06433 0.6384,2.23538 1.58836,6.73538 2.11102,10 0.52265,3.26462 2.10059,12.46067 3.50653,20.43567 1.40594,7.975 2.57278,16.075 2.59298,18 0.0202,1.925 0.6665,4.33124 1.43623,5.3472 0.76973,1.01596 1.17674,2.42774 0.90446,3.13729 -0.52318,1.36339 2.25393,16.09408 3.3766,17.9106 0.36232,0.58625 0.55754,3.6291 0.43382,6.76189 -0.12372,3.13279 0.23562,5.98062 0.79853,6.32851 0.56291,0.3479 1.02347,2.25805 1.02347,4.24479 0,1.98673 0.66094,4.34256 1.46874,5.23518 1.01493,1.12149 1.59421,4.69912 1.87478,11.57874 0.22332,5.47569 0.73553,10.7433 1.13825,11.7058 0.40271,0.9625 0.46414,2.44858 0.1365,3.3024 -0.32764,0.85381 0.0254,2.54131 0.78461,3.75 0.75918,1.20868 1.69852,4.4476 2.08742,7.1976 0.3889,2.75 1.05033,5.675 1.46984,6.5 1.11056,2.184 2.12975,11.00118 1.27073,10.99326 -1.6577,-0.0153 -14.30556,-8.90206 -20.58919,-14.46658 -7.6858,-6.80625 -16.92396,-17.90142 -20.42161,-24.52668 -3.69906,-7.00677 -4.2039,-7.31895 -8.78294,-5.43121 -9.64806,3.97748 -18.57111,8.61679 -19.06908,9.91447 -1.17911,3.0727 17.00972,24.59225 23.71802,28.06125 1.54799,0.80049 3.17439,2.0627 3.61423,2.8049 0.43983,0.74221 3.56077,3.22164 6.93542,5.50986 6.23654,4.22877 9.01598,6.82237 8.19307,7.64527 -0.59045,0.59046 -15.42226,-4.66758 -19.32879,-6.85226 -4.41815,-2.4708 -5.54746,-3.07711 -10.5,-5.63727 -7.24719,-3.74636 -15.89259,-10.87401 -20.70307,-17.06854 -2.45978,-3.16749 -5.32692,-5.98255 -6.37141,-6.2557 C 644.75479,639.6001 623,652.31896 623,655.84803 c 0,5.7451 14.02718,19.6894 26.79656,26.63823 2.9131,1.58525 6.9631,4.35562 9,6.15638 3.15973,2.79343 3.40981,3.29712 1.70344,3.43089 -11.07005,0.86778 -39.08781,-10.39813 -45,-18.09446 -1.65,-2.14793 -4.6926,-5.11165 -6.76134,-6.58605 l -3.76134,-2.68074 -6.47449,3.39386 c -8.64484,4.53153 -23.00681,12.16379 -35.55345,18.89386 -5.6394,3.025 -12.54754,6.72996 -15.35142,8.23325 -4.25433,2.28093 -6.33909,2.73348 -12.59796,2.73468 -4.125,8e-4 -8.05504,-0.35111 -8.73341,-0.78201 z m 137.00424,-4.79009 c 0.33229,-0.33229 1.1948,-0.36781 1.91667,-0.0789 0.79773,0.31922 0.56078,0.55618 -0.60417,0.60416 -1.05416,0.0434 -1.64479,-0.19293 -1.3125,-0.52522 z M 200.5,349 c -0.34913,-1.1 -1.27945,-2 -2.06739,-2 C 197.64468,347 197,346.55 197,346 c 0,-1.29827 2.60801,-1.28015 5.06574,0.0352 2.24047,1.19907 2.62096,4.96482 0.50165,4.96482 -0.78794,0 -1.71826,-0.9 -2.06739,-2 z m -6.5,-8.5 c 0,-0.825 0.45,-1.5 1,-1.5 0.55,0 1,0.675 1,1.5 0,0.825 -0.45,1.5 -1,1.5 -0.55,0 -1,-0.675 -1,-1.5 z m -5.55385,-6.58713 c -0.36954,-0.59793 -0.27983,-1.47919 0.19934,-1.95836 1.18268,-1.18268 3.78562,0.53891 2.92361,1.93369 -0.87355,1.41342 -2.25789,1.42436 -3.12295,0.0247 z M 459,322.55902 C 459,321.70156 459.45,321 460,321 c 0.55,0 1,0.42344 1,0.94098 0,0.51754 -0.45,1.2191 -1,1.55902 -0.55,0.33992 -1,-0.0835 -1,-0.94098 z M 384.82106,179.43576 c -9.17341,-0.75912 -22.67341,-2.53787 -30,-3.95279 -7.32658,-1.41492 -15.34606,-2.94363 -17.82106,-3.39713 -10.63772,-1.9492 -47.82188,-11.31255 -54,-13.59776 -4.19103,-1.55021 -14.76284,-5.03309 -21,-6.91845 -8.19544,-2.4773 -27.85989,-11.05232 -27.6784,-12.06963 0.0981,-0.55 1.9784,-0.8705 4.1784,-0.71223 5.13687,0.36956 12.38081,2.34737 10.74377,2.93337 -0.69093,0.24732 -0.98523,0.88817 -0.654,1.42411 0.34112,0.55195 1.14155,0.23686 1.84615,-0.72673 0.96232,-1.31605 2.06523,-1.54709 4.87186,-1.02056 1.99536,0.37433 4.28465,1.33733 5.08731,2.13999 1.34358,1.34358 22.83678,7.46205 26.21298,7.46205 0.8101,0 2.77614,0.96351 4.36896,2.14114 2.16952,1.604 3.76731,1.99975 6.36902,1.57756 2.32178,-0.37678 4.58025,0.0248 6.81346,1.21148 1.83727,0.97629 7.16549,2.32021 11.84049,2.9865 4.675,0.66628 10.80631,1.86289 13.62514,2.65911 2.81883,0.79623 8.2997,1.84631 12.17972,2.3335 3.88001,0.48719 7.61317,1.23103 8.29589,1.65298 0.68272,0.42194 3.97685,0.89303 7.32028,1.04686 3.34343,0.15383 13.05397,0.72104 21.57897,1.26047 8.525,0.53943 22.25,0.98081 30.5,0.98084 8.25,4e-5 16.9125,-3.9e-4 19.25,-9.4e-4 2.3375,-5.6e-4 4.8125,0.0241 5.5,0.0548 1.06224,0.0474 10.65102,-0.85357 24.75,-2.32561 1.925,-0.20098 7.1,-0.70026 11.5,-1.10951 4.4,-0.40925 8.80107,-1.15533 9.78016,-1.65796 0.97909,-0.50263 3.00409,-1.08355 4.5,-1.29094 14.0645,-1.94986 23.44889,-3.71804 26.50075,-4.99319 2.01017,-0.8399 4.81223,-1.52709 6.22681,-1.52709 1.41458,0 4.24153,-0.81618 6.28212,-1.81373 2.04059,-0.99755 6.18516,-2.36309 9.21016,-3.03455 6.48242,-1.43888 21.75078,-6.02264 24.23643,-7.27609 0.95504,-0.48159 2.43989,-0.87563 3.29966,-0.87563 0.85978,0 2.88195,-0.68194 4.49372,-1.51542 5.31315,-2.74753 13.1934,-4.30273 16.30532,-3.21791 2.76764,0.96481 2.5877,1.11905 -6.54789,5.6127 -12.13823,5.97061 -17.6952,8.44004 -26.28724,11.68166 -3.85,1.45254 -9.7,3.6642 -13,4.91481 -22.79063,8.63701 -48.41338,14.93439 -73.5,18.06433 -16.76533,2.09173 -57.07217,2.55945 -77.17894,0.89559 z"
       id="path3007"
       inkscape:connector-curvature="0" />
  </g>
</svg>
