<?xml version="1.0" encoding="UTF-8" standalone="no"?>
<!-- Created with Inkscape (http://www.inkscape.org/) -->

<svg
   xmlns:dc="http://purl.org/dc/elements/1.1/"
   xmlns:cc="http://creativecommons.org/ns#"
   xmlns:rdf="http://www.w3.org/1999/02/22-rdf-syntax-ns#"
   xmlns:svg="http://www.w3.org/2000/svg"
   xmlns="http://www.w3.org/2000/svg"
   xmlns:sodipodi="http://sodipodi.sourceforge.net/DTD/sodipodi-0.dtd"
   xmlns:inkscape="http://www.inkscape.org/namespaces/inkscape"
   width="1024"
   height="1024"
   id="svg2"
   version="1.1"
   inkscape:version="0.48.4 r9939"
   sodipodi:docname="Magician Torso.svg">
  <defs
     id="defs4" />
  <sodipodi:namedview
     id="base"
     pagecolor="#ffffff"
     bordercolor="#666666"
     borderopacity="1.0"
     inkscape:pageopacity="0.0"
     inkscape:pageshadow="2"
     inkscape:zoom="0.35"
     inkscape:cx="-265.22223"
     inkscape:cy="437.12602"
     inkscape:document-units="px"
     inkscape:current-layer="layer1"
     showgrid="false"
     inkscape:window-width="1366"
     inkscape:window-height="705"
     inkscape:window-x="-8"
     inkscape:window-y="-8"
     inkscape:window-maximized="1" />
  <metadata
     id="metadata7">
    <rdf:RDF>
      <cc:Work
         rdf:about="">
        <dc:format>image/svg+xml</dc:format>
        <dc:type
           rdf:resource="http://purl.org/dc/dcmitype/StillImage" />
        <dc:title></dc:title>
      </cc:Work>
    </rdf:RDF>
  </metadata>
  <g
     inkscape:label="Layer 1"
     inkscape:groupmode="layer"
     id="layer1"
     transform="translate(0,-28.362183)">
    <g
       id="g3345"
       transform="matrix(4.9172764,0,0,4.9172764,-1930.2899,-1924.2789)">
      <path
         inkscape:connector-curvature="0"
         id="path3332"
         d="m 552.80598,600.57146 -110.86424,0 21.46574,-38.13326 73.4886,-1.01015 z"
         style="fill:#b30006;fill-opacity:1;stroke:#b30006;stroke-width:1px;stroke-linecap:butt;stroke-linejoin:miter;stroke-opacity:1" />
      <path
         inkscape:connector-curvature="0"
         id="path3330"
         d="m 455.53572,450.04075 80.17857,0 -6.78572,111.60715 -65.71428,0 z"
         style="fill:#ffffff;stroke:#ffffff;stroke-width:1px;stroke-linecap:butt;stroke-linejoin:miter;stroke-opacity:1" />
      <path
         inkscape:connector-curvature="0"
         id="path3328"
         d="m 466.78572,462.18361 1.96428,-1.60714 10,-1.07143 9.46429,3.39286 5.71428,-3.21429 4.10715,0.71429 3.57142,1.60714 7.67858,-2.67857 8.75,-0.35715 3.03571,1.07143 2.32143,7.32143 -0.35714,8.21429 -4.10715,5.35714 -6.25,0.89286 -5.17857,-1.60715 -5,-4.46428 -2.14286,-5.17857 -2.67857,2.85714 -4.28571,1.60714 -3.39286,-1.25 -2.67857,-2.32143 -5,7.67858 -7.85714,3.21428 -6.42857,-2.14286 -3.57143,-8.03571 -0.35715,-7.67857 z"
         style="fill:#b30006;fill-opacity:1;stroke:#b30006;stroke-width:1px;stroke-linecap:butt;stroke-linejoin:miter;stroke-opacity:1" />
      <path
         sodipodi:nodetypes="cc"
         inkscape:connector-curvature="0"
         id="path3308-1"
         d="m 458.35068,450.21918 c 32.5,96.78571 -8.21429,150 -8.21429,150 l -51.78571,0 28.21428,-150 z"
         style="fill:#000000;stroke:#000000;stroke-width:1px;stroke-linecap:butt;stroke-linejoin:miter;stroke-opacity:1" />
      <path
         sodipodi:nodetypes="cssccccccccccc"
         inkscape:connector-curvature="0"
         id="path3058"
         d="m 446.07143,597.71932 c 0,0 5.71429,-25.35714 -5.35714,-59.28571 -11.07143,-33.92857 -8.21429,-30.71429 -4.28572,-32.5 3.92857,-1.78571 12.5,-6.78571 12.5,-6.78571 l -12.5,-11.07143 c 0,0 2.85714,-32.14286 8.21429,-37.85715 l 3.57143,0 c 0,0 -7.85715,26.78572 -6.07143,37.14286 l 9.64787,11.18387 6.31345,-5.05076 c -0.93202,3.09046 -1.4616,4.25512 -1.26269,10.10152 -5.14035,-0.73434 -12.37161,0.097 -16.76748,4.49283 0,0 19.79794,70.76354 9.44387,91.21913 -1.75589,1.44317 -3.54628,2.99846 -3.44645,-1.58945 z"
         style="fill:#ffffff;stroke:#ffffff;stroke-width:1px;stroke-linecap:butt;stroke-linejoin:miter;stroke-opacity:1" />
      <path
         sodipodi:nodetypes="cssc"
         inkscape:connector-curvature="0"
         id="path3060"
         d="m 419.21331,570.01434 c 0,0 14.64721,-4.79822 22.98097,-2.77792 8.33376,2.02031 -5.94725,-7.04145 -20.20305,-1.01015 -6.566,2.77792 -7.57615,6.31345 -2.77792,3.78807 z"
         style="fill:#ffffff;stroke:#ffffff;stroke-width:1px;stroke-linecap:butt;stroke-linejoin:miter;stroke-opacity:1" />
      <path
         sodipodi:nodetypes="cccc"
         inkscape:connector-curvature="0"
         id="path3062"
         d="m 455.07372,590.46993 c 0,0 45.45687,2.02031 63.89215,-3.283 -15.40483,1.01015 -60.86169,-0.75761 -60.86169,-0.75761 z"
         style="fill:#000000;stroke:#000000;stroke-width:1px;stroke-linecap:butt;stroke-linejoin:miter;stroke-opacity:1" />
      <path
         inkscape:connector-curvature="0"
         id="path3064"
         d="m 487.14607,593.24785 c 0,0 37.62818,1.76777 43.94163,0 6.31345,-1.76777 -15.65736,11.61675 -43.94163,0 z"
         style="fill:#000000;stroke:#000000;stroke-width:1px;stroke-linecap:butt;stroke-linejoin:miter;stroke-opacity:1" />
      <path
         sodipodi:nodetypes="cssc"
         inkscape:connector-curvature="0"
         id="path3066"
         d="m 531.34024,573.80241 c 0,0 -18.68782,3.283 -27.7792,1.26269 -9.09137,-2.0203 15.65737,-1.01015 21.97082,-5.80837 6.31346,-4.79823 5.80838,4.54568 5.80838,4.54568 z"
         style="fill:#000000;stroke:#000000;stroke-width:1px;stroke-linecap:butt;stroke-linejoin:miter;stroke-opacity:1" />
      <path
         sodipodi:nodetypes="cscc"
         inkscape:connector-curvature="0"
         id="path3070"
         d="m 470.71429,561.0229 c 0,0 5.26785,-1.60714 6.51785,-6.33929 1.25,-4.73214 2.67858,5.26786 1.42858,6.60714 z"
         style="fill:#000000;stroke:#000000;stroke-width:1px;stroke-linecap:butt;stroke-linejoin:miter;stroke-opacity:1" />
      <path
         sodipodi:nodetypes="cssc"
         inkscape:connector-curvature="0"
         id="path3072"
         d="m 482.58929,561.82647 c 0,0 1.875,-1.42857 1.60714,-3.21428 -0.26786,-1.78572 3.125,1.87499 3.30357,3.21428 0.17857,1.33928 -4.91071,0 -4.91071,0 z"
         style="fill:#000000;stroke:#000000;stroke-width:1px;stroke-linecap:butt;stroke-linejoin:miter;stroke-opacity:1" />
      <path
         sodipodi:nodetypes="ccc"
         inkscape:connector-curvature="0"
         id="path3074"
         d="m 504.82143,561.6479 c 0,0 6.73168,-4.94368 8.03571,-9.73215 1.78571,1.96429 2.05357,7.67858 0.53572,9.73215 z"
         style="fill:#000000;stroke:#000000;stroke-width:1px;stroke-linecap:butt;stroke-linejoin:miter;stroke-opacity:1" />
      <path
         sodipodi:nodetypes="ccccc"
         inkscape:connector-curvature="0"
         id="path3076"
         d="m 461.96428,561.20147 65.89286,0 0,2.58928 -65.89285,0 z"
         style="fill:#000000;stroke:#000000;stroke-width:1px;stroke-linecap:butt;stroke-linejoin:miter;stroke-opacity:1" />
      <path
         inkscape:connector-curvature="0"
         id="path3078"
         d="m 490.6816,475.06 0,86.87312 2.77792,0 0,-86.87312 z"
         style="fill:#000000;stroke:#000000;stroke-width:1px;stroke-linecap:butt;stroke-linejoin:miter;stroke-opacity:1" />
      <path
         d="m 502.67856,484.86218 c 0,1.18347 -0.95939,2.14286 -2.14285,2.14286 -1.18347,0 -2.14286,-0.95939 -2.14286,-2.14286 0,-1.18346 0.95939,-2.14285 2.14286,-2.14285 1.18346,0 2.14285,0.95939 2.14285,2.14285 z"
         sodipodi:ry="2.1428571"
         sodipodi:rx="2.1428571"
         sodipodi:cy="484.86218"
         sodipodi:cx="500.53571"
         id="path3080"
         style="fill:#000000;fill-opacity:1;stroke:#000000;stroke-opacity:1"
         sodipodi:type="arc" />
      <path
         d="m 502.67856,484.86218 c 0,1.18347 -0.95939,2.14286 -2.14285,2.14286 -1.18347,0 -2.14286,-0.95939 -2.14286,-2.14286 0,-1.18346 0.95939,-2.14285 2.14286,-2.14285 1.18346,0 2.14285,0.95939 2.14285,2.14285 z"
         sodipodi:ry="2.1428571"
         sodipodi:rx="2.1428571"
         sodipodi:cy="484.86218"
         sodipodi:cx="500.53571"
         id="path3080-4"
         style="fill:#000000;fill-opacity:1;stroke:#000000;stroke-opacity:1"
         sodipodi:type="arc"
         transform="translate(1.5150833e-4,21.785713)" />
      <path
         d="m 502.67856,484.86218 c 0,1.18347 -0.95939,2.14286 -2.14285,2.14286 -1.18347,0 -2.14286,-0.95939 -2.14286,-2.14286 0,-1.18346 0.95939,-2.14285 2.14286,-2.14285 1.18346,0 2.14285,0.95939 2.14285,2.14285 z"
         sodipodi:ry="2.1428571"
         sodipodi:rx="2.1428571"
         sodipodi:cy="484.86218"
         sodipodi:cx="500.53571"
         id="path3080-4-0"
         style="fill:#000000;fill-opacity:1;stroke:#000000;stroke-opacity:1"
         sodipodi:type="arc"
         transform="translate(1.5150833e-4,43.214284)" />
      <path
         d="m 502.67856,484.86218 c 0,1.18347 -0.95939,2.14286 -2.14285,2.14286 -1.18347,0 -2.14286,-0.95939 -2.14286,-2.14286 0,-1.18346 0.95939,-2.14285 2.14286,-2.14285 1.18346,0 2.14285,0.95939 2.14285,2.14285 z"
         sodipodi:ry="2.1428571"
         sodipodi:rx="2.1428571"
         sodipodi:cy="484.86218"
         sodipodi:cx="500.53571"
         id="path3080-4-0-9"
         style="fill:#000000;fill-opacity:1;stroke:#000000;stroke-opacity:1"
         sodipodi:type="arc"
         transform="translate(1.5150833e-4,65.357141)" />
      <path
         id="path3157"
         d="m 511.90625,450.1875 c -6.56599,0.12627 -12.26743,4.04654 -12.75,10.21875 -0.28446,3.63821 0.22462,12.3758 2.75,15.40625 3.79303,4.35262 4.95479,7.36451 14.53125,7.0625 6.60492,-0.20829 8.82899,-10.96652 7.1875,-17.40625 -1.56846,-6.15321 -5.15275,-15.40751 -11.71875,-15.28125 z m 0,1.75 c 5.8285,-0.11208 9.01396,8.10041 10.40625,13.5625 1.45712,5.71642 -0.51195,15.28385 -6.375,15.46875 -8.50084,0.26809 -9.53926,-2.38627 -12.90625,-6.25 -2.24173,-2.69007 -2.72126,-10.45794 -2.46875,-13.6875 0.42837,-5.47895 5.51525,-8.98166 11.34375,-9.09375 z"
         style="fill:#000000;stroke:#000000;stroke-width:1px;stroke-linecap:butt;stroke-linejoin:miter;stroke-opacity:1"
         inkscape:connector-curvature="0" />
      <path
         id="path3157-8"
         d="m 476.24753,450.18785 c 6.56599,0.12627 12.26743,4.04654 12.75,10.21875 0.28446,3.63821 -0.22462,12.3758 -2.75,15.40625 -3.79303,4.35262 -4.95479,7.36451 -14.53125,7.0625 -6.60492,-0.20829 -8.82899,-10.96652 -7.1875,-17.40625 1.56846,-6.15321 5.15275,-15.40751 11.71875,-15.28125 z m 0,1.75 c -5.8285,-0.11208 -9.01396,8.10041 -10.40625,13.5625 -1.45712,5.71642 0.51195,15.28385 6.375,15.46875 8.50084,0.26809 9.53926,-2.38627 12.90625,-6.25 2.24173,-2.69007 2.72126,-10.45794 2.46875,-13.6875 -0.42837,-5.47895 -5.51525,-8.98166 -11.34375,-9.09375 z"
         style="fill:#000000;stroke:#000000;stroke-width:1px;stroke-linecap:butt;stroke-linejoin:miter;stroke-opacity:1"
         inkscape:connector-curvature="0" />
      <path
         id="path3196"
         d="m 495.625,459.09375 c -1.69123,-0.0393 -3.86686,0.68283 -6.59375,2.59375 -2.90265,2.03409 -2.27284,11.48731 0,12.75 2.27285,1.26269 12.56884,4.07203 11.9375,-9.3125 -0.18849,-2.26194 -1.62305,-5.94487 -5.34375,-6.03125 z m 0,1.21875 c 3.18597,0.074 4.43235,3.21939 4.59375,5.15625 0.54061,11.46092 -8.27255,9.04996 -10.21875,7.96875 -1.94619,-1.08122 -2.48548,-9.1645 0,-10.90625 2.33499,-1.63628 4.17683,-2.25237 5.625,-2.21875 z"
         style="fill:#000000;stroke:#000000;stroke-width:1px;stroke-linecap:butt;stroke-linejoin:miter;stroke-opacity:1"
         inkscape:connector-curvature="0" />
      <path
         inkscape:connector-curvature="0"
         id="path3217"
         d="m 523.21429,471.6479 c 0,0 -4.28572,-4.28572 -9.28572,-3.39286 -5,0.89286 4.64286,-4.28572 7.67857,-3.21429 3.03572,1.07143 2.14286,5 1.60715,6.60715 z"
         style="fill:#000000;stroke:#000000;stroke-width:1px;stroke-linecap:butt;stroke-linejoin:miter;stroke-opacity:1" />
      <path
         inkscape:connector-curvature="0"
         id="path3219"
         d="m 464.82143,471.11218 c 0,0 8.03571,-4.28571 9.82143,-1.96428 1.78571,2.32142 -6.25,0.53571 -8.57143,5.17857 -2.32143,4.64285 -1.25,-3.21429 -1.25,-3.21429 z"
         style="fill:#000000;stroke:#000000;stroke-width:1px;stroke-linecap:butt;stroke-linejoin:miter;stroke-opacity:1" />
      <path
         inkscape:connector-curvature="0"
         id="path3221"
         d="m 487.67857,463.96932 c 0,0 -1.25,2.32143 -4.46428,3.03572 -3.21429,0.71428 2.85714,0.53571 3.75,3.03571 0.89285,2.5 0.71428,-6.07143 0.71428,-6.07143 z"
         style="fill:#000000;stroke:#000000;stroke-width:1px;stroke-linecap:butt;stroke-linejoin:miter;stroke-opacity:1" />
      <path
         inkscape:connector-curvature="0"
         id="path3221-4"
         d="m 500.3455,463.74082 c 0,0 1.25,2.32143 4.46428,3.03572 3.21429,0.71428 -2.85714,0.53571 -3.75,3.03571 -0.89285,2.5 -0.71428,-6.07143 -0.71428,-6.07143 z"
         style="fill:#000000;stroke:#000000;stroke-width:1px;stroke-linecap:butt;stroke-linejoin:miter;stroke-opacity:1" />
      <path
         inkscape:connector-curvature="0"
         id="path3241"
         d="m 493.45952,474.55493 c 0,0 2.27284,-3.03046 1.51523,-4.67196 -0.75762,-1.6415 4.16688,2.27284 2.77792,3.91434 -1.38896,1.6415 -4.29315,0.75762 -4.29315,0.75762 z"
         style="fill:#000000;stroke:#000000;stroke-width:1px;stroke-linecap:butt;stroke-linejoin:miter;stroke-opacity:1" />
      <path
         inkscape:connector-curvature="0"
         id="path3243"
         d="m 521.11245,459.1501 c 0,0 -10.35407,-4.41942 -20.70813,1.76777 l -0.37881,2.65165 c 0,0 10.48033,-6.18719 20.70813,-2.90419 z"
         style="fill:#000000;stroke:#000000;stroke-width:1px;stroke-linecap:butt;stroke-linejoin:miter;stroke-opacity:1" />
      <path
         inkscape:connector-curvature="0"
         id="path3243-5"
         d="m 467.25868,459.97784 c 0,0 10.35407,-4.41942 20.70813,1.76777 l 0.37881,2.65165 c 0,0 -10.48033,-6.18719 -20.70813,-2.90419 z"
         style="fill:#000000;stroke:#000000;stroke-width:1px;stroke-linecap:butt;stroke-linejoin:miter;stroke-opacity:1" />
      <path
         sodipodi:nodetypes="cc"
         inkscape:connector-curvature="0"
         id="path3308"
         d="m 535,450.21932 c -32.5,96.78571 8.21429,150 8.21429,150 l 51.78571,0 -28.21428,-150 z"
         style="fill:#000000;stroke:#000000;stroke-width:1px;stroke-linecap:butt;stroke-linejoin:miter;stroke-opacity:1" />
      <path
         inkscape:connector-curvature="0"
         id="path3286"
         d="m 557.35167,498.8139 5.05076,-4.79822 1.01015,14.64721 -8.08122,-2.27284 c 0,0 -3.03046,-14.14214 -0.75761,-18.18275 2.27284,-4.04061 7.07107,-5.3033 7.07107,-5.3033 0,0 -6.06092,13.8896 -4.29315,15.9099 z"
         style="fill:#b30006;fill-opacity:1;stroke:#b30006;stroke-width:1px;stroke-linecap:butt;stroke-linejoin:miter;stroke-opacity:1" />
      <path
         sodipodi:nodetypes="cssccccccccccc"
         inkscape:connector-curvature="0"
         id="path3058-5"
         d="m 546.80617,597.71978 c 0,0 -5.71429,-25.35714 5.35714,-59.28571 11.07143,-33.92857 8.21429,-30.71429 4.28572,-32.5 -3.92857,-1.78571 -12.5,-6.78571 -12.5,-6.78571 l 12.5,-11.07143 c 0,0 -2.85714,-32.14286 -8.21429,-37.85715 l -3.57143,0 c 0,0 7.85715,26.78572 6.07143,37.14286 l -9.64787,11.18387 -6.31345,-5.05076 c 0.93202,3.09046 1.4616,4.25512 1.26269,10.10152 5.14035,-0.73434 12.37161,0.097 16.76748,4.49283 0,0 -19.79794,70.76354 -9.44387,91.21913 1.75589,1.44317 3.54628,2.99846 3.44645,-1.58945 z"
         style="fill:#ffffff;stroke:#ffffff;stroke-width:1px;stroke-linecap:butt;stroke-linejoin:miter;stroke-opacity:1" />
      <path
         sodipodi:nodetypes="cssc"
         inkscape:connector-curvature="0"
         id="path3060-1"
         d="m 573.66429,570.0148 c 0,0 -14.64721,-4.79822 -22.98097,-2.77792 -8.33376,2.02031 5.94725,-7.04145 20.20305,-1.01015 6.566,2.77792 7.57615,6.31345 2.77792,3.78807 z"
         style="fill:#ffffff;stroke:#ffffff;stroke-width:1px;stroke-linecap:butt;stroke-linejoin:miter;stroke-opacity:1" />
      <path
         sodipodi:nodetypes="csssc"
         inkscape:connector-curvature="0"
         id="path3284"
         d="m 555.83644,506.62727 c 0,0 10.85914,0 11.86929,3.78807 1.01015,3.78807 -1.01015,18.94036 -3.28299,20.70813 -2.27285,1.76777 1.51523,-16.16244 -3.53554,-18.18275 -5.05076,-2.0203 -5.05076,-6.31345 -5.05076,-6.31345 z"
         style="fill:#ffffff;stroke:#ffffff;stroke-width:1px;stroke-linecap:butt;stroke-linejoin:miter;stroke-opacity:1" />
      <path
         sodipodi:nodetypes="cc"
         inkscape:connector-curvature="0"
         id="path3288"
         d="m 521.96429,461.46932 c 0,0 6.96429,1.60715 12.85714,-8.39285 l -0.53571,10.35714 c 0,0 -1.25,2.67857 -11.07143,4.10714 z"
         style="fill:#000000;stroke:#000000;stroke-width:1px;stroke-linecap:butt;stroke-linejoin:miter;stroke-opacity:1" />
      <path
         sodipodi:nodetypes="cc"
         inkscape:connector-curvature="0"
         id="path3288-7"
         d="m 465.20864,461.742 c 0,0 -6.12633,1.61383 -11.31014,-8.42775 l 0.47125,10.4002 c 0,0 1.0996,2.68971 9.73929,4.12422 z"
         style="fill:#000000;stroke:#000000;stroke-width:0.93985915px;stroke-linecap:butt;stroke-linejoin:miter;stroke-opacity:1" />
    </g>
  </g>
</svg>
