<?xml version="1.0" encoding="UTF-8" standalone="no"?>
<!-- Created with Inkscape (http://www.inkscape.org/) -->

<svg
   xmlns:dc="http://purl.org/dc/elements/1.1/"
   xmlns:cc="http://creativecommons.org/ns#"
   xmlns:rdf="http://www.w3.org/1999/02/22-rdf-syntax-ns#"
   xmlns:svg="http://www.w3.org/2000/svg"
   xmlns="http://www.w3.org/2000/svg"
   xmlns:sodipodi="http://sodipodi.sourceforge.net/DTD/sodipodi-0.dtd"
   xmlns:inkscape="http://www.inkscape.org/namespaces/inkscape"
   width="1024"
   height="1024"
   id="svg2"
   version="1.1"
   inkscape:version="0.48.4 r9939"
   sodipodi:docname="Magician Face.svg">
  <defs
     id="defs4" />
  <sodipodi:namedview
     id="base"
     pagecolor="#ffffff"
     bordercolor="#666666"
     borderopacity="1.0"
     inkscape:pageopacity="0.0"
     inkscape:pageshadow="2"
     inkscape:zoom="0.35"
     inkscape:cx="1140.1263"
     inkscape:cy="556.64582"
     inkscape:document-units="px"
     inkscape:current-layer="layer1"
     showgrid="false"
     inkscape:window-width="1366"
     inkscape:window-height="705"
     inkscape:window-x="-8"
     inkscape:window-y="-8"
     inkscape:window-maximized="1" />
  <metadata
     id="metadata7">
    <rdf:RDF>
      <cc:Work
         rdf:about="">
        <dc:format>image/svg+xml</dc:format>
        <dc:type
           rdf:resource="http://purl.org/dc/dcmitype/StillImage" />
        <dc:title></dc:title>
      </cc:Work>
    </rdf:RDF>
  </metadata>
  <g
     inkscape:label="Layer 1"
     inkscape:groupmode="layer"
     id="layer1"
     transform="translate(0,-28.362183)">
    <g
       id="g3065"
       transform="matrix(6.9276541,0,0,6.9276541,-4557.7158,-1799.038)">
      <path
         sodipodi:nodetypes="ccsssc"
         inkscape:connector-curvature="0"
         id="path2996"
         d="m 779.82143,330.93361 c -1.44281,2.20955 15.27826,21.90185 -9.79605,22.48206 -8.08122,-0.25254 -14.5562,-6.72445 -19.05112,-10.01796 -6.34445,-4.64868 -16.3314,0.39304 -2.40283,7.89304 13.92857,7.5 20.4671,13.92343 38.57143,5.35715 14.78336,-6.99492 -3.39285,-33.03573 -7.32143,-25.71429 z"
         style="fill:#000000;stroke:#000000;stroke-width:1px;stroke-linecap:butt;stroke-linejoin:miter;stroke-opacity:1" />
      <path
         sodipodi:nodetypes="cccccc"
         inkscape:connector-curvature="0"
         id="path2998"
         d="m 761.82634,367.73129 c 0,0 -38.76461,5.80838 -53.03301,-7.82868 0,0 -9.21765,-2.27284 -8.5863,6.81853 0,0 2.65166,1.38896 5.80838,0.25254 2.83329,1.28785 10.85933,14.14217 56.316,5.93465 0,0 4.16689,-3.03047 -0.50507,-5.17704 z"
         style="fill:#000000;stroke:#000000;stroke-width:1px;stroke-linecap:butt;stroke-linejoin:miter;stroke-opacity:1" />
      <path
         sodipodi:nodetypes="cssc"
         inkscape:connector-curvature="0"
         id="path3000"
         d="m 720.32143,380.05344 c 0.12627,-2.0203 20.53571,1.23731 31.07143,-0.36983 10.53571,-1.60714 -11.56013,18.3982 -15.17857,18.21429 -3.70005,-0.18805 -9.32253,-4.61545 -15.89286,-17.84446 z"
         style="fill:#000000;stroke:#000000;stroke-width:1px;stroke-linecap:butt;stroke-linejoin:miter;stroke-opacity:1" />
      <path
         inkscape:connector-curvature="0"
         id="path3002"
         d="m 725.7946,287.94955 c 0,0 -3.28299,6.81853 -9.59644,1.26269 -6.31346,-5.55584 -30.30458,-14.64721 -39.39595,-4.54569 -9.09138,10.10153 -7.82869,11.11168 3.28299,5.55584 11.11168,-5.55584 23.48605,2.27284 32.32488,7.82868 8.83884,5.55584 17.93021,-1.26269 13.38452,-10.10152 z"
         style="fill:#000000;stroke:#000000;stroke-width:1px;stroke-linecap:butt;stroke-linejoin:miter;stroke-opacity:1" />
      <path
         inkscape:connector-curvature="0"
         id="path3002-1"
         d="m 737.13986,288.77294 c 0,0 5.40592,5.29588 9.45397,-2.07571 4.04805,-7.37159 23.51817,-24.07912 35.5027,-17.67094 11.98455,6.40818 11.14059,7.7875 -1.19816,6.34112 -12.33875,-1.44638 -21.31371,10.12355 -27.73665,18.35387 -6.42295,8.23032 -17.29114,4.90951 -16.02186,-4.94834 z"
         style="fill:#000000;stroke:#000000;stroke-width:1px;stroke-linecap:butt;stroke-linejoin:miter;stroke-opacity:1" />
      <path
         transform="translate(1.5152288,0)"
         d="m 769.73626,313.68814 c 0,7.11312 -5.76633,12.87945 -12.87945,12.87945 -7.11312,0 -12.87944,-5.76633 -12.87944,-12.87945 0,-7.11312 5.76632,-12.87944 12.87944,-12.87944 7.11312,0 12.87945,5.76632 12.87945,12.87944 z"
         sodipodi:ry="12.879445"
         sodipodi:rx="12.879445"
         sodipodi:cy="313.68814"
         sodipodi:cx="756.85681"
         id="path3024"
         style="fill:#000000;fill-opacity:1;stroke:#000000;stroke-opacity:1"
         sodipodi:type="arc" />
      <path
         d="m 762.9177,308.38483 c 0,2.51051 -2.03518,4.54568 -4.54569,4.54568 -2.51051,0 -4.54569,-2.03517 -4.54569,-4.54568 0,-2.51052 2.03518,-4.54569 4.54569,-4.54569 2.51051,0 4.54569,2.03517 4.54569,4.54569 z"
         sodipodi:ry="4.5456862"
         sodipodi:rx="4.5456862"
         sodipodi:cy="308.38483"
         sodipodi:cx="758.37201"
         id="path3022"
         style="fill:#ffffff;fill-opacity:1;stroke:#ffffff;stroke-opacity:1"
         sodipodi:type="arc" />
      <path
         transform="translate(-57.073635,-4.0332794e-4)"
         d="m 769.73626,313.68814 c 0,7.11312 -5.76633,12.87945 -12.87945,12.87945 -7.11312,0 -12.87944,-5.76633 -12.87944,-12.87945 0,-7.11312 5.76632,-12.87944 12.87944,-12.87944 7.11312,0 12.87945,5.76632 12.87945,12.87944 z"
         sodipodi:ry="12.879445"
         sodipodi:rx="12.879445"
         sodipodi:cy="313.68814"
         sodipodi:cx="756.85681"
         id="path3024-7"
         style="fill:#000000;fill-opacity:1;stroke:#000000;stroke-opacity:1"
         sodipodi:type="arc" />
      <path
         d="m 762.9177,308.38483 c 0,2.51051 -2.03518,4.54568 -4.54569,4.54568 -2.51051,0 -4.54569,-2.03517 -4.54569,-4.54568 0,-2.51052 2.03518,-4.54569 4.54569,-4.54569 2.51051,0 4.54569,2.03517 4.54569,4.54569 z"
         sodipodi:ry="4.5456862"
         sodipodi:rx="4.5456862"
         sodipodi:cy="308.38483"
         sodipodi:cx="758.37201"
         id="path3022-4"
         style="fill:#ffffff;fill-opacity:1;stroke:#ffffff;stroke-opacity:1"
         sodipodi:type="arc"
         transform="translate(-58.588865,-4.0332794e-4)" />
      <path
         sodipodi:nodetypes="ccsssc"
         inkscape:connector-curvature="0"
         id="path2996-0"
         d="m 684.15531,330.93385 c 1.44281,2.20955 -15.27826,21.90185 9.79605,22.48206 8.08122,-0.25254 14.5562,-6.72445 19.05112,-10.01796 6.34445,-4.64868 16.3314,0.39304 2.40283,7.89304 -13.92857,7.5 -20.4671,13.92343 -38.57143,5.35715 -14.78336,-6.99492 3.39285,-33.03573 7.32143,-25.71429 z"
         style="fill:#000000;stroke:#000000;stroke-width:1px;stroke-linecap:butt;stroke-linejoin:miter;stroke-opacity:1" />
    </g>
  </g>
</svg>
