<?xml version="1.0" encoding="UTF-8" standalone="no"?>
<!-- Created with Inkscape (http://www.inkscape.org/) -->

<svg
   xmlns:dc="http://purl.org/dc/elements/1.1/"
   xmlns:cc="http://creativecommons.org/ns#"
   xmlns:rdf="http://www.w3.org/1999/02/22-rdf-syntax-ns#"
   xmlns:svg="http://www.w3.org/2000/svg"
   xmlns="http://www.w3.org/2000/svg"
   xmlns:sodipodi="http://sodipodi.sourceforge.net/DTD/sodipodi-0.dtd"
   xmlns:inkscape="http://www.inkscape.org/namespaces/inkscape"
   width="1024"
   height="1024"
   id="svg2"
   version="1.1"
   inkscape:version="0.48.4 r9939"
   sodipodi:docname="Johnny Thunder Desert Face.svg"
   inkscape:export-filename="Johnny Thunder Desert Face.png"
   inkscape:export-xdpi="90"
   inkscape:export-ydpi="90">
  <defs
     id="defs4" />
  <sodipodi:namedview
     id="base"
     pagecolor="#ffffff"
     bordercolor="#666666"
     borderopacity="1.0"
     inkscape:pageopacity="0.0"
     inkscape:pageshadow="2"
     inkscape:zoom="0.35"
     inkscape:cx="475.40132"
     inkscape:cy="453.11554"
     inkscape:document-units="px"
     inkscape:current-layer="layer1"
     showgrid="false"
     inkscape:window-width="1366"
     inkscape:window-height="705"
     inkscape:window-x="-8"
     inkscape:window-y="-8"
     inkscape:window-maximized="1"
     showguides="true"
     inkscape:guide-bbox="true" />
  <metadata
     id="metadata7">
    <rdf:RDF>
      <cc:Work
         rdf:about="">
        <dc:format>image/svg+xml</dc:format>
        <dc:type
           rdf:resource="http://purl.org/dc/dcmitype/StillImage" />
        <dc:title></dc:title>
      </cc:Work>
    </rdf:RDF>
  </metadata>
  <g
     inkscape:label="Layer 1"
     inkscape:groupmode="layer"
     id="layer1"
     transform="translate(0,-28.362153)">
    <path
       style="fill:#000000;stroke:#000000;stroke-width:2.8196249px;stroke-linecap:butt;stroke-linejoin:miter;stroke-opacity:1"
       d="m 420.2166,308.94399 c 34.2383,-42.29437 38.00805,47.18272 10.07009,96.67286 -17.62266,31.21728 -14.38827,33.25319 6.43794,34.41578 43.15032,2.40877 92.30859,-51.45637 114.17438,-80.44212 24.21015,-32.09342 36.28014,-82.74629 52.69264,-21.36187 16.25364,60.79023 -37.02726,109.65766 1.42414,98.26466 38.45139,-11.39301 110.52828,-73.30455 121.05066,-131.01957 8.71755,-47.81553 15.31376,-51.37001 62.66154,-49.8444 59.75419,1.92539 90.31055,57.41309 89.00791,84.62808 -1.30266,27.215 -17.36541,41.09925 6.61093,40.86776 39.30134,-0.37947 55.99306,-0.82576 100.21943,-0.75526 10.15234,0.0169 14.33651,0.42683 15.25336,-37.86099 0.83428,-34.83952 -5.71388,-123.52213 -37.3483,-135.29984 -60.99279,-22.70805 -450.47131,-17.08952 -450.47131,-17.08952 0,0 -389.47854,-5.61853 -450.471335,17.08952 -31.634412,11.77771 -38.182596,100.46032 -37.348325,135.29984 0.916857,38.28782 5.101039,37.87714 15.253408,37.86099 44.226349,-0.0705 60.918082,0.37579 100.219412,0.75526 23.97634,0.23149 7.91359,-13.65276 6.61092,-40.86776 -1.30264,-27.21499 16.36288,-61.87951 74.92462,-71.09889 15.7885,-2.48558 43.30169,-5.37192 55.59074,1.90139 13.87032,8.20919 17.43366,23.3971 20.55363,40.09289 3.42878,18.34846 11.60899,48.61661 -0.97122,72.64786 -10.10898,19.31059 -34.56034,37.02725 7.45137,22.07394 42.01171,-14.95332 116.40337,-96.93061 116.40337,-96.93061 z"
       id="path2996"
       inkscape:connector-curvature="0"
       sodipodi:nodetypes="csssssssssssscssssssssssc" />
    <path
       sodipodi:type="arc"
       style="fill:#000000;fill-opacity:1;stroke:#000000;stroke-opacity:1"
       id="path3000"
       sodipodi:cx="425.7793"
       sodipodi:cy="559.66028"
       sodipodi:rx="19.697975"
       sodipodi:ry="19.697975"
       d="m 445.47727,559.66028 a 19.697975,19.697975 0 1 1 -39.39595,0 19.697975,19.697975 0 1 1 39.39595,0 z"
       transform="matrix(2.8196248,0,0,2.8196248,-547.10182,-1031.169)" />
    <path
       transform="matrix(2.8196248,0,0,2.8196248,-831.92692,-1031.169)"
       d="m 445.47727,559.66028 a 19.697975,19.697975 0 1 1 -39.39595,0 19.697975,19.697975 0 1 1 39.39595,0 z"
       sodipodi:ry="19.697975"
       sodipodi:rx="19.697975"
       sodipodi:cy="559.66028"
       sodipodi:cx="425.7793"
       id="path3002"
       style="fill:#000000;fill-opacity:1;stroke:#000000;stroke-opacity:1"
       sodipodi:type="arc" />
    <path
       style="fill:#000000;stroke:#000000;stroke-width:2.8196249px;stroke-linecap:butt;stroke-linejoin:miter;stroke-opacity:1"
       d="m 260.73342,453.58279 c 0,0 -21.80521,-1.84719 -21.36188,6.05255 0.52023,9.26957 -4.6284,20.64981 7.83267,20.29377 12.46111,-0.35601 68.00203,1.0681 91.14408,16.02141 23.14204,14.95332 105.65731,37.79048 136.71604,34.17901 30.6187,-3.56027 -4.91297,-9.31364 -36.67122,-14.59727 -24.46992,-4.07109 -49.92129,-38.69022 -87.93975,-50.2004 -38.80743,-11.74907 -89.71994,-11.74907 -89.71994,-11.74907 z"
       id="path3004"
       inkscape:connector-curvature="0"
       sodipodi:nodetypes="cssssssc" />
    <path
       style="fill:#000000;stroke:#000000;stroke-width:2.8196249px;stroke-linecap:butt;stroke-linejoin:miter;stroke-opacity:1"
       d="m 710.9904,467.04438 c 0,0 -56.14076,15.86039 -118.57529,18.12616 -23.14734,0.84001 -28.14448,9.02404 -14.34986,10.32185 42.11214,3.96188 119.07877,-1.76226 136.44968,-6.79732 16.44413,-4.76641 21.39895,-5.7903 14.60162,-16.36389 -6.79729,-10.5736 -8.05606,-8.05607 -18.12615,-5.2868 z"
       id="path3008"
       inkscape:connector-curvature="0"
       sodipodi:nodetypes="cssssc" />
    <path
       style="fill:#000000;stroke:#000000;stroke-width:3.08565307px;stroke-linecap:butt;stroke-linejoin:miter;stroke-opacity:1"
       d="m 982.80613,435.21341 c 0,0 -63.64162,0.6653 -96.98904,0 -14.83676,-0.29612 -14.9214,-0.15564 -14.9214,12.39154 0,19.49636 -0.0462,19.65558 6.98353,19.78069 14.56886,0.25912 67.97749,-0.0823 104.92691,0.3022 11.55448,0.12012 12.55047,0.13056 12.43455,-14.52803 -0.13991,-17.67436 -0.14211,-17.94637 -12.43455,-17.94637 z"
       id="path3010"
       inkscape:connector-curvature="0"
       sodipodi:nodetypes="sssssss" />
    <path
       sodipodi:nodetypes="sssssss"
       inkscape:connector-curvature="0"
       id="path3012"
       d="m 982.80613,523.5092 c 0,0 -42.63575,0.66529 -75.98318,0 -14.83675,-0.29611 -14.92139,-0.15564 -14.92139,12.39155 0,19.49635 -0.0463,19.65557 6.98353,19.78068 14.56887,0.25913 46.97162,-0.0823 83.92104,0.30221 11.55448,0.12011 12.55047,0.13054 12.43455,-14.52803 -0.13991,-17.67437 -0.14211,-17.94638 -12.43455,-17.94641 z"
       style="fill:#000000;stroke:#000000;stroke-width:3.08565307px;stroke-linecap:butt;stroke-linejoin:miter;stroke-opacity:1" />
    <path
       style="fill:#000000;stroke:#000000;stroke-width:3.08565307px;stroke-linecap:butt;stroke-linejoin:miter;stroke-opacity:1"
       d="m 982.80613,607.5326 c 0,0 -17.71357,0.6653 -51.06099,0 -14.83676,-0.29611 -14.9214,-0.15563 -14.9214,12.39155 0,19.49636 -0.0463,19.65558 6.98353,19.78069 14.56887,0.25912 22.04944,-0.0824 58.99886,0.3022 11.55448,0.12012 12.55047,0.13056 12.43455,-14.52802 -0.13991,-17.67438 -0.14211,-17.94639 -12.43455,-17.94642 z"
       id="path3014"
       inkscape:connector-curvature="0"
       sodipodi:nodetypes="sssssss" />
    <path
       sodipodi:nodetypes="sssssss"
       inkscape:connector-curvature="0"
       id="path3016"
       d="m 40.693933,435.21341 c 0,0 63.641667,0.6653 96.989077,0 14.83676,-0.29612 14.9214,-0.15564 14.9214,12.39154 0,19.49636 0.0463,19.65558 -6.98353,19.78069 -14.56886,0.25912 -67.977485,-0.0823 -104.926947,0.3022 -11.554484,0.12012 -12.55046,0.13056 -12.434489,-14.52803 0.139854,-17.67436 0.142109,-17.94637 12.434489,-17.94637 z"
       style="fill:#000000;stroke:#000000;stroke-width:3.08565307px;stroke-linecap:butt;stroke-linejoin:miter;stroke-opacity:1" />
    <path
       style="fill:#000000;stroke:#000000;stroke-width:3.08565307px;stroke-linecap:butt;stroke-linejoin:miter;stroke-opacity:1"
       d="m 40.693933,523.5092 c 0,0 42.635799,0.66529 75.983217,0 14.83675,-0.29611 14.9214,-0.15564 14.9214,12.39155 0,19.49635 0.0463,19.65557 -6.98354,19.78068 -14.56885,0.25913 -46.971615,-0.0823 -83.921077,0.30221 -11.554484,0.12011 -12.55046,0.13054 -12.434489,-14.52803 0.139854,-17.67437 0.142109,-17.94638 12.434489,-17.94641 z"
       id="path3018"
       inkscape:connector-curvature="0"
       sodipodi:nodetypes="sssssss" />
    <path
       sodipodi:nodetypes="sssssss"
       inkscape:connector-curvature="0"
       id="path3020"
       d="m 40.693933,607.5326 c 0,0 17.713615,0.6653 51.061036,0 14.836751,-0.29611 14.921401,-0.15563 14.921401,12.39155 0,19.49636 0.0462,19.65558 -6.983538,19.78069 -14.56886,0.25912 -22.049437,-0.0824 -58.998899,0.3022 -11.554484,0.12012 -12.55046,0.13056 -12.434489,-14.52802 0.139854,-17.67438 0.142109,-17.94639 12.434489,-17.94642 z"
       style="fill:#000000;stroke:#000000;stroke-width:3.08565307px;stroke-linecap:butt;stroke-linejoin:miter;stroke-opacity:1" />
    <path
       style="fill:#000000;stroke:#000000;stroke-width:2.8196249px;stroke-linecap:butt;stroke-linejoin:miter;stroke-opacity:1"
       d="m 594.33485,810.68229 c -3.17555,13.05937 -5.44004,29.41118 -47.35216,38.09534 -42.26037,8.7561 -58.03315,7.8327 -86.15961,-0.71196 -28.12649,-8.54483 -26.70236,12.81696 -16.02142,19.58146 10.68094,6.7649 64.95271,27.166 118.91446,7.1207 53.7956,-19.9835 55.91762,-38.06914 57.67712,-66.22169 1.06807,-17.08947 -22.62853,-16.08173 -27.05839,2.13615 z"
       id="path3026"
       inkscape:connector-curvature="0"
       sodipodi:nodetypes="sssssss" />
    <path
       style="fill:#000000;stroke:#000000;stroke-width:2.8196249px;stroke-linecap:butt;stroke-linejoin:miter;stroke-opacity:1"
       d="m 452.65376,747.532 c -33.43678,6.40083 -55.21362,32.19363 -67.71829,54.41453 -10.7133,19.03754 -23.49565,33.88767 -38.01858,33.21995 -15.92873,-0.73224 -29.58869,-16.65522 -40.62495,-36.45575 -16.21765,-29.09684 -18.87289,-25.88895 -9.96276,11.07266 10.62382,44.07044 47.35473,62.07854 78.06851,47.47684 30.71378,-14.60139 29.85481,-47.2679 72.50465,-68.32909 17.24528,-8.51612 34.71282,-13.77499 36.70675,-29.1614 2.13085,-16.44293 -22.94726,-13.77049 -30.95533,-12.23774 z"
       id="path3028"
       inkscape:connector-curvature="0"
       sodipodi:nodetypes="sssssssss" />
    <path
       style="fill:#000000;stroke:#000000;stroke-width:2.8196249px;stroke-linecap:butt;stroke-linejoin:miter;stroke-opacity:1"
       d="m 731.84934,788.23441 c -12.05553,9.20071 -53.05897,27.54492 -79.08521,3.06437 -23.32168,-21.93696 -43.53772,-25.29203 -63.41959,-25.2458 -19.88191,0.0451 -34.3792,6.29735 -47.22415,6.95095 -21.03739,1.07089 -24.95419,-4.30444 -26.46846,-15.01422 -1.34463,-9.51004 9.83665,-15.69319 25.9545,-20.86585 11.9787,-3.84436 42.4885,-12.10704 77.29458,1.63995 27.36457,10.80819 62.9396,49.20442 98.49854,37.32224 23.03191,-7.69616 28.15866,-11.69495 30.53577,-8.94187 2.32131,2.6888 0.75953,8.23387 -16.08598,21.09023 z"
       id="path3030"
       inkscape:connector-curvature="0"
       sodipodi:nodetypes="ssssssssss" />
  </g>
</svg>
