<?xml version="1.0" encoding="UTF-8" standalone="no"?>
<!-- Created with Inkscape (http://www.inkscape.org/) -->

<svg
   xmlns:dc="http://purl.org/dc/elements/1.1/"
   xmlns:cc="http://creativecommons.org/ns#"
   xmlns:rdf="http://www.w3.org/1999/02/22-rdf-syntax-ns#"
   xmlns:svg="http://www.w3.org/2000/svg"
   xmlns="http://www.w3.org/2000/svg"
   xmlns:sodipodi="http://sodipodi.sourceforge.net/DTD/sodipodi-0.dtd"
   xmlns:inkscape="http://www.inkscape.org/namespaces/inkscape"
   width="1024"
   height="1024"
   id="svg2"
   version="1.1"
   inkscape:version="0.48.4 r9939"
   sodipodi:docname="Johnny Thunder Torso.svg"
   inkscape:export-filename="Johnny Thunder Torso.png"
   inkscape:export-xdpi="90"
   inkscape:export-ydpi="90">
  <defs
     id="defs4" />
  <sodipodi:namedview
     id="base"
     pagecolor="#ffffff"
     bordercolor="#666666"
     borderopacity="1.0"
     inkscape:pageopacity="0.0"
     inkscape:pageshadow="2"
     inkscape:zoom="0.24992968"
     inkscape:cx="1237.7862"
     inkscape:cy="490.26007"
     inkscape:document-units="px"
     inkscape:current-layer="layer1"
     showgrid="false"
     inkscape:window-width="1366"
     inkscape:window-height="705"
     inkscape:window-x="-8"
     inkscape:window-y="-8"
     inkscape:window-maximized="1" />
  <metadata
     id="metadata7">
    <rdf:RDF>
      <cc:Work
         rdf:about="">
        <dc:format>image/svg+xml</dc:format>
        <dc:type
           rdf:resource="http://purl.org/dc/dcmitype/StillImage" />
        <dc:title></dc:title>
      </cc:Work>
    </rdf:RDF>
  </metadata>
  <g
     inkscape:label="Layer 1"
     inkscape:groupmode="layer"
     id="layer1"
     transform="translate(0,-28.362183)">
    <rect
       style="fill:#dec69c;fill-opacity:1;stroke:#dec69c;stroke-width:29.24914169;stroke-opacity:1"
       id="rect3149"
       width="994.75085"
       height="994.75055"
       x="14.624571"
       y="42.987053" />
    <path
       style="fill:#dec69c;fill-opacity:1;stroke:#dec69c;stroke-width:5.00090408px;stroke-linecap:butt;stroke-linejoin:miter;stroke-opacity:1"
       d="m 398.41883,338.25994 -73.78385,-52.52424 -52.52451,13.75634 -47.5216,36.26675 -7.50385,-60.02774 20.00962,-91.29215 48.77232,-36.26675 -8.75408,41.26906 25.01153,31.26444 45.02114,28.7633 35.01583,12.50576 z"
       id="path3082"
       inkscape:connector-curvature="0" />
    <path
       style="fill:#ecba2f;fill-opacity:1;stroke:#ecba2f;stroke-width:5.00090408px;stroke-linecap:butt;stroke-linejoin:miter;stroke-opacity:1"
       d="m 518.47456,568.36621 115.05329,-163.82564 75.03461,-246.36381 -351.4126,0 36.26706,166.32685 77.53553,171.3291 z"
       id="path3080"
       inkscape:connector-curvature="0" />
    <path
       style="fill:#dec69c;fill-opacity:1;stroke:#dec69c;stroke-width:5.00090408px;stroke-linecap:butt;stroke-linejoin:miter;stroke-opacity:1"
       d="m 694.80597,269.47822 20.00911,-5.00231 3.75168,38.76791 -21.25934,-2.50116 z"
       id="path3153"
       inkscape:connector-curvature="0" />
    <path
       style="fill:#000000;stroke:#000000;stroke-width:5.00090408px;stroke-linecap:butt;stroke-linejoin:miter;stroke-opacity:1"
       d="m 496.32604,877.92528 0,-255.10953 c 0,0 2.52596,-48.62239 23.99536,-70.09201 21.46988,-21.46963 93.45638,-133.86944 178.07172,-249.42646 l 21.46988,-8.84045 c 0,0 12.37823,25.52531 5.05141,29.67861 -60.3424,34.20628 -63.77752,54.30546 -205.22413,264.5815 l 0,291.10269 z"
       id="path3051"
       inkscape:connector-curvature="0"
       sodipodi:nodetypes="ccsccsc" />
    <g
       id="g3063"
       transform="matrix(5.0009034,0,0,5.0009034,-817.10911,-2149.47)">
      <path
         style="fill:#000000;stroke:#000000;stroke-width:1px;stroke-linecap:butt;stroke-linejoin:miter;stroke-opacity:1"
         d="m 297.125,510.90625 0,43.625 6.75,6.78125 15.75,0 15.75,0 6.75,-6.78125 0,-43.625 -22.5,0 -22.5,0 z m 3.09375,3.46875 19.40625,0 19.40625,0 0,37.625 -5.84375,5.84375 -13.5625,0 -13.59375,0 -5.8125,-5.84375 0,-37.625 z"
         id="path3065"
         inkscape:connector-curvature="0" />
      <path
         d="m 319.33446,522.66345 c 0,0.0697 -0.0565,0.12627 -0.12627,0.12627 -0.0697,0 -0.12627,-0.0565 -0.12627,-0.12627 0,-0.0697 0.0565,-0.12627 0.12627,-0.12627 0.0697,0 0.12627,0.0565 0.12627,0.12627 z"
         sodipodi:ry="0.12626907"
         sodipodi:rx="0.12626907"
         sodipodi:cy="522.66345"
         sodipodi:cx="319.20819"
         id="path3067"
         style="fill:#000000;fill-opacity:1;stroke:#000000;stroke-opacity:1"
         sodipodi:type="arc"
         transform="matrix(8.2583601,0,0,8.2583601,-2316.928,-3793.6796)" />
      <path
         sodipodi:type="arc"
         style="fill:#ffffff;fill-opacity:1;stroke:#ffffff;stroke-opacity:1"
         id="path3069"
         sodipodi:cx="319.20819"
         sodipodi:cy="522.66345"
         sodipodi:rx="0.12626907"
         sodipodi:ry="0.12626907"
         d="m 319.33446,522.66345 c 0,0.0697 -0.0565,0.12627 -0.12627,0.12627 -0.0697,0 -0.12627,-0.0565 -0.12627,-0.12627 0,-0.0697 0.0565,-0.12627 0.12627,-0.12627 0.0697,0 0.12627,0.0565 0.12627,0.12627 z" />
      <path
         sodipodi:nodetypes="ccccccccccc"
         inkscape:connector-curvature="0"
         id="path3071"
         d="m 332.45186,527.46167 6.566,0 0,-4.20663 -7.02296,0 c 0,0 -4.73214,4.28571 -12.60459,4.375 -7.87245,-0.0893 -12.60459,-4.375 -12.60459,-4.375 l -7.02296,0 0,4.20663 6.566,0 c 0,0 5.17703,3.53553 13.06155,3.53553 7.88452,0 13.06155,-3.53553 13.06155,-3.53553 z"
         style="fill:#000000;stroke:#000000;stroke-width:1px;stroke-linecap:butt;stroke-linejoin:miter;stroke-opacity:1" />
      <path
         style="fill:#000000;stroke:#000000;stroke-width:1px;stroke-linecap:butt;stroke-linejoin:miter;stroke-opacity:1"
         d="m 309.01786,528.79075 0,29.82143 3.92857,0 0,-30.26786 z"
         id="path3073"
         inkscape:connector-curvature="0" />
      <path
         inkscape:connector-curvature="0"
         id="path3075"
         d="m 329.28572,528.79075 0,29.82143 -3.92857,0 0,-30.26786 z"
         style="fill:#000000;stroke:#000000;stroke-width:1px;stroke-linecap:butt;stroke-linejoin:miter;stroke-opacity:1" />
    </g>
    <path
       style="fill:#893b10;fill-opacity:1;stroke:#893b10;stroke-width:5.00090408px;stroke-linecap:butt;stroke-linejoin:miter;stroke-opacity:1"
       d="M 253.62063,891.46173 C 925.17064,789.65759 848.37076,146.68433 848.37076,146.68433 l -32.14836,0 c 0,0 101.80395,619.75481 -619.75512,726.91717 l 0,42.86475 60.72499,0 z"
       id="path2996"
       inkscape:connector-curvature="0"
       sodipodi:nodetypes="ccccccc" />
    <path
       style="fill:#dec69c;fill-opacity:1;stroke:#dec69c;stroke-width:5.00090408px;stroke-linecap:butt;stroke-linejoin:miter;stroke-opacity:1"
       d="m 803.60613,346.38871 -10.00431,-101.92206 -46.27136,-56.90128 21.25984,-23.76099 55.02549,38.14264 14.3816,71.90819 -9.3797,70.65766 z"
       id="path3151"
       inkscape:connector-curvature="0" />
    <path
       sodipodi:type="arc"
       style="fill:#000000;fill-opacity:1;stroke:#000000;stroke-opacity:1"
       id="path3093"
       sodipodi:cx="373.92856"
       sodipodi:cy="603.07648"
       sodipodi:rx="5"
       sodipodi:ry="5"
       d="m 378.92856,603.07648 c 0,2.76142 -2.23858,5 -5,5 -2.76143,0 -5,-2.23858 -5,-5 0,-2.76143 2.23857,-5 5,-5 2.76142,0 5,2.23857 5,5 z"
       transform="matrix(5.0009034,0,0,5.0009034,-1332.3809,-2149.47)" />
    <path
       style="fill:#893b10;fill-opacity:1;stroke:#893b10;stroke-width:5.00090408px;stroke-linecap:butt;stroke-linejoin:miter;stroke-opacity:1"
       d="m 755.49693,382.44117 c 0,0 -117.87834,335.77496 -705.484645,498.30412 l 108.948215,0 c 0,0 425.07691,-114.30615 617.96881,-471.51353 z"
       id="path2998"
       inkscape:connector-curvature="0" />
    <rect
       style="fill:#000000;fill-opacity:1;stroke:#000000;stroke-width:5.00090408;stroke-opacity:1"
       id="rect3103"
       width="971.18488"
       height="101.03351"
       x="32.834652"
       y="875.39972" />
    <g
       id="g3055"
       transform="matrix(5.0009034,0,0,5.0009034,-1332.3809,-2149.47)">
      <path
         id="path3002"
         d="m 297.125,510.90625 0,43.625 6.75,6.78125 15.75,0 15.75,0 6.75,-6.78125 0,-43.625 -22.5,0 -22.5,0 z m 3.09375,3.46875 19.40625,0 19.40625,0 0,37.625 -5.84375,5.84375 -13.5625,0 -13.59375,0 -5.8125,-5.84375 0,-37.625 z"
         style="fill:#000000;stroke:#000000;stroke-width:1px;stroke-linecap:butt;stroke-linejoin:miter;stroke-opacity:1"
         inkscape:connector-curvature="0" />
      <path
         transform="matrix(8.2583601,0,0,8.2583601,-2316.928,-3793.6796)"
         sodipodi:type="arc"
         style="fill:#000000;fill-opacity:1;stroke:#000000;stroke-opacity:1"
         id="path3010"
         sodipodi:cx="319.20819"
         sodipodi:cy="522.66345"
         sodipodi:rx="0.12626907"
         sodipodi:ry="0.12626907"
         d="m 319.33446,522.66345 c 0,0.0697 -0.0565,0.12627 -0.12627,0.12627 -0.0697,0 -0.12627,-0.0565 -0.12627,-0.12627 0,-0.0697 0.0565,-0.12627 0.12627,-0.12627 0.0697,0 0.12627,0.0565 0.12627,0.12627 z" />
      <path
         d="m 319.33446,522.66345 c 0,0.0697 -0.0565,0.12627 -0.12627,0.12627 -0.0697,0 -0.12627,-0.0565 -0.12627,-0.12627 0,-0.0697 0.0565,-0.12627 0.12627,-0.12627 0.0697,0 0.12627,0.0565 0.12627,0.12627 z"
         sodipodi:ry="0.12626907"
         sodipodi:rx="0.12626907"
         sodipodi:cy="522.66345"
         sodipodi:cx="319.20819"
         id="path3008"
         style="fill:#ffffff;fill-opacity:1;stroke:#ffffff;stroke-opacity:1"
         sodipodi:type="arc" />
      <path
         style="fill:#000000;stroke:#000000;stroke-width:1px;stroke-linecap:butt;stroke-linejoin:miter;stroke-opacity:1"
         d="m 332.45186,527.46167 6.566,0 0,-4.20663 -7.02296,0 c 0,0 -4.73214,4.28571 -12.60459,4.375 -7.87245,-0.0893 -12.60459,-4.375 -12.60459,-4.375 l -7.02296,0 0,4.20663 6.566,0 c 0,0 5.17703,3.53553 13.06155,3.53553 7.88452,0 13.06155,-3.53553 13.06155,-3.53553 z"
         id="path3018"
         inkscape:connector-curvature="0"
         sodipodi:nodetypes="ccccccccccc" />
      <path
         inkscape:connector-curvature="0"
         id="path3020"
         d="m 309.01786,528.79075 0,29.82143 3.92857,0 0,-30.26786 z"
         style="fill:#000000;stroke:#000000;stroke-width:1px;stroke-linecap:butt;stroke-linejoin:miter;stroke-opacity:1" />
      <path
         style="fill:#000000;stroke:#000000;stroke-width:1px;stroke-linecap:butt;stroke-linejoin:miter;stroke-opacity:1"
         d="m 329.28572,528.79075 0,29.82143 -3.92857,0 0,-30.26786 z"
         id="path3022"
         inkscape:connector-curvature="0" />
    </g>
    <path
       style="fill:#000000;stroke:#000000;stroke-width:5.00090408px;stroke-linecap:butt;stroke-linejoin:miter;stroke-opacity:1"
       d="M 521.90018,547.67207 C 429.70699,455.16326 388.34651,264.77827 388.34651,264.77827 l -42.93928,-68.82909 -41.04492,-35.36174 c 0,0 53.67421,77.66949 72.61814,128.81773 18.94343,51.14819 -13.89252,15.78645 -13.89252,15.78645 -51.14825,-43.57067 -85.24692,-30.94149 -115.55691,0.63146 -30.87559,32.16226 -22.101,-6.94605 -22.101,-6.94605 -3.15757,-128.18626 49.25392,-128.81772 49.25392,-128.81772 0,0 37.88735,-30.31003 6.31464,-24.6269 -31.57322,5.68312 -74.51248,51.77965 -71.98653,134.50084 2.52596,82.7212 5.05142,90.93018 56.19967,34.73028 51.14826,-56.1999 108.61816,28.37257 127.23953,50.83248 17.93524,21.63276 53.98977,132.29075 116.5041,196.06817 z"
       id="path3027"
       inkscape:connector-curvature="0"
       sodipodi:nodetypes="csssccsccssssc" />
    <path
       sodipodi:type="arc"
       style="fill:#000000;fill-opacity:1;stroke:#000000;stroke-opacity:1"
       id="path3029"
       sodipodi:cx="325.52167"
       sodipodi:cy="490.27542"
       sodipodi:rx="0.18940361"
       sodipodi:ry="0.30646145"
       d="m 325.71107,490.27542 c 0,0.16926 -0.0848,0.30646 -0.1894,0.30646 -0.10461,0 -0.18941,-0.1372 -0.18941,-0.30646 0,-0.16925 0.0848,-0.30646 0.18941,-0.30646 0.1046,0 0.1894,0.13721 0.1894,0.30646 z"
       transform="matrix(5.0009034,0,0,5.0009034,-1332.3809,-2149.47)" />
    <path
       d="m 325.71107,490.27542 c 0,0.16926 -0.0848,0.30646 -0.1894,0.30646 -0.10461,0 -0.18941,-0.1372 -0.18941,-0.30646 0,-0.16925 0.0848,-0.30646 0.18941,-0.30646 0.1046,0 0.1894,0.13721 0.1894,0.30646 z"
       sodipodi:ry="0.30646145"
       sodipodi:rx="0.18940361"
       sodipodi:cy="490.27542"
       sodipodi:cx="325.52167"
       id="path3031"
       style="fill:#000000;fill-opacity:1;stroke:#000000;stroke-opacity:1"
       sodipodi:type="arc"
       transform="matrix(5.0009034,0,0,5.0009034,-1321.9618,-2141.5768)" />
    <path
       transform="matrix(5.0009034,0,0,5.0009034,-1312.8057,-2147.5756)"
       sodipodi:type="arc"
       style="fill:#000000;fill-opacity:1;stroke:#000000;stroke-opacity:1"
       id="path3033"
       sodipodi:cx="325.52167"
       sodipodi:cy="490.27542"
       sodipodi:rx="0.18940361"
       sodipodi:ry="0.30646145"
       d="m 325.71107,490.27542 c 0,0.16926 -0.0848,0.30646 -0.1894,0.30646 -0.10461,0 -0.18941,-0.1372 -0.18941,-0.30646 0,-0.16925 0.0848,-0.30646 0.18941,-0.30646 0.1046,0 0.1894,0.13721 0.1894,0.30646 z" />
    <path
       d="m 325.71107,490.27542 c 0,0.16926 -0.0848,0.30646 -0.1894,0.30646 -0.10461,0 -0.18941,-0.1372 -0.18941,-0.30646 0,-0.16925 0.0848,-0.30646 0.18941,-0.30646 0.1046,0 0.1894,0.13721 0.1894,0.30646 z"
       sodipodi:ry="0.30646145"
       sodipodi:rx="0.18940361"
       sodipodi:cy="490.27542"
       sodipodi:cx="325.52167"
       id="path3035"
       style="fill:#000000;fill-opacity:1;stroke:#000000;stroke-opacity:1"
       sodipodi:type="arc"
       transform="matrix(5.0009034,0,0,5.0009034,-1303.018,-2139.6824)" />
    <path
       transform="matrix(5.0009034,0,0,5.0009034,-1291.9675,-2129.579)"
       sodipodi:type="arc"
       style="fill:#000000;fill-opacity:1;stroke:#000000;stroke-opacity:1"
       id="path3037"
       sodipodi:cx="325.52167"
       sodipodi:cy="490.27542"
       sodipodi:rx="0.18940361"
       sodipodi:ry="0.30646145"
       d="m 325.71107,490.27542 c 0,0.16926 -0.0848,0.30646 -0.1894,0.30646 -0.10461,0 -0.18941,-0.1372 -0.18941,-0.30646 0,-0.16925 0.0848,-0.30646 0.18941,-0.30646 0.1046,0 0.1894,0.13721 0.1894,0.30646 z" />
    <path
       d="m 325.71107,490.27542 c 0,0.16926 -0.0848,0.30646 -0.1894,0.30646 -0.10461,0 -0.18941,-0.1372 -0.18941,-0.30646 0,-0.16925 0.0848,-0.30646 0.18941,-0.30646 0.1046,0 0.1894,0.13721 0.1894,0.30646 z"
       sodipodi:ry="0.30646145"
       sodipodi:rx="0.18940361"
       sodipodi:cy="490.27542"
       sodipodi:cx="325.52167"
       id="path3039"
       style="fill:#000000;fill-opacity:1;stroke:#000000;stroke-opacity:1"
       sodipodi:type="arc"
       transform="matrix(5.0009034,0,0,5.0009034,-1282.1799,-2118.5285)" />
    <path
       transform="matrix(5.0009034,0,0,5.0009034,-1272.3923,-2107.1622)"
       sodipodi:type="arc"
       style="fill:#000000;fill-opacity:1;stroke:#000000;stroke-opacity:1"
       id="path3041"
       sodipodi:cx="325.52167"
       sodipodi:cy="490.27542"
       sodipodi:rx="0.18940361"
       sodipodi:ry="0.30646145"
       d="m 325.71107,490.27542 c 0,0.16926 -0.0848,0.30646 -0.1894,0.30646 -0.10461,0 -0.18941,-0.1372 -0.18941,-0.30646 0,-0.16925 0.0848,-0.30646 0.18941,-0.30646 0.1046,0 0.1894,0.13721 0.1894,0.30646 z" />
    <path
       d="m 325.71107,490.27542 c 0,0.16926 -0.0848,0.30646 -0.1894,0.30646 -0.10461,0 -0.18941,-0.1372 -0.18941,-0.30646 0,-0.16925 0.0848,-0.30646 0.18941,-0.30646 0.1046,0 0.1894,0.13721 0.1894,0.30646 z"
       sodipodi:ry="0.30646145"
       sodipodi:rx="0.18940361"
       sodipodi:cy="490.27542"
       sodipodi:cx="325.52167"
       id="path3043"
       style="fill:#000000;fill-opacity:1;stroke:#000000;stroke-opacity:1"
       sodipodi:type="arc"
       transform="matrix(5.0009034,0,0,5.0009034,-1262.6046,-2098.3218)" />
    <path
       transform="matrix(5.0009034,0,0,5.0009034,-1251.2383,-2086.9555)"
       sodipodi:type="arc"
       style="fill:#000000;fill-opacity:1;stroke:#000000;stroke-opacity:1"
       id="path3045"
       sodipodi:cx="325.52167"
       sodipodi:cy="490.27542"
       sodipodi:rx="0.18940361"
       sodipodi:ry="0.30646145"
       d="m 325.71107,490.27542 c 0,0.16926 -0.0848,0.30646 -0.1894,0.30646 -0.10461,0 -0.18941,-0.1372 -0.18941,-0.30646 0,-0.16925 0.0848,-0.30646 0.18941,-0.30646 0.1046,0 0.1894,0.13721 0.1894,0.30646 z" />
    <path
       d="m 325.71107,490.27542 c 0,0.16926 -0.0848,0.30646 -0.1894,0.30646 -0.10461,0 -0.18941,-0.1372 -0.18941,-0.30646 0,-0.16925 0.0848,-0.30646 0.18941,-0.30646 0.1046,0 0.1894,0.13721 0.1894,0.30646 z"
       sodipodi:ry="0.30646145"
       sodipodi:rx="0.18940361"
       sodipodi:cy="490.27542"
       sodipodi:cx="325.52167"
       id="path3047"
       style="fill:#000000;fill-opacity:1;stroke:#000000;stroke-opacity:1"
       sodipodi:type="arc"
       transform="matrix(5.0009034,0,0,5.0009034,-1242.0822,-2078.1151)" />
    <path
       transform="matrix(5.0009034,0,0,5.0009034,-1231.6631,-2067.0645)"
       sodipodi:type="arc"
       style="fill:#000000;fill-opacity:1;stroke:#000000;stroke-opacity:1"
       id="path3049"
       sodipodi:cx="325.52167"
       sodipodi:cy="490.27542"
       sodipodi:rx="0.18940361"
       sodipodi:ry="0.30646145"
       d="m 325.71107,490.27542 c 0,0.16926 -0.0848,0.30646 -0.1894,0.30646 -0.10461,0 -0.18941,-0.1372 -0.18941,-0.30646 0,-0.16925 0.0848,-0.30646 0.18941,-0.30646 0.1046,0 0.1894,0.13721 0.1894,0.30646 z" />
    <path
       style="fill:#000000;stroke:#000000;stroke-width:5.00090408px;stroke-linecap:butt;stroke-linejoin:miter;stroke-opacity:1"
       d="m 790.32473,347.61348 c 6.15761,24.47872 38.73854,23.45244 43.04982,1.39755 5.95308,-30.453 39.55415,-168.83855 -65.82194,-200.98721 l -6.01358,20.77261 c 0,0 84.61583,23.36397 61.88323,161.6536 0,0 -13.63602,25.97214 -19.44057,-15.55321 -5.98608,-42.82369 16.70557,-88.28735 -42.68021,-119.98953 l -10.71593,-5.35811 6.69721,16.07435 c 0,0 31.25564,14.28828 31.25564,65.19033 0,50.90209 -0.84015,66.35943 1.78633,76.79962 z"
       id="path3053"
       inkscape:connector-curvature="0"
       sodipodi:nodetypes="sscccscccss" />
    <path
       d="m 325.71107,490.27542 c 0,0.16926 -0.0848,0.30646 -0.1894,0.30646 -0.10461,0 -0.18941,-0.1372 -0.18941,-0.30646 0,-0.16925 0.0848,-0.30646 0.18941,-0.30646 0.1046,0 0.1894,0.13721 0.1894,0.30646 z"
       sodipodi:ry="0.30646145"
       sodipodi:rx="0.18940361"
       sodipodi:cy="490.27542"
       sodipodi:cx="325.52167"
       id="path3077"
       style="fill:#000000;fill-opacity:1;stroke:#000000;stroke-opacity:1"
       sodipodi:type="arc"
       transform="matrix(5.0009034,0,0,5.0009034,-972.68767,-2057.2413)" />
    <path
       transform="matrix(5.0009034,0,0,5.0009034,-962.19467,-2067.0645)"
       sodipodi:type="arc"
       style="fill:#000000;fill-opacity:1;stroke:#000000;stroke-opacity:1"
       id="path3079"
       sodipodi:cx="325.52167"
       sodipodi:cy="490.27542"
       sodipodi:rx="0.18940361"
       sodipodi:ry="0.30646145"
       d="m 325.71107,490.27542 c 0,0.16926 -0.0848,0.30646 -0.1894,0.30646 -0.10461,0 -0.18941,-0.1372 -0.18941,-0.30646 0,-0.16925 0.0848,-0.30646 0.18941,-0.30646 0.1046,0 0.1894,0.13721 0.1894,0.30646 z" />
    <path
       d="m 325.71107,490.27542 c 0,0.16926 -0.0848,0.30646 -0.1894,0.30646 -0.10461,0 -0.18941,-0.1372 -0.18941,-0.30646 0,-0.16925 0.0848,-0.30646 0.18941,-0.30646 0.1046,0 0.1894,0.13721 0.1894,0.30646 z"
       sodipodi:ry="0.30646145"
       sodipodi:rx="0.18940361"
       sodipodi:cy="490.27542"
       sodipodi:cx="325.52167"
       id="path3081"
       style="fill:#000000;fill-opacity:1;stroke:#000000;stroke-opacity:1"
       sodipodi:type="arc"
       transform="matrix(5.0009034,0,0,5.0009034,-953.26451,-2076.6645)" />
    <path
       transform="matrix(5.0009034,0,0,5.0009034,-942.32504,-2086.0412)"
       sodipodi:type="arc"
       style="fill:#000000;fill-opacity:1;stroke:#000000;stroke-opacity:1"
       id="path3083"
       sodipodi:cx="325.52167"
       sodipodi:cy="490.27542"
       sodipodi:rx="0.18940361"
       sodipodi:ry="0.30646145"
       d="m 325.71107,490.27542 c 0,0.16926 -0.0848,0.30646 -0.1894,0.30646 -0.10461,0 -0.18941,-0.1372 -0.18941,-0.30646 0,-0.16925 0.0848,-0.30646 0.18941,-0.30646 0.1046,0 0.1894,0.13721 0.1894,0.30646 z" />
    <path
       d="m 325.71107,490.27542 c 0,0.16926 -0.0848,0.30646 -0.1894,0.30646 -0.10461,0 -0.18941,-0.1372 -0.18941,-0.30646 0,-0.16925 0.0848,-0.30646 0.18941,-0.30646 0.1046,0 0.1894,0.13721 0.1894,0.30646 z"
       sodipodi:ry="0.30646145"
       sodipodi:rx="0.18940361"
       sodipodi:cy="490.27542"
       sodipodi:cx="325.52167"
       id="path3085"
       style="fill:#000000;fill-opacity:1;stroke:#000000;stroke-opacity:1"
       sodipodi:type="arc"
       transform="matrix(5.0009034,0,0,5.0009034,-932.7251,-2095.8644)" />
    <path
       transform="matrix(5.0009034,0,0,5.0009034,-922.23211,-2106.1341)"
       sodipodi:type="arc"
       style="fill:#000000;fill-opacity:1;stroke:#000000;stroke-opacity:1"
       id="path3087"
       sodipodi:cx="325.52167"
       sodipodi:cy="490.27542"
       sodipodi:rx="0.18940361"
       sodipodi:ry="0.30646145"
       d="m 325.71107,490.27542 c 0,0.16926 -0.0848,0.30646 -0.1894,0.30646 -0.10461,0 -0.18941,-0.1372 -0.18941,-0.30646 0,-0.16925 0.0848,-0.30646 0.18941,-0.30646 0.1046,0 0.1894,0.13721 0.1894,0.30646 z" />
    <path
       style="fill:#e6bf31;fill-opacity:1;stroke:#e6bf31;stroke-width:5.00090408px;stroke-linecap:butt;stroke-linejoin:miter;stroke-opacity:1"
       d="m 430.90671,887.01593 0,82.5149 78.76426,0 78.76423,0 0,-82.5149 -78.76423,0 -78.76426,0 z m 23.12918,11.096 55.63508,0 55.63506,0 0,62.04221 -55.63506,0 -55.63508,0 0,-62.04221 z"
       id="path3109"
       inkscape:connector-curvature="0" />
    <path
       sodipodi:type="arc"
       style="fill:#000000;fill-opacity:1;stroke:#000000;stroke-opacity:1"
       id="path3089"
       sodipodi:cx="374.28571"
       sodipodi:cy="552.54077"
       sodipodi:rx="4.375"
       sodipodi:ry="4.375"
       d="m 378.66071,552.54077 c 0,2.41625 -1.95876,4.375 -4.375,4.375 -2.41625,0 -4.375,-1.95875 -4.375,-4.375 0,-2.41624 1.95875,-4.375 4.375,-4.375 2.41624,0 4.375,1.95876 4.375,4.375 z"
       transform="matrix(5.0009034,0,0,5.0009034,-1332.3809,-2149.47)" />
    <path
       sodipodi:type="arc"
       style="fill:#000000;fill-opacity:1;stroke:#000000;stroke-opacity:1"
       id="path3091"
       sodipodi:cx="373.66071"
       sodipodi:cy="577.0943"
       sodipodi:rx="4.2857141"
       sodipodi:ry="4.2857141"
       d="m 377.94642,577.0943 c 0,2.36693 -1.91878,4.28571 -4.28571,4.28571 -2.36694,0 -4.28572,-1.91878 -4.28572,-4.28571 0,-2.36694 1.91878,-4.28571 4.28572,-4.28571 2.36693,0 4.28571,1.91877 4.28571,4.28571 z"
       transform="matrix(5.0009034,0,0,5.0009034,-1332.3809,-2149.47)" />
    <path
       style="fill:#000000;stroke:#000000;stroke-width:5.00090408px;stroke-linecap:butt;stroke-linejoin:miter;stroke-opacity:1"
       d="m 621.98676,886.13427 c 0,0 -88.17092,-98.42248 -52.41146,-138.28959 37.78932,-42.12966 166.75017,-44.84675 227.2226,0.61832 0,0 21.21033,13.51104 35.05238,-3.45633 13.8415,-16.96731 29.46932,-49.11602 53.58068,-43.7579 24.11185,5.35811 -2.78401,14.49337 -2.23241,32.14865 0.89317,28.57662 22.32554,10.26976 16.52099,57.15308 -2.43694,19.68106 12.50226,16.52098 35.72045,85.28341 l -176.81749,2.2324 c 0,0 2.776,-17.11659 7.59087,-24.55794 4.91139,-7.59087 -2.67948,-12.05567 -16.96757,-10.71593 -14.28808,1.33924 -56.26016,13.39492 -71.4414,34.82729 -15.18124,21.43237 -55.81764,8.51454 -55.81764,8.51454 z"
       id="path3116"
       inkscape:connector-curvature="0"
       sodipodi:nodetypes="cscssssccsssc" />
    <path
       style="fill:#cacebd;fill-opacity:1;stroke:#000000;stroke-width:5.00090408px;stroke-linecap:butt;stroke-linejoin:miter;stroke-opacity:1"
       d="m 810.41736,830.73626 c 18.60341,-6.45767 37.88439,-12.12019 56.70679,-19.64605 6.43066,-2.57146 21.87895,-5.35847 -3.12556,-20.53971 -25.00452,-15.18119 -56.44675,-6.02529 -66.08349,25.22806 -8.26,26.79034 6.73571,16.95956 12.50226,14.9577 z"
       id="path3118"
       inkscape:connector-curvature="0"
       sodipodi:nodetypes="sssss" />
    <path
       style="fill:#cacebd;fill-opacity:1;stroke:#000000;stroke-width:5.00090408px;stroke-linecap:butt;stroke-linejoin:miter;stroke-opacity:1"
       d="m 810.19432,870.2524 c 7.28631,-0.05 73.65985,-26.26075 78.3622,-29.69287 8.26049,-6.02758 8.48403,-15.62782 -16.29744,-7.81391 -27.74201,8.74758 -42.24563,12.80782 -62.06476,22.32554 -5.36597,2.57696 -12.74831,15.26725 0,15.18124 z"
       id="path3120"
       inkscape:connector-curvature="0"
       sodipodi:nodetypes="sssss" />
    <path
       sodipodi:type="arc"
       style="fill:#cacebd;fill-opacity:1;stroke:#cacebd;stroke-opacity:1"
       id="path3122"
       sodipodi:cx="438.21429"
       sodipodi:cy="581.73718"
       sodipodi:rx="1.25"
       sodipodi:ry="1.25"
       d="m 439.46429,581.73718 c 0,0.69036 -0.55964,1.25 -1.25,1.25 -0.69035,0 -1.25,-0.55964 -1.25,-1.25 0,-0.69035 0.55965,-1.25 1.25,-1.25 0.69036,0 1.25,0.55965 1.25,1.25 z"
       transform="matrix(5.0009034,0,0,5.0009034,-1332.3809,-2149.47)" />
    <path
       style="fill:#8b3c10;fill-opacity:1;stroke:#000000;stroke-width:5.00090408px;stroke-linecap:butt;stroke-linejoin:miter;stroke-opacity:1"
       d="m 661.28341,861.99191 c -62.51134,47.33005 -85.77554,-104.3309 -65.6369,-113.41314 22.77211,-10.26971 116.13853,-34.66642 181.05976,7.08998 10.05781,6.46902 36.98218,12.66574 16.72152,28.16914 -24.70397,18.90331 -3.15707,47.67501 -18.62787,43.25471 -51.15724,-17.01407 -98.01371,23.41973 -113.51651,34.89931 z"
       id="path3124"
       inkscape:connector-curvature="0"
       sodipodi:nodetypes="cssscc" />
    <path
       style="fill:#000000;stroke:#000000;stroke-width:5.00090408px;stroke-linecap:butt;stroke-linejoin:miter;stroke-opacity:1"
       d="m 586.00576,285.11044 c 4.20726,7.45995 15.97689,45.3823 -7.50335,70.65761 -24.12736,25.97175 -66.28097,66.28063 -66.28097,66.28063 0,0 -36.64615,37.96176 6.25312,26.26209 44.8376,-12.22836 111.92672,8.75408 113.80256,-17.50806 1.87584,-26.26214 70.03221,-114.42787 70.03221,-140.68997 0,-26.26214 8.12896,-25.63683 10.62992,-13.75638 2.50145,11.88049 -16.88255,94.41861 1.87583,110.67614 l 88.16593,72.53351 c 0,0 47.52214,36.89201 16.25744,-25.01157 -31.26415,-61.90359 -13.75649,-158.19808 -15.63232,-175.08088 -1.87584,-16.8828 0.62561,-40.01848 -34.39072,-60.02775 0,0 -18.13327,-6.25283 -4.37679,-21.88505 13.75599,-15.63222 17.50766,-31.88976 -9.37969,-31.26445 -26.88736,0.62527 -58.79462,-7.87092 -80.66207,12.50576 -13.75649,12.81842 -35.80052,32.44926 -162.49691,31.10812 -93.68597,-0.99173 -118.57047,3.5954 -157.02593,-46.11508 l -83.78866,0 c 0,0 -6.87825,55.65075 13.75649,74.40939 20.63423,18.75869 129.71097,76.97446 255.74328,66.90594 20.38718,-1.62869 38.2004,-12.09304 45.02063,0 z"
       id="path3126"
       inkscape:connector-curvature="0"
       sodipodi:nodetypes="sscssssccsscssssccsss" />
    <path
       style="fill:#d1260c;fill-opacity:1;stroke:#000000;stroke-width:5.00090408px;stroke-linecap:butt;stroke-linejoin:miter;stroke-opacity:1"
       d="m 597.58686,359.6067 c 0,0 -28.09358,33.85256 -45.54123,50.4046 -4.26077,4.04218 -33.16099,19.8966 -5.30546,16.80154 27.85503,-3.09501 68.53238,0 75.60666,-15.4751 7.07428,-15.47509 8.40102,-54.38392 48.63634,-84.44985 40.23526,-30.06593 -13.2644,-78.25984 -14.59114,-46.86747 -1.32624,31.39237 -29.76443,36.37592 -23.43378,11.05365 4.4218,-17.68585 -28.73919,9.7272 -12.82182,-11.05365 15.91688,-20.78085 36.2556,-50.40466 8.40052,-38.4667 -27.85503,11.93791 -54.38383,20.78085 -63.669,20.78085 -9.28518,0 -9.72726,5.74789 15.47529,3.53714 25.20205,-2.2107 28.29711,-0.44208 26.97087,7.95864 -1.32674,8.40077 3.09506,66.76406 -9.72725,85.77635 z"
       id="path3128"
       inkscape:connector-curvature="0"
       sodipodi:nodetypes="csssssssssssc" />
    <path
       style="fill:#d1260c;fill-opacity:1;stroke:#000000;stroke-width:5.00090408px;stroke-linecap:butt;stroke-linejoin:miter;stroke-opacity:1"
       d="m 738.18931,329.09859 c -2.23591,24.0999 -22.99166,26.52879 -3.97922,48.63608 19.01193,22.1073 71.62744,76.9334 58.80512,42.00384 -12.82231,-34.92951 8.8431,-174.20547 -19.89659,-197.6392 -28.73919,-23.43374 -68.53238,-7.95864 -45.09865,-3.97932 23.43373,3.97932 22.99165,10.61146 9.28518,15.03296 -13.70698,4.42145 14.14855,15.03297 14.59063,20.33868 0.44008,5.30576 -2.2109,18.12802 -22.54957,3.53719 -20.33867,-14.59084 12.82232,29.18162 8.8431,72.06977 z"
       id="path3130"
       inkscape:connector-curvature="0"
       sodipodi:nodetypes="sssssscss" />
    <path
       style="fill:#d1260c;fill-opacity:1;stroke:#000000;stroke-width:5.00090408px;stroke-linecap:butt;stroke-linejoin:miter;stroke-opacity:1"
       d="m 679.17365,191.94241 c -21.11982,4.1451 -35.01588,10.31726 -29.70092,32.51497 5.31501,22.19776 33.82566,56.26507 49.08492,29.07596 17.1956,-30.63919 14.06904,-68.15647 -19.384,-61.59093 z"
       id="path3132"
       inkscape:connector-curvature="0"
       sodipodi:nodetypes="ssss" />
    <path
       style="fill:#d1260c;fill-opacity:1;stroke:#000000;stroke-width:5.00090408px;stroke-linecap:butt;stroke-linejoin:miter;stroke-opacity:1"
       d="m 290.29526,193.80194 c -11.83364,-19.80717 -14.14856,-57.92111 22.54958,-21.22298 36.69814,36.69808 53.84024,80.09617 207.36654,69.85902 72.93918,-4.86363 142.39127,-0.69372 50.84668,4.4215 -114.73675,6.41111 -53.54417,21.24434 -77.59653,19.73076 -111.46268,-7.01416 -175.52277,-26.51819 -203.16627,-72.7883 z"
       id="path3134"
       inkscape:connector-curvature="0"
       sodipodi:nodetypes="ssssss" />
    <path
       style="fill:#d1260c;fill-opacity:1;stroke:#000000;stroke-width:5.00090408px;stroke-linecap:butt;stroke-linejoin:miter;stroke-opacity:1"
       d="m 348.21624,184.51687 c -12.43524,-8.80544 -22.107,-31.39237 6.19013,-15.91723 42.49868,23.24145 62.78485,41.11953 107.88351,40.6774 72.07856,-0.70668 137.94996,-2.2107 160.94111,-6.6322 19.27148,-3.70607 36.2561,3.97932 -30.95009,14.14871 -67.20614,10.16933 -163.94216,24.45742 -244.06466,-32.27668 z"
       id="path3136"
       inkscape:connector-curvature="0"
       sodipodi:nodetypes="ssssss" />
  </g>
</svg>
