<?xml version="1.0" encoding="UTF-8" standalone="no"?>
<!-- Created with Inkscape (http://www.inkscape.org/) -->

<svg
   xmlns:dc="http://purl.org/dc/elements/1.1/"
   xmlns:cc="http://creativecommons.org/ns#"
   xmlns:rdf="http://www.w3.org/1999/02/22-rdf-syntax-ns#"
   xmlns:svg="http://www.w3.org/2000/svg"
   xmlns="http://www.w3.org/2000/svg"
   xmlns:sodipodi="http://sodipodi.sourceforge.net/DTD/sodipodi-0.dtd"
   xmlns:inkscape="http://www.inkscape.org/namespaces/inkscape"
   id="svg2985"
   version="1.1"
   inkscape:version="0.48.2 r9819"
   width="1024"
   height="1024"
   sodipodi:docname="Viking Lady Dress.svg">
  <metadata
     id="metadata2991">
    <rdf:RDF>
      <cc:Work
         rdf:about="">
        <dc:format>image/svg+xml</dc:format>
        <dc:type
           rdf:resource="http://purl.org/dc/dcmitype/StillImage" />
        <dc:title />
      </cc:Work>
    </rdf:RDF>
  </metadata>
  <defs
     id="defs2989" />
  <sodipodi:namedview
     pagecolor="#ffffff"
     bordercolor="#666666"
     borderopacity="1"
     objecttolerance="10"
     gridtolerance="10"
     guidetolerance="10"
     inkscape:pageopacity="0"
     inkscape:pageshadow="2"
     inkscape:window-width="1600"
     inkscape:window-height="850"
     id="namedview2987"
     showgrid="false"
     inkscape:zoom="0.24789916"
     inkscape:cx="-116.75135"
     inkscape:cy="909.04819"
     inkscape:window-x="-8"
     inkscape:window-y="-8"
     inkscape:window-maximized="1"
     inkscape:current-layer="svg2985" />
  <g
     id="g3009"
     transform="matrix(1.1250931,0,0,1.1250931,-24.524809,-16.80577)">
    <path
       style="fill:#876955"
       d="M 343.12176,648.44239 C 340.16372,647.09908 336.98958,646 336.0681,646 c -0.92148,0 -3.90127,-1.05624 -6.62176,-2.34721 C 313.94365,636.29623 299.99789,630 299.20624,630 c -1.14058,0 -8.7604,4.03206 -13.84901,7.32826 -4.95267,3.20815 -18.22037,9.02737 -25.6007,11.22848 -12.49122,3.72538 -26.5316,-0.30796 -49.43656,-14.20152 C 206.37095,631.95985 202.2789,630 201.22652,630 c -1.05238,0 -4.57092,0.91431 -7.81897,2.03181 -12.67794,4.36185 -25.08659,6.21548 -36.8325,5.50211 C 144.77892,636.81751 140,635.21456 140,631.97432 c 0,-2.08784 -1.46012,-2.65689 -2.5,-0.97432 -1.15494,1.86874 -5.22237,1.00861 -13.12017,-2.77449 -7.00764,-3.3567 -21.32299,-12.18988 -25.37983,-15.66042 -0.825,-0.70577 -3.75,-1.83069 -6.5,-2.49981 -5.847506,-1.4228 -22.91965,-9.76309 -28.208177,-13.7806 -5.392153,-4.09623 -10.731714,-10.07557 -14.412514,-16.1394 -2.681703,-4.41789 -3.368605,-6.77976 -3.926211,-13.5 -0.673685,-8.11923 -0.663766,-8.16607 3.100794,-14.64528 5.241505,-9.02119 15.306717,-18 20.177926,-18 1.073998,0 3.049448,-0.86268 4.38989,-1.91708 1.340442,-1.05439 4.33642,-2.2326 6.657729,-2.61824 2.32131,-0.38565 5.527462,-1.37041 7.124783,-2.18836 2.247816,-1.15105 4.762682,-1.33237 11.126871,-0.80224 l 8.222649,0.68494 9.87313,-4.70995 c 5.43022,-2.59047 10.73851,-5.1537 11.79619,-5.69607 1.05769,-0.54236 6.68269,-1.19127 12.5,-1.44202 5.81732,-0.25076 11.58702,-0.94806 12.82157,-1.54956 3.42345,-1.66798 18.55009,1.16837 32.51143,6.09611 7.98034,2.81671 8.54999,2.87986 15.76176,1.74743 4.1152,-0.64618 8.08966,-1.55101 8.83214,-2.01072 4.18015,-2.58815 27.55958,-4.34235 45.15004,-3.38767 11.63291,0.63135 15.68638,1.25639 20.5,3.16105 3.3,1.30576 8.14939,2.68657 10.77642,3.06848 5.09614,0.74085 5.42971,0.60632 17.22358,-6.94625 9.07223,-5.80969 37.89671,-19.41102 43.5,-20.52623 3.025,-0.60205 6.85,-1.479 8.5,-1.94876 8.86314,-2.52336 20.06815,-1.8409 26.78254,1.63125 5.09319,2.63379 15.62416,2.89559 22.8433,0.5679 15.47988,-4.99125 27.24197,-5.94564 32.37416,-2.62689 1.1,0.71132 4.475,1.61008 7.5,1.99724 3.025,0.38716 7.91849,1.76406 10.87443,3.05978 2.95594,1.29572 5.93275,2.35586 6.61514,2.35586 0.68239,0 2.38488,0.9 3.7833,2 1.39842,1.1 3.14853,2 3.88913,2 1.66005,0 15.56135,6.94109 22.338,11.15363 2.75,1.70947 6.35,3.50608 8,3.99247 3.19975,0.94322 10.4861,-0.28769 16.28393,-2.75092 1.80616,-0.76735 4.75366,-1.39518 6.55,-1.39518 1.79634,0 3.73641,-0.47034 4.31127,-1.0452 1.69107,-1.69107 15.03583,-2.46441 16.83008,-0.97532 1.19209,0.98935 1.84117,1.00278 2.97526,0.0616 2.41864,-2.00729 32.45793,-0.0359 37.54946,2.46428 1.375,0.67518 5.3164,1.53548 8.75866,1.91177 4.87181,0.53257 6.74923,0.34057 8.47251,-0.86646 1.21761,-0.85285 3.03606,-1.55064 4.041,-1.55064 1.00493,0 3.19815,-0.70897 4.87381,-1.57549 1.67566,-0.86652 5.14081,-1.95404 7.70034,-2.41671 2.55952,-0.46268 6.45368,-1.53395 8.65368,-2.38062 6.76717,-2.60433 31.22847,-1.37032 37.54065,1.89384 1.57302,0.81344 3.745,1.47898 4.82664,1.47898 1.08163,0 5.04066,1.63082 8.79784,3.62404 6.57246,3.48676 7.26692,3.63392 18.33305,3.88486 6.326,0.14345 13.75182,0.81319 16.50182,1.48832 8.8081,2.1624 17.63966,7.28937 25.15026,14.60044 7.01512,6.82875 7.10398,6.98122 8.33572,14.3014 2.04154,12.13283 0.93696,16.08066 -7.98598,28.54225 -5.72064,7.98932 -11.05956,12.85715 -20.02776,18.26055 -8.923,5.37616 -14.52516,8.10404 -22.00793,10.71639 -2.49464,0.87091 -5.86964,2.70279 -7.5,4.07085 -7.22158,6.05967 -19.46491,12.31303 -28.4762,14.54437 -1.93154,0.47828 -5.20392,1.57658 -7.27195,2.44066 -2.06803,0.86408 -5.88768,1.60767 -8.48811,1.65243 -2.60043,0.0448 -6.80441,0.554 -9.34218,1.13164 -3.62469,0.82504 -6.84127,0.66711 -15,-0.73649 -5.71223,-0.98272 -12.51949,-2.14939 -15.12726,-2.59261 -2.60776,-0.44322 -5.99262,-1.54497 -7.5219,-2.44834 -3.02087,-1.78447 -3.35861,-1.63197 -22.23671,10.04065 -3.025,1.8704 -6.18737,3.41825 -7.02749,3.43966 -0.84013,0.0214 -2.52462,0.73734 -3.74332,1.59095 -3.77826,2.6464 -14.46431,5.71471 -20.22919,5.80847 -3.79554,0.0617 -6.91492,-0.60008 -10.06572,-2.13552 -2.51115,-1.22373 -5.66115,-2.22794 -7,-2.23156 C 527.59542,641.98979 525.15,641.09275 523.5,640 c -1.65,-1.09275 -3.96791,-1.98979 -5.15092,-1.99341 -1.183,-0.004 -4.95229,-2.11242 -8.3762,-4.68622 -8.8629,-6.66236 -11.98019,-6.57031 -27.01157,0.79763 C 462.44179,644.17607 456.00658,647 453.60558,647 c -1.29873,0 -3.97683,0.675 -5.95134,1.5 -13.55481,5.66356 -30.72193,-3.68718 -37.63616,-20.5 -3.00369,-7.30387 -3.0673,-7.78766 -2.43222,-18.5 0.65142,-10.98779 0.65813,-11.01064 6.04767,-20.58933 2.96753,-5.27413 6.51398,-10.64008 7.881,-11.92432 1.36701,-1.28424 2.48547,-2.97457 2.48547,-3.75629 0,-2.18258 -3.80788,-7.03431 -6.08913,-7.75835 -1.12045,-0.35562 -5.27126,-3.3628 -9.22402,-6.68263 -9.49742,-7.97666 -11.07851,-8.67133 -14.14029,-6.21276 -1.3176,1.05802 -6.9465,5.47234 -12.50866,9.80959 -5.56215,4.33725 -10.53236,8.66949 -11.04491,9.62719 -0.72295,1.35084 0.59042,4.06706 5.85752,12.11409 9.16112,13.99628 10.22022,17.01366 10.87086,30.97117 0.53377,11.45011 0.50385,11.65893 -2.34035,16.33836 -1.58456,2.60701 -3.5865,5.92667 -4.44875,7.37703 -2.22785,3.74739 -12.88013,10.75175 -17.51569,11.51737 -7.75684,1.28113 -14.74723,0.63057 -20.29482,-1.88873 z M 153.1125,517.7125 C 152.29583,516.89583 152,517.00774 152,518.13333 c 0,1.98786 1.3447,3.33256 1.84167,1.84167 0.21083,-0.6325 -0.1173,-1.65062 -0.72917,-2.2625 z M 765,614.5 c 0,-0.825 0.45,-1.5 1,-1.5 0.55,0 1,0.675 1,1.5 0,0.825 -0.45,1.5 -1,1.5 -0.55,0 -1,-0.675 -1,-1.5 z"
       id="path3013"
       inkscape:connector-curvature="0"
       sodipodi:nodetypes="sssssssssssssssssssssssscscssssssssssssssssssssssssscsssssssssssssssssssscssssscssscscsssssssssssssssssssssssssssss" />
    <path
       style="fill:#1c1514"
       d="M 42.341355,906.44717 C 41.991129,905.5345 42.67105,902.79848 43.85229,900.36713 45.033531,897.93578 46,895.13307 46,894.13888 c 0,-0.99419 1.846835,-8.96965 4.104077,-17.72325 C 52.36132,867.66203 54.554085,858.025 54.97689,855 c 0.422805,-3.025 1.245094,-7.3 1.82731,-9.5 1.719096,-6.4959 3.156846,-14.55559 3.835334,-21.5 0.349287,-3.575 0.962193,-6.95 1.362013,-7.5 0.39982,-0.55 0.990102,-4.30126 1.311738,-8.33613 0.321636,-4.03488 1.009812,-7.85988 1.529281,-8.5 0.519469,-0.64013 1.176312,-6.11387 1.459651,-12.16387 0.28334,-6.05 1.271491,-16.625 2.195892,-23.5 0.9244,-6.875 1.823529,-17.225 1.998064,-23 0.396642,-13.1241 3.256394,-28.45581 3.621701,-19.41667 0.06483,1.60417 0.216137,4.26667 0.336236,5.91667 1.280296,17.58947 1.499417,28.41069 0.586714,28.97477 -0.670153,0.41418 -1.017064,7.41845 -0.968864,19.56174 0.0413,10.4041 -0.18778,19.34187 -0.50906,19.86172 -0.321281,0.51984 -0.828662,6.7179 -1.127515,13.77347 -0.298852,7.05556 -0.958573,13.9533 -1.466047,15.3283 -0.507474,1.375 -1.172102,9.475 -1.476952,18 -0.30485,8.525 -0.71909,17.75 -0.920533,20.5 -0.517673,7.067 1.244966,22.57149 2.843393,25.01099 0.738952,1.12779 3.414944,3.11588 5.946649,4.41798 4.051257,2.08364 5.474928,2.29376 11.875315,1.75273 10.729828,-0.907 13.0378,-2.04736 19.64709,-9.70753 6.82959,-7.9155 9.16369,-13.67443 12.55383,-30.97417 0.70058,-3.575 2.0601,-9.425 3.02116,-13 0.96106,-3.575 2.17494,-8.3 2.6975,-10.5 0.52257,-2.2 1.60106,-5.92823 2.39666,-8.28495 0.7956,-2.35672 1.44932,-5.73172 1.45271,-7.5 0.003,-1.76828 0.66156,-4.47156 1.46261,-6.00729 0.80105,-1.53573 1.72895,-4.46073 2.06201,-6.5 0.33306,-2.03927 1.25388,-6.73919 2.04628,-10.44426 3.7599,-17.58045 9.29472,-51.61197 9.39454,-57.7635 0.0402,-2.475 0.99506,-9.675 2.12198,-16 3.1321,-17.57924 4.92777,-30.45346 5.85805,-42 0.46528,-5.775 1.32552,-12.0163 1.91165,-13.86956 0.58613,-1.85325 0.83752,-5.22825 0.55866,-7.5 -0.27887,-2.27174 -0.0963,-5.48044 0.40578,-7.13044 l 0.91281,-3 0.54807,2.5 c 1.10991,5.06278 2.36392,32.92843 2.12109,47.13321 -0.21222,12.41409 -0.56368,15.28213 -2.31762,18.91236 -1.58203,3.27443 -1.79967,4.60182 -0.92694,5.6534 1.22561,1.47677 1.51864,20.95476 0.33294,22.13076 -0.37169,0.36865 -1.83207,0.67027 -3.2453,0.67027 -3.47465,0 -4.00321,2.20095 -0.87125,3.62797 3.15602,1.43798 4.18303,6.92803 3.22819,17.25673 -0.36178,3.91342 -1.06176,12.0653 -1.55551,18.1153 -0.49375,6.05 -1.34307,12.16195 -1.88738,13.5821 -0.54431,1.42016 -1.22552,6.1521 -1.5138,10.51543 -0.28829,4.36333 -0.93874,9.05138 -1.44547,10.4179 -0.50672,1.36651 -1.22996,5.58762 -1.6072,9.38023 -0.37724,3.79262 -1.20675,7.84262 -1.84336,9 -1.14986,2.09052 -1.55858,4.40174 -3.62441,20.49493 -0.59239,4.61482 -1.71655,9.11482 -2.49813,10 -1.13134,1.28129 -1.26155,3.34233 -0.63865,10.10941 0.49521,5.37995 0.41498,8.95416 -0.21857,9.73727 -1.3963,1.7259 -0.18997,4.35834 1.67015,3.64455 0.86584,-0.33226 2.87574,0.55372 4.65773,2.05317 1.72406,1.4507 4.37261,3.27781 5.88568,4.06025 3.94608,2.04059 15.15851,2.98084 20.23794,1.6971 2.3492,-0.59372 5.49007,-1.33376 6.97971,-1.64454 3.68178,-0.76811 13.39026,-9.01749 18.39243,-15.62821 3.27178,-4.32388 4.65103,-7.54243 6.82204,-15.91959 1.49664,-5.775 2.9453,-13.62605 3.21925,-17.44677 0.27395,-3.82072 0.88263,-7.6653 1.35264,-8.54351 1.89407,-3.53911 3.48887,-27.11494 3.72115,-55.00972 0.13511,-16.225 0.29927,-30.4 0.36481,-31.5 0.0655,-1.1 -0.37582,-8.05245 -0.9808,-15.44989 -1.51475,-18.52178 -1.41903,-27.23331 0.32534,-29.60898 1.38074,-1.88045 1.45655,-1.85928 2.42522,0.67728 0.54995,1.44013 1.2343,7.30258 1.52076,13.02766 0.28647,5.72508 0.74526,11.07179 1.01956,11.88158 0.27429,0.80979 0.7477,6.64735 1.05202,12.97235 0.30432,6.325 0.99659,19.53125 1.53838,29.34722 0.7065,12.80016 0.67395,18.42855 -0.11511,19.90291 -0.7116,1.32964 -0.87209,5.09216 -0.4544,10.65279 0.35517,4.72839 0.86688,15.34708 1.13712,23.59708 0.75619,23.0849 2.19804,34.78986 5.5316,44.90551 3.13449,9.51159 4.92236,12.09102 11.41955,16.47551 6.14267,4.14525 16.92636,5.83426 49.5,7.75299 25.52893,1.50377 38.17745,2.73959 40.08115,3.91614 0.70993,0.43876 5.69201,1.13867 11.07129,1.55535 25.85254,2.00255 8.31205,3.59171 -49.15244,4.45321 -15.125,0.22675 -39.65,0.72704 -54.5,1.11175 -14.85,0.38471 -64.01742,0.86522 -109.26093,1.0678 -75.916475,0.33992 -82.310051,0.24034 -82.897715,-1.29109 z m 407.841155,-3.22569 c -2.03927,-1.42856 2.94255,-3.01263 13.31749,-4.23455 4.95,-0.58299 9.9,-1.34159 11,-1.68579 1.1,-0.34419 3.575,-0.70881 5.5,-0.81027 13.13293,-0.69217 25.73711,-1.88224 27.04997,-2.55402 0.85248,-0.43621 6.25248,-0.87977 12,-0.98569 11.42653,-0.21058 30.10089,-2.90454 37.46491,-5.40469 2.56825,-0.87195 6.21673,-2.76545 8.10773,-4.20779 3.89104,-2.96783 9.64402,-12.68424 11.35961,-19.18561 0.65134,-2.46831 1.36048,-15.86564 1.64087,-31 0.2716,-14.65919 0.70692,-30.92807 0.96738,-36.15307 0.26047,-5.225 0.63216,-21.2 0.82598,-35.5 0.68373,-50.44428 1.02321,-59.32761 2.31688,-60.62745 0.67834,-0.68157 1.46099,-1.01156 1.73923,-0.73332 1.20453,1.20453 2.60934,31.48516 2.01164,43.36077 -0.35986,7.15 -0.1528,23.02233 0.46013,35.27185 0.61293,12.24952 1.35003,28.44952 1.63801,36 0.28798,7.55048 0.92009,15.30315 1.40468,17.22815 0.48459,1.925 1.81076,7.04448 2.94703,11.37663 1.13627,4.33215 2.07006,8.83215 2.07509,10 0.005,1.16785 1.11596,4.37337 2.46873,7.12337 1.35277,2.75 2.47366,5.37883 2.49086,5.84184 0.0495,1.33211 4.02722,6.26206 10.56027,13.08824 7.4562,7.79075 12.4828,9.56992 27.03736,9.56992 9.11441,0 10.06392,-0.19596 14.38492,-2.96874 2.54451,-1.6328 5.68627,-4.40231 6.98169,-6.15447 2.27436,-3.07623 2.33251,-3.61231 1.69188,-15.5959 -0.44039,-8.23764 -1.15618,-13.16218 -2.12897,-14.64684 -0.80604,-1.23017 -2.19937,-6.93859 -3.09628,-12.68536 -0.89691,-5.74678 -2.26571,-11.95156 -3.04178,-13.7884 -0.77606,-1.83684 -2.08384,-10.38684 -2.90618,-19 -0.82233,-8.61316 -2.13359,-18.81029 -2.9139,-22.66029 -2.24766,-11.08972 -2.55049,-13.8341 -5.02069,-45.5 -0.83664,-10.725 -1.99516,-22.4442 -2.57449,-26.04266 -0.93071,-5.78111 -1.91591,-17.75766 -1.80622,-21.95734 0.0215,-0.825 -0.004,-10.95 -0.0559,-22.5 -0.0925,-20.44052 0.31906,-26.5 1.79998,-26.5 1.03927,0 2.88308,12.38987 4.16685,28 0.61063,7.425 1.54645,16.2 2.0796,19.5 0.53315,3.3 1.63864,10.05 2.45664,15 0.818,4.95 1.95254,12.6 2.52121,17 0.56867,4.4 1.64674,9.35268 2.39571,11.00595 0.74897,1.65327 2.29656,9.6643 3.43909,17.80229 1.14253,8.138 2.67699,16.23532 3.40992,17.99406 0.73293,1.75873 1.65437,5.6727 2.04766,8.6977 0.39328,3.025 1.8574,10.45 3.2536,16.5 4.43319,19.20993 8.47632,35.854 9.83813,40.5 0.72546,2.475 1.85498,7.2 2.51004,10.5 0.65507,3.3 2.00419,7.8 2.99805,10 0.99386,2.2 2.12621,5.575 2.51633,7.5 0.39013,1.925 1.2738,4.175 1.96371,5 0.68992,0.825 1.56804,2.81571 1.95138,4.42379 1.05016,4.40536 6.47504,11.36604 11.55186,14.82224 3.82516,2.60408 5.70085,3.14816 12.20478,3.54019 9.71638,0.58567 11.93577,0.003 16.83068,-4.41935 4.82483,-4.35895 6.40881,-9.4308 5.56655,-17.82399 -0.33352,-3.32358 -0.84742,-10.99288 -1.14199,-17.04288 -0.29457,-6.05 -1.00272,-13.925 -1.57366,-17.5 -0.57094,-3.575 -1.45966,-13.925 -1.97493,-23 -0.51527,-9.075 -1.12992,-18.525 -1.36589,-21 -3.02982,-31.77905 -4.23761,-70.62149 -2.25752,-72.60157 0.40247,-0.40247 0.77653,0.58074 0.83124,2.1849 0.34489,10.11175 1.51568,18.53483 3.39388,24.41667 0.79032,2.475 2.34766,12.95782 3.46077,23.29515 1.1131,10.33733 2.41498,19.56233 2.89307,20.5 0.47808,0.93767 1.41219,8.00485 2.0758,15.70485 1.52564,17.70227 2.93104,27.18463 4.59456,31 0.71941,1.65 2.07827,7.05 3.01968,12 0.94142,4.95 2.17512,10.125 2.74156,11.5 0.9508,2.30801 3.80507,12.10601 6.70014,23 0.65774,2.475 1.99343,6.3 2.96821,8.5 2.66442,6.01336 4.24404,11.38163 3.63774,12.36265 -0.2972,0.48087 -4.40247,0.92694 -9.12284,0.99127 -4.72037,0.0643 -15.64289,0.59656 -24.27227,1.18272 -8.62938,0.58616 -29.63978,0.98361 -46.68978,0.88322 -17.05,-0.1004 -38.425,0.11818 -47.5,0.48571 -9.075,0.36754 -42.375,0.84544 -74,1.062 -31.625,0.21656 -68.525,0.68244 -82,1.03529 -14.49374,0.37952 -25.03809,0.2646 -25.81749,-0.28138 z M 346,648.1333 C 342.97455,646.33693 336.88554,644 335.23043,644 c -0.93595,0 -4.18318,-1.16001 -7.21608,-2.5778 -3.03289,-1.41779 -9.11435,-4.26468 -13.51435,-6.32643 -4.4,-2.06174 -9.70489,-4.50274 -11.78865,-5.42444 l -3.78865,-1.67583 -6.71135,3.60285 c -3.69124,1.98157 -7.38635,4.15099 -8.21135,4.82093 -2.74755,2.23114 -16.8112,8.45507 -20.68254,9.15314 -2.0996,0.3786 -4.3799,1.13473 -5.06732,1.6803 -0.73116,0.58028 -4.88115,0.77621 -10,0.47211 -11.50504,-0.68349 -19.66508,-4.0828 -42.59835,-17.74565 l -3.84822,-2.29263 -8.65178,2.6296 c -16.29289,4.95202 -23.54698,6.00575 -36.39186,5.28628 C 143.47705,634.85844 142,634.49948 142,632.01546 c 0,-3.24693 -2.5657,-4.38508 -5.70491,-2.5307 -2.71465,1.60358 -3.01202,1.54671 -10.01866,-1.91606 C 122.3049,625.60591 118.88687,624 118.6808,624 c -0.49738,0 -16.56371,-10.76325 -19.4221,-13.01137 -1.232716,-0.96953 -3.932716,-2.07941 -6,-2.46639 C 88.234811,607.5818 69.457192,599.04413 68,597.0378 c -0.275,-0.37863 -1.85,-1.49719 -3.5,-2.48567 -3.988259,-2.3893 -11.974906,-11.79986 -14.372704,-16.93518 -1.18144,-2.53026 -2.116326,-7.2712 -2.425734,-12.30124 l -0.503433,-8.18429 4.150936,-6.29038 C 56.048683,543.71918 64.918636,536 68.402602,536 c 1.280224,0 3.452765,-0.88499 4.827868,-1.96665 1.375103,-1.08165 4.473289,-2.27708 6.884859,-2.65649 2.411569,-0.37941 5.417159,-1.35927 6.679088,-2.17747 1.800703,-1.16751 4.119359,-1.34734 10.775394,-0.83572 8.453399,0.64978 8.507719,0.63868 16.705579,-3.41493 4.52354,-2.23676 10.02461,-4.74768 12.22461,-5.57982 4.96925,-1.87961 23.5,-3.11582 23.5,-1.56772 0,0.58773 0.45746,2.27181 1.01657,3.74239 0.86124,2.26523 1.25203,2.47838 2.55752,1.39492 0.84752,-0.70338 1.41914,-2.44006 1.27027,-3.85929 -0.45454,-4.3334 0.50765,-4.87746 6.87418,-3.88691 3.1798,0.49474 6.56285,1.32886 7.51789,1.85361 0.95504,0.52474 2.86838,0.95408 4.25188,0.95408 1.38349,0 6.4521,1.38515 11.26357,3.0781 7.65031,2.69183 9.60715,3.00357 15.59346,2.48416 3.76494,-0.32667 7.78206,-1.09526 8.92692,-1.70797 8.97858,-4.80519 57.28566,-5.41241 67.04514,-0.84277 2.30043,1.07713 6.56748,2.40777 9.48233,2.95699 4.94934,0.93256 5.67429,0.79871 10.96507,-2.02462 3.11594,-1.66275 6.392,-3.68081 7.28014,-4.48456 3.49278,-3.16092 37.65609,-19.46632 42.95506,-20.5015 3.025,-0.59096 6.87112,-1.4943 8.54693,-2.00744 8.56215,-2.62176 21.84121,-1.86952 28.58821,1.61949 5.13676,2.65633 13.92628,2.92175 21.00181,0.63421 15.9858,-5.16826 27.85578,-6.10306 33.36305,-2.62747 1.1,0.6942 4.7,1.58555 8,1.98077 3.3,0.39523 8.33367,1.7815 11.18592,3.0806 2.85226,1.29911 5.70628,2.36201 6.34227,2.36201 0.63599,0 2.30052,0.9 3.69894,2 1.39842,1.1 3.22218,2 4.0528,2 1.93684,0 13.84308,5.94772 22.22007,11.09995 6.32003,3.88711 6.68902,3.98221 13.327,3.43479 3.75485,-0.30966 8.12,-1.23165 9.70034,-2.04888 1.58034,-0.81722 4.19073,-1.48586 5.80088,-1.48586 1.61014,0 4.54303,-0.675 6.51754,-1.5 4.16943,-1.7421 12.88888,-1.97998 15.7839,-0.43061 1.46657,0.78489 2.39513,0.73996 3.49019,-0.16886 0.914,-0.75855 3.69793,-1.11939 7.18608,-0.93144 3.13174,0.16875 6.59407,0.29529 7.69407,0.28119 5.17893,-0.0664 20.37184,2.03494 23.5,3.25026 5.74946,2.23372 13.30117,2.73833 15.54835,1.03896 1.07341,-0.81174 2.85165,-1.49298 3.95165,-1.51386 1.1,-0.0209 3.35,-0.74918 5,-1.61845 1.65,-0.86928 5.025,-1.95402 7.5,-2.41056 2.475,-0.45653 6.3,-1.52278 8.5,-2.36945 6.95555,-2.67683 34.22462,-1.34808 39.19703,1.90997 1.22793,0.80457 3.30562,1.46285 4.61708,1.46285 1.31147,0 5.39184,1.59593 9.0675,3.54651 6.01578,3.19242 7.45357,3.54347 14.40071,3.51606 11.06895,-0.0437 12.06776,0.042 18.71768,1.60591 11.28059,2.6529 15.8468,5.22399 25.70885,14.47588 5.4105,5.07576 5.76985,5.71541 6.87604,12.23994 1.56626,9.23806 0.71931,16.43786 -2.50007,21.25263 -9.19681,13.75438 -12.68473,17.54137 -21.08482,22.89273 -7.64269,4.86885 -18.14381,10.46919 -19.6511,10.48011 -2.10288,0.0152 -11.07404,4.44165 -13.8489,6.83313 -3.37852,2.91173 -11.29203,8.11638 -12.37495,8.1389 -0.48123,0.01 -3.40623,1.09725 -6.5,2.41609 -9.42562,4.01803 -19.00394,6.76257 -24.96155,7.1524 -3.11492,0.20382 -7.71591,0.66232 -10.2244,1.01888 -2.74867,0.39071 -8.31144,-0.0119 -14,-1.01339 -5.19151,-0.91393 -11.86378,-2.07439 -14.82728,-2.5788 -2.9635,-0.50441 -6.14893,-1.60558 -7.07874,-2.44704 -2.06738,-1.87096 -3.47947,-1.93362 -5.21165,-0.23127 -0.72679,0.71428 -3.79643,2.76471 -6.82143,4.55653 -3.025,1.79182 -7.525,4.54704 -10,6.12272 -2.475,1.57568 -5.08311,2.90024 -5.79581,2.94348 -0.71269,0.0432 -3.40911,1.2036 -5.99204,2.5786 -2.58293,1.375 -5.62232,2.5 -6.75419,2.5 -1.13188,0 -2.62046,0.5625 -3.30796,1.25 -0.76852,0.76852 -4.02333,1.25 -8.45,1.25 -5.53162,0 -8.19195,-0.52137 -11.48079,-2.25 -2.35444,-1.2375 -5.50444,-2.26001 -7,-2.27224 C 526.72364,639.96553 524.375,639.07554 523,638 c -1.375,-1.07554 -3.4,-1.9679 -4.5,-1.98303 -1.981,-0.0272 -3.27471,-0.75653 -11.45361,-6.45666 -3.35029,-2.33491 -5.23813,-2.92429 -9.17653,-2.86488 -3.0711,0.0463 -5.63771,0.68949 -6.74292,1.68969 -0.98143,0.88818 -2.50993,1.61488 -3.39666,1.61488 -0.88674,0 -1.8277,0.34862 -2.09104,0.77471 -0.26334,0.42608 -3.32739,2.16027 -6.80902,3.85375 C 462.76232,642.44395 456.7922,645 454.60558,645 c -1.29873,0 -3.97683,0.675 -5.95134,1.5 -5.33263,2.22811 -15.35579,1.93701 -20.71641,-0.60166 -6.77466,-3.20833 -13.61639,-10.39789 -15.55556,-16.34638 -0.9058,-2.77858 -2.08745,-5.60842 -2.6259,-6.28854 -0.60801,-0.768 -0.7093,-5.88365 -0.2673,-13.5 0.7078,-12.19643 0.73572,-12.30372 5.11131,-19.64006 2.41979,-4.05715 4.39962,-7.60261 4.39962,-7.8788 0,-0.27619 1.575,-2.2455 3.5,-4.37624 1.925,-2.13074 3.5,-4.35281 3.5,-4.93792 0,-1.82641 -5.07788,-7.82034 -7.19419,-8.49203 -1.10914,-0.35203 -4.87387,-3.06393 -8.36606,-6.02645 -8.09357,-6.86599 -12.28122,-9.40008 -14.32032,-8.66573 -0.89069,0.32077 -3.44452,2.1966 -5.67518,4.16851 -2.23066,1.97192 -7.96816,6.61811 -12.75,10.32488 C 371.7555,568.84316 369,571.63307 369,573.0424 c 0,1.13479 2.51402,5.67171 5.58671,10.08205 3.07269,4.41035 6.65328,10.43053 7.95688,13.37819 2.56201,5.79317 4.56992,21.02204 3.69142,27.99736 -0.73588,5.84291 -7.95555,16.25812 -14.14226,20.40183 -4.76413,3.19091 -5.68402,3.42417 -14.8359,3.76197 C 351.89058,648.86187 346.825,648.6231 346,648.1333 z m 19.55761,-13.37355 c 3.76758,-1.83044 5.07541,-3.22169 7.14915,-7.60521 2.2278,-4.7092 2.48236,-6.32666 2.08257,-13.23274 -0.5153,-8.90149 -3.71147,-16.25561 -11.14907,-25.65304 -5.26772,-6.65578 -7.79243,-7.45521 -11.70534,-3.70641 -1.61421,1.54651 -2.93492,3.14164 -2.93492,3.54474 0,0.4031 2.23515,3.97749 4.967,7.94307 6.40769,9.30148 8.44099,14.63783 7.78727,20.43756 -0.27966,2.48115 -1.06888,5.18643 -1.75382,6.01173 -2.03014,2.44618 -9.06301,1.90551 -13.00045,-0.99945 -1.86371,-1.375 -3.97506,-2.5 -4.6919,-2.5 -0.71684,0 -5.35548,-2.25 -10.3081,-5 -4.95262,-2.75 -9.35116,-5 -9.77454,-5 -0.42337,0 -2.35184,-1.30407 -4.28548,-2.89794 -1.93364,-1.59387 -5.22087,-3.61041 -7.30495,-4.48119 -2.08408,-0.87079 -5.66704,-2.84154 -7.96213,-4.37946 -2.2951,-1.53792 -6.8729,-4.07699 -10.1729,-5.64239 -3.3,-1.5654 -7.575,-3.88425 -9.5,-5.15301 -5.12512,-3.37793 -9.77755,-3.91737 -14,-1.62327 -4.2472,2.30756 -5.15179,5.67756 -1.8083,6.73668 1.26957,0.40216 5.28407,2.69081 8.92113,5.08589 3.63705,2.39508 6.94709,4.35469 7.35564,4.35469 0.40855,0 1.98857,1.0125 3.51115,2.25 1.52258,1.2375 4.25185,3.15 6.06504,4.25 1.8132,1.1 4.90741,2.9947 6.87603,4.21044 1.96862,1.21574 4.92931,2.95588 6.57931,3.86697 1.65,0.9111 3.9,2.44151 5,3.40093 2.06578,1.80177 9.9091,5.93049 19.5,10.26478 3.025,1.36705 7.3,3.32792 9.5,4.35748 8.03952,3.76236 18.68574,4.25484 25.05761,1.15915 z m -106.19182,-0.38224 c 2.82381,-0.89237 7.38421,-2.76908 10.13421,-4.17047 5.23766,-2.66909 15.5,-10.19127 15.5,-11.36132 0,-0.37435 -2.35442,-2.03995 -5.23204,-3.70133 l -5.23203,-3.0207 -3.04712,1.88322 c -1.67591,1.03577 -6.38303,3.53188 -10.46028,5.54691 -9.98446,4.93445 -13.53309,4.58469 -26.12808,-2.57524 -8.46647,-4.81297 -16.70562,-10.53133 -19.40045,-13.46483 -0.55,-0.59871 -3.19591,-2.36243 -5.8798,-3.91938 C 203.02834,595.77038 197.81293,592.34257 196,590.64256 192.39291,587.26013 178.0932,579 175.84473,579 c -1.45767,0 -3.67469,1.26356 -5.40764,3.082 l -2.93709,3.082 3,2.46069 c 1.65,1.35337 7.38877,5.42336 12.75283,9.04442 5.36406,3.62105 11.66406,8.26529 14,10.32052 2.33594,2.05524 8.07217,6.23122 12.74717,9.27997 4.675,3.04874 9.18889,6.16169 10.03088,6.91766 2.28772,2.05403 11.86354,7.31165 18.55957,10.19018 6.95927,2.99169 13.47981,3.30557 20.77534,1.00007 z m 188.08666,0.69943 c 0.31377,-0.50769 2.02782,-1.22621 3.80902,-1.59673 5.19789,-1.08123 33.81751,-15.51588 38.73853,-19.53824 2.475,-2.02302 6.975,-5.15817 10,-6.967 3.025,-1.80883 7.52889,-4.95337 10.00864,-6.98788 2.47975,-2.03451 5.51725,-4.01923 6.75,-4.41049 1.23275,-0.39125 2.24136,-1.08884 2.24136,-1.55018 0,-0.46135 2.25,-2.45527 5,-4.43095 2.75,-1.97568 4.99443,-4.15539 4.98762,-4.84381 -0.015,-1.51734 -6.32359,-5.75166 -8.56923,-5.75166 -0.8853,0 -2.80412,0.83153 -4.26402,1.84784 -1.4599,1.01631 -6.31301,3.66327 -10.78468,5.88213 -4.47166,2.21886 -10.47457,5.88734 -13.33979,8.15216 -2.86522,2.26483 -5.58694,4.11787 -6.04827,4.11787 -0.46132,0 -1.43342,0.57131 -2.1602,1.26958 C 481.48155,602.51765 473.63331,608 472.75496,608 c -0.46807,0 -3.30239,1.56811 -6.29849,3.4847 -2.99611,1.91658 -6.91199,4.18264 -8.70197,5.03569 -1.78997,0.85304 -5.49653,2.70518 -8.23678,4.11586 -10.50104,5.40594 -14.54518,4.0777 -15.30006,-5.02506 -0.6472,-7.80443 2.52581,-17.62728 7.72733,-23.92183 4.34899,-5.26288 4.34593,-6.97044 -0.0165,-9.22635 -4.18873,-2.16607 -5.33996,-1.85684 -9.2662,2.48905 -8.14745,9.01825 -11.63204,17.12794 -11.65146,27.11644 -0.0207,10.65989 4.01216,18.6523 11.48918,22.76941 2.43217,1.33924 14.15665,1.52666 14.95245,0.23903 z M 560,628.34474 c 4.125,-1.90183 8.175,-3.87771 9,-4.39083 0.825,-0.51313 3.075,-1.79292 5,-2.84399 1.925,-1.05106 5.24938,-3.30577 7.3875,-5.01047 2.13813,-1.7047 4.38813,-3.10653 5,-3.11519 0.61188,-0.009 4.9375,-3.42894 9.6125,-7.60062 4.675,-4.17169 9.66188,-8.32711 11.08195,-9.23427 C 611.31556,593.4449 625,580.44295 625,579.12495 625,577.36902 620.01412,573 618.01026,573 c -2.6541,0 -18.75299,11.44325 -33.7643,24 -17.71531,14.8186 -31.55691,23.27512 -38.08773,23.26968 -3.78149,-0.003 -17.39876,-5.27239 -20.2173,-7.82313 -2.50972,-2.27127 -7.83587,-1.76406 -11.59654,1.10434 -4.05883,3.09582 -4.14045,3.88481 -0.59439,5.74597 29.42934,15.44605 31.49577,15.8503 46.25,9.04788 z m -381.50962,-8.52291 c 9.03687,-1.7635 9.38613,-3.286 1.93144,-8.41973 l -5.66624,-3.9021 -12.62779,0 c -10.98375,0 -13.26275,-0.29293 -17.50491,-2.25 -2.68241,-1.2375 -5.60898,-2.25 -6.50348,-2.25 -3.3232,0 -16.42389,-7.25186 -20.54427,-11.37224 C 113.04963,587.10226 110,580.1087 110,574.25612 c 0,-5.12233 -1.4683,-6.99049 -6.1107,-7.77482 -5.061617,-0.85516 -5.852876,0.0995 -5.873987,7.0872 -0.02907,9.62073 4.618597,20.8611 11.188527,27.05941 3.95161,3.72809 13.815,10.37209 15.39795,10.37209 0.62067,0 2.21632,0.85569 3.54589,1.90153 1.32957,1.04584 6.22776,3.07413 10.88486,4.50732 4.6571,1.43318 9.1125,3.01756 9.90087,3.52084 1.98057,1.26434 21.06689,0.54894 29.55697,-1.10786 z m 466.92155,-3.85833 c 4.35156,-0.58655 8.68077,-1.47793 9.62046,-1.98083 0.93969,-0.50291 3.46851,-1.30982 5.61958,-1.79314 7.77638,-1.74724 25.60233,-14.84596 28.81813,-21.1759 2.7705,-5.45342 6.39785,-17.84898 7.04145,-24.06239 0.87274,-8.4255 -0.33853,-9.82846 -6.73744,-7.80368 L 685.5,560.5 l -0.64914,6.56161 c -0.54404,5.49929 -1.31305,7.50938 -4.75,12.41578 -2.25547,3.2198 -4.10087,6.34207 -4.10089,6.93839 -9e-5,3.39293 -18.89898,13.58559 -30.16671,16.26968 -4.23697,1.00929 -11.38201,1.76115 -16.92231,1.7807 l -9.58906,0.0338 -4.78764,3.92077 c -4.43887,3.63515 -4.65522,4.0176 -2.96982,5.25 0.99981,0.73108 3.19432,1.35024 4.8767,1.37591 1.68238,0.0257 5.98387,0.6615 9.55887,1.41294 3.575,0.75145 7.625,1.18718 9,0.9683 1.375,-0.21888 6.06037,-0.87787 10.41193,-1.46442 z M 233.61765,592.92543 C 254.68033,580.45566 279,563.23091 279,560.78274 279,559.50397 273.20779,557 270.24974,557 c -1.78315,0 -5.10385,1.64032 -8.8732,4.38307 -3.31299,2.41069 -7.34053,5.0766 -8.95008,5.92426 -1.60955,0.84765 -6.97646,4.51059 -11.92646,8.13986 -4.95,3.62927 -11.8125,8.01516 -15.25,9.74643 -3.68246,1.85464 -6.2537,3.79655 -6.25901,4.72707 -0.008,1.42308 5.61389,6.98652 7.12666,7.05241 0.33971,0.0148 3.71471,-1.80666 7.5,-4.04767 z m 339.59019,-3.62838 C 575.29353,587.26043 577,585.24458 577,584.81738 c 0,-0.4272 -1.9125,-1.75149 -4.25,-2.94285 -4.32085,-2.20224 -10.58073,-6.12689 -27.93955,-17.51678 C 539.48119,560.86099 534.85904,558 534.53901,558 c -0.32004,0 -2.3608,-1.17723 -4.53503,-2.61606 -4.32223,-2.86032 -8.53468,-2.80181 -12.78844,0.17764 -2.99902,2.1006 -2.80288,3.02093 1.20918,5.67386 1.8836,1.24551 9.1961,6.12189 16.25,10.83641 7.05391,4.71452 15.52528,10.31628 18.82528,12.44835 3.3,2.13206 7.27203,4.91223 8.82673,6.17814 3.9451,3.2123 6.49231,2.88426 10.88111,-1.40129 z m -485.678504,1.65548 c 0.356054,-0.5761 0.1072,-3.29915 -0.55301,-6.05121 -1.033869,-4.30965 -1.931956,-5.5442 -6.474323,-8.89984 -10.574268,-7.81167 -11.847828,-11.83769 -5.471221,-17.29583 6.664464,-5.70454 24.944461,-8.78107 31.768878,-5.34672 1.48519,0.74741 4.43618,1.62696 6.55775,1.95456 2.12158,0.3276 6.62158,2.04555 10,3.81768 12.75547,6.6908 11.29819,6.36889 15.23578,3.36555 5.62043,-4.28691 4.57135,-6.10979 -7.09319,-12.32511 -15.73084,-8.38201 -31.621421,-11.48182 -44.827465,-8.7446 -13.129436,2.72135 -23.830491,9.51249 -26.611201,16.88809 -1.34006,3.5544 -1.364569,9.75713 -0.05219,13.20894 1.595173,4.19562 11.918918,13.81518 18.49086,17.2296 6.569825,3.41331 8.05522,3.77505 9.029336,2.19889 z m 237.763004,-1.92297 c 2.57614,-1.63374 8.62674,-6.28367 13.44578,-10.33317 4.81903,-4.04949 9.50781,-7.7753 10.41951,-8.27955 1.66586,-0.92139 7.66116,-6.10021 24.21453,-20.91684 4.91574,-4.4 12.1305,-10.41751 16.03278,-13.37224 3.90228,-2.95474 8.99972,-7.11927 11.32763,-9.25453 4.38869,-4.02549 8.98806,-6.41169 18.09895,-9.38991 5.92952,-1.93829 16.27061,-1.48692 21.04757,0.91868 1.4415,0.72591 4.45538,1.60027 6.6975,1.94301 4.20371,0.6426 12.09521,4.09166 23.42341,10.23745 l 6.5,3.52639 5.25,-2.76935 c 7.7008,-4.06214 7.44735,-4.62261 -5.06832,-11.20802 -4.30008,-2.26258 -8.78771,-4.79277 -9.97251,-5.62263 C 465.52437,513.67898 463.91104,513 463.12399,513 c -0.78706,0 -3.72443,-1.0749 -6.5275,-2.38866 -2.80307,-1.31377 -7.12149,-2.70399 -9.59649,-3.0894 -2.475,-0.3854 -6.42823,-1.3355 -8.78495,-2.11134 -5.52906,-1.82016 -13.44346,-1.79268 -21.49521,0.0747 -10.73987,2.49074 -16.96968,5.87388 -25.89343,14.06158 -4.57953,4.2018 -9.97608,8.70445 -11.99235,10.00589 -2.01627,1.30143 -3.95779,2.83847 -4.3145,3.41563 -0.35671,0.57716 -3.88203,3.60981 -7.83406,6.73921 -3.95202,3.1294 -10.1105,8.4452 -13.6855,11.81288 -3.575,3.36768 -9.40671,8.34077 -12.95935,11.05131 -3.55265,2.71054 -7.15265,5.46061 -8,6.11127 C 320.57921,577.48395 310,586.25346 310,586.95337 c 0,1.03582 6.79752,4.72664 9.05422,4.91613 0.85482,0.0718 3.66197,-1.2062 6.23812,-2.83994 z m -182.99268,-0.67423 c 3.97774,-2.04418 6.52039,-3.95979 17.48834,-13.17553 4.7916,-4.02611 10.84161,-8.70928 13.44446,-10.40704 7.70428,-5.02529 7.41282,-8.99903 -0.74984,-10.2231 -3.91427,-0.58698 -4.90838,-0.3207 -8.21778,2.2012 -2.07066,1.57792 -6.68984,5.0632 -10.26484,7.74505 -3.575,2.68185 -8.5468,6.70489 -11.04844,8.94009 -2.50165,2.2352 -6.66415,5.29042 -9.25,6.78938 -2.58586,1.49896 -4.70156,3.11459 -4.70156,3.59029 0,1.16241 7.13603,6.18433 8.78778,6.18433 0.72135,0 2.75169,-0.7401 4.51188,-1.64467 z m 336.81419,-1.53947 c 2.13738,-1.20128 3.88268,-2.88878 3.87845,-3.75 -0.004,-0.86122 -1.75806,-2.56522 -3.89739,-3.78666 -2.13933,-1.22145 -6.62383,-4.37145 -9.96556,-7 -3.34174,-2.62856 -7.70526,-5.9042 -9.69673,-7.2792 -1.99146,-1.375 -8.12227,-6.1 -13.62403,-10.5 -5.50175,-4.4 -11.25226,-8.9 -12.77891,-10 -1.52664,-1.1 -5.82497,-4.3625 -9.55183,-7.25 -3.72686,-2.8875 -7.57634,-5.25 -8.5544,-5.25 -2.12213,0 -5.92345,4.53289 -5.92345,7.06343 0,0.98654 0.61234,2.38836 1.36075,3.11514 2.59244,2.51753 15.11419,12.27015 31.51748,24.54752 3.50803,2.62565 10.03303,7.67239 14.5,11.21498 15.46887,12.26779 16.19457,12.55106 22.73562,8.87479 z M 710,583.5 c 0.68469,-0.825 1.83026,-1.5 2.54572,-1.5 0.71546,0 2.63782,-1.125 4.27191,-2.5 1.6341,-1.375 3.30557,-2.5 3.71438,-2.5 2.10462,0 11.67275,-9.04413 13.55331,-12.81106 2.89577,-5.80047 2.34163,-13.62933 -1.30292,-18.40758 -2.85477,-3.7428 -13.56127,-10.7748 -16.43313,-10.79323 -1.0171,-0.007 -4.32427,-0.68475 -7.34927,-1.50716 -7.13549,-1.93995 -22.05309,-0.41438 -29.5,3.01684 -14.6875,6.76738 -26.80351,13.16638 -27.28816,14.41209 -0.61355,1.57701 4.08086,5.81697 7.40235,6.68575 1.33771,0.3499 3.90859,-0.53145 7,-2.39973 11.81794,-7.14212 23.12701,-10.5819 34.88581,-10.61091 7.87614,-0.0194 9.65272,0.31792 14.22701,2.70158 4.74079,2.47043 8.27299,6.59519 8.27299,9.66087 0,1.63635 -7.10803,9.09565 -11.02138,11.56604 -2.73798,1.7284 -3.92006,3.45943 -5.25557,7.69613 -0.94768,3.00638 -1.72305,6.2141 -1.72305,7.12826 0,2.07024 2.33777,2.16498 4,0.16211 z m -47.29807,-3.6897 c 3.15448,-2.96349 2.90326,-4.25955 -1.45193,-7.49047 -2.0625,-1.53008 -6.05192,-4.59048 -8.86538,-6.80089 -2.81346,-2.21042 -5.96346,-4.58215 -7,-5.27053 -7.53513,-5.00412 -11.33312,-7.5994 -14.2825,-9.75966 C 629.23328,549.11994 626.75126,548 625.58652,548 c -2.4863,0 -8.8243,3.21333 -9.32993,4.73022 -0.19249,0.57749 1.94538,2.78694 4.75083,4.90988 2.80546,2.12295 6.98897,5.55779 9.2967,7.63299 2.30774,2.0752 6.44588,5.30026 9.19588,7.1668 2.75,1.86654 7.25,5.02653 10,7.0222 5.62942,4.08525 9.12586,4.17748 13.20193,0.34821 z M 232.49207,565.75 c 3.55725,-2.31055 4.91556,-4.28142 3.98664,-5.78445 -0.29028,-0.46969 -4.22924,-2.72817 -8.75325,-5.01885 -4.524,-2.29069 -8.93589,-4.79079 -9.8042,-5.55579 -0.86831,-0.765 -1.94909,-1.39091 -2.40174,-1.39091 -0.45264,0 -4.29128,-2.00051 -8.5303,-4.44557 -4.23901,-2.44506 -9.00823,-4.75711 -10.59826,-5.13789 -1.59003,-0.38077 -3.34096,-1.03873 -3.89096,-1.46212 -3.00187,-2.31086 -20.23103,-8.03627 -28.09774,-9.33714 -7.83182,-1.29509 -10.4756,-1.3186 -19,-0.16893 -11.79362,1.59057 -17.76018,3.4557 -18.18966,5.68603 -0.19585,1.01711 0.74318,2.06743 2.48634,2.78101 1.54058,0.63065 3.92606,1.80104 5.30106,2.60088 2.95471,1.71875 6.37886,1.88652 9.07319,0.44456 1.06794,-0.57154 5.65086,-1.06408 10.18426,-1.09454 8.18906,-0.055 13.42714,1.31769 32.24255,8.44947 3.37567,1.27951 24.70947,12.63609 29.5,15.70368 3.90208,2.49867 10.6297,5.89221 11.76402,5.934 0.69522,0.0256 2.82284,-0.96594 4.72805,-2.20344 z m 89.01291,-5.06786 c 2.19726,-1.89939 3.5399,-3.8005 3.14048,-4.44679 -1.77969,-2.8796 -22.86906,-14.37798 -30.64546,-16.70856 -1.375,-0.41209 -3.85,-1.35514 -5.5,-2.09567 -1.65,-0.74052 -7.5,-2.79977 -13,-4.57611 -9.74844,-3.14845 -10.46539,-3.23127 -28.5,-3.29235 -18.56074,-0.0629 -30.5113,1.40344 -29.76188,3.6517 0.19239,0.57716 2.13001,2.33177 4.30584,3.89914 l 3.95604,2.84977 19,0.37415 c 16.38694,0.3227 19.82518,0.6727 25,2.5449 3.3,1.19391 8.25,2.81622 11,3.60513 2.75,0.78891 11.975,5.00602 20.5,9.37136 8.525,4.36533 15.76253,7.98292 16.08339,8.03908 0.32086,0.0562 2.31058,-1.39093 4.42159,-3.21575 z m 252.20644,0.0679 c 2.2143,-1.2375 8.47258,-4.92086 13.90729,-8.18524 12.66679,-7.60836 29.8845,-16.16218 34.38129,-17.08075 1.925,-0.39323 4.13468,-1.22549 4.91041,-1.84948 0.90698,-0.72958 6.97491,-1.16043 17,-1.20708 14.18375,-0.066 16.06302,-0.28681 20.83959,-2.44847 2.8875,-1.30675 5.25,-2.70427 5.25,-3.1056 0,-1.55467 -11.92905,-5.10512 -20.58875,-6.12782 -9.01471,-1.06464 -12.54714,-0.76704 -25.41125,2.14083 -7.9074,1.78744 -29.19938,11.36418 -37.1269,16.69901 -2.79074,1.87803 -5.5378,3.4146 -6.10456,3.4146 -2.03842,0 -22.82981,13.31662 -22.47621,14.39572 0.59095,1.80343 6.82926,5.60428 9.19827,5.60428 1.20716,0 4.00653,-1.0125 6.22082,-2.25 z m -92.44041,-0.21877 c 1.9334,-0.80782 6.22657,-3.05782 9.54039,-5 3.31382,-1.94218 6.72562,-3.53123 7.58178,-3.53123 0.85616,0 4.47367,-1.575 8.03891,-3.5 3.56525,-1.925 7.0707,-3.5 7.7899,-3.5 0.71919,0 3.07093,-0.94507 5.22607,-2.10016 C 528.32712,538.14095 534.37187,537 550.70544,537 l 15.4449,0 6.94349,-4.12505 c 5.15339,-3.06157 6.68101,-4.44133 5.92536,-5.35183 -1.60287,-1.93134 -23.72229,-3.85707 -34.8344,-3.0327 -19.88151,1.47495 -42.526,9.40439 -64.83351,22.70281 -9.42624,5.61936 -10.88334,7.03362 -9.6033,9.32092 0.88182,1.57572 6.12162,5.46606 7.3799,5.47926 0.34533,0.004 2.20974,-0.65436 4.14313,-1.46218 z M 335.22194,527.21238 c 6.99707,-3.43814 14.19707,-6.518 16,-6.84415 1.80293,-0.32614 5.20629,-1.21741 7.56301,-1.98061 2.35672,-0.76319 7.30672,-1.40452 11,-1.42517 6.17746,-0.0345 7.03528,-0.31198 10.71505,-3.46549 l 4,-3.42795 -2.1767,-2.18343 c -1.94107,-1.94706 -3.29426,-2.19437 -12.5,-2.28451 -10.17424,-0.0996 -12.67369,0.34502 -25.8233,4.59377 -9.73425,3.14522 -29.05362,12.76524 -34.48884,17.17361 l -2.98884,2.42417 2.48884,2.09107 c 3.54043,2.97459 7.96384,4.06279 10.98884,2.70335 1.375,-0.61793 8.22487,-3.93653 15.22194,-7.37466 z M 131.41436,369.5 c -2.26912,-8.35211 1.15331,-70.02607 4.49146,-80.93843 0.5151,-1.68386 1.2286,-5.76157 1.58555,-9.06157 0.35694,-3.3 1.04456,-7.575 1.52804,-9.5 0.48347,-1.925 1.60774,-8 2.49837,-13.5 0.89064,-5.5 2.30173,-12.475 3.13576,-15.5 0.83403,-3.025 2.13889,-7.75 2.89968,-10.5 0.7608,-2.75 1.68158,-6.5684 2.04617,-8.48533 0.36459,-1.91694 1.23471,-4.39194 1.93359,-5.5 0.69888,-1.10807 1.59183,-3.58967 1.98433,-5.51467 0.3925,-1.925 1.02826,-3.95 1.41281,-4.5 0.38455,-0.55 2.40833,-6.4 4.4973,-13 2.08896,-6.6 5.32237,-15.16214 7.18535,-19.02699 1.86298,-3.86484 3.38723,-7.65453 3.38723,-8.42154 0,-1.77211 4.9067,-14.23752 6.10177,-15.50147 0.49403,-0.5225 0.89823,-2.12548 0.89823,-3.56217 0,-1.43669 0.9,-4.47496 2,-6.75169 1.1,-2.27674 2,-4.74627 2,-5.48783 0,-0.74157 0.37788,-1.77581 0.83972,-2.29831 0.46185,-0.5225 1.41803,-2.525 2.12484,-4.45 0.70681,-1.925 2.99204,-7.1 5.07828,-11.5 2.08623,-4.4 5.00995,-10.7 6.49713,-14 4.36603,-9.688025 6.37308,-13.90225 7.382,-15.5 0.52095,-0.825 2.21413,-4.136644 3.76261,-7.35921 4.37037,-9.095244 8.05661,-12.844484 12.7877,-13.006274 3.89491,-0.133194 3.94114,-0.0912 4.70555,4.273971 0.60401,3.449224 0.36558,5.189981 -1.09576,8 C 219.16207,86.446268 214,97.92818 214,99.109592 c 0,0.67811 -0.62043,1.943358 -1.37872,2.811668 C 210.68844,104.1345 204,117.35088 204,118.95693 c 0,0.72982 -1.8,4.17704 -4,7.6605 -2.2,3.48345 -4,6.96814 -4,7.74375 0,0.77561 -0.67223,2.69914 -1.49384,4.27451 -0.82161,1.57537 -1.49661,3.58103 -1.5,4.45703 -0.003,0.87599 -1.12363,3.57599 -2.48943,6 -1.3658,2.424 -2.94388,5.53228 -3.50685,6.90728 -0.56297,1.375 -1.6955,3.69443 -2.51673,5.15429 -0.82123,1.45986 -1.49315,3.79581 -1.49315,5.19099 0,1.39518 -0.47544,2.83052 -1.05653,3.18966 C 180.86914,170.19891 176,180.1761 176,181.7135 c 0,0.4629 -1.26813,3.30424 -2.81806,6.31407 -1.54994,3.00984 -3.41166,7.62152 -4.13718,10.24819 -0.72551,2.62667 -1.70738,5.01573 -2.18193,5.30902 -0.47456,0.29329 -0.86283,1.54569 -0.86283,2.78311 0,1.23742 -0.66069,3.12336 -1.4682,4.19098 -0.8075,1.06762 -1.48528,2.84113 -1.50616,3.94113 -0.0209,1.1 -0.63666,3.14721 -1.3684,4.54935 -0.73174,1.40213 -1.59694,4.19164 -1.92267,6.1989 -0.32574,2.00726 -1.25823,5.13506 -2.07222,6.95066 -0.81399,1.8156 -1.70937,4.42609 -1.98974,5.80109 -0.28037,1.375 -1.20165,4.3 -2.0473,6.5 -0.84564,2.2 -1.55728,5.63254 -1.58142,7.62788 -0.0241,1.99533 -0.73873,5.29086 -1.58798,7.3234 -0.84925,2.03254 -1.27606,4.54001 -0.94848,5.57215 0.32759,1.03213 -0.10257,3.22676 -0.9559,4.87693 -0.85334,1.65018 -1.55153,4.34337 -1.55153,5.98488 0,1.64151 -0.49717,4.25136 -1.10483,5.79966 -1.03074,2.62632 -2.8908,14.08453 -4.75884,29.3151 -0.43848,3.575 -1.26208,7.4 -1.83024,8.5 -0.56815,1.1 -1.29662,5.92443 -1.61882,10.72096 -0.3222,4.79652 -1.01785,9.52822 -1.5459,10.51489 -0.52805,0.98666 -0.98689,6.74131 -1.01966,12.78809 -0.0368,6.79074 -0.60109,12.52003 -1.47594,14.98511 l -1.41636,3.99095 -0.81505,-3 z m 523.17401,-6 c -0.35414,-2.75 -1.05619,-7.25 -1.56011,-10 -0.50391,-2.75 -1.44477,-11.975 -2.0908,-20.5 -0.64602,-8.525 -1.51919,-15.95 -1.94037,-16.5 -0.42118,-0.55 -1.7718,-7.3 -3.00136,-15 -1.22957,-7.7 -2.5858,-14.9 -3.01385,-16 -1.148,-2.95012 -3.76311,-14.34376 -4.45382,-19.40462 -0.33063,-2.42254 -0.91856,-4.89754 -1.30651,-5.5 -1.27645,-1.98224 -3.19115,-8.05571 -3.20649,-10.17105 -0.008,-1.14162 -1.14006,-5.29567 -2.51506,-9.23122 -1.375,-3.93555 -2.5,-8.05066 -2.5,-9.14469 0,-1.09403 -1.07484,-4.36499 -2.38854,-7.26878 -1.31369,-2.9038 -2.71378,-6.85464 -3.11129,-8.77964 -0.39752,-1.925 -1.28426,-4.175 -1.97053,-5 -0.68628,-0.825 -1.77819,-3.67928 -2.42648,-6.34283 -0.64829,-2.66356 -1.79254,-5.81356 -2.54277,-7 -0.75024,-1.18645 -1.6885,-3.73217 -2.08503,-5.65717 -0.74777,-3.63009 -6.06578,-14.62883 -7.50254,-15.5168 -0.45042,-0.27837 -1.13661,-1.96347 -1.52486,-3.74467 -0.38825,-1.78119 -2.67287,-6.71042 -5.07693,-10.95384 C 597.96696,157.54127 596,153.57374 596,152.96797 c 0,-0.60578 -1.03771,-2.53389 -2.30601,-4.28469 -1.26831,-1.7508 -3.38377,-5.65828 -4.70104,-8.68328 -1.31726,-3.025 -2.90544,-6.175 -3.52929,-7 -0.62385,-0.825 -1.7325,-3.075 -2.46366,-5 -0.73116,-1.925 -1.91843,-4.19734 -2.63836,-5.04965 -0.71994,-0.8523 -1.93892,-3.3273 -2.70884,-5.5 -0.76993,-2.17269 -2.35258,-5.52535 -3.517,-7.45035 -1.16443,-1.925 -2.84618,-5.075 -3.73724,-7 -0.89105,-1.925 -2.34673,-5.075 -3.23483,-7 -0.8881,-1.925 -2.62295,-5.075 -3.85523,-7 -1.23227,-1.925 -2.76952,-5.075 -3.4161,-7 -0.64658,-1.925 -1.80078,-4.225784 -2.56488,-5.112854 -0.76409,-0.887069 -1.66387,-3.931471 -1.9995,-6.765337 C 554.64026,64.31471 556.52024,61 560.50159,61 c 2.82346,0 8.92168,5.931892 11.62331,11.306288 1.15947,2.306542 2.65306,4.868712 3.31909,5.693712 0.66603,0.825 1.74067,3.359118 2.38809,5.631373 0.64741,2.272255 1.85005,4.689855 2.67252,5.372445 0.82247,0.682589 1.4954,1.661479 1.4954,2.175311 0,0.90778 8.30302,18.811321 10.11974,21.820871 0.49802,0.825 1.8117,3.525 2.91929,6 1.1076,2.475 2.63058,5.85 3.3844,7.5 0.75382,1.65 2.29317,5.25 3.42077,8 1.12761,2.75 3.04736,7.25 4.26613,10 3.29309,7.43045 4.85775,11.80465 4.87461,13.62756 0.008,0.89515 0.66113,2.16374 1.45078,2.81909 0.78965,0.65535 1.74829,2.62295 2.13032,4.37245 0.38203,1.74949 1.53595,4.25409 2.56428,5.56576 1.02832,1.31167 1.86968,3.2672 1.86968,4.34563 0,1.07842 0.84405,3.15524 1.87566,4.61514 1.03162,1.4599 2.20079,4.22937 2.59816,6.15437 0.39738,1.925 1.32313,4.45057 2.05722,5.61238 1.28694,2.03676 2.50562,5.90142 6.58668,20.88762 1.04844,3.85 2.54304,8.35 3.32134,10 0.7783,1.65 2.18861,6.15 3.13401,10 0.94541,3.85 2.0783,7.46608 2.51754,8.03572 0.43923,0.56965 1.7266,5.28764 2.86082,10.48442 1.13421,5.19679 2.68874,11.25571 3.4545,13.46428 0.76576,2.20857 1.93658,8.26102 2.60181,13.44989 0.66524,5.18886 1.81547,11.48886 2.55607,14 3.53929,12.00062 6.4283,68.27581 3.80232,74.06569 -1.06759,2.35387 -1.1715,2.20773 -1.77776,-2.5 z M 36.304805,160.25 c 1.115482,-5.76824 2.655445,-10.86959 4.237777,-14.03824 0.903128,-1.80853 1.357368,-4.0301 1.009423,-4.93683 -0.647133,-1.68641 2.800902,-11.57394 4.97803,-14.27493 0.66499,-0.825 2.675101,-4.65 4.466913,-8.5 1.791813,-3.85 4.438014,-8.57499 5.880447,-10.49998 3.304488,-4.40998 5.604837,-8.321911 8.133636,-13.831924 C 66.677035,90.538032 78.050077,74.627985 80.142705,73 c 0.353488,-0.275 2.378488,-2.797579 4.5,-5.605732 C 91.676743,58.083622 94.456635,54.706816 99,49.954097 c 2.475,-2.589046 6.39626,-6.787873 8.71392,-9.330727 3.94467,-4.327964 4.53569,-4.62337 9.25,-4.62337 2.76984,0 5.00618,0.3375 4.96963,0.75 -0.24868,2.806598 -7.44691,13.259927 -13.68355,19.871358 -1.7875,1.89492 -3.25561,3.767809 -3.26247,4.161975 -0.007,0.394167 -1.69435,2.628781 -3.75,4.965809 C 93.828054,74.172861 85.951162,84.374738 77.494727,96.5 c -1.917913,2.75 -5.977404,8.375 -9.021091,12.5 -3.043686,4.125 -6.1694,8.88582 -6.946031,10.57961 -0.77663,1.69378 -2.113054,3.66138 -2.96983,4.37244 C 57.700999,124.66311 57,125.6444 57,126.1327 c 0,0.4883 -1.491952,3.0207 -3.315449,5.62756 C 49.793328,137.32312 47,142.73504 47,144.71119 c 0,0.77216 -1.200177,3.51552 -2.667061,6.09637 -1.466883,2.58084 -3.502386,6.37994 -4.523339,8.44244 -2.187134,4.41839 -4.281409,5.01593 -3.504795,1 z m 709.319375,-4.5 c -3.04794,-4.14131 -8.81637,-13.20423 -11.29766,-17.75 -2.76678,-5.06881 -4.74051,-8.4084 -11.61936,-19.66027 -2.63606,-4.31185 -5.33509,-8.73973 -5.99784,-9.83973 -0.66276,-1.1 -2.89348,-4.29157 -4.95716,-7.09237 C 709.68847,98.606824 708,96.064544 708,95.758118 c 0,-0.823948 -6.26115,-9.9802 -8.66823,-12.676348 -7.33321,-8.213853 -18.2251,-21.974804 -19.7929,-25.006605 -0.83431,-1.613385 -2.30937,-3.219453 -3.2779,-3.569039 -2.01389,-0.726902 -15.10808,-15.379365 -17.05125,-19.080438 -1.76265,-3.357243 0.31025,-4.075164 7.26962,-2.517726 4.57344,1.023492 6.20745,2.114951 11.8119,7.889923 11.20125,11.54206 13.78931,14.542128 17.42767,20.202115 1.94453,3.025 4.49077,6.491373 5.6583,7.703051 C 705.1149,72.582063 716,86.649553 716,87.600994 c 0,0.272294 1.65021,3.060963 3.66714,6.197043 4.78403,7.438603 12.32567,21.196883 14.25956,26.013823 0.59358,1.47848 1.945,4.03814 3.00318,5.68814 1.05817,1.65 1.95683,3.68166 1.99703,4.51481 0.0402,0.83314 1.04338,3.30814 2.22929,5.5 2.35413,4.35102 7.8438,19.20722 7.8438,21.22697 0,1.94644 -1.54807,1.49163 -3.37582,-0.99178 z"
       id="path3011"
       inkscape:connector-curvature="0" />
  </g>
</svg>
