<?xml version="1.0" encoding="UTF-8" standalone="no"?>
<!-- Created with Inkscape (http://www.inkscape.org/) -->

<svg
   xmlns:dc="http://purl.org/dc/elements/1.1/"
   xmlns:cc="http://creativecommons.org/ns#"
   xmlns:rdf="http://www.w3.org/1999/02/22-rdf-syntax-ns#"
   xmlns:svg="http://www.w3.org/2000/svg"
   xmlns="http://www.w3.org/2000/svg"
   xmlns:sodipodi="http://sodipodi.sourceforge.net/DTD/sodipodi-0.dtd"
   xmlns:inkscape="http://www.inkscape.org/namespaces/inkscape"
   id="svg2985"
   version="1.1"
   inkscape:version="0.48.4 r9939"
   width="1920"
   height="1920"
   sodipodi:docname="Space Tech Torso.svg">
  <metadata
     id="metadata2991">
    <rdf:RDF>
      <cc:Work
         rdf:about="">
        <dc:format>image/svg+xml</dc:format>
        <dc:type
           rdf:resource="http://purl.org/dc/dcmitype/StillImage" />
        <dc:title />
      </cc:Work>
    </rdf:RDF>
  </metadata>
  <defs
     id="defs2989" />
  <sodipodi:namedview
     pagecolor="#ffffff"
     bordercolor="#666666"
     borderopacity="1"
     objecttolerance="10"
     gridtolerance="10"
     guidetolerance="10"
     inkscape:pageopacity="0"
     inkscape:pageshadow="2"
     inkscape:window-width="1920"
     inkscape:window-height="1018"
     id="namedview2987"
     showgrid="false"
     inkscape:zoom="0.3535534"
     inkscape:cx="1237.6925"
     inkscape:cy="1216.8666"
     inkscape:window-x="-8"
     inkscape:window-y="-8"
     inkscape:window-maximized="1"
     inkscape:current-layer="svg2985" />
  <path
     style="fill:#90a7c4;fill-opacity:1;stroke:#90a7c4;stroke-width:1.41421354;stroke-opacity:1"
     d="m 1120.3899,752.48002 c -16.2797,1.45653 -28.1663,17.83688 -25.1464,33.85274 1.989,11.79637 14.3527,19.0669 24.7929,22.7158 17.4545,4.33037 31.0789,-16.16543 28.5052,-32.04077 -1.6931,-13.48523 -13.8243,-26.05383 -28.1517,-24.52777 z"
     id="path3032"
     inkscape:connector-curvature="0" />
  <g
     id="g3063"
     transform="matrix(2.8077265,0,0,2.8077265,5457.5493,13.659293)">
    <g
       transform="translate(-2017.0551,-52.436441)"
       id="g3011">
      <path
         style="fill:#90a7c4"
         d="m 438.22251,661.4433 c -6.38478,-8.01088 -30.6708,-9.40923 -37.27685,-0.42101 -23.97436,-0.36133 6.79973,-59.6085 -34.27589,-44.49046 -92.21098,-1.34053 -184.45877,0.54395 -276.654871,-1.15586 -19.714892,-5.00489 -0.788523,-37.9598 -1.535109,-52.22848 -3.30105,-41.62668 45.70539,-25.59685 71.65459,-29.47354 75.81363,-1.37759 151.68279,-1.41618 227.45962,-3.75196 2.43948,-26.46582 4.43558,-57.35064 -2.95328,-81.50577 11.00732,-19.45391 -4.69055,-72.07433 7.58783,-74.41433 5.99989,12.78154 6.7399,73.42028 3.27562,30.77899 C 390.49735,348.14232 390.71,290.77544 385.22882,234.414 c -19.4644,-23.57805 -52.16752,-32.23733 -77.59606,-29.26179 -19.62889,3.70943 -46.48213,33.78021 -61.89266,23.64387 1.00731,-42.94431 -3.99394,-92.1645 -39.79239,-121.18787 7.96272,-28.523348 43.70079,21.13829 47.83015,37.07316 10.84728,19.74217 -4.6007,81.16356 29.17348,46.88718 14.97622,-18.84728 50.28442,-12.03687 62.20841,-18.56855 -16.01344,-28.43799 -34.41502,-55.57387 -48.51577,-85.088424 7.80809,-8.886919 21.98096,-2.433024 32.65353,-4.415778 70.10172,0.403616 140.29001,-1.414252 210.32426,1.07064 1.0367,21.805242 -23.93167,44.820492 -33.61582,66.433562 -6.43741,10.04634 -26.53169,34.56658 0.50773,25.41009 24.55568,-6.4639 53.25235,32.50511 67.53767,21.83991 1.77194,-37.60946 12.76751,-83.23328 50.94067,-99.620747 19.27491,14.151197 -21.20105,30.873347 -21.3513,49.981897 -12.23933,25.35749 -13.63567,53.29324 -11.23458,80.87261 -15.73898,16.4229 -46.63411,-27.53658 -71.69128,-25.42283 -28.02924,-0.49203 -65.84909,14.45619 -70.46978,44.64304 -0.33365,39.1722 -13.54109,77.52903 -8.50153,117.04171 6.08388,53.01292 6.22842,106.31244 4.7289,159.58051 22.53635,12.99146 66.08359,2.51408 96.29475,6.88972 62.00864,1.9046 124.32398,1.13825 186.10876,6.22608 14.49985,18.29241 14.87987,48.05742 17.54796,69.6907 -20.43269,21.35263 -59.69033,4.30334 -87.42342,9.51316 -70.34849,-0.0274 -140.76516,-2.79092 -211.07533,-0.94336 -3.27259,14.25683 0.85334,32.55496 -3.86308,45.08381 -1.9602,0.6695 -4.23975,2.25118 -5.83958,-0.343 z m 25.9498,-199.58703 c -36.37647,-26.8189 34.81023,-55.22016 27.60479,-9.60713 -3.45823,11.27416 -17.99587,14.27012 -27.60479,9.60713 z"
         id="path3023"
         inkscape:connector-curvature="0" />
      <path
         inkscape:connector-curvature="0"
         id="path3015"
         d="m 439.6404,659.68132 c -1.3834,-1.05164 -1.62439,-14.1348 -2.19529,-119.18132 -0.35271,-64.9 -0.62981,-118.45 -0.61577,-119 0.014,-0.55 -0.0487,-22.6 -0.13938,-49 -0.0907,-26.4 -0.17045,-65.55 -0.17726,-87 l -0.0124,-39 2.86584,-7.5 c 1.5762,-4.125 3.28986,-8.02772 3.80812,-8.6727 0.51827,-0.64499 2.42963,-5.59499 4.24747,-11 5.72258,-17.01502 12.10816,-29.94515 20.85684,-42.2329 12.56666,-17.65021 15.89137,-22.97943 15.51399,-24.8676 -0.31243,-1.56326 -1.78308,-1.69413 -15.52807,-1.3819 -11.83916,0.26894 -16.79846,-0.036 -22.51842,-1.38444 l -7.33548,-1.72934 -8.95531,2.63467 c -10.97914,3.23008 -12.43729,3.23723 -24.95298,0.12238 C 397.08678,148.64263 391.83522,148 384.16894,148 374.35151,148 362.6096,145.94337 354.76941,142.8506 351.51237,141.56577 347,142.47899 347,144.42299 c 0,1.61417 5.66278,11.84558 10.22697,18.47791 11.0233,16.0182 21.94982,33.83025 25.17845,41.04508 0.60202,1.34529 3.76188,7.64529 7.02191,14 5.79784,11.3016 7.559,15.4446 11.6848,27.48755 1.92857,5.62937 1.99062,7.21843 1.21032,31 -0.45235,13.78656 -0.61342,29.11647 -0.35793,34.06647 0.67413,13.06133 0.61548,43.97122 -0.25236,133 -0.87536,89.80009 -0.9232,122.23924 -0.20351,138 0.27626,6.05 0.46433,11.675 0.41793,12.5 -0.5074,9.02196 -0.66841,15.5305 -0.82869,33.5 -0.10302,11.55 0.0906,22.35 0.43016,24 0.33961,1.65 0.13502,4.26603 -0.45464,5.81341 -0.91517,2.40153 -1.54801,2.76752 -4.32277,2.5 L 393.5,659.5 393,639.45256 c -0.56424,-22.62325 -1.19181,-24.83511 -7.37558,-25.9952 -1.86489,-0.34985 -68.8058,-0.71505 -148.75757,-0.81156 C 83.838347,612.4611 87,612.55613 87,608.14103 87,605.3716 92.452912,572.31904 95.578472,556.14304 96.360312,552.09671 97,547.32895 97,545.54802 c 0,-5.54346 2.507853,-6.79982 15.27472,-7.65221 6.17391,-0.41221 29.00028,-1.02014 50.72528,-1.35097 21.725,-0.33083 50.975,-0.80514 65,-1.05401 21.96199,-0.38971 89.59602,-1.24594 143.69939,-1.81919 11.63186,-0.12324 16.5604,-0.53248 17.47978,-1.45143 2.08074,-2.07974 2.54631,-12.8373 2.01458,-46.54978 -0.43243,-27.417 -0.72772,-32.10829 -2.13002,-33.84006 -1.60554,-1.98276 -1.69475,-1.95532 -6.46778,1.98888 -8.12301,6.71246 -15.79906,7.2465 -22.54683,1.56862 -8.60462,-7.2403 -4.70974,-21.8601 6.37793,-23.94016 4.74968,-0.89105 11.50371,2.33903 15.63171,7.47579 3.79551,4.723 6.98673,5.16565 7.93948,1.10127 1.0942,-4.66779 0.26534,-68.66374 -0.91795,-70.87474 -1.97724,-3.69451 -7.89374,-4.46192 -29.08029,-3.77191 -20.48778,0.66724 -26.38439,1.60089 -27.88781,4.41563 -1.26533,2.36901 -0.56566,49.07458 1.04424,69.70625 1.42525,18.26549 1.57616,26.14851 0.55167,28.81829 -0.51298,1.33681 -1.97767,1.68171 -7.14177,1.68171 -3.57304,0 -8.43237,0.65727 -10.79851,1.46059 -17.98206,6.10507 -99.23237,6.19498 -131.76782,0.14581 -8.12924,-1.51144 -18.4405,-4.14257 -19.99181,-5.10134 -1.00784,-0.62288 -0.84433,-3.53287 1.48932,-26.50506 0.75427,-7.425 1.87818,-20.475 2.49758,-29 0.61939,-8.525 1.54889,-17.93755 2.06554,-20.91678 1.07913,-6.22267 1.23394,-15.15201 0.30469,-17.57361 -0.34908,-0.90968 -3.16158,-2.80554 -6.25,-4.21303 -4.73592,-2.15831 -7.69551,-2.66672 -18.89817,-3.2464 -17.36074,-0.89832 -16.94684,-0.4999 -14.73373,-14.18263 3.17452,-19.62681 4.37487,-27.39848 6.00317,-38.86755 2.09827,-14.77934 3.16898,-18.7453 5.38024,-19.92873 1.71199,-0.91623 18.18775,-1.41061 85.63317,-2.56958 16.5,-0.28353 32.75577,-0.78375 36.12393,-1.1116 6.01109,-0.5851 6.1438,-0.66328 7.2021,-4.24309 0.593,-2.00585 1.57234,-7.922 2.17633,-13.147 2.06479,-17.86211 2.49473,-18.67634 15.91233,-30.13483 2.56012,-2.18632 3.08531,-3.36668 3.08531,-6.93427 0,-12.92543 10.69851,-19.43239 18.73566,-11.39524 3.45134,3.45134 3.52243,3.68142 2.98133,9.64882 -0.68265,7.52833 0.19264,9.94241 5.7647,15.8994 5.88198,6.28832 7.04461,10.65561 6.8992,25.91612 -0.0785,8.23666 0.26258,12.75252 1,13.24037 1.1742,0.77682 42.56334,0.11859 53.42646,-0.84966 5.36472,-0.47816 6.43605,-0.90071 7.16858,-2.8274 1.5224,-4.00422 2.19866,-24.69807 1.21643,-37.22339 -0.90213,-11.5039 -1.1249,-12.37325 -4.12837,-16.11066 -1.74612,-2.17283 -4.38336,-4.57579 -5.86051,-5.33993 -1.47715,-0.76413 -6.62268,-3.97683 -11.43449,-7.13933 -4.81182,-3.1625 -9.00834,-5.75 -9.3256,-5.75 -0.31726,0 -2.00931,-1.05245 -3.76011,-2.33877 -1.7508,-1.28632 -6.10828,-3.41899 -9.68328,-4.73926 -5.78347,-2.13588 -8.15354,-2.40168 -21.5,-2.41123 -15.4228,-0.011 -23.72962,1.53136 -27.5,5.10618 -1.39523,1.32286 -7.18422,4.39613 -35.42681,18.80746 -6.00975,3.06659 -11.5732,5.57562 -12.36323,5.57562 -1.21494,0 -1.32958,-2.27419 -0.74353,-14.75 0.60635,-12.90829 0.36837,-17.05995 -1.906,-33.25 -2.32796,-16.57158 -3.9147,-24.42452 -5.85966,-29 -0.35069,-0.825 -1.37311,-3.75 -2.27205,-6.5 -3.871,-11.84213 -15.16433,-28.74975 -25.76055,-38.567 -5.12272,-4.74612 -5.15468,-4.81299 -3.6338,-7.60354 0.84391,-1.54842 2.35384,-2.973124 3.35541,-3.166008 2.04714,-0.394244 10.92376,5.343218 17.38337,11.235858 9.51731,8.68198 22.14698,29.08533 23.84362,38.51963 0.35421,1.96958 1.05199,4.09724 1.55064,4.72813 1.22763,1.5532 2.63102,13.5896 3.83049,32.85293 1.20369,19.33093 1.43527,20.5 4.06099,20.5 2.8359,0 8.98763,-3.31952 11.86542,-6.40268 1.33338,-1.42853 2.97221,-2.59732 3.64185,-2.59732 0.66964,0 3.4037,-1.94015 6.07569,-4.31146 14.42566,-12.80231 37.59689,-18.84115 56.65783,-14.76605 4.52393,0.96719 6.11871,0.97517 7.25,0.0363 1.94833,-1.61697 1.83703,-5.394 -0.20882,-7.08633 -0.91252,-0.75484 -2.61589,-3.39744 -3.78525,-5.87244 -1.16937,-2.475 -3.43714,-6.525 -5.03948,-9 C 333.00578,148.48867 317,121.69589 317,120.9832 c 0,-0.39242 -0.8679,-1.81684 -1.92866,-3.16538 -2.50976,-3.19064 -9.93551,-17.25987 -11.64741,-22.06782 l -1.33521,-3.75 4.26855,0 c 4.52066,0 7.95116,2.579957 10.63738,8 2.16281,4.36395 19.86487,30.56289 21.88746,32.39331 1.15708,1.04715 3.08741,1.62536 4.77946,1.43165 L 346.5,133.5 l -0.20062,-18 -0.20063,-18 -2.57484,-2.057869 c -1.41616,-1.131828 -2.26338,-2.369328 -1.88271,-2.75 1.16681,-1.166809 49.15931,-0.82393 49.88881,0.356427 0.44085,0.713312 1.11213,0.663406 2.09956,-0.156089 2.30844,-1.91584 57.71232,-1.298596 61.90222,0.689641 2.3791,1.128955 3.80531,1.240221 5.86407,0.457484 4.1026,-1.559805 73.6087,-1.312834 73.58959,0.261481 -0.0252,2.075437 -3.08281,10.132565 -4.43965,11.698925 -0.71464,0.825 -2.22531,3.62804 -3.35704,6.22897 -1.13173,2.60093 -4.0418,7.55093 -6.46681,11 -2.42502,3.44907 -5.43467,8.43957 -6.68813,11.09 -1.25345,2.65043 -3.28734,6.02543 -4.51976,7.5 -1.23241,1.47457 -3.15484,4.48103 -4.27206,6.68103 -1.11722,2.2 -4.11799,6.83316 -6.66838,10.2959 -6.03878,8.19906 -10.98264,17.69584 -10.23135,19.65367 0.69484,1.81072 4.4803,1.97731 13.04807,0.57422 15.55453,-2.54726 34.49274,4.29494 58.10966,20.99448 8.12788,5.74723 12.92364,7.70496 14.88565,6.07663 0.85031,-0.70569 1.52605,-4.89242 1.93047,-11.9607 0.34222,-5.98122 1.07029,-12.84578 1.61792,-15.25458 0.54764,-2.40879 1.6738,-8.22073 2.50258,-12.91543 3.92438,-22.22996 13.59605,-41.40271 27.15124,-53.82358 3.57294,-3.27395 7.93983,-6.67897 9.7042,-7.5667 1.76437,-0.88774 4.16468,-2.29789 5.33403,-3.13369 1.96276,-1.40288 2.36609,-1.31768 5.25,1.10897 1.71815,1.44573 3.12391,3.46181 3.12391,4.48018 0,1.01837 -2.29388,3.78581 -5.09751,6.14987 C 614.77359,122.56326 606,135.43633 606,142.38119 c 0,0.82797 -0.92511,2.15338 -2.05581,2.94534 -3.39717,2.37948 -11.23341,25.88142 -13.89516,41.67347 -0.77463,4.5958 -0.80653,12.35516 -0.10891,26.4866 0.59471,12.04665 0.62418,20.3491 0.0742,20.8991 -1.45745,1.45745 -24.91183,-10.96955 -40.61618,-21.51996 -3.79396,-2.54885 -8.92312,-5.32731 -11.39812,-6.17436 -2.475,-0.84705 -6.29453,-2.29989 -8.48785,-3.22853 -3.25069,-1.37634 -6.20833,-1.60171 -16,-1.2192 -13.47359,0.52634 -23.60674,3.19758 -31.51215,8.30703 -7.07755,4.57439 -7.44352,4.79605 -12.6111,7.63825 -8.78402,4.83128 -16.41698,11.62961 -18.69533,16.65107 -1.81674,4.0041 -2.22192,7.47504 -2.87863,24.66 -0.42036,11 -0.51685,21.65366 -0.21442,23.67481 0.49891,3.33424 0.89043,3.72485 4.22467,4.21489 2.02115,0.29705 20.09981,0.78744 40.17481,1.08975 20.075,0.30231 44.375,0.77589 54,1.0524 23.41538,0.67268 111.7364,2.52151 112.72042,2.35959 0.42877,-0.0706 6.06708,-0.075 12.52958,-0.01 14.46873,0.14582 15.25263,0.66619 16.23828,10.77928 0.566,5.80725 4.89486,29.58858 8.49441,46.66543 0.55952,2.65446 1.01731,7.02613 1.01731,9.71482 0,5.94987 -0.77494,6.46856 -10.86789,7.27418 -4.71913,0.37669 -8.01596,1.17461 -9.17059,2.21953 -0.99148,0.89728 -3.30093,2.42947 -5.13211,3.40487 -5.38957,2.87082 -5.93656,4.89851 -5.41147,20.06031 0.25715,7.425 0.7267,15.75 1.04346,18.5 0.31676,2.75 1.256,13.325 2.08721,23.5 0.83121,10.175 2.03193,21.32033 2.66826,24.76741 1.77194,9.59879 0.76037,11.41905 -7.23965,13.02727 -24.64893,4.95508 -39.53099,6.20563 -73.8226,6.20334 -34.68109,-0.002 -54.07407,-1.61579 -71.65462,-5.96154 -2.2,-0.54382 -6.27649,-0.9995 -9.05887,-1.01262 -8.31549,-0.0392 -8.66809,-0.65958 -8.57636,-15.08879 0.10967,-17.252 0.81776,-34.84772 2.09467,-52.05157 2.33112,-31.4072 2.35429,-30.50082 -0.87201,-34.11167 -2.86559,-3.20716 -2.86608,-3.20728 -15.72655,-3.90278 -7.07349,-0.38253 -18.13801,-0.73456 -24.58783,-0.78228 -11.68108,-0.0864 -11.73388,-0.0762 -13.5,2.61693 -2.56797,3.91587 -3.14835,15.29963 -3.73688,73.2963 -0.28185,27.775 -0.7213,59.28323 -0.97654,70.01828 -0.2611,10.98115 -0.0637,20.16637 0.45134,21 0.77812,1.25948 8.15796,1.58873 49.20222,2.19516 47.0307,0.69489 134.66792,2.49544 157.78681,3.24181 6.325,0.2042 22.75,0.64858 36.5,0.98751 31.79088,0.78364 38.27667,1.33391 40.36766,3.4249 0.95775,0.95775 2.401,5.80725 3.46332,11.63718 1.00172,5.49734 2.20559,11.57016 2.67528,13.49516 0.46968,1.925 1.39431,6.875 2.05473,11 0.66041,4.125 2.08678,11.325 3.1697,16 2.92375,12.62191 2.47433,17.40126 -1.78874,19.02207 -1.56729,0.59588 -51.7166,0.71712 -134.22207,0.32449 -148.90301,-0.70862 -156.2247,-0.66298 -157.92969,0.98446 -1.16669,1.12731 -2.03845,15.60049 -2.21731,36.81199 -0.0763,9.05373 -1.11712,11.05858 -4.43248,8.53831 z m 38.59925,-74.8493 c 2.35318,-1.20565 4.76035,-6.08411 4.76035,-9.6475 0,-6.2123 -8.08804,-11.63654 -13.80881,-9.26087 -1.48015,0.61467 -3.6945,2.58523 -4.92076,4.37903 -1.887,2.76033 -2.08048,3.80138 -1.25927,6.77557 2.28161,8.26332 8.27645,11.31566 15.22849,7.75377 z M 598.52834,464.90023 c 1.41381,-1.41381 1.47565,-3.76399 0.56549,-21.4938 -0.56204,-10.94854 -1.0707,-28.23143 -1.13036,-38.40643 -0.13953,-23.79761 -0.90656,-35.53991 -2.46032,-37.66481 -1.00221,-1.3706 -2.86136,-1.68963 -9.64698,-1.6554 -10.58365,0.0534 -12.42944,0.65732 -13.77103,4.50582 -0.61391,1.76107 -1.32144,15.0466 -1.63544,30.70914 -0.30438,15.18289 -0.75241,28.57296 -0.99563,29.75571 -0.24321,1.18275 0.0203,9.03908 0.58558,17.45852 1.33434,19.8737 0.77724,19.20792 15.67644,18.73495 8.56612,-0.27192 11.60086,-0.73231 12.81225,-1.9437 z m -335.68716,-0.74141 c 1.70221,-1.70221 1.90237,-5.00441 2.65179,-43.75 0.83413,-43.12504 0.82161,-49.64139 -0.10118,-52.67581 -1.20537,-3.96367 -12.58831,-5.46933 -24.0312,-3.17869 -2.84921,0.57036 -3.1679,2.22514 -4.34892,22.58179 -0.55406,9.55014 -1.44672,22.53889 -1.98368,28.86389 -0.53696,6.325 -1.21912,18.94302 -1.5159,28.04005 -0.67822,20.78876 -0.9665,20.24504 11.15423,21.03749 15.91294,1.04039 16.23187,1.02427 18.17486,-0.91872 z m 385.96612,0.17699 c 9.49937,-0.87515 9.63744,-1.24871 8.33906,-22.56189 C 656.5676,432.27327 655.59571,414.825 654.98662,403 c -0.65199,-12.65786 -1.61116,-22.52588 -2.33226,-23.99446 -0.92482,-1.88347 -2.72535,-2.89942 -7.35084,-4.14772 -8.15373,-2.20049 -26.3527,-3.43705 -29.08257,-1.97607 -2.84949,1.525 -3.50005,5.37721 -3.73533,22.11825 -0.18296,13.01796 -3.02011,49.43778 -3.97115,50.97658 -0.70981,1.1485 1.46052,15.28835 2.54767,16.5983 0.59571,0.71778 2.06292,1.49466 3.26048,1.7264 3.39468,0.65691 27.46744,0.68101 34.48468,0.0345 z M 558,462.69218 c 2.98839,-1.52806 3.02833,-2.96781 0.47696,-17.19218 -1.44186,-8.03864 -1.83155,-16.24678 -1.98683,-41.84922 -0.21124,-34.82665 0.12318,-33.02219 -6.35088,-34.26813 -4.27726,-0.82317 -28.9776,2.35678 -31.66864,4.07705 -1.49742,0.95724 -2.35286,3.22964 -3.26335,8.66881 -2.32048,13.86227 -4.17502,69.25881 -2.58408,77.18856 0.32104,1.60011 1.49648,3.1927 2.72101,3.68661 3.57324,1.44127 39.74455,1.17713 42.65581,-0.3115 z m -348.82143,-0.67853 c 9.72374,-0.0105 13.01625,-0.35133 14.12747,-1.46254 2.18861,-2.18862 3.01186,-16.37884 1.65639,-28.55111 -0.64308,-5.775 -1.28087,-21.79733 -1.41731,-35.60517 -0.13644,-13.80784 -0.56646,-25.62034 -0.95561,-26.25 -1.78075,-2.88132 -34.63344,-0.0993 -40.21755,3.40574 -1.17043,0.73464 -2.40092,2.8238 -2.73443,4.64257 -1.46162,7.97085 -3.55287,33.75883 -4.07959,50.30686 -0.31512,9.9 -0.8433,20.94196 -1.17373,24.53768 -0.45647,4.96726 -0.26313,6.81792 0.80488,7.70429 1.33423,1.10731 15.04564,2.23525 19.31091,1.58857 1.1,-0.16678 7.70536,-0.30938 14.67857,-0.31689 z m 112.54872,-0.53519 c 2.07838,-1.45576 2.15624,-2.09342 1.8008,-14.75 -0.20432,-7.27565 -0.68065,-26.05346 -1.05852,-41.72846 -0.43213,-17.92612 -1.114,-29.42753 -1.83786,-31 -0.91123,-1.97951 -2.39801,-2.77156 -7.14127,-3.80436 -8.1532,-1.77529 -31.96006,-2.1039 -33.61262,-0.46397 -0.90514,0.89822 -1.27976,7.26028 -1.38374,23.5 -0.15352,23.97426 -1.62821,44.5214 -4.00699,55.82968 -2.59878,12.35419 -2.66224,12.2838 11.72337,13.00329 23.69553,1.18512 33.21218,1.02806 35.51683,-0.58618 z m 157.7775,-127.89234 c 8.25943,-8.25943 -0.95585,-22.56776 -11.03788,-17.13823 -3.71328,1.99973 -5.46691,5.20603 -5.46691,9.99557 0,2.58211 0.80973,4.06031 3.5348,6.45295 4.49286,3.94478 9.45124,4.20846 12.96999,0.68971 z M 429.85674,142.07309 c 2.07738,-1.0598 4.29786,-2.55445 4.9344,-3.32143 1.49071,-1.79619 3.66344,-24.51503 2.78985,-29.17165 -1.01432,-5.40676 -2.96052,-5.96628 -20.83099,-5.98877 -12.60014,-0.0159 -16.04635,0.27653 -17.23179,1.46198 C 397.38032,107.19111 396,115.81171 396,127.02571 c 0,8.04216 0.3285,10.1584 1.87291,12.06567 2.82769,3.49204 7.6165,4.74861 18.41693,4.83254 7.79897,0.0606 10.55794,-0.31578 13.5669,-1.85083 z m 44.10428,-2.0532 c 3.49007,-1.7805 3.9904,-2.51076 4.63021,-6.75805 0.39453,-2.61901 0.76041,-9.32248 0.81305,-14.8966 0.13817,-14.62891 0.17022,-14.603 -17.54671,-14.18699 -18.30919,0.42992 -18.13328,0.27537 -19.70041,17.30914 -1.30215,14.15361 -0.8166,16.49156 4.06791,19.58728 2.94845,1.86867 4.29917,2.01905 13.549,1.5085 7.42607,-0.40988 11.35873,-1.12043 14.18695,-2.56328 z M 494.40864,138.75 c 2.55491,-2.28102 18.60288,-26.93193 22.47833,-34.52843 2.27483,-4.459056 2.70185,-7.739622 1.1336,-8.708857 -0.53869,-0.332927 -2.67619,-0.166176 -4.75,0.370558 -3.85278,0.997157 -12.00555,2.61144 -18.27057,3.61765 -5.67447,0.911359 -7.26091,2.776379 -8.2877,9.742999 -0.50714,3.44085 -1.04178,8.05608 -1.18809,10.25608 -0.14632,2.2 -0.59917,7.18031 -1.00633,11.06736 -0.62296,5.94713 -0.4736,7.33407 0.94234,8.75 2.33201,2.33201 5.95844,2.10209 8.94842,-0.56736 z M 385.4323,138.59274 c 3.87293,-1.61822 4.35982,-3.07672 5.03841,-15.09274 0.24848,-4.4 0.74914,-9.66307 1.11257,-11.69571 1.57203,-8.79223 -0.35501,-10.05568 -18.08328,-11.856202 -15.86285,-1.611065 -18.35114,-1.244989 -20.63845,3.036312 -1.96354,3.6753 -2.40506,14.20192 -1.02394,24.41285 0.97469,7.20615 4.57969,9.37497 19.16239,11.52835 8.43834,1.24606 10.78281,1.19199 14.4323,-0.33286 z m 79.78588,321.74418 c -6.19625,-3.05401 -9.85896,-10.57822 -8.74982,-17.97452 0.86468,-5.76611 7.09041,-13.0014 11.9759,-13.91792 8.37053,-1.57032 18.33563,5.00909 21.1607,13.97126 0.94165,2.98726 1.39643,6.44258 1.03664,7.87612 -0.91798,3.65752 -5.50586,8.75348 -9.31279,10.34411 -4.38018,1.83016 -12.08071,1.68722 -16.11063,-0.29905 z m 14.20741,-6.85113 c 3.07304,-3.31587 3.93031,-7.89687 2.12948,-11.37929 -2.03146,-3.92842 -3.91432,-5.21087 -8.5666,-5.83487 -3.52514,-0.47282 -4.49724,-0.15838 -7.03921,2.27699 -4.28137,4.10181 -3.95691,10.20872 0.83423,15.70138 2.44727,2.80561 9.74239,2.36462 12.6421,-0.76421 z"
         style="fill:#a14e10" />
      <path
         inkscape:connector-curvature="0"
         id="path3013"
         d="m 439.6404,659.68132 c -1.3834,-1.05164 -1.62439,-14.1348 -2.19529,-119.18132 -0.35271,-64.9 -0.62981,-118.45 -0.61577,-119 0.014,-0.55 -0.0487,-22.6 -0.13938,-49 -0.0907,-26.4 -0.17045,-65.55 -0.17726,-87 l -0.0124,-39 2.86584,-7.5 c 1.5762,-4.125 3.28986,-8.02772 3.80812,-8.6727 0.51827,-0.64499 2.42963,-5.59499 4.24747,-11 5.72258,-17.01502 12.10816,-29.94515 20.85684,-42.2329 12.56666,-17.65021 15.89137,-22.97943 15.51399,-24.8676 -0.31243,-1.56326 -1.78308,-1.69413 -15.52807,-1.3819 -11.83916,0.26894 -16.79846,-0.036 -22.51842,-1.38444 l -7.33548,-1.72934 -8.95531,2.63467 c -10.97914,3.23008 -12.43729,3.23723 -24.95298,0.12238 C 397.08678,148.64263 391.83522,148 384.16894,148 374.35151,148 362.6096,145.94337 354.76941,142.8506 351.51237,141.56577 347,142.47899 347,144.42299 c 0,1.61417 5.66278,11.84558 10.22697,18.47791 11.0233,16.0182 21.94982,33.83025 25.17845,41.04508 0.60202,1.34529 3.76188,7.64529 7.02191,14 5.79784,11.3016 7.559,15.4446 11.6848,27.48755 1.92857,5.62937 1.99062,7.21843 1.21032,31 -0.45235,13.78656 -0.61342,29.11647 -0.35793,34.06647 0.67413,13.06133 0.61548,43.97122 -0.25236,133 -0.87536,89.80009 -0.9232,122.23924 -0.20351,138 0.27626,6.05 0.46433,11.675 0.41793,12.5 -0.5074,9.02196 -0.66841,15.5305 -0.82869,33.5 -0.10302,11.55 0.0906,22.35 0.43016,24 0.33961,1.65 0.13502,4.26603 -0.45464,5.81341 -0.91517,2.40153 -1.54801,2.76752 -4.32277,2.5 L 393.5,659.5 393,639.45256 c -0.55853,-22.39402 -1.1711,-24.60767 -7.21612,-26.07691 L 382.5,612.5775 l 3.9329,-0.53875 c 3.30756,-0.45309 4.07414,-1.01575 4.82118,-3.53875 0.88457,-2.98743 0.18259,-59.89959 -0.84491,-68.5 -0.68023,-5.69372 -0.6463,-6.9574 0.41607,-15.5 0.4788,-3.85 0.64463,-21.32331 0.36851,-38.82957 -0.43243,-27.417 -0.72772,-32.10829 -2.13002,-33.84006 -1.60554,-1.98276 -1.69475,-1.95532 -6.46778,1.98888 -8.12301,6.71246 -15.79906,7.2465 -22.54683,1.56862 -8.60462,-7.2403 -4.70974,-21.8601 6.37793,-23.94016 4.74968,-0.89105 11.50371,2.33903 15.63171,7.47579 3.79551,4.723 6.98673,5.16565 7.93948,1.10127 1.09892,-4.68791 0.26496,-68.66446 -0.92403,-70.8861 -0.6162,-1.1514 -2.57249,-2.51304 -4.34729,-3.02587 l -3.22692,-0.93242 3.12756,-0.0902 c 5.7038,-0.16448 5.87014,-0.95798 5.868,-27.99238 -0.002,-28.27807 -0.98084,-48.98309 -2.38134,-50.38359 -0.57096,-0.57096 -0.62127,-1.88059 -0.12261,-3.19214 1.50866,-3.9681 2.17859,-24.71285 1.20075,-37.18216 -0.90213,-11.5039 -1.1249,-12.37325 -4.12837,-16.11066 -1.74612,-2.17283 -4.38336,-4.57579 -5.86051,-5.33993 -1.47715,-0.76413 -6.62268,-3.97683 -11.43449,-7.13933 -4.81182,-3.1625 -9.00834,-5.75 -9.3256,-5.75 -0.31726,0 -2.00931,-1.05245 -3.76011,-2.33877 -1.7508,-1.28632 -6.10828,-3.41899 -9.68328,-4.73926 -5.78347,-2.13588 -8.15354,-2.40168 -21.5,-2.41123 -15.4228,-0.011 -23.72962,1.53136 -27.5,5.10618 -1.39523,1.32286 -7.18422,4.39613 -35.42681,18.80746 -6.00975,3.06659 -11.5732,5.57562 -12.36323,5.57562 -1.21494,0 -1.32958,-2.27419 -0.74353,-14.75 0.60635,-12.90829 0.36837,-17.05995 -1.906,-33.25 -2.32796,-16.57158 -3.9147,-24.42452 -5.85966,-29 -0.35069,-0.825 -1.37311,-3.75 -2.27205,-6.5 -3.871,-11.84213 -15.16433,-28.74975 -25.76055,-38.567 -5.12272,-4.74612 -5.15468,-4.81299 -3.6338,-7.60354 0.84391,-1.54842 2.35384,-2.973124 3.35541,-3.166008 2.04714,-0.394244 10.92376,5.343218 17.38337,11.235858 9.51731,8.68198 22.14698,29.08533 23.84362,38.51963 0.35421,1.96958 1.05199,4.09724 1.55064,4.72813 1.22763,1.5532 2.63102,13.5896 3.83049,32.85293 1.20369,19.33093 1.43527,20.5 4.06099,20.5 2.8359,0 8.98763,-3.31952 11.86542,-6.40268 1.33338,-1.42853 2.97221,-2.59732 3.64185,-2.59732 0.66964,0 3.4037,-1.94015 6.07569,-4.31146 14.42566,-12.80231 37.59689,-18.84115 56.65783,-14.76605 4.52393,0.96719 6.11871,0.97517 7.25,0.0363 1.94833,-1.61697 1.83703,-5.394 -0.20882,-7.08633 -0.91252,-0.75484 -2.61589,-3.39744 -3.78525,-5.87244 -1.16937,-2.475 -3.43714,-6.525 -5.03948,-9 C 333.00578,148.48867 317,121.69589 317,120.9832 c 0,-0.39242 -0.8679,-1.81684 -1.92866,-3.16538 -2.50976,-3.19064 -9.93551,-17.25987 -11.64741,-22.06782 l -1.33521,-3.75 4.26855,0 c 4.52066,0 7.95116,2.579957 10.63738,8 2.16281,4.36395 19.86487,30.56289 21.88746,32.39331 1.15708,1.04715 3.08741,1.62536 4.77946,1.43165 L 346.5,133.5 l -0.20062,-18 -0.20063,-18 -2.57484,-2.057869 c -1.41616,-1.131828 -2.26338,-2.369328 -1.88271,-2.75 1.16681,-1.166809 49.15931,-0.82393 49.88881,0.356427 0.44085,0.713312 1.11213,0.663406 2.09956,-0.156089 2.30844,-1.91584 57.71232,-1.298596 61.90222,0.689641 2.3791,1.128955 3.80531,1.240221 5.86407,0.457484 4.1026,-1.559805 73.6087,-1.312834 73.58959,0.261481 -0.0252,2.075437 -3.08281,10.132565 -4.43965,11.698925 -0.71464,0.825 -2.22531,3.62804 -3.35704,6.22897 -1.13173,2.60093 -4.0418,7.55093 -6.46681,11 -2.42502,3.44907 -5.43467,8.43957 -6.68813,11.09 -1.25345,2.65043 -3.28734,6.02543 -4.51976,7.5 -1.23241,1.47457 -3.15484,4.48103 -4.27206,6.68103 -1.11722,2.2 -4.11799,6.83316 -6.66838,10.2959 -6.03878,8.19906 -10.98264,17.69584 -10.23135,19.65367 0.69484,1.81072 4.4803,1.97731 13.04807,0.57422 15.55453,-2.54726 34.49274,4.29494 58.10966,20.99448 8.12788,5.74723 12.92364,7.70496 14.88565,6.07663 0.85031,-0.70569 1.52605,-4.89242 1.93047,-11.9607 0.34222,-5.98122 1.07029,-12.84578 1.61792,-15.25458 0.54764,-2.40879 1.6738,-8.22073 2.50258,-12.91543 3.92438,-22.22996 13.59605,-41.40271 27.15124,-53.82358 3.57294,-3.27395 7.93983,-6.67897 9.7042,-7.5667 1.76437,-0.88774 4.16468,-2.29789 5.33403,-3.13369 1.96276,-1.40288 2.36609,-1.31768 5.25,1.10897 1.71815,1.44573 3.12391,3.46181 3.12391,4.48018 0,1.01837 -2.29388,3.78581 -5.09751,6.14987 C 614.77359,122.56326 606,135.43633 606,142.38119 c 0,0.82797 -0.92511,2.15338 -2.05581,2.94534 -3.39717,2.37948 -11.23341,25.88142 -13.89516,41.67347 -0.77463,4.5958 -0.80653,12.35516 -0.10891,26.4866 0.59471,12.04665 0.62418,20.3491 0.0742,20.8991 -1.45745,1.45745 -24.91183,-10.96955 -40.61618,-21.51996 -3.79396,-2.54885 -8.92312,-5.32731 -11.39812,-6.17436 -2.475,-0.84705 -6.29453,-2.29989 -8.48785,-3.22853 -3.25069,-1.37634 -6.20833,-1.60171 -16,-1.2192 -13.47359,0.52634 -23.60674,3.19758 -31.51215,8.30703 -7.1038,4.59135 -7.45198,4.80172 -12.6111,7.6197 -2.68889,1.46871 -7.5889,4.86093 -10.8889,7.53826 -9.41988,7.64248 -10.17519,10.34908 -11.10424,39.79136 -1.21843,38.61294 -1.07979,94.68865 0.23962,96.92088 0.94878,1.60518 2.26362,1.91403 8,1.8792 l 6.86462,-0.0417 -5.95046,0.62081 c -9.13006,0.95252 -9.17164,1.08509 -10.39019,33.1208 -0.91352,24.01675 -1.76024,97.83199 -1.42237,124 0.0746,5.775 0.093,11.175 0.041,12 -0.1729,2.74373 -0.0669,47.29832 0.14426,60.64795 0.14072,8.89535 0.62719,13.72124 1.50404,14.92041 1.02067,1.39585 3.39723,1.91605 11.18486,2.44821 l 9.88881,0.67576 -10.12756,0.15383 c -6.94126,0.10544 -10.46783,0.56386 -11.20913,1.45706 -1.01726,1.22573 -1.92502,17.22321 -2.09043,36.83979 -0.0763,9.05373 -1.11712,11.05858 -4.43248,8.53831 z m -9.78366,-517.60823 c 2.07738,-1.0598 4.29786,-2.55445 4.9344,-3.32143 1.49071,-1.79619 3.66344,-24.51503 2.78985,-29.17165 -1.01432,-5.40676 -2.96052,-5.96628 -20.83099,-5.98877 -12.60014,-0.0159 -16.04635,0.27653 -17.23179,1.46198 C 397.38032,107.19111 396,115.81171 396,127.02571 c 0,8.04216 0.3285,10.1584 1.87291,12.06567 2.82769,3.49204 7.6165,4.74861 18.41693,4.83254 7.79897,0.0606 10.55794,-0.31578 13.5669,-1.85083 z m 44.10428,-2.0532 c 3.49007,-1.7805 3.9904,-2.51076 4.63021,-6.75805 0.39453,-2.61901 0.76041,-9.32248 0.81305,-14.8966 0.13817,-14.62891 0.17022,-14.603 -17.54671,-14.18699 -18.30919,0.42992 -18.13328,0.27537 -19.70041,17.30914 -1.30215,14.15361 -0.8166,16.49156 4.06791,19.58728 2.94845,1.86867 4.29917,2.01905 13.549,1.5085 7.42607,-0.40988 11.35873,-1.12043 14.18695,-2.56328 z M 494.40864,138.75 c 2.55491,-2.28102 18.60288,-26.93193 22.47833,-34.52843 2.27483,-4.459056 2.70185,-7.739622 1.1336,-8.708857 -0.53869,-0.332927 -2.67619,-0.166176 -4.75,0.370558 -3.85278,0.997157 -12.00555,2.61144 -18.27057,3.61765 -5.67447,0.911359 -7.26091,2.776379 -8.2877,9.742999 -0.50714,3.44085 -1.04178,8.05608 -1.18809,10.25608 -0.14632,2.2 -0.59917,7.18031 -1.00633,11.06736 -0.62296,5.94713 -0.4736,7.33407 0.94234,8.75 2.33201,2.33201 5.95844,2.10209 8.94842,-0.56736 z M 385.4323,138.59274 c 3.87293,-1.61822 4.35982,-3.07672 5.03841,-15.09274 0.24848,-4.4 0.74914,-9.66307 1.11257,-11.69571 1.57203,-8.79223 -0.35501,-10.05568 -18.08328,-11.856202 -15.86285,-1.611065 -18.35114,-1.244989 -20.63845,3.036312 -1.96354,3.6753 -2.40506,14.20192 -1.02394,24.41285 0.97469,7.20615 4.57969,9.37497 19.16239,11.52835 8.43834,1.24606 10.78281,1.19199 14.4323,-0.33286 z M 688.5,600.9392 c -16.26858,-1.95799 -53.49792,-3.39518 -88.5,-3.41643 -20.625,-0.0125 -38.10291,-0.4118 -38.83981,-0.88729 -0.87928,-0.56737 -1.14334,-1.94225 -0.76823,-4 0.31437,-1.72451 0.83399,-9.21048 1.15471,-16.63548 0.32073,-7.425 0.89143,-17.1 1.26823,-21.5 l 0.6851,-8 29,0.0426 c 15.95,0.0234 41.825,0.33611 57.5,0.69488 15.675,0.35878 31.977,0.67713 36.22666,0.70744 l 7.72666,0.0551 1.9674,4.07204 c 2.15435,4.45899 3.78096,11.53406 4.52589,19.6857 0.26426,2.89176 1.03249,7.16676 1.70718,9.5 0.6747,2.33324 1.28449,7.16726 1.3551,10.74226 0.0706,3.575 0.32249,7.175 0.55974,8 0.53129,1.84746 -5.16625,2.19117 -15.56863,0.9392 z m 4.32105,-11.76798 c 0.46618,-3.18596 -4.66962,-28.29116 -6.29503,-30.77185 -1.26768,-1.93472 -2.61514,-2.15751 -16.70247,-2.76153 -8.42795,-0.36137 -31.29855,-0.88341 -50.82355,-1.1601 -19.525,-0.27669 -37.78823,-0.74547 -40.58495,-1.04174 -3.61255,-0.38269 -5.41217,-0.1444 -6.215,0.82296 -1.53004,1.84358 -3.29626,34.01005 -1.91598,34.89388 0.56075,0.35906 10.06373,0.37068 21.11773,0.0258 27.7428,-0.86552 63.84683,-0.24264 74.5982,1.28697 2.475,0.35213 7.96686,0.74577 12.20414,0.87478 4.23728,0.129 7.97825,0.50865 8.31327,0.84366 1.3494,1.3494 5.98988,-0.86853 6.30364,-3.01285 z m -563.13832,10.17817 c -0.92058,-0.92057 0.30106,-21.45059 1.39843,-23.50104 0.50536,-0.94428 0.91884,-3.48987 0.91884,-5.65688 0,-2.16701 0.71758,-5.90909 1.59462,-8.31574 0.87705,-2.40665 1.66455,-6.17573 1.75,-8.37573 l 0.15538,-4 11,-0.27551 c 6.05,-0.15153 11.9,-0.21107 13,-0.13231 1.1,0.0788 3.35,0.095 5,0.0361 1.65,-0.0589 8.85,-0.1065 16,-0.10576 7.15,7.4e-4 14.125,-0.0303 15.5,-0.0691 22.18187,-0.62478 38.09313,-0.98729 40.5,-0.92272 1.65,0.0443 5.25,-0.004 8,-0.10749 6.52954,-0.24546 11.40479,-0.21191 14.5,0.0998 1.375,0.13847 3.95298,-0.0894 5.72884,-0.50639 2.87449,-0.67495 3.33651,-0.47492 4.21008,1.82274 0.53969,1.41949 1.4319,8.78633 1.98269,16.37077 0.55079,7.58443 1.50494,17.53351 2.12035,22.10906 0.6154,4.57556 0.84982,9.02044 0.52093,9.87752 -0.51196,1.33414 -2.14195,1.4659 -11.33044,0.91588 -23.23898,-1.39108 -56.2366,-1.69247 -76.476,-0.69851 -31.61313,1.55253 -55.34895,2.16009 -56.07372,1.43531 z M 170,590.2846 c 7.74707,-0.53997 13.61568,-0.50799 15.43419,0.0841 1.96252,0.63899 4.80781,0.56837 8.59207,-0.21326 3.11184,-0.64274 6.96646,-0.95049 8.56582,-0.68388 4.87741,0.81305 52.63839,1.36511 56.90792,0.65779 l 4,-0.66266 -0.097,-7.48335 c -0.15111,-11.65403 -1.56863,-23.00616 -3.05879,-24.49633 -1.11559,-1.11558 -9.79777,-1.2736 -49.0997,-0.89362 -65.65533,0.63478 -64.8825,0.60019 -67.29416,3.01185 -2.1748,2.1748 -2.4806,3.62343 -4.1646,19.72847 -0.87194,8.33883 -0.85813,11.00349 0.06,11.5709 1.37585,0.85032 12.27368,0.62624 30.15433,-0.62002 z m 295.99895,0.77504 c -5.01731,-2.65405 -6.86667,-5.06923 -8.6312,-11.27199 l -1.55637,-5.47103 3.0897,-6.12066 c 1.69933,-3.36636 4.02836,-6.62302 5.17562,-7.23701 3.92582,-2.10103 12.08646,-1.57298 16.85752,1.0908 6.64266,3.70873 8.52538,6.86376 8.54732,14.32344 0.0159,5.3904 -0.38818,6.80956 -2.86336,10.0575 -4.92136,6.4578 -13.51483,8.38701 -20.61923,4.62895 z m 12.2407,-6.22762 c 2.35318,-1.20565 4.76035,-6.08411 4.76035,-9.6475 0,-6.2123 -8.08804,-11.63654 -13.80881,-9.26087 -1.48015,0.61467 -3.6945,2.58523 -4.92076,4.37903 -1.887,2.76033 -2.08048,3.80138 -1.25927,6.77557 2.28161,8.26332 8.27645,11.31566 15.22849,7.75377 z m -112.69797,4.4598 c -5.30157,-1.40424 -9.8442,-6.88738 -11.01189,-13.29182 -0.53128,-2.91386 -0.11987,-4.20128 2.4566,-7.68752 2.64204,-3.57497 3.88806,-4.35222 8.51796,-5.31338 5.10874,-1.06057 5.68821,-0.97056 9.99309,1.55227 5.32484,3.12056 7.50256,6.73077 7.50256,12.43769 0,7.72383 -9.49204,14.4128 -17.45832,12.30276 z M 550,476.90466 c -13.40638,-1.49662 -23.38899,-3.04387 -28.9601,-4.48866 -3.00305,-0.7788 -7.75454,-1.416 -10.55887,-1.416 -8.35287,0 -8.70809,-0.62107 -8.61626,-15.06493 0.10967,-17.252 0.81776,-34.84772 2.09467,-52.05157 2.33402,-31.44627 2.35908,-30.4953 -0.8997,-34.14396 -2.8647,-3.20744 -3.00568,-3.24526 -14.22656,-3.81664 -11.30224,-0.57553 -11.30972,-0.57758 -2.73817,-0.75 6.78717,-0.13653 8.91731,-0.54099 10.12729,-1.9229 2.324,-2.65421 3.88266,-16.31355 4.74375,-41.57204 0.51968,-15.24376 1.16978,-23.2132 1.95777,-24 1.30371,-1.30175 25.7862,-1.36871 93.07618,-0.25459 21.175,0.3506 44.89305,0.67243 52.70678,0.71519 9.47622,0.0519 14.76154,0.4834 15.87285,1.29601 1.20704,0.88261 1.93089,3.81455 2.62728,10.64184 0.52867,5.18298 1.82339,13.59875 2.87715,18.70173 1.05377,5.10298 1.92081,10.72798 1.92676,12.5 0.006,1.77202 0.68096,5.43088 1.5,8.13079 0.81905,2.69991 1.49581,6.29991 1.50392,8 0.0222,4.65702 2.13192,7.99353 5.51223,8.71761 2.59616,0.5561 2.6661,0.65183 0.55177,0.75515 -1.33169,0.0651 -3.20846,0.83071 -4.17059,1.70143 -0.96213,0.87071 -3.24756,2.38117 -5.07874,3.35657 -5.38957,2.87082 -5.93656,4.89851 -5.41147,20.06031 0.25715,7.425 0.7267,15.75 1.04346,18.5 0.31676,2.75 1.256,13.325 2.08721,23.5 0.83121,10.175 2.03193,21.32033 2.66826,24.76741 1.77194,9.59879 0.76037,11.41905 -7.23965,13.02727 -25.40602,5.10728 -39.35279,6.22495 -75.8226,6.07628 -17.41004,-0.071 -35.02962,-0.50581 -39.15462,-0.9663 z m 48.52834,-12.00443 c 1.41381,-1.41381 1.47565,-3.76399 0.56549,-21.4938 -0.56204,-10.94854 -1.0707,-28.23143 -1.13036,-38.40643 -0.13953,-23.79761 -0.90656,-35.53991 -2.46032,-37.66481 -1.00221,-1.3706 -2.86136,-1.68963 -9.64698,-1.6554 -10.58365,0.0534 -12.42944,0.65732 -13.77103,4.50582 -0.61391,1.76107 -1.32144,15.0466 -1.63544,30.70914 -0.30438,15.18289 -0.75241,28.57296 -0.99563,29.75571 -0.24321,1.18275 0.0203,9.03908 0.58558,17.45852 1.33434,19.8737 0.77724,19.20792 15.67644,18.73495 8.56612,-0.27192 11.60086,-0.73231 12.81225,-1.9437 z m 50.27896,-0.56442 c 9.49937,-0.87515 9.63744,-1.24871 8.33906,-22.56189 C 656.5676,432.27327 655.59571,414.825 654.98662,403 c -0.65199,-12.65786 -1.61116,-22.52588 -2.33226,-23.99446 -0.92482,-1.88347 -2.72535,-2.89942 -7.35084,-4.14772 -8.15373,-2.20049 -26.3527,-3.43705 -29.08257,-1.97607 -2.84949,1.525 -3.50005,5.37721 -3.73533,22.11825 -0.18296,13.01796 -3.02011,49.43778 -3.97115,50.97658 -0.70981,1.1485 1.46052,15.28835 2.54767,16.5983 0.59571,0.71778 2.06292,1.49466 3.26048,1.7264 3.39468,0.65691 27.46744,0.68101 34.48468,0.0345 z M 558,462.69218 c 2.98839,-1.52806 3.02833,-2.96781 0.47696,-17.19218 -1.44186,-8.03864 -1.83155,-16.24678 -1.98683,-41.84922 -0.21124,-34.82665 0.12318,-33.02219 -6.35088,-34.26813 -4.27726,-0.82317 -28.9776,2.35678 -31.66864,4.07705 -1.49742,0.95724 -2.35286,3.22964 -3.26335,8.66881 -2.32048,13.86227 -4.17502,69.25881 -2.58408,77.18856 0.32104,1.60011 1.49648,3.1927 2.72101,3.68661 3.57324,1.44127 39.74455,1.17713 42.65581,-0.3115 z M 658.95,357.05206 c 1.67013,-1.05657 1.69463,-3.01149 0.24501,-19.55206 -1.35104,-15.41568 -3.7719,-26.20319 -6.16815,-27.48563 -1.85539,-0.99297 -35.4972,-1.7242 -102.52686,-2.22848 l -38,-0.28589 -1.13791,19.60143 c -0.62586,10.78079 -1.43336,20.94658 -1.79446,22.59066 -1.02519,4.66766 0.73088,5.39858 11.54237,4.80418 31.57101,-1.73571 111.12828,0.22969 135.39,3.34471 0.55,0.0706 1.6525,-0.2844 2.45,-0.78892 z M 216,474.85879 c -12.925,-0.93003 -27.325,-2.40656 -32,-3.28117 -8.95627,-1.67558 -18.3509,-4.05842 -19.98674,-5.06942 -1.01383,-0.62659 -0.85279,-3.50263 1.48425,-26.5082 0.75427,-7.425 1.87818,-20.475 2.49758,-29 0.61939,-8.525 1.54889,-17.93755 2.06554,-20.91678 1.07913,-6.22267 1.23394,-15.15201 0.30469,-17.57361 C 169.71258,370.80861 159.97785,366 157.18701,366 c -1.23503,0 -1.12128,-0.41258 0.54065,-1.9609 1.5756,-1.4679 2.25997,-3.66781 2.72206,-8.75 1.71579,-18.87079 2.85299,-28.1209 5.19898,-42.2891 1.41158,-8.525 2.99055,-15.95 3.50882,-16.5 1.15528,-1.22602 84.6164,-1.68133 86.8835,-0.47399 1.67183,0.89033 10.74027,-0.67944 12.6116,-2.1831 0.63394,-0.50939 1.39309,-2.81993 1.68701,-5.13453 2.09524,-16.49989 3.93001,-27.82811 5.23326,-32.31113 1.51028,-5.19517 2.26117,-6.06933 13.3418,-15.53208 2.56012,-2.18632 3.08531,-3.36668 3.08531,-6.93427 0,-12.42353 10.23059,-19.16417 18.23353,-12.01354 4.18869,3.74259 3.3065,4.59367 -2.02655,1.95508 -4.13281,-2.04475 -4.22372,-2.04684 -7.44544,-0.17135 -2.84123,1.654 -3.30054,2.49755 -3.56417,6.54589 -0.27828,4.27328 -0.0639,4.77067 2.66387,6.18127 1.63158,0.84372 5.48026,1.82948 8.55263,2.19057 3.70266,0.43518 5.58613,1.11231 5.58613,2.00827 0,0.74346 2.22714,3.81102 4.9492,6.81682 2.86572,3.16442 5.49681,7.27338 6.25,9.76058 1.67025,5.51551 1.54941,29.18857 -0.1595,31.24768 -0.65628,0.79076 -1.04618,2.47501 -0.86646,3.74279 0.24455,1.72509 1.08156,2.3902 3.32676,2.64353 4.67182,0.52711 5.79477,1.99426 5.1465,6.72394 -0.3121,2.277 -0.15465,5.66944 0.34989,7.53878 0.88423,3.27609 2.09951,14.93246 4.02858,38.64012 0.52776,6.48595 1.57286,12.51407 2.47055,14.25 1.48109,2.86412 1.8789,3.01591 8.28016,3.15934 6.69586,0.15004 6.68623,0.15374 -2.27568,0.8741 -9.94443,0.79933 -12.13702,1.42685 -13.42735,3.84288 -1.2323,2.30736 -0.50043,49.32993 1.08378,69.63235 1.42525,18.26549 1.57616,26.14851 0.55167,28.81829 -0.51432,1.34029 -2.02208,1.69062 -7.42672,1.7256 -3.72976,0.0241 -8.58138,0.68582 -10.78138,1.47038 -12.56941,4.48253 -61.04148,6.11183 -99.5,3.34452 z m 46.84118,-10.69997 c 1.70221,-1.70221 1.90237,-5.00441 2.65179,-43.75 0.83413,-43.12504 0.82161,-49.64139 -0.10118,-52.67581 -1.20537,-3.96367 -12.58831,-5.46933 -24.0312,-3.17869 -2.84921,0.57036 -3.1679,2.22514 -4.34892,22.58179 -0.55406,9.55014 -1.44672,22.53889 -1.98368,28.86389 -0.53696,6.325 -1.21912,18.94302 -1.5159,28.04005 -0.67822,20.78876 -0.9665,20.24504 11.15423,21.03749 15.91294,1.04039 16.23187,1.02427 18.17486,-0.91872 z m -53.66261,-2.14517 c 9.72374,-0.0105 13.01625,-0.35133 14.12747,-1.46254 2.18861,-2.18862 3.01186,-16.37884 1.65639,-28.55111 -0.64308,-5.775 -1.28087,-21.79733 -1.41731,-35.60517 -0.13644,-13.80784 -0.56646,-25.62034 -0.95561,-26.25 -1.78075,-2.88132 -34.63344,-0.0993 -40.21755,3.40574 -1.17043,0.73464 -2.40092,2.8238 -2.73443,4.64257 -1.46162,7.97085 -3.55287,33.75883 -4.07959,50.30686 -0.31512,9.9 -0.8433,20.94196 -1.17373,24.53768 -0.45647,4.96726 -0.26313,6.81792 0.80488,7.70429 1.33423,1.10731 15.04564,2.23525 19.31091,1.58857 1.1,-0.16678 7.70536,-0.30938 14.67857,-0.31689 z m 112.54872,-0.53519 c 2.07838,-1.45576 2.15624,-2.09342 1.8008,-14.75 -0.20432,-7.27565 -0.68065,-26.05346 -1.05852,-41.72846 -0.43213,-17.92612 -1.114,-29.42753 -1.83786,-31 -0.91123,-1.97951 -2.39801,-2.77156 -7.14127,-3.80436 -8.1532,-1.77529 -31.96006,-2.1039 -33.61262,-0.46397 -0.90514,0.89822 -1.27976,7.26028 -1.38374,23.5 -0.15352,23.97426 -1.62821,44.5214 -4.00699,55.82968 -2.59878,12.35419 -2.66224,12.2838 11.72337,13.00329 23.69553,1.18512 33.21218,1.02806 35.51683,-0.58618 z M 204.5,353.31736 c 10.45359,-0.56006 77.0824,-0.63985 100.22282,-0.12002 11.12255,0.24986 20.69372,0.16326 21.26927,-0.19245 0.97474,-0.60242 0.62976,-15.18969 -0.39857,-16.85356 -0.22831,-0.36943 -0.69332,-4.85836 -1.03335,-9.9754 -0.34004,-5.11704 -1.39268,-11.63746 -2.33921,-14.48982 L 320.5,306.5 l -8.76635,-0.28917 c -6.4653,-0.21327 -8.88458,0.0492 -9.21675,1 -0.24772,0.70904 -1.06363,9.34539 -1.81313,19.19188 -1.26241,16.58478 -1.53067,18.03871 -3.64403,19.75 -2.95764,2.39495 -4.57654,2.33049 -7.19347,-0.28644 -2.05569,-2.05569 -2.10266,-2.61346 -1.28434,-15.25 0.46716,-7.21395 0.80905,-15.02683 0.75976,-17.36195 -0.16618,-7.87161 2.42578,-7.47182 -44.27507,-6.82911 -45.40512,0.62487 -63.68539,1.22114 -65.14787,2.125 -2.29151,1.41624 -3.75991,8.23553 -5.41791,25.16106 -0.97677,9.97119 -1.48666,18.88329 -1.1331,19.80467 0.57407,1.496 1.89944,1.59506 12.38756,0.92585 6.45958,-0.41217 14.8947,-0.91816 18.7447,-1.12443 z m 85.02084,-62.38302 c 0.36059,-1.13612 0.54494,-4.62362 0.40966,-7.75 -0.13527,-3.12639 0.0982,-6.47184 0.51877,-7.43434 0.42059,-0.9625 0.5061,-2.42392 0.19003,-3.2476 -0.77592,-2.022 3.01913,-8.25921 5.50549,-9.04835 3.32146,-1.0542 6.80859,0.42094 8.82215,3.73198 1.58654,2.60886 1.81647,4.401 1.37579,10.72317 -0.291,4.17494 -0.57632,7.8158 -0.63404,8.0908 -0.25574,1.2185 1.51373,5 2.33965,5 1.00738,0 1.59606,-2.2154 2.39148,-9 2.26945,-19.35731 1.8036,-22.66166 -3.66489,-25.9958 -4.15852,-2.53545 -7.81812,-2.53297 -12.80014,0.009 -4.9334,2.51684 -7.38178,6.08884 -6.67545,9.73899 0.29248,1.51148 -0.10522,7.90605 -0.88378,14.21014 -0.77856,6.3041 -1.41556,11.8166 -1.41556,12.25 0,1.75376 3.90937,0.64891 4.52084,-1.27765 z m 175.69734,169.40258 c -6.19625,-3.05401 -9.85896,-10.57822 -8.74982,-17.97452 0.86468,-5.76611 7.09041,-13.0014 11.9759,-13.91792 8.37053,-1.57032 18.33563,5.00909 21.1607,13.97126 0.94165,2.98726 1.39643,6.44258 1.03664,7.87612 -0.91798,3.65752 -5.50586,8.75348 -9.31279,10.34411 -4.38018,1.83016 -12.08071,1.68722 -16.11063,-0.29905 z m 14.20741,-6.85113 c 3.07304,-3.31587 3.93031,-7.89687 2.12948,-11.37929 -2.03146,-3.92842 -3.91432,-5.21087 -8.5666,-5.83487 -3.52514,-0.47282 -4.49724,-0.15838 -7.03921,2.27699 -4.28137,4.10181 -3.95691,10.20872 0.83423,15.70138 2.44727,2.80561 9.74239,2.36462 12.6421,-0.76421 z M 466.77774,341.09914 c -5.28941,-2.4711 -7.46955,-4.7253 -9.36164,-9.67965 -1.9642,-5.1432 -1.3548,-10.6984 1.90661,-17.38022 2.81762,-5.7726 7.0885,-7.59272 15.38679,-6.55739 4.98488,0.62194 6.30862,1.26681 9.51457,4.63513 6.47944,6.80761 7.83074,17.21726 3.08188,23.74115 -2.46,3.37952 -9.84217,7.16549 -13.76784,7.06089 -1.67096,-0.0445 -4.71313,-0.86348 -6.76037,-1.81991 z m 12.72705,-7.51302 c 8.25943,-8.25943 -0.95585,-22.56776 -11.03788,-17.13823 -3.71328,1.99973 -5.46691,5.20603 -5.46691,9.99557 0,2.58211 0.80973,4.06031 3.5348,6.45295 4.49286,3.94478 9.45124,4.20846 12.96999,0.68971 z m -116.58311,4.14008 c -13.20433,-8.8984 -8.75849,-26.71878 6.66729,-26.72465 14.23676,-0.005 18.85944,21.287 5.95134,27.4123 -4.63859,2.20115 -8.65687,1.98218 -12.61863,-0.68765 z"
         style="fill:#261c21" />
    </g>
    <path
       inkscape:connector-curvature="0"
       id="path3037"
       d="m -1713.0446,169.86432 c -1.5684,0.19423 -2.9046,1.19111 -4.2298,1.98343 -1.3503,0.7615 -2.2087,2.17305 -2.376,3.70059 -0.2584,2.09097 -0.5527,4.27021 -0.061,6.34631 0.7542,1.57181 2.5865,2.15811 4.0906,2.77 3.5252,1.2571 7.3067,1.41843 10.9097,2.34392 0.8077,0.18171 1.6305,0.69241 1.7172,1.58743 0.2672,0.51727 0.642,1.20827 1.0105,1.54306 -0.6636,-1.54464 -1.3516,-3.1265 -1.3894,-4.84082 -0.2989,-3.25265 0.2729,-6.49246 0.3004,-9.73966 -0.089,-1.10213 -0.3484,-2.36455 -1.1471,-3.14413 0.076,0.72586 -0.8669,0.44927 -1.2802,0.33114 -2.4316,-0.69574 -4.55,-2.21235 -6.9983,-2.84372 -0.1804,-0.0272 -0.3636,-0.0493 -0.5462,-0.0376 z"
       style="fill:#501616;fill-opacity:1" />
    <path
       inkscape:connector-curvature="0"
       id="path3039"
       d="m -1716.595,201.67098 c -3.4569,0.11693 -6.6754,1.75292 -9.4373,3.72931 -2.0583,1.56278 -3.8879,3.90878 -3.841,6.60765 0.421,5.84487 -0.4372,11.67836 -1.0574,17.47791 -0.3851,3.48868 -0.8916,6.9749 -1.1494,10.47124 0.2965,1.01925 1.5881,0.73549 2.3461,0.4868 1.319,-0.42047 2.4471,-1.57628 2.447,-3.0224 0.3688,-4.27168 0.058,-8.57815 0.4635,-12.84588 0.2119,-1.38431 0.843,-2.7304 0.5271,-4.15678 -0.1725,-1.07573 -0.1169,-2.17995 0.3919,-3.16372 0.9996,-2.24116 2.3548,-4.46949 4.4106,-5.88203 1.2917,-0.74043 2.8863,-0.65968 4.3117,-0.45404 3.3974,0.88173 5.8219,4.10086 6.4369,7.45813 0.3576,4.39846 -0.1854,8.80811 -0.495,13.19456 -0.1216,1.54017 -0.3164,3.17594 0.4693,4.58918 0.4453,0.87496 0.821,2.00959 1.7752,2.43065 0.888,-0.12927 1.0306,-1.27704 1.2802,-1.9732 0.9259,-4.04712 1.2596,-8.20193 1.7281,-12.31996 0.3866,-4.3775 0.8613,-8.78502 0.5455,-13.18135 -0.2482,-2.55467 -1.2784,-5.20622 -3.497,-6.67246 -2.2086,-1.61878 -4.8537,-2.90086 -7.656,-2.77361 z"
       style="fill:#501616;fill-opacity:1" />
    <path
       inkscape:connector-curvature="0"
       id="path3047"
       d="m -1709.7623,214.19848 c 0,0.70899 0,1.41797 0,2.12696 1.4583,0 2.9166,0 4.3749,0 0.01,-0.10313 0.01,-0.20723 0.013,-0.31075 0.045,-1.31227 0.047,-2.62647 -0.013,-3.93828 -0.012,-0.0116 -0.046,-0.001 -0.066,-0.005 -1.4362,0 -2.8724,0 -4.3086,0 0,0.70898 0,1.41797 0,2.12695 z"
       style="fill:#501616;fill-opacity:1" />
    <path
       inkscape:connector-curvature="0"
       id="path3049"
       d="m -1716.5439,201.78259 c -3.9597,0.1107 -7.6411,2.11941 -10.5782,4.66015 -1.7316,1.59718 -2.8465,3.91102 -2.6472,6.29687 0.262,6.9346 -0.8525,13.81554 -1.5718,20.69179 -0.1884,2.20497 -0.6544,4.41344 -0.5544,6.62853 0.2942,0.84645 1.4183,0.42393 2.0703,0.3125 1.6033,-0.43188 2.6368,-2.04936 2.5032,-3.67925 0.2373,-4.40521 0.08,-8.84494 0.6765,-13.22309 0.4885,-1.74004 0.172,-3.57659 0.2969,-5.33296 1.1543,-2.65886 2.614,-5.48428 5.2187,-6.97173 1.3658,-0.52206 2.9508,-0.53412 4.3555,-0.15625 3.9681,1.34207 6.4554,5.62872 6.1641,9.73047 0.029,4.37086 -0.5239,8.7183 -0.6329,13.08203 0.036,1.63685 0.7906,3.25659 1.9141,4.42578 0.6379,0.60093 1.1502,-0.30359 1.2724,-0.85996 1.1186,-3.90167 1.3979,-7.98331 1.8824,-11.99807 0.455,-4.9611 1.0772,-9.97186 0.5444,-14.95056 -0.3176,-2.59716 -1.7576,-5.05108 -4.0439,-6.38477 -2.0252,-1.33368 -4.3817,-2.46185 -6.8701,-2.27148 z"
       style="fill:#501616;fill-opacity:1" />
    <path
       inkscape:connector-curvature="0"
       id="path3051"
       d="m -1716.6025,201.73571 c -4.0234,0.28117 -7.849,2.2138 -10.7578,4.95703 -1.4431,1.44885 -2.5308,3.40665 -2.3756,5.50768 0,4.39681 -0.1499,8.79581 -0.6996,13.16206 -0.4573,4.73671 -1.1917,9.44918 -1.5069,14.19745 -0.1768,0.78144 0.6291,1.18143 1.293,1.00391 1.6266,-0.185 3.2864,-1.44405 3.2617,-3.20313 0.3666,-5.10776 0.089,-10.27721 1,-15.33594 0.096,-1.75819 -0.2949,-3.64043 0.6807,-5.23792 1.1039,-2.27307 2.5689,-4.64471 4.9365,-5.75426 1.9831,-0.49363 4.2535,-0.29232 5.9336,0.96093 2.1525,1.42369 3.5841,3.81141 4.0742,6.31641 0.3921,5.16171 -0.3481,10.31756 -0.4765,15.47266 0.017,1.63807 0.7665,3.25748 1.8671,4.44531 0.6683,0.62656 1.2546,-0.35808 1.3553,-0.95083 1.1545,-4.26433 1.4772,-8.7003 1.9729,-13.07651 0.4066,-4.65539 0.9258,-9.36147 0.4023,-14.02735 -0.4292,-2.50724 -1.8595,-4.88793 -4.0889,-6.18569 -2.0457,-1.2717 -4.4087,-2.36846 -6.872,-2.25181 z"
       style="fill:#501616;fill-opacity:1" />
    <path
       inkscape:connector-curvature="0"
       id="path3053"
       d="m -1716.6025,201.73571 c -4.0234,0.28117 -7.849,2.2138 -10.7578,4.95703 -1.4431,1.44885 -2.5308,3.40665 -2.3756,5.50768 0,4.39681 -0.1499,8.79581 -0.6996,13.16206 -0.4573,4.73671 -1.1917,9.44918 -1.5069,14.19745 -0.1768,0.78144 0.6291,1.18143 1.293,1.00391 1.6266,-0.185 3.2864,-1.44405 3.2617,-3.20313 0.3666,-5.10776 0.089,-10.27721 1,-15.33594 0.096,-1.75819 -0.2949,-3.64043 0.6807,-5.23792 1.1039,-2.27307 2.5689,-4.64471 4.9365,-5.75426 1.9831,-0.49363 4.2535,-0.29232 5.9336,0.96093 2.1525,1.42369 3.5841,3.81141 4.0742,6.31641 0.3921,5.16171 -0.3481,10.31756 -0.4765,15.47266 0.017,1.63807 0.7665,3.25748 1.8671,4.44531 0.6683,0.62656 1.2546,-0.35808 1.3553,-0.95083 1.1545,-4.26433 1.4772,-8.7003 1.9729,-13.07651 0.4066,-4.65539 0.9258,-9.36147 0.4023,-14.02735 -0.4292,-2.50724 -1.8595,-4.88793 -4.0889,-6.18569 -2.0457,-1.2717 -4.4087,-2.36846 -6.872,-2.25181 z"
       style="fill:#501616;fill-opacity:1" />
    <path
       inkscape:connector-curvature="0"
       id="path3055"
       d="m -1716.6025,201.73571 c -4.0234,0.28117 -7.849,2.2138 -10.7578,4.95703 -1.4431,1.44885 -2.5308,3.40665 -2.3756,5.50768 0,4.39681 -0.1499,8.79581 -0.6996,13.16206 -0.4573,4.73671 -1.1917,9.44918 -1.5069,14.19745 -0.1768,0.78144 0.6291,1.18143 1.293,1.00391 1.6266,-0.185 3.2864,-1.44405 3.2617,-3.20313 0.3666,-5.10776 0.089,-10.27721 1,-15.33594 0.096,-1.75819 -0.2949,-3.64043 0.6807,-5.23792 1.1039,-2.27307 2.5689,-4.64471 4.9365,-5.75426 1.9831,-0.49363 4.2535,-0.29232 5.9336,0.96093 2.1525,1.42369 3.5841,3.81141 4.0742,6.31641 0.3921,5.16171 -0.3481,10.31756 -0.4765,15.47266 0.017,1.63807 0.7665,3.25748 1.8671,4.44531 0.6683,0.62656 1.2546,-0.35808 1.3553,-0.95083 1.1545,-4.26433 1.4772,-8.7003 1.9729,-13.07651 0.4066,-4.65539 0.9258,-9.36147 0.4023,-14.02735 -0.4292,-2.50724 -1.8595,-4.88793 -4.0889,-6.18569 -2.0457,-1.2717 -4.4087,-2.36846 -6.872,-2.25181 z"
       style="fill:#501616;fill-opacity:1" />
    <path
       inkscape:connector-curvature="0"
       id="path3057"
       d="m -1713.0361,169.94665 c -1.8968,0.39113 -3.5837,1.50421 -5.1055,2.66016 -1.6889,1.75679 -1.6522,4.40062 -1.707,6.67968 -0.013,1.31593 -0.068,2.90382 1.1758,3.73047 2.5589,1.89588 5.8359,2.33403 8.8801,2.93644 1.9461,0.4261 3.9753,0.61962 5.8425,1.32528 0.5936,0.32994 0.9877,0.8897 1.1406,1.53125 0.3319,0.55117 0.1074,-0.32312 0.024,-0.49219 -0.9818,-2.68988 -0.6253,-5.60914 -0.5833,-8.40974 0.054,-1.93494 0.4354,-3.93332 -0.042,-5.83635 -0.2155,-0.4348 -0.3065,-1.2347 -0.8086,-1.38281 -0.3719,0.5661 -1.2229,0.0512 -1.7383,-0.0508 -2.3641,-0.76138 -4.4864,-2.2405 -6.9414,-2.69922 l -0.066,0 -0.07,0.008 z"
       style="fill:#501616;fill-opacity:1" />
    <path
       inkscape:connector-curvature="0"
       id="path3059"
       d="m -1713.0361,169.94665 c -1.8968,0.39113 -3.5837,1.50421 -5.1055,2.66016 -1.6889,1.75679 -1.6522,4.40062 -1.707,6.67968 -0.013,1.31593 -0.068,2.90382 1.1758,3.73047 2.5589,1.89588 5.8359,2.33403 8.8801,2.93644 1.9461,0.4261 3.9753,0.61962 5.8425,1.32528 0.5936,0.32994 0.9877,0.8897 1.1406,1.53125 0.3319,0.55117 0.1074,-0.32312 0.024,-0.49219 -0.9818,-2.68988 -0.6253,-5.60914 -0.5833,-8.40974 0.054,-1.93494 0.4354,-3.93332 -0.042,-5.83635 -0.2155,-0.4348 -0.3065,-1.2347 -0.8086,-1.38281 -0.3719,0.5661 -1.2229,0.0512 -1.7383,-0.0508 -2.3641,-0.76138 -4.4864,-2.2405 -6.9414,-2.69922 l -0.066,0 -0.07,0.008 z"
       style="fill:#501616;fill-opacity:1" />
    <path
       inkscape:connector-curvature="0"
       id="path3061"
       d="m -1713.0361,169.94665 c -1.8968,0.39113 -3.5837,1.50421 -5.1055,2.66016 -1.6889,1.75679 -1.6522,4.40062 -1.707,6.67968 -0.013,1.31593 -0.068,2.90382 1.1758,3.73047 2.5589,1.89588 5.8359,2.33403 8.8801,2.93644 1.9461,0.4261 3.9753,0.61962 5.8425,1.32528 0.5936,0.32994 0.9877,0.8897 1.1406,1.53125 0.3319,0.55117 0.1074,-0.32312 0.024,-0.49219 -0.9818,-2.68988 -0.6253,-5.60914 -0.5833,-8.40974 0.054,-1.93494 0.4354,-3.93332 -0.042,-5.83635 -0.2155,-0.4348 -0.3065,-1.2347 -0.8086,-1.38281 -0.3719,0.5661 -1.2229,0.0512 -1.7383,-0.0508 -2.3641,-0.76138 -4.4864,-2.2405 -6.9414,-2.69922 l -0.066,0 -0.07,0.008 z"
       style="fill:#501616;fill-opacity:1" />
  </g>
</svg>
