<?xml version="1.0" encoding="UTF-8" standalone="no"?>
<!-- Created with Inkscape (http://www.inkscape.org/) -->

<svg
   xmlns:dc="http://purl.org/dc/elements/1.1/"
   xmlns:cc="http://creativecommons.org/ns#"
   xmlns:rdf="http://www.w3.org/1999/02/22-rdf-syntax-ns#"
   xmlns:svg="http://www.w3.org/2000/svg"
   xmlns="http://www.w3.org/2000/svg"
   xmlns:sodipodi="http://sodipodi.sourceforge.net/DTD/sodipodi-0.dtd"
   xmlns:inkscape="http://www.inkscape.org/namespaces/inkscape"
   width="1024"
   height="1024"
   id="svg2"
   version="1.1"
   inkscape:version="0.48.4 r9939"
   sodipodi:docname="Classic Horse.svg">
  <defs
     id="defs4" />
  <sodipodi:namedview
     id="base"
     pagecolor="#ffffff"
     bordercolor="#666666"
     borderopacity="1.0"
     inkscape:pageopacity="0.0"
     inkscape:pageshadow="2"
     inkscape:zoom="0.35"
     inkscape:cx="17.1773"
     inkscape:cy="182.26145"
     inkscape:document-units="px"
     inkscape:current-layer="layer1"
     showgrid="false"
     inkscape:window-width="1366"
     inkscape:window-height="705"
     inkscape:window-x="-8"
     inkscape:window-y="-8"
     inkscape:window-maximized="1" />
  <metadata
     id="metadata7">
    <rdf:RDF>
      <cc:Work
         rdf:about="">
        <dc:format>image/svg+xml</dc:format>
        <dc:type
           rdf:resource="http://purl.org/dc/dcmitype/StillImage" />
        <dc:title></dc:title>
      </cc:Work>
    </rdf:RDF>
  </metadata>
  <g
     inkscape:label="Layer 1"
     inkscape:groupmode="layer"
     id="layer1"
     transform="translate(0,-28.362183)">
    <path
       sodipodi:type="arc"
       style="fill:#000000;fill-opacity:1;stroke:#000000;stroke-opacity:1"
       id="path3006"
       sodipodi:cx="303.04578"
       sodipodi:cy="511.93057"
       sodipodi:rx="20.203051"
       sodipodi:ry="20.203051"
       d="m 323.24883,511.93057 a 20.203051,20.203051 0 1 1 -40.4061,0 20.203051,20.203051 0 1 1 40.4061,0 z"
       transform="matrix(3.0027181,0,0,3.0027181,-441.94247,-1051.6219)" />
    <path
       sodipodi:type="arc"
       style="fill:#ffffff;fill-opacity:1;stroke:#ffffff;stroke-opacity:1"
       id="path3008"
       sodipodi:cx="292.43915"
       sodipodi:cy="505.86966"
       sodipodi:rx="6.0609155"
       sodipodi:ry="6.0609155"
       d="m 298.50006,505.86966 a 6.0609155,6.0609155 0 1 1 -12.12183,0 6.0609155,6.0609155 0 1 1 12.12183,0 z"
       transform="matrix(3.0027181,0,0,3.0027181,-434.35944,-1053.1385)" />
    <path
       style="fill:#a45a24;fill-opacity:1;stroke:#a45a24;stroke-width:3.00271821px;stroke-linecap:butt;stroke-linejoin:miter;stroke-opacity:1"
       d="m 778.92189,961.77427 c 0,0 97.0625,-206.25789 36.39843,-327.58602 L 299.67576,1010.3054 35.787073,703.95194 108.58395,646.32107 314.84177,898.077 794.08793,531.05933 c 0,0 -18.19924,-188.05858 -233.55667,-279.0547 l -6.06642,-106.16212 c 0,0 200.19142,48.53126 309.38674,309.38675 l 94.0293,-94.02931 30.33206,118.29493 -87.96289,87.96289 c 0,0 54.59763,403.41593 -51.56449,451.94743 z"
       id="path2996"
       inkscape:connector-curvature="0" />
    <path
       style="fill:#000000;stroke:#000000;stroke-width:3.32222462px;stroke-linecap:butt;stroke-linejoin:miter;stroke-opacity:1"
       d="M 776.62973,494.46661 813.5452,605.21307 888.8928,559.10082 850.46068,450.8392 z"
       id="path2998"
       inkscape:connector-curvature="0"
       sodipodi:nodetypes="ccccc" />
    <path
       sodipodi:type="arc"
       style="fill:#000000;fill-opacity:1;stroke:#000000;stroke-opacity:1"
       id="path3004"
       sodipodi:cx="238.90108"
       sodipodi:cy="664.96869"
       sodipodi:rx="25.75889"
       sodipodi:ry="25.75889"
       d="m 264.65997,664.96869 a 25.75889,25.75889 0 1 1 -51.51778,0 25.75889,25.75889 0 1 1 51.51778,0 z"
       transform="matrix(3.0027181,0,0,3.0027181,-440.42586,-1057.6883)" />
    <path
       sodipodi:type="arc"
       style="fill:#ffffff;fill-opacity:1;stroke:#ffffff;stroke-opacity:1"
       id="path3002"
       sodipodi:cx="239.40616"
       sodipodi:cy="666.48389"
       sodipodi:rx="10.101525"
       sodipodi:ry="10.101525"
       d="m 249.50768,666.48389 a 10.101525,10.101525 0 1 1 -20.20305,0 10.101525,10.101525 0 1 1 20.20305,0 z"
       transform="matrix(3.0027181,0,0,3.0027181,-440.42586,-1057.6883)" />
    <path
       style="fill:#ffffff;stroke:#ffffff;stroke-width:3.00271821px;stroke-linecap:butt;stroke-linejoin:miter;stroke-opacity:1"
       d="m 820.62843,512.10182 14.40774,37.91505 17.4409,-6.82472 -13.6494,-37.91503 z"
       id="path3000"
       inkscape:connector-curvature="0" />
  </g>
</svg>
