<?xml version="1.0" encoding="UTF-8" standalone="no"?>
<!-- Created with Inkscape (http://www.inkscape.org/) -->

<svg
   xmlns:dc="http://purl.org/dc/elements/1.1/"
   xmlns:cc="http://creativecommons.org/ns#"
   xmlns:rdf="http://www.w3.org/1999/02/22-rdf-syntax-ns#"
   xmlns:svg="http://www.w3.org/2000/svg"
   xmlns="http://www.w3.org/2000/svg"
   xmlns:sodipodi="http://sodipodi.sourceforge.net/DTD/sodipodi-0.dtd"
   xmlns:inkscape="http://www.inkscape.org/namespaces/inkscape"
   id="svg3210"
   version="1.1"
   inkscape:version="0.48.2 r9819"
   width="1920"
   height="1920"
   sodipodi:docname="Indian Head.svg"
   inkscape:export-filename="G:\LEGO Textures Scans\Complete\LEGO Minifigures\Series 1\Indian Head.png"
   inkscape:export-xdpi="48"
   inkscape:export-ydpi="48">
  <metadata
     id="metadata3216">
    <rdf:RDF>
      <cc:Work
         rdf:about="">
        <dc:format>image/svg+xml</dc:format>
        <dc:type
           rdf:resource="http://purl.org/dc/dcmitype/StillImage" />
        <dc:title></dc:title>
      </cc:Work>
    </rdf:RDF>
  </metadata>
  <defs
     id="defs3214" />
  <sodipodi:namedview
     pagecolor="#ffffff"
     bordercolor="#666666"
     borderopacity="1"
     objecttolerance="10"
     gridtolerance="10"
     guidetolerance="10"
     inkscape:pageopacity="0"
     inkscape:pageshadow="2"
     inkscape:window-width="1600"
     inkscape:window-height="850"
     id="namedview3212"
     showgrid="false"
     inkscape:zoom="0.16170271"
     inkscape:cx="-1200.7833"
     inkscape:cy="378.68128"
     inkscape:window-x="-8"
     inkscape:window-y="-8"
     inkscape:window-maximized="1"
     inkscape:current-layer="g3292" />
  <g
     id="g3254"
     transform="translate(1.3665254,1791)">
    <g
       id="g3292">
      <g
         id="g3043">
        <g
           transform="matrix(0.9484651,0,0,0.9484651,49.84364,-20.401782)"
           id="g3338">
          <g
             id="g3322"
             transform="matrix(18.145857,0,0,18.145857,-123.14515,-1566.4582)">
            <g
               id="g3309">
              <path
                 sodipodi:nodetypes="sssssssssss"
                 inkscape:connector-curvature="0"
                 id="path3258"
                 d="M 16.233872,78.441339 C 14.36788,77.701379 14.705836,77.632299 12.642234,77.453489 10.603427,77.276827 9.4859634,76.929787 8.9633617,76.434921 7.3529727,74.909998 6.597765,70.922646 10.560104,63.422405 c 3.526989,-6.676176 3.620507,-7.636658 7.450006,-5.409002 1.9835,1.153821 1.693949,0.973455 3.707892,1.137518 1.82626,0.148774 2.362414,-0.719544 3.656131,0.709998 2.223027,2.456417 0.658177,4.87088 -0.460791,8.225739 -0.803568,2.409236 -1.289436,3.017924 -1.486697,4.477094 -0.228273,1.68857 -0.667709,2.950052 -1.593677,4.913342 -1.128464,2.392635 -2.823292,2.064991 -5.599096,0.964245 z"
                 style="fill:#ba2615" />
              <g
                 id="g3284">
                <path
                   transform="translate(-1.3665254,2.8019429e-8)"
                   inkscape:connector-curvature="0"
                   id="path3290"
                   d="m 45.846928,88.209216 -4.509534,-4.03125 -0.204979,-8.335805 43.865466,0.54661 -2.18644,6.695975 -1.298199,3.757945 -9.770657,3.416313 -20.771187,-0.614936 -5.602754,-1.708157"
                   style="fill:#ffffff;stroke:#ffffff;stroke-width:1px;stroke-linecap:butt;stroke-linejoin:miter;stroke-opacity:1" />
                <path
                   style="fill:#111111"
                   d="M 52.5,90.913141 C 41.968332,89.877382 41.198259,89.299375 38.52767,80.425681 c -1.173839,-3.90037 -1.147305,-4.663189 0.209399,-6.019893 1.261755,-1.261755 1.707144,-1.304896 2.3712,-0.229677 C 41.737143,75.194364 46.032259,75.5 59.712952,75.5 69.495828,75.5 79.075,75.275 81,75 l 3.5,-0.5 -0.355339,4 C 83.493196,85.833443 80.828263,88.84669 73.5,90.535943 c -4.024362,0.927664 -13.645627,1.10048 -21,0.377198 z m 24.75,-3.768597 c 3.082019,-1.227251 3.677411,-3.123326 1,-3.184582 -1.231476,-0.02817 -0.917098,-0.491559 1.061017,-1.563907 1.689747,-0.916022 2.683055,-2.188321 2.490217,-3.189647 C 81.54152,77.857819 80.625432,77.63197 76.990217,78.020316 71.121252,78.64729 52.98944,78.635404 46,78 c -5.079701,-0.461791 -5.473622,-0.347164 -5.154817,1.5 0.189851,1.1 1.031341,2.390075 1.869978,2.866833 1.26078,0.716743 1.289033,1.012541 0.163176,1.708359 -1.879207,1.161414 -0.02221,2.894568 4.279014,3.993646 4.456627,1.138788 26.621263,0.458003 30.092649,-0.924294 z M 8.2,75.8 C 5.7016907,73.301691 8.0857334,62.884499 12.275717,57.990954 c 2.228323,-2.602492 3.3372,-2.511351 5.266313,0.432848 1.415056,2.159649 1.426912,2.735578 0.108784,5.284556 -0.813644,1.573413 -1.801607,4.645202 -2.195473,6.826197 C 15.061474,72.71555 14.292795,75.0625 13.747165,75.75 12.490042,77.33399 9.7586097,77.35861 8.2,75.8 z M 25.608568,51.275235 C 25.273856,50.940522 25,50.307325 25,49.86813 c 0,-1.422956 6.222692,-7.932142 8.898444,-9.30813 3.697561,-1.901448 15.144813,-3.502039 19.184854,-2.682487 2.976888,0.603884 3.458381,1.124904 3.740484,4.047552 0.320249,3.317849 0.287518,3.346623 -3,2.637293 -10.861023,-2.343427 -14.470538,-1.714607 -22.716231,3.957431 -2.689728,1.850207 -5.164271,3.090158 -5.498983,2.755446 z m 64.911291,-4.849926 c -7.368495,-3.615882 -10.275021,-4.009107 -17.434821,-2.358761 -3.406785,0.78527 -4.602151,0.722599 -5.234688,-0.274446 -2.830932,-4.462296 3.264865,-6.902069 14.012413,-5.608309 5.597397,0.673799 7.010784,1.319554 11.75,5.368393 4.887048,4.175136 6.630817,6.57166 4.637237,6.373123 -0.4125,-0.04108 -3.891064,-1.61608 -7.730141,-3.5 z"
                   id="path3256"
                   inkscape:connector-curvature="0"
                   sodipodi:nodetypes="sssssscssssssssssssssssssssssssssssssssssss" />
                <g
                   id="g3280"
                   transform="matrix(-1.0534697,0,0,1,120.55773,1.503178)">
                  <path
                     style="fill:#ba2615"
                     d="M 16.233872,78.441339 C 14.36788,77.701379 14.705836,77.632299 12.642234,77.453489 10.603427,77.276827 9.4859634,76.929787 8.9633617,76.434921 7.3529727,74.909998 6.597765,70.922646 10.560104,63.422405 c 3.526989,-6.676176 3.620507,-7.636658 7.450006,-5.409002 1.9835,1.153821 1.693949,0.973455 3.707892,1.137518 1.82626,0.148774 2.362414,-0.719544 3.656131,0.709998 2.223027,2.456417 0.658177,4.87088 -0.460791,8.225739 -0.803568,2.409236 -1.289436,3.017924 -1.486697,4.477094 -0.228273,1.68857 -0.667709,2.950052 -1.593677,4.913342 -1.128464,2.392635 -2.823292,2.064991 -5.599096,0.964245 z"
                     id="path3276"
                     inkscape:connector-curvature="0"
                     sodipodi:nodetypes="sssssssssss" />
                  <path
                     sodipodi:nodetypes="sssssss"
                     style="fill:#111111"
                     d="M 8.2,75.8 C 5.7016907,73.301691 8.0857334,62.884499 12.275717,57.990954 c 2.228323,-2.602492 3.3372,-2.511351 5.266313,0.432848 1.415056,2.159649 1.426912,2.735578 0.108784,5.284556 -0.813644,1.573413 -1.801607,4.645202 -2.195473,6.826197 C 15.061474,72.71555 14.292795,75.0625 13.747165,75.75 12.490042,77.33399 9.7586097,77.35861 8.2,75.8 z"
                     id="path3278"
                     inkscape:connector-curvature="0" />
                </g>
              </g>
              <path
                 sodipodi:type="arc"
                 style="fill:#000000;fill-opacity:1;stroke:#000000;stroke-opacity:1"
                 id="path3301"
                 sodipodi:cx="60.005951"
                 sodipodi:cy="54.403233"
                 sodipodi:rx="4.8313971"
                 sodipodi:ry="4.8313971"
                 d="m 64.837348,54.403233 c 0,2.668306 -2.16309,4.831397 -4.831397,4.831397 -2.668307,0 -4.831397,-2.163091 -4.831397,-4.831397 0,-2.668307 2.16309,-4.831397 4.831397,-4.831397 2.668307,0 4.831397,2.16309 4.831397,4.831397 z"
                 transform="matrix(1.3624864,0,0,1.3624864,-37.418861,-20.20357)" />
              <path
                 transform="matrix(0.55595423,0,0,0.55595423,10.734316,21.01712)"
                 d="m 64.837348,54.403233 c 0,2.668306 -2.16309,4.831397 -4.831397,4.831397 -2.668307,0 -4.831397,-2.163091 -4.831397,-4.831397 0,-2.668307 2.16309,-4.831397 4.831397,-4.831397 2.668307,0 4.831397,2.16309 4.831397,4.831397 z"
                 sodipodi:ry="4.8313971"
                 sodipodi:rx="4.8313971"
                 sodipodi:cy="54.403233"
                 sodipodi:cx="60.005951"
                 id="path3303"
                 style="fill:#ffffff;fill-opacity:1;stroke:#ffffff;stroke-opacity:1"
                 sodipodi:type="arc" />
              <path
                 transform="matrix(1.3624864,0,0,1.3624864,-3.0188615,-20.20362)"
                 d="m 64.837348,54.403233 c 0,2.668306 -2.16309,4.831397 -4.831397,4.831397 -2.668307,0 -4.831397,-2.163091 -4.831397,-4.831397 0,-2.668307 2.16309,-4.831397 4.831397,-4.831397 2.668307,0 4.831397,2.16309 4.831397,4.831397 z"
                 sodipodi:ry="4.8313971"
                 sodipodi:rx="4.8313971"
                 sodipodi:cy="54.403233"
                 sodipodi:cx="60.005951"
                 id="path3305"
                 style="fill:#000000;fill-opacity:1;stroke:#000000;stroke-opacity:1"
                 sodipodi:type="arc" />
              <path
                 sodipodi:type="arc"
                 style="fill:#ffffff;fill-opacity:1;stroke:#ffffff;stroke-opacity:1"
                 id="path3307"
                 sodipodi:cx="60.005951"
                 sodipodi:cy="54.403233"
                 sodipodi:rx="4.8313971"
                 sodipodi:ry="4.8313971"
                 d="m 64.837348,54.403233 c 0,2.668306 -2.16309,4.831397 -4.831397,4.831397 -2.668307,0 -4.831397,-2.163091 -4.831397,-4.831397 0,-2.668307 2.16309,-4.831397 4.831397,-4.831397 2.668307,0 4.831397,2.16309 4.831397,4.831397 z"
                 transform="matrix(0.55595423,0,0,0.55595423,45.134315,21.01707)" />
            </g>
          </g>
        </g>
      </g>
    </g>
  </g>
</svg>
