<?xml version="1.0" encoding="UTF-8" standalone="no"?>
<!-- Created with Inkscape (http://www.inkscape.org/) -->

<svg
   xmlns:dc="http://purl.org/dc/elements/1.1/"
   xmlns:cc="http://creativecommons.org/ns#"
   xmlns:rdf="http://www.w3.org/1999/02/22-rdf-syntax-ns#"
   xmlns:svg="http://www.w3.org/2000/svg"
   xmlns="http://www.w3.org/2000/svg"
   xmlns:sodipodi="http://sodipodi.sourceforge.net/DTD/sodipodi-0.dtd"
   xmlns:inkscape="http://www.inkscape.org/namespaces/inkscape"
   id="svg2985"
   version="1.1"
   inkscape:version="0.48.3.1 r9886"
   width="1920"
   height="1920"
   sodipodi:docname="Wrestler Head.svg">
  <metadata
     id="metadata2991">
    <rdf:RDF>
      <cc:Work
         rdf:about="">
        <dc:format>image/svg+xml</dc:format>
        <dc:type
           rdf:resource="http://purl.org/dc/dcmitype/StillImage" />
        <dc:title></dc:title>
      </cc:Work>
    </rdf:RDF>
  </metadata>
  <defs
     id="defs2989" />
  <sodipodi:namedview
     pagecolor="#ffffff"
     bordercolor="#666666"
     borderopacity="1"
     objecttolerance="10"
     gridtolerance="10"
     guidetolerance="10"
     inkscape:pageopacity="0"
     inkscape:pageshadow="2"
     inkscape:window-width="1920"
     inkscape:window-height="1005"
     id="namedview2987"
     showgrid="false"
     inkscape:zoom="0.40972222"
     inkscape:cx="1630.6647"
     inkscape:cy="957.72489"
     inkscape:window-x="-9"
     inkscape:window-y="-9"
     inkscape:window-maximized="1"
     inkscape:current-layer="g3071" />
  <g
     id="g3894"
     transform="matrix(16.160265,0,0,16.160265,2511.2813,-164.50819)">
    <g
       transform="translate(-174.30781,5.6089148)"
       id="g3071">
      <path
         transform="translate(174.30781,-5.6089148)"
         inkscape:connector-curvature="0"
         id="path3119"
         d="m -127.37288,125.69492 67.881355,0.15254 -1.372882,-19.0678 -8.237288,-4.72881 -22.423729,-1.67797 -16.627116,0.61017 -16.32204,2.74576 -5.03389,5.79661 0.30508,10.37289 z"
         style="fill:#ffff00;stroke:#ffff00;stroke-width:1px;stroke-linecap:butt;stroke-linejoin:miter;stroke-opacity:1" />
      <path
         inkscape:connector-curvature="0"
         id="path3077"
         d="M 42.298886,117.09791 C 36.203077,109.98962 32.381336,101.96603 32.129784,95.748292 31.943351,91.140136 31.243052,89.076159 28.465578,84.948849 26.57703,82.142478 24.347636,77.542346 23.51137,74.726333 21.692184,68.600468 21.416036,55.436083 22.961222,48.5 24.23715,42.772574 27.020436,35 27.795445,35 c 0.288051,0 3.129159,2.485159 6.313573,5.522576 13.590657,12.963291 27.17312,13.656997 39.145086,1.999285 l 3.754104,-3.655562 3.245896,3.427426 c 7.823379,8.26091 20.233366,10.674336 30.045456,5.843076 C 116.56677,45.050965 125,36.850679 125,33.842418 l 0,-2.28743 1.59667,2.279567 c 2.7506,3.927036 6.23597,13.945714 7.52937,21.643169 1.81659,10.811127 -1.02052,23.881897 -6.62508,30.522276 -0.69631,0.825 -1.46933,5.1 -1.71782,9.5 -0.46719,8.27257 -2.39202,13.48004 -7.42743,20.09439 -1.29564,1.70192 -2.35571,3.64741 -2.35571,4.32333 0,0.67591 -0.71199,0.39763 -1.67449,0.21225 -1.49331,-0.28761 -0.99485,-0.83467 -0.99485,-7.68342 0,-10.84264 -2.24331,-13.533968 -10.05442,-14.649919 C 100.09931,97.342752 88.275,96.625004 77,96.663114 c -22.512061,0.07609 -28.082175,1.723321 -30.451301,6.185856 -1.29147,2.43264 -1.098434,10.49375 0.380727,15.82552 0.959977,3.46032 -0.93259,2.73558 -4.63054,-1.57658 z M 40.664167,102.56722 C 39.812761,100.34849 37,100.61674 37,102.91667 c 0,2.10633 1.991381,3.29874 3.382783,2.02555 0.48553,-0.44428 0.612153,-1.51303 0.281384,-2.375 z M 121,101.87756 c 0,-1.20559 -2.73844,-1.10978 -3.5,0.12244 -1.08086,1.74886 0.52195,3.22667 2.08903,1.92611 C 120.36506,103.28206 121,102.36021 121,101.87756 z M 49.333158,95.651474 C 51.64817,94.827429 50.971323,92.5 48.416667,92.5 c -1.230119,0 -1.818605,0.59554 -1.642902,1.662595 0.196932,1.19598 -0.262539,1.522348 -1.637141,1.162882 -2.31848,-0.606296 -3.934467,1.563395 -2.037579,2.735736 0.812975,0.502446 1.964626,0.31846 2.878116,-0.459803 0.837561,-0.713576 2.34776,-1.591047 3.355997,-1.949936 z M 39,96.559017 c 0,-0.792541 -0.48921,-1.743331 -1.087132,-2.112868 -1.412022,-0.872677 -3.339396,1.054697 -2.466719,2.466719 C 36.426364,98.498889 39,98.242637 39,96.559017 z M 115.77083,95.8125 C 115.15276,93.958277 113,93.65074 113,95.416667 113,96.2875 113.7125,97 114.58333,97 c 0.87084,0 1.40521,-0.534375 1.1875,-1.1875 z M 123,95.559017 c 0,-0.792541 -0.41891,-1.699881 -0.9309,-2.016312 -1.18889,-0.734774 -2.38461,1.13778 -1.5691,2.457295 0.91956,1.487871 2.5,1.209092 2.5,-0.440983 z m -11.4309,-1.67082 c 0.86201,-1.394772 -1.74093,-3.11637 -2.92361,-1.933689 C 107.68357,92.916428 108.61026,95 110,95 c 0.48508,0 1.19118,-0.500312 1.5691,-1.111803 z M 55.264432,93.402234 C 56.218745,92.447921 54.914713,90 53.452028,90 51.776856,90 50.683964,91.679625 51.5,93 c 0.683004,1.105123 2.831928,1.334739 3.764432,0.402234 z m 4.674786,-2.975472 c -0.596994,-0.719334 -1.727543,-1.061484 -2.512331,-0.760332 -1.734815,0.665711 -1.806423,1.554034 -0.250681,3.109776 1.700897,1.700897 4.294315,-0.504337 2.763012,-2.349444 z M 39.5,90.986305 c 0,-2.143506 -2.905668,-1.833904 -3.327118,0.354508 -0.257366,1.336396 0.149909,1.743671 1.486305,1.486305 C 38.671634,92.632139 39.5,91.803773 39.5,90.986305 z M 66,90.393011 C 66,89.626855 65.1,89 64,89 62.117417,89 61.280859,90.947525 62.597766,92.264432 63.570911,93.237577 66,91.901441 66,90.393011 z m 35.55385,1.519857 c 1.03052,-1.667419 -1.28721,-3.57951 -2.666718,-2.2 C 97.733208,90.866792 98.455411,93 100,93 c 0.48508,0 1.18431,-0.48921 1.55385,-1.087132 z M 106.75,91.75 c -0.22917,-0.6875 -1.01667,-1.25 -1.75,-1.25 -0.73333,0 -1.52083,0.5625 -1.75,1.25 -0.24786,0.74359 0.46111,1.25 1.75,1.25 1.28889,0 1.99786,-0.50641 1.75,-1.25 z M 72,90.5 C 72,89.666667 71.111111,89 70,89 c -1.111111,0 -2,0.666667 -2,1.5 0,0.833333 0.888889,1.5 2,1.5 1.111111,0 2,-0.666667 2,-1.5 z m 5.809629,-0.25 c -0.437376,-2.271113 -3.181882,-2.271113 -3.619258,0 C 73.953909,91.477849 74.493851,92 76,92 c 1.506149,0 2.046091,-0.522151 1.809629,-1.75 z M 84,90.559017 C 84,88.603878 82.06163,87.53837 80.8,88.8 80.235846,89.364154 80.076613,90.314945 80.446149,90.912868 81.426364,92.498889 84,92.242637 84,90.559017 z m 6,0 C 90,88.603878 88.06163,87.53837 86.8,88.8 86.235846,89.364154 86.076613,90.314945 86.446149,90.912868 87.426364,92.498889 90,92.242637 90,90.559017 z M 96,90.5 C 96,89.666667 95.111111,89 94,89 92.007757,89 91.398876,90.065542 92.666667,91.333333 93.884596,92.551262 96,92.022411 96,90.5 z m 26,0.05902 c 0,-0.792541 -0.41891,-1.699881 -0.9309,-2.016312 -1.18889,-0.734774 -2.38461,1.13778 -1.5691,2.457295 0.91956,1.487871 2.5,1.209092 2.5,-0.440983 z M 37.33357,84.573113 C 38.10642,82.559098 35.268262,80.331738 33.8,81.8 c -0.820316,0.820316 -0.776728,1.523115 0.164826,2.657618 1.59598,1.923038 2.661112,1.959555 3.368744,0.115495 z M 53,82.54969 c 0,-0.79767 0.695477,-1.839518 1.545503,-2.315217 1.25553,-0.70263 1.341988,-1.400194 0.460806,-3.717879 -0.720564,-1.895226 -0.763629,-3.77399 -0.128283,-5.596543 0.955304,-2.740388 0.949163,-2.744835 -5.292719,-3.831812 C 46.148284,66.489708 43.035535,66 42.668087,66 c -1.27823,0 -0.657458,6.986092 0.985677,11.09269 1.137666,2.843308 2.620021,4.553819 4.75,5.481095 C 52.395236,84.311453 53,84.308283 53,82.54969 z M 68,83 c 1.059639,-0.684791 -0.261446,-0.969374 -4.5,-0.969374 -3.3,0 -6.675,0.436218 -7.5,0.969374 -1.059639,0.684791 0.261446,0.969374 4.5,0.969374 3.3,0 6.675,-0.436218 7.5,-0.969374 z m 56,-0.5 c 0,-0.825 -0.675,-1.5 -1.5,-1.5 -0.825,0 -1.5,0.675 -1.5,1.5 0,0.825 0.675,1.5 1.5,1.5 0.825,0 1.5,-0.675 1.5,-1.5 z M 33.527073,79.956195 C 34.464229,78.439845 31.924128,75.675872 30.709599,76.890401 29.58809,78.01191 30.46061,81 31.909598,81 c 0.534803,0 1.262666,-0.469712 1.617475,-1.043805 z M 71.122737,77.925861 C 71.495584,76.591637 71.845496,73.8125 71.90032,71.75 71.98999,68.376576 71.745416,68 69.464816,68 c -2.241095,0 -2.408654,0.236423 -1.444437,2.038078 0.656652,1.226967 0.816843,3.864594 0.402512,6.627558 -0.54453,3.631183 -0.405289,4.495163 0.666854,4.137782 0.745299,-0.248433 1.660145,-1.543333 2.032992,-2.877557 z m 56.226603,0.606164 C 128.05458,76.694179 126.17965,75.420347 124.8,76.8 c -1.06741,1.06741 -0.29966,3.2 1.15203,3.2 0.4587,0 1.08748,-0.660589 1.39731,-1.467975 z M 30.664167,74.432783 c 0.791151,-2.061706 -1.282431,-4.214519 -2.69695,-2.8 C 26.822017,72.777983 27.686065,76 29.138374,76 c 0.508417,0 1.195025,-0.705248 1.525793,-1.567217 z M 129.66417,71.567217 C 129.3334,70.705248 128.59865,70 128.03138,70 c -1.1505,0 -1.41332,3.28473 -0.34805,4.35 1.09781,1.097804 2.63907,-1.067449 1.98084,-2.782783 z M 29.671244,68.4375 c 0.162934,-0.515625 -0.127702,-1.608738 -0.645859,-2.429141 -1.25915,-1.993624 -3.554016,0.171666 -2.657642,2.507582 0.643988,1.678204 2.764322,1.627857 3.303501,-0.07844 z M 130.66417,65.567217 C 130.3334,64.705248 129.59865,64 129.03138,64 c -1.1505,0 -1.41332,3.28473 -0.34805,4.35 1.09781,1.097804 2.63907,-1.067449 1.98084,-2.782783 z M 29,62.059017 c 0,-1.067541 -0.500312,-2.250193 -1.111803,-2.628115 -1.369433,-0.846356 -2.891048,1.398094 -2.188688,3.228414 C 26.486571,64.710366 29,64.253219 29,62.059017 z M 130.6,59.4 c -0.48405,-1.261407 -0.96557,-1.434435 -1.76557,-0.634435 -0.605,0.605 -0.80049,1.880496 -0.43443,2.834435 0.48405,1.261407 0.96557,1.434435 1.76557,0.634435 0.605,-0.605 0.80049,-1.880496 0.43443,-2.834435 z M 49.376152,57.462146 c 0.653098,-1.701944 -1.640877,-3.034605 -3.376823,-1.961731 -0.786367,0.486001 -0.765282,1.076668 0.07456,2.088613 1.516691,1.8275 2.567797,1.787113 3.302266,-0.126882 z M 55,57.5 C 55,56.666667 54.111111,56 53,56 c -1.111111,0 -2,0.666667 -2,1.5 0,0.833333 0.888889,1.5 2,1.5 1.111111,0 2,-0.666667 2,-1.5 z m 5.264432,0.902234 C 61.218745,57.447921 59.914713,55 58.452028,55 56.776856,55 55.683964,56.679625 56.5,58 c 0.683004,1.105123 2.831928,1.334739 3.764432,0.402234 z M 99,56.440983 c 0,-1.469972 -2.134889,-1.972761 -3.324657,-0.782992 -0.904332,0.904331 1.336814,3.45253 2.437964,2.771982 C 98.600988,58.128569 99,57.233524 99,56.440983 z M 29,56.166667 C 29,55.158333 28.703904,54.037238 28.342009,53.675343 27.281218,52.614552 25.06744,55.012171 25.66643,56.573113 26.458576,58.637413 29,58.327549 29,56.166667 z M 65.809629,56.25 C 65.624269,55.2875 64.809935,54.5 64,54.5 c -0.809935,0 -1.624269,0.7875 -1.809629,1.75 C 61.953909,57.477849 62.493851,58 64,58 c 1.506149,0 2.046091,-0.522151 1.809629,-1.75 z m 27.744222,0.662868 c 1.030521,-1.667419 -1.287209,-3.57951 -2.666719,-2.2 C 89.733208,55.866792 90.455411,58 92,58 c 0.485081,0 1.184314,-0.48921 1.553851,-1.087132 z M 104.75,56.75 c -0.22917,-0.6875 -1.01667,-1.25 -1.75,-1.25 -0.73333,0 -1.52083,0.5625 -1.75,1.25 -0.24786,0.74359 0.46111,1.25 1.75,1.25 1.28889,0 1.99786,-0.50641 1.75,-1.25 z m 5.07332,-1.082866 C 110.0147,54.68037 109.50456,54 108.57332,54 107.64569,54 107,54.854996 107,56.083333 c 0,2.437045 2.33677,2.09257 2.82332,-0.416199 z M 44,55 c 0,-1.1 -0.648442,-2 -1.440983,-2 -2.087727,0 -3.050565,2.074559 -1.437132,3.096491 C 43.262232,57.452164 44,57.171093 44,55 z M 70.823324,54.667134 C 71.041329,53.54305 70.471286,53 69.073324,53 67.932996,53 67,53.6 67,54.333333 c 0,3.062743 3.239225,3.345548 3.823324,0.333801 z m 59.703746,1.289061 c 0.93716,-1.51635 -1.60294,-4.280323 -2.81747,-3.065794 C 126.58809,54.01191 127.46061,57 128.9096,57 c 0.5348,0 1.26266,-0.469712 1.61747,-1.043805 z M 88.504365,54.992937 c 0.75928,-1.22854 -1.992822,-2.427122 -3.47279,-1.512452 -0.585309,0.361742 -0.805301,1.076617 -0.48887,1.588613 0.76324,1.234949 3.180065,1.188486 3.96166,-0.07616 z M 115,53.440983 C 115,51.790908 113.41956,51.512129 112.5,53 c -0.81551,1.319515 0.38021,3.192069 1.5691,2.457295 C 114.58109,55.140864 115,54.233524 115,53.440983 z M 39.553851,52.912868 c 0.971779,-1.572373 -1.128999,-3.289877 -3.099258,-2.533817 -1.36401,0.52342 -1.447633,0.924409 -0.444772,2.132782 1.463252,1.763111 2.621236,1.894146 3.54403,0.401035 z M 75.809629,52.25 C 75.624269,51.2875 74.809935,50.5 74,50.5 c -0.809935,0 -1.624269,0.7875 -1.809629,1.75 C 71.953909,53.477849 72.493851,54 74,54 c 1.506149,0 2.046091,-0.522151 1.809629,-1.75 z M 83,52.559017 c 0,-0.792541 -0.48921,-1.743331 -1.087132,-2.112868 -1.412022,-0.872677 -3.339396,1.054697 -2.466719,2.466719 C 80.426364,54.498889 83,54.242637 83,52.559017 z m 36.55385,-0.646149 c 1.03052,-1.667419 -1.28721,-3.57951 -2.66672,-2.2 C 115.73321,50.866792 116.45541,53 118,53 c 0.48508,0 1.18431,-0.48921 1.55385,-1.087132 z M 29.527073,50.956195 c 0.79798,-1.291159 -1.422518,-4.138848 -2.64038,-3.386168 C 26.399012,47.871431 26,48.991476 26,50.059017 c 0,2.049514 2.432482,2.668263 3.527073,0.897178 z M 129.77066,49.188026 c 0.21761,-0.652836 -0.33617,-1.467803 -1.23063,-1.811039 -2.08606,-0.800497 -2.75571,-0.102621 -1.94036,2.022149 0.70046,1.82537 2.53282,1.70338 3.17099,-0.21111 z M 35.375,49.202254 c 0.271169,-0.43876 0.118142,-1.404333 -0.340058,-2.145717 -1.125414,-1.820957 -4.168114,-0.567153 -3.411094,1.405609 0.624842,1.628312 2.922088,2.081562 3.751152,0.740108 z m 88.17885,-1.289386 c 1.03052,-1.667419 -1.28721,-3.57951 -2.66672,-2.2 C 119.73321,46.866792 120.45541,49 122,49 c 0.48508,0 1.18431,-0.48921 1.55385,-1.087132 z M 30.664167,44.432783 c 0.83346,-2.171962 -1.282435,-4.214515 -2.79695,-2.7 C 26.587184,43.012816 27.380166,46 29,46 c 0.584523,0 1.333399,-0.705248 1.664167,-1.567217 z M 126.6,41.4 c -0.48405,-1.261407 -0.96557,-1.434435 -1.76557,-0.634435 -0.605,0.605 -0.80049,1.880496 -0.43443,2.834435 0.48405,1.261407 0.96557,1.434435 1.76557,0.634435 0.605,-0.605 0.80049,-1.880496 0.43443,-2.834435 z"
         style="fill:#e71123"
         sodipodi:nodetypes="sssssssscssscsssssssssssssssssssssssssssssssssssssssssssssssssssssssssssssssssssssssssssssssssssssssssssssssssssssssssssssssssssssssssssssssscsscsssssssscssccssssssssssssscssccssssssssssssssssssssssssssssssssssssssssssssssscssccssssssssssssssssssssssssssssssssssssssssssssss" />
      <path
         inkscape:connector-curvature="0"
         id="path3892"
         d="m 64.62984,116.19616 c -2.21186,-0.45762 -3.88983,-4.19491 -3.88983,-4.19491 0,0 -1.37288,-3.50848 0,-5.64407 1.37288,-2.13559 17.237291,-2.51695 17.237291,-2.51695 l 20.440678,1.29661 c 0,0 4.271191,1.52542 2.669491,3.35593 -1.601694,1.83051 -25.627118,5.72034 -25.627118,5.72034 z"
         style="fill:#ffffff;stroke:#ffffff;stroke-width:1px;stroke-linecap:butt;stroke-linejoin:miter;stroke-opacity:1" />
      <path
         sodipodi:nodetypes="sscssssscssscsssssscsssssssssccssssssscsscsssscssssssssssssssscssscsssssscc"
         inkscape:connector-curvature="0"
         id="path3073"
         d="m 42.122792,116.69839 c -1.857464,-2.30912 -4.332464,-6.22339 -5.5,-8.69839 -1.167535,-2.475 -2.589293,-4.80614 -3.159462,-5.1803 -0.570168,-0.37417 -1.144328,-3.406389 -1.275911,-6.738265 -0.19293,-4.885289 -0.840883,-6.949421 -3.347301,-10.663228 -6.92767,-10.264859 -8.757724,-25.675262 -4.793671,-40.366243 3.084676,-11.431966 2.972448,-11.376036 9.436064,-4.702573 12.819926,13.236138 26.873692,14.247098 39.419918,2.835678 l 4.40243,-4.004229 3.09757,3.270156 c 7.674743,8.102351 20.164941,10.477723 29.897131,5.685805 C 116.56677,45.050965 125,36.850679 125,33.842418 l 0,-2.28743 1.59667,2.279567 c 2.7506,3.927036 6.23597,13.945714 7.52937,21.643169 1.81659,10.811127 -1.02052,23.881897 -6.62508,30.522276 -0.69631,0.825 -1.46933,5.1 -1.71782,9.5 -0.46719,8.27257 -2.39202,13.48004 -7.42743,20.09439 -1.29564,1.70192 -2.35571,3.61442 -2.35571,4.25 0,1.48875 -1.67235,1.49477 -2.59041,0.009 -0.38964,-0.63046 -0.61349,-4.39815 -0.49744,-8.37265 C 113.2902,98.5338 109.82492,97 80.195423,97 c -30.325486,0 -34.929002,1.835526 -33.858122,13.5 0.302963,3.3 0.853494,7.0125 1.223402,8.25 1.097306,3.67096 -1.676429,2.62448 -5.437911,-2.05161 z M 45.33912,99.605189 C 47.351356,96.53413 51.25903,95.400767 65.036411,93.892279 77.366046,92.542305 101.5103,93.27852 108,95.202339 c 3.78861,1.123105 4.85569,2.036479 6.75,5.777711 1.2375,2.44405 2.26001,6.03588 2.27224,7.98184 l 0.0222,3.53811 1.9187,-2.49743 c 2.97157,-3.86787 5.34443,-12.581182 4.78289,-17.563137 -0.41178,-3.653285 -0.0376,-5.019313 2.236,-8.163446 7.14628,-9.88243 8.54954,-24.284454 3.71499,-38.12788 -1.41213,-4.043541 -2.74134,-7.525727 -2.9538,-7.738191 -0.21246,-0.212463 -2.75509,1.896921 -5.65029,4.68752 -12.69453,12.235902 -27.041546,13.239475 -40.206728,2.812458 l -3.90966,-3.096508 -3.687481,3.237651 C 61.410222,56.480822 45.956116,55.241281 33.364499,42.84877 l -5.135501,-5.054296 -1.544088,4.852763 c -5.215039,16.389835 -3.644314,31.206427 4.500121,42.449494 2.513768,3.470155 3.152006,5.385162 3.284559,9.855177 0.161598,5.449462 1.617511,9.355452 5.883246,15.783822 l 2.147164,3.23573 0.591794,-5.9198 c 0.325487,-3.2559 1.336784,-7.05681 2.247326,-8.446471 z M 52.001508,86.958238 C 45.72961,85.649359 42.777208,83.136384 40.79377,77.418632 39.072143,72.455613 38.361873,61.979702 39.75,62.023857 c 0.4125,0.01312 2.55,0.465978 4.75,1.00635 2.2,0.540372 9.914401,0.982365 17.143114,0.982208 15.249688,-3.31e-4 14.944288,-0.242782 13.405665,10.642489 -0.904124,6.396389 -3.031839,10.740882 -5.776087,11.793949 -3.026237,1.161276 -12.770347,1.448662 -17.271184,0.509385 z m 8.658696,29.645922 c -2.295152,-3.50285 -2.903305,-6.83456 -1.784625,-9.77691 0.781517,-2.05554 2.091703,-2.86029 6.305459,-3.87298 5.649911,-1.35783 26.445885,-1.46568 33.318962,-0.17278 3.95994,0.7449 4,0.79734 4,5.23547 l 0,4.48304 -5,0.24396 c -8.930727,0.43574 -20.380761,2.32274 -26.160859,4.31138 -7.304837,2.51324 -8.77734,2.45102 -10.678937,-0.45118 z m 14.924763,-4.55944 c 3.896733,-1.03316 10.759233,-2.19899 15.25,-2.59073 8.373807,-0.73045 10.272983,-1.84086 5.415033,-3.16605 -3.623778,-0.98852 -27.980528,-1.00313 -31.5,-0.0189 -3.313717,0.9267 -3.610999,3.27253 -0.517247,4.08157 1.769543,0.46274 1.977005,0.83962 1,1.81663 -1.942779,1.94278 -1.90066,2.6696 0.55962,1.95335 1.2375,-0.36026 5.895862,-1.04271 9.792594,-2.07588 z"
         style="fill:#1f1510" />
      <path
         transform="translate(174.30781,-5.6089148)"
         inkscape:connector-curvature="0"
         id="path3093"
         d="m -105.74024,86.459544 c -0.51548,-0.142946 -0.57561,-1.11075 -0.2248,-3.618271 0.23957,-1.712357 0.28799,-2.300237 0.28789,-3.49571 -1.6e-4,-1.861293 -0.21419,-2.986553 -0.76081,-3.999962 -0.24454,-0.453347 -0.31963,-0.691965 -0.29237,-0.928999 0.0467,-0.406018 0.23563,-0.601985 0.68899,-0.714658 0.36671,-0.09114 1.99636,-0.09296 2.40735,-0.0027 0.673,0.147809 0.99232,0.487767 1.14219,1.21604 0.13073,0.635252 0.10968,2.843465 -0.0427,4.474719 -0.24469,2.620226 -0.58641,4.246205 -1.11404,5.300848 -0.31316,0.625947 -0.87968,1.321191 -1.28632,1.578587 -0.26718,0.169118 -0.59882,0.247398 -0.80542,0.190107 l 0,0 z"
         style="fill:#ffff00;fill-opacity:1;stroke:#ffff00;stroke-width:0.03813559;stroke-opacity:1" />
      <path
         transform="translate(174.30781,-5.6089148)"
         inkscape:connector-curvature="0"
         id="path3095"
         d="m -122.51591,89.423137 c -0.5595,-0.106802 -1.42635,-0.417788 -2.88242,-1.034077 -1.38831,-0.587609 -2.07642,-1.023275 -2.85699,-1.808865 -1.62097,-1.631382 -2.79975,-4.248555 -3.52191,-7.81943 -0.58123,-2.874041 -0.70846,-5.797541 -0.29318,-6.736364 l 0.0735,-0.166178 0.56465,0.001 c 0.31055,5.73e-4 0.96792,0.02527 1.46083,0.05489 0.80813,0.04856 1.10038,0.08791 2.97457,0.400589 3.92425,0.654686 5.96182,1.040767 6.66076,1.26209 0.79232,0.250889 1.21825,0.536911 1.3116,0.880757 0.0922,0.339659 0.0294,0.743499 -0.24802,1.595546 -0.49981,1.534876 -0.5733,1.930196 -0.57067,3.069915 0.003,1.199229 0.0962,1.687704 0.60605,3.169033 l 0.28467,0.827059 -0.0759,0.518903 c -0.13472,0.920823 -0.36003,1.697361 -0.59076,2.036057 -0.0603,0.08852 -0.24848,0.241968 -0.48694,0.397083 -0.42539,0.276703 -0.64502,0.488577 -0.84774,0.817792 -0.24613,0.39971 -0.311,0.641198 -0.36103,1.343936 -0.0425,0.596622 -0.0767,0.757516 -0.20006,0.940578 -0.17592,0.261036 -0.50777,0.343798 -1.00101,0.249643 l 0,0 z"
         style="fill:#ffff00;fill-opacity:1;stroke:#ffff00;stroke-width:0.03813559;stroke-opacity:1" />
      <path
         transform="translate(174.30781,-5.6089148)"
         inkscape:connector-curvature="0"
         id="path3097"
         d="m -115.15575,89.56527 c -1.79358,-0.02865 -3.07523,-0.180039 -3.38369,-0.399677 -0.30251,-0.215409 0.0719,-0.571978 0.84768,-0.807203 0.87705,-0.265944 2.21698,-0.468869 4.11864,-0.623744 1.04992,-0.08551 4.82448,-0.0977 5.75848,-0.01861 1.27211,0.107731 1.8545,0.259362 1.82331,0.474715 -0.0167,0.115493 -0.58701,0.494823 -0.96526,0.642061 -0.65243,0.25396 -2.04556,0.481794 -3.81356,0.623672 -0.80764,0.06481 -2.79611,0.138148 -3.41314,0.125881 -0.22023,-0.0044 -0.65784,-0.01207 -0.97246,-0.0171 z"
         style="fill:#ffff00;fill-opacity:1;stroke:#ffff00;stroke-width:0.03813559;stroke-opacity:1" />
      <g
         id="g3921"
         transform="matrix(-0.98447936,0,0,1,273.68347,-4.8602157)">
        <path
           sodipodi:nodetypes="ssssssss"
           inkscape:connector-curvature="0"
           id="path3913"
           d="m 170.55972,91.640155 c -6.27189,-1.308879 -9.2243,-3.821854 -11.20773,-9.539606 -1.72163,-4.963019 -2.4319,-15.43893 -1.04377,-15.394775 0.4125,0.01312 2.55,0.465978 4.75,1.00635 2.2,0.540372 9.9144,0.982365 17.14311,0.982208 15.24969,-3.31e-4 14.94429,-0.242782 13.40567,10.642489 -0.90413,6.396389 -3.03184,10.740882 -5.77609,11.793949 -3.02624,1.161276 -12.77035,1.448662 -17.27119,0.509385 z"
           style="fill:#1f1510" />
        <path
           inkscape:connector-curvature="0"
           id="path3915"
           d="m 187.12579,85.532546 c -0.51548,-0.142946 -0.57561,-1.11075 -0.2248,-3.618271 0.23957,-1.712357 0.28799,-2.300237 0.28789,-3.49571 -1.6e-4,-1.861293 -0.21419,-2.986553 -0.76081,-3.999962 -0.24454,-0.453347 -0.31963,-0.691965 -0.29237,-0.928999 0.0467,-0.406018 0.23563,-0.601985 0.68899,-0.714658 0.36671,-0.09114 1.99636,-0.09296 2.40735,-0.0027 0.673,0.147809 0.99232,0.487767 1.14219,1.21604 0.13073,0.635252 0.10968,2.843465 -0.0427,4.474719 -0.24469,2.620226 -0.58641,4.246205 -1.11404,5.300848 -0.31316,0.625947 -0.87968,1.321191 -1.28632,1.578587 -0.26718,0.169118 -0.59882,0.247398 -0.80542,0.190107 l 0,0 z"
           style="fill:#ffff00;fill-opacity:1;stroke:#ffff00;stroke-width:0.03813559;stroke-opacity:1" />
        <path
           inkscape:connector-curvature="0"
           id="path3917"
           d="m 170.35012,88.496139 c -0.5595,-0.106802 -1.42635,-0.417788 -2.88242,-1.034077 -1.38831,-0.587609 -2.07642,-1.023275 -2.85699,-1.808865 -1.62097,-1.631382 -2.79975,-4.248555 -3.52191,-7.81943 -0.58123,-2.874041 -0.70846,-5.797541 -0.29318,-6.736364 l 0.0735,-0.166178 0.56465,0.001 c 0.31055,5.73e-4 0.96792,0.02527 1.46083,0.05489 0.80813,0.04856 1.10038,0.08791 2.97457,0.400589 3.92425,0.654686 5.96182,1.040767 6.66076,1.26209 0.79232,0.250889 1.21825,0.536911 1.3116,0.880757 0.0922,0.339659 0.0294,0.743499 -0.24802,1.595546 -0.49981,1.534876 -0.5733,1.930196 -0.57067,3.069915 0.003,1.199229 0.0962,1.687704 0.60605,3.169033 l 0.28467,0.827059 -0.0759,0.518903 c -0.13472,0.920823 -0.36003,1.697361 -0.59076,2.036057 -0.0603,0.08852 -0.24848,0.241968 -0.48694,0.397083 -0.42539,0.276703 -0.64502,0.488577 -0.84774,0.817792 -0.24613,0.39971 -0.311,0.641198 -0.36103,1.343936 -0.0425,0.596622 -0.0767,0.757516 -0.20006,0.940578 -0.17592,0.261036 -0.50777,0.343798 -1.00101,0.249643 l 0,0 z"
           style="fill:#ffff00;fill-opacity:1;stroke:#ffff00;stroke-width:0.03813559;stroke-opacity:1" />
        <path
           inkscape:connector-curvature="0"
           id="path3919"
           d="m 177.71028,88.638272 c -1.79358,-0.02865 -3.07523,-0.180039 -3.38369,-0.399677 -0.30251,-0.215409 0.0719,-0.571978 0.84768,-0.807203 0.87705,-0.265944 2.21698,-0.468869 4.11864,-0.623744 1.04992,-0.08551 4.82448,-0.0977 5.75848,-0.01861 1.27211,0.107731 1.8545,0.259362 1.82331,0.474715 -0.0167,0.115493 -0.58701,0.494823 -0.96526,0.642061 -0.65243,0.25396 -2.04556,0.481794 -3.81356,0.623672 -0.80764,0.06481 -2.79611,0.138148 -3.41314,0.125881 -0.22023,-0.0044 -0.65784,-0.01207 -0.97246,-0.0171 z"
           style="fill:#ffff00;fill-opacity:1;stroke:#ffff00;stroke-width:0.03813559;stroke-opacity:1" />
      </g>
      <path
         sodipodi:type="arc"
         style="fill:#ffffff;fill-opacity:1;stroke:#ffffff;stroke-opacity:1"
         id="path3929"
         sodipodi:cx="1204.6223"
         sodipodi:cy="1076.0741"
         sodipodi:rx="41.419678"
         sodipodi:ry="41.419678"
         d="m 1246.042,1076.0741 a 41.419678,41.419678 0 1 1 -82.8394,0 41.419678,41.419678 0 1 1 82.8394,0 z"
         transform="matrix(0.06824914,0,0,0.06824914,13.494229,-0.23904626)" />
      <path
         transform="matrix(0.06824914,0,0,0.06824914,-19.640856,-0.5594284)"
         d="m 1246.042,1076.0741 a 41.419678,41.419678 0 1 1 -82.8394,0 41.419678,41.419678 0 1 1 82.8394,0 z"
         sodipodi:ry="41.419678"
         sodipodi:rx="41.419678"
         sodipodi:cy="1076.0741"
         sodipodi:cx="1204.6223"
         id="path3931"
         style="fill:#ffffff;fill-opacity:1;stroke:#ffffff;stroke-opacity:1"
         sodipodi:type="arc" />
    </g>
  </g>
</svg>
