<?xml version="1.0" encoding="UTF-8" standalone="no"?>
<!-- Created with Inkscape (http://www.inkscape.org/) -->

<svg
   xmlns:dc="http://purl.org/dc/elements/1.1/"
   xmlns:cc="http://creativecommons.org/ns#"
   xmlns:rdf="http://www.w3.org/1999/02/22-rdf-syntax-ns#"
   xmlns:svg="http://www.w3.org/2000/svg"
   xmlns="http://www.w3.org/2000/svg"
   xmlns:sodipodi="http://sodipodi.sourceforge.net/DTD/sodipodi-0.dtd"
   xmlns:inkscape="http://www.inkscape.org/namespaces/inkscape"
   width="1024"
   height="1024"
   id="svg2"
   version="1.1"
   inkscape:version="0.48.4 r9939"
   sodipodi:docname="LEGO Friends Torso 1.svg">
  <defs
     id="defs4" />
  <sodipodi:namedview
     id="base"
     pagecolor="#ffffff"
     bordercolor="#666666"
     borderopacity="1.0"
     inkscape:pageopacity="0.0"
     inkscape:pageshadow="2"
     inkscape:zoom="0.35355339"
     inkscape:cx="417.51537"
     inkscape:cy="510.94251"
     inkscape:document-units="px"
     inkscape:current-layer="layer1"
     showgrid="false"
     inkscape:window-width="1366"
     inkscape:window-height="705"
     inkscape:window-x="-8"
     inkscape:window-y="-8"
     inkscape:window-maximized="1" />
  <metadata
     id="metadata7">
    <rdf:RDF>
      <cc:Work
         rdf:about="">
        <dc:format>image/svg+xml</dc:format>
        <dc:type
           rdf:resource="http://purl.org/dc/dcmitype/StillImage" />
        <dc:title />
      </cc:Work>
    </rdf:RDF>
  </metadata>
  <g
     inkscape:label="Layer 1"
     inkscape:groupmode="layer"
     id="layer1"
     transform="translate(0,-28.362183)">
    <g
       id="g3074"
       transform="matrix(5.6824679,0,0,5.6824679,-1602.3453,-2474.0084)">
      <path
         sodipodi:nodetypes="cssssscsscsssssssssssssssssssssssc"
         inkscape:connector-curvature="0"
         id="path2996"
         d="m 348.03572,469.68361 c 0,0 6.25,-12.5 10.71428,-14.10714 4.46429,-1.60715 8.92857,-0.35715 6.60714,4.46428 -2.32142,4.82143 -10,6.07143 -8.03571,9.10715 1.96429,3.03571 10.35714,5.35714 15.53571,1.42857 5.17858,-3.92857 4.82143,-17.5 -1.25,-20.17857 -6.07142,-2.67858 -16.96428,-4.28572 -30.89285,13.57142 0,0 -4.28572,5.71429 -5,-2.14285 -0.71429,-7.85715 -5.35715,-3.21429 -6.78572,0 -1.42857,3.21428 -6.60714,8.39285 -1.42857,30 0,0 3.21429,5.89285 -6.60714,-1.42857 -9.82143,-7.32143 -17.32143,-0.53572 -15.89286,1.78571 1.42857,2.32143 16.07143,8.03571 21.78571,12.14286 5.71429,4.10714 19.10715,16.25 14.28572,20.17857 -4.82143,3.92857 -11.42857,0.89286 -15.53572,-1.78572 -4.10714,-2.67857 -21.60714,0.17858 -27.32142,7.5 -5.71429,7.32143 -16.01212,31.24053 -0.89286,50.35715 11.69542,14.78756 25.62537,26.70772 41.96429,29.82143 8.39427,1.5997 20.89285,5.35714 31.07142,-7.32143 10.17858,-12.67857 10.17858,-17.32143 13.57143,-15.71429 3.39286,1.60714 9.46429,16.60714 17.14286,14.82143 7.67857,-1.78571 31.60714,-10.89286 32.5,-24.28571 0.89286,-13.39286 -4.64286,-20.17858 -15.89286,-19.64286 -11.25,0.53571 -7.85714,4.64286 -10.71428,2.5 -2.85715,-2.14286 -2.67857,-3.39286 1.78571,-5.53572 4.46429,-2.14285 17.14286,-7.85714 11.96429,-22.67857 -5.17857,-14.82143 -17.32143,-5.35714 -18.21429,-1.60714 -0.89286,3.75 2.5,12.14286 6.07143,10.17857 3.57143,-1.96428 0.17857,-5.71428 2.85714,-6.07143 2.67857,-0.35714 7.5,0.71429 2.14286,8.92857 -5.35714,8.21429 -14.46429,-2.5 -16.07143,-9.10714 -1.60714,-6.60714 -9.64286,-26.25 -30,-24.82143 -20.35714,1.42857 -13.03571,7.85715 -17.32143,1.25 -4.28571,-6.60714 -8.39285,-23.57143 -2.14285,-41.60714 z"
         style="fill:#c87080;fill-opacity:1;stroke:#c87080;stroke-width:1px;stroke-linecap:butt;stroke-linejoin:miter;stroke-opacity:1" />
      <path
         d="m 385.17857,493.96933 c 0,4.24076 -3.43781,7.67857 -7.67857,7.67857 -4.24076,0 -7.67857,-3.43781 -7.67857,-7.67857 0,-4.24076 3.43781,-7.67857 7.67857,-7.67857 4.24076,0 7.67857,3.43781 7.67857,7.67857 z"
         sodipodi:ry="7.6785712"
         sodipodi:rx="7.6785712"
         sodipodi:cy="493.96933"
         sodipodi:cx="377.5"
         id="path2998"
         style="fill:#c87080;fill-opacity:1;stroke:#c87080;stroke-opacity:1"
         sodipodi:type="arc" />
      <path
         d="m 391.78573,478.07648 c 0,2.46555 -1.99873,4.46428 -4.46429,4.46428 -2.46556,0 -4.46428,-1.99873 -4.46428,-4.46428 0,-2.46556 1.99872,-4.46429 4.46428,-4.46429 2.46556,0 4.46429,1.99873 4.46429,4.46429 z"
         sodipodi:ry="4.4642859"
         sodipodi:rx="4.4642859"
         sodipodi:cy="478.07648"
         sodipodi:cx="387.32144"
         id="path3000"
         style="fill:#c87080;fill-opacity:1;stroke:#c87080;stroke-opacity:1"
         sodipodi:type="arc" />
      <path
         d="m 401.25,468.61218 c 0,2.07107 -1.67893,3.75 -3.75,3.75 -2.07107,0 -3.75,-1.67893 -3.75,-3.75 0,-2.07107 1.67893,-3.75 3.75,-3.75 2.07107,0 3.75,1.67893 3.75,3.75 z"
         sodipodi:ry="3.75"
         sodipodi:rx="3.75"
         sodipodi:cy="468.61218"
         sodipodi:cx="397.5"
         id="path3002"
         style="fill:#c87080;fill-opacity:1;stroke:#c87080;stroke-opacity:1"
         sodipodi:type="arc" />
      <path
         inkscape:connector-curvature="0"
         id="path3004"
         d="m 367.21875,528.96875 c -7.97456,0.25759 -17.02411,4.53673 -24.1875,14.46875 0,0 -38.20982,-18.04464 -40.53125,13.5625 -2.32143,31.60714 47.33036,43.02678 50.1875,43.5625 2.85715,0.53571 6.13799,-1.66304 8.5625,-4.09375 14.67222,-14.70975 26.28126,-28.90228 25.15625,-52.125 -0.45596,-9.41209 -8.9345,-15.70619 -19.1875,-15.375 z m -5.9375,21.78125 c 4.81452,-0.0595 8.60136,2.45395 8.8125,6.8125 0.58609,12.09822 -6.98129,19.61799 -14.625,27.28125 -1.26309,1.26631 -2.98028,2.40408 -4.46875,2.125 -1.48848,-0.27909 -29.74063,-6.47129 -28.53125,-22.9375 1.20938,-16.46621 23.90625,-4.6875 23.90625,-4.6875 4.265,-5.91341 10.09173,-8.53427 14.90625,-8.59375 z"
         style="fill:#ffc0cb;fill-opacity:1;stroke:#ffc0cb;stroke-width:1px;stroke-linecap:butt;stroke-linejoin:miter;stroke-opacity:1" />
      <path
         sodipodi:nodetypes="ssssccssscssss"
         inkscape:connector-curvature="0"
         id="path3020"
         d="m 395.5,559.4375 c -0.58614,0.0122 -1.10509,0.22157 -1.53125,0.71875 -2.27284,2.65165 -9.34248,16.04474 -9.46875,17.8125 -0.12627,1.76777 6.937,12.90768 11.84375,15.90625 4.54569,2.77791 7.45305,2.84427 12.66071,1.10714 4.46429,-2.14285 31.41353,-21.67709 11.58929,-30.26339 -5.00072,-1.6415 -12.38464,2.1453 -15.90625,0.125 -2.86983,-1.64638 -6.64755,-5.45926 -9.1875,-5.40625 z m 1.9375,12.65625 c 2.85881,-0.12429 6.125,3.96875 6.125,3.96875 9.84899,-3.15673 10.73017,-0.98319 9.59375,3.5625 -1.13642,4.54569 -9.97842,7.69384 -12.125,7.0625 -2.14657,-0.63135 -9.09169,-7.57297 -6.1875,-12.75 0.72605,-1.29426 1.64081,-1.80232 2.59375,-1.84375 z"
         style="fill:#ffc0cb;fill-opacity:1;stroke:#ffc0cb;stroke-width:1px;stroke-linecap:butt;stroke-linejoin:miter;stroke-opacity:1" />
    </g>
  </g>
</svg>
