<?xml version="1.0" encoding="UTF-8" standalone="no"?>
<!-- Created with Inkscape (http://www.inkscape.org/) -->

<svg
   xmlns:dc="http://purl.org/dc/elements/1.1/"
   xmlns:cc="http://creativecommons.org/ns#"
   xmlns:rdf="http://www.w3.org/1999/02/22-rdf-syntax-ns#"
   xmlns:svg="http://www.w3.org/2000/svg"
   xmlns="http://www.w3.org/2000/svg"
   xmlns:sodipodi="http://sodipodi.sourceforge.net/DTD/sodipodi-0.dtd"
   xmlns:inkscape="http://www.inkscape.org/namespaces/inkscape"
   id="svg2985"
   version="1.1"
   inkscape:version="0.48.3.1 r9886"
   width="1920"
   height="1920"
   sodipodi:docname="Ann (Monster Fighters) Face Back.svg"
   inkscape:export-filename="G:\LEGO Textures Scans\Complete\Ann (Monster Fighters)\Ann (Monster Fighters) Face Back.png"
   inkscape:export-xdpi="101.94296"
   inkscape:export-ydpi="101.94296">
  <metadata
     id="metadata2991">
    <rdf:RDF>
      <cc:Work
         rdf:about="">
        <dc:format>image/svg+xml</dc:format>
        <dc:type
           rdf:resource="http://purl.org/dc/dcmitype/StillImage" />
        <dc:title></dc:title>
      </cc:Work>
    </rdf:RDF>
  </metadata>
  <defs
     id="defs2989" />
  <sodipodi:namedview
     pagecolor="#ffffff"
     bordercolor="#666666"
     borderopacity="1"
     objecttolerance="10"
     gridtolerance="10"
     guidetolerance="10"
     inkscape:pageopacity="0"
     inkscape:pageshadow="2"
     inkscape:window-width="1920"
     inkscape:window-height="1018"
     id="namedview2987"
     showgrid="false"
     inkscape:zoom="0.31018066"
     inkscape:cx="938.4158"
     inkscape:cy="1123.0762"
     inkscape:window-x="-8"
     inkscape:window-y="-8"
     inkscape:window-maximized="1"
     inkscape:current-layer="svg2985" />
  <g
     id="g3027"
     transform="matrix(3.8058997,0,0,3.8058997,40.365812,-154.56977)">
    <g
       transform="translate(-62.657341,79.307362)"
       id="g3074">
      <path
         sodipodi:nodetypes="ccccccccsccccccsssssssssscsccssssssscsssscscsssssssssssscccsssssssscc"
         inkscape:connector-curvature="0"
         id="path3078"
         d="m 298.97226,455.48285 c -22.02975,-2.75811 -40.98495,-9.56645 -63.70788,-17.6469 -26.71611,-3.38456 -48.58461,-0.22368 -31.49821,-20.58965 3.71111,-4.49739 6.62653,-7.24488 7.7128,-7.26854 0.56157,-0.0122 2.14603,-0.90222 3.52103,-1.97776 14.17676,-8.45736 26.24966,-12.32509 40.43428,-18.90107 24.67155,-11.53602 33.1666,-13.71504 54.56572,-13.99633 15.3624,1.48577 22.87034,-2.00176 36.42482,-6.48802 11.39911,-3.84324 20.74681,-4.03513 28.07518,-0.57633 1.1,0.51917 7.625,2.78435 14.5,5.03373 9.13531,4.61262 21.3649,7.46505 29.40249,12.45006 2.79724,2.55501 5.87941,4.47796 7.17742,4.47796 16.08994,14.84925 26.03613,6.43824 16.44296,25.90999 -17.89661,21.19219 -28.91941,32.692 -54.78351,35.21862 -30.67779,5.72807 -69.30671,7.02703 -88.2671,4.35424 z M 492,428.10607 c 0,-0.55658 0.4963,-2.10122 1.10288,-3.43252 0.8343,-1.83109 0.78554,-2.99931 -0.20023,-4.79706 -0.71672,-1.30707 -1.6341,-4.62649 -2.03863,-7.37649 -3.20164,-21.76469 -5.89937,-32.31703 -8.97304,-35.09866 -1.0918,-0.98807 -2.94678,-3.50758 -4.12218,-5.59892 C 476.59341,369.71109 475.07791,368 474.40103,368 c -1.33751,0 -7.15525,-7.5614 -9.77164,-12.70034 -0.89616,-1.76019 -1.62939,-4.34769 -1.62939,-5.75 0,-2.50299 -1.07201,-3.8506 -5.93375,-7.45921 l -2.43375,-1.80645 1.82351,-9.68755 c 2.08359,-11.06922 1.45649,-14.03379 -3.32086,-15.69918 -1.01699,-28.2251 12.05985,-17.75699 19.23839,-6.44953 0.89457,1.36529 1.6265,3.30983 1.6265,4.32119 0,1.01136 1.16612,4.17894 2.59138,7.03907 2.73181,5.48203 5.23372,6.95514 9.8463,5.79746 2.32546,-0.58366 2.41137,-0.43902 1.86607,3.14159 -0.31439,2.06437 -1.18789,5.27457 -1.94112,7.13377 -1.06863,2.63768 -1.12757,4.28546 -0.2683,7.5 1.47987,5.53618 2.54835,6.61964 6.52811,6.61964 1.85766,0 3.39742,0.3375 3.42169,0.75 0.0243,0.4125 0.16855,7.95 0.32063,16.75 0.21961,12.70814 0.62512,16.66445 1.97096,19.22952 1.19496,2.27751 1.50772,4.39733 1.06099,7.19104 -0.35071,2.19321 -0.11942,5.43611 0.51814,7.26503 1.56107,4.47809 -0.42755,16.69062 -3.65937,22.47299 C 493.79806,428.05538 492,429.93457 492,428.10607 z M 479.03781,139.46099 c -2.63082,2.71432 -3.15972,3.91715 -2.63743,5.99811 0.72644,2.89436 6.26822,6.84543 8.59962,6.13119 6.43293,-1.97078 6,-2.13215 6,2.23637 0,6.3643 5.43608,9.03636 11.79966,5.80003 1.48519,-0.75533 3.70898,-1.68443 4.94177,-2.06467 2.195,-0.67703 2.22834,-0.56618 1.60978,5.3519 -0.4405,4.21448 -0.24955,6.50365 0.63102,7.56466 1.82217,2.19558 7.62062,1.91857 10.01777,-0.47858 1.1,-1.1 2.9835,-2 4.18555,-2 1.20205,0 3.22705,-0.97844 4.5,-2.17431 1.96916,-1.84993 2.31445,-1.92399 2.31445,-0.49638 0,0.92287 -0.9,3.35714 -2,5.40951 -1.1,2.05236 -2,4.71446 -2,5.91578 -14.46853,-25.45948 -42.88134,-29.33197 -47.96219,-37.19361 z M 85.465744,164.04225 c 1.332801,5.90974 14.015089,-7.03301 20.873326,-9.2671 24.25086,-7.89976 51.30992,-11.53508 57.66093,-12.88352 4.72732,-1.0037 20.90488,0.46708 24.23643,2.20344 0.95504,0.49776 2.77884,0.90501 4.0529,0.90501 1.27405,0 5.96057,1.76225 10.41447,3.9161 6.45557,3.12184 10.16053,5.91062 18.26726,13.75 12.80872,12.38633 19.26823,20.47315 21.37669,26.76204 2.41466,7.20218 2.20448,8.24568 -1.81267,8.9993 -1.90571,0.35751 -3.70215,1.03386 -3.99208,1.50299 C 159.44794,164.84185 107.23582,178.49895 85.465744,164.04225 z"
         style="fill:#aa0000;stroke:#aa0000" />
      <path
         sodipodi:nodetypes="ccsssssssssssssscssscsssssssssccccsssssscsssssssssssssssssssssssssscc"
         inkscape:connector-curvature="0"
         id="path3080"
         d="m 490.45612,430.929 c -0.36405,-0.58905 -0.36664,-3.04004 -0.006,-5.44664 0.4581,-3.05481 0.19683,-5.26392 -0.86553,-7.31829 -0.83693,-1.61846 -1.47297,-4.22997 -1.41341,-5.80336 0.1251,-3.30481 -3.76352,-25.15762 -5.10416,-28.68377 -1.2458,-3.27671 -8.92887,-13.40985 -10.67577,-14.0802 -2.33881,-0.89749 -11.39122,-15.84314 -11.39137,-18.80731 -1.3e-4,-2.75718 -0.32208,-3.17539 -5.35322,-6.95398 -2.82603,-2.12247 -2.8464,-2.21414 -2.14814,-9.66562 0.38772,-4.13756 1.18134,-8.56841 1.7636,-9.84633 1.41861,-3.1135 -0.40242,-7.06371 -3.45587,-7.49654 -1.45112,-0.20571 -3.03688,-1.69104 -4.27595,-4.00516 -1.87996,-3.51104 -1.8926,-3.83936 -0.2782,-7.2248 0.98416,-2.0638 3.06183,-4.20669 4.96945,-5.12543 6.48614,-3.12382 10.30847,-5.37251 12.01587,-7.06899 1.52342,-1.51365 2.2469,-1.57397 5.86758,-0.48919 l 4.12991,1.23735 -0.47714,5.67463 c -0.36167,4.30123 -0.0271,6.51813 1.38242,9.15982 1.02276,1.91686 1.85956,4.07228 1.85956,4.78984 0,2.19084 3.96184,9.21715 5.27032,9.34692 0.67633,0.0671 3.02968,0.17957 5.22968,0.25 4.61526,0.14775 4.70215,0.55724 2.10646,9.92684 -1.98692,7.17212 -2.01569,9.67194 -0.14211,12.34685 0.99546,1.42122 2.21569,1.94702 3.81082,1.64209 4.40341,-0.84177 5.07628,1.53249 5.25278,18.53475 0.12915,12.44103 0.52749,16.55675 1.92958,19.93652 1.05731,2.54869 1.5585,5.5605 1.24806,7.5 -0.28532,1.78255 -0.0523,5.17363 0.5178,7.53574 1.22984,5.09547 -0.52668,18.10903 -2.98959,22.14909 -5.63198,9.23847 -7.14975,10.61921 -8.77768,7.98517 z m -98.55987,-288.12675 1.94317,-5.64792 -3.124,-4.0647 c -2.17979,-2.83615 -4.52239,-4.52916 -7.75066,-5.60141 C 377.03967,125.52029 371,120.08559 371,116.72212 371,113.59444 369.47917,113 361.47723,113 c -7.00394,0 -9.17427,-1.46125 -5.64792,-3.80266 1.541,-1.02319 2.17069,-2.45867 2.17069,-4.94848 l 0,-3.50719 -5.85039,0.66189 C 343.23717,102.41189 342.0082,99.243886 346.75598,87.5 351.30526,76.247107 351.83663,73.640576 350.74781,67.918919 350.18064,64.938513 349.1779,61.825 348.51949,61 c -1.64943,-2.066774 -4.81252,-12.716857 -4.11305,-13.848614 1.23945,-2.005476 -1.77309,-7.357753 -5.44656,-9.676715 -4.78408,-3.020056 -8.99772,-8.476642 -9.25916,-11.990443 -0.24502,-3.293174 3.78255,-6.734228 7.88206,-6.734228 2.15759,0 4.33666,1.669084 9.84409,7.540217 6.13384,6.538893 7.83113,7.758472 12.78108,9.183733 4.8577,1.3987 6.23593,2.362776 9.25246,6.472122 1.94949,2.655733 3.8269,6.341803 4.17203,8.191267 0.34512,1.849463 1.48955,4.262661 2.54318,5.362661 1.05362,1.1 2.45764,2.782572 3.12003,3.739048 0.66948,0.966713 3.46982,2.16399 6.30546,2.695879 C 390.7231,62.895673 398,66.473685 398,68.031388 c 0,0.45861 0.9,1.119486 2,1.468612 2.22579,0.706438 2.58909,4.25896 1.09376,10.695421 C 399.98795,84.955298 401.90572,88 406.00965,88 409.75413,88 414,89.947514 414,91.665045 c 0,0.739208 -2.025,4.241159 -4.5,7.782114 -4.8497,6.938411 -5.65933,10.862021 -2.58128,12.509341 1.05529,0.56478 2.21605,2.38061 2.57945,4.03518 0.45483,2.07081 1.25926,3.00832 2.58129,3.00832 1.05629,0 1.92054,-0.45 1.92054,-1 0,-0.55 0.44609,-1 0.9913,-1 1.4144,0 7.0087,6.04783 7.0087,7.57689 5.33452,14.77641 -1.60789,39.35539 -30.10375,18.22536 z"
         style="fill:#8d5d2d" />
      <path
         sodipodi:nodetypes="cscccccsccccsccccc"
         inkscape:connector-curvature="0"
         id="path3076"
         d="m 165,441.05663 c -5.91109,-0.11026 -9,-0.9922 -9,-2.56967 0,-2.19286 6.88687,-7.48482 9.7848,-7.51876 50.94608,-16.81861 110.75012,-22.16754 157.2152,-22.52135 25.17559,-1.86518 61.64048,-1.28034 85,-9.9076 7.54316,-0.0676 22.21263,-12.20014 24.5,-27.53925 -1.5461,-2.27234 -2.77118,-4.21236 -5.03082,-5.3133 -5.0069,-2.38763 -5.36936,-4.28955 -1.44226,-7.56803 3.13903,-2.62058 3.57492,-2.70633 9.38252,-1.84573 20.23452,9.44724 33.83999,26.61551 34.15518,47.51835 0,8.21338 -4.94542,6.3642 -6.39038,4.30122 -10.59124,-4.07973 -11.23257,-5.89989 -14.39773,-2.16411 -6.12962,7.93331 -16.95136,15.49148 -27.27651,19.0506 -15.3217,5.28145 -18.84251,6.25415 -23.68893,6.54459 -29.24247,5.78044 -57.725,5.66232 -87.31107,7.55109 -8.8,0.57059 -17.93155,1.00657 -20.29234,0.96885 -27.96126,2.23893 -53.71685,3.38265 -81.76284,3.44291 C 192.15753,443.26207 180.97213,444.8072 165,441.05663 z"
         style="fill:#130e09" />
    </g>
    <g
       transform="translate(786.5943,-11.683263)"
       id="g3020">
      <path
         transform="translate(-62.657341,79.307362)"
         sodipodi:nodetypes="ccccccccccsscccccccccsssssccccccccsscccccssccsccssssccccccccsscccccccccc"
         inkscape:connector-curvature="0"
         id="path3027"
         d="m -389.66696,291.45213 c -20.63812,-10.09918 -22.24968,-49.47877 -21.51805,-64.6758 l 0.3672,-9.98214 -7.2377,-0.2029 c -11.13946,-1.06164 -26.00002,-8.89873 -20.80805,-21.78792 1.85366,-5.8536 0.73253,-4.29198 4.56094,-12.06729 8.87844,-11.83657 21.65747,-16.29801 29.55819,-18.47761 44.94213,-20.47894 70.17865,-42.28712 115.88928,-44.33939 10.82112,0.0982 13.11345,0.96899 19.88787,3.88603 9.33679,4.11887 13.55755,7.00239 22.27882,14.62551 2.83379,2.72183 6.49571,6.86088 6.72915,12.13258 0.16505,3.72719 -0.97284,3.87954 -8.61117,1.15296 -3.1578,-1.12722 -4.51716,-3.12558 -6.00232,-4.30384 -3.31212,-3.38406 -7.82738,-4.51632 -12.02201,-5.85113 -9.18704,-2.30398 -35.55315,4.10786 -40.71608,9.19014 -3.5214,3.24824 -2.59899,3.27937 -0.51143,6.50243 7.75796,6.04773 7.09182,0.63945 12.07475,-0.10352 2.62195,4.03095 -0.23344,9.61448 3.95454,11.87317 8.56475,1.82068 13.23617,-5.80051 18.26278,-7.76494 2.94141,3.44858 -6.7496,16.37944 -1.38401,19.32461 7.78666,0.0615 13.64683,-7.07334 18.09645,-9.32461 2.38866,0 2.68784,3.78693 0.66114,8.36861 -1.07603,2.43255 -2.26065,5.80797 -2.63249,7.50093 -0.89928,4.0944 -8.66668,12.59977 -13.86266,15.17974 -2.29129,1.1377 -5.8837,2.99352 -7.98312,4.12406 -4.41397,2.37691 -9.53943,2.57565 -26.57302,1.03033 -6.26459,-0.56834 -12.00209,-0.79852 -12.75,-0.51151 -1.02934,2.73447 -0.56971,2.64182 0.64015,7.30784 6.31677,7.84669 3.44917,40.74121 -0.69402,50.30115 -7.42506,18.30803 -23.29525,32.82212 -43.13541,33.52906 -12.41035,0.70265 -19.81342,-3.26816 -26.51972,-6.63655 z m -221.90477,1.35961 c -5.867,-3.58549 -11.07414,-8.23965 -16.40128,-12.56711 -6.95712,-7.18787 -12.32298,-18.81142 -14.72746,-27.52942 -2.22691,-8.18151 -2.09754,-12.84689 -2.55753,-26.16658 -0.50673,-14.67288 -0.74944,-16.35287 -2.55981,-17.71848 -2.95871,-2.23182 -7.66987,-2.87932 -15.77203,-2.16769 -7.79202,0.81942 -23.22817,-6.32726 -27.63644,-10.71144 -6.99779,-5.34287 -13.04794,-18.77504 -15.68604,-29.33477 -0.61156,-3.26983 0.45007,-4.38619 4.15271,-2.3555 2.95726,1.65211 11.96284,8.02263 14.74406,8.2403 6.97257,0.51748 8.10227,-0.68602 6.45102,-6.87243 -0.59661,-2.2352 -0.76838,-4.88843 -0.38171,-5.89608 0.60748,-1.58306 1.4362,-1.10802 6.09717,3.49505 4.51699,4.10312 9.54251,7.89736 15.43195,5.73018 0.53499,-0.53499 0.71463,-3.15169 0.39921,-5.8149 -0.69842,-5.8971 -6.25142,-10.78884 6.05147,-4.33592 7.52737,2.74125 9.54624,6.9825 19.57801,6.78063 18.64339,1.92806 27.99747,0.91606 38.87889,3.7062 6.46044,1.65654 11.45596,3.06395 20.28813,8.75313 6.01591,3.87511 17.21869,12.14129 23.21505,18.28902 2.56462,2.62936 11.08963,12.33516 8.35786,13.11862 -2.1448,0.61512 -5.2471,2.14973 -5.68503,3.8221 1.0423,15.82982 3.51281,33.40287 -1.51384,45.86229 -5.13465,12.63644 -8.90492,20.17063 -19.47044,26.19082 -10.35074,9.51894 -31.16204,12.11115 -41.25392,7.48198 z m 36.40909,-156.03732 c -29.24562,-12.08986 -48.34034,-20.66778 -69.22153,-34.51596 -1.26761,0 -8.64794,-4.42991 -18.47459,-6.345613 -14.66621,-1.280992 -23.59049,2.217243 -35.45905,6.427193 -7.77815,4.13356 -9.97017,4.76919 -18.74722,12.6809 -5.82429,5.25006 -7.91101,6.08359 -7.55876,2.63631 0.63106,-6.17598 2.54557,-10.81412 7.19885,-17.44015 2.58691,-3.591933 17.82971,-15.98345 22.17058,-17.4696 19.50892,-8.727901 45.10177,-9.777653 61.93655,-6.969964 10.55116,2.422918 21.29178,3.182929 31.55887,6.949127 4.98414,1.897169 10.35881,3.187129 14.60611,5.406713 12.53276,5.07195 17.21753,6.427052 25.63468,8.506841 15.55917,4.522603 25.48097,10.825433 35.70034,16.581163 5.24367,2.60613 10.59037,6.33741 11.49008,8.01855 1.26731,13.24513 -12.10728,27.57588 -25.34542,26.8687 -12.87656,-0.40737 -24.44844,-7.94514 -35.48949,-11.33421 z"
         style="fill:#130e09;fill-opacity:1;stroke:#130e09;stroke-opacity:1" />
      <path
         sodipodi:type="arc"
         style="fill:#ffffff;fill-opacity:1;stroke:#ffffff;stroke-opacity:1"
         id="path3006"
         sodipodi:cx="130.72432"
         sodipodi:cy="288.44836"
         sodipodi:rx="16.456303"
         sodipodi:ry="16.456303"
         d="m 147.18062,288.44836 c 0,9.08857 -7.36774,16.45631 -16.4563,16.45631 -9.08857,0 -16.4563,-7.36774 -16.4563,-16.45631 0,-9.08856 7.36773,-16.4563 16.4563,-16.4563 9.08856,0 16.4563,7.36774 16.4563,16.4563 z"
         transform="translate(-787.31783,10.258475)" />
      <path
         transform="translate(-553.91783,10.258808)"
         d="m 147.18062,288.44836 c 0,9.08857 -7.36774,16.45631 -16.4563,16.45631 -9.08857,0 -16.4563,-7.36774 -16.4563,-16.45631 0,-9.08856 7.36773,-16.4563 16.4563,-16.4563 9.08856,0 16.4563,7.36774 16.4563,16.4563 z"
         sodipodi:ry="16.456303"
         sodipodi:rx="16.456303"
         sodipodi:cy="288.44836"
         sodipodi:cx="130.72432"
         id="path3008"
         style="fill:#ffffff;fill-opacity:1;stroke:#ffffff;stroke-opacity:1"
         sodipodi:type="arc" />
    </g>
  </g>
</svg>
