<?xml version="1.0" encoding="UTF-8" standalone="no"?>
<!-- Created with Inkscape (http://www.inkscape.org/) -->

<svg
   xmlns:dc="http://purl.org/dc/elements/1.1/"
   xmlns:cc="http://creativecommons.org/ns#"
   xmlns:rdf="http://www.w3.org/1999/02/22-rdf-syntax-ns#"
   xmlns:svg="http://www.w3.org/2000/svg"
   xmlns="http://www.w3.org/2000/svg"
   xmlns:sodipodi="http://sodipodi.sourceforge.net/DTD/sodipodi-0.dtd"
   xmlns:inkscape="http://www.inkscape.org/namespaces/inkscape"
   id="svg2996"
   version="1.1"
   inkscape:version="0.48.2 r9819"
   width="1024"
   height="1024"
   sodipodi:docname="Plumber Torso.svg"
   inkscape:export-filename="G:\LEGO Textures Scans\Complete\LEGO Minifigures\Series 9\Plumber\Plumber Torso.png"
   inkscape:export-xdpi="90"
   inkscape:export-ydpi="90">
  <metadata
     id="metadata3002">
    <rdf:RDF>
      <cc:Work
         rdf:about="">
        <dc:format>image/svg+xml</dc:format>
        <dc:type
           rdf:resource="http://purl.org/dc/dcmitype/StillImage" />
        <dc:title></dc:title>
      </cc:Work>
    </rdf:RDF>
  </metadata>
  <defs
     id="defs3000" />
  <sodipodi:namedview
     pagecolor="#ffffff"
     bordercolor="#666666"
     borderopacity="1"
     objecttolerance="10"
     gridtolerance="10"
     guidetolerance="10"
     inkscape:pageopacity="0"
     inkscape:pageshadow="2"
     inkscape:window-width="1600"
     inkscape:window-height="850"
     id="namedview2998"
     showgrid="false"
     inkscape:zoom="0.34502924"
     inkscape:cx="1495.4368"
     inkscape:cy="823.82256"
     inkscape:window-x="-8"
     inkscape:window-y="-8"
     inkscape:window-maximized="1"
     inkscape:current-layer="svg2996" />
  <g
     id="g3086"
     transform="matrix(0.71618309,0,0,0.71618309,-57.322028,-133.51038)">
    <g
       transform="translate(-1796.9491,-8.6949153)"
       id="g3028">
      <path
         inkscape:connector-curvature="0"
         id="path3032"
         d="m 1893.7206,1600.604 c -2.2245,-5.797 2.5555,-18.9307 10.6224,-29.186 57.858,-73.5546 150.9803,-371.4857 219.2665,-701.51116 22.3416,-107.97611 23.0737,-116.55011 14.4122,-168.79661 -5.0187,-30.27331 -12.5398,-61.64746 -16.7136,-69.72034 -13.0642,-25.26843 -27.0694,-95.22308 -19.5792,-97.79627 4.0257,-1.38301 5.0482,-20.63729 2.4274,-45.71148 -6.8036,-65.09282 -4.3838,-66.53227 109.1604,-64.93637 77.6852,1.0919 93.9403,3.16939 90.7078,11.59298 -5.4137,14.10796 16.7424,21.25685 33.4815,10.80313 11.5774,-7.23022 13.7058,-6.39234 13.7058,5.39554 0,19.60208 23.0031,26.80334 34.6665,10.85259 5.1521,-7.04583 9.7802,-10.52812 10.2848,-7.73841 0.5045,2.7897 1.3301,8.2096 1.8347,12.04422 0.5046,3.83462 4.9675,11.02218 9.9177,15.97235 7.1078,7.10777 11.9271,6.35163 22.919,-3.59593 13.2178,-11.96198 14.1158,-11.84238 17.8338,2.37511 4.8334,18.48272 31.0664,19.94171 38.2646,2.12813 4.611,-11.41118 5.8997,-11.00202 11.5571,3.66949 7.2301,18.74997 27.2019,22.02729 33.5424,5.50424 2.3234,-6.05466 7.1735,-11.00847 10.7781,-11.00847 3.6046,0 6.5538,4.95381 6.5538,11.00847 0,16.4456 36.6292,14.62572 36.9283,-1.83475 0.2224,-12.23164 0.698,-12.23164 9.9829,0 12.4851,16.4472 31.065,16.4472 40.2984,0 6.8668,-12.23164 7.4458,-12.23164 12.1583,0 6.9316,17.99087 30.7332,16.03005 36.7827,-3.03022 4.4632,-14.06211 5.8174,-14.48084 11.8678,-3.66949 9.8352,17.5747 35.4562,15.78696 35.4562,-2.47401 0,-17.60091 6.3912,-18.77954 17.732,-3.27006 11.2079,15.32773 33.5761,6.06474 33.8743,-14.02785 0.2231,-15.02182 0.6928,-15.12137 10.4695,-2.21868 13.4982,17.81388 40.4525,9.8623 41.2494,-12.16865 0.3185,-8.80998 2.2451,-11.88998 4.281,-6.84443 5.7051,14.13864 32.7601,10.88871 36.7624,-4.416 3.1877,-12.18997 12.8196,-13.74019 93.512,-15.05041 75.076,-1.21902 91.5861,0.50078 99.798,10.39562 13.6467,16.44324 13.4605,154.51824 -0.2421,179.70215 -5.4907,10.0911 -15.6936,44.7678 -22.6731,77.05932 l -12.69,58.71187 25.7347,124.76271 c 69.4113,336.50937 168.6952,652.40427 217.6796,692.59777 6.7513,5.5398 12.2752,17.9243 12.2752,27.5212 l -2e-4,17.4488 -696.4182,0 c -598.5132,0 -696.9868,-1.4817 -700.4628,-10.5401 z m 980.3645,-939.85818 c 7.3769,-24.21864 14.7705,-58.48237 16.4303,-76.1416 4.5269,-48.16521 11.6741,-76.72777 22.2668,-88.98552 9.6491,-11.16592 17.5956,-49.38062 10.8703,-52.2754 -2.0183,-0.86871 -30.0899,8.5405 -62.3814,20.90935 -99.2259,38.00719 -164.4654,49.65118 -275.2119,49.11998 -110.7812,-0.53135 -192.9694,-16.8878 -278.2048,-55.36603 -25.8648,-11.67627 -48.4712,-19.78526 -50.2365,-18.01996 -5.895,5.89497 6.3363,47.16825 16.4708,55.57915 5.5007,4.5652 12.1671,30.38779 14.8142,57.38423 5.3227,54.28139 23.9474,132.0295 35.0742,146.41598 5.5846,7.22052 65.5736,8.83953 271.9303,7.33898 l 264.7651,-1.92526 13.4126,-44.0339 z m -415.6228,-220.0986 c -27.7957,-5.78738 -53.9432,-11.65772 -58.1056,-13.04519 -4.1624,-1.38747 80.916,-2.44916 189.0631,-2.3593 177.6494,0.1476 193.1773,1.11533 160.8515,10.02458 -53.9621,14.87237 -230.5797,18.12857 -291.809,5.37991 z"
         style="fill:#265e8a" />
      <path
         inkscape:connector-curvature="0"
         id="path3030"
         d="m 1896.1948,1596.721 c 0,-3.8962 9.9138,-22.7165 22.0307,-41.8228 33.5129,-52.8443 76.7636,-170.3472 120.3705,-327.0209 36.8593,-132.4303 94.7193,-385.01233 104.4365,-455.90708 4.5227,-32.99687 -12.6723,-132.77626 -27.73,-160.91185 -4.7326,-8.84296 -9.7117,-49.60613 -11.0646,-90.5848 -1.9587,-59.33047 -0.2268,-76.35988 8.5028,-83.60482 9.4671,-7.85697 10.9779,-4.21995 11.075,26.66065 0.1623,51.65121 4.888,56.25957 48.2115,47.01455 70.6725,-15.08117 70.0957,-14.8378 66.3952,-28.01294 -1.9462,-6.92931 -5.6988,-23.33201 -8.339,-36.45044 -4.3224,-21.47585 -3.0977,-23.8405 12.2953,-23.73932 9.4027,0.0618 21.9389,3.17544 27.8581,6.91918 6.1179,3.86932 14.0727,4.05948 18.4331,0.44064 4.7799,-3.96695 10.6595,-0.033 15.6013,10.4385 6.9144,14.65162 6.1836,16.34781 -5.7043,13.23907 -7.4991,-1.96106 -15.4294,-6.46947 -17.6229,-10.01868 -2.1936,-3.54922 -8.7472,-6.45312 -14.5636,-6.45312 -14.7175,0 -13.7295,39.83133 1.3622,54.9231 7.1586,7.15859 14.9139,34.54533 19.3719,68.4098 4.0889,31.0597 12.9248,76.28744 19.6353,100.50608 l 12.2011,44.0339 120.7109,4.35606 c 66.3911,2.39583 189.156,2.69992 272.8111,0.67577 l 152.1,-3.68031 12.0343,-41.04015 c 6.6188,-22.57209 15.1464,-65.75762 18.9504,-95.96783 3.8039,-30.21022 11.402,-59.9331 16.8846,-66.05084 5.4825,-6.11776 12.3615,-24.01385 15.2865,-39.7691 5.6549,-30.45912 3.5085,-31.39855 -35.2669,-15.43543 -9.9722,4.10537 -12.8432,1.62974 -12.8432,-11.07446 0,-13.388 1.9155,-14.77202 10.5393,-7.61489 7.6729,6.36796 14.5278,6.61236 25.204,0.89862 8.0655,-4.31657 21.2563,-7.84829 29.3127,-7.84829 13.0306,0 13.8943,2.62862 7.8215,23.80324 -14.0892,49.12617 -11.2763,53.56858 39.8881,62.996 25.6932,4.73415 50.2246,8.60754 54.5143,8.60754 4.2897,0 10.1,-18.41286 12.9118,-40.91748 7.861,-62.91767 19.7495,-37.24652 19.7963,42.74672 0.022,42.84206 -3.5904,75.7653 -9.5321,86.80329 -5.2649,9.7805 -15.3488,45.85434 -22.4088,80.16408 -14.6954,71.41625 -13.8782,77.98177 38.191,306.81482 66.7235,293.23582 130.979,490.73092 186.0082,571.71382 10.3052,15.1655 18.7367,30.1095 18.7367,33.2089 0,10.3303 -74.4875,5.8031 -99.4548,-6.0447 -28.0845,-13.327 -62.0028,-42.7358 -62.0028,-53.7595 0,-4.0858 15.1352,-0.941 33.6339,6.9885 44.4446,19.0512 51.2583,18.195 36.3441,-4.567 -17.9277,-27.3611 -7.4602,-31.1807 18.1663,-6.629 12.0672,11.5612 21.9404,19.2163 21.9404,17.0113 0,-2.205 -11.1929,-28.4175 -24.873,-58.2502 -50.4934,-110.1121 -116.1244,-339.4811 -169.8671,-593.65643 -14.9356,-70.63771 -29.2914,-130.79125 -31.9018,-133.67454 -2.6104,-2.88328 -39.3756,-11.62831 -81.7004,-19.4334 -68.8856,-12.70311 -106.58,-13.99723 -359.5051,-12.34244 -237.4825,1.55376 -291.9157,3.90504 -341.2627,14.74104 -32.2916,7.09083 -59.4514,13.54182 -60.3553,14.33556 -0.9039,0.79372 -13.4293,59.04851 -27.8342,129.45507 -49.8601,243.69984 -112.1231,465.52594 -165.428,589.37434 -25.7628,59.8573 -26.574,63.7169 -10.1486,48.2861 20.5197,-19.2773 32.9031,-13.5305 18.9586,8.7982 -13.6672,21.8847 -7.5292,23.01 31.4527,5.7664 19.1233,-8.4592 36.972,-13.1309 39.6639,-10.3816 6.1988,6.3309 -37.8593,43.5794 -69.0579,58.3842 -26.1109,12.3904 -91.175,15.3514 -91.175,4.1493 z m 351.0514,-881.48079 46.4836,-8.94264 -4.939,-26.44537 c -2.7164,-14.54495 -5.9699,-27.49567 -7.23,-28.77939 -1.2601,-1.28372 -19.729,2.84446 -41.0419,9.17372 -21.313,6.32928 -49.6067,11.50776 -62.8749,11.50776 -15.9139,0 -23.1623,3.12211 -21.2979,9.17373 1.5544,5.04555 4.897,18.57767 7.428,30.07138 3.7439,17.00156 7.6209,20.17854 20.7952,17.04055 8.9063,-2.1214 37.1109,-7.88128 62.6769,-12.79974 z m 774.5263,-1.28676 c 9.8519,-36.76189 6.4668,-42.18014 -26.565,-42.52129 -17.1548,-0.17716 -44.2744,-4.98219 -60.2656,-10.67783 -15.9912,-5.69563 -29.5368,-9.67886 -30.1012,-8.8516 -3.5164,5.15428 -17.6096,51.90819 -16.0815,53.35018 2.7702,2.61402 102.673,23.56223 116.6009,24.44956 6.6136,0.42133 13.971,-6.63859 16.4124,-15.74902 z M 2247.4809,613.56963 c 19.0707,-10.2063 24.99,-30.17087 18.7722,-63.3145 -4.6512,-24.79301 -6.5507,-26.42692 -26.1631,-22.50445 -11.6313,2.32626 -42.5765,8.17797 -68.7672,13.00379 -30.9411,5.70112 -47.6195,12.26813 -47.6195,18.74987 0,14.521 21.3245,63.25235 30.0343,68.63533 9.4832,5.86092 74.4289,-4.23325 93.7433,-14.57004 z m -82.5468,-5.77661 c -10.354,-10.35405 -2.5813,-15.97044 32.5203,-23.49838 45.7896,-9.82012 51.0116,-9.86378 51.0116,-0.42649 0,12.45801 -73.8476,33.60915 -83.5319,23.92487 z m 878.5932,7.08416 c 5.5918,-11.10022 12.326,-29.19015 14.9649,-40.19986 5.3461,-22.30468 10.5808,-19.79618 -79.6938,-38.18989 -58.8904,-11.99908 -62.199,-9.99567 -62.3726,37.76712 -0.1181,32.49045 7.6813,40.75214 50.832,53.84581 40.9255,12.41846 65.4984,8.15814 76.2695,-13.22318 z m -57.4935,-5.30592 c -4.0364,-1.42116 -16.421,-4.58698 -27.5212,-7.03518 -11.1002,-2.4482 -20.1822,-8.88277 -20.1822,-14.29905 0,-8.07606 7.5921,-8.32693 42.1992,-1.39442 23.2095,4.64936 42.1991,11.6207 42.1991,15.49186 0,7.21606 -23.558,11.86205 -36.6949,7.23679 z m -686.1949,982.39724 c -22.2004,-1.4738 -57.4017,-4.5674 -78.2251,-6.8745 l -37.8606,-4.1948 -4.0735,-41.7547 c -2.2404,-22.9651 -6.1378,-67.4786 -8.661,-98.919 -4.0919,-50.9872 -6.0364,-56.7046 -17.9949,-52.9091 -18.6656,5.9242 -26.2621,-9.941 -10.336,-21.5865 12.3652,-9.0417 12.1973,-9.8815 -2.9346,-14.6843 -22.9829,-7.2944 -19.8058,-18.7828 5.1944,-18.7828 l 21.2442,0 5.1271,-115.589 c 4.8511,-109.368 26.9382,-308.82125 35.7832,-323.13277 2.3961,-3.87699 23.1572,-3.43027 50.2448,1.08115 62.1517,10.35129 612.7385,10.3975 668.1611,0.0558 30.507,-5.69238 43.9381,-5.6402 48.4133,0.18803 3.4064,4.43627 12.4156,55.95281 20.0206,114.48119 10.5277,81.0232 13.8607,153.6971 13.968,304.5678 0.078,108.9839 -2.4855,213.4867 -5.6955,232.2284 -5.2669,30.7513 -8.131,34.5369 -29.3559,38.8004 -25.9574,5.2141 -608.6774,11.2961 -673.0196,7.0244 z m 625.1975,-44.2363 c 28.5904,-3.0007 43.169,-8.084 46.256,-16.1286 2.4793,-6.4608 6.2053,-77.8989 8.2801,-158.7515 4.02,-156.6568 -3.4662,-305.7048 -15.5556,-309.7084 -4.787,-1.5852 -7.339,76.5497 -7.339,224.6925 0,141.6219 -2.7628,229.8904 -7.339,234.4743 -4.0364,4.0432 -87.0416,11.3425 -184.4559,16.2207 -138.6305,6.9422 -215.177,6.9348 -352.2712,-0.037 -96.3348,-4.8939 -178.4568,-12.1772 -182.4932,-16.1823 -4.3731,-4.3392 -8.2685,-81.2859 -9.6389,-190.403 -1.2649,-100.7166 -4.9105,-183.121 -8.1013,-183.121 -17.1628,0 -13.4672,371.7028 3.868,389.0379 13.7407,13.7408 191.5919,20.9807 432.1942,17.5938 129.1661,-1.8183 253.6342,-5.2778 276.5958,-7.6877 z m -34.4094,-38.4467 44.0339,-4.5566 0,-214.0636 c 0,-117.735 -2.1564,-216.2156 -4.792,-218.8458 -2.6357,-2.6302 -65.384,-0.7784 -139.4407,4.1151 -114.0568,7.5365 -423.6057,6.1793 -462.0324,-2.0258 -7.7152,-1.6474 -9.6502,5.3506 -7.9205,28.6445 3.507,47.2263 -7.9404,62.4193 -45.0259,59.7578 l -30.6529,-2.1997 0,169.8744 c 0,93.4309 1.8608,171.7297 4.135,173.9974 15.8109,15.7651 501.7811,19.7807 641.6955,5.3023 z m -608.138,-416.564 c -2.5669,-18.7273 -4.667,-41.8451 -4.667,-51.3729 0,-13.4972 -3.9763,-17.3231 -18.0041,-17.3231 -14.3153,0 -21.0359,6.854 -32.8019,33.453 -23.6055,53.3642 -22.8873,57.6803 10.4416,62.747 52.8586,8.0359 50.131,9.7017 45.0314,-27.504 z m -47.8064,12.7409 c -5.5627,-3.5233 -8.1184,-9.6349 -5.6794,-13.5813 6.4409,-10.4216 41.4798,-1.9243 41.4798,10.0593 0,11.3455 -20.2963,13.3422 -35.8004,3.522 z m 607.1189,-55.3451 c 70.0205,-5.716 129.0614,-12.1441 131.2019,-14.2846 3.7986,-3.7986 -10.5376,-114.8809 -15.462,-119.80532 -1.3659,-1.36585 -33.4931,0.73511 -71.3938,4.66878 l -68.9104,7.15213 67.3144,-3.16371 67.3143,-3.16371 5.155,48.13636 c 2.8352,26.475 2.2666,50.87517 -1.2635,54.22257 -13.8869,13.1679 -249.8402,24.1152 -444.1791,20.6081 -108.7799,-1.963 -195.1312,-0.9186 -191.8917,2.3209 14.4044,14.4043 359.4097,16.5905 522.1149,3.3085 z m -384.2219,-46.274 c -2.908,-7.06379 -6.9491,-18.62269 -8.9801,-25.68646 -5.0405,-17.53018 -16.6589,-16.25057 -16.6589,1.83474 0,8.07288 -3.3025,14.67797 -7.339,14.67797 -4.0364,0 -7.339,4.95381 -7.339,11.00845 0,7.4232 7.4263,11.0085 22.8022,11.0085 18.8379,0 21.8829,-2.2329 17.5148,-12.8432 z m 45.9161,-7.02466 c 13.1696,-28.35745 11.808,-31.50502 -13.6284,-31.50502 -18.8379,0 -21.8829,2.23285 -17.5148,12.84322 2.908,7.06377 6.949,18.62267 8.9801,25.68646 5.1633,17.9574 11.4927,15.9513 22.1631,-7.02466 z m 60.5466,12.96196 c 0,-3.7982 -3.3025,-8.9469 -7.339,-11.44156 -4.0364,-2.49466 -7.339,-10.94592 -7.339,-18.78058 0,-7.83467 -3.3025,-14.24484 -7.339,-14.24484 -4.0364,0 -7.3389,6.41017 -7.3389,14.24484 0,7.83466 -3.3026,16.28592 -7.339,18.78058 -14.4663,8.94066 -6.9409,18.34746 14.6779,18.34746 12.1094,0 22.017,-3.1076 22.017,-6.9059 z m 38.6758,-5.9373 c 2.031,-7.06379 5.8609,-18.07227 8.5108,-24.4633 3.7774,-9.11054 -0.01,-11.62006 -17.5149,-11.62006 -24.7621,0 -26.1787,3.09999 -13.8157,30.23378 9.9569,21.85308 17.6512,23.82548 22.8198,5.84958 z m 64.07,10.3013 c 0,-1.3981 -5.2131,-12.9917 -11.5846,-25.76362 -11.8698,-23.7937 -25.1104,-24.89314 -25.1104,-2.08509 0,7.02738 -3.963,16.74011 -8.8067,21.58381 -6.8497,6.8497 -2.7726,8.8068 18.3474,8.8068 14.9348,0 27.1543,-1.1439 27.1543,-2.5419 z m 36.6949,-11.7029 c 0,-7.83471 3.3564,-16.31926 7.4587,-18.85461 12.801,-7.91149 0,-18.27347 -22.5698,-18.27347 -21.2532,0 -28.6067,9.47137 -14.2449,18.34745 4.0365,2.49466 7.339,10.94592 7.339,18.78063 0,7.8346 4.9538,14.2448 11.0085,14.2448 6.0547,0 11.0085,-6.4102 11.0085,-14.2448 z m 61.8674,7.7374 c 2.212,-3.5791 -0.8957,-10.58858 -6.9059,-15.57662 -6.0101,-4.98803 -10.9276,-13.61859 -10.9276,-19.17901 0,-5.56042 -3.3026,-10.10985 -7.339,-10.10985 -4.0365,0 -7.339,6.41017 -7.339,14.24484 0,7.83466 -3.3025,16.28592 -7.339,18.78058 -4.0364,2.49466 -7.339,7.64336 -7.339,11.44156 0,8.7635 41.8015,9.1165 47.1895,0.3985 z m -410.1928,-21.01379 c -7.6687,-31.05102 -17.1395,-36.05017 -25.69,-13.56053 -11.157,29.34492 -9.654,33.74272 11.5313,33.74272 17.199,0 18.6369,-2.0495 14.1587,-20.18219 z m 48.9205,-1.88115 12.5019,-21.97054 -26.8129,0 c -20.8545,0 -24.8559,1.95706 -18.0062,8.80678 4.8438,4.84372 8.8068,14.75135 8.8068,22.01695 0,19.52975 9.3667,16.00265 23.5104,-8.85319 z m 400.0533,12.88964 c 0.1923,-5.04557 2.7471,-14.95319 5.6779,-22.01696 4.4235,-10.6614 1.3512,-12.84322 -18.0849,-12.84322 -16.119,0 -22.0815,2.85813 -19.1374,9.17373 2.352,5.04555 6.315,14.95317 8.8065,22.01694 5.1856,14.70141 22.2137,17.44941 22.7379,3.66951 z m 63.9647,2.6663 c 2.2121,-3.57909 -0.8956,-10.58856 -6.9058,-15.5766 -6.0102,-4.98803 -10.9277,-13.61859 -10.9277,-19.17901 0,-5.56042 -3.3025,-10.10986 -7.339,-10.10986 -4.0364,0 -7.3389,6.41018 -7.3389,14.24484 0,7.83467 -3.3026,16.28593 -7.339,18.78059 -4.0365,2.49466 -7.339,7.64337 -7.339,11.44164 0,8.7634 41.8014,9.1164 47.1894,0.3984 z m 38.6319,-22.84852 c 8.0828,-21.4138 7.708,-22.01695 -13.6806,-22.01695 -14.9808,0 -20.6278,2.92434 -17.7147,9.17373 2.352,5.04555 6.315,14.95318 8.8066,22.01695 6.5436,18.55139 13.1339,15.87489 22.5887,-9.17373 z m -615.6652,-8.24217 c 1.8553,-15.9997 -1.236,-19.91365 -18.3057,-23.17672 -25.8058,-4.93309 -31.6301,-1.32027 -31.6301,19.62038 0,21.97849 6.5519,27.60601 29.0813,24.97867 13.9373,-1.62535 19.1837,-7.0146 20.8545,-21.42233 z m 410.5854,-41.28024 c -59.5375,-1.23357 -156.9625,-1.23357 -216.5,0 -59.5375,1.23357 -10.825,2.24286 108.25,2.24286 119.075,0 167.7875,-1.00929 108.25,-2.24286 z m -356.0262,-7.04105 c -9.1291,-1.75543 -22.3392,-1.68878 -29.3559,0.14811 -7.0168,1.83688 0.4525,3.27315 16.5982,3.1917 16.1458,-0.0815 21.8867,-1.58438 12.7577,-3.33981 z m -111.8339,-9.92051 c 0,-4.27466 -3.3026,-5.73103 -7.339,-3.23637 -4.0365,2.49466 -7.339,5.99211 -7.339,7.77211 0,1.78001 3.3025,3.23637 7.339,3.23637 4.0364,0 7.339,-3.49745 7.339,-7.77211 z m -53.2077,-51.5276 c -14.9473,-8.706 -17.5803,-50.4513 -4.0364,-63.99521 14.5976,-14.59756 47.9111,-10.46533 60.4974,7.50416 15.099,21.55688 14.411,32.07554 -3.2533,49.73991 -16.0857,16.08566 -33.4078,18.28354 -53.2077,6.75114 z m 33.0255,-31.826 c 1.0091,-3.70007 -2.2935,-8.10346 -7.339,-9.78531 -5.0456,-1.68185 -9.1738,2.44633 -9.1738,9.17373 0,12.4275 13.1573,12.9148 16.5128,0.61156 z m 736.8705,26.33173 c -24.4512,-27.01819 -7.4953,-67.30772 28.3265,-67.30772 17.2995,0 40.2563,23.94973 40.2563,41.99738 0,13.98212 -27.4107,38.73144 -42.8964,38.73144 -7.4473,0 -19.0062,-6.03949 -25.6864,-13.4211 z m 39.2269,-31.04593 c 0,-3.79822 -4.9538,-6.90585 -11.0085,-6.90585 -11.349,0 -14.5803,8.65972 -6.3153,16.92477 5.8633,5.86334 17.3238,-0.76462 17.3238,-10.01892 z m -691.6991,-7.4937 c -18.2886,-10.6521 -17.365,-55.18765 1.3522,-65.20479 22.5867,-12.08802 42.7744,-8.89595 55.1087,8.71374 15.0991,21.55688 14.4111,32.07554 -3.2533,49.73991 -16.0857,16.08567 -33.4077,18.28354 -53.2076,6.75114 z m 33.0254,-31.826 c 1.0091,-3.70006 -2.2934,-8.10345 -7.339,-9.78531 -5.0455,-1.68185 -9.1737,2.44633 -9.1737,9.17373 0,12.4275 13.1573,12.9148 16.5127,0.61156 z m 501.4098,28.22014 c -24.6913,-24.69129 -6.542,-69.19612 28.2185,-69.19612 19.0433,0 40.9776,20.93331 40.9776,39.10753 0,16.64375 -26.1108,41.62128 -43.5097,41.62128 -7.7846,0 -19.3435,-5.18971 -25.6864,-11.53269 z m 34.3359,-28.22014 c 1.0091,-3.70006 -2.2934,-8.10345 -7.3389,-9.78531 -5.0456,-1.68185 -9.1738,2.44633 -9.1738,9.17373 0,12.4275 13.1573,12.9148 16.5127,0.61156 z M 2446.6186,499.28819 c -22.2005,-5.14873 -34.7491,-9.73194 -27.8859,-10.1849 6.8632,-0.45296 15.8448,-6.60302 19.959,-13.66679 6.6806,-11.46986 7.5044,-11.07748 7.7037,3.66949 0.1659,12.27331 4.5568,16.51271 17.1028,16.51271 9.2838,0 20.8427,-3.96305 25.6865,-8.80678 6.8497,-6.84971 8.8067,-6.03427 8.8067,3.66949 0,8.41537 5.972,12.47627 18.3475,12.47627 10.0911,0 18.3475,-3.49745 18.3475,-7.7721 0,-4.27466 3.3025,-5.73103 7.3389,-3.23637 30.7024,18.97509 -26.3206,23.36147 -95.4067,7.33898 z m 137.3142,-3.66949 c 2.1111,-8.07288 4.7192,-14.67796 5.7959,-14.67796 1.0767,0 3.6849,6.60508 5.796,14.67796 2.3988,9.17324 0.2253,14.67797 -5.796,14.67797 -6.0211,0 -8.1947,-5.50473 -5.7959,-14.67797 z m 51.5916,-0.83671 c 3.5213,-13.46504 4.933,-13.94981 10.6862,-3.66949 8.772,15.67489 32.6256,15.10816 42.0066,-0.99804 4.1515,-7.12767 7.5798,-8.76069 7.7036,-3.66949 0.3383,13.89919 35.1397,10.97484 43.6692,-3.66949 4.1515,-7.12768 7.5799,-8.76069 7.7037,-3.66949 0.1225,5.04555 6.0026,9.51214 13.0664,9.92576 21.229,1.24306 -73.0878,20.59895 -102.0587,20.94468 -23.7668,0.28365 -26.3704,-1.45318 -22.777,-15.19444 z m -258.6262,-13.84125 c -11.7132,-5.03335 -12.2073,-6.41153 -2.4463,-6.82317 6.7274,-0.28372 13.5793,-4.55882 15.2265,-9.50027 1.6471,-4.94145 4.9157,-1.63891 7.2634,7.33898 4.6101,17.62877 2.3893,18.62421 -20.0436,8.98446 z m 405.3801,-10.29023 c 3.145,-16.45227 4.2064,-16.81974 15.8986,-5.50423 8.2362,7.97075 9.8759,13.9723 4.786,17.51682 -15.2445,10.61602 -24.0345,5.51122 -20.6846,-12.01259 z m -446.0251,-3.06882 c -9.9862,-4.41273 -9.8574,-6.38768 1.1165,-17.11338 11.5647,-11.30307 12.634,-10.92997 15.7756,5.50424 3.529,18.46056 1.6052,19.78271 -16.8921,11.60914 z m 497.2454,-8.81257 c 3.1123,-11.90126 5.946,-13.1171 14.3383,-6.15207 8.4507,7.01345 8.6309,9.84052 0.9383,14.72026 -15.231,9.66178 -19.4282,7.3077 -15.2766,-8.56819 z M 2486.983,443.9818 c -73.2362,-13.73756 -84.4418,-22.04099 -22.017,-16.31469 75.493,6.92505 175.1713,7.00258 249.5254,0.19407 l 58.7119,-5.37617 -36.6949,11.17908 c -44.3609,13.51448 -198.5042,19.88821 -249.5254,10.31771 z"
         style="fill:#000000" />
    </g>
    <path
       inkscape:connector-curvature="0"
       id="path3046"
       d="m 465.41661,1016.3673 c -9.80937,-1.1163 -19.74784,2.6837 -24.04688,11.8197 -11.42163,20.3193 -22.53437,41.8434 -26.35646,65.0307 -1.7431,8.9136 5.98947,15.0829 14.22594,15.5054 17.53967,3.5261 35.62074,7.5004 53.52194,6.5036 7.79177,-3.774 3.28048,-15.2564 3.62288,-22.009 -3.20342,-23.2414 -3.80181,-46.9063 -7.38162,-70.0122 -2.12946,-5.5375 -7.89564,-7.8622 -13.5858,-6.8382 z m -20.55985,62.54 c 10.43768,0.3516 24.87814,3.1743 28.4849,14.2198 -1.81539,12.1117 -18.24618,10.605 -27.12632,7.7439 -7.11707,-2.1266 -18.8106,-9.7296 -13.54052,-18.205 2.86611,-3.319 7.97438,-3.7103 12.18194,-3.7587 z"
       style="fill:#808080;fill-opacity:1;stroke:#808080;stroke-width:1.44915259;stroke-opacity:1" />
    <path
       inkscape:connector-curvature="0"
       id="path3048"
       d="m 457.94441,938.29421 c -10.07958,-0.96893 -14.12182,9.54006 -13.14129,17.93227 -0.49317,10.11235 -0.11921,27.25821 13.50358,27.89718 11.96986,0.43435 30.2976,1.0031 33.73808,-13.76695 1.90505,-9.0962 5.1874,-24.24846 -7.06461,-27.30747 -8.60517,-3.14892 -17.85199,-4.94981 -27.03576,-4.75503 z"
       style="fill:#808080;fill-opacity:1;stroke:#808080;stroke-width:1.44915259;stroke-opacity:1" />
    <path
       inkscape:connector-curvature="0"
       id="path3050"
       d="m 543.08213,953.78203 c -9.71091,4.33518 -11.18425,17.45339 -14.80853,26.40175 -3.09646,7.17544 -3.37305,20.16162 7.42691,19.92582 7.33291,-0.18971 18.70964,2.6631 23.23172,-4.61915 0.58183,-13.76443 -3.31728,-28.7131 -11.36679,-39.89698 -1.15819,-1.15192 -2.76202,-2.08439 -4.48331,-1.81144 z"
       style="fill:#808080;fill-opacity:1;stroke:#808080;stroke-width:1.44915259;stroke-opacity:1" />
    <path
       inkscape:connector-curvature="0"
       id="path3052"
       d="m 604.98811,956.86148 c -10.5855,0.88752 -22.05349,-0.64482 -32.15307,2.35487 0.65326,7.21698 8.0389,12.6393 9.23835,20.10699 3.70086,6.05978 -0.21367,15.66502 5.66075,20.107 9.73844,-2.20926 13.78898,-14.08583 19.35377,-21.44281 2.57993,-6.5678 10.33982,-12.63065 9.53871,-19.94861 -3.11917,-2.23712 -8.04507,-0.893 -11.63851,-1.17744 z"
       style="fill:#808080;fill-opacity:1;stroke:#808080;stroke-width:1.44915259;stroke-opacity:1" />
    <path
       inkscape:connector-curvature="0"
       id="path3054"
       d="m 640.94521,957.67663 c -9.58189,5.4014 -2.03317,21.67404 -12.22667,27.26174 -6.68487,3.11954 -11.59215,12.44864 -4.80087,18.02423 9.64382,6.7969 23.11937,5.0381 34.19094,3.3512 7.04061,-4.6184 -0.0984,-15.03425 -1.13215,-21.14856 -4.59789,-8.78891 -4.47989,-22.27924 -14.03867,-27.30747 -0.62608,-0.22009 -1.33426,-0.284 -1.99258,-0.18114 z"
       style="fill:#808080;fill-opacity:1;stroke:#808080;stroke-width:1.44915259;stroke-opacity:1" />
    <path
       inkscape:connector-curvature="0"
       id="path3056"
       d="m 689.2201,956.95205 c -5.11988,-0.0746 -17.24319,0.10224 -14.44624,8.33263 4.41048,13.44078 7.5577,27.94373 15.12553,39.94222 7.03737,3.9067 10.62036,-7.74374 13.67638,-12.00075 4.0455,-9.93399 12.83764,-21.71424 7.97034,-32.60593 -5.54127,-5.26964 -15.37618,-2.93761 -22.32601,-3.66817 z"
       style="fill:#808080;fill-opacity:1;stroke:#808080;stroke-width:1.44915259;stroke-opacity:1" />
    <path
       inkscape:connector-curvature="0"
       id="path3058"
       d="m 744.15204,956.95205 c -9.52833,6.84268 -3.44685,21.66975 -11.63851,29.88877 -3.38926,4.34092 -13.65065,11.50762 -6.20418,16.84638 11.91263,5.7492 27.5476,5.6726 39.21769,-0.4981 4.02258,-7.37157 -6.6127,-13.21071 -9.60063,-18.79372 -5.72004,-7.89327 -1.03321,-23.23467 -11.18565,-27.5339 -0.1967,0.0274 -0.41171,-0.0582 -0.58872,0.0906 z"
       style="fill:#808080;fill-opacity:1;stroke:#808080;stroke-width:1.44915259;stroke-opacity:1" />
    <path
       inkscape:connector-curvature="0"
       id="path3060"
       d="m 792.42694,959.80507 c -6.41654,-0.37192 -19.11252,0.91463 -16.39354,10.3705 4.07464,12.41392 8.70468,26.19607 18.20498,35.36833 8.60493,4.1572 10.28443,-8.534 12.52838,-13.91071 2.46135,-9.25155 7.77433,-18.47527 8.12204,-27.97881 -5.52409,-5.38823 -15.41777,-3.14786 -22.46186,-3.84931 z"
       style="fill:#808080;fill-opacity:1;stroke:#808080;stroke-width:1.44915259;stroke-opacity:1" />
    <path
       inkscape:connector-curvature="0"
       id="path3062"
       d="m 839.34325,961.39008 c -7.89875,6.3373 -4.56266,18.98282 -8.87606,27.5339 -0.4741,6.11202 -9.70347,10.48337 -7.65334,16.66522 13.25008,4.0209 28.41089,2.1773 42.20657,0.5435 8.12867,-0.2063 0.20986,-8.87218 -0.43709,-12.49634 -6.40107,-11.16183 -10.73636,-29.31023 -25.24008,-32.24628 z"
       style="fill:#808080;fill-opacity:1;stroke:#808080;stroke-width:1.44915259;stroke-opacity:1" />
    <path
       inkscape:connector-curvature="0"
       id="path3064"
       d="m 887.57286,957.17848 c -6.17593,0.30695 -18.68065,1.98122 -16.71054,10.6875 6.4917,7.81016 14.08089,15.28419 14.12923,26.26589 0.20725,7.06363 7.86184,18.07503 15.30668,11.50263 9.55652,-6.98875 3.78728,-22.18511 12.9518,-29.70761 4.48525,-3.56001 7.00448,-11.63307 0.0453,-14.31038 -7.84195,-3.99979 -17.05555,-4.73201 -25.72245,-4.43803 z"
       style="fill:#808080;fill-opacity:1;stroke:#808080;stroke-width:1.44915259;stroke-opacity:1" />
    <path
       inkscape:connector-curvature="0"
       id="path3066"
       d="m 942.59537,956.90677 c -9.69171,5.61101 -3.97404,19.38738 -10.41579,27.53389 -2.30702,6.18898 -13.32182,11.26298 -8.78548,18.65784 11.31316,7.0717 26.50392,4.2792 38.94597,1.6756 6.47221,-1.1021 8.28403,-8.5608 3.62288,-12.90653 -7.71743,-8.65761 -15.11304,-18.43457 -16.98225,-30.16049 -1.31816,-2.17323 -3.50276,-5.08588 -6.38533,-4.80031 z"
       style="fill:#808080;fill-opacity:1;stroke:#808080;stroke-width:1.44915259;stroke-opacity:1" />
    <path
       inkscape:connector-curvature="0"
       id="path3068"
       d="m 993.22513,956.90677 c -5.39591,0.80949 -16.34067,-0.74266 -17.4804,6.4759 3.57803,10.94183 6.6041,23.17104 13.94809,32.15307 4.08856,4.09432 11.58728,7.58526 15.26138,1.04158 3.7191,-9.70729 4.943,-20.40833 8.4232,-30.29635 2.5842,-11.68193 -13.53043,-8.85878 -20.15227,-9.3742 z"
       style="fill:#808080;fill-opacity:1;stroke:#808080;stroke-width:1.44915259;stroke-opacity:1" />
    <path
       inkscape:connector-curvature="0"
       id="path3070"
       d="m 1045.6211,949.93272 c -10.0272,5.43972 -4.3445,20.96986 -11.7291,28.62076 -3.5828,4.82988 -12.4701,12.2943 -7.3816,18.52198 13.7606,4.40334 30.7873,5.57324 43.2934,-2.40016 4.5178,-8.96911 -7.5623,-15.90733 -11.2309,-22.82415 -6.132,-5.94599 -3.1353,-20.13888 -12.9518,-21.91843 z"
       style="fill:#808080;fill-opacity:1;stroke:#808080;stroke-width:1.44915259;stroke-opacity:1" />
    <path
       inkscape:connector-curvature="0"
       id="path3072"
       d="m 1097.7905,949.79686 c -5.8177,1.14474 -16.9733,-2.13313 -18.9295,5.66075 3.3843,12.29251 6.9658,25.70088 14.7632,35.86653 7.2047,2.86974 10.0347,-8.72557 12.816,-13.17823 2.5362,-8.35243 10.0114,-18.32894 5.8419,-27.08104 -4.2796,-2.12528 -9.8471,-0.90495 -14.4916,-1.26801 z"
       style="fill:#808080;fill-opacity:1;stroke:#808080;stroke-width:1.44915259;stroke-opacity:1" />
    <path
       inkscape:connector-curvature="0"
       id="path3074"
       d="m 1180.9531,810.59448 c -10.4411,-0.79821 -12.7998,11.90126 -4.0348,16.33125 9.9276,7.01458 22.069,-12.90857 8.646,-16.01103 -1.4976,-0.39465 -3.0722,-0.46762 -4.6112,-0.32022 z"
       style="fill:#808080;fill-opacity:1;stroke:#808080;stroke-width:2.0494113;stroke-opacity:1" />
    <path
       inkscape:connector-curvature="0"
       id="path3076"
       d="m 1059.5846,767.47041 c -5.9285,0.86587 -7.1927,8.61434 -5.6039,13.49729 0.9254,4.01107 5.302,6.46015 9.2384,4.86735 4.4327,-1.74403 7.5587,-7.20223 6.4204,-11.89619 -1.7511,-3.7031 -5.7893,-6.78346 -10.0549,-6.46845 z"
       style="fill:#808080;fill-opacity:1;stroke:#808080;stroke-width:0.51235282;stroke-opacity:1" />
    <path
       inkscape:connector-curvature="0"
       id="path3078"
       d="m 523.83751,767.92775 c -7.24621,0.82415 -7.74139,12.21679 -3.39434,16.49135 8.12892,6.62852 18.38762,-8.58678 10.15099,-14.31386 -1.89455,-1.48697 -4.31203,-2.33661 -6.75665,-2.17749 z"
       style="fill:#808080;fill-opacity:1;stroke:#808080;stroke-width:1.02470565;stroke-opacity:1" />
    <path
       inkscape:connector-curvature="0"
       id="path3080"
       d="m 406.06041,812.18222 c -6.73219,0.95497 -7.18725,11.63303 -3.13816,15.75485 6.83088,6.55261 18.62797,-6.29304 11.27176,-12.61669 -2.02025,-2.18079 -5.12279,-3.48233 -8.1336,-3.13816 z"
       style="fill:#808080;fill-opacity:1;stroke:#808080;stroke-width:1.02470565;stroke-opacity:1" />
    <path
       inkscape:connector-curvature="0"
       id="path3082"
       d="m 452.90714,517.77755 c -30.93839,4.89629 -61.69797,11.06873 -92.4107,17.25626 -10.72912,2.83974 -22.64957,4.62852 -31.35599,11.95322 -4.75098,3.93781 -0.99205,10.57735 -0.13585,15.46517 6.24167,19.2278 13.70959,38.53632 25.54131,55.04515 4.99816,5.22847 13.39811,3.14313 19.90115,3.31927 23.71585,-1.80628 47.62259,-5.34345 70.05952,-13.46333 13.43657,-4.57171 23.96245,-16.46798 25.92625,-30.70392 2.13989,-17.35229 0.0638,-35.27629 -5.29847,-51.87513 -1.60264,-5.57524 -6.7691,-7.65396 -12.22722,-6.99669 z m -9.96293,50.51655 c 4.69528,-0.8085 9.6469,2.80571 8.21942,7.81184 -3.86295,6.45028 -11.64524,9.37765 -18.3182,12.36308 -19.66592,7.36792 -40.52895,14.06139 -61.79277,12.18194 -4.00558,-1.99278 -9.66978,-7.3672 -5.81925,-11.93287 7.3213,-7.26784 18.4528,-8.75486 28.06343,-11.3958 16.21575,-3.24143 32.32138,-7.64745 48.83223,-9.02819 l 0.72457,0 0.0906,0 z"
       style="fill:#808080;fill-opacity:1;stroke:#808080;stroke-width:0.72457629;stroke-opacity:1" />
    <path
       inkscape:connector-curvature="0"
       id="path3084"
       d="m 1139.9187,521.69479 c -7.7584,-0.479 -15.8146,3.89597 -17.6916,11.82617 -3.4304,14.74356 -2.7972,30.25192 -1.8946,45.30214 0.2584,11.73701 7.2893,22.50596 17.6389,27.82825 17.6021,9.13895 36.9522,14.5921 56.35,18.3378 15.9797,2.68786 35.1688,1.92186 46.7662,-10.82032 8.3956,-10.42212 12.0758,-23.76582 16.7342,-36.13326 2.3773,-8.6918 6.7299,-17.54338 5.6145,-26.72373 -3.0153,-7.03555 -12.2076,-7.62857 -18.5673,-9.96292 -28.8704,-6.87001 -57.9951,-12.74573 -87.1982,-18.00119 -5.8782,-0.8647 -11.7933,-1.77452 -17.7521,-1.65294 z m 10.3252,51.78456 c 21.0655,1.29943 41.8949,6.11185 61.9512,12.40837 4.5318,2.09928 11.1553,3.04857 13.2462,8.10619 -0.6233,4.51787 -6.7382,5.37461 -10.1894,6.86083 -10.9803,2.85566 -22.5064,1.64623 -33.1858,-1.84875 -11.8133,-3.67075 -24.9509,-4.70312 -35.264,-11.89555 -3.9269,-2.36397 -7.748,-8.26137 -3.3058,-12.1593 1.7612,-1.67992 4.5029,-1.4293 6.7476,-1.47179 z"
       style="fill:#808080;fill-opacity:1;stroke:#808080;stroke-width:0.72457629;stroke-opacity:1" />
  </g>
</svg>
