<?xml version="1.0" encoding="UTF-8" standalone="no"?>
<!-- Created with Inkscape (http://www.inkscape.org/) -->

<svg
   xmlns:dc="http://purl.org/dc/elements/1.1/"
   xmlns:cc="http://creativecommons.org/ns#"
   xmlns:rdf="http://www.w3.org/1999/02/22-rdf-syntax-ns#"
   xmlns:svg="http://www.w3.org/2000/svg"
   xmlns="http://www.w3.org/2000/svg"
   xmlns:sodipodi="http://sodipodi.sourceforge.net/DTD/sodipodi-0.dtd"
   xmlns:inkscape="http://www.inkscape.org/namespaces/inkscape"
   width="1024"
   height="1024"
   id="svg2"
   version="1.1"
   inkscape:version="0.48.4 r9939"
   sodipodi:docname="Blue Cheerleader Torso.svg">
  <defs
     id="defs4" />
  <sodipodi:namedview
     id="base"
     pagecolor="#ffffff"
     bordercolor="#666666"
     borderopacity="1.0"
     inkscape:pageopacity="0.0"
     inkscape:pageshadow="2"
     inkscape:zoom="0.35"
     inkscape:cx="283.14961"
     inkscape:cy="431.26861"
     inkscape:document-units="px"
     inkscape:current-layer="layer1"
     showgrid="false"
     inkscape:window-width="1366"
     inkscape:window-height="705"
     inkscape:window-x="-8"
     inkscape:window-y="-8"
     inkscape:window-maximized="1" />
  <metadata
     id="metadata7">
    <rdf:RDF>
      <cc:Work
         rdf:about="">
        <dc:format>image/svg+xml</dc:format>
        <dc:type
           rdf:resource="http://purl.org/dc/dcmitype/StillImage" />
        <dc:title></dc:title>
      </cc:Work>
    </rdf:RDF>
  </metadata>
  <g
     inkscape:label="Layer 1"
     inkscape:groupmode="layer"
     id="layer1"
     transform="translate(0,-28.362183)">
    <rect
       style="fill:#0057a6;fill-opacity:1;stroke:#0057a6;stroke-width:2.44892383;stroke-opacity:1"
       id="rect3050"
       width="1021.5511"
       height="1021.5511"
       x="1.2244619"
       y="29.586636" />
    <path
       style="fill:#f7d117;fill-opacity:1;stroke:#f7d117;stroke-width:3.6056788px;stroke-linecap:butt;stroke-linejoin:miter;stroke-opacity:1"
       d="m 285.30165,142.4035 424.3263,0 16.39027,93.38489 -105.62628,74.66686 -91.05712,26.40656 -79.21972,0.91057 -111.08973,-56.45541 -66.47171,-47.34974 z"
       id="path3046"
       inkscape:connector-curvature="0"
       sodipodi:nodetypes="ccccccccc" />
    <path
       style="fill:#000000;stroke:#000000;stroke-width:3.6056788px;stroke-linecap:butt;stroke-linejoin:miter;stroke-opacity:1"
       d="m 731.66234,244.22008 -14.80904,-101.73166 -16.74066,0 14.80902,86.92264 c 0,0 -105.59485,104.30713 -216.66266,102.3755 -111.06779,1.93163 -216.66265,-102.3755 -216.66265,-102.3755 l 14.80902,-86.92264 -16.74066,0 -14.80903,101.73166 c 0,0 94.64908,103.66328 233.40332,99.80004 138.75426,3.86324 233.40334,-99.80004 233.40334,-99.80004 z"
       id="path2996"
       inkscape:connector-curvature="0"
       sodipodi:nodetypes="ccccccccccc" />
    <path
       style="fill:#000000;fill-opacity:1;stroke:#000000;stroke-width:3.46331596;stroke-opacity:1"
       d="m 492.71489,299.56895 c 0,0 -0.0145,-15.50006 9.62364,-15.50006 10.08209,0 9.62366,15.50006 9.62366,15.50006 l 0,31.32296 -19.2473,0 z"
       id="rect3000"
       inkscape:connector-curvature="0"
       sodipodi:nodetypes="cscccc" />
    <path
       style="fill:#ffffff;stroke:#ffffff;stroke-width:3.6056788px;stroke-linecap:butt;stroke-linejoin:miter;stroke-opacity:1"
       d="m 240.68369,256.73154 0,-116.41586 24.17199,0 0,103.26054 c 0,0 83.70328,104.951 233.55088,101.73163 149.84762,3.21937 233.55089,-101.73163 233.55089,-101.73163 l 0,-103.26054 24.17201,0 0,116.41586 c 0,0 -98.34168,127.48 -257.7229,128.39058 C 339.02537,384.21154 240.68369,256.73154 240.68369,256.73154 z"
       id="path3003"
       inkscape:connector-curvature="0"
       sodipodi:nodetypes="ccccccccccc" />
    <path
       inkscape:connector-curvature="0"
       id="path3009"
       d="m 809.57077,275.12591 0,-135.85685 -26.39873,0 0,124.91103 c 0,0 -103.66326,140.36391 -282.33756,137.78844 C 322.16023,404.544 218.49697,264.18009 218.49697,264.18009 l 0,-124.91103 -26.39873,0 0,135.85685 c 0,0 90.78584,160.32392 308.73624,161.61169 217.95045,-1.28777 308.73629,-161.61169 308.73629,-161.61169 z"
       style="fill:#ffffff;stroke:#ffffff;stroke-width:3.6056788px;stroke-linecap:butt;stroke-linejoin:miter;stroke-opacity:1"
       sodipodi:nodetypes="ccccccccccc" />
    <path
       style="fill:#ffffff;stroke:#ffffff;stroke-width:3.6056788px;stroke-linecap:butt;stroke-linejoin:miter;stroke-opacity:1"
       d="m 342.40997,470.2329 0,82.36723 18.70447,0 0,141.07219 -21.29604,0 0,93.29692 137.80453,0 0,-87.55037 -12.84523,0 0,-14.19736 9.69027,0 36.50749,71.4375 36.5075,-71.4375 9.69026,0 0,14.19736 -12.84523,0 0,87.55037 137.80454,0 0,-93.29692 -21.29605,0 0,-141.07219 18.70446,0 0,-82.36723 -119.77614,0 -48.78934,96.45191 -48.78934,-96.45191 -119.77615,0 z m 26.70457,28.28204 47.09917,0 90.14198,132.62137 90.14197,-132.62137 46.98649,0 0,22.5355 -17.465,0 0,206.76315 12.28184,0 0,25.01438 -70.19806,0 0,-25.69045 17.35234,0 0,-150.64977 -79.09958,119.10007 -79.21226,-119.10007 0,150.64977 17.35232,0 0,25.69045 -70.19806,0 0,-25.01438 12.28186,0 0,-206.76315 -17.46501,0 0,-22.5355 z"
       id="path3017"
       inkscape:connector-curvature="0" />
    <path
       style="fill:#000000;stroke:#000000;stroke-width:3.6056788px;stroke-linecap:butt;stroke-linejoin:miter;stroke-opacity:1"
       d="m 861.72432,485.67177 c -22.30898,15.47973 -74.04521,103.0194 -254.32915,45.71488 -8.19513,-3.18698 -49.57809,-16.09679 -5.79482,12.8774 43.78324,28.97422 209.25811,53.44132 262.69943,-41.20775 10.0163,-11.83744 38.63229,-70.82585 -2.57546,-17.38453 z"
       id="path3011"
       inkscape:connector-curvature="0"
       sodipodi:nodetypes="ccscc" />
    <path
       sodipodi:nodetypes="ccscc"
       inkscape:connector-curvature="0"
       id="path3013"
       d="m 168.16346,485.67177 c 22.30898,15.47973 74.04521,103.0194 254.32915,45.71488 8.19513,-3.18698 49.57809,-16.09679 5.79482,12.8774 -43.78325,28.97422 -209.25811,53.44132 -262.69944,-41.20775 -10.01629,-11.83744 -38.63228,-70.82585 2.57547,-17.38453 z"
       style="fill:#000000;stroke:#000000;stroke-width:3.6056788px;stroke-linecap:butt;stroke-linejoin:miter;stroke-opacity:1" />
    <path
       style="fill:#ffffff;fill-opacity:1;stroke:#ffffff;stroke-width:3.6056788;stroke-opacity:1"
       d="m 108.6508,872.27773 821.3354,0 16.3903,34.60166 -856.847707,0 z"
       id="rect3026"
       inkscape:connector-curvature="0"
       sodipodi:nodetypes="ccccc" />
    <path
       sodipodi:nodetypes="ccccc"
       inkscape:connector-curvature="0"
       id="path3029"
       d="m 77.140662,927.87615 873.602598,0 17.43338,34.49429 -911.374827,0 z"
       style="fill:#ffffff;fill-opacity:1;stroke:#ffffff;stroke-width:3.71287203;stroke-opacity:1" />
    <path
       style="fill:#000000;stroke:#000000;stroke-width:3.6056788px;stroke-linecap:butt;stroke-linejoin:miter;stroke-opacity:1"
       d="m 86.797139,550.84611 c 0,0 12.747985,66.47169 25.495971,88.32542 12.74802,21.85371 55.54486,215.80544 -61.918842,330.53731 z"
       id="path3031"
       inkscape:connector-curvature="0"
       sodipodi:nodetypes="csc" />
    <path
       sodipodi:nodetypes="csc"
       inkscape:connector-curvature="0"
       id="path3033"
       d="m 937.20286,550.84611 c 0,0 -12.74798,66.47169 -25.49597,88.32542 -12.74803,21.85371 -55.54488,215.80544 61.91883,330.53731 z"
       style="fill:#000000;stroke:#000000;stroke-width:3.6056788px;stroke-linecap:butt;stroke-linejoin:miter;stroke-opacity:1" />
  </g>
</svg>
