<?xml version="1.0" encoding="UTF-8" standalone="no"?>
<!-- Created with Inkscape (http://www.inkscape.org/) -->

<svg
   xmlns:dc="http://purl.org/dc/elements/1.1/"
   xmlns:cc="http://creativecommons.org/ns#"
   xmlns:rdf="http://www.w3.org/1999/02/22-rdf-syntax-ns#"
   xmlns:svg="http://www.w3.org/2000/svg"
   xmlns="http://www.w3.org/2000/svg"
   xmlns:sodipodi="http://sodipodi.sourceforge.net/DTD/sodipodi-0.dtd"
   xmlns:inkscape="http://www.inkscape.org/namespaces/inkscape"
   id="svg2985"
   version="1.1"
   inkscape:version="0.48.2 r9819"
   width="1024"
   height="1024"
   sodipodi:docname="Cowboy Head.svg"
   inkscape:export-filename="G:\LEGO Textures Scans\Complete\LEGO Minifigures\Series 1\Cowboy Head.png"
   inkscape:export-xdpi="90"
   inkscape:export-ydpi="90">
  <metadata
     id="metadata2991">
    <rdf:RDF>
      <cc:Work
         rdf:about="">
        <dc:format>image/svg+xml</dc:format>
        <dc:type
           rdf:resource="http://purl.org/dc/dcmitype/StillImage" />
        <dc:title></dc:title>
      </cc:Work>
    </rdf:RDF>
  </metadata>
  <defs
     id="defs2989" />
  <sodipodi:namedview
     pagecolor="#ffffff"
     bordercolor="#666666"
     borderopacity="1"
     objecttolerance="10"
     gridtolerance="10"
     guidetolerance="10"
     inkscape:pageopacity="0"
     inkscape:pageshadow="2"
     inkscape:window-width="1600"
     inkscape:window-height="850"
     id="namedview2987"
     showgrid="false"
     inkscape:zoom="0.306875"
     inkscape:cx="392.31659"
     inkscape:cy="-223.49438"
     inkscape:window-x="-8"
     inkscape:window-y="-8"
     inkscape:window-maximized="1"
     inkscape:current-layer="svg2985"
     inkscape:snap-to-guides="false" />
  <path
     style="fill:#2f1c15"
     d="m 214.08097,1006.2795 c 0,-4.3695 3.57503,-7.94448 7.94451,-7.94448 4.36948,0 7.94451,3.57498 7.94451,7.94448 0,4.3695 -3.57503,7.9445 -7.94451,7.9445 -4.36948,0 -7.94451,-3.575 -7.94451,-7.9445 z m 63.55606,0 c 0,-4.3695 3.57503,-7.94448 7.94451,-7.94448 4.36948,0 7.9445,3.57498 7.9445,7.94448 0,4.3695 -3.57502,7.9445 -7.9445,7.9445 -4.36948,0 -7.94451,-3.575 -7.94451,-7.9445 z m 51.6393,0 c -2.7005,-4.3695 0.66336,-7.94448 7.4757,-7.94448 6.81201,0 12.38556,3.57498 12.38556,7.94448 0,4.3695 -3.36402,7.9445 -7.47562,7.9445 -4.11159,0 -9.68514,-3.575 -12.38564,-7.9445 z m 51.63929,4.4412 c 0,-1.9269 3.57503,-5.713 7.94451,-8.4134 4.36948,-2.7005 7.94451,-1.124 7.94451,3.5033 0,4.6274 -3.57503,8.4134 -7.94451,8.4134 -4.36948,0 -7.94451,-1.5765 -7.94451,-3.5033 z m 58.25974,-1.7931 c 2.91299,-2.9128 7.67969,-2.9128 10.59268,0 2.91299,2.9131 0.52966,5.2964 -5.29634,5.2964 -5.82597,0 -8.20932,-2.3833 -5.29634,-5.2964 z m 79.44508,0 c 2.91298,-2.9128 7.67968,-2.9128 10.59267,0 2.91299,2.9131 0.52966,5.2964 -5.29634,5.2964 -5.82597,0 -8.20932,-2.3833 -5.29633,-5.2964 z m 60.90788,1.7931 c 0,-1.9269 3.57503,-5.713 7.94451,-8.4134 4.36948,-2.7005 7.9445,-1.124 7.9445,3.5033 0,4.6274 -3.57502,8.4134 -7.9445,8.4134 -4.36948,0 -7.94451,-1.5765 -7.94451,-3.5033 z m 55.61155,-4.4412 c 0,-4.3695 3.57503,-7.94448 7.94451,-7.94448 4.36948,0 7.9445,3.57498 7.9445,7.94448 0,4.3695 -3.57502,7.9445 -7.9445,7.9445 -4.36948,0 -7.94451,-3.575 -7.94451,-7.9445 z M 108.66706,991.02737 c -3.4557,-13.21452 -2.4218,-16.3163 3.47358,-10.42092 4.61655,4.61655 6.83068,13.08318 4.92019,18.81463 -1.98335,5.95002 -5.58459,2.34882 -8.39377,-8.39371 z m 33.597,3.71662 c 5.26546,-6.34453 7.24984,-18.85713 4.4096,-27.80575 -3.00263,-9.46063 -1.6148,-16.27026 3.31587,-16.27026 9.29119,0 11.26445,23.22219 3.65766,43.04503 -2.6522,6.91159 -8.45248,12.56649 -12.88949,12.56649 -4.76845,0 -4.15251,-4.717 1.50636,-11.53551 z m 548.48736,3.59103 c 0,-5.82591 2.38335,-8.2093 5.29635,-5.2964 2.91297,2.91305 2.91297,7.67978 0,10.59278 -2.913,2.9129 -5.29635,0.5299 -5.29635,-5.29638 z m 50.31521,2.64808 c 2.91299,-2.91283 7.67969,-2.91283 10.59269,0 2.91297,2.9131 0.52965,5.2964 -5.29635,5.2964 -5.82596,0 -8.20932,-2.3833 -5.29634,-5.2964 z m 68.85239,-2.64808 c 0,-5.82591 2.38335,-8.2093 5.29636,-5.2964 2.91294,2.91305 2.91294,7.67978 0,10.59278 -2.91301,2.9129 -5.29636,0.5299 -5.29636,-5.29638 z M 63.135342,994.36276 c 0,-2.18473 1.787514,-3.97225 3.972253,-3.97225 2.18474,0 3.972254,1.78752 3.972254,3.97225 0,2.18474 -1.787514,3.97226 -3.972254,3.97226 -2.184739,0 -3.972253,-1.78752 -3.972253,-3.97226 z m 116.841538,-1.76171 c -6.62891,-10.24752 14.8822,-49.87758 27.07328,-49.87758 11.2739,0 8.098,13.77951 -4.26969,18.52548 -6.2153,2.38502 -12.47605,12.59887 -13.91274,22.69737 -1.75685,12.34914 -4.66796,15.18286 -8.89085,8.65473 z m 709.38721,1.76171 c 0,-2.18473 1.78751,-3.97225 3.97225,-3.97225 2.18474,0 3.97226,1.78752 3.97226,3.97225 0,2.18474 -1.78752,3.97226 -3.97226,3.97226 -2.18474,0 -3.97225,-1.78752 -3.97225,-3.97226 z M 245.859,982.446 c 0,-4.36947 3.57503,-7.9445 7.94451,-7.9445 4.36948,0 7.9445,3.57503 7.9445,7.9445 0,4.36948 -3.57502,7.94451 -7.9445,7.94451 -4.36948,0 -7.94451,-3.57503 -7.94451,-7.94451 z m 526.98565,-5.29636 c 2.91299,-2.91293 7.67969,-2.91293 10.5927,0 2.91294,2.91301 0.52991,5.29636 -5.29636,5.29636 -5.82596,0 -8.20931,-2.38335 -5.29634,-5.29636 z m 71.50054,0 c 2.91301,-2.91293 7.67972,-2.91293 10.59273,0 2.91293,2.91301 0.5299,5.29636 -5.29637,5.29636 -5.82594,0 -8.20929,-2.38335 -5.29636,-5.29636 z m 124.46397,1.32411 c 0,-2.18474 1.78752,-3.97225 3.97225,-3.97225 2.18474,0 3.97226,1.78751 3.97226,3.97225 0,2.18474 -1.78752,3.97225 -3.97226,3.97225 -2.18473,0 -3.97225,-1.78751 -3.97225,-3.97225 z M 301.47055,966.55699 c 0,-4.36948 3.57503,-7.94451 7.94451,-7.94451 4.36948,0 7.94451,3.57503 7.94451,7.94451 0,4.36948 -3.57503,7.94451 -7.94451,7.94451 -4.36948,0 -7.94451,-3.57503 -7.94451,-7.94451 z m 105.92681,2.64814 c 2.91294,-2.91293 7.67964,-2.91293 10.59265,0 2.91302,2.91301 0.52991,5.29637 -5.29636,5.29637 -5.82595,0 -8.2093,-2.38336 -5.29629,-5.29637 z m 516.3929,0 c 2.91301,-2.91293 7.67972,-2.91293 10.59273,0 2.91293,2.91301 0.5299,5.29637 -5.29636,5.29637 -5.82595,0 -8.2093,-2.38336 -5.29637,-5.29637 z M 461.77608,948.83439 C 326.69969,929.86068 302.71522,922.64281 296.83033,899.1955 c -2.64005,-10.51877 -2.80068,-22.36014 -0.35671,-26.31415 2.44373,-3.95402 59.08695,-9.35409 125.87388,-12.00015 106.03149,-4.20091 222.52236,-18.79077 269.7734,-33.78767 8.2169,-2.60793 13.95155,-10.35621 12.74368,-17.21839 -3.91557,-22.24507 16.99719,-19.98747 41.46045,4.47578 24.95313,24.95312 31.58947,43.44588 13.03616,36.3263 -7.864,-3.0177 -12.23465,6.38897 -15.93729,34.30084 -8.79938,66.33302 -17.10561,72.19647 -106.37981,75.0947 -44.81717,1.45496 -118.56862,-3.27408 -175.26776,-11.23837 z m 236.91985,-17.71824 c 0,-2.0145 -7.79701,-10.92675 -17.32669,-19.80501 l -17.32668,-16.14225 18.71152,-19.9175 c 10.29135,-10.95464 16.88311,-19.91751 14.64836,-19.91751 -2.23474,0 -37.71444,5.04443 -78.84378,11.20984 -41.12934,6.1654 -120.49622,13.80725 -176.37084,16.98187 -136.21043,7.73903 -131.04467,25.83171 12.12969,42.48334 62.51851,7.27107 244.37842,11.07179 244.37842,5.10722 z M 55.190839,954.64023 c 0,-2.18474 1.787514,-3.97225 3.97225,-3.97225 2.18474,0 3.972253,1.78751 3.972253,3.97225 0,2.18474 -1.787513,3.97225 -3.972253,3.97225 -2.184736,0 -3.97225,-1.78751 -3.97225,-3.97225 z m 818.284241,-3.50337 c 0,-4.62736 3.57502,-8.41339 7.9445,-8.41339 4.36948,0 7.94451,1.57651 7.94451,3.50337 0,1.92686 -3.57503,5.7129 -7.94451,8.41339 -4.36948,2.70049 -7.9445,1.12391 -7.9445,-3.50337 z m -55.61155,-8.41339 c 0,-4.36948 3.57502,-7.94451 7.9445,-7.94451 4.36948,0 7.94451,3.57503 7.94451,7.94451 0,4.36948 -3.57503,7.94451 -7.94451,7.94451 -4.36948,0 -7.9445,-3.57503 -7.9445,-7.94451 z m 158.89014,3.97225 c 0,-2.18474 1.78751,-3.97225 3.97225,-3.97225 2.18474,0 3.97226,1.78751 3.97226,3.97225 0,2.18474 -1.78752,3.97226 -3.97226,3.97226 -2.18474,0 -3.97225,-1.78752 -3.97225,-3.97226 z M 86.968863,934.77896 c 0,-5.82597 2.383352,-8.20933 5.296365,-5.29634 2.913012,2.91299 2.913012,7.67969 0,10.59271 -2.913013,2.91293 -5.296365,0.5299 -5.296365,-5.29637 z m 150.945627,0 c 0,-4.36948 5.36255,-7.94452 11.91676,-7.94452 6.55422,0 11.91676,3.57504 11.91676,7.94452 0,4.36948 -5.36254,7.94451 -11.91676,7.94451 -6.55421,0 -11.91676,-3.57503 -11.91676,-7.94451 z M 27.385064,926.83444 c -2.700497,-4.36947 -3.122429,-7.9445 -0.937691,-7.9445 2.18474,0 6.181701,3.57503 8.882198,7.9445 2.700497,4.36949 3.122509,7.94452 0.93777,7.94452 -2.18474,0 -6.18178,-3.57503 -8.882277,-7.94452 z m 909.646066,3.97227 c 0,-2.18475 1.78752,-3.97227 3.97226,-3.97227 2.18474,0 3.97225,1.78752 3.97225,3.97227 0,2.18474 -1.78751,3.97225 -3.97225,3.97225 -2.18474,0 -3.97226,-1.78751 -3.97226,-3.97225 z M 126.69139,910.94543 c 0,-4.36948 1.57651,-7.94451 3.50345,-7.94451 1.92686,0 5.71282,3.57503 8.41331,7.94451 2.70051,4.36948 1.124,7.94451 -3.50336,7.94451 -4.62736,0 -8.4134,-3.57503 -8.4134,-7.94451 z m 39.72254,0 c 0,-4.36948 3.36402,-7.94451 7.4757,-7.94451 4.1116,0 9.68507,3.57503 12.38557,7.94451 2.7005,4.36948 -0.66337,7.94451 -7.47563,7.94451 -6.81209,0 -12.38564,-3.57503 -12.38564,-7.94451 z m 44.11418,0.67854 c -2.55797,-4.13882 -1.26452,-9.618 2.87432,-12.17594 4.13885,-2.55793 9.61802,-1.26447 12.176,2.87435 2.55789,4.13884 1.26444,9.618 -2.87441,12.17595 -4.13877,2.55793 -9.61801,1.26448 -12.17591,-2.87436 z m 686.78049,-0.67854 c 0,-4.36948 1.5765,-7.94451 3.50337,-7.94451 1.92686,0 5.7129,3.57503 8.41339,7.94451 2.70049,4.36948 1.12398,7.94451 -3.50337,7.94451 -4.62736,0 -8.41339,-3.57503 -8.41339,-7.94451 z m 103.2786,3.97225 c 0,-2.18474 1.7875,-3.97225 3.9722,-3.97225 2.1848,0 3.9723,1.78751 3.9723,3.97225 0,2.18474 -1.7875,3.97226 -3.9723,3.97226 -2.1847,0 -3.9722,-1.78752 -3.9722,-3.97226 z M 849.64155,903.00092 c 0,-5.82596 2.38336,-8.20931 5.29637,-5.29633 2.91293,2.91298 2.91293,7.67968 0,10.59268 -2.91301,2.91298 -5.29637,0.52966 -5.29637,-5.29635 z m -786.506208,-7.9445 c 0,-5.82597 2.383352,-8.20932 5.296365,-5.29634 2.913013,2.91298 2.913013,7.67969 0,10.59268 -2.913013,2.91298 -5.296365,0.52966 -5.296365,-5.29634 z M 15.468303,879.1674 c 0,-4.36948 3.575028,-7.94451 7.944507,-7.94451 4.369479,0 7.944507,3.57503 7.944507,7.94451 0,4.36948 -3.575028,7.94451 -7.944507,7.94451 -4.369479,0 -7.944507,-3.57503 -7.944507,-7.94451 z m 222.446187,-3.50339 c 0,-6.81208 3.57503,-12.38562 7.94451,-12.38562 4.36948,0 7.94451,3.36404 7.94451,7.47565 0,4.1116 -3.57503,9.68513 -7.94451,12.38561 -4.36948,2.7005 -7.94451,-0.66351 -7.94451,-7.47564 z m 722.95016,3.50339 c 0,-5.82596 2.38336,-8.20932 5.29637,-5.29633 2.91293,2.91298 2.91293,7.67968 0,10.59268 -2.91301,2.91298 -5.29637,0.52966 -5.29637,-5.29635 z M 94.913371,871.22289 c 0,-4.36947 3.575028,-7.9445 7.944509,-7.9445 4.36948,0 7.9445,3.57503 7.9445,7.9445 0,4.36948 -3.57502,7.94451 -7.9445,7.94451 -4.369481,0 -7.944509,-3.57503 -7.944509,-7.94451 z m 730.894659,0.4689 c 0,-4.62738 3.57503,-8.4134 7.94451,-8.4134 4.36948,0 7.94451,1.57652 7.94451,3.5034 0,1.92686 -3.57503,5.71288 -7.94451,8.41336 -4.36948,2.70049 -7.94451,1.12395 -7.94451,-3.50336 z m 58.2597,2.1793 c 2.91301,-2.91299 7.67971,-2.91299 10.59272,0 2.91294,2.91296 0.52991,5.29631 -5.29636,5.29631 -5.82595,0 -8.2093,-2.38335 -5.29636,-5.29631 z m -741.48732,-10.5927 c 0,-4.36948 3.57503,-7.94451 7.9445,-7.94451 4.36948,0 7.94451,3.57503 7.94451,7.94451 0,4.36948 -3.57503,7.9445 -7.94451,7.9445 -4.36947,0 -7.9445,-3.57502 -7.9445,-7.9445 z m 858.00679,3.97225 c 0,-2.18474 1.7875,-3.97225 3.9722,-3.97225 2.1848,0 3.9723,1.78751 3.9723,3.97225 0,2.18474 -1.7875,3.97225 -3.9723,3.97225 -2.1847,0 -3.9722,-1.78751 -3.9722,-3.97225 z M 39.911406,842.7109 15.468303,822.14342 l 0,-217.76773 0,-217.76772 35.750282,0 c 19.662651,0 35.750278,1.65516 35.750278,3.67814 0,2.02298 -7.150056,21.81799 -15.889014,43.9889 -9.161367,23.2427 -15.88901,59.04401 -15.88901,84.55431 0,37.03807 3.827819,49.07657 23.50382,73.91952 24.668251,31.14618 21.426261,48.08336 -9.203711,48.08336 -25.985049,0 -10.564129,48.72376 31.285072,98.84796 18.33187,21.95672 18.66816,23.99518 5.54225,33.59312 -7.685678,5.61988 -22.333443,8.11986 -32.550635,5.5555 -23.378139,-5.86754 -24.107762,6.83697 -2.687786,46.80206 8.738958,16.305 15.889014,31.44592 15.889014,33.64651 0,10.69312 -25.20792,1.81875 -47.057457,-16.56645 z m 905.316864,6.6646 c 0.13903,-3.27711 5.50157,-12.89796 11.91676,-21.3797 6.41528,-8.48172 11.66413,-25.00619 11.66413,-36.72103 0,-18.82803 -3.81844,-21.91031 -32.90536,-26.56148 l -32.90527,-5.26179 16.52323,-17.60099 c 19.15039,-20.39959 48.85816,-82.7056 49.11294,-103.00444 0.1144,-9.13793 -5.95194,-13.94458 -17.70068,-14.02455 -29.52759,-0.20091 -40.75278,-11.17575 -30.6805,-29.99607 4.78308,-8.93716 13.88486,-36.16899 20.22624,-60.51519 10.15261,-38.97851 10.10208,-48.78264 -0.42264,-82.08117 -6.57369,-20.79844 -15.33671,-44.07165 -19.47318,-51.71824 -6.77976,-12.53274 -2.81672,-13.90288 40.21342,-13.90288 l 47.73434,0 0,209.91832 0,209.91832 -24.44468,24.44464 c -23.48446,23.4845 -39.39158,31.05197 -38.85875,18.48625 z m -39.97517,-9.93063 c 0,-5.82597 2.38336,-8.20932 5.29637,-5.29634 2.91293,2.91298 2.91293,7.67969 0,10.59268 -2.91301,2.91298 -5.29637,0.52966 -5.29637,-5.29634 z m -619.67156,-7.94451 c 0,-4.36948 3.57502,-7.94451 7.9445,-7.94451 4.36948,0 7.94451,3.57503 7.94451,7.94451 0,4.36948 -3.57503,7.94451 -7.94451,7.94451 -4.36948,0 -7.9445,-3.57503 -7.9445,-7.94451 z m 55.61155,0 c 0,-4.36948 5.36254,-7.94451 11.91676,-7.94451 6.55422,0 11.91676,3.57503 11.91676,7.94451 0,4.36948 -5.36254,7.94451 -11.91676,7.94451 -6.55422,0 -11.91676,-3.57503 -11.91676,-7.94451 z m 76.58091,2.43219 c -8.94694,-8.94698 -5.44905,-18.32121 6.83641,-18.32121 6.55422,0 11.91678,3.36405 11.91678,7.47566 0,10.01784 -12.40609,17.19266 -18.75319,10.84555 z m 376.256,-10.3767 c 0,-4.36948 3.57503,-7.94451 7.94451,-7.94451 4.36948,0 7.94451,3.57503 7.94451,7.94451 0,4.36948 -3.57503,7.94451 -7.94451,7.94451 -4.36948,0 -7.94451,-3.57503 -7.94451,-7.94451 z m -325.72478,-3.12227 c 0,-1.71725 5.54823,-5.25134 12.32939,-7.85351 7.07002,-2.71303 10.25891,-1.38115 7.47564,3.12228 -4.66548,7.5489 -19.80503,11.16558 -19.80503,4.73123 z m 391.92898,-2.17406 c 2.91302,-2.91299 7.67972,-2.91299 10.59273,0 2.91294,2.91298 0.5299,5.29633 -5.29636,5.29633 -5.82595,0 -8.2093,-2.38335 -5.29637,-5.29633 z M 372.97112,803.69458 c 0,-6.55422 3.57502,-11.91676 7.9445,-11.91676 4.36948,0 7.94451,5.36254 7.94451,11.91676 0,6.55422 -3.57503,11.91676 -7.94451,11.91676 -4.36948,0 -7.9445,-5.36254 -7.9445,-11.91676 z m 150.94565,8.41337 c 0,-1.92686 3.57503,-5.71287 7.94451,-8.41337 4.36948,-2.70048 7.9445,-1.12395 7.9445,3.5034 0,4.62735 -3.57502,8.41336 -7.9445,8.41336 -4.36948,0 -7.94451,-1.57651 -7.94451,-3.50339 z m 55.61155,-4.44111 c 0,-4.36948 1.57653,-7.94451 3.50339,-7.94451 1.92687,0 5.71289,3.57503 8.41337,7.94451 2.70049,4.36948 1.12396,7.9445 -3.50339,7.9445 -4.62734,0 -8.41337,-3.57502 -8.41337,-7.9445 z m 39.72254,0 c 0,-4.36948 3.57502,-7.94451 7.9445,-7.94451 4.36948,0 7.94451,3.57503 7.94451,7.94451 0,4.36948 -3.57503,7.9445 -7.94451,7.9445 -4.36948,0 -7.9445,-3.57502 -7.9445,-7.9445 z M 314.04631,800.7886 c -3.42226,-5.53733 -4.0768,-12.21339 -1.45448,-14.83567 7.11002,-7.11002 14.86226,3.34704 11.02205,14.8677 -2.69096,8.07301 -4.56221,8.06674 -9.56757,-0.0318 z m 119.83272,-6.36261 c -2.91301,-2.91298 -5.29636,-8.99053 -5.29636,-13.50566 0,-4.97806 3.70034,-4.509 9.40102,1.19168 5.17055,5.17055 7.5539,11.2481 5.29633,13.50566 -2.25756,2.25756 -6.48801,1.72131 -9.40099,-1.19168 z M 555.6948,783.83332 c 0,-5.82597 2.38335,-8.20932 5.29634,-5.29634 2.91299,2.91298 2.91299,7.67969 0,10.59268 -2.91299,2.91298 -5.29634,0.52966 -5.29634,-5.29634 z m 206.55719,0 c 0,-4.36948 3.57502,-7.94451 7.9445,-7.94451 4.36947,0 7.9445,3.57503 7.9445,7.94451 0,4.36947 -3.57503,7.9445 -7.9445,7.9445 -4.36948,0 -7.9445,-3.57503 -7.9445,-7.9445 z m 63.55604,0 c 0,-4.36948 3.57503,-7.94451 7.94451,-7.94451 4.36948,0 7.94451,3.57503 7.94451,7.94451 0,4.36947 -3.57503,7.9445 -7.94451,7.9445 -4.36948,0 -7.94451,-3.57503 -7.94451,-7.9445 z m -338.96562,-5.29634 c 2.91298,-2.91298 7.67968,-2.91298 10.59268,0 2.91298,2.91298 0.52966,5.29634 -5.29635,5.29634 -5.82596,0 -8.20932,-2.38336 -5.29633,-5.29634 z m 188.02,-2.64817 c 0,-4.36947 1.57652,-7.9445 3.50339,-7.9445 1.92687,0 5.71287,3.57503 8.41337,7.9445 2.70049,4.36948 1.12395,7.94451 -3.50339,7.94451 -4.62736,0 -8.41337,-3.57503 -8.41337,-7.94451 z m -47.66705,-7.9445 c 0,-4.36948 3.57503,-7.94451 7.94451,-7.94451 4.36948,0 7.94451,3.57503 7.94451,7.94451 0,4.36948 -3.57503,7.9445 -7.94451,7.9445 -4.36948,0 -7.94451,-3.57502 -7.94451,-7.9445 z m 95.33409,-15.88901 c 0,-4.36948 1.57653,-7.94451 3.50339,-7.94451 1.92687,0 5.71288,3.57503 8.41337,7.94451 2.70049,4.36948 1.12396,7.9445 -3.50339,7.9445 -4.62736,0 -8.41337,-3.57502 -8.41337,-7.9445 z m -532.282,-59.40066 c 0,-16.51842 35.26011,-37.70517 57.1384,-34.33274 17.27201,2.66238 16.83823,3.63046 -7.48523,16.70577 -14.20081,7.63377 -25.81965,17.36282 -25.81965,21.62009 0,4.25727 -5.36254,7.74049 -11.91676,7.74049 -6.55422,0 -11.91676,-5.28013 -11.91676,-11.73361 z m 588.99957,-12.36421 c -10.31541,-8.5936 -23.72177,-15.62471 -29.79192,-15.62471 -6.07016,0 -11.03664,-3.9626 -11.03664,-8.80576 0,-11.77246 39.40825,-1.76382 57.59767,14.62827 28.65346,25.82213 13.2609,34.81969 -16.76911,9.8022 z M 182.30294,632.3207 c 0,-12.11803 32.99188,-21.56777 54.87081,-15.71644 33.84718,9.05211 26.153,20.18882 -15.15153,21.93083 -22.12322,0.93304 -39.71928,-1.81999 -39.71928,-6.21439 z m 605.11263,-0.38594 c -10.19217,-3.83075 -28.06733,-4.72189 -39.72255,-1.98034 -15.32168,3.60398 -18.92206,2.54131 -12.99854,-3.8366 11.55121,-12.43733 53.26091,-18.89157 66.26218,-10.25355 17.65301,11.72863 7.37155,23.93054 -13.54109,16.07049 z M 148.08063,571.02002 c -17.81238,-19.68251 -16.94405,-47.49079 2.47766,-79.34536 29.84187,-48.94519 77.66915,-51.35571 167.94878,-8.46473 27.7705,13.19347 64.7919,25.07334 82.26982,26.39969 28.51737,2.16412 31.99041,4.74044 33.84775,25.1084 1.13833,12.48327 -1.12421,27.59285 -5.02786,33.57685 -11.05669,16.94903 -65.29384,12.22196 -118.96661,-10.36857 -67.53768,-28.42621 -105.85642,-27.31115 -130.19569,3.78864 -18.32472,23.41471 -19.32454,23.70226 -32.35385,9.30508 z m 425.48931,6.00855 c -13.80738,-5.54989 -17.87514,-13.57081 -17.87514,-35.24671 0,-25.88092 1.85152,-28.06178 23.82396,-28.06178 13.10318,0 49.53456,-13.10284 80.95864,-29.1174 98.83752,-50.37032 160.07113,-44.14727 186.43355,18.94689 12.10981,28.98284 8.89522,65.78206 -5.74635,65.78206 -4.49579,0 -16.63817,-9.83133 -26.98312,-21.84739 -16.26653,-18.89434 -24.24123,-21.68619 -58.99835,-20.65471 -26.77869,0.7947 -52.52099,8.08492 -77.14473,21.84739 -20.32541,11.36008 -45.44258,20.65471 -55.81593,20.65471 -10.37334,0 -18.86063,3.57503 -18.86063,7.94451 0,9.42965 -5.83693,9.38115 -29.7919,-0.24756 z"
     id="path3023"
     inkscape:connector-curvature="0"
     sodipodi:nodetypes="ssssssssssssssssssssccscccscssssssssssssssscsssssccsccscsccsssssssssssssssssssssscssccscssssssssssssssccsccscsssssssccsscssssssssssssssssssssssssssssssssssssssssssssssssssssssscscscsssssssssssccssssssssssssssssccsssssssssssssssssssssssssscccsssssssssssscssscscsssssscccscsccssssssssssssssssssssssssccscsssssssssssssssssssscssccsssssssssssssssssssssssssssssssssssssssssssssssssssssssssssssssssssssssssssssss" />
  <path
     sodipodi:type="arc"
     style="fill:#000000;fill-opacity:1;stroke:#000000;stroke-opacity:1"
     id="path3027"
     sodipodi:cx="48.388874"
     sodipodi:cy="57.660957"
     sodipodi:rx="6.9272494"
     sodipodi:ry="6.9272494"
     d="m 55.316123,57.660957 a 6.9272494,6.9272494 0 1 1 -13.854498,0 6.9272494,6.9272494 0 1 1 13.854498,0 z"
     transform="matrix(8.1919999,0,0,8.1919999,-40.402067,177.34292)" />
  <path
     sodipodi:type="arc"
     style="fill:#ffffff;fill-opacity:1;stroke:#ffffff;stroke-opacity:1"
     id="path3029"
     sodipodi:cx="48.478813"
     sodipodi:cy="54.529659"
     sodipodi:rx="3.2634923"
     sodipodi:ry="2.0169492"
     d="m 51.742306,54.529659 a 3.2634923,2.0169492 0 1 1 -6.526985,0 3.2634923,2.0169492 0 1 1 6.526985,0 z"
     transform="matrix(5.3774117,0,0,8.1919999,96.40314,180.88353)" />
  <path
     transform="matrix(8.1919999,0,0,8.1919999,241.66901,177.34094)"
     d="m 55.316123,57.660957 a 6.9272494,6.9272494 0 1 1 -13.854498,0 6.9272494,6.9272494 0 1 1 13.854498,0 z"
     sodipodi:ry="6.9272494"
     sodipodi:rx="6.9272494"
     sodipodi:cy="57.660957"
     sodipodi:cx="48.388874"
     id="path3035"
     style="fill:#000000;fill-opacity:1;stroke:#000000;stroke-opacity:1"
     sodipodi:type="arc" />
  <path
     transform="matrix(5.3774117,0,0,8.1919999,378.47422,180.88155)"
     d="m 51.742306,54.529659 a 3.2634923,2.0169492 0 1 1 -6.526985,0 3.2634923,2.0169492 0 1 1 6.526985,0 z"
     sodipodi:ry="2.0169492"
     sodipodi:rx="3.2634923"
     sodipodi:cy="54.529659"
     sodipodi:cx="48.478813"
     id="path3037"
     style="fill:#ffffff;fill-opacity:1;stroke:#ffffff;stroke-opacity:1"
     sodipodi:type="arc" />
  <path
     style="fill:#000000;fill-opacity:1;stroke:#000000;stroke-width:0.59010166;stroke-opacity:1"
     d="m 599.9102,967.72226 c -61.84552,-1.57572 -122.35604,-7.89367 -208.21704,-21.74008 -67.05456,-10.81359 -90.54497,-18.80964 -98.41235,-33.49927 -4.58233,-8.55592 -6.53914,-30.01065 -3.08526,-33.82715 2.17844,-2.40715 19.96769,-5.13145 50.08753,-7.67055 24.78174,-2.0891 34.93792,-2.69636 94.0458,-5.62311 99.19397,-4.91163 197.20066,-16.80622 250.05472,-30.34792 6.16656,-1.57994 12.7115,-3.43595 14.54429,-4.12449 4.00329,-1.50392 8.19561,-5.05019 10.39683,-8.79467 1.53439,-2.61011 1.61346,-3.12059 1.61346,-10.41595 0,-6.64374 0.1608,-7.94797 1.20027,-9.73667 5.27497,-9.0768 21.54934,-2.71173 40.62099,15.88726 12.97497,12.65341 22.51649,25.48294 24.53949,32.99578 0.57237,2.12557 0.53584,2.78493 -0.21774,3.93511 -1.37871,2.10417 -2.82079,2.24832 -8.35937,0.83562 -4.75439,-1.21268 -5.21503,-1.23624 -7.05119,-0.36061 -2.40897,1.14876 -4.42914,4.48506 -6.41778,10.59892 -1.87581,5.76695 -2.82105,10.73366 -5.41609,28.45887 -4.80497,32.81976 -9.03935,45.56357 -18.24501,54.91025 -10.48865,10.6493 -27.23632,15.29816 -62.55079,17.36294 -10.97658,0.64176 -46.21549,1.82809 -49.86359,1.67864 -1.13594,-0.0467 -9.80616,-0.28181 -19.26716,-0.5229 l 0,0 z m 74.73672,-26.52057 c 20.60653,-0.52732 28.53695,-1.16652 29.78114,-2.40044 1.74048,-1.72609 -7.71451,-12.09393 -29.65027,-32.51293 l -5.47511,-5.09654 11.57943,-12.30075 c 15.89235,-16.88237 24.16248,-27.28054 22.78991,-28.65417 -0.50201,-0.50242 -19.73312,2.05279 -60.59554,8.05119 -63.20594,9.27831 -114.94774,14.60466 -195.32366,20.1068 -41.16956,2.81827 -52.19366,3.73975 -66.97654,5.59839 -19.36731,2.43503 -31.02033,4.91898 -37.50068,7.99361 -4.84703,2.29969 -6.24929,4.10962 -4.99694,6.44966 4.04005,7.5489 39.41905,15.60815 103.57314,23.5937 37.50302,4.66817 112.68242,8.55006 181.45627,9.3695 6.00429,0.0713 15.16562,0.18022 20.35852,0.24158 5.19289,0.0614 19.13404,-0.13648 30.98033,-0.43959 z"
     id="path3052"
     inkscape:connector-curvature="0" />
  <path
     style="fill:#000000;fill-opacity:1;stroke:#000000;stroke-width:0.83452982;stroke-opacity:1"
     d="m 810.44865,693.30438 c -4.9732,-1.55424 -10.08632,-4.69301 -21.10202,-12.95384 -15.27251,-11.45312 -23.65214,-15.92827 -32.12936,-17.15869 -5.20204,-0.75506 -8.11798,-2.2017 -9.89044,-4.9068 -4.73038,-7.21949 3.15562,-10.46649 17.64837,-7.26657 16.12904,3.56121 30.7811,11.10542 41.91452,21.5814 10.59111,9.96573 15.06132,17.56562 12.08353,20.54343 -1.61899,1.61896 -3.73203,1.65888 -8.5246,0.16106 l 0,0 z"
     id="path3054"
     inkscape:connector-curvature="0" />
  <path
     style="fill:#000000;fill-opacity:1;stroke:#000000;stroke-width:0.83452982;stroke-opacity:1"
     d="m 798.94372,630.18773 c -13.26661,-4.46755 -29.02586,-5.2547 -46.44109,-2.31964 -14.06302,2.37008 -15.65692,1.76795 -10.09827,-3.81482 11.7405,-11.79146 50.79432,-18.71971 64.88472,-11.51071 6.59186,3.37258 11.26613,8.74006 11.26613,12.9369 0,5.63707 -9.83892,7.99916 -19.61149,4.70827 l 0,0 z"
     id="path3056"
     inkscape:connector-curvature="0" />
  <path
     style="fill:#000000;fill-opacity:1;stroke:#000000;stroke-width:0.83452982;stroke-opacity:1"
     d="m 186.23075,702.05963 c -8.93232,-5.44635 -5.93109,-18.47802 6.49792,-28.21463 12.7895,-10.01901 27.96548,-16.23603 39.98661,-16.38097 6.97945,-0.0841 15.06794,1.24377 17.52512,2.87718 1.76505,1.17331 -1.01427,3.30643 -13.37445,10.26484 -20.1303,11.33276 -30.87423,19.78343 -32.19123,25.32013 -1.63168,6.85962 -11.74,10.22109 -18.44397,6.13345 z"
     id="path3058"
     inkscape:connector-curvature="0" />
  <path
     style="fill:#000000;fill-opacity:1;stroke:#000000;stroke-width:0.83452982;stroke-opacity:1"
     d="m 186.12611,635.25979 c -13.95504,-1.96576 -16.46237,-4.79605 -9.95023,-11.23192 7.2644,-7.17933 24.50008,-11.89812 40.26607,-11.02406 17.01956,0.94355 35.3869,8.80388 33.29719,14.24957 -0.8435,2.19816 -6.63368,4.71922 -14.8867,6.48174 -8.65697,1.84878 -39.56068,2.81577 -48.72633,1.52467 l 0,0 z"
     id="path3060"
     inkscape:connector-curvature="0" />
  <path
     inkscape:connector-curvature="0"
     id="path3064"
     d="m 680.44046,720.16986 c -14.9324,-6.24275 -33.04197,-8.44599 -53.36724,-6.49274 -16.41293,1.57724 -18.20159,0.75178 -11.33219,-5.22954 14.50897,-12.63333 60.11709,-17.41291 75.77415,-7.9409 7.32479,4.43128 12.27414,11.00555 11.92914,15.84552 -0.46342,6.50092 -12.00423,8.4162 -23.00386,3.81766 l 0,0 z"
     style="fill:#000000;fill-opacity:1;stroke:#000000;stroke-width:0.96485871;stroke-opacity:1" />
  <path
     style="fill:#ffffff;fill-opacity:1;stroke:#ffffff;stroke-width:0.59010166;stroke-opacity:1"
     d="m 592.45088,940.19251 c -60.44549,-1.45627 -121.3367,-5.14832 -155.19674,-9.41012 -39.8587,-5.01681 -69.05839,-10.39267 -84.77348,-15.60734 -10.37756,-3.44354 -14.07988,-5.7929 -13.67127,-8.67528 0.41238,-2.90909 11.77134,-7.03003 26.45234,-9.59671 15.10581,-2.64095 34.34699,-4.48796 80.25383,-7.70376 45.16338,-3.16372 77.15734,-5.8703 112.11932,-9.4849 33.55871,-3.46952 45.34883,-4.97433 94.3969,-12.04811 40.10328,-5.78375 50.76812,-7.09461 50.76812,-6.24011 0,1.75057 -9.12789,12.65391 -23.25547,27.77884 -6.03374,6.4597 -10.97043,11.89702 -10.97043,12.08294 0,0.18596 3.87914,3.91683 8.62033,8.29089 10.31741,9.51852 22.87133,22.36967 25.27386,25.87227 2.05283,2.99276 1.76163,3.34964 -3.17046,3.88558 -13.38844,1.45483 -64.86848,1.86718 -106.84685,0.85581 l 0,0 z"
     id="path3069"
     inkscape:connector-curvature="0" />
  <path
     style="fill:#ffffff;fill-opacity:1;stroke:#ffffff;stroke-width:0.59010166;stroke-opacity:1"
     d="m 633.1679,646.19294 c -7.74641,-2.70755 -12.73446,-8.21603 -14.1371,-15.6121 -1.46585,-7.72941 3.05905,-16.34174 10.59649,-20.16848 10.1986,-5.17779 23.14727,-0.88865 28.16528,9.32953 2.27275,4.62802 2.3123,10.72431 0.1001,15.42615 -1.95674,4.15884 -5.85245,8.04229 -9.97219,9.94083 -3.77043,1.73756 -11.29988,2.29085 -14.75255,1.08407 z"
     id="path3073"
     inkscape:connector-curvature="0" />
  <path
     style="fill:#ffffff;fill-opacity:1;stroke:#ffffff;stroke-width:0.59010166;stroke-opacity:1"
     d="m 351.0993,646.19294 c -7.74642,-2.70755 -12.73447,-8.21603 -14.13711,-15.6121 -1.46585,-7.72941 3.05906,-16.34174 10.59649,-20.16848 10.19861,-5.17779 23.14727,-0.88865 28.16528,9.32953 2.27276,4.62802 2.3123,10.72431 0.1001,15.42615 -1.95675,4.15884 -5.85244,8.04229 -9.97219,9.94083 -3.77042,1.73756 -11.29988,2.29085 -14.75254,1.08407 z"
     id="path3075"
     inkscape:connector-curvature="0" />
</svg>
