<?xml version="1.0" encoding="UTF-8" standalone="no"?>
<!-- Created with Inkscape (http://www.inkscape.org/) -->

<svg
   xmlns:dc="http://purl.org/dc/elements/1.1/"
   xmlns:cc="http://creativecommons.org/ns#"
   xmlns:rdf="http://www.w3.org/1999/02/22-rdf-syntax-ns#"
   xmlns:svg="http://www.w3.org/2000/svg"
   xmlns="http://www.w3.org/2000/svg"
   xmlns:sodipodi="http://sodipodi.sourceforge.net/DTD/sodipodi-0.dtd"
   xmlns:inkscape="http://www.inkscape.org/namespaces/inkscape"
   width="2048"
   height="2048"
   id="svg2"
   version="1.1"
   inkscape:version="0.48.2 r9819"
   sodipodi:docname="Skales Ears.svg"
   inkscape:export-filename="F:\LEGO Textures Scans\Complete\Skales (Ninjago)\Skales Ears.png"
   inkscape:export-xdpi="90"
   inkscape:export-ydpi="90">
  <defs
     id="defs4" />
  <sodipodi:namedview
     id="base"
     pagecolor="#ffffff"
     bordercolor="#666666"
     borderopacity="1.0"
     inkscape:pageopacity="0.0"
     inkscape:pageshadow="2"
     inkscape:zoom="0.12374369"
     inkscape:cx="1040.513"
     inkscape:cy="700.04499"
     inkscape:document-units="px"
     inkscape:current-layer="layer1"
     showgrid="false"
     inkscape:window-width="1600"
     inkscape:window-height="850"
     inkscape:window-x="-8"
     inkscape:window-y="-8"
     inkscape:window-maximized="1" />
  <metadata
     id="metadata7">
    <rdf:RDF>
      <cc:Work
         rdf:about="">
        <dc:format>image/svg+xml</dc:format>
        <dc:type
           rdf:resource="http://purl.org/dc/dcmitype/StillImage" />
        <dc:title></dc:title>
      </cc:Work>
    </rdf:RDF>
  </metadata>
  <g
     inkscape:label="Layer 1"
     inkscape:groupmode="layer"
     id="layer1"
     transform="translate(0,995.63782)">
    <path
       style="fill:#4d4d4d;fill-opacity:1;stroke:#4d4d4d;stroke-width:2.71128416px;stroke-linecap:butt;stroke-linejoin:miter;stroke-opacity:1"
       d="m 898.18343,-180.31499 c 0,0 34.85936,-220.77599 -116.19792,-631.34189 -151.05724,-410.56592 -375.70652,-7.74651 -433.80546,42.60588 -58.09895,50.35244 -116.19789,197.53646 -116.19789,197.53646 0,0 7.74651,23.23958 38.73264,3.87323 30.98609,-19.3663 42.60588,-96.83159 178.17007,-120.07117 135.56423,-23.23953 224.64927,275.00171 224.64927,275.00171 0,0 104.57811,313.734302 85.21182,584.86273 -19.36633,271.12841 -224.64928,433.80547 -340.84718,507.39747 -116.19789,73.59201 -174.29683,-69.71874 -174.29683,-69.71874 0,0 -89.08504,-395.07283 -69.71874,-546.130112 C 193.24956,-87.356679 200.99607,-126.08932 352.05333,-261.65351 503.11058,-397.21771 580.57584,24.967977 568.95607,67.573856 557.33626,110.17973 495.36406,280.60332 417.89878,303.8429 340.43354,327.08249 371.41963,110.17973 371.41963,110.17973 c 0,0 3.87327,-89.08503 46.47915,-92.958308 42.60593,-3.873278 23.23958,96.831588 23.23958,96.831588 0,0 34.85937,30.98609 46.47918,-3.87328 11.61978,-34.859319 34.85936,-123.944398 19.3663,-147.183976 -15.49304,-23.239578 -77.46527,-65.845454 -123.94442,-23.239578 -46.47916,42.605879 -69.71874,46.479156 -92.95832,131.690913 -23.23957,85.211831 7.74656,367.960031 7.74656,367.960031 0,0 15.49302,7.74651 65.84546,3.87325 50.35243,-3.87325 278.87492,-185.91663 278.87492,-185.91663 0,0 92.95833,-151.05724 30.9861,-426.05894 -61.97219,-275.00171 -162.67704,-244.01557 -162.67704,-244.01557 0,0 -81.33853,-38.73265 -244.01557,92.95831 C 104.16448,-188.0615 7.3328933,21.0947 7.3328933,21.0947 c 0,0 -19.3663003,174.29684 11.6197897,383.45305 30.98609,209.15619 166.550317,565.4964 166.550317,565.4964 0,0 11.61979,50.35235 73.59201,77.46515 61.97218,27.1129 182.04335,-112.3244 182.04335,-112.3244 0,0 251.76211,-224.64937 371.83328,-414.43926 120.07115,-189.78989 85.21179,-701.06063 85.21179,-701.06063 z"
       id="path2998"
       inkscape:connector-curvature="0" />
  </g>
</svg>
