<?xml version="1.0" encoding="UTF-8" standalone="no"?>
<!-- Created with Inkscape (http://www.inkscape.org/) -->

<svg
   xmlns:dc="http://purl.org/dc/elements/1.1/"
   xmlns:cc="http://creativecommons.org/ns#"
   xmlns:rdf="http://www.w3.org/1999/02/22-rdf-syntax-ns#"
   xmlns:svg="http://www.w3.org/2000/svg"
   xmlns="http://www.w3.org/2000/svg"
   xmlns:sodipodi="http://sodipodi.sourceforge.net/DTD/sodipodi-0.dtd"
   xmlns:inkscape="http://www.inkscape.org/namespaces/inkscape"
   id="svg4252"
   version="1.1"
   inkscape:version="0.48.4 r9939"
   width="1920"
   height="1920"
   sodipodi:docname="Slithra Torso.svg"
   inkscape:export-filename="G:\LEGO Textures Scans\Complete\Ninjago\Slithra\Slithra Torso.png"
   inkscape:export-xdpi="48"
   inkscape:export-ydpi="48">
  <metadata
     id="metadata4258">
    <rdf:RDF>
      <cc:Work
         rdf:about="">
        <dc:format>image/svg+xml</dc:format>
        <dc:type
           rdf:resource="http://purl.org/dc/dcmitype/StillImage" />
        <dc:title />
      </cc:Work>
    </rdf:RDF>
  </metadata>
  <defs
     id="defs4256" />
  <sodipodi:namedview
     pagecolor="#ffffff"
     bordercolor="#666666"
     borderopacity="1"
     objecttolerance="10"
     gridtolerance="10"
     guidetolerance="10"
     inkscape:pageopacity="0"
     inkscape:pageshadow="2"
     inkscape:window-width="1920"
     inkscape:window-height="1018"
     id="namedview4254"
     showgrid="false"
     inkscape:zoom="0.34352256"
     inkscape:cx="2180.2023"
     inkscape:cy="956.85718"
     inkscape:window-x="-8"
     inkscape:window-y="-8"
     inkscape:window-maximized="1"
     inkscape:current-layer="svg4252" />
  <g
     id="g3035">
    <rect
       y="88.970314"
       x="687"
       height="1772.8093"
       width="608.40253"
       id="rect3033"
       style="fill:#778795;fill-opacity:1;stroke:#778795;stroke-opacity:1" />
    <g
       transform="matrix(3.3091588,0,0,3.3091588,-142.67504,-286.80104)"
       id="g4316">
      <path
         inkscape:connector-curvature="0"
         id="path4328"
         d="m 260.33699,658.64884 c -25.3871,-4.01172 -51.59527,3.82296 -77.27388,-1.6483 C 171.30773,645.91605 180.76094,620.9646 156.22313,628.10928 130.10139,613.32268 107.52744,593.3408 85,573.55707 c 23.86482,8.5209 45.71817,31.39835 73.3708,26.49205 21.72464,-17.28423 17.85824,-55.89331 3.45944,-76.56675 -16.29622,-16.70249 -61.840278,-44.00322 -74.441683,-14.71674 -2.035154,11.25411 8.592368,33.97173 -6.686972,12.74526 -19.704723,-23.97374 7.389626,-46.00827 30.886175,-30.52531 21.34173,5.46428 38.79917,24.08577 60.36292,25.98869 -1.47462,-21.27374 1.36024,-43.26286 -3.34528,-63.94247 -12.48565,19.36168 -34.30951,28.11156 -53.20106,9.57951 C 94.106313,450.87427 79.727877,431.17116 60,417.12719 c 7.094225,-0.59621 38.537262,22.71428 56.5,27.11475 35.07843,13.95741 37.07812,-36.38875 32.43952,-58.96943 C 141.27477,361.77472 115.05496,351.60689 93.360877,345.06465 66.081476,332.24092 59.862691,365.09797 67.377559,380.40244 43.162328,357.23371 51.24804,320.51655 57.104675,291.43414 66.026126,250.76395 73.02569,209.5969 79.528075,168.3935 86.215821,147.15863 82.521533,119.81434 104,107 c 26.0863,-13.250782 56.57655,-5.42345 84.70138,-7.808571 122.33404,0.04482 244.6871,-0.943924 367.0101,0.587352 28.70086,4.638509 23.86362,42.077139 28.2313,63.685859 5.25312,23.92987 7.44534,50.3232 13.05797,73.03446 3.51985,22.04438 8.98472,46.74472 10.4797,69.16319 10.16025,22.53158 8.94964,45.95909 -3.94659,66.92341 -16.80605,26.44714 8.68108,-35.26701 -20.22749,-26.5215 -26.36334,0.9914 -58.31947,14.08016 -68.81604,38.94382 -11.41271,21.12847 -6.6242,70.81864 26.99058,61.72269 21.1287,-3.76403 48.18395,-26.51509 60.5946,-29.24289 -19.05478,16.0098 -35.643,35.47336 -57.07551,48.60227 -19.52925,21.40934 -37.72724,0.78985 -54.16245,-7.72984 1.75176,16.16259 -10.72215,51.64546 2.92493,60.00926 26.88068,-12.15148 53.5286,-29.21979 83.95113,-29.52779 32.19721,6.4147 -20.29072,71.38642 -3.52777,30.18454 4.87749,-33.91436 -40.85264,-19.0515 -56.58021,-7.92359 -27.76276,8.35181 -36.19936,38.80966 -31.20502,64.52788 0.49844,31.67048 34.41041,30.12769 54.39675,17.36945 11.10185,-5.19057 42.98949,-28.14644 40.15838,-22.99239 -21.54495,22.42625 -46.68551,41.38076 -73.12676,57.78288 -18.44576,-1.7828 -27.65434,2.16404 -25.0756,22.17103 -8.36193,21.93134 -48.15367,3.55852 -66.83818,7.18996 -38.76365,1.85154 -77.40922,-4.18643 -116.01991,1.47586 -13.14728,0.0673 -26.47556,1.0941 -39.5583,0.0215 z m 59.22899,-36.7556 c 13.40619,-1.15258 29.41091,3.897 45.66253,-4.83518 12.75131,-4.25637 37.22712,-16.00129 9.19061,-12.66743 -23.16237,4.97398 -46.89073,12.05236 -70.41912,4.70437 -11.33346,-8.39555 -53.11872,-6.74926 -19.94168,3.40387 10.88441,4.91246 23.45117,11.89677 35.50766,9.39437 z m 32.818,-109.0747 c 15.37659,-5.42495 47.81733,-23.7924 12.4684,-17.17697 -23.81179,9.26426 -48.04813,8.73888 -70.78511,-0.77942 -29.28215,-3.94831 12.87281,18.39056 24.4147,18.99437 11.28318,0.067 22.7038,0.62147 33.90201,-1.03798 z M 351,506.55902 c 1.91067,-3.55948 2.68996,1.78064 0,0 z m 10,-6.5 c 2.50033,-3.42425 1.65579,2.23419 0,0 z M 339.88874,381.56876 c 17.91724,-9.7549 52.6603,-16.7992 57.17162,-35.54424 -17.51956,5.32373 -39.90144,15.3719 -49.60197,20.7909 -19.5934,6.45076 -38.12978,-3.39351 -56.8253,-11.98206 -11.23107,-3.18151 -37.04416,-13.37898 -18.35832,1.49681 20.23536,7.45477 37.03805,24.28432 59.19896,26.00942 l 3.56519,0.0648 4.84982,-0.83566 0,10e-6 z M 387,352.55902 c 1.91067,-3.55948 2.68996,1.78064 0,0 z M 393,351 c 2.55494,-3.58745 2.55494,3.58745 0,0 z M 339,245.05834 c 13.05254,-8.48314 44.34284,-17.09178 45.5321,-29.08498 -21.70679,6.77015 -43.07152,26.3329 -66.49541,13.77099 -9.63886,-6.06126 -57.6137,-25.59654 -29.36783,-4.49733 16.46208,6.11204 31.49249,25.23521 50.33114,19.81132 z M 312.75,138.36971 c 8.56862,-11.46563 -46.66023,-18.61264 -16.26726,-4.04802 5.19329,1.86505 10.4739,5.93327 16.26726,4.04802 z m 51.21652,-1.42765 c 31.94717,-9.43111 -8.84499,-10.30237 -8.02975,2.05794 l 2.60765,-0.60452 5.4221,-1.45342 z M 584,421.55902 c 1.91067,-3.55948 2.68996,1.78064 0,0 z"
         style="fill:#a79838" />
      <path
         inkscape:connector-curvature="0"
         id="path4320"
         d="m 260.33699,658.64884 c -25.3871,-4.01172 -51.59527,3.82296 -77.27388,-1.6483 C 171.30773,645.91605 180.76094,620.9646 156.22313,628.10928 130.10139,613.32268 107.52744,593.3408 85,573.55707 c 23.86482,8.5209 45.71817,31.39835 73.3708,26.49205 21.72464,-17.28423 17.85824,-55.89331 3.45944,-76.56675 -16.29622,-16.70249 -61.840278,-44.00322 -74.441683,-14.71674 -2.035154,11.25411 8.592368,33.97173 -6.686972,12.74526 -19.704723,-23.97374 7.389626,-46.00827 30.886175,-30.52531 21.34173,5.46428 38.79917,24.08577 60.36292,25.98869 -1.47462,-21.27374 1.36024,-43.26286 -3.34528,-63.94247 -12.48565,19.36168 -34.30951,28.11156 -53.20106,9.57951 C 94.106313,450.87427 79.727877,431.17116 60,417.12719 c 7.094225,-0.59621 38.537262,22.71428 56.5,27.11475 35.07843,13.95741 37.07812,-36.38875 32.43952,-58.96943 C 141.27477,361.77472 115.05496,351.60689 93.360877,345.06465 66.081476,332.24092 59.862691,365.09797 67.377559,380.40244 43.162328,357.23371 51.24804,320.51655 57.104675,291.43414 66.026126,250.76395 73.02569,209.5969 79.528075,168.3935 86.215821,147.15863 82.521533,119.81434 104,107 c 16.90516,-12.302045 29.48361,-7.495727 27.7882,14.5 10.09994,35.56527 14.07471,72.12251 21.614,108.22841 1.17,19.90362 30.6558,61.06753 33.30781,19.77159 6.60936,-9.59314 -1.84866,-21.92637 5.54454,-27.89973 -2.7063,-5.51419 0.0137,-22.20587 -0.96321,-31.83914 -1.61656,-18.65224 2.90779,-25.30728 2.38776,-38.55982 -2.53353,-13.47625 1.37559,-27.90756 -0.31868,-36.42354 -2.95399,-14.11372 10.52723,-21.513002 20.08367,-12.26201 10.12747,21.47594 -1.95197,56.24726 31.972,58.87148 24.66303,6.19082 45.01945,23.04527 68.95082,31.75956 17.13169,5.59891 27.14623,4.62872 42.93176,-3.54806 7.45118,-1.86225 19.57639,-7.92104 29.27452,-13.03937 7.28643,-5.74272 13.46598,-4.7968 24.78216,-11.1643 11.69858,-4.2938 27.44631,-9.11604 31.64465,-13.67145 4.89531,-5.93209 8.48798,-19.14325 4.80573,-23.52502 1.60892,-13.25256 6.34704,-36.399843 25.64838,-26.9486 -0.38087,20.33866 1.51063,42.9322 0.73595,64.25 -1.14642,33.22364 0.34668,66.77187 5.84128,99.5 9.63653,13.46611 15.90446,3.51322 19.94635,-3.01399 -1.05613,-5.01827 8.64117,-5.95807 4.73261,-13.32221 6.28481,-3.75644 7.71881,-8.6118 10.24435,-19.6638 -10.98748,13.13779 6.39477,-10.3792 0.48382,-14.79241 2.4737,-16.07438 5.79904,-32.29935 12.37243,-45.98662 0.15445,-15.73501 6.45613,-31.3252 10.67501,-43.50277 0.19283,-13.54795 6.48854,-35.662879 26.34765,-22.20825 22.31846,16.8883 13.43542,49.3821 21.85102,73.49743 2.44512,22.07572 8.0193,45.5963 10.57595,66.05825 6.89064,24.80801 7.63375,51.17119 13.32498,75.74332 10.08332,21.40232 0.13842,45.91561 -13.81488,63.02571 6.51277,-13.22329 0.92918,-47.21507 -25.99632,-33.77688 -25.05939,5.46235 -53.83443,19.62421 -59.62134,46.45864 -9.21626,25.22766 6.39952,69.73578 39.54417,50.19226 17.27207,-4.70111 41.67037,-24.98182 51.37837,-26.22086 -19.05478,16.0098 -35.643,35.47336 -57.07551,48.60227 -19.52925,21.40934 -37.72724,0.78985 -54.16245,-7.72984 1.75176,16.16259 -10.72215,51.64546 2.92493,60.00926 26.88068,-12.15148 53.5286,-29.21979 83.95113,-29.52779 32.19721,6.4147 -20.29072,71.38642 -3.52777,30.18454 4.87749,-33.91436 -40.85264,-19.0515 -56.58021,-7.92359 -27.76276,8.35181 -36.19936,38.80966 -31.20502,64.52788 0.49844,31.67048 34.41041,30.12769 54.39675,17.36945 11.10185,-5.19057 42.98949,-28.14644 40.15838,-22.99239 -21.54495,22.42625 -46.68551,41.38076 -73.12676,57.78288 -18.44576,-1.7828 -27.65434,2.16404 -25.0756,22.17103 -8.36193,21.93134 -48.15367,3.55852 -66.83818,7.18996 -38.76365,1.85154 -77.40922,-4.18643 -116.01991,1.47586 -13.14728,0.0673 -26.47556,1.0941 -39.5583,0.0215 z M 406.5,652.46629 c 22.28734,4.60259 50.04655,-9.80885 21.88478,-19.71978 -10.45293,0.95512 -12.38959,0.41193 -24.153,1.25303 7.48794,-9.43192 51.70364,2.42604 30.61923,-24.44954 -5.42563,-27.17888 -36.27219,-16.16502 -55.73539,-15.72342 -17.5473,2.00043 -39.64008,6.62727 -52.40729,6.42363 -23.28787,-4.8888 -49.46521,-6.82368 -74.11899,-9.55425 -18.8342,-7.44722 -35.67979,24.6934 -27.85415,35.57045 27.36187,-0.33105 49.78321,14.16444 74.79482,21.78236 16.44108,0.40028 34.0159,-1.80028 47.94136,0.90225 11.71474,-4.25663 16.7175,1.67398 36.50076,-8.91856 9.99694,-4.39452 9.47369,-8.98573 10.87404,0.96794 17.13215,-7.63797 -21.62724,14.72493 4.85696,11.80887 l 3.18398,-0.20191 3.61289,-0.14067 0,-4e-4 z M 406,639.1288 c -12.26139,-2.4771 12.8202,-3.55126 0,0 z m -7,-5.06978 c 1.97302,-5.3582 2.65779,3.53786 0,0 z M 331,621 c 2.30116,-3.46905 3.64516,3.84819 0,0 z m -73.73153,30.57273 c 33.58776,-5.63945 -27.33381,-24.47234 -38.24499,-12.60732 -6.12811,14.63246 29.54003,12.25901 38.24499,12.60732 z m 67.8247,-64.75201 c 23.18872,-0.0678 46.95593,-6.90894 69.58708,-13.4738 15.93519,-7.89204 37.924,-7.18194 33.33608,-25.86659 2.86373,-22.52735 10.87239,-34.06141 11.04462,-54.1237 13.88832,-24.42435 -13.34259,-29.26096 -30.35475,-16.57244 -16.6474,5.3752 -35.30357,5.00494 -49.70723,6.60959 -15.10088,7.52792 -40.85757,4.15471 -53.10249,3.17748 -14.70401,-5.54035 -32.5673,-3.27536 -47.96148,-9.23369 -17.83411,-4.29926 -44.18605,-23.46222 -37.56356,10.66243 11.66838,26.15576 -3.81339,71.25832 31.62352,80.50311 23.80114,7.47683 48.18683,17.92727 73.09821,18.31761 z M 264.5,561 c 5.19176,-3.56164 2.19621,3.62198 0,0 z m -8.81667,-0.65 c -0.48908,-12.41602 20.24949,1.69809 0,0 z M 405.25,559.33772 c -3.71018,-5.83376 5.75076,1.15733 0,0 z M 411.5,547 c -0.0437,-3.36259 3.07003,3.33131 0,0 z M 406,536 c 2.55494,-3.58745 2.55494,3.58745 0,0 z m -150,-0.44098 c 1.91067,-3.55948 2.68996,1.78064 0,0 z m 144,0 c 1.91067,-3.55948 2.68996,1.78064 0,0 z M 265,531 c 0.90658,-3.44919 2.74597,3.73298 0,0 z m 150,-4 c 2.55494,-3.58745 2.55494,3.58745 0,0 z m -150,-1.94098 c 2.50033,-3.42425 1.65579,2.23419 0,0 z m 149.59656,-1.90279 c 2.66132,-7.93712 3.02907,3.24562 0,0 z M 254.18695,519.5 c -5.94654,-3.72283 -15.16232,3.67697 -4.61873,-6.4682 4.56702,-0.59901 14.63611,14.26606 4.61873,6.4682 l 0,0 z M 263,520 c 3.90318,-3.65313 3.90318,3.65313 0,0 z m 140.73726,-0.25 c 3.27239,-14.05248 19.56299,4.04176 0,0 z m -142.86775,-5.68551 c -7.49832,-7.49816 -33.99532,-11.98558 -20.61951,-15.48116 7.13046,-10.54845 35.79851,19.72339 20.61951,15.48116 z m 162.64057,-1.04818 c -1.96781,-17.15806 -36.24044,7.4534 -17.31339,-8.4674 -1.40575,-8.52787 27.20223,-14.07387 18.96675,8.2631 l -0.6662,1.04272 -0.98717,-0.83842 1e-5,0 z M 412,501.44098 c -1.52381,-3.84061 -2.57546,5.06339 0,0 z m -61,5.11804 c 1.91067,-3.55948 2.68996,1.78064 0,0 z M 289,501 c 2.55494,-3.58745 2.55494,3.58745 0,0 z m 72,-0.94098 c 2.50033,-3.42425 1.65579,2.23419 0,0 z m 17,-0.87756 c 4.87528,-7.34062 2.07855,2.36339 0,0 z M 422,568 c -3.64516,-3.84819 -2.30116,3.46906 0,0 z M 264.2,476.8 c -6.26432,-2.37472 0.13125,4.50782 0,0 z m 71.48254,-1.02355 c 10.1476,-2.11491 18.96069,-0.38268 29.65051,-4.3556 16.2462,-2.23481 39.50047,-9.44301 48.20014,-18.38418 4.36871,-10.26667 4.97008,6.43356 8.94776,-6.03667 18.41327,-14.40563 26.31794,-36.9888 28.26246,-60.32441 2.61688,-13.89809 5.48931,-35.26407 9.76346,-46.71832 8.87495,-12.53204 -12.12569,-28.02114 -25.01299,-19.13236 -20.83273,13.68974 -46.69063,16.82237 -70.11661,24.70992 -17.70031,3.90912 -36.69436,16.35272 -52.99783,3.46518 -15.97087,-4.63623 -27.97877,-7.87845 -45.87944,-12.64728 -19.24308,-4.76772 -32.298,-16.36859 -53.09484,-16.96618 -24.2834,12.77264 0.96604,43.6205 -2.02519,64.86669 -0.4886,32.02908 17.56645,59.176 45.90776,73.37499 23.3376,11.45267 49.32575,12.85609 73.78789,19.73603 l 4.60692,-1.58781 0,0 z M 254.25,438.29427 c -16.61899,-3.54353 -23.61806,-31.06625 -4.15147,-10.763 9.94768,-13.31193 16.54916,10.26791 4.15147,10.763 z m 147.39554,-1.13345 c -1.66515,-10.15992 0.0956,-23.36121 6.20639,-7.50002 9.7966,-1.14183 27.17182,-34.12079 17.9259,-7.04709 -6.32708,6.37485 -13.37872,20.37126 -24.13229,14.54711 z M 256.2921,416.3079 c 4.07788,-10.27548 2.04703,9.37942 0,0 z m -23.17022,0.78859 c -2.98208,-6.55162 7.36461,2.99873 0,0 z m 168.486,-1.67595 c -1.60028,-10.74149 5.79087,-2.80813 0.84486,1.41752 l -0.84486,-1.41752 z M 412.41561,409.25 c -5.57751,-17.9762 9.64163,7.27266 0,0 z m -154.86176,-0.16287 c -0.76313,-6.72655 4.92437,1.85579 0,0 z M 248,407.44098 c 1.52381,-3.84061 2.57546,5.06339 0,0 z M 402,404 c 2.55494,-3.58745 2.55494,3.58745 0,0 z m -144,-4 c 1.78676,-5.70949 1.71544,5.48861 0,0 z m 145,-1 c 2.55494,-3.58745 2.55494,3.58745 0,0 z m 7.74334,-3.75 c -1.54389,-10.27146 6.01358,0.44214 0,0 z M 240,390.96862 c 4.50789,-7.60832 2.71176,6.31088 0,0 z M 428,390 c 2.55494,-3.58745 2.55494,3.58745 0,0 z m -171,-2 c 2.55494,-3.58745 2.55494,3.58745 0,0 z m 153.57264,0.11754 c 4.14615,-18.77688 28.63311,-11.01299 5.77318,-3.20845 0.50144,-0.69358 -4.34265,6.2785 -5.77318,3.20845 z M 244,384.3072 c -22.67034,-12.96349 10.50682,-11.69218 4.08747,3.21281 L 244,384.3072 l 0,0 z m 162.70731,0.68155 c 1.22785,-6.9199 2.24415,5.54986 0,0 z M 427,384.41667 c 2.84168,-4.04943 3.10188,5.18201 0,0 z m -173,-4.95381 c -6.56476,-22.20973 -41.31667,-7.75844 -26.81744,-32.0208 12.5738,-0.91031 35.87004,24.84912 26.81744,32.0208 z M 231.5,350 c -3.07003,-3.33131 0.0437,3.36259 0,0 z m 176.90053,24.45971 c 1.79015,-13.38216 15.85395,-27.46897 29.48594,-25.0965 3.21643,6.67609 2.5559,36.14117 -4.61896,14.8724 -11.71094,-9.42292 -20.4979,16.44004 -24.86698,10.2241 z M 425.16667,373 c 3.93482,-4.44656 2.85888,4.20268 0,0 z M 387,352.55902 c 1.91067,-3.55948 2.68996,1.78064 0,0 z M 393,351 c 2.55494,-3.58745 2.55494,3.58745 0,0 z m 7,113 c -2.55494,-3.58745 -2.55494,3.58745 0,0 z M 337.76443,334.64559 c 13.3146,-0.80355 20.41577,-5.46815 26.83978,-3.98178 8.01548,-6.7433 21.28397,-5.55698 26.39579,-9.36381 12.91458,-5.0384 34.98507,-11.18819 41.39171,-19.50903 14.54901,-4.71806 15.7004,-9.46539 18.1916,-22.76146 5.99401,-11.92596 -2.16878,-32.31551 6.31851,-38.00879 -10.3145,-17.36566 -0.40426,-40.13599 -16.17235,-55.49698 -22.47416,-11.21682 -45.3575,10.95612 -66.38128,18.33655 -17.36192,8.81697 -46.7717,22.56822 -57.40043,8.88971 -11.76947,-3.34929 -29.20889,-12.53622 -43.33855,-16.21501 -18.56464,-15.41855 -60.7794,-24.44335 -58.9082,12.34428 -3.10522,26.22984 -5.76752,53.83091 1.31367,79.52712 15.81306,21.817 46.66814,26.35849 68.05106,36.59361 18.49957,3.20545 35.14563,11.80568 53.69869,9.64559 z m -96.65401,-45.26493 c -17.86608,-16.84359 14.29872,3.74238 14.49358,-15.00034 3.31211,5.10913 -2.70211,32.12011 -14.49358,15.00034 z m 166.42329,3.65659 c -9.38323,-19.97183 13.97293,-2.36511 18.00661,-16.97201 11.2843,-26.02453 4.54285,22.92769 -14.04031,17.93476 l -1.58457,0.89629 -2.38172,-1.85904 -1e-5,0 z M 234.66667,275.33333 c -3.30174,-8.64786 6.0929,3.21485 0,0 z M 245,269.5 c 2.47933,-5.26898 2.47933,5.26898 0,0 z m 10.78402,0.95069 c 1.58311,-12.71199 6.47048,-0.007 0,0 z m 148.56106,-0.99382 c -0.27803,-7.41725 5.23156,5.79686 0,0 z M 416,269 c 2.55494,-3.58745 2.55494,3.58745 0,0 z m -174.30615,-4.63948 c -1.77835,-7.14268 6.79782,3.78947 0,0 z m 187.8891,-1.22631 c -0.84454,-5.86196 3.04125,2.55306 0,4e-5 l 0,-4e-5 z M 258.63837,258.5 c 3.48435,-5.42324 0.62807,5.5091 0,0 z M 250.5,256 c -0.0437,-3.36259 3.07003,3.33131 0,0 z m 159.86392,-6.22021 c -1.51545,-19.92281 23.30714,-9.00302 14.10531,-4.39191 -10.69384,-10.20935 -13.30869,19.70014 -14.10531,4.39191 z m -168.20942,2.66824 c 4.78416,-7.45216 1.39794,5.16364 0,0 z M 260,252 c 2.55494,-3.58745 2.55494,3.58745 0,0 z m 142.24381,-3.78851 c -1.13021,-14.35192 9.34857,-33.07735 22.9177,-32.85765 10.98494,-0.22074 13.80822,34.54399 1.58501,12.16969 -17.01564,-7.10498 -23.23389,26.23254 -24.50271,20.68796 z M 427,251 c 2.55494,-3.58745 2.55494,3.58745 0,0 z m -177.4037,-2.47232 c -9.48918,-4.80012 -15.14006,-16.94402 -1.39846,-9.35478 3.94982,0.64699 7.12176,17.48989 1.39846,9.35478 z m 9.85889,-3.3865 c -1.32042,-16.11702 -24.29161,-20.70378 -28.62913,-15.81618 -1.4172,-33.51136 38.7222,-3.39183 30.46675,16.35433 -0.52847,2.95181 -2.8185,0.61731 -1.83762,-0.53815 z M 175.875,331.125 c 10.81435,-13.88288 5.85788,-7.91523 7.33963,-28.47486 -0.004,-17.58872 -23.80488,-24.52214 -25.21975,-4.11112 5.04209,9.59262 3.83773,35.82159 17.88012,32.58598 z m 316.16172,0.5932 c 4.69739,-11.88811 15.98536,-34.14263 11.59357,-34.4682 5.53005,-6.69081 0.73434,-11.883 -7.67503,-11.04157 -21.61112,3.75153 -22.44924,35.56999 -7.92501,46.63429 l 2.06258,-0.11132 1.94389,-1.0132 0,0 z M 246,327 c -3.90318,-3.65313 -3.90318,3.65313 0,0 z m 195,-27 c -2.74597,-3.73298 -0.90658,3.44919 0,0 z M 191,243.5 c -2.47933,-5.26898 -2.47933,5.26898 0,0 z m 138.1875,-27.18311 c -5.59053,-0.8633 1.71937,1.71436 0,0 z M 194,206 c -2.55494,-3.58745 -2.55494,3.58745 0,0 z m 63.5,-20 c -4.17789,-3.45953 -1.00177,3.52086 0,0 z M 194,183.44098 c -1.52381,-3.84061 -2.57546,5.06339 0,0 z m 352,-78.5 c -1.65579,-2.23419 -2.50033,3.42425 0,0 z m 38,316.61804 c 1.91067,-3.55948 2.68996,1.78064 0,0 z M 411.57143,152.42857 c -6.53429,-12.18384 13.21044,-1.8102 16.99923,-10.0016 1.44284,6.43109 -12.17515,13.76531 -16.99923,10.0016 z M 248,152.01334 c -10.14934,-3.12149 -15.99087,-19.83888 1.17139,-4.80455 8.77034,-12.84983 9.88784,11.73421 -1.17139,4.80455 z m 163,-11.45432 c 1.17867,-4.84536 1.74518,3.8071 0,0 z m -157.30615,-1.1985 c -0.47694,-5.87716 5.07021,2.17584 0,0 z m -9.71391,-1.88469 c -2.04301,-7.98239 8.74933,6.27858 0,0 z m 174.68673,0.8575 c -2.10044,-6.39665 7.2768,3.97652 0,0 z M 254,134 c 0.90658,-3.44919 2.74597,3.73298 0,0 z m -6,-4.30887 c -8.76997,-7.08648 -11.8181,-16.41687 0.50633,-6.94113 1.53734,-1.68507 1.16007,15.26544 -0.50633,6.94113 z m 169.07895,0.8922 c 1.01441,-4.55152 0.64317,3.85396 0,0 z M 416.41602,125.75 c 3.67854,-12.29297 20.42235,0.13091 4.58444,-1.25049 2.53201,-0.14222 -6.2681,4.68227 -4.58444,1.25049 z m -84.7388,-2.40611 c -15.97385,-1.75238 -41.6827,-2.53082 -43.51164,-15.67108 -28.28664,-10.559747 23.44626,-9.029084 33.9168,-8.637523 19.60343,3.404803 60.60241,-6.592334 67.69027,5.211893 -14.25534,17.77823 -37.11469,18.95842 -58.09543,19.09671 z M 295,113 c -2.55494,-3.58745 -2.55494,3.58745 0,0 z m -12.54271,-8.9309 c -1.5595,-5.611117 -4.86033,3.5504 0,0 z M 250,118.37284 c -7.55374,-13.42452 -25.55562,8.21821 -17.2174,-12.70454 8.8467,-12.122595 30.67676,21.44305 17.2174,12.70454 z m 163.3083,0.53546 c -1.42021,-19.410726 32.4405,-14.42548 20.47504,-2.58289 -5.63932,-8.04888 -15.71118,0.57353 -20.47504,2.58289 z M 454,100 c 3.64516,-3.848191 2.30116,3.46906 0,0 z"
         style="fill:#525558" />
      <path
         inkscape:connector-curvature="0"
         id="path4318"
         d="M 355.66926,648.27387 C 354.85706,646.95971 355.85271,644 357.10699,644 c 1.04082,0 1.03976,0.76631 -0.005,3.43362 -0.47202,1.20536 -1.01172,1.52182 -1.43296,0.84025 z M 324.5,600 c -0.33992,-0.55 -0.16803,-1 0.38197,-1 0.55,0 1.27811,0.45 1.61803,1 0.33992,0.55 0.16803,1 -0.38197,1 -0.55,0 -1.27811,-0.45 -1.61803,-1 z m 59.77083,-6.60417 c 0.33229,-0.33229 1.19479,-0.36781 1.91667,-0.0789 0.79773,0.31922 0.56078,0.55618 -0.60417,0.60416 -1.05416,0.0434 -1.64479,-0.19293 -1.3125,-0.52522 z m 5,0 c 0.33229,-0.33229 1.19479,-0.36781 1.91667,-0.0789 0.79773,0.31922 0.56078,0.55618 -0.60417,0.60416 -1.05416,0.0434 -1.64479,-0.19293 -1.3125,-0.52522 z m -64,-6 c 0.33229,-0.33229 1.19479,-0.36781 1.91667,-0.0789 0.79773,0.31922 0.56078,0.55618 -0.60417,0.60416 -1.05416,0.0434 -1.64479,-0.19293 -1.3125,-0.52522 z m 97.80812,-25.8125 c -0.0434,-1.05416 0.19293,-1.64479 0.52522,-1.3125 0.33229,0.33229 0.36781,1.1948 0.0789,1.91667 -0.31922,0.79773 -0.55618,0.56078 -0.60416,-0.60417 z M 264.5,561 c 0.33992,-0.55 1.26648,-1 2.05902,-1 0.79254,0 1.44098,0.45 1.44098,1 0,0.55 -0.92656,1 -2.05902,1 -1.13246,0 -1.7809,-0.45 -1.44098,-1 z m -8.81667,-0.65 c -1.59851,-1.59851 -0.46463,-3.99408 2.4028,-5.07641 2.60714,-0.98408 2.9993,-0.93859 2.52664,0.29313 -0.43111,1.12346 0.008,1.31557 1.91387,0.83724 1.86327,-0.46765 2.47336,-0.22404 2.47336,0.98763 0,0.88463 -0.675,1.60841 -1.5,1.60841 -0.825,0 -1.5,0.46583 -1.5,1.03518 0,0.69669 -0.6039,0.71199 -1.8468,0.0468 -1.19295,-0.63845 -2.19019,-0.645 -2.81667,-0.0185 -0.53343,0.53343 -1.27736,0.66236 -1.6532,0.28653 z M 405.25,559.33772 C 403.50883,558.63514 403.68369,557 405.5,557 c 0.825,0 1.5,0.675 1.5,1.5 0,0.825 -0.1125,1.46447 -0.25,1.42105 -0.1375,-0.0434 -0.8125,-0.30592 -1.5,-0.58333 z M 411.5,547 c -0.33992,-0.55 -0.14148,-1 0.44098,-1 0.58246,0 1.05902,0.45 1.05902,1 0,0.55 -0.19844,1 -0.44098,1 -0.24254,0 -0.7191,-0.45 -1.05902,-1 z M 406,536 c 0,-0.55 0.45,-1 1,-1 0.55,0 1,0.45 1,1 0,0.55 -0.45,1 -1,1 -0.55,0 -1,-0.45 -1,-1 z m -150,-0.44098 c 0,-0.24254 0.45,-0.7191 1,-1.05902 0.55,-0.33992 1,-0.14148 1,0.44098 0,0.58246 -0.45,1.05902 -1,1.05902 -0.55,0 -1,-0.19844 -1,-0.44098 z m 144,0 c 0,-0.24254 0.45,-0.7191 1,-1.05902 0.55,-0.33992 1,-0.14148 1,0.44098 0,0.58246 -0.45,1.05902 -1,1.05902 -0.55,0 -1,-0.19844 -1,-0.44098 z M 265,531 c 0,-0.55 0.19844,-1 0.44098,-1 0.24254,0 0.7191,0.45 1.05902,1 0.33992,0.55 0.14148,1 -0.44098,1 C 265.47656,532 265,531.55 265,531 z m 150,-4 c 0,-0.55 0.45,-1 1,-1 0.55,0 1,0.45 1,1 0,0.55 -0.45,1 -1,1 -0.55,0 -1,-0.45 -1,-1 z M 265,525.05902 C 265,524.47656 265.45,524 266,524 c 0.55,0 1,0.19844 1,0.44098 0,0.24254 -0.45,0.7191 -1,1.05902 -0.55,0.33992 -1,0.14148 -1,-0.44098 z m 149.59656,-1.90279 c -0.34605,-0.55992 -0.1419,-1.31919 0.45366,-1.68727 1.53748,-0.95021 2.52947,0.35135 1.24598,1.63484 -0.71818,0.71818 -1.27752,0.73543 -1.69964,0.0524 z M 254.18695,519.5 c -2.62788,-3.02232 -4.29169,-3.14673 -6.68695,-0.5 -2.52581,2.79099 -3.66077,2.49268 -2.85341,-0.75 0.68953,-2.76942 2.94359,-5.15931 4.92163,-5.2182 1.6881,-0.0503 9.43178,6.25697 9.43178,7.6822 0,2.09551 -2.47918,1.47019 -4.81305,-1.214 z M 263,520 c 0,-0.55 0.675,-1 1.5,-1 0.825,0 1.5,0.45 1.5,1 0,0.55 -0.675,1 -1.5,1 -0.825,0 -1.5,-0.45 -1.5,-1 z m 140.73726,-0.25 c -2.49914,-1.89905 0.23992,-5.22353 3.60737,-4.37835 1.67449,0.42027 2.62768,0.14288 3.01973,-0.87877 0.87708,-2.28565 2.57587,-1.78029 3.66754,1.09104 1.10578,2.9084 0.32848,5.17646 -1.2374,3.61058 -0.6397,-0.6397 -1.90214,-0.49853 -3.63714,0.4067 -3.25358,1.69756 -3.37746,1.70096 -5.4201,0.1488 z M 260.86951,514.06449 C 255.63319,508.09708 241,501.47713 241,505.07568 c 0,0.58488 -0.99686,0.91962 -2.21525,0.74387 -1.94339,-0.28033 -2.21952,-0.93318 -2.25,-5.31955 -0.0264,-3.79322 0.32728,-5 1.46525,-5 0.825,0 1.5,0.525 1.5,1.16667 0,0.64166 0.3375,1.50416 0.75,1.91666 0.4125,0.4125 0.75,0.19672 0.75,-0.47952 0,-0.67624 0.7875,-1.09997 1.75,-0.94163 0.9625,0.15835 2.32355,-0.0717 3.02455,-0.51133 0.805,-0.50479 3.93647,0.95012 8.5,3.94919 8.0235,5.27288 9.64694,6.93925 9.69365,9.94996 0.0175,1.1275 0.50087,2.51907 1.07418,3.09238 0.72318,0.72318 0.62856,1.38583 -0.30898,2.16391 -1.04662,0.86862 -1.91796,0.47583 -3.86389,-1.7418 z m -8.74542,-11.33116 c -0.98762,-0.98026 -1.10248,-0.8654 -0.5598,0.5598 0.37553,0.98622 0.93469,1.54122 1.24258,1.23333 0.30789,-0.30789 6.4e-4,-1.11479 -0.68278,-1.79313 z m 171.38599,10.28298 c -0.34546,-0.55897 -0.36395,-1.44373 -0.0411,-1.96614 0.32287,-0.5224 -0.29049,-1.41945 -1.36301,-1.99345 -1.07251,-0.57399 -2.67403,-1.76763 -3.55893,-2.65252 -1.47853,-1.47854 -2.17874,-1.42209 -8.64147,0.69664 -5.73218,1.87923 -6.94569,2.63779 -6.56269,4.10235 0.25843,0.98825 0.1745,1.78992 -0.18651,1.7815 -1.79679,-0.0419 -2.85236,-1.80267 -2.83846,-4.73469 0.0157,-3.32169 0.0207,-3.3248 5.87878,-3.70109 2.26379,-0.14541 3.59575,-1.54891 1.46997,-1.54891 -1,0 -1.66667,-0.8 -1.66667,-2 0,-1.63368 0.66667,-2 3.63976,-2 2.28882,0 4.13757,-0.64953 4.98099,-1.75 1.09174,-1.42445 1.50715,-1.49826 2.23307,-0.39675 0.71316,1.08213 1.34137,1.11266 3.13567,0.15237 3.46627,-1.85509 4.84422,0.38564 5.37454,8.73976 0.42559,6.70419 -0.3425,9.71651 -1.85395,7.27093 z M 421.98469,501.25 c -0.0109,-1.95557 -0.26748,-2.35188 -0.8882,-1.37188 -0.48009,0.75796 -1.33259,1.094 -1.89444,0.74675 -0.56186,-0.34725 -1.78995,-0.3365 -2.72909,0.0239 -1.40873,0.54058 -1.20579,0.8769 1.15976,1.92202 4.10515,1.81369 4.36897,1.73362 4.35197,-1.32077 z M 412,501.44098 c 0,-0.85746 -0.45,-1.2809 -1,-0.94098 -0.55,0.33992 -1,1.04148 -1,1.55902 0,0.51754 0.45,0.94098 1,0.94098 0.55,0 1,-0.70156 1,-1.55902 z M 342.5,475 c -0.33992,-0.55 -0.16803,-1 0.38197,-1 0.55,0 1.27811,0.45 1.61803,1 0.33992,0.55 0.16803,1 -0.38197,1 -0.55,0 -1.27811,-0.45 -1.61803,-1 z m 6.00708,-0.98855 c -0.35034,-0.56686 0.0511,-0.7345 0.94098,-0.39301 1.73242,0.66479 2.04939,1.38156 0.61096,1.38156 -0.51754,0 -1.21592,-0.44485 -1.55194,-0.98855 z M 353,473.55902 c 0,-0.24254 0.45,-0.7191 1,-1.05902 0.55,-0.33992 1,-0.14148 1,0.44098 0,0.58246 -0.45,1.05902 -1,1.05902 -0.55,0 -1,-0.19844 -1,-0.44098 z m 75.27083,-4.16319 c 0.33229,-0.33229 1.19479,-0.36781 1.91667,-0.0789 0.79773,0.31922 0.56078,0.55618 -0.60417,0.60416 -1.05416,0.0434 -1.64479,-0.19293 -1.3125,-0.52522 z M 398,462.55902 c 0,-0.24254 0.45,-0.7191 1,-1.05902 0.55,-0.33992 1,-0.14148 1,0.44098 0,0.58246 -0.45,1.05902 -1,1.05902 -0.55,0 -1,-0.19844 -1,-0.44098 z m 22,-14.5904 C 420,447.43588 420.675,447 421.5,447 c 0.825,0 1.5,0.17686 1.5,0.39301 0,0.21616 -0.675,0.65203 -1.5,0.96862 -0.825,0.31658 -1.5,0.13972 -1.5,-0.39301 z M 254.25,438.29427 C 253.0125,438.05591 252,437.4422 252,436.93045 252,436.4187 250.90532,436 249.56739,436 c -1.53318,0 -2.66134,-0.72066 -3.05124,-1.94911 -0.55106,-1.73624 -4.55936,-5.53194 -9.86241,-9.3393 -1.77908,-1.2773 -1.76664,-1.41493 0.34158,-3.7818 l 2.18784,-2.45625 4.45896,4.21188 c 2.45243,2.31654 5.35781,4.49717 6.45641,4.84585 C 252.5163,428.29864 255,426.44721 255,423.87756 255,422.8449 255.41786,422 255.92857,422 c 1.80459,0 4.22033,3.32262 3.74296,5.14808 -0.26607,1.01746 -0.076,2.10193 0.42235,2.40994 1.58075,0.97696 0.97764,6.06728 -0.92262,7.78699 -1.00581,0.91025 -2.01831,1.59371 -2.25,1.51881 -0.23169,-0.0749 -1.43376,-0.3312 -2.67126,-0.56955 z m 147.39554,-1.13345 c -1.15768,-1.27922 -1.40506,-2.19141 -0.71068,-2.62056 C 402.28351,433.70675 402.3367,430 401,430 c -1.11262,0 -1.29352,-3.30282 -0.36971,-6.75 0.35467,-1.32345 1.37854,-2.25 2.48634,-2.25 2.27541,0 2.49896,1.82655 0.32563,2.66053 -1.25775,0.48265 -0.95097,1.191 1.59297,3.67817 2.89379,2.82921 3.23257,2.93414 4.15451,1.28674 0.72539,-1.2962 1.69358,-1.62056 3.49082,-1.16948 1.61459,0.40524 2.2594,0.25591 1.83815,-0.42568 -0.35687,-0.57744 0.69231,-2.17841 2.33153,-3.55772 1.63921,-1.3793 4.11756,-4.44827 5.50744,-6.81992 1.38987,-2.37164 3.24706,-4.90964 4.12707,-5.63998 2.42775,-2.01486 3.73332,0.0131 2.07109,3.21708 -0.76538,1.47527 -1.16711,3.54076 -0.89273,4.58999 0.32107,1.22777 -0.35087,2.57999 -1.88528,3.79398 -1.31128,1.03746 -2.68361,2.67379 -3.04961,3.63629 -0.366,0.9625 -1.12957,1.75 -1.69684,1.75 -0.56726,0 -1.03138,0.50238 -1.03138,1.1164 0,1.96215 -8.12163,8.84686 -10.35268,8.77597 -1.18103,-0.0375 -3.06501,0.22403 -4.18664,0.58123 -1.36669,0.43526 -2.62504,0.002 -3.81514,-1.31278 z M 256.2921,416.3079 C 256.81055,412.4365 259,412.12017 259,415.91667 259,418.0213 258.51302,419 257.46579,419 c -1.0883,0 -1.42943,-0.78245 -1.17369,-2.6921 z m -23.17022,0.78859 c -0.75796,-0.48009 -1.0554,-1.39505 -0.66097,-2.03324 0.54339,-0.87922 1.05902,-0.87664 2.12812,0.0106 2.63624,2.18788 1.42661,3.85548 -1.46715,2.0226 z m 168.486,-1.67595 C 400.85667,413.46292 401.89969,409 403.10841,409 c 0.49037,0 0.89159,1.8 0.89159,4 0,4.03984 -1.27547,5.33047 -2.39212,2.42054 z M 412.41561,409.25 c -1.02326,-2.24294 -1.15326,-8.20508 -0.16561,-7.59514 0.4125,0.25475 0.75,1.28152 0.75,2.28171 0,1.0002 0.675,2.37874 1.5,3.06343 0.825,0.68469 1.5,1.86479 1.5,2.62244 0,1.97554 -2.63828,1.7014 -3.58439,-0.37244 z m -154.86176,-0.16287 c -1.04029,-1.68322 0.4312,-3.50208 1.75902,-2.17426 0.78284,0.78284 0.78284,1.39142 0,2.17426 -0.78285,0.78285 -1.2752,0.78285 -1.75902,0 z M 248,407.44098 c 0,-0.85746 0.45,-1.2809 1,-0.94098 0.55,0.33992 1,1.04148 1,1.55902 0,0.51754 -0.45,0.94098 -1,0.94098 -0.55,0 -1,-0.70156 -1,-1.55902 z M 402,404 c 0,-0.55 0.45,-1 1,-1 0.55,0 1,0.45 1,1 0,0.55 -0.45,1 -1,1 -0.55,0 -1,-0.45 -1,-1 z m -144,-4 c 0,-1.86667 0.26667,-2.13333 1.2,-1.2 0.93333,0.93333 0.93333,1.46667 0,2.4 -0.93333,0.93333 -1.2,0.66667 -1.2,-1.2 z m 145,-1 c 0,-0.55 0.45,-1 1,-1 0.55,0 1,0.45 1,1 0,0.55 -0.45,1 -1,1 -0.55,0 -1,-0.45 -1,-1 z m 7.74334,-3.75 c -0.82481,-1.65095 -0.16803,-4.75 1.00666,-4.75 0.6875,0 1.25,0.3375 1.25,0.75 0,0.4125 0,1.65 0,2.75 0,1.93931 -1.4978,2.76897 -2.25666,1.25 z M 240,390.96862 C 240,389.8854 240.67464,389 241.5,389 c 0.825,0 1.5,0.62686 1.5,1.39301 0,0.76616 -0.675,1.65203 -1.5,1.96862 -1.02029,0.39152 -1.5,-0.054 -1.5,-1.39301 z M 428,390 c 0,-0.55 0.45,-1 1,-1 0.55,0 1,0.45 1,1 0,0.55 -0.45,1 -1,1 -0.55,0 -1,-0.45 -1,-1 z m -171,-2 c 0,-0.55 0.45,-1 1,-1 0.55,0 1,0.45 1,1 0,0.55 -0.45,1 -1,1 -0.55,0 -1,-0.45 -1,-1 z m 153.57264,0.11754 c -0.29996,-0.48536 0.34848,-2.01884 1.44099,-3.40773 1.0925,-1.3889 1.99448,-2.90429 2.0044,-3.36754 0.0189,-0.88396 7.42817,-7.34227 8.42337,-7.34227 1.08599,0 6.56044,5.33149 6.02463,5.8673 -0.29448,0.29448 -2.35412,0.6289 -4.57698,0.74315 -3.37016,0.17322 -4.62328,0.88734 -7.54323,4.29864 -3.53487,4.1297 -4.77713,4.82009 -5.77318,3.20845 z M 244,384.3072 c -1.925,-1.88369 -4.7375,-3.67966 -6.25,-3.99105 -1.5125,-0.31138 -2.75,-1.15561 -2.75,-1.87605 0,-2.54444 1.96721,-6.4401 3.25209,-6.4401 3.23235,0 11.44855,11.02929 11.73285,15.75 0.0717,1.18993 -3.13665,-0.65563 -5.98494,-3.4428 z m 162.70731,0.68155 C 406.42127,383.89494 406.54697,383 406.98663,383 c 1.17493,0 2.06766,2.84841 1.08339,3.45673 -0.46345,0.28643 -1.07667,-0.37416 -1.36271,-1.46798 z M 427,384.41667 c 0,-1.76593 2.15276,-1.45839 2.77083,0.39583 0.21771,0.65312 -0.31666,1.1875 -1.1875,1.1875 C 427.7125,386 427,385.2875 427,384.41667 z m -173,-4.95381 c 0,-1.88269 -10.77775,-13.87341 -12.52068,-13.92982 -0.56138,-0.0182 -2.89968,-0.87797 -5.19623,-1.91066 -4.11863,-1.85204 -5.19094,-1.78217 -8.42673,0.54905 -1.30568,0.94068 -1.97392,0.85387 -3.25,-0.42221 -2.07772,-2.07773 -2.03368,-3.71146 0.14364,-5.32807 1.40969,-1.04667 1.52718,-1.66503 0.60419,-3.17985 -1.58324,-2.5984 -0.54024,-7.04747 1.82837,-7.79924 3.95182,-1.25426 7.60075,0.76731 19.81744,10.97923 3.02274,2.52671 5.62429,6.20584 5.22828,7.39387 -0.22364,0.67091 0.48636,1.99947 1.57778,2.95234 2.63616,2.30153 3.72396,9.54773 1.68709,11.23819 C 254.26395,381.02583 254,380.92987 254,379.46286 z m -17.00836,-22.43653 c 1.12338,-0.71023 1.20797,-1.22672 0.34264,-2.09205 -0.86533,-0.86533 -1.42744,-0.62873 -2.27682,0.95836 -1.20378,2.24927 -0.49109,2.667 1.93418,1.13369 z M 231.5,350 c -0.33992,-0.55 -0.81648,-1 -1.05902,-1 -0.24254,0 -0.44098,0.45 -0.44098,1 0,0.55 0.47656,1 1.05902,1 0.58246,0 0.7809,-0.45 0.44098,-1 z m 176.90053,24.45971 c -0.42057,-1.67569 -0.086,-3.14983 0.98313,-4.33116 0.89139,-0.98497 1.28597,-2.12559 0.87685,-2.5347 -0.40912,-0.40912 0.0494,-1.18776 1.01885,-1.73031 0.96949,-0.54255 1.48416,-1.43716 1.14371,-1.98801 -0.76651,-1.24025 2.39597,-4.87553 4.24142,-4.87553 0.74498,0 2.58774,-1.79727 4.09501,-3.99392 2.08387,-3.03698 3.24597,-3.87946 4.85015,-3.51618 1.30375,0.29525 2.79548,-0.28008 3.90499,-1.50607 2.06347,-2.28012 6.70878,-2.62448 8.37183,-0.62062 1.63443,1.96936 2.49938,16.46694 1.08419,18.17215 -0.6278,0.75644 -0.82834,2.33768 -0.44834,3.53497 1.2442,3.92011 -1.64811,1.60466 -3.03507,-2.42974 -1.70657,-4.96409 -1.80135,-5.03286 -7.23415,-5.24897 -3.66893,-0.14594 -5.39939,0.37638 -8.15529,2.46157 -5.54116,4.1926 -9.09781,7.95069 -9.09781,9.61311 0,2.48964 -1.90734,1.75107 -2.59947,-1.00659 z M 437,360 c 0,-1.33333 -0.66667,-2 -2,-2 -1.92719,0 -2.7099,1.95677 -1.33333,3.33333 C 435.04323,362.7099 437,361.92719 437,360 z m -7.20901,-1.09709 c -1.18914,-0.66548 -5.85682,-0.5777 -7.79099,0.1465 -1.23416,0.46211 5.70148,1.50171 7.36401,1.10381 1.51142,-0.36172 1.59218,-0.59823 0.42698,-1.25031 z m 4.56178,-5.14113 c -0.29962,-0.4848 -1.19987,-0.067 -2.00055,0.92838 -1.35609,1.6859 -1.41022,1.6458 -0.79042,-0.58568 0.5825,-2.09725 0.4777,-2.22176 -0.84172,-1 -1.04637,0.96891 -1.22766,1.92213 -0.59304,3.11815 0.85114,1.60411 1.04669,1.60904 2.84227,0.0716 1.06053,-0.90805 1.68309,-2.04767 1.38346,-2.53247 z M 425.16667,373 c 0.50335,-1.51005 2.11144,-1.66567 2.58333,-0.25 0.22917,0.6875 -0.33333,1.25 -1.25,1.25 -0.91667,0 -1.51667,-0.45 -1.33333,-1 z m -79.94048,-40.57366 c 0.94941,-0.99401 2.00045,-1.53304 2.33565,-1.19784 0.3352,0.3352 -0.44159,1.14849 -1.72619,1.80729 -2.23286,1.14512 -2.25968,1.1183 -0.60946,-0.60945 z m 14.44048,-2.09301 C 358.71097,329.37764 358.84461,328 359.89301,328 c 0.49116,0 1.15203,0.675 1.46862,1.5 0.58492,1.52428 -0.4803,2.04799 -1.69496,0.83333 z M 383,322 c 0,-0.55 0.19844,-1 0.44098,-1 0.24254,0 0.7191,0.45 1.05902,1 0.33992,0.55 0.14148,1 -0.44098,1 C 383.47656,323 383,322.55 383,322 z m 19.73333,-5.12409 c 0.67834,-0.68342 1.48524,-0.99067 1.79313,-0.68278 0.30789,0.30789 -0.24711,0.86705 -1.23333,1.24258 -1.4252,0.54268 -1.54006,0.42782 -0.5598,-0.5598 z M 241.11042,289.38066 c -6.0375,-4.81022 -6.90813,-5.89013 -6.04655,-7.5 1.31944,-2.46541 2.18562,-2.37952 7.06466,0.70048 5.32612,3.36223 8.40473,2.72031 9.27799,-1.93453 0.72167,-3.84682 4.11821,-7.52188 5.59082,-6.04927 0.60012,0.60012 0.40919,1.99267 -0.51832,3.78045 -0.80762,1.5567 -1.19727,3.26908 -0.86587,3.80529 0.90816,1.46944 -1.67379,10.13956 -3.44462,11.56692 -2.48852,2.00585 -3.61505,1.56073 -11.05811,-4.36934 z m 166.42329,3.65659 c -0.97695,-1.07952 -1.51635,-2.64011 -1.19867,-3.46798 0.31769,-0.82787 0.21564,-1.72893 -0.22677,-2.00236 -0.93318,-0.57673 -0.72159,-6.94508 0.24311,-7.31691 1.7231,-0.66414 2.78773,-0.0388 3.83057,2.25 1.46015,3.20468 4.76246,3.25252 7.71307,0.11175 1.37012,-1.45843 2.96893,-2.19858 4.10656,-1.90109 1.48637,0.3887 1.75197,0.0629 1.31404,-1.61175 -0.39624,-1.51519 -0.0829,-2.09891 1.12677,-2.09891 0.9216,0 1.41567,-0.42064 1.09793,-0.93476 C 424.70065,274.70662 429.16323,266 430.69927,266 c 1.57953,0 1.61919,0.53644 0.23134,3.12966 -0.72403,1.35286 -0.74251,2.39207 -0.0572,3.2178 0.60253,0.726 0.65732,1.79382 0.13538,2.63833 -0.48225,0.7803 -0.67417,1.74661 -0.42649,2.14737 0.24769,0.40075 -0.007,1.0113 -0.56598,1.35676 -0.55897,0.34546 -1.01631,1.50156 -1.01631,2.5691 0,1.06754 -0.46942,1.94098 -1.04316,1.94098 -0.57375,0 -3.11577,2.25 -5.64896,5 -3.41416,3.70638 -5.32815,5 -7.39781,5 -1.53562,0 -3.07015,0.45 -3.41007,1 -0.91784,1.4851 -1.98557,1.22592 -3.96629,-0.96275 z M 234.66667,275.33333 C 234.3,274.96667 234,274.01157 234,273.21089 c 0,-1.18064 0.28349,-1.2205 1.5,-0.21089 0.825,0.68469 1.5,1.63979 1.5,2.12244 0,1.03552 -1.38365,1.16058 -2.33333,0.21089 z M 245,269.5 c 0,-0.825 0.45,-1.5 1,-1.5 0.55,0 1,0.675 1,1.5 0,0.825 -0.45,1.5 -1,1.5 -0.55,0 -1,-0.675 -1,-1.5 z m 10.78402,0.95069 c -0.69245,-0.69246 1.45503,-5.43237 2.46598,-5.44289 0.89701,-0.009 0.92133,0.75097 0.11971,3.7422 -0.59072,2.20428 -1.49037,2.79601 -2.58569,1.70069 z m 148.56106,-0.99382 c -0.80982,-2.11034 0.54185,-3.2497 1.69398,-1.42791 1.22421,1.93575 1.19966,2.97104 -0.0704,2.97104 -0.56727,0 -1.29786,-0.69441 -1.62354,-1.54313 z M 416,269 c 0,-0.55 0.45,-1 1,-1 0.55,0 1,0.45 1,1 0,0.55 -0.45,1 -1,1 -0.55,0 -1,-0.45 -1,-1 z m -174.30615,-4.63948 c -0.35171,-0.35171 -0.39562,-1.03405 -0.0976,-1.51631 0.63919,-1.03422 2.40372,-0.14245 2.40372,1.21481 0,1.07509 -1.35536,1.25229 -2.30615,0.3015 z m 187.8891,-1.22631 c -0.43077,-0.697 -0.51316,-1.53733 -0.18309,-1.86741 0.89497,-0.89496 1.87077,0.4213 1.38739,1.87145 -0.33872,1.01617 -0.57427,1.01538 -1.2043,-0.004 z M 258.63837,258.5 c 0.31659,-0.825 0.96334,-1.5 1.43723,-1.5 0.4739,0 0.60261,0.675 0.28603,1.5 -0.31659,0.825 -0.96334,1.5 -1.43723,1.5 -0.4739,0 -0.60261,-0.675 -0.28603,-1.5 z M 250.5,256 c -0.33992,-0.55 -0.14148,-1 0.44098,-1 0.58246,0 1.05902,0.45 1.05902,1 0,0.55 -0.19844,1 -0.44098,1 -0.24254,0 -0.7191,-0.45 -1.05902,-1 z m 159.86392,-6.22021 c 0.25154,-2.87112 0.94757,-5.38362 1.54672,-5.58334 0.59915,-0.19971 1.08936,-0.94721 1.08936,-1.66109 0,-0.71389 1.63765,-2.54708 3.63921,-4.07374 3.83051,-2.92167 6.84787,-2.54138 6.87226,0.86613 0.006,0.88161 0.73093,2.18103 1.61027,2.88759 1.58431,1.27303 3.28095,4.78466 2.31169,4.78466 -0.27709,0 -1.61098,-0.72545 -2.9642,-1.61212 -1.65102,-1.08178 -3.53415,-1.41068 -5.7244,-0.99979 -3.2798,0.6153 -6.31431,3.88146 -5.23246,5.63192 C 414.2451,251.2056 412.26846,255 410.9181,255 c -0.61127,0 -0.83056,-2.06564 -0.55418,-5.22021 z m -168.20942,2.66824 c 0.19002,-0.98026 0.95098,-1.98391 1.691,-2.23033 0.86063,-0.28658 1.221,0.19425 1,1.33427 -0.19002,0.98026 -0.95098,1.98391 -1.691,2.23033 -0.86063,0.28658 -1.221,-0.19425 -1,-1.33427 z M 260,252 c 0,-0.55 0.45,-1 1,-1 0.55,0 1,0.45 1,1 0,0.55 -0.45,1 -1,1 -0.55,0 -1,-0.45 -1,-1 z m 142.24381,-3.78851 c -0.0395,-2.59132 0.3946,-5.27399 0.96464,-5.96149 0.71888,-0.867 0.6973,-1.65863 -0.0704,-2.58368 -1.17482,-1.41556 0.53608,-6.64283 2.17935,-6.65852 0.44956,-0.004 0.56763,-0.7953 0.26237,-1.7578 -0.71919,-2.26761 6.46317,-11.80085 8.74783,-11.61111 0.91983,0.0764 1.67526,-0.37361 1.67873,-1 0.003,-0.62639 1.37164,-1.91588 3.04035,-2.86554 2.6686,-1.51868 3.10427,-1.54359 3.61723,-0.20682 0.50879,1.32587 0.8275,1.29873 2.4976,-0.21269 1.82835,-1.65463 2.03234,-1.61454 4.53878,0.89189 1.44341,1.44342 2.71386,3.44112 2.82321,4.43933 0.10935,0.99822 0.53445,2.60244 0.94465,3.56494 0.41021,0.9625 0.49235,2.41059 0.18252,3.21797 -0.30982,0.80739 -0.13297,1.73395 0.39301,2.05902 1.24588,0.77 1.24735,7.47301 0.002,7.47301 -0.52507,0 -1.23593,-1.49916 -1.57967,-3.33146 C 431.77403,229.98192 427.87013,227 423.73525,227 c -1.35088,0 -4.09342,1.11108 -6.09453,2.46907 -2.03285,1.37952 -4.3339,2.20216 -5.21456,1.86422 -1.06883,-0.41015 -1.47157,-0.11272 -1.25118,0.924 0.17876,0.84086 -0.93781,2.70395 -2.48127,4.14019 -1.54346,1.43625 -2.51717,3.07915 -2.1638,3.65091 0.35336,0.57176 -0.0713,2.12894 -0.94371,3.4604 -0.87241,1.33147 -1.5862,3.76012 -1.5862,5.39701 0,1.63689 -0.37899,3.21039 -0.8422,3.49667 -0.46321,0.28628 -0.8745,-1.59966 -0.91399,-4.19098 z m 28.01378,-24.64431 c -0.47597,-2.48988 -2.70798,-4.02489 -4.36414,-3.00133 -1.39269,0.86073 -0.0388,2.42718 1.56561,1.81149 1.00635,-0.38617 1.24354,0.0439 0.85135,1.54367 -0.36945,1.41278 -0.0701,2.07899 0.93429,2.07899 1.02638,0 1.33586,-0.74333 1.01289,-2.43282 z M 427,251 c 0,-0.55 0.45,-1 1,-1 0.55,0 1,0.45 1,1 0,0.55 -0.45,1 -1,1 -0.55,0 -1,-0.45 -1,-1 z M 249.5963,248.52768 C 248.66421,244.81391 245.09282,242 241.31144,242 238.75939,242 238,241.5769 238,240.15499 c 0,-2.60794 3.18428,-5.27717 4.97509,-4.17038 0.78618,0.48588 1.79221,0.65921 2.23562,0.38516 0.44342,-0.27404 1.22388,0.54315 1.73436,1.81599 0.51049,1.27283 0.95668,1.88931 0.99154,1.36996 0.15208,-2.26551 5.06339,6.1136 5.06339,8.63856 0,3.52603 -2.53996,3.77482 -3.4037,0.3334 z m 9.85889,-3.3865 c 0.35351,-1.11379 -0.0824,-2.4164 -1.08752,-3.25 -0.92261,-0.76515 -2.28293,-2.8396 -3.02292,-4.60989 C 253.56778,233.03023 244.06349,226 240.09339,226 c -2.07898,0 -3.90858,0.98072 -5.99557,3.2138 -3.09484,3.31146 -5.01949,3.37688 -3.27176,0.1112 0.54346,-1.01546 0.74585,-3.11357 0.44976,-4.66246 -0.37135,-1.9426 0.12277,-3.71039 1.59292,-5.69887 1.17219,-1.58548 2.13126,-3.57591 2.13126,-4.42318 0,-2.82376 7.08803,-1.91743 12.37097,1.58184 4.74731,3.14449 9.62903,8.58035 9.62903,10.72206 0,0.63559 0.43417,1.15561 0.96482,1.15561 1.76365,0 3.10589,3.93636 3.47245,10.1836 0.19928,3.39628 0.13428,6.76936 -0.14446,7.49573 -0.78848,2.05476 -2.50137,1.55314 -1.83762,-0.53815 z m -2.91407,-15.07465 C 255.73189,228.75717 253,228.64928 253,229.92668 c 0,0.50967 0.7875,1.10184 1.75,1.31593 2.18229,0.48541 2.63447,0.1885 1.79112,-1.17608 z m -6.83138,-5.9691 c -0.11536,-1.59641 -0.49099,-2.72962 -0.83474,-2.51824 -0.93938,0.57766 -0.75199,5.42081 0.20974,5.42081 0.45911,0 0.74036,-1.30616 0.625,-2.90257 z M 253,224.94098 c 0,-0.58246 -0.45,-0.7809 -1,-0.44098 -0.55,0.33992 -1,0.81648 -1,1.05902 0,0.24254 0.45,0.44098 1,0.44098 0.55,0 1,-0.47656 1,-1.05902 z M 333,196 c 0,-0.55 0.45,-1 1,-1 0.55,0 1,0.45 1,1 0,0.55 -0.45,1 -1,1 -0.55,0 -1,-0.45 -1,-1 z m 78.57143,-43.57143 C 409.52507,150.38222 409.44435,144 411.46482,144 c 0.80565,0 1.91814,0.84706 2.47222,1.88235 1.70287,3.18185 4.15075,3.40773 7.0305,0.64875 1.45304,-1.39211 3.17977,-2.5311 3.83718,-2.5311 0.6574,0 1.19528,-0.675 1.19528,-1.5 0,-0.825 0.42344,-1.5 0.94098,-1.5 1.76941,0 2.2016,2.03794 1.12439,5.30192 -0.82365,2.4957 -1.70534,3.31483 -3.75014,3.48406 -1.47032,0.12169 -3.51027,1.11963 -4.53323,2.21764 -2.22958,2.39318 -6.04488,2.59065 -8.21057,0.42495 z M 248,152.01334 c -0.825,-0.47797 -2.31602,-1.12333 -3.31338,-1.43413 -1.13128,-0.35253 -1.52926,-1.03793 -1.05804,-1.82215 0.52122,-0.86743 0.23091,-0.83167 -0.93662,0.11538 -1.47718,1.19823 -1.69196,1.13124 -1.69196,-0.52775 0,-1.04512 -0.9,-2.67081 -2,-3.61266 C 237.17603,143.1703 236.1619,139 237.60608,139 c 0.33334,0 1.50088,1.13755 2.59453,2.5279 1.09364,1.39034 3.64305,3.37202 5.66535,4.40372 3.03306,1.54735 3.97959,1.65449 5.40547,0.61185 C 252.22214,145.8483 253,144.76662 253,144.13976 253,143.51289 253.61364,143 254.36364,143 c 1.69687,0 1.92515,8.14406 0.25885,9.23469 -1.4838,0.97117 -4.75274,0.86191 -6.62249,-0.22135 z m 163,-11.45432 c 0,-1.75653 0.60006,-2.01516 1.45729,-0.62812 0.31644,0.512 0.11799,1.21356 -0.44098,1.55902 C 411.45734,141.83538 411,141.41648 411,140.55902 z m -157.30615,-1.1985 C 252.89492,138.56159 253.79804,137 255.05902,137 c 0.51754,0 0.94098,0.675 0.94098,1.5 0,1.54641 -1.17996,1.9867 -2.30615,0.86052 z m -9.71391,-1.88469 c -0.69572,-0.83829 -1.01436,-1.77475 -0.70809,-2.08102 0.76528,-0.76527 4.72815,1.44774 4.72815,2.64037 0,1.49955 -2.61307,1.13596 -4.02006,-0.55935 z m 174.68673,0.8575 c -1.31101,-1.311 -0.63237,-2.13712 1.33333,-1.62308 1.1,0.28766 2,0.92053 2,1.40638 0,1.0332 -2.3632,1.18684 -3.33333,0.2167 z M 254,134 c 0,-0.55 0.19844,-1 0.44098,-1 0.24254,0 0.7191,0.45 1.05902,1 0.33992,0.55 0.14148,1 -0.44098,1 C 254.47656,135 254,134.55 254,134 z m -6,-4.30887 c 0,-1.26988 -0.5625,-2.98887 -1.25,-3.81997 -1.6742,-2.0239 -7.039,-5.37936 -8.09375,-5.06229 -0.46406,0.13949 -0.65436,-0.32293 -0.42288,-1.02762 0.6388,-1.9447 5.66147,-2.21887 6.3793,-0.34822 0.33072,0.86183 1.18002,1.56697 1.88733,1.56697 0.70731,0 1.61016,0.7875 2.00633,1.75 1.08962,2.64727 1.34746,9.25 0.36122,9.25 C 248.3904,132 248,130.96101 248,129.69113 z m 169.07895,0.8922 c -0.0434,-1.05416 0.19293,-1.64479 0.52522,-1.3125 0.33229,0.33229 0.36781,1.19479 0.0789,1.91667 -0.31922,0.79773 -0.55618,0.56078 -0.60416,-0.60417 z M 416.41602,125.75 c 0.32048,-0.6875 0.84612,-1.98265 1.16809,-2.8781 1.44399,-4.01601 9.55914,-4.26814 11.06505,-0.34378 0.91544,2.3856 -0.2202,2.79905 -2.88762,1.05129 -2.27842,-1.49288 -2.54207,-1.44193 -4.76108,0.9201 -2.4295,2.58609 -5.61164,3.45408 -4.58444,1.25049 z M 250,118.37284 c -6.80553,-6.75245 -13.30266,-7.91286 -16.00741,-2.85899 C 232.1493,118.95807 231,117.64543 231,112.09597 c 0,-6.46141 1.91855,-8.16364 8.50519,-7.54621 3.46374,0.32469 5.9984,1.31344 8.46899,3.30366 3.49315,2.81396 6.38943,8.92563 5.81812,12.27727 -0.2356,1.38223 -0.97118,1.04127 -3.7923,-1.75785 z m 163.3083,0.53546 c -0.88661,-0.88661 -0.88342,-1.6719 0.0134,-3.28663 3.25582,-5.86235 8.75937,-9.94849 14.85924,-11.03234 5.40096,-0.95966 8.01227,2.09184 7.61317,8.89655 -0.17027,2.90313 -0.71223,4.80362 -1.28729,4.51412 -0.54627,-0.275 -0.87184,-1.02857 -0.72348,-1.67459 0.14835,-0.64603 -0.25858,-1.50111 -0.90429,-1.90018 -1.77841,-1.09912 -8.84587,-1.28789 -9.48525,-0.25335 -0.30915,0.50021 -1.42421,0.63585 -2.47793,0.30141 C 419.5843,114.05067 419,114.34325 419,115.43261 419,116.29468 418.48711,117 417.86024,117 c -0.62686,0 -1.64538,0.69148 -2.26337,1.53663 -0.85514,1.16948 -1.40195,1.25829 -2.28857,0.37167 z"
         style="fill:#6b6322" />
    </g>
  </g>
</svg>
