<?xml version="1.0" encoding="UTF-8" standalone="no"?>
<!-- Created with Inkscape (http://www.inkscape.org/) -->

<svg
   xmlns:dc="http://purl.org/dc/elements/1.1/"
   xmlns:cc="http://creativecommons.org/ns#"
   xmlns:rdf="http://www.w3.org/1999/02/22-rdf-syntax-ns#"
   xmlns:svg="http://www.w3.org/2000/svg"
   xmlns="http://www.w3.org/2000/svg"
   xmlns:sodipodi="http://sodipodi.sourceforge.net/DTD/sodipodi-0.dtd"
   xmlns:inkscape="http://www.inkscape.org/namespaces/inkscape"
   id="svg2985"
   version="1.1"
   inkscape:version="0.48.2 r9819"
   width="1920"
   height="1920"
   sodipodi:docname="Classic Overalls.png">
  <metadata
     id="metadata2991">
    <rdf:RDF>
      <cc:Work
         rdf:about="">
        <dc:format>image/svg+xml</dc:format>
        <dc:type
           rdf:resource="http://purl.org/dc/dcmitype/StillImage" />
        <dc:title></dc:title>
      </cc:Work>
    </rdf:RDF>
  </metadata>
  <defs
     id="defs2989" />
  <sodipodi:namedview
     pagecolor="#ffffff"
     bordercolor="#666666"
     borderopacity="1"
     objecttolerance="10"
     gridtolerance="10"
     guidetolerance="10"
     inkscape:pageopacity="0"
     inkscape:pageshadow="2"
     inkscape:window-width="1600"
     inkscape:window-height="850"
     id="namedview2987"
     showgrid="false"
     inkscape:zoom="0.16785206"
     inkscape:cx="-563.97196"
     inkscape:cy="1346.4586"
     inkscape:window-x="-8"
     inkscape:window-y="-8"
     inkscape:window-maximized="1"
     inkscape:current-layer="svg2985" />
  <g
     id="g3045"
     transform="matrix(2.8889968,0,0,2.8889968,1966.8705,-108.2472)">
    <g
       transform="translate(-778.95975,23.830508)"
       id="g3021">
      <path
         inkscape:connector-curvature="0"
         id="path3025"
         d="m 100.07258,624.36514 c -2.476334,-3.14815 -2.462362,-2.75268 -0.55191,-15.62172 1.77957,-11.98741 3.775,-19.42274 6.43395,-23.97407 1.05049,-1.79814 2.86092,-5.74435 4.02317,-8.76935 1.16225,-3.025 2.7547,-6.89059 3.53878,-8.59019 0.78408,-1.69961 2.0841,-5.52461 2.88895,-8.5 0.80484,-2.9754 1.92705,-6.75981 2.49381,-8.40981 6.45636,-18.79655 9.45153,-27.10012 11.90338,-33 3.06949,-7.38611 9.78634,-29.71254 11.36109,-37.7636 0.51245,-2.61998 2.72718,-9.36998 4.92163,-15 2.19444,-5.63002 4.93455,-12.7114 6.08912,-15.7364 1.15458,-3.025 2.66985,-6.85 3.36727,-8.5 0.69741,-1.65 2.84931,-7.95 4.78199,-14 1.93268,-6.05 7.20831,-22.025 11.72363,-35.5 4.51531,-13.475 8.52967,-26.975 8.92079,-30 0.39113,-3.025 1.95129,-8.65 3.46702,-12.5 9.47001,-24.05397 32.19673,-92.01731 34.61006,-103.5 2.09946,-9.98931 8.25631,-26.70162 10.75887,-29.20418 0.5752,-0.5752 2.31707,-1.04063 3.87082,-1.03428 4.03389,0.0165 6.325,-1.47679 6.325,-4.12241 0,-3.15868 -3.18572,-5.77581 -12.15114,-9.98238 C 219.8586,196.43851 217,193.3366 217,187.7994 c 0,-4.96447 1.10195,-7.04707 7.1376,-13.48954 2.67432,-2.85458 4.84618,-6.00458 4.82636,-7 -0.0198,-0.99542 -0.95357,-11.25986 -2.07499,-22.80986 -1.12142,-11.55 -2.4071,-27.3 -2.85707,-35 -0.44997,-7.7 -1.52228,-16.220888 -2.38291,-18.935308 -1.31035,-4.132812 -1.38173,-6.165349 -0.43899,-12.5 0.61919,-4.16058 1.55535,-8.127192 2.08035,-8.814692 C 224.01972,68.294869 231.97167,68 257,68 c 25.00616,0 32.99076,0.295715 33.75123,1.25 0.54786,0.6875 1.28932,10.25 1.64769,21.25 0.35837,11 1.50455,26.525 2.54707,34.5 1.04252,7.975 2.38616,19.45 2.98586,25.5 1.49059,15.03758 1.55835,15.20797 7.17953,18.05644 5.44652,2.75996 7.71576,5.60349 8.54378,10.706 1.14164,7.03509 -4.30334,13.44461 -15.65516,18.42835 -8.62433,3.78631 -13.74285,12.78788 -9.34636,16.43677 1.69092,1.40339 47.58325,1.84069 200.34636,1.90907 88.57925,0.0396 78.87488,0.33208 80.12631,-2.4145 1.76658,-3.87723 -1.2294,-8.51728 -9.80778,-15.18989 -12.76885,-9.93214 -14.12474,-11.98899 -12.91018,-19.58443 0.95942,-5.9999 3.08033,-9.39993 7.95622,-12.75463 l 4.36197,-3.00111 1.1151,-8.79604 c 0.6133,-4.83782 1.37886,-15.77103 1.70124,-24.29603 0.32238,-8.525 1.03395,-18.65 1.58128,-22.5 0.54733,-3.85 1.60458,-13.913777 2.34944,-22.363948 0.74486,-8.450171 1.75879,-15.768447 2.25318,-16.262834 0.50842,-0.508421 16.50956,-0.784714 36.83605,-0.636052 L 640.5,68.5 l -0.0956,4 c -0.0526,2.2 -1.03689,12.1 -2.18742,22 -2.11265,18.17892 -4.62019,72.20129 -3.49588,75.31528 0.33454,0.9266 2.33415,3.58717 4.44356,5.91238 3.64403,4.01682 3.8353,4.56147 3.8353,10.92141 0,6.60502 -0.0583,6.74964 -4.3985,10.90827 -2.70965,2.5963 -6.42672,4.88817 -9.68087,5.96902 -6.73423,2.23675 -11.68,5.15549 -13.03911,7.69502 -1.61025,3.00879 0.0903,3.9721 8.01287,4.53895 l 7.03759,0.50354 1.17632,3.61806 c 0.64697,1.98994 2.32706,6.09307 3.73352,9.11807 1.40646,3.025 2.62422,6.43136 2.70612,7.5697 0.0819,1.13833 0.84468,4.06333 1.69506,6.5 0.85037,2.43666 2.3283,7.1303 3.28429,10.4303 0.956,3.3 2.30869,7.575 3.00598,9.5 1.83789,5.07383 5.32023,15.51164 7.67344,23 1.12344,3.575 2.69605,8.525 3.49469,11 0.79865,2.475 2.60577,8.325 4.01583,13 1.41006,4.675 3.88876,12.1 5.50823,16.5 1.61947,4.4 3.33849,9.89016 3.82004,12.20035 0.48155,2.3102 1.32268,5.0102 1.86917,6 0.5465,0.98981 1.95416,5.17465 3.12814,9.29965 1.17398,4.125 3.22887,10.65 4.56642,14.5 1.33755,3.85 3.33933,9.925 4.44841,13.5 1.10909,3.575 2.69547,8.525 3.52531,11 0.82983,2.475 2.13474,6.525 2.89978,9 2.31089,7.47594 5.63832,17.14466 8.14607,23.67056 1.30416,3.3938 2.3712,7.38253 2.3712,8.86384 0,1.48131 0.87928,4.32956 1.95395,6.32945 1.07467,1.99988 2.60479,6.11115 3.40028,9.13615 3.51815,13.37857 7.94706,28.00805 10.29313,34 3.53367,9.02516 3.37326,8.54805 12.44015,37 4.4694,14.025 9.8781,30.92145 12.01934,37.54768 2.14123,6.62622 3.89917,12.47622 3.90653,13 0.0126,0.89759 10.38803,32.6539 15.08014,46.15618 1.18573,3.41212 1.88888,6.89962 1.56256,7.75 C 762.12248,626.84439 728.85487,627 432.10396,627 l -329.9588,0 -2.07258,-2.63486 z M 549.6821,531.5 c 1.32483,-1.73977 1.43196,-6.09869 0.82338,-33.5 -0.89319,-40.2161 -0.8773,-35.33893 -0.19064,-58.5 0.51172,-17.25997 0.85752,-85.28638 0.47021,-92.5 -0.0738,-1.375 0.18099,-9.34449 0.56625,-17.70998 0.69492,-15.08926 0.68241,-15.22156 -1.57541,-16.66749 -1.25174,-0.80163 -5.20089,-1.7151 -8.77589,-2.02993 -3.575,-0.31482 -57.42331,-0.8224 -119.66291,-1.12793 -92.02183,-0.45174 -113.31929,-0.31351 -114,0.7399 -0.4604,0.71249 -0.94277,7.14543 -1.07193,14.29543 -0.12916,7.15 -0.63767,15.95391 -1.13002,19.56425 -0.54763,4.01572 -0.5239,8.67464 0.0611,12 0.74531,4.23648 1.77239,37.70252 1.91618,62.43575 0.01,1.65 -0.39854,7.85291 -0.90696,13.78423 -0.50842,5.93133 -0.59287,12.59725 -0.18766,14.81314 0.4052,2.2159 0.43168,7.038 0.0588,10.71577 -1.16778,11.51905 -0.45944,72.2037 0.85822,73.5244 1.7384,1.74243 29.20247,2.16246 141.39469,2.16246 98.65521,0 99.84746,-0.0235 101.35255,-2 z M 370.79911,520 c -39.71187,-0.39163 -50.9822,-0.7815 -51.99878,-1.79878 -0.90249,-0.90311 -1.32985,-4.86345 -1.40281,-13 -0.0577,-6.43567 -0.16665,-17.77622 -0.2421,-25.20122 -0.24376,-23.98887 0.77776,-96.41604 1.39984,-99.25 0.77635,-3.53677 3.53543,-3.60681 9.84872,-0.25 2.58601,1.375 5.10204,2.5 5.59117,2.5 0.9082,0 22.47732,9.96885 27.00485,12.48115 9.70132,5.38319 19.5235,10.78226 25.5,14.01688 3.85,2.08371 7.9,4.57285 9,5.53143 3.18087,2.77193 28.31697,14.97054 30.84786,14.97054 2.23048,0 66.38075,-31.62519 72.22884,-35.60781 2.85876,-1.94685 9.70711,-5.32517 26.02511,-12.83828 7.21109,-3.32011 8.57599,-3.63645 12.41479,-2.87729 l 4.31298,0.85293 0.39797,13.48523 c 0.73346,24.85263 -0.46269,120.45754 -1.55747,124.48522 l -0.81544,3 -58.92732,0 c -32.41003,0 -81.74272,-0.225 -109.62821,-0.5 z M 415.99393,411.69272 C 407.7616,407.65287 400.48399,403.35664 396,399.88958 c -1.925,-1.48842 -10.25,-6.17601 -18.5,-10.41686 -26.95582,-13.85644 -37.91897,-19.65878 -43,-22.75814 -11.47347,-6.99866 -15.54205,-9.92463 -16.6319,-11.96104 -1.76938,-3.30612 -0.32742,-28.87347 1.71494,-30.40742 1.14575,-0.86054 26.87972,-1.04585 101.22664,-0.72894 109.50201,0.46676 117.76902,0.69083 119.07062,3.2273 0.46724,0.91053 1.14564,8.1929 1.50755,16.18303 0.50108,11.0627 0.35442,14.92148 -0.61492,16.17936 -0.70011,0.90851 -4.64793,3.06149 -8.77293,4.78441 -4.125,1.72291 -9.3,4.06709 -11.5,5.20929 -2.2,1.1422 -10.525,5.38325 -18.5,9.42456 -7.975,4.04131 -16.075,8.18554 -18,9.20939 -1.925,1.02385 -8.4215,4.29243 -14.43666,7.26351 -6.01516,2.97109 -13.5413,6.83361 -16.72474,8.58339 -9.84427,5.41091 -24.19387,11.32141 -27.34034,11.2613 -1.64904,-0.0315 -5.92599,-1.49401 -9.50433,-3.25 z M 271.90122,260.55108 c 1.54104,-0.7969 4.21869,-3.06256 5.95034,-5.03479 2.82371,-3.21603 3.14419,-4.22692 3.10722,-9.80109 -0.0821,-12.37818 -6.01297,-19.04853 -16.93679,-19.04853 -4.68502,0 -6.52017,0.53699 -10.12225,2.96191 l -4.39974,2.96191 0,10.13509 c 0,8.67674 0.29801,10.54081 2.07108,12.95475 4.23697,5.76839 14.04856,8.11908 20.33014,4.87075 z m 322.3809,0.0682 c 1.76983,-0.75942 4.79288,-3.03769 6.71788,-5.06283 3.33382,-3.50724 3.49235,-3.99959 3.33896,-10.36924 C 604.01222,231.61884 598.0265,225 586.08278,225 c -6.19912,0 -11.23748,3.21255 -12.16712,7.75799 -0.3633,1.77633 -1.19534,3.87407 -1.84897,4.66166 -0.65364,0.78758 -1.07614,2.02786 -0.93889,2.75616 0.13725,0.72831 -0.0881,2.75023 -0.50079,4.49317 -1.10234,4.65569 2.30797,10.69965 8.11542,14.38263 5.19573,3.29503 10.31128,3.81109 15.53969,1.56763 z m 10.17438,-52.24611 c 5.83004,-8.23832 9.04827,-10.69233 16.17465,-12.33374 5.45171,-1.25568 11.60003,-6.24216 9.81226,-7.95805 -1.43308,-1.37546 -72.05093,-6.80715 -73.2258,-5.63228 -1.14009,1.14008 1.02026,3.44038 6.92092,7.36928 C 576.73562,198.20597 583,205.20399 583,210.88873 c 0,3.86459 2.7148,5.22029 9.82101,4.90435 L 599.413,215.5 l 5.0435,-7.12687 z m -331.15457,4.79126 c 0.75591,-0.62735 1.93298,-3.05848 2.61571,-5.40251 2.17766,-7.47663 5.44259,-11.31664 12.99717,-15.28645 6.79481,-3.57058 10.78502,-7.53407 9.56773,-9.50368 -0.77585,-1.25535 -12.80779,-1.22732 -33.37838,0.0778 -9.0177,0.57212 -20.0665,1.16364 -24.55287,1.31451 C 231.48546,184.66895 230,185.1984 230,188.12484 c 0,3.66295 1.87254,5.59139 7.71554,7.94586 10.01058,4.03381 12.14464,5.67811 13.32869,10.26978 0.58995,2.28778 2.28384,5.20205 3.7642,6.47617 2.40015,2.06574 3.47262,2.27173 9.90534,1.90251 3.96758,-0.22773 7.83225,-0.92734 8.58816,-1.55469 z"
         style="fill:#0b86c7" />
      <path
         inkscape:connector-curvature="0"
         id="path3023"
         d="m 103.22251,623.4433 c -2.58064,-1.80755 -2.81636,-4.39425 -0.76239,-8.36618 0.80306,-1.55295 1.18003,-3.10364 0.8377,-3.44597 -2.00073,-2.00073 0.85452,-15.31546 5.49642,-25.63115 5.20737,-11.57234 10.06178,-23.82225 10.69959,-27 0.38637,-1.925 1.42506,-4.625 2.30821,-6 0.88314,-1.375 1.85146,-4.3 2.15183,-6.5 0.43462,-3.18329 1.00553,-4.06524 2.79613,-4.31955 2.49397,-0.3542 3.12214,-2.18045 0.75,-2.18045 -0.825,0 -1.5,-0.2392 -1.5,-0.53155 0,-1.304 4.36,-13.43779 6.45656,-17.96845 1.27256,-2.75 3.3073,-8.375 4.52166,-12.5 1.21435,-4.125 3.5627,-11.55 5.21856,-16.5 1.65585,-4.95 3.3839,-11.42689 3.84009,-14.39308 0.4562,-2.96619 2.13903,-8.14119 3.73963,-11.5 1.6006,-3.35881 3.51174,-8.13192 4.24697,-10.60692 0.73523,-2.475 1.75024,-5.04974 2.25557,-5.72165 0.50534,-0.67191 1.30124,-2.69691 1.76867,-4.5 0.46743,-1.80309 2.38548,-7.55335 4.26233,-12.77835 4.5232,-12.5922 4.12432,-11.34539 6.71849,-21 3.15769,-11.75181 5.05223,-15.58139 7.50602,-15.17243 1.93102,0.32183 1.93042,0.30134 -0.0343,-1.1692 -1.82252,-1.36412 -1.88089,-1.79194 -0.65866,-4.82757 2.90554,-7.21647 9.22934,-27.52358 9.60095,-30.8308 0.37468,-3.33443 1.52594,-7.11783 3.49939,-11.5 3.50335,-7.77941 11.25719,-29.458 11.2667,-31.5 0.006,-1.375 0.39213,-2.97208 0.85718,-3.54907 0.46506,-0.57699 4.4441,-11.82699 8.84233,-25 4.39823,-13.17301 8.73407,-25.97593 9.63521,-28.45093 0.90115,-2.475 2.00504,-6.525 2.45309,-9 2.12987,-11.76501 4.34418,-19.88431 6.67505,-24.47561 1.4029,-2.76342 2.88646,-5.69939 3.2968,-6.52439 0.41034,-0.825 1.59783,-1.63002 2.63888,-1.78893 7.28913,-1.11268 9.39282,-2.8325 9.39282,-7.67891 0,-3.25954 -2.81473,-6.60727 -8.59567,-10.22335 -1.57374,-0.9844 -1.62476,-1.2014 -0.29388,-1.25 0.88575,-0.0324 3.26824,1.06619 5.29441,2.44119 2.02618,1.375 4.06995,2.5 4.54172,2.5 0.97605,0 3.05342,5.43882 3.05342,7.99424 0,0.93268 0.86749,2.48085 1.92776,3.44038 2.46513,2.23091 15.84526,3.26699 21.68722,1.67933 3.54938,-0.96461 4.3397,-1.70677 5.75,-5.39957 0.89926,-2.35468 1.63502,-4.89872 1.63502,-5.65342 0,-2.5937 4.73393,-7.57357 9.42818,-9.91799 5.1501,-2.57209 7.28012,-2.3084 3.16002,0.3912 -3.21433,2.10611 -9.10195,10.11511 -9.90518,13.47414 -0.71381,2.98508 -0.186,3.88796 3.9678,6.78734 3.0923,2.15844 3.95589,2.21062 46.5,2.80958 23.84205,0.33566 46.04918,0.49397 49.34918,0.35182 6.8194,-0.29377 54.14385,-0.33175 65.5,-0.0526 4.125,0.10141 11.1,0.18303 15.5,0.18138 4.4,-0.002 11.98047,0.0909 16.8455,0.20557 4.86502,0.11471 9.03116,-0.0918 9.25809,-0.45903 0.22692,-0.36718 5.24645,-0.48941 11.1545,-0.27162 5.90805,0.21779 20.64191,0.36551 32.74191,0.32826 31.11403,-0.0958 36.96692,-0.59044 38.73469,-3.27382 1.36725,-2.07542 0.76814,-8.09863 -1.10559,-11.11522 -2.8201,-4.54018 -10.67948,-12.07112 -14.05805,-13.47057 -1.64949,-0.68324 -3.91526,-2.79509 -5.03506,-4.693 -3.9567,-6.70611 -1.84839,-13.60696 5.96401,-19.5212 l 4.5,-3.40665 1.66525,-13.95429 c 0.91589,-7.67486 1.70339,-18.93846 1.75,-25.03022 0.0466,-6.09176 0.72036,-15.76676 1.49721,-21.5 C 567.18931,98.190831 568.1332,89 568.51,83.5 c 0.46889,-6.84431 1.17656,-10.552246 2.24253,-11.75 1.41506,-1.590009 4.18714,-1.75 30.32142,-1.75 35.52007,0 35.22891,-0.0845 34.45693,10 -0.27367,3.575 -1.00689,9.65 -1.62938,13.5 -1.38179,8.54619 -1.8302,13.76821 -2.40432,28 -0.24406,6.05 -0.70329,16.175 -1.02051,22.5 -0.31723,6.325 -0.58236,14.96958 -0.58918,19.21018 -0.0119,7.41877 0.13626,7.9101 3.92145,13 2.40464,3.23349 4.17357,6.88411 4.55049,9.39107 0.54797,3.64454 0.22071,4.60944 -2.93875,8.66475 -2.90235,3.72529 -5.01097,5.15024 -11.48003,7.75793 -7.679,3.0954 -14.94065,8.76339 -14.94065,11.66173 0,0.68418 -0.96079,1.75817 -2.1351,2.38664 -1.67301,0.89537 -1.84104,1.32441 -0.77639,1.9824 0.77192,0.47707 1.61657,0.42249 1.9558,-0.12639 0.36667,-0.59328 2.30638,-0.36267 5.02639,0.59758 2.72698,0.96272 5.8198,1.32911 8.04728,0.95331 5.3399,-0.90089 8.8994,2.44823 9.62252,9.0538 0.29905,2.73185 1.15478,5.85463 1.90162,6.93951 0.74683,1.08487 1.35788,3.19582 1.35788,4.69098 0,1.49516 0.40478,2.96865 0.89952,3.27441 0.49474,0.30576 1.45093,2.91982 2.12488,5.80902 0.67394,2.88919 2.20973,7.50308 3.41286,10.25308 1.20313,2.75 3.42896,9.725 4.94629,15.5 1.51734,5.775 3.40176,11.97777 4.18762,13.78393 C 651.21168,292.55438 651.48225,299 650,299 c -0.55,0 -1,1.125 -1,2.5 0,2.55354 1.36493,3.33658 2.53001,1.45144 0.9479,-1.53372 3.69525,1.01915 3.01225,2.79902 -0.30181,0.78651 -0.21343,1.95192 0.1964,2.58978 1.45249,2.26068 3.23144,8.19712 3.24628,10.83303 0.008,1.47031 1.05931,3.94531 2.33562,5.5 1.27631,1.5547 2.89605,5.52673 3.59943,8.82673 0.70337,3.3 2.33451,8.7 3.62473,12 1.29023,3.3 2.52197,7.85228 2.7372,10.11618 0.21522,2.2639 1.36484,5.48337 2.5547,7.15437 1.18986,1.67101 2.17933,3.86872 2.19882,4.88382 0.0195,1.0151 0.67854,2.97063 1.46456,4.34563 0.78602,1.375 1.44508,4.31237 1.46456,6.52749 0.0195,2.21513 0.73454,5.0256 1.58899,6.2455 1.50784,2.15275 4.44645,11.88856 4.44645,14.73139 0,0.77374 1.09017,3.01326 2.4226,4.97671 1.33244,1.96345 2.92556,5.91507 3.54027,8.78139 0.61472,2.86632 1.75654,6.18654 2.53739,7.37826 0.78085,1.19172 1.37012,4.12258 1.3095,6.51302 -0.10196,4.02069 1.51229,9.9729 4.70434,17.34624 0.71432,1.65 1.96109,5.25 2.7706,8 0.80952,2.75 2.39993,6.575 3.53426,8.5 1.95156,3.31189 8.15711,24.65649 10.32097,35.5 1.59731,8.00443 4.81018,17.03624 8.41449,23.65429 0.79507,1.45986 1.44558,4.00986 1.44558,5.66667 0,1.6568 0.5185,3.18521 1.15222,3.39645 1.29506,0.43168 3.53407,7.64268 4.81752,15.51543 0.4692,2.87807 1.56795,5.94771 2.44168,6.82143 0.87372,0.87372 1.61451,2.11894 1.6462,2.76716 0.28126,5.75344 1.32447,9.49854 4.27613,15.35118 4.12249,8.17422 6.21685,13.93744 7.75037,21.32739 0.62774,3.025 2.18177,7.525 3.4534,10 2.4743,4.81576 5.46248,14.10443 5.46248,16.97998 0,0.96266 0.93266,2.93599 2.07258,4.38516 l 2.07258,2.63486 -12.87258,0 c -7.9362,0 -13.28947,-0.41689 -13.95971,-1.08713 -0.78285,-0.78285 -1.2752,-0.78285 -1.75902,0 -0.48002,0.77669 -53.8399,1.07976 -186.86287,1.06133 L 358.5,624.9484 l -1.75,-3.80181 c -0.9625,-2.091 -1.75,-4.56851 -1.75,-5.50559 0,-4.10847 -7.18628,-3.11524 -9.47439,1.30948 -1.35503,2.62034 -1.34945,3.08282 0.0541,4.48641 0.92074,0.92074 2.4613,1.34037 3.74258,1.01942 1.2003,-0.30067 3.0753,0.13347 4.17767,0.96729 1.7888,1.35304 -11.20305,1.51615 -123.02749,1.5446 -111.57482,0.0284 -125.26663,-0.1357 -127.25,-1.5249 z m 13.17192,-12.82187 c 0.83326,-1.41586 0.79811,-1.99044 -0.14271,-2.33276 -0.77657,-0.28256 -1.01902,-1.36764 -0.64159,-2.87143 0.49791,-1.98383 0.22865,-2.41724 -1.50172,-2.41724 -2.02861,0 -2.55933,0.94996 -2.15743,3.86161 0.10337,0.74888 -0.80024,2.41348 -2.00803,3.69911 -1.32869,1.41433 -1.94727,2.98564 -1.56625,3.97857 0.57566,1.50014 0.89946,1.48304 3.77094,-0.19912 1.72767,-1.01209 3.63872,-2.68553 4.24679,-3.71874 z m 252.5668,-6.54899 c 0.56738,-1.06015 0.77356,-2.59999 0.45818,-3.42186 -0.31538,-0.82186 0.008,-2.54196 0.71815,-3.82244 1.56467,-2.82042 1.80701,-4.52142 2.4688,-17.32814 0.46974,-9.09009 0.37354,-9.85913 -1.05724,-8.45184 -1.94413,1.91221 -5.53783,11.53098 -5.58092,14.93772 -0.0175,1.38277 -0.6925,3.38763 -1.5,4.45525 -1.79044,2.36717 -1.9824,12.64467 -0.2682,14.35887 1.75065,1.75065 3.58495,1.47035 4.76123,-0.72756 z m -6.59358,-27.69794 c 1.51152,-2.07401 1.65862,-3.02142 0.77144,-4.96858 -1.36034,-2.98562 -5.10675,-3.2456 -5.84934,-0.40592 -0.53417,2.04267 -2.28975,2.80939 -2.28975,1 0,-0.55 -0.5051,-1 -1.12244,-1 -0.75639,0 -0.80136,0.40766 -0.13789,1.25 0.5415,0.6875 1.28018,2.4875 1.64149,4 0.85584,3.58258 4.41997,3.64609 6.98649,0.1245 z M 579.50981,548.25 c -0.21702,-2.0625 -0.42051,-3.9176 -0.45219,-4.12244 -0.0317,-0.20485 -0.72689,0.18299 -1.54489,0.86187 -2.13843,1.77475 -4.31696,0.56568 -4.69061,-2.60325 C 572.44356,539.1756 570,537.8521 570,540.85765 c 0,1.11337 0.48068,2.32139 1.06817,2.68448 0.5875,0.3631 0.80474,1.34669 0.48275,2.18577 -0.82094,2.13933 1.24117,4.2721 4.13054,4.2721 1.36974,0 2.16597,0.43784 1.81854,1 -0.33992,0.55 0.062,1 0.89317,1 1.14977,0 1.41684,-0.89691 1.11664,-3.75 z m -132.02954,-8.21807 c 0.32906,-0.53244 2.04312,-1.00441 3.80901,-1.04883 1.7659,-0.0444 4.33572,-0.10351 5.71072,-0.13133 3.67256,-0.0743 46.60255,0.0376 68.11399,0.1775 20.52911,0.13352 25.70111,-0.70746 28.83239,-4.68823 1.91363,-2.43279 2.05362,-3.95352 2.05362,-22.30923 0,-10.83416 0.32222,-20.0207 0.71604,-20.41452 0.39383,-0.39382 1.20276,0.99368 1.79764,3.08333 1.05996,3.72336 1.17596,3.79811 5.79766,3.73568 6.15223,-0.0831 6.95699,-1.00459 5.19603,-5.94978 C 567.23357,486.10117 567.52886,484 570.7,484 c 1.91666,0 2.38977,-0.31023 1.6307,-1.0693 -0.58812,-0.58812 -1.69062,-1.17226 -2.45,-1.29809 -0.75939,-0.12584 -2.3932,-0.78549 -3.6307,-1.46589 -2.06697,-1.13646 -2.25,-1.03086 -2.25,1.2981 0,2.96799 -0.73036,3.11201 -3.60318,0.71051 -3.42395,-2.86223 -4.5448,-5.95732 -4.34095,-11.98705 0.10577,-3.12855 -0.1309,-6.9002 -0.52593,-8.38144 -1.06766,-4.00344 0.27419,-5.3942 2.69619,-2.79449 1.54151,1.65461 1.79808,2.67107 1.09177,4.32528 -1.05327,2.46679 -1.04066,3.67369 0.0931,8.91237 1.56355,7.22458 4.589,3.13092 4.589,-6.20926 0,-5.98489 0.0528,-6.1013 3.03906,-6.69855 4.66244,-0.93249 2.92368,-2.8061 -2.9198,-3.14626 -6.37453,-0.37107 -7.48308,-2.16297 -3.74916,-6.06035 1.44645,-1.50976 2.6299,-3.50789 2.6299,-4.4403 0,-0.9324 0.45,-1.69528 1,-1.69528 1.30765,0 1.29074,-3.30926 -0.0236,-4.62363 -0.69817,-0.69817 -0.39589,-1.59172 0.95072,-2.81039 1.82948,-1.65565 1.85946,-1.96211 0.40862,-4.17637 C 564.40932,430.97575 562.79612,430 561.38499,430 559.53879,430 559,429.46158 559,427.61663 c 0,-3.21767 3.75467,-4.3442 4.19462,-1.25853 0.19501,1.36781 1.02323,2.1419 2.29168,2.1419 3.13825,0 3.01797,-3.14918 -0.17879,-4.68135 -4.11215,-1.9709 -3.77435,-5.17732 0.613,-5.81865 4.78138,-0.69893 5.00943,-2.66803 0.3746,-3.23449 -5.46277,-0.66766 -6.15805,-0.1256 -6.49389,5.06283 -0.22594,3.49069 -0.73856,4.73672 -2.05122,4.98599 -1.56961,0.29806 -1.77082,-0.78336 -1.95201,-10.49101 -0.11111,-5.95282 -0.15223,-12.17332 -0.0914,-13.82332 0.31246,-8.47328 0.52307,-29.129 0.3059,-30 -0.13714,-0.55 -0.19605,-2.70162 -0.13092,-4.78138 0.14313,-4.57045 2.39222,-5.87523 5.10609,-2.96223 1.54074,1.65379 2.73616,1.92125 6.69402,1.49768 6.05537,-0.64805 7.4727,-1.73265 6.6887,-5.11849 -0.78944,-3.40937 -3.22711,-5.29535 -6.36949,-4.92797 -1.99675,0.23345 -3.05527,-0.57136 -5.2509,-3.99234 -1.5125,-2.3566 -2.75,-4.85925 -2.75,-5.56144 0,-0.70219 -0.86373,-2.20381 -1.9194,-3.33695 -1.67973,-1.80297 -1.91382,-3.57471 -1.87469,-14.18856 C 556.24712,315.95282 556.39792,315 558.12532,315 559.15639,315 560,314.55 560,314 c 0,-0.55 -0.41796,-1 -0.9288,-1 -0.51084,0 -2.59878,-1.575 -4.63988,-3.5 -3.22485,-3.04143 -4.38061,-3.50499 -8.8212,-3.53809 -2.81057,-0.0209 -12.76012,-0.25641 -22.11012,-0.52327 -9.35,-0.26685 -50.3,-0.72892 -91,-1.02682 -40.7,-0.2979 -75.125,-0.56933 -76.5,-0.60318 -1.375,-0.0339 -8.35,0.0115 -15.5,0.10074 -7.15,0.0893 -14.575,0.11629 -16.5,0.0601 -14.45041,-0.42207 -20.62063,0.10125 -23.75,2.01433 -2.90024,1.77301 -3.25,2.47706 -3.25,6.54202 0,3.07836 -0.69002,5.4885 -2.12832,7.4339 l -2.12832,2.87871 2.1856,4.51485 c 1.84684,3.81507 2.04919,5.26536 1.30552,9.35698 -0.85377,4.69735 -0.79597,6.88542 0.37894,14.34536 0.39522,2.50938 0.10907,3.92984 -0.97251,4.82746 -1.17146,0.97223 -1.30429,1.87212 -0.56382,3.81971 0.53278,1.40131 0.96461,3.95395 0.95962,5.67254 -0.005,1.71858 -0.005,4.0247 7e-4,5.1247 0.0146,2.99216 -0.61161,9.34907 -1.5016,15.24337 -0.52739,3.4928 -0.4199,5.69137 0.32195,6.58524 0.61252,0.73804 1.06,3.72387 0.99441,6.63518 -0.0961,4.26701 -0.48113,5.38793 -1.98571,5.78138 -2.55636,0.66851 -2.33997,1.71805 0.63354,3.07288 3.137,1.42931 3.28818,4.91022 0.37416,8.6148 -2.06543,2.62577 -2.07254,2.7399 -0.25,4.01632 2.74178,1.92023 2.10872,11.12592 -0.81775,11.8912 -1.89024,0.49431 -1.91525,0.66616 -0.40976,2.81554 0.88184,1.25901 1.60335,3.3281 1.60335,4.59798 0,1.26988 0.62686,2.54943 1.39301,2.84343 0.82294,0.31579 1.67279,2.77373 2.07665,6.00613 0.55097,4.40981 0.31848,6.09496 -1.19807,8.68406 -2.48786,4.24735 -2.4793,14.7205 0.0143,17.47587 0.94277,1.04176 1.71413,3.14495 1.71413,4.67377 0,2.53249 -0.24454,2.71848 -2.75,2.09164 -1.5125,-0.37842 -3.11516,-1.33667 -3.56146,-2.12944 -0.4463,-0.79278 -1.2338,-1.18039 -1.75,-0.86137 -1.57332,0.97237 -1.04685,4.91326 0.81146,6.07425 2.60084,1.6249 3.0397,14.85768 0.58279,17.57254 -1.42711,1.57694 -1.52494,2.2779 -0.5384,3.8576 0.66308,1.06177 1.20561,3.7073 1.20561,5.87896 0,2.17166 0.43281,5.08683 0.96179,6.47817 0.63694,1.67529 0.61494,2.74406 -0.0651,3.16438 -0.64965,0.4015 -0.4391,1.28422 0.57307,2.40266 1.34432,1.48546 1.42249,2.46835 0.48914,6.15072 -2.01179,7.93719 -1.92337,8.21183 2.91609,9.05703 3.09392,0.54035 4.93281,0.37334 6.28014,-0.57037 1.41964,-0.99435 3.10808,-1.10606 6.62505,-0.4383 2.59592,0.49289 5.61986,0.68072 6.71986,0.41742 3.23346,-0.77398 14.18512,-0.76202 45,0.0492 15.95,0.41986 31.25,0.62261 34,0.45055 5.22819,-0.32712 10.63511,-0.34501 24,-0.0794 4.4,0.0874 10.4002,0.1212 13.33378,0.075 2.93357,-0.0462 6.08357,0.35362 7,0.88843 2.16466,1.26329 5.88347,1.29974 6.64649,0.0652 z m -7.58957,-24.45201 c -0.49169,-0.50989 -70.75906,-1.93223 -79.8907,-1.61714 -5.67131,0.19569 -31.75327,0.0153 -34.95403,-0.24171 l -3.45402,-0.27738 -0.40568,-19.47185 c -0.67552,-32.42374 -0.37765,-36.86914 2.7543,-41.10533 2.14017,-2.89474 2.15715,-3.07457 0.4108,-4.35153 -1.60205,-1.17145 -1.83071,-2.98686 -1.89699,-15.06109 -0.0686,-12.49402 0.10446,-13.89662 1.92368,-15.59148 1.99663,-1.86015 1.9964,-1.86489 -0.1895,-3.90137 C 322.13902,412.0516 322,411.03528 322,397.96104 322,389.32035 322.38109,384 323,384 c 0.55,0 1.01006,0.5625 1.02235,1.25 0.0123,0.6875 3.94979,2.78571 8.75,4.66269 4.80021,1.87698 9.76827,4.21386 11.04013,5.19307 1.27187,0.97921 3.97187,2.32116 6,2.98213 6.78513,2.21125 19.96379,8.88671 20.5476,10.40809 0.31743,0.82721 1.19653,1.50402 1.95355,1.50402 0.75702,0 2.19088,0.9 3.18637,2 0.99549,1.1 2.58513,2 3.53254,2 0.94742,0 2.28277,0.675 2.96746,1.5 0.68469,0.825 2.25969,1.5 3.5,1.5 1.24031,0 2.81531,0.675 3.5,1.5 0.68469,0.825 2.11275,1.5 3.17347,1.5 1.26859,0 2.44263,1.23029 3.4307,3.59507 1.26303,3.02286 1.87336,3.50189 3.83455,3.00967 1.4535,-0.36481 2.79853,-0.0238 3.5693,0.90493 0.68028,0.81968 2.01291,1.49033 2.96142,1.49033 0.9485,0 2.76225,0.9 4.03056,2 1.26831,1.1 3.11061,2 4.09399,2 0.98339,0 2.06609,0.45 2.40601,1 0.33992,0.55 1.50042,1 2.57889,1 1.07847,0 3.75741,1.13411 5.95319,2.52025 l 3.99234,2.52026 1.12541,-2.47002 c 1.38532,-3.04043 11.8763,-9.94555 19.86967,-13.07813 3.26792,-1.28069 7.29105,-3.28937 8.94029,-4.46373 C 462.75598,417.3255 474.43729,412 476.57031,412 c 0.88783,0 2.74336,-0.88817 4.12341,-1.97372 1.38005,-1.08554 4.04678,-2.26217 5.92607,-2.61473 1.87929,-0.35256 6.96221,-2.95188 11.29539,-5.77628 C 511.2393,392.95051 516.41265,390 518.31618,390 c 1.00523,0 3.80686,-1.15987 6.22585,-2.5775 4.84352,-2.83849 6.45797,-2.55437 6.45797,1.13652 0,1.90279 -0.52365,2.44098 -2.375,2.44098 -1.87645,0 -2.5106,0.678 -3.02098,3.22988 -0.52074,2.6037 -0.22332,3.54868 1.53412,4.87432 1.75251,1.32192 2.24761,2.88289 2.52438,7.95899 0.23456,4.3019 -0.0552,6.56337 -0.90911,7.09517 -1.00323,0.6248 -1.00391,1.1832 -0.003,2.79756 1.50233,2.4241 1.63219,5.04408 0.25,5.04408 -1.65315,0 -1.21692,13.24529 0.5178,15.72195 1.38533,1.97783 1.3449,2.32805 -0.46311,4.01247 -2.58152,2.40505 -3.68231,15.49981 -1.45814,17.34571 0.7719,0.64062 1.40345,2.14466 1.40345,3.34231 0,1.19766 0.46907,2.64663 1.04238,3.21994 0.72318,0.72318 0.57006,1.43437 -0.5,2.32245 -1.85869,1.54257 -1.92908,3.56065 -0.33242,9.53038 1.05044,3.92745 0.97915,4.91464 -0.54066,7.48747 -1.59385,2.69817 -1.61214,3.17493 -0.20422,5.32368 1.26205,1.92613 1.36147,3.33528 0.54066,7.66337 -1.31216,6.91901 -1.3288,6.79296 0.99426,7.53027 2.40484,0.76327 2.83545,5.5 0.5,5.5 -0.825,0 -1.5,0.87961 -1.5,1.95469 0,2.4552 -5.09055,3.58349 -11.81247,2.61816 -2.57814,-0.37024 -5.58753,-0.59764 -6.68753,-0.50532 -2.63608,0.22122 -6.40778,0.1762 -9.5,-0.1134 -1.375,-0.12877 -10.825,-0.20208 -21,-0.16292 -10.175,0.0392 -19.4,0.0376 -20.5,-0.004 -1.1,-0.0411 -5.825,0.26246 -10.5,0.67467 -4.675,0.41222 -8.77419,0.46516 -9.1093,0.11764 z m -46.25585,-29.27004 c 0.82477,-0.3165 2.00934,-0.0657 2.63237,0.55734 1.47026,1.47026 6.00767,1.45789 7.48598,-0.0204 1.56098,-1.56098 -0.23793,-4.8468 -2.65353,-4.8468 -1.00647,0 -2.97937,-0.90413 -4.38421,-2.00918 -2.36616,-1.86122 -2.67488,-1.88854 -4.19237,-0.37106 -0.90096,0.90097 -1.38577,2.2957 -1.07736,3.0994 0.30841,0.80371 -0.1953,2.74118 -1.11936,4.30549 -1.4639,2.47818 -1.49649,3.06725 -0.25324,4.57749 1.30499,1.58524 1.454,1.45782 1.7445,-1.49176 0.1747,-1.77378 0.99245,-3.48401 1.81722,-3.8005 z M 392.5,464.56357 c 0,-1.37451 -1.01564,-2.1983 -3.5,-2.83884 -1.925,-0.49633 -3.85986,-1.53743 -4.29969,-2.31357 -1.03437,-1.82529 -2.33754,-1.79891 -3.05155,0.0618 -0.31086,0.81011 0.60121,2.85913 2.02682,4.55338 2.04422,2.42941 3.25064,3.01634 5.70823,2.77708 2.31098,-0.22499 3.11619,-0.80375 3.11619,-2.23981 z m 92.95102,-8.92387 c 1.58619,-7.82468 1.54742,-9.33114 -0.28281,-10.98747 -1.75011,-1.58383 -2.02236,-1.5548 -4.62623,0.49341 l -2.76668,2.17627 2.25529,1.70116 c 1.71962,1.29711 2.12704,2.37203 1.71534,4.52567 -0.29696,1.55347 -0.32404,3.38711 -0.0602,4.07474 0.70613,1.84014 3.26319,0.49292 3.76526,-1.98378 z M 365,449.87157 c 0,-0.50295 1.10665,-1.41867 2.45922,-2.03494 1.99724,-0.91001 2.27242,-1.46955 1.46482,-2.97857 -0.66531,-1.24314 -0.65182,-2.4982 0.0408,-3.79232 1.28878,-2.40811 1.35063,-6.06574 0.10257,-6.06574 -1.23812,0 -2.37105,3.69965 -1.54314,5.03923 0.35933,0.58142 -0.96162,2.58023 -2.93546,4.4418 -3.37912,3.18692 -4.3609,5.41352 -2.99102,6.7834 0.80911,0.80912 3.40223,-0.25249 3.40223,-1.39286 z m -31.80644,-5.95224 c 0.19812,-0.59437 1.88017,-1.39153 3.73789,-1.77147 5.76717,-1.17952 5.79445,-3.01733 0.13378,-9.01152 -5.38836,-5.70583 -5.95355,-7.15421 -3.56523,-9.13634 2.03403,-1.6881 1.88512,-3.67025 -0.46526,-6.19309 -1.63082,-1.75047 -2.22644,-1.8927 -3.5,-0.83574 -0.84411,0.70055 -1.53474,2.42069 -1.53474,3.82253 0,1.40185 -0.74642,3.3736 -1.6587,4.38167 -1.39146,1.53753 -1.47917,2.43638 -0.54438,5.57874 0.61289,2.06024 1.37698,5.41892 1.69799,7.46374 0.7773,4.95135 4.65536,8.83134 5.69865,5.70148 z m 83.29163,-37.02465 c -2.19185,-1.15793 -4.91419,-2.95793 -6.04964,-4 C 409.3001,401.85261 407.81938,401 407.14506,401 c -0.67433,0 -2.44532,-0.83137 -3.93555,-1.84749 -10.77052,-7.34395 -22.53954,-14.35393 -27.05332,-16.1138 -2.9391,-1.14592 -6.00875,-2.74841 -6.82143,-3.5611 C 368.52207,378.66493 367.26939,378 366.55102,378 c -0.71837,0 -1.86633,-0.675 -2.55102,-1.5 -0.68469,-0.825 -2.05293,-1.5 -3.04053,-1.5 -3.50599,0 -25.21786,-12.26544 -35.80927,-20.22931 l -4.3498,-3.27069 0.53756,-10.88775 c 0.29565,-5.98827 1.02184,-11.37205 1.61376,-11.96397 0.76828,-0.76828 1.98019,-0.735 4.2356,0.11632 2.26349,0.85438 3.5267,0.8877 4.4547,0.11753 0.75458,-0.62624 5.58727,-1.04028 11.57664,-0.99181 5.65474,0.0457 19.21926,0.0759 30.1434,0.067 12.86032,-0.0105 20.32398,0.36717 21.17243,1.07131 0.94401,0.78346 2.99562,0.78193 7.33792,-0.005 3.98949,-0.72344 12.89148,-0.85041 26.32757,-0.37554 11.16501,0.39461 21.42502,0.69138 22.80002,0.65948 1.375,-0.0319 14.65,-0.0935 29.5,-0.13688 32.81325,-0.0959 30.67547,-0.0761 32.5,-0.30066 0.825,-0.10153 5.02963,-0.11372 9.34362,-0.0271 6.93158,0.13921 7.90443,0.39009 8.36663,2.15753 0.28766,1.1 0.93636,2 1.44157,2 0.5052,0 0.40746,0.95498 -0.2172,2.12217 -0.62467,1.16719 -0.88437,3.37909 -0.57712,4.91534 0.64337,3.21686 -1.03345,14.8671 -2.37195,16.4799 -1.46747,1.76819 -10.32773,5.88242 -12.34149,5.73073 -1.02276,-0.077 -2.06428,0.64276 -2.31449,1.59957 -0.47906,1.83195 -8.61836,6.17548 -11.54477,6.16086 -0.94337,-0.005 -3.25277,1.34143 -5.13202,2.99143 -1.87924,1.65 -3.93736,3 -4.57359,3 -0.63624,0 -4.62683,1.54182 -8.86799,3.42626 -4.24116,1.88444 -9.37334,3.70007 -11.40484,4.03474 -2.22226,0.36609 -3.91722,1.29176 -4.2549,2.32374 C 467.87649,387.84748 454.08612,397 451.6531,397 c -0.94454,0 -3.39038,0.7115 -5.43522,1.58112 -2.04483,0.86961 -4.44092,1.73136 -5.32464,1.91499 -0.88371,0.18364 -2.8175,1.45596 -4.29729,2.82739 -6.32374,5.86064 -13.39882,7.117 -20.11076,3.57118 z M 562.81805,512.5 c 0.65174,-1.43041 1.97866,-2.5 3.10149,-2.5 2.59462,0 3.55715,-1.7207 2.00721,-3.58826 -1.56053,-1.88033 -6.60976,-1.00336 -9.3342,1.6212 -1.8056,1.7394 -1.81772,1.97447 -0.22695,4.40229 2.10391,3.21097 3.01292,3.22419 4.45245,0.0648 z M 584,459.89235 c 0,-0.42587 -0.45,-1.05243 -1,-1.39235 -1.61979,-1.00108 -1.15205,-4.51792 1.08156,-8.13197 1.14486,-1.85241 1.70736,-3.36125 1.25,-3.35297 -2.13377,0.0386 -8.80318,2.8998 -9.1442,3.92285 -0.82004,2.46012 0.86249,6.06209 2.83169,6.06209 1.25425,0 1.98095,0.67254 1.98095,1.83333 0,1.00834 0.675,1.83334 1.5,1.83334 0.825,0 1.5,-0.34845 1.5,-0.77432 z M 614.5,432 c 1.5808,-1.65 3.48545,-3 4.23255,-3 0.7471,0 2.50229,-1.14393 3.90043,-2.54207 2.05702,-2.05702 2.3112,-2.82026 1.3321,-4 -1.28571,-1.5492 -4.73722,-1.91331 -6.56538,-0.69262 -0.60516,0.40408 -1.61952,1.72107 -2.25412,2.92666 -0.75484,1.43399 -2.5951,2.47699 -5.32178,3.01621 -4.91881,0.97274 -5.70979,2.40583 -2.8863,5.22932 2.77668,2.77668 4.16951,2.60402 7.5625,-0.9375 z m -48.95097,-24.75 c 1.302,-2.9862 1.1403,-8.6398 -0.31709,-11.08676 -1.58026,-2.65329 -1.00411,-3.66324 2.08979,-3.66324 2.47789,0 3.59202,-3.31724 1.54006,-4.58542 -1.05843,-0.65414 -0.92344,-1.19688 0.65161,-2.61982 1.09263,-0.98712 2.8491,-1.79476 3.90327,-1.79476 3.7266,0 2.58984,-2.2258 -2.03975,-3.99386 -3.92139,-1.49759 -5.03384,-1.58074 -6.78375,-0.50709 -2.02563,1.24282 -2.0367,1.22068 -0.34317,-0.68614 2.17249,-2.44609 2.18191,-3.17818 0.0709,-5.51083 -1.61779,-1.78763 -1.72736,-1.74066 -3,1.28607 -0.72649,1.72781 -1.32089,5.92481 -1.32089,9.32666 0,3.40185 -0.40326,6.61269 -0.89612,7.13519 -1.24346,1.31821 0.55942,13.28718 2.43189,16.14494 1.80592,2.75618 2.98261,2.91892 4.01326,0.55506 z M 272,263.78302 c 1.925,-1.21522 4.3594,-2.67604 5.40979,-3.24626 2.83822,-1.54077 5.64911,-7.70734 6.27427,-13.76457 0.64944,-6.29247 -2.09271,-13.8734 -6.56976,-18.16268 -7.30046,-6.99429 -23.67441,-6.08822 -30.9614,1.71329 -2.01972,2.16233 -2.39433,3.73047 -2.68571,11.24267 -0.36822,9.49307 1.30881,14.99656 5.8777,19.28881 5.49734,5.16448 16.79915,6.62553 22.65511,2.92874 z m 320.57221,0.75138 c 3.47277,-1.0313 6.35821,-2.91033 9.73735,-6.34105 4.25844,-4.32345 4.8635,-5.48785 5.34413,-10.2844 0.62272,-6.21454 -2.12356,-14.93704 -6.24511,-19.83523 -4.34348,-5.16193 -15.70094,-7.54733 -23.50936,-4.93766 -3.50671,1.17199 -8.38558,5.10035 -9.9775,8.03367 -1.95425,3.60096 -3.03055,16.17018 -1.8265,21.33027 1.3898,5.95614 2.4599,7.5 5.19848,7.5 1.12685,0 2.86394,0.73768 3.86021,1.63929 0.99626,0.9016 4.1817,2.21333 7.07874,2.91495 2.89704,0.70162 5.29817,1.31394 5.33585,1.36071 0.0377,0.0468 2.28934,-0.57447 5.00371,-1.38055 z m 14.06061,-54.16552 C 613.13687,202.1615 618.95653,198 623.93012,198 c 0.92173,0 3.56453,-1.38893 5.87288,-3.08651 4.83201,-3.5535 5.55255,-6.99867 1.947,-9.30931 -2.22742,-1.42745 -22.44735,-3.74447 -35.75,-4.09663 -3.575,-0.0946 -12.125,-0.57259 -19,-1.06211 -6.875,-0.48953 -14.93487,-0.90251 -17.91081,-0.91774 -5.10246,-0.0261 -5.46679,0.13921 -6.39291,2.90101 -0.85756,2.55735 -0.65758,3.19133 1.57712,5 3.3837,2.73859 14.54374,10.78417 16.85908,12.15418 2.95944,1.75112 7.07947,8.5784 7.62322,12.6324 0.27702,2.06529 1.18741,4.32424 2.0231,5.01989 1.49963,1.24832 14.08735,2.62397 17.45721,1.90781 0.95481,-0.20292 4.73337,-4.15126 8.39681,-8.77411 z m -378.8469,-13.08167 c -4.9795,-0.75795 -9.40399,-8.26464 -7.02061,-11.91132 1.37275,-2.10036 4.91352,0.26827 5.61051,3.7532 0.36284,1.81421 1.86091,4.55234 3.32904,6.08473 1.46813,1.5324 2.24763,2.71876 1.73223,2.63635 -0.5154,-0.0824 -2.15843,-0.33574 -3.65117,-0.56296 z m 68.90752,-3.92711 c -0.35195,-0.35194 0.69805,-2.3292 2.33333,-4.3939 3.6093,-4.55711 3.72793,-6.42559 0.54059,-8.51402 -2.09053,-1.36977 -5.00866,-1.51217 -20.75,-1.01261 -10.07455,0.31972 -20.34236,0.80801 -22.81736,1.08509 -2.475,0.27707 -9.40381,0.69869 -15.39736,0.93692 -5.99355,0.23823 -11.37105,0.90683 -11.95,1.48578 -1.38416,1.38416 -2.76187,1.28556 -4.92001,-0.35211 -2.22328,-1.6871 -1.29898,-4.42942 1.90329,-5.64693 1.29974,-0.49416 3.22774,-2.32015 4.28444,-4.05776 1.66753,-2.74203 1.87529,-4.69347 1.57302,-14.77493 -0.19155,-6.3886 -1.10816,-16.56563 -2.03692,-22.61563 -0.92875,-6.05 -1.82304,-15.275 -1.9873,-20.5 -0.49774,-15.832698 -1.55671,-25.203992 -3.11724,-27.585653 -1.25959,-1.92238 -1.29649,-3.213446 -0.24547,-8.58842 0.68033,-3.47926 1.9472,-6.874115 2.81526,-7.544124 1.15693,-0.892971 9.49217,-1.226687 31.2213,-1.25 32.02362,-0.03436 31.78688,-0.0755 30.07894,5.226881 -1.1027,3.423357 0.15385,41.471316 1.47759,44.741316 0.63836,1.57692 2.12218,17.97015 2.84763,31.4605 0.56457,10.49889 3.94103,17.38042 9.88498,20.14649 3.1893,1.48417 4.37131,2.77073 5.47294,5.95702 1.82874,5.28938 0.96062,8.36704 -3.61327,12.80965 -3.51632,3.41539 -6.13873,4.4461 -7.59838,2.98644 z"
         style="fill:#007cc2" />
    </g>
    <path
       inkscape:connector-curvature="0"
       id="path3027"
       d="m -433.00119,333.23983 c -12.21406,0.11055 -24.44459,-0.12219 -36.64701,0.39494 -1.01109,0.0647 -2.29679,0.30105 -2.18862,1.61266 -1.14387,10.94358 -0.83431,21.99446 -1.98927,32.943 -0.69842,8.62916 0.78723,17.213 0.88738,25.83608 0.61049,18.4006 1.39647,36.82593 0.71518,55.23477 -0.6957,8.22917 -1.23297,16.50099 -0.51013,24.74948 0.0944,7.11629 -0.58409,14.22265 -0.56804,21.34301 -0.2449,11.83671 -0.0779,23.67543 0.099,35.5117 3.87808,0 7.75615,0 11.63423,0 0.0891,-38.48167 -0.26102,-76.97222 0.7076,-115.4455 0.26403,-4.0082 0.0293,-8.13219 0.91329,-12.05385 1.39032,-2.3701 4.37525,-1.35221 6.34212,-0.44724 4.55395,2.09309 9.12212,4.14852 13.76048,6.05371 16.61837,7.15043 32.44344,15.95989 48.16476,24.87061 6.41985,3.59625 12.41656,7.90856 19.07948,11.07543 6.12881,3.05179 12.25395,6.2239 18.71064,8.51418 3.32879,0.41325 6.20576,-1.89137 9.19148,-3.01031 20.13076,-9.60072 40.17705,-19.39832 59.91959,-29.77656 10.90597,-6.4089 22.45425,-11.61303 34.00436,-16.73318 2.93375,-1.4292 6.26394,-2.24057 9.47854,-1.29535 1.21694,0.56078 3.83599,-0.11077 3.63608,1.75499 0.53747,8.90877 0.24879,17.85523 0.36998,26.77928 -0.0223,33.23877 0.19911,66.48905 -0.94061,99.71379 3.29664,0 6.59328,0 9.88992,0 -0.24205,-21.09761 -1.24754,-42.19897 -0.4539,-63.29635 0.90348,-34.61656 0.41178,-69.2478 0.82509,-103.86946 0.037,-8.17612 0.9515,-16.35712 0.49274,-24.52752 -0.34614,-3.07815 -4.08409,-3.63691 -6.53759,-4.10786 -8.79889,-1.1557 -17.71141,-0.73514 -26.5627,-1.0175 -57.47182,-0.62599 -114.94917,-0.81088 -172.42412,-0.80695 z m 27.01215,14.16019 c 46.14754,0.11712 92.29821,0.0522 138.44207,0.71406 8.6708,0.29222 17.41031,0.0807 26.01184,1.33696 1.50611,0.11027 2.80907,1.11862 2.75323,2.73762 1.12882,9.05888 1.50754,18.22386 1.3195,27.34865 0.10051,1.99824 -0.63297,4.11004 -2.65242,4.87175 -7.68853,4.1644 -15.95147,7.14861 -23.635,11.33443 -22.74107,11.63636 -45.56069,23.12101 -68.28865,34.7811 -6.57845,3.0541 -13.17127,6.32035 -20.24714,8.04866 -3.21034,0.4213 -6.25029,-1.30501 -9.18783,-2.36612 -8.21283,-3.74851 -15.89545,-8.53874 -23.33701,-13.62067 -13.08547,-7.75849 -26.79514,-14.39622 -40.23022,-21.51746 -11.60031,-6.08297 -23.36806,-12.0878 -33.77963,-20.10742 -1.72586,-1.19739 -2.80275,-3.07915 -2.78103,-5.20003 -0.55084,-8.23257 -0.19698,-16.57383 1.25887,-24.70012 0.22036,-1.37665 0.68077,-3.27983 2.47659,-3.10191 12.53716,-0.74362 25.113,-0.4404 37.66727,-0.56199 4.73652,-0.009 9.47304,-0.002 14.20956,0.002 z"
       style="fill:#ffffff;fill-opacity:1" />
    <path
       inkscape:connector-curvature="0"
       id="path3029"
       d="m -439.32021,333.17401 c -10.3677,0.1274 -20.76333,-0.19237 -31.10964,0.55126 -2.1012,0.18146 -1.42709,2.86581 -1.73609,4.29496 -0.67089,10.76065 -0.98879,21.5419 -1.78545,32.29433 -0.30963,8.75546 0.92341,17.46372 1.037,26.21312 0.65217,20.577 1.59041,41.20811 0.0409,61.76782 -0.31691,11.03264 0.16129,22.07603 -0.31504,33.10842 -0.47841,13.14984 -0.30443,26.30947 -0.0305,39.46155 3.95213,0 7.90426,0 11.85639,0 -0.49638,-30.34504 -0.0673,-60.69577 0.16176,-91.04155 0.21257,-11.41422 0.0353,-22.8585 0.94078,-34.2445 0.0508,-1.63835 0.74223,-3.66312 2.73988,-3.55445 3.94209,0.28703 7.29075,2.79454 10.93486,4.12217 20.82406,8.57152 40.59031,19.46101 60.04054,30.75025 9.4027,6.15631 19.55224,11.09422 29.85737,15.53985 1.99527,0.88906 4.29226,1.81186 6.36015,0.53481 15.24215,-6.80018 30.11977,-14.39166 45.07083,-21.80421 10.32302,-5.14437 20.56965,-10.44132 30.6422,-16.06053 8.79286,-4.34242 17.63981,-8.62652 26.74886,-12.26778 3.25871,-0.85781 6.88719,-0.44993 9.98043,0.77342 0.58616,5.905 0.26058,11.90438 0.39704,17.84627 0.11612,36.46926 0.28417,72.94745 -0.75907,109.40625 3.36795,0 6.7359,0 10.10385,0 -0.55989,-10.03235 -0.5013,-20.09914 -0.70446,-30.1468 -0.30601,-28.47163 0.73073,-56.9345 0.72322,-85.40555 0.16505,-20.6346 0.004,-41.27651 0.52664,-61.90547 0.13167,-5.08578 0.63749,-10.24832 -0.1011,-15.29691 -1.55363,-2.66671 -5.13046,-2.77947 -7.84756,-3.33051 -15.04335,-0.86206 -30.12639,-0.74156 -45.18928,-0.99005 -52.85988,-0.44587 -105.72283,-0.58952 -158.58443,-0.61617 z m 32.67294,14.23424 c 46.62231,0.12499 93.24771,0.12973 139.86581,0.82804 8.50049,0.30612 17.082,0.023 25.50119,1.38854 1.4695,0.10084 2.51871,1.26856 2.43255,2.75307 1.05666,8.97012 1.54426,18.03013 1.3576,27.06152 -0.001,1.92134 -0.59798,4.05404 -2.58356,4.79686 -7.67179,4.14919 -15.79755,7.38316 -23.512,11.45615 -23.00395,11.56254 -45.90623,23.32755 -68.88797,34.93273 -6.62156,3.07987 -13.25171,6.50564 -20.46806,7.92397 -3.66986,0.11078 -7.00024,-1.92544 -10.30292,-3.28896 -7.77534,-3.61256 -14.96393,-8.30571 -22.0947,-13.02529 -20.08553,-11.75126 -41.37612,-21.30558 -61.40564,-33.15688 -4.69844,-3.00901 -9.6453,-5.81776 -13.65509,-9.73732 -1.77085,-2.70766 -1.06671,-6.20545 -1.29178,-9.27282 0.0559,-6.91464 0.16161,-13.955 1.87596,-20.68491 0.84343,-2.08935 3.63267,-1.23907 5.38078,-1.57491 15.92198,-0.49382 31.86004,-0.35554 47.78783,-0.39979 z"
       style="fill:#ffffff;fill-opacity:1" />
    <path
       inkscape:connector-curvature="0"
       id="path3031"
       d="m -433.10816,333.13287 c -12.0032,0.119 -24.02405,-0.18641 -36.01346,0.48544 -1.17825,0.0543 -3.05949,0.23296 -2.83862,1.88419 -0.92201,11.49946 -1.18365,23.04231 -2.02077,34.54847 -0.29543,9.46426 0.97113,18.88677 1.12974,28.34479 0.57254,18.1377 1.07618,36.30687 0.28217,54.44465 -0.87464,14.78366 -0.44074,29.60595 -0.78732,44.40575 -0.24247,11.2057 -0.16849,22.41544 0.12908,33.61931 3.90551,0 7.81101,0 11.71652,0 0.19704,-37.40105 0.0314,-74.80663 0.6879,-112.20354 0.26218,-5.01605 -0.0181,-10.14064 1.06464,-15.06543 0.9337,-2.44026 3.99732,-1.26646 5.77584,-0.66498 14.02276,5.96702 27.96886,12.16266 41.35712,19.46817 11.55748,6.14808 22.96038,12.58995 34.10097,19.46471 7.96809,4.19428 16.0143,8.33182 24.4286,11.56019 2.83482,0.79157 5.40005,-1.39556 7.95232,-2.28792 20.63451,-9.72306 41.06578,-19.88411 61.30269,-30.40909 11.78958,-6.45945 23.82689,-12.5457 36.32664,-17.51507 3.33118,-1.33588 7.21829,-0.83557 10.46448,0.42513 0.6951,2.36213 0.19008,4.98794 0.39745,7.44622 0.3632,39.92697 0.34797,79.86218 -0.59492,119.78161 3.38989,0 6.77978,0 10.16967,0 -0.61793,-14.37139 -0.72216,-28.76349 -0.83924,-43.14705 0.23044,-23.08717 0.62865,-46.17334 0.72339,-69.26228 0.14777,-24.99238 0.36917,-49.98515 0.88104,-74.97259 -0.18522,-2.3936 0.64565,-5.86233 -2.11456,-7.09244 -5.62317,-2.39727 -11.92662,-1.89942 -17.90375,-2.17269 -52.02638,-0.77491 -104.06014,-0.91271 -156.09139,-1.06673 -9.89539,-0.015 -19.79082,-0.0344 -29.68623,-0.0188 z m 33.78371,14.35766 c 44.14288,0.13648 88.28828,0.17574 132.42761,0.79299 8.63101,0.26882 17.33359,0.089 25.88518,1.42854 2.66336,0.63189 2.12924,3.92959 2.49302,5.98052 0.68819,8.65002 1.48235,17.39157 0.60067,26.05065 -0.6456,2.29691 -3.45208,2.84559 -5.22799,4.03868 -8.05647,3.95088 -16.26895,7.58101 -24.21251,11.76573 -23.39831,11.77428 -46.64624,23.85209 -70.15231,35.40932 -5.26249,2.16935 -10.48852,4.96049 -16.2394,5.48464 -5.1255,-0.6295 -9.70144,-3.37531 -14.25976,-5.6304 -9.02312,-4.69521 -17.07965,-11.00424 -26.14739,-15.62223 -16.90245,-9.19475 -34.26294,-17.54687 -50.92466,-27.18055 -5.29986,-3.37293 -10.96478,-6.43132 -15.4168,-10.9228 -1.61141,-2.93123 -0.84015,-6.49159 -1.0614,-9.70068 0.0567,-6.7129 -0.0123,-13.60805 1.94178,-20.08427 1.09955,-2.09372 3.95363,-1.18018 5.85809,-1.50258 18.14154,-0.38698 36.29118,-0.28744 54.43587,-0.30756 z"
       style="fill:#ffffff;fill-opacity:1" />
    <path
       inkscape:connector-curvature="0"
       id="path3033"
       d="m -433.3879,333.12464 c -11.77283,0.12168 -23.5613,-0.16434 -35.32233,0.44431 -1.22715,0.11272 -3.36998,0.0669 -3.25001,1.84304 -0.86136,10.09002 -1.18235,20.22039 -1.79448,30.32784 -0.69981,14.50205 1.08568,28.95708 1.18562,43.45163 0.19895,15.13905 0.41871,30.29204 -0.11772,45.42549 -0.72285,15.22255 -0.45996,30.47235 -0.75299,45.70653 -0.10797,10.18084 -0.11963,20.36481 0.21247,30.54199 3.93019,0 7.86038,0 11.79057,0 0.002,-38.6496 -10e-4,-77.30422 0.77426,-115.94724 0.32744,-3.92228 -0.0778,-8.05453 1.29094,-11.79895 1.24811,-1.98169 3.95133,-0.51563 5.62787,-0.008 12.55921,5.31138 25.03877,10.85418 37.09955,17.23743 13.04166,6.74097 25.74977,14.10044 38.35831,21.61067 7.8004,4.21855 15.73556,8.29429 24.04199,11.41607 3.45106,0.78232 6.49164,-1.73154 9.56051,-2.88175 20.20635,-9.61615 40.31017,-19.46475 60.13196,-29.85276 11.44641,-6.29641 23.18206,-12.11427 35.26167,-17.0968 3.59817,-1.65194 7.74141,-1.1913 11.34705,0.17601 0.65377,9.54736 0.30244,19.13468 0.43608,28.69887 -0.0584,31.75153 -0.0457,63.50775 -0.68859,95.25367 0.31565,1.09474 -1.09457,3.68754 0.86138,3.19301 3.08271,0 6.16543,0 9.24814,0 -1.01178,-28.09831 -0.63457,-56.22005 -0.31401,-84.32739 0.26931,-33.47215 0.58936,-66.94401 1.09566,-100.41338 -0.15804,-2.78924 0.39842,-5.76146 -0.56772,-8.42536 -2.33117,-2.61831 -6.24176,-2.65532 -9.47853,-3.11836 -11.71448,-0.64796 -23.46143,-0.50716 -35.19059,-0.71762 -53.61381,-0.5094 -107.23089,-0.7427 -160.84706,-0.73872 z m 52.25531,14.63741 c 39.43896,0.0806 78.8831,-0.0899 118.31665,0.66526 7.40913,0.31523 14.92315,0.0856 22.2239,1.53159 2.06593,0.77137 1.54632,3.5297 1.9747,5.26585 0.8003,8.59746 1.31904,17.27875 0.69114,25.90139 -0.22356,2.75081 -3.43174,3.40445 -5.36879,4.66134 -12.14957,5.77007 -24.19316,11.76126 -36.17887,17.86609 -20.14961,10.10002 -40.08079,20.64851 -60.46386,30.2749 -4.53701,1.96411 -9.19494,4.26481 -14.21562,4.44731 -6.34078,-1.1621 -11.93212,-4.68464 -17.52867,-7.70583 -8.41691,-4.8621 -16.36146,-10.51736 -25.05065,-14.91263 -18.12711,-9.78023 -36.76483,-18.66466 -54.32218,-29.46723 -3.41337,-2.29899 -7.09399,-4.50055 -9.66611,-7.76397 -1.08689,-3.52712 -0.46925,-7.3384 -0.68594,-10.98422 0.0344,-6.1442 -0.0226,-12.49053 1.98595,-18.36465 1.23161,-1.91569 3.92252,-0.96958 5.80883,-1.26703 24.15862,-0.22134 48.32007,-0.11846 72.47952,-0.14817 z"
       style="fill:#ffffff;fill-opacity:1" />
    <path
       inkscape:connector-curvature="0"
       id="path3035"
       d="m -419.30114,333.13533 c -17.13573,0.25866 -34.32236,-0.32646 -51.4243,0.74051 -2.07755,1.22743 -1.02375,4.72312 -1.65181,6.77605 -1.23537,16.94198 -2.33086,33.94663 -0.9482,50.9179 1.34482,29.08957 0.41603,58.19973 0.0666,87.29783 0.0331,25.05893 -0.47008,50.16557 1.05238,75.1865 0.24428,2.47783 3.99101,1.29644 5.65947,1.89664 33.35779,1.48837 66.76885,0.95173 100.15116,1.22995 43.73259,-0.0567 87.47957,0.47568 131.20151,-0.6291 2.35572,-0.19176 6.36801,0.42851 6.35232,-3.07345 1.05099,-15.8058 0.0967,-31.68862 0.34557,-47.52427 -0.10265,-53.40135 0.9838,-106.79796 1.03672,-160.19698 -0.471,-3.09462 0.62612,-7.14165 -1.64558,-9.61017 -9.55076,-2.90709 -19.72043,-1.49586 -29.55452,-2.09749 -53.54319,-0.6982 -107.09366,-1.01925 -160.64133,-0.91392 z m 34.47485,14.71146 c 45.02262,0.20066 90.06528,-0.21839 135.069,1.28355 3.31336,0.52159 7.40913,-0.26037 10.13676,1.94179 1.962,7.99458 1.29362,16.43216 1.81013,24.61784 0.16753,3.18563 0.42236,7.37781 -3.36712,8.55973 -22.18691,11.39308 -44.62696,22.31191 -66.80699,33.73006 -13.4258,6.5006 -26.45971,13.99381 -40.48461,19.14483 -7.5948,3.00784 -14.77621,-2.30852 -21.2714,-5.55938 -12.1882,-7.19206 -24.14241,-14.79873 -36.84578,-21.08569 -16.6557,-9.01787 -33.91281,-17.13199 -49.54287,-27.89458 -3.70542,-2.27121 -5.83984,-6.33004 -5.29876,-10.69626 0.31413,-7.48748 0.008,-15.23534 2.10634,-22.47859 2.30458,-2.42446 6.39924,-0.8325 9.39619,-1.37393 21.69855,-0.22229 43.39958,-0.16954 65.09911,-0.18937 z m -72.38896,54.73191 c 8.71781,2.0559 16.62314,6.69343 24.84521,10.16148 22.34183,10.10029 42.91914,23.52907 64.63507,34.81727 5.10963,2.21638 10.13951,5.62253 15.82023,5.90251 17.65523,-7.23574 34.49486,-16.34369 51.6298,-24.72228 17.27601,-8.37527 33.91919,-18.15795 51.76184,-25.30328 3.45926,-0.83776 7.54607,-1.08401 10.74562,0.72406 -0.21284,45.30668 0.40165,90.63388 -1.03615,135.92371 0.42058,3.1199 -1.05494,5.08702 -4.34489,4.11102 -66.83742,-0.2211 -133.68442,0.27184 -200.51363,-0.96697 -5.45044,-0.39682 -11.20701,0.15194 -16.45577,-1.2671 -1.74134,-6.68459 -0.83938,-13.8542 -1.17989,-20.73425 0.11373,-37.44778 -0.0628,-74.91399 1.22925,-112.3436 0.42508,-2.05896 -0.53567,-6.58722 2.86331,-6.30257 z"
       style="fill:#ffffff;fill-opacity:1" />
    <path
       inkscape:connector-curvature="0"
       id="path3037"
       d="m -441.64809,333.39862 c -9.86085,0.24114 -19.86606,-0.40156 -29.63685,0.7076 -1.82244,6.37364 -1.35708,13.30551 -2.0076,19.91149 -1.63656,28.60109 1.31976,57.20166 0.51154,85.8168 -0.0776,37.15686 -1.96252,74.3632 0.32462,111.48591 -0.0303,2.13668 0.37475,5.05505 3.27444,4.52079 29.38919,1.72099 58.86175,1.00085 88.28857,1.27756 46.98612,-0.0592 93.97793,0.26025 140.96018,-0.38236 3.53392,-0.49013 7.82091,0.49058 10.87727,-1.57976 0.87632,-10.42001 0.36404,-21.01099 0.63959,-31.49625 0.39722,-60.24964 0.48142,-120.50441 1.12118,-180.75034 0.0861,-3.01907 -0.24811,-7.47476 -4.29349,-7.49198 -12.3461,-1.80134 -24.93607,-1.16274 -37.38861,-1.58238 -57.55436,-0.54072 -115.11446,-0.43799 -172.67084,-0.43708 z m 55.52179,14.44817 c 45.64316,0.16343 91.30228,-0.005 136.92851,1.36583 3.16233,0.70695 8.38462,-0.60731 9.75827,3.20888 1.38973,9.11542 1.7815,18.44978 1.4152,27.66216 -0.76196,3.74079 -5.52298,4.44123 -8.21143,6.45066 -32.30437,16.55341 -64.63293,33.09489 -97.43465,48.64327 -5.36238,2.52188 -11.77106,3.88118 -17.21718,0.77453 -14.44836,-6.7228 -27.25527,-16.4288 -41.6152,-23.3442 -17.98763,-9.7725 -36.55322,-18.65403 -53.56057,-30.10526 -4.46391,-2.3471 -5.3627,-7.55887 -5.08223,-12.14427 0.3501,-7.06813 -0.29318,-14.54705 2.28475,-21.2445 2.49364,-1.42416 6.05267,-0.42008 8.91852,-0.86294 21.26849,-0.41277 42.5443,-0.3811 63.81601,-0.40416 z m -71.30288,54.88002 c 10.09534,2.62464 19.39065,7.72142 28.89495,11.94208 20.66469,9.69049 39.85619,22.14703 60.14726,32.53788 5.29708,2.28427 10.40814,5.88428 16.27476,6.2861 13.40062,-5.02645 25.96114,-12.10188 38.872,-18.26052 21.32903,-10.46432 42.23568,-21.84417 63.99305,-31.40301 3.64341,-1.24617 7.88132,-1.14377 11.46968,0.26329 -0.12302,45.68596 0.40119,91.39954 -1.34938,137.06016 0.52872,3.84609 -3.29798,3.10839 -5.98989,3.03733 -68.36256,-0.1872 -136.73653,0.11458 -205.08764,-1.29838 -3.23135,-0.3493 -7.19279,0.16796 -9.93999,-1.62376 -1.65253,-7.4098 -0.46272,-15.15174 -0.83924,-22.69252 0.13429,-36.35002 0.0679,-72.71123 0.92613,-109.05108 0.51334,-2.06299 -0.49146,-6.64306 2.62831,-6.79757 z"
       style="fill:#ffffff;fill-opacity:1" />
    <path
       inkscape:connector-curvature="0"
       id="path3039"
       d="m -552.9385,158.60537 c 0.88243,10.73051 2.57233,21.46514 2.50128,32.23687 -1.6869,7.25178 -10.31243,10.91353 -11.15701,18.64439 -0.83728,4.49002 1.03298,9.18248 5.20002,11.30512 5.94915,4.27582 14.07047,6.18897 18.233,12.55576 1.13185,3.73298 -3.71679,5.44519 -6.64813,5.36458 -4.66214,-0.0485 -5.48228,5.44026 -7.1743,8.6833 -6.08948,15.80516 -9.50018,32.47257 -15.0711,48.45861 -8.69096,27.55571 -18.62291,54.69381 -28.13301,81.96822 -6.12484,25.4563 -15.151,50.09148 -23.41613,74.90664 -6.47329,20.18979 -15.81197,39.42296 -20.53535,60.16768 -6.64268,24.91964 -17.28739,48.52444 -24.55651,73.24952 -3.36554,10.72668 -9.04379,20.54055 -12.58678,31.17812 -2.1455,8.63537 -3.81164,17.49124 -4.28697,26.381 0.0734,2.79138 2.09679,5.73547 4.37723,6.91109 214.29252,-0.23378 428.58598,-0.0375 642.877656,-0.73447 5.433092,-0.35376 11.088086,0.57116 16.390058,-0.64748 1.337736,-2.459 -1.034423,-5.52705 -1.369226,-8.12048 -15.394181,-47.48199 -29.834453,-95.27495 -45.981492,-142.51186 -4.126476,-12.914 -7.565286,-26.04704 -12.301442,-38.75718 -3.561083,-14.35809 -9.330135,-28.05445 -13.58552,-42.2145 -13.216434,-40.36244 -25.704874,-80.95701 -39.150634,-121.24518 -4.82167,-14.14417 -8.92272,-28.52052 -13.5148,-42.73119 -1.74868,-4.41917 -3.31817,-9.0557 -5.4304,-13.2469 -4.81125,-1.5919 -10.89157,0.24719 -15.00767,-3.12659 -0.49618,-3.40924 3.73972,-5.48299 6.25319,-6.94434 6.89884,-3.22494 14.75523,-5.56339 19.3026,-12.17727 2.84345,-3.44874 1.0875,-8.38138 1.30003,-12.45703 -0.97834,-4.96117 -5.98179,-8.05387 -7.89571,-12.40764 0.0538,-12.04908 0.11642,-24.10611 0.85264,-36.13689 -24.77143,0 -49.54285,0 -74.31428,0 -0.0311,9.89475 -1.25071,19.74148 -2.2709,29.57103 -5.37429,3.73294 -11.5053,8.05835 -12.25955,15.15576 -1.53618,4.68009 0.0823,9.75134 3.93216,12.79103 6.00026,6.17424 14.24064,10.48495 18.46415,18.1952 0.93032,2.49858 0.62671,7.116 -3.1266,6.59877 -59.16433,0.5284 -118.34004,0.0721 -177.50844,-0.004 -31.07187,-0.26678 -62.15991,0.0772 -93.21993,-0.83345 -3.05705,-0.0804 -8.31552,0.0879 -8.03246,-4.36267 0.76046,-7.92138 8.69094,-11.6002 14.89247,-14.82665 6.04027,-3.29748 13.00098,-9.12152 11.33803,-16.85072 -0.65624,-6.27167 -6.72833,-9.08316 -11.33803,-12.17727 -4.08913,-3.72178 -2.85637,-10.02238 -4.02749,-14.94643 -0.79307,-6.09959 -1.23464,-12.25561 -2.32444,-18.31069 -23.30686,0 -46.61372,0 -69.92059,0 0.0768,0.4827 0.15359,0.9654 0.23038,1.4481 z m 67.71552,47.49137 c 1.73588,0.11311 5.43616,-0.61766 4.60762,2.35318 -5.11931,7.64479 -16.1655,9.25546 -20.17478,18.01907 -2.0929,3.4436 -2.56028,8.19126 -5.79244,10.74562 -5.10256,1.27194 -10.91414,2.48119 -15.9621,0.49368 -4.70475,-2.6507 -4.7648,-8.77154 -8.24434,-12.32538 -5.14719,-4.15735 -12.40875,-5.08663 -17.06464,-9.84055 -1.14647,-1.94404 -2.19706,-6.06879 1.16836,-6.35193 13.50728,-1.85416 27.21834,-1.90215 40.82507,-2.66192 6.87527,-0.25876 13.75643,-0.47556 20.63725,-0.43177 z m 266.81394,0.0329 c 22.61398,1.15072 45.2602,2.55246 67.73195,5.38104 1.64695,-0.0974 3.37546,1.23335 1.74437,2.71521 -5.58012,6.6193 -15.98901,5.43938 -21.16216,12.58866 -3.5598,3.82404 -6.15194,8.89202 -9.83634,12.29313 -4.90445,0.38717 -11.0982,1.99246 -15.09416,-1.66269 -1.40077,-3.57643 -1.67035,-7.71626 -4.52534,-10.64689 -6.09568,-7.82447 -15.46831,-12.07386 -22.24821,-19.10516 -0.98099,-1.88083 2.55657,-1.44183 3.38989,-1.5633 z m 25.76975,42.75211 c 7.9408,-0.48527 15.80779,5.06302 17.11401,13.08234 0.63971,5.62433 2.7051,12.69289 -2.22153,17.03173 -5.18972,6.32278 -15.29648,9.02317 -22.18239,3.85065 -4.91931,-3.04037 -9.32094,-8.19361 -8.20284,-14.38175 0.0216,-5.43026 2.38581,-10.51971 4.84586,-15.20573 2.50664,-3.18909 6.73288,-4.40124 10.64689,-4.37724 z m -322.79649,1.59621 c 7.51076,-0.45029 15.0774,4.52009 16.50917,12.12658 1.40403,6.04469 2.0179,13.80242 -3.60692,17.97608 -3.29429,3.67207 -8.06658,5.8178 -13.0339,4.94814 -7.04004,-0.24184 -14.21914,-5.94185 -13.77348,-13.44437 -0.27565,-5.27765 -0.12594,-10.56476 -0.16456,-15.84691 4.28939,-2.72294 8.75528,-5.85695 14.06969,-5.75952 z m 99.11313,82.62445 c 56.53057,0.21057 113.06813,0.12901 169.59195,1.04432 5.9145,0.60108 12.44449,-0.41811 17.85579,2.41139 2.54243,2.82297 0.99963,7.26061 1.52446,10.72914 -0.1679,65.90551 -1.02541,131.80939 -0.98108,197.716 -0.46405,3.56667 0.68352,8.02066 -1.67883,10.99263 -4.32882,1.41371 -9.20016,0.35344 -13.72389,0.78101 -67.63161,0.40179 -135.26882,0.61787 -202.89978,0.0563 -8.24227,-0.44343 -16.68347,0.19653 -24.78255,-1.47911 -1.93634,-3.40832 -1.08793,-7.92656 -1.59466,-11.76567 -1.41017,-42.73489 0.40826,-85.48375 0.0353,-128.22346 -0.60435,-26.86124 -2.11756,-53.89268 1.2138,-80.63345 0.72773,-1.89114 3.85317,-0.80364 5.42876,-1.42395 16.66146,-0.38163 33.34319,-0.15549 50.01075,-0.20517 z"
       style="fill:#007cc2;fill-opacity:1" />
    <path
       inkscape:connector-curvature="0"
       id="path3041"
       d="m -412.34035,348.11009 c -15.07258,0.28691 -30.20468,-0.21342 -45.23693,0.88861 -3.11671,1.58116 -2.41277,6.19826 -2.96204,9.16586 0.0414,6.69595 -1.09338,13.66981 0.72406,20.19124 3.20777,4.95876 9.26862,7.0609 13.92158,10.43296 24.46635,14.26892 50.02327,26.5893 74.24835,41.28748 6.46714,3.03689 12.83412,8.63218 20.43819,7.27352 8.47316,-1.82972 15.89911,-6.74454 23.79505,-10.15322 29.00197,-14.27017 58.05989,-28.47693 86.45864,-43.92046 2.872,-1.06864 3.33672,-3.81178 2.84043,-6.56524 -0.3825,-8.29316 0.30014,-16.8908 -1.96827,-24.93112 -2.65583,-3.11537 -7.57548,-1.82608 -11.18822,-2.44303 -49.51978,-1.1897 -99.06462,-1.1338 -148.59736,-1.25952 -4.15785,-0.003 -8.31566,0.0222 -12.47348,0.0329 z"
       style="fill:#007cc2;fill-opacity:1" />
    <path
       inkscape:connector-curvature="0"
       id="path3043"
       d="m -241.05218,403.12174 c -4.31128,0.10933 -8.66765,0.41983 -12.47496,2.72069 -31.92999,15.01521 -62.99835,31.82229 -95.07999,46.51499 -5.61972,3.14186 -11.4101,-1.40643 -16.53806,-3.47216 -21.31633,-10.68482 -41.52146,-23.45679 -63.00368,-33.83671 -9.56981,-4.45361 -19.02161,-9.81579 -29.44486,-11.91035 -2.94351,0.0403 -1.58361,4.26567 -2.13439,6.08789 -1.15092,40.34653 -0.9391,80.72254 -0.83433,121.0823 0.49032,3.61136 -0.88784,7.84773 1.01048,11.09124 5.67331,2.04559 12.03112,1.09279 17.98533,1.59674 62.58689,0.91463 125.18462,1.09882 187.77769,1.102 4.60967,-0.29362 9.54954,0.47105 13.97095,-0.77342 1.52738,-11.56939 0.9765,-23.35695 1.38531,-35.01739 0.26433,-32.24051 0.84422,-64.48715 0.56335,-96.7269 -0.48979,-2.68474 0.55212,-7.03847 -2.37651,-8.426 -0.26375,-0.0613 -0.53833,-0.0621 -0.80633,-0.0329 z"
       style="fill:#007cc2;fill-opacity:1" />
  </g>
</svg>
