<?xml version="1.0" encoding="UTF-8" standalone="no"?>
<!-- Created with Inkscape (http://www.inkscape.org/) -->

<svg
   xmlns:dc="http://purl.org/dc/elements/1.1/"
   xmlns:cc="http://creativecommons.org/ns#"
   xmlns:rdf="http://www.w3.org/1999/02/22-rdf-syntax-ns#"
   xmlns:svg="http://www.w3.org/2000/svg"
   xmlns="http://www.w3.org/2000/svg"
   xmlns:sodipodi="http://sodipodi.sourceforge.net/DTD/sodipodi-0.dtd"
   xmlns:inkscape="http://www.inkscape.org/namespaces/inkscape"
   id="svg3211"
   version="1.1"
   inkscape:version="0.48.2 r9819"
   width="1920"
   height="1920"
   sodipodi:docname="Jay Legs.svg"
   inkscape:export-filename="G:\LEGO Textures Scans\Complete\Ninjago\Jay ZX (Ninjago)\Jay Legs.png"
   inkscape:export-xdpi="48"
   inkscape:export-ydpi="48">
  <metadata
     id="metadata3217">
    <rdf:RDF>
      <cc:Work
         rdf:about="">
        <dc:format>image/svg+xml</dc:format>
        <dc:type
           rdf:resource="http://purl.org/dc/dcmitype/StillImage" />
        <dc:title></dc:title>
      </cc:Work>
    </rdf:RDF>
  </metadata>
  <defs
     id="defs3215" />
  <sodipodi:namedview
     pagecolor="#ffffff"
     bordercolor="#666666"
     borderopacity="1"
     objecttolerance="10"
     gridtolerance="10"
     guidetolerance="10"
     inkscape:pageopacity="0"
     inkscape:pageshadow="2"
     inkscape:window-width="1600"
     inkscape:window-height="850"
     id="namedview3213"
     showgrid="false"
     inkscape:zoom="0.39404298"
     inkscape:cx="853.91391"
     inkscape:cy="950.49524"
     inkscape:window-x="-8"
     inkscape:window-y="-8"
     inkscape:window-maximized="1"
     inkscape:current-layer="svg3211" />
  <g
     id="g3273"
     transform="matrix(2.9428424,0,0,2.9428424,-355.18665,121.87878)">
    <path
       style="fill:#585d6a;fill-opacity:1"
       d="m 631.5,185.12001 c -14.98027,-4.18697 -28.56896,-4.46447 -33.95132,-20.30964 -19.5816,-3.10915 -39.9272,1.98626 -59.84163,1.6582 -102.87467,5.41433 -205.98381,2.31971 -308.83266,8.13798 -30.18342,0.48022 -60.31896,3.14912 -90.49942,3.10176 -7.44004,-12.33033 18.17669,-18.65404 -2.01264,-23.46379 19.73832,-8.42648 -14.36028,-40.01058 9.63176,-39.13094 36.34214,0.42603 72.60471,-2.41959 108.944,-2.00183 21.45758,-2.37825 43.60684,-0.78445 65.39728,-1.18112 20.42667,1.46181 40.34722,1.25964 60.66463,-0.1519 58.29247,2.30155 116.67441,1.65833 174.96041,3.09615 24.17285,-3.37257 48.94394,-1.51199 72.86549,-6.42084 21.91462,6.74009 45.28369,-4.18305 67.28732,5.15632 15.62593,5.99859 33.0443,0.15137 47.27147,-2.60025 5.6924,4.9644 11.32728,9.95382 9.3765,18.2442 2.85669,21.31226 -0.57873,53.14807 -30.03511,43.81383 -14.39457,-2.68186 -27.78241,1.58434 -34.647,8.26145 -7.42399,2.03933 -13.40608,6.20324 -23.13419,4.31663 -11.14807,0.0233 -22.31649,0.23406 -33.44489,-0.52621 z"
       id="path3283"
       inkscape:connector-curvature="0" />
    <path
       style="fill:#585d6a;fill-opacity:1"
       d="m 680.5,456.50243 c -30.59069,-6.65705 -61.86528,-1.64067 -92.6799,-0.28935 -13.83399,2.64939 -16.12247,-12.60224 -27.95823,-15.35121 -11.79848,-5.14204 0.60471,-18.91197 2.90137,-27.22698 4.01673,-10.55449 10.74993,-19.88679 15.01262,-30.14621 5.13917,-9.61282 5.93116,-20.51155 12.40756,-29.48868 5.58509,-8.90826 7.60261,-19.30692 11.61602,-28.74702 3.85718,-13.39448 10.77027,-25.87115 13.09095,-39.6608 -0.54891,-11.01756 6.12541,-20.67327 8.34607,-31.26074 3.99818,-11.83703 6.32524,-24.16076 10.06046,-36.03357 -0.98866,-8.88907 -7.68773,-18.54457 -3.88971,-27.41048 9.91298,-3.60837 20.98313,-1.31599 31.38157,-1.78346 16.22288,0.53834 32.57216,-0.22593 48.6997,1.67834 2.84159,10.2306 -7.806,21.06242 -4.54224,32.71773 -0.39377,18.01319 0.0395,36.04802 0.63562,54.03101 -3.36893,11.15382 -4.74922,23.13304 -9.30833,33.85024 -8.80207,21.99849 -12.0255,46.29484 -9.57806,69.84194 1.82079,11.31259 4.43414,22.35688 7.07266,33.35731 -0.17521,8.4221 8.8483,17.52973 3.9557,24.76266 -11.66262,2.97299 -1.73791,24.27382 -17.22383,17.15927 z"
       id="path3281"
       inkscape:connector-curvature="0" />
    <path
       style="fill:#585d6a;fill-opacity:1;stroke:#585d6a;stroke-opacity:1"
       d="m 579.27427,455.34747 c -6.90476,-4.19891 -10.726,-12.00227 -19.18888,-14.56667 -12.51504,-6.5372 2.81953,-21.22654 4.48583,-30.73746 4.00646,-10.75679 11.32443,-19.74523 14.95091,-30.54334 3.84038,-10.46317 7.4961,-21.04149 13.36825,-30.70475 4.68741,-9.85101 7.23168,-20.22042 11.1394,-30.33008 3.73718,-10.71124 8.73933,-21.10295 10.85837,-32.2943 0.0272,-8.04577 3.77337,-21.65726 12.55678,-21.50175 -1.34623,9.74696 0.0945,18.93545 -4.78259,28.09429 -3.39311,10.56668 -5.95025,20.47961 -8.90979,31.2198 -4.48065,8.4289 -5.9307,19.47083 -10.47513,27.38398 -6.35173,9.71467 3.70704,16.58847 9.62114,23.39059 9.08103,0.32923 9.65673,-16.15292 15.50684,-22.54788 4.65923,-9.20651 1.89747,-16.32666 4.18985,-25.2974 3.08309,-9.22864 7.38981,-17.73138 9.57984,-27.20022 3.04266,-9.7309 5.37395,-20.24355 10.18273,-29.01934 0.28628,-5.85259 8.48142,-9.82626 6.52061,-1.14603 -0.29927,10.39744 -1.73075,21.14222 -5.38069,30.46338 -4.51332,9.96242 -6.83241,20.89163 -10.51071,31.26667 -2.79519,10.04947 -7.35984,19.19202 -7.63153,29.78242 -11.06572,10.6033 7.96013,17.60827 16.60863,18.90097 10.32028,3.98039 27.70762,4.69131 21.89917,-11.46724 1.95602,-8.46305 8.03119,-19.59924 1.86959,-28.59779 2.89202,-7.55031 6.12165,-16.372 8.04165,-25.11515 3.64703,-5.07161 -4.09759,-9.43369 2.61626,-9.54897 3.73741,-10.51648 6.12208,-21.79831 10.19557,-32.06453 -0.48862,-8.6421 9.02524,-13.72556 7.96995,-2.1517 1.31761,12.45114 -4.24959,24.14159 -6.23135,36.23503 -4.24293,8.6904 -7.97388,18.38978 -9.51018,28.32781 -3.50442,18.59885 -4.03858,37.74679 -0.89321,56.42219 4.1305,8.95714 4.17531,19.16415 7.06361,28.71126 2.67512,8.7084 7.85592,18.83692 -3.23395,23.7998 -0.35467,7.42796 -2.5192,12.87627 -10.88803,9.13716 -18.46126,-3.1635 -37.35385,-2.19237 -55.9867,-1.63782 -6.92526,0.0954 -14.12433,2.19549 -23.80008,2.99551 -7.25181,0.3419 -14.54788,0.82469 -21.80216,0.34156 z m 77.86755,-210.90371 c -0.58048,-6.79892 -4.93925,-23.36554 -14.36113,-16.63702 -3.89265,3.28235 -15.66391,19.43333 -13.29466,4.99213 0.6827,-5.42764 3.84632,-10.63739 4.43506,-15.87238 -3.35535,-7.83254 -6.16385,-16.52458 -4.83995,-25.0781 8.61108,-5.67427 20.68427,-1.43193 30.70853,-2.67463 16.65385,0.28695 33.35142,0.10641 49.96684,1.24942 2.45799,9.85871 -7.71257,18.49261 -4.62932,28.82517 -0.34343,9.25435 1.14394,19.7853 -2.54262,28.14573 -0.89436,-8.03612 -4.60494,-17.13845 -9.86857,-22.6918 -9.45799,-2.85537 -21.84612,-0.99757 -27.04659,8.22877 -3.18594,4.8258 -6.06404,13.04157 -8.00008,16.63053 -0.53109,-1.64779 -0.49751,-3.41031 -0.52751,-5.11782 z m -30.07153,1.74409 c -0.75145,-5.1351 5.37756,-5.03216 2.22346,-1.56245 4.90132,-1.01062 -1.51367,6.74792 -2.22346,1.56245 z"
       id="path3277"
       inkscape:connector-curvature="0" />
    <path
       style="fill:#080a14"
       d="M 577.5,454.32665 C 564.39769,442.9405 545.96802,434.84492 562.56265,415.84048 573.0016,395.67054 580.92305,374.5135 590.18342,354 599.33133,336.23307 604.055,315.85097 612,298.03393 c -0.6538,-18.17853 15.94786,-25.23313 6.7425,-5.01917 -3.93535,24.89692 -16.51206,48.9379 -23.7425,73.53741 -1.95379,13.61243 -4.49186,32.35917 -9.65278,41.98537 -1.44916,18.35557 12.75828,15.49204 26.58937,14.19106 9.35791,2.2623 34.84964,1.33831 51.3857,4.5428 30.99538,7.27998 13.57858,-32.33941 16.48556,-49.05158 -0.65201,-24.30858 1.39369,-48.81802 8.79996,-72.08354 12.85895,14.69651 -8.87067,43.36969 -2.67369,64.90643 -2.65876,23.4987 16.3481,49.25733 9.06592,70.07242 -6.586,21.31763 -35.86995,3.90588 -51.9439,4.90826 -15.62437,4.15106 -36.3817,1.88291 -52.55266,7.30405 -4.14736,1.47732 -8.67916,1.6797 -13.00348,0.99921 z M 634.44262,340.572 c 3.42023,-20.75727 9.0619,-42.9219 17.84823,-61.2728 4.59816,15.83238 -8.03116,31.39417 -11.57041,49.07624 -1.45085,2.82125 -7.04523,30.60029 -6.27782,12.19656 z M 695,307.16052 c -16.14639,-8.80811 16.92695,-45.76762 6.51637,-13.07049 -1.93106,2.306 -1.64408,15.58443 -6.51637,13.07049 z M 630.0269,233.271 C 640.4311,216.66769 614.37493,181.89562 649.44335,190.07084 669.62714,189.83202 689.817,189.57588 710,190 c -4.52841,13.72348 -5.4016,31.91616 -6.63521,43.52349 -0.3764,-25.92497 -41.1171,-21.4438 -43.41805,-0.009 -4.07346,-20.7661 -15.59324,-20.80349 -29.91984,-0.2439 z m 21.41991,-49.54903 c -14.77094,-1.38413 -29.2552,-5.16938 -45.32489,-5.19189 -5.19167,-24.9008 -35.83805,-11.24906 -53.58515,-12.7472 -96.2529,5.56671 -192.73233,3.28936 -289.01778,7.34749 -41.64628,1.63626 -83.30396,3.55951 -124.95777,4.76418 -5.3574,-15.53477 24.85805,-16.05595 29.43878,-11.40018 15.46954,-4.09274 36.76771,-2.37096 55.23791,-4.62172 11.93536,-1.49541 23.33766,-3.82583 36.76461,-5.44379 12.15602,-2.70576 -11.33786,-8.50289 -14.50252,-6.42889 -26.38005,-10.59562 -55.09148,-12.66916 -82.51748,-18.64879 15.4865,-0.68069 34.8725,-0.89815 50.90085,3.64875 11.35722,4.43337 28.6832,6.90806 43.59347,10.44724 16.78502,2.47463 37.17583,2.33471 55.85451,2.37556 11.47538,0.6175 44.44784,-0.88387 16.32996,-6.83298 -30.98581,-4.53498 -60.75639,-17.67938 -92.70402,-15.95789 -23.14564,-0.60024 -44.58226,4.07264 -66.87691,0.72891 -8.91071,3.8439 -47.31785,-0.98461 -25.92016,-10.21974 26.81421,-0.4443 53.57411,-0.22407 80.37943,-1.92728 45.31766,-0.89573 90.64961,-1.96695 135.93318,-0.44 20.97424,-2.14384 42.33391,-1.05091 63.25395,0.89523 11.85234,0.0992 37.18928,-0.28653 55.15286,-0.0879 31.46025,-0.4326 62.92845,3.88321 94.14511,-0.0729 21.10664,1.2667 42.8524,-5.54149 63.05275,-3.23142 23.16898,-0.2098 47.3636,-1.75816 70.66081,5.82049 14.14493,6.01283 43.66097,-14.90172 43.6293,8.08978 -10.20682,0.9105 -35.4333,2.50802 -11.93878,8.95785 27.28328,2.57605 -13.68114,3.83769 -23.14964,0.98247 -19.99402,-8.53229 -30.50662,29.25785 -4.77919,19.06006 11.6135,0.40322 41.69873,-9.22303 39.67629,6.97385 -3.82045,27.84476 -46.87443,0.37567 -57.99542,18.69835 -9.63113,8.24755 -20.18084,-11.33374 -32.11275,2.5388 -2.78026,-3.19398 -7.52549,5.3128 -8.62131,1.92364 z M 640,165.48643 c -8.34985,-12.68874 -11.34766,-25.53856 2.37936,-29.79704 -1.35712,-28.74407 -50.98443,-9.27196 -38.1065,13.7594 4.28318,11.5398 12.41544,14.8544 14.76947,6.14622 11.69609,13.33035 1.99955,-7.17339 20.95767,9.89142 z M 414,163 c -2.55494,-3.58745 -2.55494,3.58745 0,0 z m 260.5,0.0609 c 13.75031,-11.25487 16.97565,-47.46923 -8.77062,-36.18441 -10.98872,-3.11408 -11.26214,18.76442 -17.77718,25.00815 8.19143,10.95742 25.02563,-13.53016 15.17032,9.25256 2.38405,3.51369 7.95735,1.70474 11.37748,1.9237 z m 62.60042,-1.62293 c 26.88574,0.2216 -9.20796,-6.58188 -21.04074,-3.25414 -21.11832,1.06146 -4.80134,4.76646 7.69984,4.18783 4.43979,-0.064 8.99922,0.22591 13.3409,-0.93369 z m -35.65321,-1.52334 c -4.5202,-1.90238 -0.31994,4.89376 0,0 z M 350.5,159 c -1.00176,-3.52086 -4.1779,3.45953 0,0 z m 9.5,-1.05902 c -4.38594,-3.78673 -2.17032,5.07574 0,0 z m 29.10225,-0.0898 c 28.18275,-0.37353 57.18985,-0.0167 85.65904,-0.15415 25.98238,-3.15016 49.2874,-14.33805 73.70349,-22.54721 -17.20299,-3.97687 -40.39234,3.47159 -59.46478,5.40927 -41.60717,5.53728 -83.71037,8.8156 -125.22642,15.60193 1.17204,2.9107 19.59466,-0.21654 25.32867,1.69016 z m 177.90484,-4.83797 c -9.07378,-7.66533 2.29626,11.66695 0,0 z M 531,155 c -3.64516,-3.84819 -2.30116,3.46906 0,0 z m 6,-0.55902 c -3.81057,-2.29065 -2.11855,3.25952 0,0 z M 688.75047,147.75 c -5.18541,-6.00774 -4.22611,5.4433 0,0 z m -342.6213,-3.02083 c -5.81282,-2.71302 3.6819,7.33438 0,0 z m 216.57466,1.06096 c 9.72928,3.85838 40.46794,-6.82927 18.74233,-12.8399 -10.36153,-0.0204 -51.74253,14.10078 -18.74233,12.8399 z m -155.39996,-7.62736 c 19.79031,-2.55474 40.7436,-3.56902 60.1611,-7.1061 -21.80147,-6.01795 -48.52339,-1.53011 -72.23528,-4.76166 -23.53059,0.90448 -48.1241,-2.82925 -70.97969,1.40562 14.2178,3.29717 46.31992,8.0667 67.25,11.31564 5.12793,1.094 10.8681,1.03805 15.80387,-0.8535 z M 561,131 c -3.64516,-3.84819 -2.30116,3.46906 0,0 z m -76.5,-12 c -3.07003,-3.33131 0.0437,3.36259 0,0 z m -318.32045,38.41321 c -9.12264,2.48743 -44.24296,-5.99096 -17.10927,-3.80303 3.99622,-4.45693 31.47119,6.00155 17.10927,3.80303 z M 172,157.49596 c 8.02261,-6.56504 15.54741,6.78494 0,0 z m -26.4051,-25.34241 c 14.7011,-4.66441 14.16279,1.3995 0,0 z"
       id="path3275"
       inkscape:connector-curvature="0" />
  </g>
</svg>
