<?xml version="1.0" encoding="UTF-8" standalone="no"?>
<!-- Created with Inkscape (http://www.inkscape.org/) -->

<svg
   xmlns:dc="http://purl.org/dc/elements/1.1/"
   xmlns:cc="http://creativecommons.org/ns#"
   xmlns:rdf="http://www.w3.org/1999/02/22-rdf-syntax-ns#"
   xmlns:svg="http://www.w3.org/2000/svg"
   xmlns="http://www.w3.org/2000/svg"
   xmlns:sodipodi="http://sodipodi.sourceforge.net/DTD/sodipodi-0.dtd"
   xmlns:inkscape="http://www.inkscape.org/namespaces/inkscape"
   width="1024"
   height="1024"
   id="svg2"
   version="1.1"
   inkscape:version="0.48.4 r9939"
   sodipodi:docname="Hael Storm Torso.svg"
   inkscape:export-filename="Hael Storm Torso.png"
   inkscape:export-xdpi="90"
   inkscape:export-ydpi="90">
  <defs
     id="defs4" />
  <sodipodi:namedview
     id="base"
     pagecolor="#ffffff"
     bordercolor="#666666"
     borderopacity="1.0"
     inkscape:pageopacity="0.0"
     inkscape:pageshadow="2"
     inkscape:zoom="0.49497475"
     inkscape:cx="988.95416"
     inkscape:cy="538.01782"
     inkscape:document-units="px"
     inkscape:current-layer="layer1"
     showgrid="false"
     inkscape:window-width="1366"
     inkscape:window-height="705"
     inkscape:window-x="-8"
     inkscape:window-y="-8"
     inkscape:window-maximized="1" />
  <metadata
     id="metadata7">
    <rdf:RDF>
      <cc:Work
         rdf:about="">
        <dc:format>image/svg+xml</dc:format>
        <dc:type
           rdf:resource="http://purl.org/dc/dcmitype/StillImage" />
        <dc:title></dc:title>
      </cc:Work>
    </rdf:RDF>
  </metadata>
  <g
     inkscape:label="Layer 1"
     inkscape:groupmode="layer"
     id="layer1"
     transform="translate(0,-28.362183)">
    <path
       style="fill:#7dbb40;fill-opacity:1;stroke:#7dbb40;stroke-width:5.95857525px;stroke-linecap:butt;stroke-linejoin:miter;stroke-opacity:1"
       d="M 934.08729,796.98211 902.48718,626.94338 583.47645,756.35356 524.7905,732.27735 452.56166,750.33421 416.44728,771.40075 265.97049,765.382 106.46515,711.2102 94.427044,792.46789 z"
       id="path3920"
       inkscape:connector-curvature="0" />
    <path
       style="fill:#854828;fill-opacity:1;stroke:#854828;stroke-width:5.95857525px;stroke-linecap:butt;stroke-linejoin:miter;stroke-opacity:1"
       d="m 958.16361,986.95873 -25.58109,-188.47208 -839.660254,0 -27.085836,188.09609 z"
       id="path3918"
       inkscape:connector-curvature="0"
       sodipodi:nodetypes="ccccc" />
    <path
       style="fill:#681c10;fill-opacity:1;stroke:#681c10;stroke-width:5.95857525px;stroke-linecap:butt;stroke-linejoin:miter;stroke-opacity:1"
       d="m 867.87751,811.27733 c 0,0 27.83823,36.86689 54.17161,38.37143 26.33344,1.50514 19.63761,30.58954 17.30484,32.35268 -9.1625,6.92446 -61.69545,11.28554 -48.15255,22.57169 13.54288,11.28554 56.42874,0.75197 47.40016,12.0381 -9.02861,11.28554 -28.33243,7.52389 -39.12394,28.59044 -11.80322,23.04183 -21.81912,29.34299 -44.39062,33.85723 -22.57156,4.51424 -13.54294,-18.05686 -13.54294,-18.05686 z"
       id="path3916"
       inkscape:connector-curvature="0"
       sodipodi:nodetypes="csssssscc" />
    <path
       style="fill:#00c0f0;fill-opacity:1;stroke:#00c0f0;stroke-width:5.95857525px;stroke-linecap:butt;stroke-linejoin:miter;stroke-opacity:1"
       d="m 232.25222,408.65754 -44.15727,-0.5321 3.72411,73.41816 37.77308,-0.5321 z"
       id="path3878"
       inkscape:connector-curvature="0" />
    <path
       style="fill:#00b0e0;fill-opacity:1;stroke:#00b0e0;stroke-width:5.95857525px;stroke-linecap:butt;stroke-linejoin:miter;stroke-opacity:1"
       d="m 824.23923,398.2187 -113.60995,16.55245 17.30484,85.0194 33.85728,47.40016 28.59061,-6.01905 24.07629,-33.10489 12.0381,-56.42878 z"
       id="path3868"
       inkscape:connector-curvature="0" />
    <path
       style="fill:#e92027;fill-opacity:1;stroke:#e92027;stroke-width:5.95857525px;stroke-linecap:butt;stroke-linejoin:miter;stroke-opacity:1"
       d="m 783.61051,406.49493 -5.26667,138.43861 -9.0286,2.25717 -18.80962,-132.41956 z"
       id="path3866"
       inkscape:connector-curvature="0" />
    <path
       style="fill:#f8cc08;fill-opacity:1;stroke:#f8cc08;stroke-width:5.95857525px;stroke-linecap:butt;stroke-linejoin:miter;stroke-opacity:1"
       d="m 703.08609,229.99483 -373.47498,0 34.04897,96.20026 20.21661,63.8419 2.12805,44.68931 24.47276,47.88138 40.43316,56.39369 27.66483,97.89087 1.06402,113.85133 39.36915,-2.12781 -7.44822,-52.13753 14.89644,-118.10772 46.81742,-118.10748 82.99442,-123.4276 47.88139,-67.03397 8.51224,-39.80663 z"
       id="path3008"
       inkscape:connector-curvature="0"
       sodipodi:nodetypes="ccccccccccccccccc" />
    <g
       id="g3068"
       style="stroke:#483c08;stroke-width:1.5;stroke-miterlimit:4;stroke-opacity:1;stroke-dasharray:none"
       transform="matrix(5.9585752,0,0,5.9585752,-1151.5204,-1922.3458)">
      <path
         inkscape:connector-curvature="0"
         id="path3010"
         d="m 274.38269,380.98955 c 0.92831,-0.401 5.07008,-3.89503 6.31345,-2.65165 0.46711,0.4671 1.5499,0.44815 1.89404,1.13642 0.34669,0.69339 1.61171,3.81785 0.75761,4.67195 -0.90875,0.90875 -4.78577,0.77007 -5.55584,0 -0.24227,-0.24226 -0.3538,-0.7326 -0.63134,-1.01015 -0.64906,-0.64906 2.31152,-3.74939 3.03045,-3.03046 0.80172,0.80172 1.11748,3.15041 -0.3788,2.65165"
         style="fill:none;stroke:#483c08;stroke-width:1.5;stroke-linecap:round;stroke-linejoin:miter;stroke-miterlimit:4;stroke-opacity:1;stroke-dasharray:none" />
      <path
         inkscape:connector-curvature="0"
         id="path3012"
         d="m 290.41886,379.34805 c 0.48923,-0.0645 -0.27803,0.47959 -0.12627,0.63134 1.62711,1.62711 3.78807,-0.21867 3.78807,-2.27284 0,-1.92924 -2.28921,-1.89404 -4.04061,-1.89404 -0.55483,0 -1.15677,0.13645 -1.6415,0.37881 -0.86576,0.43288 -0.8811,1.13364 -1.38896,1.6415 -1.28458,1.28458 2.65165,8.39297 2.65165,6.56599"
         style="fill:none;stroke:#483c08;stroke-width:1.5;stroke-linecap:round;stroke-linejoin:miter;stroke-miterlimit:4;stroke-opacity:1;stroke-dasharray:none" />
      <path
         inkscape:connector-curvature="0"
         id="path3014"
         d="m 296.85858,376.6964 c -0.20554,1.27035 0.46057,1.47072 1.13642,2.14657 1.55877,1.55877 2.51409,-2.91548 1.26269,-4.16688 -0.15535,-0.15535 -0.58503,-0.12627 -0.88388,-0.12627 -2.0069,0 -1.00709,1.13031 -1.51523,2.14658 -0.34003,0.68006 -1.04275,0.85129 -0.37881,1.51523"
         style="fill:none;stroke:#483c08;stroke-width:1.5;stroke-linecap:round;stroke-linejoin:miter;stroke-miterlimit:4;stroke-opacity:1;stroke-dasharray:none" />
      <path
         inkscape:connector-curvature="0"
         id="path3016"
         d="m 295.59589,368.74145 c -2.8422,-0.88554 -2.65165,2.52689 -2.65165,4.16688"
         style="fill:none;stroke:#483c08;stroke-width:1.5;stroke-linecap:round;stroke-linejoin:miter;stroke-miterlimit:4;stroke-opacity:1;stroke-dasharray:none" />
      <path
         inkscape:connector-curvature="0"
         id="path3018"
         d="m 286.63079,374.67609 c 2.82951,1.39341 2.33756,-3.59708 1.38895,-4.54568 -0.45353,-0.45353 -2.27979,-1.0032 -2.90418,-0.37881 -1.33963,1.33963 0.76768,4.51548 1.51523,2.27284"
         style="fill:none;stroke:#483c08;stroke-width:1.5;stroke-linecap:round;stroke-linejoin:miter;stroke-miterlimit:4;stroke-opacity:1;stroke-dasharray:none" />
      <path
         inkscape:connector-curvature="0"
         id="path3020"
         d="m 275.01403,373.66594 c 0.88758,0.0597 1.79337,1.37616 2.77792,0.88388 1.10535,-0.55267 0.45236,-3.46197 0,-3.91434 -1.98995,-1.98995 -8.23376,3.40051 -2.52538,5.3033"
         style="fill:none;stroke:#483c08;stroke-width:1.5;stroke-linecap:round;stroke-linejoin:miter;stroke-miterlimit:4;stroke-opacity:1;stroke-dasharray:none" />
      <path
         inkscape:connector-curvature="0"
         id="path3022"
         d="m 280.69614,364.70084 c 2.58824,0.63672 3.19453,2.10877 1.6415,3.6618"
         style="fill:none;stroke:#483c08;stroke-width:1.5;stroke-linecap:round;stroke-linejoin:miter;stroke-miterlimit:4;stroke-opacity:1;stroke-dasharray:none" />
      <path
         inkscape:connector-curvature="0"
         id="path3024"
         d="m 268.06923,368.86772 c 1.70185,0.56653 0.9151,2.49369 2.52538,3.03045"
         style="fill:none;stroke:#483c08;stroke-width:1.5;stroke-linecap:round;stroke-linejoin:miter;stroke-miterlimit:4;stroke-opacity:1;stroke-dasharray:none" />
      <path
         inkscape:connector-curvature="0"
         id="path3026"
         d="m 270.21581,376.31759 c -2.52919,-1.54985 -5.34349,1.47504 -3.40927,3.40927 1.07809,1.07808 3.54439,-0.73991 2.90419,-2.02031 -0.55004,-1.10009 -2.39911,-2.12146 -2.39911,-3.15673"
         style="fill:none;stroke:#483c08;stroke-width:1.5;stroke-linecap:round;stroke-linejoin:miter;stroke-miterlimit:4;stroke-opacity:1;stroke-dasharray:none" />
      <path
         inkscape:connector-curvature="0"
         id="path3028"
         d="m 265.41758,374.17102 c -1.89683,0.39149 -0.74799,-1.75815 -1.38896,-2.39912 -0.90673,-0.90672 -2.12601,0.19086 -2.27284,0.63135"
         style="fill:none;stroke:#483c08;stroke-width:1.5;stroke-linecap:round;stroke-linejoin:miter;stroke-miterlimit:4;stroke-opacity:1;stroke-dasharray:none" />
      <path
         inkscape:connector-curvature="0"
         id="path3030"
         d="m 255.31606,372.78206 c -0.22201,0.21147 2.70733,-0.91918 3.78807,-0.37881 1.83899,0.9195 -0.7181,3.45264 -1.38896,3.78807 -1.71104,0.85552 -2.24626,-1.77663 -1.13642,-2.14657"
         style="fill:none;stroke:#483c08;stroke-width:1.5;stroke-linecap:round;stroke-linejoin:miter;stroke-miterlimit:4;stroke-opacity:1;stroke-dasharray:none" />
      <path
         inkscape:connector-curvature="0"
         id="path3032"
         d="m 260.24055,377.20147 c 5.94727,-1.7541 0.52335,4.04061 4.04061,4.04061"
         style="fill:none;stroke:#483c08;stroke-width:1.5;stroke-linecap:round;stroke-linejoin:miter;stroke-miterlimit:4;stroke-opacity:1;stroke-dasharray:none" />
      <path
         inkscape:connector-curvature="0"
         id="path3034"
         d="m 259.98801,383.89373 c 0.76076,-0.45099 1.54986,-0.17208 2.14658,0.12627 5.02893,2.51447 -0.39308,5.65357 -1.13643,4.16688 -0.47275,-0.9455 0.56205,-4.10991 1.76777,-2.90419 0.0773,0.0773 0.6287,1.26534 0.37881,1.51523 -0.1914,0.1914 -0.5001,0.25254 -0.88388,0.25254 -1.31375,0 -0.12627,-1.84961 -0.12627,-0.75761"
         style="fill:none;stroke:#483c08;stroke-width:1.5;stroke-linecap:round;stroke-linejoin:miter;stroke-miterlimit:4;stroke-opacity:1;stroke-dasharray:none" />
      <path
         inkscape:connector-curvature="0"
         id="path3036"
         d="m 269.07938,383.26239 c -1.10088,0.21224 -0.78507,2.39225 0.25254,2.65165 2.03749,0.50937 4.79352,-1.6462 3.283,-3.15673 -0.87287,-0.87287 -3.2771,1.51523 -1.01015,1.51523"
         style="fill:none;stroke:#483c08;stroke-width:1.5;stroke-linecap:round;stroke-linejoin:miter;stroke-miterlimit:4;stroke-opacity:1;stroke-dasharray:none" />
      <path
         inkscape:connector-curvature="0"
         id="path3042"
         d="m 281.20122,385.6615 c -1.53994,0.60492 -3.6285,-0.96367 -5.05077,-0.25254 -0.6972,0.3486 -0.96468,1.34349 -1.51523,1.89404 -0.11592,0.11593 -0.43558,0.5178 -0.25253,0.88388 0.30112,0.60225 1.48178,2.05375 2.52538,1.01016 0.56988,-0.56989 -1.05619,-1.2627 -1.38896,-1.2627"
         style="fill:none;stroke:#483c08;stroke-width:1.5;stroke-linecap:round;stroke-linejoin:miter;stroke-miterlimit:4;stroke-opacity:1;stroke-dasharray:none" />
      <path
         inkscape:connector-curvature="0"
         id="path3044"
         d="m 281.32748,389.07077 c 3.28519,0.0134 0.0202,5.82854 -1.64149,4.16688 -0.38834,-0.38834 -0.37233,-0.99719 -0.63135,-1.51523 -0.0916,-0.18323 -0.47833,-1.28944 -0.25254,-1.51523 1.42876,-1.42875 4.38432,2.63995 1.38896,1.6415"
         style="fill:none;stroke:#483c08;stroke-width:1.5;stroke-linecap:round;stroke-linejoin:miter;stroke-miterlimit:4;stroke-opacity:1;stroke-dasharray:none" />
      <path
         inkscape:connector-curvature="0"
         id="path3046"
         d="m 289.66124,391.97496 c -1.17998,0.12226 -1.26023,-0.12381 -1.89403,-0.75762 -1.10538,-1.10537 0.9209,-3.76956 2.65165,-2.90419 0.62207,0.31104 1.25799,0.87919 1.6415,1.26269 0.96151,0.96151 0.3422,4.87966 -0.50508,5.3033 -1.5789,0.78945 -4.17911,0.50508 -6.18719,0.50508"
         style="fill:none;stroke:#483c08;stroke-width:1.5;stroke-linecap:round;stroke-linejoin:miter;stroke-miterlimit:4;stroke-opacity:1;stroke-dasharray:none" />
      <path
         inkscape:connector-curvature="0"
         id="path3048"
         d="m 290.79766,386.16658 c -0.15976,-1.04193 2.71623,-4.22858 3.91435,-3.03046 1.50381,1.50381 0.87653,4.99865 0,6.31345"
         style="fill:none;stroke:#483c08;stroke-width:1.5;stroke-linecap:round;stroke-linejoin:miter;stroke-miterlimit:4;stroke-opacity:1;stroke-dasharray:none" />
      <path
         inkscape:connector-curvature="0"
         id="path3052"
         d="m 283.09525,402.96036 c 1.08251,0.13238 2.79777,-1.47552 2.14658,-2.77792 -0.86693,-1.73385 -6.5041,0.62886 -5.05077,3.53554 0.61052,1.22103 0.86895,2.25791 1.76777,3.15673 0.17319,0.17319 0.7622,0.19054 1.01015,0.25253 1.93168,0.48292 2.90419,-0.8021 2.90419,-2.14657"
         style="fill:none;stroke:#483c08;stroke-width:1.5;stroke-linecap:round;stroke-linejoin:miter;stroke-miterlimit:4;stroke-opacity:1;stroke-dasharray:none" />
      <path
         inkscape:connector-curvature="0"
         id="path3054"
         d="m 284.61048,397.02572 c -2.21456,-0.26058 -1.4777,2.74038 -1.76777,3.03046 -0.33748,0.33748 -1.66879,0.25936 -2.14657,0.3788"
         style="fill:none;stroke:#483c08;stroke-width:1.5;stroke-linecap:round;stroke-linejoin:miter;stroke-miterlimit:4;stroke-opacity:1;stroke-dasharray:none" />
      <path
         inkscape:connector-curvature="0"
         id="path3056"
         d="m 280.19106,395.8893 c -2.37593,0.36346 0.93421,2.29756 1.13642,2.90418 0.29939,0.89817 -0.75761,1.6539 -0.75761,2.14658"
         style="fill:none;stroke:#483c08;stroke-width:1.5;stroke-linecap:round;stroke-linejoin:miter;stroke-miterlimit:4;stroke-opacity:1;stroke-dasharray:none" />
      <path
         inkscape:connector-curvature="0"
         id="path3058"
         d="m 276.15045,403.08663 c 3.34801,-0.89839 0.68432,-3.88991 -1.51523,-3.15672"
         style="fill:none;stroke:#483c08;stroke-width:1.5;stroke-linecap:round;stroke-linejoin:miter;stroke-miterlimit:4;stroke-opacity:1;stroke-dasharray:none" />
      <path
         inkscape:connector-curvature="0"
         id="path3060"
         d="m 273.11999,395.38422 c -0.60859,-0.0559 -1.51522,0.29447 -1.51522,-0.50508 0,-0.64142 0.48929,-1.37317 0.88388,-1.76776 2.52613,-2.52614 3.97684,3.91434 -0.12627,3.91434"
         style="fill:none;stroke:#483c08;stroke-width:1.5;stroke-linecap:round;stroke-linejoin:miter;stroke-miterlimit:4;stroke-opacity:1;stroke-dasharray:none" />
      <path
         inkscape:connector-curvature="0"
         id="path3062"
         d="m 269.45819,401.06633 c 0.5253,-0.12399 1.76777,-0.36351 1.76777,0.25254 0,6.21117 -5.14936,0.98247 -3.03046,-1.13643 0.36377,-0.36376 1.83853,-0.25253 2.39911,-0.25253"
         style="fill:none;stroke:#483c08;stroke-width:1.5;stroke-linecap:round;stroke-linejoin:miter;stroke-miterlimit:4;stroke-opacity:1;stroke-dasharray:none" />
      <path
         inkscape:connector-curvature="0"
         id="path3064"
         d="m 267.81669,396.39437 c -1.86324,-0.13593 -1.85901,1.53274 -0.63134,2.14658 2.93927,1.46963 3.44442,-3.7705 1.6415,-4.67196 -4.89965,-2.44982 -6.32858,6.4246 -4.9245,7.82868"
         style="fill:none;stroke:#483c08;stroke-width:1.5;stroke-linecap:round;stroke-linejoin:miter;stroke-miterlimit:4;stroke-opacity:1;stroke-dasharray:none" />
      <path
         inkscape:connector-curvature="0"
         id="path3066"
         d="m 265.29131,391.97496 c -0.47451,0.17527 -3.02843,0.88591 -3.53553,0.3788 -0.31438,-0.31438 -1.90619,-3.49907 -2.52538,-1.6415"
         style="fill:none;stroke:#483c08;stroke-width:1.5;stroke-linecap:round;stroke-linejoin:miter;stroke-miterlimit:4;stroke-opacity:1;stroke-dasharray:none" />
    </g>
    <path
       style="fill:#a09490;fill-opacity:1;stroke:#a09490;stroke-width:5.95857525px;stroke-linecap:butt;stroke-linejoin:miter;stroke-opacity:1"
       d="m 509.4324,735.84713 7.44821,-78.73828 20.21661,-108.53122 38.30512,-94.6988 60.64978,-94.69875 61.71379,-73.41816 18.08857,-55.42025 86.1865,0 -60.64977,113.94198 -94.69881,128.74777 -54.26558,105.33909 -35.11305,124.49173 -6.38413,41.49731 z"
       id="path3006"
       inkscape:connector-curvature="0"
       sodipodi:nodetypes="cccccccccccccc" />
    <path
       style="fill:#a09490;fill-opacity:1;stroke:#a09490;stroke-width:5.95857525px;stroke-linecap:butt;stroke-linejoin:miter;stroke-opacity:1"
       d="m 442.39842,753.93558 39.36914,-19.15266 -2.12805,-92.57051 -29.79287,-103.21104 -46.81736,-71.29012 -27.66483,-65.96995 4.25615,-51.07352 -51.07351,-120.48378 -85.12253,0 23.40867,40.68148 59.58576,145.77226 21.28063,87.25058 43.62529,50.00948 42.56127,153.22065 z"
       id="path3004"
       inkscape:connector-curvature="0"
       sodipodi:nodetypes="ccccccccccccccc" />
    <path
       style="fill:#000000;stroke:#000000;stroke-width:5.95857525px;stroke-linecap:butt;stroke-linejoin:miter;stroke-opacity:1"
       d="m 797.15346,231.00703 c 0,0 -73.73362,141.63068 -109.84806,179.24984 -36.11439,37.61917 -76.74312,100.8194 -90.28607,150.47673 -13.54288,49.65734 -54.17161,123.39095 -45.14299,179.06705 0,0 28.84618,-156.10997 80.98371,-228.46411 C 684.99758,438.98239 805.2331,265.01327 806.29713,230.9643 z"
       id="path2996"
       inkscape:connector-curvature="0"
       sodipodi:nodetypes="csscscc" />
    <path
       style="fill:#000000;stroke:#000000;stroke-width:5.95857525px;stroke-linecap:butt;stroke-linejoin:miter;stroke-opacity:1"
       d="m 706.8674,230.30802 c 0,0 6.01905,35.49118 -37.61917,83.64374 -43.63828,48.15256 -165.52445,189.60067 -158.00062,416.82045 0,0 9.02861,-100.81927 30.09533,-183.5815 21.06679,-82.76223 93.29563,-177.56255 118.87668,-204.6484 25.581,-27.08577 57.93356,-87.93754 57.93356,-112.01382 z"
       id="path2998"
       inkscape:connector-curvature="0"
       sodipodi:nodetypes="cscsscc" />
    <path
       style="fill:#000000;stroke:#000000;stroke-width:5.95857525px;stroke-linecap:butt;stroke-linejoin:miter;stroke-opacity:1"
       d="m 335.18983,230.31251 c 14.29528,32.3525 0,26.45808 40.62872,103.20119 40.62873,76.74317 -25.58105,64.705 49.65734,158.00063 75.23839,93.29555 58.68589,249.79145 58.68589,249.79145 l -7.52384,-3.00967 c 0,0 24.07629,-151.98146 -75.23833,-264.83901 0,0 -30.09539,-30.09534 -30.09539,-88.78128 0,-58.68595 -49.65728,-140.06797 -52.66683,-153.98709 z"
       id="path3000"
       inkscape:connector-curvature="0"
       sodipodi:nodetypes="csscccscc" />
    <path
       style="fill:#00b4e8;fill-opacity:1;stroke:#00b4e8;stroke-width:5.95857525px;stroke-linecap:butt;stroke-linejoin:miter;stroke-opacity:1"
       d="m 276.94154,405.99745 1.59607,77.67425 39.36913,-4.25608 0.5321,-72.88619 z"
       id="path3880"
       inkscape:connector-curvature="0" />
    <path
       style="fill:#475056;fill-opacity:1;stroke:#475056;stroke-width:5.95857525px;stroke-linecap:butt;stroke-linejoin:miter;stroke-opacity:1"
       d="m 230.65622,408.1255 0.5321,75.01422 46.28538,-1.59606 -0.5321,-75.54621 z"
       id="path3882"
       inkscape:connector-curvature="0" />
    <path
       style="fill:#000000;stroke:#000000;stroke-width:5.95857525px;stroke-linecap:butt;stroke-linejoin:miter;stroke-opacity:1"
       d="m 248.66572,230.4372 c 0,0 92.54317,170.79106 94.04794,238.50563 0,0 43.63829,19.56194 67.71456,123.39088 24.07628,103.82871 39.12395,139.94364 34.60961,183.58186 0,0 -34.60961,-180.5723 -64.705,-224.21058 -30.09533,-43.63822 -51.16205,-39.12394 -46.64778,-60.19066 4.51433,-21.06679 -50.78589,-208.41029 -97.43373,-261.07719 z"
       id="path3002"
       inkscape:connector-curvature="0"
       sodipodi:nodetypes="ccscsscc" />
    <path
       style="fill:#00401f;fill-opacity:1;stroke:#00401f;stroke-width:5.95857525px;stroke-linecap:butt;stroke-linejoin:miter;stroke-opacity:1"
       d="m 189.22738,538.91449 c 0,0 67.71456,27.83817 139.19101,24.82867 71.47644,-3.00956 6.77144,22.57149 -7.52384,24.82867 -14.29533,2.25717 -11.28578,5.26666 4.51428,12.7905 15.80006,7.52383 34.60967,16.55244 -6.77144,12.7905 -41.38112,-3.76189 -25.58107,-12.03812 -64.70501,-2.25711 -32.06666,8.01666 0,-11.28579 -3.76194,-9.02862 -2.79571,1.67746 43.63828,-11.28577 23.32395,-16.55245 -20.3144,-5.26666 -150.47679,-53.41921 -84.26701,-47.40016 z"
       id="path3886"
       inkscape:connector-curvature="0"
       sodipodi:nodetypes="csssssssc" />
    <path
       style="fill:none;stroke:#000000;stroke-width:11.9171505;stroke-linecap:butt;stroke-linejoin:miter;stroke-miterlimit:4;stroke-opacity:1;stroke-dasharray:none"
       d="m 826.51374,400.67727 -117.04346,12.76839 c 0,0 11.70432,125.55571 63.84184,136.196 67.03398,-31.92093 53.20162,-148.96439 53.20162,-148.96439 z"
       id="path3864"
       inkscape:connector-curvature="0" />
    <path
       sodipodi:type="arc"
       style="fill:#f8cc05;fill-opacity:1;stroke:#000000;stroke-width:2;stroke-linecap:round;stroke-linejoin:miter;stroke-miterlimit:4;stroke-opacity:1;stroke-dasharray:none"
       id="path3870"
       sodipodi:cx="323.62762"
       sodipodi:cy="421.90073"
       sodipodi:rx="7.5761442"
       sodipodi:ry="7.5761442"
       d="m 331.20377,421.90073 a 7.5761442,7.5761442 0 1 1 -15.15229,0 7.5761442,7.5761442 0 1 1 15.15229,0 z"
       transform="matrix(5.9585752,0,0,5.9585752,-1151.5204,-1922.3458)" />
    <path
       style="fill:none;stroke:#000000;stroke-width:11.9171505;stroke-linecap:butt;stroke-linejoin:miter;stroke-miterlimit:4;stroke-opacity:1;stroke-dasharray:none"
       d="m 186.49889,405.99745 132.47188,1.06402 0,73.41817 -130.34384,1.06402 z"
       id="path3872"
       inkscape:connector-curvature="0" />
    <path
       style="fill:none;stroke:#000000;stroke-width:11.9171505;stroke-linecap:butt;stroke-linejoin:miter;stroke-miterlimit:4;stroke-opacity:1;stroke-dasharray:none"
       d="m 276.40955,408.1255 0,71.8221"
       id="path3874"
       inkscape:connector-curvature="0" />
    <path
       style="fill:none;stroke:#000000;stroke-width:11.9171505;stroke-linecap:butt;stroke-linejoin:miter;stroke-miterlimit:4;stroke-opacity:1;stroke-dasharray:none"
       d="m 230.12418,482.0757 0,-74.48219"
       id="path3876"
       inkscape:connector-curvature="0" />
    <path
       style="fill:#000000;fill-opacity:1;stroke:#000000;stroke-width:5.95857525px;stroke-linecap:butt;stroke-linejoin:miter;stroke-opacity:1"
       d="m 902.00645,620.49102 6.38419,30.98602 -245.73772,83.30588 250.17644,-51.51408 4.56779,24.16125 -326.03435,51.8259 -9.57626,-15.96064 z"
       id="path3888"
       inkscape:connector-curvature="0"
       sodipodi:nodetypes="cccccccc" />
    <path
       style="fill:#000000;stroke:#000000;stroke-width:5.95857525px;stroke-linecap:butt;stroke-linejoin:miter;stroke-opacity:1"
       d="m 105.10052,703.92645 206.42203,60.64936 105.33914,0 0,11.70442 -193.65369,0 -125.555698,-18.08845 2.128045,-19.15264 133.003913,27.66507 7.44822,-3.19201 -14.89643,-9.57662 L 101.8761,723.2936 z"
       id="path3890"
       inkscape:connector-curvature="0"
       sodipodi:nodetypes="cccccccccccc" />
    <path
       style="fill:#000000;stroke:#000000;stroke-width:5.95857525px;stroke-linecap:butt;stroke-linejoin:miter;stroke-opacity:1"
       d="m 93.396152,787.98466 c 0,0 707.580808,-19.15265 739.501728,-4.25621 31.92098,14.89644 58.52173,44.68931 38.30518,122.36352 -20.21662,77.67416 -20.12313,83.8675 -74.4822,84.05883 -52.00847,0.18466 35.11299,1.06355 42.56121,-67.03399 7.44822,-68.09818 39.36921,-111.72329 -25.53672,-131.94014 l -721.413221,6.38402 z"
       id="path3894"
       inkscape:connector-curvature="0"
       sodipodi:nodetypes="cssssccc" />
    <path
       style="fill:#681c10;fill-opacity:1;stroke:#681c10;stroke-width:5.95857525px;stroke-linecap:butt;stroke-linejoin:miter;stroke-opacity:1"
       d="m 807.68679,860.18234 c 0,0 -9.02855,-21.81912 -61.69545,-26.33334 -52.66683,-4.51421 -115.11472,-3.76223 -63.95261,-14.29521 51.16211,-10.53357 124.14334,-27.83847 139.94339,9.02844 15.80006,36.86689 -5.26672,54.17178 -14.29533,31.60011 z"
       id="path3914"
       inkscape:connector-curvature="0" />
    <path
       style="fill:#a09490;fill-opacity:1;stroke:#a09490;stroke-width:5.95857525px;stroke-linecap:butt;stroke-linejoin:miter;stroke-opacity:1"
       d="m 638.40045,987.33532 -269.35334,0 -4.51433,-24.07616 27.08583,-36.86693 -27.08583,-67.71443 27.83821,-46.6479 47.40017,-51.91469 56.42879,-29.343 57.18116,3.76225 60.19067,43.63822 45.89545,49.65698 13.54289,47.40046 -21.06672,41.38111 -0.75239,25.58076 27.83816,33.10525 -12.03811,10.53301 z"
       id="path3912"
       inkscape:connector-curvature="0" />
    <path
       inkscape:connector-curvature="0"
       id="path3902"
       d="m 487.1332,959.87287 c 13.91911,-20.69056 15.80006,-19.5614 16.17628,-30.84754 0.19425,-5.83702 4.26372,-11.28555 10.17624,-11.28555 5.53629,0 10.17622,5.83107 10.17622,11.28555 0.37599,11.28614 2.25717,10.15698 16.17629,30.84754 13.91905,20.69057 -16.53296,15.6121 -26.35251,15.6121 -9.81956,0 -40.27157,5.07847 -26.35252,-15.6121 z"
       style="fill:#000000;stroke:#000000;stroke-width:5.95857525px;stroke-linecap:butt;stroke-linejoin:miter;stroke-opacity:1"
       sodipodi:nodetypes="scscsss" />
    <path
       style="fill:#000000;stroke:#000000;stroke-width:5.95857525px;stroke-linecap:butt;stroke-linejoin:miter;stroke-opacity:1"
       d="m 563.16212,884.25855 c 0,0 45.51922,-43.26224 53.79545,-12.79067 8.27622,30.47155 6.01904,69.97214 -9.40485,75.9909 -15.42382,6.01933 -50.40972,-0.75257 -53.79544,-21.44313 -3.38572,-20.69055 0.37599,-32.35208 9.40484,-41.7571 z"
       id="path3904"
       inkscape:connector-curvature="0" />
    <path
       inkscape:connector-curvature="0"
       id="path3906"
       d="m 472.18218,884.25855 c 0,0 -45.51922,-43.26224 -53.79544,-12.79067 -8.27623,30.47155 -6.01906,69.97214 9.40483,75.9909 15.42383,6.01933 50.40972,-0.75257 53.79545,-21.44313 3.38572,-20.69055 -0.37599,-32.35208 -9.40484,-41.7571 z"
       style="fill:#000000;stroke:#000000;stroke-width:5.95857525px;stroke-linecap:butt;stroke-linejoin:miter;stroke-opacity:1" />
    <path
       style="fill:none;stroke:#000000;stroke-width:17.87572479;stroke-linecap:round;stroke-linejoin:miter;stroke-miterlimit:4;stroke-opacity:1;stroke-dasharray:none"
       d="m 584.9786,983.76613 c 0,0 88.31461,11.70447 90.44265,-7.44814 2.12811,-19.15209 -36.17707,-35.11274 -22.34465,-61.71361 13.83241,-26.60086 31.92098,-52.13753 2.1281,-91.50643 -29.79287,-39.3695 -78.73834,-89.37863 -136.15314,-89.37863 -72.31911,0 -106.36027,50.00913 -136.15315,89.37863 -29.79287,39.3689 -11.70431,64.90557 2.12811,91.50643 13.83241,26.60087 -24.47276,42.56152 -22.34466,61.71361 2.12804,19.15261 88.3146,11.70438 88.3146,11.70438"
       id="path3896"
       inkscape:connector-curvature="0"
       sodipodi:nodetypes="cssscsssc" />
    <path
       sodipodi:type="arc"
       style="fill:#804828;fill-opacity:1;stroke:#000000;stroke-width:2;stroke-linecap:round;stroke-linejoin:miter;stroke-miterlimit:4;stroke-opacity:1;stroke-dasharray:none"
       id="path3908"
       sodipodi:cx="239.73215"
       sodipodi:cy="473.25504"
       sodipodi:rx="3.75"
       sodipodi:ry="3.75"
       d="m 243.48215,473.25504 a 3.75,3.75 0 1 1 -7.5,0 3.75,3.75 0 1 1 7.5,0 z"
       transform="matrix(5.9585752,0,0,5.9585752,-1151.5204,-1922.3458)" />
    <path
       d="m 243.48215,473.25504 a 3.75,3.75 0 1 1 -7.5,0 3.75,3.75 0 1 1 7.5,0 z"
       sodipodi:ry="3.75"
       sodipodi:rx="3.75"
       sodipodi:cy="473.25504"
       sodipodi:cx="239.73215"
       id="path3910"
       style="fill:#804828;fill-opacity:1;stroke:#000000;stroke-width:2;stroke-linecap:round;stroke-linejoin:miter;stroke-miterlimit:4;stroke-opacity:1;stroke-dasharray:none"
       sodipodi:type="arc"
       transform="matrix(5.9585752,0,0,5.9585752,-1249.4114,-1922.3458)" />
    <rect
       style="fill:#007f40;fill-opacity:1;stroke:#007f40;stroke-width:2.66377473;stroke-linecap:round;stroke-linejoin:miter;stroke-miterlimit:4;stroke-opacity:1;stroke-dasharray:none"
       id="rect3924"
       width="144.6049"
       height="144.6049"
       x="848.92767"
       y="54.614147" />
  </g>
</svg>
