<?xml version="1.0" encoding="UTF-8" standalone="no"?>
<!-- Created with Inkscape (http://www.inkscape.org/) -->

<svg
   xmlns:dc="http://purl.org/dc/elements/1.1/"
   xmlns:cc="http://creativecommons.org/ns#"
   xmlns:rdf="http://www.w3.org/1999/02/22-rdf-syntax-ns#"
   xmlns:svg="http://www.w3.org/2000/svg"
   xmlns="http://www.w3.org/2000/svg"
   xmlns:sodipodi="http://sodipodi.sourceforge.net/DTD/sodipodi-0.dtd"
   xmlns:inkscape="http://www.inkscape.org/namespaces/inkscape"
   id="svg3059"
   version="1.1"
   inkscape:version="0.48.2 r9819"
   width="1920"
   height="1920"
   sodipodi:docname="Classic Racing Stripes.png">
  <metadata
     id="metadata3065">
    <rdf:RDF>
      <cc:Work
         rdf:about="">
        <dc:format>image/svg+xml</dc:format>
        <dc:type
           rdf:resource="http://purl.org/dc/dcmitype/StillImage" />
        <dc:title></dc:title>
      </cc:Work>
    </rdf:RDF>
  </metadata>
  <defs
     id="defs3063" />
  <sodipodi:namedview
     pagecolor="#ffffff"
     bordercolor="#666666"
     borderopacity="1"
     objecttolerance="10"
     gridtolerance="10"
     guidetolerance="10"
     inkscape:pageopacity="0"
     inkscape:pageshadow="2"
     inkscape:window-width="1600"
     inkscape:window-height="850"
     id="namedview3061"
     showgrid="false"
     inkscape:zoom="0.16120219"
     inkscape:cx="-19.255807"
     inkscape:cy="56.604824"
     inkscape:window-x="-8"
     inkscape:window-y="-8"
     inkscape:window-maximized="1"
     inkscape:current-layer="svg3059" />
  <g
     id="g3091"
     transform="matrix(2.3414634,0,0,2.3414634,1982.6639,96.04878)">
    <g
       transform="translate(-846.76271,0)"
       id="g3079">
      <path
         inkscape:connector-curvature="0"
         id="path3085"
         d="M 0,366 0,0 l 410,0 410,0 0,366 0,366 -410,0 -410,0 0,-366 z"
         style="fill:#fdfcfd" />
      <path
         inkscape:connector-curvature="0"
         id="path3083"
         d="m 638.25978,708.20254 c -4.97847,-0.23732 -6.45142,-0.6921 -7.28476,-2.24921 -0.64555,-1.20623 -0.99143,-10.06901 -0.9055,-23.20254 0.0765,-11.68793 -0.0204,-27.32579 -0.21524,-34.75079 -0.19486,-7.425 -0.26346,-18.9 -0.15246,-25.5 0.27594,-16.40685 1.11148,-134.73514 1.73993,-246.40705 0.5019,-89.18525 0.58814,-92.53772 2.47365,-96.15514 1.79948,-3.45238 1.84406,-4.16341 0.56505,-9.01191 -0.97774,-3.70647 -1.60649,-15.79075 -2.12516,-40.84485 C 631.95017,210.51147 631.68981,192.475 631.77672,190 c 0.0869,-2.475 0.35923,-41.53252 0.60514,-86.79449 0.33837,-62.280999 0.74087,-82.648463 1.65506,-83.750001 C 635.02847,18.260771 639.25792,18 657.64388,18 l 22.399,0 1.08883,2.389728 c 0.59886,1.314351 2.1518,2.874047 3.45097,3.465992 2.74934,1.252683 3.06154,2.428382 4.02136,15.14428 1.02019,13.515634 1.05408,97.71162 0.0489,121.5 -1.17584,27.8272 -1.23275,37.94825 -0.34581,61.5 0.94454,25.08148 0.92097,18.98823 0.20891,54 -0.32997,16.225 -0.77644,65.275 -0.99214,109 -0.2157,43.725 -0.48327,83.775 -0.5946,89 -0.31353,14.71577 -0.29687,134.16851 0.026,186.14926 0.2878,46.34009 0.27597,46.65661 -1.78618,47.76024 -1.90561,1.01985 -28.21436,1.1842 -46.90932,0.29304 z m -378.12836,-1.95698 c -0.58135,-1.08627 -0.60383,-6.35333 -0.0587,-13.75302 0.48592,-6.5959 1.1422,-32.91754 1.45839,-58.49254 0.3162,-25.575 0.73922,-48.75 0.94005,-51.5 0.31309,-4.28719 0.46857,-105.70387 0.18397,-120 -0.0547,-2.75 0.27698,-22.55 0.73716,-44 0.46018,-21.45 0.67489,-50.25 0.47715,-64 -0.19775,-13.75 -0.30254,-28.6 -0.23288,-33 0.61878,-39.08268 0.88197,-121.13477 0.429,-133.74513 -0.31106,-8.65982 -0.2842,-17.10076 0.0597,-18.75765 1.56533,-7.54175 2.83267,-104.107409 1.7808,-135.68953 -0.30174,-9.059958 -0.0752,-12.525204 0.88199,-13.48806 1.04393,-1.050158 31.68552,-1.298012 161.66666,-1.307689 88.20823,-0.0066 160.59118,0.213059 160.851,0.488059 1.01698,1.076402 1.38102,65.250511 0.54741,96.5 -0.48417,18.15 -1.09284,66.525 -1.3526,107.5 -0.25977,40.975 -0.74439,79.225 -1.07694,85 -0.33255,5.775 -0.78869,36.825 -1.01365,69 -0.22496,32.175 -0.67447,91.8 -0.99892,132.5 -0.32444,40.7 -0.66215,101.9 -0.75045,136 l -0.16056,62 -161.7132,0.25302 c -153.50374,0.24017 -161.76103,0.16365 -162.65538,-1.50746 z m -96.26028,-4.48634 c -0.92835,-1.73463 -1.02265,-47.5311 -0.4175,-202.75 C 163.8836,388.72915 164.38956,291.75 164.57801,283.5 c 0.55138,-24.13846 0.5278,-99.51978 -0.0314,-100.4246 -0.2816,-0.45563 -0.0844,-7.97149 0.43833,-16.70191 0.52269,-8.73042 1.20051,-44.55184 1.50628,-79.603157 0.30578,-35.051316 0.83172,-64.448288 1.16876,-65.326604 0.33704,-0.878315 1.70572,-2.012465 3.04151,-2.520333 3.22523,-1.22623 53.0032,-1.210248 53.76184,0.01726 1.59339,2.57816 0.18862,144.848524 -1.50714,152.638194 -0.48837,2.24336 -0.56579,8.76836 -0.17206,14.5 0.58175,8.46859 0.85279,39.7793 0.49922,57.67115 -0.0408,2.0625 -0.058,9.825 -0.0383,17.25 0.0197,7.425 -0.32772,22.05 -0.77206,32.5 -0.44434,10.45 -0.88949,38.8 -0.98922,63 -0.0997,24.2 -0.52248,77.075 -0.93943,117.5 -0.41695,40.425 -0.84731,107.7 -0.95635,149.5 -0.10904,41.8 -0.5382,76.73304 -0.95369,77.62898 -1.11942,2.41387 -5.80076,2.84788 -30.84915,2.86001 -22.51023,0.0109 -22.72561,-0.009 -23.91404,-2.22977 z"
         style="fill:#4690c6" />
      <path
         inkscape:connector-curvature="0"
         id="path3081"
         d="m 260.13142,706.24556 c -0.58135,-1.08627 -0.60383,-6.35333 -0.0587,-13.75302 0.48592,-6.5959 1.1422,-32.91754 1.45839,-58.49254 0.3162,-25.575 0.73922,-48.75 0.94005,-51.5 0.31309,-4.28719 0.46857,-105.70387 0.18397,-120 -0.0547,-2.75 0.27698,-22.55 0.73716,-44 0.46018,-21.45 0.67489,-50.25 0.47715,-64 -0.19775,-13.75 -0.30254,-28.6 -0.23288,-33 0.61878,-39.08268 0.88197,-121.13477 0.429,-133.74513 -0.31106,-8.65982 -0.2842,-17.10076 0.0597,-18.75765 1.56533,-7.54175 2.83267,-104.107409 1.7808,-135.68953 -0.30174,-9.059958 -0.0752,-12.525204 0.88199,-13.48806 1.04393,-1.050158 31.68552,-1.298012 161.66666,-1.307689 88.20823,-0.0066 160.59118,0.213059 160.851,0.488059 1.01698,1.076402 1.38102,65.250511 0.54741,96.5 -0.48417,18.15 -1.09284,66.525 -1.3526,107.5 -0.25977,40.975 -0.74439,79.225 -1.07694,85 -0.33255,5.775 -0.78869,36.825 -1.01365,69 -0.22496,32.175 -0.67447,91.8 -0.99892,132.5 -0.32444,40.7 -0.66215,101.9 -0.75045,136 l -0.16056,62 -161.7132,0.25302 c -153.50374,0.24017 -161.76103,0.16365 -162.65538,-1.50746 z"
         style="fill:#d51017" />
    </g>
    <path
       inkscape:connector-curvature="0"
       id="path3087"
       d="m -189.9841,18.860849 c -7.16193,2.490162 -24.27821,-5.25896 -22.30055,6.632409 -2.82978,74.877262 -1.94705,149.872802 -0.8563,224.782042 2.35843,25.13618 -1.54299,50.15732 -0.93059,75.36081 -1.30783,126.86782 -3.45729,253.77309 -1.01691,380.63788 17.42228,3.24572 35.83185,2.36969 53.26192,0.0485 2.3889,-120.14403 1.49043,-240.3877 2.06721,-360.572 0.16712,-106.23307 0.33425,-212.46613 0.50138,-318.699188 -5.78827,-9.826424 -15.77356,-9.174131 -25.82794,-8.287729 -1.63274,0.03244 -3.26548,0.06488 -4.89822,0.09732 z"
       style="fill:#016bb7;fill-opacity:1" />
    <path
       inkscape:connector-curvature="0"
       id="path3089"
       d="m -654.02674,18.570065 c -7.43792,0.816763 -16.23318,-0.94784 -22.92347,2.132415 -4.31674,37.607232 -2.37853,75.764721 -3.52899,113.59832 -1.0945,182.51179 -2.48548,365.03224 -1.84793,547.54655 0.77378,6.75557 -0.88732,14.91544 1.74213,20.98569 16.78073,1.36766 34.30356,1.45147 50.79025,-1.50238 3.28874,-87.30707 2.41511,-174.77001 3.70955,-262.14133 0.85737,-139.38227 3.77304,-278.76967 3.41466,-418.147602 -7.24811,-4.739588 -17.83845,-1.306273 -26.21902,-2.520127 -1.71239,0.01616 -3.42479,0.03231 -5.13718,0.04846 z"
       style="fill:#016bb7;fill-opacity:1" />
  </g>
</svg>
