<?xml version="1.0" encoding="UTF-8" standalone="no"?>
<!-- Created with Inkscape (http://www.inkscape.org/) -->

<svg
   xmlns:dc="http://purl.org/dc/elements/1.1/"
   xmlns:cc="http://creativecommons.org/ns#"
   xmlns:rdf="http://www.w3.org/1999/02/22-rdf-syntax-ns#"
   xmlns:svg="http://www.w3.org/2000/svg"
   xmlns="http://www.w3.org/2000/svg"
   xmlns:sodipodi="http://sodipodi.sourceforge.net/DTD/sodipodi-0.dtd"
   xmlns:inkscape="http://www.inkscape.org/namespaces/inkscape"
   width="1024"
   height="1024"
   id="svg2"
   version="1.1"
   inkscape:version="0.48.4 r9939"
   sodipodi:docname="Classic Skeleton Face.svg"
   inkscape:export-filename="C:\Users\Benjamin\Dropbox\Classics\Classic Skeleton Face.png"
   inkscape:export-xdpi="90"
   inkscape:export-ydpi="90">
  <defs
     id="defs4" />
  <sodipodi:namedview
     id="base"
     pagecolor="#ffffff"
     bordercolor="#666666"
     borderopacity="1.0"
     inkscape:pageopacity="0.0"
     inkscape:pageshadow="2"
     inkscape:zoom="0.35000001"
     inkscape:cx="705.9493"
     inkscape:cy="188.98181"
     inkscape:document-units="px"
     inkscape:current-layer="layer1"
     showgrid="false"
     inkscape:window-width="1366"
     inkscape:window-height="705"
     inkscape:window-x="-8"
     inkscape:window-y="-8"
     inkscape:window-maximized="1" />
  <metadata
     id="metadata7">
    <rdf:RDF>
      <cc:Work
         rdf:about="">
        <dc:format>image/svg+xml</dc:format>
        <dc:type
           rdf:resource="http://purl.org/dc/dcmitype/StillImage" />
        <dc:title />
      </cc:Work>
    </rdf:RDF>
  </metadata>
  <g
     inkscape:label="Layer 1"
     inkscape:groupmode="layer"
     id="layer1"
     transform="translate(0,-28.362183)">
    <g
       id="g3036"
       transform="matrix(7.7511175,0,0,7.7511175,-2158.0614,-2964.2747)">
      <g
         style="fill:#000000;stroke:#000000"
         transform="translate(132,0)"
         id="g3018">
        <path
           sodipodi:type="arc"
           style="fill:#000000;fill-opacity:1;stroke:#000000;stroke-opacity:1"
           id="path2998"
           sodipodi:cx="243.6993"
           sodipodi:cy="433.64374"
           sodipodi:rx="23.738585"
           sodipodi:ry="23.738585"
           d="m 267.43788,433.64374 c 0,13.11046 -10.62813,23.73858 -23.73858,23.73858 -13.11046,0 -23.73859,-10.62812 -23.73859,-23.73858 0,-13.11046 10.62813,-23.73859 23.73859,-23.73859 13.11045,0 23.73858,10.62813 23.73858,23.73859 z"
           transform="translate(1.0101525,1.767767)" />
        <path
           sodipodi:type="arc"
           style="fill:#000000;fill-opacity:1;stroke:#000000;stroke-opacity:1"
           id="path2998-1"
           sodipodi:cx="243.6993"
           sodipodi:cy="433.64374"
           sodipodi:rx="23.738585"
           sodipodi:ry="23.738585"
           d="m 267.43788,433.64374 c 0,13.11046 -10.62813,23.73858 -23.73858,23.73858 -13.11046,0 -23.73859,-10.62812 -23.73859,-23.73858 0,-13.11046 10.62813,-23.73859 23.73859,-23.73859 13.11045,0 23.73858,10.62813 23.73858,23.73859 z"
           transform="translate(-67.242379,2.2525483)" />
      </g>
      <path
         sodipodi:nodetypes="sssss"
         inkscape:connector-curvature="0"
         id="path2996-1"
         d="m 331.01986,480.89605 c -7.42316,0.0235 -7.67928,-5.31907 0.0269,-18.83248 11.22419,-19.68258 14.20935,-20.0098 23.63153,-2.59044 7.29873,13.49363 8.49735,21.22024 2.75998,21.36301 -4.40402,0.1096 -20.15997,0.0401 -26.41837,0.0599 z"
         style="fill:#000000;stroke:#000000" />
      <g
         id="g3032" />
    </g>
    <path
       style="fill:#000000"
       d="m 43.482231,615.77067 c -17.943324,0.0625 -22.750391,14.51278 -22.750391,46.62915 0,38.26712 14.343272,52.02294 63.158257,60.56606 34.207083,5.98658 38.607163,11.10503 60.322083,70.41643 28.74928,75.09484 58.71943,125.02006 95.94199,180.29532 18.10507,28.41837 46.31116,37.42717 45.83625,26.56247 -2.48245,-56.79286 -1.73657,-48.43343 29.15466,-47.94053 60.18285,2.48851 52.89959,11.96678 53.00292,41.47528 1.09182,26.25205 2.18876,25.63565 20.00571,26.01355 22.13486,0.4697 21.92507,7.5552 23.11634,-46.17177 0.20154,-9.07937 -0.0501,-13.07319 30.25253,-13.78442 32.37643,-0.76041 40.34388,-1.67959 39.72471,13.50995 2.22031,60.68544 -5.1657,61.20004 30.32576,61.84694 -1e-5,0.01 10e-6,0.022 0,0.031 0.15142,0 0.27677,0 0.42695,0 0.13953,0 0.25585,0 0.39646,0 -1e-5,-0.01 10e-6,-0.022 0,-0.031 35.49147,-0.6468 32.54153,-1.6546 34.76183,-62.33984 -0.61916,-15.1896 2.91222,-13.77736 35.28863,-13.01705 30.3026,0.71123 30.051,4.70496 30.25253,13.78442 1.19126,53.72687 0.98148,46.64137 23.11635,46.17177 17.81694,-0.378 18.91388,0.2386 20.00571,-26.01355 0.10333,-29.5085 -7.14944,-38.98675 53.03341,-41.47528 30.89123,-0.49282 31.63711,-8.85233 29.15466,47.94053 -0.47491,10.8647 27.70068,1.8559 45.80574,-26.56247 37.22258,-55.27519 67.22322,-105.20043 95.9725,-180.29532 21.71492,-59.31137 26.115,-64.42985 60.32208,-70.41643 48.81496,-8.54312 63.1583,-22.29894 63.1583,-60.56606 0,-52.7038 -12.96971,-57.82594 -75.66186,-29.88656 -28.73782,12.80723 -64.431,25.70242 -79.3519,28.63621 -75.65502,14.87587 -78.36107,32.96393 -80.2363,126.80446 -1.96762,98.46192 -9.58122,96.7089 -25.19011,96.94837 -34.20987,0.52464 -44.80619,11.0596 -44.79936,-41.38375 -1.06587,-37.0166 -1.94854,-27.4571 -30.31353,-29.27664 -37.73004,1.63081 -37.87843,-1.70766 -36.50432,64.19514 -1.34372,23.83089 5.66163,31.62297 -46.87312,32.63126 -39.50256,-0.89538 -34.4955,-11.40814 -34.58303,-34.40006 -0.25129,-65.81575 -11.27633,-53.59007 -34.15191,-54.83271 -20.01057,-1.08702 -32.43725,-0.84191 -32.79622,22.17588 -1.14635,73.50735 -14.97383,66.11397 -43.17474,67.05689 -52.53475,-1.00827 -45.4989,-8.80037 -46.84262,-32.63126 1.37411,-65.90279 1.19522,-62.5643 -36.53482,-64.19514 -28.36499,1.81957 -29.24766,-7.73998 -30.31352,29.27664 0.007,52.44329 -10.559,41.90834 -44.76887,41.38375 -15.60889,-0.2395 -23.22249,1.51352 -25.19011,-96.94837 -1.87523,-93.84053 -4.58128,-111.92859 -80.2363,-126.80446 -14.9209,-2.93379 -50.64458,-15.82898 -79.382393,-28.63621 C 71.874025,621.59944 54.984362,615.73065 43.482231,615.77067 z"
       id="path2996-17"
       inkscape:connector-curvature="0"
       sodipodi:nodetypes="sssccsccccccccccccccsccsccsssssscccccsscccccssss" />
  </g>
</svg>
