<?xml version="1.0" encoding="UTF-8" standalone="no"?>
<!-- Created with Inkscape (http://www.inkscape.org/) -->

<svg
   xmlns:dc="http://purl.org/dc/elements/1.1/"
   xmlns:cc="http://creativecommons.org/ns#"
   xmlns:rdf="http://www.w3.org/1999/02/22-rdf-syntax-ns#"
   xmlns:svg="http://www.w3.org/2000/svg"
   xmlns="http://www.w3.org/2000/svg"
   xmlns:sodipodi="http://sodipodi.sourceforge.net/DTD/sodipodi-0.dtd"
   xmlns:inkscape="http://www.inkscape.org/namespaces/inkscape"
   id="svg2985"
   version="1.1"
   inkscape:version="0.48.3.1 r9886"
   width="1920"
   height="1920"
   sodipodi:docname="Classic Red Brick Shirt.svg">
  <metadata
     id="metadata2991">
    <rdf:RDF>
      <cc:Work
         rdf:about="">
        <dc:format>image/svg+xml</dc:format>
        <dc:type
           rdf:resource="http://purl.org/dc/dcmitype/StillImage" />
        <dc:title></dc:title>
      </cc:Work>
    </rdf:RDF>
  </metadata>
  <defs
     id="defs2989" />
  <sodipodi:namedview
     pagecolor="#ffffff"
     bordercolor="#666666"
     borderopacity="1"
     objecttolerance="10"
     gridtolerance="10"
     guidetolerance="10"
     inkscape:pageopacity="0"
     inkscape:pageshadow="2"
     inkscape:window-width="1920"
     inkscape:window-height="1005"
     id="namedview2987"
     showgrid="false"
     inkscape:zoom="0.47543362"
     inkscape:cx="1365.8464"
     inkscape:cy="935.5435"
     inkscape:window-x="-9"
     inkscape:window-y="-9"
     inkscape:window-maximized="1"
     inkscape:current-layer="g2995" />
  <g
     id="g2995"
     transform="translate(-73.32486,1300.383)">
    <g
       id="g3003"
       transform="matrix(3.2324059,0,0,3.2324059,-163.69085,-1383.2363)">
      <path
         inkscape:connector-curvature="0"
         id="path3001"
         d="m 294.03438,619.07891 c -1.8949,-1.24566 -2.28004,-7.13507 -0.92071,-14.07891 0.59218,-3.025 1.24943,-6.625 1.46055,-8 1.13955,-7.42154 1.81004,-9.28773 3.49525,-9.72842 1.51184,-0.39535 1.64011,-0.90215 0.79013,-3.12178 -0.55809,-1.45739 -0.75949,-4.8998 -0.44755,-7.6498 0.81527,-7.18742 0.823,-13.68758 0.0291,-24.5 -0.38362,-5.225 -0.77292,-10.625 -0.86511,-12 -0.98661,-14.71538 -9.41701,-31.2969 -19.64963,-38.6483 C 275.21691,499.40508 273,497.48249 273,497.07928 c 0,-1.28027 -15.26144,-5.94522 -21.5,-6.57189 -6.60812,-0.66378 -27.56984,1.73877 -34,3.89696 -2.2,0.7384 -5.8,1.90489 -8,2.5922 -6.98171,2.18117 -33.02452,14.42508 -33.98388,15.97737 -0.3049,0.49333 -2.90826,2.05832 -5.78524,3.47774 -6.16371,3.04099 -15.47523,9.38012 -23.9504,16.30505 -5.09672,4.16445 -8.10181,4.91799 -11.28777,2.83047 -3.45817,-2.26588 -3.34882,-6.71242 0.24707,-10.04671 1.50688,-1.39726 3.09153,-2.54047 3.52144,-2.54047 0.42991,0 1.2903,-1.11635 1.91198,-2.48078 0.62167,-1.36443 2.07452,-2.77888 3.22856,-3.14323 2.46703,-0.77888 10.31274,-6.91963 12.88308,-10.08344 0.98636,-1.2141 4.60281,-5.0391 8.03655,-8.5 3.43374,-3.4609 7.12864,-7.59978 8.21089,-9.1975 1.08225,-1.59772 3.99272,-5.19772 6.46772,-8 2.475,-2.80228 5.38758,-7.12005 6.4724,-9.59505 1.08482,-2.475 2.25459,-4.725 2.59949,-5 1.51049,-1.20436 9.76175,-19.87681 10.38453,-23.5 0.37815,-2.2 0.83401,-4.9 1.01301,-6 0.17901,-1.1 0.82123,-4.70118 1.42717,-8.00263 1.11025,-6.04923 1.07278,-6.38721 -2.83333,-25.55812 -1.20014,-5.89023 -8.28542,-18.82548 -12.74657,-23.2708 -11.94844,-11.90604 -18.48132,-16.62351 -33.8167,-24.41944 -6.46412,-3.28612 -19.86657,-7.58505 -30,-9.62271 C 111.1315,344.54136 81.766583,340 78.65369,340 c -4.009688,0 -6.672555,-5.22772 -4.618177,-9.06636 1.285433,-2.40185 5.800693,-2.96787 26.464487,-3.31748 9.35,-0.15819 18.8,-0.77192 21,-1.36385 2.2,-0.59193 6.025,-1.34273 8.5,-1.66845 5.96067,-0.78445 13.56585,-3.35581 14.98587,-5.06683 0.86483,-1.04206 0.76278,-2.10241 -0.42304,-4.39554 C 143.70327,313.4593 143,311.04414 143,309.75449 c 0,-3.81973 4.77515,-21.05324 9.16281,-33.06854 2.24664,-6.15227 4.8806,-13.47135 5.85326,-16.26461 0.97265,-2.79326 2.71694,-6.93784 3.8762,-9.21016 1.15925,-2.27233 2.10773,-4.81074 2.10773,-5.64093 0,-0.83018 0.79636,-2.9856 1.76968,-4.78983 0.97333,-1.80423 2.63481,-5.98042 3.69219,-9.28042 1.05737,-3.3 2.51101,-6.88763 3.23031,-7.97251 0.7193,-1.08487 1.30782,-2.78916 1.30782,-3.7873 0,-2.31001 8.42436,-10.55761 11.5973,-11.35397 2.74652,-0.68933 3.17939,-3.77723 0.94321,-6.72845 -0.76773,-1.01323 -1.6886,-3.57483 -2.04637,-5.69243 -0.35776,-2.11761 -1.3232,-4.40851 -2.1454,-5.09087 C 180.63331,189.45079 177,182.66458 177,180.88423 c 0,-0.6575 -1.125,-2.6704 -2.5,-4.47312 -1.375,-1.80272 -2.5,-3.71119 -2.5,-4.24104 0,-0.52986 -2.37938,-4.04739 -5.28751,-7.81673 C 163.80435,160.584 159.76285,155.025 157.73138,152 c -2.03148,-3.025 -5.54851,-7.3 -7.81563,-9.5 -2.26711,-2.2 -5.44723,-5.9125 -7.06693,-8.25 C 141.22913,131.9125 139.47554,130 138.95196,130 138.42838,130 138,129.1 138,128 c 0,-1.1 -0.4813,-2 -1.06955,-2 -2.04869,0 -0.41144,-4.15446 2.27673,-5.77713 2.51413,-1.51761 2.96346,-1.51192 6.30125,0.0798 1.97674,0.94264 4.35713,3.04344 5.28975,4.66844 0.93262,1.625 2.54251,3.08378 3.57753,3.24174 1.05345,0.16076 2.81564,2.14583 4.00307,4.50935 1.16667,2.32219 2.82582,4.23469 3.68701,4.25 0.86118,0.0153 6.03618,3.95427 11.5,8.75323 5.46381,4.79897 11.05921,9.71176 12.43421,10.91733 4.64115,4.06924 29.2237,21.35728 30.36878,21.35728 0.25628,0 3.76565,1.91578 7.79859,4.25728 13.01047,7.55381 28.51368,11.95888 40.80236,11.59356 6.75451,-0.2008 8.17249,-0.61461 13.7643,-4.0168 6.14497,-3.73874 11.77067,-9.14364 15.84901,-15.22695 2.39937,-3.57892 7.05123,-16.45792 7.80444,-21.60709 0.78421,-5.36117 2.07132,-23.00921 2.00562,-27.5 0.60139,0.48065 8.05523,-26.186377 8.99157,-25.33416 -0.25632,0.91622 0.002,1.95527 0.57465,2.30902 0.57238,0.35375 1.04068,1.47068 1.04068,2.48208 0,1.0114 1.12841,3.79735 2.50758,6.19099 1.37918,2.39364 3.3625,7.05207 4.40739,10.35207 1.04489,3.3 3.23611,8.7 4.86938,12 1.63326,3.3 3.30363,7.125 3.71193,8.5 0.4083,1.375 2.48866,5.08241 4.62304,8.23869 2.13437,3.15628 3.88068,6.02589 3.88068,6.37692 0,1.30526 12.66926,15.145 17.30636,18.90525 15.06406,12.21553 31.10593,15.59568 45.19364,9.52267 1.1,-0.4742 2.675,-1.12914 3.5,-1.45543 3.66424,-1.44924 13.30482,-7.39162 17.17751,-10.5881 C 427.04068,168.98598 438,157.85302 438,156.92681 c 0,-0.34143 0.95986,-1.70214 2.13302,-3.0238 55.3143,-63.689034 11.98305,-11.0226 16.55322,39.12093 1.25579,11.80991 6.26265,24.97606 8.28155,24.97606 0.41285,0 2.72649,1.70448 5.14142,3.78773 7.88984,6.80621 16.45369,8.99808 27.89079,7.13852 3.575,-0.58126 9.425,-1.40571 13,-1.83212 3.575,-0.42641 8.54295,-1.69051 11.03988,-2.8091 2.49693,-1.1186 5.97927,-2.34996 7.73853,-2.73636 1.75926,-0.3864 3.45537,-1.11792 3.76914,-1.62561 0.31377,-0.50768 1.24054,-0.92306 2.0595,-0.92306 0.81896,0 3.95114,-1.575 6.9604,-3.5 3.00926,-1.925 5.89029,-3.5 6.40228,-3.5 0.51199,0 1.29075,-0.5625 1.73058,-1.25 0.43983,-0.6875 2.43519,-2.00542 4.43414,-2.92872 1.99894,-0.92329 7.17394,-4.22757 11.5,-7.34283 C 575.4995,194.09458 583.00599,190 585.84431,190 c 5.13171,0 5.42607,8.62248 0.43945,12.87263 -1.53107,1.30494 -6.02355,5.27435 -9.9833,8.82092 -3.95975,3.54656 -9.28534,8.10388 -11.83464,10.12737 -11.9689,9.50024 -32.42428,32.06595 -32.45621,35.80465 -0.005,0.61906 -1.18168,3.76906 -2.61422,7 -3.00036,6.76703 -3.85949,19.94107 -1.58955,24.37443 2.71761,5.30767 3.9844,7.09314 7.28226,10.26389 C 538.58435,302.6254 552.59698,310 555.48799,310 c 0.88623,0 2.82648,0.59924 4.31167,1.33166 5.09965,2.51486 36.52525,6.05752 43.70034,4.92642 7.89741,-1.24498 21.50375,-0.60986 24.32793,1.13557 1.59268,0.98433 2.28439,5.52797 1.16109,7.62687 C 628.40636,326.10923 627.0613,327 626,327 c -1.0613,0 -2.37218,0.82691 -2.91307,1.83757 -0.60566,1.13169 -3.5609,2.53526 -7.69308,3.65379 -3.6903,0.99892 -10.35109,3.35851 -14.80174,5.24354 -4.45066,1.88502 -9.29093,3.79832 -10.75616,4.25175 -1.46523,0.45344 -4.38219,1.99194 -6.48213,3.41889 -2.09995,1.42695 -4.22622,2.59446 -4.72505,2.59446 -0.49883,0 -3.77091,2.5144 -7.27128,5.58756 -6.46293,5.67414 -12.33718,14.30136 -14.86935,21.8379 -1.84124,5.4801 -2.64125,16.26676 -1.52595,20.57454 0.49838,1.925 1.59955,6.2 2.44703,9.5 0.84748,3.3 2.90211,8.65091 4.56583,11.89092 1.66372,3.24001 3.02495,6.40222 3.02495,7.02714 0,0.62492 1.2375,2.51046 2.75,4.19008 1.5125,1.67962 4.8814,6.20092 7.48643,10.04732 5.37014,7.92913 22.85013,26.08747 30.1736,31.34454 2.68166,1.925 5.68751,4.26357 6.67968,5.19682 0.99216,0.93325 3.06536,2.40746 4.60711,3.27601 5.91747,3.33366 10.31783,6.08463 12.04019,7.52717 0.98504,0.825 3.01458,2.13448 4.5101,2.90995 1.49552,0.77547 3.51423,2.14981 4.48601,3.05409 2.00535,1.86607 10.349,6.73466 17.76688,10.36714 2.75,1.34665 6.53217,3.76296 8.40483,5.36958 l 3.40483,2.92112 -3.02909,3.39014 -3.02909,3.39014 -4.37574,-1.81296 c -2.40666,-0.99713 -5.95074,-2.41249 -7.87574,-3.14525 -8.9305,-3.39945 -20.03556,-8.22857 -21.26081,-9.24544 -0.74458,-0.61795 -3.803,-1.77843 -6.79649,-2.57885 -2.99348,-0.80042 -8.8177,-2.80488 -12.9427,-4.45435 -7.24328,-2.89638 -10.45354,-3.91251 -25.5,-8.07139 -16.02875,-4.43038 -21.05956,-5.34225 -31.26761,-5.66747 -5.90281,-0.18806 -11.46502,-0.12303 -12.36046,0.1445 -0.89544,0.26754 -2.18336,2.46972 -2.86205,4.89375 -0.67868,2.42402 -1.85855,4.64699 -2.62192,4.93992 -0.76338,0.29294 -1.38796,1.60188 -1.38796,2.90877 0,1.30689 -0.85037,4.80851 -1.88972,7.78138 -5.85981,16.761 -7.16274,19.46613 -11.09392,23.03308 -4.19724,3.80837 -3.93681,3.7357 -25.83955,7.21039 -5.08512,0.80671 -7.6222,1.6976 -8.30155,2.91507 -0.93092,1.66832 -0.43096,6.72643 1.95182,19.74669 -0.37211,4.83195 1.47183,15.59246 7.18923,19.51008 0.55897,0.34546 0.75172,1.05623 0.42833,1.57949 -0.32339,0.52325 0.48033,2.22098 1.78603,3.77272 1.3057,1.55174 2.99942,5.42837 3.76382,8.61473 1.35465,5.64683 1.33155,5.84055 -0.91313,7.65818 C 497.81475,598.16084 496.33328,599 495.78922,599 494.22446,599 488,592.36079 488,590.69178 c 0,-0.82953 -2.025,-3.5918 -4.5,-6.13839 -2.475,-2.54659 -4.5,-5.26405 -4.5,-6.03882 0,-0.77476 -2.25,-4.38132 -5,-8.01457 -2.75,-3.63325 -5,-7.02827 -5,-7.54448 0,-0.51622 -0.84128,-1.46396 -1.86951,-2.1061 -1.02824,-0.64214 -4.96574,-5.14241 -8.75,-10.0006 L 451.5,542.01576 446,542.4889 c -7.89214,0.67894 -23.42312,3.03714 -24.54583,3.72701 -0.52479,0.32247 -2.66709,0.8574 -4.76067,1.18873 -2.09357,0.33134 -5.17168,1.3084 -6.84025,2.17125 -1.66857,0.86285 -3.58584,1.35697 -4.26059,1.09804 -0.67475,-0.25893 -6.59664,0.62794 -13.15974,1.97083 -6.56311,1.34288 -14.40792,2.8576 -17.43292,3.36604 -3.025,0.50845 -7.3,1.37773 -9.5,1.93174 -7.82733,1.97112 -13.65891,-0.0932 -20.31813,-7.19254 -2.45056,-2.6125 -5.02236,-4.75 -5.71512,-4.75 -1.38424,0 -5.41477,4.5452 -9.78697,11.03671 -1.55113,2.30299 -3.67788,4.41154 -4.72611,4.68566 -1.48064,0.38719 -1.693,0.89617 -0.95179,2.28114 1.07564,2.00985 -2.11801,6.99649 -4.48084,6.99649 -0.83939,0 -1.14083,0.7379 -0.81322,1.99069 0.31044,1.18715 -1.32031,5.79955 -4.03998,11.42661 -5.18814,10.73442 -9.91784,23.7934 -9.91784,27.38377 0,1.33451 0.5331,2.75586 1.18467,3.15855 0.81106,0.50127 0.42354,1.23088 -1.2288,2.31353 -3.1531,2.06599 -8.81757,3.0245 -10.67149,1.80576 z M 534,482.94098 c 0,-0.58246 -0.45,-0.7809 -1,-0.44098 -0.55,0.33992 -1,0.81648 -1,1.05902 0,0.24254 0.45,0.44098 1,0.44098 0.55,0 1,-0.47656 1,-1.05902 z M 318,403.5 c 0,-1.41667 -0.57778,-2.5 -1.33333,-2.5 -2.11176,0 -2.67787,1.11055 -1.5963,3.13148 C 316.48513,406.775 318,406.44847 318,403.5 z"
         style="fill:#edb420"
         sodipodi:nodetypes="ssssssssssssssssssssssssssssssssssssssssssssssssssssssssssssssssssscscsssssssscccssssssssssssccssssssssssssssssscssssssssssssssssssssssssssssssscccsssssssssssssssccsssssssssssscsssssssssssssssssssssssssssss" />
      <path
         sodipodi:nodetypes="csssssssssscsssssssssssssssssssssssssssssssssssscsssssssssssssssssssssssssssssssssssccsscssscsssssssssssssssscsssssssssssssssssscssssssssscsssssssscssssssssssssssssssscssssssssssssscssssssssssscscssssssssssssscsssssscsssssssssssssssssssssssssssssscscsscsscssssscssscsssssssssssccscssscssssssssssscsssssssssssssssssssssssssssssssssssssssssssssssssssssssssssscsssssccsssssssssssssssssssssssssssss"
         inkscape:connector-curvature="0"
         id="path2999"
         d="m 293.93975,618.87244 c -0.0331,-0.20484 -0.27125,-2.50994 -0.52915,-5.12244 -0.41639,-4.21801 -0.24826,-4.75 1.50123,-4.75 2.79705,0 3.47501,-1.66558 0.94704,-2.32665 -1.609,-0.42077 -1.92613,-0.98935 -1.31836,-2.36369 0.44015,-0.99532 0.9198,-3.69794 1.06589,-6.00584 0.14609,-2.3079 0.68361,-5.0079 1.19448,-6 0.51088,-0.9921 0.72717,-2.36632 0.48066,-3.05382 -0.27144,-0.75703 0.41941,-1.25 1.75176,-1.25 1.8487,0 2.07391,-0.35925 1.41048,-2.25 -1.06155,-3.02539 -0.51203,-20.95275 0.6867,-22.40275 0.60699,-0.73422 0.595,-1.27883 -0.033,-1.5 C 300.55515,561.65626 299.87233,557 299.58008,551.5 298.26025,526.66125 291.34181,509.74187 279.02731,501.23715 276.8475,499.73172 274.81782,497.825 274.5169,497 c -0.30249,-0.8293 -4.47575,-2.75258 -9.33334,-4.30136 -7.59826,-2.4226 -10.23226,-2.77826 -19.48142,-2.63052 -5.88237,0.094 -14.18427,0.81854 -18.44868,1.61016 -7.2795,1.35133 -24.74247,6.90478 -28.88553,9.18596 -1.02736,0.56567 -6.59293,3.34417 -12.36793,6.17443 -18.25994,8.94901 -27.43661,14.45729 -37.10894,22.27457 -7.10295,5.74068 -10.87262,7.30218 -13.82018,5.72469 -3.24922,-1.73892 -2.84761,-7.49831 0.67912,-9.7391 3.14313,-1.99705 6.25,-5.20426 6.25,-6.45184 0,-0.46584 0.50221,-0.84699 1.11602,-0.84699 1.27589,0 10.7986,-6.63096 12.54133,-8.73293 0.63654,-0.76775 5.24904,-5.61803 10.25,-10.7784 5.00096,-5.16038 9.09265,-9.86644 9.09265,-10.45793 0,-0.59148 1.863,-3.09655 4.14001,-5.5668 4.34864,-4.71772 7.56572,-10.0443 13.56752,-22.46394 1.9934,-4.125 4.17317,-8.175 4.84392,-9 0.67076,-0.825 1.45314,-3.075 1.73864,-5 0.2855,-1.925 1.11144,-6.65 1.83544,-10.5 1.77647,-9.44679 1.43228,-17.79011 -1.16093,-28.14132 -3.75817,-15.0013 -8.68817,-22.73112 -22.64765,-35.50956 -4.64303,-4.2502 -25.61314,-16.78514 -32.81695,-19.61641 -6.45871,-2.53843 -21.34501,-6.39512 -28,-7.25413 -3.85,-0.49695 -11.275,-1.56383 -16.5,-2.37083 -5.225,-0.80701 -12.522008,-1.91276 -16.215573,-2.45723 -7.955462,-1.1727 -9.120054,-1.75908 -8.465425,-4.26238 0.271281,-1.03738 0.05617,-2.15627 -0.478025,-2.48642 -0.56336,-0.34818 -0.243194,-1.40478 0.762353,-2.5159 1.603765,-1.77214 3.200306,-1.90614 21.315143,-1.78907 11.818157,0.0764 20.572687,-0.29266 22.081527,-0.93083 1.375,-0.58156 6.325,-1.76728 11,-2.63492 9.48727,-1.76076 17,-4.23266 17,-5.59347 0,-0.49338 -0.70428,-2.65722 -1.56506,-4.80853 -1.25304,-3.13164 -1.35924,-4.88017 -0.53269,-8.77024 2.80608,-13.20647 5.83685,-23.43119 7.41241,-25.00676 0.37694,-0.37693 0.68534,-1.87033 0.68534,-3.31867 0,-1.44833 0.36007,-3.06083 0.80016,-3.58333 0.85586,-1.01614 4.66044,-10.63161 5.51962,-13.95 0.28481,-1.1 2.39924,-6.27381 4.69873,-11.49735 2.29949,-5.22355 5.30671,-12.98772 6.68271,-17.25373 1.376,-4.266 2.90613,-8.00625 3.4003,-8.31166 0.49416,-0.30541 0.89848,-1.58471 0.89848,-2.84288 0,-2.87003 5.99697,-9.14845 10.55908,-11.05462 4.01761,-1.67866 4.29776,-3.43623 1.44092,-9.03976 -1.1,-2.15759 -2,-5.15222 -2,-6.65474 0,-1.52132 -0.82025,-3.31087 -1.85109,-4.03856 -2.05422,-1.4501 -4.53919,-5.93029 -5.48597,-9.89076 -0.33976,-1.42124 -1.97792,-4.29561 -3.64034,-6.38751 -1.66243,-2.09189 -3.0226,-4.21038 -3.0226,-4.70775 0,-0.49737 -0.93393,-1.89799 -2.07539,-3.11249 -1.14147,-1.21451 -4.16451,-5.34119 -6.71788,-9.17041 -2.55336,-3.82921 -7.37013,-9.90421 -10.70393,-13.5 C 144.75269,135.75721 140,129.62211 140,128.18917 c 0,-0.51936 -0.675,-1.50448 -1.5,-2.18917 -0.825,-0.68469 -1.5,-1.60765 -1.5,-2.05102 0,-1.52079 3.14327,-3.94898 5.11192,-3.94898 2.6464,0 7.88808,3.9791 7.88808,5.98806 0,2.04889 1.93964,4.01194 3.9641,4.01194 1.55401,0 5.0359,6.59749 5.0359,9.54204 0,1.23423 0.39717,1.31577 2.06392,0.42375 1.55636,-0.83294 2.47857,-0.78615 3.75,0.19027 2.88228,2.2135 15.41953,12.68067 22.09444,18.44633 3.16728,2.73584 7.96247,6.23447 19.36685,14.13029 1.77364,1.22797 3.83762,2.75523 4.58663,3.39389 2.35737,2.0101 16.16512,9.20487 26.63816,13.88028 5.94538,2.65416 17.85438,4.99315 25.42267,4.99315 3.7591,0 7.18787,0.51054 7.84551,1.16818 0.89091,0.89091 1.82535,0.51102 3.9369,-1.60053 1.52279,-1.52279 4.43739,-3.62001 6.47689,-4.66048 5.95587,-3.03846 15.06711,-14.72211 18.75139,-24.04555 3.44494,-8.71776 5.54892,-23.52987 5.37803,-37.86162 -1.96501,-3.686 6.7195,-32.14981 6.72283,-28.833333 -0.53117,0.183333 -1.09367,1.908333 -1.25,3.833333 -0.23243,2.86228 0.0346,3.44646 1.46578,3.20616 1.60281,-0.26912 2.25358,0.87863 1.81563,3.2022 -0.0942,0.4996 0.19005,1.1746 0.63158,1.5 0.44154,0.3254 1.34411,1.56412 2.00573,2.75271 0.96939,1.74151 0.93388,2.26432 -0.18288,2.69286 -1.97533,0.758 0.38254,5.6278 2.72994,5.63827 0.9625,0.004 1.75,0.43163 1.75,0.94964 0,0.51802 1.72746,4.68052 3.8388,9.25 2.11134,4.56949 4.88827,10.67066 6.17094,13.55816 1.28267,2.8875 2.69366,5.25 3.13552,5.25 0.44186,0 1.54771,1.4625 2.45744,3.25 4.116,8.08736 19.4366,23.73724 26.89429,27.47231 2.75166,1.37813 5.67801,3.07458 6.50301,3.76988 2.26475,1.90873 7.57931,2.8125 17,2.89095 9.31456,0.0776 13.79106,-1.2175 24.70804,-7.14808 6.20156,-3.36895 21.73926,-16.19638 24.79831,-20.47269 0.89011,-1.2443 3.83442,-5.25825 6.5429,-8.91987 2.70849,-3.66163 7.37859,-11.42224 10.37799,-17.2458 2.9994,-5.82356 6.1553,-11.59031 7.01311,-12.815 C 461.29816,120.55701 462,118.83356 462,117.95181 462,115.57171 466.26942,112 469.11445,112 c 3.82484,0 4.72101,1.52343 3.70932,6.30557 -0.48805,2.30693 -1.01045,4.86943 -1.16088,5.69443 -0.15044,0.825 -0.76195,2.625 -1.35893,4 -0.59698,1.375 -1.84579,4.525 -2.77513,7 -0.92935,2.475 -2.50654,6.3 -3.50485,8.5 -1.98978,4.38487 -4.47646,14.87833 -6.87228,29 -2.23146,13.1529 2.17529,43.02469 6.77147,45.90135 0.79207,0.49574 2.74934,2.24065 4.34949,3.87758 7.54842,7.72192 17.69025,9.85704 34.65348,7.29549 C 508.66051,228.70849 514.37803,228 515.63173,228 c 1.2537,0 3.93723,-1.125 5.96341,-2.5 2.02617,-1.375 4.50589,-2.5 5.51048,-2.5 1.94402,0 6.27932,-1.74408 14.39438,-5.7908 9.31494,-4.64508 10.5,-5.35413 10.5,-6.28244 0,-0.50972 0.49128,-0.92676 1.09173,-0.92676 0.60045,0 7.15619,-4.04914 14.56831,-8.99809 7.41212,-4.94895 14.56984,-9.27249 15.90604,-9.60785 3.51499,-0.88221 5.43392,0.18692 5.43392,3.0275 0,4.27317 -2.04512,7.26584 -8.59934,12.58357 -3.48835,2.83025 -9.16805,7.80833 -12.62156,11.06238 -3.4535,3.25406 -6.59168,5.92007 -6.97373,5.92448 -0.38205,0.004 -2.85832,2.14551 -5.50283,4.75801 -2.64451,2.6125 -6.15693,5.91719 -7.80537,7.34375 -5.04729,4.36794 -14.20344,16.31045 -16.79519,21.90625 -6.34925,13.7085 -7.39681,24.12153 -3.25097,32.31563 4.22301,8.34663 10.50907,13.74406 21.04899,18.07342 4.95,2.03325 10.19443,4.3525 11.65429,5.15389 1.45986,0.80138 4.38486,1.46648 6.5,1.47799 2.11514,0.0115 9.22376,0.65569 15.79694,1.43152 10.88884,1.28521 29.60266,1.27903 33.71461,-0.0111 0.91622,-0.28747 1.95527,-0.0544 2.30902,0.518 0.35375,0.57238 2.43112,1.04068 4.61638,1.04068 3.20196,0 4.13813,0.43675 4.82282,2.25 0.98825,2.61717 -0.32414,5.75 -2.40877,5.75 -0.7834,0 -2.45506,1.06049 -3.71482,2.35664 -1.25976,1.29615 -4.54047,2.95089 -7.29047,3.6772 -2.75,0.72631 -9.16014,3.04082 -14.24475,5.14336 -5.08461,2.10254 -9.8429,3.8228 -10.57398,3.8228 -0.73107,0 -3.5445,1.575 -6.25205,3.5 -2.70755,1.925 -5.37426,3.50202 -5.92602,3.50449 -2.11306,0.009 -13.78704,11.52135 -16.62163,16.39083 -4.49674,7.72487 -4.55939,7.85199 -5.71918,11.60468 -2.57873,8.34391 -2.49207,16.0372 0.29832,26.48512 1.46674,5.49182 3.53811,11.39493 4.60304,13.11803 1.06494,1.72311 1.93625,3.87341 1.93625,4.77845 0,2.15788 1.94967,5.57167 4.75,8.31705 1.2375,1.21322 2.25,2.67734 2.25,3.2536 0,0.57626 0.47296,1.04775 1.05103,1.04775 0.57806,0 1.66938,1.4625 2.42515,3.25 1.27348,3.01194 7.95842,11.46685 12.90865,16.32644 1.16334,1.14204 4.0368,4.14656 6.38545,6.6767 2.34865,2.53015 7.74865,7.20331 12,10.38481 4.25135,3.1815 8.17972,6.28839 8.72972,6.9042 0.55,0.61581 3.475,2.70057 6.5,4.63281 3.025,1.93224 9.325,6.00156 14,9.04293 4.675,3.04137 10.4125,6.49569 12.75,7.67626 2.3375,1.18057 4.25,2.5516 4.25,3.04672 0,0.49512 1.4559,1.21999 3.23533,1.61082 3.69055,0.81058 7.19002,2.83663 10.6706,6.17785 l 2.40593,2.3096 -2.33024,2.48043 c -1.28164,1.36421 -2.90669,2.4804 -3.61122,2.4804 -0.70454,0 -5.91359,-1.96849 -11.57569,-4.37442 -5.66209,-2.40593 -11.41971,-4.70265 -12.79471,-5.10384 -1.375,-0.40118 -4.3,-1.74131 -6.5,-2.97807 -2.2,-1.23676 -6.24402,-2.79833 -8.9867,-3.47016 -2.74269,-0.67183 -5.44269,-1.59564 -6,-2.0529 -1.53345,-1.25818 -30.44228,-10.79656 -35.0133,-11.55254 -2.2,-0.36385 -6.925,-1.47205 -10.5,-2.46266 -8.07889,-2.23863 -29.66117,-3.53151 -31.63307,-1.89497 -0.97154,0.8063 -1.7382,0.82632 -2.65047,0.0692 -1.71829,-1.42606 -4.17573,0.18113 -3.39356,2.21943 0.33788,0.8805 1.27677,1.60092 2.08641,1.60092 1.2717,0 1.28491,0.36077 0.097,2.65041 -0.75627,1.45773 -1.952,3.00699 -2.65716,3.4428 -0.78327,0.48409 -1.1708,2.33415 -0.99601,4.75497 0.17583,2.4353 -0.66374,6.40795 -2.17829,10.3072 -1.35542,3.48954 -3.23347,8.44434 -4.17344,11.01067 -1.91197,5.22011 -6.96865,9.90347 -12.50144,11.57849 -3.68175,1.11463 -16.09357,3.10082 -21.95137,3.51275 -4.53663,0.31903 -7.49599,4.83805 -6.09459,9.30663 0.50643,1.61484 1.4469,6.08608 2.08993,9.93608 0.64303,3.85 2.48355,9.83986 4.09005,13.31079 1.6065,3.47094 3.2002,8.34846 3.54156,10.83893 0.46557,3.39675 1.19034,4.7877 2.90076,5.56701 1.25406,0.57139 2.30223,1.76888 2.32927,2.66108 0.0728,2.40076 0.71269,5.37639 1.61469,7.50811 0.91474,2.16184 -0.50978,4.97114 -2.74414,5.41172 C 494.49991,598.24649 489,593.15516 489,590.59916 c 0,-1.26347 -1.18703,-3.10441 -2.75,-4.26491 -1.5125,-1.12303 -3.79545,-4.02016 -5.07323,-6.43806 -2.66988,-5.05216 -10.15428,-15.42681 -14.9716,-20.75319 -1.81215,-2.00365 -5.63715,-6.64561 -8.5,-10.31547 -2.86284,-3.66986 -5.8985,-6.86561 -6.74591,-7.10166 -1.30642,-0.36391 -14.99385,1.12229 -25.45926,2.76441 -3.93271,0.61708 -11.23397,2.41161 -15,3.68675 -1.65,0.55868 -4.8,1.21612 -7,1.46099 -2.2,0.24486 -5.35,0.84551 -7,1.33477 -1.65,0.48926 -7.05,1.61824 -12,2.50883 -4.95,0.89059 -11.79248,2.27156 -15.20552,3.06882 -12.02921,2.80993 -16.47265,1.5228 -23.87421,-6.91565 -2.70615,-3.08525 -5.66332,-5.61523 -6.57149,-5.62217 -0.90818,-0.007 -2.5805,1.56238 -3.71628,3.48738 -1.13578,1.925 -2.53023,3.5 -3.09877,3.5 -0.56855,0 -1.03373,0.81581 -1.03373,1.81291 0,0.9971 -1.31039,3.06834 -2.91199,4.60277 -2.57466,2.46668 -3.39056,2.709 -7.0434,2.09186 -3.14434,-0.53124 -3.88421,-0.99589 -3.0967,-1.94478 0.56911,-0.68573 0.76746,-1.51405 0.44079,-1.84073 -0.99786,-0.99786 5.22661,-13.06139 8.11217,-15.72203 4.21213,-3.88383 4.78235,-6.40566 2.37209,-10.49075 C 327.73418,527.57916 326.4226,526 325.95834,526 c -0.46426,0 -3.3234,-3.2625 -6.35366,-7.25 -3.03025,-3.9875 -6.31845,-8.1496 -7.30711,-9.24911 -0.98867,-1.09951 -3.72502,-4.24951 -6.08079,-7 -2.35577,-2.75049 -5.7892,-6.57589 -7.62983,-8.50089 -2.91023,-3.04362 -5.91557,-6.50477 -18.60153,-21.42271 -6.90456,-8.11936 -19.65688,-22.43394 -22.39057,-25.13361 -1.70217,-1.68097 -5.11985,-5.61255 -7.59485,-8.73683 -2.475,-3.12429 -5.54806,-6.92395 -6.82902,-8.44369 -1.28095,-1.51974 -3.36269,-4.35338 -4.62607,-6.29698 -1.26339,-1.9436 -4.49873,-5.9936 -7.18965,-9 -2.69092,-3.0064 -6.51974,-7.49118 -8.50849,-9.96618 -1.98875,-2.475 -5.35986,-6.3 -7.49136,-8.5 -2.1315,-2.2 -5.78345,-6.20086 -8.11543,-8.89079 -3.92776,-4.53065 -5.52538,-4.94083 -3.29371,-0.84564 4.72497,8.67046 5.93271,12.57083 6.38099,20.60721 0.26074,4.67431 0.80922,9.04102 1.21884,9.70381 1.23451,1.99748 0.83208,14.21347 -0.57405,17.42541 -0.72234,1.65 -1.19881,5.08844 -1.05882,7.64097 0.20374,3.71512 -0.78642,7.08281 -4.96336,16.88104 -2.86984,6.73203 -6.95758,14.85923 -9.08388,18.06043 -2.12629,3.2012 -3.87851,6.17973 -3.89381,6.61896 -0.0153,0.43923 -1.3695,2.5719 -3.00934,4.73926 -3.32832,4.39904 -2.69585,6.77836 1.26695,4.76621 1.24862,-0.634 4.07021,-1.77861 6.27021,-2.54357 2.2,-0.76496 7.15,-2.53004 11,-3.9224 11.2139,-4.05552 29.32235,-6.96315 38.89439,-6.24518 16.3228,1.22434 20.28463,2.2326 31.10561,7.91623 1.65,0.86665 3.61064,1.5785 4.35699,1.58189 0.7944,0.004 1.11835,0.62804 0.78138,1.50616 -0.37134,0.9677 0.0343,1.5159 1.14301,1.54481 3.22706,0.0842 10.96527,8.21848 14.06615,14.7862 1.64402,3.48206 3.78899,7.21486 4.76661,8.29511 1.63015,1.80129 2.50613,5.4164 2.49177,10.28331 -0.003,1.05018 0.36527,2.62518 0.8186,3.5 0.45332,0.87481 0.49873,2.48823 0.1009,3.58536 -0.48264,1.33105 -0.0387,2.92085 1.33434,4.77793 1.51165,2.04461 2.12063,4.55806 2.29494,9.47194 0.13051,3.67884 0.49744,7.72535 0.81541,8.99225 0.48807,1.94462 0.11054,2.39696 -2.42356,2.90378 -1.65093,0.33019 -3.50149,1.20257 -4.11236,1.93862 -1.5595,1.87908 2.0626,2.6501 10.54231,2.24412 5.48379,-0.26256 6.9608,-0.005 7.84734,1.36803 1.6514,2.55773 -1.81806,6.14959 -4.53534,4.69534 -2.51814,-1.34766 -3.23698,-0.59333 -1.86951,1.96181 0.59456,1.11095 1.08102,2.71115 1.08102,3.55601 0,2.02435 -5.00911,13.00086 -6.12816,13.42871 -0.47951,0.18334 -0.87184,1.17032 -0.87184,2.1933 0,1.02298 -0.91008,2.49741 -2.0224,3.27651 -1.27103,0.89026 -1.78857,2.0259 -1.39301,3.0567 0.34616,0.90209 0.28827,2.42766 -0.12864,3.39016 -0.95856,2.21293 -1.15847,2.86688 -2.36321,7.73025 -0.81191,3.27758 -0.68646,4.32039 0.71064,5.90699 1.61942,1.83908 1.5958,1.90152 -0.51919,1.37231 -1.2187,-0.30494 -2.17791,-0.26308 -2.13158,0.093 0.30569,2.34959 -0.50843,3.14744 -3.21163,3.14744 -2.18106,0 -2.84348,-0.35875 -2.30804,-1.25 0.51028,-0.84936 0.20868,-0.81011 -0.94098,0.12244 -0.93058,0.75485 -1.71907,1.20485 -1.75221,1 z M 471,540.60699 c 0,-1.40501 -2.87577,-3.06455 -3.76667,-2.17366 -0.26422,0.26423 -0.21394,1.17482 0.11175,2.02354 0.73778,1.92265 3.65492,2.04246 3.65492,0.15012 z M 522.75,509.75 c -0.47189,-1.41567 -2.07998,-1.26005 -2.58333,0.25 -0.18334,0.55 0.41666,1 1.33333,1 0.91667,0 1.47917,-0.5625 1.25,-1.25 z M 601,480.63243 c 0,-0.20217 -3.7125,-3.31203 -8.25,-6.91081 -14.09531,-11.17927 -21.76087,-19.5762 -32.1934,-35.26497 -1.84452,-2.77384 -4.07433,-5.64144 -4.95513,-6.37244 C 554.21399,430.9327 554,431.05412 554,432.9929 c 0,1.23079 -1.575,5.601 -3.5,9.71158 -1.925,4.11058 -3.5,8.29637 -3.5,9.30175 0,1.00538 -0.92017,3.97463 -2.04483,6.59835 -1.12465,2.62371 -2.30437,6.66399 -2.6216,8.97839 l -0.57677,4.20799 10.8716,0.67578 c 9.10747,0.56611 28.87789,4.1947 40.8716,7.50142 3.21844,0.88734 7.5,1.26655 7.5,0.66427 z M 547,410.2 c 0,-1.54 -0.5625,-3.3625 -1.25,-4.05 -0.88662,-0.88662 -1.25,-5.52333 -1.25,-15.95 0,-14.1928 0.10529,-14.94152 3.0517,-21.7 3.93623,-9.02896 11.10462,-18.19739 18.269,-23.36624 3.12362,-2.25357 6.3543,-4.70268 7.1793,-5.44246 0.825,-0.73978 4.51772,-3.00892 8.20603,-5.04253 6.8951,-3.80172 8.43982,-5.13158 6.9967,-6.02347 -0.45644,-0.2821 -5.32425,-0.97411 -10.81735,-1.53781 -12.86393,-1.32009 -33.37065,-7.21452 -38.25414,-10.99573 -1.99718,-1.54639 -5.61145,-4.11215 -8.0317,-5.70169 -2.70128,-1.7741 -6.41325,-5.8524 -9.61307,-10.56176 -4.67555,-6.88125 -5.29459,-8.42674 -6.00825,-15 -0.90274,-8.31475 -0.85071,-9.57533 0.65327,-15.82831 1.07102,-4.45291 4.97964,-14.10187 6.8864,-17 0.54279,-0.825 1.39523,-2.43505 1.89431,-3.57789 0.49908,-1.14284 3.2516,-5.17497 6.11671,-8.9603 2.8651,-3.78533 4.72516,-7.04379 4.13346,-7.24102 -1.44741,-0.48247 -12.88058,2.49215 -16.47957,4.28757 -3.78836,1.88988 -7.07363,2.3866 -19.6828,2.97595 -13.05341,0.61012 -20.46462,-0.67548 -29.61447,-5.13715 -13.92083,-6.78809 -21.52332,-20.85661 -22.8927,-42.36332 -0.33326,-5.23389 -0.12882,-12.5027 0.45431,-16.15293 0.63456,-3.97221 0.7077,-7.57909 0.18217,-8.98384 -0.8411,-2.24829 -1.21497,-2.01038 -8.88325,5.65293 -18.05143,18.03973 -32.11177,25.83362 -48.74606,27.02078 -8.27892,0.59085 -9.77101,0.39491 -18.62319,-2.44557 -5.29275,-1.69833 -10.82895,-4.03632 -12.30266,-5.19554 -3.50048,-2.75348 -4.34328,-1.76855 -1.68324,1.96713 1.16,1.62907 2.10909,3.36515 2.10909,3.85795 0,0.49281 2.15288,3.34834 4.78417,6.34563 2.63129,2.99729 6.18152,7.24962 7.8894,9.44962 1.70788,2.2 6.09463,7.15 9.74834,11 3.6537,3.85 8.05476,8.9125 9.78011,11.25 1.72536,2.3375 3.49654,4.25 3.93596,4.25 0.43941,0 2.55506,2.3625 4.70145,5.25 2.14638,2.8875 6.32308,7.725 9.28154,10.75 2.95847,3.025 6.05403,6.56764 6.87903,7.87253 0.825,1.30489 2.175,3.0118 3,3.79314 6.45821,6.11642 9,8.96315 9,10.07977 0,0.71452 2.475,3.6963 5.5,6.62618 3.025,2.92987 5.5,5.99762 5.5,6.8172 0,0.81958 1.125,2.00273 2.5,2.62923 1.375,0.62649 2.5,1.49843 2.5,1.93765 0,0.43922 1.2375,2.18648 2.75,3.8828 1.5125,1.69632 4.55,5.63744 6.75,8.75805 2.2,3.12061 5.52001,7.3455 7.3778,9.38864 1.85779,2.04315 4.53902,5.28981 5.95829,7.21481 2.35305,3.19151 8.14627,9.8219 16.60104,19 1.77329,1.925 3.99035,4.68138 4.92681,6.12529 0.93646,1.4439 5.40017,6.41588 9.91935,11.04883 4.51919,4.63295 9.56671,10.11722 11.21671,12.18727 1.65,2.07006 4.6875,5.58985 6.75,7.82176 2.0625,2.23191 3.75,4.38656 3.75,4.78813 0,0.63998 7.76335,8.93724 21.31294,22.77872 2.28821,2.3375 4.50388,4.25 4.92372,4.25 C 546.6565,413 547,411.74 547,410.2 z M 180.29969,357.69927 c -2.9998,-4.87929 -19.49436,-24.35024 -22.40828,-26.45179 -1.40051,-1.01006 -3.0583,-0.96533 -8.56405,0.2311 -8.62171,1.87353 -14.65721,4.01098 -15.10312,5.34871 -0.46538,1.39614 1.62392,2.40277 12.59128,6.06654 5.12353,1.71157 14.79853,6.02836 21.5,9.59286 6.70146,3.56451 12.31934,6.48821 12.48417,6.49711 0.16483,0.009 -0.0602,-0.56913 -0.5,-1.28453 z M 218.86666,204.06669 C 230.10528,202.11074 232,201.53463 232,200.07341 c 0,-0.4447 -4.73378,-3.16105 -10.51951,-6.03633 -5.78573,-2.87527 -13.09823,-7.11837 -16.25,-9.42911 -17.57542,-12.88551 -21.5719,-14.13225 -17.41451,-5.43262 1.13667,2.37856 2.36223,5.54369 2.72346,7.03363 0.36123,1.48994 1.28441,3.22986 2.0515,3.86649 0.76709,0.63663 1.88724,2.98664 2.48923,5.22226 0.60199,2.23561 2.23363,5.55819 3.62587,7.38351 3.05632,4.00704 4.51956,4.1076 20.16062,1.38545 z M 321.5,184.47411 c 5.5,-1.33005 12.3726,-2.71514 15.27244,-3.078 2.89985,-0.36285 5.48238,-0.99941 5.73897,-1.41457 0.25659,-0.41517 -2.5313,-4.74336 -6.19532,-9.6182 -5.77536,-7.68392 -10.34402,-14.51059 -17.13678,-25.60647 -0.92362,-1.50872 -2.10422,-2.60458 -2.62355,-2.43525 -0.51934,0.16933 -1.77355,4.10374 -2.78716,8.74313 -2.2979,10.51781 -6.53473,23.94797 -8.18182,25.93525 -2.50374,3.02086 -5.59455,9.17842 -5.04968,10.06004 0.79368,1.28419 9.29654,0.2353 20.9629,-2.58593 z m -2.23628,-52.37458 C 319.91229,129.61941 319.01417,125 317.88342,125 317.39754,125 317,127.025 317,129.5 c 0,4.54911 1.34884,6.09804 2.26372,2.59953 z M 314,128.94098 c 0,-0.58246 -0.45,-0.7809 -1,-0.44098 -0.55,0.33992 -1,0.81648 -1,1.05902 0,0.24254 0.45,0.44098 1,0.44098 0.55,0 1,-0.47656 1,-1.05902 z"
         style="fill:#c51a26" />
      <path
         sodipodi:nodetypes="ccccccccsccsssssscssssssssssssssssssssssssssssssssscsssssssssssccssssssssccsscsssssssssssssssssssssssssssssssssssssscscssssssssssssssssscccccssssssssccsssccsccscsssssssssssssssssssssssssssssssssssssssssssssssssssssssssssssscsccssssssccscsssssscsscccccsssssscssssssssssssssssssssscsssssssssssssssscssssssssssssssssssssssssssssssssssssscsssscssssssssssssssssssscssssssssssssssssssscsssssssssssscsssssssssssssssssssssssssssssssssssssssssssssssssssssccssssssssssssccssssssssssssssssssssssssssssssssssssssssssssssssssssssscsssssssscssssssssssssssssssssssssssssssssssssssssssssssssssssssssssssssssssssssssssssssssssssscssssssssscssssssssssssssssssssscssssssscsssssssscssssssscccsssscsssssssssssssssssssssssssssssssssssssssssssssssssssssssssssssssssssssssssssssssssss"
         inkscape:connector-curvature="0"
         id="path2997"
         d="m 292.60701,613.44951 c 0.58738,-10.42619 1.69917,-8.89788 1.58809,-14.53085 3.20052,-11.9927 3.04481,-25.93347 7.02808,-34.65765 0.55189,-0.68144 0.27294,-5.24734 0.87131,-4.87752 16.8486,5.43359 26.10549,3.86253 18.70032,10.32259 0.56412,3.76184 -3.28458,9.02015 -6.41514,15.70675 -4.28556,7.58224 -3.04786,5.17422 -5.12778,12.22413 -1.89018,1.52811 -4.96675,14.68477 -5.39907,14.98991 -1.47673,0.83897 0.55998,0.17433 1.61479,1.89739 1.65912,2.71022 -4.94857,3.73744 -7.83839,4.28986 -3.40208,1.67412 -4.7619,-1.30438 -5.02221,-5.36461 z m 200.55723,-17.49583 c -1.74677,-1.06227 -3.41631,-3.10982 -3.80791,-4.67009 -0.38354,-1.52815 -1.988,-4.06911 -3.56546,-5.64657 -1.57747,-1.57746 -3.74649,-4.58986 -4.82005,-6.69423 -2.06683,-4.05131 -9.36629,-14.12349 -15.36219,-21.19755 -1.97902,-2.33488 -5.89823,-7.09531 -8.70935,-10.57872 l -5.11114,-6.33348 -5.64407,0.48272 c -11.66412,0.99761 -23.30547,2.70025 -25.12681,3.675 -1.03718,0.55508 -3.25009,1.00924 -4.91759,1.00924 -1.6675,0 -4.50958,0.66061 -6.31574,1.46802 -1.80616,0.80741 -8.45893,2.39551 -14.78393,3.5291 -11.65957,2.08969 -13.61581,2.49101 -27,5.53894 -9.69446,2.20769 -14.62477,1.05848 -20.15572,-4.69813 C 345.72993,549.63731 344,547.43389 344,546.94145 c 0,-1.44765 -4.59334,-4.03473 -6.12208,-3.4481 -0.77214,0.2963 -1.99827,1.88151 -2.72473,3.52269 C 334.35013,548.83029 333.08122,550 331.91618,550 330.57722,550 330,550.70058 330,552.32569 330,555.84166 326.03761,559 321.62653,559 c -2.59435,0 -3.5235,-0.35769 -3.02487,-1.16448 0.39583,-0.64047 0.81779,-2.41151 0.93768,-3.93565 0.21198,-2.69463 3.65257,-9.38323 5.86404,-11.39987 0.60314,-0.55 2.28242,-2.72199 3.73174,-4.82665 2.41172,-3.50225 2.51876,-4.05989 1.26266,-6.5778 -0.75485,-1.51313 -2.84065,-4.18458 -4.63512,-5.93655 C 321.66499,521.15837 319,518.14466 319,517.51143 c 0,-0.75988 -2.99198,-4.36205 -9.10426,-10.96097 -3.08234,-3.32775 -6.00734,-6.79269 -6.5,-7.69987 -0.49266,-0.90717 -4.14698,-5.18217 -8.12072,-9.5 -10.89801,-11.84166 -11.38213,-12.39244 -16.56905,-18.85059 -2.65043,-3.3 -8.79764,-10.275 -13.66048,-15.5 -7.26964,-7.81105 -20.44925,-23.68445 -28.84448,-34.74004 -2.04886,-2.69811 -3.07293,-3.90858 -15.1075,-17.85732 C 215.91994,396.40619 210.6902,390.6 209.47187,389.5 c -1.21834,-1.1 -2.73875,-3.0125 -3.3787,-4.25 -0.63994,-1.2375 -1.8227,-2.25 -2.62835,-2.25 -1.87793,0 -1.84769,0.35035 0.41449,4.80188 1.03362,2.03397 2.61215,5.27312 3.50784,7.19812 1.7661,3.79566 3.7881,17.37972 2.92269,19.63495 -0.29347,0.76479 -0.008,2.02342 0.63366,2.79697 1.74992,2.10852 1.50054,12.49602 -0.40656,16.93481 -0.91373,2.12671 -1.42081,4.49352 -1.12684,5.2596 1.49642,3.8996 -7.45186,28.62866 -12.98378,35.88138 C 195.09185,477.2573 194,479.20881 194,479.84439 194,480.47998 193.55,481 193,481 c -0.55,0 -1.01252,0.5625 -1.02782,1.25 -0.0153,0.6875 -1.3653,3.01766 -3,5.17814 -4.46295,5.89839 -3.56177,9.05881 1.77577,6.22755 4.47723,-2.37492 18.98013,-7.65411 24.05105,-8.75481 13.50293,-2.93096 17.89902,-3.39135 31.35995,-3.28423 15.27987,0.1216 20.18573,1.22705 29.34105,6.6115 1.65,0.97041 3.80723,1.76606 4.79384,1.76811 1.15269,0.002 1.68881,0.62921 1.5,1.75374 -0.19704,1.17347 0.36505,1.7609 1.70616,1.78307 3.06602,0.0507 10.81013,8.31944 13.54905,14.46693 1.34774,3.025 3.46305,6.6204 4.70069,7.98978 1.23764,1.36938 2.3207,3.61938 2.40678,5 0.32723,5.2479 0.62909,7.59362 1.30627,10.15113 0.4188,1.58168 0.25863,2.91323 -0.39936,3.31989 -0.73734,0.4557 -0.44007,1.51621 0.90392,3.22482 2.51484,3.19711 4.27436,9.31732 3.08995,10.74796 -0.49457,0.5974 -0.52067,3.04386 -0.0593,5.56257 0.85102,4.64632 0.18413,5.95661 -3.04796,5.98854 -0.8525,0.008 -2.0825,0.54781 -2.73333,1.19864 -1.87917,1.87917 -2.63992,0.16612 -2.88058,-6.48653 -0.33754,-9.33054 -1.28217,-17.42478 -2.36633,-20.27634 C 297.43639,533.0176 297,530.7279 297,529.33225 c 0,-1.39565 -1.73628,-6.20385 -3.85841,-10.6849 -3.02637,-6.39044 -5.38342,-9.61182 -10.93039,-14.93854 -3.8896,-3.73516 -7.21582,-7.11016 -7.3916,-7.5 -0.17578,-0.38985 -3.93744,-1.94631 -8.35924,-3.45881 -6.95817,-2.38007 -9.58128,-2.74731 -19.5,-2.73001 -18.95353,0.0331 -34.6592,3.80753 -53.46036,12.84786 -4.4,2.11569 -10.25,4.84719 -13,6.06999 -2.75,1.22281 -5.45955,2.74953 -6.02123,3.39272 -0.56167,0.64319 -4.07033,2.73238 -7.79701,4.64265 -3.72669,1.91027 -7.49938,4.27277 -8.38376,5.25 -0.88439,0.97723 -2.07173,1.77679 -2.63854,1.77679 -0.56681,0 -1.95956,0.84044 -3.09501,1.86764 C 147.67171,530.29395 139.59327,535 136.88779,535 134.24088,535 134,534.70085 134,531.41362 c 0,-3.0458 0.82222,-4.36468 5.45496,-8.75 3.00023,-2.83999 7.95023,-6.68361 11,-8.54137 3.04977,-1.85776 5.54504,-3.77026 5.54504,-4.25 0,-0.47974 0.82577,-1.65975 1.83504,-2.62225 C 172.00532,493.73639 175,490.5523 175,488.99937 c 0,-0.59678 2.025,-3.24994 4.5,-5.89592 2.475,-2.64597 4.5,-5.08112 4.5,-5.41144 0,-0.33032 2.22808,-4.47263 4.95129,-9.20514 2.72321,-4.7325 5.25725,-9.59058 5.63119,-10.79571 0.37395,-1.20514 1.46704,-3.31616 2.42908,-4.69116 2.75361,-3.93558 6.86929,-26.18118 5.89081,-31.84027 -0.44312,-2.56285 -1.33292,-7.80973 -1.97731,-11.65973 -0.75423,-4.50623 -2.77452,-10.20628 -5.67095,-16 -4.80591,-9.61326 -8.4582,-14.40047 -14.18236,-18.58945 -1.96446,-1.43761 -4.69675,-3.73944 -6.07175,-5.11517 -3.00196,-3.00357 -8.10788,-6.25611 -18.63904,-11.87335 C 143.66371,351.14942 130.63911,346.85522 117,344.94475 c -3.025,-0.42372 -10,-1.46553 -15.5,-2.31512 -27.269374,-4.21233 -27.802739,-4.355 -25.709491,-6.87721 0.885385,-1.06682 0.872071,-1.68984 -0.05594,-2.61785 -0.95713,-0.95713 -0.898516,-1.41974 0.273793,-2.1609 1.546145,-0.9775 5.533354,-1.18533 27.491638,-1.43294 10.1847,-0.11485 15.59873,-0.73902 25,-2.88215 12.99563,-2.96252 19.52043,-5.32929 19.46456,-7.06045 C 147.94508,318.99416 147.28602,317.375 146.5,316 c -0.78602,-1.375 -1.44508,-3.93399 -1.46456,-5.68665 -0.0454,-4.07976 3.28547,-18.07789 5.20852,-21.88927 1.34361,-2.66297 2.60979,-6.58162 3.35435,-10.38132 0.15706,-0.80148 0.7015,-2.37648 1.20987,-3.5 C 156.89239,269.93661 160,261.38132 160,260.24961 c 0,-0.66646 1.40695,-4.25776 3.12655,-7.98068 4.627,-10.01736 5.52107,-12.22201 7.40873,-18.26893 0.94431,-3.025 2.56018,-7.34929 3.59082,-9.60953 1.03065,-2.26024 1.8739,-4.46777 1.8739,-4.90561 0,-2.12512 5.39507,-7.45031 9.50561,-9.38249 4.94793,-2.32581 5.08404,-2.97585 1.92474,-9.19241 -0.72395,-1.42452 -1.54228,-4.46509 -1.81851,-6.75683 -0.60532,-5.02193 -1.254,-6.22768 -2.99169,-5.56086 -0.88496,0.33959 -1.88378,-1.30085 -3.05043,-5.00993 -0.95405,-3.03317 -3.04753,-7.16691 -4.65218,-9.1861 C 173.31289,172.37705 172,170.2846 172,169.74634 c 0,-0.53825 -2.1409,-3.73888 -4.75755,-7.11249 -2.61665,-3.37362 -5.95913,-7.93385 -7.42774,-10.13385 -1.4686,-2.2 -5.60198,-7.15 -9.18529,-11 -4.35005,-2.84108 -9.38578,-6.82015 -13.65169,-15.33732 -1.67668,-0.61071 0.87585,-5.56511 2.8998,-6.64829 7.53485,-1.02377 6.92507,1.91856 13.29116,8.55744 10.16254,6.23516 13.08504,12.34051 17.81929,16.06056 3.74739,2.95987 5.65533,6.67731 5.83048,7.06801 0.17515,0.39069 2.58072,2.41794 5.3457,4.50498 2.76499,2.08704 6.67168,5.03582 8.68154,6.55285 4.38349,3.30862 11.26817,8.17635 16.4043,11.59847 2.0625,1.37421 3.75,3.09363 3.75,3.82093 0,0.7273 0.92958,1.32237 2.06574,1.32237 2.34325,0 5.49831,1.46727 8.43426,3.92237 3.0953,2.58835 20.31171,9.66641 27,11.10032 3.3,0.70748 9.33999,1.33678 13.42221,1.39844 15.60268,-0.84999 12.1476,-1.80105 19.39012,-4.90715 6.37789,-2.66485 15.44802,-14.51009 19.53655,-25.51398 4.23054,-11.38609 5.56037,-32.33712 3.57557,-44.73191 -0.75376,-4.70712 -1.15584,-10.88313 -1.05995,-13.72538 0.10752,-3.18692 -2.81359,-6.859532 -1.76238,-11.407739 L 302.75,92 l 4.50842,0 c 4.04143,0 4.55905,0.264806 4.99712,2.556452 6.83348,20.060588 13.43948,39.341018 15.82792,45.867518 2.39546,5.45818 5.38164,10.95023 6.63596,12.20454 1.25432,1.25432 2.28448,2.86354 2.28925,3.57604 0.005,0.7125 1.5518,2.92326 3.43784,4.91281 1.88604,1.98954 5.31961,5.80159 7.63015,8.47122 5.15242,5.95315 11.12468,10.83053 16.42334,13.41248 2.2,1.07202 4.675,2.38435 5.5,2.91628 3.82375,2.46541 13.20381,4.33986 19.25005,3.84681 9.2257,-0.75233 26.35211,-8.74614 34.56737,-16.13443 1.47542,-1.3269 4.66303,-4.14891 7.08358,-6.27113 2.42055,-2.12223 6.04999,-6.10859 8.06543,-8.85859 C 446.50129,148.2189 452,139.97593 452,138.96171 c 0,-0.57605 1.63859,-4.06558 3.64132,-7.75453 2.00272,-3.68895 4.70179,-8.68495 5.99792,-11.10222 3.41928,-6.3769 4.23733,-7.10496 7.9832,-7.10496 2.99624,0 3.37756,0.30245 3.37756,2.679 0,2.79185 -1.55854,8.482 -3.19908,11.67965 -0.52446,1.02225 -1.76566,4.40069 -2.7582,7.50764 -0.99255,3.10694 -2.78026,7.386 -3.97268,9.50901 -1.19243,2.12302 -1.96888,4.05919 -1.72545,4.30262 0.24343,0.24343 -0.22664,2.77798 -1.0446,5.63234 -4.3217,15.08114 -5.12539,25.62799 -3.25304,42.68974 1.49377,13.61193 3.69703,19.28691 9.58821,24.69657 9.53027,8.75132 17.66626,10.74251 34.36484,8.41044 4.675,-0.6529 10.75,-1.4594 13.5,-1.79222 2.75,-0.33283 6.125,-1.36202 7.5,-2.2871 1.375,-0.92508 5.50422,-2.67579 9.17604,-3.89047 9.00292,-2.97828 15.94123,-6.76605 31.14695,-17.00376 21.17423,-14.25618 24.47277,-15.71404 26.07971,-11.52643 0.62696,1.63385 -2.18861,9.39297 -3.40845,9.39297 -0.93091,0 -4.72165,3.12501 -14.5564,12 -3.96161,3.575 -10.03435,8.975 -13.49498,12 -22.99472,20.1001 -32.03725,34.95025 -32.30899,53.05958 -0.0904,6.02275 0.29108,8.15736 1.87634,10.5 1.09438,1.61723 2.21478,3.4421 2.48978,4.05526 0.275,0.61317 2.975,3.32297 6,6.02179 3.97847,3.54949 8.54306,6.19009 16.5,9.54522 13.41677,5.65734 22.92201,7.10459 49,7.46065 9.9,0.13517 20.025,0.60841 22.5,1.05163 3.90152,0.69869 4.5,1.13443 4.5,3.27634 0,1.57994 -0.83035,2.88444 -2.30354,3.6189 -1.26695,0.63164 -3.14415,2.05073 -4.17156,3.15353 -1.02741,1.1028 -3.56629,2.32369 -5.64195,2.71308 -2.07566,0.3894 -8.07346,2.49337 -13.32844,4.67549 -5.25498,2.18212 -11.57951,4.67318 -14.05451,5.5357 -2.475,0.86251 -4.725,1.89798 -5,2.30103 -0.275,0.40305 -2.525,2.00124 -5,3.55153 -2.475,1.55028 -7.0871,5.28567 -10.24911,8.30085 -9.0267,8.60756 -13.48122,17.73293 -14.73198,30.17942 -0.60993,6.06939 -0.39749,8.62165 1.1137,13.38027 1.02706,3.23415 1.86739,6.6265 1.86739,7.53856 0,0.91206 0.92586,3.44094 2.05748,5.61973 3.58837,6.90902 4.96869,11.72498 3.77334,13.16529 -0.82149,0.98983 -0.59132,1.29615 0.97393,1.29615 2.20417,0 7.23834,5.47528 9.6184,10.4612 3.23477,6.77643 23.07674,27.29235 33.32685,34.45883 3.4375,2.40336 6.25,4.73 6.25,5.1703 0,0.80785 2.85885,2.57393 8.65838,5.34878 1.73711,0.83114 3.31211,1.85985 3.5,2.28603 0.4919,1.11572 6.58246,5.27486 7.7244,5.27486 0.53007,0 2.28511,1.11183 3.90008,2.47074 1.61496,1.35891 5.27824,3.64703 8.14061,5.08472 2.86238,1.43768 5.44871,3.25085 5.74741,4.02926 0.2987,0.7784 1.73245,1.42959 3.18611,1.44708 2.75255,0.0331 6.84633,2.44105 5.44601,3.2033 -0.44165,0.24041 -0.17054,0.27314 0.60246,0.0727 1.42174,-0.3686 6.09454,3.35385 6.09454,4.85504 0,1.25317 -3.31635,4.83755 -4.47224,4.83369 -1.53772,-0.005 -15.88193,-5.96376 -16.97776,-7.05262 C 643.0275,508.42478 641.94972,508 641.15493,508 c -0.79479,0 -4.64229,-1.50484 -8.55,-3.34409 -3.90771,-1.83925 -9.80493,-4.26753 -13.10493,-5.39618 -3.3,-1.12865 -12.075,-4.15308 -19.5,-6.72096 -7.425,-2.56787 -16.65,-5.32418 -20.5,-6.12513 -3.85,-0.80094 -9.1559,-2.16394 -11.79089,-3.0289 -3.98098,-1.30678 -20.61773,-2.73783 -28.20911,-2.42647 -1.1,0.0451 -3.19988,0.094 -4.66641,0.10869 -3.81125,0.0381 -3.58313,-2.34121 0.63593,-2.77806 7.70438,-0.79773 -3.98463,15.72166 -7.6605,13.69579 -0.93004,0.008 -1.9691,0.46531 -2.30902,1.01531 -0.33992,0.55 -0.21117,-2.25344 0.62693,-2.25344 0.83811,0 9.44457,-4.89108 5.67937,0.6386 -2.9938,4.39677 -1.89217,8.12985 -7.66456,23.39692 -2.9568,7.82031 -4.06938,9.63137 -7.06471,11.5 -4.45922,2.78187 -10.54236,4.6705 -12.98551,4.0316 -1.02619,-0.26835 -2.16815,10e-4 -2.53768,0.5992 -0.37305,0.60361 -3.64776,1.09701 -7.36286,1.10936 -6.94628,0.0231 -10.20913,1.50445 -11.51462,5.22776 -0.33747,0.9625 -1.41521,1.76001 -2.39498,1.77224 -1.59289,0.0199 -1.56031,0.20504 0.308,1.75 4.9356,13.14868 8.87811,22.0433 14.35074,32.03163 1.92751,6.47023 2.15335,6.66221 2.91625,11.09085 3.89961,12.47517 2.20143,11.54151 0.0594,12.9258 -1.2111,0.75634 -2.45586,0.52926 -4.75155,-0.86684 z M 374.0066,541.96838 c 3.11304,-0.9193 18.61223,-3.61237 33.9934,-5.90654 3.025,-0.45119 9.1,-1.51162 13.5,-2.3565 4.4,-0.84488 11.825,-2.0523 16.5,-2.68316 4.675,-0.63086 11.76758,-1.79224 15.76129,-2.58084 3.99371,-0.7886 7.59371,-1.36406 8,-1.27882 0.40629,0.0852 1.41371,-0.11668 2.23871,-0.44873 0.825,-0.33204 6.675,-1.5457 13,-2.69701 31.2922,-5.69597 33.16417,-6.18752 34.3989,-9.03251 0.70159,-1.61658 3.31628,-8.82414 4.43134,-8.60129 1.92432,0.38458 0.91932,4.03354 -0.95503,3.40876 -0.76675,-0.25559 -0.38978,-2.65705 1.18428,-7.54436 2.01914,-6.26922 3.87103,-13.19622 6.33321,-13.737 3.27451,-0.71921 2.19963,4.80162 -0.0691,2.29473 -1.28514,-1.42006 -1.40183,-2.12691 -0.5,-3.02874 0.647,-0.647 1.17637,-2.40262 1.17637,-3.90138 0,-1.49875 2.27844,-8.72125 5.06319,-16.05 4.91632,-12.93847 6.17941,-16.54765 8.99161,-25.69291 1.21108,-3.93841 1.17152,-4.49342 -0.4023,-5.64423 -0.96,-0.70197 -2.51204,-1.13749 -3.44898,-0.96783 -4.23544,0.76696 -19.26661,3.80409 -24.70352,4.99148 -3.3,0.7207 -9.825,1.82927 -14.5,2.46349 -4.675,0.63421 -10.75,1.7861 -13.5,2.55975 -6.92862,1.9492 -23.27391,5.34327 -33.83003,7.02475 -4.85652,0.77359 -10.48152,1.82046 -12.5,2.32638 -2.01849,0.50593 -6.14497,1.20181 -9.16997,1.54641 -4.61644,0.5259 -21.64435,3.46815 -29.74176,5.13909 -2.15847,0.44541 -7.24981,8.60722 -7.2644,11.64539 -0.003,0.70578 -0.6089,2.43823 -1.34558,3.84989 -0.73667,1.41166 -1.65107,3.88666 -2.03199,5.5 -0.38092,1.61334 -2.51496,7.65835 -4.7423,13.43335 -2.22735,5.775 -4.62829,12.075 -5.33543,14 -0.70714,1.925 -2.24259,5.9837 -3.41212,9.01933 -1.16953,3.03563 -2.12642,6.20813 -2.12642,7.05 0,0.84187 -0.36007,1.95817 -0.80016,2.48067 -0.44009,0.5225 -1.85269,3.58475 -3.13913,6.805 -1.94281,4.86332 -2.10369,6.00399 -0.94984,6.73468 1.86281,1.17966 5.64736,1.13327 9.89573,-0.1213 z M 355.85568,536.25 c 1.31927,-2.49311 9.12862,-23.07524 10.3393,-27.25 0.55824,-1.925 1.60898,-4.625 2.33497,-6 0.72599,-1.375 2.3066,-5.2 3.51247,-8.5 1.20587,-3.3 2.55885,-6.7321 3.00662,-7.62689 0.44778,-0.89479 1.12094,-3.26226 1.49591,-5.26105 0.37498,-1.99878 1.08076,-3.88074 1.56841,-4.18212 0.48765,-0.30139 0.88664,-1.55642 0.88664,-2.78896 0,-1.23254 0.35921,-2.66848 0.79825,-3.19098 0.43903,-0.5225 1.62115,-3.34567 2.62693,-6.2737 1.43751,-4.18491 1.59221,-5.84272 0.72319,-7.75 -0.60802,-1.33447 -1.54791,-2.4263 -2.08865,-2.4263 -0.54074,0 -3.74943,-3.67846 -7.13043,-8.17436 -3.38099,-4.4959 -7.23642,-9.3334 -8.56762,-10.75 -1.33119,-1.4166 -4.66128,-5.50064 -7.40018,-9.07564 -2.7389,-3.575 -5.57153,-7.175 -6.29474,-8 -0.7232,-0.825 -2.61453,-3.3 -4.20294,-5.5 -1.58842,-2.2 -3.58009,-4.72417 -4.42592,-5.60926 -5.28276,-5.52793 -18.45175,-20.16475 -21.8924,-24.33256 -2.2438,-2.718 -4.76945,-5.32786 -5.61256,-5.79969 C 314.68982,377.28666 314,376.33863 314,375.65176 c 0,-0.68688 -1.8,-3.12213 -4,-5.41168 C 305.77086,365.83881 305.03417,364 307.5,364 c 2.69914,0 1.57658,-1.66172 -2.30498,-3.41206 -4.20067,-1.89424 -8.71657,-5.82261 -14.50359,-12.61663 -5.88404,-6.90793 -10.67877,-12.38713 -16.81415,-19.21446 -3.0925,-3.44127 -7.48625,-8.50685 -9.76389,-11.25685 -2.27765,-2.75 -4.98108,-5.9 -6.00765,-7 -1.02656,-1.1 -3.57296,-4.475 -5.65867,-7.5 -2.08571,-3.025 -4.29275,-5.95 -4.90452,-6.5 -0.61177,-0.55 -3.26041,-3.8125 -5.88588,-7.25 -2.62546,-3.4375 -5.15688,-6.25 -5.62538,-6.25 -0.77099,0 -6.94634,-6.97434 -18.85769,-21.29757 -12.3167,-14.81065 -27.09564,-30.54291 -29.37032,-31.26487 -2.25632,-0.71612 -2.71279,-0.41277 -3.27596,2.17713 -0.33235,1.52845 -6.10831,15.27924 -10.45295,24.88531 -0.49751,1.1 -1.70855,4.475 -2.69122,7.5 -0.98266,3.025 -2.14587,5.9275 -2.5849,6.45 -0.43904,0.5225 -0.79825,1.96973 -0.79825,3.21607 0,1.24634 -0.73737,3.96884 -1.63861,6.05 -0.90123,2.08116 -2.08644,4.90893 -2.6338,6.28393 -0.54735,1.375 -1.36372,3.4 -1.81416,4.5 C 160.15814,295.78652 157,307.32472 157,309.45109 c 0,1.41484 2.85585,5.29479 7.75,10.52913 4.2625,4.55879 7.91291,8.71691 8.11201,9.24028 0.19911,0.52336 2.89911,3.52226 6,6.6642 3.1009,3.14195 9.01299,9.70158 13.13799,14.57697 4.125,4.87538 8.22136,9.57848 9.10303,10.45133 0.88166,0.87285 4.23049,4.737 7.44183,8.587 3.21135,3.85 6.09085,7.225 6.3989,7.5 0.30806,0.275 4.60923,5.22495 9.55817,10.9999 4.94894,5.77494 10.57307,12.14015 12.49807,14.14492 1.925,2.00477 4.4,4.85891 5.5,6.34255 1.1,1.48363 2.70758,3.44342 3.57239,4.35507 0.86482,0.91166 2.65874,3.22648 3.98649,5.14405 1.32776,1.91757 3.11116,4.18355 3.96312,5.03551 0.85196,0.85196 2.88048,3.33304 4.50782,5.51351 1.62734,2.18047 3.23139,4.18949 3.56455,4.46449 0.33316,0.275 0.78572,1.00074 1.00569,1.61275 0.68806,1.91438 5.16559,7.31843 11.39994,13.75889 3.3,3.4091 8.925,9.52749 12.5,13.59641 3.575,4.06891 7.2875,8.09067 8.25,8.93723 0.9625,0.84656 1.75038,2.00169 1.75085,2.56696 4.7e-4,0.56527 4.25567,5.52776 9.45601,11.02776 5.20033,5.5 9.47495,10.52257 9.49915,11.16128 0.0242,0.6387 2.53896,3.71678 5.58837,6.84017 3.04941,3.1234 6.58841,7.32582 7.86444,9.33873 1.27603,2.0129 5.98106,7.37409 10.45562,11.91375 4.47456,4.53966 8.13556,8.66462 8.13556,9.16659 0,0.95349 4.97314,4.99277 6.21482,5.0478 0.39315,0.0174 1.13153,-0.75582 1.64086,-1.71832 z M 647,504 c 0,-0.55 -0.45,-1 -1,-1 -0.55,0 -1,0.45 -1,1 0,0.55 0.45,1 1,1 0.55,0 1,-0.45 1,-1 z m -46,-24 c 0,-0.55 -0.3421,-1 -0.76022,-1 -0.41812,0 -1.88062,-1.01664 -3.25,-2.2592 -1.36938,-1.24255 -3.77754,-3.08586 -5.35146,-4.09623 -5.4878,-3.52284 -18.5247,-16.81877 -22.75588,-23.208 C 566.53804,445.89645 564.33829,443 563.99409,443 c -0.34419,0 -1.67553,-1.9125 -2.95852,-4.25 C 556.67274,430.80128 553,428.44546 553,433.59571 c 0,1.42764 -0.61912,3.79014 -1.37582,5.25 -3.69627,7.13098 -5.76021,12.35743 -5.32641,13.48789 0.26386,0.6876 -0.12674,2.07959 -0.86799,3.09332 -0.74125,1.01372 -1.64229,3.80737 -2.0023,6.20811 -0.36001,2.40073 -0.95623,4.36497 -1.32492,4.36497 -0.3687,0 -0.6551,1.37771 -0.63646,3.06158 0.0335,3.02261 0.11028,3.06709 6.0339,3.49401 14.58963,1.05149 23.3241,2.47343 42,6.83744 7.34108,1.7154 11.5,1.93491 11.5,0.60697 z M 414.5,450.46207 c 7.15,-1.40596 17.47691,-3.22094 22.94868,-4.03329 5.47178,-0.81234 12.44678,-2.10071 15.5,-2.86304 3.05323,-0.76233 9.82632,-2.15751 15.05132,-3.10041 5.225,-0.9429 13.325,-2.59929 18,-3.68086 4.675,-1.08158 10.075,-2.1822 12,-2.44582 1.925,-0.26362 9.89023,-2.02267 17.7005,-3.90898 7.81028,-1.88632 15.01028,-3.43656 16,-3.44498 4.39808,-0.0374 4.67808,-1.58104 1.1754,-6.47978 -1.85674,-2.59678 -3.834,-5.50573 -4.39391,-6.46432 -0.5599,-0.9586 -3.00163,-3.82423 -5.42607,-6.36807 -5.26513,-5.52444 -5.71499,-5.33031 -10.61255,4.5795 -7.02944,14.22349 -10.95549,17.02414 -23.94337,17.08002 -15.93431,0.0686 -33.04395,-9.26881 -39.66978,-21.64928 C 444.65504,399.88136 454.47641,373 461.50191,373 c 0.87858,0 2.98835,-0.71928 4.68838,-1.5984 2.23599,-1.15628 5.84227,-1.5919 13.03758,-1.57487 9.4187,0.0223 9.86236,-0.0695 8.35936,-1.73034 C 486.71426,367.13176 486,366.08545 486,365.77126 c 0,-0.31419 -1.46336,-2.07876 -3.25191,-3.92126 -1.78855,-1.8425 -5.81481,-6.1625 -8.94723,-9.6 C 470.66844,348.8125 467.51858,346 466.80117,346 465.42864,346 460,356.53054 460,359.19301 c 0,0.85375 -1.9139,3.31644 -4.2531,5.47264 -3.56794,3.28881 -5.42491,4.14148 -11.52704,5.29287 -7.98655,1.50695 -16.00929,0.447 -19.32436,-2.55309 -0.99986,-0.90486 -1.943,-1.13759 -2.29593,-0.56654 -1.05718,1.71055 -10.85427,-2.81354 -16.45543,-7.59876 -10.6287,-9.08038 -11.59696,-17.51386 -4.01116,-34.9369 4.35969,-10.01333 15.11303,-15.27139 28.43951,-13.90605 4.48006,0.459 6.42751,0.31812 6.42751,-0.46496 0,-1.57913 -3.29381,-6.11861 -11.37889,-15.68222 -6.93758,-8.20625 -10.10654,-10.03735 -11.24915,-6.5 -0.81836,2.53352 -3.22439,7.96773 -6.24072,14.09514 -4.69098,9.52933 -14.27448,12.74036 -29.24579,9.79904 -8.88978,-1.74652 -15.97319,-5.64424 -23.71249,-13.04806 -6.07965,-5.81611 -7.63723,-8.41167 -8.5227,-14.20228 -0.68312,-4.46734 1.54593,-13.76993 3.94711,-16.47258 0.77144,-0.86831 1.40263,-2.0998 1.40263,-2.73665 0,-0.63685 1.2375,-2.93124 2.75,-5.09864 3.97136,-5.69093 11.40065,-8.27817 22.97174,-7.99988 5.26353,0.12659 8.8154,-0.1975 9.02403,-0.82341 0.18923,-0.56769 -2.15115,-3.89322 -5.20086,-7.39006 C 378.49521,240.37577 376,236.87391 376,236.09069 c 0,-0.78321 -0.30552,-1.11851 -0.67893,-0.7451 -0.37341,0.37342 -2.36728,-1.18668 -4.43082,-3.46686 -2.1056,-2.32667 -4.34399,-3.91859 -5.10128,-3.62799 -1.37178,0.5264 -2.79578,3.12142 -6.84544,12.47475 -3.54521,8.18825 -7.37957,10.51756 -19.44353,11.81162 -7.61051,0.81635 -19.62288,-2.16944 -27.32995,-6.79314 -7.19159,-4.31444 -14.42956,-11.6436 -13.81596,-13.99001 0.25869,-0.98924 -0.13438,-3.02606 -0.87349,-4.52628 -1.50253,-3.0498 -0.71524,-9.337 1.97562,-15.77715 C 300.3053,209.4184 301,206.63692 301,205.26947 c 0,-2.06522 -0.38105,-2.39854 -2.25,-1.96815 -1.2375,0.28497 -5.625,1.02792 -9.75,1.65099 -7.26263,1.097 -15.65465,2.71021 -19.25,3.70047 -2.66464,0.73391 -2.1405,1.8054 2.42686,4.96122 6.54933,4.52525 10.85718,8.56858 13.44149,12.61613 2.79086,4.37103 3.01851,7.40866 0.74364,9.92237 -1.30321,1.44003 -1.39046,2.10826 -0.42691,3.26928 0.96342,1.16085 0.80682,2.37327 -0.76569,5.92819 -1.88498,4.2613 -2.14854,4.45293 -5.67395,4.12527 -2.03343,-0.18898 -3.93593,-0.58239 -4.22777,-0.87424 -0.29185,-0.29185 -1.48397,-0.0192 -2.64915,0.60594 -2.63963,1.41614 -8.93852,1.13864 -18.43435,-0.81213 -7.5959,-1.56046 -10.30605,-2.79945 -19.55262,-8.93883 C 229.06744,235.76161 227,235.62123 227,238.93779 c 0,1.84054 7.29299,9.72484 12.72309,13.75467 1.68687,1.25188 6.56281,2.9303 11.3656,3.91233 10.87844,2.22433 17.04054,1.41983 21.23237,-2.772 2.55907,-2.55907 3.49665,-2.90197 6.43009,-2.35165 3.07377,0.57664 3.36767,0.9093 2.80038,3.16957 -2.03896,8.12386 -16.74851,12.59537 -32.17321,9.78024 -6.93682,-1.26603 -19.19123,-8.15056 -24.45519,-13.73893 -7.11621,-7.55479 -7.84326,-11.95798 -3.912,-23.69202 0.46066,-1.375 1.117,-4.1875 1.45853,-6.25 l 0.62097,-3.75 -4.29532,0.0168 c -2.36242,0.009 -8.34531,0.84233 -13.29531,1.8513 -11.11023,2.26463 -11.53211,3.3021 -4.61387,11.34604 2.70297,3.14278 5.5192,7.08028 6.25829,8.75 0.73909,1.66972 1.85135,3.03586 2.47168,3.03586 1.59931,0 15.3839,14.3484 15.3839,16.01313 0,0.38891 1.6167,2.45756 3.59266,4.59699 1.97596,2.13943 5.79585,6.36488 8.48865,9.38988 2.6928,3.025 7.6011,8.52615 10.90734,12.22478 3.30624,3.69862 6.01135,7.07822 6.01135,7.51021 0,0.432 1.03169,1.90585 2.29264,3.27523 1.26095,1.36938 3.68602,4.51478 5.38904,6.98978 1.70302,2.475 4.776,6.3 6.82885,8.5 8.27202,8.86498 10.27795,11.16769 13.06679,15 1.60097,2.2 3.48912,4.36719 4.19588,4.81598 0.70675,0.44879 2.40319,2.58728 3.76985,4.75221 1.36666,2.16493 5.96606,7.56568 10.22089,12.00167 4.25483,4.43598 7.89432,8.50975 8.08774,9.05282 0.19342,0.54306 2.61877,3.10013 5.38966,5.68236 2.77089,2.58223 6.83748,7.16996 9.03687,10.19496 2.19938,3.025 4.94903,6.44209 6.11033,7.59354 1.1613,1.15145 3.90596,4.30145 6.09923,7 2.19328,2.69855 5.49314,6.45132 7.33303,8.33949 1.83989,1.88816 4.99539,5.46974 7.01223,7.95905 2.01683,2.48931 4.23135,5.21945 4.92115,6.06697 0.6898,0.84752 4.7398,5.65229 9,10.67725 4.2602,5.02497 11.79582,14.29508 16.74582,20.60025 4.95,6.30518 9.9,11.95227 11,12.5491 2.53716,1.3766 7.74858,0.87205 24,-2.32358 z m -14.35379,-7.41454 c -4.38119,-1.09391 -11.29558,-4.17573 -12.96764,-5.77982 -0.72678,-0.69724 -1.85178,-1.28268 -2.5,-1.30098 -2.90366,-0.082 -12.31247,-11.22512 -14.26623,-16.89595 -1.40493,-4.07786 -0.77278,-8.63734 1.95589,-14.10709 0.89747,-1.79903 1.63177,-3.89476 1.63177,-4.65717 0,-2.39219 3.6892,-8.68528 6.85376,-11.69125 2.38617,-2.26658 4.7024,-3.17434 10.80935,-4.23631 6.80634,-1.18359 8.77079,-1.15087 15.80466,0.26326 9.31059,1.87185 21.60536,7.90194 25.85719,12.68191 5.1436,5.78251 6.9645,10.43616 6.23507,15.93489 -0.35907,2.70677 -1.53197,6.56165 -2.60644,8.56639 -1.07447,2.00473 -1.95359,4.44404 -1.95359,5.42068 0,4.17809 -4.04688,10.29788 -8.74446,13.2236 -4.24054,2.64107 -5.73019,2.98636 -13.75554,3.18852 -4.95,0.12469 -10.5092,-0.15012 -12.35379,-0.61068 z m 18.55655,-7.5519 c 4.21972,-1.25312 5.15384,-1.96292 5.59319,-4.25 0.65276,-3.39801 0.6084,-3.44091 -4.01757,-3.8846 -17.29394,-1.65871 -24.75923,-4.1163 -34.31551,-11.29675 C 382.98789,413.82892 380.20421,412 379.77691,412 c -0.4273,0 -0.76988,1.4625 -0.76129,3.25 0.0315,6.55362 14.03712,18.0452 24.81904,20.36399 7.62745,1.64037 8.98213,1.62958 14.8681,-0.11836 z m 7.5969,-18.13516 c 4.09143,-2.09604 4.66635,-3.03259 4.68503,-7.63189 0.0129,-3.18745 -0.74752,-4.54233 -4.91115,-8.75 -2.70955,-2.73822 -5.52205,-4.98135 -6.25,-4.98474 -0.72795,-0.003 -2.67354,-0.72407 -4.32354,-1.60151 -7.85452,-4.17692 -23.4226,-4.63874 -29.18105,-0.86566 -2.60387,1.70612 -3.17074,6.45538 -1.0327,8.6519 0.70743,0.72679 2.48711,2.91225 3.95482,4.85659 6.5796,8.71624 28.35605,14.78362 37.05859,10.32531 z M 348.5,382.12394 c -12.03769,-3.47804 -20.36806,-9.00756 -26.16819,-17.3699 -4.11362,-5.93079 -3.89285,-12.35047 0.76756,-22.31976 1.04535,-2.23615 1.90766,-4.48615 1.91625,-5 0.0305,-1.82632 7.53085,-9.3653 10.36123,-10.41465 6.0443,-2.24091 16.71295,-2.33502 24.26262,-0.21405 7.80859,2.19372 9.31875,2.88378 15.62019,7.13756 10.06097,6.79165 14.2053,12.87827 13.52986,19.87081 -0.24896,2.57733 -1.17706,6.26105 -2.06245,8.18605 -0.88538,1.925 -2.09588,5.3 -2.68999,7.5 -0.5941,2.2 -2.54484,5.70168 -4.33496,7.78151 -5.54085,6.43755 -18.6434,8.47101 -31.20212,4.84243 z m 22.10408,-7.63906 c 3.15805,-1.28281 5.22572,-5.30433 3.0683,-5.96772 -0.64481,-0.19827 -4.99738,-0.57528 -9.67238,-0.83779 -10.67778,-0.59959 -16.54432,-2.58878 -25.89827,-8.78144 -4.06904,-2.69386 -8.00654,-4.89793 -8.75,-4.89793 -2.70793,0 -1.40655,5.19655 2.34876,9.3788 9.50072,10.58088 27.52745,15.72709 38.90359,11.10608 z m 5.43128,-16.02942 c 8.33582,-4.2243 5.12064,-12.65044 -7.98354,-20.92275 -5.03038,-3.17554 -17.74769,-5.7746 -24.1195,-4.92934 -6.09999,0.80919 -9.93232,4.02861 -9.93232,8.34383 0,2.28246 1.18682,4.25463 4.75,7.89315 5.69518,5.81562 9.09931,7.68135 18.57405,10.18006 7.57815,1.99854 14.03764,1.8035 18.71131,-0.56495 z M 300.5,325.59083 c -15.18863,-3.86013 -26.94268,-13.01588 -30.01136,-23.37716 -1.85094,-6.24965 -1.39995,-9.5495 2.83091,-20.71367 4.34242,-11.45854 8.04913,-14.51891 19.65217,-16.22537 5.49541,-0.80822 7.75827,-0.61943 15,1.25146 17.28314,4.46506 24.35508,9.55897 29.61978,21.33511 2.19678,4.91379 2.27803,5.62314 0.97356,8.5 -0.78278,1.72634 -1.96448,5.67145 -2.626,8.76691 -1.96451,9.19259 -5.82413,16.04116 -10.43906,18.52324 -5.12098,2.75425 -17.89481,3.74524 -25,1.93948 z m 16.57426,-7.59489 c 3.20642,-0.89072 8.9028,-5.48134 7.84635,-6.32325 -0.23134,-0.18436 -4.81777,-0.83028 -10.19208,-1.43537 -11.55516,-1.301 -21.31832,-5.3194 -29.13506,-11.99165 -5.32726,-4.54727 -6.90524,-4.86376 -7.40415,-1.48503 -0.74662,5.05626 5.52812,12.79144 13.59744,16.76223 10.79255,5.31084 17.80585,6.55142 25.2875,4.47307 z m 9.13535,-19.39763 c 3.84498,-2.51932 5.43405,-6.9982 3.68933,-10.39851 -2.76381,-5.38642 -9.07801,-9.72844 -19.74016,-13.57449 -8.35892,-3.01523 -14.39234,-3.3159 -20.16772,-1.00506 -7.66402,3.06654 -8.15441,8.65351 -1.37185,15.62975 2.53996,2.6125 5.02366,4.75 5.51932,4.75 0.49567,0 2.57977,1.05625 4.63134,2.34721 2.05157,1.29097 5.53013,2.84619 7.73013,3.45605 5.59214,1.5502 16.52478,0.88183 19.70961,-1.20495 z M 499.78702,417.6594 c 3.51756,-3.52811 2.45519,-4.18584 -8.11732,-5.0256 -11.51728,-0.9148 -24.87777,-5.91576 -30.91088,-11.57024 -4.3677,-4.09359 -6.20452,-4.04204 -5.36599,0.15058 1.07709,5.38548 4.71789,9.4714 12.59123,14.1306 9.33907,5.52658 9.58332,5.59016 20.30296,5.2855 8.06731,-0.22928 9.00923,-0.47261 11.5,-2.97084 z M 548,411.65364 c 0,-1.2905 -0.77728,-3.878 -1.72729,-5.75 -1.23553,-2.43461 -1.83466,-6.57504 -2.10441,-14.54297 -0.386,-11.4013 0.85267,-17.35699 5.58645,-26.86067 3.60052,-7.22849 14.24941,-18.57169 20.69226,-22.0414 1.95414,-1.05237 3.55299,-2.22235 3.55299,-2.59994 0,-0.37759 2.85629,-2.28385 6.3473,-4.23614 3.49102,-1.95229 6.91493,-4.23356 7.60869,-5.0695 1.75763,-2.11781 -1.23581,-3.12233 -11.95599,-4.01211 -11.55357,-0.95895 -31.98326,-6.94895 -36.80454,-10.79113 -2.0325,-1.61974 -5.52421,-4.01974 -7.75935,-5.33334 -5.37413,-3.15838 -13.4939,-14.97952 -14.60633,-21.26458 -1.83146,-10.34753 -1.90207,-13.80052 -0.39989,-19.55606 1.42449,-5.45784 4.43876,-13.00759 6.62595,-16.5958 0.50288,-0.825 1.54455,-2.85 2.31481,-4.5 0.77027,-1.65 3.4906,-5.65917 6.04517,-8.90927 4.14725,-5.27641 5.13638,-7.39668 3.58418,-7.68294 -1.89567,-0.34961 -9.46606,1.66077 -14.5,3.8506 -4.7799,2.07932 -7.83015,2.65544 -15,2.83315 -4.95,0.12269 -10.23141,0.53704 -11.73647,0.92078 -4.68652,1.1949 -15.76972,-1.36121 -24.26353,-5.59589 -10.06676,-5.01888 -15.62352,-11.59899 -19.30835,-22.86421 -2.22871,-6.8136 -2.49002,-9.38673 -2.6719,-26.3098 -0.11087,-10.31668 -0.50142,-19.05743 -0.8679,-19.4239 -0.36647,-0.36647 -4.63331,3.12444 -9.48187,7.75759 -13.13471,12.55114 -20.71968,18.12242 -30.23758,22.20999 -7.68082,3.29861 -9.59565,3.70711 -18.5,3.94667 -8.54928,0.23002 -11.11605,-0.11439 -18.4324,-2.47327 -4.675,-1.50727 -9.80749,-3.86977 -11.40554,-5.25 C 355.86866,189.15524 354,188.34236 354,189.5109 c 0,1.353 4.52796,10.07757 5.56119,10.7154 0.64709,0.39947 1.73394,2.072 2.41522,3.71675 0.68128,1.64474 2.10228,3.26454 3.15778,3.59954 1.0555,0.335 2.6946,1.81226 3.64245,3.2828 2.28566,3.5461 5.21551,7.04315 7.97336,9.51699 1.2375,1.11006 2.25,2.29044 2.25,2.62306 0,0.33262 4.08806,4.86397 9.08458,10.06966 4.99652,5.2057 10.49533,11.4896 12.21958,13.96423 1.72425,2.47462 4.41767,5.57861 5.98537,6.89775 2.16916,1.82522 2.53491,2.59844 1.53042,3.23536 -0.93825,0.59491 -0.67596,0.84136 0.907,0.85225 1.32188,0.009 2.94754,1.13295 4,2.76531 0.97518,1.5125 4.83454,5.85862 8.57636,9.65804 3.94136,4.00202 6.35793,7.18329 5.74456,7.56237 -0.6063,0.37472 1.50763,2.94934 4.94669,6.02473 3.30299,2.9537 6.00544,6.11209 6.00544,7.01864 0,0.90654 1.07547,2.22383 2.38993,2.92731 1.31446,0.70348 2.9655,2.35452 3.66898,3.66898 0.70348,1.31446 1.66292,2.38993 2.13209,2.38993 0.46918,0 2.12972,2.01311 3.69011,4.47357 3.42161,5.39532 17.10874,22.42926 22.5054,28.00846 2.13758,2.20988 5.06258,5.57812 6.5,7.48498 1.43742,1.90685 4.30099,5.16935 6.36349,7.25 2.0625,2.08064 3.77176,4.34549 3.79836,5.03299 0.0266,0.6875 2.85871,3.725 6.29358,6.75 3.43487,3.025 7.5756,7.18199 9.20164,9.23775 3.5306,4.46369 7.57497,9.19588 11.25948,13.17438 1.48332,1.60168 2.93124,3.52389 3.2176,4.2716 C 519.91021,388.00637 545.3142,414 546.6946,414 547.41257,414 548,412.94414 548,411.65364 z m -43.9844,-8.51573 c 2.94301,-1.57278 3.53029,-2.46639 3.77975,-5.75136 0.25437,-3.34963 -0.23908,-4.44409 -3.55635,-7.88791 -2.11843,-2.19925 -5.62634,-4.85235 -7.79535,-5.89578 -2.16901,-1.04342 -4.78589,-2.31892 -5.81529,-2.83444 -7.61391,-3.81298 -17.7392,-4.31876 -25.23083,-1.26033 -3.51176,1.43367 -5.15002,6.21734 -3.30798,9.65923 3.07348,5.74285 11.7648,11.70851 20.91045,14.35277 6.9359,2.00536 16.88658,1.8244 21.0156,-0.38218 z m -57.31208,-41.63989 c 7.66936,-3.82598 6.46524,-6.45765 -2.96618,-6.48271 -11.21529,-0.0298 -25.69478,-5.52448 -33.46627,-12.6998 -1.58996,-1.46799 -5.24022,-2.6797 -5.9461,-1.97382 -1.09859,1.09859 1.87026,7.51472 4.75455,10.2753 1.65671,1.58565 3.43043,3.89551 3.94159,5.13301 0.545,1.31941 1.794,2.25 3.01988,2.25 1.14977,0 2.97043,0.47093 4.04591,1.04651 3.84808,2.05943 16.4786,4.8611 19.97185,4.4301 1.95731,-0.24149 4.94746,-1.13186 6.64477,-1.97859 z M 181.81417,358.25 c -0.82269,-0.9625 -4.55805,-5.575 -8.30081,-10.25 -14.52826,-18.14694 -14.89148,-18.41188 -23.16734,-16.89869 -7.38247,1.34983 -16.69478,4.44497 -17.10858,5.68638 -0.17367,0.521 1.38936,1.73097 3.4734,2.68884 2.08404,0.95787 5.0958,2.36751 6.6928,3.13253 1.597,0.76502 3.75326,1.39094 4.7917,1.39094 2.47882,0 14.17722,5.48764 19.52794,9.16042 4.58591,3.1478 11.93606,6.65604 14.18171,6.76894 1.16868,0.0588 1.15341,-0.22369 -0.0908,-1.67936 z m 272.69317,-13.66285 c 1.69602,-1.11127 2.49266,-2.54814 2.49266,-4.4959 0,-6.17345 -5.48713,-12.23655 -15.56349,-17.19712 -5.64981,-2.7814 -8.05173,-3.3554 -15.53838,-3.71334 l -8.85553,-0.42339 -3.48934,3.48934 c -3.18955,3.18955 -3.40786,3.77343 -2.541,6.79602 1.68917,5.88978 9.45577,12.20113 19.92976,16.19546 5.80894,2.21528 19.77981,1.82929 23.56532,-0.65107 z m -59.22762,-41.5034 C 398.3274,301.92503 401,299.28284 401,297.42857 c 0,-1.00465 -1.26115,-1.44626 -4.25,-1.48818 -4.32429,-0.0606 -10.35007,-1.03594 -16.87164,-2.73071 -3.97873,-1.03396 -13.03925,-5.24885 -13.9589,-6.49358 -0.3193,-0.43217 -2.1193,-1.60554 -4,-2.6075 -1.8807,-1.00196 -3.96704,-2.89878 -4.63631,-4.21517 -1.27903,-2.51573 -2.86879,-2.45012 -2.58229,0.10657 1.06549,9.50822 1.52313,11.006 3.73461,12.22285 1.27659,0.70243 4.79328,2.92223 7.81487,4.93289 3.02159,2.01066 7.68887,4.32631 10.37173,5.14589 5.62396,1.71804 15.14611,2.1172 18.65765,0.78212 z m 7.70057,-17.3682 c 4.19739,-2.12377 5.15245,-5.33991 3.00304,-10.11264 -1.01627,-2.2566 -2.08914,-4.89041 -2.38416,-5.85291 -0.29502,-0.9625 -1.37863,-1.75 -2.40802,-1.75 -1.02939,0 -4.30601,-1.34189 -7.28138,-2.98199 -8.06365,-4.44486 -15.26019,-6.29296 -21.31366,-5.47343 -9.76788,1.32239 -13.23089,5.0945 -10.57143,11.51499 2.06794,4.99245 11.81932,12.16993 20.47532,15.07081 3.54366,1.18758 17.88752,0.89705 20.48029,-0.41483 z M 258.62221,243.54211 c 0.39978,-1.0418 1.60379,-1.32162 4.21862,-0.98043 5.53714,0.7225 13.12,-1.59752 15.44218,-4.72463 2.47416,-3.33175 1.85441,-6.18321 -2.43543,-11.20539 -8.69085,-10.17451 -27.84512,-15.09308 -39.06816,-10.03219 -3.67479,1.6571 -3.86179,1.95977 -3.57842,5.79186 0.24565,3.32188 0.90532,4.4507 3.69688,6.32603 1.86884,1.25545 3.09051,2.28264 2.71482,2.28264 -0.37569,0 -0.2014,0.9 0.3873,2 0.5887,1.1 1.56249,2 2.16398,2 0.60149,0 2.83696,1.575 4.9677,3.5 2.13074,1.925 4.49269,3.5 5.24876,3.5 0.75607,0 1.93487,0.675 2.61956,1.5 1.57405,1.89662 2.90464,1.91208 3.62221,0.0421 z m 87.31087,0.0651 c 4.10496,-1.4834 6.23646,-4.24633 4.23801,-5.49348 -0.73089,-0.45612 -5.48818,-1.07746 -10.57174,-1.38075 -10.62289,-0.63377 -18.47674,-3.62436 -28.00624,-10.66422 -5.60182,-4.1383 -5.62903,-4.14611 -6.49109,-1.86225 -0.52256,1.38443 -0.46443,3.0577 0.14667,4.22161 1.68557,3.21035 10.49299,11.51982 13.46441,12.70317 9.57252,3.8122 20.717,4.8259 27.21998,2.47592 z M 353,227.05231 c 4.16751,-2.06441 5.13193,-6.20892 2.29211,-9.85018 -4.1796,-5.35915 -5.36972,-6.4527 -10.94226,-10.05441 -9.85212,-6.36773 -22.60357,-8.09958 -30.38969,-4.1274 -3.41612,1.74278 -3.96016,2.47775 -3.96016,5.34997 0,5.07989 4.70828,10.73277 12.65574,15.1948 11.01985,6.187 22.28143,7.4812 30.34426,3.48722 z M 217.8151,204.87659 c 1.2733,-0.48213 3.2983,-0.8791 4.5,-0.88217 3.95754,-0.0101 9.6849,-2.06274 9.6849,-3.47098 0,-0.76041 -5.01863,-3.91576 -11.15251,-7.0119 -6.13388,-3.09614 -13.67138,-7.54745 -16.75,-9.89179 C 195.1968,176.84194 189.25623,173 187.67681,173 c -2.06558,0 -2.74854,2.43121 -1.30209,4.6352 0.67311,1.02564 2.02039,4.4784 2.99395,7.67281 0.97356,3.19441 2.36816,6.03751 3.09913,6.31801 0.73096,0.28049 1.82157,2.4661 2.42359,4.85691 0.60201,2.39081 2.29504,5.77362 3.7623,7.51735 2.66516,3.16736 2.67457,3.16974 9.75702,2.46166 3.89911,-0.38982 8.13108,-1.10323 9.40439,-1.58535 z M 322,184.96224 c 6.875,-1.5731 14.4125,-3.14771 16.75,-3.49911 2.3375,-0.35141 4.25,-1.11877 4.25,-1.70525 0,-0.58648 -2.5875,-4.48516 -5.75,-8.66375 -3.1625,-4.17858 -6.92238,-9.39669 -8.35529,-11.59578 -1.43291,-2.19909 -4.47041,-6.86213 -6.75,-10.3623 C 319.86512,145.63587 318,142.33587 318,141.80271 c 0,-0.53316 -0.5185,-0.79654 -1.15222,-0.5853 -1.34079,0.44693 -3.55446,7.7435 -4.91372,16.19636 -0.52304,3.25257 -1.62217,7.25921 -2.44252,8.90364 -0.82035,1.64442 -1.49154,3.6596 -1.49154,4.47817 0,0.81856 -1.8,4.33839 -4,7.82185 -7.36157,11.65621 -6.51567,11.95438 18,6.34481 z"
         style="fill:#1a1a1a;stroke:#1a1a1a" />
    </g>
  </g>
</svg>
