<?xml version="1.0" encoding="UTF-8" standalone="no"?>
<!-- Created with Inkscape (http://www.inkscape.org/) -->

<svg
   xmlns:dc="http://purl.org/dc/elements/1.1/"
   xmlns:cc="http://creativecommons.org/ns#"
   xmlns:rdf="http://www.w3.org/1999/02/22-rdf-syntax-ns#"
   xmlns:svg="http://www.w3.org/2000/svg"
   xmlns="http://www.w3.org/2000/svg"
   xmlns:sodipodi="http://sodipodi.sourceforge.net/DTD/sodipodi-0.dtd"
   xmlns:inkscape="http://www.inkscape.org/namespaces/inkscape"
   width="1024"
   height="1024"
   id="svg2"
   version="1.1"
   inkscape:version="0.48.4 r9939"
   sodipodi:docname="Dynamite.svg">
  <defs
     id="defs4" />
  <sodipodi:namedview
     id="base"
     pagecolor="#ffffff"
     bordercolor="#666666"
     borderopacity="1.0"
     inkscape:pageopacity="0.0"
     inkscape:pageshadow="2"
     inkscape:zoom="0.7"
     inkscape:cx="61.541023"
     inkscape:cy="600.19018"
     inkscape:document-units="px"
     inkscape:current-layer="layer1"
     showgrid="false"
     inkscape:window-width="1920"
     inkscape:window-height="1018"
     inkscape:window-x="-8"
     inkscape:window-y="-8"
     inkscape:window-maximized="1" />
  <metadata
     id="metadata7">
    <rdf:RDF>
      <cc:Work
         rdf:about="">
        <dc:format>image/svg+xml</dc:format>
        <dc:type
           rdf:resource="http://purl.org/dc/dcmitype/StillImage" />
        <dc:title></dc:title>
      </cc:Work>
    </rdf:RDF>
  </metadata>
  <g
     inkscape:label="Layer 1"
     inkscape:groupmode="layer"
     id="layer1"
     transform="translate(0,-28.362183)">
    <g
       id="g3050"
       transform="matrix(0.947759,0,0,0.947759,12.857142,28.229064)">
      <g
         transform="matrix(1.4506921,0,0,1.4506921,174.19959,-234.96328)"
         id="g3041">
        <g
           id="g3037"
           transform="translate(-325.7742,-6.5659915)">
          <path
             transform="translate(3.2829958,0.25253814)"
             d="m 323.50136,237.42162 c 0,13.66835 -11.08039,24.74873 -24.74874,24.74873 -13.66835,0 -24.74873,-11.08038 -24.74873,-24.74873 0,-13.66835 11.08038,-24.74874 24.74873,-24.74874 13.66835,0 24.74874,11.08039 24.74874,24.74874 z"
             sodipodi:ry="24.748737"
             sodipodi:rx="24.748737"
             sodipodi:cy="237.42162"
             sodipodi:cx="298.75262"
             id="path3032"
             style="fill:#ff6600;fill-opacity:1;stroke:#ff6600;stroke-opacity:1"
             sodipodi:type="arc" />
          <path
             transform="translate(4.0406102,0.75761441)"
             d="m 312.89474,238.68431 c 0,8.08943 -6.55778,14.64721 -14.64721,14.64721 -8.08943,0 -14.64721,-6.55778 -14.64721,-14.64721 0,-8.08943 6.55778,-14.64721 14.64721,-14.64721 8.08943,0 14.64721,6.55778 14.64721,14.64721 z"
             sodipodi:ry="14.647212"
             sodipodi:rx="14.647212"
             sodipodi:cy="238.68431"
             sodipodi:cx="298.24753"
             id="path3030"
             style="fill:#9e232e;fill-opacity:1;stroke:#9e232e;stroke-opacity:1"
             sodipodi:type="arc" />
        </g>
        <g
           id="g3022"
           transform="translate(-332.84526,1.010153)">
          <path
             style="fill:#5b5557"
             d="m 274.5,883.36218 c -28.23645,-10.83478 -38.56623,-38.25744 -31.58869,-66.50276 -0.62015,-29.30189 1.63901,-58.58064 1.6198,-87.79736 1.40554,-17.09833 0.71016,-25.60378 0.40691,-41.11344 0.26691,-50.10662 1.83523,-100.24165 0.65354,-150.32821 -0.11861,-19.58627 1.0231,-38.95627 1.3946,-60.43552 0.44054,-26.53995 0.36048,-53.08489 0.51384,-79.6274 14.44174,-20.18487 42.29095,-23.32328 65.39995,-23.27636 4.88963,-18.86337 38.63045,-14.62705 32.01195,-34.66257 -2.96445,-34.27227 28.73442,-58.6717 58.55506,-67.13715 24.82439,-2.3169 52.041,-33.60094 15.81442,-44.14718 -27.62585,-11.06295 -56.93507,-11.84594 -80.52597,7.59938 -18.61814,21.95338 -47.57075,-16.85227 -23.27364,-30.3347 22.66458,-15.39966 45.41693,-27.901 73.35818,-24.54183 29.80641,5.16088 58.93616,12.73066 80.39771,36.13091 17.3474,20.09505 14.79821,44.82526 -2.63164,63.89595 -21.47596,18.16858 -47.47267,27.93902 -71.64093,41.61044 -17.23456,10.19687 -15.94993,22.29737 11.57719,31.18366 27.8145,9.30297 54.20827,10.16087 84.1438,7.64089 21.49148,0.29873 50.99288,7.8705 60.1505,29.92305 3.13951,30.75788 -0.79863,62.06935 -0.10406,93.03406 0.58453,21.88476 -0.52568,46.00954 -0.61595,68.91168 -1.06661,69.57805 -1.03666,139.17008 -3.48026,208.72143 -0.3022,22.56151 -1.30744,41.19425 -1.09459,63.64997 -0.49372,9.7791 2.18293,20.93792 -7.74995,26.94968 -22.15898,19.05449 -53.30457,20.24323 -81.35331,18.39203 -24.84486,0.24721 -45.31763,-21.19319 -70.02589,-13.99665 -13.88632,22.34625 -37.93363,32.72712 -63.55047,28.25147 -16.02851,-0.74314 -32.78957,1.76776 -48.3621,-1.99347 z"
             id="path3028"
             inkscape:connector-curvature="0"
             sodipodi:nodetypes="ccccccccccccccccccccccccccccc" />
          <path
             style="fill:#9e232e"
             d="m 302.86418,861.32097 c -4.7497,-0.49388 -10.8247,-1.75004 -13.5,-2.79148 -2.6753,-1.04143 -6.52128,-2.19481 -8.54663,-2.56305 C 275.48789,854.99741 268,850.56018 268,848.37092 c 0,-2.36279 8.49445,-8.00874 12.04932,-8.00874 1.48854,0 4.44889,-0.73242 6.57856,-1.62761 2.56093,-1.07646 7.09689,-1.66905 13.3953,-1.75 9.454,-0.1215 9.55933,-0.096 14.5,3.51671 6.83858,5.00043 17.12199,10.42062 22.49899,11.85878 4.43619,1.18653 6.97783,2.6163 6.97783,3.9253 0,0.37306 -2.1375,1.72792 -4.75,3.01081 -3.98187,1.95533 -6.60968,2.38024 -16.25,2.62764 -6.325,0.16232 -15.38612,-0.10896 -20.13582,-0.60284 z M 466,847.21821 c -3.575,-0.4897 -7.625,-0.68839 -9,-0.44153 -3.21675,0.57751 -12.98159,-2.20294 -13.62498,-3.8796 -0.27117,-0.70665 1.33352,-4.11086 3.56597,-7.5649 2.23246,-3.45404 4.05901,-6.87493 4.05901,-7.60198 0,-0.72705 1.19425,-2.10442 2.6539,-3.06081 4.94526,-3.24026 31.0431,-2.01142 44.40035,2.09062 7.8926,2.42384 14.94575,6.74115 14.94575,9.14846 0,2.22635 -11.4893,8.46265 -17.7007,9.6078 -3.18962,0.58804 -6.58069,1.46893 -7.53573,1.95754 -2.11315,1.0811 -12.93276,0.95403 -21.76357,-0.2556 z M 356.71944,832.00915 c -1.22069,-0.48102 -5.28763,-1.68639 -9.03764,-2.6786 -6.8548,-1.81371 -13.2035,-5.31385 -14.17094,-7.81267 -0.85361,-2.2048 5.10107,-6.91434 9.73154,-7.69665 2.31766,-0.39157 5.17934,-1.3445 6.35928,-2.11763 1.17994,-0.77313 4.56477,-1.63247 7.52184,-1.90966 2.95706,-0.27718 8.61252,-0.99684 12.56767,-1.59926 7.18283,-1.09402 15.5635,-0.4167 28.80881,2.32831 10.5926,2.19526 23.5,8.47779 23.5,11.43835 0,2.80112 -5.94314,6.20861 -12.71038,7.28748 -3.73429,0.59534 -9.93962,1.61684 -13.78962,2.26999 -8.26391,1.40197 -35.59023,1.74748 -38.78056,0.49034 z m -90.70766,-14.61853 c -1.6219,-1.02545 -1.7134,-9.87627 -0.59989,-58.02844 -0.28278,-21.76942 4.11493,-55.94554 2.72311,-66 -1.01566,-196.64701 -0.73272,-139.57503 3.26587,-281 0.15764,-1.375 0.35692,-3.01974 0.44285,-3.65498 0.26836,-1.984 8.55164,-6.17683 15.24696,-7.7177 10.22528,-2.35326 20.20449,-3.87222 22.8958,-3.48504 2.02792,0.29174 2.61362,1.09547 3.17559,4.35772 1.10973,6.44207 0.0399,75.55167 -1.19257,77.03668 -0.76391,0.92045 -0.72599,1.49582 0.13359,2.02707 0.66405,0.4104 1.69091,0.0752 2.29855,-0.75022 1.05467,-1.43274 2.21462,-1.83131 11.0983,-3.81353 2.2,-0.49089 5.24009,-1.19466 6.75575,-1.56394 1.68555,-0.41067 3.34542,-0.18202 4.27416,0.58877 1.94205,1.61175 3.19947,0.40783 1.90122,-1.82031 -0.62137,-1.06643 -0.96418,-18.81109 -0.91573,-47.40082 0.0873,-51.52285 -0.34257,-48.75318 7.8934,-50.8574 2.25016,-0.5749 7.4662,-2.33532 11.5912,-3.91205 11.85184,-4.53022 23.56763,-4.74764 47,-0.87223 3.575,0.59126 7.85,1.65312 9.5,2.35969 1.65,0.70657 4.4495,1.53939 6.22112,1.85071 4.2372,0.74458 10.77853,4.93454 13.00358,8.32928 1.6293,2.4858 1.7753,6.16624 1.7753,44.75342 0,26.88354 0.3606,42.30436 1,42.76445 0.55,0.39577 4.10553,0.6642 7.90118,0.59652 5.71208,-0.10186 7.14476,0.20491 8.31484,1.78042 1.37495,1.85136 1.46589,1.83979 3.32088,-0.42279 1.04898,-1.27946 2.29474,-2.08679 2.76837,-1.79407 0.89066,0.55046 1.60059,-26.96296 1.66039,-64.34883 0.0339,-21.17572 0.0648,-21.48436 2.25883,-22.5795 3.99497,-1.99402 28.49923,-1.06696 38.77551,1.46697 10.8699,2.68031 20.69083,7.41609 24.60845,11.86651 3.33649,3.79024 3.25994,2.79773 2.90881,37.7152 -0.38768,38.55258 -0.62387,49.95152 -1.07609,51.93502 -0.3475,1.52418 0.26601,2.08475 2.88951,2.6402 1.83187,0.38785 4.53187,1.81362 6,3.16839 1.46812,1.35476 3.40921,2.72178 4.31353,3.03782 0.90431,0.31603 2.85031,2.15589 4.32444,4.08858 2.63637,3.45646 2.65283,3.57174 1.00553,7.04315 -1.53525,3.23532 -1.54145,3.66242 -0.0744,5.12944 2.1153,2.1153 2.01914,3.76834 -0.34357,5.90657 -1.84602,1.67062 -2.17068,1.67251 -6.45153,0.0376 -4.17639,-1.59498 -4.46533,-1.93338 -3.93117,-4.60416 0.48184,-2.4091 0.2476,-2.88261 -1.42602,-2.88261 -1.1014,0 -2.56736,0.68055 -3.25767,1.51233 -0.75743,0.91265 -1.69818,1.17247 -2.37245,0.65524 -0.61453,-0.47141 -1.93569,-1.14968 -2.93592,-1.50727 -1.62015,-0.57923 -1.58803,-0.35706 0.29437,2.03603 2.01478,2.56138 2.10739,3.71133 1.9928,24.74494 -0.0661,12.1323 -0.53367,34.20873 -1.03905,49.05873 -0.50537,14.85 -0.93937,38.49777 -0.96443,52.5506 -0.65869,9.65224 0.69511,53.44066 1.08664,55.14557 -0.70369,4.30877 6.61003,-3.35166 9.80394,-0.66416 2.80425,2.35962 2.58558,4.74947 3.52773,3.08879 1.8468,-3.25525 4.37392,-1.84241 4.8139,5.6292 0.35386,6.00914 0.19749,6.75 -1.42466,6.75 -1.03118,0 -2.24138,1.10267 -2.78794,2.54024 -0.86873,2.28493 -1.54105,0.32596 -3.57341,-0.79552 -1.2427,-0.68573 -3.26129,0.72927 -4.91129,0.59125 -1.65,-0.13801 -5.01493,-0.5521 -7.47763,-0.92019 -4.16777,-0.62295 -1.67006,-0.18009 -0.3317,1.43253 1.71051,2.06104 -0.74547,13.39439 -1.87826,38.15169 -0.41524,9.075 -0.94409,24.79535 -1.17523,34.93411 -0.5373,23.56788 0.11004,22.93528 -17.13718,16.74677 -5.581,-2.00253 -10.29475,-2.72758 -23.25315,-3.57672 -8.93924,-0.58577 -18.27046,-0.78853 -20.73606,-0.45058 -7.37772,1.01123 -7.85477,0.0685 -7.14741,-14.12403 0.32976,-6.61625 0.8845,-25.75455 1.23275,-42.52955 0.34826,-16.775 1.18745,-33.31555 1.34554,-36.7979 0.43143,-9.50364 0.0702,-9.45502 -4.78983,-9.87823 -9.44506,-0.82248 -11.47889,-2.80416 -14.78637,-1.84781 l -4.36547,1.26226 -0.0935,9.88084 c -0.10045,10.6201 -0.31445,19.55937 -1.42822,59.65925 -0.66633,23.99039 -0.84911,25.84966 -2.63523,26.80557 -2.35598,1.26088 -10.49675,0.23142 -13.59975,-1.71979 -3.14515,-1.97772 -22.04103,-4.71833 -32.24334,-4.6765 -12.94841,0.0531 -31.08425,1.91327 -35,3.58991 -4.83867,2.07183 -11.20231,2.93726 -13,1.76795 -1.28507,-0.83587 -1.45775,-4.88518 -1.20516,-28.26061 0.53068,-49.10913 0.16924,-61.71768 1.36895,-62.91739 3.41174,-3.41174 0.47902,-2.5 -9.25892,0.67464 -3.99843,1.30351 -8.23063,0.59758 -9.19211,0.34615 -0.96149,-0.25144 -2.22459,1.51179 -2.59412,2.10965 -1.49381,-4.74261 -1.43168,0.30375 -2.46676,0.30375 -2.44417,0 -2.10805,3.94712 -1.70299,6.13663 0.32831,1.77469 0.72609,59.29444 -0.49608,74.56163 -0.28618,3.575 -0.53136,10.88158 -0.54483,16.23684 -0.0277,11.00916 -0.69734,12.33589 -6.69009,13.25448 -2.04482,0.31344 -5.96785,0.99379 -8.71785,1.51189 -2.75,0.51811 -6.35,1.12878 -8,1.35705 -1.65,0.22827 -5.60946,1.1406 -8.79879,2.02739 -6.74039,1.87416 -6.73886,1.87405 -8.68942,0.64079 z M 317.06574,682.327 c 1.35403,-0.72466 2.55916,-0.70075 4.01745,0.0797 1.63896,0.87715 2.45541,0.77803 3.82874,-0.46482 2.20919,-1.99929 6.23384,-0.12899 6.98756,1.83519 0.86201,2.24635 2.41449,-0.10621 1.81076,-2.41489 -0.28766,-1.1 0.0243,1.13346 0.58704,1.13346 0.59012,0 0.65622,-4.08557 0.27488,-5.38346 -1.275,-4.33936 0.0172,-121.27852 1.89792,-171.75 0.22951,-6.15923 1.21501,-10 2.56591,-10 0.49568,0 0.64221,-0.675 0.32563,-1.5 -0.82232,-2.14293 -3.10294,-1.85189 -4.39415,0.56077 -0.60659,1.13342 -1.63492,1.86687 -2.28518,1.6299 -0.65027,-0.23698 -2.5323,0.11506 -4.1823,0.78231 -3.89027,1.57319 -10.50051,2.91874 -12.83575,2.61277 -2.47553,-0.32435 -6.16828,2.98471 -4.48898,4.02257 0.67239,0.41556 1.20917,2.47369 1.19284,4.57362 -0.63301,81.40243 -1.71412,161.63565 -2.25791,167.56806 l -0.71041,7.75 2.86585,0 c 1.57621,0 3.73626,-0.46583 4.8001,-1.03518 z m 136.95284,-0.92542 c 2.27855,-0.57188 1.88214,-4.0418 1.94977,-6.62266 0.0641,-2.44697 -0.71394,-23.00225 0.54526,-72.41674 0.31535,-12.375 0.74692,-41.32935 0.95904,-64.34299 0.34927,-37.89253 0.54862,-42.02303 2.1115,-43.75 1.6517,-1.8251 1.62253,-1.91112 -0.67916,-2.00268 -26.70882,-1.06253 -27.27439,-0.99894 -25.78361,2.89879 0.69165,1.80834 0.76744,12.7457 0.23005,33.19688 -0.8459,32.19168 -0.86886,35.1245 -0.3249,41.5 0.18771,2.2 0.017,16.6 -0.37933,32 -0.39633,15.4 -0.91942,37.16724 -1.16242,48.37165 -0.27159,12.52287 0.002,23.82967 -0.66531,24.63343 -0.8593,1.0354 -0.94496,-1.51365 2.86686,-1.00733 10.06671,2.70688 14.15594,9.0224 20.33225,7.54165 z"
             id="path3026"
             inkscape:connector-curvature="0"
             sodipodi:nodetypes="ssssssssssssssssssssssssssssssssssssscccsssssscsssssssssssssssssssssssssssssssssssssssccssssssssssssssssssscssssssssssscsssssssssssssssssssssssssscsscssssssssssscc" />
          <path
             style="fill:#000000"
             d="m 241.86775,723.22993 c -10.46136,-21.75744 20.89463,-27.00175 35.80952,-31.56581 17.00256,-5.20291 35.74591,-9.51796 52.90279,-10.89928 6.37562,-0.51331 25.41031,-3.64982 36.8679,-5.34171 22.80252,-3.36715 47.1134,-6.37876 69.5063,-0.79581 13.16672,3.2827 21.00319,4.55865 38.54017,8.0304 16.6103,3.2883 40.4875,9.54383 56.8975,9.40284 17.29328,-0.14858 21.16499,21.37726 4.36752,21.13534 -30.69111,-0.44202 -60.52728,-12.08462 -90.93642,-16.99681 -44.74931,-7.22865 -91.62597,-4.08585 -135.31058,7.94504 -17.67898,4.86885 -35.1429,10.14379 -53.07132,16.20603 -4.91219,1.66099 -12.69047,8.87561 -15.57338,2.87977 z M 241,528.06513 c -1.17191,-10.07629 6.86596,-16.1453 12.66411,-21.14789 16.23598,-14.00827 38.82693,-18.91625 58.26623,-26.24204 15.74831,-5.93483 31.75776,-6.37347 48.97489,-8.29584 27.40199,-3.05956 54.98347,-1.34736 82.46042,-1.22543 13.27439,0.0589 20.83592,2.18844 32.53564,3.71053 11.67375,1.51871 20.65677,3.72412 29.9684,6.44741 13.96304,4.08364 26.33235,7.93049 37.29449,14.87047 9.70715,6.14547 6.5775,33.97332 -9.5621,18.66963 -7.29044,-6.91285 -23.02272,-9.6485 -31.27524,-13.19838 -27.43387,-11.80088 -57.88974,-9.27577 -86.87999,-9.92361 -24.96565,-0.5579 -49.83488,3.02935 -74.79582,3.20824 -11.51472,0.0825 -29.73669,7.67618 -43.52127,11.6257 -17.3946,4.98386 -33.56861,14.99853 -47.66494,25.79826 -7.30432,5.59611 -7.39275,4.92077 -8.46482,-4.29705 z M 347.55199,346.11218 c -17.3219,-19.25653 10.74756,-54.53573 31.20981,-67.03492 17.97824,-10.98186 39.49566,-6.71475 53.08366,-24.03976 16.03647,-20.44686 -14.97417,-27.53216 -30.16762,-32.0294 -22.76554,-6.73857 -43.3679,5.01359 -65.25751,16.28265 -24.74901,12.74111 -46.88782,-16.63742 -23.8844,-32.92857 23.58195,-16.70087 52.60536,-29.88068 81.53722,-24.36463 19.34309,3.68789 38.95216,9.61998 56.95938,18.9502 13.99723,7.25249 31.93641,23.97214 32.49622,42.37678 0.66667,21.91756 -14.53587,40.98485 -34.78341,51.59848 -18.59996,9.74997 -31.58104,18.42548 -49.82112,24.95057 -14.68565,5.25355 -18.22307,31.49583 -22.64461,23.03281 -11.33929,-21.70391 28.14336,-40.01277 45.92676,-45.37349 69.19304,-24.30084 56.53257,-88.67731 -8.38074,-104.70048 -22.96263,-5.41713 -47.06147,-5.29397 -70.24221,3.62286 -18.13451,6.97572 -28.74064,35.6776 -6.92732,32.71484 18.91068,-2.56851 31.34789,-19.30573 47.62133,-17.26085 13.9963,1.75874 30.12508,7.49881 44.71324,12.45291 23.56358,8.00213 23.72536,34.42478 3.93178,45 -20.86328,11.14674 -42.60153,18.10134 -62.73931,32.36765 -17.65378,12.50656 -13.21406,54.85121 -22.63115,44.38235 z M 324.01548,231.55316 c -0.79783,-8.15011 -12.7757,-22.63729 -14.51548,-11.19098 -0.60988,4.01251 15.30575,19.26391 14.51548,11.19098 z m -40.38962,86.27641 c 2.19284,-8.67083 5.35132,-50.50547 13.71364,-23.78002 5.02014,13.89102 15.08484,21.7286 -4.49244,17.95387 -2.46806,0.46533 -6.94291,8.66979 -9.2212,5.82615 z m -42.60672,-30.66789 c -16.00946,-9.81637 7.25357,-21.30751 11.46811,-18.2995 -3.05716,3.37201 -5.77432,27.01997 -11.46811,18.2995 z M 341,265.79931 c -11.6554,-1.15937 -31.23258,-7.66356 -8.89414,-10.38742 9.53561,-0.50536 21.7757,-10.30725 16.75267,5.17902 5.71122,8.93761 -2.19325,6.96872 -7.85853,5.2084 z M 238,218.75343 c -14.98017,-5.89904 -40.93926,-17.01585 -12.5,-13.89125 1.70852,-9.70626 0.66426,-30.9423 10.20618,-11.55523 5.05818,11.16855 26.15091,36.01735 2.29382,25.44648 z m 42.69804,-8.84075 c -5.94942,-12.56321 -2.20399,-23.07164 7.63234,-14.96754 14.98221,-9.30028 -4.12399,20.51299 -7.63234,14.96754 z"
             id="path3024"
             inkscape:connector-curvature="0"
             sodipodi:nodetypes="sssssssssssssssssssssssssssssssssssssssccsssssssssscccccccccccccccccc" />
        </g>
      </g>
    </g>
  </g>
</svg>
