<?xml version="1.0" encoding="UTF-8" standalone="no"?>
<!-- Created with Inkscape (http://www.inkscape.org/) -->

<svg
   xmlns:dc="http://purl.org/dc/elements/1.1/"
   xmlns:cc="http://creativecommons.org/ns#"
   xmlns:rdf="http://www.w3.org/1999/02/22-rdf-syntax-ns#"
   xmlns:svg="http://www.w3.org/2000/svg"
   xmlns="http://www.w3.org/2000/svg"
   xmlns:sodipodi="http://sodipodi.sourceforge.net/DTD/sodipodi-0.dtd"
   xmlns:inkscape="http://www.inkscape.org/namespaces/inkscape"
   id="svg3104"
   version="1.1"
   inkscape:version="0.48.3.1 r9886"
   width="1920"
   height="1920"
   sodipodi:docname="Artisian Head.svg">
  <metadata
     id="metadata3110">
    <rdf:RDF>
      <cc:Work
         rdf:about="">
        <dc:format>image/svg+xml</dc:format>
        <dc:type
           rdf:resource="http://purl.org/dc/dcmitype/StillImage" />
        <dc:title></dc:title>
      </cc:Work>
    </rdf:RDF>
  </metadata>
  <defs
     id="defs3108" />
  <sodipodi:namedview
     pagecolor="#ffffff"
     bordercolor="#666666"
     borderopacity="1"
     objecttolerance="10"
     gridtolerance="10"
     guidetolerance="10"
     inkscape:pageopacity="0"
     inkscape:pageshadow="2"
     inkscape:window-width="1920"
     inkscape:window-height="1005"
     id="namedview3106"
     showgrid="false"
     inkscape:zoom="0.25132109"
     inkscape:cx="947.76004"
     inkscape:cy="1208.4944"
     inkscape:window-x="-9"
     inkscape:window-y="-9"
     inkscape:window-maximized="1"
     inkscape:current-layer="svg3104" />
  <path
     style="fill:#0e171e"
     d="m 787.16657,1883.9073 c -61.55108,-18.8268 -96.36192,-52.4925 -117.76595,-113.8923 -41.24654,-118.3199 -39.88987,-226.5877 2.51105,-200.3826 36.16639,22.352 506.14913,17.4651 583.64253,-6.0688 40.4934,-12.2974 48.4918,3.3573 48.4918,94.9096 0,163.9901 -63.5819,221.5348 -263.2415,238.2459 -91.44178,7.6534 -205.57882,1.8881 -253.63785,-12.8118 z M 645.28845,1436.7668 c 6.4294,-19.2882 41.93869,-43.5225 78.90956,-53.8539 99.5818,-27.8279 518.81119,-28.1059 535.96199,-0.3553 13.5145,21.8671 -133.7844,44.9689 -492.23257,77.2002 -100.02341,8.994 -131.34344,3.1225 -122.63898,-22.9909 z M 384.16557,457.19693 C 338.63663,446.48584 288.01403,435.19981 188.04562,425.86463 18.897306,410.06937 7.755317,404.91665 27.475516,351.60778 49.870745,291.06769 186.59235,236.86905 201.80317,282.5014 c 4.9038,14.71147 58.52249,30.82173 119.15265,35.8007 378.51119,31.08328 450.11843,47.7278 436.09176,101.36586 -7.51186,28.72541 -36.40639,52.22801 -64.21004,52.22801 -157.39625,8.70439 -88.82248,8.04838 -308.67197,-14.69904 z M 1807.6006,298.17578 c -52.8206,-52.75943 -91.1811,-61.66627 -261.9368,-60.81897 -138.2309,0.68608 -228.948,16.4418 -293.5545,50.98486 -84.9487,45.41936 -97.4788,46.01441 -136.9874,6.50569 -39.5087,-39.50861 -37.8384,-49.49826 18.2613,-109.21366 182.9186,-194.708011 675.1226,-159.421117 754.0953,54.06229 35.2105,95.18299 -9.9967,128.27989 -79.8779,58.47979 z"
     id="path3162"
     inkscape:connector-curvature="0"
     sodipodi:nodetypes="cssssscccssscccsssssccsssssss" />
  <path
     sodipodi:type="arc"
     style="fill:#000000;fill-opacity:1;stroke:#000000;stroke-opacity:1"
     id="path3164"
     sodipodi:cx="-720.27118"
     sodipodi:cy="893.05084"
     sodipodi:rx="171.62712"
     sodipodi:ry="171.62712"
     d="m -548.64406,893.05084 a 171.62712,171.62712 0 1 1 -343.25424,0 171.62712,171.62712 0 1 1 343.25424,0 z"
     transform="matrix(1.1634582,0,0,1.1634582,1332.2431,-349.80701)" />
  <path
     transform="matrix(0.49327949,0,0,0.49327949,854.71882,169.91698)"
     d="m -548.64406,893.05084 a 171.62712,171.62712 0 1 1 -343.25424,0 171.62712,171.62712 0 1 1 343.25424,0 z"
     sodipodi:ry="171.62712"
     sodipodi:rx="171.62712"
     sodipodi:cy="893.05084"
     sodipodi:cx="-720.27118"
     id="path3166"
     style="fill:#ffffff;fill-opacity:1;stroke:#ffffff;stroke-opacity:1"
     sodipodi:type="arc" />
  <path
     transform="matrix(1.1634582,0,0,1.1634582,2316.4465,-349.80004)"
     d="m -548.64406,893.05084 a 171.62712,171.62712 0 1 1 -343.25424,0 171.62712,171.62712 0 1 1 343.25424,0 z"
     sodipodi:ry="171.62712"
     sodipodi:rx="171.62712"
     sodipodi:cy="893.05084"
     sodipodi:cx="-720.27118"
     id="path3168"
     style="fill:#000000;fill-opacity:1;stroke:#000000;stroke-opacity:1"
     sodipodi:type="arc" />
  <path
     sodipodi:type="arc"
     style="fill:#ffffff;fill-opacity:1;stroke:#ffffff;stroke-opacity:1"
     id="path3170"
     sodipodi:cx="-720.27118"
     sodipodi:cy="893.05084"
     sodipodi:rx="171.62712"
     sodipodi:ry="171.62712"
     d="m -548.64406,893.05084 a 171.62712,171.62712 0 1 1 -343.25424,0 171.62712,171.62712 0 1 1 343.25424,0 z"
     transform="matrix(0.49327949,0,0,0.49327949,1838.9222,169.92395)" />
</svg>
