<?xml version="1.0" encoding="UTF-8" standalone="no"?>
<!-- Created with Inkscape (http://www.inkscape.org/) -->

<svg
   xmlns:dc="http://purl.org/dc/elements/1.1/"
   xmlns:cc="http://creativecommons.org/ns#"
   xmlns:rdf="http://www.w3.org/1999/02/22-rdf-syntax-ns#"
   xmlns:svg="http://www.w3.org/2000/svg"
   xmlns="http://www.w3.org/2000/svg"
   xmlns:sodipodi="http://sodipodi.sourceforge.net/DTD/sodipodi-0.dtd"
   xmlns:inkscape="http://www.inkscape.org/namespaces/inkscape"
   width="1024"
   height="1024"
   id="svg2"
   version="1.1"
   inkscape:version="0.48.4 r9939"
   sodipodi:docname="surfer.svg">
  <defs
     id="defs4" />
  <sodipodi:namedview
     id="base"
     pagecolor="#ffffff"
     bordercolor="#666666"
     borderopacity="1.0"
     inkscape:pageopacity="0.0"
     inkscape:pageshadow="2"
     inkscape:zoom="0.35"
     inkscape:cx="467.47152"
     inkscape:cy="487.95154"
     inkscape:document-units="px"
     inkscape:current-layer="layer1"
     showgrid="false"
     inkscape:window-width="1366"
     inkscape:window-height="705"
     inkscape:window-x="-8"
     inkscape:window-y="-8"
     inkscape:window-maximized="1" />
  <metadata
     id="metadata7">
    <rdf:RDF>
      <cc:Work
         rdf:about="">
        <dc:format>image/svg+xml</dc:format>
        <dc:type
           rdf:resource="http://purl.org/dc/dcmitype/StillImage" />
        <dc:title />
      </cc:Work>
    </rdf:RDF>
  </metadata>
  <g
     inkscape:label="Layer 1"
     inkscape:groupmode="layer"
     id="layer1"
     transform="translate(0,-28.362183)">
    <path
       style="fill:#fd6c29;fill-opacity:1;stroke:#fd6c29;stroke-width:5.41820765px;stroke-linecap:butt;stroke-linejoin:miter;stroke-opacity:1"
       d="m 971.22902,968.11005 c 2.86692,28.47054 2.59593,31.78758 -9.92262,31.81301 -17.18084,0.0543 -37.97126,0.37924 -47.54621,0.62524 -8.47012,0.2168 19.93657,-189.5668 39.04534,-227.13828 15.92161,-31.30478 10.50755,3.71905 10.21366,31.88344 -0.76321,73.13931 -0.22918,79.0159 8.20983,162.81659 z"
       id="path2996"
       inkscape:connector-curvature="0"
       sodipodi:nodetypes="ssssss" />
    <path
       style="fill:#fd6c29;fill-opacity:1;stroke:#fd6c29;stroke-width:5.41820765px;stroke-linecap:butt;stroke-linejoin:miter;stroke-opacity:1"
       d="m 535.03951,650.44352 c 35.25227,-5.2763 105.20607,-11.80379 149.96828,-4.83765 8.00664,1.24603 67.2438,14.51305 2.41879,-24.18845 -64.82495,-38.7015 -154.31525,-0.83467 -169.31897,-6.28897 -6.65373,-2.41885 -14.27503,-2.41885 -21.41255,0 -15.11972,5.12395 -104.49403,-32.41253 -169.31899,6.28897 -64.82502,38.7015 -5.62215,25.18957 2.4188,24.18845 40.40828,-5.03108 115.0473,-2.30962 149.9683,4.83765 18.90921,3.87017 35.88338,2.90259 55.27634,0 z"
       id="path2994"
       inkscape:connector-curvature="0"
       sodipodi:nodetypes="sssssssss" />
    <path
       style="fill:#fd6c29;fill-opacity:1;stroke:#fd6c29;stroke-width:5.41820765px;stroke-linecap:butt;stroke-linejoin:miter;stroke-opacity:1"
       d="m 772.14075,997.12783 c -25.62526,-4.84174 -25.99781,-0.68428 -25.99781,-35.57593 -5e-5,-24.10131 -30.1027,-26.682 -14.36719,-56.1007 15.73551,-29.41815 18.6797,-76.98568 -1.36832,-101.25438 -6.49946,-7.86778 4.81256,-45.19111 19.15629,-67.73085 14.36719,-22.57724 28.33263,-49.18227 28.73439,-35.23407 1.49157,51.78399 -5.20695,113.83926 2.89337,174.44192 15.44104,115.52212 70.96373,136.57248 -9.05073,121.45401 z"
       id="path2997"
       inkscape:connector-curvature="0"
       sodipodi:nodetypes="ssssssss" />
    <path
       sodipodi:nodetypes="sssssssssssssssss"
       inkscape:connector-curvature="0"
       id="path3007"
       d="m 497.91823,968.39345 c 0.51689,-14.85024 -0.71607,-34.69171 -80.72995,-32.83922 -45.83094,1.06088 -43.67888,-21.39596 11.73969,-20.92567 56.99331,0.48222 65.08573,-17.8129 65.08573,-55.87473 0,-38.06236 -8.09242,-56.35911 -65.08573,-55.87526 -55.41857,0.47138 -57.57063,-21.98601 -11.73969,-20.92513 80.01388,1.85195 79.06184,-18.07459 80.72995,-32.8392 1.77576,-15.71769 4.0889,-21.20904 12.25354,-21.20904 8.16465,0 10.47774,5.49135 12.2535,21.20904 1.6681,14.76461 0.71607,34.69115 80.72992,32.8392 45.83094,-1.06088 43.67888,21.39542 -11.73969,20.92513 -56.9933,-0.48222 -65.08571,17.8129 -65.08571,55.87526 0,38.06183 8.09241,56.35858 65.08571,55.87473 55.41857,-0.47138 57.57063,21.98655 11.73969,20.92567 -80.01385,-1.85249 -79.51169,18.03017 -80.72992,32.83922 -1.43366,17.42817 -0.78326,32.15485 -12.25355,32.15485 -11.47024,0 -12.87225,-14.38472 -12.25349,-32.15485 z"
       style="fill:#fd6c29;fill-opacity:1;stroke:#fd6c29;stroke-width:5.41820765px;stroke-linecap:butt;stroke-linejoin:miter;stroke-opacity:1" />
    <path
       sodipodi:nodetypes="sssssssss"
       inkscape:connector-curvature="0"
       id="path3013"
       d="M 476.98704,160.38596 C 334.98995,96.759832 239.74122,117.22327 177.05055,129.4248 c -18.26815,3.55553 -47.50653,15.25199 -0.96754,-14.51305 81.42076,-52.074506 238.59518,-22.313752 308.64432,12.57799 16.59932,8.26818 39.15815,8.51227 55.63367,0 74.15405,-38.312528 225.17105,-56.442664 308.64429,-12.57799 48.90247,25.69796 17.30061,18.06858 -0.96753,14.51305 -62.69067,-12.20153 -137.41485,-25.82345 -299.93647,30.96116 -22.37812,7.81885 -49.48189,9.69307 -71.11425,0 z"
       style="fill:#fd6c29;fill-opacity:1;stroke:#fd6c29;stroke-width:5.41820765px;stroke-linecap:butt;stroke-linejoin:miter;stroke-opacity:1" />
    <path
       sodipodi:nodetypes="ssssssssssssssssss"
       inkscape:connector-curvature="0"
       id="path3015"
       d="m 486.69706,498.05642 c -30.42107,9.35139 -202.84075,-1.19222 -276.71562,-3.87011 -73.4909,-2.66398 -87.0783,-12.578 -113.201811,-47.40933 -26.12351,-34.83132 -0.368979,-41.48256 8.707821,-26.12351 9.68548,16.38943 39.66903,37.73392 58.05225,40.63657 18.38316,2.90258 268.43698,7.45691 299.39819,7.45691 30.96122,0 34.69555,-9.79276 37.30469,-15.1972 4.47154,-9.26217 7.78624,-43.42034 7.74029,-47.40932 -0.17284,-14.99684 17.07028,-15.48058 16.89755,0 -0.0434,3.98898 3.26875,38.14715 7.74029,47.40932 2.60914,5.40444 6.34347,15.1972 37.30468,15.1972 30.9612,0 281.01501,-4.55433 299.39818,-7.45691 18.38322,-2.90265 48.36677,-24.24714 58.05225,-40.63657 9.07658,-15.35905 34.83137,-8.70781 8.70782,26.12351 -26.12351,34.83133 -39.71091,44.74535 -113.20181,47.40933 -73.87488,2.67789 -246.7456,14.5793 -276.7156,3.87011 -22.12596,-7.90625 -18.08181,-18.38317 -29.73459,-18.38317 -11.65277,0 -6.24036,11.16108 -29.73458,18.38317 z"
       style="fill:#fd6c29;fill-opacity:1;stroke:#fd6c29;stroke-width:5.41820765px;stroke-linecap:butt;stroke-linejoin:miter;stroke-opacity:1" />
    <path
       sodipodi:nodetypes="ssssss"
       inkscape:connector-curvature="0"
       id="path3017"
       d="m 52.770995,968.11005 c -2.866937,28.47054 -2.595918,31.78758 9.92258,31.81301 17.180867,0.0543 37.971285,0.37924 47.546235,0.62524 8.47013,0.2168 -19.936564,-189.5668 -39.045337,-227.13828 -15.921621,-31.30478 -10.507531,3.71905 -10.213647,31.88344 0.763209,73.13931 0.22919,79.0159 -8.209831,162.81659 z"
       style="fill:#fd6c29;fill-opacity:1;stroke:#fd6c29;stroke-width:5.41820765px;stroke-linecap:butt;stroke-linejoin:miter;stroke-opacity:1" />
    <path
       sodipodi:nodetypes="ssssssss"
       inkscape:connector-curvature="0"
       id="path3019"
       d="m 251.85925,997.12783 c 25.62526,-4.84174 25.99781,-0.68428 25.99781,-35.57593 5e-5,-24.10131 30.1027,-26.682 14.36719,-56.1007 -15.7355,-29.41815 -18.6797,-76.98568 1.36832,-101.25438 6.49946,-7.86778 -4.81256,-45.19111 -19.15629,-67.73085 -14.36719,-22.57724 -28.33263,-49.18227 -28.73438,-35.23407 -1.49158,51.78399 5.20694,113.83926 -2.89338,174.44192 -15.44103,115.52212 -70.96373,136.57248 9.05073,121.45401 z"
       style="fill:#fd6c29;fill-opacity:1;stroke:#fd6c29;stroke-width:5.41820765px;stroke-linecap:butt;stroke-linejoin:miter;stroke-opacity:1" />
  </g>
</svg>
